<?plantuml 1.2026.2?><svg xmlns="http://www.w3.org/2000/svg" xmlns:xlink="http://www.w3.org/1999/xlink" contentStyleType="text/css" data-diagram-type="CLASS" height="278px" preserveAspectRatio="none" style="width:2832px;height:278px;background:#FFFFFF;" version="1.1" viewBox="0 0 2832 278" width="2832px" zoomAndPan="magnify"><defs/><g><!--class Procedure--><g class="entity" data-qualified-name="Procedure" data-source-line="1" id="ent0002"><rect fill="#F1F1F1" height="48" rx="2.5" ry="2.5" style="stroke:#181818;stroke-width:0.5;" width="103.2031" x="249" y="7"/><ellipse cx="264" cy="23" fill="#ADD1B2" rx="11" ry="11" style="stroke:#181818;stroke-width:1;"/><path d="M266.9688,28.6406 Q266.3906,28.9375 265.75,29.0781 Q265.1094,29.2344 264.4063,29.2344 Q261.9063,29.2344 260.5781,27.5938 Q259.2656,25.9375 259.2656,22.8125 Q259.2656,19.6875 260.5781,18.0313 Q261.9063,16.375 264.4063,16.375 Q265.1094,16.375 265.75,16.5313 Q266.4063,16.6875 266.9688,16.9844 L266.9688,19.7031 Q266.3438,19.125 265.75,18.8594 Q265.1563,18.5781 264.5313,18.5781 Q263.1875,18.5781 262.5,19.6563 Q261.8125,20.7188 261.8125,22.8125 Q261.8125,24.9063 262.5,25.9844 Q263.1875,27.0469 264.5313,27.0469 Q265.1563,27.0469 265.75,26.7813 Q266.3438,26.5 266.9688,25.9219 L266.9688,28.6406 Z " fill="#000000"/><text fill="#000000" font-family="sans-serif" font-size="14" lengthAdjust="spacing" textLength="71.2031" x="278" y="27.8467">Procedure</text><line style="stroke:#181818;stroke-width:0.5;" x1="250" x2="351.2031" y1="39" y2="39"/><line style="stroke:#181818;stroke-width:0.5;" x1="250" x2="351.2031" y1="47" y2="47"/></g><!--class ActuatingProcedure--><g class="entity" data-qualified-name="ActuatingProcedure" data-source-line="1" id="ent0003"><rect fill="#F1F1F1" height="48" rx="2.5" ry="2.5" style="stroke:#181818;stroke-width:0.5;" width="170.5576" x="7" y="115"/><ellipse cx="22" cy="131" fill="#ADD1B2" rx="11" ry="11" style="stroke:#181818;stroke-width:1;"/><path d="M24.9688,136.6406 Q24.3906,136.9375 23.75,137.0781 Q23.1094,137.2344 22.4063,137.2344 Q19.9063,137.2344 18.5781,135.5938 Q17.2656,133.9375 17.2656,130.8125 Q17.2656,127.6875 18.5781,126.0313 Q19.9063,124.375 22.4063,124.375 Q23.1094,124.375 23.75,124.5313 Q24.4063,124.6875 24.9688,124.9844 L24.9688,127.7031 Q24.3438,127.125 23.75,126.8594 Q23.1563,126.5781 22.5313,126.5781 Q21.1875,126.5781 20.5,127.6563 Q19.8125,128.7188 19.8125,130.8125 Q19.8125,132.9063 20.5,133.9844 Q21.1875,135.0469 22.5313,135.0469 Q23.1563,135.0469 23.75,134.7813 Q24.3438,134.5 24.9688,133.9219 L24.9688,136.6406 Z " fill="#000000"/><text fill="#000000" font-family="sans-serif" font-size="14" lengthAdjust="spacing" textLength="138.5576" x="36" y="135.8467">ActuatingProcedure</text><line style="stroke:#181818;stroke-width:0.5;" x1="8" x2="176.5576" y1="147" y2="147"/><line style="stroke:#181818;stroke-width:0.5;" x1="8" x2="176.5576" y1="155" y2="155"/></g><!--class ObservingProcedure--><g class="entity" data-qualified-name="ObservingProcedure" data-source-line="2" id="ent0005"><rect fill="#F1F1F1" height="48" rx="2.5" ry="2.5" style="stroke:#181818;stroke-width:0.5;" width="174.707" x="213" y="115"/><ellipse cx="228" cy="131" fill="#ADD1B2" rx="11" ry="11" style="stroke:#181818;stroke-width:1;"/><path d="M230.9688,136.6406 Q230.3906,136.9375 229.75,137.0781 Q229.1094,137.2344 228.4063,137.2344 Q225.9063,137.2344 224.5781,135.5938 Q223.2656,133.9375 223.2656,130.8125 Q223.2656,127.6875 224.5781,126.0313 Q225.9063,124.375 228.4063,124.375 Q229.1094,124.375 229.75,124.5313 Q230.4063,124.6875 230.9688,124.9844 L230.9688,127.7031 Q230.3438,127.125 229.75,126.8594 Q229.1563,126.5781 228.5313,126.5781 Q227.1875,126.5781 226.5,127.6563 Q225.8125,128.7188 225.8125,130.8125 Q225.8125,132.9063 226.5,133.9844 Q227.1875,135.0469 228.5313,135.0469 Q229.1563,135.0469 229.75,134.7813 Q230.3438,134.5 230.9688,133.9219 L230.9688,136.6406 Z " fill="#000000"/><text fill="#000000" font-family="sans-serif" font-size="14" lengthAdjust="spacing" textLength="142.707" x="242" y="135.8467">ObservingProcedure</text><line style="stroke:#181818;stroke-width:0.5;" x1="214" x2="386.707" y1="147" y2="147"/><line style="stroke:#181818;stroke-width:0.5;" x1="214" x2="386.707" y1="155" y2="155"/></g><!--class SamplingProcedure--><g class="entity" data-qualified-name="SamplingProcedure" data-source-line="3" id="ent0007"><rect fill="#F1F1F1" height="48" rx="2.5" ry="2.5" style="stroke:#181818;stroke-width:0.5;" width="168.7324" x="423" y="115"/><ellipse cx="438" cy="131" fill="#ADD1B2" rx="11" ry="11" style="stroke:#181818;stroke-width:1;"/><path d="M440.9688,136.6406 Q440.3906,136.9375 439.75,137.0781 Q439.1094,137.2344 438.4063,137.2344 Q435.9063,137.2344 434.5781,135.5938 Q433.2656,133.9375 433.2656,130.8125 Q433.2656,127.6875 434.5781,126.0313 Q435.9063,124.375 438.4063,124.375 Q439.1094,124.375 439.75,124.5313 Q440.4063,124.6875 440.9688,124.9844 L440.9688,127.7031 Q440.3438,127.125 439.75,126.8594 Q439.1563,126.5781 438.5313,126.5781 Q437.1875,126.5781 436.5,127.6563 Q435.8125,128.7188 435.8125,130.8125 Q435.8125,132.9063 436.5,133.9844 Q437.1875,135.0469 438.5313,135.0469 Q439.1563,135.0469 439.75,134.7813 Q440.3438,134.5 440.9688,133.9219 L440.9688,136.6406 Z " fill="#000000"/><text fill="#000000" font-family="sans-serif" font-size="14" lengthAdjust="spacing" textLength="136.7324" x="452" y="135.8467">SamplingProcedure</text><line style="stroke:#181818;stroke-width:0.5;" x1="424" x2="590.7324" y1="147" y2="147"/><line style="stroke:#181818;stroke-width:0.5;" x1="424" x2="590.7324" y1="155" y2="155"/></g><!--class Execution--><g class="entity" data-qualified-name="Execution" data-source-line="4" id="ent0009"><rect fill="#F1F1F1" height="48" rx="2.5" ry="2.5" style="stroke:#181818;stroke-width:0.5;" width="101.1318" x="769" y="7"/><ellipse cx="784" cy="23" fill="#ADD1B2" rx="11" ry="11" style="stroke:#181818;stroke-width:1;"/><path d="M786.9688,28.6406 Q786.3906,28.9375 785.75,29.0781 Q785.1094,29.2344 784.4063,29.2344 Q781.9063,29.2344 780.5781,27.5938 Q779.2656,25.9375 779.2656,22.8125 Q779.2656,19.6875 780.5781,18.0313 Q781.9063,16.375 784.4063,16.375 Q785.1094,16.375 785.75,16.5313 Q786.4063,16.6875 786.9688,16.9844 L786.9688,19.7031 Q786.3438,19.125 785.75,18.8594 Q785.1563,18.5781 784.5313,18.5781 Q783.1875,18.5781 782.5,19.6563 Q781.8125,20.7188 781.8125,22.8125 Q781.8125,24.9063 782.5,25.9844 Q783.1875,27.0469 784.5313,27.0469 Q785.1563,27.0469 785.75,26.7813 Q786.3438,26.5 786.9688,25.9219 L786.9688,28.6406 Z " fill="#000000"/><text fill="#000000" font-family="sans-serif" font-size="14" lengthAdjust="spacing" textLength="69.1318" x="798" y="27.8467">Execution</text><line style="stroke:#181818;stroke-width:0.5;" x1="770" x2="869.1318" y1="39" y2="39"/><line style="stroke:#181818;stroke-width:0.5;" x1="770" x2="869.1318" y1="47" y2="47"/></g><!--class Actuation--><g class="entity" data-qualified-name="Actuation" data-source-line="4" id="ent0010"><rect fill="#F1F1F1" height="48" rx="2.5" ry="2.5" style="stroke:#181818;stroke-width:0.5;" width="99.0332" x="627" y="115"/><ellipse cx="642" cy="131" fill="#ADD1B2" rx="11" ry="11" style="stroke:#181818;stroke-width:1;"/><path d="M644.9688,136.6406 Q644.3906,136.9375 643.75,137.0781 Q643.1094,137.2344 642.4063,137.2344 Q639.9063,137.2344 638.5781,135.5938 Q637.2656,133.9375 637.2656,130.8125 Q637.2656,127.6875 638.5781,126.0313 Q639.9063,124.375 642.4063,124.375 Q643.1094,124.375 643.75,124.5313 Q644.4063,124.6875 644.9688,124.9844 L644.9688,127.7031 Q644.3438,127.125 643.75,126.8594 Q643.1563,126.5781 642.5313,126.5781 Q641.1875,126.5781 640.5,127.6563 Q639.8125,128.7188 639.8125,130.8125 Q639.8125,132.9063 640.5,133.9844 Q641.1875,135.0469 642.5313,135.0469 Q643.1563,135.0469 643.75,134.7813 Q644.3438,134.5 644.9688,133.9219 L644.9688,136.6406 Z " fill="#000000"/><text fill="#000000" font-family="sans-serif" font-size="14" lengthAdjust="spacing" textLength="67.0332" x="656" y="135.8467">Actuation</text><line style="stroke:#181818;stroke-width:0.5;" x1="628" x2="725.0332" y1="147" y2="147"/><line style="stroke:#181818;stroke-width:0.5;" x1="628" x2="725.0332" y1="155" y2="155"/></g><!--class Observation--><g class="entity" data-qualified-name="Observation" data-source-line="5" id="ent0012"><rect fill="#F1F1F1" height="48" rx="2.5" ry="2.5" style="stroke:#181818;stroke-width:0.5;" width="117.251" x="761" y="115"/><ellipse cx="776" cy="131" fill="#ADD1B2" rx="11" ry="11" style="stroke:#181818;stroke-width:1;"/><path d="M778.9688,136.6406 Q778.3906,136.9375 777.75,137.0781 Q777.1094,137.2344 776.4063,137.2344 Q773.9063,137.2344 772.5781,135.5938 Q771.2656,133.9375 771.2656,130.8125 Q771.2656,127.6875 772.5781,126.0313 Q773.9063,124.375 776.4063,124.375 Q777.1094,124.375 777.75,124.5313 Q778.4063,124.6875 778.9688,124.9844 L778.9688,127.7031 Q778.3438,127.125 777.75,126.8594 Q777.1563,126.5781 776.5313,126.5781 Q775.1875,126.5781 774.5,127.6563 Q773.8125,128.7188 773.8125,130.8125 Q773.8125,132.9063 774.5,133.9844 Q775.1875,135.0469 776.5313,135.0469 Q777.1563,135.0469 777.75,134.7813 Q778.3438,134.5 778.9688,133.9219 L778.9688,136.6406 Z " fill="#000000"/><text fill="#000000" font-family="sans-serif" font-size="14" lengthAdjust="spacing" textLength="85.251" x="790" y="135.8467">Observation</text><line style="stroke:#181818;stroke-width:0.5;" x1="762" x2="877.251" y1="147" y2="147"/><line style="stroke:#181818;stroke-width:0.5;" x1="762" x2="877.251" y1="155" y2="155"/></g><!--class Sampling--><g class="entity" data-qualified-name="Sampling" data-source-line="6" id="ent0014"><rect fill="#F1F1F1" height="48" rx="2.5" ry="2.5" style="stroke:#181818;stroke-width:0.5;" width="97.5293" x="913.5" y="115"/><ellipse cx="928.5" cy="131" fill="#ADD1B2" rx="11" ry="11" style="stroke:#181818;stroke-width:1;"/><path d="M931.4688,136.6406 Q930.8906,136.9375 930.25,137.0781 Q929.6094,137.2344 928.9063,137.2344 Q926.4063,137.2344 925.0781,135.5938 Q923.7656,133.9375 923.7656,130.8125 Q923.7656,127.6875 925.0781,126.0313 Q926.4063,124.375 928.9063,124.375 Q929.6094,124.375 930.25,124.5313 Q930.9063,124.6875 931.4688,124.9844 L931.4688,127.7031 Q930.8438,127.125 930.25,126.8594 Q929.6563,126.5781 929.0313,126.5781 Q927.6875,126.5781 927,127.6563 Q926.3125,128.7188 926.3125,130.8125 Q926.3125,132.9063 927,133.9844 Q927.6875,135.0469 929.0313,135.0469 Q929.6563,135.0469 930.25,134.7813 Q930.8438,134.5 931.4688,133.9219 L931.4688,136.6406 Z " fill="#000000"/><text fill="#000000" font-family="sans-serif" font-size="14" lengthAdjust="spacing" textLength="65.5293" x="942.5" y="135.8467">Sampling</text><line style="stroke:#181818;stroke-width:0.5;" x1="914.5" x2="1010.0293" y1="147" y2="147"/><line style="stroke:#181818;stroke-width:0.5;" x1="914.5" x2="1010.0293" y1="155" y2="155"/></g><!--class ExecutionCollection--><g class="entity" data-qualified-name="ExecutionCollection" data-source-line="7" id="ent0016"><rect fill="#F1F1F1" height="48" rx="2.5" ry="2.5" style="stroke:#181818;stroke-width:0.5;" width="170.3799" x="1257.5" y="7"/><ellipse cx="1272.5" cy="23" fill="#ADD1B2" rx="11" ry="11" style="stroke:#181818;stroke-width:1;"/><path d="M1275.4688,28.6406 Q1274.8906,28.9375 1274.25,29.0781 Q1273.6094,29.2344 1272.9063,29.2344 Q1270.4063,29.2344 1269.0781,27.5938 Q1267.7656,25.9375 1267.7656,22.8125 Q1267.7656,19.6875 1269.0781,18.0313 Q1270.4063,16.375 1272.9063,16.375 Q1273.6094,16.375 1274.25,16.5313 Q1274.9063,16.6875 1275.4688,16.9844 L1275.4688,19.7031 Q1274.8438,19.125 1274.25,18.8594 Q1273.6563,18.5781 1273.0313,18.5781 Q1271.6875,18.5781 1271,19.6563 Q1270.3125,20.7188 1270.3125,22.8125 Q1270.3125,24.9063 1271,25.9844 Q1271.6875,27.0469 1273.0313,27.0469 Q1273.6563,27.0469 1274.25,26.7813 Q1274.8438,26.5 1275.4688,25.9219 L1275.4688,28.6406 Z " fill="#000000"/><text fill="#000000" font-family="sans-serif" font-size="14" lengthAdjust="spacing" textLength="138.3799" x="1286.5" y="27.8467">ExecutionCollection</text><line style="stroke:#181818;stroke-width:0.5;" x1="1258.5" x2="1426.8799" y1="39" y2="39"/><line style="stroke:#181818;stroke-width:0.5;" x1="1258.5" x2="1426.8799" y1="47" y2="47"/></g><!--class ActuationCollection--><g class="entity" data-qualified-name="ActuationCollection" data-source-line="7" id="ent0017"><rect fill="#F1F1F1" height="48" rx="2.5" ry="2.5" style="stroke:#181818;stroke-width:0.5;" width="168.2813" x="1046.5" y="115"/><ellipse cx="1061.5" cy="131" fill="#ADD1B2" rx="11" ry="11" style="stroke:#181818;stroke-width:1;"/><path d="M1064.4688,136.6406 Q1063.8906,136.9375 1063.25,137.0781 Q1062.6094,137.2344 1061.9063,137.2344 Q1059.4063,137.2344 1058.0781,135.5938 Q1056.7656,133.9375 1056.7656,130.8125 Q1056.7656,127.6875 1058.0781,126.0313 Q1059.4063,124.375 1061.9063,124.375 Q1062.6094,124.375 1063.25,124.5313 Q1063.9063,124.6875 1064.4688,124.9844 L1064.4688,127.7031 Q1063.8438,127.125 1063.25,126.8594 Q1062.6563,126.5781 1062.0313,126.5781 Q1060.6875,126.5781 1060,127.6563 Q1059.3125,128.7188 1059.3125,130.8125 Q1059.3125,132.9063 1060,133.9844 Q1060.6875,135.0469 1062.0313,135.0469 Q1062.6563,135.0469 1063.25,134.7813 Q1063.8438,134.5 1064.4688,133.9219 L1064.4688,136.6406 Z " fill="#000000"/><text fill="#000000" font-family="sans-serif" font-size="14" lengthAdjust="spacing" textLength="136.2813" x="1075.5" y="135.8467">ActuationCollection</text><line style="stroke:#181818;stroke-width:0.5;" x1="1047.5" x2="1213.7813" y1="147" y2="147"/><line style="stroke:#181818;stroke-width:0.5;" x1="1047.5" x2="1213.7813" y1="155" y2="155"/></g><!--class ObservationCollection--><g class="entity" data-qualified-name="ObservationCollection" data-source-line="8" id="ent0019"><rect fill="#F1F1F1" height="48" rx="2.5" ry="2.5" style="stroke:#181818;stroke-width:0.5;" width="186.499" x="1249.5" y="115"/><ellipse cx="1264.5" cy="131" fill="#ADD1B2" rx="11" ry="11" style="stroke:#181818;stroke-width:1;"/><path d="M1267.4688,136.6406 Q1266.8906,136.9375 1266.25,137.0781 Q1265.6094,137.2344 1264.9063,137.2344 Q1262.4063,137.2344 1261.0781,135.5938 Q1259.7656,133.9375 1259.7656,130.8125 Q1259.7656,127.6875 1261.0781,126.0313 Q1262.4063,124.375 1264.9063,124.375 Q1265.6094,124.375 1266.25,124.5313 Q1266.9063,124.6875 1267.4688,124.9844 L1267.4688,127.7031 Q1266.8438,127.125 1266.25,126.8594 Q1265.6563,126.5781 1265.0313,126.5781 Q1263.6875,126.5781 1263,127.6563 Q1262.3125,128.7188 1262.3125,130.8125 Q1262.3125,132.9063 1263,133.9844 Q1263.6875,135.0469 1265.0313,135.0469 Q1265.6563,135.0469 1266.25,134.7813 Q1266.8438,134.5 1267.4688,133.9219 L1267.4688,136.6406 Z " fill="#000000"/><text fill="#000000" font-family="sans-serif" font-size="14" lengthAdjust="spacing" textLength="154.499" x="1278.5" y="135.8467">ObservationCollection</text><line style="stroke:#181818;stroke-width:0.5;" x1="1250.5" x2="1434.999" y1="147" y2="147"/><line style="stroke:#181818;stroke-width:0.5;" x1="1250.5" x2="1434.999" y1="155" y2="155"/></g><!--class SamplingCollection--><g class="entity" data-qualified-name="SamplingCollection" data-source-line="9" id="ent0021"><rect fill="#F1F1F1" height="48" rx="2.5" ry="2.5" style="stroke:#181818;stroke-width:0.5;" width="166.7773" x="1470" y="115"/><ellipse cx="1485" cy="131" fill="#ADD1B2" rx="11" ry="11" style="stroke:#181818;stroke-width:1;"/><path d="M1487.9688,136.6406 Q1487.3906,136.9375 1486.75,137.0781 Q1486.1094,137.2344 1485.4063,137.2344 Q1482.9063,137.2344 1481.5781,135.5938 Q1480.2656,133.9375 1480.2656,130.8125 Q1480.2656,127.6875 1481.5781,126.0313 Q1482.9063,124.375 1485.4063,124.375 Q1486.1094,124.375 1486.75,124.5313 Q1487.4063,124.6875 1487.9688,124.9844 L1487.9688,127.7031 Q1487.3438,127.125 1486.75,126.8594 Q1486.1563,126.5781 1485.5313,126.5781 Q1484.1875,126.5781 1483.5,127.6563 Q1482.8125,128.7188 1482.8125,130.8125 Q1482.8125,132.9063 1483.5,133.9844 Q1484.1875,135.0469 1485.5313,135.0469 Q1486.1563,135.0469 1486.75,134.7813 Q1487.3438,134.5 1487.9688,133.9219 L1487.9688,136.6406 Z " fill="#000000"/><text fill="#000000" font-family="sans-serif" font-size="14" lengthAdjust="spacing" textLength="134.7773" x="1499" y="135.8467">SamplingCollection</text><line style="stroke:#181818;stroke-width:0.5;" x1="1471" x2="1635.7773" y1="147" y2="147"/><line style="stroke:#181818;stroke-width:0.5;" x1="1471" x2="1635.7773" y1="155" y2="155"/></g><!--class System--><g class="entity" data-qualified-name="System" data-source-line="10" id="ent0023"><rect fill="#F1F1F1" height="48" rx="2.5" ry="2.5" style="stroke:#181818;stroke-width:0.5;" width="84.2061" x="1671.5" y="115"/><ellipse cx="1686.5" cy="131" fill="#ADD1B2" rx="11" ry="11" style="stroke:#181818;stroke-width:1;"/><path d="M1689.4688,136.6406 Q1688.8906,136.9375 1688.25,137.0781 Q1687.6094,137.2344 1686.9063,137.2344 Q1684.4063,137.2344 1683.0781,135.5938 Q1681.7656,133.9375 1681.7656,130.8125 Q1681.7656,127.6875 1683.0781,126.0313 Q1684.4063,124.375 1686.9063,124.375 Q1687.6094,124.375 1688.25,124.5313 Q1688.9063,124.6875 1689.4688,124.9844 L1689.4688,127.7031 Q1688.8438,127.125 1688.25,126.8594 Q1687.6563,126.5781 1687.0313,126.5781 Q1685.6875,126.5781 1685,127.6563 Q1684.3125,128.7188 1684.3125,130.8125 Q1684.3125,132.9063 1685,133.9844 Q1685.6875,135.0469 1687.0313,135.0469 Q1687.6563,135.0469 1688.25,134.7813 Q1688.8438,134.5 1689.4688,133.9219 L1689.4688,136.6406 Z " fill="#000000"/><text fill="#000000" font-family="sans-serif" font-size="14" lengthAdjust="spacing" textLength="52.2061" x="1700.5" y="135.8467">System</text><line style="stroke:#181818;stroke-width:0.5;" x1="1672.5" x2="1754.7061" y1="147" y2="147"/><line style="stroke:#181818;stroke-width:0.5;" x1="1672.5" x2="1754.7061" y1="155" y2="155"/></g><!--class Actuator--><g class="entity" data-qualified-name="Actuator" data-source-line="10" id="ent0024"><rect fill="#F1F1F1" height="48" rx="2.5" ry="2.5" style="stroke:#181818;stroke-width:0.5;" width="92.0264" x="1546.5" y="223"/><ellipse cx="1561.5" cy="239" fill="#ADD1B2" rx="11" ry="11" style="stroke:#181818;stroke-width:1;"/><path d="M1564.4688,244.6406 Q1563.8906,244.9375 1563.25,245.0781 Q1562.6094,245.2344 1561.9063,245.2344 Q1559.4063,245.2344 1558.0781,243.5938 Q1556.7656,241.9375 1556.7656,238.8125 Q1556.7656,235.6875 1558.0781,234.0313 Q1559.4063,232.375 1561.9063,232.375 Q1562.6094,232.375 1563.25,232.5313 Q1563.9063,232.6875 1564.4688,232.9844 L1564.4688,235.7031 Q1563.8438,235.125 1563.25,234.8594 Q1562.6563,234.5781 1562.0313,234.5781 Q1560.6875,234.5781 1560,235.6563 Q1559.3125,236.7188 1559.3125,238.8125 Q1559.3125,240.9063 1560,241.9844 Q1560.6875,243.0469 1562.0313,243.0469 Q1562.6563,243.0469 1563.25,242.7813 Q1563.8438,242.5 1564.4688,241.9219 L1564.4688,244.6406 Z " fill="#000000"/><text fill="#000000" font-family="sans-serif" font-size="14" lengthAdjust="spacing" textLength="60.0264" x="1575.5" y="243.8467">Actuator</text><line style="stroke:#181818;stroke-width:0.5;" x1="1547.5" x2="1637.5264" y1="255" y2="255"/><line style="stroke:#181818;stroke-width:0.5;" x1="1547.5" x2="1637.5264" y1="263" y2="263"/></g><!--class Sensor--><g class="entity" data-qualified-name="Sensor" data-source-line="11" id="ent0026"><rect fill="#F1F1F1" height="48" rx="2.5" ry="2.5" style="stroke:#181818;stroke-width:0.5;" width="79.9883" x="1673.5" y="223"/><ellipse cx="1688.5" cy="239" fill="#ADD1B2" rx="11" ry="11" style="stroke:#181818;stroke-width:1;"/><path d="M1691.4688,244.6406 Q1690.8906,244.9375 1690.25,245.0781 Q1689.6094,245.2344 1688.9063,245.2344 Q1686.4063,245.2344 1685.0781,243.5938 Q1683.7656,241.9375 1683.7656,238.8125 Q1683.7656,235.6875 1685.0781,234.0313 Q1686.4063,232.375 1688.9063,232.375 Q1689.6094,232.375 1690.25,232.5313 Q1690.9063,232.6875 1691.4688,232.9844 L1691.4688,235.7031 Q1690.8438,235.125 1690.25,234.8594 Q1689.6563,234.5781 1689.0313,234.5781 Q1687.6875,234.5781 1687,235.6563 Q1686.3125,236.7188 1686.3125,238.8125 Q1686.3125,240.9063 1687,241.9844 Q1687.6875,243.0469 1689.0313,243.0469 Q1689.6563,243.0469 1690.25,242.7813 Q1690.8438,242.5 1691.4688,241.9219 L1691.4688,244.6406 Z " fill="#000000"/><text fill="#000000" font-family="sans-serif" font-size="14" lengthAdjust="spacing" textLength="47.9883" x="1702.5" y="243.8467">Sensor</text><line style="stroke:#181818;stroke-width:0.5;" x1="1674.5" x2="1752.4883" y1="255" y2="255"/><line style="stroke:#181818;stroke-width:0.5;" x1="1674.5" x2="1752.4883" y1="263" y2="263"/></g><!--class Sampler--><g class="entity" data-qualified-name="Sampler" data-source-line="12" id="ent0028"><rect fill="#F1F1F1" height="48" rx="2.5" ry="2.5" style="stroke:#181818;stroke-width:0.5;" width="90.249" x="1788.5" y="223"/><ellipse cx="1803.5" cy="239" fill="#ADD1B2" rx="11" ry="11" style="stroke:#181818;stroke-width:1;"/><path d="M1806.4688,244.6406 Q1805.8906,244.9375 1805.25,245.0781 Q1804.6094,245.2344 1803.9063,245.2344 Q1801.4063,245.2344 1800.0781,243.5938 Q1798.7656,241.9375 1798.7656,238.8125 Q1798.7656,235.6875 1800.0781,234.0313 Q1801.4063,232.375 1803.9063,232.375 Q1804.6094,232.375 1805.25,232.5313 Q1805.9063,232.6875 1806.4688,232.9844 L1806.4688,235.7031 Q1805.8438,235.125 1805.25,234.8594 Q1804.6563,234.5781 1804.0313,234.5781 Q1802.6875,234.5781 1802,235.6563 Q1801.3125,236.7188 1801.3125,238.8125 Q1801.3125,240.9063 1802,241.9844 Q1802.6875,243.0469 1804.0313,243.0469 Q1804.6563,243.0469 1805.25,242.7813 Q1805.8438,242.5 1806.4688,241.9219 L1806.4688,244.6406 Z " fill="#000000"/><text fill="#000000" font-family="sans-serif" font-size="14" lengthAdjust="spacing" textLength="58.249" x="1817.5" y="243.8467">Sampler</text><line style="stroke:#181818;stroke-width:0.5;" x1="1789.5" x2="1877.749" y1="255" y2="255"/><line style="stroke:#181818;stroke-width:0.5;" x1="1789.5" x2="1877.749" y1="263" y2="263"/></g><!--class Asset--><g class="entity" data-qualified-name="Asset" data-source-line="13" id="ent0030"><rect fill="#F1F1F1" height="48" rx="2.5" ry="2.5" style="stroke:#181818;stroke-width:0.5;" width="70.2676" x="1739.5" y="7"/><ellipse cx="1754.5" cy="23" fill="#ADD1B2" rx="11" ry="11" style="stroke:#181818;stroke-width:1;"/><path d="M1757.4688,28.6406 Q1756.8906,28.9375 1756.25,29.0781 Q1755.6094,29.2344 1754.9063,29.2344 Q1752.4063,29.2344 1751.0781,27.5938 Q1749.7656,25.9375 1749.7656,22.8125 Q1749.7656,19.6875 1751.0781,18.0313 Q1752.4063,16.375 1754.9063,16.375 Q1755.6094,16.375 1756.25,16.5313 Q1756.9063,16.6875 1757.4688,16.9844 L1757.4688,19.7031 Q1756.8438,19.125 1756.25,18.8594 Q1755.6563,18.5781 1755.0313,18.5781 Q1753.6875,18.5781 1753,19.6563 Q1752.3125,20.7188 1752.3125,22.8125 Q1752.3125,24.9063 1753,25.9844 Q1753.6875,27.0469 1755.0313,27.0469 Q1755.6563,27.0469 1756.25,26.7813 Q1756.8438,26.5 1757.4688,25.9219 L1757.4688,28.6406 Z " fill="#000000"/><text fill="#000000" font-family="sans-serif" font-size="14" lengthAdjust="spacing" textLength="38.2676" x="1768.5" y="27.8467">Asset</text><line style="stroke:#181818;stroke-width:0.5;" x1="1740.5" x2="1808.7676" y1="39" y2="39"/><line style="stroke:#181818;stroke-width:0.5;" x1="1740.5" x2="1808.7676" y1="47" y2="47"/></g><!--class Platform--><g class="entity" data-qualified-name="Platform" data-source-line="13" id="ent0031"><rect fill="#F1F1F1" height="48" rx="2.5" ry="2.5" style="stroke:#181818;stroke-width:0.5;" width="91.2881" x="1791" y="115"/><ellipse cx="1806" cy="131" fill="#ADD1B2" rx="11" ry="11" style="stroke:#181818;stroke-width:1;"/><path d="M1808.9688,136.6406 Q1808.3906,136.9375 1807.75,137.0781 Q1807.1094,137.2344 1806.4063,137.2344 Q1803.9063,137.2344 1802.5781,135.5938 Q1801.2656,133.9375 1801.2656,130.8125 Q1801.2656,127.6875 1802.5781,126.0313 Q1803.9063,124.375 1806.4063,124.375 Q1807.1094,124.375 1807.75,124.5313 Q1808.4063,124.6875 1808.9688,124.9844 L1808.9688,127.7031 Q1808.3438,127.125 1807.75,126.8594 Q1807.1563,126.5781 1806.5313,126.5781 Q1805.1875,126.5781 1804.5,127.6563 Q1803.8125,128.7188 1803.8125,130.8125 Q1803.8125,132.9063 1804.5,133.9844 Q1805.1875,135.0469 1806.5313,135.0469 Q1807.1563,135.0469 1807.75,134.7813 Q1808.3438,134.5 1808.9688,133.9219 L1808.9688,136.6406 Z " fill="#000000"/><text fill="#000000" font-family="sans-serif" font-size="14" lengthAdjust="spacing" textLength="59.2881" x="1820" y="135.8467">Platform</text><line style="stroke:#181818;stroke-width:0.5;" x1="1792" x2="1881.2881" y1="147" y2="147"/><line style="stroke:#181818;stroke-width:0.5;" x1="1792" x2="1881.2881" y1="155" y2="155"/></g><!--class Property--><g class="entity" data-qualified-name="Property" data-source-line="15" id="ent0034"><rect fill="#F1F1F1" height="48" rx="2.5" ry="2.5" style="stroke:#181818;stroke-width:0.5;" width="91.7939" x="2056.5" y="7"/><ellipse cx="2071.5" cy="23" fill="#ADD1B2" rx="11" ry="11" style="stroke:#181818;stroke-width:1;"/><path d="M2074.4688,28.6406 Q2073.8906,28.9375 2073.25,29.0781 Q2072.6094,29.2344 2071.9063,29.2344 Q2069.4063,29.2344 2068.0781,27.5938 Q2066.7656,25.9375 2066.7656,22.8125 Q2066.7656,19.6875 2068.0781,18.0313 Q2069.4063,16.375 2071.9063,16.375 Q2072.6094,16.375 2073.25,16.5313 Q2073.9063,16.6875 2074.4688,16.9844 L2074.4688,19.7031 Q2073.8438,19.125 2073.25,18.8594 Q2072.6563,18.5781 2072.0313,18.5781 Q2070.6875,18.5781 2070,19.6563 Q2069.3125,20.7188 2069.3125,22.8125 Q2069.3125,24.9063 2070,25.9844 Q2070.6875,27.0469 2072.0313,27.0469 Q2072.6563,27.0469 2073.25,26.7813 Q2073.8438,26.5 2074.4688,25.9219 L2074.4688,28.6406 Z " fill="#000000"/><text fill="#000000" font-family="sans-serif" font-size="14" lengthAdjust="spacing" textLength="59.7939" x="2085.5" y="27.8467">Property</text><line style="stroke:#181818;stroke-width:0.5;" x1="2057.5" x2="2147.2939" y1="39" y2="39"/><line style="stroke:#181818;stroke-width:0.5;" x1="2057.5" x2="2147.2939" y1="47" y2="47"/></g><!--class ActuatableProperty--><g class="entity" data-qualified-name="ActuatableProperty" data-source-line="15" id="ent0035"><rect fill="#F1F1F1" height="48" rx="2.5" ry="2.5" style="stroke:#181818;stroke-width:0.5;" width="167.4678" x="1917" y="115"/><ellipse cx="1932" cy="131" fill="#ADD1B2" rx="11" ry="11" style="stroke:#181818;stroke-width:1;"/><path d="M1934.9688,136.6406 Q1934.3906,136.9375 1933.75,137.0781 Q1933.1094,137.2344 1932.4063,137.2344 Q1929.9063,137.2344 1928.5781,135.5938 Q1927.2656,133.9375 1927.2656,130.8125 Q1927.2656,127.6875 1928.5781,126.0313 Q1929.9063,124.375 1932.4063,124.375 Q1933.1094,124.375 1933.75,124.5313 Q1934.4063,124.6875 1934.9688,124.9844 L1934.9688,127.7031 Q1934.3438,127.125 1933.75,126.8594 Q1933.1563,126.5781 1932.5313,126.5781 Q1931.1875,126.5781 1930.5,127.6563 Q1929.8125,128.7188 1929.8125,130.8125 Q1929.8125,132.9063 1930.5,133.9844 Q1931.1875,135.0469 1932.5313,135.0469 Q1933.1563,135.0469 1933.75,134.7813 Q1934.3438,134.5 1934.9688,133.9219 L1934.9688,136.6406 Z " fill="#000000"/><text fill="#000000" font-family="sans-serif" font-size="14" lengthAdjust="spacing" textLength="135.4678" x="1946" y="135.8467">ActuatableProperty</text><line style="stroke:#181818;stroke-width:0.5;" x1="1918" x2="2083.4678" y1="147" y2="147"/><line style="stroke:#181818;stroke-width:0.5;" x1="1918" x2="2083.4678" y1="155" y2="155"/></g><!--class ObservableProperty--><g class="entity" data-qualified-name="ObservableProperty" data-source-line="16" id="ent0037"><rect fill="#F1F1F1" height="48" rx="2.5" ry="2.5" style="stroke:#181818;stroke-width:0.5;" width="171.6172" x="2119.5" y="115"/><ellipse cx="2134.5" cy="131" fill="#ADD1B2" rx="11" ry="11" style="stroke:#181818;stroke-width:1;"/><path d="M2137.4688,136.6406 Q2136.8906,136.9375 2136.25,137.0781 Q2135.6094,137.2344 2134.9063,137.2344 Q2132.4063,137.2344 2131.0781,135.5938 Q2129.7656,133.9375 2129.7656,130.8125 Q2129.7656,127.6875 2131.0781,126.0313 Q2132.4063,124.375 2134.9063,124.375 Q2135.6094,124.375 2136.25,124.5313 Q2136.9063,124.6875 2137.4688,124.9844 L2137.4688,127.7031 Q2136.8438,127.125 2136.25,126.8594 Q2135.6563,126.5781 2135.0313,126.5781 Q2133.6875,126.5781 2133,127.6563 Q2132.3125,128.7188 2132.3125,130.8125 Q2132.3125,132.9063 2133,133.9844 Q2133.6875,135.0469 2135.0313,135.0469 Q2135.6563,135.0469 2136.25,134.7813 Q2136.8438,134.5 2137.4688,133.9219 L2137.4688,136.6406 Z " fill="#000000"/><text fill="#000000" font-family="sans-serif" font-size="14" lengthAdjust="spacing" textLength="139.6172" x="2148.5" y="135.8467">ObservableProperty</text><line style="stroke:#181818;stroke-width:0.5;" x1="2120.5" x2="2290.1172" y1="147" y2="147"/><line style="stroke:#181818;stroke-width:0.5;" x1="2120.5" x2="2290.1172" y1="155" y2="155"/></g><!--class Sample--><g class="entity" data-qualified-name="Sample" data-source-line="17" id="ent0039"><rect fill="#F1F1F1" height="48" rx="2.5" ry="2.5" style="stroke:#181818;stroke-width:0.5;" width="84.4932" x="2527.5" y="7"/><ellipse cx="2542.5" cy="23" fill="#ADD1B2" rx="11" ry="11" style="stroke:#181818;stroke-width:1;"/><path d="M2545.4688,28.6406 Q2544.8906,28.9375 2544.25,29.0781 Q2543.6094,29.2344 2542.9063,29.2344 Q2540.4063,29.2344 2539.0781,27.5938 Q2537.7656,25.9375 2537.7656,22.8125 Q2537.7656,19.6875 2539.0781,18.0313 Q2540.4063,16.375 2542.9063,16.375 Q2543.6094,16.375 2544.25,16.5313 Q2544.9063,16.6875 2545.4688,16.9844 L2545.4688,19.7031 Q2544.8438,19.125 2544.25,18.8594 Q2543.6563,18.5781 2543.0313,18.5781 Q2541.6875,18.5781 2541,19.6563 Q2540.3125,20.7188 2540.3125,22.8125 Q2540.3125,24.9063 2541,25.9844 Q2541.6875,27.0469 2543.0313,27.0469 Q2543.6563,27.0469 2544.25,26.7813 Q2544.8438,26.5 2545.4688,25.9219 L2545.4688,28.6406 Z " fill="#000000"/><text fill="#000000" font-family="sans-serif" font-size="14" lengthAdjust="spacing" textLength="52.4932" x="2556.5" y="27.8467">Sample</text><line style="stroke:#181818;stroke-width:0.5;" x1="2528.5" x2="2610.9932" y1="39" y2="39"/><line style="stroke:#181818;stroke-width:0.5;" x1="2528.5" x2="2610.9932" y1="47" y2="47"/></g><!--class MaterialSample--><g class="entity" data-qualified-name="MaterialSample" data-source-line="17" id="ent0040"><rect fill="#F1F1F1" height="48" rx="2.5" ry="2.5" style="stroke:#181818;stroke-width:0.5;" width="141.3682" x="2327" y="115"/><ellipse cx="2342" cy="131" fill="#ADD1B2" rx="11" ry="11" style="stroke:#181818;stroke-width:1;"/><path d="M2344.9688,136.6406 Q2344.3906,136.9375 2343.75,137.0781 Q2343.1094,137.2344 2342.4063,137.2344 Q2339.9063,137.2344 2338.5781,135.5938 Q2337.2656,133.9375 2337.2656,130.8125 Q2337.2656,127.6875 2338.5781,126.0313 Q2339.9063,124.375 2342.4063,124.375 Q2343.1094,124.375 2343.75,124.5313 Q2344.4063,124.6875 2344.9688,124.9844 L2344.9688,127.7031 Q2344.3438,127.125 2343.75,126.8594 Q2343.1563,126.5781 2342.5313,126.5781 Q2341.1875,126.5781 2340.5,127.6563 Q2339.8125,128.7188 2339.8125,130.8125 Q2339.8125,132.9063 2340.5,133.9844 Q2341.1875,135.0469 2342.5313,135.0469 Q2343.1563,135.0469 2343.75,134.7813 Q2344.3438,134.5 2344.9688,133.9219 L2344.9688,136.6406 Z " fill="#000000"/><text fill="#000000" font-family="sans-serif" font-size="14" lengthAdjust="spacing" textLength="109.3682" x="2356" y="135.8467">MaterialSample</text><line style="stroke:#181818;stroke-width:0.5;" x1="2328" x2="2467.3682" y1="147" y2="147"/><line style="stroke:#181818;stroke-width:0.5;" x1="2328" x2="2467.3682" y1="155" y2="155"/></g><!--class SpatialSample--><g class="entity" data-qualified-name="SpatialSample" data-source-line="18" id="ent0042"><rect fill="#F1F1F1" height="48" rx="2.5" ry="2.5" style="stroke:#181818;stroke-width:0.5;" width="132.6934" x="2503" y="115"/><ellipse cx="2518" cy="131" fill="#ADD1B2" rx="11" ry="11" style="stroke:#181818;stroke-width:1;"/><path d="M2520.9688,136.6406 Q2520.3906,136.9375 2519.75,137.0781 Q2519.1094,137.2344 2518.4063,137.2344 Q2515.9063,137.2344 2514.5781,135.5938 Q2513.2656,133.9375 2513.2656,130.8125 Q2513.2656,127.6875 2514.5781,126.0313 Q2515.9063,124.375 2518.4063,124.375 Q2519.1094,124.375 2519.75,124.5313 Q2520.4063,124.6875 2520.9688,124.9844 L2520.9688,127.7031 Q2520.3438,127.125 2519.75,126.8594 Q2519.1563,126.5781 2518.5313,126.5781 Q2517.1875,126.5781 2516.5,127.6563 Q2515.8125,128.7188 2515.8125,130.8125 Q2515.8125,132.9063 2516.5,133.9844 Q2517.1875,135.0469 2518.5313,135.0469 Q2519.1563,135.0469 2519.75,134.7813 Q2520.3438,134.5 2520.9688,133.9219 L2520.9688,136.6406 Z " fill="#000000"/><text fill="#000000" font-family="sans-serif" font-size="14" lengthAdjust="spacing" textLength="100.6934" x="2532" y="135.8467">SpatialSample</text><line style="stroke:#181818;stroke-width:0.5;" x1="2504" x2="2634.6934" y1="147" y2="147"/><line style="stroke:#181818;stroke-width:0.5;" x1="2504" x2="2634.6934" y1="155" y2="155"/></g><!--class StatisticalSample--><g class="entity" data-qualified-name="StatisticalSample" data-source-line="19" id="ent0044"><rect fill="#F1F1F1" height="48" rx="2.5" ry="2.5" style="stroke:#181818;stroke-width:0.5;" width="153.666" x="2671.5" y="115"/><ellipse cx="2686.5" cy="131" fill="#ADD1B2" rx="11" ry="11" style="stroke:#181818;stroke-width:1;"/><path d="M2689.4688,136.6406 Q2688.8906,136.9375 2688.25,137.0781 Q2687.6094,137.2344 2686.9063,137.2344 Q2684.4063,137.2344 2683.0781,135.5938 Q2681.7656,133.9375 2681.7656,130.8125 Q2681.7656,127.6875 2683.0781,126.0313 Q2684.4063,124.375 2686.9063,124.375 Q2687.6094,124.375 2688.25,124.5313 Q2688.9063,124.6875 2689.4688,124.9844 L2689.4688,127.7031 Q2688.8438,127.125 2688.25,126.8594 Q2687.6563,126.5781 2687.0313,126.5781 Q2685.6875,126.5781 2685,127.6563 Q2684.3125,128.7188 2684.3125,130.8125 Q2684.3125,132.9063 2685,133.9844 Q2685.6875,135.0469 2687.0313,135.0469 Q2687.6563,135.0469 2688.25,134.7813 Q2688.8438,134.5 2689.4688,133.9219 L2689.4688,136.6406 Z " fill="#000000"/><text fill="#000000" font-family="sans-serif" font-size="14" lengthAdjust="spacing" textLength="121.666" x="2700.5" y="135.8467">StatisticalSample</text><line style="stroke:#181818;stroke-width:0.5;" x1="2672.5" x2="2824.166" y1="147" y2="147"/><line style="stroke:#181818;stroke-width:0.5;" x1="2672.5" x2="2824.166" y1="155" y2="155"/></g><!--reverse link Procedure to ActuatingProcedure--><g class="link" data-entity-1="ent0002" data-entity-2="ent0003" data-link-type="extension" data-source-line="1" id="lnk4"><path codeLine="1" d="M239.3326,63.1732 C204.5626,80.8932 172.74,97.11 137.9,114.86" fill="none" id="Procedure-backto-ActuatingProcedure" style="stroke:#181818;stroke-width:1;"/><polygon fill="none" points="255.37,55,236.6082,57.8274,242.057,68.519,255.37,55" style="stroke:#181818;stroke-width:1;"/></g><!--reverse link Procedure to ObservingProcedure--><g class="link" data-entity-1="ent0002" data-entity-2="ent0005" data-link-type="extension" data-source-line="2" id="lnk6"><path codeLine="2" d="M300.5,73 C300.5,90.66 300.5,96.94 300.5,114.68" fill="none" id="Procedure-backto-ObservingProcedure" style="stroke:#181818;stroke-width:1;"/><polygon fill="none" points="300.5,55,294.5,73,306.5,73,300.5,55" style="stroke:#181818;stroke-width:1;"/></g><!--reverse link Procedure to SamplingProcedure--><g class="link" data-entity-1="ent0002" data-entity-2="ent0007" data-link-type="extension" data-source-line="3" id="lnk8"><path codeLine="3" d="M361.4411,63.205 C396.0411,80.925 427.65,97.11 462.31,114.86" fill="none" id="Procedure-backto-SamplingProcedure" style="stroke:#181818;stroke-width:1;"/><polygon fill="none" points="345.42,55,358.7061,68.5454,364.1762,57.8647,345.42,55" style="stroke:#181818;stroke-width:1;"/></g><!--reverse link Execution to Actuation--><g class="link" data-entity-1="ent0009" data-entity-2="ent0010" data-link-type="extension" data-source-line="4" id="lnk11"><path codeLine="4" d="M774.0105,65.7202 C750.1905,83.3802 731.89,96.94 707.96,114.68" fill="none" id="Execution-backto-Actuation" style="stroke:#181818;stroke-width:1;"/><polygon fill="none" points="788.47,55,770.4371,60.9004,777.5839,70.54,788.47,55" style="stroke:#181818;stroke-width:1;"/></g><!--reverse link Execution to Observation--><g class="link" data-entity-1="ent0009" data-entity-2="ent0012" data-link-type="extension" data-source-line="5" id="lnk13"><path codeLine="5" d="M819.5,73 C819.5,90.66 819.5,96.94 819.5,114.68" fill="none" id="Execution-backto-Observation" style="stroke:#181818;stroke-width:1;"/><polygon fill="none" points="819.5,55,813.5,73,825.5,73,819.5,55" style="stroke:#181818;stroke-width:1;"/></g><!--reverse link Execution to Sampling--><g class="link" data-entity-1="ent0009" data-entity-2="ent0014" data-link-type="extension" data-source-line="6" id="lnk15"><path codeLine="6" d="M864.9895,65.7202 C888.8095,83.3802 907.11,96.94 931.04,114.68" fill="none" id="Execution-backto-Sampling" style="stroke:#181818;stroke-width:1;"/><polygon fill="none" points="850.53,55,861.4161,70.54,868.5629,60.9004,850.53,55" style="stroke:#181818;stroke-width:1;"/></g><!--reverse link ExecutionCollection to ActuationCollection--><g class="link" data-entity-1="ent0016" data-entity-2="ent0017" data-link-type="extension" data-source-line="7" id="lnk18"><path codeLine="7" d="M1280.4003,63.0498 C1244.9603,80.7698 1212.28,97.11 1176.78,114.86" fill="none" id="ExecutionCollection-backto-ActuationCollection" style="stroke:#181818;stroke-width:1;"/><polygon fill="none" points="1296.5,55,1277.717,57.6833,1283.0836,68.4164,1296.5,55" style="stroke:#181818;stroke-width:1;"/></g><!--reverse link ExecutionCollection to ObservationCollection--><g class="link" data-entity-1="ent0016" data-entity-2="ent0019" data-link-type="extension" data-source-line="8" id="lnk20"><path codeLine="8" d="M1342.5,73 C1342.5,90.66 1342.5,96.94 1342.5,114.68" fill="none" id="ExecutionCollection-backto-ObservationCollection" style="stroke:#181818;stroke-width:1;"/><polygon fill="none" points="1342.5,55,1336.5,73,1348.5,73,1342.5,55" style="stroke:#181818;stroke-width:1;"/></g><!--reverse link ExecutionCollection to SamplingCollection--><g class="link" data-entity-1="ent0016" data-entity-2="ent0021" data-link-type="extension" data-source-line="9" id="lnk22"><path codeLine="9" d="M1404.3642,63.0808 C1439.6342,80.8008 1472.1,97.11 1507.44,114.86" fill="none" id="ExecutionCollection-backto-SamplingCollection" style="stroke:#181818;stroke-width:1;"/><polygon fill="none" points="1388.28,55,1401.6705,68.4422,1407.0578,57.7195,1388.28,55" style="stroke:#181818;stroke-width:1;"/></g><!--reverse link System to Actuator--><g class="link" data-entity-1="ent0023" data-entity-2="ent0024" data-link-type="extension" data-source-line="10" id="lnk25"><path codeLine="10" d="M1673.7032,174.864 C1653.5532,192.524 1639.37,204.94 1619.12,222.68" fill="none" id="System-backto-Actuator" style="stroke:#181818;stroke-width:1;"/><polygon fill="none" points="1687.24,163,1669.7485,170.3518,1677.6579,179.3763,1687.24,163" style="stroke:#181818;stroke-width:1;"/></g><!--reverse link System to Sensor--><g class="link" data-entity-1="ent0023" data-entity-2="ent0026" data-link-type="extension" data-source-line="11" id="lnk27"><path codeLine="11" d="M1713.5,181 C1713.5,198.66 1713.5,204.94 1713.5,222.68" fill="none" id="System-backto-Sensor" style="stroke:#181818;stroke-width:1;"/><polygon fill="none" points="1713.5,163,1707.5,181,1719.5,181,1713.5,163" style="stroke:#181818;stroke-width:1;"/></g><!--reverse link System to Sampler--><g class="link" data-entity-1="ent0023" data-entity-2="ent0028" data-link-type="extension" data-source-line="12" id="lnk29"><path codeLine="12" d="M1753.0298,174.9174 C1773.0198,192.5774 1787.02,204.94 1807.1,222.68" fill="none" id="System-backto-Sampler" style="stroke:#181818;stroke-width:1;"/><polygon fill="none" points="1739.54,163,1749.0573,179.414,1757.0023,170.4208,1739.54,163" style="stroke:#181818;stroke-width:1;"/></g><!--reverse link Asset to Platform--><g class="link" data-entity-1="ent0030" data-entity-2="ent0031" data-link-type="extension" data-source-line="13" id="lnk32"><path codeLine="13" d="M1797.0383,70.5372 C1807.3683,88.1972 1812.48,96.94 1822.86,114.68" fill="none" id="Asset-backto-Platform" style="stroke:#181818;stroke-width:1;"/><polygon fill="none" points="1787.95,55,1791.8592,73.5666,1802.2173,67.5077,1787.95,55" style="stroke:#181818;stroke-width:1;"/></g><!--reverse link Asset to System--><g class="link" data-entity-1="ent0030" data-entity-2="ent0023" data-link-type="extension" data-source-line="14" id="lnk33"><path codeLine="14" d="M1752.2839,70.6022 C1742.1239,88.2622 1737.13,96.94 1726.92,114.68" fill="none" id="Asset-backto-System" style="stroke:#181818;stroke-width:1;"/><polygon fill="none" points="1761.26,55,1747.0831,67.6102,1757.4846,73.5943,1761.26,55" style="stroke:#181818;stroke-width:1;"/></g><!--reverse link Property to ActuatableProperty--><g class="link" data-entity-1="ent0034" data-entity-2="ent0035" data-link-type="extension" data-source-line="15" id="lnk36"><path codeLine="15" d="M2067.8905,67.9716 C2050.9005,85.6316 2040.01,96.94 2022.94,114.68" fill="none" id="Property-backto-ActuatableProperty" style="stroke:#181818;stroke-width:1;"/><polygon fill="none" points="2080.37,55,2063.5667,63.8118,2072.2144,72.1314,2080.37,55" style="stroke:#181818;stroke-width:1;"/></g><!--reverse link Property to ObservableProperty--><g class="link" data-entity-1="ent0034" data-entity-2="ent0037" data-link-type="extension" data-source-line="16" id="lnk38"><path codeLine="16" d="M2137.3939,67.9094 C2154.5539,85.5694 2165.6,96.94 2182.84,114.68" fill="none" id="Property-backto-ObservableProperty" style="stroke:#181818;stroke-width:1;"/><polygon fill="none" points="2124.85,55,2133.0907,72.0906,2141.697,63.7281,2124.85,55" style="stroke:#181818;stroke-width:1;"/></g><!--reverse link Sample to MaterialSample--><g class="link" data-entity-1="ent0039" data-entity-2="ent0040" data-link-type="extension" data-source-line="17" id="lnk41"><path codeLine="17" d="M2516.8567,64.4445 C2488.1067,82.1645 2463.85,97.11 2435.05,114.86" fill="none" id="Sample-backto-MaterialSample" style="stroke:#181818;stroke-width:1;"/><polygon fill="none" points="2532.18,55,2513.7086,59.3367,2520.0049,69.5522,2532.18,55" style="stroke:#181818;stroke-width:1;"/></g><!--reverse link Sample to SpatialSample--><g class="link" data-entity-1="ent0039" data-entity-2="ent0042" data-link-type="extension" data-source-line="18" id="lnk43"><path codeLine="18" d="M2569.5,73 C2569.5,90.66 2569.5,96.94 2569.5,114.68" fill="none" id="Sample-backto-SpatialSample" style="stroke:#181818;stroke-width:1;"/><polygon fill="none" points="2569.5,55,2563.5,73,2575.5,73,2569.5,55" style="stroke:#181818;stroke-width:1;"/></g><!--reverse link Sample to StatisticalSample--><g class="link" data-entity-1="ent0039" data-entity-2="ent0044" data-link-type="extension" data-source-line="19" id="lnk45"><path codeLine="19" d="M2623.8276,64.1725 C2653.7476,81.8925 2679.45,97.11 2709.43,114.86" fill="none" id="Sample-backto-StatisticalSample" style="stroke:#181818;stroke-width:1;"/><polygon fill="none" points="2608.34,55,2620.7701,69.335,2626.8851,59.0099,2608.34,55" style="stroke:#181818;stroke-width:1;"/></g><?plantuml-src ZP513e8m44Ntde9qpmtS4EFIID8Jb3gQ9eMIwM0ayV22jDWMKBV_lUcVjgn48-7I8R1i_yppZ1MIEa6gkNt8ZYsiSsK1xxyiBkfM9zBn0R8ZPPgaS0XMuDIpYNr1o0v6Qv2h3G7wEX2q_ZlYDubytbk2Ebx3u09mQEnQF1u9OrvO2-JZKWkw6gpJt0s_lw45f3xk5PM6cImbT-LOcZRmoaaGe1BQfIdcxV1WsvG6Qad9sNW1?></g></svg>