<svg xmlns="http://www.w3.org/2000/svg" xmlns:xlink="http://www.w3.org/1999/xlink" contentStyleType="text/css" data-diagram-type="CLASS" height="286px" preserveAspectRatio="none" style="width:3161px;height:286px;background:#FFFFFF;" version="1.1" viewBox="0 0 3161 286" width="3161px" zoomAndPan="magnify"><?plantuml 1.2026.3?><defs/><g><!--class Property--><g class="entity" data-qualified-name="Property" data-source-line="1" id="ent0002"><rect fill="#F1F1F1" height="48" rx="2.5" ry="2.5" style="stroke:#181818;stroke-width:0.5;" width="91.7939" x="515" y="7"/><ellipse cx="530" cy="23" fill="#ADD1B2" rx="11" ry="11" style="stroke:#181818;stroke-width:1;"/><path d="M532.9688,28.6406 Q532.3906,28.9375 531.75,29.0781 Q531.1094,29.2344 530.4063,29.2344 Q527.9063,29.2344 526.5781,27.5938 Q525.2656,25.9375 525.2656,22.8125 Q525.2656,19.6875 526.5781,18.0313 Q527.9063,16.375 530.4063,16.375 Q531.1094,16.375 531.75,16.5313 Q532.4063,16.6875 532.9688,16.9844 L532.9688,19.7031 Q532.3438,19.125 531.75,18.8594 Q531.1563,18.5781 530.5313,18.5781 Q529.1875,18.5781 528.5,19.6563 Q527.8125,20.7188 527.8125,22.8125 Q527.8125,24.9063 528.5,25.9844 Q529.1875,27.0469 530.5313,27.0469 Q531.1563,27.0469 531.75,26.7813 Q532.3438,26.5 532.9688,25.9219 L532.9688,28.6406 Z " fill="#000000"/><text fill="#000000" font-family="sans-serif" font-size="14" lengthAdjust="spacing" textLength="59.7939" x="544" y="27.8467">Property</text><line style="stroke:#181818;stroke-width:0.5;" x1="516" x2="605.7939" y1="39" y2="39"/><line style="stroke:#181818;stroke-width:0.5;" x1="516" x2="605.7939" y1="47" y2="47"/></g><!--class ActuatableProperty--><g class="entity" data-qualified-name="ActuatableProperty" data-source-line="1" id="ent0003"><rect fill="#F1F1F1" height="48" rx="2.5" ry="2.5" style="stroke:#181818;stroke-width:0.5;" width="167.4678" x="326.5" y="115"/><ellipse cx="341.5" cy="131" fill="#ADD1B2" rx="11" ry="11" style="stroke:#181818;stroke-width:1;"/><path d="M344.4688,136.6406 Q343.8906,136.9375 343.25,137.0781 Q342.6094,137.2344 341.9063,137.2344 Q339.4063,137.2344 338.0781,135.5938 Q336.7656,133.9375 336.7656,130.8125 Q336.7656,127.6875 338.0781,126.0313 Q339.4063,124.375 341.9063,124.375 Q342.6094,124.375 343.25,124.5313 Q343.9063,124.6875 344.4688,124.9844 L344.4688,127.7031 Q343.8438,127.125 343.25,126.8594 Q342.6563,126.5781 342.0313,126.5781 Q340.6875,126.5781 340,127.6563 Q339.3125,128.7188 339.3125,130.8125 Q339.3125,132.9063 340,133.9844 Q340.6875,135.0469 342.0313,135.0469 Q342.6563,135.0469 343.25,134.7813 Q343.8438,134.5 344.4688,133.9219 L344.4688,136.6406 Z " fill="#000000"/><text fill="#000000" font-family="sans-serif" font-size="14" lengthAdjust="spacing" textLength="135.4678" x="355.5" y="135.8467">ActuatableProperty</text><line style="stroke:#181818;stroke-width:0.5;" x1="327.5" x2="492.9678" y1="147" y2="147"/><line style="stroke:#181818;stroke-width:0.5;" x1="327.5" x2="492.9678" y1="155" y2="155"/></g><!--class Sample--><g class="entity" data-qualified-name="Sample" data-source-line="2" id="ent0005"><rect fill="#F1F1F1" height="48" rx="2.5" ry="2.5" style="stroke:#181818;stroke-width:0.5;" width="84.4932" x="937" y="7"/><ellipse cx="952" cy="23" fill="#ADD1B2" rx="11" ry="11" style="stroke:#181818;stroke-width:1;"/><path d="M954.9688,28.6406 Q954.3906,28.9375 953.75,29.0781 Q953.1094,29.2344 952.4063,29.2344 Q949.9063,29.2344 948.5781,27.5938 Q947.2656,25.9375 947.2656,22.8125 Q947.2656,19.6875 948.5781,18.0313 Q949.9063,16.375 952.4063,16.375 Q953.1094,16.375 953.75,16.5313 Q954.4063,16.6875 954.9688,16.9844 L954.9688,19.7031 Q954.3438,19.125 953.75,18.8594 Q953.1563,18.5781 952.5313,18.5781 Q951.1875,18.5781 950.5,19.6563 Q949.8125,20.7188 949.8125,22.8125 Q949.8125,24.9063 950.5,25.9844 Q951.1875,27.0469 952.5313,27.0469 Q953.1563,27.0469 953.75,26.7813 Q954.3438,26.5 954.9688,25.9219 L954.9688,28.6406 Z " fill="#000000"/><text fill="#000000" font-family="sans-serif" font-size="14" lengthAdjust="spacing" textLength="52.4932" x="966" y="27.8467">Sample</text><line style="stroke:#181818;stroke-width:0.5;" x1="938" x2="1020.4932" y1="39" y2="39"/><line style="stroke:#181818;stroke-width:0.5;" x1="938" x2="1020.4932" y1="47" y2="47"/></g><!--class MaterialSample--><g class="entity" data-qualified-name="MaterialSample" data-source-line="2" id="ent0006"><rect fill="#F1F1F1" height="48" rx="2.5" ry="2.5" style="stroke:#181818;stroke-width:0.5;" width="141.3682" x="736.5" y="115"/><ellipse cx="751.5" cy="131" fill="#ADD1B2" rx="11" ry="11" style="stroke:#181818;stroke-width:1;"/><path d="M754.4688,136.6406 Q753.8906,136.9375 753.25,137.0781 Q752.6094,137.2344 751.9063,137.2344 Q749.4063,137.2344 748.0781,135.5938 Q746.7656,133.9375 746.7656,130.8125 Q746.7656,127.6875 748.0781,126.0313 Q749.4063,124.375 751.9063,124.375 Q752.6094,124.375 753.25,124.5313 Q753.9063,124.6875 754.4688,124.9844 L754.4688,127.7031 Q753.8438,127.125 753.25,126.8594 Q752.6563,126.5781 752.0313,126.5781 Q750.6875,126.5781 750,127.6563 Q749.3125,128.7188 749.3125,130.8125 Q749.3125,132.9063 750,133.9844 Q750.6875,135.0469 752.0313,135.0469 Q752.6563,135.0469 753.25,134.7813 Q753.8438,134.5 754.4688,133.9219 L754.4688,136.6406 Z " fill="#000000"/><text fill="#000000" font-family="sans-serif" font-size="14" lengthAdjust="spacing" textLength="109.3682" x="765.5" y="135.8467">MaterialSample</text><line style="stroke:#181818;stroke-width:0.5;" x1="737.5" x2="876.8682" y1="147" y2="147"/><line style="stroke:#181818;stroke-width:0.5;" x1="737.5" x2="876.8682" y1="155" y2="155"/></g><!--class ObservableProperty--><g class="entity" data-qualified-name="ObservableProperty" data-source-line="3" id="ent0008"><rect fill="#F1F1F1" height="48" rx="2.5" ry="2.5" style="stroke:#181818;stroke-width:0.5;" width="171.6172" x="529" y="115"/><ellipse cx="544" cy="131" fill="#ADD1B2" rx="11" ry="11" style="stroke:#181818;stroke-width:1;"/><path d="M546.9688,136.6406 Q546.3906,136.9375 545.75,137.0781 Q545.1094,137.2344 544.4063,137.2344 Q541.9063,137.2344 540.5781,135.5938 Q539.2656,133.9375 539.2656,130.8125 Q539.2656,127.6875 540.5781,126.0313 Q541.9063,124.375 544.4063,124.375 Q545.1094,124.375 545.75,124.5313 Q546.4063,124.6875 546.9688,124.9844 L546.9688,127.7031 Q546.3438,127.125 545.75,126.8594 Q545.1563,126.5781 544.5313,126.5781 Q543.1875,126.5781 542.5,127.6563 Q541.8125,128.7188 541.8125,130.8125 Q541.8125,132.9063 542.5,133.9844 Q543.1875,135.0469 544.5313,135.0469 Q545.1563,135.0469 545.75,134.7813 Q546.3438,134.5 546.9688,133.9219 L546.9688,136.6406 Z " fill="#000000"/><text fill="#000000" font-family="sans-serif" font-size="14" lengthAdjust="spacing" textLength="139.6172" x="558" y="135.8467">ObservableProperty</text><line style="stroke:#181818;stroke-width:0.5;" x1="530" x2="699.6172" y1="147" y2="147"/><line style="stroke:#181818;stroke-width:0.5;" x1="530" x2="699.6172" y1="155" y2="155"/></g><!--class SpatialSample--><g class="entity" data-qualified-name="SpatialSample" data-source-line="4" id="ent0010"><rect fill="#F1F1F1" height="48" rx="2.5" ry="2.5" style="stroke:#181818;stroke-width:0.5;" width="132.6934" x="912.5" y="115"/><ellipse cx="927.5" cy="131" fill="#ADD1B2" rx="11" ry="11" style="stroke:#181818;stroke-width:1;"/><path d="M930.4688,136.6406 Q929.8906,136.9375 929.25,137.0781 Q928.6094,137.2344 927.9063,137.2344 Q925.4063,137.2344 924.0781,135.5938 Q922.7656,133.9375 922.7656,130.8125 Q922.7656,127.6875 924.0781,126.0313 Q925.4063,124.375 927.9063,124.375 Q928.6094,124.375 929.25,124.5313 Q929.9063,124.6875 930.4688,124.9844 L930.4688,127.7031 Q929.8438,127.125 929.25,126.8594 Q928.6563,126.5781 928.0313,126.5781 Q926.6875,126.5781 926,127.6563 Q925.3125,128.7188 925.3125,130.8125 Q925.3125,132.9063 926,133.9844 Q926.6875,135.0469 928.0313,135.0469 Q928.6563,135.0469 929.25,134.7813 Q929.8438,134.5 930.4688,133.9219 L930.4688,136.6406 Z " fill="#000000"/><text fill="#000000" font-family="sans-serif" font-size="14" lengthAdjust="spacing" textLength="100.6934" x="941.5" y="135.8467">SpatialSample</text><line style="stroke:#181818;stroke-width:0.5;" x1="913.5" x2="1044.1934" y1="147" y2="147"/><line style="stroke:#181818;stroke-width:0.5;" x1="913.5" x2="1044.1934" y1="155" y2="155"/></g><!--class StatisticalSample--><g class="entity" data-qualified-name="StatisticalSample" data-source-line="5" id="ent0012"><rect fill="#F1F1F1" height="48" rx="2.5" ry="2.5" style="stroke:#181818;stroke-width:0.5;" width="153.666" x="1081" y="115"/><ellipse cx="1096" cy="131" fill="#ADD1B2" rx="11" ry="11" style="stroke:#181818;stroke-width:1;"/><path d="M1098.9688,136.6406 Q1098.3906,136.9375 1097.75,137.0781 Q1097.1094,137.2344 1096.4063,137.2344 Q1093.9063,137.2344 1092.5781,135.5938 Q1091.2656,133.9375 1091.2656,130.8125 Q1091.2656,127.6875 1092.5781,126.0313 Q1093.9063,124.375 1096.4063,124.375 Q1097.1094,124.375 1097.75,124.5313 Q1098.4063,124.6875 1098.9688,124.9844 L1098.9688,127.7031 Q1098.3438,127.125 1097.75,126.8594 Q1097.1563,126.5781 1096.5313,126.5781 Q1095.1875,126.5781 1094.5,127.6563 Q1093.8125,128.7188 1093.8125,130.8125 Q1093.8125,132.9063 1094.5,133.9844 Q1095.1875,135.0469 1096.5313,135.0469 Q1097.1563,135.0469 1097.75,134.7813 Q1098.3438,134.5 1098.9688,133.9219 L1098.9688,136.6406 Z " fill="#000000"/><text fill="#000000" font-family="sans-serif" font-size="14" lengthAdjust="spacing" textLength="121.666" x="1110" y="135.8467">StatisticalSample</text><line style="stroke:#181818;stroke-width:0.5;" x1="1082" x2="1233.666" y1="147" y2="147"/><line style="stroke:#181818;stroke-width:0.5;" x1="1082" x2="1233.666" y1="155" y2="155"/></g><!--class Procedure--><g class="entity" data-qualified-name="Procedure" data-source-line="6" id="ent0014"><rect fill="#F1F1F1" height="48" rx="2.5" ry="2.5" style="stroke:#181818;stroke-width:0.5;" width="103.2031" x="1512.5" y="7"/><ellipse cx="1527.5" cy="23" fill="#ADD1B2" rx="11" ry="11" style="stroke:#181818;stroke-width:1;"/><path d="M1530.4688,28.6406 Q1529.8906,28.9375 1529.25,29.0781 Q1528.6094,29.2344 1527.9063,29.2344 Q1525.4063,29.2344 1524.0781,27.5938 Q1522.7656,25.9375 1522.7656,22.8125 Q1522.7656,19.6875 1524.0781,18.0313 Q1525.4063,16.375 1527.9063,16.375 Q1528.6094,16.375 1529.25,16.5313 Q1529.9063,16.6875 1530.4688,16.9844 L1530.4688,19.7031 Q1529.8438,19.125 1529.25,18.8594 Q1528.6563,18.5781 1528.0313,18.5781 Q1526.6875,18.5781 1526,19.6563 Q1525.3125,20.7188 1525.3125,22.8125 Q1525.3125,24.9063 1526,25.9844 Q1526.6875,27.0469 1528.0313,27.0469 Q1528.6563,27.0469 1529.25,26.7813 Q1529.8438,26.5 1530.4688,25.9219 L1530.4688,28.6406 Z " fill="#000000"/><text fill="#000000" font-family="sans-serif" font-size="14" lengthAdjust="spacing" textLength="71.2031" x="1541.5" y="27.8467">Procedure</text><line style="stroke:#181818;stroke-width:0.5;" x1="1513.5" x2="1614.7031" y1="39" y2="39"/><line style="stroke:#181818;stroke-width:0.5;" x1="1513.5" x2="1614.7031" y1="47" y2="47"/></g><!--class ActuatingProcedure--><g class="entity" data-qualified-name="ActuatingProcedure" data-source-line="6" id="ent0015"><rect fill="#F1F1F1" height="48" rx="2.5" ry="2.5" style="stroke:#181818;stroke-width:0.5;" width="170.5576" x="1270.5" y="115"/><ellipse cx="1285.5" cy="131" fill="#ADD1B2" rx="11" ry="11" style="stroke:#181818;stroke-width:1;"/><path d="M1288.4688,136.6406 Q1287.8906,136.9375 1287.25,137.0781 Q1286.6094,137.2344 1285.9063,137.2344 Q1283.4063,137.2344 1282.0781,135.5938 Q1280.7656,133.9375 1280.7656,130.8125 Q1280.7656,127.6875 1282.0781,126.0313 Q1283.4063,124.375 1285.9063,124.375 Q1286.6094,124.375 1287.25,124.5313 Q1287.9063,124.6875 1288.4688,124.9844 L1288.4688,127.7031 Q1287.8438,127.125 1287.25,126.8594 Q1286.6563,126.5781 1286.0313,126.5781 Q1284.6875,126.5781 1284,127.6563 Q1283.3125,128.7188 1283.3125,130.8125 Q1283.3125,132.9063 1284,133.9844 Q1284.6875,135.0469 1286.0313,135.0469 Q1286.6563,135.0469 1287.25,134.7813 Q1287.8438,134.5 1288.4688,133.9219 L1288.4688,136.6406 Z " fill="#000000"/><text fill="#000000" font-family="sans-serif" font-size="14" lengthAdjust="spacing" textLength="138.5576" x="1299.5" y="135.8467">ActuatingProcedure</text><line style="stroke:#181818;stroke-width:0.5;" x1="1271.5" x2="1440.0576" y1="147" y2="147"/><line style="stroke:#181818;stroke-width:0.5;" x1="1271.5" x2="1440.0576" y1="155" y2="155"/></g><!--class ObservingProcedure--><g class="entity" data-qualified-name="ObservingProcedure" data-source-line="7" id="ent0017"><rect fill="#F1F1F1" height="48" rx="2.5" ry="2.5" style="stroke:#181818;stroke-width:0.5;" width="174.707" x="1476.5" y="115"/><ellipse cx="1491.5" cy="131" fill="#ADD1B2" rx="11" ry="11" style="stroke:#181818;stroke-width:1;"/><path d="M1494.4688,136.6406 Q1493.8906,136.9375 1493.25,137.0781 Q1492.6094,137.2344 1491.9063,137.2344 Q1489.4063,137.2344 1488.0781,135.5938 Q1486.7656,133.9375 1486.7656,130.8125 Q1486.7656,127.6875 1488.0781,126.0313 Q1489.4063,124.375 1491.9063,124.375 Q1492.6094,124.375 1493.25,124.5313 Q1493.9063,124.6875 1494.4688,124.9844 L1494.4688,127.7031 Q1493.8438,127.125 1493.25,126.8594 Q1492.6563,126.5781 1492.0313,126.5781 Q1490.6875,126.5781 1490,127.6563 Q1489.3125,128.7188 1489.3125,130.8125 Q1489.3125,132.9063 1490,133.9844 Q1490.6875,135.0469 1492.0313,135.0469 Q1492.6563,135.0469 1493.25,134.7813 Q1493.8438,134.5 1494.4688,133.9219 L1494.4688,136.6406 Z " fill="#000000"/><text fill="#000000" font-family="sans-serif" font-size="14" lengthAdjust="spacing" textLength="142.707" x="1505.5" y="135.8467">ObservingProcedure</text><line style="stroke:#181818;stroke-width:0.5;" x1="1477.5" x2="1650.207" y1="147" y2="147"/><line style="stroke:#181818;stroke-width:0.5;" x1="1477.5" x2="1650.207" y1="155" y2="155"/></g><!--class SamplingProcedure--><g class="entity" data-qualified-name="SamplingProcedure" data-source-line="8" id="ent0019"><rect fill="#F1F1F1" height="48" rx="2.5" ry="2.5" style="stroke:#181818;stroke-width:0.5;" width="168.7324" x="1686.5" y="115"/><ellipse cx="1701.5" cy="131" fill="#ADD1B2" rx="11" ry="11" style="stroke:#181818;stroke-width:1;"/><path d="M1704.4688,136.6406 Q1703.8906,136.9375 1703.25,137.0781 Q1702.6094,137.2344 1701.9063,137.2344 Q1699.4063,137.2344 1698.0781,135.5938 Q1696.7656,133.9375 1696.7656,130.8125 Q1696.7656,127.6875 1698.0781,126.0313 Q1699.4063,124.375 1701.9063,124.375 Q1702.6094,124.375 1703.25,124.5313 Q1703.9063,124.6875 1704.4688,124.9844 L1704.4688,127.7031 Q1703.8438,127.125 1703.25,126.8594 Q1702.6563,126.5781 1702.0313,126.5781 Q1700.6875,126.5781 1700,127.6563 Q1699.3125,128.7188 1699.3125,130.8125 Q1699.3125,132.9063 1700,133.9844 Q1700.6875,135.0469 1702.0313,135.0469 Q1702.6563,135.0469 1703.25,134.7813 Q1703.8438,134.5 1704.4688,133.9219 L1704.4688,136.6406 Z " fill="#000000"/><text fill="#000000" font-family="sans-serif" font-size="14" lengthAdjust="spacing" textLength="136.7324" x="1715.5" y="135.8467">SamplingProcedure</text><line style="stroke:#181818;stroke-width:0.5;" x1="1687.5" x2="1854.2324" y1="147" y2="147"/><line style="stroke:#181818;stroke-width:0.5;" x1="1687.5" x2="1854.2324" y1="155" y2="155"/></g><!--class Asset--><g class="entity" data-qualified-name="Asset" data-source-line="9" id="ent0021"><rect fill="#F1F1F1" height="48" rx="2.5" ry="2.5" style="stroke:#181818;stroke-width:0.5;" width="70.2676" x="1962" y="7"/><ellipse cx="1977" cy="23" fill="#ADD1B2" rx="11" ry="11" style="stroke:#181818;stroke-width:1;"/><path d="M1979.9688,28.6406 Q1979.3906,28.9375 1978.75,29.0781 Q1978.1094,29.2344 1977.4063,29.2344 Q1974.9063,29.2344 1973.5781,27.5938 Q1972.2656,25.9375 1972.2656,22.8125 Q1972.2656,19.6875 1973.5781,18.0313 Q1974.9063,16.375 1977.4063,16.375 Q1978.1094,16.375 1978.75,16.5313 Q1979.4063,16.6875 1979.9688,16.9844 L1979.9688,19.7031 Q1979.3438,19.125 1978.75,18.8594 Q1978.1563,18.5781 1977.5313,18.5781 Q1976.1875,18.5781 1975.5,19.6563 Q1974.8125,20.7188 1974.8125,22.8125 Q1974.8125,24.9063 1975.5,25.9844 Q1976.1875,27.0469 1977.5313,27.0469 Q1978.1563,27.0469 1978.75,26.7813 Q1979.3438,26.5 1979.9688,25.9219 L1979.9688,28.6406 Z " fill="#000000"/><text fill="#000000" font-family="sans-serif" font-size="14" lengthAdjust="spacing" textLength="38.2676" x="1991" y="27.8467">Asset</text><line style="stroke:#181818;stroke-width:0.5;" x1="1963" x2="2031.2676" y1="39" y2="39"/><line style="stroke:#181818;stroke-width:0.5;" x1="1963" x2="2031.2676" y1="47" y2="47"/></g><!--class Platform--><g class="entity" data-qualified-name="Platform" data-source-line="9" id="ent0022"><rect fill="#F1F1F1" height="48" rx="2.5" ry="2.5" style="stroke:#181818;stroke-width:0.5;" width="91.2881" x="1890.5" y="115"/><ellipse cx="1905.5" cy="131" fill="#ADD1B2" rx="11" ry="11" style="stroke:#181818;stroke-width:1;"/><path d="M1908.4688,136.6406 Q1907.8906,136.9375 1907.25,137.0781 Q1906.6094,137.2344 1905.9063,137.2344 Q1903.4063,137.2344 1902.0781,135.5938 Q1900.7656,133.9375 1900.7656,130.8125 Q1900.7656,127.6875 1902.0781,126.0313 Q1903.4063,124.375 1905.9063,124.375 Q1906.6094,124.375 1907.25,124.5313 Q1907.9063,124.6875 1908.4688,124.9844 L1908.4688,127.7031 Q1907.8438,127.125 1907.25,126.8594 Q1906.6563,126.5781 1906.0313,126.5781 Q1904.6875,126.5781 1904,127.6563 Q1903.3125,128.7188 1903.3125,130.8125 Q1903.3125,132.9063 1904,133.9844 Q1904.6875,135.0469 1906.0313,135.0469 Q1906.6563,135.0469 1907.25,134.7813 Q1907.8438,134.5 1908.4688,133.9219 L1908.4688,136.6406 Z " fill="#000000"/><text fill="#000000" font-family="sans-serif" font-size="14" lengthAdjust="spacing" textLength="59.2881" x="1919.5" y="135.8467">Platform</text><line style="stroke:#181818;stroke-width:0.5;" x1="1891.5" x2="1980.7881" y1="147" y2="147"/><line style="stroke:#181818;stroke-width:0.5;" x1="1891.5" x2="1980.7881" y1="155" y2="155"/></g><!--class System--><g class="entity" data-qualified-name="System" data-source-line="10" id="ent0024"><rect fill="#F1F1F1" height="48" rx="2.5" ry="2.5" style="stroke:#181818;stroke-width:0.5;" width="84.2061" x="2017" y="115"/><ellipse cx="2032" cy="131" fill="#ADD1B2" rx="11" ry="11" style="stroke:#181818;stroke-width:1;"/><path d="M2034.9688,136.6406 Q2034.3906,136.9375 2033.75,137.0781 Q2033.1094,137.2344 2032.4063,137.2344 Q2029.9063,137.2344 2028.5781,135.5938 Q2027.2656,133.9375 2027.2656,130.8125 Q2027.2656,127.6875 2028.5781,126.0313 Q2029.9063,124.375 2032.4063,124.375 Q2033.1094,124.375 2033.75,124.5313 Q2034.4063,124.6875 2034.9688,124.9844 L2034.9688,127.7031 Q2034.3438,127.125 2033.75,126.8594 Q2033.1563,126.5781 2032.5313,126.5781 Q2031.1875,126.5781 2030.5,127.6563 Q2029.8125,128.7188 2029.8125,130.8125 Q2029.8125,132.9063 2030.5,133.9844 Q2031.1875,135.0469 2032.5313,135.0469 Q2033.1563,135.0469 2033.75,134.7813 Q2034.3438,134.5 2034.9688,133.9219 L2034.9688,136.6406 Z " fill="#000000"/><text fill="#000000" font-family="sans-serif" font-size="14" lengthAdjust="spacing" textLength="52.2061" x="2046" y="135.8467">System</text><line style="stroke:#181818;stroke-width:0.5;" x1="2018" x2="2100.2061" y1="147" y2="147"/><line style="stroke:#181818;stroke-width:0.5;" x1="2018" x2="2100.2061" y1="155" y2="155"/></g><!--class Sampler--><g class="entity" data-qualified-name="Sampler" data-source-line="10" id="ent0025"><rect fill="#F1F1F1" height="48" rx="2.5" ry="2.5" style="stroke:#181818;stroke-width:0.5;" width="90.249" x="1888" y="223"/><ellipse cx="1903" cy="239" fill="#ADD1B2" rx="11" ry="11" style="stroke:#181818;stroke-width:1;"/><path d="M1905.9688,244.6406 Q1905.3906,244.9375 1904.75,245.0781 Q1904.1094,245.2344 1903.4063,245.2344 Q1900.9063,245.2344 1899.5781,243.5938 Q1898.2656,241.9375 1898.2656,238.8125 Q1898.2656,235.6875 1899.5781,234.0313 Q1900.9063,232.375 1903.4063,232.375 Q1904.1094,232.375 1904.75,232.5313 Q1905.4063,232.6875 1905.9688,232.9844 L1905.9688,235.7031 Q1905.3438,235.125 1904.75,234.8594 Q1904.1563,234.5781 1903.5313,234.5781 Q1902.1875,234.5781 1901.5,235.6563 Q1900.8125,236.7188 1900.8125,238.8125 Q1900.8125,240.9063 1901.5,241.9844 Q1902.1875,243.0469 1903.5313,243.0469 Q1904.1563,243.0469 1904.75,242.7813 Q1905.3438,242.5 1905.9688,241.9219 L1905.9688,244.6406 Z " fill="#000000"/><text fill="#000000" font-family="sans-serif" font-size="14" lengthAdjust="spacing" textLength="58.249" x="1917" y="243.8467">Sampler</text><line style="stroke:#181818;stroke-width:0.5;" x1="1889" x2="1977.249" y1="255" y2="255"/><line style="stroke:#181818;stroke-width:0.5;" x1="1889" x2="1977.249" y1="263" y2="263"/></g><!--class Actuator--><g class="entity" data-qualified-name="Actuator" data-source-line="11" id="ent0027"><rect fill="#F1F1F1" height="48" rx="2.5" ry="2.5" style="stroke:#181818;stroke-width:0.5;" width="92.0264" x="2013" y="223"/><ellipse cx="2028" cy="239" fill="#ADD1B2" rx="11" ry="11" style="stroke:#181818;stroke-width:1;"/><path d="M2030.9688,244.6406 Q2030.3906,244.9375 2029.75,245.0781 Q2029.1094,245.2344 2028.4063,245.2344 Q2025.9063,245.2344 2024.5781,243.5938 Q2023.2656,241.9375 2023.2656,238.8125 Q2023.2656,235.6875 2024.5781,234.0313 Q2025.9063,232.375 2028.4063,232.375 Q2029.1094,232.375 2029.75,232.5313 Q2030.4063,232.6875 2030.9688,232.9844 L2030.9688,235.7031 Q2030.3438,235.125 2029.75,234.8594 Q2029.1563,234.5781 2028.5313,234.5781 Q2027.1875,234.5781 2026.5,235.6563 Q2025.8125,236.7188 2025.8125,238.8125 Q2025.8125,240.9063 2026.5,241.9844 Q2027.1875,243.0469 2028.5313,243.0469 Q2029.1563,243.0469 2029.75,242.7813 Q2030.3438,242.5 2030.9688,241.9219 L2030.9688,244.6406 Z " fill="#000000"/><text fill="#000000" font-family="sans-serif" font-size="14" lengthAdjust="spacing" textLength="60.0264" x="2042" y="243.8467">Actuator</text><line style="stroke:#181818;stroke-width:0.5;" x1="2014" x2="2104.0264" y1="255" y2="255"/><line style="stroke:#181818;stroke-width:0.5;" x1="2014" x2="2104.0264" y1="263" y2="263"/></g><!--class ExecutionCollection--><g class="entity" data-qualified-name="ExecutionCollection" data-source-line="12" id="ent0029"><rect fill="#F1F1F1" height="48" rx="2.5" ry="2.5" style="stroke:#181818;stroke-width:0.5;" width="170.3799" x="2337" y="7"/><ellipse cx="2352" cy="23" fill="#ADD1B2" rx="11" ry="11" style="stroke:#181818;stroke-width:1;"/><path d="M2354.9688,28.6406 Q2354.3906,28.9375 2353.75,29.0781 Q2353.1094,29.2344 2352.4063,29.2344 Q2349.9063,29.2344 2348.5781,27.5938 Q2347.2656,25.9375 2347.2656,22.8125 Q2347.2656,19.6875 2348.5781,18.0313 Q2349.9063,16.375 2352.4063,16.375 Q2353.1094,16.375 2353.75,16.5313 Q2354.4063,16.6875 2354.9688,16.9844 L2354.9688,19.7031 Q2354.3438,19.125 2353.75,18.8594 Q2353.1563,18.5781 2352.5313,18.5781 Q2351.1875,18.5781 2350.5,19.6563 Q2349.8125,20.7188 2349.8125,22.8125 Q2349.8125,24.9063 2350.5,25.9844 Q2351.1875,27.0469 2352.5313,27.0469 Q2353.1563,27.0469 2353.75,26.7813 Q2354.3438,26.5 2354.9688,25.9219 L2354.9688,28.6406 Z " fill="#000000"/><text fill="#000000" font-family="sans-serif" font-size="14" lengthAdjust="spacing" textLength="138.3799" x="2366" y="27.8467">ExecutionCollection</text><line style="stroke:#181818;stroke-width:0.5;" x1="2338" x2="2506.3799" y1="39" y2="39"/><line style="stroke:#181818;stroke-width:0.5;" x1="2338" x2="2506.3799" y1="47" y2="47"/></g><!--class SamplingCollection--><g class="entity" data-qualified-name="SamplingCollection" data-source-line="12" id="ent0030"><rect fill="#F1F1F1" height="48" rx="2.5" ry="2.5" style="stroke:#181818;stroke-width:0.5;" width="166.7773" x="2136.5" y="115"/><ellipse cx="2151.5" cy="131" fill="#ADD1B2" rx="11" ry="11" style="stroke:#181818;stroke-width:1;"/><path d="M2154.4688,136.6406 Q2153.8906,136.9375 2153.25,137.0781 Q2152.6094,137.2344 2151.9063,137.2344 Q2149.4063,137.2344 2148.0781,135.5938 Q2146.7656,133.9375 2146.7656,130.8125 Q2146.7656,127.6875 2148.0781,126.0313 Q2149.4063,124.375 2151.9063,124.375 Q2152.6094,124.375 2153.25,124.5313 Q2153.9063,124.6875 2154.4688,124.9844 L2154.4688,127.7031 Q2153.8438,127.125 2153.25,126.8594 Q2152.6563,126.5781 2152.0313,126.5781 Q2150.6875,126.5781 2150,127.6563 Q2149.3125,128.7188 2149.3125,130.8125 Q2149.3125,132.9063 2150,133.9844 Q2150.6875,135.0469 2152.0313,135.0469 Q2152.6563,135.0469 2153.25,134.7813 Q2153.8438,134.5 2154.4688,133.9219 L2154.4688,136.6406 Z " fill="#000000"/><text fill="#000000" font-family="sans-serif" font-size="14" lengthAdjust="spacing" textLength="134.7773" x="2165.5" y="135.8467">SamplingCollection</text><line style="stroke:#181818;stroke-width:0.5;" x1="2137.5" x2="2302.2773" y1="147" y2="147"/><line style="stroke:#181818;stroke-width:0.5;" x1="2137.5" x2="2302.2773" y1="155" y2="155"/></g><!--class Sensor--><g class="entity" data-qualified-name="Sensor" data-source-line="14" id="ent0033"><rect fill="#F1F1F1" height="48" rx="2.5" ry="2.5" style="stroke:#181818;stroke-width:0.5;" width="79.9883" x="2140" y="223"/><ellipse cx="2155" cy="239" fill="#ADD1B2" rx="11" ry="11" style="stroke:#181818;stroke-width:1;"/><path d="M2157.9688,244.6406 Q2157.3906,244.9375 2156.75,245.0781 Q2156.1094,245.2344 2155.4063,245.2344 Q2152.9063,245.2344 2151.5781,243.5938 Q2150.2656,241.9375 2150.2656,238.8125 Q2150.2656,235.6875 2151.5781,234.0313 Q2152.9063,232.375 2155.4063,232.375 Q2156.1094,232.375 2156.75,232.5313 Q2157.4063,232.6875 2157.9688,232.9844 L2157.9688,235.7031 Q2157.3438,235.125 2156.75,234.8594 Q2156.1563,234.5781 2155.5313,234.5781 Q2154.1875,234.5781 2153.5,235.6563 Q2152.8125,236.7188 2152.8125,238.8125 Q2152.8125,240.9063 2153.5,241.9844 Q2154.1875,243.0469 2155.5313,243.0469 Q2156.1563,243.0469 2156.75,242.7813 Q2157.3438,242.5 2157.9688,241.9219 L2157.9688,244.6406 Z " fill="#000000"/><text fill="#000000" font-family="sans-serif" font-size="14" lengthAdjust="spacing" textLength="47.9883" x="2169" y="243.8467">Sensor</text><line style="stroke:#181818;stroke-width:0.5;" x1="2141" x2="2218.9883" y1="255" y2="255"/><line style="stroke:#181818;stroke-width:0.5;" x1="2141" x2="2218.9883" y1="263" y2="263"/></g><!--class Execution--><g class="entity" data-qualified-name="Execution" data-source-line="15" id="ent0035"><rect fill="#F1F1F1" height="48" rx="2.5" ry="2.5" style="stroke:#181818;stroke-width:0.5;" width="101.1318" x="2894.5" y="7"/><ellipse cx="2909.5" cy="23" fill="#ADD1B2" rx="11" ry="11" style="stroke:#181818;stroke-width:1;"/><path d="M2912.4688,28.6406 Q2911.8906,28.9375 2911.25,29.0781 Q2910.6094,29.2344 2909.9063,29.2344 Q2907.4063,29.2344 2906.0781,27.5938 Q2904.7656,25.9375 2904.7656,22.8125 Q2904.7656,19.6875 2906.0781,18.0313 Q2907.4063,16.375 2909.9063,16.375 Q2910.6094,16.375 2911.25,16.5313 Q2911.9063,16.6875 2912.4688,16.9844 L2912.4688,19.7031 Q2911.8438,19.125 2911.25,18.8594 Q2910.6563,18.5781 2910.0313,18.5781 Q2908.6875,18.5781 2908,19.6563 Q2907.3125,20.7188 2907.3125,22.8125 Q2907.3125,24.9063 2908,25.9844 Q2908.6875,27.0469 2910.0313,27.0469 Q2910.6563,27.0469 2911.25,26.7813 Q2911.8438,26.5 2912.4688,25.9219 L2912.4688,28.6406 Z " fill="#000000"/><text fill="#000000" font-family="sans-serif" font-size="14" lengthAdjust="spacing" textLength="69.1318" x="2923.5" y="27.8467">Execution</text><line style="stroke:#181818;stroke-width:0.5;" x1="2895.5" x2="2994.6318" y1="39" y2="39"/><line style="stroke:#181818;stroke-width:0.5;" x1="2895.5" x2="2994.6318" y1="47" y2="47"/></g><!--class Sampling--><g class="entity" data-qualified-name="Sampling" data-source-line="15" id="ent0036"><rect fill="#F1F1F1" height="48" rx="2.5" ry="2.5" style="stroke:#181818;stroke-width:0.5;" width="97.5293" x="2762" y="115"/><ellipse cx="2777" cy="131" fill="#ADD1B2" rx="11" ry="11" style="stroke:#181818;stroke-width:1;"/><path d="M2779.9688,136.6406 Q2779.3906,136.9375 2778.75,137.0781 Q2778.1094,137.2344 2777.4063,137.2344 Q2774.9063,137.2344 2773.5781,135.5938 Q2772.2656,133.9375 2772.2656,130.8125 Q2772.2656,127.6875 2773.5781,126.0313 Q2774.9063,124.375 2777.4063,124.375 Q2778.1094,124.375 2778.75,124.5313 Q2779.4063,124.6875 2779.9688,124.9844 L2779.9688,127.7031 Q2779.3438,127.125 2778.75,126.8594 Q2778.1563,126.5781 2777.5313,126.5781 Q2776.1875,126.5781 2775.5,127.6563 Q2774.8125,128.7188 2774.8125,130.8125 Q2774.8125,132.9063 2775.5,133.9844 Q2776.1875,135.0469 2777.5313,135.0469 Q2778.1563,135.0469 2778.75,134.7813 Q2779.3438,134.5 2779.9688,133.9219 L2779.9688,136.6406 Z " fill="#000000"/><text fill="#000000" font-family="sans-serif" font-size="14" lengthAdjust="spacing" textLength="65.5293" x="2791" y="135.8467">Sampling</text><line style="stroke:#181818;stroke-width:0.5;" x1="2763" x2="2858.5293" y1="147" y2="147"/><line style="stroke:#181818;stroke-width:0.5;" x1="2763" x2="2858.5293" y1="155" y2="155"/></g><!--class Actuation--><g class="entity" data-qualified-name="Actuation" data-source-line="16" id="ent0038"><rect fill="#F1F1F1" height="48" rx="2.5" ry="2.5" style="stroke:#181818;stroke-width:0.5;" width="99.0332" x="2895.5" y="115"/><ellipse cx="2910.5" cy="131" fill="#ADD1B2" rx="11" ry="11" style="stroke:#181818;stroke-width:1;"/><path d="M2913.4688,136.6406 Q2912.8906,136.9375 2912.25,137.0781 Q2911.6094,137.2344 2910.9063,137.2344 Q2908.4063,137.2344 2907.0781,135.5938 Q2905.7656,133.9375 2905.7656,130.8125 Q2905.7656,127.6875 2907.0781,126.0313 Q2908.4063,124.375 2910.9063,124.375 Q2911.6094,124.375 2912.25,124.5313 Q2912.9063,124.6875 2913.4688,124.9844 L2913.4688,127.7031 Q2912.8438,127.125 2912.25,126.8594 Q2911.6563,126.5781 2911.0313,126.5781 Q2909.6875,126.5781 2909,127.6563 Q2908.3125,128.7188 2908.3125,130.8125 Q2908.3125,132.9063 2909,133.9844 Q2909.6875,135.0469 2911.0313,135.0469 Q2911.6563,135.0469 2912.25,134.7813 Q2912.8438,134.5 2913.4688,133.9219 L2913.4688,136.6406 Z " fill="#000000"/><text fill="#000000" font-family="sans-serif" font-size="14" lengthAdjust="spacing" textLength="67.0332" x="2924.5" y="135.8467">Actuation</text><line style="stroke:#181818;stroke-width:0.5;" x1="2896.5" x2="2993.5332" y1="147" y2="147"/><line style="stroke:#181818;stroke-width:0.5;" x1="2896.5" x2="2993.5332" y1="155" y2="155"/></g><!--class ActuationCollection--><g class="entity" data-qualified-name="ActuationCollection" data-source-line="17" id="ent0040"><rect fill="#F1F1F1" height="48" rx="2.5" ry="2.5" style="stroke:#181818;stroke-width:0.5;" width="168.2813" x="2338" y="115"/><ellipse cx="2353" cy="131" fill="#ADD1B2" rx="11" ry="11" style="stroke:#181818;stroke-width:1;"/><path d="M2355.9688,136.6406 Q2355.3906,136.9375 2354.75,137.0781 Q2354.1094,137.2344 2353.4063,137.2344 Q2350.9063,137.2344 2349.5781,135.5938 Q2348.2656,133.9375 2348.2656,130.8125 Q2348.2656,127.6875 2349.5781,126.0313 Q2350.9063,124.375 2353.4063,124.375 Q2354.1094,124.375 2354.75,124.5313 Q2355.4063,124.6875 2355.9688,124.9844 L2355.9688,127.7031 Q2355.3438,127.125 2354.75,126.8594 Q2354.1563,126.5781 2353.5313,126.5781 Q2352.1875,126.5781 2351.5,127.6563 Q2350.8125,128.7188 2350.8125,130.8125 Q2350.8125,132.9063 2351.5,133.9844 Q2352.1875,135.0469 2353.5313,135.0469 Q2354.1563,135.0469 2354.75,134.7813 Q2355.3438,134.5 2355.9688,133.9219 L2355.9688,136.6406 Z " fill="#000000"/><text fill="#000000" font-family="sans-serif" font-size="14" lengthAdjust="spacing" textLength="136.2813" x="2367" y="135.8467">ActuationCollection</text><line style="stroke:#181818;stroke-width:0.5;" x1="2339" x2="2505.2813" y1="147" y2="147"/><line style="stroke:#181818;stroke-width:0.5;" x1="2339" x2="2505.2813" y1="155" y2="155"/></g><!--class ObservationCollection--><g class="entity" data-qualified-name="ObservationCollection" data-source-line="18" id="ent0042"><rect fill="#F1F1F1" height="48" rx="2.5" ry="2.5" style="stroke:#181818;stroke-width:0.5;" width="186.499" x="2541" y="115"/><ellipse cx="2556" cy="131" fill="#ADD1B2" rx="11" ry="11" style="stroke:#181818;stroke-width:1;"/><path d="M2558.9688,136.6406 Q2558.3906,136.9375 2557.75,137.0781 Q2557.1094,137.2344 2556.4063,137.2344 Q2553.9063,137.2344 2552.5781,135.5938 Q2551.2656,133.9375 2551.2656,130.8125 Q2551.2656,127.6875 2552.5781,126.0313 Q2553.9063,124.375 2556.4063,124.375 Q2557.1094,124.375 2557.75,124.5313 Q2558.4063,124.6875 2558.9688,124.9844 L2558.9688,127.7031 Q2558.3438,127.125 2557.75,126.8594 Q2557.1563,126.5781 2556.5313,126.5781 Q2555.1875,126.5781 2554.5,127.6563 Q2553.8125,128.7188 2553.8125,130.8125 Q2553.8125,132.9063 2554.5,133.9844 Q2555.1875,135.0469 2556.5313,135.0469 Q2557.1563,135.0469 2557.75,134.7813 Q2558.3438,134.5 2558.9688,133.9219 L2558.9688,136.6406 Z " fill="#000000"/><text fill="#000000" font-family="sans-serif" font-size="14" lengthAdjust="spacing" textLength="154.499" x="2570" y="135.8467">ObservationCollection</text><line style="stroke:#181818;stroke-width:0.5;" x1="2542" x2="2726.499" y1="147" y2="147"/><line style="stroke:#181818;stroke-width:0.5;" x1="2542" x2="2726.499" y1="155" y2="155"/></g><!--class Observation--><g class="entity" data-qualified-name="Observation" data-source-line="19" id="ent0044"><rect fill="#F1F1F1" height="48" rx="2.5" ry="2.5" style="stroke:#181818;stroke-width:0.5;" width="117.251" x="3029.5" y="115"/><ellipse cx="3044.5" cy="131" fill="#ADD1B2" rx="11" ry="11" style="stroke:#181818;stroke-width:1;"/><path d="M3047.4688,136.6406 Q3046.8906,136.9375 3046.25,137.0781 Q3045.6094,137.2344 3044.9063,137.2344 Q3042.4063,137.2344 3041.0781,135.5938 Q3039.7656,133.9375 3039.7656,130.8125 Q3039.7656,127.6875 3041.0781,126.0313 Q3042.4063,124.375 3044.9063,124.375 Q3045.6094,124.375 3046.25,124.5313 Q3046.9063,124.6875 3047.4688,124.9844 L3047.4688,127.7031 Q3046.8438,127.125 3046.25,126.8594 Q3045.6563,126.5781 3045.0313,126.5781 Q3043.6875,126.5781 3043,127.6563 Q3042.3125,128.7188 3042.3125,130.8125 Q3042.3125,132.9063 3043,133.9844 Q3043.6875,135.0469 3045.0313,135.0469 Q3045.6563,135.0469 3046.25,134.7813 Q3046.8438,134.5 3047.4688,133.9219 L3047.4688,136.6406 Z " fill="#000000"/><text fill="#000000" font-family="sans-serif" font-size="14" lengthAdjust="spacing" textLength="85.251" x="3058.5" y="135.8467">Observation</text><line style="stroke:#181818;stroke-width:0.5;" x1="3030.5" x2="3145.751" y1="147" y2="147"/><line style="stroke:#181818;stroke-width:0.5;" x1="3030.5" x2="3145.751" y1="155" y2="155"/></g><!--class SampleCollection--><g class="entity" data-qualified-name="SampleCollection" data-source-line="20" id="ent0046"><rect fill="#F1F1F1" height="48" rx="2.5" ry="2.5" style="stroke:#181818;stroke-width:0.5;" width="153.7412" x="8" y="7"/><ellipse cx="23" cy="23" fill="#ADD1B2" rx="11" ry="11" style="stroke:#181818;stroke-width:1;"/><path d="M25.9688,28.6406 Q25.3906,28.9375 24.75,29.0781 Q24.1094,29.2344 23.4063,29.2344 Q20.9063,29.2344 19.5781,27.5938 Q18.2656,25.9375 18.2656,22.8125 Q18.2656,19.6875 19.5781,18.0313 Q20.9063,16.375 23.4063,16.375 Q24.1094,16.375 24.75,16.5313 Q25.4063,16.6875 25.9688,16.9844 L25.9688,19.7031 Q25.3438,19.125 24.75,18.8594 Q24.1563,18.5781 23.5313,18.5781 Q22.1875,18.5781 21.5,19.6563 Q20.8125,20.7188 20.8125,22.8125 Q20.8125,24.9063 21.5,25.9844 Q22.1875,27.0469 23.5313,27.0469 Q24.1563,27.0469 24.75,26.7813 Q25.3438,26.5 25.9688,25.9219 L25.9688,28.6406 Z " fill="#000000"/><text fill="#000000" font-family="sans-serif" font-size="14" lengthAdjust="spacing" textLength="121.7412" x="37" y="27.8467">SampleCollection</text><line style="stroke:#181818;stroke-width:0.5;" x1="9" x2="160.7412" y1="39" y2="39"/><line style="stroke:#181818;stroke-width:0.5;" x1="9" x2="160.7412" y1="47" y2="47"/></g><!--class Deployment--><g class="entity" data-qualified-name="Deployment" data-source-line="21" id="ent0047"><rect fill="#F1F1F1" height="48" rx="2.5" ry="2.5" style="stroke:#181818;stroke-width:0.5;" width="117.6338" x="197" y="7"/><ellipse cx="212" cy="23" fill="#ADD1B2" rx="11" ry="11" style="stroke:#181818;stroke-width:1;"/><path d="M214.9688,28.6406 Q214.3906,28.9375 213.75,29.0781 Q213.1094,29.2344 212.4063,29.2344 Q209.9063,29.2344 208.5781,27.5938 Q207.2656,25.9375 207.2656,22.8125 Q207.2656,19.6875 208.5781,18.0313 Q209.9063,16.375 212.4063,16.375 Q213.1094,16.375 213.75,16.5313 Q214.4063,16.6875 214.9688,16.9844 L214.9688,19.7031 Q214.3438,19.125 213.75,18.8594 Q213.1563,18.5781 212.5313,18.5781 Q211.1875,18.5781 210.5,19.6563 Q209.8125,20.7188 209.8125,22.8125 Q209.8125,24.9063 210.5,25.9844 Q211.1875,27.0469 212.5313,27.0469 Q213.1563,27.0469 213.75,26.7813 Q214.3438,26.5 214.9688,25.9219 L214.9688,28.6406 Z " fill="#000000"/><text fill="#000000" font-family="sans-serif" font-size="14" lengthAdjust="spacing" textLength="85.6338" x="226" y="27.8467">Deployment</text><line style="stroke:#181818;stroke-width:0.5;" x1="198" x2="313.6338" y1="39" y2="39"/><line style="stroke:#181818;stroke-width:0.5;" x1="198" x2="313.6338" y1="47" y2="47"/></g><!--class Result--><g class="entity" data-qualified-name="Result" data-source-line="22" id="ent0048"><rect fill="#F1F1F1" height="48" rx="2.5" ry="2.5" style="stroke:#181818;stroke-width:0.5;" width="75.8867" x="350" y="7"/><ellipse cx="365" cy="23" fill="#ADD1B2" rx="11" ry="11" style="stroke:#181818;stroke-width:1;"/><path d="M367.9688,28.6406 Q367.3906,28.9375 366.75,29.0781 Q366.1094,29.2344 365.4063,29.2344 Q362.9063,29.2344 361.5781,27.5938 Q360.2656,25.9375 360.2656,22.8125 Q360.2656,19.6875 361.5781,18.0313 Q362.9063,16.375 365.4063,16.375 Q366.1094,16.375 366.75,16.5313 Q367.4063,16.6875 367.9688,16.9844 L367.9688,19.7031 Q367.3438,19.125 366.75,18.8594 Q366.1563,18.5781 365.5313,18.5781 Q364.1875,18.5781 363.5,19.6563 Q362.8125,20.7188 362.8125,22.8125 Q362.8125,24.9063 363.5,25.9844 Q364.1875,27.0469 365.5313,27.0469 Q366.1563,27.0469 366.75,26.7813 Q367.3438,26.5 367.9688,25.9219 L367.9688,28.6406 Z " fill="#000000"/><text fill="#000000" font-family="sans-serif" font-size="14" lengthAdjust="spacing" textLength="43.8867" x="379" y="27.8467">Result</text><line style="stroke:#181818;stroke-width:0.5;" x1="351" x2="424.8867" y1="39" y2="39"/><line style="stroke:#181818;stroke-width:0.5;" x1="351" x2="424.8867" y1="47" y2="47"/></g><!--class FeatureOfInterest--><g class="entity" data-qualified-name="FeatureOfInterest" data-source-line="23" id="ent0049"><rect fill="#F1F1F1" height="48" rx="2.5" ry="2.5" style="stroke:#181818;stroke-width:0.5;" width="156.1816" x="7" y="115"/><ellipse cx="22" cy="131" fill="#ADD1B2" rx="11" ry="11" style="stroke:#181818;stroke-width:1;"/><path d="M24.9688,136.6406 Q24.3906,136.9375 23.75,137.0781 Q23.1094,137.2344 22.4063,137.2344 Q19.9063,137.2344 18.5781,135.5938 Q17.2656,133.9375 17.2656,130.8125 Q17.2656,127.6875 18.5781,126.0313 Q19.9063,124.375 22.4063,124.375 Q23.1094,124.375 23.75,124.5313 Q24.4063,124.6875 24.9688,124.9844 L24.9688,127.7031 Q24.3438,127.125 23.75,126.8594 Q23.1563,126.5781 22.5313,126.5781 Q21.1875,126.5781 20.5,127.6563 Q19.8125,128.7188 19.8125,130.8125 Q19.8125,132.9063 20.5,133.9844 Q21.1875,135.0469 22.5313,135.0469 Q23.1563,135.0469 23.75,134.7813 Q24.3438,134.5 24.9688,133.9219 L24.9688,136.6406 Z " fill="#000000"/><text fill="#000000" font-family="sans-serif" font-size="14" lengthAdjust="spacing" textLength="124.1816" x="36" y="135.8467">FeatureOfInterest</text><line style="stroke:#181818;stroke-width:0.5;" x1="8" x2="162.1816" y1="147" y2="147"/><line style="stroke:#181818;stroke-width:0.5;" x1="8" x2="162.1816" y1="155" y2="155"/></g><!--class Stimulus--><g class="entity" data-qualified-name="Stimulus" data-source-line="24" id="ent0050"><rect fill="#F1F1F1" height="48" rx="2.5" ry="2.5" style="stroke:#181818;stroke-width:0.5;" width="92.833" x="198.5" y="115"/><ellipse cx="213.5" cy="131" fill="#ADD1B2" rx="11" ry="11" style="stroke:#181818;stroke-width:1;"/><path d="M216.4688,136.6406 Q215.8906,136.9375 215.25,137.0781 Q214.6094,137.2344 213.9063,137.2344 Q211.4063,137.2344 210.0781,135.5938 Q208.7656,133.9375 208.7656,130.8125 Q208.7656,127.6875 210.0781,126.0313 Q211.4063,124.375 213.9063,124.375 Q214.6094,124.375 215.25,124.5313 Q215.9063,124.6875 216.4688,124.9844 L216.4688,127.7031 Q215.8438,127.125 215.25,126.8594 Q214.6563,126.5781 214.0313,126.5781 Q212.6875,126.5781 212,127.6563 Q211.3125,128.7188 211.3125,130.8125 Q211.3125,132.9063 212,133.9844 Q212.6875,135.0469 214.0313,135.0469 Q214.6563,135.0469 215.25,134.7813 Q215.8438,134.5 216.4688,133.9219 L216.4688,136.6406 Z " fill="#000000"/><text fill="#000000" font-family="sans-serif" font-size="14" lengthAdjust="spacing" textLength="60.833" x="227.5" y="135.8467">Stimulus</text><line style="stroke:#181818;stroke-width:0.5;" x1="199.5" x2="290.333" y1="147" y2="147"/><line style="stroke:#181818;stroke-width:0.5;" x1="199.5" x2="290.333" y1="155" y2="155"/></g><!--reverse link Property to ActuatableProperty--><g class="link" data-entity-1="ent0002" data-entity-2="ent0003" data-link-type="extension" data-source-line="1" id="lnk4"><path codeLine="1" d="M513.5062,65.3399 C488.2562,83.0599 468.25,97.11 442.96,114.86" fill="none" id="Property-backto-ActuatableProperty" style="stroke:#181818;stroke-width:1;"/><polygon fill="none" points="528.24,55,510.0595,60.4287,516.9528,70.2512,528.24,55" style="stroke:#181818;stroke-width:1;"/></g><!--reverse link Sample to MaterialSample--><g class="link" data-entity-1="ent0005" data-entity-2="ent0006" data-link-type="extension" data-source-line="2" id="lnk7"><path codeLine="2" d="M926.3567,64.4445 C897.6067,82.1645 873.35,97.11 844.55,114.86" fill="none" id="Sample-backto-MaterialSample" style="stroke:#181818;stroke-width:1;"/><polygon fill="none" points="941.68,55,923.2086,59.3367,929.5049,69.5522,941.68,55" style="stroke:#181818;stroke-width:1;"/></g><!--reverse link Property to ObservableProperty--><g class="link" data-entity-1="ent0002" data-entity-2="ent0008" data-link-type="extension" data-source-line="3" id="lnk9"><path codeLine="3" d="M580.8859,71.0411 C589.8759,88.7011 594.08,96.94 603.12,114.68" fill="none" id="Property-backto-ObservableProperty" style="stroke:#181818;stroke-width:1;"/><polygon fill="none" points="572.72,55,575.5389,73.7631,586.2329,68.3192,572.72,55" style="stroke:#181818;stroke-width:1;"/></g><!--reverse link Sample to SpatialSample--><g class="link" data-entity-1="ent0005" data-entity-2="ent0010" data-link-type="extension" data-source-line="4" id="lnk11"><path codeLine="4" d="M979,73 C979,90.66 979,96.94 979,114.68" fill="none" id="Sample-backto-SpatialSample" style="stroke:#181818;stroke-width:1;"/><polygon fill="none" points="979,55,973,73,985,73,979,55" style="stroke:#181818;stroke-width:1;"/></g><!--reverse link Sample to StatisticalSample--><g class="link" data-entity-1="ent0005" data-entity-2="ent0012" data-link-type="extension" data-source-line="5" id="lnk13"><path codeLine="5" d="M1033.3276,64.1725 C1063.2476,81.8925 1088.95,97.11 1118.93,114.86" fill="none" id="Sample-backto-StatisticalSample" style="stroke:#181818;stroke-width:1;"/><polygon fill="none" points="1017.84,55,1030.2701,69.335,1036.3851,59.0099,1017.84,55" style="stroke:#181818;stroke-width:1;"/></g><!--reverse link Procedure to ActuatingProcedure--><g class="link" data-entity-1="ent0014" data-entity-2="ent0015" data-link-type="extension" data-source-line="6" id="lnk16"><path codeLine="6" d="M1502.8326,63.1732 C1468.0626,80.8932 1436.24,97.11 1401.4,114.86" fill="none" id="Procedure-backto-ActuatingProcedure" style="stroke:#181818;stroke-width:1;"/><polygon fill="none" points="1518.87,55,1500.1082,57.8274,1505.557,68.519,1518.87,55" style="stroke:#181818;stroke-width:1;"/></g><!--reverse link Procedure to ObservingProcedure--><g class="link" data-entity-1="ent0014" data-entity-2="ent0017" data-link-type="extension" data-source-line="7" id="lnk18"><path codeLine="7" d="M1564,73 C1564,90.66 1564,96.94 1564,114.68" fill="none" id="Procedure-backto-ObservingProcedure" style="stroke:#181818;stroke-width:1;"/><polygon fill="none" points="1564,55,1558,73,1570,73,1564,55" style="stroke:#181818;stroke-width:1;"/></g><!--reverse link Procedure to SamplingProcedure--><g class="link" data-entity-1="ent0014" data-entity-2="ent0019" data-link-type="extension" data-source-line="8" id="lnk20"><path codeLine="8" d="M1624.9411,63.205 C1659.5411,80.925 1691.15,97.11 1725.81,114.86" fill="none" id="Procedure-backto-SamplingProcedure" style="stroke:#181818;stroke-width:1;"/><polygon fill="none" points="1608.92,55,1622.2061,68.5454,1627.6762,57.8647,1608.92,55" style="stroke:#181818;stroke-width:1;"/></g><!--reverse link Asset to Platform--><g class="link" data-entity-1="ent0021" data-entity-2="ent0022" data-link-type="extension" data-source-line="9" id="lnk23"><path codeLine="9" d="M1974.7839,70.6022 C1964.6239,88.2622 1959.63,96.94 1949.42,114.68" fill="none" id="Asset-backto-Platform" style="stroke:#181818;stroke-width:1;"/><polygon fill="none" points="1983.76,55,1969.5831,67.6102,1979.9846,73.5943,1983.76,55" style="stroke:#181818;stroke-width:1;"/></g><!--reverse link System to Sampler--><g class="link" data-entity-1="ent0024" data-entity-2="ent0025" data-link-type="extension" data-source-line="10" id="lnk26"><path codeLine="10" d="M2017.8865,174.5884 C1996.8965,192.2484 1981.81,204.94 1960.72,222.68" fill="none" id="System-backto-Sampler" style="stroke:#181818;stroke-width:1;"/><polygon fill="none" points="2031.66,163,2014.0237,169.9972,2021.7493,179.1795,2031.66,163" style="stroke:#181818;stroke-width:1;"/></g><!--reverse link System to Actuator--><g class="link" data-entity-1="ent0024" data-entity-2="ent0027" data-link-type="extension" data-source-line="11" id="lnk28"><path codeLine="11" d="M2059,181 C2059,198.66 2059,204.94 2059,222.68" fill="none" id="System-backto-Actuator" style="stroke:#181818;stroke-width:1;"/><polygon fill="none" points="2059,163,2053,181,2065,181,2059,163" style="stroke:#181818;stroke-width:1;"/></g><!--reverse link ExecutionCollection to SamplingCollection--><g class="link" data-entity-1="ent0029" data-entity-2="ent0030" data-link-type="extension" data-source-line="12" id="lnk31"><path codeLine="12" d="M2362.231,63.3636 C2328.461,81.0836 2297.93,97.11 2264.09,114.86" fill="none" id="ExecutionCollection-backto-SamplingCollection" style="stroke:#181818;stroke-width:1;"/><polygon fill="none" points="2378.17,55,2359.4432,58.0506,2365.0189,68.6766,2378.17,55" style="stroke:#181818;stroke-width:1;"/></g><!--reverse link Asset to System--><g class="link" data-entity-1="ent0021" data-entity-2="ent0024" data-link-type="extension" data-source-line="13" id="lnk32"><path codeLine="13" d="M2019.5383,70.5372 C2029.8683,88.1972 2034.98,96.94 2045.36,114.68" fill="none" id="Asset-backto-System" style="stroke:#181818;stroke-width:1;"/><polygon fill="none" points="2010.45,55,2014.3592,73.5666,2024.7173,67.5077,2010.45,55" style="stroke:#181818;stroke-width:1;"/></g><!--reverse link System to Sensor--><g class="link" data-entity-1="ent0024" data-entity-2="ent0033" data-link-type="extension" data-source-line="14" id="lnk34"><path codeLine="14" d="M2098.7968,174.864 C2118.9468,192.524 2133.13,204.94 2153.38,222.68" fill="none" id="System-backto-Sensor" style="stroke:#181818;stroke-width:1;"/><polygon fill="none" points="2085.26,163,2094.8421,179.3763,2102.7515,170.3518,2085.26,163" style="stroke:#181818;stroke-width:1;"/></g><!--reverse link Execution to Sampling--><g class="link" data-entity-1="ent0035" data-entity-2="ent0036" data-link-type="extension" data-source-line="15" id="lnk37"><path codeLine="15" d="M2901.8041,66.1688 C2879.4841,83.8288 2862.91,96.94 2840.48,114.68" fill="none" id="Execution-backto-Sampling" style="stroke:#181818;stroke-width:1;"/><polygon fill="none" points="2915.92,55,2898.0812,61.4635,2905.527,70.8741,2915.92,55" style="stroke:#181818;stroke-width:1;"/></g><!--reverse link Execution to Actuation--><g class="link" data-entity-1="ent0035" data-entity-2="ent0038" data-link-type="extension" data-source-line="16" id="lnk39"><path codeLine="16" d="M2945,73 C2945,90.66 2945,96.94 2945,114.68" fill="none" id="Execution-backto-Actuation" style="stroke:#181818;stroke-width:1;"/><polygon fill="none" points="2945,55,2939,73,2951,73,2945,55" style="stroke:#181818;stroke-width:1;"/></g><!--reverse link ExecutionCollection to ActuationCollection--><g class="link" data-entity-1="ent0029" data-entity-2="ent0040" data-link-type="extension" data-source-line="17" id="lnk41"><path codeLine="17" d="M2422,73 C2422,90.66 2422,96.94 2422,114.68" fill="none" id="ExecutionCollection-backto-ActuationCollection" style="stroke:#181818;stroke-width:1;"/><polygon fill="none" points="2422,55,2416,73,2428,73,2422,55" style="stroke:#181818;stroke-width:1;"/></g><!--reverse link ExecutionCollection to ObservationCollection--><g class="link" data-entity-1="ent0029" data-entity-2="ent0042" data-link-type="extension" data-source-line="18" id="lnk43"><path codeLine="18" d="M2484.0997,63.0498 C2519.5397,80.7698 2552.22,97.11 2587.72,114.86" fill="none" id="ExecutionCollection-backto-ObservationCollection" style="stroke:#181818;stroke-width:1;"/><polygon fill="none" points="2468,55,2481.4164,68.4164,2486.783,57.6833,2468,55" style="stroke:#181818;stroke-width:1;"/></g><!--reverse link Execution to Observation--><g class="link" data-entity-1="ent0035" data-entity-2="ent0044" data-link-type="extension" data-source-line="19" id="lnk45"><path codeLine="19" d="M2990.4895,65.7202 C3014.3095,83.3802 3032.61,96.94 3056.54,114.68" fill="none" id="Execution-backto-Observation" style="stroke:#181818;stroke-width:1;"/><polygon fill="none" points="2976.03,55,2986.9161,70.54,2994.0629,60.9004,2976.03,55" style="stroke:#181818;stroke-width:1;"/></g><?plantuml-src VP9DRWCX38Ntd28No0swYVeZTL5br3c1Gryg90CZRAgErCDdKaW2gQOx-FpUisKOKfoGTDuy_6otcvtLJ4e7nb2v6SbFZ59-8qLon8MPeVFk3uBqjUeT9zARjQleKX5rjWss-CW9xLGkV5xvlQBq_a_nczm9TYBGKXoOz1YJD-Ci2jyua3fM9ed9F7_3PdKnF4PcsFEfxtFZRQEIrRT1a3QmZxddTHLBwke4LqapmgguFjgQ_8_8M2QHkfl6KV0J9ewpHz0AtY6PBvSNa2wBtnzVm_AD81S-glEPivm0?></g></svg>