<svg xmlns="http://www.w3.org/2000/svg" xmlns:xlink="http://www.w3.org/1999/xlink" contentStyleType="text/css" data-diagram-type="CLASS" height="286px" preserveAspectRatio="none" style="width:3338px;height:286px;background:#FFFFFF;" version="1.1" viewBox="0 0 3338 286" width="3338px" zoomAndPan="magnify"><?plantuml 1.2026.3?><defs/><g><!--class Property--><g class="entity" data-qualified-name="Property" data-source-line="1" id="ent0002"><rect fill="#F1F1F1" height="48" rx="2.5" ry="2.5" style="stroke:#181818;stroke-width:0.5;" width="91.7939" x="643" y="7"/><ellipse cx="658" cy="23" fill="#ADD1B2" rx="11" ry="11" style="stroke:#181818;stroke-width:1;"/><path d="M660.9688,28.6406 Q660.3906,28.9375 659.75,29.0781 Q659.1094,29.2344 658.4063,29.2344 Q655.9063,29.2344 654.5781,27.5938 Q653.2656,25.9375 653.2656,22.8125 Q653.2656,19.6875 654.5781,18.0313 Q655.9063,16.375 658.4063,16.375 Q659.1094,16.375 659.75,16.5313 Q660.4063,16.6875 660.9688,16.9844 L660.9688,19.7031 Q660.3438,19.125 659.75,18.8594 Q659.1563,18.5781 658.5313,18.5781 Q657.1875,18.5781 656.5,19.6563 Q655.8125,20.7188 655.8125,22.8125 Q655.8125,24.9063 656.5,25.9844 Q657.1875,27.0469 658.5313,27.0469 Q659.1563,27.0469 659.75,26.7813 Q660.3438,26.5 660.9688,25.9219 L660.9688,28.6406 Z " fill="#000000"/><text fill="#000000" font-family="sans-serif" font-size="14" lengthAdjust="spacing" textLength="59.7939" x="672" y="27.8467">Property</text><line style="stroke:#181818;stroke-width:0.5;" x1="644" x2="733.7939" y1="39" y2="39"/><line style="stroke:#181818;stroke-width:0.5;" x1="644" x2="733.7939" y1="47" y2="47"/></g><!--class ActuatableProperty--><g class="entity" data-qualified-name="ActuatableProperty" data-source-line="1" id="ent0003"><rect fill="#F1F1F1" height="48" rx="2.5" ry="2.5" style="stroke:#181818;stroke-width:0.5;" width="167.4678" x="503.5" y="115"/><ellipse cx="518.5" cy="131" fill="#ADD1B2" rx="11" ry="11" style="stroke:#181818;stroke-width:1;"/><path d="M521.4688,136.6406 Q520.8906,136.9375 520.25,137.0781 Q519.6094,137.2344 518.9063,137.2344 Q516.4063,137.2344 515.0781,135.5938 Q513.7656,133.9375 513.7656,130.8125 Q513.7656,127.6875 515.0781,126.0313 Q516.4063,124.375 518.9063,124.375 Q519.6094,124.375 520.25,124.5313 Q520.9063,124.6875 521.4688,124.9844 L521.4688,127.7031 Q520.8438,127.125 520.25,126.8594 Q519.6563,126.5781 519.0313,126.5781 Q517.6875,126.5781 517,127.6563 Q516.3125,128.7188 516.3125,130.8125 Q516.3125,132.9063 517,133.9844 Q517.6875,135.0469 519.0313,135.0469 Q519.6563,135.0469 520.25,134.7813 Q520.8438,134.5 521.4688,133.9219 L521.4688,136.6406 Z " fill="#000000"/><text fill="#000000" font-family="sans-serif" font-size="14" lengthAdjust="spacing" textLength="135.4678" x="532.5" y="135.8467">ActuatableProperty</text><line style="stroke:#181818;stroke-width:0.5;" x1="504.5" x2="669.9678" y1="147" y2="147"/><line style="stroke:#181818;stroke-width:0.5;" x1="504.5" x2="669.9678" y1="155" y2="155"/></g><!--class ObservableProperty--><g class="entity" data-qualified-name="ObservableProperty" data-source-line="2" id="ent0005"><rect fill="#F1F1F1" height="48" rx="2.5" ry="2.5" style="stroke:#181818;stroke-width:0.5;" width="171.6172" x="706" y="115"/><ellipse cx="721" cy="131" fill="#ADD1B2" rx="11" ry="11" style="stroke:#181818;stroke-width:1;"/><path d="M723.9688,136.6406 Q723.3906,136.9375 722.75,137.0781 Q722.1094,137.2344 721.4063,137.2344 Q718.9063,137.2344 717.5781,135.5938 Q716.2656,133.9375 716.2656,130.8125 Q716.2656,127.6875 717.5781,126.0313 Q718.9063,124.375 721.4063,124.375 Q722.1094,124.375 722.75,124.5313 Q723.4063,124.6875 723.9688,124.9844 L723.9688,127.7031 Q723.3438,127.125 722.75,126.8594 Q722.1563,126.5781 721.5313,126.5781 Q720.1875,126.5781 719.5,127.6563 Q718.8125,128.7188 718.8125,130.8125 Q718.8125,132.9063 719.5,133.9844 Q720.1875,135.0469 721.5313,135.0469 Q722.1563,135.0469 722.75,134.7813 Q723.3438,134.5 723.9688,133.9219 L723.9688,136.6406 Z " fill="#000000"/><text fill="#000000" font-family="sans-serif" font-size="14" lengthAdjust="spacing" textLength="139.6172" x="735" y="135.8467">ObservableProperty</text><line style="stroke:#181818;stroke-width:0.5;" x1="707" x2="876.6172" y1="147" y2="147"/><line style="stroke:#181818;stroke-width:0.5;" x1="707" x2="876.6172" y1="155" y2="155"/></g><!--class Sample--><g class="entity" data-qualified-name="Sample" data-source-line="3" id="ent0007"><rect fill="#F1F1F1" height="48" rx="2.5" ry="2.5" style="stroke:#181818;stroke-width:0.5;" width="84.4932" x="1114" y="7"/><ellipse cx="1129" cy="23" fill="#ADD1B2" rx="11" ry="11" style="stroke:#181818;stroke-width:1;"/><path d="M1131.9688,28.6406 Q1131.3906,28.9375 1130.75,29.0781 Q1130.1094,29.2344 1129.4063,29.2344 Q1126.9063,29.2344 1125.5781,27.5938 Q1124.2656,25.9375 1124.2656,22.8125 Q1124.2656,19.6875 1125.5781,18.0313 Q1126.9063,16.375 1129.4063,16.375 Q1130.1094,16.375 1130.75,16.5313 Q1131.4063,16.6875 1131.9688,16.9844 L1131.9688,19.7031 Q1131.3438,19.125 1130.75,18.8594 Q1130.1563,18.5781 1129.5313,18.5781 Q1128.1875,18.5781 1127.5,19.6563 Q1126.8125,20.7188 1126.8125,22.8125 Q1126.8125,24.9063 1127.5,25.9844 Q1128.1875,27.0469 1129.5313,27.0469 Q1130.1563,27.0469 1130.75,26.7813 Q1131.3438,26.5 1131.9688,25.9219 L1131.9688,28.6406 Z " fill="#000000"/><text fill="#000000" font-family="sans-serif" font-size="14" lengthAdjust="spacing" textLength="52.4932" x="1143" y="27.8467">Sample</text><line style="stroke:#181818;stroke-width:0.5;" x1="1115" x2="1197.4932" y1="39" y2="39"/><line style="stroke:#181818;stroke-width:0.5;" x1="1115" x2="1197.4932" y1="47" y2="47"/></g><!--class MaterialSample--><g class="entity" data-qualified-name="MaterialSample" data-source-line="3" id="ent0008"><rect fill="#F1F1F1" height="48" rx="2.5" ry="2.5" style="stroke:#181818;stroke-width:0.5;" width="141.3682" x="913.5" y="115"/><ellipse cx="928.5" cy="131" fill="#ADD1B2" rx="11" ry="11" style="stroke:#181818;stroke-width:1;"/><path d="M931.4688,136.6406 Q930.8906,136.9375 930.25,137.0781 Q929.6094,137.2344 928.9063,137.2344 Q926.4063,137.2344 925.0781,135.5938 Q923.7656,133.9375 923.7656,130.8125 Q923.7656,127.6875 925.0781,126.0313 Q926.4063,124.375 928.9063,124.375 Q929.6094,124.375 930.25,124.5313 Q930.9063,124.6875 931.4688,124.9844 L931.4688,127.7031 Q930.8438,127.125 930.25,126.8594 Q929.6563,126.5781 929.0313,126.5781 Q927.6875,126.5781 927,127.6563 Q926.3125,128.7188 926.3125,130.8125 Q926.3125,132.9063 927,133.9844 Q927.6875,135.0469 929.0313,135.0469 Q929.6563,135.0469 930.25,134.7813 Q930.8438,134.5 931.4688,133.9219 L931.4688,136.6406 Z " fill="#000000"/><text fill="#000000" font-family="sans-serif" font-size="14" lengthAdjust="spacing" textLength="109.3682" x="942.5" y="135.8467">MaterialSample</text><line style="stroke:#181818;stroke-width:0.5;" x1="914.5" x2="1053.8682" y1="147" y2="147"/><line style="stroke:#181818;stroke-width:0.5;" x1="914.5" x2="1053.8682" y1="155" y2="155"/></g><!--class SpatialSample--><g class="entity" data-qualified-name="SpatialSample" data-source-line="4" id="ent0010"><rect fill="#F1F1F1" height="48" rx="2.5" ry="2.5" style="stroke:#181818;stroke-width:0.5;" width="132.6934" x="1089.5" y="115"/><ellipse cx="1104.5" cy="131" fill="#ADD1B2" rx="11" ry="11" style="stroke:#181818;stroke-width:1;"/><path d="M1107.4688,136.6406 Q1106.8906,136.9375 1106.25,137.0781 Q1105.6094,137.2344 1104.9063,137.2344 Q1102.4063,137.2344 1101.0781,135.5938 Q1099.7656,133.9375 1099.7656,130.8125 Q1099.7656,127.6875 1101.0781,126.0313 Q1102.4063,124.375 1104.9063,124.375 Q1105.6094,124.375 1106.25,124.5313 Q1106.9063,124.6875 1107.4688,124.9844 L1107.4688,127.7031 Q1106.8438,127.125 1106.25,126.8594 Q1105.6563,126.5781 1105.0313,126.5781 Q1103.6875,126.5781 1103,127.6563 Q1102.3125,128.7188 1102.3125,130.8125 Q1102.3125,132.9063 1103,133.9844 Q1103.6875,135.0469 1105.0313,135.0469 Q1105.6563,135.0469 1106.25,134.7813 Q1106.8438,134.5 1107.4688,133.9219 L1107.4688,136.6406 Z " fill="#000000"/><text fill="#000000" font-family="sans-serif" font-size="14" lengthAdjust="spacing" textLength="100.6934" x="1118.5" y="135.8467">SpatialSample</text><line style="stroke:#181818;stroke-width:0.5;" x1="1090.5" x2="1221.1934" y1="147" y2="147"/><line style="stroke:#181818;stroke-width:0.5;" x1="1090.5" x2="1221.1934" y1="155" y2="155"/></g><!--class StatisticalSample--><g class="entity" data-qualified-name="StatisticalSample" data-source-line="5" id="ent0012"><rect fill="#F1F1F1" height="48" rx="2.5" ry="2.5" style="stroke:#181818;stroke-width:0.5;" width="153.666" x="1258" y="115"/><ellipse cx="1273" cy="131" fill="#ADD1B2" rx="11" ry="11" style="stroke:#181818;stroke-width:1;"/><path d="M1275.9688,136.6406 Q1275.3906,136.9375 1274.75,137.0781 Q1274.1094,137.2344 1273.4063,137.2344 Q1270.9063,137.2344 1269.5781,135.5938 Q1268.2656,133.9375 1268.2656,130.8125 Q1268.2656,127.6875 1269.5781,126.0313 Q1270.9063,124.375 1273.4063,124.375 Q1274.1094,124.375 1274.75,124.5313 Q1275.4063,124.6875 1275.9688,124.9844 L1275.9688,127.7031 Q1275.3438,127.125 1274.75,126.8594 Q1274.1563,126.5781 1273.5313,126.5781 Q1272.1875,126.5781 1271.5,127.6563 Q1270.8125,128.7188 1270.8125,130.8125 Q1270.8125,132.9063 1271.5,133.9844 Q1272.1875,135.0469 1273.5313,135.0469 Q1274.1563,135.0469 1274.75,134.7813 Q1275.3438,134.5 1275.9688,133.9219 L1275.9688,136.6406 Z " fill="#000000"/><text fill="#000000" font-family="sans-serif" font-size="14" lengthAdjust="spacing" textLength="121.666" x="1287" y="135.8467">StatisticalSample</text><line style="stroke:#181818;stroke-width:0.5;" x1="1259" x2="1410.666" y1="147" y2="147"/><line style="stroke:#181818;stroke-width:0.5;" x1="1259" x2="1410.666" y1="155" y2="155"/></g><!--class Procedure--><g class="entity" data-qualified-name="Procedure" data-source-line="6" id="ent0014"><rect fill="#F1F1F1" height="48" rx="2.5" ry="2.5" style="stroke:#181818;stroke-width:0.5;" width="103.2031" x="1689.5" y="7"/><ellipse cx="1704.5" cy="23" fill="#ADD1B2" rx="11" ry="11" style="stroke:#181818;stroke-width:1;"/><path d="M1707.4688,28.6406 Q1706.8906,28.9375 1706.25,29.0781 Q1705.6094,29.2344 1704.9063,29.2344 Q1702.4063,29.2344 1701.0781,27.5938 Q1699.7656,25.9375 1699.7656,22.8125 Q1699.7656,19.6875 1701.0781,18.0313 Q1702.4063,16.375 1704.9063,16.375 Q1705.6094,16.375 1706.25,16.5313 Q1706.9063,16.6875 1707.4688,16.9844 L1707.4688,19.7031 Q1706.8438,19.125 1706.25,18.8594 Q1705.6563,18.5781 1705.0313,18.5781 Q1703.6875,18.5781 1703,19.6563 Q1702.3125,20.7188 1702.3125,22.8125 Q1702.3125,24.9063 1703,25.9844 Q1703.6875,27.0469 1705.0313,27.0469 Q1705.6563,27.0469 1706.25,26.7813 Q1706.8438,26.5 1707.4688,25.9219 L1707.4688,28.6406 Z " fill="#000000"/><text fill="#000000" font-family="sans-serif" font-size="14" lengthAdjust="spacing" textLength="71.2031" x="1718.5" y="27.8467">Procedure</text><line style="stroke:#181818;stroke-width:0.5;" x1="1690.5" x2="1791.7031" y1="39" y2="39"/><line style="stroke:#181818;stroke-width:0.5;" x1="1690.5" x2="1791.7031" y1="47" y2="47"/></g><!--class ActuatingProcedure--><g class="entity" data-qualified-name="ActuatingProcedure" data-source-line="6" id="ent0015"><rect fill="#F1F1F1" height="48" rx="2.5" ry="2.5" style="stroke:#181818;stroke-width:0.5;" width="170.5576" x="1447.5" y="115"/><ellipse cx="1462.5" cy="131" fill="#ADD1B2" rx="11" ry="11" style="stroke:#181818;stroke-width:1;"/><path d="M1465.4688,136.6406 Q1464.8906,136.9375 1464.25,137.0781 Q1463.6094,137.2344 1462.9063,137.2344 Q1460.4063,137.2344 1459.0781,135.5938 Q1457.7656,133.9375 1457.7656,130.8125 Q1457.7656,127.6875 1459.0781,126.0313 Q1460.4063,124.375 1462.9063,124.375 Q1463.6094,124.375 1464.25,124.5313 Q1464.9063,124.6875 1465.4688,124.9844 L1465.4688,127.7031 Q1464.8438,127.125 1464.25,126.8594 Q1463.6563,126.5781 1463.0313,126.5781 Q1461.6875,126.5781 1461,127.6563 Q1460.3125,128.7188 1460.3125,130.8125 Q1460.3125,132.9063 1461,133.9844 Q1461.6875,135.0469 1463.0313,135.0469 Q1463.6563,135.0469 1464.25,134.7813 Q1464.8438,134.5 1465.4688,133.9219 L1465.4688,136.6406 Z " fill="#000000"/><text fill="#000000" font-family="sans-serif" font-size="14" lengthAdjust="spacing" textLength="138.5576" x="1476.5" y="135.8467">ActuatingProcedure</text><line style="stroke:#181818;stroke-width:0.5;" x1="1448.5" x2="1617.0576" y1="147" y2="147"/><line style="stroke:#181818;stroke-width:0.5;" x1="1448.5" x2="1617.0576" y1="155" y2="155"/></g><!--class ObservingProcedure--><g class="entity" data-qualified-name="ObservingProcedure" data-source-line="7" id="ent0017"><rect fill="#F1F1F1" height="48" rx="2.5" ry="2.5" style="stroke:#181818;stroke-width:0.5;" width="174.707" x="1653.5" y="115"/><ellipse cx="1668.5" cy="131" fill="#ADD1B2" rx="11" ry="11" style="stroke:#181818;stroke-width:1;"/><path d="M1671.4688,136.6406 Q1670.8906,136.9375 1670.25,137.0781 Q1669.6094,137.2344 1668.9063,137.2344 Q1666.4063,137.2344 1665.0781,135.5938 Q1663.7656,133.9375 1663.7656,130.8125 Q1663.7656,127.6875 1665.0781,126.0313 Q1666.4063,124.375 1668.9063,124.375 Q1669.6094,124.375 1670.25,124.5313 Q1670.9063,124.6875 1671.4688,124.9844 L1671.4688,127.7031 Q1670.8438,127.125 1670.25,126.8594 Q1669.6563,126.5781 1669.0313,126.5781 Q1667.6875,126.5781 1667,127.6563 Q1666.3125,128.7188 1666.3125,130.8125 Q1666.3125,132.9063 1667,133.9844 Q1667.6875,135.0469 1669.0313,135.0469 Q1669.6563,135.0469 1670.25,134.7813 Q1670.8438,134.5 1671.4688,133.9219 L1671.4688,136.6406 Z " fill="#000000"/><text fill="#000000" font-family="sans-serif" font-size="14" lengthAdjust="spacing" textLength="142.707" x="1682.5" y="135.8467">ObservingProcedure</text><line style="stroke:#181818;stroke-width:0.5;" x1="1654.5" x2="1827.207" y1="147" y2="147"/><line style="stroke:#181818;stroke-width:0.5;" x1="1654.5" x2="1827.207" y1="155" y2="155"/></g><!--class SamplingProcedure--><g class="entity" data-qualified-name="SamplingProcedure" data-source-line="8" id="ent0019"><rect fill="#F1F1F1" height="48" rx="2.5" ry="2.5" style="stroke:#181818;stroke-width:0.5;" width="168.7324" x="1863.5" y="115"/><ellipse cx="1878.5" cy="131" fill="#ADD1B2" rx="11" ry="11" style="stroke:#181818;stroke-width:1;"/><path d="M1881.4688,136.6406 Q1880.8906,136.9375 1880.25,137.0781 Q1879.6094,137.2344 1878.9063,137.2344 Q1876.4063,137.2344 1875.0781,135.5938 Q1873.7656,133.9375 1873.7656,130.8125 Q1873.7656,127.6875 1875.0781,126.0313 Q1876.4063,124.375 1878.9063,124.375 Q1879.6094,124.375 1880.25,124.5313 Q1880.9063,124.6875 1881.4688,124.9844 L1881.4688,127.7031 Q1880.8438,127.125 1880.25,126.8594 Q1879.6563,126.5781 1879.0313,126.5781 Q1877.6875,126.5781 1877,127.6563 Q1876.3125,128.7188 1876.3125,130.8125 Q1876.3125,132.9063 1877,133.9844 Q1877.6875,135.0469 1879.0313,135.0469 Q1879.6563,135.0469 1880.25,134.7813 Q1880.8438,134.5 1881.4688,133.9219 L1881.4688,136.6406 Z " fill="#000000"/><text fill="#000000" font-family="sans-serif" font-size="14" lengthAdjust="spacing" textLength="136.7324" x="1892.5" y="135.8467">SamplingProcedure</text><line style="stroke:#181818;stroke-width:0.5;" x1="1864.5" x2="2031.2324" y1="147" y2="147"/><line style="stroke:#181818;stroke-width:0.5;" x1="1864.5" x2="2031.2324" y1="155" y2="155"/></g><!--class Asset--><g class="entity" data-qualified-name="Asset" data-source-line="9" id="ent0021"><rect fill="#F1F1F1" height="48" rx="2.5" ry="2.5" style="stroke:#181818;stroke-width:0.5;" width="70.2676" x="2139" y="7"/><ellipse cx="2154" cy="23" fill="#ADD1B2" rx="11" ry="11" style="stroke:#181818;stroke-width:1;"/><path d="M2156.9688,28.6406 Q2156.3906,28.9375 2155.75,29.0781 Q2155.1094,29.2344 2154.4063,29.2344 Q2151.9063,29.2344 2150.5781,27.5938 Q2149.2656,25.9375 2149.2656,22.8125 Q2149.2656,19.6875 2150.5781,18.0313 Q2151.9063,16.375 2154.4063,16.375 Q2155.1094,16.375 2155.75,16.5313 Q2156.4063,16.6875 2156.9688,16.9844 L2156.9688,19.7031 Q2156.3438,19.125 2155.75,18.8594 Q2155.1563,18.5781 2154.5313,18.5781 Q2153.1875,18.5781 2152.5,19.6563 Q2151.8125,20.7188 2151.8125,22.8125 Q2151.8125,24.9063 2152.5,25.9844 Q2153.1875,27.0469 2154.5313,27.0469 Q2155.1563,27.0469 2155.75,26.7813 Q2156.3438,26.5 2156.9688,25.9219 L2156.9688,28.6406 Z " fill="#000000"/><text fill="#000000" font-family="sans-serif" font-size="14" lengthAdjust="spacing" textLength="38.2676" x="2168" y="27.8467">Asset</text><line style="stroke:#181818;stroke-width:0.5;" x1="2140" x2="2208.2676" y1="39" y2="39"/><line style="stroke:#181818;stroke-width:0.5;" x1="2140" x2="2208.2676" y1="47" y2="47"/></g><!--class Platform--><g class="entity" data-qualified-name="Platform" data-source-line="9" id="ent0022"><rect fill="#F1F1F1" height="48" rx="2.5" ry="2.5" style="stroke:#181818;stroke-width:0.5;" width="91.2881" x="2067.5" y="115"/><ellipse cx="2082.5" cy="131" fill="#ADD1B2" rx="11" ry="11" style="stroke:#181818;stroke-width:1;"/><path d="M2085.4688,136.6406 Q2084.8906,136.9375 2084.25,137.0781 Q2083.6094,137.2344 2082.9063,137.2344 Q2080.4063,137.2344 2079.0781,135.5938 Q2077.7656,133.9375 2077.7656,130.8125 Q2077.7656,127.6875 2079.0781,126.0313 Q2080.4063,124.375 2082.9063,124.375 Q2083.6094,124.375 2084.25,124.5313 Q2084.9063,124.6875 2085.4688,124.9844 L2085.4688,127.7031 Q2084.8438,127.125 2084.25,126.8594 Q2083.6563,126.5781 2083.0313,126.5781 Q2081.6875,126.5781 2081,127.6563 Q2080.3125,128.7188 2080.3125,130.8125 Q2080.3125,132.9063 2081,133.9844 Q2081.6875,135.0469 2083.0313,135.0469 Q2083.6563,135.0469 2084.25,134.7813 Q2084.8438,134.5 2085.4688,133.9219 L2085.4688,136.6406 Z " fill="#000000"/><text fill="#000000" font-family="sans-serif" font-size="14" lengthAdjust="spacing" textLength="59.2881" x="2096.5" y="135.8467">Platform</text><line style="stroke:#181818;stroke-width:0.5;" x1="2068.5" x2="2157.7881" y1="147" y2="147"/><line style="stroke:#181818;stroke-width:0.5;" x1="2068.5" x2="2157.7881" y1="155" y2="155"/></g><!--class System--><g class="entity" data-qualified-name="System" data-source-line="10" id="ent0024"><rect fill="#F1F1F1" height="48" rx="2.5" ry="2.5" style="stroke:#181818;stroke-width:0.5;" width="84.2061" x="2194" y="115"/><ellipse cx="2209" cy="131" fill="#ADD1B2" rx="11" ry="11" style="stroke:#181818;stroke-width:1;"/><path d="M2211.9688,136.6406 Q2211.3906,136.9375 2210.75,137.0781 Q2210.1094,137.2344 2209.4063,137.2344 Q2206.9063,137.2344 2205.5781,135.5938 Q2204.2656,133.9375 2204.2656,130.8125 Q2204.2656,127.6875 2205.5781,126.0313 Q2206.9063,124.375 2209.4063,124.375 Q2210.1094,124.375 2210.75,124.5313 Q2211.4063,124.6875 2211.9688,124.9844 L2211.9688,127.7031 Q2211.3438,127.125 2210.75,126.8594 Q2210.1563,126.5781 2209.5313,126.5781 Q2208.1875,126.5781 2207.5,127.6563 Q2206.8125,128.7188 2206.8125,130.8125 Q2206.8125,132.9063 2207.5,133.9844 Q2208.1875,135.0469 2209.5313,135.0469 Q2210.1563,135.0469 2210.75,134.7813 Q2211.3438,134.5 2211.9688,133.9219 L2211.9688,136.6406 Z " fill="#000000"/><text fill="#000000" font-family="sans-serif" font-size="14" lengthAdjust="spacing" textLength="52.2061" x="2223" y="135.8467">System</text><line style="stroke:#181818;stroke-width:0.5;" x1="2195" x2="2277.2061" y1="147" y2="147"/><line style="stroke:#181818;stroke-width:0.5;" x1="2195" x2="2277.2061" y1="155" y2="155"/></g><!--class Sampler--><g class="entity" data-qualified-name="Sampler" data-source-line="11" id="ent0026"><rect fill="#F1F1F1" height="48" rx="2.5" ry="2.5" style="stroke:#181818;stroke-width:0.5;" width="90.249" x="2065" y="223"/><ellipse cx="2080" cy="239" fill="#ADD1B2" rx="11" ry="11" style="stroke:#181818;stroke-width:1;"/><path d="M2082.9688,244.6406 Q2082.3906,244.9375 2081.75,245.0781 Q2081.1094,245.2344 2080.4063,245.2344 Q2077.9063,245.2344 2076.5781,243.5938 Q2075.2656,241.9375 2075.2656,238.8125 Q2075.2656,235.6875 2076.5781,234.0313 Q2077.9063,232.375 2080.4063,232.375 Q2081.1094,232.375 2081.75,232.5313 Q2082.4063,232.6875 2082.9688,232.9844 L2082.9688,235.7031 Q2082.3438,235.125 2081.75,234.8594 Q2081.1563,234.5781 2080.5313,234.5781 Q2079.1875,234.5781 2078.5,235.6563 Q2077.8125,236.7188 2077.8125,238.8125 Q2077.8125,240.9063 2078.5,241.9844 Q2079.1875,243.0469 2080.5313,243.0469 Q2081.1563,243.0469 2081.75,242.7813 Q2082.3438,242.5 2082.9688,241.9219 L2082.9688,244.6406 Z " fill="#000000"/><text fill="#000000" font-family="sans-serif" font-size="14" lengthAdjust="spacing" textLength="58.249" x="2094" y="243.8467">Sampler</text><line style="stroke:#181818;stroke-width:0.5;" x1="2066" x2="2154.249" y1="255" y2="255"/><line style="stroke:#181818;stroke-width:0.5;" x1="2066" x2="2154.249" y1="263" y2="263"/></g><!--class Actuator--><g class="entity" data-qualified-name="Actuator" data-source-line="12" id="ent0028"><rect fill="#F1F1F1" height="48" rx="2.5" ry="2.5" style="stroke:#181818;stroke-width:0.5;" width="92.0264" x="2190" y="223"/><ellipse cx="2205" cy="239" fill="#ADD1B2" rx="11" ry="11" style="stroke:#181818;stroke-width:1;"/><path d="M2207.9688,244.6406 Q2207.3906,244.9375 2206.75,245.0781 Q2206.1094,245.2344 2205.4063,245.2344 Q2202.9063,245.2344 2201.5781,243.5938 Q2200.2656,241.9375 2200.2656,238.8125 Q2200.2656,235.6875 2201.5781,234.0313 Q2202.9063,232.375 2205.4063,232.375 Q2206.1094,232.375 2206.75,232.5313 Q2207.4063,232.6875 2207.9688,232.9844 L2207.9688,235.7031 Q2207.3438,235.125 2206.75,234.8594 Q2206.1563,234.5781 2205.5313,234.5781 Q2204.1875,234.5781 2203.5,235.6563 Q2202.8125,236.7188 2202.8125,238.8125 Q2202.8125,240.9063 2203.5,241.9844 Q2204.1875,243.0469 2205.5313,243.0469 Q2206.1563,243.0469 2206.75,242.7813 Q2207.3438,242.5 2207.9688,241.9219 L2207.9688,244.6406 Z " fill="#000000"/><text fill="#000000" font-family="sans-serif" font-size="14" lengthAdjust="spacing" textLength="60.0264" x="2219" y="243.8467">Actuator</text><line style="stroke:#181818;stroke-width:0.5;" x1="2191" x2="2281.0264" y1="255" y2="255"/><line style="stroke:#181818;stroke-width:0.5;" x1="2191" x2="2281.0264" y1="263" y2="263"/></g><!--class Sensor--><g class="entity" data-qualified-name="Sensor" data-source-line="13" id="ent0030"><rect fill="#F1F1F1" height="48" rx="2.5" ry="2.5" style="stroke:#181818;stroke-width:0.5;" width="79.9883" x="2317" y="223"/><ellipse cx="2332" cy="239" fill="#ADD1B2" rx="11" ry="11" style="stroke:#181818;stroke-width:1;"/><path d="M2334.9688,244.6406 Q2334.3906,244.9375 2333.75,245.0781 Q2333.1094,245.2344 2332.4063,245.2344 Q2329.9063,245.2344 2328.5781,243.5938 Q2327.2656,241.9375 2327.2656,238.8125 Q2327.2656,235.6875 2328.5781,234.0313 Q2329.9063,232.375 2332.4063,232.375 Q2333.1094,232.375 2333.75,232.5313 Q2334.4063,232.6875 2334.9688,232.9844 L2334.9688,235.7031 Q2334.3438,235.125 2333.75,234.8594 Q2333.1563,234.5781 2332.5313,234.5781 Q2331.1875,234.5781 2330.5,235.6563 Q2329.8125,236.7188 2329.8125,238.8125 Q2329.8125,240.9063 2330.5,241.9844 Q2331.1875,243.0469 2332.5313,243.0469 Q2333.1563,243.0469 2333.75,242.7813 Q2334.3438,242.5 2334.9688,241.9219 L2334.9688,244.6406 Z " fill="#000000"/><text fill="#000000" font-family="sans-serif" font-size="14" lengthAdjust="spacing" textLength="47.9883" x="2346" y="243.8467">Sensor</text><line style="stroke:#181818;stroke-width:0.5;" x1="2318" x2="2395.9883" y1="255" y2="255"/><line style="stroke:#181818;stroke-width:0.5;" x1="2318" x2="2395.9883" y1="263" y2="263"/></g><!--class Execution--><g class="entity" data-qualified-name="Execution" data-source-line="14" id="ent0032"><rect fill="#F1F1F1" height="48" rx="2.5" ry="2.5" style="stroke:#181818;stroke-width:0.5;" width="101.1318" x="2445.5" y="7"/><ellipse cx="2460.5" cy="23" fill="#ADD1B2" rx="11" ry="11" style="stroke:#181818;stroke-width:1;"/><path d="M2463.4688,28.6406 Q2462.8906,28.9375 2462.25,29.0781 Q2461.6094,29.2344 2460.9063,29.2344 Q2458.4063,29.2344 2457.0781,27.5938 Q2455.7656,25.9375 2455.7656,22.8125 Q2455.7656,19.6875 2457.0781,18.0313 Q2458.4063,16.375 2460.9063,16.375 Q2461.6094,16.375 2462.25,16.5313 Q2462.9063,16.6875 2463.4688,16.9844 L2463.4688,19.7031 Q2462.8438,19.125 2462.25,18.8594 Q2461.6563,18.5781 2461.0313,18.5781 Q2459.6875,18.5781 2459,19.6563 Q2458.3125,20.7188 2458.3125,22.8125 Q2458.3125,24.9063 2459,25.9844 Q2459.6875,27.0469 2461.0313,27.0469 Q2461.6563,27.0469 2462.25,26.7813 Q2462.8438,26.5 2463.4688,25.9219 L2463.4688,28.6406 Z " fill="#000000"/><text fill="#000000" font-family="sans-serif" font-size="14" lengthAdjust="spacing" textLength="69.1318" x="2474.5" y="27.8467">Execution</text><line style="stroke:#181818;stroke-width:0.5;" x1="2446.5" x2="2545.6318" y1="39" y2="39"/><line style="stroke:#181818;stroke-width:0.5;" x1="2446.5" x2="2545.6318" y1="47" y2="47"/></g><!--class Sampling--><g class="entity" data-qualified-name="Sampling" data-source-line="14" id="ent0033"><rect fill="#F1F1F1" height="48" rx="2.5" ry="2.5" style="stroke:#181818;stroke-width:0.5;" width="97.5293" x="2313" y="115"/><ellipse cx="2328" cy="131" fill="#ADD1B2" rx="11" ry="11" style="stroke:#181818;stroke-width:1;"/><path d="M2330.9688,136.6406 Q2330.3906,136.9375 2329.75,137.0781 Q2329.1094,137.2344 2328.4063,137.2344 Q2325.9063,137.2344 2324.5781,135.5938 Q2323.2656,133.9375 2323.2656,130.8125 Q2323.2656,127.6875 2324.5781,126.0313 Q2325.9063,124.375 2328.4063,124.375 Q2329.1094,124.375 2329.75,124.5313 Q2330.4063,124.6875 2330.9688,124.9844 L2330.9688,127.7031 Q2330.3438,127.125 2329.75,126.8594 Q2329.1563,126.5781 2328.5313,126.5781 Q2327.1875,126.5781 2326.5,127.6563 Q2325.8125,128.7188 2325.8125,130.8125 Q2325.8125,132.9063 2326.5,133.9844 Q2327.1875,135.0469 2328.5313,135.0469 Q2329.1563,135.0469 2329.75,134.7813 Q2330.3438,134.5 2330.9688,133.9219 L2330.9688,136.6406 Z " fill="#000000"/><text fill="#000000" font-family="sans-serif" font-size="14" lengthAdjust="spacing" textLength="65.5293" x="2342" y="135.8467">Sampling</text><line style="stroke:#181818;stroke-width:0.5;" x1="2314" x2="2409.5293" y1="147" y2="147"/><line style="stroke:#181818;stroke-width:0.5;" x1="2314" x2="2409.5293" y1="155" y2="155"/></g><!--class Actuation--><g class="entity" data-qualified-name="Actuation" data-source-line="15" id="ent0035"><rect fill="#F1F1F1" height="48" rx="2.5" ry="2.5" style="stroke:#181818;stroke-width:0.5;" width="99.0332" x="2446.5" y="115"/><ellipse cx="2461.5" cy="131" fill="#ADD1B2" rx="11" ry="11" style="stroke:#181818;stroke-width:1;"/><path d="M2464.4688,136.6406 Q2463.8906,136.9375 2463.25,137.0781 Q2462.6094,137.2344 2461.9063,137.2344 Q2459.4063,137.2344 2458.0781,135.5938 Q2456.7656,133.9375 2456.7656,130.8125 Q2456.7656,127.6875 2458.0781,126.0313 Q2459.4063,124.375 2461.9063,124.375 Q2462.6094,124.375 2463.25,124.5313 Q2463.9063,124.6875 2464.4688,124.9844 L2464.4688,127.7031 Q2463.8438,127.125 2463.25,126.8594 Q2462.6563,126.5781 2462.0313,126.5781 Q2460.6875,126.5781 2460,127.6563 Q2459.3125,128.7188 2459.3125,130.8125 Q2459.3125,132.9063 2460,133.9844 Q2460.6875,135.0469 2462.0313,135.0469 Q2462.6563,135.0469 2463.25,134.7813 Q2463.8438,134.5 2464.4688,133.9219 L2464.4688,136.6406 Z " fill="#000000"/><text fill="#000000" font-family="sans-serif" font-size="14" lengthAdjust="spacing" textLength="67.0332" x="2475.5" y="135.8467">Actuation</text><line style="stroke:#181818;stroke-width:0.5;" x1="2447.5" x2="2544.5332" y1="147" y2="147"/><line style="stroke:#181818;stroke-width:0.5;" x1="2447.5" x2="2544.5332" y1="155" y2="155"/></g><!--class Observation--><g class="entity" data-qualified-name="Observation" data-source-line="16" id="ent0037"><rect fill="#F1F1F1" height="48" rx="2.5" ry="2.5" style="stroke:#181818;stroke-width:0.5;" width="117.251" x="2580.5" y="115"/><ellipse cx="2595.5" cy="131" fill="#ADD1B2" rx="11" ry="11" style="stroke:#181818;stroke-width:1;"/><path d="M2598.4688,136.6406 Q2597.8906,136.9375 2597.25,137.0781 Q2596.6094,137.2344 2595.9063,137.2344 Q2593.4063,137.2344 2592.0781,135.5938 Q2590.7656,133.9375 2590.7656,130.8125 Q2590.7656,127.6875 2592.0781,126.0313 Q2593.4063,124.375 2595.9063,124.375 Q2596.6094,124.375 2597.25,124.5313 Q2597.9063,124.6875 2598.4688,124.9844 L2598.4688,127.7031 Q2597.8438,127.125 2597.25,126.8594 Q2596.6563,126.5781 2596.0313,126.5781 Q2594.6875,126.5781 2594,127.6563 Q2593.3125,128.7188 2593.3125,130.8125 Q2593.3125,132.9063 2594,133.9844 Q2594.6875,135.0469 2596.0313,135.0469 Q2596.6563,135.0469 2597.25,134.7813 Q2597.8438,134.5 2598.4688,133.9219 L2598.4688,136.6406 Z " fill="#000000"/><text fill="#000000" font-family="sans-serif" font-size="14" lengthAdjust="spacing" textLength="85.251" x="2609.5" y="135.8467">Observation</text><line style="stroke:#181818;stroke-width:0.5;" x1="2581.5" x2="2696.751" y1="147" y2="147"/><line style="stroke:#181818;stroke-width:0.5;" x1="2581.5" x2="2696.751" y1="155" y2="155"/></g><!--class ExecutionCollection--><g class="entity" data-qualified-name="ExecutionCollection" data-source-line="17" id="ent0039"><rect fill="#F1F1F1" height="48" rx="2.5" ry="2.5" style="stroke:#181818;stroke-width:0.5;" width="170.3799" x="2933" y="7"/><ellipse cx="2948" cy="23" fill="#ADD1B2" rx="11" ry="11" style="stroke:#181818;stroke-width:1;"/><path d="M2950.9688,28.6406 Q2950.3906,28.9375 2949.75,29.0781 Q2949.1094,29.2344 2948.4063,29.2344 Q2945.9063,29.2344 2944.5781,27.5938 Q2943.2656,25.9375 2943.2656,22.8125 Q2943.2656,19.6875 2944.5781,18.0313 Q2945.9063,16.375 2948.4063,16.375 Q2949.1094,16.375 2949.75,16.5313 Q2950.4063,16.6875 2950.9688,16.9844 L2950.9688,19.7031 Q2950.3438,19.125 2949.75,18.8594 Q2949.1563,18.5781 2948.5313,18.5781 Q2947.1875,18.5781 2946.5,19.6563 Q2945.8125,20.7188 2945.8125,22.8125 Q2945.8125,24.9063 2946.5,25.9844 Q2947.1875,27.0469 2948.5313,27.0469 Q2949.1563,27.0469 2949.75,26.7813 Q2950.3438,26.5 2950.9688,25.9219 L2950.9688,28.6406 Z " fill="#000000"/><text fill="#000000" font-family="sans-serif" font-size="14" lengthAdjust="spacing" textLength="138.3799" x="2962" y="27.8467">ExecutionCollection</text><line style="stroke:#181818;stroke-width:0.5;" x1="2934" x2="3102.3799" y1="39" y2="39"/><line style="stroke:#181818;stroke-width:0.5;" x1="2934" x2="3102.3799" y1="47" y2="47"/></g><!--class SamplingCollection--><g class="entity" data-qualified-name="SamplingCollection" data-source-line="17" id="ent0040"><rect fill="#F1F1F1" height="48" rx="2.5" ry="2.5" style="stroke:#181818;stroke-width:0.5;" width="166.7773" x="2732.5" y="115"/><ellipse cx="2747.5" cy="131" fill="#ADD1B2" rx="11" ry="11" style="stroke:#181818;stroke-width:1;"/><path d="M2750.4688,136.6406 Q2749.8906,136.9375 2749.25,137.0781 Q2748.6094,137.2344 2747.9063,137.2344 Q2745.4063,137.2344 2744.0781,135.5938 Q2742.7656,133.9375 2742.7656,130.8125 Q2742.7656,127.6875 2744.0781,126.0313 Q2745.4063,124.375 2747.9063,124.375 Q2748.6094,124.375 2749.25,124.5313 Q2749.9063,124.6875 2750.4688,124.9844 L2750.4688,127.7031 Q2749.8438,127.125 2749.25,126.8594 Q2748.6563,126.5781 2748.0313,126.5781 Q2746.6875,126.5781 2746,127.6563 Q2745.3125,128.7188 2745.3125,130.8125 Q2745.3125,132.9063 2746,133.9844 Q2746.6875,135.0469 2748.0313,135.0469 Q2748.6563,135.0469 2749.25,134.7813 Q2749.8438,134.5 2750.4688,133.9219 L2750.4688,136.6406 Z " fill="#000000"/><text fill="#000000" font-family="sans-serif" font-size="14" lengthAdjust="spacing" textLength="134.7773" x="2761.5" y="135.8467">SamplingCollection</text><line style="stroke:#181818;stroke-width:0.5;" x1="2733.5" x2="2898.2773" y1="147" y2="147"/><line style="stroke:#181818;stroke-width:0.5;" x1="2733.5" x2="2898.2773" y1="155" y2="155"/></g><!--class ActuationCollection--><g class="entity" data-qualified-name="ActuationCollection" data-source-line="18" id="ent0042"><rect fill="#F1F1F1" height="48" rx="2.5" ry="2.5" style="stroke:#181818;stroke-width:0.5;" width="168.2813" x="2934" y="115"/><ellipse cx="2949" cy="131" fill="#ADD1B2" rx="11" ry="11" style="stroke:#181818;stroke-width:1;"/><path d="M2951.9688,136.6406 Q2951.3906,136.9375 2950.75,137.0781 Q2950.1094,137.2344 2949.4063,137.2344 Q2946.9063,137.2344 2945.5781,135.5938 Q2944.2656,133.9375 2944.2656,130.8125 Q2944.2656,127.6875 2945.5781,126.0313 Q2946.9063,124.375 2949.4063,124.375 Q2950.1094,124.375 2950.75,124.5313 Q2951.4063,124.6875 2951.9688,124.9844 L2951.9688,127.7031 Q2951.3438,127.125 2950.75,126.8594 Q2950.1563,126.5781 2949.5313,126.5781 Q2948.1875,126.5781 2947.5,127.6563 Q2946.8125,128.7188 2946.8125,130.8125 Q2946.8125,132.9063 2947.5,133.9844 Q2948.1875,135.0469 2949.5313,135.0469 Q2950.1563,135.0469 2950.75,134.7813 Q2951.3438,134.5 2951.9688,133.9219 L2951.9688,136.6406 Z " fill="#000000"/><text fill="#000000" font-family="sans-serif" font-size="14" lengthAdjust="spacing" textLength="136.2813" x="2963" y="135.8467">ActuationCollection</text><line style="stroke:#181818;stroke-width:0.5;" x1="2935" x2="3101.2813" y1="147" y2="147"/><line style="stroke:#181818;stroke-width:0.5;" x1="2935" x2="3101.2813" y1="155" y2="155"/></g><!--class ObservationCollection--><g class="entity" data-qualified-name="ObservationCollection" data-source-line="19" id="ent0044"><rect fill="#F1F1F1" height="48" rx="2.5" ry="2.5" style="stroke:#181818;stroke-width:0.5;" width="186.499" x="3137" y="115"/><ellipse cx="3152" cy="131" fill="#ADD1B2" rx="11" ry="11" style="stroke:#181818;stroke-width:1;"/><path d="M3154.9688,136.6406 Q3154.3906,136.9375 3153.75,137.0781 Q3153.1094,137.2344 3152.4063,137.2344 Q3149.9063,137.2344 3148.5781,135.5938 Q3147.2656,133.9375 3147.2656,130.8125 Q3147.2656,127.6875 3148.5781,126.0313 Q3149.9063,124.375 3152.4063,124.375 Q3153.1094,124.375 3153.75,124.5313 Q3154.4063,124.6875 3154.9688,124.9844 L3154.9688,127.7031 Q3154.3438,127.125 3153.75,126.8594 Q3153.1563,126.5781 3152.5313,126.5781 Q3151.1875,126.5781 3150.5,127.6563 Q3149.8125,128.7188 3149.8125,130.8125 Q3149.8125,132.9063 3150.5,133.9844 Q3151.1875,135.0469 3152.5313,135.0469 Q3153.1563,135.0469 3153.75,134.7813 Q3154.3438,134.5 3154.9688,133.9219 L3154.9688,136.6406 Z " fill="#000000"/><text fill="#000000" font-family="sans-serif" font-size="14" lengthAdjust="spacing" textLength="154.499" x="3166" y="135.8467">ObservationCollection</text><line style="stroke:#181818;stroke-width:0.5;" x1="3138" x2="3322.499" y1="147" y2="147"/><line style="stroke:#181818;stroke-width:0.5;" x1="3138" x2="3322.499" y1="155" y2="155"/></g><!--class Stimulus--><g class="entity" data-qualified-name="Stimulus" data-source-line="20" id="ent0046"><rect fill="#F1F1F1" height="48" rx="2.5" ry="2.5" style="stroke:#181818;stroke-width:0.5;" width="92.833" x="37.5" y="7"/><ellipse cx="52.5" cy="23" fill="#ADD1B2" rx="11" ry="11" style="stroke:#181818;stroke-width:1;"/><path d="M55.4688,28.6406 Q54.8906,28.9375 54.25,29.0781 Q53.6094,29.2344 52.9063,29.2344 Q50.4063,29.2344 49.0781,27.5938 Q47.7656,25.9375 47.7656,22.8125 Q47.7656,19.6875 49.0781,18.0313 Q50.4063,16.375 52.9063,16.375 Q53.6094,16.375 54.25,16.5313 Q54.9063,16.6875 55.4688,16.9844 L55.4688,19.7031 Q54.8438,19.125 54.25,18.8594 Q53.6563,18.5781 53.0313,18.5781 Q51.6875,18.5781 51,19.6563 Q50.3125,20.7188 50.3125,22.8125 Q50.3125,24.9063 51,25.9844 Q51.6875,27.0469 53.0313,27.0469 Q53.6563,27.0469 54.25,26.7813 Q54.8438,26.5 55.4688,25.9219 L55.4688,28.6406 Z " fill="#000000"/><text fill="#000000" font-family="sans-serif" font-size="14" lengthAdjust="spacing" textLength="60.833" x="66.5" y="27.8467">Stimulus</text><line style="stroke:#181818;stroke-width:0.5;" x1="38.5" x2="129.333" y1="39" y2="39"/><line style="stroke:#181818;stroke-width:0.5;" x1="38.5" x2="129.333" y1="47" y2="47"/></g><!--class Result--><g class="entity" data-qualified-name="Result" data-source-line="21" id="ent0047"><rect fill="#F1F1F1" height="48" rx="2.5" ry="2.5" style="stroke:#181818;stroke-width:0.5;" width="75.8867" x="166" y="7"/><ellipse cx="181" cy="23" fill="#ADD1B2" rx="11" ry="11" style="stroke:#181818;stroke-width:1;"/><path d="M183.9688,28.6406 Q183.3906,28.9375 182.75,29.0781 Q182.1094,29.2344 181.4063,29.2344 Q178.9063,29.2344 177.5781,27.5938 Q176.2656,25.9375 176.2656,22.8125 Q176.2656,19.6875 177.5781,18.0313 Q178.9063,16.375 181.4063,16.375 Q182.1094,16.375 182.75,16.5313 Q183.4063,16.6875 183.9688,16.9844 L183.9688,19.7031 Q183.3438,19.125 182.75,18.8594 Q182.1563,18.5781 181.5313,18.5781 Q180.1875,18.5781 179.5,19.6563 Q178.8125,20.7188 178.8125,22.8125 Q178.8125,24.9063 179.5,25.9844 Q180.1875,27.0469 181.5313,27.0469 Q182.1563,27.0469 182.75,26.7813 Q183.3438,26.5 183.9688,25.9219 L183.9688,28.6406 Z " fill="#000000"/><text fill="#000000" font-family="sans-serif" font-size="14" lengthAdjust="spacing" textLength="43.8867" x="195" y="27.8467">Result</text><line style="stroke:#181818;stroke-width:0.5;" x1="167" x2="240.8867" y1="39" y2="39"/><line style="stroke:#181818;stroke-width:0.5;" x1="167" x2="240.8867" y1="47" y2="47"/></g><!--class Input--><g class="entity" data-qualified-name="Input" data-source-line="22" id="ent0048"><rect fill="#F1F1F1" height="48" rx="2.5" ry="2.5" style="stroke:#181818;stroke-width:0.5;" width="68.251" x="277" y="7"/><ellipse cx="292" cy="23" fill="#ADD1B2" rx="11" ry="11" style="stroke:#181818;stroke-width:1;"/><path d="M294.9688,28.6406 Q294.3906,28.9375 293.75,29.0781 Q293.1094,29.2344 292.4063,29.2344 Q289.9063,29.2344 288.5781,27.5938 Q287.2656,25.9375 287.2656,22.8125 Q287.2656,19.6875 288.5781,18.0313 Q289.9063,16.375 292.4063,16.375 Q293.1094,16.375 293.75,16.5313 Q294.4063,16.6875 294.9688,16.9844 L294.9688,19.7031 Q294.3438,19.125 293.75,18.8594 Q293.1563,18.5781 292.5313,18.5781 Q291.1875,18.5781 290.5,19.6563 Q289.8125,20.7188 289.8125,22.8125 Q289.8125,24.9063 290.5,25.9844 Q291.1875,27.0469 292.5313,27.0469 Q293.1563,27.0469 293.75,26.7813 Q294.3438,26.5 294.9688,25.9219 L294.9688,28.6406 Z " fill="#000000"/><text fill="#000000" font-family="sans-serif" font-size="14" lengthAdjust="spacing" textLength="36.251" x="306" y="27.8467">Input</text><line style="stroke:#181818;stroke-width:0.5;" x1="278" x2="344.251" y1="39" y2="39"/><line style="stroke:#181818;stroke-width:0.5;" x1="278" x2="344.251" y1="47" y2="47"/></g><!--class SampleCollection--><g class="entity" data-qualified-name="SampleCollection" data-source-line="23" id="ent0049"><rect fill="#F1F1F1" height="48" rx="2.5" ry="2.5" style="stroke:#181818;stroke-width:0.5;" width="153.7412" x="7" y="115"/><ellipse cx="22" cy="131" fill="#ADD1B2" rx="11" ry="11" style="stroke:#181818;stroke-width:1;"/><path d="M24.9688,136.6406 Q24.3906,136.9375 23.75,137.0781 Q23.1094,137.2344 22.4063,137.2344 Q19.9063,137.2344 18.5781,135.5938 Q17.2656,133.9375 17.2656,130.8125 Q17.2656,127.6875 18.5781,126.0313 Q19.9063,124.375 22.4063,124.375 Q23.1094,124.375 23.75,124.5313 Q24.4063,124.6875 24.9688,124.9844 L24.9688,127.7031 Q24.3438,127.125 23.75,126.8594 Q23.1563,126.5781 22.5313,126.5781 Q21.1875,126.5781 20.5,127.6563 Q19.8125,128.7188 19.8125,130.8125 Q19.8125,132.9063 20.5,133.9844 Q21.1875,135.0469 22.5313,135.0469 Q23.1563,135.0469 23.75,134.7813 Q24.3438,134.5 24.9688,133.9219 L24.9688,136.6406 Z " fill="#000000"/><text fill="#000000" font-family="sans-serif" font-size="14" lengthAdjust="spacing" textLength="121.7412" x="36" y="135.8467">SampleCollection</text><line style="stroke:#181818;stroke-width:0.5;" x1="8" x2="159.7412" y1="147" y2="147"/><line style="stroke:#181818;stroke-width:0.5;" x1="8" x2="159.7412" y1="155" y2="155"/></g><!--class FeatureOfInterest--><g class="entity" data-qualified-name="FeatureOfInterest" data-source-line="24" id="ent0050"><rect fill="#F1F1F1" height="48" rx="2.5" ry="2.5" style="stroke:#181818;stroke-width:0.5;" width="156.1816" x="196" y="115"/><ellipse cx="211" cy="131" fill="#ADD1B2" rx="11" ry="11" style="stroke:#181818;stroke-width:1;"/><path d="M213.9688,136.6406 Q213.3906,136.9375 212.75,137.0781 Q212.1094,137.2344 211.4063,137.2344 Q208.9063,137.2344 207.5781,135.5938 Q206.2656,133.9375 206.2656,130.8125 Q206.2656,127.6875 207.5781,126.0313 Q208.9063,124.375 211.4063,124.375 Q212.1094,124.375 212.75,124.5313 Q213.4063,124.6875 213.9688,124.9844 L213.9688,127.7031 Q213.3438,127.125 212.75,126.8594 Q212.1563,126.5781 211.5313,126.5781 Q210.1875,126.5781 209.5,127.6563 Q208.8125,128.7188 208.8125,130.8125 Q208.8125,132.9063 209.5,133.9844 Q210.1875,135.0469 211.5313,135.0469 Q212.1563,135.0469 212.75,134.7813 Q213.3438,134.5 213.9688,133.9219 L213.9688,136.6406 Z " fill="#000000"/><text fill="#000000" font-family="sans-serif" font-size="14" lengthAdjust="spacing" textLength="124.1816" x="225" y="135.8467">FeatureOfInterest</text><line style="stroke:#181818;stroke-width:0.5;" x1="197" x2="351.1816" y1="147" y2="147"/><line style="stroke:#181818;stroke-width:0.5;" x1="197" x2="351.1816" y1="155" y2="155"/></g><!--class Output--><g class="entity" data-qualified-name="Output" data-source-line="25" id="ent0051"><rect fill="#F1F1F1" height="48" rx="2.5" ry="2.5" style="stroke:#181818;stroke-width:0.5;" width="80.6309" x="387.5" y="115"/><ellipse cx="402.5" cy="131" fill="#ADD1B2" rx="11" ry="11" style="stroke:#181818;stroke-width:1;"/><path d="M405.4688,136.6406 Q404.8906,136.9375 404.25,137.0781 Q403.6094,137.2344 402.9063,137.2344 Q400.4063,137.2344 399.0781,135.5938 Q397.7656,133.9375 397.7656,130.8125 Q397.7656,127.6875 399.0781,126.0313 Q400.4063,124.375 402.9063,124.375 Q403.6094,124.375 404.25,124.5313 Q404.9063,124.6875 405.4688,124.9844 L405.4688,127.7031 Q404.8438,127.125 404.25,126.8594 Q403.6563,126.5781 403.0313,126.5781 Q401.6875,126.5781 401,127.6563 Q400.3125,128.7188 400.3125,130.8125 Q400.3125,132.9063 401,133.9844 Q401.6875,135.0469 403.0313,135.0469 Q403.6563,135.0469 404.25,134.7813 Q404.8438,134.5 405.4688,133.9219 L405.4688,136.6406 Z " fill="#000000"/><text fill="#000000" font-family="sans-serif" font-size="14" lengthAdjust="spacing" textLength="48.6309" x="416.5" y="135.8467">Output</text><line style="stroke:#181818;stroke-width:0.5;" x1="388.5" x2="467.1309" y1="147" y2="147"/><line style="stroke:#181818;stroke-width:0.5;" x1="388.5" x2="467.1309" y1="155" y2="155"/></g><!--class Deployment--><g class="entity" data-qualified-name="Deployment" data-source-line="26" id="ent0052"><rect fill="#F1F1F1" height="48" rx="2.5" ry="2.5" style="stroke:#181818;stroke-width:0.5;" width="117.6338" x="25" y="223"/><ellipse cx="40" cy="239" fill="#ADD1B2" rx="11" ry="11" style="stroke:#181818;stroke-width:1;"/><path d="M42.9688,244.6406 Q42.3906,244.9375 41.75,245.0781 Q41.1094,245.2344 40.4063,245.2344 Q37.9063,245.2344 36.5781,243.5938 Q35.2656,241.9375 35.2656,238.8125 Q35.2656,235.6875 36.5781,234.0313 Q37.9063,232.375 40.4063,232.375 Q41.1094,232.375 41.75,232.5313 Q42.4063,232.6875 42.9688,232.9844 L42.9688,235.7031 Q42.3438,235.125 41.75,234.8594 Q41.1563,234.5781 40.5313,234.5781 Q39.1875,234.5781 38.5,235.6563 Q37.8125,236.7188 37.8125,238.8125 Q37.8125,240.9063 38.5,241.9844 Q39.1875,243.0469 40.5313,243.0469 Q41.1563,243.0469 41.75,242.7813 Q42.3438,242.5 42.9688,241.9219 L42.9688,244.6406 Z " fill="#000000"/><text fill="#000000" font-family="sans-serif" font-size="14" lengthAdjust="spacing" textLength="85.6338" x="54" y="243.8467">Deployment</text><line style="stroke:#181818;stroke-width:0.5;" x1="26" x2="141.6338" y1="255" y2="255"/><line style="stroke:#181818;stroke-width:0.5;" x1="26" x2="141.6338" y1="263" y2="263"/></g><!--reverse link Property to ActuatableProperty--><g class="link" data-entity-1="ent0002" data-entity-2="ent0003" data-link-type="extension" data-source-line="1" id="lnk4"><path codeLine="1" d="M654.3905,67.9716 C637.4005,85.6316 626.51,96.94 609.44,114.68" fill="none" id="Property-backto-ActuatableProperty" style="stroke:#181818;stroke-width:1;"/><polygon fill="none" points="666.87,55,650.0667,63.8118,658.7144,72.1314,666.87,55" style="stroke:#181818;stroke-width:1;"/></g><!--reverse link Property to ObservableProperty--><g class="link" data-entity-1="ent0002" data-entity-2="ent0005" data-link-type="extension" data-source-line="2" id="lnk6"><path codeLine="2" d="M723.8939,67.9094 C741.0539,85.5694 752.1,96.94 769.34,114.68" fill="none" id="Property-backto-ObservableProperty" style="stroke:#181818;stroke-width:1;"/><polygon fill="none" points="711.35,55,719.5907,72.0906,728.197,63.7281,711.35,55" style="stroke:#181818;stroke-width:1;"/></g><!--reverse link Sample to MaterialSample--><g class="link" data-entity-1="ent0007" data-entity-2="ent0008" data-link-type="extension" data-source-line="3" id="lnk9"><path codeLine="3" d="M1103.3567,64.4445 C1074.6067,82.1645 1050.35,97.11 1021.55,114.86" fill="none" id="Sample-backto-MaterialSample" style="stroke:#181818;stroke-width:1;"/><polygon fill="none" points="1118.68,55,1100.2086,59.3367,1106.5049,69.5522,1118.68,55" style="stroke:#181818;stroke-width:1;"/></g><!--reverse link Sample to SpatialSample--><g class="link" data-entity-1="ent0007" data-entity-2="ent0010" data-link-type="extension" data-source-line="4" id="lnk11"><path codeLine="4" d="M1156,73 C1156,90.66 1156,96.94 1156,114.68" fill="none" id="Sample-backto-SpatialSample" style="stroke:#181818;stroke-width:1;"/><polygon fill="none" points="1156,55,1150,73,1162,73,1156,55" style="stroke:#181818;stroke-width:1;"/></g><!--reverse link Sample to StatisticalSample--><g class="link" data-entity-1="ent0007" data-entity-2="ent0012" data-link-type="extension" data-source-line="5" id="lnk13"><path codeLine="5" d="M1210.3276,64.1725 C1240.2476,81.8925 1265.95,97.11 1295.93,114.86" fill="none" id="Sample-backto-StatisticalSample" style="stroke:#181818;stroke-width:1;"/><polygon fill="none" points="1194.84,55,1207.2701,69.335,1213.3851,59.0099,1194.84,55" style="stroke:#181818;stroke-width:1;"/></g><!--reverse link Procedure to ActuatingProcedure--><g class="link" data-entity-1="ent0014" data-entity-2="ent0015" data-link-type="extension" data-source-line="6" id="lnk16"><path codeLine="6" d="M1679.8326,63.1732 C1645.0626,80.8932 1613.24,97.11 1578.4,114.86" fill="none" id="Procedure-backto-ActuatingProcedure" style="stroke:#181818;stroke-width:1;"/><polygon fill="none" points="1695.87,55,1677.1082,57.8274,1682.557,68.519,1695.87,55" style="stroke:#181818;stroke-width:1;"/></g><!--reverse link Procedure to ObservingProcedure--><g class="link" data-entity-1="ent0014" data-entity-2="ent0017" data-link-type="extension" data-source-line="7" id="lnk18"><path codeLine="7" d="M1741,73 C1741,90.66 1741,96.94 1741,114.68" fill="none" id="Procedure-backto-ObservingProcedure" style="stroke:#181818;stroke-width:1;"/><polygon fill="none" points="1741,55,1735,73,1747,73,1741,55" style="stroke:#181818;stroke-width:1;"/></g><!--reverse link Procedure to SamplingProcedure--><g class="link" data-entity-1="ent0014" data-entity-2="ent0019" data-link-type="extension" data-source-line="8" id="lnk20"><path codeLine="8" d="M1801.9411,63.205 C1836.5411,80.925 1868.15,97.11 1902.81,114.86" fill="none" id="Procedure-backto-SamplingProcedure" style="stroke:#181818;stroke-width:1;"/><polygon fill="none" points="1785.92,55,1799.2061,68.5454,1804.6762,57.8647,1785.92,55" style="stroke:#181818;stroke-width:1;"/></g><!--reverse link Asset to Platform--><g class="link" data-entity-1="ent0021" data-entity-2="ent0022" data-link-type="extension" data-source-line="9" id="lnk23"><path codeLine="9" d="M2151.7839,70.6022 C2141.6239,88.2622 2136.63,96.94 2126.42,114.68" fill="none" id="Asset-backto-Platform" style="stroke:#181818;stroke-width:1;"/><polygon fill="none" points="2160.76,55,2146.5831,67.6102,2156.9846,73.5943,2160.76,55" style="stroke:#181818;stroke-width:1;"/></g><!--reverse link Asset to System--><g class="link" data-entity-1="ent0021" data-entity-2="ent0024" data-link-type="extension" data-source-line="10" id="lnk25"><path codeLine="10" d="M2196.5383,70.5372 C2206.8683,88.1972 2211.98,96.94 2222.36,114.68" fill="none" id="Asset-backto-System" style="stroke:#181818;stroke-width:1;"/><polygon fill="none" points="2187.45,55,2191.3592,73.5666,2201.7173,67.5077,2187.45,55" style="stroke:#181818;stroke-width:1;"/></g><!--reverse link System to Sampler--><g class="link" data-entity-1="ent0024" data-entity-2="ent0026" data-link-type="extension" data-source-line="11" id="lnk27"><path codeLine="11" d="M2194.8865,174.5884 C2173.8965,192.2484 2158.81,204.94 2137.72,222.68" fill="none" id="System-backto-Sampler" style="stroke:#181818;stroke-width:1;"/><polygon fill="none" points="2208.66,163,2191.0237,169.9972,2198.7493,179.1795,2208.66,163" style="stroke:#181818;stroke-width:1;"/></g><!--reverse link System to Actuator--><g class="link" data-entity-1="ent0024" data-entity-2="ent0028" data-link-type="extension" data-source-line="12" id="lnk29"><path codeLine="12" d="M2236,181 C2236,198.66 2236,204.94 2236,222.68" fill="none" id="System-backto-Actuator" style="stroke:#181818;stroke-width:1;"/><polygon fill="none" points="2236,163,2230,181,2242,181,2236,163" style="stroke:#181818;stroke-width:1;"/></g><!--reverse link System to Sensor--><g class="link" data-entity-1="ent0024" data-entity-2="ent0030" data-link-type="extension" data-source-line="13" id="lnk31"><path codeLine="13" d="M2275.7968,174.864 C2295.9468,192.524 2310.13,204.94 2330.38,222.68" fill="none" id="System-backto-Sensor" style="stroke:#181818;stroke-width:1;"/><polygon fill="none" points="2262.26,163,2271.8421,179.3763,2279.7515,170.3518,2262.26,163" style="stroke:#181818;stroke-width:1;"/></g><!--reverse link Execution to Sampling--><g class="link" data-entity-1="ent0032" data-entity-2="ent0033" data-link-type="extension" data-source-line="14" id="lnk34"><path codeLine="14" d="M2452.8041,66.1688 C2430.4841,83.8288 2413.91,96.94 2391.48,114.68" fill="none" id="Execution-backto-Sampling" style="stroke:#181818;stroke-width:1;"/><polygon fill="none" points="2466.92,55,2449.0812,61.4635,2456.527,70.8741,2466.92,55" style="stroke:#181818;stroke-width:1;"/></g><!--reverse link Execution to Actuation--><g class="link" data-entity-1="ent0032" data-entity-2="ent0035" data-link-type="extension" data-source-line="15" id="lnk36"><path codeLine="15" d="M2496,73 C2496,90.66 2496,96.94 2496,114.68" fill="none" id="Execution-backto-Actuation" style="stroke:#181818;stroke-width:1;"/><polygon fill="none" points="2496,55,2490,73,2502,73,2496,55" style="stroke:#181818;stroke-width:1;"/></g><!--reverse link Execution to Observation--><g class="link" data-entity-1="ent0032" data-entity-2="ent0037" data-link-type="extension" data-source-line="16" id="lnk38"><path codeLine="16" d="M2541.4895,65.7202 C2565.3095,83.3802 2583.61,96.94 2607.54,114.68" fill="none" id="Execution-backto-Observation" style="stroke:#181818;stroke-width:1;"/><polygon fill="none" points="2527.03,55,2537.9161,70.54,2545.0629,60.9004,2527.03,55" style="stroke:#181818;stroke-width:1;"/></g><!--reverse link ExecutionCollection to SamplingCollection--><g class="link" data-entity-1="ent0039" data-entity-2="ent0040" data-link-type="extension" data-source-line="17" id="lnk41"><path codeLine="17" d="M2958.231,63.3636 C2924.461,81.0836 2893.93,97.11 2860.09,114.86" fill="none" id="ExecutionCollection-backto-SamplingCollection" style="stroke:#181818;stroke-width:1;"/><polygon fill="none" points="2974.17,55,2955.4432,58.0506,2961.0189,68.6766,2974.17,55" style="stroke:#181818;stroke-width:1;"/></g><!--reverse link ExecutionCollection to ActuationCollection--><g class="link" data-entity-1="ent0039" data-entity-2="ent0042" data-link-type="extension" data-source-line="18" id="lnk43"><path codeLine="18" d="M3018,73 C3018,90.66 3018,96.94 3018,114.68" fill="none" id="ExecutionCollection-backto-ActuationCollection" style="stroke:#181818;stroke-width:1;"/><polygon fill="none" points="3018,55,3012,73,3024,73,3018,55" style="stroke:#181818;stroke-width:1;"/></g><!--reverse link ExecutionCollection to ObservationCollection--><g class="link" data-entity-1="ent0039" data-entity-2="ent0044" data-link-type="extension" data-source-line="19" id="lnk45"><path codeLine="19" d="M3080.0997,63.0498 C3115.5397,80.7698 3148.22,97.11 3183.72,114.86" fill="none" id="ExecutionCollection-backto-ObservationCollection" style="stroke:#181818;stroke-width:1;"/><polygon fill="none" points="3064,55,3077.4164,68.4164,3082.783,57.6833,3064,55" style="stroke:#181818;stroke-width:1;"/></g><?plantuml-src ZP9RRiCW44N_iufi83leJzI7b8_ALhq2GcygfE4XPgXggOiF2iG1HwdwXJdtC8o1CVg0AFFswNUts-wr92NgI1WhtuoTC1mPyRiJ9cK3eSJlIX2DeiAwQ0fA7YII4nQZbpJNrlXC4MrNndqjV6sKjluoBfKxOSyCAU58Iau-sfPDCmlifWnD3SIEbTvy3oSupkZr1pg9yQvlOSthxtct3kfXzz6p9uA-hthZZzrbf__8pUwDhaanvoipDb7YElq09v8wERYGhj_bnEwMlq59leBXT73vlO2l-f3ajlO5WVniuUGC?></g></svg>