<svg xmlns="http://www.w3.org/2000/svg" xmlns:xlink="http://www.w3.org/1999/xlink" contentStyleType="text/css" data-diagram-type="CLASS" height="286px" preserveAspectRatio="none" style="width:3375px;height:286px;background:#FFFFFF;" version="1.1" viewBox="0 0 3375 286" width="3375px" zoomAndPan="magnify"><?plantuml 1.2026.6?><defs/><g><!--class Property--><g class="entity" data-qualified-name="Property" data-source-line="1" id="ent0001"><rect fill="#F1F1F1" height="48" rx="2.5" ry="2.5" style="stroke:#181818;stroke-width:0.5;" width="91.7939" x="680" y="7"/><ellipse cx="695" cy="23" fill="#ADD1B2" rx="11" ry="11" style="stroke:#181818;stroke-width:1;"/><path d="M697.9688,28.6406 Q697.3906,28.9375 696.75,29.0781 Q696.1094,29.2344 695.4063,29.2344 Q692.9063,29.2344 691.5781,27.5938 Q690.2656,25.9375 690.2656,22.8125 Q690.2656,19.6875 691.5781,18.0313 Q692.9063,16.375 695.4063,16.375 Q696.1094,16.375 696.75,16.5313 Q697.4063,16.6875 697.9688,16.9844 L697.9688,19.7031 Q697.3438,19.125 696.75,18.8594 Q696.1563,18.5781 695.5313,18.5781 Q694.1875,18.5781 693.5,19.6563 Q692.8125,20.7188 692.8125,22.8125 Q692.8125,24.9063 693.5,25.9844 Q694.1875,27.0469 695.5313,27.0469 Q696.1563,27.0469 696.75,26.7813 Q697.3438,26.5 697.9688,25.9219 L697.9688,28.6406 Z " fill="#000000"/><text fill="#000000" font-family="sans-serif" font-size="14" lengthAdjust="spacing" textLength="59.7939" x="709" y="27.8467">Property</text><line style="stroke:#181818;stroke-width:0.5;" x1="681" x2="770.7939" y1="39" y2="39"/><line style="stroke:#181818;stroke-width:0.5;" x1="681" x2="770.7939" y1="47" y2="47"/></g><!--class ActuatableProperty--><g class="entity" data-qualified-name="ActuatableProperty" data-source-line="1" id="ent0002"><rect fill="#F1F1F1" height="48" rx="2.5" ry="2.5" style="stroke:#181818;stroke-width:0.5;" width="167.4678" x="540.5" y="115"/><ellipse cx="555.5" cy="131" fill="#ADD1B2" rx="11" ry="11" style="stroke:#181818;stroke-width:1;"/><path d="M558.4688,136.6406 Q557.8906,136.9375 557.25,137.0781 Q556.6094,137.2344 555.9063,137.2344 Q553.4063,137.2344 552.0781,135.5938 Q550.7656,133.9375 550.7656,130.8125 Q550.7656,127.6875 552.0781,126.0313 Q553.4063,124.375 555.9063,124.375 Q556.6094,124.375 557.25,124.5313 Q557.9063,124.6875 558.4688,124.9844 L558.4688,127.7031 Q557.8438,127.125 557.25,126.8594 Q556.6563,126.5781 556.0313,126.5781 Q554.6875,126.5781 554,127.6563 Q553.3125,128.7188 553.3125,130.8125 Q553.3125,132.9063 554,133.9844 Q554.6875,135.0469 556.0313,135.0469 Q556.6563,135.0469 557.25,134.7813 Q557.8438,134.5 558.4688,133.9219 L558.4688,136.6406 Z " fill="#000000"/><text fill="#000000" font-family="sans-serif" font-size="14" lengthAdjust="spacing" textLength="135.4678" x="569.5" y="135.8467">ActuatableProperty</text><line style="stroke:#181818;stroke-width:0.5;" x1="541.5" x2="706.9678" y1="147" y2="147"/><line style="stroke:#181818;stroke-width:0.5;" x1="541.5" x2="706.9678" y1="155" y2="155"/></g><!--class Sample--><g class="entity" data-qualified-name="Sample" data-source-line="2" id="ent0004"><rect fill="#F1F1F1" height="48" rx="2.5" ry="2.5" style="stroke:#181818;stroke-width:0.5;" width="84.4932" x="1151" y="7"/><ellipse cx="1166" cy="23" fill="#ADD1B2" rx="11" ry="11" style="stroke:#181818;stroke-width:1;"/><path d="M1168.9688,28.6406 Q1168.3906,28.9375 1167.75,29.0781 Q1167.1094,29.2344 1166.4063,29.2344 Q1163.9063,29.2344 1162.5781,27.5938 Q1161.2656,25.9375 1161.2656,22.8125 Q1161.2656,19.6875 1162.5781,18.0313 Q1163.9063,16.375 1166.4063,16.375 Q1167.1094,16.375 1167.75,16.5313 Q1168.4063,16.6875 1168.9688,16.9844 L1168.9688,19.7031 Q1168.3438,19.125 1167.75,18.8594 Q1167.1563,18.5781 1166.5313,18.5781 Q1165.1875,18.5781 1164.5,19.6563 Q1163.8125,20.7188 1163.8125,22.8125 Q1163.8125,24.9063 1164.5,25.9844 Q1165.1875,27.0469 1166.5313,27.0469 Q1167.1563,27.0469 1167.75,26.7813 Q1168.3438,26.5 1168.9688,25.9219 L1168.9688,28.6406 Z " fill="#000000"/><text fill="#000000" font-family="sans-serif" font-size="14" lengthAdjust="spacing" textLength="52.4932" x="1180" y="27.8467">Sample</text><line style="stroke:#181818;stroke-width:0.5;" x1="1152" x2="1234.4932" y1="39" y2="39"/><line style="stroke:#181818;stroke-width:0.5;" x1="1152" x2="1234.4932" y1="47" y2="47"/></g><!--class MaterialSample--><g class="entity" data-qualified-name="MaterialSample" data-source-line="2" id="ent0005"><rect fill="#F1F1F1" height="48" rx="2.5" ry="2.5" style="stroke:#181818;stroke-width:0.5;" width="141.3682" x="950.5" y="115"/><ellipse cx="965.5" cy="131" fill="#ADD1B2" rx="11" ry="11" style="stroke:#181818;stroke-width:1;"/><path d="M968.4688,136.6406 Q967.8906,136.9375 967.25,137.0781 Q966.6094,137.2344 965.9063,137.2344 Q963.4063,137.2344 962.0781,135.5938 Q960.7656,133.9375 960.7656,130.8125 Q960.7656,127.6875 962.0781,126.0313 Q963.4063,124.375 965.9063,124.375 Q966.6094,124.375 967.25,124.5313 Q967.9063,124.6875 968.4688,124.9844 L968.4688,127.7031 Q967.8438,127.125 967.25,126.8594 Q966.6563,126.5781 966.0313,126.5781 Q964.6875,126.5781 964,127.6563 Q963.3125,128.7188 963.3125,130.8125 Q963.3125,132.9063 964,133.9844 Q964.6875,135.0469 966.0313,135.0469 Q966.6563,135.0469 967.25,134.7813 Q967.8438,134.5 968.4688,133.9219 L968.4688,136.6406 Z " fill="#000000"/><text fill="#000000" font-family="sans-serif" font-size="14" lengthAdjust="spacing" textLength="109.3682" x="979.5" y="135.8467">MaterialSample</text><line style="stroke:#181818;stroke-width:0.5;" x1="951.5" x2="1090.8682" y1="147" y2="147"/><line style="stroke:#181818;stroke-width:0.5;" x1="951.5" x2="1090.8682" y1="155" y2="155"/></g><!--class SpatialSample--><g class="entity" data-qualified-name="SpatialSample" data-source-line="3" id="ent0007"><rect fill="#F1F1F1" height="48" rx="2.5" ry="2.5" style="stroke:#181818;stroke-width:0.5;" width="132.6934" x="1126.5" y="115"/><ellipse cx="1141.5" cy="131" fill="#ADD1B2" rx="11" ry="11" style="stroke:#181818;stroke-width:1;"/><path d="M1144.4688,136.6406 Q1143.8906,136.9375 1143.25,137.0781 Q1142.6094,137.2344 1141.9063,137.2344 Q1139.4063,137.2344 1138.0781,135.5938 Q1136.7656,133.9375 1136.7656,130.8125 Q1136.7656,127.6875 1138.0781,126.0313 Q1139.4063,124.375 1141.9063,124.375 Q1142.6094,124.375 1143.25,124.5313 Q1143.9063,124.6875 1144.4688,124.9844 L1144.4688,127.7031 Q1143.8438,127.125 1143.25,126.8594 Q1142.6563,126.5781 1142.0313,126.5781 Q1140.6875,126.5781 1140,127.6563 Q1139.3125,128.7188 1139.3125,130.8125 Q1139.3125,132.9063 1140,133.9844 Q1140.6875,135.0469 1142.0313,135.0469 Q1142.6563,135.0469 1143.25,134.7813 Q1143.8438,134.5 1144.4688,133.9219 L1144.4688,136.6406 Z " fill="#000000"/><text fill="#000000" font-family="sans-serif" font-size="14" lengthAdjust="spacing" textLength="100.6934" x="1155.5" y="135.8467">SpatialSample</text><line style="stroke:#181818;stroke-width:0.5;" x1="1127.5" x2="1258.1934" y1="147" y2="147"/><line style="stroke:#181818;stroke-width:0.5;" x1="1127.5" x2="1258.1934" y1="155" y2="155"/></g><!--class StatisticalSample--><g class="entity" data-qualified-name="StatisticalSample" data-source-line="4" id="ent0009"><rect fill="#F1F1F1" height="48" rx="2.5" ry="2.5" style="stroke:#181818;stroke-width:0.5;" width="153.666" x="1295" y="115"/><ellipse cx="1310" cy="131" fill="#ADD1B2" rx="11" ry="11" style="stroke:#181818;stroke-width:1;"/><path d="M1312.9688,136.6406 Q1312.3906,136.9375 1311.75,137.0781 Q1311.1094,137.2344 1310.4063,137.2344 Q1307.9063,137.2344 1306.5781,135.5938 Q1305.2656,133.9375 1305.2656,130.8125 Q1305.2656,127.6875 1306.5781,126.0313 Q1307.9063,124.375 1310.4063,124.375 Q1311.1094,124.375 1311.75,124.5313 Q1312.4063,124.6875 1312.9688,124.9844 L1312.9688,127.7031 Q1312.3438,127.125 1311.75,126.8594 Q1311.1563,126.5781 1310.5313,126.5781 Q1309.1875,126.5781 1308.5,127.6563 Q1307.8125,128.7188 1307.8125,130.8125 Q1307.8125,132.9063 1308.5,133.9844 Q1309.1875,135.0469 1310.5313,135.0469 Q1311.1563,135.0469 1311.75,134.7813 Q1312.3438,134.5 1312.9688,133.9219 L1312.9688,136.6406 Z " fill="#000000"/><text fill="#000000" font-family="sans-serif" font-size="14" lengthAdjust="spacing" textLength="121.666" x="1324" y="135.8467">StatisticalSample</text><line style="stroke:#181818;stroke-width:0.5;" x1="1296" x2="1447.666" y1="147" y2="147"/><line style="stroke:#181818;stroke-width:0.5;" x1="1296" x2="1447.666" y1="155" y2="155"/></g><!--class ObservableProperty--><g class="entity" data-qualified-name="ObservableProperty" data-source-line="5" id="ent0011"><rect fill="#F1F1F1" height="48" rx="2.5" ry="2.5" style="stroke:#181818;stroke-width:0.5;" width="171.6172" x="743" y="115"/><ellipse cx="758" cy="131" fill="#ADD1B2" rx="11" ry="11" style="stroke:#181818;stroke-width:1;"/><path d="M760.9688,136.6406 Q760.3906,136.9375 759.75,137.0781 Q759.1094,137.2344 758.4063,137.2344 Q755.9063,137.2344 754.5781,135.5938 Q753.2656,133.9375 753.2656,130.8125 Q753.2656,127.6875 754.5781,126.0313 Q755.9063,124.375 758.4063,124.375 Q759.1094,124.375 759.75,124.5313 Q760.4063,124.6875 760.9688,124.9844 L760.9688,127.7031 Q760.3438,127.125 759.75,126.8594 Q759.1563,126.5781 758.5313,126.5781 Q757.1875,126.5781 756.5,127.6563 Q755.8125,128.7188 755.8125,130.8125 Q755.8125,132.9063 756.5,133.9844 Q757.1875,135.0469 758.5313,135.0469 Q759.1563,135.0469 759.75,134.7813 Q760.3438,134.5 760.9688,133.9219 L760.9688,136.6406 Z " fill="#000000"/><text fill="#000000" font-family="sans-serif" font-size="14" lengthAdjust="spacing" textLength="139.6172" x="772" y="135.8467">ObservableProperty</text><line style="stroke:#181818;stroke-width:0.5;" x1="744" x2="913.6172" y1="147" y2="147"/><line style="stroke:#181818;stroke-width:0.5;" x1="744" x2="913.6172" y1="155" y2="155"/></g><!--class Procedure--><g class="entity" data-qualified-name="Procedure" data-source-line="6" id="ent0013"><rect fill="#F1F1F1" height="48" rx="2.5" ry="2.5" style="stroke:#181818;stroke-width:0.5;" width="103.2031" x="1726.5" y="7"/><ellipse cx="1741.5" cy="23" fill="#ADD1B2" rx="11" ry="11" style="stroke:#181818;stroke-width:1;"/><path d="M1744.4688,28.6406 Q1743.8906,28.9375 1743.25,29.0781 Q1742.6094,29.2344 1741.9063,29.2344 Q1739.4063,29.2344 1738.0781,27.5938 Q1736.7656,25.9375 1736.7656,22.8125 Q1736.7656,19.6875 1738.0781,18.0313 Q1739.4063,16.375 1741.9063,16.375 Q1742.6094,16.375 1743.25,16.5313 Q1743.9063,16.6875 1744.4688,16.9844 L1744.4688,19.7031 Q1743.8438,19.125 1743.25,18.8594 Q1742.6563,18.5781 1742.0313,18.5781 Q1740.6875,18.5781 1740,19.6563 Q1739.3125,20.7188 1739.3125,22.8125 Q1739.3125,24.9063 1740,25.9844 Q1740.6875,27.0469 1742.0313,27.0469 Q1742.6563,27.0469 1743.25,26.7813 Q1743.8438,26.5 1744.4688,25.9219 L1744.4688,28.6406 Z " fill="#000000"/><text fill="#000000" font-family="sans-serif" font-size="14" lengthAdjust="spacing" textLength="71.2031" x="1755.5" y="27.8467">Procedure</text><line style="stroke:#181818;stroke-width:0.5;" x1="1727.5" x2="1828.7031" y1="39" y2="39"/><line style="stroke:#181818;stroke-width:0.5;" x1="1727.5" x2="1828.7031" y1="47" y2="47"/></g><!--class ActuatingProcedure--><g class="entity" data-qualified-name="ActuatingProcedure" data-source-line="6" id="ent0014"><rect fill="#F1F1F1" height="48" rx="2.5" ry="2.5" style="stroke:#181818;stroke-width:0.5;" width="170.5576" x="1484.5" y="115"/><ellipse cx="1499.5" cy="131" fill="#ADD1B2" rx="11" ry="11" style="stroke:#181818;stroke-width:1;"/><path d="M1502.4688,136.6406 Q1501.8906,136.9375 1501.25,137.0781 Q1500.6094,137.2344 1499.9063,137.2344 Q1497.4063,137.2344 1496.0781,135.5938 Q1494.7656,133.9375 1494.7656,130.8125 Q1494.7656,127.6875 1496.0781,126.0313 Q1497.4063,124.375 1499.9063,124.375 Q1500.6094,124.375 1501.25,124.5313 Q1501.9063,124.6875 1502.4688,124.9844 L1502.4688,127.7031 Q1501.8438,127.125 1501.25,126.8594 Q1500.6563,126.5781 1500.0313,126.5781 Q1498.6875,126.5781 1498,127.6563 Q1497.3125,128.7188 1497.3125,130.8125 Q1497.3125,132.9063 1498,133.9844 Q1498.6875,135.0469 1500.0313,135.0469 Q1500.6563,135.0469 1501.25,134.7813 Q1501.8438,134.5 1502.4688,133.9219 L1502.4688,136.6406 Z " fill="#000000"/><text fill="#000000" font-family="sans-serif" font-size="14" lengthAdjust="spacing" textLength="138.5576" x="1513.5" y="135.8467">ActuatingProcedure</text><line style="stroke:#181818;stroke-width:0.5;" x1="1485.5" x2="1654.0576" y1="147" y2="147"/><line style="stroke:#181818;stroke-width:0.5;" x1="1485.5" x2="1654.0576" y1="155" y2="155"/></g><!--class ObservingProcedure--><g class="entity" data-qualified-name="ObservingProcedure" data-source-line="7" id="ent0016"><rect fill="#F1F1F1" height="48" rx="2.5" ry="2.5" style="stroke:#181818;stroke-width:0.5;" width="174.707" x="1690.5" y="115"/><ellipse cx="1705.5" cy="131" fill="#ADD1B2" rx="11" ry="11" style="stroke:#181818;stroke-width:1;"/><path d="M1708.4688,136.6406 Q1707.8906,136.9375 1707.25,137.0781 Q1706.6094,137.2344 1705.9063,137.2344 Q1703.4063,137.2344 1702.0781,135.5938 Q1700.7656,133.9375 1700.7656,130.8125 Q1700.7656,127.6875 1702.0781,126.0313 Q1703.4063,124.375 1705.9063,124.375 Q1706.6094,124.375 1707.25,124.5313 Q1707.9063,124.6875 1708.4688,124.9844 L1708.4688,127.7031 Q1707.8438,127.125 1707.25,126.8594 Q1706.6563,126.5781 1706.0313,126.5781 Q1704.6875,126.5781 1704,127.6563 Q1703.3125,128.7188 1703.3125,130.8125 Q1703.3125,132.9063 1704,133.9844 Q1704.6875,135.0469 1706.0313,135.0469 Q1706.6563,135.0469 1707.25,134.7813 Q1707.8438,134.5 1708.4688,133.9219 L1708.4688,136.6406 Z " fill="#000000"/><text fill="#000000" font-family="sans-serif" font-size="14" lengthAdjust="spacing" textLength="142.707" x="1719.5" y="135.8467">ObservingProcedure</text><line style="stroke:#181818;stroke-width:0.5;" x1="1691.5" x2="1864.207" y1="147" y2="147"/><line style="stroke:#181818;stroke-width:0.5;" x1="1691.5" x2="1864.207" y1="155" y2="155"/></g><!--class SamplingProcedure--><g class="entity" data-qualified-name="SamplingProcedure" data-source-line="8" id="ent0018"><rect fill="#F1F1F1" height="48" rx="2.5" ry="2.5" style="stroke:#181818;stroke-width:0.5;" width="168.7324" x="1900.5" y="115"/><ellipse cx="1915.5" cy="131" fill="#ADD1B2" rx="11" ry="11" style="stroke:#181818;stroke-width:1;"/><path d="M1918.4688,136.6406 Q1917.8906,136.9375 1917.25,137.0781 Q1916.6094,137.2344 1915.9063,137.2344 Q1913.4063,137.2344 1912.0781,135.5938 Q1910.7656,133.9375 1910.7656,130.8125 Q1910.7656,127.6875 1912.0781,126.0313 Q1913.4063,124.375 1915.9063,124.375 Q1916.6094,124.375 1917.25,124.5313 Q1917.9063,124.6875 1918.4688,124.9844 L1918.4688,127.7031 Q1917.8438,127.125 1917.25,126.8594 Q1916.6563,126.5781 1916.0313,126.5781 Q1914.6875,126.5781 1914,127.6563 Q1913.3125,128.7188 1913.3125,130.8125 Q1913.3125,132.9063 1914,133.9844 Q1914.6875,135.0469 1916.0313,135.0469 Q1916.6563,135.0469 1917.25,134.7813 Q1917.8438,134.5 1918.4688,133.9219 L1918.4688,136.6406 Z " fill="#000000"/><text fill="#000000" font-family="sans-serif" font-size="14" lengthAdjust="spacing" textLength="136.7324" x="1929.5" y="135.8467">SamplingProcedure</text><line style="stroke:#181818;stroke-width:0.5;" x1="1901.5" x2="2068.2324" y1="147" y2="147"/><line style="stroke:#181818;stroke-width:0.5;" x1="1901.5" x2="2068.2324" y1="155" y2="155"/></g><!--class Asset--><g class="entity" data-qualified-name="Asset" data-source-line="9" id="ent0020"><rect fill="#F1F1F1" height="48" rx="2.5" ry="2.5" style="stroke:#181818;stroke-width:0.5;" width="70.2676" x="2176" y="7"/><ellipse cx="2191" cy="23" fill="#ADD1B2" rx="11" ry="11" style="stroke:#181818;stroke-width:1;"/><path d="M2193.9688,28.6406 Q2193.3906,28.9375 2192.75,29.0781 Q2192.1094,29.2344 2191.4063,29.2344 Q2188.9063,29.2344 2187.5781,27.5938 Q2186.2656,25.9375 2186.2656,22.8125 Q2186.2656,19.6875 2187.5781,18.0313 Q2188.9063,16.375 2191.4063,16.375 Q2192.1094,16.375 2192.75,16.5313 Q2193.4063,16.6875 2193.9688,16.9844 L2193.9688,19.7031 Q2193.3438,19.125 2192.75,18.8594 Q2192.1563,18.5781 2191.5313,18.5781 Q2190.1875,18.5781 2189.5,19.6563 Q2188.8125,20.7188 2188.8125,22.8125 Q2188.8125,24.9063 2189.5,25.9844 Q2190.1875,27.0469 2191.5313,27.0469 Q2192.1563,27.0469 2192.75,26.7813 Q2193.3438,26.5 2193.9688,25.9219 L2193.9688,28.6406 Z " fill="#000000"/><text fill="#000000" font-family="sans-serif" font-size="14" lengthAdjust="spacing" textLength="38.2676" x="2205" y="27.8467">Asset</text><line style="stroke:#181818;stroke-width:0.5;" x1="2177" x2="2245.2676" y1="39" y2="39"/><line style="stroke:#181818;stroke-width:0.5;" x1="2177" x2="2245.2676" y1="47" y2="47"/></g><!--class Platform--><g class="entity" data-qualified-name="Platform" data-source-line="9" id="ent0021"><rect fill="#F1F1F1" height="48" rx="2.5" ry="2.5" style="stroke:#181818;stroke-width:0.5;" width="91.2881" x="2104.5" y="115"/><ellipse cx="2119.5" cy="131" fill="#ADD1B2" rx="11" ry="11" style="stroke:#181818;stroke-width:1;"/><path d="M2122.4688,136.6406 Q2121.8906,136.9375 2121.25,137.0781 Q2120.6094,137.2344 2119.9063,137.2344 Q2117.4063,137.2344 2116.0781,135.5938 Q2114.7656,133.9375 2114.7656,130.8125 Q2114.7656,127.6875 2116.0781,126.0313 Q2117.4063,124.375 2119.9063,124.375 Q2120.6094,124.375 2121.25,124.5313 Q2121.9063,124.6875 2122.4688,124.9844 L2122.4688,127.7031 Q2121.8438,127.125 2121.25,126.8594 Q2120.6563,126.5781 2120.0313,126.5781 Q2118.6875,126.5781 2118,127.6563 Q2117.3125,128.7188 2117.3125,130.8125 Q2117.3125,132.9063 2118,133.9844 Q2118.6875,135.0469 2120.0313,135.0469 Q2120.6563,135.0469 2121.25,134.7813 Q2121.8438,134.5 2122.4688,133.9219 L2122.4688,136.6406 Z " fill="#000000"/><text fill="#000000" font-family="sans-serif" font-size="14" lengthAdjust="spacing" textLength="59.2881" x="2133.5" y="135.8467">Platform</text><line style="stroke:#181818;stroke-width:0.5;" x1="2105.5" x2="2194.7881" y1="147" y2="147"/><line style="stroke:#181818;stroke-width:0.5;" x1="2105.5" x2="2194.7881" y1="155" y2="155"/></g><!--class System--><g class="entity" data-qualified-name="System" data-source-line="10" id="ent0023"><rect fill="#F1F1F1" height="48" rx="2.5" ry="2.5" style="stroke:#181818;stroke-width:0.5;" width="84.2061" x="2231" y="115"/><ellipse cx="2246" cy="131" fill="#ADD1B2" rx="11" ry="11" style="stroke:#181818;stroke-width:1;"/><path d="M2248.9688,136.6406 Q2248.3906,136.9375 2247.75,137.0781 Q2247.1094,137.2344 2246.4063,137.2344 Q2243.9063,137.2344 2242.5781,135.5938 Q2241.2656,133.9375 2241.2656,130.8125 Q2241.2656,127.6875 2242.5781,126.0313 Q2243.9063,124.375 2246.4063,124.375 Q2247.1094,124.375 2247.75,124.5313 Q2248.4063,124.6875 2248.9688,124.9844 L2248.9688,127.7031 Q2248.3438,127.125 2247.75,126.8594 Q2247.1563,126.5781 2246.5313,126.5781 Q2245.1875,126.5781 2244.5,127.6563 Q2243.8125,128.7188 2243.8125,130.8125 Q2243.8125,132.9063 2244.5,133.9844 Q2245.1875,135.0469 2246.5313,135.0469 Q2247.1563,135.0469 2247.75,134.7813 Q2248.3438,134.5 2248.9688,133.9219 L2248.9688,136.6406 Z " fill="#000000"/><text fill="#000000" font-family="sans-serif" font-size="14" lengthAdjust="spacing" textLength="52.2061" x="2260" y="135.8467">System</text><line style="stroke:#181818;stroke-width:0.5;" x1="2232" x2="2314.2061" y1="147" y2="147"/><line style="stroke:#181818;stroke-width:0.5;" x1="2232" x2="2314.2061" y1="155" y2="155"/></g><!--class Sampler--><g class="entity" data-qualified-name="Sampler" data-source-line="10" id="ent0024"><rect fill="#F1F1F1" height="48" rx="2.5" ry="2.5" style="stroke:#181818;stroke-width:0.5;" width="90.249" x="2102" y="223"/><ellipse cx="2117" cy="239" fill="#ADD1B2" rx="11" ry="11" style="stroke:#181818;stroke-width:1;"/><path d="M2119.9688,244.6406 Q2119.3906,244.9375 2118.75,245.0781 Q2118.1094,245.2344 2117.4063,245.2344 Q2114.9063,245.2344 2113.5781,243.5938 Q2112.2656,241.9375 2112.2656,238.8125 Q2112.2656,235.6875 2113.5781,234.0313 Q2114.9063,232.375 2117.4063,232.375 Q2118.1094,232.375 2118.75,232.5313 Q2119.4063,232.6875 2119.9688,232.9844 L2119.9688,235.7031 Q2119.3438,235.125 2118.75,234.8594 Q2118.1563,234.5781 2117.5313,234.5781 Q2116.1875,234.5781 2115.5,235.6563 Q2114.8125,236.7188 2114.8125,238.8125 Q2114.8125,240.9063 2115.5,241.9844 Q2116.1875,243.0469 2117.5313,243.0469 Q2118.1563,243.0469 2118.75,242.7813 Q2119.3438,242.5 2119.9688,241.9219 L2119.9688,244.6406 Z " fill="#000000"/><text fill="#000000" font-family="sans-serif" font-size="14" lengthAdjust="spacing" textLength="58.249" x="2131" y="243.8467">Sampler</text><line style="stroke:#181818;stroke-width:0.5;" x1="2103" x2="2191.249" y1="255" y2="255"/><line style="stroke:#181818;stroke-width:0.5;" x1="2103" x2="2191.249" y1="263" y2="263"/></g><!--class Actuator--><g class="entity" data-qualified-name="Actuator" data-source-line="11" id="ent0026"><rect fill="#F1F1F1" height="48" rx="2.5" ry="2.5" style="stroke:#181818;stroke-width:0.5;" width="92.0264" x="2227" y="223"/><ellipse cx="2242" cy="239" fill="#ADD1B2" rx="11" ry="11" style="stroke:#181818;stroke-width:1;"/><path d="M2244.9688,244.6406 Q2244.3906,244.9375 2243.75,245.0781 Q2243.1094,245.2344 2242.4063,245.2344 Q2239.9063,245.2344 2238.5781,243.5938 Q2237.2656,241.9375 2237.2656,238.8125 Q2237.2656,235.6875 2238.5781,234.0313 Q2239.9063,232.375 2242.4063,232.375 Q2243.1094,232.375 2243.75,232.5313 Q2244.4063,232.6875 2244.9688,232.9844 L2244.9688,235.7031 Q2244.3438,235.125 2243.75,234.8594 Q2243.1563,234.5781 2242.5313,234.5781 Q2241.1875,234.5781 2240.5,235.6563 Q2239.8125,236.7188 2239.8125,238.8125 Q2239.8125,240.9063 2240.5,241.9844 Q2241.1875,243.0469 2242.5313,243.0469 Q2243.1563,243.0469 2243.75,242.7813 Q2244.3438,242.5 2244.9688,241.9219 L2244.9688,244.6406 Z " fill="#000000"/><text fill="#000000" font-family="sans-serif" font-size="14" lengthAdjust="spacing" textLength="60.0264" x="2256" y="243.8467">Actuator</text><line style="stroke:#181818;stroke-width:0.5;" x1="2228" x2="2318.0264" y1="255" y2="255"/><line style="stroke:#181818;stroke-width:0.5;" x1="2228" x2="2318.0264" y1="263" y2="263"/></g><!--class Execution--><g class="entity" data-qualified-name="Execution" data-source-line="13" id="ent0029"><rect fill="#F1F1F1" height="48" rx="2.5" ry="2.5" style="stroke:#181818;stroke-width:0.5;" width="101.1318" x="2482.5" y="7"/><ellipse cx="2497.5" cy="23" fill="#ADD1B2" rx="11" ry="11" style="stroke:#181818;stroke-width:1;"/><path d="M2500.4688,28.6406 Q2499.8906,28.9375 2499.25,29.0781 Q2498.6094,29.2344 2497.9063,29.2344 Q2495.4063,29.2344 2494.0781,27.5938 Q2492.7656,25.9375 2492.7656,22.8125 Q2492.7656,19.6875 2494.0781,18.0313 Q2495.4063,16.375 2497.9063,16.375 Q2498.6094,16.375 2499.25,16.5313 Q2499.9063,16.6875 2500.4688,16.9844 L2500.4688,19.7031 Q2499.8438,19.125 2499.25,18.8594 Q2498.6563,18.5781 2498.0313,18.5781 Q2496.6875,18.5781 2496,19.6563 Q2495.3125,20.7188 2495.3125,22.8125 Q2495.3125,24.9063 2496,25.9844 Q2496.6875,27.0469 2498.0313,27.0469 Q2498.6563,27.0469 2499.25,26.7813 Q2499.8438,26.5 2500.4688,25.9219 L2500.4688,28.6406 Z " fill="#000000"/><text fill="#000000" font-family="sans-serif" font-size="14" lengthAdjust="spacing" textLength="69.1318" x="2511.5" y="27.8467">Execution</text><line style="stroke:#181818;stroke-width:0.5;" x1="2483.5" x2="2582.6318" y1="39" y2="39"/><line style="stroke:#181818;stroke-width:0.5;" x1="2483.5" x2="2582.6318" y1="47" y2="47"/></g><!--class Sampling--><g class="entity" data-qualified-name="Sampling" data-source-line="13" id="ent0030"><rect fill="#F1F1F1" height="48" rx="2.5" ry="2.5" style="stroke:#181818;stroke-width:0.5;" width="97.5293" x="2350" y="115"/><ellipse cx="2365" cy="131" fill="#ADD1B2" rx="11" ry="11" style="stroke:#181818;stroke-width:1;"/><path d="M2367.9688,136.6406 Q2367.3906,136.9375 2366.75,137.0781 Q2366.1094,137.2344 2365.4063,137.2344 Q2362.9063,137.2344 2361.5781,135.5938 Q2360.2656,133.9375 2360.2656,130.8125 Q2360.2656,127.6875 2361.5781,126.0313 Q2362.9063,124.375 2365.4063,124.375 Q2366.1094,124.375 2366.75,124.5313 Q2367.4063,124.6875 2367.9688,124.9844 L2367.9688,127.7031 Q2367.3438,127.125 2366.75,126.8594 Q2366.1563,126.5781 2365.5313,126.5781 Q2364.1875,126.5781 2363.5,127.6563 Q2362.8125,128.7188 2362.8125,130.8125 Q2362.8125,132.9063 2363.5,133.9844 Q2364.1875,135.0469 2365.5313,135.0469 Q2366.1563,135.0469 2366.75,134.7813 Q2367.3438,134.5 2367.9688,133.9219 L2367.9688,136.6406 Z " fill="#000000"/><text fill="#000000" font-family="sans-serif" font-size="14" lengthAdjust="spacing" textLength="65.5293" x="2379" y="135.8467">Sampling</text><line style="stroke:#181818;stroke-width:0.5;" x1="2351" x2="2446.5293" y1="147" y2="147"/><line style="stroke:#181818;stroke-width:0.5;" x1="2351" x2="2446.5293" y1="155" y2="155"/></g><!--class ExecutionCollection--><g class="entity" data-qualified-name="ExecutionCollection" data-source-line="14" id="ent0032"><rect fill="#F1F1F1" height="48" rx="2.5" ry="2.5" style="stroke:#181818;stroke-width:0.5;" width="170.3799" x="2970" y="7"/><ellipse cx="2985" cy="23" fill="#ADD1B2" rx="11" ry="11" style="stroke:#181818;stroke-width:1;"/><path d="M2987.9688,28.6406 Q2987.3906,28.9375 2986.75,29.0781 Q2986.1094,29.2344 2985.4063,29.2344 Q2982.9063,29.2344 2981.5781,27.5938 Q2980.2656,25.9375 2980.2656,22.8125 Q2980.2656,19.6875 2981.5781,18.0313 Q2982.9063,16.375 2985.4063,16.375 Q2986.1094,16.375 2986.75,16.5313 Q2987.4063,16.6875 2987.9688,16.9844 L2987.9688,19.7031 Q2987.3438,19.125 2986.75,18.8594 Q2986.1563,18.5781 2985.5313,18.5781 Q2984.1875,18.5781 2983.5,19.6563 Q2982.8125,20.7188 2982.8125,22.8125 Q2982.8125,24.9063 2983.5,25.9844 Q2984.1875,27.0469 2985.5313,27.0469 Q2986.1563,27.0469 2986.75,26.7813 Q2987.3438,26.5 2987.9688,25.9219 L2987.9688,28.6406 Z " fill="#000000"/><text fill="#000000" font-family="sans-serif" font-size="14" lengthAdjust="spacing" textLength="138.3799" x="2999" y="27.8467">ExecutionCollection</text><line style="stroke:#181818;stroke-width:0.5;" x1="2971" x2="3139.3799" y1="39" y2="39"/><line style="stroke:#181818;stroke-width:0.5;" x1="2971" x2="3139.3799" y1="47" y2="47"/></g><!--class SamplingCollection--><g class="entity" data-qualified-name="SamplingCollection" data-source-line="14" id="ent0033"><rect fill="#F1F1F1" height="48" rx="2.5" ry="2.5" style="stroke:#181818;stroke-width:0.5;" width="166.7773" x="2769.5" y="115"/><ellipse cx="2784.5" cy="131" fill="#ADD1B2" rx="11" ry="11" style="stroke:#181818;stroke-width:1;"/><path d="M2787.4688,136.6406 Q2786.8906,136.9375 2786.25,137.0781 Q2785.6094,137.2344 2784.9063,137.2344 Q2782.4063,137.2344 2781.0781,135.5938 Q2779.7656,133.9375 2779.7656,130.8125 Q2779.7656,127.6875 2781.0781,126.0313 Q2782.4063,124.375 2784.9063,124.375 Q2785.6094,124.375 2786.25,124.5313 Q2786.9063,124.6875 2787.4688,124.9844 L2787.4688,127.7031 Q2786.8438,127.125 2786.25,126.8594 Q2785.6563,126.5781 2785.0313,126.5781 Q2783.6875,126.5781 2783,127.6563 Q2782.3125,128.7188 2782.3125,130.8125 Q2782.3125,132.9063 2783,133.9844 Q2783.6875,135.0469 2785.0313,135.0469 Q2785.6563,135.0469 2786.25,134.7813 Q2786.8438,134.5 2787.4688,133.9219 L2787.4688,136.6406 Z " fill="#000000"/><text fill="#000000" font-family="sans-serif" font-size="14" lengthAdjust="spacing" textLength="134.7773" x="2798.5" y="135.8467">SamplingCollection</text><line style="stroke:#181818;stroke-width:0.5;" x1="2770.5" x2="2935.2773" y1="147" y2="147"/><line style="stroke:#181818;stroke-width:0.5;" x1="2770.5" x2="2935.2773" y1="155" y2="155"/></g><!--class Actuation--><g class="entity" data-qualified-name="Actuation" data-source-line="15" id="ent0035"><rect fill="#F1F1F1" height="48" rx="2.5" ry="2.5" style="stroke:#181818;stroke-width:0.5;" width="99.0332" x="2483.5" y="115"/><ellipse cx="2498.5" cy="131" fill="#ADD1B2" rx="11" ry="11" style="stroke:#181818;stroke-width:1;"/><path d="M2501.4688,136.6406 Q2500.8906,136.9375 2500.25,137.0781 Q2499.6094,137.2344 2498.9063,137.2344 Q2496.4063,137.2344 2495.0781,135.5938 Q2493.7656,133.9375 2493.7656,130.8125 Q2493.7656,127.6875 2495.0781,126.0313 Q2496.4063,124.375 2498.9063,124.375 Q2499.6094,124.375 2500.25,124.5313 Q2500.9063,124.6875 2501.4688,124.9844 L2501.4688,127.7031 Q2500.8438,127.125 2500.25,126.8594 Q2499.6563,126.5781 2499.0313,126.5781 Q2497.6875,126.5781 2497,127.6563 Q2496.3125,128.7188 2496.3125,130.8125 Q2496.3125,132.9063 2497,133.9844 Q2497.6875,135.0469 2499.0313,135.0469 Q2499.6563,135.0469 2500.25,134.7813 Q2500.8438,134.5 2501.4688,133.9219 L2501.4688,136.6406 Z " fill="#000000"/><text fill="#000000" font-family="sans-serif" font-size="14" lengthAdjust="spacing" textLength="67.0332" x="2512.5" y="135.8467">Actuation</text><line style="stroke:#181818;stroke-width:0.5;" x1="2484.5" x2="2581.5332" y1="147" y2="147"/><line style="stroke:#181818;stroke-width:0.5;" x1="2484.5" x2="2581.5332" y1="155" y2="155"/></g><!--class Sensor--><g class="entity" data-qualified-name="Sensor" data-source-line="16" id="ent0037"><rect fill="#F1F1F1" height="48" rx="2.5" ry="2.5" style="stroke:#181818;stroke-width:0.5;" width="79.9883" x="2354" y="223"/><ellipse cx="2369" cy="239" fill="#ADD1B2" rx="11" ry="11" style="stroke:#181818;stroke-width:1;"/><path d="M2371.9688,244.6406 Q2371.3906,244.9375 2370.75,245.0781 Q2370.1094,245.2344 2369.4063,245.2344 Q2366.9063,245.2344 2365.5781,243.5938 Q2364.2656,241.9375 2364.2656,238.8125 Q2364.2656,235.6875 2365.5781,234.0313 Q2366.9063,232.375 2369.4063,232.375 Q2370.1094,232.375 2370.75,232.5313 Q2371.4063,232.6875 2371.9688,232.9844 L2371.9688,235.7031 Q2371.3438,235.125 2370.75,234.8594 Q2370.1563,234.5781 2369.5313,234.5781 Q2368.1875,234.5781 2367.5,235.6563 Q2366.8125,236.7188 2366.8125,238.8125 Q2366.8125,240.9063 2367.5,241.9844 Q2368.1875,243.0469 2369.5313,243.0469 Q2370.1563,243.0469 2370.75,242.7813 Q2371.3438,242.5 2371.9688,241.9219 L2371.9688,244.6406 Z " fill="#000000"/><text fill="#000000" font-family="sans-serif" font-size="14" lengthAdjust="spacing" textLength="47.9883" x="2383" y="243.8467">Sensor</text><line style="stroke:#181818;stroke-width:0.5;" x1="2355" x2="2432.9883" y1="255" y2="255"/><line style="stroke:#181818;stroke-width:0.5;" x1="2355" x2="2432.9883" y1="263" y2="263"/></g><!--class ActuationCollection--><g class="entity" data-qualified-name="ActuationCollection" data-source-line="17" id="ent0039"><rect fill="#F1F1F1" height="48" rx="2.5" ry="2.5" style="stroke:#181818;stroke-width:0.5;" width="168.2813" x="2971" y="115"/><ellipse cx="2986" cy="131" fill="#ADD1B2" rx="11" ry="11" style="stroke:#181818;stroke-width:1;"/><path d="M2988.9688,136.6406 Q2988.3906,136.9375 2987.75,137.0781 Q2987.1094,137.2344 2986.4063,137.2344 Q2983.9063,137.2344 2982.5781,135.5938 Q2981.2656,133.9375 2981.2656,130.8125 Q2981.2656,127.6875 2982.5781,126.0313 Q2983.9063,124.375 2986.4063,124.375 Q2987.1094,124.375 2987.75,124.5313 Q2988.4063,124.6875 2988.9688,124.9844 L2988.9688,127.7031 Q2988.3438,127.125 2987.75,126.8594 Q2987.1563,126.5781 2986.5313,126.5781 Q2985.1875,126.5781 2984.5,127.6563 Q2983.8125,128.7188 2983.8125,130.8125 Q2983.8125,132.9063 2984.5,133.9844 Q2985.1875,135.0469 2986.5313,135.0469 Q2987.1563,135.0469 2987.75,134.7813 Q2988.3438,134.5 2988.9688,133.9219 L2988.9688,136.6406 Z " fill="#000000"/><text fill="#000000" font-family="sans-serif" font-size="14" lengthAdjust="spacing" textLength="136.2813" x="3000" y="135.8467">ActuationCollection</text><line style="stroke:#181818;stroke-width:0.5;" x1="2972" x2="3138.2813" y1="147" y2="147"/><line style="stroke:#181818;stroke-width:0.5;" x1="2972" x2="3138.2813" y1="155" y2="155"/></g><!--class ObservationCollection--><g class="entity" data-qualified-name="ObservationCollection" data-source-line="18" id="ent0041"><rect fill="#F1F1F1" height="48" rx="2.5" ry="2.5" style="stroke:#181818;stroke-width:0.5;" width="186.499" x="3174" y="115"/><ellipse cx="3189" cy="131" fill="#ADD1B2" rx="11" ry="11" style="stroke:#181818;stroke-width:1;"/><path d="M3191.9688,136.6406 Q3191.3906,136.9375 3190.75,137.0781 Q3190.1094,137.2344 3189.4063,137.2344 Q3186.9063,137.2344 3185.5781,135.5938 Q3184.2656,133.9375 3184.2656,130.8125 Q3184.2656,127.6875 3185.5781,126.0313 Q3186.9063,124.375 3189.4063,124.375 Q3190.1094,124.375 3190.75,124.5313 Q3191.4063,124.6875 3191.9688,124.9844 L3191.9688,127.7031 Q3191.3438,127.125 3190.75,126.8594 Q3190.1563,126.5781 3189.5313,126.5781 Q3188.1875,126.5781 3187.5,127.6563 Q3186.8125,128.7188 3186.8125,130.8125 Q3186.8125,132.9063 3187.5,133.9844 Q3188.1875,135.0469 3189.5313,135.0469 Q3190.1563,135.0469 3190.75,134.7813 Q3191.3438,134.5 3191.9688,133.9219 L3191.9688,136.6406 Z " fill="#000000"/><text fill="#000000" font-family="sans-serif" font-size="14" lengthAdjust="spacing" textLength="154.499" x="3203" y="135.8467">ObservationCollection</text><line style="stroke:#181818;stroke-width:0.5;" x1="3175" x2="3359.499" y1="147" y2="147"/><line style="stroke:#181818;stroke-width:0.5;" x1="3175" x2="3359.499" y1="155" y2="155"/></g><!--class Observation--><g class="entity" data-qualified-name="Observation" data-source-line="19" id="ent0043"><rect fill="#F1F1F1" height="48" rx="2.5" ry="2.5" style="stroke:#181818;stroke-width:0.5;" width="117.251" x="2617.5" y="115"/><ellipse cx="2632.5" cy="131" fill="#ADD1B2" rx="11" ry="11" style="stroke:#181818;stroke-width:1;"/><path d="M2635.4688,136.6406 Q2634.8906,136.9375 2634.25,137.0781 Q2633.6094,137.2344 2632.9063,137.2344 Q2630.4063,137.2344 2629.0781,135.5938 Q2627.7656,133.9375 2627.7656,130.8125 Q2627.7656,127.6875 2629.0781,126.0313 Q2630.4063,124.375 2632.9063,124.375 Q2633.6094,124.375 2634.25,124.5313 Q2634.9063,124.6875 2635.4688,124.9844 L2635.4688,127.7031 Q2634.8438,127.125 2634.25,126.8594 Q2633.6563,126.5781 2633.0313,126.5781 Q2631.6875,126.5781 2631,127.6563 Q2630.3125,128.7188 2630.3125,130.8125 Q2630.3125,132.9063 2631,133.9844 Q2631.6875,135.0469 2633.0313,135.0469 Q2633.6563,135.0469 2634.25,134.7813 Q2634.8438,134.5 2635.4688,133.9219 L2635.4688,136.6406 Z " fill="#000000"/><text fill="#000000" font-family="sans-serif" font-size="14" lengthAdjust="spacing" textLength="85.251" x="2646.5" y="135.8467">Observation</text><line style="stroke:#181818;stroke-width:0.5;" x1="2618.5" x2="2733.751" y1="147" y2="147"/><line style="stroke:#181818;stroke-width:0.5;" x1="2618.5" x2="2733.751" y1="155" y2="155"/></g><!--class Input--><g class="entity" data-qualified-name="Input" data-source-line="22" id="ent0045"><rect fill="#F1F1F1" height="48" rx="2.5" ry="2.5" style="stroke:#181818;stroke-width:0.5;" width="68.251" x="32" y="7"/><ellipse cx="47" cy="23" fill="#ADD1B2" rx="11" ry="11" style="stroke:#181818;stroke-width:1;"/><path d="M49.9688,28.6406 Q49.3906,28.9375 48.75,29.0781 Q48.1094,29.2344 47.4063,29.2344 Q44.9063,29.2344 43.5781,27.5938 Q42.2656,25.9375 42.2656,22.8125 Q42.2656,19.6875 43.5781,18.0313 Q44.9063,16.375 47.4063,16.375 Q48.1094,16.375 48.75,16.5313 Q49.4063,16.6875 49.9688,16.9844 L49.9688,19.7031 Q49.3438,19.125 48.75,18.8594 Q48.1563,18.5781 47.5313,18.5781 Q46.1875,18.5781 45.5,19.6563 Q44.8125,20.7188 44.8125,22.8125 Q44.8125,24.9063 45.5,25.9844 Q46.1875,27.0469 47.5313,27.0469 Q48.1563,27.0469 48.75,26.7813 Q49.3438,26.5 49.9688,25.9219 L49.9688,28.6406 Z " fill="#000000"/><text fill="#000000" font-family="sans-serif" font-size="14" lengthAdjust="spacing" textLength="36.251" x="61" y="27.8467">Input</text><line style="stroke:#181818;stroke-width:0.5;" x1="33" x2="99.251" y1="39" y2="39"/><line style="stroke:#181818;stroke-width:0.5;" x1="33" x2="99.251" y1="47" y2="47"/></g><!--class Stimulus--><g class="entity" data-qualified-name="Stimulus" data-source-line="23" id="ent0046"><rect fill="#F1F1F1" height="48" rx="2.5" ry="2.5" style="stroke:#181818;stroke-width:0.5;" width="92.833" x="135.5" y="7"/><ellipse cx="150.5" cy="23" fill="#ADD1B2" rx="11" ry="11" style="stroke:#181818;stroke-width:1;"/><path d="M153.4688,28.6406 Q152.8906,28.9375 152.25,29.0781 Q151.6094,29.2344 150.9063,29.2344 Q148.4063,29.2344 147.0781,27.5938 Q145.7656,25.9375 145.7656,22.8125 Q145.7656,19.6875 147.0781,18.0313 Q148.4063,16.375 150.9063,16.375 Q151.6094,16.375 152.25,16.5313 Q152.9063,16.6875 153.4688,16.9844 L153.4688,19.7031 Q152.8438,19.125 152.25,18.8594 Q151.6563,18.5781 151.0313,18.5781 Q149.6875,18.5781 149,19.6563 Q148.3125,20.7188 148.3125,22.8125 Q148.3125,24.9063 149,25.9844 Q149.6875,27.0469 151.0313,27.0469 Q151.6563,27.0469 152.25,26.7813 Q152.8438,26.5 153.4688,25.9219 L153.4688,28.6406 Z " fill="#000000"/><text fill="#000000" font-family="sans-serif" font-size="14" lengthAdjust="spacing" textLength="60.833" x="164.5" y="27.8467">Stimulus</text><line style="stroke:#181818;stroke-width:0.5;" x1="136.5" x2="227.333" y1="39" y2="39"/><line style="stroke:#181818;stroke-width:0.5;" x1="136.5" x2="227.333" y1="47" y2="47"/></g><!--class Result--><g class="entity" data-qualified-name="Result" data-source-line="25" id="ent0047"><rect fill="#F1F1F1" height="48" rx="2.5" ry="2.5" style="stroke:#181818;stroke-width:0.5;" width="75.8867" x="264" y="7"/><ellipse cx="279" cy="23" fill="#ADD1B2" rx="11" ry="11" style="stroke:#181818;stroke-width:1;"/><path d="M281.9688,28.6406 Q281.3906,28.9375 280.75,29.0781 Q280.1094,29.2344 279.4063,29.2344 Q276.9063,29.2344 275.5781,27.5938 Q274.2656,25.9375 274.2656,22.8125 Q274.2656,19.6875 275.5781,18.0313 Q276.9063,16.375 279.4063,16.375 Q280.1094,16.375 280.75,16.5313 Q281.4063,16.6875 281.9688,16.9844 L281.9688,19.7031 Q281.3438,19.125 280.75,18.8594 Q280.1563,18.5781 279.5313,18.5781 Q278.1875,18.5781 277.5,19.6563 Q276.8125,20.7188 276.8125,22.8125 Q276.8125,24.9063 277.5,25.9844 Q278.1875,27.0469 279.5313,27.0469 Q280.1563,27.0469 280.75,26.7813 Q281.3438,26.5 281.9688,25.9219 L281.9688,28.6406 Z " fill="#000000"/><text fill="#000000" font-family="sans-serif" font-size="14" lengthAdjust="spacing" textLength="43.8867" x="293" y="27.8467">Result</text><line style="stroke:#181818;stroke-width:0.5;" x1="265" x2="338.8867" y1="39" y2="39"/><line style="stroke:#181818;stroke-width:0.5;" x1="265" x2="338.8867" y1="47" y2="47"/></g><!--class Deployment--><g class="entity" data-qualified-name="Deployment" data-source-line="26" id="ent0048"><rect fill="#F1F1F1" height="48" rx="2.5" ry="2.5" style="stroke:#181818;stroke-width:0.5;" width="117.6338" x="7" y="115"/><ellipse cx="22" cy="131" fill="#ADD1B2" rx="11" ry="11" style="stroke:#181818;stroke-width:1;"/><path d="M24.9688,136.6406 Q24.3906,136.9375 23.75,137.0781 Q23.1094,137.2344 22.4063,137.2344 Q19.9063,137.2344 18.5781,135.5938 Q17.2656,133.9375 17.2656,130.8125 Q17.2656,127.6875 18.5781,126.0313 Q19.9063,124.375 22.4063,124.375 Q23.1094,124.375 23.75,124.5313 Q24.4063,124.6875 24.9688,124.9844 L24.9688,127.7031 Q24.3438,127.125 23.75,126.8594 Q23.1563,126.5781 22.5313,126.5781 Q21.1875,126.5781 20.5,127.6563 Q19.8125,128.7188 19.8125,130.8125 Q19.8125,132.9063 20.5,133.9844 Q21.1875,135.0469 22.5313,135.0469 Q23.1563,135.0469 23.75,134.7813 Q24.3438,134.5 24.9688,133.9219 L24.9688,136.6406 Z " fill="#000000"/><text fill="#000000" font-family="sans-serif" font-size="14" lengthAdjust="spacing" textLength="85.6338" x="36" y="135.8467">Deployment</text><line style="stroke:#181818;stroke-width:0.5;" x1="8" x2="123.6338" y1="147" y2="147"/><line style="stroke:#181818;stroke-width:0.5;" x1="8" x2="123.6338" y1="155" y2="155"/></g><!--class FeatureOfInterest--><g class="entity" data-qualified-name="FeatureOfInterest" data-source-line="27" id="ent0049"><rect fill="#F1F1F1" height="48" rx="2.5" ry="2.5" style="stroke:#181818;stroke-width:0.5;" width="156.1816" x="160" y="115"/><ellipse cx="175" cy="131" fill="#ADD1B2" rx="11" ry="11" style="stroke:#181818;stroke-width:1;"/><path d="M177.9688,136.6406 Q177.3906,136.9375 176.75,137.0781 Q176.1094,137.2344 175.4063,137.2344 Q172.9063,137.2344 171.5781,135.5938 Q170.2656,133.9375 170.2656,130.8125 Q170.2656,127.6875 171.5781,126.0313 Q172.9063,124.375 175.4063,124.375 Q176.1094,124.375 176.75,124.5313 Q177.4063,124.6875 177.9688,124.9844 L177.9688,127.7031 Q177.3438,127.125 176.75,126.8594 Q176.1563,126.5781 175.5313,126.5781 Q174.1875,126.5781 173.5,127.6563 Q172.8125,128.7188 172.8125,130.8125 Q172.8125,132.9063 173.5,133.9844 Q174.1875,135.0469 175.5313,135.0469 Q176.1563,135.0469 176.75,134.7813 Q177.3438,134.5 177.9688,133.9219 L177.9688,136.6406 Z " fill="#000000"/><text fill="#000000" font-family="sans-serif" font-size="14" lengthAdjust="spacing" textLength="124.1816" x="189" y="135.8467">FeatureOfInterest</text><line style="stroke:#181818;stroke-width:0.5;" x1="161" x2="315.1816" y1="147" y2="147"/><line style="stroke:#181818;stroke-width:0.5;" x1="161" x2="315.1816" y1="155" y2="155"/></g><!--class SampleCollection--><g class="entity" data-qualified-name="SampleCollection" data-source-line="29" id="ent0050"><rect fill="#F1F1F1" height="48" rx="2.5" ry="2.5" style="stroke:#181818;stroke-width:0.5;" width="153.7412" x="351" y="115"/><ellipse cx="366" cy="131" fill="#ADD1B2" rx="11" ry="11" style="stroke:#181818;stroke-width:1;"/><path d="M368.9688,136.6406 Q368.3906,136.9375 367.75,137.0781 Q367.1094,137.2344 366.4063,137.2344 Q363.9063,137.2344 362.5781,135.5938 Q361.2656,133.9375 361.2656,130.8125 Q361.2656,127.6875 362.5781,126.0313 Q363.9063,124.375 366.4063,124.375 Q367.1094,124.375 367.75,124.5313 Q368.4063,124.6875 368.9688,124.9844 L368.9688,127.7031 Q368.3438,127.125 367.75,126.8594 Q367.1563,126.5781 366.5313,126.5781 Q365.1875,126.5781 364.5,127.6563 Q363.8125,128.7188 363.8125,130.8125 Q363.8125,132.9063 364.5,133.9844 Q365.1875,135.0469 366.5313,135.0469 Q367.1563,135.0469 367.75,134.7813 Q368.3438,134.5 368.9688,133.9219 L368.9688,136.6406 Z " fill="#000000"/><text fill="#000000" font-family="sans-serif" font-size="14" lengthAdjust="spacing" textLength="121.7412" x="380" y="135.8467">SampleCollection</text><line style="stroke:#181818;stroke-width:0.5;" x1="352" x2="503.7412" y1="147" y2="147"/><line style="stroke:#181818;stroke-width:0.5;" x1="352" x2="503.7412" y1="155" y2="155"/></g><!--class Output--><g class="entity" data-qualified-name="Output" data-source-line="30" id="ent0051"><rect fill="#F1F1F1" height="48" rx="2.5" ry="2.5" style="stroke:#181818;stroke-width:0.5;" width="80.6309" x="25.5" y="223"/><ellipse cx="40.5" cy="239" fill="#ADD1B2" rx="11" ry="11" style="stroke:#181818;stroke-width:1;"/><path d="M43.4688,244.6406 Q42.8906,244.9375 42.25,245.0781 Q41.6094,245.2344 40.9063,245.2344 Q38.4063,245.2344 37.0781,243.5938 Q35.7656,241.9375 35.7656,238.8125 Q35.7656,235.6875 37.0781,234.0313 Q38.4063,232.375 40.9063,232.375 Q41.6094,232.375 42.25,232.5313 Q42.9063,232.6875 43.4688,232.9844 L43.4688,235.7031 Q42.8438,235.125 42.25,234.8594 Q41.6563,234.5781 41.0313,234.5781 Q39.6875,234.5781 39,235.6563 Q38.3125,236.7188 38.3125,238.8125 Q38.3125,240.9063 39,241.9844 Q39.6875,243.0469 41.0313,243.0469 Q41.6563,243.0469 42.25,242.7813 Q42.8438,242.5 43.4688,241.9219 L43.4688,244.6406 Z " fill="#000000"/><text fill="#000000" font-family="sans-serif" font-size="14" lengthAdjust="spacing" textLength="48.6309" x="54.5" y="243.8467">Output</text><line style="stroke:#181818;stroke-width:0.5;" x1="26.5" x2="105.1309" y1="255" y2="255"/><line style="stroke:#181818;stroke-width:0.5;" x1="26.5" x2="105.1309" y1="263" y2="263"/></g><!--reverse link Property to ActuatableProperty--><g class="link" data-entity-1="ent0001" data-entity-2="ent0002" data-link-type="extension" data-source-line="1" id="lnk3"><path codeLine="1" d="M691.3905,67.9716 C674.4005,85.6316 663.51,96.94 646.44,114.68" fill="none" id="Property-backto-ActuatableProperty" style="stroke:#181818;stroke-width:1;"/><polygon fill="none" points="703.87,55,687.0667,63.8118,695.7144,72.1314,703.87,55" style="stroke:#181818;stroke-width:1;stroke-linejoin:miter;stroke-miterlimit:10;"/></g><!--reverse link Sample to MaterialSample--><g class="link" data-entity-1="ent0004" data-entity-2="ent0005" data-link-type="extension" data-source-line="2" id="lnk6"><path codeLine="2" d="M1140.3567,64.4445 C1111.6067,82.1645 1087.35,97.11 1058.55,114.86" fill="none" id="Sample-backto-MaterialSample" style="stroke:#181818;stroke-width:1;"/><polygon fill="none" points="1155.68,55,1137.2086,59.3367,1143.5049,69.5522,1155.68,55" style="stroke:#181818;stroke-width:1;stroke-linejoin:miter;stroke-miterlimit:10;"/></g><!--reverse link Sample to SpatialSample--><g class="link" data-entity-1="ent0004" data-entity-2="ent0007" data-link-type="extension" data-source-line="3" id="lnk8"><path codeLine="3" d="M1193,73 C1193,90.66 1193,96.94 1193,114.68" fill="none" id="Sample-backto-SpatialSample" style="stroke:#181818;stroke-width:1;"/><polygon fill="none" points="1193,55,1187,73,1199,73,1193,55" style="stroke:#181818;stroke-width:1;stroke-linejoin:miter;stroke-miterlimit:10;"/></g><!--reverse link Sample to StatisticalSample--><g class="link" data-entity-1="ent0004" data-entity-2="ent0009" data-link-type="extension" data-source-line="4" id="lnk10"><path codeLine="4" d="M1247.3276,64.1725 C1277.2476,81.8925 1302.95,97.11 1332.93,114.86" fill="none" id="Sample-backto-StatisticalSample" style="stroke:#181818;stroke-width:1;"/><polygon fill="none" points="1231.84,55,1244.2701,69.335,1250.3851,59.0099,1231.84,55" style="stroke:#181818;stroke-width:1;stroke-linejoin:miter;stroke-miterlimit:10;"/></g><!--reverse link Property to ObservableProperty--><g class="link" data-entity-1="ent0001" data-entity-2="ent0011" data-link-type="extension" data-source-line="5" id="lnk12"><path codeLine="5" d="M760.8939,67.9094 C778.0539,85.5694 789.1,96.94 806.34,114.68" fill="none" id="Property-backto-ObservableProperty" style="stroke:#181818;stroke-width:1;"/><polygon fill="none" points="748.35,55,756.5907,72.0906,765.197,63.7281,748.35,55" style="stroke:#181818;stroke-width:1;stroke-linejoin:miter;stroke-miterlimit:10;"/></g><!--reverse link Procedure to ActuatingProcedure--><g class="link" data-entity-1="ent0013" data-entity-2="ent0014" data-link-type="extension" data-source-line="6" id="lnk15"><path codeLine="6" d="M1716.8326,63.1732 C1682.0626,80.8932 1650.24,97.11 1615.4,114.86" fill="none" id="Procedure-backto-ActuatingProcedure" style="stroke:#181818;stroke-width:1;"/><polygon fill="none" points="1732.87,55,1714.1082,57.8274,1719.557,68.519,1732.87,55" style="stroke:#181818;stroke-width:1;stroke-linejoin:miter;stroke-miterlimit:10;"/></g><!--reverse link Procedure to ObservingProcedure--><g class="link" data-entity-1="ent0013" data-entity-2="ent0016" data-link-type="extension" data-source-line="7" id="lnk17"><path codeLine="7" d="M1778,73 C1778,90.66 1778,96.94 1778,114.68" fill="none" id="Procedure-backto-ObservingProcedure" style="stroke:#181818;stroke-width:1;"/><polygon fill="none" points="1778,55,1772,73,1784,73,1778,55" style="stroke:#181818;stroke-width:1;stroke-linejoin:miter;stroke-miterlimit:10;"/></g><!--reverse link Procedure to SamplingProcedure--><g class="link" data-entity-1="ent0013" data-entity-2="ent0018" data-link-type="extension" data-source-line="8" id="lnk19"><path codeLine="8" d="M1838.9411,63.205 C1873.5411,80.925 1905.15,97.11 1939.81,114.86" fill="none" id="Procedure-backto-SamplingProcedure" style="stroke:#181818;stroke-width:1;"/><polygon fill="none" points="1822.92,55,1836.2061,68.5454,1841.6762,57.8647,1822.92,55" style="stroke:#181818;stroke-width:1;stroke-linejoin:miter;stroke-miterlimit:10;"/></g><!--reverse link Asset to Platform--><g class="link" data-entity-1="ent0020" data-entity-2="ent0021" data-link-type="extension" data-source-line="9" id="lnk22"><path codeLine="9" d="M2188.7839,70.6022 C2178.6239,88.2622 2173.63,96.94 2163.42,114.68" fill="none" id="Asset-backto-Platform" style="stroke:#181818;stroke-width:1;"/><polygon fill="none" points="2197.76,55,2183.5831,67.6102,2193.9846,73.5943,2197.76,55" style="stroke:#181818;stroke-width:1;stroke-linejoin:miter;stroke-miterlimit:10;"/></g><!--reverse link System to Sampler--><g class="link" data-entity-1="ent0023" data-entity-2="ent0024" data-link-type="extension" data-source-line="10" id="lnk25"><path codeLine="10" d="M2231.8865,174.5884 C2210.8965,192.2484 2195.81,204.94 2174.72,222.68" fill="none" id="System-backto-Sampler" style="stroke:#181818;stroke-width:1;"/><polygon fill="none" points="2245.66,163,2228.0237,169.9972,2235.7493,179.1795,2245.66,163" style="stroke:#181818;stroke-width:1;stroke-linejoin:miter;stroke-miterlimit:10;"/></g><!--reverse link System to Actuator--><g class="link" data-entity-1="ent0023" data-entity-2="ent0026" data-link-type="extension" data-source-line="11" id="lnk27"><path codeLine="11" d="M2273,181 C2273,198.66 2273,204.94 2273,222.68" fill="none" id="System-backto-Actuator" style="stroke:#181818;stroke-width:1;"/><polygon fill="none" points="2273,163,2267,181,2279,181,2273,163" style="stroke:#181818;stroke-width:1;stroke-linejoin:miter;stroke-miterlimit:10;"/></g><!--reverse link Asset to System--><g class="link" data-entity-1="ent0020" data-entity-2="ent0023" data-link-type="extension" data-source-line="12" id="lnk28"><path codeLine="12" d="M2233.5383,70.5372 C2243.8683,88.1972 2248.98,96.94 2259.36,114.68" fill="none" id="Asset-backto-System" style="stroke:#181818;stroke-width:1;"/><polygon fill="none" points="2224.45,55,2228.3592,73.5666,2238.7173,67.5077,2224.45,55" style="stroke:#181818;stroke-width:1;stroke-linejoin:miter;stroke-miterlimit:10;"/></g><!--reverse link Execution to Sampling--><g class="link" data-entity-1="ent0029" data-entity-2="ent0030" data-link-type="extension" data-source-line="13" id="lnk31"><path codeLine="13" d="M2489.8041,66.1688 C2467.4841,83.8288 2450.91,96.94 2428.48,114.68" fill="none" id="Execution-backto-Sampling" style="stroke:#181818;stroke-width:1;"/><polygon fill="none" points="2503.92,55,2486.0812,61.4635,2493.527,70.8741,2503.92,55" style="stroke:#181818;stroke-width:1;stroke-linejoin:miter;stroke-miterlimit:10;"/></g><!--reverse link ExecutionCollection to SamplingCollection--><g class="link" data-entity-1="ent0032" data-entity-2="ent0033" data-link-type="extension" data-source-line="14" id="lnk34"><path codeLine="14" d="M2995.231,63.3636 C2961.461,81.0836 2930.93,97.11 2897.09,114.86" fill="none" id="ExecutionCollection-backto-SamplingCollection" style="stroke:#181818;stroke-width:1;"/><polygon fill="none" points="3011.17,55,2992.4432,58.0506,2998.0189,68.6766,3011.17,55" style="stroke:#181818;stroke-width:1;stroke-linejoin:miter;stroke-miterlimit:10;"/></g><!--reverse link Execution to Actuation--><g class="link" data-entity-1="ent0029" data-entity-2="ent0035" data-link-type="extension" data-source-line="15" id="lnk36"><path codeLine="15" d="M2533,73 C2533,90.66 2533,96.94 2533,114.68" fill="none" id="Execution-backto-Actuation" style="stroke:#181818;stroke-width:1;"/><polygon fill="none" points="2533,55,2527,73,2539,73,2533,55" style="stroke:#181818;stroke-width:1;stroke-linejoin:miter;stroke-miterlimit:10;"/></g><!--reverse link System to Sensor--><g class="link" data-entity-1="ent0023" data-entity-2="ent0037" data-link-type="extension" data-source-line="16" id="lnk38"><path codeLine="16" d="M2312.7968,174.864 C2332.9468,192.524 2347.13,204.94 2367.38,222.68" fill="none" id="System-backto-Sensor" style="stroke:#181818;stroke-width:1;"/><polygon fill="none" points="2299.26,163,2308.8421,179.3763,2316.7515,170.3518,2299.26,163" style="stroke:#181818;stroke-width:1;stroke-linejoin:miter;stroke-miterlimit:10;"/></g><!--reverse link ExecutionCollection to ActuationCollection--><g class="link" data-entity-1="ent0032" data-entity-2="ent0039" data-link-type="extension" data-source-line="17" id="lnk40"><path codeLine="17" d="M3055,73 C3055,90.66 3055,96.94 3055,114.68" fill="none" id="ExecutionCollection-backto-ActuationCollection" style="stroke:#181818;stroke-width:1;"/><polygon fill="none" points="3055,55,3049,73,3061,73,3055,55" style="stroke:#181818;stroke-width:1;stroke-linejoin:miter;stroke-miterlimit:10;"/></g><!--reverse link ExecutionCollection to ObservationCollection--><g class="link" data-entity-1="ent0032" data-entity-2="ent0041" data-link-type="extension" data-source-line="18" id="lnk42"><path codeLine="18" d="M3117.0997,63.0498 C3152.5397,80.7698 3185.22,97.11 3220.72,114.86" fill="none" id="ExecutionCollection-backto-ObservationCollection" style="stroke:#181818;stroke-width:1;"/><polygon fill="none" points="3101,55,3114.4164,68.4164,3119.783,57.6833,3101,55" style="stroke:#181818;stroke-width:1;stroke-linejoin:miter;stroke-miterlimit:10;"/></g><!--reverse link Execution to Observation--><g class="link" data-entity-1="ent0029" data-entity-2="ent0043" data-link-type="extension" data-source-line="19" id="lnk44"><path codeLine="19" d="M2578.4895,65.7202 C2602.3095,83.3802 2620.61,96.94 2644.54,114.68" fill="none" id="Execution-backto-Observation" style="stroke:#181818;stroke-width:1;"/><polygon fill="none" points="2564.03,55,2574.9161,70.54,2582.0629,60.9004,2564.03,55" style="stroke:#181818;stroke-width:1;stroke-linejoin:miter;stroke-miterlimit:10;"/></g><?plantuml-src VL99RiCm3Bpx5Vv0Vj1Bq0N8eR1Hlu1HcK80jK2aWXheuokKjcCvSM_Yp90p4jMd4379s3xz70xjqKW6WJDXF-7D02uIAlqEWia2ALPHGmJPOQGmBDOiR5zvTcV6TAqyoy7WPqwuJcNzru9l5JhZFyMVTIKuCgCesHF89IJN32CBkbK7fWhJ926jcvLlNh_HPB71rtut_3aGeRbNtF3jZEdUXQXoeUUIO7VkqlLey5OyFVwU_4xK60BcTjcKbjCJQ77oCSjCY7MPCZykFv0ppT8NZ1H6Xtu6tX2axAcxd7pvTSYxGbtKAhx2NPOIv1S0?></g></svg>