<svg xmlns="http://www.w3.org/2000/svg" xmlns:xlink="http://www.w3.org/1999/xlink" contentStyleType="text/css" data-diagram-type="CLASS" height="286px" preserveAspectRatio="none" style="width:3335px;height:286px;background:#FFFFFF;" version="1.1" viewBox="0 0 3335 286" width="3335px" zoomAndPan="magnify"><?plantuml 1.2026.5?><defs/><g><!--class Property--><g class="entity" data-qualified-name="Property" data-source-line="1" id="ent0001"><rect fill="#F1F1F1" height="48" rx="2.5" ry="2.5" style="stroke:#181818;stroke-width:0.5;" width="91.7939" x="640" y="7"/><ellipse cx="655" cy="23" fill="#ADD1B2" rx="11" ry="11" style="stroke:#181818;stroke-width:1;"/><path d="M657.9688,28.6406 Q657.3906,28.9375 656.75,29.0781 Q656.1094,29.2344 655.4063,29.2344 Q652.9063,29.2344 651.5781,27.5938 Q650.2656,25.9375 650.2656,22.8125 Q650.2656,19.6875 651.5781,18.0313 Q652.9063,16.375 655.4063,16.375 Q656.1094,16.375 656.75,16.5313 Q657.4063,16.6875 657.9688,16.9844 L657.9688,19.7031 Q657.3438,19.125 656.75,18.8594 Q656.1563,18.5781 655.5313,18.5781 Q654.1875,18.5781 653.5,19.6563 Q652.8125,20.7188 652.8125,22.8125 Q652.8125,24.9063 653.5,25.9844 Q654.1875,27.0469 655.5313,27.0469 Q656.1563,27.0469 656.75,26.7813 Q657.3438,26.5 657.9688,25.9219 L657.9688,28.6406 Z " fill="#000000"/><text fill="#000000" font-family="sans-serif" font-size="14" lengthAdjust="spacing" textLength="59.7939" x="669" y="27.8467">Property</text><line style="stroke:#181818;stroke-width:0.5;" x1="641" x2="730.7939" y1="39" y2="39"/><line style="stroke:#181818;stroke-width:0.5;" x1="641" x2="730.7939" y1="47" y2="47"/></g><!--class ActuatableProperty--><g class="entity" data-qualified-name="ActuatableProperty" data-source-line="1" id="ent0002"><rect fill="#F1F1F1" height="48" rx="2.5" ry="2.5" style="stroke:#181818;stroke-width:0.5;" width="167.4678" x="500.5" y="115"/><ellipse cx="515.5" cy="131" fill="#ADD1B2" rx="11" ry="11" style="stroke:#181818;stroke-width:1;"/><path d="M518.4688,136.6406 Q517.8906,136.9375 517.25,137.0781 Q516.6094,137.2344 515.9063,137.2344 Q513.4063,137.2344 512.0781,135.5938 Q510.7656,133.9375 510.7656,130.8125 Q510.7656,127.6875 512.0781,126.0313 Q513.4063,124.375 515.9063,124.375 Q516.6094,124.375 517.25,124.5313 Q517.9063,124.6875 518.4688,124.9844 L518.4688,127.7031 Q517.8438,127.125 517.25,126.8594 Q516.6563,126.5781 516.0313,126.5781 Q514.6875,126.5781 514,127.6563 Q513.3125,128.7188 513.3125,130.8125 Q513.3125,132.9063 514,133.9844 Q514.6875,135.0469 516.0313,135.0469 Q516.6563,135.0469 517.25,134.7813 Q517.8438,134.5 518.4688,133.9219 L518.4688,136.6406 Z " fill="#000000"/><text fill="#000000" font-family="sans-serif" font-size="14" lengthAdjust="spacing" textLength="135.4678" x="529.5" y="135.8467">ActuatableProperty</text><line style="stroke:#181818;stroke-width:0.5;" x1="501.5" x2="666.9678" y1="147" y2="147"/><line style="stroke:#181818;stroke-width:0.5;" x1="501.5" x2="666.9678" y1="155" y2="155"/></g><!--class Sample--><g class="entity" data-qualified-name="Sample" data-source-line="2" id="ent0004"><rect fill="#F1F1F1" height="48" rx="2.5" ry="2.5" style="stroke:#181818;stroke-width:0.5;" width="84.4932" x="1111" y="7"/><ellipse cx="1126" cy="23" fill="#ADD1B2" rx="11" ry="11" style="stroke:#181818;stroke-width:1;"/><path d="M1128.9688,28.6406 Q1128.3906,28.9375 1127.75,29.0781 Q1127.1094,29.2344 1126.4063,29.2344 Q1123.9063,29.2344 1122.5781,27.5938 Q1121.2656,25.9375 1121.2656,22.8125 Q1121.2656,19.6875 1122.5781,18.0313 Q1123.9063,16.375 1126.4063,16.375 Q1127.1094,16.375 1127.75,16.5313 Q1128.4063,16.6875 1128.9688,16.9844 L1128.9688,19.7031 Q1128.3438,19.125 1127.75,18.8594 Q1127.1563,18.5781 1126.5313,18.5781 Q1125.1875,18.5781 1124.5,19.6563 Q1123.8125,20.7188 1123.8125,22.8125 Q1123.8125,24.9063 1124.5,25.9844 Q1125.1875,27.0469 1126.5313,27.0469 Q1127.1563,27.0469 1127.75,26.7813 Q1128.3438,26.5 1128.9688,25.9219 L1128.9688,28.6406 Z " fill="#000000"/><text fill="#000000" font-family="sans-serif" font-size="14" lengthAdjust="spacing" textLength="52.4932" x="1140" y="27.8467">Sample</text><line style="stroke:#181818;stroke-width:0.5;" x1="1112" x2="1194.4932" y1="39" y2="39"/><line style="stroke:#181818;stroke-width:0.5;" x1="1112" x2="1194.4932" y1="47" y2="47"/></g><!--class MaterialSample--><g class="entity" data-qualified-name="MaterialSample" data-source-line="2" id="ent0005"><rect fill="#F1F1F1" height="48" rx="2.5" ry="2.5" style="stroke:#181818;stroke-width:0.5;" width="141.3682" x="910.5" y="115"/><ellipse cx="925.5" cy="131" fill="#ADD1B2" rx="11" ry="11" style="stroke:#181818;stroke-width:1;"/><path d="M928.4688,136.6406 Q927.8906,136.9375 927.25,137.0781 Q926.6094,137.2344 925.9063,137.2344 Q923.4063,137.2344 922.0781,135.5938 Q920.7656,133.9375 920.7656,130.8125 Q920.7656,127.6875 922.0781,126.0313 Q923.4063,124.375 925.9063,124.375 Q926.6094,124.375 927.25,124.5313 Q927.9063,124.6875 928.4688,124.9844 L928.4688,127.7031 Q927.8438,127.125 927.25,126.8594 Q926.6563,126.5781 926.0313,126.5781 Q924.6875,126.5781 924,127.6563 Q923.3125,128.7188 923.3125,130.8125 Q923.3125,132.9063 924,133.9844 Q924.6875,135.0469 926.0313,135.0469 Q926.6563,135.0469 927.25,134.7813 Q927.8438,134.5 928.4688,133.9219 L928.4688,136.6406 Z " fill="#000000"/><text fill="#000000" font-family="sans-serif" font-size="14" lengthAdjust="spacing" textLength="109.3682" x="939.5" y="135.8467">MaterialSample</text><line style="stroke:#181818;stroke-width:0.5;" x1="911.5" x2="1050.8682" y1="147" y2="147"/><line style="stroke:#181818;stroke-width:0.5;" x1="911.5" x2="1050.8682" y1="155" y2="155"/></g><!--class SpatialSample--><g class="entity" data-qualified-name="SpatialSample" data-source-line="3" id="ent0007"><rect fill="#F1F1F1" height="48" rx="2.5" ry="2.5" style="stroke:#181818;stroke-width:0.5;" width="132.6934" x="1086.5" y="115"/><ellipse cx="1101.5" cy="131" fill="#ADD1B2" rx="11" ry="11" style="stroke:#181818;stroke-width:1;"/><path d="M1104.4688,136.6406 Q1103.8906,136.9375 1103.25,137.0781 Q1102.6094,137.2344 1101.9063,137.2344 Q1099.4063,137.2344 1098.0781,135.5938 Q1096.7656,133.9375 1096.7656,130.8125 Q1096.7656,127.6875 1098.0781,126.0313 Q1099.4063,124.375 1101.9063,124.375 Q1102.6094,124.375 1103.25,124.5313 Q1103.9063,124.6875 1104.4688,124.9844 L1104.4688,127.7031 Q1103.8438,127.125 1103.25,126.8594 Q1102.6563,126.5781 1102.0313,126.5781 Q1100.6875,126.5781 1100,127.6563 Q1099.3125,128.7188 1099.3125,130.8125 Q1099.3125,132.9063 1100,133.9844 Q1100.6875,135.0469 1102.0313,135.0469 Q1102.6563,135.0469 1103.25,134.7813 Q1103.8438,134.5 1104.4688,133.9219 L1104.4688,136.6406 Z " fill="#000000"/><text fill="#000000" font-family="sans-serif" font-size="14" lengthAdjust="spacing" textLength="100.6934" x="1115.5" y="135.8467">SpatialSample</text><line style="stroke:#181818;stroke-width:0.5;" x1="1087.5" x2="1218.1934" y1="147" y2="147"/><line style="stroke:#181818;stroke-width:0.5;" x1="1087.5" x2="1218.1934" y1="155" y2="155"/></g><!--class StatisticalSample--><g class="entity" data-qualified-name="StatisticalSample" data-source-line="4" id="ent0009"><rect fill="#F1F1F1" height="48" rx="2.5" ry="2.5" style="stroke:#181818;stroke-width:0.5;" width="153.666" x="1255" y="115"/><ellipse cx="1270" cy="131" fill="#ADD1B2" rx="11" ry="11" style="stroke:#181818;stroke-width:1;"/><path d="M1272.9688,136.6406 Q1272.3906,136.9375 1271.75,137.0781 Q1271.1094,137.2344 1270.4063,137.2344 Q1267.9063,137.2344 1266.5781,135.5938 Q1265.2656,133.9375 1265.2656,130.8125 Q1265.2656,127.6875 1266.5781,126.0313 Q1267.9063,124.375 1270.4063,124.375 Q1271.1094,124.375 1271.75,124.5313 Q1272.4063,124.6875 1272.9688,124.9844 L1272.9688,127.7031 Q1272.3438,127.125 1271.75,126.8594 Q1271.1563,126.5781 1270.5313,126.5781 Q1269.1875,126.5781 1268.5,127.6563 Q1267.8125,128.7188 1267.8125,130.8125 Q1267.8125,132.9063 1268.5,133.9844 Q1269.1875,135.0469 1270.5313,135.0469 Q1271.1563,135.0469 1271.75,134.7813 Q1272.3438,134.5 1272.9688,133.9219 L1272.9688,136.6406 Z " fill="#000000"/><text fill="#000000" font-family="sans-serif" font-size="14" lengthAdjust="spacing" textLength="121.666" x="1284" y="135.8467">StatisticalSample</text><line style="stroke:#181818;stroke-width:0.5;" x1="1256" x2="1407.666" y1="147" y2="147"/><line style="stroke:#181818;stroke-width:0.5;" x1="1256" x2="1407.666" y1="155" y2="155"/></g><!--class ObservableProperty--><g class="entity" data-qualified-name="ObservableProperty" data-source-line="5" id="ent0011"><rect fill="#F1F1F1" height="48" rx="2.5" ry="2.5" style="stroke:#181818;stroke-width:0.5;" width="171.6172" x="703" y="115"/><ellipse cx="718" cy="131" fill="#ADD1B2" rx="11" ry="11" style="stroke:#181818;stroke-width:1;"/><path d="M720.9688,136.6406 Q720.3906,136.9375 719.75,137.0781 Q719.1094,137.2344 718.4063,137.2344 Q715.9063,137.2344 714.5781,135.5938 Q713.2656,133.9375 713.2656,130.8125 Q713.2656,127.6875 714.5781,126.0313 Q715.9063,124.375 718.4063,124.375 Q719.1094,124.375 719.75,124.5313 Q720.4063,124.6875 720.9688,124.9844 L720.9688,127.7031 Q720.3438,127.125 719.75,126.8594 Q719.1563,126.5781 718.5313,126.5781 Q717.1875,126.5781 716.5,127.6563 Q715.8125,128.7188 715.8125,130.8125 Q715.8125,132.9063 716.5,133.9844 Q717.1875,135.0469 718.5313,135.0469 Q719.1563,135.0469 719.75,134.7813 Q720.3438,134.5 720.9688,133.9219 L720.9688,136.6406 Z " fill="#000000"/><text fill="#000000" font-family="sans-serif" font-size="14" lengthAdjust="spacing" textLength="139.6172" x="732" y="135.8467">ObservableProperty</text><line style="stroke:#181818;stroke-width:0.5;" x1="704" x2="873.6172" y1="147" y2="147"/><line style="stroke:#181818;stroke-width:0.5;" x1="704" x2="873.6172" y1="155" y2="155"/></g><!--class Procedure--><g class="entity" data-qualified-name="Procedure" data-source-line="6" id="ent0013"><rect fill="#F1F1F1" height="48" rx="2.5" ry="2.5" style="stroke:#181818;stroke-width:0.5;" width="103.2031" x="1686.5" y="7"/><ellipse cx="1701.5" cy="23" fill="#ADD1B2" rx="11" ry="11" style="stroke:#181818;stroke-width:1;"/><path d="M1704.4688,28.6406 Q1703.8906,28.9375 1703.25,29.0781 Q1702.6094,29.2344 1701.9063,29.2344 Q1699.4063,29.2344 1698.0781,27.5938 Q1696.7656,25.9375 1696.7656,22.8125 Q1696.7656,19.6875 1698.0781,18.0313 Q1699.4063,16.375 1701.9063,16.375 Q1702.6094,16.375 1703.25,16.5313 Q1703.9063,16.6875 1704.4688,16.9844 L1704.4688,19.7031 Q1703.8438,19.125 1703.25,18.8594 Q1702.6563,18.5781 1702.0313,18.5781 Q1700.6875,18.5781 1700,19.6563 Q1699.3125,20.7188 1699.3125,22.8125 Q1699.3125,24.9063 1700,25.9844 Q1700.6875,27.0469 1702.0313,27.0469 Q1702.6563,27.0469 1703.25,26.7813 Q1703.8438,26.5 1704.4688,25.9219 L1704.4688,28.6406 Z " fill="#000000"/><text fill="#000000" font-family="sans-serif" font-size="14" lengthAdjust="spacing" textLength="71.2031" x="1715.5" y="27.8467">Procedure</text><line style="stroke:#181818;stroke-width:0.5;" x1="1687.5" x2="1788.7031" y1="39" y2="39"/><line style="stroke:#181818;stroke-width:0.5;" x1="1687.5" x2="1788.7031" y1="47" y2="47"/></g><!--class ActuatingProcedure--><g class="entity" data-qualified-name="ActuatingProcedure" data-source-line="6" id="ent0014"><rect fill="#F1F1F1" height="48" rx="2.5" ry="2.5" style="stroke:#181818;stroke-width:0.5;" width="170.5576" x="1444.5" y="115"/><ellipse cx="1459.5" cy="131" fill="#ADD1B2" rx="11" ry="11" style="stroke:#181818;stroke-width:1;"/><path d="M1462.4688,136.6406 Q1461.8906,136.9375 1461.25,137.0781 Q1460.6094,137.2344 1459.9063,137.2344 Q1457.4063,137.2344 1456.0781,135.5938 Q1454.7656,133.9375 1454.7656,130.8125 Q1454.7656,127.6875 1456.0781,126.0313 Q1457.4063,124.375 1459.9063,124.375 Q1460.6094,124.375 1461.25,124.5313 Q1461.9063,124.6875 1462.4688,124.9844 L1462.4688,127.7031 Q1461.8438,127.125 1461.25,126.8594 Q1460.6563,126.5781 1460.0313,126.5781 Q1458.6875,126.5781 1458,127.6563 Q1457.3125,128.7188 1457.3125,130.8125 Q1457.3125,132.9063 1458,133.9844 Q1458.6875,135.0469 1460.0313,135.0469 Q1460.6563,135.0469 1461.25,134.7813 Q1461.8438,134.5 1462.4688,133.9219 L1462.4688,136.6406 Z " fill="#000000"/><text fill="#000000" font-family="sans-serif" font-size="14" lengthAdjust="spacing" textLength="138.5576" x="1473.5" y="135.8467">ActuatingProcedure</text><line style="stroke:#181818;stroke-width:0.5;" x1="1445.5" x2="1614.0576" y1="147" y2="147"/><line style="stroke:#181818;stroke-width:0.5;" x1="1445.5" x2="1614.0576" y1="155" y2="155"/></g><!--class ObservingProcedure--><g class="entity" data-qualified-name="ObservingProcedure" data-source-line="7" id="ent0016"><rect fill="#F1F1F1" height="48" rx="2.5" ry="2.5" style="stroke:#181818;stroke-width:0.5;" width="174.707" x="1650.5" y="115"/><ellipse cx="1665.5" cy="131" fill="#ADD1B2" rx="11" ry="11" style="stroke:#181818;stroke-width:1;"/><path d="M1668.4688,136.6406 Q1667.8906,136.9375 1667.25,137.0781 Q1666.6094,137.2344 1665.9063,137.2344 Q1663.4063,137.2344 1662.0781,135.5938 Q1660.7656,133.9375 1660.7656,130.8125 Q1660.7656,127.6875 1662.0781,126.0313 Q1663.4063,124.375 1665.9063,124.375 Q1666.6094,124.375 1667.25,124.5313 Q1667.9063,124.6875 1668.4688,124.9844 L1668.4688,127.7031 Q1667.8438,127.125 1667.25,126.8594 Q1666.6563,126.5781 1666.0313,126.5781 Q1664.6875,126.5781 1664,127.6563 Q1663.3125,128.7188 1663.3125,130.8125 Q1663.3125,132.9063 1664,133.9844 Q1664.6875,135.0469 1666.0313,135.0469 Q1666.6563,135.0469 1667.25,134.7813 Q1667.8438,134.5 1668.4688,133.9219 L1668.4688,136.6406 Z " fill="#000000"/><text fill="#000000" font-family="sans-serif" font-size="14" lengthAdjust="spacing" textLength="142.707" x="1679.5" y="135.8467">ObservingProcedure</text><line style="stroke:#181818;stroke-width:0.5;" x1="1651.5" x2="1824.207" y1="147" y2="147"/><line style="stroke:#181818;stroke-width:0.5;" x1="1651.5" x2="1824.207" y1="155" y2="155"/></g><!--class SamplingProcedure--><g class="entity" data-qualified-name="SamplingProcedure" data-source-line="8" id="ent0018"><rect fill="#F1F1F1" height="48" rx="2.5" ry="2.5" style="stroke:#181818;stroke-width:0.5;" width="168.7324" x="1860.5" y="115"/><ellipse cx="1875.5" cy="131" fill="#ADD1B2" rx="11" ry="11" style="stroke:#181818;stroke-width:1;"/><path d="M1878.4688,136.6406 Q1877.8906,136.9375 1877.25,137.0781 Q1876.6094,137.2344 1875.9063,137.2344 Q1873.4063,137.2344 1872.0781,135.5938 Q1870.7656,133.9375 1870.7656,130.8125 Q1870.7656,127.6875 1872.0781,126.0313 Q1873.4063,124.375 1875.9063,124.375 Q1876.6094,124.375 1877.25,124.5313 Q1877.9063,124.6875 1878.4688,124.9844 L1878.4688,127.7031 Q1877.8438,127.125 1877.25,126.8594 Q1876.6563,126.5781 1876.0313,126.5781 Q1874.6875,126.5781 1874,127.6563 Q1873.3125,128.7188 1873.3125,130.8125 Q1873.3125,132.9063 1874,133.9844 Q1874.6875,135.0469 1876.0313,135.0469 Q1876.6563,135.0469 1877.25,134.7813 Q1877.8438,134.5 1878.4688,133.9219 L1878.4688,136.6406 Z " fill="#000000"/><text fill="#000000" font-family="sans-serif" font-size="14" lengthAdjust="spacing" textLength="136.7324" x="1889.5" y="135.8467">SamplingProcedure</text><line style="stroke:#181818;stroke-width:0.5;" x1="1861.5" x2="2028.2324" y1="147" y2="147"/><line style="stroke:#181818;stroke-width:0.5;" x1="1861.5" x2="2028.2324" y1="155" y2="155"/></g><!--class Asset--><g class="entity" data-qualified-name="Asset" data-source-line="9" id="ent0020"><rect fill="#F1F1F1" height="48" rx="2.5" ry="2.5" style="stroke:#181818;stroke-width:0.5;" width="70.2676" x="2136" y="7"/><ellipse cx="2151" cy="23" fill="#ADD1B2" rx="11" ry="11" style="stroke:#181818;stroke-width:1;"/><path d="M2153.9688,28.6406 Q2153.3906,28.9375 2152.75,29.0781 Q2152.1094,29.2344 2151.4063,29.2344 Q2148.9063,29.2344 2147.5781,27.5938 Q2146.2656,25.9375 2146.2656,22.8125 Q2146.2656,19.6875 2147.5781,18.0313 Q2148.9063,16.375 2151.4063,16.375 Q2152.1094,16.375 2152.75,16.5313 Q2153.4063,16.6875 2153.9688,16.9844 L2153.9688,19.7031 Q2153.3438,19.125 2152.75,18.8594 Q2152.1563,18.5781 2151.5313,18.5781 Q2150.1875,18.5781 2149.5,19.6563 Q2148.8125,20.7188 2148.8125,22.8125 Q2148.8125,24.9063 2149.5,25.9844 Q2150.1875,27.0469 2151.5313,27.0469 Q2152.1563,27.0469 2152.75,26.7813 Q2153.3438,26.5 2153.9688,25.9219 L2153.9688,28.6406 Z " fill="#000000"/><text fill="#000000" font-family="sans-serif" font-size="14" lengthAdjust="spacing" textLength="38.2676" x="2165" y="27.8467">Asset</text><line style="stroke:#181818;stroke-width:0.5;" x1="2137" x2="2205.2676" y1="39" y2="39"/><line style="stroke:#181818;stroke-width:0.5;" x1="2137" x2="2205.2676" y1="47" y2="47"/></g><!--class Platform--><g class="entity" data-qualified-name="Platform" data-source-line="9" id="ent0021"><rect fill="#F1F1F1" height="48" rx="2.5" ry="2.5" style="stroke:#181818;stroke-width:0.5;" width="91.2881" x="2064.5" y="115"/><ellipse cx="2079.5" cy="131" fill="#ADD1B2" rx="11" ry="11" style="stroke:#181818;stroke-width:1;"/><path d="M2082.4688,136.6406 Q2081.8906,136.9375 2081.25,137.0781 Q2080.6094,137.2344 2079.9063,137.2344 Q2077.4063,137.2344 2076.0781,135.5938 Q2074.7656,133.9375 2074.7656,130.8125 Q2074.7656,127.6875 2076.0781,126.0313 Q2077.4063,124.375 2079.9063,124.375 Q2080.6094,124.375 2081.25,124.5313 Q2081.9063,124.6875 2082.4688,124.9844 L2082.4688,127.7031 Q2081.8438,127.125 2081.25,126.8594 Q2080.6563,126.5781 2080.0313,126.5781 Q2078.6875,126.5781 2078,127.6563 Q2077.3125,128.7188 2077.3125,130.8125 Q2077.3125,132.9063 2078,133.9844 Q2078.6875,135.0469 2080.0313,135.0469 Q2080.6563,135.0469 2081.25,134.7813 Q2081.8438,134.5 2082.4688,133.9219 L2082.4688,136.6406 Z " fill="#000000"/><text fill="#000000" font-family="sans-serif" font-size="14" lengthAdjust="spacing" textLength="59.2881" x="2093.5" y="135.8467">Platform</text><line style="stroke:#181818;stroke-width:0.5;" x1="2065.5" x2="2154.7881" y1="147" y2="147"/><line style="stroke:#181818;stroke-width:0.5;" x1="2065.5" x2="2154.7881" y1="155" y2="155"/></g><!--class System--><g class="entity" data-qualified-name="System" data-source-line="10" id="ent0023"><rect fill="#F1F1F1" height="48" rx="2.5" ry="2.5" style="stroke:#181818;stroke-width:0.5;" width="84.2061" x="2191" y="115"/><ellipse cx="2206" cy="131" fill="#ADD1B2" rx="11" ry="11" style="stroke:#181818;stroke-width:1;"/><path d="M2208.9688,136.6406 Q2208.3906,136.9375 2207.75,137.0781 Q2207.1094,137.2344 2206.4063,137.2344 Q2203.9063,137.2344 2202.5781,135.5938 Q2201.2656,133.9375 2201.2656,130.8125 Q2201.2656,127.6875 2202.5781,126.0313 Q2203.9063,124.375 2206.4063,124.375 Q2207.1094,124.375 2207.75,124.5313 Q2208.4063,124.6875 2208.9688,124.9844 L2208.9688,127.7031 Q2208.3438,127.125 2207.75,126.8594 Q2207.1563,126.5781 2206.5313,126.5781 Q2205.1875,126.5781 2204.5,127.6563 Q2203.8125,128.7188 2203.8125,130.8125 Q2203.8125,132.9063 2204.5,133.9844 Q2205.1875,135.0469 2206.5313,135.0469 Q2207.1563,135.0469 2207.75,134.7813 Q2208.3438,134.5 2208.9688,133.9219 L2208.9688,136.6406 Z " fill="#000000"/><text fill="#000000" font-family="sans-serif" font-size="14" lengthAdjust="spacing" textLength="52.2061" x="2220" y="135.8467">System</text><line style="stroke:#181818;stroke-width:0.5;" x1="2192" x2="2274.2061" y1="147" y2="147"/><line style="stroke:#181818;stroke-width:0.5;" x1="2192" x2="2274.2061" y1="155" y2="155"/></g><!--class Sampler--><g class="entity" data-qualified-name="Sampler" data-source-line="10" id="ent0024"><rect fill="#F1F1F1" height="48" rx="2.5" ry="2.5" style="stroke:#181818;stroke-width:0.5;" width="90.249" x="2062" y="223"/><ellipse cx="2077" cy="239" fill="#ADD1B2" rx="11" ry="11" style="stroke:#181818;stroke-width:1;"/><path d="M2079.9688,244.6406 Q2079.3906,244.9375 2078.75,245.0781 Q2078.1094,245.2344 2077.4063,245.2344 Q2074.9063,245.2344 2073.5781,243.5938 Q2072.2656,241.9375 2072.2656,238.8125 Q2072.2656,235.6875 2073.5781,234.0313 Q2074.9063,232.375 2077.4063,232.375 Q2078.1094,232.375 2078.75,232.5313 Q2079.4063,232.6875 2079.9688,232.9844 L2079.9688,235.7031 Q2079.3438,235.125 2078.75,234.8594 Q2078.1563,234.5781 2077.5313,234.5781 Q2076.1875,234.5781 2075.5,235.6563 Q2074.8125,236.7188 2074.8125,238.8125 Q2074.8125,240.9063 2075.5,241.9844 Q2076.1875,243.0469 2077.5313,243.0469 Q2078.1563,243.0469 2078.75,242.7813 Q2079.3438,242.5 2079.9688,241.9219 L2079.9688,244.6406 Z " fill="#000000"/><text fill="#000000" font-family="sans-serif" font-size="14" lengthAdjust="spacing" textLength="58.249" x="2091" y="243.8467">Sampler</text><line style="stroke:#181818;stroke-width:0.5;" x1="2063" x2="2151.249" y1="255" y2="255"/><line style="stroke:#181818;stroke-width:0.5;" x1="2063" x2="2151.249" y1="263" y2="263"/></g><!--class Actuator--><g class="entity" data-qualified-name="Actuator" data-source-line="11" id="ent0026"><rect fill="#F1F1F1" height="48" rx="2.5" ry="2.5" style="stroke:#181818;stroke-width:0.5;" width="92.0264" x="2187" y="223"/><ellipse cx="2202" cy="239" fill="#ADD1B2" rx="11" ry="11" style="stroke:#181818;stroke-width:1;"/><path d="M2204.9688,244.6406 Q2204.3906,244.9375 2203.75,245.0781 Q2203.1094,245.2344 2202.4063,245.2344 Q2199.9063,245.2344 2198.5781,243.5938 Q2197.2656,241.9375 2197.2656,238.8125 Q2197.2656,235.6875 2198.5781,234.0313 Q2199.9063,232.375 2202.4063,232.375 Q2203.1094,232.375 2203.75,232.5313 Q2204.4063,232.6875 2204.9688,232.9844 L2204.9688,235.7031 Q2204.3438,235.125 2203.75,234.8594 Q2203.1563,234.5781 2202.5313,234.5781 Q2201.1875,234.5781 2200.5,235.6563 Q2199.8125,236.7188 2199.8125,238.8125 Q2199.8125,240.9063 2200.5,241.9844 Q2201.1875,243.0469 2202.5313,243.0469 Q2203.1563,243.0469 2203.75,242.7813 Q2204.3438,242.5 2204.9688,241.9219 L2204.9688,244.6406 Z " fill="#000000"/><text fill="#000000" font-family="sans-serif" font-size="14" lengthAdjust="spacing" textLength="60.0264" x="2216" y="243.8467">Actuator</text><line style="stroke:#181818;stroke-width:0.5;" x1="2188" x2="2278.0264" y1="255" y2="255"/><line style="stroke:#181818;stroke-width:0.5;" x1="2188" x2="2278.0264" y1="263" y2="263"/></g><!--class Execution--><g class="entity" data-qualified-name="Execution" data-source-line="13" id="ent0029"><rect fill="#F1F1F1" height="48" rx="2.5" ry="2.5" style="stroke:#181818;stroke-width:0.5;" width="101.1318" x="2442.5" y="7"/><ellipse cx="2457.5" cy="23" fill="#ADD1B2" rx="11" ry="11" style="stroke:#181818;stroke-width:1;"/><path d="M2460.4688,28.6406 Q2459.8906,28.9375 2459.25,29.0781 Q2458.6094,29.2344 2457.9063,29.2344 Q2455.4063,29.2344 2454.0781,27.5938 Q2452.7656,25.9375 2452.7656,22.8125 Q2452.7656,19.6875 2454.0781,18.0313 Q2455.4063,16.375 2457.9063,16.375 Q2458.6094,16.375 2459.25,16.5313 Q2459.9063,16.6875 2460.4688,16.9844 L2460.4688,19.7031 Q2459.8438,19.125 2459.25,18.8594 Q2458.6563,18.5781 2458.0313,18.5781 Q2456.6875,18.5781 2456,19.6563 Q2455.3125,20.7188 2455.3125,22.8125 Q2455.3125,24.9063 2456,25.9844 Q2456.6875,27.0469 2458.0313,27.0469 Q2458.6563,27.0469 2459.25,26.7813 Q2459.8438,26.5 2460.4688,25.9219 L2460.4688,28.6406 Z " fill="#000000"/><text fill="#000000" font-family="sans-serif" font-size="14" lengthAdjust="spacing" textLength="69.1318" x="2471.5" y="27.8467">Execution</text><line style="stroke:#181818;stroke-width:0.5;" x1="2443.5" x2="2542.6318" y1="39" y2="39"/><line style="stroke:#181818;stroke-width:0.5;" x1="2443.5" x2="2542.6318" y1="47" y2="47"/></g><!--class Sampling--><g class="entity" data-qualified-name="Sampling" data-source-line="13" id="ent0030"><rect fill="#F1F1F1" height="48" rx="2.5" ry="2.5" style="stroke:#181818;stroke-width:0.5;" width="97.5293" x="2310" y="115"/><ellipse cx="2325" cy="131" fill="#ADD1B2" rx="11" ry="11" style="stroke:#181818;stroke-width:1;"/><path d="M2327.9688,136.6406 Q2327.3906,136.9375 2326.75,137.0781 Q2326.1094,137.2344 2325.4063,137.2344 Q2322.9063,137.2344 2321.5781,135.5938 Q2320.2656,133.9375 2320.2656,130.8125 Q2320.2656,127.6875 2321.5781,126.0313 Q2322.9063,124.375 2325.4063,124.375 Q2326.1094,124.375 2326.75,124.5313 Q2327.4063,124.6875 2327.9688,124.9844 L2327.9688,127.7031 Q2327.3438,127.125 2326.75,126.8594 Q2326.1563,126.5781 2325.5313,126.5781 Q2324.1875,126.5781 2323.5,127.6563 Q2322.8125,128.7188 2322.8125,130.8125 Q2322.8125,132.9063 2323.5,133.9844 Q2324.1875,135.0469 2325.5313,135.0469 Q2326.1563,135.0469 2326.75,134.7813 Q2327.3438,134.5 2327.9688,133.9219 L2327.9688,136.6406 Z " fill="#000000"/><text fill="#000000" font-family="sans-serif" font-size="14" lengthAdjust="spacing" textLength="65.5293" x="2339" y="135.8467">Sampling</text><line style="stroke:#181818;stroke-width:0.5;" x1="2311" x2="2406.5293" y1="147" y2="147"/><line style="stroke:#181818;stroke-width:0.5;" x1="2311" x2="2406.5293" y1="155" y2="155"/></g><!--class ExecutionCollection--><g class="entity" data-qualified-name="ExecutionCollection" data-source-line="14" id="ent0032"><rect fill="#F1F1F1" height="48" rx="2.5" ry="2.5" style="stroke:#181818;stroke-width:0.5;" width="170.3799" x="2930" y="7"/><ellipse cx="2945" cy="23" fill="#ADD1B2" rx="11" ry="11" style="stroke:#181818;stroke-width:1;"/><path d="M2947.9688,28.6406 Q2947.3906,28.9375 2946.75,29.0781 Q2946.1094,29.2344 2945.4063,29.2344 Q2942.9063,29.2344 2941.5781,27.5938 Q2940.2656,25.9375 2940.2656,22.8125 Q2940.2656,19.6875 2941.5781,18.0313 Q2942.9063,16.375 2945.4063,16.375 Q2946.1094,16.375 2946.75,16.5313 Q2947.4063,16.6875 2947.9688,16.9844 L2947.9688,19.7031 Q2947.3438,19.125 2946.75,18.8594 Q2946.1563,18.5781 2945.5313,18.5781 Q2944.1875,18.5781 2943.5,19.6563 Q2942.8125,20.7188 2942.8125,22.8125 Q2942.8125,24.9063 2943.5,25.9844 Q2944.1875,27.0469 2945.5313,27.0469 Q2946.1563,27.0469 2946.75,26.7813 Q2947.3438,26.5 2947.9688,25.9219 L2947.9688,28.6406 Z " fill="#000000"/><text fill="#000000" font-family="sans-serif" font-size="14" lengthAdjust="spacing" textLength="138.3799" x="2959" y="27.8467">ExecutionCollection</text><line style="stroke:#181818;stroke-width:0.5;" x1="2931" x2="3099.3799" y1="39" y2="39"/><line style="stroke:#181818;stroke-width:0.5;" x1="2931" x2="3099.3799" y1="47" y2="47"/></g><!--class SamplingCollection--><g class="entity" data-qualified-name="SamplingCollection" data-source-line="14" id="ent0033"><rect fill="#F1F1F1" height="48" rx="2.5" ry="2.5" style="stroke:#181818;stroke-width:0.5;" width="166.7773" x="2729.5" y="115"/><ellipse cx="2744.5" cy="131" fill="#ADD1B2" rx="11" ry="11" style="stroke:#181818;stroke-width:1;"/><path d="M2747.4688,136.6406 Q2746.8906,136.9375 2746.25,137.0781 Q2745.6094,137.2344 2744.9063,137.2344 Q2742.4063,137.2344 2741.0781,135.5938 Q2739.7656,133.9375 2739.7656,130.8125 Q2739.7656,127.6875 2741.0781,126.0313 Q2742.4063,124.375 2744.9063,124.375 Q2745.6094,124.375 2746.25,124.5313 Q2746.9063,124.6875 2747.4688,124.9844 L2747.4688,127.7031 Q2746.8438,127.125 2746.25,126.8594 Q2745.6563,126.5781 2745.0313,126.5781 Q2743.6875,126.5781 2743,127.6563 Q2742.3125,128.7188 2742.3125,130.8125 Q2742.3125,132.9063 2743,133.9844 Q2743.6875,135.0469 2745.0313,135.0469 Q2745.6563,135.0469 2746.25,134.7813 Q2746.8438,134.5 2747.4688,133.9219 L2747.4688,136.6406 Z " fill="#000000"/><text fill="#000000" font-family="sans-serif" font-size="14" lengthAdjust="spacing" textLength="134.7773" x="2758.5" y="135.8467">SamplingCollection</text><line style="stroke:#181818;stroke-width:0.5;" x1="2730.5" x2="2895.2773" y1="147" y2="147"/><line style="stroke:#181818;stroke-width:0.5;" x1="2730.5" x2="2895.2773" y1="155" y2="155"/></g><!--class Actuation--><g class="entity" data-qualified-name="Actuation" data-source-line="15" id="ent0035"><rect fill="#F1F1F1" height="48" rx="2.5" ry="2.5" style="stroke:#181818;stroke-width:0.5;" width="99.0332" x="2443.5" y="115"/><ellipse cx="2458.5" cy="131" fill="#ADD1B2" rx="11" ry="11" style="stroke:#181818;stroke-width:1;"/><path d="M2461.4688,136.6406 Q2460.8906,136.9375 2460.25,137.0781 Q2459.6094,137.2344 2458.9063,137.2344 Q2456.4063,137.2344 2455.0781,135.5938 Q2453.7656,133.9375 2453.7656,130.8125 Q2453.7656,127.6875 2455.0781,126.0313 Q2456.4063,124.375 2458.9063,124.375 Q2459.6094,124.375 2460.25,124.5313 Q2460.9063,124.6875 2461.4688,124.9844 L2461.4688,127.7031 Q2460.8438,127.125 2460.25,126.8594 Q2459.6563,126.5781 2459.0313,126.5781 Q2457.6875,126.5781 2457,127.6563 Q2456.3125,128.7188 2456.3125,130.8125 Q2456.3125,132.9063 2457,133.9844 Q2457.6875,135.0469 2459.0313,135.0469 Q2459.6563,135.0469 2460.25,134.7813 Q2460.8438,134.5 2461.4688,133.9219 L2461.4688,136.6406 Z " fill="#000000"/><text fill="#000000" font-family="sans-serif" font-size="14" lengthAdjust="spacing" textLength="67.0332" x="2472.5" y="135.8467">Actuation</text><line style="stroke:#181818;stroke-width:0.5;" x1="2444.5" x2="2541.5332" y1="147" y2="147"/><line style="stroke:#181818;stroke-width:0.5;" x1="2444.5" x2="2541.5332" y1="155" y2="155"/></g><!--class Sensor--><g class="entity" data-qualified-name="Sensor" data-source-line="16" id="ent0037"><rect fill="#F1F1F1" height="48" rx="2.5" ry="2.5" style="stroke:#181818;stroke-width:0.5;" width="79.9883" x="2314" y="223"/><ellipse cx="2329" cy="239" fill="#ADD1B2" rx="11" ry="11" style="stroke:#181818;stroke-width:1;"/><path d="M2331.9688,244.6406 Q2331.3906,244.9375 2330.75,245.0781 Q2330.1094,245.2344 2329.4063,245.2344 Q2326.9063,245.2344 2325.5781,243.5938 Q2324.2656,241.9375 2324.2656,238.8125 Q2324.2656,235.6875 2325.5781,234.0313 Q2326.9063,232.375 2329.4063,232.375 Q2330.1094,232.375 2330.75,232.5313 Q2331.4063,232.6875 2331.9688,232.9844 L2331.9688,235.7031 Q2331.3438,235.125 2330.75,234.8594 Q2330.1563,234.5781 2329.5313,234.5781 Q2328.1875,234.5781 2327.5,235.6563 Q2326.8125,236.7188 2326.8125,238.8125 Q2326.8125,240.9063 2327.5,241.9844 Q2328.1875,243.0469 2329.5313,243.0469 Q2330.1563,243.0469 2330.75,242.7813 Q2331.3438,242.5 2331.9688,241.9219 L2331.9688,244.6406 Z " fill="#000000"/><text fill="#000000" font-family="sans-serif" font-size="14" lengthAdjust="spacing" textLength="47.9883" x="2343" y="243.8467">Sensor</text><line style="stroke:#181818;stroke-width:0.5;" x1="2315" x2="2392.9883" y1="255" y2="255"/><line style="stroke:#181818;stroke-width:0.5;" x1="2315" x2="2392.9883" y1="263" y2="263"/></g><!--class ActuationCollection--><g class="entity" data-qualified-name="ActuationCollection" data-source-line="17" id="ent0039"><rect fill="#F1F1F1" height="48" rx="2.5" ry="2.5" style="stroke:#181818;stroke-width:0.5;" width="168.2813" x="2931" y="115"/><ellipse cx="2946" cy="131" fill="#ADD1B2" rx="11" ry="11" style="stroke:#181818;stroke-width:1;"/><path d="M2948.9688,136.6406 Q2948.3906,136.9375 2947.75,137.0781 Q2947.1094,137.2344 2946.4063,137.2344 Q2943.9063,137.2344 2942.5781,135.5938 Q2941.2656,133.9375 2941.2656,130.8125 Q2941.2656,127.6875 2942.5781,126.0313 Q2943.9063,124.375 2946.4063,124.375 Q2947.1094,124.375 2947.75,124.5313 Q2948.4063,124.6875 2948.9688,124.9844 L2948.9688,127.7031 Q2948.3438,127.125 2947.75,126.8594 Q2947.1563,126.5781 2946.5313,126.5781 Q2945.1875,126.5781 2944.5,127.6563 Q2943.8125,128.7188 2943.8125,130.8125 Q2943.8125,132.9063 2944.5,133.9844 Q2945.1875,135.0469 2946.5313,135.0469 Q2947.1563,135.0469 2947.75,134.7813 Q2948.3438,134.5 2948.9688,133.9219 L2948.9688,136.6406 Z " fill="#000000"/><text fill="#000000" font-family="sans-serif" font-size="14" lengthAdjust="spacing" textLength="136.2813" x="2960" y="135.8467">ActuationCollection</text><line style="stroke:#181818;stroke-width:0.5;" x1="2932" x2="3098.2813" y1="147" y2="147"/><line style="stroke:#181818;stroke-width:0.5;" x1="2932" x2="3098.2813" y1="155" y2="155"/></g><!--class ObservationCollection--><g class="entity" data-qualified-name="ObservationCollection" data-source-line="18" id="ent0041"><rect fill="#F1F1F1" height="48" rx="2.5" ry="2.5" style="stroke:#181818;stroke-width:0.5;" width="186.499" x="3134" y="115"/><ellipse cx="3149" cy="131" fill="#ADD1B2" rx="11" ry="11" style="stroke:#181818;stroke-width:1;"/><path d="M3151.9688,136.6406 Q3151.3906,136.9375 3150.75,137.0781 Q3150.1094,137.2344 3149.4063,137.2344 Q3146.9063,137.2344 3145.5781,135.5938 Q3144.2656,133.9375 3144.2656,130.8125 Q3144.2656,127.6875 3145.5781,126.0313 Q3146.9063,124.375 3149.4063,124.375 Q3150.1094,124.375 3150.75,124.5313 Q3151.4063,124.6875 3151.9688,124.9844 L3151.9688,127.7031 Q3151.3438,127.125 3150.75,126.8594 Q3150.1563,126.5781 3149.5313,126.5781 Q3148.1875,126.5781 3147.5,127.6563 Q3146.8125,128.7188 3146.8125,130.8125 Q3146.8125,132.9063 3147.5,133.9844 Q3148.1875,135.0469 3149.5313,135.0469 Q3150.1563,135.0469 3150.75,134.7813 Q3151.3438,134.5 3151.9688,133.9219 L3151.9688,136.6406 Z " fill="#000000"/><text fill="#000000" font-family="sans-serif" font-size="14" lengthAdjust="spacing" textLength="154.499" x="3163" y="135.8467">ObservationCollection</text><line style="stroke:#181818;stroke-width:0.5;" x1="3135" x2="3319.499" y1="147" y2="147"/><line style="stroke:#181818;stroke-width:0.5;" x1="3135" x2="3319.499" y1="155" y2="155"/></g><!--class Observation--><g class="entity" data-qualified-name="Observation" data-source-line="19" id="ent0043"><rect fill="#F1F1F1" height="48" rx="2.5" ry="2.5" style="stroke:#181818;stroke-width:0.5;" width="117.251" x="2577.5" y="115"/><ellipse cx="2592.5" cy="131" fill="#ADD1B2" rx="11" ry="11" style="stroke:#181818;stroke-width:1;"/><path d="M2595.4688,136.6406 Q2594.8906,136.9375 2594.25,137.0781 Q2593.6094,137.2344 2592.9063,137.2344 Q2590.4063,137.2344 2589.0781,135.5938 Q2587.7656,133.9375 2587.7656,130.8125 Q2587.7656,127.6875 2589.0781,126.0313 Q2590.4063,124.375 2592.9063,124.375 Q2593.6094,124.375 2594.25,124.5313 Q2594.9063,124.6875 2595.4688,124.9844 L2595.4688,127.7031 Q2594.8438,127.125 2594.25,126.8594 Q2593.6563,126.5781 2593.0313,126.5781 Q2591.6875,126.5781 2591,127.6563 Q2590.3125,128.7188 2590.3125,130.8125 Q2590.3125,132.9063 2591,133.9844 Q2591.6875,135.0469 2593.0313,135.0469 Q2593.6563,135.0469 2594.25,134.7813 Q2594.8438,134.5 2595.4688,133.9219 L2595.4688,136.6406 Z " fill="#000000"/><text fill="#000000" font-family="sans-serif" font-size="14" lengthAdjust="spacing" textLength="85.251" x="2606.5" y="135.8467">Observation</text><line style="stroke:#181818;stroke-width:0.5;" x1="2578.5" x2="2693.751" y1="147" y2="147"/><line style="stroke:#181818;stroke-width:0.5;" x1="2578.5" x2="2693.751" y1="155" y2="155"/></g><!--class FeatureOfInterest--><g class="entity" data-qualified-name="FeatureOfInterest" data-source-line="20" id="ent0045"><rect fill="#F1F1F1" height="48" rx="2.5" ry="2.5" style="stroke:#181818;stroke-width:0.5;" width="156.1816" x="7" y="7"/><ellipse cx="22" cy="23" fill="#ADD1B2" rx="11" ry="11" style="stroke:#181818;stroke-width:1;"/><path d="M24.9688,28.6406 Q24.3906,28.9375 23.75,29.0781 Q23.1094,29.2344 22.4063,29.2344 Q19.9063,29.2344 18.5781,27.5938 Q17.2656,25.9375 17.2656,22.8125 Q17.2656,19.6875 18.5781,18.0313 Q19.9063,16.375 22.4063,16.375 Q23.1094,16.375 23.75,16.5313 Q24.4063,16.6875 24.9688,16.9844 L24.9688,19.7031 Q24.3438,19.125 23.75,18.8594 Q23.1563,18.5781 22.5313,18.5781 Q21.1875,18.5781 20.5,19.6563 Q19.8125,20.7188 19.8125,22.8125 Q19.8125,24.9063 20.5,25.9844 Q21.1875,27.0469 22.5313,27.0469 Q23.1563,27.0469 23.75,26.7813 Q24.3438,26.5 24.9688,25.9219 L24.9688,28.6406 Z " fill="#000000"/><text fill="#000000" font-family="sans-serif" font-size="14" lengthAdjust="spacing" textLength="124.1816" x="36" y="27.8467">FeatureOfInterest</text><line style="stroke:#181818;stroke-width:0.5;" x1="8" x2="162.1816" y1="39" y2="39"/><line style="stroke:#181818;stroke-width:0.5;" x1="8" x2="162.1816" y1="47" y2="47"/></g><!--class Input--><g class="entity" data-qualified-name="Input" data-source-line="21" id="ent0046"><rect fill="#F1F1F1" height="48" rx="2.5" ry="2.5" style="stroke:#181818;stroke-width:0.5;" width="68.251" x="198" y="7"/><ellipse cx="213" cy="23" fill="#ADD1B2" rx="11" ry="11" style="stroke:#181818;stroke-width:1;"/><path d="M215.9688,28.6406 Q215.3906,28.9375 214.75,29.0781 Q214.1094,29.2344 213.4063,29.2344 Q210.9063,29.2344 209.5781,27.5938 Q208.2656,25.9375 208.2656,22.8125 Q208.2656,19.6875 209.5781,18.0313 Q210.9063,16.375 213.4063,16.375 Q214.1094,16.375 214.75,16.5313 Q215.4063,16.6875 215.9688,16.9844 L215.9688,19.7031 Q215.3438,19.125 214.75,18.8594 Q214.1563,18.5781 213.5313,18.5781 Q212.1875,18.5781 211.5,19.6563 Q210.8125,20.7188 210.8125,22.8125 Q210.8125,24.9063 211.5,25.9844 Q212.1875,27.0469 213.5313,27.0469 Q214.1563,27.0469 214.75,26.7813 Q215.3438,26.5 215.9688,25.9219 L215.9688,28.6406 Z " fill="#000000"/><text fill="#000000" font-family="sans-serif" font-size="14" lengthAdjust="spacing" textLength="36.251" x="227" y="27.8467">Input</text><line style="stroke:#181818;stroke-width:0.5;" x1="199" x2="265.251" y1="39" y2="39"/><line style="stroke:#181818;stroke-width:0.5;" x1="199" x2="265.251" y1="47" y2="47"/></g><!--class Stimulus--><g class="entity" data-qualified-name="Stimulus" data-source-line="22" id="ent0047"><rect fill="#F1F1F1" height="48" rx="2.5" ry="2.5" style="stroke:#181818;stroke-width:0.5;" width="92.833" x="301.5" y="7"/><ellipse cx="316.5" cy="23" fill="#ADD1B2" rx="11" ry="11" style="stroke:#181818;stroke-width:1;"/><path d="M319.4688,28.6406 Q318.8906,28.9375 318.25,29.0781 Q317.6094,29.2344 316.9063,29.2344 Q314.4063,29.2344 313.0781,27.5938 Q311.7656,25.9375 311.7656,22.8125 Q311.7656,19.6875 313.0781,18.0313 Q314.4063,16.375 316.9063,16.375 Q317.6094,16.375 318.25,16.5313 Q318.9063,16.6875 319.4688,16.9844 L319.4688,19.7031 Q318.8438,19.125 318.25,18.8594 Q317.6563,18.5781 317.0313,18.5781 Q315.6875,18.5781 315,19.6563 Q314.3125,20.7188 314.3125,22.8125 Q314.3125,24.9063 315,25.9844 Q315.6875,27.0469 317.0313,27.0469 Q317.6563,27.0469 318.25,26.7813 Q318.8438,26.5 319.4688,25.9219 L319.4688,28.6406 Z " fill="#000000"/><text fill="#000000" font-family="sans-serif" font-size="14" lengthAdjust="spacing" textLength="60.833" x="330.5" y="27.8467">Stimulus</text><line style="stroke:#181818;stroke-width:0.5;" x1="302.5" x2="393.333" y1="39" y2="39"/><line style="stroke:#181818;stroke-width:0.5;" x1="302.5" x2="393.333" y1="47" y2="47"/></g><!--class Result--><g class="entity" data-qualified-name="Result" data-source-line="23" id="ent0048"><rect fill="#F1F1F1" height="48" rx="2.5" ry="2.5" style="stroke:#181818;stroke-width:0.5;" width="75.8867" x="47" y="115"/><ellipse cx="62" cy="131" fill="#ADD1B2" rx="11" ry="11" style="stroke:#181818;stroke-width:1;"/><path d="M64.9688,136.6406 Q64.3906,136.9375 63.75,137.0781 Q63.1094,137.2344 62.4063,137.2344 Q59.9063,137.2344 58.5781,135.5938 Q57.2656,133.9375 57.2656,130.8125 Q57.2656,127.6875 58.5781,126.0313 Q59.9063,124.375 62.4063,124.375 Q63.1094,124.375 63.75,124.5313 Q64.4063,124.6875 64.9688,124.9844 L64.9688,127.7031 Q64.3438,127.125 63.75,126.8594 Q63.1563,126.5781 62.5313,126.5781 Q61.1875,126.5781 60.5,127.6563 Q59.8125,128.7188 59.8125,130.8125 Q59.8125,132.9063 60.5,133.9844 Q61.1875,135.0469 62.5313,135.0469 Q63.1563,135.0469 63.75,134.7813 Q64.3438,134.5 64.9688,133.9219 L64.9688,136.6406 Z " fill="#000000"/><text fill="#000000" font-family="sans-serif" font-size="14" lengthAdjust="spacing" textLength="43.8867" x="76" y="135.8467">Result</text><line style="stroke:#181818;stroke-width:0.5;" x1="48" x2="121.8867" y1="147" y2="147"/><line style="stroke:#181818;stroke-width:0.5;" x1="48" x2="121.8867" y1="155" y2="155"/></g><!--class SampleCollection--><g class="entity" data-qualified-name="SampleCollection" data-source-line="24" id="ent0049"><rect fill="#F1F1F1" height="48" rx="2.5" ry="2.5" style="stroke:#181818;stroke-width:0.5;" width="153.7412" x="158" y="115"/><ellipse cx="173" cy="131" fill="#ADD1B2" rx="11" ry="11" style="stroke:#181818;stroke-width:1;"/><path d="M175.9688,136.6406 Q175.3906,136.9375 174.75,137.0781 Q174.1094,137.2344 173.4063,137.2344 Q170.9063,137.2344 169.5781,135.5938 Q168.2656,133.9375 168.2656,130.8125 Q168.2656,127.6875 169.5781,126.0313 Q170.9063,124.375 173.4063,124.375 Q174.1094,124.375 174.75,124.5313 Q175.4063,124.6875 175.9688,124.9844 L175.9688,127.7031 Q175.3438,127.125 174.75,126.8594 Q174.1563,126.5781 173.5313,126.5781 Q172.1875,126.5781 171.5,127.6563 Q170.8125,128.7188 170.8125,130.8125 Q170.8125,132.9063 171.5,133.9844 Q172.1875,135.0469 173.5313,135.0469 Q174.1563,135.0469 174.75,134.7813 Q175.3438,134.5 175.9688,133.9219 L175.9688,136.6406 Z " fill="#000000"/><text fill="#000000" font-family="sans-serif" font-size="14" lengthAdjust="spacing" textLength="121.7412" x="187" y="135.8467">SampleCollection</text><line style="stroke:#181818;stroke-width:0.5;" x1="159" x2="310.7412" y1="147" y2="147"/><line style="stroke:#181818;stroke-width:0.5;" x1="159" x2="310.7412" y1="155" y2="155"/></g><!--class Deployment--><g class="entity" data-qualified-name="Deployment" data-source-line="25" id="ent0050"><rect fill="#F1F1F1" height="48" rx="2.5" ry="2.5" style="stroke:#181818;stroke-width:0.5;" width="117.6338" x="347" y="115"/><ellipse cx="362" cy="131" fill="#ADD1B2" rx="11" ry="11" style="stroke:#181818;stroke-width:1;"/><path d="M364.9688,136.6406 Q364.3906,136.9375 363.75,137.0781 Q363.1094,137.2344 362.4063,137.2344 Q359.9063,137.2344 358.5781,135.5938 Q357.2656,133.9375 357.2656,130.8125 Q357.2656,127.6875 358.5781,126.0313 Q359.9063,124.375 362.4063,124.375 Q363.1094,124.375 363.75,124.5313 Q364.4063,124.6875 364.9688,124.9844 L364.9688,127.7031 Q364.3438,127.125 363.75,126.8594 Q363.1563,126.5781 362.5313,126.5781 Q361.1875,126.5781 360.5,127.6563 Q359.8125,128.7188 359.8125,130.8125 Q359.8125,132.9063 360.5,133.9844 Q361.1875,135.0469 362.5313,135.0469 Q363.1563,135.0469 363.75,134.7813 Q364.3438,134.5 364.9688,133.9219 L364.9688,136.6406 Z " fill="#000000"/><text fill="#000000" font-family="sans-serif" font-size="14" lengthAdjust="spacing" textLength="85.6338" x="376" y="135.8467">Deployment</text><line style="stroke:#181818;stroke-width:0.5;" x1="348" x2="463.6338" y1="147" y2="147"/><line style="stroke:#181818;stroke-width:0.5;" x1="348" x2="463.6338" y1="155" y2="155"/></g><!--class Output--><g class="entity" data-qualified-name="Output" data-source-line="30" id="ent0051"><rect fill="#F1F1F1" height="48" rx="2.5" ry="2.5" style="stroke:#181818;stroke-width:0.5;" width="80.6309" x="44.5" y="223"/><ellipse cx="59.5" cy="239" fill="#ADD1B2" rx="11" ry="11" style="stroke:#181818;stroke-width:1;"/><path d="M62.4688,244.6406 Q61.8906,244.9375 61.25,245.0781 Q60.6094,245.2344 59.9063,245.2344 Q57.4063,245.2344 56.0781,243.5938 Q54.7656,241.9375 54.7656,238.8125 Q54.7656,235.6875 56.0781,234.0313 Q57.4063,232.375 59.9063,232.375 Q60.6094,232.375 61.25,232.5313 Q61.9063,232.6875 62.4688,232.9844 L62.4688,235.7031 Q61.8438,235.125 61.25,234.8594 Q60.6563,234.5781 60.0313,234.5781 Q58.6875,234.5781 58,235.6563 Q57.3125,236.7188 57.3125,238.8125 Q57.3125,240.9063 58,241.9844 Q58.6875,243.0469 60.0313,243.0469 Q60.6563,243.0469 61.25,242.7813 Q61.8438,242.5 62.4688,241.9219 L62.4688,244.6406 Z " fill="#000000"/><text fill="#000000" font-family="sans-serif" font-size="14" lengthAdjust="spacing" textLength="48.6309" x="73.5" y="243.8467">Output</text><line style="stroke:#181818;stroke-width:0.5;" x1="45.5" x2="124.1309" y1="255" y2="255"/><line style="stroke:#181818;stroke-width:0.5;" x1="45.5" x2="124.1309" y1="263" y2="263"/></g><!--reverse link Property to ActuatableProperty--><g class="link" data-entity-1="ent0001" data-entity-2="ent0002" data-link-type="extension" data-source-line="1" id="lnk3"><path codeLine="1" d="M651.3905,67.9716 C634.4005,85.6316 623.51,96.94 606.44,114.68" fill="none" id="Property-backto-ActuatableProperty" style="stroke:#181818;stroke-width:1;"/><polygon fill="none" points="663.87,55,647.0667,63.8118,655.7144,72.1314,663.87,55" style="stroke:#181818;stroke-width:1;stroke-linejoin:miter;stroke-miterlimit:10;"/></g><!--reverse link Sample to MaterialSample--><g class="link" data-entity-1="ent0004" data-entity-2="ent0005" data-link-type="extension" data-source-line="2" id="lnk6"><path codeLine="2" d="M1100.3567,64.4445 C1071.6067,82.1645 1047.35,97.11 1018.55,114.86" fill="none" id="Sample-backto-MaterialSample" style="stroke:#181818;stroke-width:1;"/><polygon fill="none" points="1115.68,55,1097.2086,59.3367,1103.5049,69.5522,1115.68,55" style="stroke:#181818;stroke-width:1;stroke-linejoin:miter;stroke-miterlimit:10;"/></g><!--reverse link Sample to SpatialSample--><g class="link" data-entity-1="ent0004" data-entity-2="ent0007" data-link-type="extension" data-source-line="3" id="lnk8"><path codeLine="3" d="M1153,73 C1153,90.66 1153,96.94 1153,114.68" fill="none" id="Sample-backto-SpatialSample" style="stroke:#181818;stroke-width:1;"/><polygon fill="none" points="1153,55,1147,73,1159,73,1153,55" style="stroke:#181818;stroke-width:1;stroke-linejoin:miter;stroke-miterlimit:10;"/></g><!--reverse link Sample to StatisticalSample--><g class="link" data-entity-1="ent0004" data-entity-2="ent0009" data-link-type="extension" data-source-line="4" id="lnk10"><path codeLine="4" d="M1207.3276,64.1725 C1237.2476,81.8925 1262.95,97.11 1292.93,114.86" fill="none" id="Sample-backto-StatisticalSample" style="stroke:#181818;stroke-width:1;"/><polygon fill="none" points="1191.84,55,1204.2701,69.335,1210.3851,59.0099,1191.84,55" style="stroke:#181818;stroke-width:1;stroke-linejoin:miter;stroke-miterlimit:10;"/></g><!--reverse link Property to ObservableProperty--><g class="link" data-entity-1="ent0001" data-entity-2="ent0011" data-link-type="extension" data-source-line="5" id="lnk12"><path codeLine="5" d="M720.8939,67.9094 C738.0539,85.5694 749.1,96.94 766.34,114.68" fill="none" id="Property-backto-ObservableProperty" style="stroke:#181818;stroke-width:1;"/><polygon fill="none" points="708.35,55,716.5907,72.0906,725.197,63.7281,708.35,55" style="stroke:#181818;stroke-width:1;stroke-linejoin:miter;stroke-miterlimit:10;"/></g><!--reverse link Procedure to ActuatingProcedure--><g class="link" data-entity-1="ent0013" data-entity-2="ent0014" data-link-type="extension" data-source-line="6" id="lnk15"><path codeLine="6" d="M1676.8326,63.1732 C1642.0626,80.8932 1610.24,97.11 1575.4,114.86" fill="none" id="Procedure-backto-ActuatingProcedure" style="stroke:#181818;stroke-width:1;"/><polygon fill="none" points="1692.87,55,1674.1082,57.8274,1679.557,68.519,1692.87,55" style="stroke:#181818;stroke-width:1;stroke-linejoin:miter;stroke-miterlimit:10;"/></g><!--reverse link Procedure to ObservingProcedure--><g class="link" data-entity-1="ent0013" data-entity-2="ent0016" data-link-type="extension" data-source-line="7" id="lnk17"><path codeLine="7" d="M1738,73 C1738,90.66 1738,96.94 1738,114.68" fill="none" id="Procedure-backto-ObservingProcedure" style="stroke:#181818;stroke-width:1;"/><polygon fill="none" points="1738,55,1732,73,1744,73,1738,55" style="stroke:#181818;stroke-width:1;stroke-linejoin:miter;stroke-miterlimit:10;"/></g><!--reverse link Procedure to SamplingProcedure--><g class="link" data-entity-1="ent0013" data-entity-2="ent0018" data-link-type="extension" data-source-line="8" id="lnk19"><path codeLine="8" d="M1798.9411,63.205 C1833.5411,80.925 1865.15,97.11 1899.81,114.86" fill="none" id="Procedure-backto-SamplingProcedure" style="stroke:#181818;stroke-width:1;"/><polygon fill="none" points="1782.92,55,1796.2061,68.5454,1801.6762,57.8647,1782.92,55" style="stroke:#181818;stroke-width:1;stroke-linejoin:miter;stroke-miterlimit:10;"/></g><!--reverse link Asset to Platform--><g class="link" data-entity-1="ent0020" data-entity-2="ent0021" data-link-type="extension" data-source-line="9" id="lnk22"><path codeLine="9" d="M2148.7839,70.6022 C2138.6239,88.2622 2133.63,96.94 2123.42,114.68" fill="none" id="Asset-backto-Platform" style="stroke:#181818;stroke-width:1;"/><polygon fill="none" points="2157.76,55,2143.5831,67.6102,2153.9846,73.5943,2157.76,55" style="stroke:#181818;stroke-width:1;stroke-linejoin:miter;stroke-miterlimit:10;"/></g><!--reverse link System to Sampler--><g class="link" data-entity-1="ent0023" data-entity-2="ent0024" data-link-type="extension" data-source-line="10" id="lnk25"><path codeLine="10" d="M2191.8865,174.5884 C2170.8965,192.2484 2155.81,204.94 2134.72,222.68" fill="none" id="System-backto-Sampler" style="stroke:#181818;stroke-width:1;"/><polygon fill="none" points="2205.66,163,2188.0237,169.9972,2195.7493,179.1795,2205.66,163" style="stroke:#181818;stroke-width:1;stroke-linejoin:miter;stroke-miterlimit:10;"/></g><!--reverse link System to Actuator--><g class="link" data-entity-1="ent0023" data-entity-2="ent0026" data-link-type="extension" data-source-line="11" id="lnk27"><path codeLine="11" d="M2233,181 C2233,198.66 2233,204.94 2233,222.68" fill="none" id="System-backto-Actuator" style="stroke:#181818;stroke-width:1;"/><polygon fill="none" points="2233,163,2227,181,2239,181,2233,163" style="stroke:#181818;stroke-width:1;stroke-linejoin:miter;stroke-miterlimit:10;"/></g><!--reverse link Asset to System--><g class="link" data-entity-1="ent0020" data-entity-2="ent0023" data-link-type="extension" data-source-line="12" id="lnk28"><path codeLine="12" d="M2193.5383,70.5372 C2203.8683,88.1972 2208.98,96.94 2219.36,114.68" fill="none" id="Asset-backto-System" style="stroke:#181818;stroke-width:1;"/><polygon fill="none" points="2184.45,55,2188.3592,73.5666,2198.7173,67.5077,2184.45,55" style="stroke:#181818;stroke-width:1;stroke-linejoin:miter;stroke-miterlimit:10;"/></g><!--reverse link Execution to Sampling--><g class="link" data-entity-1="ent0029" data-entity-2="ent0030" data-link-type="extension" data-source-line="13" id="lnk31"><path codeLine="13" d="M2449.8041,66.1688 C2427.4841,83.8288 2410.91,96.94 2388.48,114.68" fill="none" id="Execution-backto-Sampling" style="stroke:#181818;stroke-width:1;"/><polygon fill="none" points="2463.92,55,2446.0812,61.4635,2453.527,70.8741,2463.92,55" style="stroke:#181818;stroke-width:1;stroke-linejoin:miter;stroke-miterlimit:10;"/></g><!--reverse link ExecutionCollection to SamplingCollection--><g class="link" data-entity-1="ent0032" data-entity-2="ent0033" data-link-type="extension" data-source-line="14" id="lnk34"><path codeLine="14" d="M2955.231,63.3636 C2921.461,81.0836 2890.93,97.11 2857.09,114.86" fill="none" id="ExecutionCollection-backto-SamplingCollection" style="stroke:#181818;stroke-width:1;"/><polygon fill="none" points="2971.17,55,2952.4432,58.0506,2958.0189,68.6766,2971.17,55" style="stroke:#181818;stroke-width:1;stroke-linejoin:miter;stroke-miterlimit:10;"/></g><!--reverse link Execution to Actuation--><g class="link" data-entity-1="ent0029" data-entity-2="ent0035" data-link-type="extension" data-source-line="15" id="lnk36"><path codeLine="15" d="M2493,73 C2493,90.66 2493,96.94 2493,114.68" fill="none" id="Execution-backto-Actuation" style="stroke:#181818;stroke-width:1;"/><polygon fill="none" points="2493,55,2487,73,2499,73,2493,55" style="stroke:#181818;stroke-width:1;stroke-linejoin:miter;stroke-miterlimit:10;"/></g><!--reverse link System to Sensor--><g class="link" data-entity-1="ent0023" data-entity-2="ent0037" data-link-type="extension" data-source-line="16" id="lnk38"><path codeLine="16" d="M2272.7968,174.864 C2292.9468,192.524 2307.13,204.94 2327.38,222.68" fill="none" id="System-backto-Sensor" style="stroke:#181818;stroke-width:1;"/><polygon fill="none" points="2259.26,163,2268.8421,179.3763,2276.7515,170.3518,2259.26,163" style="stroke:#181818;stroke-width:1;stroke-linejoin:miter;stroke-miterlimit:10;"/></g><!--reverse link ExecutionCollection to ActuationCollection--><g class="link" data-entity-1="ent0032" data-entity-2="ent0039" data-link-type="extension" data-source-line="17" id="lnk40"><path codeLine="17" d="M3015,73 C3015,90.66 3015,96.94 3015,114.68" fill="none" id="ExecutionCollection-backto-ActuationCollection" style="stroke:#181818;stroke-width:1;"/><polygon fill="none" points="3015,55,3009,73,3021,73,3015,55" style="stroke:#181818;stroke-width:1;stroke-linejoin:miter;stroke-miterlimit:10;"/></g><!--reverse link ExecutionCollection to ObservationCollection--><g class="link" data-entity-1="ent0032" data-entity-2="ent0041" data-link-type="extension" data-source-line="18" id="lnk42"><path codeLine="18" d="M3077.0997,63.0498 C3112.5397,80.7698 3145.22,97.11 3180.72,114.86" fill="none" id="ExecutionCollection-backto-ObservationCollection" style="stroke:#181818;stroke-width:1;"/><polygon fill="none" points="3061,55,3074.4164,68.4164,3079.783,57.6833,3061,55" style="stroke:#181818;stroke-width:1;stroke-linejoin:miter;stroke-miterlimit:10;"/></g><!--reverse link Execution to Observation--><g class="link" data-entity-1="ent0029" data-entity-2="ent0043" data-link-type="extension" data-source-line="19" id="lnk44"><path codeLine="19" d="M2538.4895,65.7202 C2562.3095,83.3802 2580.61,96.94 2604.54,114.68" fill="none" id="Execution-backto-Observation" style="stroke:#181818;stroke-width:1;"/><polygon fill="none" points="2524.03,55,2534.9161,70.54,2542.0629,60.9004,2524.03,55" style="stroke:#181818;stroke-width:1;stroke-linejoin:miter;stroke-miterlimit:10;"/></g><?plantuml-src VL9RRiCW4FptANo1tA0_KHzIFYfRzGasT5CXBG-nIrLBFNnHeCGufNymCpiph9Y3ynXa7H--3uVng2I2m9bmBlYmWF64cNu5mQ21CjPGYmVfC98O5gqgEpUPqvanV3QPwQ3mFGRSjjBse-9xHVRuJt6DRWH7PfHCpWHoSS4Coyg2PZE1eS5o4nUsmvaVdhzGHT7Ejdat_D4HeRfNtF2zHtbt8ffUQ3arwFhMgR-Cz-Ao_9xyJZGe0kRn1K7I3gVBoQOVWIm5FraVVy-BQ1CfShc-8KUgt7MtcyGCFw4djngq7O-owdoflwKpEqL9PNu0?></g></svg>