<svg xmlns="http://www.w3.org/2000/svg" xmlns:xlink="http://www.w3.org/1999/xlink" contentStyleType="text/css" data-diagram-type="CLASS" height="286px" preserveAspectRatio="none" style="width:3269px;height:286px;background:#FFFFFF;" version="1.1" viewBox="0 0 3269 286" width="3269px" zoomAndPan="magnify"><?plantuml 1.2026.6?><defs/><g><!--class Property--><g class="entity" data-qualified-name="Property" data-source-line="1" id="ent0001"><rect fill="#F1F1F1" height="48" rx="2.5" ry="2.5" style="stroke:#181818;stroke-width:0.5;" width="91.7939" x="577.5" y="7"/><ellipse cx="592.5" cy="23" fill="#ADD1B2" rx="11" ry="11" style="stroke:#181818;stroke-width:1;"/><path d="M595.4688,28.6406 Q594.8906,28.9375 594.25,29.0781 Q593.6094,29.2344 592.9063,29.2344 Q590.4063,29.2344 589.0781,27.5938 Q587.7656,25.9375 587.7656,22.8125 Q587.7656,19.6875 589.0781,18.0313 Q590.4063,16.375 592.9063,16.375 Q593.6094,16.375 594.25,16.5313 Q594.9063,16.6875 595.4688,16.9844 L595.4688,19.7031 Q594.8438,19.125 594.25,18.8594 Q593.6563,18.5781 593.0313,18.5781 Q591.6875,18.5781 591,19.6563 Q590.3125,20.7188 590.3125,22.8125 Q590.3125,24.9063 591,25.9844 Q591.6875,27.0469 593.0313,27.0469 Q593.6563,27.0469 594.25,26.7813 Q594.8438,26.5 595.4688,25.9219 L595.4688,28.6406 Z " fill="#000000"/><text fill="#000000" font-family="sans-serif" font-size="14" lengthAdjust="spacing" textLength="59.7939" x="606.5" y="27.8467">Property</text><line style="stroke:#181818;stroke-width:0.5;" x1="578.5" x2="668.2939" y1="39" y2="39"/><line style="stroke:#181818;stroke-width:0.5;" x1="578.5" x2="668.2939" y1="47" y2="47"/></g><!--class ActuatableProperty--><g class="entity" data-qualified-name="ActuatableProperty" data-source-line="1" id="ent0002"><rect fill="#F1F1F1" height="48" rx="2.5" ry="2.5" style="stroke:#181818;stroke-width:0.5;" width="167.4678" x="435" y="115"/><ellipse cx="450" cy="131" fill="#ADD1B2" rx="11" ry="11" style="stroke:#181818;stroke-width:1;"/><path d="M452.9688,136.6406 Q452.3906,136.9375 451.75,137.0781 Q451.1094,137.2344 450.4063,137.2344 Q447.9063,137.2344 446.5781,135.5938 Q445.2656,133.9375 445.2656,130.8125 Q445.2656,127.6875 446.5781,126.0313 Q447.9063,124.375 450.4063,124.375 Q451.1094,124.375 451.75,124.5313 Q452.4063,124.6875 452.9688,124.9844 L452.9688,127.7031 Q452.3438,127.125 451.75,126.8594 Q451.1563,126.5781 450.5313,126.5781 Q449.1875,126.5781 448.5,127.6563 Q447.8125,128.7188 447.8125,130.8125 Q447.8125,132.9063 448.5,133.9844 Q449.1875,135.0469 450.5313,135.0469 Q451.1563,135.0469 451.75,134.7813 Q452.3438,134.5 452.9688,133.9219 L452.9688,136.6406 Z " fill="#000000"/><text fill="#000000" font-family="sans-serif" font-size="14" lengthAdjust="spacing" textLength="135.4678" x="464" y="135.8467">ActuatableProperty</text><line style="stroke:#181818;stroke-width:0.5;" x1="436" x2="601.4678" y1="147" y2="147"/><line style="stroke:#181818;stroke-width:0.5;" x1="436" x2="601.4678" y1="155" y2="155"/></g><!--class Sample--><g class="entity" data-qualified-name="Sample" data-source-line="2" id="ent0004"><rect fill="#F1F1F1" height="48" rx="2.5" ry="2.5" style="stroke:#181818;stroke-width:0.5;" width="84.4932" x="1045.5" y="7"/><ellipse cx="1060.5" cy="23" fill="#ADD1B2" rx="11" ry="11" style="stroke:#181818;stroke-width:1;"/><path d="M1063.4688,28.6406 Q1062.8906,28.9375 1062.25,29.0781 Q1061.6094,29.2344 1060.9063,29.2344 Q1058.4063,29.2344 1057.0781,27.5938 Q1055.7656,25.9375 1055.7656,22.8125 Q1055.7656,19.6875 1057.0781,18.0313 Q1058.4063,16.375 1060.9063,16.375 Q1061.6094,16.375 1062.25,16.5313 Q1062.9063,16.6875 1063.4688,16.9844 L1063.4688,19.7031 Q1062.8438,19.125 1062.25,18.8594 Q1061.6563,18.5781 1061.0313,18.5781 Q1059.6875,18.5781 1059,19.6563 Q1058.3125,20.7188 1058.3125,22.8125 Q1058.3125,24.9063 1059,25.9844 Q1059.6875,27.0469 1061.0313,27.0469 Q1061.6563,27.0469 1062.25,26.7813 Q1062.8438,26.5 1063.4688,25.9219 L1063.4688,28.6406 Z " fill="#000000"/><text fill="#000000" font-family="sans-serif" font-size="14" lengthAdjust="spacing" textLength="52.4932" x="1074.5" y="27.8467">Sample</text><line style="stroke:#181818;stroke-width:0.5;" x1="1046.5" x2="1128.9932" y1="39" y2="39"/><line style="stroke:#181818;stroke-width:0.5;" x1="1046.5" x2="1128.9932" y1="47" y2="47"/></g><!--class MaterialSample--><g class="entity" data-qualified-name="MaterialSample" data-source-line="2" id="ent0005"><rect fill="#F1F1F1" height="48" rx="2.5" ry="2.5" style="stroke:#181818;stroke-width:0.5;" width="141.3682" x="845" y="115"/><ellipse cx="860" cy="131" fill="#ADD1B2" rx="11" ry="11" style="stroke:#181818;stroke-width:1;"/><path d="M862.9688,136.6406 Q862.3906,136.9375 861.75,137.0781 Q861.1094,137.2344 860.4063,137.2344 Q857.9063,137.2344 856.5781,135.5938 Q855.2656,133.9375 855.2656,130.8125 Q855.2656,127.6875 856.5781,126.0313 Q857.9063,124.375 860.4063,124.375 Q861.1094,124.375 861.75,124.5313 Q862.4063,124.6875 862.9688,124.9844 L862.9688,127.7031 Q862.3438,127.125 861.75,126.8594 Q861.1563,126.5781 860.5313,126.5781 Q859.1875,126.5781 858.5,127.6563 Q857.8125,128.7188 857.8125,130.8125 Q857.8125,132.9063 858.5,133.9844 Q859.1875,135.0469 860.5313,135.0469 Q861.1563,135.0469 861.75,134.7813 Q862.3438,134.5 862.9688,133.9219 L862.9688,136.6406 Z " fill="#000000"/><text fill="#000000" font-family="sans-serif" font-size="14" lengthAdjust="spacing" textLength="109.3682" x="874" y="135.8467">MaterialSample</text><line style="stroke:#181818;stroke-width:0.5;" x1="846" x2="985.3682" y1="147" y2="147"/><line style="stroke:#181818;stroke-width:0.5;" x1="846" x2="985.3682" y1="155" y2="155"/></g><!--class SpatialSample--><g class="entity" data-qualified-name="SpatialSample" data-source-line="3" id="ent0007"><rect fill="#F1F1F1" height="48" rx="2.5" ry="2.5" style="stroke:#181818;stroke-width:0.5;" width="132.6934" x="1021" y="115"/><ellipse cx="1036" cy="131" fill="#ADD1B2" rx="11" ry="11" style="stroke:#181818;stroke-width:1;"/><path d="M1038.9688,136.6406 Q1038.3906,136.9375 1037.75,137.0781 Q1037.1094,137.2344 1036.4063,137.2344 Q1033.9063,137.2344 1032.5781,135.5938 Q1031.2656,133.9375 1031.2656,130.8125 Q1031.2656,127.6875 1032.5781,126.0313 Q1033.9063,124.375 1036.4063,124.375 Q1037.1094,124.375 1037.75,124.5313 Q1038.4063,124.6875 1038.9688,124.9844 L1038.9688,127.7031 Q1038.3438,127.125 1037.75,126.8594 Q1037.1563,126.5781 1036.5313,126.5781 Q1035.1875,126.5781 1034.5,127.6563 Q1033.8125,128.7188 1033.8125,130.8125 Q1033.8125,132.9063 1034.5,133.9844 Q1035.1875,135.0469 1036.5313,135.0469 Q1037.1563,135.0469 1037.75,134.7813 Q1038.3438,134.5 1038.9688,133.9219 L1038.9688,136.6406 Z " fill="#000000"/><text fill="#000000" font-family="sans-serif" font-size="14" lengthAdjust="spacing" textLength="100.6934" x="1050" y="135.8467">SpatialSample</text><line style="stroke:#181818;stroke-width:0.5;" x1="1022" x2="1152.6934" y1="147" y2="147"/><line style="stroke:#181818;stroke-width:0.5;" x1="1022" x2="1152.6934" y1="155" y2="155"/></g><!--class StatisticalSample--><g class="entity" data-qualified-name="StatisticalSample" data-source-line="4" id="ent0009"><rect fill="#F1F1F1" height="48" rx="2.5" ry="2.5" style="stroke:#181818;stroke-width:0.5;" width="153.666" x="1189.5" y="115"/><ellipse cx="1204.5" cy="131" fill="#ADD1B2" rx="11" ry="11" style="stroke:#181818;stroke-width:1;"/><path d="M1207.4688,136.6406 Q1206.8906,136.9375 1206.25,137.0781 Q1205.6094,137.2344 1204.9063,137.2344 Q1202.4063,137.2344 1201.0781,135.5938 Q1199.7656,133.9375 1199.7656,130.8125 Q1199.7656,127.6875 1201.0781,126.0313 Q1202.4063,124.375 1204.9063,124.375 Q1205.6094,124.375 1206.25,124.5313 Q1206.9063,124.6875 1207.4688,124.9844 L1207.4688,127.7031 Q1206.8438,127.125 1206.25,126.8594 Q1205.6563,126.5781 1205.0313,126.5781 Q1203.6875,126.5781 1203,127.6563 Q1202.3125,128.7188 1202.3125,130.8125 Q1202.3125,132.9063 1203,133.9844 Q1203.6875,135.0469 1205.0313,135.0469 Q1205.6563,135.0469 1206.25,134.7813 Q1206.8438,134.5 1207.4688,133.9219 L1207.4688,136.6406 Z " fill="#000000"/><text fill="#000000" font-family="sans-serif" font-size="14" lengthAdjust="spacing" textLength="121.666" x="1218.5" y="135.8467">StatisticalSample</text><line style="stroke:#181818;stroke-width:0.5;" x1="1190.5" x2="1342.166" y1="147" y2="147"/><line style="stroke:#181818;stroke-width:0.5;" x1="1190.5" x2="1342.166" y1="155" y2="155"/></g><!--class ObservableProperty--><g class="entity" data-qualified-name="ObservableProperty" data-source-line="5" id="ent0011"><rect fill="#F1F1F1" height="48" rx="2.5" ry="2.5" style="stroke:#181818;stroke-width:0.5;" width="171.6172" x="637.5" y="115"/><ellipse cx="652.5" cy="131" fill="#ADD1B2" rx="11" ry="11" style="stroke:#181818;stroke-width:1;"/><path d="M655.4688,136.6406 Q654.8906,136.9375 654.25,137.0781 Q653.6094,137.2344 652.9063,137.2344 Q650.4063,137.2344 649.0781,135.5938 Q647.7656,133.9375 647.7656,130.8125 Q647.7656,127.6875 649.0781,126.0313 Q650.4063,124.375 652.9063,124.375 Q653.6094,124.375 654.25,124.5313 Q654.9063,124.6875 655.4688,124.9844 L655.4688,127.7031 Q654.8438,127.125 654.25,126.8594 Q653.6563,126.5781 653.0313,126.5781 Q651.6875,126.5781 651,127.6563 Q650.3125,128.7188 650.3125,130.8125 Q650.3125,132.9063 651,133.9844 Q651.6875,135.0469 653.0313,135.0469 Q653.6563,135.0469 654.25,134.7813 Q654.8438,134.5 655.4688,133.9219 L655.4688,136.6406 Z " fill="#000000"/><text fill="#000000" font-family="sans-serif" font-size="14" lengthAdjust="spacing" textLength="139.6172" x="666.5" y="135.8467">ObservableProperty</text><line style="stroke:#181818;stroke-width:0.5;" x1="638.5" x2="808.1172" y1="147" y2="147"/><line style="stroke:#181818;stroke-width:0.5;" x1="638.5" x2="808.1172" y1="155" y2="155"/></g><!--class Procedure--><g class="entity" data-qualified-name="Procedure" data-source-line="6" id="ent0013"><rect fill="#F1F1F1" height="48" rx="2.5" ry="2.5" style="stroke:#181818;stroke-width:0.5;" width="103.2031" x="1621" y="7"/><ellipse cx="1636" cy="23" fill="#ADD1B2" rx="11" ry="11" style="stroke:#181818;stroke-width:1;"/><path d="M1638.9688,28.6406 Q1638.3906,28.9375 1637.75,29.0781 Q1637.1094,29.2344 1636.4063,29.2344 Q1633.9063,29.2344 1632.5781,27.5938 Q1631.2656,25.9375 1631.2656,22.8125 Q1631.2656,19.6875 1632.5781,18.0313 Q1633.9063,16.375 1636.4063,16.375 Q1637.1094,16.375 1637.75,16.5313 Q1638.4063,16.6875 1638.9688,16.9844 L1638.9688,19.7031 Q1638.3438,19.125 1637.75,18.8594 Q1637.1563,18.5781 1636.5313,18.5781 Q1635.1875,18.5781 1634.5,19.6563 Q1633.8125,20.7188 1633.8125,22.8125 Q1633.8125,24.9063 1634.5,25.9844 Q1635.1875,27.0469 1636.5313,27.0469 Q1637.1563,27.0469 1637.75,26.7813 Q1638.3438,26.5 1638.9688,25.9219 L1638.9688,28.6406 Z " fill="#000000"/><text fill="#000000" font-family="sans-serif" font-size="14" lengthAdjust="spacing" textLength="71.2031" x="1650" y="27.8467">Procedure</text><line style="stroke:#181818;stroke-width:0.5;" x1="1622" x2="1723.2031" y1="39" y2="39"/><line style="stroke:#181818;stroke-width:0.5;" x1="1622" x2="1723.2031" y1="47" y2="47"/></g><!--class ActuatingProcedure--><g class="entity" data-qualified-name="ActuatingProcedure" data-source-line="6" id="ent0014"><rect fill="#F1F1F1" height="48" rx="2.5" ry="2.5" style="stroke:#181818;stroke-width:0.5;" width="170.5576" x="1379" y="115"/><ellipse cx="1394" cy="131" fill="#ADD1B2" rx="11" ry="11" style="stroke:#181818;stroke-width:1;"/><path d="M1396.9688,136.6406 Q1396.3906,136.9375 1395.75,137.0781 Q1395.1094,137.2344 1394.4063,137.2344 Q1391.9063,137.2344 1390.5781,135.5938 Q1389.2656,133.9375 1389.2656,130.8125 Q1389.2656,127.6875 1390.5781,126.0313 Q1391.9063,124.375 1394.4063,124.375 Q1395.1094,124.375 1395.75,124.5313 Q1396.4063,124.6875 1396.9688,124.9844 L1396.9688,127.7031 Q1396.3438,127.125 1395.75,126.8594 Q1395.1563,126.5781 1394.5313,126.5781 Q1393.1875,126.5781 1392.5,127.6563 Q1391.8125,128.7188 1391.8125,130.8125 Q1391.8125,132.9063 1392.5,133.9844 Q1393.1875,135.0469 1394.5313,135.0469 Q1395.1563,135.0469 1395.75,134.7813 Q1396.3438,134.5 1396.9688,133.9219 L1396.9688,136.6406 Z " fill="#000000"/><text fill="#000000" font-family="sans-serif" font-size="14" lengthAdjust="spacing" textLength="138.5576" x="1408" y="135.8467">ActuatingProcedure</text><line style="stroke:#181818;stroke-width:0.5;" x1="1380" x2="1548.5576" y1="147" y2="147"/><line style="stroke:#181818;stroke-width:0.5;" x1="1380" x2="1548.5576" y1="155" y2="155"/></g><!--class ObservingProcedure--><g class="entity" data-qualified-name="ObservingProcedure" data-source-line="7" id="ent0016"><rect fill="#F1F1F1" height="48" rx="2.5" ry="2.5" style="stroke:#181818;stroke-width:0.5;" width="174.707" x="1585" y="115"/><ellipse cx="1600" cy="131" fill="#ADD1B2" rx="11" ry="11" style="stroke:#181818;stroke-width:1;"/><path d="M1602.9688,136.6406 Q1602.3906,136.9375 1601.75,137.0781 Q1601.1094,137.2344 1600.4063,137.2344 Q1597.9063,137.2344 1596.5781,135.5938 Q1595.2656,133.9375 1595.2656,130.8125 Q1595.2656,127.6875 1596.5781,126.0313 Q1597.9063,124.375 1600.4063,124.375 Q1601.1094,124.375 1601.75,124.5313 Q1602.4063,124.6875 1602.9688,124.9844 L1602.9688,127.7031 Q1602.3438,127.125 1601.75,126.8594 Q1601.1563,126.5781 1600.5313,126.5781 Q1599.1875,126.5781 1598.5,127.6563 Q1597.8125,128.7188 1597.8125,130.8125 Q1597.8125,132.9063 1598.5,133.9844 Q1599.1875,135.0469 1600.5313,135.0469 Q1601.1563,135.0469 1601.75,134.7813 Q1602.3438,134.5 1602.9688,133.9219 L1602.9688,136.6406 Z " fill="#000000"/><text fill="#000000" font-family="sans-serif" font-size="14" lengthAdjust="spacing" textLength="142.707" x="1614" y="135.8467">ObservingProcedure</text><line style="stroke:#181818;stroke-width:0.5;" x1="1586" x2="1758.707" y1="147" y2="147"/><line style="stroke:#181818;stroke-width:0.5;" x1="1586" x2="1758.707" y1="155" y2="155"/></g><!--class SamplingProcedure--><g class="entity" data-qualified-name="SamplingProcedure" data-source-line="8" id="ent0018"><rect fill="#F1F1F1" height="48" rx="2.5" ry="2.5" style="stroke:#181818;stroke-width:0.5;" width="168.7324" x="1795" y="115"/><ellipse cx="1810" cy="131" fill="#ADD1B2" rx="11" ry="11" style="stroke:#181818;stroke-width:1;"/><path d="M1812.9688,136.6406 Q1812.3906,136.9375 1811.75,137.0781 Q1811.1094,137.2344 1810.4063,137.2344 Q1807.9063,137.2344 1806.5781,135.5938 Q1805.2656,133.9375 1805.2656,130.8125 Q1805.2656,127.6875 1806.5781,126.0313 Q1807.9063,124.375 1810.4063,124.375 Q1811.1094,124.375 1811.75,124.5313 Q1812.4063,124.6875 1812.9688,124.9844 L1812.9688,127.7031 Q1812.3438,127.125 1811.75,126.8594 Q1811.1563,126.5781 1810.5313,126.5781 Q1809.1875,126.5781 1808.5,127.6563 Q1807.8125,128.7188 1807.8125,130.8125 Q1807.8125,132.9063 1808.5,133.9844 Q1809.1875,135.0469 1810.5313,135.0469 Q1811.1563,135.0469 1811.75,134.7813 Q1812.3438,134.5 1812.9688,133.9219 L1812.9688,136.6406 Z " fill="#000000"/><text fill="#000000" font-family="sans-serif" font-size="14" lengthAdjust="spacing" textLength="136.7324" x="1824" y="135.8467">SamplingProcedure</text><line style="stroke:#181818;stroke-width:0.5;" x1="1796" x2="1962.7324" y1="147" y2="147"/><line style="stroke:#181818;stroke-width:0.5;" x1="1796" x2="1962.7324" y1="155" y2="155"/></g><!--class Asset--><g class="entity" data-qualified-name="Asset" data-source-line="9" id="ent0020"><rect fill="#F1F1F1" height="48" rx="2.5" ry="2.5" style="stroke:#181818;stroke-width:0.5;" width="70.2676" x="2070.5" y="7"/><ellipse cx="2085.5" cy="23" fill="#ADD1B2" rx="11" ry="11" style="stroke:#181818;stroke-width:1;"/><path d="M2088.4688,28.6406 Q2087.8906,28.9375 2087.25,29.0781 Q2086.6094,29.2344 2085.9063,29.2344 Q2083.4063,29.2344 2082.0781,27.5938 Q2080.7656,25.9375 2080.7656,22.8125 Q2080.7656,19.6875 2082.0781,18.0313 Q2083.4063,16.375 2085.9063,16.375 Q2086.6094,16.375 2087.25,16.5313 Q2087.9063,16.6875 2088.4688,16.9844 L2088.4688,19.7031 Q2087.8438,19.125 2087.25,18.8594 Q2086.6563,18.5781 2086.0313,18.5781 Q2084.6875,18.5781 2084,19.6563 Q2083.3125,20.7188 2083.3125,22.8125 Q2083.3125,24.9063 2084,25.9844 Q2084.6875,27.0469 2086.0313,27.0469 Q2086.6563,27.0469 2087.25,26.7813 Q2087.8438,26.5 2088.4688,25.9219 L2088.4688,28.6406 Z " fill="#000000"/><text fill="#000000" font-family="sans-serif" font-size="14" lengthAdjust="spacing" textLength="38.2676" x="2099.5" y="27.8467">Asset</text><line style="stroke:#181818;stroke-width:0.5;" x1="2071.5" x2="2139.7676" y1="39" y2="39"/><line style="stroke:#181818;stroke-width:0.5;" x1="2071.5" x2="2139.7676" y1="47" y2="47"/></g><!--class Platform--><g class="entity" data-qualified-name="Platform" data-source-line="9" id="ent0021"><rect fill="#F1F1F1" height="48" rx="2.5" ry="2.5" style="stroke:#181818;stroke-width:0.5;" width="91.2881" x="1999" y="115"/><ellipse cx="2014" cy="131" fill="#ADD1B2" rx="11" ry="11" style="stroke:#181818;stroke-width:1;"/><path d="M2016.9688,136.6406 Q2016.3906,136.9375 2015.75,137.0781 Q2015.1094,137.2344 2014.4063,137.2344 Q2011.9063,137.2344 2010.5781,135.5938 Q2009.2656,133.9375 2009.2656,130.8125 Q2009.2656,127.6875 2010.5781,126.0313 Q2011.9063,124.375 2014.4063,124.375 Q2015.1094,124.375 2015.75,124.5313 Q2016.4063,124.6875 2016.9688,124.9844 L2016.9688,127.7031 Q2016.3438,127.125 2015.75,126.8594 Q2015.1563,126.5781 2014.5313,126.5781 Q2013.1875,126.5781 2012.5,127.6563 Q2011.8125,128.7188 2011.8125,130.8125 Q2011.8125,132.9063 2012.5,133.9844 Q2013.1875,135.0469 2014.5313,135.0469 Q2015.1563,135.0469 2015.75,134.7813 Q2016.3438,134.5 2016.9688,133.9219 L2016.9688,136.6406 Z " fill="#000000"/><text fill="#000000" font-family="sans-serif" font-size="14" lengthAdjust="spacing" textLength="59.2881" x="2028" y="135.8467">Platform</text><line style="stroke:#181818;stroke-width:0.5;" x1="2000" x2="2089.2881" y1="147" y2="147"/><line style="stroke:#181818;stroke-width:0.5;" x1="2000" x2="2089.2881" y1="155" y2="155"/></g><!--class System--><g class="entity" data-qualified-name="System" data-source-line="10" id="ent0023"><rect fill="#F1F1F1" height="48" rx="2.5" ry="2.5" style="stroke:#181818;stroke-width:0.5;" width="84.2061" x="2125.5" y="115"/><ellipse cx="2140.5" cy="131" fill="#ADD1B2" rx="11" ry="11" style="stroke:#181818;stroke-width:1;"/><path d="M2143.4688,136.6406 Q2142.8906,136.9375 2142.25,137.0781 Q2141.6094,137.2344 2140.9063,137.2344 Q2138.4063,137.2344 2137.0781,135.5938 Q2135.7656,133.9375 2135.7656,130.8125 Q2135.7656,127.6875 2137.0781,126.0313 Q2138.4063,124.375 2140.9063,124.375 Q2141.6094,124.375 2142.25,124.5313 Q2142.9063,124.6875 2143.4688,124.9844 L2143.4688,127.7031 Q2142.8438,127.125 2142.25,126.8594 Q2141.6563,126.5781 2141.0313,126.5781 Q2139.6875,126.5781 2139,127.6563 Q2138.3125,128.7188 2138.3125,130.8125 Q2138.3125,132.9063 2139,133.9844 Q2139.6875,135.0469 2141.0313,135.0469 Q2141.6563,135.0469 2142.25,134.7813 Q2142.8438,134.5 2143.4688,133.9219 L2143.4688,136.6406 Z " fill="#000000"/><text fill="#000000" font-family="sans-serif" font-size="14" lengthAdjust="spacing" textLength="52.2061" x="2154.5" y="135.8467">System</text><line style="stroke:#181818;stroke-width:0.5;" x1="2126.5" x2="2208.7061" y1="147" y2="147"/><line style="stroke:#181818;stroke-width:0.5;" x1="2126.5" x2="2208.7061" y1="155" y2="155"/></g><!--class Sampler--><g class="entity" data-qualified-name="Sampler" data-source-line="10" id="ent0024"><rect fill="#F1F1F1" height="48" rx="2.5" ry="2.5" style="stroke:#181818;stroke-width:0.5;" width="90.249" x="1996.5" y="223"/><ellipse cx="2011.5" cy="239" fill="#ADD1B2" rx="11" ry="11" style="stroke:#181818;stroke-width:1;"/><path d="M2014.4688,244.6406 Q2013.8906,244.9375 2013.25,245.0781 Q2012.6094,245.2344 2011.9063,245.2344 Q2009.4063,245.2344 2008.0781,243.5938 Q2006.7656,241.9375 2006.7656,238.8125 Q2006.7656,235.6875 2008.0781,234.0313 Q2009.4063,232.375 2011.9063,232.375 Q2012.6094,232.375 2013.25,232.5313 Q2013.9063,232.6875 2014.4688,232.9844 L2014.4688,235.7031 Q2013.8438,235.125 2013.25,234.8594 Q2012.6563,234.5781 2012.0313,234.5781 Q2010.6875,234.5781 2010,235.6563 Q2009.3125,236.7188 2009.3125,238.8125 Q2009.3125,240.9063 2010,241.9844 Q2010.6875,243.0469 2012.0313,243.0469 Q2012.6563,243.0469 2013.25,242.7813 Q2013.8438,242.5 2014.4688,241.9219 L2014.4688,244.6406 Z " fill="#000000"/><text fill="#000000" font-family="sans-serif" font-size="14" lengthAdjust="spacing" textLength="58.249" x="2025.5" y="243.8467">Sampler</text><line style="stroke:#181818;stroke-width:0.5;" x1="1997.5" x2="2085.749" y1="255" y2="255"/><line style="stroke:#181818;stroke-width:0.5;" x1="1997.5" x2="2085.749" y1="263" y2="263"/></g><!--class Actuator--><g class="entity" data-qualified-name="Actuator" data-source-line="11" id="ent0026"><rect fill="#F1F1F1" height="48" rx="2.5" ry="2.5" style="stroke:#181818;stroke-width:0.5;" width="92.0264" x="2121.5" y="223"/><ellipse cx="2136.5" cy="239" fill="#ADD1B2" rx="11" ry="11" style="stroke:#181818;stroke-width:1;"/><path d="M2139.4688,244.6406 Q2138.8906,244.9375 2138.25,245.0781 Q2137.6094,245.2344 2136.9063,245.2344 Q2134.4063,245.2344 2133.0781,243.5938 Q2131.7656,241.9375 2131.7656,238.8125 Q2131.7656,235.6875 2133.0781,234.0313 Q2134.4063,232.375 2136.9063,232.375 Q2137.6094,232.375 2138.25,232.5313 Q2138.9063,232.6875 2139.4688,232.9844 L2139.4688,235.7031 Q2138.8438,235.125 2138.25,234.8594 Q2137.6563,234.5781 2137.0313,234.5781 Q2135.6875,234.5781 2135,235.6563 Q2134.3125,236.7188 2134.3125,238.8125 Q2134.3125,240.9063 2135,241.9844 Q2135.6875,243.0469 2137.0313,243.0469 Q2137.6563,243.0469 2138.25,242.7813 Q2138.8438,242.5 2139.4688,241.9219 L2139.4688,244.6406 Z " fill="#000000"/><text fill="#000000" font-family="sans-serif" font-size="14" lengthAdjust="spacing" textLength="60.0264" x="2150.5" y="243.8467">Actuator</text><line style="stroke:#181818;stroke-width:0.5;" x1="2122.5" x2="2212.5264" y1="255" y2="255"/><line style="stroke:#181818;stroke-width:0.5;" x1="2122.5" x2="2212.5264" y1="263" y2="263"/></g><!--class Execution--><g class="entity" data-qualified-name="Execution" data-source-line="13" id="ent0029"><rect fill="#F1F1F1" height="48" rx="2.5" ry="2.5" style="stroke:#181818;stroke-width:0.5;" width="101.1318" x="2377" y="7"/><ellipse cx="2392" cy="23" fill="#ADD1B2" rx="11" ry="11" style="stroke:#181818;stroke-width:1;"/><path d="M2394.9688,28.6406 Q2394.3906,28.9375 2393.75,29.0781 Q2393.1094,29.2344 2392.4063,29.2344 Q2389.9063,29.2344 2388.5781,27.5938 Q2387.2656,25.9375 2387.2656,22.8125 Q2387.2656,19.6875 2388.5781,18.0313 Q2389.9063,16.375 2392.4063,16.375 Q2393.1094,16.375 2393.75,16.5313 Q2394.4063,16.6875 2394.9688,16.9844 L2394.9688,19.7031 Q2394.3438,19.125 2393.75,18.8594 Q2393.1563,18.5781 2392.5313,18.5781 Q2391.1875,18.5781 2390.5,19.6563 Q2389.8125,20.7188 2389.8125,22.8125 Q2389.8125,24.9063 2390.5,25.9844 Q2391.1875,27.0469 2392.5313,27.0469 Q2393.1563,27.0469 2393.75,26.7813 Q2394.3438,26.5 2394.9688,25.9219 L2394.9688,28.6406 Z " fill="#000000"/><text fill="#000000" font-family="sans-serif" font-size="14" lengthAdjust="spacing" textLength="69.1318" x="2406" y="27.8467">Execution</text><line style="stroke:#181818;stroke-width:0.5;" x1="2378" x2="2477.1318" y1="39" y2="39"/><line style="stroke:#181818;stroke-width:0.5;" x1="2378" x2="2477.1318" y1="47" y2="47"/></g><!--class Sampling--><g class="entity" data-qualified-name="Sampling" data-source-line="13" id="ent0030"><rect fill="#F1F1F1" height="48" rx="2.5" ry="2.5" style="stroke:#181818;stroke-width:0.5;" width="97.5293" x="2244.5" y="115"/><ellipse cx="2259.5" cy="131" fill="#ADD1B2" rx="11" ry="11" style="stroke:#181818;stroke-width:1;"/><path d="M2262.4688,136.6406 Q2261.8906,136.9375 2261.25,137.0781 Q2260.6094,137.2344 2259.9063,137.2344 Q2257.4063,137.2344 2256.0781,135.5938 Q2254.7656,133.9375 2254.7656,130.8125 Q2254.7656,127.6875 2256.0781,126.0313 Q2257.4063,124.375 2259.9063,124.375 Q2260.6094,124.375 2261.25,124.5313 Q2261.9063,124.6875 2262.4688,124.9844 L2262.4688,127.7031 Q2261.8438,127.125 2261.25,126.8594 Q2260.6563,126.5781 2260.0313,126.5781 Q2258.6875,126.5781 2258,127.6563 Q2257.3125,128.7188 2257.3125,130.8125 Q2257.3125,132.9063 2258,133.9844 Q2258.6875,135.0469 2260.0313,135.0469 Q2260.6563,135.0469 2261.25,134.7813 Q2261.8438,134.5 2262.4688,133.9219 L2262.4688,136.6406 Z " fill="#000000"/><text fill="#000000" font-family="sans-serif" font-size="14" lengthAdjust="spacing" textLength="65.5293" x="2273.5" y="135.8467">Sampling</text><line style="stroke:#181818;stroke-width:0.5;" x1="2245.5" x2="2341.0293" y1="147" y2="147"/><line style="stroke:#181818;stroke-width:0.5;" x1="2245.5" x2="2341.0293" y1="155" y2="155"/></g><!--class ExecutionCollection--><g class="entity" data-qualified-name="ExecutionCollection" data-source-line="14" id="ent0032"><rect fill="#F1F1F1" height="48" rx="2.5" ry="2.5" style="stroke:#181818;stroke-width:0.5;" width="170.3799" x="2864.5" y="7"/><ellipse cx="2879.5" cy="23" fill="#ADD1B2" rx="11" ry="11" style="stroke:#181818;stroke-width:1;"/><path d="M2882.4688,28.6406 Q2881.8906,28.9375 2881.25,29.0781 Q2880.6094,29.2344 2879.9063,29.2344 Q2877.4063,29.2344 2876.0781,27.5938 Q2874.7656,25.9375 2874.7656,22.8125 Q2874.7656,19.6875 2876.0781,18.0313 Q2877.4063,16.375 2879.9063,16.375 Q2880.6094,16.375 2881.25,16.5313 Q2881.9063,16.6875 2882.4688,16.9844 L2882.4688,19.7031 Q2881.8438,19.125 2881.25,18.8594 Q2880.6563,18.5781 2880.0313,18.5781 Q2878.6875,18.5781 2878,19.6563 Q2877.3125,20.7188 2877.3125,22.8125 Q2877.3125,24.9063 2878,25.9844 Q2878.6875,27.0469 2880.0313,27.0469 Q2880.6563,27.0469 2881.25,26.7813 Q2881.8438,26.5 2882.4688,25.9219 L2882.4688,28.6406 Z " fill="#000000"/><text fill="#000000" font-family="sans-serif" font-size="14" lengthAdjust="spacing" textLength="138.3799" x="2893.5" y="27.8467">ExecutionCollection</text><line style="stroke:#181818;stroke-width:0.5;" x1="2865.5" x2="3033.8799" y1="39" y2="39"/><line style="stroke:#181818;stroke-width:0.5;" x1="2865.5" x2="3033.8799" y1="47" y2="47"/></g><!--class SamplingCollection--><g class="entity" data-qualified-name="SamplingCollection" data-source-line="14" id="ent0033"><rect fill="#F1F1F1" height="48" rx="2.5" ry="2.5" style="stroke:#181818;stroke-width:0.5;" width="166.7773" x="2664" y="115"/><ellipse cx="2679" cy="131" fill="#ADD1B2" rx="11" ry="11" style="stroke:#181818;stroke-width:1;"/><path d="M2681.9688,136.6406 Q2681.3906,136.9375 2680.75,137.0781 Q2680.1094,137.2344 2679.4063,137.2344 Q2676.9063,137.2344 2675.5781,135.5938 Q2674.2656,133.9375 2674.2656,130.8125 Q2674.2656,127.6875 2675.5781,126.0313 Q2676.9063,124.375 2679.4063,124.375 Q2680.1094,124.375 2680.75,124.5313 Q2681.4063,124.6875 2681.9688,124.9844 L2681.9688,127.7031 Q2681.3438,127.125 2680.75,126.8594 Q2680.1563,126.5781 2679.5313,126.5781 Q2678.1875,126.5781 2677.5,127.6563 Q2676.8125,128.7188 2676.8125,130.8125 Q2676.8125,132.9063 2677.5,133.9844 Q2678.1875,135.0469 2679.5313,135.0469 Q2680.1563,135.0469 2680.75,134.7813 Q2681.3438,134.5 2681.9688,133.9219 L2681.9688,136.6406 Z " fill="#000000"/><text fill="#000000" font-family="sans-serif" font-size="14" lengthAdjust="spacing" textLength="134.7773" x="2693" y="135.8467">SamplingCollection</text><line style="stroke:#181818;stroke-width:0.5;" x1="2665" x2="2829.7773" y1="147" y2="147"/><line style="stroke:#181818;stroke-width:0.5;" x1="2665" x2="2829.7773" y1="155" y2="155"/></g><!--class Actuation--><g class="entity" data-qualified-name="Actuation" data-source-line="15" id="ent0035"><rect fill="#F1F1F1" height="48" rx="2.5" ry="2.5" style="stroke:#181818;stroke-width:0.5;" width="99.0332" x="2378" y="115"/><ellipse cx="2393" cy="131" fill="#ADD1B2" rx="11" ry="11" style="stroke:#181818;stroke-width:1;"/><path d="M2395.9688,136.6406 Q2395.3906,136.9375 2394.75,137.0781 Q2394.1094,137.2344 2393.4063,137.2344 Q2390.9063,137.2344 2389.5781,135.5938 Q2388.2656,133.9375 2388.2656,130.8125 Q2388.2656,127.6875 2389.5781,126.0313 Q2390.9063,124.375 2393.4063,124.375 Q2394.1094,124.375 2394.75,124.5313 Q2395.4063,124.6875 2395.9688,124.9844 L2395.9688,127.7031 Q2395.3438,127.125 2394.75,126.8594 Q2394.1563,126.5781 2393.5313,126.5781 Q2392.1875,126.5781 2391.5,127.6563 Q2390.8125,128.7188 2390.8125,130.8125 Q2390.8125,132.9063 2391.5,133.9844 Q2392.1875,135.0469 2393.5313,135.0469 Q2394.1563,135.0469 2394.75,134.7813 Q2395.3438,134.5 2395.9688,133.9219 L2395.9688,136.6406 Z " fill="#000000"/><text fill="#000000" font-family="sans-serif" font-size="14" lengthAdjust="spacing" textLength="67.0332" x="2407" y="135.8467">Actuation</text><line style="stroke:#181818;stroke-width:0.5;" x1="2379" x2="2476.0332" y1="147" y2="147"/><line style="stroke:#181818;stroke-width:0.5;" x1="2379" x2="2476.0332" y1="155" y2="155"/></g><!--class Sensor--><g class="entity" data-qualified-name="Sensor" data-source-line="16" id="ent0037"><rect fill="#F1F1F1" height="48" rx="2.5" ry="2.5" style="stroke:#181818;stroke-width:0.5;" width="79.9883" x="2248.5" y="223"/><ellipse cx="2263.5" cy="239" fill="#ADD1B2" rx="11" ry="11" style="stroke:#181818;stroke-width:1;"/><path d="M2266.4688,244.6406 Q2265.8906,244.9375 2265.25,245.0781 Q2264.6094,245.2344 2263.9063,245.2344 Q2261.4063,245.2344 2260.0781,243.5938 Q2258.7656,241.9375 2258.7656,238.8125 Q2258.7656,235.6875 2260.0781,234.0313 Q2261.4063,232.375 2263.9063,232.375 Q2264.6094,232.375 2265.25,232.5313 Q2265.9063,232.6875 2266.4688,232.9844 L2266.4688,235.7031 Q2265.8438,235.125 2265.25,234.8594 Q2264.6563,234.5781 2264.0313,234.5781 Q2262.6875,234.5781 2262,235.6563 Q2261.3125,236.7188 2261.3125,238.8125 Q2261.3125,240.9063 2262,241.9844 Q2262.6875,243.0469 2264.0313,243.0469 Q2264.6563,243.0469 2265.25,242.7813 Q2265.8438,242.5 2266.4688,241.9219 L2266.4688,244.6406 Z " fill="#000000"/><text fill="#000000" font-family="sans-serif" font-size="14" lengthAdjust="spacing" textLength="47.9883" x="2277.5" y="243.8467">Sensor</text><line style="stroke:#181818;stroke-width:0.5;" x1="2249.5" x2="2327.4883" y1="255" y2="255"/><line style="stroke:#181818;stroke-width:0.5;" x1="2249.5" x2="2327.4883" y1="263" y2="263"/></g><!--class ActuationCollection--><g class="entity" data-qualified-name="ActuationCollection" data-source-line="17" id="ent0039"><rect fill="#F1F1F1" height="48" rx="2.5" ry="2.5" style="stroke:#181818;stroke-width:0.5;" width="168.2813" x="2865.5" y="115"/><ellipse cx="2880.5" cy="131" fill="#ADD1B2" rx="11" ry="11" style="stroke:#181818;stroke-width:1;"/><path d="M2883.4688,136.6406 Q2882.8906,136.9375 2882.25,137.0781 Q2881.6094,137.2344 2880.9063,137.2344 Q2878.4063,137.2344 2877.0781,135.5938 Q2875.7656,133.9375 2875.7656,130.8125 Q2875.7656,127.6875 2877.0781,126.0313 Q2878.4063,124.375 2880.9063,124.375 Q2881.6094,124.375 2882.25,124.5313 Q2882.9063,124.6875 2883.4688,124.9844 L2883.4688,127.7031 Q2882.8438,127.125 2882.25,126.8594 Q2881.6563,126.5781 2881.0313,126.5781 Q2879.6875,126.5781 2879,127.6563 Q2878.3125,128.7188 2878.3125,130.8125 Q2878.3125,132.9063 2879,133.9844 Q2879.6875,135.0469 2881.0313,135.0469 Q2881.6563,135.0469 2882.25,134.7813 Q2882.8438,134.5 2883.4688,133.9219 L2883.4688,136.6406 Z " fill="#000000"/><text fill="#000000" font-family="sans-serif" font-size="14" lengthAdjust="spacing" textLength="136.2813" x="2894.5" y="135.8467">ActuationCollection</text><line style="stroke:#181818;stroke-width:0.5;" x1="2866.5" x2="3032.7813" y1="147" y2="147"/><line style="stroke:#181818;stroke-width:0.5;" x1="2866.5" x2="3032.7813" y1="155" y2="155"/></g><!--class ObservationCollection--><g class="entity" data-qualified-name="ObservationCollection" data-source-line="18" id="ent0041"><rect fill="#F1F1F1" height="48" rx="2.5" ry="2.5" style="stroke:#181818;stroke-width:0.5;" width="186.499" x="3068.5" y="115"/><ellipse cx="3083.5" cy="131" fill="#ADD1B2" rx="11" ry="11" style="stroke:#181818;stroke-width:1;"/><path d="M3086.4688,136.6406 Q3085.8906,136.9375 3085.25,137.0781 Q3084.6094,137.2344 3083.9063,137.2344 Q3081.4063,137.2344 3080.0781,135.5938 Q3078.7656,133.9375 3078.7656,130.8125 Q3078.7656,127.6875 3080.0781,126.0313 Q3081.4063,124.375 3083.9063,124.375 Q3084.6094,124.375 3085.25,124.5313 Q3085.9063,124.6875 3086.4688,124.9844 L3086.4688,127.7031 Q3085.8438,127.125 3085.25,126.8594 Q3084.6563,126.5781 3084.0313,126.5781 Q3082.6875,126.5781 3082,127.6563 Q3081.3125,128.7188 3081.3125,130.8125 Q3081.3125,132.9063 3082,133.9844 Q3082.6875,135.0469 3084.0313,135.0469 Q3084.6563,135.0469 3085.25,134.7813 Q3085.8438,134.5 3086.4688,133.9219 L3086.4688,136.6406 Z " fill="#000000"/><text fill="#000000" font-family="sans-serif" font-size="14" lengthAdjust="spacing" textLength="154.499" x="3097.5" y="135.8467">ObservationCollection</text><line style="stroke:#181818;stroke-width:0.5;" x1="3069.5" x2="3253.999" y1="147" y2="147"/><line style="stroke:#181818;stroke-width:0.5;" x1="3069.5" x2="3253.999" y1="155" y2="155"/></g><!--class Observation--><g class="entity" data-qualified-name="Observation" data-source-line="19" id="ent0043"><rect fill="#F1F1F1" height="48" rx="2.5" ry="2.5" style="stroke:#181818;stroke-width:0.5;" width="117.251" x="2512" y="115"/><ellipse cx="2527" cy="131" fill="#ADD1B2" rx="11" ry="11" style="stroke:#181818;stroke-width:1;"/><path d="M2529.9688,136.6406 Q2529.3906,136.9375 2528.75,137.0781 Q2528.1094,137.2344 2527.4063,137.2344 Q2524.9063,137.2344 2523.5781,135.5938 Q2522.2656,133.9375 2522.2656,130.8125 Q2522.2656,127.6875 2523.5781,126.0313 Q2524.9063,124.375 2527.4063,124.375 Q2528.1094,124.375 2528.75,124.5313 Q2529.4063,124.6875 2529.9688,124.9844 L2529.9688,127.7031 Q2529.3438,127.125 2528.75,126.8594 Q2528.1563,126.5781 2527.5313,126.5781 Q2526.1875,126.5781 2525.5,127.6563 Q2524.8125,128.7188 2524.8125,130.8125 Q2524.8125,132.9063 2525.5,133.9844 Q2526.1875,135.0469 2527.5313,135.0469 Q2528.1563,135.0469 2528.75,134.7813 Q2529.3438,134.5 2529.9688,133.9219 L2529.9688,136.6406 Z " fill="#000000"/><text fill="#000000" font-family="sans-serif" font-size="14" lengthAdjust="spacing" textLength="85.251" x="2541" y="135.8467">Observation</text><line style="stroke:#181818;stroke-width:0.5;" x1="2513" x2="2628.251" y1="147" y2="147"/><line style="stroke:#181818;stroke-width:0.5;" x1="2513" x2="2628.251" y1="155" y2="155"/></g><!--class Stimulus--><g class="entity" data-qualified-name="Stimulus" data-source-line="21" id="ent0045"><rect fill="#F1F1F1" height="48" rx="2.5" ry="2.5" style="stroke:#181818;stroke-width:0.5;" width="92.833" x="7" y="7"/><ellipse cx="22" cy="23" fill="#ADD1B2" rx="11" ry="11" style="stroke:#181818;stroke-width:1;"/><path d="M24.9688,28.6406 Q24.3906,28.9375 23.75,29.0781 Q23.1094,29.2344 22.4063,29.2344 Q19.9063,29.2344 18.5781,27.5938 Q17.2656,25.9375 17.2656,22.8125 Q17.2656,19.6875 18.5781,18.0313 Q19.9063,16.375 22.4063,16.375 Q23.1094,16.375 23.75,16.5313 Q24.4063,16.6875 24.9688,16.9844 L24.9688,19.7031 Q24.3438,19.125 23.75,18.8594 Q23.1563,18.5781 22.5313,18.5781 Q21.1875,18.5781 20.5,19.6563 Q19.8125,20.7188 19.8125,22.8125 Q19.8125,24.9063 20.5,25.9844 Q21.1875,27.0469 22.5313,27.0469 Q23.1563,27.0469 23.75,26.7813 Q24.3438,26.5 24.9688,25.9219 L24.9688,28.6406 Z " fill="#000000"/><text fill="#000000" font-family="sans-serif" font-size="14" lengthAdjust="spacing" textLength="60.833" x="36" y="27.8467">Stimulus</text><line style="stroke:#181818;stroke-width:0.5;" x1="8" x2="98.833" y1="39" y2="39"/><line style="stroke:#181818;stroke-width:0.5;" x1="8" x2="98.833" y1="47" y2="47"/></g><!--class Deployment--><g class="entity" data-qualified-name="Deployment" data-source-line="22" id="ent0046"><rect fill="#F1F1F1" height="48" rx="2.5" ry="2.5" style="stroke:#181818;stroke-width:0.5;" width="117.6338" x="135.5" y="7"/><ellipse cx="150.5" cy="23" fill="#ADD1B2" rx="11" ry="11" style="stroke:#181818;stroke-width:1;"/><path d="M153.4688,28.6406 Q152.8906,28.9375 152.25,29.0781 Q151.6094,29.2344 150.9063,29.2344 Q148.4063,29.2344 147.0781,27.5938 Q145.7656,25.9375 145.7656,22.8125 Q145.7656,19.6875 147.0781,18.0313 Q148.4063,16.375 150.9063,16.375 Q151.6094,16.375 152.25,16.5313 Q152.9063,16.6875 153.4688,16.9844 L153.4688,19.7031 Q152.8438,19.125 152.25,18.8594 Q151.6563,18.5781 151.0313,18.5781 Q149.6875,18.5781 149,19.6563 Q148.3125,20.7188 148.3125,22.8125 Q148.3125,24.9063 149,25.9844 Q149.6875,27.0469 151.0313,27.0469 Q151.6563,27.0469 152.25,26.7813 Q152.8438,26.5 153.4688,25.9219 L153.4688,28.6406 Z " fill="#000000"/><text fill="#000000" font-family="sans-serif" font-size="14" lengthAdjust="spacing" textLength="85.6338" x="164.5" y="27.8467">Deployment</text><line style="stroke:#181818;stroke-width:0.5;" x1="136.5" x2="252.1338" y1="39" y2="39"/><line style="stroke:#181818;stroke-width:0.5;" x1="136.5" x2="252.1338" y1="47" y2="47"/></g><!--class SampleCollection--><g class="entity" data-qualified-name="SampleCollection" data-source-line="25" id="ent0047"><rect fill="#F1F1F1" height="48" rx="2.5" ry="2.5" style="stroke:#181818;stroke-width:0.5;" width="153.7412" x="288.5" y="7"/><ellipse cx="303.5" cy="23" fill="#ADD1B2" rx="11" ry="11" style="stroke:#181818;stroke-width:1;"/><path d="M306.4688,28.6406 Q305.8906,28.9375 305.25,29.0781 Q304.6094,29.2344 303.9063,29.2344 Q301.4063,29.2344 300.0781,27.5938 Q298.7656,25.9375 298.7656,22.8125 Q298.7656,19.6875 300.0781,18.0313 Q301.4063,16.375 303.9063,16.375 Q304.6094,16.375 305.25,16.5313 Q305.9063,16.6875 306.4688,16.9844 L306.4688,19.7031 Q305.8438,19.125 305.25,18.8594 Q304.6563,18.5781 304.0313,18.5781 Q302.6875,18.5781 302,19.6563 Q301.3125,20.7188 301.3125,22.8125 Q301.3125,24.9063 302,25.9844 Q302.6875,27.0469 304.0313,27.0469 Q304.6563,27.0469 305.25,26.7813 Q305.8438,26.5 306.4688,25.9219 L306.4688,28.6406 Z " fill="#000000"/><text fill="#000000" font-family="sans-serif" font-size="14" lengthAdjust="spacing" textLength="121.7412" x="317.5" y="27.8467">SampleCollection</text><line style="stroke:#181818;stroke-width:0.5;" x1="289.5" x2="441.2412" y1="39" y2="39"/><line style="stroke:#181818;stroke-width:0.5;" x1="289.5" x2="441.2412" y1="47" y2="47"/></g><!--class Result--><g class="entity" data-qualified-name="Result" data-source-line="26" id="ent0048"><rect fill="#F1F1F1" height="48" rx="2.5" ry="2.5" style="stroke:#181818;stroke-width:0.5;" width="75.8867" x="15.5" y="115"/><ellipse cx="30.5" cy="131" fill="#ADD1B2" rx="11" ry="11" style="stroke:#181818;stroke-width:1;"/><path d="M33.4688,136.6406 Q32.8906,136.9375 32.25,137.0781 Q31.6094,137.2344 30.9063,137.2344 Q28.4063,137.2344 27.0781,135.5938 Q25.7656,133.9375 25.7656,130.8125 Q25.7656,127.6875 27.0781,126.0313 Q28.4063,124.375 30.9063,124.375 Q31.6094,124.375 32.25,124.5313 Q32.9063,124.6875 33.4688,124.9844 L33.4688,127.7031 Q32.8438,127.125 32.25,126.8594 Q31.6563,126.5781 31.0313,126.5781 Q29.6875,126.5781 29,127.6563 Q28.3125,128.7188 28.3125,130.8125 Q28.3125,132.9063 29,133.9844 Q29.6875,135.0469 31.0313,135.0469 Q31.6563,135.0469 32.25,134.7813 Q32.8438,134.5 33.4688,133.9219 L33.4688,136.6406 Z " fill="#000000"/><text fill="#000000" font-family="sans-serif" font-size="14" lengthAdjust="spacing" textLength="43.8867" x="44.5" y="135.8467">Result</text><line style="stroke:#181818;stroke-width:0.5;" x1="16.5" x2="90.3867" y1="147" y2="147"/><line style="stroke:#181818;stroke-width:0.5;" x1="16.5" x2="90.3867" y1="155" y2="155"/></g><!--class Output--><g class="entity" data-qualified-name="Output" data-source-line="27" id="ent0049"><rect fill="#F1F1F1" height="48" rx="2.5" ry="2.5" style="stroke:#181818;stroke-width:0.5;" width="80.6309" x="127" y="115"/><ellipse cx="142" cy="131" fill="#ADD1B2" rx="11" ry="11" style="stroke:#181818;stroke-width:1;"/><path d="M144.9688,136.6406 Q144.3906,136.9375 143.75,137.0781 Q143.1094,137.2344 142.4063,137.2344 Q139.9063,137.2344 138.5781,135.5938 Q137.2656,133.9375 137.2656,130.8125 Q137.2656,127.6875 138.5781,126.0313 Q139.9063,124.375 142.4063,124.375 Q143.1094,124.375 143.75,124.5313 Q144.4063,124.6875 144.9688,124.9844 L144.9688,127.7031 Q144.3438,127.125 143.75,126.8594 Q143.1563,126.5781 142.5313,126.5781 Q141.1875,126.5781 140.5,127.6563 Q139.8125,128.7188 139.8125,130.8125 Q139.8125,132.9063 140.5,133.9844 Q141.1875,135.0469 142.5313,135.0469 Q143.1563,135.0469 143.75,134.7813 Q144.3438,134.5 144.9688,133.9219 L144.9688,136.6406 Z " fill="#000000"/><text fill="#000000" font-family="sans-serif" font-size="14" lengthAdjust="spacing" textLength="48.6309" x="156" y="135.8467">Output</text><line style="stroke:#181818;stroke-width:0.5;" x1="128" x2="206.6309" y1="147" y2="147"/><line style="stroke:#181818;stroke-width:0.5;" x1="128" x2="206.6309" y1="155" y2="155"/></g><!--class FeatureOfInterest--><g class="entity" data-qualified-name="FeatureOfInterest" data-source-line="28" id="ent0050"><rect fill="#F1F1F1" height="48" rx="2.5" ry="2.5" style="stroke:#181818;stroke-width:0.5;" width="156.1816" x="243.5" y="115"/><ellipse cx="258.5" cy="131" fill="#ADD1B2" rx="11" ry="11" style="stroke:#181818;stroke-width:1;"/><path d="M261.4688,136.6406 Q260.8906,136.9375 260.25,137.0781 Q259.6094,137.2344 258.9063,137.2344 Q256.4063,137.2344 255.0781,135.5938 Q253.7656,133.9375 253.7656,130.8125 Q253.7656,127.6875 255.0781,126.0313 Q256.4063,124.375 258.9063,124.375 Q259.6094,124.375 260.25,124.5313 Q260.9063,124.6875 261.4688,124.9844 L261.4688,127.7031 Q260.8438,127.125 260.25,126.8594 Q259.6563,126.5781 259.0313,126.5781 Q257.6875,126.5781 257,127.6563 Q256.3125,128.7188 256.3125,130.8125 Q256.3125,132.9063 257,133.9844 Q257.6875,135.0469 259.0313,135.0469 Q259.6563,135.0469 260.25,134.7813 Q260.8438,134.5 261.4688,133.9219 L261.4688,136.6406 Z " fill="#000000"/><text fill="#000000" font-family="sans-serif" font-size="14" lengthAdjust="spacing" textLength="124.1816" x="272.5" y="135.8467">FeatureOfInterest</text><line style="stroke:#181818;stroke-width:0.5;" x1="244.5" x2="398.6816" y1="147" y2="147"/><line style="stroke:#181818;stroke-width:0.5;" x1="244.5" x2="398.6816" y1="155" y2="155"/></g><!--class Input--><g class="entity" data-qualified-name="Input" data-source-line="30" id="ent0051"><rect fill="#F1F1F1" height="48" rx="2.5" ry="2.5" style="stroke:#181818;stroke-width:0.5;" width="68.251" x="19.5" y="223"/><ellipse cx="34.5" cy="239" fill="#ADD1B2" rx="11" ry="11" style="stroke:#181818;stroke-width:1;"/><path d="M37.4688,244.6406 Q36.8906,244.9375 36.25,245.0781 Q35.6094,245.2344 34.9063,245.2344 Q32.4063,245.2344 31.0781,243.5938 Q29.7656,241.9375 29.7656,238.8125 Q29.7656,235.6875 31.0781,234.0313 Q32.4063,232.375 34.9063,232.375 Q35.6094,232.375 36.25,232.5313 Q36.9063,232.6875 37.4688,232.9844 L37.4688,235.7031 Q36.8438,235.125 36.25,234.8594 Q35.6563,234.5781 35.0313,234.5781 Q33.6875,234.5781 33,235.6563 Q32.3125,236.7188 32.3125,238.8125 Q32.3125,240.9063 33,241.9844 Q33.6875,243.0469 35.0313,243.0469 Q35.6563,243.0469 36.25,242.7813 Q36.8438,242.5 37.4688,241.9219 L37.4688,244.6406 Z " fill="#000000"/><text fill="#000000" font-family="sans-serif" font-size="14" lengthAdjust="spacing" textLength="36.251" x="48.5" y="243.8467">Input</text><line style="stroke:#181818;stroke-width:0.5;" x1="20.5" x2="86.751" y1="255" y2="255"/><line style="stroke:#181818;stroke-width:0.5;" x1="20.5" x2="86.751" y1="263" y2="263"/></g><!--reverse link Property to ActuatableProperty--><g class="link" data-entity-1="ent0001" data-entity-2="ent0002" data-link-type="extension" data-source-line="1" id="lnk3"><path codeLine="1" d="M588.0538,67.7893 C570.5638,85.4493 559.17,96.94 541.6,114.68" fill="none" id="Property-backto-ActuatableProperty" style="stroke:#181818;stroke-width:1;"/><polygon fill="none" points="600.72,55,583.7907,63.5673,592.3169,72.0114,600.72,55" style="stroke:#181818;stroke-width:1;stroke-linejoin:miter;stroke-miterlimit:10;"/></g><!--reverse link Sample to MaterialSample--><g class="link" data-entity-1="ent0004" data-entity-2="ent0005" data-link-type="extension" data-source-line="2" id="lnk6"><path codeLine="2" d="M1034.8567,64.4445 C1006.1067,82.1645 981.85,97.11 953.05,114.86" fill="none" id="Sample-backto-MaterialSample" style="stroke:#181818;stroke-width:1;"/><polygon fill="none" points="1050.18,55,1031.7086,59.3367,1038.0049,69.5522,1050.18,55" style="stroke:#181818;stroke-width:1;stroke-linejoin:miter;stroke-miterlimit:10;"/></g><!--reverse link Sample to SpatialSample--><g class="link" data-entity-1="ent0004" data-entity-2="ent0007" data-link-type="extension" data-source-line="3" id="lnk8"><path codeLine="3" d="M1087.5,73 C1087.5,90.66 1087.5,96.94 1087.5,114.68" fill="none" id="Sample-backto-SpatialSample" style="stroke:#181818;stroke-width:1;"/><polygon fill="none" points="1087.5,55,1081.5,73,1093.5,73,1087.5,55" style="stroke:#181818;stroke-width:1;stroke-linejoin:miter;stroke-miterlimit:10;"/></g><!--reverse link Sample to StatisticalSample--><g class="link" data-entity-1="ent0004" data-entity-2="ent0009" data-link-type="extension" data-source-line="4" id="lnk10"><path codeLine="4" d="M1141.8276,64.1725 C1171.7476,81.8925 1197.45,97.11 1227.43,114.86" fill="none" id="Sample-backto-StatisticalSample" style="stroke:#181818;stroke-width:1;"/><polygon fill="none" points="1126.34,55,1138.7701,69.335,1144.8851,59.0099,1126.34,55" style="stroke:#181818;stroke-width:1;stroke-linejoin:miter;stroke-miterlimit:10;"/></g><!--reverse link Property to ObservableProperty--><g class="link" data-entity-1="ent0001" data-entity-2="ent0011" data-link-type="extension" data-source-line="5" id="lnk12"><path codeLine="5" d="M657.5518,68.0932 C674.2118,85.7532 684.76,96.94 701.5,114.68" fill="none" id="Property-backto-ObservableProperty" style="stroke:#181818;stroke-width:1;"/><polygon fill="none" points="645.2,55,653.1874,72.2105,661.9162,63.976,645.2,55" style="stroke:#181818;stroke-width:1;stroke-linejoin:miter;stroke-miterlimit:10;"/></g><!--reverse link Procedure to ActuatingProcedure--><g class="link" data-entity-1="ent0013" data-entity-2="ent0014" data-link-type="extension" data-source-line="6" id="lnk15"><path codeLine="6" d="M1611.3326,63.1732 C1576.5626,80.8932 1544.74,97.11 1509.9,114.86" fill="none" id="Procedure-backto-ActuatingProcedure" style="stroke:#181818;stroke-width:1;"/><polygon fill="none" points="1627.37,55,1608.6082,57.8274,1614.057,68.519,1627.37,55" style="stroke:#181818;stroke-width:1;stroke-linejoin:miter;stroke-miterlimit:10;"/></g><!--reverse link Procedure to ObservingProcedure--><g class="link" data-entity-1="ent0013" data-entity-2="ent0016" data-link-type="extension" data-source-line="7" id="lnk17"><path codeLine="7" d="M1672.5,73 C1672.5,90.66 1672.5,96.94 1672.5,114.68" fill="none" id="Procedure-backto-ObservingProcedure" style="stroke:#181818;stroke-width:1;"/><polygon fill="none" points="1672.5,55,1666.5,73,1678.5,73,1672.5,55" style="stroke:#181818;stroke-width:1;stroke-linejoin:miter;stroke-miterlimit:10;"/></g><!--reverse link Procedure to SamplingProcedure--><g class="link" data-entity-1="ent0013" data-entity-2="ent0018" data-link-type="extension" data-source-line="8" id="lnk19"><path codeLine="8" d="M1733.4411,63.205 C1768.0411,80.925 1799.65,97.11 1834.31,114.86" fill="none" id="Procedure-backto-SamplingProcedure" style="stroke:#181818;stroke-width:1;"/><polygon fill="none" points="1717.42,55,1730.7061,68.5454,1736.1762,57.8647,1717.42,55" style="stroke:#181818;stroke-width:1;stroke-linejoin:miter;stroke-miterlimit:10;"/></g><!--reverse link Asset to Platform--><g class="link" data-entity-1="ent0020" data-entity-2="ent0021" data-link-type="extension" data-source-line="9" id="lnk22"><path codeLine="9" d="M2083.2839,70.6022 C2073.1239,88.2622 2068.13,96.94 2057.92,114.68" fill="none" id="Asset-backto-Platform" style="stroke:#181818;stroke-width:1;"/><polygon fill="none" points="2092.26,55,2078.0831,67.6102,2088.4846,73.5943,2092.26,55" style="stroke:#181818;stroke-width:1;stroke-linejoin:miter;stroke-miterlimit:10;"/></g><!--reverse link System to Sampler--><g class="link" data-entity-1="ent0023" data-entity-2="ent0024" data-link-type="extension" data-source-line="10" id="lnk25"><path codeLine="10" d="M2126.3865,174.5884 C2105.3965,192.2484 2090.31,204.94 2069.22,222.68" fill="none" id="System-backto-Sampler" style="stroke:#181818;stroke-width:1;"/><polygon fill="none" points="2140.16,163,2122.5237,169.9972,2130.2493,179.1795,2140.16,163" style="stroke:#181818;stroke-width:1;stroke-linejoin:miter;stroke-miterlimit:10;"/></g><!--reverse link System to Actuator--><g class="link" data-entity-1="ent0023" data-entity-2="ent0026" data-link-type="extension" data-source-line="11" id="lnk27"><path codeLine="11" d="M2167.5,181 C2167.5,198.66 2167.5,204.94 2167.5,222.68" fill="none" id="System-backto-Actuator" style="stroke:#181818;stroke-width:1;"/><polygon fill="none" points="2167.5,163,2161.5,181,2173.5,181,2167.5,163" style="stroke:#181818;stroke-width:1;stroke-linejoin:miter;stroke-miterlimit:10;"/></g><!--reverse link Asset to System--><g class="link" data-entity-1="ent0020" data-entity-2="ent0023" data-link-type="extension" data-source-line="12" id="lnk28"><path codeLine="12" d="M2128.0383,70.5372 C2138.3683,88.1972 2143.48,96.94 2153.86,114.68" fill="none" id="Asset-backto-System" style="stroke:#181818;stroke-width:1;"/><polygon fill="none" points="2118.95,55,2122.8592,73.5666,2133.2173,67.5077,2118.95,55" style="stroke:#181818;stroke-width:1;stroke-linejoin:miter;stroke-miterlimit:10;"/></g><!--reverse link Execution to Sampling--><g class="link" data-entity-1="ent0029" data-entity-2="ent0030" data-link-type="extension" data-source-line="13" id="lnk31"><path codeLine="13" d="M2384.3041,66.1688 C2361.9841,83.8288 2345.41,96.94 2322.98,114.68" fill="none" id="Execution-backto-Sampling" style="stroke:#181818;stroke-width:1;"/><polygon fill="none" points="2398.42,55,2380.5812,61.4635,2388.027,70.8741,2398.42,55" style="stroke:#181818;stroke-width:1;stroke-linejoin:miter;stroke-miterlimit:10;"/></g><!--reverse link ExecutionCollection to SamplingCollection--><g class="link" data-entity-1="ent0032" data-entity-2="ent0033" data-link-type="extension" data-source-line="14" id="lnk34"><path codeLine="14" d="M2889.731,63.3636 C2855.961,81.0836 2825.43,97.11 2791.59,114.86" fill="none" id="ExecutionCollection-backto-SamplingCollection" style="stroke:#181818;stroke-width:1;"/><polygon fill="none" points="2905.67,55,2886.9432,58.0506,2892.5189,68.6766,2905.67,55" style="stroke:#181818;stroke-width:1;stroke-linejoin:miter;stroke-miterlimit:10;"/></g><!--reverse link Execution to Actuation--><g class="link" data-entity-1="ent0029" data-entity-2="ent0035" data-link-type="extension" data-source-line="15" id="lnk36"><path codeLine="15" d="M2427.5,73 C2427.5,90.66 2427.5,96.94 2427.5,114.68" fill="none" id="Execution-backto-Actuation" style="stroke:#181818;stroke-width:1;"/><polygon fill="none" points="2427.5,55,2421.5,73,2433.5,73,2427.5,55" style="stroke:#181818;stroke-width:1;stroke-linejoin:miter;stroke-miterlimit:10;"/></g><!--reverse link System to Sensor--><g class="link" data-entity-1="ent0023" data-entity-2="ent0037" data-link-type="extension" data-source-line="16" id="lnk38"><path codeLine="16" d="M2207.2968,174.864 C2227.4468,192.524 2241.63,204.94 2261.88,222.68" fill="none" id="System-backto-Sensor" style="stroke:#181818;stroke-width:1;"/><polygon fill="none" points="2193.76,163,2203.3421,179.3763,2211.2515,170.3518,2193.76,163" style="stroke:#181818;stroke-width:1;stroke-linejoin:miter;stroke-miterlimit:10;"/></g><!--reverse link ExecutionCollection to ActuationCollection--><g class="link" data-entity-1="ent0032" data-entity-2="ent0039" data-link-type="extension" data-source-line="17" id="lnk40"><path codeLine="17" d="M2949.5,73 C2949.5,90.66 2949.5,96.94 2949.5,114.68" fill="none" id="ExecutionCollection-backto-ActuationCollection" style="stroke:#181818;stroke-width:1;"/><polygon fill="none" points="2949.5,55,2943.5,73,2955.5,73,2949.5,55" style="stroke:#181818;stroke-width:1;stroke-linejoin:miter;stroke-miterlimit:10;"/></g><!--reverse link ExecutionCollection to ObservationCollection--><g class="link" data-entity-1="ent0032" data-entity-2="ent0041" data-link-type="extension" data-source-line="18" id="lnk42"><path codeLine="18" d="M3011.5997,63.0498 C3047.0397,80.7698 3079.72,97.11 3115.22,114.86" fill="none" id="ExecutionCollection-backto-ObservationCollection" style="stroke:#181818;stroke-width:1;"/><polygon fill="none" points="2995.5,55,3008.9164,68.4164,3014.283,57.6833,2995.5,55" style="stroke:#181818;stroke-width:1;stroke-linejoin:miter;stroke-miterlimit:10;"/></g><!--reverse link Execution to Observation--><g class="link" data-entity-1="ent0029" data-entity-2="ent0043" data-link-type="extension" data-source-line="19" id="lnk44"><path codeLine="19" d="M2472.9895,65.7202 C2496.8095,83.3802 2515.11,96.94 2539.04,114.68" fill="none" id="Execution-backto-Observation" style="stroke:#181818;stroke-width:1;"/><polygon fill="none" points="2458.53,55,2469.4161,70.54,2476.5629,60.9004,2458.53,55" style="stroke:#181818;stroke-width:1;stroke-linejoin:miter;stroke-miterlimit:10;"/></g><?plantuml-src VL99RiCm3Bpx5Vv0Vj1Bq0N8eR1Hlu1HcK80jK2aYXheuok4jcCvSM_Yp90pejId4379s3xz7WxjqKW6WJDXF-7D02uIAlqEWia2ALPHGmJPOQGmBDOiR5zvTcV6z5rvbeF1pvnmdShwhmNVAdJ6VughTIKuCgCesHF89IJN32CBkbK7fWhJ926jcvLlNd_GPB71rtut_3aGeRbNtF3jZEdUXQXoeUUIO7VkqlLey5OyBNzFVYTg305pkxoKbeDObodpLBvWf30wz3Bpkg8zzhhebRt27yYPPasN9UQvU4EGyeBTvUJBVqIMnp5ElhJy0G00?></g></svg>