<svg xmlns="http://www.w3.org/2000/svg" xmlns:xlink="http://www.w3.org/1999/xlink" contentStyleType="text/css" data-diagram-type="CLASS" height="286px" preserveAspectRatio="none" style="width:3174px;height:286px;background:#FFFFFF;" version="1.1" viewBox="0 0 3174 286" width="3174px" zoomAndPan="magnify"><?plantuml 1.2026.6?><defs/><g><!--class Property--><g class="entity" data-qualified-name="Property" data-source-line="1" id="ent0001"><rect fill="#F1F1F1" height="48" rx="2.5" ry="2.5" style="stroke:#181818;stroke-width:0.5;" width="91.7939" x="521" y="7"/><ellipse cx="536" cy="23" fill="#ADD1B2" rx="11" ry="11" style="stroke:#181818;stroke-width:1;"/><path d="M538.9688,28.6406 Q538.3906,28.9375 537.75,29.0781 Q537.1094,29.2344 536.4063,29.2344 Q533.9063,29.2344 532.5781,27.5938 Q531.2656,25.9375 531.2656,22.8125 Q531.2656,19.6875 532.5781,18.0313 Q533.9063,16.375 536.4063,16.375 Q537.1094,16.375 537.75,16.5313 Q538.4063,16.6875 538.9688,16.9844 L538.9688,19.7031 Q538.3438,19.125 537.75,18.8594 Q537.1563,18.5781 536.5313,18.5781 Q535.1875,18.5781 534.5,19.6563 Q533.8125,20.7188 533.8125,22.8125 Q533.8125,24.9063 534.5,25.9844 Q535.1875,27.0469 536.5313,27.0469 Q537.1563,27.0469 537.75,26.7813 Q538.3438,26.5 538.9688,25.9219 L538.9688,28.6406 Z " fill="#000000"/><text fill="#000000" font-family="sans-serif" font-size="14" lengthAdjust="spacing" textLength="59.7939" x="550" y="27.8467">Property</text><line style="stroke:#181818;stroke-width:0.5;" x1="522" x2="611.7939" y1="39" y2="39"/><line style="stroke:#181818;stroke-width:0.5;" x1="522" x2="611.7939" y1="47" y2="47"/></g><!--class ActuatableProperty--><g class="entity" data-qualified-name="ActuatableProperty" data-source-line="1" id="ent0002"><rect fill="#F1F1F1" height="48" rx="2.5" ry="2.5" style="stroke:#181818;stroke-width:0.5;" width="167.4678" x="339.5" y="115"/><ellipse cx="354.5" cy="131" fill="#ADD1B2" rx="11" ry="11" style="stroke:#181818;stroke-width:1;"/><path d="M357.4688,136.6406 Q356.8906,136.9375 356.25,137.0781 Q355.6094,137.2344 354.9063,137.2344 Q352.4063,137.2344 351.0781,135.5938 Q349.7656,133.9375 349.7656,130.8125 Q349.7656,127.6875 351.0781,126.0313 Q352.4063,124.375 354.9063,124.375 Q355.6094,124.375 356.25,124.5313 Q356.9063,124.6875 357.4688,124.9844 L357.4688,127.7031 Q356.8438,127.125 356.25,126.8594 Q355.6563,126.5781 355.0313,126.5781 Q353.6875,126.5781 353,127.6563 Q352.3125,128.7188 352.3125,130.8125 Q352.3125,132.9063 353,133.9844 Q353.6875,135.0469 355.0313,135.0469 Q355.6563,135.0469 356.25,134.7813 Q356.8438,134.5 357.4688,133.9219 L357.4688,136.6406 Z " fill="#000000"/><text fill="#000000" font-family="sans-serif" font-size="14" lengthAdjust="spacing" textLength="135.4678" x="368.5" y="135.8467">ActuatableProperty</text><line style="stroke:#181818;stroke-width:0.5;" x1="340.5" x2="505.9678" y1="147" y2="147"/><line style="stroke:#181818;stroke-width:0.5;" x1="340.5" x2="505.9678" y1="155" y2="155"/></g><!--class Sample--><g class="entity" data-qualified-name="Sample" data-source-line="2" id="ent0004"><rect fill="#F1F1F1" height="48" rx="2.5" ry="2.5" style="stroke:#181818;stroke-width:0.5;" width="84.4932" x="950" y="7"/><ellipse cx="965" cy="23" fill="#ADD1B2" rx="11" ry="11" style="stroke:#181818;stroke-width:1;"/><path d="M967.9688,28.6406 Q967.3906,28.9375 966.75,29.0781 Q966.1094,29.2344 965.4063,29.2344 Q962.9063,29.2344 961.5781,27.5938 Q960.2656,25.9375 960.2656,22.8125 Q960.2656,19.6875 961.5781,18.0313 Q962.9063,16.375 965.4063,16.375 Q966.1094,16.375 966.75,16.5313 Q967.4063,16.6875 967.9688,16.9844 L967.9688,19.7031 Q967.3438,19.125 966.75,18.8594 Q966.1563,18.5781 965.5313,18.5781 Q964.1875,18.5781 963.5,19.6563 Q962.8125,20.7188 962.8125,22.8125 Q962.8125,24.9063 963.5,25.9844 Q964.1875,27.0469 965.5313,27.0469 Q966.1563,27.0469 966.75,26.7813 Q967.3438,26.5 967.9688,25.9219 L967.9688,28.6406 Z " fill="#000000"/><text fill="#000000" font-family="sans-serif" font-size="14" lengthAdjust="spacing" textLength="52.4932" x="979" y="27.8467">Sample</text><line style="stroke:#181818;stroke-width:0.5;" x1="951" x2="1033.4932" y1="39" y2="39"/><line style="stroke:#181818;stroke-width:0.5;" x1="951" x2="1033.4932" y1="47" y2="47"/></g><!--class MaterialSample--><g class="entity" data-qualified-name="MaterialSample" data-source-line="2" id="ent0005"><rect fill="#F1F1F1" height="48" rx="2.5" ry="2.5" style="stroke:#181818;stroke-width:0.5;" width="141.3682" x="749.5" y="115"/><ellipse cx="764.5" cy="131" fill="#ADD1B2" rx="11" ry="11" style="stroke:#181818;stroke-width:1;"/><path d="M767.4688,136.6406 Q766.8906,136.9375 766.25,137.0781 Q765.6094,137.2344 764.9063,137.2344 Q762.4063,137.2344 761.0781,135.5938 Q759.7656,133.9375 759.7656,130.8125 Q759.7656,127.6875 761.0781,126.0313 Q762.4063,124.375 764.9063,124.375 Q765.6094,124.375 766.25,124.5313 Q766.9063,124.6875 767.4688,124.9844 L767.4688,127.7031 Q766.8438,127.125 766.25,126.8594 Q765.6563,126.5781 765.0313,126.5781 Q763.6875,126.5781 763,127.6563 Q762.3125,128.7188 762.3125,130.8125 Q762.3125,132.9063 763,133.9844 Q763.6875,135.0469 765.0313,135.0469 Q765.6563,135.0469 766.25,134.7813 Q766.8438,134.5 767.4688,133.9219 L767.4688,136.6406 Z " fill="#000000"/><text fill="#000000" font-family="sans-serif" font-size="14" lengthAdjust="spacing" textLength="109.3682" x="778.5" y="135.8467">MaterialSample</text><line style="stroke:#181818;stroke-width:0.5;" x1="750.5" x2="889.8682" y1="147" y2="147"/><line style="stroke:#181818;stroke-width:0.5;" x1="750.5" x2="889.8682" y1="155" y2="155"/></g><!--class ObservableProperty--><g class="entity" data-qualified-name="ObservableProperty" data-source-line="3" id="ent0007"><rect fill="#F1F1F1" height="48" rx="2.5" ry="2.5" style="stroke:#181818;stroke-width:0.5;" width="171.6172" x="542" y="115"/><ellipse cx="557" cy="131" fill="#ADD1B2" rx="11" ry="11" style="stroke:#181818;stroke-width:1;"/><path d="M559.9688,136.6406 Q559.3906,136.9375 558.75,137.0781 Q558.1094,137.2344 557.4063,137.2344 Q554.9063,137.2344 553.5781,135.5938 Q552.2656,133.9375 552.2656,130.8125 Q552.2656,127.6875 553.5781,126.0313 Q554.9063,124.375 557.4063,124.375 Q558.1094,124.375 558.75,124.5313 Q559.4063,124.6875 559.9688,124.9844 L559.9688,127.7031 Q559.3438,127.125 558.75,126.8594 Q558.1563,126.5781 557.5313,126.5781 Q556.1875,126.5781 555.5,127.6563 Q554.8125,128.7188 554.8125,130.8125 Q554.8125,132.9063 555.5,133.9844 Q556.1875,135.0469 557.5313,135.0469 Q558.1563,135.0469 558.75,134.7813 Q559.3438,134.5 559.9688,133.9219 L559.9688,136.6406 Z " fill="#000000"/><text fill="#000000" font-family="sans-serif" font-size="14" lengthAdjust="spacing" textLength="139.6172" x="571" y="135.8467">ObservableProperty</text><line style="stroke:#181818;stroke-width:0.5;" x1="543" x2="712.6172" y1="147" y2="147"/><line style="stroke:#181818;stroke-width:0.5;" x1="543" x2="712.6172" y1="155" y2="155"/></g><!--class SpatialSample--><g class="entity" data-qualified-name="SpatialSample" data-source-line="4" id="ent0009"><rect fill="#F1F1F1" height="48" rx="2.5" ry="2.5" style="stroke:#181818;stroke-width:0.5;" width="132.6934" x="925.5" y="115"/><ellipse cx="940.5" cy="131" fill="#ADD1B2" rx="11" ry="11" style="stroke:#181818;stroke-width:1;"/><path d="M943.4688,136.6406 Q942.8906,136.9375 942.25,137.0781 Q941.6094,137.2344 940.9063,137.2344 Q938.4063,137.2344 937.0781,135.5938 Q935.7656,133.9375 935.7656,130.8125 Q935.7656,127.6875 937.0781,126.0313 Q938.4063,124.375 940.9063,124.375 Q941.6094,124.375 942.25,124.5313 Q942.9063,124.6875 943.4688,124.9844 L943.4688,127.7031 Q942.8438,127.125 942.25,126.8594 Q941.6563,126.5781 941.0313,126.5781 Q939.6875,126.5781 939,127.6563 Q938.3125,128.7188 938.3125,130.8125 Q938.3125,132.9063 939,133.9844 Q939.6875,135.0469 941.0313,135.0469 Q941.6563,135.0469 942.25,134.7813 Q942.8438,134.5 943.4688,133.9219 L943.4688,136.6406 Z " fill="#000000"/><text fill="#000000" font-family="sans-serif" font-size="14" lengthAdjust="spacing" textLength="100.6934" x="954.5" y="135.8467">SpatialSample</text><line style="stroke:#181818;stroke-width:0.5;" x1="926.5" x2="1057.1934" y1="147" y2="147"/><line style="stroke:#181818;stroke-width:0.5;" x1="926.5" x2="1057.1934" y1="155" y2="155"/></g><!--class StatisticalSample--><g class="entity" data-qualified-name="StatisticalSample" data-source-line="5" id="ent0011"><rect fill="#F1F1F1" height="48" rx="2.5" ry="2.5" style="stroke:#181818;stroke-width:0.5;" width="153.666" x="1094" y="115"/><ellipse cx="1109" cy="131" fill="#ADD1B2" rx="11" ry="11" style="stroke:#181818;stroke-width:1;"/><path d="M1111.9688,136.6406 Q1111.3906,136.9375 1110.75,137.0781 Q1110.1094,137.2344 1109.4063,137.2344 Q1106.9063,137.2344 1105.5781,135.5938 Q1104.2656,133.9375 1104.2656,130.8125 Q1104.2656,127.6875 1105.5781,126.0313 Q1106.9063,124.375 1109.4063,124.375 Q1110.1094,124.375 1110.75,124.5313 Q1111.4063,124.6875 1111.9688,124.9844 L1111.9688,127.7031 Q1111.3438,127.125 1110.75,126.8594 Q1110.1563,126.5781 1109.5313,126.5781 Q1108.1875,126.5781 1107.5,127.6563 Q1106.8125,128.7188 1106.8125,130.8125 Q1106.8125,132.9063 1107.5,133.9844 Q1108.1875,135.0469 1109.5313,135.0469 Q1110.1563,135.0469 1110.75,134.7813 Q1111.3438,134.5 1111.9688,133.9219 L1111.9688,136.6406 Z " fill="#000000"/><text fill="#000000" font-family="sans-serif" font-size="14" lengthAdjust="spacing" textLength="121.666" x="1123" y="135.8467">StatisticalSample</text><line style="stroke:#181818;stroke-width:0.5;" x1="1095" x2="1246.666" y1="147" y2="147"/><line style="stroke:#181818;stroke-width:0.5;" x1="1095" x2="1246.666" y1="155" y2="155"/></g><!--class Procedure--><g class="entity" data-qualified-name="Procedure" data-source-line="6" id="ent0013"><rect fill="#F1F1F1" height="48" rx="2.5" ry="2.5" style="stroke:#181818;stroke-width:0.5;" width="103.2031" x="1525.5" y="7"/><ellipse cx="1540.5" cy="23" fill="#ADD1B2" rx="11" ry="11" style="stroke:#181818;stroke-width:1;"/><path d="M1543.4688,28.6406 Q1542.8906,28.9375 1542.25,29.0781 Q1541.6094,29.2344 1540.9063,29.2344 Q1538.4063,29.2344 1537.0781,27.5938 Q1535.7656,25.9375 1535.7656,22.8125 Q1535.7656,19.6875 1537.0781,18.0313 Q1538.4063,16.375 1540.9063,16.375 Q1541.6094,16.375 1542.25,16.5313 Q1542.9063,16.6875 1543.4688,16.9844 L1543.4688,19.7031 Q1542.8438,19.125 1542.25,18.8594 Q1541.6563,18.5781 1541.0313,18.5781 Q1539.6875,18.5781 1539,19.6563 Q1538.3125,20.7188 1538.3125,22.8125 Q1538.3125,24.9063 1539,25.9844 Q1539.6875,27.0469 1541.0313,27.0469 Q1541.6563,27.0469 1542.25,26.7813 Q1542.8438,26.5 1543.4688,25.9219 L1543.4688,28.6406 Z " fill="#000000"/><text fill="#000000" font-family="sans-serif" font-size="14" lengthAdjust="spacing" textLength="71.2031" x="1554.5" y="27.8467">Procedure</text><line style="stroke:#181818;stroke-width:0.5;" x1="1526.5" x2="1627.7031" y1="39" y2="39"/><line style="stroke:#181818;stroke-width:0.5;" x1="1526.5" x2="1627.7031" y1="47" y2="47"/></g><!--class ActuatingProcedure--><g class="entity" data-qualified-name="ActuatingProcedure" data-source-line="6" id="ent0014"><rect fill="#F1F1F1" height="48" rx="2.5" ry="2.5" style="stroke:#181818;stroke-width:0.5;" width="170.5576" x="1283.5" y="115"/><ellipse cx="1298.5" cy="131" fill="#ADD1B2" rx="11" ry="11" style="stroke:#181818;stroke-width:1;"/><path d="M1301.4688,136.6406 Q1300.8906,136.9375 1300.25,137.0781 Q1299.6094,137.2344 1298.9063,137.2344 Q1296.4063,137.2344 1295.0781,135.5938 Q1293.7656,133.9375 1293.7656,130.8125 Q1293.7656,127.6875 1295.0781,126.0313 Q1296.4063,124.375 1298.9063,124.375 Q1299.6094,124.375 1300.25,124.5313 Q1300.9063,124.6875 1301.4688,124.9844 L1301.4688,127.7031 Q1300.8438,127.125 1300.25,126.8594 Q1299.6563,126.5781 1299.0313,126.5781 Q1297.6875,126.5781 1297,127.6563 Q1296.3125,128.7188 1296.3125,130.8125 Q1296.3125,132.9063 1297,133.9844 Q1297.6875,135.0469 1299.0313,135.0469 Q1299.6563,135.0469 1300.25,134.7813 Q1300.8438,134.5 1301.4688,133.9219 L1301.4688,136.6406 Z " fill="#000000"/><text fill="#000000" font-family="sans-serif" font-size="14" lengthAdjust="spacing" textLength="138.5576" x="1312.5" y="135.8467">ActuatingProcedure</text><line style="stroke:#181818;stroke-width:0.5;" x1="1284.5" x2="1453.0576" y1="147" y2="147"/><line style="stroke:#181818;stroke-width:0.5;" x1="1284.5" x2="1453.0576" y1="155" y2="155"/></g><!--class ObservingProcedure--><g class="entity" data-qualified-name="ObservingProcedure" data-source-line="7" id="ent0016"><rect fill="#F1F1F1" height="48" rx="2.5" ry="2.5" style="stroke:#181818;stroke-width:0.5;" width="174.707" x="1489.5" y="115"/><ellipse cx="1504.5" cy="131" fill="#ADD1B2" rx="11" ry="11" style="stroke:#181818;stroke-width:1;"/><path d="M1507.4688,136.6406 Q1506.8906,136.9375 1506.25,137.0781 Q1505.6094,137.2344 1504.9063,137.2344 Q1502.4063,137.2344 1501.0781,135.5938 Q1499.7656,133.9375 1499.7656,130.8125 Q1499.7656,127.6875 1501.0781,126.0313 Q1502.4063,124.375 1504.9063,124.375 Q1505.6094,124.375 1506.25,124.5313 Q1506.9063,124.6875 1507.4688,124.9844 L1507.4688,127.7031 Q1506.8438,127.125 1506.25,126.8594 Q1505.6563,126.5781 1505.0313,126.5781 Q1503.6875,126.5781 1503,127.6563 Q1502.3125,128.7188 1502.3125,130.8125 Q1502.3125,132.9063 1503,133.9844 Q1503.6875,135.0469 1505.0313,135.0469 Q1505.6563,135.0469 1506.25,134.7813 Q1506.8438,134.5 1507.4688,133.9219 L1507.4688,136.6406 Z " fill="#000000"/><text fill="#000000" font-family="sans-serif" font-size="14" lengthAdjust="spacing" textLength="142.707" x="1518.5" y="135.8467">ObservingProcedure</text><line style="stroke:#181818;stroke-width:0.5;" x1="1490.5" x2="1663.207" y1="147" y2="147"/><line style="stroke:#181818;stroke-width:0.5;" x1="1490.5" x2="1663.207" y1="155" y2="155"/></g><!--class SamplingProcedure--><g class="entity" data-qualified-name="SamplingProcedure" data-source-line="8" id="ent0018"><rect fill="#F1F1F1" height="48" rx="2.5" ry="2.5" style="stroke:#181818;stroke-width:0.5;" width="168.7324" x="1699.5" y="115"/><ellipse cx="1714.5" cy="131" fill="#ADD1B2" rx="11" ry="11" style="stroke:#181818;stroke-width:1;"/><path d="M1717.4688,136.6406 Q1716.8906,136.9375 1716.25,137.0781 Q1715.6094,137.2344 1714.9063,137.2344 Q1712.4063,137.2344 1711.0781,135.5938 Q1709.7656,133.9375 1709.7656,130.8125 Q1709.7656,127.6875 1711.0781,126.0313 Q1712.4063,124.375 1714.9063,124.375 Q1715.6094,124.375 1716.25,124.5313 Q1716.9063,124.6875 1717.4688,124.9844 L1717.4688,127.7031 Q1716.8438,127.125 1716.25,126.8594 Q1715.6563,126.5781 1715.0313,126.5781 Q1713.6875,126.5781 1713,127.6563 Q1712.3125,128.7188 1712.3125,130.8125 Q1712.3125,132.9063 1713,133.9844 Q1713.6875,135.0469 1715.0313,135.0469 Q1715.6563,135.0469 1716.25,134.7813 Q1716.8438,134.5 1717.4688,133.9219 L1717.4688,136.6406 Z " fill="#000000"/><text fill="#000000" font-family="sans-serif" font-size="14" lengthAdjust="spacing" textLength="136.7324" x="1728.5" y="135.8467">SamplingProcedure</text><line style="stroke:#181818;stroke-width:0.5;" x1="1700.5" x2="1867.2324" y1="147" y2="147"/><line style="stroke:#181818;stroke-width:0.5;" x1="1700.5" x2="1867.2324" y1="155" y2="155"/></g><!--class Asset--><g class="entity" data-qualified-name="Asset" data-source-line="9" id="ent0020"><rect fill="#F1F1F1" height="48" rx="2.5" ry="2.5" style="stroke:#181818;stroke-width:0.5;" width="70.2676" x="1975" y="7"/><ellipse cx="1990" cy="23" fill="#ADD1B2" rx="11" ry="11" style="stroke:#181818;stroke-width:1;"/><path d="M1992.9688,28.6406 Q1992.3906,28.9375 1991.75,29.0781 Q1991.1094,29.2344 1990.4063,29.2344 Q1987.9063,29.2344 1986.5781,27.5938 Q1985.2656,25.9375 1985.2656,22.8125 Q1985.2656,19.6875 1986.5781,18.0313 Q1987.9063,16.375 1990.4063,16.375 Q1991.1094,16.375 1991.75,16.5313 Q1992.4063,16.6875 1992.9688,16.9844 L1992.9688,19.7031 Q1992.3438,19.125 1991.75,18.8594 Q1991.1563,18.5781 1990.5313,18.5781 Q1989.1875,18.5781 1988.5,19.6563 Q1987.8125,20.7188 1987.8125,22.8125 Q1987.8125,24.9063 1988.5,25.9844 Q1989.1875,27.0469 1990.5313,27.0469 Q1991.1563,27.0469 1991.75,26.7813 Q1992.3438,26.5 1992.9688,25.9219 L1992.9688,28.6406 Z " fill="#000000"/><text fill="#000000" font-family="sans-serif" font-size="14" lengthAdjust="spacing" textLength="38.2676" x="2004" y="27.8467">Asset</text><line style="stroke:#181818;stroke-width:0.5;" x1="1976" x2="2044.2676" y1="39" y2="39"/><line style="stroke:#181818;stroke-width:0.5;" x1="1976" x2="2044.2676" y1="47" y2="47"/></g><!--class Platform--><g class="entity" data-qualified-name="Platform" data-source-line="9" id="ent0021"><rect fill="#F1F1F1" height="48" rx="2.5" ry="2.5" style="stroke:#181818;stroke-width:0.5;" width="91.2881" x="1903.5" y="115"/><ellipse cx="1918.5" cy="131" fill="#ADD1B2" rx="11" ry="11" style="stroke:#181818;stroke-width:1;"/><path d="M1921.4688,136.6406 Q1920.8906,136.9375 1920.25,137.0781 Q1919.6094,137.2344 1918.9063,137.2344 Q1916.4063,137.2344 1915.0781,135.5938 Q1913.7656,133.9375 1913.7656,130.8125 Q1913.7656,127.6875 1915.0781,126.0313 Q1916.4063,124.375 1918.9063,124.375 Q1919.6094,124.375 1920.25,124.5313 Q1920.9063,124.6875 1921.4688,124.9844 L1921.4688,127.7031 Q1920.8438,127.125 1920.25,126.8594 Q1919.6563,126.5781 1919.0313,126.5781 Q1917.6875,126.5781 1917,127.6563 Q1916.3125,128.7188 1916.3125,130.8125 Q1916.3125,132.9063 1917,133.9844 Q1917.6875,135.0469 1919.0313,135.0469 Q1919.6563,135.0469 1920.25,134.7813 Q1920.8438,134.5 1921.4688,133.9219 L1921.4688,136.6406 Z " fill="#000000"/><text fill="#000000" font-family="sans-serif" font-size="14" lengthAdjust="spacing" textLength="59.2881" x="1932.5" y="135.8467">Platform</text><line style="stroke:#181818;stroke-width:0.5;" x1="1904.5" x2="1993.7881" y1="147" y2="147"/><line style="stroke:#181818;stroke-width:0.5;" x1="1904.5" x2="1993.7881" y1="155" y2="155"/></g><!--class System--><g class="entity" data-qualified-name="System" data-source-line="10" id="ent0023"><rect fill="#F1F1F1" height="48" rx="2.5" ry="2.5" style="stroke:#181818;stroke-width:0.5;" width="84.2061" x="2030" y="115"/><ellipse cx="2045" cy="131" fill="#ADD1B2" rx="11" ry="11" style="stroke:#181818;stroke-width:1;"/><path d="M2047.9688,136.6406 Q2047.3906,136.9375 2046.75,137.0781 Q2046.1094,137.2344 2045.4063,137.2344 Q2042.9063,137.2344 2041.5781,135.5938 Q2040.2656,133.9375 2040.2656,130.8125 Q2040.2656,127.6875 2041.5781,126.0313 Q2042.9063,124.375 2045.4063,124.375 Q2046.1094,124.375 2046.75,124.5313 Q2047.4063,124.6875 2047.9688,124.9844 L2047.9688,127.7031 Q2047.3438,127.125 2046.75,126.8594 Q2046.1563,126.5781 2045.5313,126.5781 Q2044.1875,126.5781 2043.5,127.6563 Q2042.8125,128.7188 2042.8125,130.8125 Q2042.8125,132.9063 2043.5,133.9844 Q2044.1875,135.0469 2045.5313,135.0469 Q2046.1563,135.0469 2046.75,134.7813 Q2047.3438,134.5 2047.9688,133.9219 L2047.9688,136.6406 Z " fill="#000000"/><text fill="#000000" font-family="sans-serif" font-size="14" lengthAdjust="spacing" textLength="52.2061" x="2059" y="135.8467">System</text><line style="stroke:#181818;stroke-width:0.5;" x1="2031" x2="2113.2061" y1="147" y2="147"/><line style="stroke:#181818;stroke-width:0.5;" x1="2031" x2="2113.2061" y1="155" y2="155"/></g><!--class Sampler--><g class="entity" data-qualified-name="Sampler" data-source-line="10" id="ent0024"><rect fill="#F1F1F1" height="48" rx="2.5" ry="2.5" style="stroke:#181818;stroke-width:0.5;" width="90.249" x="1901" y="223"/><ellipse cx="1916" cy="239" fill="#ADD1B2" rx="11" ry="11" style="stroke:#181818;stroke-width:1;"/><path d="M1918.9688,244.6406 Q1918.3906,244.9375 1917.75,245.0781 Q1917.1094,245.2344 1916.4063,245.2344 Q1913.9063,245.2344 1912.5781,243.5938 Q1911.2656,241.9375 1911.2656,238.8125 Q1911.2656,235.6875 1912.5781,234.0313 Q1913.9063,232.375 1916.4063,232.375 Q1917.1094,232.375 1917.75,232.5313 Q1918.4063,232.6875 1918.9688,232.9844 L1918.9688,235.7031 Q1918.3438,235.125 1917.75,234.8594 Q1917.1563,234.5781 1916.5313,234.5781 Q1915.1875,234.5781 1914.5,235.6563 Q1913.8125,236.7188 1913.8125,238.8125 Q1913.8125,240.9063 1914.5,241.9844 Q1915.1875,243.0469 1916.5313,243.0469 Q1917.1563,243.0469 1917.75,242.7813 Q1918.3438,242.5 1918.9688,241.9219 L1918.9688,244.6406 Z " fill="#000000"/><text fill="#000000" font-family="sans-serif" font-size="14" lengthAdjust="spacing" textLength="58.249" x="1930" y="243.8467">Sampler</text><line style="stroke:#181818;stroke-width:0.5;" x1="1902" x2="1990.249" y1="255" y2="255"/><line style="stroke:#181818;stroke-width:0.5;" x1="1902" x2="1990.249" y1="263" y2="263"/></g><!--class Actuator--><g class="entity" data-qualified-name="Actuator" data-source-line="11" id="ent0026"><rect fill="#F1F1F1" height="48" rx="2.5" ry="2.5" style="stroke:#181818;stroke-width:0.5;" width="92.0264" x="2026" y="223"/><ellipse cx="2041" cy="239" fill="#ADD1B2" rx="11" ry="11" style="stroke:#181818;stroke-width:1;"/><path d="M2043.9688,244.6406 Q2043.3906,244.9375 2042.75,245.0781 Q2042.1094,245.2344 2041.4063,245.2344 Q2038.9063,245.2344 2037.5781,243.5938 Q2036.2656,241.9375 2036.2656,238.8125 Q2036.2656,235.6875 2037.5781,234.0313 Q2038.9063,232.375 2041.4063,232.375 Q2042.1094,232.375 2042.75,232.5313 Q2043.4063,232.6875 2043.9688,232.9844 L2043.9688,235.7031 Q2043.3438,235.125 2042.75,234.8594 Q2042.1563,234.5781 2041.5313,234.5781 Q2040.1875,234.5781 2039.5,235.6563 Q2038.8125,236.7188 2038.8125,238.8125 Q2038.8125,240.9063 2039.5,241.9844 Q2040.1875,243.0469 2041.5313,243.0469 Q2042.1563,243.0469 2042.75,242.7813 Q2043.3438,242.5 2043.9688,241.9219 L2043.9688,244.6406 Z " fill="#000000"/><text fill="#000000" font-family="sans-serif" font-size="14" lengthAdjust="spacing" textLength="60.0264" x="2055" y="243.8467">Actuator</text><line style="stroke:#181818;stroke-width:0.5;" x1="2027" x2="2117.0264" y1="255" y2="255"/><line style="stroke:#181818;stroke-width:0.5;" x1="2027" x2="2117.0264" y1="263" y2="263"/></g><!--class ExecutionCollection--><g class="entity" data-qualified-name="ExecutionCollection" data-source-line="12" id="ent0028"><rect fill="#F1F1F1" height="48" rx="2.5" ry="2.5" style="stroke:#181818;stroke-width:0.5;" width="170.3799" x="2350" y="7"/><ellipse cx="2365" cy="23" fill="#ADD1B2" rx="11" ry="11" style="stroke:#181818;stroke-width:1;"/><path d="M2367.9688,28.6406 Q2367.3906,28.9375 2366.75,29.0781 Q2366.1094,29.2344 2365.4063,29.2344 Q2362.9063,29.2344 2361.5781,27.5938 Q2360.2656,25.9375 2360.2656,22.8125 Q2360.2656,19.6875 2361.5781,18.0313 Q2362.9063,16.375 2365.4063,16.375 Q2366.1094,16.375 2366.75,16.5313 Q2367.4063,16.6875 2367.9688,16.9844 L2367.9688,19.7031 Q2367.3438,19.125 2366.75,18.8594 Q2366.1563,18.5781 2365.5313,18.5781 Q2364.1875,18.5781 2363.5,19.6563 Q2362.8125,20.7188 2362.8125,22.8125 Q2362.8125,24.9063 2363.5,25.9844 Q2364.1875,27.0469 2365.5313,27.0469 Q2366.1563,27.0469 2366.75,26.7813 Q2367.3438,26.5 2367.9688,25.9219 L2367.9688,28.6406 Z " fill="#000000"/><text fill="#000000" font-family="sans-serif" font-size="14" lengthAdjust="spacing" textLength="138.3799" x="2379" y="27.8467">ExecutionCollection</text><line style="stroke:#181818;stroke-width:0.5;" x1="2351" x2="2519.3799" y1="39" y2="39"/><line style="stroke:#181818;stroke-width:0.5;" x1="2351" x2="2519.3799" y1="47" y2="47"/></g><!--class SamplingCollection--><g class="entity" data-qualified-name="SamplingCollection" data-source-line="12" id="ent0029"><rect fill="#F1F1F1" height="48" rx="2.5" ry="2.5" style="stroke:#181818;stroke-width:0.5;" width="166.7773" x="2149.5" y="115"/><ellipse cx="2164.5" cy="131" fill="#ADD1B2" rx="11" ry="11" style="stroke:#181818;stroke-width:1;"/><path d="M2167.4688,136.6406 Q2166.8906,136.9375 2166.25,137.0781 Q2165.6094,137.2344 2164.9063,137.2344 Q2162.4063,137.2344 2161.0781,135.5938 Q2159.7656,133.9375 2159.7656,130.8125 Q2159.7656,127.6875 2161.0781,126.0313 Q2162.4063,124.375 2164.9063,124.375 Q2165.6094,124.375 2166.25,124.5313 Q2166.9063,124.6875 2167.4688,124.9844 L2167.4688,127.7031 Q2166.8438,127.125 2166.25,126.8594 Q2165.6563,126.5781 2165.0313,126.5781 Q2163.6875,126.5781 2163,127.6563 Q2162.3125,128.7188 2162.3125,130.8125 Q2162.3125,132.9063 2163,133.9844 Q2163.6875,135.0469 2165.0313,135.0469 Q2165.6563,135.0469 2166.25,134.7813 Q2166.8438,134.5 2167.4688,133.9219 L2167.4688,136.6406 Z " fill="#000000"/><text fill="#000000" font-family="sans-serif" font-size="14" lengthAdjust="spacing" textLength="134.7773" x="2178.5" y="135.8467">SamplingCollection</text><line style="stroke:#181818;stroke-width:0.5;" x1="2150.5" x2="2315.2773" y1="147" y2="147"/><line style="stroke:#181818;stroke-width:0.5;" x1="2150.5" x2="2315.2773" y1="155" y2="155"/></g><!--class Sensor--><g class="entity" data-qualified-name="Sensor" data-source-line="14" id="ent0032"><rect fill="#F1F1F1" height="48" rx="2.5" ry="2.5" style="stroke:#181818;stroke-width:0.5;" width="79.9883" x="2153" y="223"/><ellipse cx="2168" cy="239" fill="#ADD1B2" rx="11" ry="11" style="stroke:#181818;stroke-width:1;"/><path d="M2170.9688,244.6406 Q2170.3906,244.9375 2169.75,245.0781 Q2169.1094,245.2344 2168.4063,245.2344 Q2165.9063,245.2344 2164.5781,243.5938 Q2163.2656,241.9375 2163.2656,238.8125 Q2163.2656,235.6875 2164.5781,234.0313 Q2165.9063,232.375 2168.4063,232.375 Q2169.1094,232.375 2169.75,232.5313 Q2170.4063,232.6875 2170.9688,232.9844 L2170.9688,235.7031 Q2170.3438,235.125 2169.75,234.8594 Q2169.1563,234.5781 2168.5313,234.5781 Q2167.1875,234.5781 2166.5,235.6563 Q2165.8125,236.7188 2165.8125,238.8125 Q2165.8125,240.9063 2166.5,241.9844 Q2167.1875,243.0469 2168.5313,243.0469 Q2169.1563,243.0469 2169.75,242.7813 Q2170.3438,242.5 2170.9688,241.9219 L2170.9688,244.6406 Z " fill="#000000"/><text fill="#000000" font-family="sans-serif" font-size="14" lengthAdjust="spacing" textLength="47.9883" x="2182" y="243.8467">Sensor</text><line style="stroke:#181818;stroke-width:0.5;" x1="2154" x2="2231.9883" y1="255" y2="255"/><line style="stroke:#181818;stroke-width:0.5;" x1="2154" x2="2231.9883" y1="263" y2="263"/></g><!--class Execution--><g class="entity" data-qualified-name="Execution" data-source-line="15" id="ent0034"><rect fill="#F1F1F1" height="48" rx="2.5" ry="2.5" style="stroke:#181818;stroke-width:0.5;" width="101.1318" x="2907.5" y="7"/><ellipse cx="2922.5" cy="23" fill="#ADD1B2" rx="11" ry="11" style="stroke:#181818;stroke-width:1;"/><path d="M2925.4688,28.6406 Q2924.8906,28.9375 2924.25,29.0781 Q2923.6094,29.2344 2922.9063,29.2344 Q2920.4063,29.2344 2919.0781,27.5938 Q2917.7656,25.9375 2917.7656,22.8125 Q2917.7656,19.6875 2919.0781,18.0313 Q2920.4063,16.375 2922.9063,16.375 Q2923.6094,16.375 2924.25,16.5313 Q2924.9063,16.6875 2925.4688,16.9844 L2925.4688,19.7031 Q2924.8438,19.125 2924.25,18.8594 Q2923.6563,18.5781 2923.0313,18.5781 Q2921.6875,18.5781 2921,19.6563 Q2920.3125,20.7188 2920.3125,22.8125 Q2920.3125,24.9063 2921,25.9844 Q2921.6875,27.0469 2923.0313,27.0469 Q2923.6563,27.0469 2924.25,26.7813 Q2924.8438,26.5 2925.4688,25.9219 L2925.4688,28.6406 Z " fill="#000000"/><text fill="#000000" font-family="sans-serif" font-size="14" lengthAdjust="spacing" textLength="69.1318" x="2936.5" y="27.8467">Execution</text><line style="stroke:#181818;stroke-width:0.5;" x1="2908.5" x2="3007.6318" y1="39" y2="39"/><line style="stroke:#181818;stroke-width:0.5;" x1="2908.5" x2="3007.6318" y1="47" y2="47"/></g><!--class Sampling--><g class="entity" data-qualified-name="Sampling" data-source-line="15" id="ent0035"><rect fill="#F1F1F1" height="48" rx="2.5" ry="2.5" style="stroke:#181818;stroke-width:0.5;" width="97.5293" x="2775" y="115"/><ellipse cx="2790" cy="131" fill="#ADD1B2" rx="11" ry="11" style="stroke:#181818;stroke-width:1;"/><path d="M2792.9688,136.6406 Q2792.3906,136.9375 2791.75,137.0781 Q2791.1094,137.2344 2790.4063,137.2344 Q2787.9063,137.2344 2786.5781,135.5938 Q2785.2656,133.9375 2785.2656,130.8125 Q2785.2656,127.6875 2786.5781,126.0313 Q2787.9063,124.375 2790.4063,124.375 Q2791.1094,124.375 2791.75,124.5313 Q2792.4063,124.6875 2792.9688,124.9844 L2792.9688,127.7031 Q2792.3438,127.125 2791.75,126.8594 Q2791.1563,126.5781 2790.5313,126.5781 Q2789.1875,126.5781 2788.5,127.6563 Q2787.8125,128.7188 2787.8125,130.8125 Q2787.8125,132.9063 2788.5,133.9844 Q2789.1875,135.0469 2790.5313,135.0469 Q2791.1563,135.0469 2791.75,134.7813 Q2792.3438,134.5 2792.9688,133.9219 L2792.9688,136.6406 Z " fill="#000000"/><text fill="#000000" font-family="sans-serif" font-size="14" lengthAdjust="spacing" textLength="65.5293" x="2804" y="135.8467">Sampling</text><line style="stroke:#181818;stroke-width:0.5;" x1="2776" x2="2871.5293" y1="147" y2="147"/><line style="stroke:#181818;stroke-width:0.5;" x1="2776" x2="2871.5293" y1="155" y2="155"/></g><!--class Actuation--><g class="entity" data-qualified-name="Actuation" data-source-line="16" id="ent0037"><rect fill="#F1F1F1" height="48" rx="2.5" ry="2.5" style="stroke:#181818;stroke-width:0.5;" width="99.0332" x="2908.5" y="115"/><ellipse cx="2923.5" cy="131" fill="#ADD1B2" rx="11" ry="11" style="stroke:#181818;stroke-width:1;"/><path d="M2926.4688,136.6406 Q2925.8906,136.9375 2925.25,137.0781 Q2924.6094,137.2344 2923.9063,137.2344 Q2921.4063,137.2344 2920.0781,135.5938 Q2918.7656,133.9375 2918.7656,130.8125 Q2918.7656,127.6875 2920.0781,126.0313 Q2921.4063,124.375 2923.9063,124.375 Q2924.6094,124.375 2925.25,124.5313 Q2925.9063,124.6875 2926.4688,124.9844 L2926.4688,127.7031 Q2925.8438,127.125 2925.25,126.8594 Q2924.6563,126.5781 2924.0313,126.5781 Q2922.6875,126.5781 2922,127.6563 Q2921.3125,128.7188 2921.3125,130.8125 Q2921.3125,132.9063 2922,133.9844 Q2922.6875,135.0469 2924.0313,135.0469 Q2924.6563,135.0469 2925.25,134.7813 Q2925.8438,134.5 2926.4688,133.9219 L2926.4688,136.6406 Z " fill="#000000"/><text fill="#000000" font-family="sans-serif" font-size="14" lengthAdjust="spacing" textLength="67.0332" x="2937.5" y="135.8467">Actuation</text><line style="stroke:#181818;stroke-width:0.5;" x1="2909.5" x2="3006.5332" y1="147" y2="147"/><line style="stroke:#181818;stroke-width:0.5;" x1="2909.5" x2="3006.5332" y1="155" y2="155"/></g><!--class ActuationCollection--><g class="entity" data-qualified-name="ActuationCollection" data-source-line="17" id="ent0039"><rect fill="#F1F1F1" height="48" rx="2.5" ry="2.5" style="stroke:#181818;stroke-width:0.5;" width="168.2813" x="2351" y="115"/><ellipse cx="2366" cy="131" fill="#ADD1B2" rx="11" ry="11" style="stroke:#181818;stroke-width:1;"/><path d="M2368.9688,136.6406 Q2368.3906,136.9375 2367.75,137.0781 Q2367.1094,137.2344 2366.4063,137.2344 Q2363.9063,137.2344 2362.5781,135.5938 Q2361.2656,133.9375 2361.2656,130.8125 Q2361.2656,127.6875 2362.5781,126.0313 Q2363.9063,124.375 2366.4063,124.375 Q2367.1094,124.375 2367.75,124.5313 Q2368.4063,124.6875 2368.9688,124.9844 L2368.9688,127.7031 Q2368.3438,127.125 2367.75,126.8594 Q2367.1563,126.5781 2366.5313,126.5781 Q2365.1875,126.5781 2364.5,127.6563 Q2363.8125,128.7188 2363.8125,130.8125 Q2363.8125,132.9063 2364.5,133.9844 Q2365.1875,135.0469 2366.5313,135.0469 Q2367.1563,135.0469 2367.75,134.7813 Q2368.3438,134.5 2368.9688,133.9219 L2368.9688,136.6406 Z " fill="#000000"/><text fill="#000000" font-family="sans-serif" font-size="14" lengthAdjust="spacing" textLength="136.2813" x="2380" y="135.8467">ActuationCollection</text><line style="stroke:#181818;stroke-width:0.5;" x1="2352" x2="2518.2813" y1="147" y2="147"/><line style="stroke:#181818;stroke-width:0.5;" x1="2352" x2="2518.2813" y1="155" y2="155"/></g><!--class ObservationCollection--><g class="entity" data-qualified-name="ObservationCollection" data-source-line="18" id="ent0041"><rect fill="#F1F1F1" height="48" rx="2.5" ry="2.5" style="stroke:#181818;stroke-width:0.5;" width="186.499" x="2554" y="115"/><ellipse cx="2569" cy="131" fill="#ADD1B2" rx="11" ry="11" style="stroke:#181818;stroke-width:1;"/><path d="M2571.9688,136.6406 Q2571.3906,136.9375 2570.75,137.0781 Q2570.1094,137.2344 2569.4063,137.2344 Q2566.9063,137.2344 2565.5781,135.5938 Q2564.2656,133.9375 2564.2656,130.8125 Q2564.2656,127.6875 2565.5781,126.0313 Q2566.9063,124.375 2569.4063,124.375 Q2570.1094,124.375 2570.75,124.5313 Q2571.4063,124.6875 2571.9688,124.9844 L2571.9688,127.7031 Q2571.3438,127.125 2570.75,126.8594 Q2570.1563,126.5781 2569.5313,126.5781 Q2568.1875,126.5781 2567.5,127.6563 Q2566.8125,128.7188 2566.8125,130.8125 Q2566.8125,132.9063 2567.5,133.9844 Q2568.1875,135.0469 2569.5313,135.0469 Q2570.1563,135.0469 2570.75,134.7813 Q2571.3438,134.5 2571.9688,133.9219 L2571.9688,136.6406 Z " fill="#000000"/><text fill="#000000" font-family="sans-serif" font-size="14" lengthAdjust="spacing" textLength="154.499" x="2583" y="135.8467">ObservationCollection</text><line style="stroke:#181818;stroke-width:0.5;" x1="2555" x2="2739.499" y1="147" y2="147"/><line style="stroke:#181818;stroke-width:0.5;" x1="2555" x2="2739.499" y1="155" y2="155"/></g><!--class Observation--><g class="entity" data-qualified-name="Observation" data-source-line="19" id="ent0043"><rect fill="#F1F1F1" height="48" rx="2.5" ry="2.5" style="stroke:#181818;stroke-width:0.5;" width="117.251" x="3042.5" y="115"/><ellipse cx="3057.5" cy="131" fill="#ADD1B2" rx="11" ry="11" style="stroke:#181818;stroke-width:1;"/><path d="M3060.4688,136.6406 Q3059.8906,136.9375 3059.25,137.0781 Q3058.6094,137.2344 3057.9063,137.2344 Q3055.4063,137.2344 3054.0781,135.5938 Q3052.7656,133.9375 3052.7656,130.8125 Q3052.7656,127.6875 3054.0781,126.0313 Q3055.4063,124.375 3057.9063,124.375 Q3058.6094,124.375 3059.25,124.5313 Q3059.9063,124.6875 3060.4688,124.9844 L3060.4688,127.7031 Q3059.8438,127.125 3059.25,126.8594 Q3058.6563,126.5781 3058.0313,126.5781 Q3056.6875,126.5781 3056,127.6563 Q3055.3125,128.7188 3055.3125,130.8125 Q3055.3125,132.9063 3056,133.9844 Q3056.6875,135.0469 3058.0313,135.0469 Q3058.6563,135.0469 3059.25,134.7813 Q3059.8438,134.5 3060.4688,133.9219 L3060.4688,136.6406 Z " fill="#000000"/><text fill="#000000" font-family="sans-serif" font-size="14" lengthAdjust="spacing" textLength="85.251" x="3071.5" y="135.8467">Observation</text><line style="stroke:#181818;stroke-width:0.5;" x1="3043.5" x2="3158.751" y1="147" y2="147"/><line style="stroke:#181818;stroke-width:0.5;" x1="3043.5" x2="3158.751" y1="155" y2="155"/></g><!--class Deployment--><g class="entity" data-qualified-name="Deployment" data-source-line="20" id="ent0045"><rect fill="#F1F1F1" height="48" rx="2.5" ry="2.5" style="stroke:#181818;stroke-width:0.5;" width="117.6338" x="7" y="7"/><ellipse cx="22" cy="23" fill="#ADD1B2" rx="11" ry="11" style="stroke:#181818;stroke-width:1;"/><path d="M24.9688,28.6406 Q24.3906,28.9375 23.75,29.0781 Q23.1094,29.2344 22.4063,29.2344 Q19.9063,29.2344 18.5781,27.5938 Q17.2656,25.9375 17.2656,22.8125 Q17.2656,19.6875 18.5781,18.0313 Q19.9063,16.375 22.4063,16.375 Q23.1094,16.375 23.75,16.5313 Q24.4063,16.6875 24.9688,16.9844 L24.9688,19.7031 Q24.3438,19.125 23.75,18.8594 Q23.1563,18.5781 22.5313,18.5781 Q21.1875,18.5781 20.5,19.6563 Q19.8125,20.7188 19.8125,22.8125 Q19.8125,24.9063 20.5,25.9844 Q21.1875,27.0469 22.5313,27.0469 Q23.1563,27.0469 23.75,26.7813 Q24.3438,26.5 24.9688,25.9219 L24.9688,28.6406 Z " fill="#000000"/><text fill="#000000" font-family="sans-serif" font-size="14" lengthAdjust="spacing" textLength="85.6338" x="36" y="27.8467">Deployment</text><line style="stroke:#181818;stroke-width:0.5;" x1="8" x2="123.6338" y1="39" y2="39"/><line style="stroke:#181818;stroke-width:0.5;" x1="8" x2="123.6338" y1="47" y2="47"/></g><!--class SampleCollection--><g class="entity" data-qualified-name="SampleCollection" data-source-line="21" id="ent0046"><rect fill="#F1F1F1" height="48" rx="2.5" ry="2.5" style="stroke:#181818;stroke-width:0.5;" width="153.7412" x="160" y="7"/><ellipse cx="175" cy="23" fill="#ADD1B2" rx="11" ry="11" style="stroke:#181818;stroke-width:1;"/><path d="M177.9688,28.6406 Q177.3906,28.9375 176.75,29.0781 Q176.1094,29.2344 175.4063,29.2344 Q172.9063,29.2344 171.5781,27.5938 Q170.2656,25.9375 170.2656,22.8125 Q170.2656,19.6875 171.5781,18.0313 Q172.9063,16.375 175.4063,16.375 Q176.1094,16.375 176.75,16.5313 Q177.4063,16.6875 177.9688,16.9844 L177.9688,19.7031 Q177.3438,19.125 176.75,18.8594 Q176.1563,18.5781 175.5313,18.5781 Q174.1875,18.5781 173.5,19.6563 Q172.8125,20.7188 172.8125,22.8125 Q172.8125,24.9063 173.5,25.9844 Q174.1875,27.0469 175.5313,27.0469 Q176.1563,27.0469 176.75,26.7813 Q177.3438,26.5 177.9688,25.9219 L177.9688,28.6406 Z " fill="#000000"/><text fill="#000000" font-family="sans-serif" font-size="14" lengthAdjust="spacing" textLength="121.7412" x="189" y="27.8467">SampleCollection</text><line style="stroke:#181818;stroke-width:0.5;" x1="161" x2="312.7412" y1="39" y2="39"/><line style="stroke:#181818;stroke-width:0.5;" x1="161" x2="312.7412" y1="47" y2="47"/></g><!--class Result--><g class="entity" data-qualified-name="Result" data-source-line="22" id="ent0047"><rect fill="#F1F1F1" height="48" rx="2.5" ry="2.5" style="stroke:#181818;stroke-width:0.5;" width="75.8867" x="349" y="7"/><ellipse cx="364" cy="23" fill="#ADD1B2" rx="11" ry="11" style="stroke:#181818;stroke-width:1;"/><path d="M366.9688,28.6406 Q366.3906,28.9375 365.75,29.0781 Q365.1094,29.2344 364.4063,29.2344 Q361.9063,29.2344 360.5781,27.5938 Q359.2656,25.9375 359.2656,22.8125 Q359.2656,19.6875 360.5781,18.0313 Q361.9063,16.375 364.4063,16.375 Q365.1094,16.375 365.75,16.5313 Q366.4063,16.6875 366.9688,16.9844 L366.9688,19.7031 Q366.3438,19.125 365.75,18.8594 Q365.1563,18.5781 364.5313,18.5781 Q363.1875,18.5781 362.5,19.6563 Q361.8125,20.7188 361.8125,22.8125 Q361.8125,24.9063 362.5,25.9844 Q363.1875,27.0469 364.5313,27.0469 Q365.1563,27.0469 365.75,26.7813 Q366.3438,26.5 366.9688,25.9219 L366.9688,28.6406 Z " fill="#000000"/><text fill="#000000" font-family="sans-serif" font-size="14" lengthAdjust="spacing" textLength="43.8867" x="378" y="27.8467">Result</text><line style="stroke:#181818;stroke-width:0.5;" x1="350" x2="423.8867" y1="39" y2="39"/><line style="stroke:#181818;stroke-width:0.5;" x1="350" x2="423.8867" y1="47" y2="47"/></g><!--class Stimulus--><g class="entity" data-qualified-name="Stimulus" data-source-line="23" id="ent0048"><rect fill="#F1F1F1" height="48" rx="2.5" ry="2.5" style="stroke:#181818;stroke-width:0.5;" width="92.833" x="19.5" y="115"/><ellipse cx="34.5" cy="131" fill="#ADD1B2" rx="11" ry="11" style="stroke:#181818;stroke-width:1;"/><path d="M37.4688,136.6406 Q36.8906,136.9375 36.25,137.0781 Q35.6094,137.2344 34.9063,137.2344 Q32.4063,137.2344 31.0781,135.5938 Q29.7656,133.9375 29.7656,130.8125 Q29.7656,127.6875 31.0781,126.0313 Q32.4063,124.375 34.9063,124.375 Q35.6094,124.375 36.25,124.5313 Q36.9063,124.6875 37.4688,124.9844 L37.4688,127.7031 Q36.8438,127.125 36.25,126.8594 Q35.6563,126.5781 35.0313,126.5781 Q33.6875,126.5781 33,127.6563 Q32.3125,128.7188 32.3125,130.8125 Q32.3125,132.9063 33,133.9844 Q33.6875,135.0469 35.0313,135.0469 Q35.6563,135.0469 36.25,134.7813 Q36.8438,134.5 37.4688,133.9219 L37.4688,136.6406 Z " fill="#000000"/><text fill="#000000" font-family="sans-serif" font-size="14" lengthAdjust="spacing" textLength="60.833" x="48.5" y="135.8467">Stimulus</text><line style="stroke:#181818;stroke-width:0.5;" x1="20.5" x2="111.333" y1="147" y2="147"/><line style="stroke:#181818;stroke-width:0.5;" x1="20.5" x2="111.333" y1="155" y2="155"/></g><!--class FeatureOfInterest--><g class="entity" data-qualified-name="FeatureOfInterest" data-source-line="24" id="ent0049"><rect fill="#F1F1F1" height="48" rx="2.5" ry="2.5" style="stroke:#181818;stroke-width:0.5;" width="156.1816" x="148" y="115"/><ellipse cx="163" cy="131" fill="#ADD1B2" rx="11" ry="11" style="stroke:#181818;stroke-width:1;"/><path d="M165.9688,136.6406 Q165.3906,136.9375 164.75,137.0781 Q164.1094,137.2344 163.4063,137.2344 Q160.9063,137.2344 159.5781,135.5938 Q158.2656,133.9375 158.2656,130.8125 Q158.2656,127.6875 159.5781,126.0313 Q160.9063,124.375 163.4063,124.375 Q164.1094,124.375 164.75,124.5313 Q165.4063,124.6875 165.9688,124.9844 L165.9688,127.7031 Q165.3438,127.125 164.75,126.8594 Q164.1563,126.5781 163.5313,126.5781 Q162.1875,126.5781 161.5,127.6563 Q160.8125,128.7188 160.8125,130.8125 Q160.8125,132.9063 161.5,133.9844 Q162.1875,135.0469 163.5313,135.0469 Q164.1563,135.0469 164.75,134.7813 Q165.3438,134.5 165.9688,133.9219 L165.9688,136.6406 Z " fill="#000000"/><text fill="#000000" font-family="sans-serif" font-size="14" lengthAdjust="spacing" textLength="124.1816" x="177" y="135.8467">FeatureOfInterest</text><line style="stroke:#181818;stroke-width:0.5;" x1="149" x2="303.1816" y1="147" y2="147"/><line style="stroke:#181818;stroke-width:0.5;" x1="149" x2="303.1816" y1="155" y2="155"/></g><!--reverse link Property to ActuatableProperty--><g class="link" data-entity-1="ent0001" data-entity-2="ent0002" data-link-type="extension" data-source-line="1" id="lnk3"><path codeLine="1" d="M521.2563,65.6739 C497.2763,83.3339 478.78,96.94 454.68,114.68" fill="none" id="Property-backto-ActuatableProperty" style="stroke:#181818;stroke-width:1;"/><polygon fill="none" points="535.75,55,517.6983,60.8426,524.8142,70.5051,535.75,55" style="stroke:#181818;stroke-width:1;stroke-linejoin:miter;stroke-miterlimit:10;"/></g><!--reverse link Sample to MaterialSample--><g class="link" data-entity-1="ent0004" data-entity-2="ent0005" data-link-type="extension" data-source-line="2" id="lnk6"><path codeLine="2" d="M939.3567,64.4445 C910.6067,82.1645 886.35,97.11 857.55,114.86" fill="none" id="Sample-backto-MaterialSample" style="stroke:#181818;stroke-width:1;"/><polygon fill="none" points="954.68,55,936.2086,59.3367,942.5049,69.5522,954.68,55" style="stroke:#181818;stroke-width:1;stroke-linejoin:miter;stroke-miterlimit:10;"/></g><!--reverse link Property to ObservableProperty--><g class="link" data-entity-1="ent0001" data-entity-2="ent0007" data-link-type="extension" data-source-line="3" id="lnk8"><path codeLine="3" d="M589.2161,70.6022 C599.3761,88.2622 604.37,96.94 614.58,114.68" fill="none" id="Property-backto-ObservableProperty" style="stroke:#181818;stroke-width:1;"/><polygon fill="none" points="580.24,55,584.0154,73.5943,594.4169,67.6102,580.24,55" style="stroke:#181818;stroke-width:1;stroke-linejoin:miter;stroke-miterlimit:10;"/></g><!--reverse link Sample to SpatialSample--><g class="link" data-entity-1="ent0004" data-entity-2="ent0009" data-link-type="extension" data-source-line="4" id="lnk10"><path codeLine="4" d="M992,73 C992,90.66 992,96.94 992,114.68" fill="none" id="Sample-backto-SpatialSample" style="stroke:#181818;stroke-width:1;"/><polygon fill="none" points="992,55,986,73,998,73,992,55" style="stroke:#181818;stroke-width:1;stroke-linejoin:miter;stroke-miterlimit:10;"/></g><!--reverse link Sample to StatisticalSample--><g class="link" data-entity-1="ent0004" data-entity-2="ent0011" data-link-type="extension" data-source-line="5" id="lnk12"><path codeLine="5" d="M1046.3276,64.1725 C1076.2476,81.8925 1101.95,97.11 1131.93,114.86" fill="none" id="Sample-backto-StatisticalSample" style="stroke:#181818;stroke-width:1;"/><polygon fill="none" points="1030.84,55,1043.2701,69.335,1049.3851,59.0099,1030.84,55" style="stroke:#181818;stroke-width:1;stroke-linejoin:miter;stroke-miterlimit:10;"/></g><!--reverse link Procedure to ActuatingProcedure--><g class="link" data-entity-1="ent0013" data-entity-2="ent0014" data-link-type="extension" data-source-line="6" id="lnk15"><path codeLine="6" d="M1515.8326,63.1732 C1481.0626,80.8932 1449.24,97.11 1414.4,114.86" fill="none" id="Procedure-backto-ActuatingProcedure" style="stroke:#181818;stroke-width:1;"/><polygon fill="none" points="1531.87,55,1513.1082,57.8274,1518.557,68.519,1531.87,55" style="stroke:#181818;stroke-width:1;stroke-linejoin:miter;stroke-miterlimit:10;"/></g><!--reverse link Procedure to ObservingProcedure--><g class="link" data-entity-1="ent0013" data-entity-2="ent0016" data-link-type="extension" data-source-line="7" id="lnk17"><path codeLine="7" d="M1577,73 C1577,90.66 1577,96.94 1577,114.68" fill="none" id="Procedure-backto-ObservingProcedure" style="stroke:#181818;stroke-width:1;"/><polygon fill="none" points="1577,55,1571,73,1583,73,1577,55" style="stroke:#181818;stroke-width:1;stroke-linejoin:miter;stroke-miterlimit:10;"/></g><!--reverse link Procedure to SamplingProcedure--><g class="link" data-entity-1="ent0013" data-entity-2="ent0018" data-link-type="extension" data-source-line="8" id="lnk19"><path codeLine="8" d="M1637.9411,63.205 C1672.5411,80.925 1704.15,97.11 1738.81,114.86" fill="none" id="Procedure-backto-SamplingProcedure" style="stroke:#181818;stroke-width:1;"/><polygon fill="none" points="1621.92,55,1635.2061,68.5454,1640.6762,57.8647,1621.92,55" style="stroke:#181818;stroke-width:1;stroke-linejoin:miter;stroke-miterlimit:10;"/></g><!--reverse link Asset to Platform--><g class="link" data-entity-1="ent0020" data-entity-2="ent0021" data-link-type="extension" data-source-line="9" id="lnk22"><path codeLine="9" d="M1987.7839,70.6022 C1977.6239,88.2622 1972.63,96.94 1962.42,114.68" fill="none" id="Asset-backto-Platform" style="stroke:#181818;stroke-width:1;"/><polygon fill="none" points="1996.76,55,1982.5831,67.6102,1992.9846,73.5943,1996.76,55" style="stroke:#181818;stroke-width:1;stroke-linejoin:miter;stroke-miterlimit:10;"/></g><!--reverse link System to Sampler--><g class="link" data-entity-1="ent0023" data-entity-2="ent0024" data-link-type="extension" data-source-line="10" id="lnk25"><path codeLine="10" d="M2030.8865,174.5884 C2009.8965,192.2484 1994.81,204.94 1973.72,222.68" fill="none" id="System-backto-Sampler" style="stroke:#181818;stroke-width:1;"/><polygon fill="none" points="2044.66,163,2027.0237,169.9972,2034.7493,179.1795,2044.66,163" style="stroke:#181818;stroke-width:1;stroke-linejoin:miter;stroke-miterlimit:10;"/></g><!--reverse link System to Actuator--><g class="link" data-entity-1="ent0023" data-entity-2="ent0026" data-link-type="extension" data-source-line="11" id="lnk27"><path codeLine="11" d="M2072,181 C2072,198.66 2072,204.94 2072,222.68" fill="none" id="System-backto-Actuator" style="stroke:#181818;stroke-width:1;"/><polygon fill="none" points="2072,163,2066,181,2078,181,2072,163" style="stroke:#181818;stroke-width:1;stroke-linejoin:miter;stroke-miterlimit:10;"/></g><!--reverse link ExecutionCollection to SamplingCollection--><g class="link" data-entity-1="ent0028" data-entity-2="ent0029" data-link-type="extension" data-source-line="12" id="lnk30"><path codeLine="12" d="M2375.231,63.3636 C2341.461,81.0836 2310.93,97.11 2277.09,114.86" fill="none" id="ExecutionCollection-backto-SamplingCollection" style="stroke:#181818;stroke-width:1;"/><polygon fill="none" points="2391.17,55,2372.4432,58.0506,2378.0189,68.6766,2391.17,55" style="stroke:#181818;stroke-width:1;stroke-linejoin:miter;stroke-miterlimit:10;"/></g><!--reverse link Asset to System--><g class="link" data-entity-1="ent0020" data-entity-2="ent0023" data-link-type="extension" data-source-line="13" id="lnk31"><path codeLine="13" d="M2032.5383,70.5372 C2042.8683,88.1972 2047.98,96.94 2058.36,114.68" fill="none" id="Asset-backto-System" style="stroke:#181818;stroke-width:1;"/><polygon fill="none" points="2023.45,55,2027.3592,73.5666,2037.7173,67.5077,2023.45,55" style="stroke:#181818;stroke-width:1;stroke-linejoin:miter;stroke-miterlimit:10;"/></g><!--reverse link System to Sensor--><g class="link" data-entity-1="ent0023" data-entity-2="ent0032" data-link-type="extension" data-source-line="14" id="lnk33"><path codeLine="14" d="M2111.7968,174.864 C2131.9468,192.524 2146.13,204.94 2166.38,222.68" fill="none" id="System-backto-Sensor" style="stroke:#181818;stroke-width:1;"/><polygon fill="none" points="2098.26,163,2107.8421,179.3763,2115.7515,170.3518,2098.26,163" style="stroke:#181818;stroke-width:1;stroke-linejoin:miter;stroke-miterlimit:10;"/></g><!--reverse link Execution to Sampling--><g class="link" data-entity-1="ent0034" data-entity-2="ent0035" data-link-type="extension" data-source-line="15" id="lnk36"><path codeLine="15" d="M2914.8041,66.1688 C2892.4841,83.8288 2875.91,96.94 2853.48,114.68" fill="none" id="Execution-backto-Sampling" style="stroke:#181818;stroke-width:1;"/><polygon fill="none" points="2928.92,55,2911.0812,61.4635,2918.527,70.8741,2928.92,55" style="stroke:#181818;stroke-width:1;stroke-linejoin:miter;stroke-miterlimit:10;"/></g><!--reverse link Execution to Actuation--><g class="link" data-entity-1="ent0034" data-entity-2="ent0037" data-link-type="extension" data-source-line="16" id="lnk38"><path codeLine="16" d="M2958,73 C2958,90.66 2958,96.94 2958,114.68" fill="none" id="Execution-backto-Actuation" style="stroke:#181818;stroke-width:1;"/><polygon fill="none" points="2958,55,2952,73,2964,73,2958,55" style="stroke:#181818;stroke-width:1;stroke-linejoin:miter;stroke-miterlimit:10;"/></g><!--reverse link ExecutionCollection to ActuationCollection--><g class="link" data-entity-1="ent0028" data-entity-2="ent0039" data-link-type="extension" data-source-line="17" id="lnk40"><path codeLine="17" d="M2435,73 C2435,90.66 2435,96.94 2435,114.68" fill="none" id="ExecutionCollection-backto-ActuationCollection" style="stroke:#181818;stroke-width:1;"/><polygon fill="none" points="2435,55,2429,73,2441,73,2435,55" style="stroke:#181818;stroke-width:1;stroke-linejoin:miter;stroke-miterlimit:10;"/></g><!--reverse link ExecutionCollection to ObservationCollection--><g class="link" data-entity-1="ent0028" data-entity-2="ent0041" data-link-type="extension" data-source-line="18" id="lnk42"><path codeLine="18" d="M2497.0997,63.0498 C2532.5397,80.7698 2565.22,97.11 2600.72,114.86" fill="none" id="ExecutionCollection-backto-ObservationCollection" style="stroke:#181818;stroke-width:1;"/><polygon fill="none" points="2481,55,2494.4164,68.4164,2499.783,57.6833,2481,55" style="stroke:#181818;stroke-width:1;stroke-linejoin:miter;stroke-miterlimit:10;"/></g><!--reverse link Execution to Observation--><g class="link" data-entity-1="ent0034" data-entity-2="ent0043" data-link-type="extension" data-source-line="19" id="lnk44"><path codeLine="19" d="M3003.4895,65.7202 C3027.3095,83.3802 3045.61,96.94 3069.54,114.68" fill="none" id="Execution-backto-Observation" style="stroke:#181818;stroke-width:1;"/><polygon fill="none" points="2989.03,55,2999.9161,70.54,3007.0629,60.9004,2989.03,55" style="stroke:#181818;stroke-width:1;stroke-linejoin:miter;stroke-miterlimit:10;"/></g><?plantuml-src VL9RRiGW4Fld5Bd0tg0_gpwaVbGRDIUOfTuAQO286Qf6wk6R5fI5hT8_i3ssDJ2cE2FfCjnz7Gx3qMecfJDZhBYPoC-CGh-G8ZdYWfcncpsT1UbZTtQQIQ-Z7QCh8-fiQspnbXFQLYwyR_YjecJ_f_XrxWH74MWXHoQznEJDj8Z2DnD87LQQn6GUFs6pkXZk8pFipwdFkU9jKF7gOn2aDUnjRl6wYjLrjy4cQIhiYkkZxSd_Y8nb4XaUC7DSF89Me2ohiIZmAoJpfb7dCsUfroUGhkzmkZo7zLT1z1i0?></g></svg>