<svg xmlns="http://www.w3.org/2000/svg" xmlns:xlink="http://www.w3.org/1999/xlink" contentStyleType="text/css" data-diagram-type="CLASS" height="286px" preserveAspectRatio="none" style="width:3182px;height:286px;background:#FFFFFF;" version="1.1" viewBox="0 0 3182 286" width="3182px" zoomAndPan="magnify"><?plantuml 1.2026.5?><defs/><g><!--class Property--><g class="entity" data-qualified-name="Property" data-source-line="1" id="ent0001"><rect fill="#F1F1F1" height="48" rx="2.5" ry="2.5" style="stroke:#181818;stroke-width:0.5;" width="91.7939" x="535" y="7"/><ellipse cx="550" cy="23" fill="#ADD1B2" rx="11" ry="11" style="stroke:#181818;stroke-width:1;"/><path d="M552.9688,28.6406 Q552.3906,28.9375 551.75,29.0781 Q551.1094,29.2344 550.4063,29.2344 Q547.9063,29.2344 546.5781,27.5938 Q545.2656,25.9375 545.2656,22.8125 Q545.2656,19.6875 546.5781,18.0313 Q547.9063,16.375 550.4063,16.375 Q551.1094,16.375 551.75,16.5313 Q552.4063,16.6875 552.9688,16.9844 L552.9688,19.7031 Q552.3438,19.125 551.75,18.8594 Q551.1563,18.5781 550.5313,18.5781 Q549.1875,18.5781 548.5,19.6563 Q547.8125,20.7188 547.8125,22.8125 Q547.8125,24.9063 548.5,25.9844 Q549.1875,27.0469 550.5313,27.0469 Q551.1563,27.0469 551.75,26.7813 Q552.3438,26.5 552.9688,25.9219 L552.9688,28.6406 Z " fill="#000000"/><text fill="#000000" font-family="sans-serif" font-size="14" lengthAdjust="spacing" textLength="59.7939" x="564" y="27.8467">Property</text><line style="stroke:#181818;stroke-width:0.5;" x1="536" x2="625.7939" y1="39" y2="39"/><line style="stroke:#181818;stroke-width:0.5;" x1="536" x2="625.7939" y1="47" y2="47"/></g><!--class ActuatableProperty--><g class="entity" data-qualified-name="ActuatableProperty" data-source-line="1" id="ent0002"><rect fill="#F1F1F1" height="48" rx="2.5" ry="2.5" style="stroke:#181818;stroke-width:0.5;" width="167.4678" x="347.5" y="115"/><ellipse cx="362.5" cy="131" fill="#ADD1B2" rx="11" ry="11" style="stroke:#181818;stroke-width:1;"/><path d="M365.4688,136.6406 Q364.8906,136.9375 364.25,137.0781 Q363.6094,137.2344 362.9063,137.2344 Q360.4063,137.2344 359.0781,135.5938 Q357.7656,133.9375 357.7656,130.8125 Q357.7656,127.6875 359.0781,126.0313 Q360.4063,124.375 362.9063,124.375 Q363.6094,124.375 364.25,124.5313 Q364.9063,124.6875 365.4688,124.9844 L365.4688,127.7031 Q364.8438,127.125 364.25,126.8594 Q363.6563,126.5781 363.0313,126.5781 Q361.6875,126.5781 361,127.6563 Q360.3125,128.7188 360.3125,130.8125 Q360.3125,132.9063 361,133.9844 Q361.6875,135.0469 363.0313,135.0469 Q363.6563,135.0469 364.25,134.7813 Q364.8438,134.5 365.4688,133.9219 L365.4688,136.6406 Z " fill="#000000"/><text fill="#000000" font-family="sans-serif" font-size="14" lengthAdjust="spacing" textLength="135.4678" x="376.5" y="135.8467">ActuatableProperty</text><line style="stroke:#181818;stroke-width:0.5;" x1="348.5" x2="513.9678" y1="147" y2="147"/><line style="stroke:#181818;stroke-width:0.5;" x1="348.5" x2="513.9678" y1="155" y2="155"/></g><!--class Sample--><g class="entity" data-qualified-name="Sample" data-source-line="2" id="ent0004"><rect fill="#F1F1F1" height="48" rx="2.5" ry="2.5" style="stroke:#181818;stroke-width:0.5;" width="84.4932" x="958" y="7"/><ellipse cx="973" cy="23" fill="#ADD1B2" rx="11" ry="11" style="stroke:#181818;stroke-width:1;"/><path d="M975.9688,28.6406 Q975.3906,28.9375 974.75,29.0781 Q974.1094,29.2344 973.4063,29.2344 Q970.9063,29.2344 969.5781,27.5938 Q968.2656,25.9375 968.2656,22.8125 Q968.2656,19.6875 969.5781,18.0313 Q970.9063,16.375 973.4063,16.375 Q974.1094,16.375 974.75,16.5313 Q975.4063,16.6875 975.9688,16.9844 L975.9688,19.7031 Q975.3438,19.125 974.75,18.8594 Q974.1563,18.5781 973.5313,18.5781 Q972.1875,18.5781 971.5,19.6563 Q970.8125,20.7188 970.8125,22.8125 Q970.8125,24.9063 971.5,25.9844 Q972.1875,27.0469 973.5313,27.0469 Q974.1563,27.0469 974.75,26.7813 Q975.3438,26.5 975.9688,25.9219 L975.9688,28.6406 Z " fill="#000000"/><text fill="#000000" font-family="sans-serif" font-size="14" lengthAdjust="spacing" textLength="52.4932" x="987" y="27.8467">Sample</text><line style="stroke:#181818;stroke-width:0.5;" x1="959" x2="1041.4932" y1="39" y2="39"/><line style="stroke:#181818;stroke-width:0.5;" x1="959" x2="1041.4932" y1="47" y2="47"/></g><!--class MaterialSample--><g class="entity" data-qualified-name="MaterialSample" data-source-line="2" id="ent0005"><rect fill="#F1F1F1" height="48" rx="2.5" ry="2.5" style="stroke:#181818;stroke-width:0.5;" width="141.3682" x="757.5" y="115"/><ellipse cx="772.5" cy="131" fill="#ADD1B2" rx="11" ry="11" style="stroke:#181818;stroke-width:1;"/><path d="M775.4688,136.6406 Q774.8906,136.9375 774.25,137.0781 Q773.6094,137.2344 772.9063,137.2344 Q770.4063,137.2344 769.0781,135.5938 Q767.7656,133.9375 767.7656,130.8125 Q767.7656,127.6875 769.0781,126.0313 Q770.4063,124.375 772.9063,124.375 Q773.6094,124.375 774.25,124.5313 Q774.9063,124.6875 775.4688,124.9844 L775.4688,127.7031 Q774.8438,127.125 774.25,126.8594 Q773.6563,126.5781 773.0313,126.5781 Q771.6875,126.5781 771,127.6563 Q770.3125,128.7188 770.3125,130.8125 Q770.3125,132.9063 771,133.9844 Q771.6875,135.0469 773.0313,135.0469 Q773.6563,135.0469 774.25,134.7813 Q774.8438,134.5 775.4688,133.9219 L775.4688,136.6406 Z " fill="#000000"/><text fill="#000000" font-family="sans-serif" font-size="14" lengthAdjust="spacing" textLength="109.3682" x="786.5" y="135.8467">MaterialSample</text><line style="stroke:#181818;stroke-width:0.5;" x1="758.5" x2="897.8682" y1="147" y2="147"/><line style="stroke:#181818;stroke-width:0.5;" x1="758.5" x2="897.8682" y1="155" y2="155"/></g><!--class ObservableProperty--><g class="entity" data-qualified-name="ObservableProperty" data-source-line="3" id="ent0007"><rect fill="#F1F1F1" height="48" rx="2.5" ry="2.5" style="stroke:#181818;stroke-width:0.5;" width="171.6172" x="550" y="115"/><ellipse cx="565" cy="131" fill="#ADD1B2" rx="11" ry="11" style="stroke:#181818;stroke-width:1;"/><path d="M567.9688,136.6406 Q567.3906,136.9375 566.75,137.0781 Q566.1094,137.2344 565.4063,137.2344 Q562.9063,137.2344 561.5781,135.5938 Q560.2656,133.9375 560.2656,130.8125 Q560.2656,127.6875 561.5781,126.0313 Q562.9063,124.375 565.4063,124.375 Q566.1094,124.375 566.75,124.5313 Q567.4063,124.6875 567.9688,124.9844 L567.9688,127.7031 Q567.3438,127.125 566.75,126.8594 Q566.1563,126.5781 565.5313,126.5781 Q564.1875,126.5781 563.5,127.6563 Q562.8125,128.7188 562.8125,130.8125 Q562.8125,132.9063 563.5,133.9844 Q564.1875,135.0469 565.5313,135.0469 Q566.1563,135.0469 566.75,134.7813 Q567.3438,134.5 567.9688,133.9219 L567.9688,136.6406 Z " fill="#000000"/><text fill="#000000" font-family="sans-serif" font-size="14" lengthAdjust="spacing" textLength="139.6172" x="579" y="135.8467">ObservableProperty</text><line style="stroke:#181818;stroke-width:0.5;" x1="551" x2="720.6172" y1="147" y2="147"/><line style="stroke:#181818;stroke-width:0.5;" x1="551" x2="720.6172" y1="155" y2="155"/></g><!--class SpatialSample--><g class="entity" data-qualified-name="SpatialSample" data-source-line="4" id="ent0009"><rect fill="#F1F1F1" height="48" rx="2.5" ry="2.5" style="stroke:#181818;stroke-width:0.5;" width="132.6934" x="933.5" y="115"/><ellipse cx="948.5" cy="131" fill="#ADD1B2" rx="11" ry="11" style="stroke:#181818;stroke-width:1;"/><path d="M951.4688,136.6406 Q950.8906,136.9375 950.25,137.0781 Q949.6094,137.2344 948.9063,137.2344 Q946.4063,137.2344 945.0781,135.5938 Q943.7656,133.9375 943.7656,130.8125 Q943.7656,127.6875 945.0781,126.0313 Q946.4063,124.375 948.9063,124.375 Q949.6094,124.375 950.25,124.5313 Q950.9063,124.6875 951.4688,124.9844 L951.4688,127.7031 Q950.8438,127.125 950.25,126.8594 Q949.6563,126.5781 949.0313,126.5781 Q947.6875,126.5781 947,127.6563 Q946.3125,128.7188 946.3125,130.8125 Q946.3125,132.9063 947,133.9844 Q947.6875,135.0469 949.0313,135.0469 Q949.6563,135.0469 950.25,134.7813 Q950.8438,134.5 951.4688,133.9219 L951.4688,136.6406 Z " fill="#000000"/><text fill="#000000" font-family="sans-serif" font-size="14" lengthAdjust="spacing" textLength="100.6934" x="962.5" y="135.8467">SpatialSample</text><line style="stroke:#181818;stroke-width:0.5;" x1="934.5" x2="1065.1934" y1="147" y2="147"/><line style="stroke:#181818;stroke-width:0.5;" x1="934.5" x2="1065.1934" y1="155" y2="155"/></g><!--class StatisticalSample--><g class="entity" data-qualified-name="StatisticalSample" data-source-line="5" id="ent0011"><rect fill="#F1F1F1" height="48" rx="2.5" ry="2.5" style="stroke:#181818;stroke-width:0.5;" width="153.666" x="1102" y="115"/><ellipse cx="1117" cy="131" fill="#ADD1B2" rx="11" ry="11" style="stroke:#181818;stroke-width:1;"/><path d="M1119.9688,136.6406 Q1119.3906,136.9375 1118.75,137.0781 Q1118.1094,137.2344 1117.4063,137.2344 Q1114.9063,137.2344 1113.5781,135.5938 Q1112.2656,133.9375 1112.2656,130.8125 Q1112.2656,127.6875 1113.5781,126.0313 Q1114.9063,124.375 1117.4063,124.375 Q1118.1094,124.375 1118.75,124.5313 Q1119.4063,124.6875 1119.9688,124.9844 L1119.9688,127.7031 Q1119.3438,127.125 1118.75,126.8594 Q1118.1563,126.5781 1117.5313,126.5781 Q1116.1875,126.5781 1115.5,127.6563 Q1114.8125,128.7188 1114.8125,130.8125 Q1114.8125,132.9063 1115.5,133.9844 Q1116.1875,135.0469 1117.5313,135.0469 Q1118.1563,135.0469 1118.75,134.7813 Q1119.3438,134.5 1119.9688,133.9219 L1119.9688,136.6406 Z " fill="#000000"/><text fill="#000000" font-family="sans-serif" font-size="14" lengthAdjust="spacing" textLength="121.666" x="1131" y="135.8467">StatisticalSample</text><line style="stroke:#181818;stroke-width:0.5;" x1="1103" x2="1254.666" y1="147" y2="147"/><line style="stroke:#181818;stroke-width:0.5;" x1="1103" x2="1254.666" y1="155" y2="155"/></g><!--class Procedure--><g class="entity" data-qualified-name="Procedure" data-source-line="6" id="ent0013"><rect fill="#F1F1F1" height="48" rx="2.5" ry="2.5" style="stroke:#181818;stroke-width:0.5;" width="103.2031" x="1533.5" y="7"/><ellipse cx="1548.5" cy="23" fill="#ADD1B2" rx="11" ry="11" style="stroke:#181818;stroke-width:1;"/><path d="M1551.4688,28.6406 Q1550.8906,28.9375 1550.25,29.0781 Q1549.6094,29.2344 1548.9063,29.2344 Q1546.4063,29.2344 1545.0781,27.5938 Q1543.7656,25.9375 1543.7656,22.8125 Q1543.7656,19.6875 1545.0781,18.0313 Q1546.4063,16.375 1548.9063,16.375 Q1549.6094,16.375 1550.25,16.5313 Q1550.9063,16.6875 1551.4688,16.9844 L1551.4688,19.7031 Q1550.8438,19.125 1550.25,18.8594 Q1549.6563,18.5781 1549.0313,18.5781 Q1547.6875,18.5781 1547,19.6563 Q1546.3125,20.7188 1546.3125,22.8125 Q1546.3125,24.9063 1547,25.9844 Q1547.6875,27.0469 1549.0313,27.0469 Q1549.6563,27.0469 1550.25,26.7813 Q1550.8438,26.5 1551.4688,25.9219 L1551.4688,28.6406 Z " fill="#000000"/><text fill="#000000" font-family="sans-serif" font-size="14" lengthAdjust="spacing" textLength="71.2031" x="1562.5" y="27.8467">Procedure</text><line style="stroke:#181818;stroke-width:0.5;" x1="1534.5" x2="1635.7031" y1="39" y2="39"/><line style="stroke:#181818;stroke-width:0.5;" x1="1534.5" x2="1635.7031" y1="47" y2="47"/></g><!--class ActuatingProcedure--><g class="entity" data-qualified-name="ActuatingProcedure" data-source-line="6" id="ent0014"><rect fill="#F1F1F1" height="48" rx="2.5" ry="2.5" style="stroke:#181818;stroke-width:0.5;" width="170.5576" x="1291.5" y="115"/><ellipse cx="1306.5" cy="131" fill="#ADD1B2" rx="11" ry="11" style="stroke:#181818;stroke-width:1;"/><path d="M1309.4688,136.6406 Q1308.8906,136.9375 1308.25,137.0781 Q1307.6094,137.2344 1306.9063,137.2344 Q1304.4063,137.2344 1303.0781,135.5938 Q1301.7656,133.9375 1301.7656,130.8125 Q1301.7656,127.6875 1303.0781,126.0313 Q1304.4063,124.375 1306.9063,124.375 Q1307.6094,124.375 1308.25,124.5313 Q1308.9063,124.6875 1309.4688,124.9844 L1309.4688,127.7031 Q1308.8438,127.125 1308.25,126.8594 Q1307.6563,126.5781 1307.0313,126.5781 Q1305.6875,126.5781 1305,127.6563 Q1304.3125,128.7188 1304.3125,130.8125 Q1304.3125,132.9063 1305,133.9844 Q1305.6875,135.0469 1307.0313,135.0469 Q1307.6563,135.0469 1308.25,134.7813 Q1308.8438,134.5 1309.4688,133.9219 L1309.4688,136.6406 Z " fill="#000000"/><text fill="#000000" font-family="sans-serif" font-size="14" lengthAdjust="spacing" textLength="138.5576" x="1320.5" y="135.8467">ActuatingProcedure</text><line style="stroke:#181818;stroke-width:0.5;" x1="1292.5" x2="1461.0576" y1="147" y2="147"/><line style="stroke:#181818;stroke-width:0.5;" x1="1292.5" x2="1461.0576" y1="155" y2="155"/></g><!--class ObservingProcedure--><g class="entity" data-qualified-name="ObservingProcedure" data-source-line="7" id="ent0016"><rect fill="#F1F1F1" height="48" rx="2.5" ry="2.5" style="stroke:#181818;stroke-width:0.5;" width="174.707" x="1497.5" y="115"/><ellipse cx="1512.5" cy="131" fill="#ADD1B2" rx="11" ry="11" style="stroke:#181818;stroke-width:1;"/><path d="M1515.4688,136.6406 Q1514.8906,136.9375 1514.25,137.0781 Q1513.6094,137.2344 1512.9063,137.2344 Q1510.4063,137.2344 1509.0781,135.5938 Q1507.7656,133.9375 1507.7656,130.8125 Q1507.7656,127.6875 1509.0781,126.0313 Q1510.4063,124.375 1512.9063,124.375 Q1513.6094,124.375 1514.25,124.5313 Q1514.9063,124.6875 1515.4688,124.9844 L1515.4688,127.7031 Q1514.8438,127.125 1514.25,126.8594 Q1513.6563,126.5781 1513.0313,126.5781 Q1511.6875,126.5781 1511,127.6563 Q1510.3125,128.7188 1510.3125,130.8125 Q1510.3125,132.9063 1511,133.9844 Q1511.6875,135.0469 1513.0313,135.0469 Q1513.6563,135.0469 1514.25,134.7813 Q1514.8438,134.5 1515.4688,133.9219 L1515.4688,136.6406 Z " fill="#000000"/><text fill="#000000" font-family="sans-serif" font-size="14" lengthAdjust="spacing" textLength="142.707" x="1526.5" y="135.8467">ObservingProcedure</text><line style="stroke:#181818;stroke-width:0.5;" x1="1498.5" x2="1671.207" y1="147" y2="147"/><line style="stroke:#181818;stroke-width:0.5;" x1="1498.5" x2="1671.207" y1="155" y2="155"/></g><!--class SamplingProcedure--><g class="entity" data-qualified-name="SamplingProcedure" data-source-line="8" id="ent0018"><rect fill="#F1F1F1" height="48" rx="2.5" ry="2.5" style="stroke:#181818;stroke-width:0.5;" width="168.7324" x="1707.5" y="115"/><ellipse cx="1722.5" cy="131" fill="#ADD1B2" rx="11" ry="11" style="stroke:#181818;stroke-width:1;"/><path d="M1725.4688,136.6406 Q1724.8906,136.9375 1724.25,137.0781 Q1723.6094,137.2344 1722.9063,137.2344 Q1720.4063,137.2344 1719.0781,135.5938 Q1717.7656,133.9375 1717.7656,130.8125 Q1717.7656,127.6875 1719.0781,126.0313 Q1720.4063,124.375 1722.9063,124.375 Q1723.6094,124.375 1724.25,124.5313 Q1724.9063,124.6875 1725.4688,124.9844 L1725.4688,127.7031 Q1724.8438,127.125 1724.25,126.8594 Q1723.6563,126.5781 1723.0313,126.5781 Q1721.6875,126.5781 1721,127.6563 Q1720.3125,128.7188 1720.3125,130.8125 Q1720.3125,132.9063 1721,133.9844 Q1721.6875,135.0469 1723.0313,135.0469 Q1723.6563,135.0469 1724.25,134.7813 Q1724.8438,134.5 1725.4688,133.9219 L1725.4688,136.6406 Z " fill="#000000"/><text fill="#000000" font-family="sans-serif" font-size="14" lengthAdjust="spacing" textLength="136.7324" x="1736.5" y="135.8467">SamplingProcedure</text><line style="stroke:#181818;stroke-width:0.5;" x1="1708.5" x2="1875.2324" y1="147" y2="147"/><line style="stroke:#181818;stroke-width:0.5;" x1="1708.5" x2="1875.2324" y1="155" y2="155"/></g><!--class Asset--><g class="entity" data-qualified-name="Asset" data-source-line="9" id="ent0020"><rect fill="#F1F1F1" height="48" rx="2.5" ry="2.5" style="stroke:#181818;stroke-width:0.5;" width="70.2676" x="1983" y="7"/><ellipse cx="1998" cy="23" fill="#ADD1B2" rx="11" ry="11" style="stroke:#181818;stroke-width:1;"/><path d="M2000.9688,28.6406 Q2000.3906,28.9375 1999.75,29.0781 Q1999.1094,29.2344 1998.4063,29.2344 Q1995.9063,29.2344 1994.5781,27.5938 Q1993.2656,25.9375 1993.2656,22.8125 Q1993.2656,19.6875 1994.5781,18.0313 Q1995.9063,16.375 1998.4063,16.375 Q1999.1094,16.375 1999.75,16.5313 Q2000.4063,16.6875 2000.9688,16.9844 L2000.9688,19.7031 Q2000.3438,19.125 1999.75,18.8594 Q1999.1563,18.5781 1998.5313,18.5781 Q1997.1875,18.5781 1996.5,19.6563 Q1995.8125,20.7188 1995.8125,22.8125 Q1995.8125,24.9063 1996.5,25.9844 Q1997.1875,27.0469 1998.5313,27.0469 Q1999.1563,27.0469 1999.75,26.7813 Q2000.3438,26.5 2000.9688,25.9219 L2000.9688,28.6406 Z " fill="#000000"/><text fill="#000000" font-family="sans-serif" font-size="14" lengthAdjust="spacing" textLength="38.2676" x="2012" y="27.8467">Asset</text><line style="stroke:#181818;stroke-width:0.5;" x1="1984" x2="2052.2676" y1="39" y2="39"/><line style="stroke:#181818;stroke-width:0.5;" x1="1984" x2="2052.2676" y1="47" y2="47"/></g><!--class Platform--><g class="entity" data-qualified-name="Platform" data-source-line="9" id="ent0021"><rect fill="#F1F1F1" height="48" rx="2.5" ry="2.5" style="stroke:#181818;stroke-width:0.5;" width="91.2881" x="1911.5" y="115"/><ellipse cx="1926.5" cy="131" fill="#ADD1B2" rx="11" ry="11" style="stroke:#181818;stroke-width:1;"/><path d="M1929.4688,136.6406 Q1928.8906,136.9375 1928.25,137.0781 Q1927.6094,137.2344 1926.9063,137.2344 Q1924.4063,137.2344 1923.0781,135.5938 Q1921.7656,133.9375 1921.7656,130.8125 Q1921.7656,127.6875 1923.0781,126.0313 Q1924.4063,124.375 1926.9063,124.375 Q1927.6094,124.375 1928.25,124.5313 Q1928.9063,124.6875 1929.4688,124.9844 L1929.4688,127.7031 Q1928.8438,127.125 1928.25,126.8594 Q1927.6563,126.5781 1927.0313,126.5781 Q1925.6875,126.5781 1925,127.6563 Q1924.3125,128.7188 1924.3125,130.8125 Q1924.3125,132.9063 1925,133.9844 Q1925.6875,135.0469 1927.0313,135.0469 Q1927.6563,135.0469 1928.25,134.7813 Q1928.8438,134.5 1929.4688,133.9219 L1929.4688,136.6406 Z " fill="#000000"/><text fill="#000000" font-family="sans-serif" font-size="14" lengthAdjust="spacing" textLength="59.2881" x="1940.5" y="135.8467">Platform</text><line style="stroke:#181818;stroke-width:0.5;" x1="1912.5" x2="2001.7881" y1="147" y2="147"/><line style="stroke:#181818;stroke-width:0.5;" x1="1912.5" x2="2001.7881" y1="155" y2="155"/></g><!--class System--><g class="entity" data-qualified-name="System" data-source-line="10" id="ent0023"><rect fill="#F1F1F1" height="48" rx="2.5" ry="2.5" style="stroke:#181818;stroke-width:0.5;" width="84.2061" x="2038" y="115"/><ellipse cx="2053" cy="131" fill="#ADD1B2" rx="11" ry="11" style="stroke:#181818;stroke-width:1;"/><path d="M2055.9688,136.6406 Q2055.3906,136.9375 2054.75,137.0781 Q2054.1094,137.2344 2053.4063,137.2344 Q2050.9063,137.2344 2049.5781,135.5938 Q2048.2656,133.9375 2048.2656,130.8125 Q2048.2656,127.6875 2049.5781,126.0313 Q2050.9063,124.375 2053.4063,124.375 Q2054.1094,124.375 2054.75,124.5313 Q2055.4063,124.6875 2055.9688,124.9844 L2055.9688,127.7031 Q2055.3438,127.125 2054.75,126.8594 Q2054.1563,126.5781 2053.5313,126.5781 Q2052.1875,126.5781 2051.5,127.6563 Q2050.8125,128.7188 2050.8125,130.8125 Q2050.8125,132.9063 2051.5,133.9844 Q2052.1875,135.0469 2053.5313,135.0469 Q2054.1563,135.0469 2054.75,134.7813 Q2055.3438,134.5 2055.9688,133.9219 L2055.9688,136.6406 Z " fill="#000000"/><text fill="#000000" font-family="sans-serif" font-size="14" lengthAdjust="spacing" textLength="52.2061" x="2067" y="135.8467">System</text><line style="stroke:#181818;stroke-width:0.5;" x1="2039" x2="2121.2061" y1="147" y2="147"/><line style="stroke:#181818;stroke-width:0.5;" x1="2039" x2="2121.2061" y1="155" y2="155"/></g><!--class Sampler--><g class="entity" data-qualified-name="Sampler" data-source-line="10" id="ent0024"><rect fill="#F1F1F1" height="48" rx="2.5" ry="2.5" style="stroke:#181818;stroke-width:0.5;" width="90.249" x="1909" y="223"/><ellipse cx="1924" cy="239" fill="#ADD1B2" rx="11" ry="11" style="stroke:#181818;stroke-width:1;"/><path d="M1926.9688,244.6406 Q1926.3906,244.9375 1925.75,245.0781 Q1925.1094,245.2344 1924.4063,245.2344 Q1921.9063,245.2344 1920.5781,243.5938 Q1919.2656,241.9375 1919.2656,238.8125 Q1919.2656,235.6875 1920.5781,234.0313 Q1921.9063,232.375 1924.4063,232.375 Q1925.1094,232.375 1925.75,232.5313 Q1926.4063,232.6875 1926.9688,232.9844 L1926.9688,235.7031 Q1926.3438,235.125 1925.75,234.8594 Q1925.1563,234.5781 1924.5313,234.5781 Q1923.1875,234.5781 1922.5,235.6563 Q1921.8125,236.7188 1921.8125,238.8125 Q1921.8125,240.9063 1922.5,241.9844 Q1923.1875,243.0469 1924.5313,243.0469 Q1925.1563,243.0469 1925.75,242.7813 Q1926.3438,242.5 1926.9688,241.9219 L1926.9688,244.6406 Z " fill="#000000"/><text fill="#000000" font-family="sans-serif" font-size="14" lengthAdjust="spacing" textLength="58.249" x="1938" y="243.8467">Sampler</text><line style="stroke:#181818;stroke-width:0.5;" x1="1910" x2="1998.249" y1="255" y2="255"/><line style="stroke:#181818;stroke-width:0.5;" x1="1910" x2="1998.249" y1="263" y2="263"/></g><!--class Actuator--><g class="entity" data-qualified-name="Actuator" data-source-line="11" id="ent0026"><rect fill="#F1F1F1" height="48" rx="2.5" ry="2.5" style="stroke:#181818;stroke-width:0.5;" width="92.0264" x="2034" y="223"/><ellipse cx="2049" cy="239" fill="#ADD1B2" rx="11" ry="11" style="stroke:#181818;stroke-width:1;"/><path d="M2051.9688,244.6406 Q2051.3906,244.9375 2050.75,245.0781 Q2050.1094,245.2344 2049.4063,245.2344 Q2046.9063,245.2344 2045.5781,243.5938 Q2044.2656,241.9375 2044.2656,238.8125 Q2044.2656,235.6875 2045.5781,234.0313 Q2046.9063,232.375 2049.4063,232.375 Q2050.1094,232.375 2050.75,232.5313 Q2051.4063,232.6875 2051.9688,232.9844 L2051.9688,235.7031 Q2051.3438,235.125 2050.75,234.8594 Q2050.1563,234.5781 2049.5313,234.5781 Q2048.1875,234.5781 2047.5,235.6563 Q2046.8125,236.7188 2046.8125,238.8125 Q2046.8125,240.9063 2047.5,241.9844 Q2048.1875,243.0469 2049.5313,243.0469 Q2050.1563,243.0469 2050.75,242.7813 Q2051.3438,242.5 2051.9688,241.9219 L2051.9688,244.6406 Z " fill="#000000"/><text fill="#000000" font-family="sans-serif" font-size="14" lengthAdjust="spacing" textLength="60.0264" x="2063" y="243.8467">Actuator</text><line style="stroke:#181818;stroke-width:0.5;" x1="2035" x2="2125.0264" y1="255" y2="255"/><line style="stroke:#181818;stroke-width:0.5;" x1="2035" x2="2125.0264" y1="263" y2="263"/></g><!--class ExecutionCollection--><g class="entity" data-qualified-name="ExecutionCollection" data-source-line="12" id="ent0028"><rect fill="#F1F1F1" height="48" rx="2.5" ry="2.5" style="stroke:#181818;stroke-width:0.5;" width="170.3799" x="2358" y="7"/><ellipse cx="2373" cy="23" fill="#ADD1B2" rx="11" ry="11" style="stroke:#181818;stroke-width:1;"/><path d="M2375.9688,28.6406 Q2375.3906,28.9375 2374.75,29.0781 Q2374.1094,29.2344 2373.4063,29.2344 Q2370.9063,29.2344 2369.5781,27.5938 Q2368.2656,25.9375 2368.2656,22.8125 Q2368.2656,19.6875 2369.5781,18.0313 Q2370.9063,16.375 2373.4063,16.375 Q2374.1094,16.375 2374.75,16.5313 Q2375.4063,16.6875 2375.9688,16.9844 L2375.9688,19.7031 Q2375.3438,19.125 2374.75,18.8594 Q2374.1563,18.5781 2373.5313,18.5781 Q2372.1875,18.5781 2371.5,19.6563 Q2370.8125,20.7188 2370.8125,22.8125 Q2370.8125,24.9063 2371.5,25.9844 Q2372.1875,27.0469 2373.5313,27.0469 Q2374.1563,27.0469 2374.75,26.7813 Q2375.3438,26.5 2375.9688,25.9219 L2375.9688,28.6406 Z " fill="#000000"/><text fill="#000000" font-family="sans-serif" font-size="14" lengthAdjust="spacing" textLength="138.3799" x="2387" y="27.8467">ExecutionCollection</text><line style="stroke:#181818;stroke-width:0.5;" x1="2359" x2="2527.3799" y1="39" y2="39"/><line style="stroke:#181818;stroke-width:0.5;" x1="2359" x2="2527.3799" y1="47" y2="47"/></g><!--class SamplingCollection--><g class="entity" data-qualified-name="SamplingCollection" data-source-line="12" id="ent0029"><rect fill="#F1F1F1" height="48" rx="2.5" ry="2.5" style="stroke:#181818;stroke-width:0.5;" width="166.7773" x="2157.5" y="115"/><ellipse cx="2172.5" cy="131" fill="#ADD1B2" rx="11" ry="11" style="stroke:#181818;stroke-width:1;"/><path d="M2175.4688,136.6406 Q2174.8906,136.9375 2174.25,137.0781 Q2173.6094,137.2344 2172.9063,137.2344 Q2170.4063,137.2344 2169.0781,135.5938 Q2167.7656,133.9375 2167.7656,130.8125 Q2167.7656,127.6875 2169.0781,126.0313 Q2170.4063,124.375 2172.9063,124.375 Q2173.6094,124.375 2174.25,124.5313 Q2174.9063,124.6875 2175.4688,124.9844 L2175.4688,127.7031 Q2174.8438,127.125 2174.25,126.8594 Q2173.6563,126.5781 2173.0313,126.5781 Q2171.6875,126.5781 2171,127.6563 Q2170.3125,128.7188 2170.3125,130.8125 Q2170.3125,132.9063 2171,133.9844 Q2171.6875,135.0469 2173.0313,135.0469 Q2173.6563,135.0469 2174.25,134.7813 Q2174.8438,134.5 2175.4688,133.9219 L2175.4688,136.6406 Z " fill="#000000"/><text fill="#000000" font-family="sans-serif" font-size="14" lengthAdjust="spacing" textLength="134.7773" x="2186.5" y="135.8467">SamplingCollection</text><line style="stroke:#181818;stroke-width:0.5;" x1="2158.5" x2="2323.2773" y1="147" y2="147"/><line style="stroke:#181818;stroke-width:0.5;" x1="2158.5" x2="2323.2773" y1="155" y2="155"/></g><!--class Sensor--><g class="entity" data-qualified-name="Sensor" data-source-line="14" id="ent0032"><rect fill="#F1F1F1" height="48" rx="2.5" ry="2.5" style="stroke:#181818;stroke-width:0.5;" width="79.9883" x="2161" y="223"/><ellipse cx="2176" cy="239" fill="#ADD1B2" rx="11" ry="11" style="stroke:#181818;stroke-width:1;"/><path d="M2178.9688,244.6406 Q2178.3906,244.9375 2177.75,245.0781 Q2177.1094,245.2344 2176.4063,245.2344 Q2173.9063,245.2344 2172.5781,243.5938 Q2171.2656,241.9375 2171.2656,238.8125 Q2171.2656,235.6875 2172.5781,234.0313 Q2173.9063,232.375 2176.4063,232.375 Q2177.1094,232.375 2177.75,232.5313 Q2178.4063,232.6875 2178.9688,232.9844 L2178.9688,235.7031 Q2178.3438,235.125 2177.75,234.8594 Q2177.1563,234.5781 2176.5313,234.5781 Q2175.1875,234.5781 2174.5,235.6563 Q2173.8125,236.7188 2173.8125,238.8125 Q2173.8125,240.9063 2174.5,241.9844 Q2175.1875,243.0469 2176.5313,243.0469 Q2177.1563,243.0469 2177.75,242.7813 Q2178.3438,242.5 2178.9688,241.9219 L2178.9688,244.6406 Z " fill="#000000"/><text fill="#000000" font-family="sans-serif" font-size="14" lengthAdjust="spacing" textLength="47.9883" x="2190" y="243.8467">Sensor</text><line style="stroke:#181818;stroke-width:0.5;" x1="2162" x2="2239.9883" y1="255" y2="255"/><line style="stroke:#181818;stroke-width:0.5;" x1="2162" x2="2239.9883" y1="263" y2="263"/></g><!--class Execution--><g class="entity" data-qualified-name="Execution" data-source-line="15" id="ent0034"><rect fill="#F1F1F1" height="48" rx="2.5" ry="2.5" style="stroke:#181818;stroke-width:0.5;" width="101.1318" x="2915.5" y="7"/><ellipse cx="2930.5" cy="23" fill="#ADD1B2" rx="11" ry="11" style="stroke:#181818;stroke-width:1;"/><path d="M2933.4688,28.6406 Q2932.8906,28.9375 2932.25,29.0781 Q2931.6094,29.2344 2930.9063,29.2344 Q2928.4063,29.2344 2927.0781,27.5938 Q2925.7656,25.9375 2925.7656,22.8125 Q2925.7656,19.6875 2927.0781,18.0313 Q2928.4063,16.375 2930.9063,16.375 Q2931.6094,16.375 2932.25,16.5313 Q2932.9063,16.6875 2933.4688,16.9844 L2933.4688,19.7031 Q2932.8438,19.125 2932.25,18.8594 Q2931.6563,18.5781 2931.0313,18.5781 Q2929.6875,18.5781 2929,19.6563 Q2928.3125,20.7188 2928.3125,22.8125 Q2928.3125,24.9063 2929,25.9844 Q2929.6875,27.0469 2931.0313,27.0469 Q2931.6563,27.0469 2932.25,26.7813 Q2932.8438,26.5 2933.4688,25.9219 L2933.4688,28.6406 Z " fill="#000000"/><text fill="#000000" font-family="sans-serif" font-size="14" lengthAdjust="spacing" textLength="69.1318" x="2944.5" y="27.8467">Execution</text><line style="stroke:#181818;stroke-width:0.5;" x1="2916.5" x2="3015.6318" y1="39" y2="39"/><line style="stroke:#181818;stroke-width:0.5;" x1="2916.5" x2="3015.6318" y1="47" y2="47"/></g><!--class Sampling--><g class="entity" data-qualified-name="Sampling" data-source-line="15" id="ent0035"><rect fill="#F1F1F1" height="48" rx="2.5" ry="2.5" style="stroke:#181818;stroke-width:0.5;" width="97.5293" x="2783" y="115"/><ellipse cx="2798" cy="131" fill="#ADD1B2" rx="11" ry="11" style="stroke:#181818;stroke-width:1;"/><path d="M2800.9688,136.6406 Q2800.3906,136.9375 2799.75,137.0781 Q2799.1094,137.2344 2798.4063,137.2344 Q2795.9063,137.2344 2794.5781,135.5938 Q2793.2656,133.9375 2793.2656,130.8125 Q2793.2656,127.6875 2794.5781,126.0313 Q2795.9063,124.375 2798.4063,124.375 Q2799.1094,124.375 2799.75,124.5313 Q2800.4063,124.6875 2800.9688,124.9844 L2800.9688,127.7031 Q2800.3438,127.125 2799.75,126.8594 Q2799.1563,126.5781 2798.5313,126.5781 Q2797.1875,126.5781 2796.5,127.6563 Q2795.8125,128.7188 2795.8125,130.8125 Q2795.8125,132.9063 2796.5,133.9844 Q2797.1875,135.0469 2798.5313,135.0469 Q2799.1563,135.0469 2799.75,134.7813 Q2800.3438,134.5 2800.9688,133.9219 L2800.9688,136.6406 Z " fill="#000000"/><text fill="#000000" font-family="sans-serif" font-size="14" lengthAdjust="spacing" textLength="65.5293" x="2812" y="135.8467">Sampling</text><line style="stroke:#181818;stroke-width:0.5;" x1="2784" x2="2879.5293" y1="147" y2="147"/><line style="stroke:#181818;stroke-width:0.5;" x1="2784" x2="2879.5293" y1="155" y2="155"/></g><!--class Actuation--><g class="entity" data-qualified-name="Actuation" data-source-line="16" id="ent0037"><rect fill="#F1F1F1" height="48" rx="2.5" ry="2.5" style="stroke:#181818;stroke-width:0.5;" width="99.0332" x="2916.5" y="115"/><ellipse cx="2931.5" cy="131" fill="#ADD1B2" rx="11" ry="11" style="stroke:#181818;stroke-width:1;"/><path d="M2934.4688,136.6406 Q2933.8906,136.9375 2933.25,137.0781 Q2932.6094,137.2344 2931.9063,137.2344 Q2929.4063,137.2344 2928.0781,135.5938 Q2926.7656,133.9375 2926.7656,130.8125 Q2926.7656,127.6875 2928.0781,126.0313 Q2929.4063,124.375 2931.9063,124.375 Q2932.6094,124.375 2933.25,124.5313 Q2933.9063,124.6875 2934.4688,124.9844 L2934.4688,127.7031 Q2933.8438,127.125 2933.25,126.8594 Q2932.6563,126.5781 2932.0313,126.5781 Q2930.6875,126.5781 2930,127.6563 Q2929.3125,128.7188 2929.3125,130.8125 Q2929.3125,132.9063 2930,133.9844 Q2930.6875,135.0469 2932.0313,135.0469 Q2932.6563,135.0469 2933.25,134.7813 Q2933.8438,134.5 2934.4688,133.9219 L2934.4688,136.6406 Z " fill="#000000"/><text fill="#000000" font-family="sans-serif" font-size="14" lengthAdjust="spacing" textLength="67.0332" x="2945.5" y="135.8467">Actuation</text><line style="stroke:#181818;stroke-width:0.5;" x1="2917.5" x2="3014.5332" y1="147" y2="147"/><line style="stroke:#181818;stroke-width:0.5;" x1="2917.5" x2="3014.5332" y1="155" y2="155"/></g><!--class ActuationCollection--><g class="entity" data-qualified-name="ActuationCollection" data-source-line="17" id="ent0039"><rect fill="#F1F1F1" height="48" rx="2.5" ry="2.5" style="stroke:#181818;stroke-width:0.5;" width="168.2813" x="2359" y="115"/><ellipse cx="2374" cy="131" fill="#ADD1B2" rx="11" ry="11" style="stroke:#181818;stroke-width:1;"/><path d="M2376.9688,136.6406 Q2376.3906,136.9375 2375.75,137.0781 Q2375.1094,137.2344 2374.4063,137.2344 Q2371.9063,137.2344 2370.5781,135.5938 Q2369.2656,133.9375 2369.2656,130.8125 Q2369.2656,127.6875 2370.5781,126.0313 Q2371.9063,124.375 2374.4063,124.375 Q2375.1094,124.375 2375.75,124.5313 Q2376.4063,124.6875 2376.9688,124.9844 L2376.9688,127.7031 Q2376.3438,127.125 2375.75,126.8594 Q2375.1563,126.5781 2374.5313,126.5781 Q2373.1875,126.5781 2372.5,127.6563 Q2371.8125,128.7188 2371.8125,130.8125 Q2371.8125,132.9063 2372.5,133.9844 Q2373.1875,135.0469 2374.5313,135.0469 Q2375.1563,135.0469 2375.75,134.7813 Q2376.3438,134.5 2376.9688,133.9219 L2376.9688,136.6406 Z " fill="#000000"/><text fill="#000000" font-family="sans-serif" font-size="14" lengthAdjust="spacing" textLength="136.2813" x="2388" y="135.8467">ActuationCollection</text><line style="stroke:#181818;stroke-width:0.5;" x1="2360" x2="2526.2813" y1="147" y2="147"/><line style="stroke:#181818;stroke-width:0.5;" x1="2360" x2="2526.2813" y1="155" y2="155"/></g><!--class ObservationCollection--><g class="entity" data-qualified-name="ObservationCollection" data-source-line="18" id="ent0041"><rect fill="#F1F1F1" height="48" rx="2.5" ry="2.5" style="stroke:#181818;stroke-width:0.5;" width="186.499" x="2562" y="115"/><ellipse cx="2577" cy="131" fill="#ADD1B2" rx="11" ry="11" style="stroke:#181818;stroke-width:1;"/><path d="M2579.9688,136.6406 Q2579.3906,136.9375 2578.75,137.0781 Q2578.1094,137.2344 2577.4063,137.2344 Q2574.9063,137.2344 2573.5781,135.5938 Q2572.2656,133.9375 2572.2656,130.8125 Q2572.2656,127.6875 2573.5781,126.0313 Q2574.9063,124.375 2577.4063,124.375 Q2578.1094,124.375 2578.75,124.5313 Q2579.4063,124.6875 2579.9688,124.9844 L2579.9688,127.7031 Q2579.3438,127.125 2578.75,126.8594 Q2578.1563,126.5781 2577.5313,126.5781 Q2576.1875,126.5781 2575.5,127.6563 Q2574.8125,128.7188 2574.8125,130.8125 Q2574.8125,132.9063 2575.5,133.9844 Q2576.1875,135.0469 2577.5313,135.0469 Q2578.1563,135.0469 2578.75,134.7813 Q2579.3438,134.5 2579.9688,133.9219 L2579.9688,136.6406 Z " fill="#000000"/><text fill="#000000" font-family="sans-serif" font-size="14" lengthAdjust="spacing" textLength="154.499" x="2591" y="135.8467">ObservationCollection</text><line style="stroke:#181818;stroke-width:0.5;" x1="2563" x2="2747.499" y1="147" y2="147"/><line style="stroke:#181818;stroke-width:0.5;" x1="2563" x2="2747.499" y1="155" y2="155"/></g><!--class Observation--><g class="entity" data-qualified-name="Observation" data-source-line="19" id="ent0043"><rect fill="#F1F1F1" height="48" rx="2.5" ry="2.5" style="stroke:#181818;stroke-width:0.5;" width="117.251" x="3050.5" y="115"/><ellipse cx="3065.5" cy="131" fill="#ADD1B2" rx="11" ry="11" style="stroke:#181818;stroke-width:1;"/><path d="M3068.4688,136.6406 Q3067.8906,136.9375 3067.25,137.0781 Q3066.6094,137.2344 3065.9063,137.2344 Q3063.4063,137.2344 3062.0781,135.5938 Q3060.7656,133.9375 3060.7656,130.8125 Q3060.7656,127.6875 3062.0781,126.0313 Q3063.4063,124.375 3065.9063,124.375 Q3066.6094,124.375 3067.25,124.5313 Q3067.9063,124.6875 3068.4688,124.9844 L3068.4688,127.7031 Q3067.8438,127.125 3067.25,126.8594 Q3066.6563,126.5781 3066.0313,126.5781 Q3064.6875,126.5781 3064,127.6563 Q3063.3125,128.7188 3063.3125,130.8125 Q3063.3125,132.9063 3064,133.9844 Q3064.6875,135.0469 3066.0313,135.0469 Q3066.6563,135.0469 3067.25,134.7813 Q3067.8438,134.5 3068.4688,133.9219 L3068.4688,136.6406 Z " fill="#000000"/><text fill="#000000" font-family="sans-serif" font-size="14" lengthAdjust="spacing" textLength="85.251" x="3079.5" y="135.8467">Observation</text><line style="stroke:#181818;stroke-width:0.5;" x1="3051.5" x2="3166.751" y1="147" y2="147"/><line style="stroke:#181818;stroke-width:0.5;" x1="3051.5" x2="3166.751" y1="155" y2="155"/></g><!--class FeatureOfInterest--><g class="entity" data-qualified-name="FeatureOfInterest" data-source-line="20" id="ent0045"><rect fill="#F1F1F1" height="48" rx="2.5" ry="2.5" style="stroke:#181818;stroke-width:0.5;" width="156.1816" x="7" y="7"/><ellipse cx="22" cy="23" fill="#ADD1B2" rx="11" ry="11" style="stroke:#181818;stroke-width:1;"/><path d="M24.9688,28.6406 Q24.3906,28.9375 23.75,29.0781 Q23.1094,29.2344 22.4063,29.2344 Q19.9063,29.2344 18.5781,27.5938 Q17.2656,25.9375 17.2656,22.8125 Q17.2656,19.6875 18.5781,18.0313 Q19.9063,16.375 22.4063,16.375 Q23.1094,16.375 23.75,16.5313 Q24.4063,16.6875 24.9688,16.9844 L24.9688,19.7031 Q24.3438,19.125 23.75,18.8594 Q23.1563,18.5781 22.5313,18.5781 Q21.1875,18.5781 20.5,19.6563 Q19.8125,20.7188 19.8125,22.8125 Q19.8125,24.9063 20.5,25.9844 Q21.1875,27.0469 22.5313,27.0469 Q23.1563,27.0469 23.75,26.7813 Q24.3438,26.5 24.9688,25.9219 L24.9688,28.6406 Z " fill="#000000"/><text fill="#000000" font-family="sans-serif" font-size="14" lengthAdjust="spacing" textLength="124.1816" x="36" y="27.8467">FeatureOfInterest</text><line style="stroke:#181818;stroke-width:0.5;" x1="8" x2="162.1816" y1="39" y2="39"/><line style="stroke:#181818;stroke-width:0.5;" x1="8" x2="162.1816" y1="47" y2="47"/></g><!--class Stimulus--><g class="entity" data-qualified-name="Stimulus" data-source-line="21" id="ent0046"><rect fill="#F1F1F1" height="48" rx="2.5" ry="2.5" style="stroke:#181818;stroke-width:0.5;" width="92.833" x="198.5" y="7"/><ellipse cx="213.5" cy="23" fill="#ADD1B2" rx="11" ry="11" style="stroke:#181818;stroke-width:1;"/><path d="M216.4688,28.6406 Q215.8906,28.9375 215.25,29.0781 Q214.6094,29.2344 213.9063,29.2344 Q211.4063,29.2344 210.0781,27.5938 Q208.7656,25.9375 208.7656,22.8125 Q208.7656,19.6875 210.0781,18.0313 Q211.4063,16.375 213.9063,16.375 Q214.6094,16.375 215.25,16.5313 Q215.9063,16.6875 216.4688,16.9844 L216.4688,19.7031 Q215.8438,19.125 215.25,18.8594 Q214.6563,18.5781 214.0313,18.5781 Q212.6875,18.5781 212,19.6563 Q211.3125,20.7188 211.3125,22.8125 Q211.3125,24.9063 212,25.9844 Q212.6875,27.0469 214.0313,27.0469 Q214.6563,27.0469 215.25,26.7813 Q215.8438,26.5 216.4688,25.9219 L216.4688,28.6406 Z " fill="#000000"/><text fill="#000000" font-family="sans-serif" font-size="14" lengthAdjust="spacing" textLength="60.833" x="227.5" y="27.8467">Stimulus</text><line style="stroke:#181818;stroke-width:0.5;" x1="199.5" x2="290.333" y1="39" y2="39"/><line style="stroke:#181818;stroke-width:0.5;" x1="199.5" x2="290.333" y1="47" y2="47"/></g><!--class Deployment--><g class="entity" data-qualified-name="Deployment" data-source-line="22" id="ent0047"><rect fill="#F1F1F1" height="48" rx="2.5" ry="2.5" style="stroke:#181818;stroke-width:0.5;" width="117.6338" x="327" y="7"/><ellipse cx="342" cy="23" fill="#ADD1B2" rx="11" ry="11" style="stroke:#181818;stroke-width:1;"/><path d="M344.9688,28.6406 Q344.3906,28.9375 343.75,29.0781 Q343.1094,29.2344 342.4063,29.2344 Q339.9063,29.2344 338.5781,27.5938 Q337.2656,25.9375 337.2656,22.8125 Q337.2656,19.6875 338.5781,18.0313 Q339.9063,16.375 342.4063,16.375 Q343.1094,16.375 343.75,16.5313 Q344.4063,16.6875 344.9688,16.9844 L344.9688,19.7031 Q344.3438,19.125 343.75,18.8594 Q343.1563,18.5781 342.5313,18.5781 Q341.1875,18.5781 340.5,19.6563 Q339.8125,20.7188 339.8125,22.8125 Q339.8125,24.9063 340.5,25.9844 Q341.1875,27.0469 342.5313,27.0469 Q343.1563,27.0469 343.75,26.7813 Q344.3438,26.5 344.9688,25.9219 L344.9688,28.6406 Z " fill="#000000"/><text fill="#000000" font-family="sans-serif" font-size="14" lengthAdjust="spacing" textLength="85.6338" x="356" y="27.8467">Deployment</text><line style="stroke:#181818;stroke-width:0.5;" x1="328" x2="443.6338" y1="39" y2="39"/><line style="stroke:#181818;stroke-width:0.5;" x1="328" x2="443.6338" y1="47" y2="47"/></g><!--class Result--><g class="entity" data-qualified-name="Result" data-source-line="23" id="ent0048"><rect fill="#F1F1F1" height="48" rx="2.5" ry="2.5" style="stroke:#181818;stroke-width:0.5;" width="75.8867" x="47" y="115"/><ellipse cx="62" cy="131" fill="#ADD1B2" rx="11" ry="11" style="stroke:#181818;stroke-width:1;"/><path d="M64.9688,136.6406 Q64.3906,136.9375 63.75,137.0781 Q63.1094,137.2344 62.4063,137.2344 Q59.9063,137.2344 58.5781,135.5938 Q57.2656,133.9375 57.2656,130.8125 Q57.2656,127.6875 58.5781,126.0313 Q59.9063,124.375 62.4063,124.375 Q63.1094,124.375 63.75,124.5313 Q64.4063,124.6875 64.9688,124.9844 L64.9688,127.7031 Q64.3438,127.125 63.75,126.8594 Q63.1563,126.5781 62.5313,126.5781 Q61.1875,126.5781 60.5,127.6563 Q59.8125,128.7188 59.8125,130.8125 Q59.8125,132.9063 60.5,133.9844 Q61.1875,135.0469 62.5313,135.0469 Q63.1563,135.0469 63.75,134.7813 Q64.3438,134.5 64.9688,133.9219 L64.9688,136.6406 Z " fill="#000000"/><text fill="#000000" font-family="sans-serif" font-size="14" lengthAdjust="spacing" textLength="43.8867" x="76" y="135.8467">Result</text><line style="stroke:#181818;stroke-width:0.5;" x1="48" x2="121.8867" y1="147" y2="147"/><line style="stroke:#181818;stroke-width:0.5;" x1="48" x2="121.8867" y1="155" y2="155"/></g><!--class SampleCollection--><g class="entity" data-qualified-name="SampleCollection" data-source-line="24" id="ent0049"><rect fill="#F1F1F1" height="48" rx="2.5" ry="2.5" style="stroke:#181818;stroke-width:0.5;" width="153.7412" x="158" y="115"/><ellipse cx="173" cy="131" fill="#ADD1B2" rx="11" ry="11" style="stroke:#181818;stroke-width:1;"/><path d="M175.9688,136.6406 Q175.3906,136.9375 174.75,137.0781 Q174.1094,137.2344 173.4063,137.2344 Q170.9063,137.2344 169.5781,135.5938 Q168.2656,133.9375 168.2656,130.8125 Q168.2656,127.6875 169.5781,126.0313 Q170.9063,124.375 173.4063,124.375 Q174.1094,124.375 174.75,124.5313 Q175.4063,124.6875 175.9688,124.9844 L175.9688,127.7031 Q175.3438,127.125 174.75,126.8594 Q174.1563,126.5781 173.5313,126.5781 Q172.1875,126.5781 171.5,127.6563 Q170.8125,128.7188 170.8125,130.8125 Q170.8125,132.9063 171.5,133.9844 Q172.1875,135.0469 173.5313,135.0469 Q174.1563,135.0469 174.75,134.7813 Q175.3438,134.5 175.9688,133.9219 L175.9688,136.6406 Z " fill="#000000"/><text fill="#000000" font-family="sans-serif" font-size="14" lengthAdjust="spacing" textLength="121.7412" x="187" y="135.8467">SampleCollection</text><line style="stroke:#181818;stroke-width:0.5;" x1="159" x2="310.7412" y1="147" y2="147"/><line style="stroke:#181818;stroke-width:0.5;" x1="159" x2="310.7412" y1="155" y2="155"/></g><!--reverse link Property to ActuatableProperty--><g class="link" data-entity-1="ent0001" data-entity-2="ent0002" data-link-type="extension" data-source-line="1" id="lnk3"><path codeLine="1" d="M533.7511,65.3895 C508.6811,83.1095 488.87,97.11 463.74,114.86" fill="none" id="Property-backto-ActuatableProperty" style="stroke:#181818;stroke-width:1;"/><polygon fill="none" points="548.45,55,530.2879,60.4899,537.2142,70.2891,548.45,55" style="stroke:#181818;stroke-width:1;stroke-linejoin:miter;stroke-miterlimit:10;"/></g><!--reverse link Sample to MaterialSample--><g class="link" data-entity-1="ent0004" data-entity-2="ent0005" data-link-type="extension" data-source-line="2" id="lnk6"><path codeLine="2" d="M947.3567,64.4445 C918.6067,82.1645 894.35,97.11 865.55,114.86" fill="none" id="Sample-backto-MaterialSample" style="stroke:#181818;stroke-width:1;"/><polygon fill="none" points="962.68,55,944.2086,59.3367,950.5049,69.5522,962.68,55" style="stroke:#181818;stroke-width:1;stroke-linejoin:miter;stroke-miterlimit:10;"/></g><!--reverse link Property to ObservableProperty--><g class="link" data-entity-1="ent0001" data-entity-2="ent0007" data-link-type="extension" data-source-line="3" id="lnk8"><path codeLine="3" d="M601.2249,70.9748 C610.3949,88.6348 614.7,96.94 623.9,114.68" fill="none" id="Property-backto-ObservableProperty" style="stroke:#181818;stroke-width:1;"/><polygon fill="none" points="592.93,55,595.9,73.7398,606.5499,68.2098,592.93,55" style="stroke:#181818;stroke-width:1;stroke-linejoin:miter;stroke-miterlimit:10;"/></g><!--reverse link Sample to SpatialSample--><g class="link" data-entity-1="ent0004" data-entity-2="ent0009" data-link-type="extension" data-source-line="4" id="lnk10"><path codeLine="4" d="M1000,73 C1000,90.66 1000,96.94 1000,114.68" fill="none" id="Sample-backto-SpatialSample" style="stroke:#181818;stroke-width:1;"/><polygon fill="none" points="1000,55,994,73,1006,73,1000,55" style="stroke:#181818;stroke-width:1;stroke-linejoin:miter;stroke-miterlimit:10;"/></g><!--reverse link Sample to StatisticalSample--><g class="link" data-entity-1="ent0004" data-entity-2="ent0011" data-link-type="extension" data-source-line="5" id="lnk12"><path codeLine="5" d="M1054.3276,64.1725 C1084.2476,81.8925 1109.95,97.11 1139.93,114.86" fill="none" id="Sample-backto-StatisticalSample" style="stroke:#181818;stroke-width:1;"/><polygon fill="none" points="1038.84,55,1051.2701,69.335,1057.3851,59.0099,1038.84,55" style="stroke:#181818;stroke-width:1;stroke-linejoin:miter;stroke-miterlimit:10;"/></g><!--reverse link Procedure to ActuatingProcedure--><g class="link" data-entity-1="ent0013" data-entity-2="ent0014" data-link-type="extension" data-source-line="6" id="lnk15"><path codeLine="6" d="M1523.8326,63.1732 C1489.0626,80.8932 1457.24,97.11 1422.4,114.86" fill="none" id="Procedure-backto-ActuatingProcedure" style="stroke:#181818;stroke-width:1;"/><polygon fill="none" points="1539.87,55,1521.1082,57.8274,1526.557,68.519,1539.87,55" style="stroke:#181818;stroke-width:1;stroke-linejoin:miter;stroke-miterlimit:10;"/></g><!--reverse link Procedure to ObservingProcedure--><g class="link" data-entity-1="ent0013" data-entity-2="ent0016" data-link-type="extension" data-source-line="7" id="lnk17"><path codeLine="7" d="M1585,73 C1585,90.66 1585,96.94 1585,114.68" fill="none" id="Procedure-backto-ObservingProcedure" style="stroke:#181818;stroke-width:1;"/><polygon fill="none" points="1585,55,1579,73,1591,73,1585,55" style="stroke:#181818;stroke-width:1;stroke-linejoin:miter;stroke-miterlimit:10;"/></g><!--reverse link Procedure to SamplingProcedure--><g class="link" data-entity-1="ent0013" data-entity-2="ent0018" data-link-type="extension" data-source-line="8" id="lnk19"><path codeLine="8" d="M1645.9411,63.205 C1680.5411,80.925 1712.15,97.11 1746.81,114.86" fill="none" id="Procedure-backto-SamplingProcedure" style="stroke:#181818;stroke-width:1;"/><polygon fill="none" points="1629.92,55,1643.2061,68.5454,1648.6762,57.8647,1629.92,55" style="stroke:#181818;stroke-width:1;stroke-linejoin:miter;stroke-miterlimit:10;"/></g><!--reverse link Asset to Platform--><g class="link" data-entity-1="ent0020" data-entity-2="ent0021" data-link-type="extension" data-source-line="9" id="lnk22"><path codeLine="9" d="M1995.7839,70.6022 C1985.6239,88.2622 1980.63,96.94 1970.42,114.68" fill="none" id="Asset-backto-Platform" style="stroke:#181818;stroke-width:1;"/><polygon fill="none" points="2004.76,55,1990.5831,67.6102,2000.9846,73.5943,2004.76,55" style="stroke:#181818;stroke-width:1;stroke-linejoin:miter;stroke-miterlimit:10;"/></g><!--reverse link System to Sampler--><g class="link" data-entity-1="ent0023" data-entity-2="ent0024" data-link-type="extension" data-source-line="10" id="lnk25"><path codeLine="10" d="M2038.8865,174.5884 C2017.8965,192.2484 2002.81,204.94 1981.72,222.68" fill="none" id="System-backto-Sampler" style="stroke:#181818;stroke-width:1;"/><polygon fill="none" points="2052.66,163,2035.0237,169.9972,2042.7493,179.1795,2052.66,163" style="stroke:#181818;stroke-width:1;stroke-linejoin:miter;stroke-miterlimit:10;"/></g><!--reverse link System to Actuator--><g class="link" data-entity-1="ent0023" data-entity-2="ent0026" data-link-type="extension" data-source-line="11" id="lnk27"><path codeLine="11" d="M2080,181 C2080,198.66 2080,204.94 2080,222.68" fill="none" id="System-backto-Actuator" style="stroke:#181818;stroke-width:1;"/><polygon fill="none" points="2080,163,2074,181,2086,181,2080,163" style="stroke:#181818;stroke-width:1;stroke-linejoin:miter;stroke-miterlimit:10;"/></g><!--reverse link ExecutionCollection to SamplingCollection--><g class="link" data-entity-1="ent0028" data-entity-2="ent0029" data-link-type="extension" data-source-line="12" id="lnk30"><path codeLine="12" d="M2383.231,63.3636 C2349.461,81.0836 2318.93,97.11 2285.09,114.86" fill="none" id="ExecutionCollection-backto-SamplingCollection" style="stroke:#181818;stroke-width:1;"/><polygon fill="none" points="2399.17,55,2380.4432,58.0506,2386.0189,68.6766,2399.17,55" style="stroke:#181818;stroke-width:1;stroke-linejoin:miter;stroke-miterlimit:10;"/></g><!--reverse link Asset to System--><g class="link" data-entity-1="ent0020" data-entity-2="ent0023" data-link-type="extension" data-source-line="13" id="lnk31"><path codeLine="13" d="M2040.5383,70.5372 C2050.8683,88.1972 2055.98,96.94 2066.36,114.68" fill="none" id="Asset-backto-System" style="stroke:#181818;stroke-width:1;"/><polygon fill="none" points="2031.45,55,2035.3592,73.5666,2045.7173,67.5077,2031.45,55" style="stroke:#181818;stroke-width:1;stroke-linejoin:miter;stroke-miterlimit:10;"/></g><!--reverse link System to Sensor--><g class="link" data-entity-1="ent0023" data-entity-2="ent0032" data-link-type="extension" data-source-line="14" id="lnk33"><path codeLine="14" d="M2119.7968,174.864 C2139.9468,192.524 2154.13,204.94 2174.38,222.68" fill="none" id="System-backto-Sensor" style="stroke:#181818;stroke-width:1;"/><polygon fill="none" points="2106.26,163,2115.8421,179.3763,2123.7515,170.3518,2106.26,163" style="stroke:#181818;stroke-width:1;stroke-linejoin:miter;stroke-miterlimit:10;"/></g><!--reverse link Execution to Sampling--><g class="link" data-entity-1="ent0034" data-entity-2="ent0035" data-link-type="extension" data-source-line="15" id="lnk36"><path codeLine="15" d="M2922.8041,66.1688 C2900.4841,83.8288 2883.91,96.94 2861.48,114.68" fill="none" id="Execution-backto-Sampling" style="stroke:#181818;stroke-width:1;"/><polygon fill="none" points="2936.92,55,2919.0812,61.4635,2926.527,70.8741,2936.92,55" style="stroke:#181818;stroke-width:1;stroke-linejoin:miter;stroke-miterlimit:10;"/></g><!--reverse link Execution to Actuation--><g class="link" data-entity-1="ent0034" data-entity-2="ent0037" data-link-type="extension" data-source-line="16" id="lnk38"><path codeLine="16" d="M2966,73 C2966,90.66 2966,96.94 2966,114.68" fill="none" id="Execution-backto-Actuation" style="stroke:#181818;stroke-width:1;"/><polygon fill="none" points="2966,55,2960,73,2972,73,2966,55" style="stroke:#181818;stroke-width:1;stroke-linejoin:miter;stroke-miterlimit:10;"/></g><!--reverse link ExecutionCollection to ActuationCollection--><g class="link" data-entity-1="ent0028" data-entity-2="ent0039" data-link-type="extension" data-source-line="17" id="lnk40"><path codeLine="17" d="M2443,73 C2443,90.66 2443,96.94 2443,114.68" fill="none" id="ExecutionCollection-backto-ActuationCollection" style="stroke:#181818;stroke-width:1;"/><polygon fill="none" points="2443,55,2437,73,2449,73,2443,55" style="stroke:#181818;stroke-width:1;stroke-linejoin:miter;stroke-miterlimit:10;"/></g><!--reverse link ExecutionCollection to ObservationCollection--><g class="link" data-entity-1="ent0028" data-entity-2="ent0041" data-link-type="extension" data-source-line="18" id="lnk42"><path codeLine="18" d="M2505.0997,63.0498 C2540.5397,80.7698 2573.22,97.11 2608.72,114.86" fill="none" id="ExecutionCollection-backto-ObservationCollection" style="stroke:#181818;stroke-width:1;"/><polygon fill="none" points="2489,55,2502.4164,68.4164,2507.783,57.6833,2489,55" style="stroke:#181818;stroke-width:1;stroke-linejoin:miter;stroke-miterlimit:10;"/></g><!--reverse link Execution to Observation--><g class="link" data-entity-1="ent0034" data-entity-2="ent0043" data-link-type="extension" data-source-line="19" id="lnk44"><path codeLine="19" d="M3011.4895,65.7202 C3035.3095,83.3802 3053.61,96.94 3077.54,114.68" fill="none" id="Execution-backto-Observation" style="stroke:#181818;stroke-width:1;"/><polygon fill="none" points="2997.03,55,3007.9161,70.54,3015.0629,60.9004,2997.03,55" style="stroke:#181818;stroke-width:1;stroke-linejoin:miter;stroke-miterlimit:10;"/></g><?plantuml-src VL91RiCW4Bpp2dyWF-WbQXkfXoXM_G929XNI0XQxLBNKnzSDr8P4xWrcPcT62tqC8w9CtTFtRjVjZIGj-ape2wu6xKP2fezQ4AscZAc-cJsT6V5pStOOjQoZ3ICpms9DRMnmIH5rA-i_5lnUaRF_KzoS6y6U6PB9dhHSGtHgc5ZWgWd41ijDGbIlNp19RF3FWGZczzJch7WTbBtQ67Yk3LkRUxoiOdRTRB18gWgRul9eM_87aJAacRi3jCmxF5tV_FmZm5BmGQnBbBXSNp1Ic1py7_yEJhI8RmjUOty0?></g></svg>