<svg xmlns="http://www.w3.org/2000/svg" xmlns:xlink="http://www.w3.org/1999/xlink" contentStyleType="text/css" data-diagram-type="CLASS" height="286px" preserveAspectRatio="none" style="width:3209px;height:286px;background:#FFFFFF;" version="1.1" viewBox="0 0 3209 286" width="3209px" zoomAndPan="magnify"><?plantuml 1.2026.4?><defs/><g><!--class Property--><g class="entity" data-qualified-name="Property" data-source-line="1" id="ent0001"><rect fill="#F1F1F1" height="48" rx="2.5" ry="2.5" style="stroke:#181818;stroke-width:0.5;" width="91.7939" x="564" y="7"/><ellipse cx="579" cy="23" fill="#ADD1B2" rx="11" ry="11" style="stroke:#181818;stroke-width:1;"/><path d="M581.9688,28.6406 Q581.3906,28.9375 580.75,29.0781 Q580.1094,29.2344 579.4063,29.2344 Q576.9063,29.2344 575.5781,27.5938 Q574.2656,25.9375 574.2656,22.8125 Q574.2656,19.6875 575.5781,18.0313 Q576.9063,16.375 579.4063,16.375 Q580.1094,16.375 580.75,16.5313 Q581.4063,16.6875 581.9688,16.9844 L581.9688,19.7031 Q581.3438,19.125 580.75,18.8594 Q580.1563,18.5781 579.5313,18.5781 Q578.1875,18.5781 577.5,19.6563 Q576.8125,20.7188 576.8125,22.8125 Q576.8125,24.9063 577.5,25.9844 Q578.1875,27.0469 579.5313,27.0469 Q580.1563,27.0469 580.75,26.7813 Q581.3438,26.5 581.9688,25.9219 L581.9688,28.6406 Z " fill="#000000"/><text fill="#000000" font-family="sans-serif" font-size="14" lengthAdjust="spacing" textLength="59.7939" x="593" y="27.8467">Property</text><line style="stroke:#181818;stroke-width:0.5;" x1="565" x2="654.7939" y1="39" y2="39"/><line style="stroke:#181818;stroke-width:0.5;" x1="565" x2="654.7939" y1="47" y2="47"/></g><!--class ActuatableProperty--><g class="entity" data-qualified-name="ActuatableProperty" data-source-line="1" id="ent0002"><rect fill="#F1F1F1" height="48" rx="2.5" ry="2.5" style="stroke:#181818;stroke-width:0.5;" width="167.4678" x="374.5" y="115"/><ellipse cx="389.5" cy="131" fill="#ADD1B2" rx="11" ry="11" style="stroke:#181818;stroke-width:1;"/><path d="M392.4688,136.6406 Q391.8906,136.9375 391.25,137.0781 Q390.6094,137.2344 389.9063,137.2344 Q387.4063,137.2344 386.0781,135.5938 Q384.7656,133.9375 384.7656,130.8125 Q384.7656,127.6875 386.0781,126.0313 Q387.4063,124.375 389.9063,124.375 Q390.6094,124.375 391.25,124.5313 Q391.9063,124.6875 392.4688,124.9844 L392.4688,127.7031 Q391.8438,127.125 391.25,126.8594 Q390.6563,126.5781 390.0313,126.5781 Q388.6875,126.5781 388,127.6563 Q387.3125,128.7188 387.3125,130.8125 Q387.3125,132.9063 388,133.9844 Q388.6875,135.0469 390.0313,135.0469 Q390.6563,135.0469 391.25,134.7813 Q391.8438,134.5 392.4688,133.9219 L392.4688,136.6406 Z " fill="#000000"/><text fill="#000000" font-family="sans-serif" font-size="14" lengthAdjust="spacing" textLength="135.4678" x="403.5" y="135.8467">ActuatableProperty</text><line style="stroke:#181818;stroke-width:0.5;" x1="375.5" x2="540.9678" y1="147" y2="147"/><line style="stroke:#181818;stroke-width:0.5;" x1="375.5" x2="540.9678" y1="155" y2="155"/></g><!--class Sample--><g class="entity" data-qualified-name="Sample" data-source-line="2" id="ent0004"><rect fill="#F1F1F1" height="48" rx="2.5" ry="2.5" style="stroke:#181818;stroke-width:0.5;" width="84.4932" x="985" y="7"/><ellipse cx="1000" cy="23" fill="#ADD1B2" rx="11" ry="11" style="stroke:#181818;stroke-width:1;"/><path d="M1002.9688,28.6406 Q1002.3906,28.9375 1001.75,29.0781 Q1001.1094,29.2344 1000.4063,29.2344 Q997.9063,29.2344 996.5781,27.5938 Q995.2656,25.9375 995.2656,22.8125 Q995.2656,19.6875 996.5781,18.0313 Q997.9063,16.375 1000.4063,16.375 Q1001.1094,16.375 1001.75,16.5313 Q1002.4063,16.6875 1002.9688,16.9844 L1002.9688,19.7031 Q1002.3438,19.125 1001.75,18.8594 Q1001.1563,18.5781 1000.5313,18.5781 Q999.1875,18.5781 998.5,19.6563 Q997.8125,20.7188 997.8125,22.8125 Q997.8125,24.9063 998.5,25.9844 Q999.1875,27.0469 1000.5313,27.0469 Q1001.1563,27.0469 1001.75,26.7813 Q1002.3438,26.5 1002.9688,25.9219 L1002.9688,28.6406 Z " fill="#000000"/><text fill="#000000" font-family="sans-serif" font-size="14" lengthAdjust="spacing" textLength="52.4932" x="1014" y="27.8467">Sample</text><line style="stroke:#181818;stroke-width:0.5;" x1="986" x2="1068.4932" y1="39" y2="39"/><line style="stroke:#181818;stroke-width:0.5;" x1="986" x2="1068.4932" y1="47" y2="47"/></g><!--class MaterialSample--><g class="entity" data-qualified-name="MaterialSample" data-source-line="2" id="ent0005"><rect fill="#F1F1F1" height="48" rx="2.5" ry="2.5" style="stroke:#181818;stroke-width:0.5;" width="141.3682" x="784.5" y="115"/><ellipse cx="799.5" cy="131" fill="#ADD1B2" rx="11" ry="11" style="stroke:#181818;stroke-width:1;"/><path d="M802.4688,136.6406 Q801.8906,136.9375 801.25,137.0781 Q800.6094,137.2344 799.9063,137.2344 Q797.4063,137.2344 796.0781,135.5938 Q794.7656,133.9375 794.7656,130.8125 Q794.7656,127.6875 796.0781,126.0313 Q797.4063,124.375 799.9063,124.375 Q800.6094,124.375 801.25,124.5313 Q801.9063,124.6875 802.4688,124.9844 L802.4688,127.7031 Q801.8438,127.125 801.25,126.8594 Q800.6563,126.5781 800.0313,126.5781 Q798.6875,126.5781 798,127.6563 Q797.3125,128.7188 797.3125,130.8125 Q797.3125,132.9063 798,133.9844 Q798.6875,135.0469 800.0313,135.0469 Q800.6563,135.0469 801.25,134.7813 Q801.8438,134.5 802.4688,133.9219 L802.4688,136.6406 Z " fill="#000000"/><text fill="#000000" font-family="sans-serif" font-size="14" lengthAdjust="spacing" textLength="109.3682" x="813.5" y="135.8467">MaterialSample</text><line style="stroke:#181818;stroke-width:0.5;" x1="785.5" x2="924.8682" y1="147" y2="147"/><line style="stroke:#181818;stroke-width:0.5;" x1="785.5" x2="924.8682" y1="155" y2="155"/></g><!--class SpatialSample--><g class="entity" data-qualified-name="SpatialSample" data-source-line="3" id="ent0007"><rect fill="#F1F1F1" height="48" rx="2.5" ry="2.5" style="stroke:#181818;stroke-width:0.5;" width="132.6934" x="960.5" y="115"/><ellipse cx="975.5" cy="131" fill="#ADD1B2" rx="11" ry="11" style="stroke:#181818;stroke-width:1;"/><path d="M978.4688,136.6406 Q977.8906,136.9375 977.25,137.0781 Q976.6094,137.2344 975.9063,137.2344 Q973.4063,137.2344 972.0781,135.5938 Q970.7656,133.9375 970.7656,130.8125 Q970.7656,127.6875 972.0781,126.0313 Q973.4063,124.375 975.9063,124.375 Q976.6094,124.375 977.25,124.5313 Q977.9063,124.6875 978.4688,124.9844 L978.4688,127.7031 Q977.8438,127.125 977.25,126.8594 Q976.6563,126.5781 976.0313,126.5781 Q974.6875,126.5781 974,127.6563 Q973.3125,128.7188 973.3125,130.8125 Q973.3125,132.9063 974,133.9844 Q974.6875,135.0469 976.0313,135.0469 Q976.6563,135.0469 977.25,134.7813 Q977.8438,134.5 978.4688,133.9219 L978.4688,136.6406 Z " fill="#000000"/><text fill="#000000" font-family="sans-serif" font-size="14" lengthAdjust="spacing" textLength="100.6934" x="989.5" y="135.8467">SpatialSample</text><line style="stroke:#181818;stroke-width:0.5;" x1="961.5" x2="1092.1934" y1="147" y2="147"/><line style="stroke:#181818;stroke-width:0.5;" x1="961.5" x2="1092.1934" y1="155" y2="155"/></g><!--class StatisticalSample--><g class="entity" data-qualified-name="StatisticalSample" data-source-line="4" id="ent0009"><rect fill="#F1F1F1" height="48" rx="2.5" ry="2.5" style="stroke:#181818;stroke-width:0.5;" width="153.666" x="1129" y="115"/><ellipse cx="1144" cy="131" fill="#ADD1B2" rx="11" ry="11" style="stroke:#181818;stroke-width:1;"/><path d="M1146.9688,136.6406 Q1146.3906,136.9375 1145.75,137.0781 Q1145.1094,137.2344 1144.4063,137.2344 Q1141.9063,137.2344 1140.5781,135.5938 Q1139.2656,133.9375 1139.2656,130.8125 Q1139.2656,127.6875 1140.5781,126.0313 Q1141.9063,124.375 1144.4063,124.375 Q1145.1094,124.375 1145.75,124.5313 Q1146.4063,124.6875 1146.9688,124.9844 L1146.9688,127.7031 Q1146.3438,127.125 1145.75,126.8594 Q1145.1563,126.5781 1144.5313,126.5781 Q1143.1875,126.5781 1142.5,127.6563 Q1141.8125,128.7188 1141.8125,130.8125 Q1141.8125,132.9063 1142.5,133.9844 Q1143.1875,135.0469 1144.5313,135.0469 Q1145.1563,135.0469 1145.75,134.7813 Q1146.3438,134.5 1146.9688,133.9219 L1146.9688,136.6406 Z " fill="#000000"/><text fill="#000000" font-family="sans-serif" font-size="14" lengthAdjust="spacing" textLength="121.666" x="1158" y="135.8467">StatisticalSample</text><line style="stroke:#181818;stroke-width:0.5;" x1="1130" x2="1281.666" y1="147" y2="147"/><line style="stroke:#181818;stroke-width:0.5;" x1="1130" x2="1281.666" y1="155" y2="155"/></g><!--class ObservableProperty--><g class="entity" data-qualified-name="ObservableProperty" data-source-line="5" id="ent0011"><rect fill="#F1F1F1" height="48" rx="2.5" ry="2.5" style="stroke:#181818;stroke-width:0.5;" width="171.6172" x="577" y="115"/><ellipse cx="592" cy="131" fill="#ADD1B2" rx="11" ry="11" style="stroke:#181818;stroke-width:1;"/><path d="M594.9688,136.6406 Q594.3906,136.9375 593.75,137.0781 Q593.1094,137.2344 592.4063,137.2344 Q589.9063,137.2344 588.5781,135.5938 Q587.2656,133.9375 587.2656,130.8125 Q587.2656,127.6875 588.5781,126.0313 Q589.9063,124.375 592.4063,124.375 Q593.1094,124.375 593.75,124.5313 Q594.4063,124.6875 594.9688,124.9844 L594.9688,127.7031 Q594.3438,127.125 593.75,126.8594 Q593.1563,126.5781 592.5313,126.5781 Q591.1875,126.5781 590.5,127.6563 Q589.8125,128.7188 589.8125,130.8125 Q589.8125,132.9063 590.5,133.9844 Q591.1875,135.0469 592.5313,135.0469 Q593.1563,135.0469 593.75,134.7813 Q594.3438,134.5 594.9688,133.9219 L594.9688,136.6406 Z " fill="#000000"/><text fill="#000000" font-family="sans-serif" font-size="14" lengthAdjust="spacing" textLength="139.6172" x="606" y="135.8467">ObservableProperty</text><line style="stroke:#181818;stroke-width:0.5;" x1="578" x2="747.6172" y1="147" y2="147"/><line style="stroke:#181818;stroke-width:0.5;" x1="578" x2="747.6172" y1="155" y2="155"/></g><!--class Procedure--><g class="entity" data-qualified-name="Procedure" data-source-line="6" id="ent0013"><rect fill="#F1F1F1" height="48" rx="2.5" ry="2.5" style="stroke:#181818;stroke-width:0.5;" width="103.2031" x="1560.5" y="7"/><ellipse cx="1575.5" cy="23" fill="#ADD1B2" rx="11" ry="11" style="stroke:#181818;stroke-width:1;"/><path d="M1578.4688,28.6406 Q1577.8906,28.9375 1577.25,29.0781 Q1576.6094,29.2344 1575.9063,29.2344 Q1573.4063,29.2344 1572.0781,27.5938 Q1570.7656,25.9375 1570.7656,22.8125 Q1570.7656,19.6875 1572.0781,18.0313 Q1573.4063,16.375 1575.9063,16.375 Q1576.6094,16.375 1577.25,16.5313 Q1577.9063,16.6875 1578.4688,16.9844 L1578.4688,19.7031 Q1577.8438,19.125 1577.25,18.8594 Q1576.6563,18.5781 1576.0313,18.5781 Q1574.6875,18.5781 1574,19.6563 Q1573.3125,20.7188 1573.3125,22.8125 Q1573.3125,24.9063 1574,25.9844 Q1574.6875,27.0469 1576.0313,27.0469 Q1576.6563,27.0469 1577.25,26.7813 Q1577.8438,26.5 1578.4688,25.9219 L1578.4688,28.6406 Z " fill="#000000"/><text fill="#000000" font-family="sans-serif" font-size="14" lengthAdjust="spacing" textLength="71.2031" x="1589.5" y="27.8467">Procedure</text><line style="stroke:#181818;stroke-width:0.5;" x1="1561.5" x2="1662.7031" y1="39" y2="39"/><line style="stroke:#181818;stroke-width:0.5;" x1="1561.5" x2="1662.7031" y1="47" y2="47"/></g><!--class ActuatingProcedure--><g class="entity" data-qualified-name="ActuatingProcedure" data-source-line="6" id="ent0014"><rect fill="#F1F1F1" height="48" rx="2.5" ry="2.5" style="stroke:#181818;stroke-width:0.5;" width="170.5576" x="1318.5" y="115"/><ellipse cx="1333.5" cy="131" fill="#ADD1B2" rx="11" ry="11" style="stroke:#181818;stroke-width:1;"/><path d="M1336.4688,136.6406 Q1335.8906,136.9375 1335.25,137.0781 Q1334.6094,137.2344 1333.9063,137.2344 Q1331.4063,137.2344 1330.0781,135.5938 Q1328.7656,133.9375 1328.7656,130.8125 Q1328.7656,127.6875 1330.0781,126.0313 Q1331.4063,124.375 1333.9063,124.375 Q1334.6094,124.375 1335.25,124.5313 Q1335.9063,124.6875 1336.4688,124.9844 L1336.4688,127.7031 Q1335.8438,127.125 1335.25,126.8594 Q1334.6563,126.5781 1334.0313,126.5781 Q1332.6875,126.5781 1332,127.6563 Q1331.3125,128.7188 1331.3125,130.8125 Q1331.3125,132.9063 1332,133.9844 Q1332.6875,135.0469 1334.0313,135.0469 Q1334.6563,135.0469 1335.25,134.7813 Q1335.8438,134.5 1336.4688,133.9219 L1336.4688,136.6406 Z " fill="#000000"/><text fill="#000000" font-family="sans-serif" font-size="14" lengthAdjust="spacing" textLength="138.5576" x="1347.5" y="135.8467">ActuatingProcedure</text><line style="stroke:#181818;stroke-width:0.5;" x1="1319.5" x2="1488.0576" y1="147" y2="147"/><line style="stroke:#181818;stroke-width:0.5;" x1="1319.5" x2="1488.0576" y1="155" y2="155"/></g><!--class ObservingProcedure--><g class="entity" data-qualified-name="ObservingProcedure" data-source-line="7" id="ent0016"><rect fill="#F1F1F1" height="48" rx="2.5" ry="2.5" style="stroke:#181818;stroke-width:0.5;" width="174.707" x="1524.5" y="115"/><ellipse cx="1539.5" cy="131" fill="#ADD1B2" rx="11" ry="11" style="stroke:#181818;stroke-width:1;"/><path d="M1542.4688,136.6406 Q1541.8906,136.9375 1541.25,137.0781 Q1540.6094,137.2344 1539.9063,137.2344 Q1537.4063,137.2344 1536.0781,135.5938 Q1534.7656,133.9375 1534.7656,130.8125 Q1534.7656,127.6875 1536.0781,126.0313 Q1537.4063,124.375 1539.9063,124.375 Q1540.6094,124.375 1541.25,124.5313 Q1541.9063,124.6875 1542.4688,124.9844 L1542.4688,127.7031 Q1541.8438,127.125 1541.25,126.8594 Q1540.6563,126.5781 1540.0313,126.5781 Q1538.6875,126.5781 1538,127.6563 Q1537.3125,128.7188 1537.3125,130.8125 Q1537.3125,132.9063 1538,133.9844 Q1538.6875,135.0469 1540.0313,135.0469 Q1540.6563,135.0469 1541.25,134.7813 Q1541.8438,134.5 1542.4688,133.9219 L1542.4688,136.6406 Z " fill="#000000"/><text fill="#000000" font-family="sans-serif" font-size="14" lengthAdjust="spacing" textLength="142.707" x="1553.5" y="135.8467">ObservingProcedure</text><line style="stroke:#181818;stroke-width:0.5;" x1="1525.5" x2="1698.207" y1="147" y2="147"/><line style="stroke:#181818;stroke-width:0.5;" x1="1525.5" x2="1698.207" y1="155" y2="155"/></g><!--class SamplingProcedure--><g class="entity" data-qualified-name="SamplingProcedure" data-source-line="8" id="ent0018"><rect fill="#F1F1F1" height="48" rx="2.5" ry="2.5" style="stroke:#181818;stroke-width:0.5;" width="168.7324" x="1734.5" y="115"/><ellipse cx="1749.5" cy="131" fill="#ADD1B2" rx="11" ry="11" style="stroke:#181818;stroke-width:1;"/><path d="M1752.4688,136.6406 Q1751.8906,136.9375 1751.25,137.0781 Q1750.6094,137.2344 1749.9063,137.2344 Q1747.4063,137.2344 1746.0781,135.5938 Q1744.7656,133.9375 1744.7656,130.8125 Q1744.7656,127.6875 1746.0781,126.0313 Q1747.4063,124.375 1749.9063,124.375 Q1750.6094,124.375 1751.25,124.5313 Q1751.9063,124.6875 1752.4688,124.9844 L1752.4688,127.7031 Q1751.8438,127.125 1751.25,126.8594 Q1750.6563,126.5781 1750.0313,126.5781 Q1748.6875,126.5781 1748,127.6563 Q1747.3125,128.7188 1747.3125,130.8125 Q1747.3125,132.9063 1748,133.9844 Q1748.6875,135.0469 1750.0313,135.0469 Q1750.6563,135.0469 1751.25,134.7813 Q1751.8438,134.5 1752.4688,133.9219 L1752.4688,136.6406 Z " fill="#000000"/><text fill="#000000" font-family="sans-serif" font-size="14" lengthAdjust="spacing" textLength="136.7324" x="1763.5" y="135.8467">SamplingProcedure</text><line style="stroke:#181818;stroke-width:0.5;" x1="1735.5" x2="1902.2324" y1="147" y2="147"/><line style="stroke:#181818;stroke-width:0.5;" x1="1735.5" x2="1902.2324" y1="155" y2="155"/></g><!--class Asset--><g class="entity" data-qualified-name="Asset" data-source-line="9" id="ent0020"><rect fill="#F1F1F1" height="48" rx="2.5" ry="2.5" style="stroke:#181818;stroke-width:0.5;" width="70.2676" x="2010" y="7"/><ellipse cx="2025" cy="23" fill="#ADD1B2" rx="11" ry="11" style="stroke:#181818;stroke-width:1;"/><path d="M2027.9688,28.6406 Q2027.3906,28.9375 2026.75,29.0781 Q2026.1094,29.2344 2025.4063,29.2344 Q2022.9063,29.2344 2021.5781,27.5938 Q2020.2656,25.9375 2020.2656,22.8125 Q2020.2656,19.6875 2021.5781,18.0313 Q2022.9063,16.375 2025.4063,16.375 Q2026.1094,16.375 2026.75,16.5313 Q2027.4063,16.6875 2027.9688,16.9844 L2027.9688,19.7031 Q2027.3438,19.125 2026.75,18.8594 Q2026.1563,18.5781 2025.5313,18.5781 Q2024.1875,18.5781 2023.5,19.6563 Q2022.8125,20.7188 2022.8125,22.8125 Q2022.8125,24.9063 2023.5,25.9844 Q2024.1875,27.0469 2025.5313,27.0469 Q2026.1563,27.0469 2026.75,26.7813 Q2027.3438,26.5 2027.9688,25.9219 L2027.9688,28.6406 Z " fill="#000000"/><text fill="#000000" font-family="sans-serif" font-size="14" lengthAdjust="spacing" textLength="38.2676" x="2039" y="27.8467">Asset</text><line style="stroke:#181818;stroke-width:0.5;" x1="2011" x2="2079.2676" y1="39" y2="39"/><line style="stroke:#181818;stroke-width:0.5;" x1="2011" x2="2079.2676" y1="47" y2="47"/></g><!--class Platform--><g class="entity" data-qualified-name="Platform" data-source-line="9" id="ent0021"><rect fill="#F1F1F1" height="48" rx="2.5" ry="2.5" style="stroke:#181818;stroke-width:0.5;" width="91.2881" x="1938.5" y="115"/><ellipse cx="1953.5" cy="131" fill="#ADD1B2" rx="11" ry="11" style="stroke:#181818;stroke-width:1;"/><path d="M1956.4688,136.6406 Q1955.8906,136.9375 1955.25,137.0781 Q1954.6094,137.2344 1953.9063,137.2344 Q1951.4063,137.2344 1950.0781,135.5938 Q1948.7656,133.9375 1948.7656,130.8125 Q1948.7656,127.6875 1950.0781,126.0313 Q1951.4063,124.375 1953.9063,124.375 Q1954.6094,124.375 1955.25,124.5313 Q1955.9063,124.6875 1956.4688,124.9844 L1956.4688,127.7031 Q1955.8438,127.125 1955.25,126.8594 Q1954.6563,126.5781 1954.0313,126.5781 Q1952.6875,126.5781 1952,127.6563 Q1951.3125,128.7188 1951.3125,130.8125 Q1951.3125,132.9063 1952,133.9844 Q1952.6875,135.0469 1954.0313,135.0469 Q1954.6563,135.0469 1955.25,134.7813 Q1955.8438,134.5 1956.4688,133.9219 L1956.4688,136.6406 Z " fill="#000000"/><text fill="#000000" font-family="sans-serif" font-size="14" lengthAdjust="spacing" textLength="59.2881" x="1967.5" y="135.8467">Platform</text><line style="stroke:#181818;stroke-width:0.5;" x1="1939.5" x2="2028.7881" y1="147" y2="147"/><line style="stroke:#181818;stroke-width:0.5;" x1="1939.5" x2="2028.7881" y1="155" y2="155"/></g><!--class System--><g class="entity" data-qualified-name="System" data-source-line="10" id="ent0023"><rect fill="#F1F1F1" height="48" rx="2.5" ry="2.5" style="stroke:#181818;stroke-width:0.5;" width="84.2061" x="2065" y="115"/><ellipse cx="2080" cy="131" fill="#ADD1B2" rx="11" ry="11" style="stroke:#181818;stroke-width:1;"/><path d="M2082.9688,136.6406 Q2082.3906,136.9375 2081.75,137.0781 Q2081.1094,137.2344 2080.4063,137.2344 Q2077.9063,137.2344 2076.5781,135.5938 Q2075.2656,133.9375 2075.2656,130.8125 Q2075.2656,127.6875 2076.5781,126.0313 Q2077.9063,124.375 2080.4063,124.375 Q2081.1094,124.375 2081.75,124.5313 Q2082.4063,124.6875 2082.9688,124.9844 L2082.9688,127.7031 Q2082.3438,127.125 2081.75,126.8594 Q2081.1563,126.5781 2080.5313,126.5781 Q2079.1875,126.5781 2078.5,127.6563 Q2077.8125,128.7188 2077.8125,130.8125 Q2077.8125,132.9063 2078.5,133.9844 Q2079.1875,135.0469 2080.5313,135.0469 Q2081.1563,135.0469 2081.75,134.7813 Q2082.3438,134.5 2082.9688,133.9219 L2082.9688,136.6406 Z " fill="#000000"/><text fill="#000000" font-family="sans-serif" font-size="14" lengthAdjust="spacing" textLength="52.2061" x="2094" y="135.8467">System</text><line style="stroke:#181818;stroke-width:0.5;" x1="2066" x2="2148.2061" y1="147" y2="147"/><line style="stroke:#181818;stroke-width:0.5;" x1="2066" x2="2148.2061" y1="155" y2="155"/></g><!--class Sampler--><g class="entity" data-qualified-name="Sampler" data-source-line="10" id="ent0024"><rect fill="#F1F1F1" height="48" rx="2.5" ry="2.5" style="stroke:#181818;stroke-width:0.5;" width="90.249" x="1936" y="223"/><ellipse cx="1951" cy="239" fill="#ADD1B2" rx="11" ry="11" style="stroke:#181818;stroke-width:1;"/><path d="M1953.9688,244.6406 Q1953.3906,244.9375 1952.75,245.0781 Q1952.1094,245.2344 1951.4063,245.2344 Q1948.9063,245.2344 1947.5781,243.5938 Q1946.2656,241.9375 1946.2656,238.8125 Q1946.2656,235.6875 1947.5781,234.0313 Q1948.9063,232.375 1951.4063,232.375 Q1952.1094,232.375 1952.75,232.5313 Q1953.4063,232.6875 1953.9688,232.9844 L1953.9688,235.7031 Q1953.3438,235.125 1952.75,234.8594 Q1952.1563,234.5781 1951.5313,234.5781 Q1950.1875,234.5781 1949.5,235.6563 Q1948.8125,236.7188 1948.8125,238.8125 Q1948.8125,240.9063 1949.5,241.9844 Q1950.1875,243.0469 1951.5313,243.0469 Q1952.1563,243.0469 1952.75,242.7813 Q1953.3438,242.5 1953.9688,241.9219 L1953.9688,244.6406 Z " fill="#000000"/><text fill="#000000" font-family="sans-serif" font-size="14" lengthAdjust="spacing" textLength="58.249" x="1965" y="243.8467">Sampler</text><line style="stroke:#181818;stroke-width:0.5;" x1="1937" x2="2025.249" y1="255" y2="255"/><line style="stroke:#181818;stroke-width:0.5;" x1="1937" x2="2025.249" y1="263" y2="263"/></g><!--class Actuator--><g class="entity" data-qualified-name="Actuator" data-source-line="11" id="ent0026"><rect fill="#F1F1F1" height="48" rx="2.5" ry="2.5" style="stroke:#181818;stroke-width:0.5;" width="92.0264" x="2061" y="223"/><ellipse cx="2076" cy="239" fill="#ADD1B2" rx="11" ry="11" style="stroke:#181818;stroke-width:1;"/><path d="M2078.9688,244.6406 Q2078.3906,244.9375 2077.75,245.0781 Q2077.1094,245.2344 2076.4063,245.2344 Q2073.9063,245.2344 2072.5781,243.5938 Q2071.2656,241.9375 2071.2656,238.8125 Q2071.2656,235.6875 2072.5781,234.0313 Q2073.9063,232.375 2076.4063,232.375 Q2077.1094,232.375 2077.75,232.5313 Q2078.4063,232.6875 2078.9688,232.9844 L2078.9688,235.7031 Q2078.3438,235.125 2077.75,234.8594 Q2077.1563,234.5781 2076.5313,234.5781 Q2075.1875,234.5781 2074.5,235.6563 Q2073.8125,236.7188 2073.8125,238.8125 Q2073.8125,240.9063 2074.5,241.9844 Q2075.1875,243.0469 2076.5313,243.0469 Q2077.1563,243.0469 2077.75,242.7813 Q2078.3438,242.5 2078.9688,241.9219 L2078.9688,244.6406 Z " fill="#000000"/><text fill="#000000" font-family="sans-serif" font-size="14" lengthAdjust="spacing" textLength="60.0264" x="2090" y="243.8467">Actuator</text><line style="stroke:#181818;stroke-width:0.5;" x1="2062" x2="2152.0264" y1="255" y2="255"/><line style="stroke:#181818;stroke-width:0.5;" x1="2062" x2="2152.0264" y1="263" y2="263"/></g><!--class Execution--><g class="entity" data-qualified-name="Execution" data-source-line="13" id="ent0029"><rect fill="#F1F1F1" height="48" rx="2.5" ry="2.5" style="stroke:#181818;stroke-width:0.5;" width="101.1318" x="2316.5" y="7"/><ellipse cx="2331.5" cy="23" fill="#ADD1B2" rx="11" ry="11" style="stroke:#181818;stroke-width:1;"/><path d="M2334.4688,28.6406 Q2333.8906,28.9375 2333.25,29.0781 Q2332.6094,29.2344 2331.9063,29.2344 Q2329.4063,29.2344 2328.0781,27.5938 Q2326.7656,25.9375 2326.7656,22.8125 Q2326.7656,19.6875 2328.0781,18.0313 Q2329.4063,16.375 2331.9063,16.375 Q2332.6094,16.375 2333.25,16.5313 Q2333.9063,16.6875 2334.4688,16.9844 L2334.4688,19.7031 Q2333.8438,19.125 2333.25,18.8594 Q2332.6563,18.5781 2332.0313,18.5781 Q2330.6875,18.5781 2330,19.6563 Q2329.3125,20.7188 2329.3125,22.8125 Q2329.3125,24.9063 2330,25.9844 Q2330.6875,27.0469 2332.0313,27.0469 Q2332.6563,27.0469 2333.25,26.7813 Q2333.8438,26.5 2334.4688,25.9219 L2334.4688,28.6406 Z " fill="#000000"/><text fill="#000000" font-family="sans-serif" font-size="14" lengthAdjust="spacing" textLength="69.1318" x="2345.5" y="27.8467">Execution</text><line style="stroke:#181818;stroke-width:0.5;" x1="2317.5" x2="2416.6318" y1="39" y2="39"/><line style="stroke:#181818;stroke-width:0.5;" x1="2317.5" x2="2416.6318" y1="47" y2="47"/></g><!--class Sampling--><g class="entity" data-qualified-name="Sampling" data-source-line="13" id="ent0030"><rect fill="#F1F1F1" height="48" rx="2.5" ry="2.5" style="stroke:#181818;stroke-width:0.5;" width="97.5293" x="2184" y="115"/><ellipse cx="2199" cy="131" fill="#ADD1B2" rx="11" ry="11" style="stroke:#181818;stroke-width:1;"/><path d="M2201.9688,136.6406 Q2201.3906,136.9375 2200.75,137.0781 Q2200.1094,137.2344 2199.4063,137.2344 Q2196.9063,137.2344 2195.5781,135.5938 Q2194.2656,133.9375 2194.2656,130.8125 Q2194.2656,127.6875 2195.5781,126.0313 Q2196.9063,124.375 2199.4063,124.375 Q2200.1094,124.375 2200.75,124.5313 Q2201.4063,124.6875 2201.9688,124.9844 L2201.9688,127.7031 Q2201.3438,127.125 2200.75,126.8594 Q2200.1563,126.5781 2199.5313,126.5781 Q2198.1875,126.5781 2197.5,127.6563 Q2196.8125,128.7188 2196.8125,130.8125 Q2196.8125,132.9063 2197.5,133.9844 Q2198.1875,135.0469 2199.5313,135.0469 Q2200.1563,135.0469 2200.75,134.7813 Q2201.3438,134.5 2201.9688,133.9219 L2201.9688,136.6406 Z " fill="#000000"/><text fill="#000000" font-family="sans-serif" font-size="14" lengthAdjust="spacing" textLength="65.5293" x="2213" y="135.8467">Sampling</text><line style="stroke:#181818;stroke-width:0.5;" x1="2185" x2="2280.5293" y1="147" y2="147"/><line style="stroke:#181818;stroke-width:0.5;" x1="2185" x2="2280.5293" y1="155" y2="155"/></g><!--class ExecutionCollection--><g class="entity" data-qualified-name="ExecutionCollection" data-source-line="14" id="ent0032"><rect fill="#F1F1F1" height="48" rx="2.5" ry="2.5" style="stroke:#181818;stroke-width:0.5;" width="170.3799" x="2804" y="7"/><ellipse cx="2819" cy="23" fill="#ADD1B2" rx="11" ry="11" style="stroke:#181818;stroke-width:1;"/><path d="M2821.9688,28.6406 Q2821.3906,28.9375 2820.75,29.0781 Q2820.1094,29.2344 2819.4063,29.2344 Q2816.9063,29.2344 2815.5781,27.5938 Q2814.2656,25.9375 2814.2656,22.8125 Q2814.2656,19.6875 2815.5781,18.0313 Q2816.9063,16.375 2819.4063,16.375 Q2820.1094,16.375 2820.75,16.5313 Q2821.4063,16.6875 2821.9688,16.9844 L2821.9688,19.7031 Q2821.3438,19.125 2820.75,18.8594 Q2820.1563,18.5781 2819.5313,18.5781 Q2818.1875,18.5781 2817.5,19.6563 Q2816.8125,20.7188 2816.8125,22.8125 Q2816.8125,24.9063 2817.5,25.9844 Q2818.1875,27.0469 2819.5313,27.0469 Q2820.1563,27.0469 2820.75,26.7813 Q2821.3438,26.5 2821.9688,25.9219 L2821.9688,28.6406 Z " fill="#000000"/><text fill="#000000" font-family="sans-serif" font-size="14" lengthAdjust="spacing" textLength="138.3799" x="2833" y="27.8467">ExecutionCollection</text><line style="stroke:#181818;stroke-width:0.5;" x1="2805" x2="2973.3799" y1="39" y2="39"/><line style="stroke:#181818;stroke-width:0.5;" x1="2805" x2="2973.3799" y1="47" y2="47"/></g><!--class SamplingCollection--><g class="entity" data-qualified-name="SamplingCollection" data-source-line="14" id="ent0033"><rect fill="#F1F1F1" height="48" rx="2.5" ry="2.5" style="stroke:#181818;stroke-width:0.5;" width="166.7773" x="2603.5" y="115"/><ellipse cx="2618.5" cy="131" fill="#ADD1B2" rx="11" ry="11" style="stroke:#181818;stroke-width:1;"/><path d="M2621.4688,136.6406 Q2620.8906,136.9375 2620.25,137.0781 Q2619.6094,137.2344 2618.9063,137.2344 Q2616.4063,137.2344 2615.0781,135.5938 Q2613.7656,133.9375 2613.7656,130.8125 Q2613.7656,127.6875 2615.0781,126.0313 Q2616.4063,124.375 2618.9063,124.375 Q2619.6094,124.375 2620.25,124.5313 Q2620.9063,124.6875 2621.4688,124.9844 L2621.4688,127.7031 Q2620.8438,127.125 2620.25,126.8594 Q2619.6563,126.5781 2619.0313,126.5781 Q2617.6875,126.5781 2617,127.6563 Q2616.3125,128.7188 2616.3125,130.8125 Q2616.3125,132.9063 2617,133.9844 Q2617.6875,135.0469 2619.0313,135.0469 Q2619.6563,135.0469 2620.25,134.7813 Q2620.8438,134.5 2621.4688,133.9219 L2621.4688,136.6406 Z " fill="#000000"/><text fill="#000000" font-family="sans-serif" font-size="14" lengthAdjust="spacing" textLength="134.7773" x="2632.5" y="135.8467">SamplingCollection</text><line style="stroke:#181818;stroke-width:0.5;" x1="2604.5" x2="2769.2773" y1="147" y2="147"/><line style="stroke:#181818;stroke-width:0.5;" x1="2604.5" x2="2769.2773" y1="155" y2="155"/></g><!--class Actuation--><g class="entity" data-qualified-name="Actuation" data-source-line="15" id="ent0035"><rect fill="#F1F1F1" height="48" rx="2.5" ry="2.5" style="stroke:#181818;stroke-width:0.5;" width="99.0332" x="2317.5" y="115"/><ellipse cx="2332.5" cy="131" fill="#ADD1B2" rx="11" ry="11" style="stroke:#181818;stroke-width:1;"/><path d="M2335.4688,136.6406 Q2334.8906,136.9375 2334.25,137.0781 Q2333.6094,137.2344 2332.9063,137.2344 Q2330.4063,137.2344 2329.0781,135.5938 Q2327.7656,133.9375 2327.7656,130.8125 Q2327.7656,127.6875 2329.0781,126.0313 Q2330.4063,124.375 2332.9063,124.375 Q2333.6094,124.375 2334.25,124.5313 Q2334.9063,124.6875 2335.4688,124.9844 L2335.4688,127.7031 Q2334.8438,127.125 2334.25,126.8594 Q2333.6563,126.5781 2333.0313,126.5781 Q2331.6875,126.5781 2331,127.6563 Q2330.3125,128.7188 2330.3125,130.8125 Q2330.3125,132.9063 2331,133.9844 Q2331.6875,135.0469 2333.0313,135.0469 Q2333.6563,135.0469 2334.25,134.7813 Q2334.8438,134.5 2335.4688,133.9219 L2335.4688,136.6406 Z " fill="#000000"/><text fill="#000000" font-family="sans-serif" font-size="14" lengthAdjust="spacing" textLength="67.0332" x="2346.5" y="135.8467">Actuation</text><line style="stroke:#181818;stroke-width:0.5;" x1="2318.5" x2="2415.5332" y1="147" y2="147"/><line style="stroke:#181818;stroke-width:0.5;" x1="2318.5" x2="2415.5332" y1="155" y2="155"/></g><!--class Sensor--><g class="entity" data-qualified-name="Sensor" data-source-line="16" id="ent0037"><rect fill="#F1F1F1" height="48" rx="2.5" ry="2.5" style="stroke:#181818;stroke-width:0.5;" width="79.9883" x="2188" y="223"/><ellipse cx="2203" cy="239" fill="#ADD1B2" rx="11" ry="11" style="stroke:#181818;stroke-width:1;"/><path d="M2205.9688,244.6406 Q2205.3906,244.9375 2204.75,245.0781 Q2204.1094,245.2344 2203.4063,245.2344 Q2200.9063,245.2344 2199.5781,243.5938 Q2198.2656,241.9375 2198.2656,238.8125 Q2198.2656,235.6875 2199.5781,234.0313 Q2200.9063,232.375 2203.4063,232.375 Q2204.1094,232.375 2204.75,232.5313 Q2205.4063,232.6875 2205.9688,232.9844 L2205.9688,235.7031 Q2205.3438,235.125 2204.75,234.8594 Q2204.1563,234.5781 2203.5313,234.5781 Q2202.1875,234.5781 2201.5,235.6563 Q2200.8125,236.7188 2200.8125,238.8125 Q2200.8125,240.9063 2201.5,241.9844 Q2202.1875,243.0469 2203.5313,243.0469 Q2204.1563,243.0469 2204.75,242.7813 Q2205.3438,242.5 2205.9688,241.9219 L2205.9688,244.6406 Z " fill="#000000"/><text fill="#000000" font-family="sans-serif" font-size="14" lengthAdjust="spacing" textLength="47.9883" x="2217" y="243.8467">Sensor</text><line style="stroke:#181818;stroke-width:0.5;" x1="2189" x2="2266.9883" y1="255" y2="255"/><line style="stroke:#181818;stroke-width:0.5;" x1="2189" x2="2266.9883" y1="263" y2="263"/></g><!--class ActuationCollection--><g class="entity" data-qualified-name="ActuationCollection" data-source-line="17" id="ent0039"><rect fill="#F1F1F1" height="48" rx="2.5" ry="2.5" style="stroke:#181818;stroke-width:0.5;" width="168.2813" x="2805" y="115"/><ellipse cx="2820" cy="131" fill="#ADD1B2" rx="11" ry="11" style="stroke:#181818;stroke-width:1;"/><path d="M2822.9688,136.6406 Q2822.3906,136.9375 2821.75,137.0781 Q2821.1094,137.2344 2820.4063,137.2344 Q2817.9063,137.2344 2816.5781,135.5938 Q2815.2656,133.9375 2815.2656,130.8125 Q2815.2656,127.6875 2816.5781,126.0313 Q2817.9063,124.375 2820.4063,124.375 Q2821.1094,124.375 2821.75,124.5313 Q2822.4063,124.6875 2822.9688,124.9844 L2822.9688,127.7031 Q2822.3438,127.125 2821.75,126.8594 Q2821.1563,126.5781 2820.5313,126.5781 Q2819.1875,126.5781 2818.5,127.6563 Q2817.8125,128.7188 2817.8125,130.8125 Q2817.8125,132.9063 2818.5,133.9844 Q2819.1875,135.0469 2820.5313,135.0469 Q2821.1563,135.0469 2821.75,134.7813 Q2822.3438,134.5 2822.9688,133.9219 L2822.9688,136.6406 Z " fill="#000000"/><text fill="#000000" font-family="sans-serif" font-size="14" lengthAdjust="spacing" textLength="136.2813" x="2834" y="135.8467">ActuationCollection</text><line style="stroke:#181818;stroke-width:0.5;" x1="2806" x2="2972.2813" y1="147" y2="147"/><line style="stroke:#181818;stroke-width:0.5;" x1="2806" x2="2972.2813" y1="155" y2="155"/></g><!--class ObservationCollection--><g class="entity" data-qualified-name="ObservationCollection" data-source-line="18" id="ent0041"><rect fill="#F1F1F1" height="48" rx="2.5" ry="2.5" style="stroke:#181818;stroke-width:0.5;" width="186.499" x="3008" y="115"/><ellipse cx="3023" cy="131" fill="#ADD1B2" rx="11" ry="11" style="stroke:#181818;stroke-width:1;"/><path d="M3025.9688,136.6406 Q3025.3906,136.9375 3024.75,137.0781 Q3024.1094,137.2344 3023.4063,137.2344 Q3020.9063,137.2344 3019.5781,135.5938 Q3018.2656,133.9375 3018.2656,130.8125 Q3018.2656,127.6875 3019.5781,126.0313 Q3020.9063,124.375 3023.4063,124.375 Q3024.1094,124.375 3024.75,124.5313 Q3025.4063,124.6875 3025.9688,124.9844 L3025.9688,127.7031 Q3025.3438,127.125 3024.75,126.8594 Q3024.1563,126.5781 3023.5313,126.5781 Q3022.1875,126.5781 3021.5,127.6563 Q3020.8125,128.7188 3020.8125,130.8125 Q3020.8125,132.9063 3021.5,133.9844 Q3022.1875,135.0469 3023.5313,135.0469 Q3024.1563,135.0469 3024.75,134.7813 Q3025.3438,134.5 3025.9688,133.9219 L3025.9688,136.6406 Z " fill="#000000"/><text fill="#000000" font-family="sans-serif" font-size="14" lengthAdjust="spacing" textLength="154.499" x="3037" y="135.8467">ObservationCollection</text><line style="stroke:#181818;stroke-width:0.5;" x1="3009" x2="3193.499" y1="147" y2="147"/><line style="stroke:#181818;stroke-width:0.5;" x1="3009" x2="3193.499" y1="155" y2="155"/></g><!--class Observation--><g class="entity" data-qualified-name="Observation" data-source-line="19" id="ent0043"><rect fill="#F1F1F1" height="48" rx="2.5" ry="2.5" style="stroke:#181818;stroke-width:0.5;" width="117.251" x="2451.5" y="115"/><ellipse cx="2466.5" cy="131" fill="#ADD1B2" rx="11" ry="11" style="stroke:#181818;stroke-width:1;"/><path d="M2469.4688,136.6406 Q2468.8906,136.9375 2468.25,137.0781 Q2467.6094,137.2344 2466.9063,137.2344 Q2464.4063,137.2344 2463.0781,135.5938 Q2461.7656,133.9375 2461.7656,130.8125 Q2461.7656,127.6875 2463.0781,126.0313 Q2464.4063,124.375 2466.9063,124.375 Q2467.6094,124.375 2468.25,124.5313 Q2468.9063,124.6875 2469.4688,124.9844 L2469.4688,127.7031 Q2468.8438,127.125 2468.25,126.8594 Q2467.6563,126.5781 2467.0313,126.5781 Q2465.6875,126.5781 2465,127.6563 Q2464.3125,128.7188 2464.3125,130.8125 Q2464.3125,132.9063 2465,133.9844 Q2465.6875,135.0469 2467.0313,135.0469 Q2467.6563,135.0469 2468.25,134.7813 Q2468.8438,134.5 2469.4688,133.9219 L2469.4688,136.6406 Z " fill="#000000"/><text fill="#000000" font-family="sans-serif" font-size="14" lengthAdjust="spacing" textLength="85.251" x="2480.5" y="135.8467">Observation</text><line style="stroke:#181818;stroke-width:0.5;" x1="2452.5" x2="2567.751" y1="147" y2="147"/><line style="stroke:#181818;stroke-width:0.5;" x1="2452.5" x2="2567.751" y1="155" y2="155"/></g><!--class Stimulus--><g class="entity" data-qualified-name="Stimulus" data-source-line="20" id="ent0045"><rect fill="#F1F1F1" height="48" rx="2.5" ry="2.5" style="stroke:#181818;stroke-width:0.5;" width="92.833" x="37.5" y="7"/><ellipse cx="52.5" cy="23" fill="#ADD1B2" rx="11" ry="11" style="stroke:#181818;stroke-width:1;"/><path d="M55.4688,28.6406 Q54.8906,28.9375 54.25,29.0781 Q53.6094,29.2344 52.9063,29.2344 Q50.4063,29.2344 49.0781,27.5938 Q47.7656,25.9375 47.7656,22.8125 Q47.7656,19.6875 49.0781,18.0313 Q50.4063,16.375 52.9063,16.375 Q53.6094,16.375 54.25,16.5313 Q54.9063,16.6875 55.4688,16.9844 L55.4688,19.7031 Q54.8438,19.125 54.25,18.8594 Q53.6563,18.5781 53.0313,18.5781 Q51.6875,18.5781 51,19.6563 Q50.3125,20.7188 50.3125,22.8125 Q50.3125,24.9063 51,25.9844 Q51.6875,27.0469 53.0313,27.0469 Q53.6563,27.0469 54.25,26.7813 Q54.8438,26.5 55.4688,25.9219 L55.4688,28.6406 Z " fill="#000000"/><text fill="#000000" font-family="sans-serif" font-size="14" lengthAdjust="spacing" textLength="60.833" x="66.5" y="27.8467">Stimulus</text><line style="stroke:#181818;stroke-width:0.5;" x1="38.5" x2="129.333" y1="39" y2="39"/><line style="stroke:#181818;stroke-width:0.5;" x1="38.5" x2="129.333" y1="47" y2="47"/></g><!--class FeatureOfInterest--><g class="entity" data-qualified-name="FeatureOfInterest" data-source-line="21" id="ent0046"><rect fill="#F1F1F1" height="48" rx="2.5" ry="2.5" style="stroke:#181818;stroke-width:0.5;" width="156.1816" x="166" y="7"/><ellipse cx="181" cy="23" fill="#ADD1B2" rx="11" ry="11" style="stroke:#181818;stroke-width:1;"/><path d="M183.9688,28.6406 Q183.3906,28.9375 182.75,29.0781 Q182.1094,29.2344 181.4063,29.2344 Q178.9063,29.2344 177.5781,27.5938 Q176.2656,25.9375 176.2656,22.8125 Q176.2656,19.6875 177.5781,18.0313 Q178.9063,16.375 181.4063,16.375 Q182.1094,16.375 182.75,16.5313 Q183.4063,16.6875 183.9688,16.9844 L183.9688,19.7031 Q183.3438,19.125 182.75,18.8594 Q182.1563,18.5781 181.5313,18.5781 Q180.1875,18.5781 179.5,19.6563 Q178.8125,20.7188 178.8125,22.8125 Q178.8125,24.9063 179.5,25.9844 Q180.1875,27.0469 181.5313,27.0469 Q182.1563,27.0469 182.75,26.7813 Q183.3438,26.5 183.9688,25.9219 L183.9688,28.6406 Z " fill="#000000"/><text fill="#000000" font-family="sans-serif" font-size="14" lengthAdjust="spacing" textLength="124.1816" x="195" y="27.8467">FeatureOfInterest</text><line style="stroke:#181818;stroke-width:0.5;" x1="167" x2="321.1816" y1="39" y2="39"/><line style="stroke:#181818;stroke-width:0.5;" x1="167" x2="321.1816" y1="47" y2="47"/></g><!--class Deployment--><g class="entity" data-qualified-name="Deployment" data-source-line="22" id="ent0047"><rect fill="#F1F1F1" height="48" rx="2.5" ry="2.5" style="stroke:#181818;stroke-width:0.5;" width="117.6338" x="357" y="7"/><ellipse cx="372" cy="23" fill="#ADD1B2" rx="11" ry="11" style="stroke:#181818;stroke-width:1;"/><path d="M374.9688,28.6406 Q374.3906,28.9375 373.75,29.0781 Q373.1094,29.2344 372.4063,29.2344 Q369.9063,29.2344 368.5781,27.5938 Q367.2656,25.9375 367.2656,22.8125 Q367.2656,19.6875 368.5781,18.0313 Q369.9063,16.375 372.4063,16.375 Q373.1094,16.375 373.75,16.5313 Q374.4063,16.6875 374.9688,16.9844 L374.9688,19.7031 Q374.3438,19.125 373.75,18.8594 Q373.1563,18.5781 372.5313,18.5781 Q371.1875,18.5781 370.5,19.6563 Q369.8125,20.7188 369.8125,22.8125 Q369.8125,24.9063 370.5,25.9844 Q371.1875,27.0469 372.5313,27.0469 Q373.1563,27.0469 373.75,26.7813 Q374.3438,26.5 374.9688,25.9219 L374.9688,28.6406 Z " fill="#000000"/><text fill="#000000" font-family="sans-serif" font-size="14" lengthAdjust="spacing" textLength="85.6338" x="386" y="27.8467">Deployment</text><line style="stroke:#181818;stroke-width:0.5;" x1="358" x2="473.6338" y1="39" y2="39"/><line style="stroke:#181818;stroke-width:0.5;" x1="358" x2="473.6338" y1="47" y2="47"/></g><!--class Output--><g class="entity" data-qualified-name="Output" data-source-line="23" id="ent0048"><rect fill="#F1F1F1" height="48" rx="2.5" ry="2.5" style="stroke:#181818;stroke-width:0.5;" width="80.6309" x="43.5" y="115"/><ellipse cx="58.5" cy="131" fill="#ADD1B2" rx="11" ry="11" style="stroke:#181818;stroke-width:1;"/><path d="M61.4688,136.6406 Q60.8906,136.9375 60.25,137.0781 Q59.6094,137.2344 58.9063,137.2344 Q56.4063,137.2344 55.0781,135.5938 Q53.7656,133.9375 53.7656,130.8125 Q53.7656,127.6875 55.0781,126.0313 Q56.4063,124.375 58.9063,124.375 Q59.6094,124.375 60.25,124.5313 Q60.9063,124.6875 61.4688,124.9844 L61.4688,127.7031 Q60.8438,127.125 60.25,126.8594 Q59.6563,126.5781 59.0313,126.5781 Q57.6875,126.5781 57,127.6563 Q56.3125,128.7188 56.3125,130.8125 Q56.3125,132.9063 57,133.9844 Q57.6875,135.0469 59.0313,135.0469 Q59.6563,135.0469 60.25,134.7813 Q60.8438,134.5 61.4688,133.9219 L61.4688,136.6406 Z " fill="#000000"/><text fill="#000000" font-family="sans-serif" font-size="14" lengthAdjust="spacing" textLength="48.6309" x="72.5" y="135.8467">Output</text><line style="stroke:#181818;stroke-width:0.5;" x1="44.5" x2="123.1309" y1="147" y2="147"/><line style="stroke:#181818;stroke-width:0.5;" x1="44.5" x2="123.1309" y1="155" y2="155"/></g><!--class Input--><g class="entity" data-qualified-name="Input" data-source-line="28" id="ent0049"><rect fill="#F1F1F1" height="48" rx="2.5" ry="2.5" style="stroke:#181818;stroke-width:0.5;" width="68.251" x="160" y="115"/><ellipse cx="175" cy="131" fill="#ADD1B2" rx="11" ry="11" style="stroke:#181818;stroke-width:1;"/><path d="M177.9688,136.6406 Q177.3906,136.9375 176.75,137.0781 Q176.1094,137.2344 175.4063,137.2344 Q172.9063,137.2344 171.5781,135.5938 Q170.2656,133.9375 170.2656,130.8125 Q170.2656,127.6875 171.5781,126.0313 Q172.9063,124.375 175.4063,124.375 Q176.1094,124.375 176.75,124.5313 Q177.4063,124.6875 177.9688,124.9844 L177.9688,127.7031 Q177.3438,127.125 176.75,126.8594 Q176.1563,126.5781 175.5313,126.5781 Q174.1875,126.5781 173.5,127.6563 Q172.8125,128.7188 172.8125,130.8125 Q172.8125,132.9063 173.5,133.9844 Q174.1875,135.0469 175.5313,135.0469 Q176.1563,135.0469 176.75,134.7813 Q177.3438,134.5 177.9688,133.9219 L177.9688,136.6406 Z " fill="#000000"/><text fill="#000000" font-family="sans-serif" font-size="14" lengthAdjust="spacing" textLength="36.251" x="189" y="135.8467">Input</text><line style="stroke:#181818;stroke-width:0.5;" x1="161" x2="227.251" y1="147" y2="147"/><line style="stroke:#181818;stroke-width:0.5;" x1="161" x2="227.251" y1="155" y2="155"/></g><!--class Result--><g class="entity" data-qualified-name="Result" data-source-line="29" id="ent0050"><rect fill="#F1F1F1" height="48" rx="2.5" ry="2.5" style="stroke:#181818;stroke-width:0.5;" width="75.8867" x="263" y="115"/><ellipse cx="278" cy="131" fill="#ADD1B2" rx="11" ry="11" style="stroke:#181818;stroke-width:1;"/><path d="M280.9688,136.6406 Q280.3906,136.9375 279.75,137.0781 Q279.1094,137.2344 278.4063,137.2344 Q275.9063,137.2344 274.5781,135.5938 Q273.2656,133.9375 273.2656,130.8125 Q273.2656,127.6875 274.5781,126.0313 Q275.9063,124.375 278.4063,124.375 Q279.1094,124.375 279.75,124.5313 Q280.4063,124.6875 280.9688,124.9844 L280.9688,127.7031 Q280.3438,127.125 279.75,126.8594 Q279.1563,126.5781 278.5313,126.5781 Q277.1875,126.5781 276.5,127.6563 Q275.8125,128.7188 275.8125,130.8125 Q275.8125,132.9063 276.5,133.9844 Q277.1875,135.0469 278.5313,135.0469 Q279.1563,135.0469 279.75,134.7813 Q280.3438,134.5 280.9688,133.9219 L280.9688,136.6406 Z " fill="#000000"/><text fill="#000000" font-family="sans-serif" font-size="14" lengthAdjust="spacing" textLength="43.8867" x="292" y="135.8467">Result</text><line style="stroke:#181818;stroke-width:0.5;" x1="264" x2="337.8867" y1="147" y2="147"/><line style="stroke:#181818;stroke-width:0.5;" x1="264" x2="337.8867" y1="155" y2="155"/></g><!--class SampleCollection--><g class="entity" data-qualified-name="SampleCollection" data-source-line="30" id="ent0051"><rect fill="#F1F1F1" height="48" rx="2.5" ry="2.5" style="stroke:#181818;stroke-width:0.5;" width="153.7412" x="7" y="223"/><ellipse cx="22" cy="239" fill="#ADD1B2" rx="11" ry="11" style="stroke:#181818;stroke-width:1;"/><path d="M24.9688,244.6406 Q24.3906,244.9375 23.75,245.0781 Q23.1094,245.2344 22.4063,245.2344 Q19.9063,245.2344 18.5781,243.5938 Q17.2656,241.9375 17.2656,238.8125 Q17.2656,235.6875 18.5781,234.0313 Q19.9063,232.375 22.4063,232.375 Q23.1094,232.375 23.75,232.5313 Q24.4063,232.6875 24.9688,232.9844 L24.9688,235.7031 Q24.3438,235.125 23.75,234.8594 Q23.1563,234.5781 22.5313,234.5781 Q21.1875,234.5781 20.5,235.6563 Q19.8125,236.7188 19.8125,238.8125 Q19.8125,240.9063 20.5,241.9844 Q21.1875,243.0469 22.5313,243.0469 Q23.1563,243.0469 23.75,242.7813 Q24.3438,242.5 24.9688,241.9219 L24.9688,244.6406 Z " fill="#000000"/><text fill="#000000" font-family="sans-serif" font-size="14" lengthAdjust="spacing" textLength="121.7412" x="36" y="243.8467">SampleCollection</text><line style="stroke:#181818;stroke-width:0.5;" x1="8" x2="159.7412" y1="255" y2="255"/><line style="stroke:#181818;stroke-width:0.5;" x1="8" x2="159.7412" y1="263" y2="263"/></g><!--reverse link Property to ActuatableProperty--><g class="link" data-entity-1="ent0001" data-entity-2="ent0002" data-link-type="extension" data-source-line="1" id="lnk3"><path codeLine="1" d="M562.2556,65.2962 C536.8456,83.0162 516.64,97.11 491.18,114.86" fill="none" id="Property-backto-ActuatableProperty" style="stroke:#181818;stroke-width:1;"/><polygon fill="none" points="577.02,55,558.8235,60.3747,565.6876,70.2177,577.02,55" style="stroke:#181818;stroke-width:1;stroke-linejoin:miter;stroke-miterlimit:10;"/></g><!--reverse link Sample to MaterialSample--><g class="link" data-entity-1="ent0004" data-entity-2="ent0005" data-link-type="extension" data-source-line="2" id="lnk6"><path codeLine="2" d="M974.3567,64.4445 C945.6067,82.1645 921.35,97.11 892.55,114.86" fill="none" id="Sample-backto-MaterialSample" style="stroke:#181818;stroke-width:1;"/><polygon fill="none" points="989.68,55,971.2086,59.3367,977.5049,69.5522,989.68,55" style="stroke:#181818;stroke-width:1;stroke-linejoin:miter;stroke-miterlimit:10;"/></g><!--reverse link Sample to SpatialSample--><g class="link" data-entity-1="ent0004" data-entity-2="ent0007" data-link-type="extension" data-source-line="3" id="lnk8"><path codeLine="3" d="M1027,73 C1027,90.66 1027,96.94 1027,114.68" fill="none" id="Sample-backto-SpatialSample" style="stroke:#181818;stroke-width:1;"/><polygon fill="none" points="1027,55,1021,73,1033,73,1027,55" style="stroke:#181818;stroke-width:1;stroke-linejoin:miter;stroke-miterlimit:10;"/></g><!--reverse link Sample to StatisticalSample--><g class="link" data-entity-1="ent0004" data-entity-2="ent0009" data-link-type="extension" data-source-line="4" id="lnk10"><path codeLine="4" d="M1081.3276,64.1725 C1111.2476,81.8925 1136.95,97.11 1166.93,114.86" fill="none" id="Sample-backto-StatisticalSample" style="stroke:#181818;stroke-width:1;"/><polygon fill="none" points="1065.84,55,1078.2701,69.335,1084.3851,59.0099,1065.84,55" style="stroke:#181818;stroke-width:1;stroke-linejoin:miter;stroke-miterlimit:10;"/></g><!--reverse link Property to ObservableProperty--><g class="link" data-entity-1="ent0001" data-entity-2="ent0011" data-link-type="extension" data-source-line="5" id="lnk12"><path codeLine="5" d="M629.5498,71.0997 C638.3798,88.7597 642.47,96.94 651.34,114.68" fill="none" id="Property-backto-ObservableProperty" style="stroke:#181818;stroke-width:1;"/><polygon fill="none" points="621.5,55,624.1833,73.783,634.9164,68.4164,621.5,55" style="stroke:#181818;stroke-width:1;stroke-linejoin:miter;stroke-miterlimit:10;"/></g><!--reverse link Procedure to ActuatingProcedure--><g class="link" data-entity-1="ent0013" data-entity-2="ent0014" data-link-type="extension" data-source-line="6" id="lnk15"><path codeLine="6" d="M1550.8326,63.1732 C1516.0626,80.8932 1484.24,97.11 1449.4,114.86" fill="none" id="Procedure-backto-ActuatingProcedure" style="stroke:#181818;stroke-width:1;"/><polygon fill="none" points="1566.87,55,1548.1082,57.8274,1553.557,68.519,1566.87,55" style="stroke:#181818;stroke-width:1;stroke-linejoin:miter;stroke-miterlimit:10;"/></g><!--reverse link Procedure to ObservingProcedure--><g class="link" data-entity-1="ent0013" data-entity-2="ent0016" data-link-type="extension" data-source-line="7" id="lnk17"><path codeLine="7" d="M1612,73 C1612,90.66 1612,96.94 1612,114.68" fill="none" id="Procedure-backto-ObservingProcedure" style="stroke:#181818;stroke-width:1;"/><polygon fill="none" points="1612,55,1606,73,1618,73,1612,55" style="stroke:#181818;stroke-width:1;stroke-linejoin:miter;stroke-miterlimit:10;"/></g><!--reverse link Procedure to SamplingProcedure--><g class="link" data-entity-1="ent0013" data-entity-2="ent0018" data-link-type="extension" data-source-line="8" id="lnk19"><path codeLine="8" d="M1672.9411,63.205 C1707.5411,80.925 1739.15,97.11 1773.81,114.86" fill="none" id="Procedure-backto-SamplingProcedure" style="stroke:#181818;stroke-width:1;"/><polygon fill="none" points="1656.92,55,1670.2061,68.5454,1675.6762,57.8647,1656.92,55" style="stroke:#181818;stroke-width:1;stroke-linejoin:miter;stroke-miterlimit:10;"/></g><!--reverse link Asset to Platform--><g class="link" data-entity-1="ent0020" data-entity-2="ent0021" data-link-type="extension" data-source-line="9" id="lnk22"><path codeLine="9" d="M2022.7839,70.6022 C2012.6239,88.2622 2007.63,96.94 1997.42,114.68" fill="none" id="Asset-backto-Platform" style="stroke:#181818;stroke-width:1;"/><polygon fill="none" points="2031.76,55,2017.5831,67.6102,2027.9846,73.5943,2031.76,55" style="stroke:#181818;stroke-width:1;stroke-linejoin:miter;stroke-miterlimit:10;"/></g><!--reverse link System to Sampler--><g class="link" data-entity-1="ent0023" data-entity-2="ent0024" data-link-type="extension" data-source-line="10" id="lnk25"><path codeLine="10" d="M2065.8865,174.5884 C2044.8965,192.2484 2029.81,204.94 2008.72,222.68" fill="none" id="System-backto-Sampler" style="stroke:#181818;stroke-width:1;"/><polygon fill="none" points="2079.66,163,2062.0237,169.9972,2069.7493,179.1795,2079.66,163" style="stroke:#181818;stroke-width:1;stroke-linejoin:miter;stroke-miterlimit:10;"/></g><!--reverse link System to Actuator--><g class="link" data-entity-1="ent0023" data-entity-2="ent0026" data-link-type="extension" data-source-line="11" id="lnk27"><path codeLine="11" d="M2107,181 C2107,198.66 2107,204.94 2107,222.68" fill="none" id="System-backto-Actuator" style="stroke:#181818;stroke-width:1;"/><polygon fill="none" points="2107,163,2101,181,2113,181,2107,163" style="stroke:#181818;stroke-width:1;stroke-linejoin:miter;stroke-miterlimit:10;"/></g><!--reverse link Asset to System--><g class="link" data-entity-1="ent0020" data-entity-2="ent0023" data-link-type="extension" data-source-line="12" id="lnk28"><path codeLine="12" d="M2067.5383,70.5372 C2077.8683,88.1972 2082.98,96.94 2093.36,114.68" fill="none" id="Asset-backto-System" style="stroke:#181818;stroke-width:1;"/><polygon fill="none" points="2058.45,55,2062.3592,73.5666,2072.7173,67.5077,2058.45,55" style="stroke:#181818;stroke-width:1;stroke-linejoin:miter;stroke-miterlimit:10;"/></g><!--reverse link Execution to Sampling--><g class="link" data-entity-1="ent0029" data-entity-2="ent0030" data-link-type="extension" data-source-line="13" id="lnk31"><path codeLine="13" d="M2323.8041,66.1688 C2301.4841,83.8288 2284.91,96.94 2262.48,114.68" fill="none" id="Execution-backto-Sampling" style="stroke:#181818;stroke-width:1;"/><polygon fill="none" points="2337.92,55,2320.0812,61.4635,2327.527,70.8741,2337.92,55" style="stroke:#181818;stroke-width:1;stroke-linejoin:miter;stroke-miterlimit:10;"/></g><!--reverse link ExecutionCollection to SamplingCollection--><g class="link" data-entity-1="ent0032" data-entity-2="ent0033" data-link-type="extension" data-source-line="14" id="lnk34"><path codeLine="14" d="M2829.231,63.3636 C2795.461,81.0836 2764.93,97.11 2731.09,114.86" fill="none" id="ExecutionCollection-backto-SamplingCollection" style="stroke:#181818;stroke-width:1;"/><polygon fill="none" points="2845.17,55,2826.4432,58.0506,2832.0189,68.6766,2845.17,55" style="stroke:#181818;stroke-width:1;stroke-linejoin:miter;stroke-miterlimit:10;"/></g><!--reverse link Execution to Actuation--><g class="link" data-entity-1="ent0029" data-entity-2="ent0035" data-link-type="extension" data-source-line="15" id="lnk36"><path codeLine="15" d="M2367,73 C2367,90.66 2367,96.94 2367,114.68" fill="none" id="Execution-backto-Actuation" style="stroke:#181818;stroke-width:1;"/><polygon fill="none" points="2367,55,2361,73,2373,73,2367,55" style="stroke:#181818;stroke-width:1;stroke-linejoin:miter;stroke-miterlimit:10;"/></g><!--reverse link System to Sensor--><g class="link" data-entity-1="ent0023" data-entity-2="ent0037" data-link-type="extension" data-source-line="16" id="lnk38"><path codeLine="16" d="M2146.7968,174.864 C2166.9468,192.524 2181.13,204.94 2201.38,222.68" fill="none" id="System-backto-Sensor" style="stroke:#181818;stroke-width:1;"/><polygon fill="none" points="2133.26,163,2142.8421,179.3763,2150.7515,170.3518,2133.26,163" style="stroke:#181818;stroke-width:1;stroke-linejoin:miter;stroke-miterlimit:10;"/></g><!--reverse link ExecutionCollection to ActuationCollection--><g class="link" data-entity-1="ent0032" data-entity-2="ent0039" data-link-type="extension" data-source-line="17" id="lnk40"><path codeLine="17" d="M2889,73 C2889,90.66 2889,96.94 2889,114.68" fill="none" id="ExecutionCollection-backto-ActuationCollection" style="stroke:#181818;stroke-width:1;"/><polygon fill="none" points="2889,55,2883,73,2895,73,2889,55" style="stroke:#181818;stroke-width:1;stroke-linejoin:miter;stroke-miterlimit:10;"/></g><!--reverse link ExecutionCollection to ObservationCollection--><g class="link" data-entity-1="ent0032" data-entity-2="ent0041" data-link-type="extension" data-source-line="18" id="lnk42"><path codeLine="18" d="M2951.0997,63.0498 C2986.5397,80.7698 3019.22,97.11 3054.72,114.86" fill="none" id="ExecutionCollection-backto-ObservationCollection" style="stroke:#181818;stroke-width:1;"/><polygon fill="none" points="2935,55,2948.4164,68.4164,2953.783,57.6833,2935,55" style="stroke:#181818;stroke-width:1;stroke-linejoin:miter;stroke-miterlimit:10;"/></g><!--reverse link Execution to Observation--><g class="link" data-entity-1="ent0029" data-entity-2="ent0043" data-link-type="extension" data-source-line="19" id="lnk44"><path codeLine="19" d="M2412.4895,65.7202 C2436.3095,83.3802 2454.61,96.94 2478.54,114.68" fill="none" id="Execution-backto-Observation" style="stroke:#181818;stroke-width:1;"/><polygon fill="none" points="2398.03,55,2408.9161,70.54,2416.0629,60.9004,2398.03,55" style="stroke:#181818;stroke-width:1;stroke-linejoin:miter;stroke-miterlimit:10;"/></g><?plantuml-src VL99RiCm3Bpx5Vb0Vj1Bq3P03eMD-WMCmXG2g0KY5TH07ryXKcNBYNiJPuR3JKDm7eDCkvUV_NvtK191u4mu5BmRmNZ2J7-0OD106MkeqODiC98O5gqgEpGr-pDZk3KrqqFX9GPSTgNjLyNNYkpnd-9UkX4Sc54oEH38rGNJZHCBcaK6XWRBdRYmJCvyz_wDAefsjgqtuw-E2DMZOiRN7cNkH3HzeUNKmQPlpNfcl1QNvM_97qIT8c1EDzKcKkGI7X4ahRI_dcpw8CXIy3Vqv2Q3zW_ee_WepqtA7ZSowz_8uSdEFf_8aQhf_MhpBBy0?></g></svg>