<svg xmlns="http://www.w3.org/2000/svg" xmlns:xlink="http://www.w3.org/1999/xlink" contentStyleType="text/css" data-diagram-type="CLASS" height="286px" preserveAspectRatio="none" style="width:3350px;height:286px;background:#FFFFFF;" version="1.1" viewBox="0 0 3350 286" width="3350px" zoomAndPan="magnify"><?plantuml 1.2026.6?><defs/><g><!--class Property--><g class="entity" data-qualified-name="Property" data-source-line="1" id="ent0001"><rect fill="#F1F1F1" height="48" rx="2.5" ry="2.5" style="stroke:#181818;stroke-width:0.5;" width="91.7939" x="655.5" y="7"/><ellipse cx="670.5" cy="23" fill="#ADD1B2" rx="11" ry="11" style="stroke:#181818;stroke-width:1;"/><path d="M673.4688,28.6406 Q672.8906,28.9375 672.25,29.0781 Q671.6094,29.2344 670.9063,29.2344 Q668.4063,29.2344 667.0781,27.5938 Q665.7656,25.9375 665.7656,22.8125 Q665.7656,19.6875 667.0781,18.0313 Q668.4063,16.375 670.9063,16.375 Q671.6094,16.375 672.25,16.5313 Q672.9063,16.6875 673.4688,16.9844 L673.4688,19.7031 Q672.8438,19.125 672.25,18.8594 Q671.6563,18.5781 671.0313,18.5781 Q669.6875,18.5781 669,19.6563 Q668.3125,20.7188 668.3125,22.8125 Q668.3125,24.9063 669,25.9844 Q669.6875,27.0469 671.0313,27.0469 Q671.6563,27.0469 672.25,26.7813 Q672.8438,26.5 673.4688,25.9219 L673.4688,28.6406 Z " fill="#000000"/><text fill="#000000" font-family="sans-serif" font-size="14" lengthAdjust="spacing" textLength="59.7939" x="684.5" y="27.8467">Property</text><line style="stroke:#181818;stroke-width:0.5;" x1="656.5" x2="746.2939" y1="39" y2="39"/><line style="stroke:#181818;stroke-width:0.5;" x1="656.5" x2="746.2939" y1="47" y2="47"/></g><!--class ActuatableProperty--><g class="entity" data-qualified-name="ActuatableProperty" data-source-line="1" id="ent0002"><rect fill="#F1F1F1" height="48" rx="2.5" ry="2.5" style="stroke:#181818;stroke-width:0.5;" width="167.4678" x="516" y="115"/><ellipse cx="531" cy="131" fill="#ADD1B2" rx="11" ry="11" style="stroke:#181818;stroke-width:1;"/><path d="M533.9688,136.6406 Q533.3906,136.9375 532.75,137.0781 Q532.1094,137.2344 531.4063,137.2344 Q528.9063,137.2344 527.5781,135.5938 Q526.2656,133.9375 526.2656,130.8125 Q526.2656,127.6875 527.5781,126.0313 Q528.9063,124.375 531.4063,124.375 Q532.1094,124.375 532.75,124.5313 Q533.4063,124.6875 533.9688,124.9844 L533.9688,127.7031 Q533.3438,127.125 532.75,126.8594 Q532.1563,126.5781 531.5313,126.5781 Q530.1875,126.5781 529.5,127.6563 Q528.8125,128.7188 528.8125,130.8125 Q528.8125,132.9063 529.5,133.9844 Q530.1875,135.0469 531.5313,135.0469 Q532.1563,135.0469 532.75,134.7813 Q533.3438,134.5 533.9688,133.9219 L533.9688,136.6406 Z " fill="#000000"/><text fill="#000000" font-family="sans-serif" font-size="14" lengthAdjust="spacing" textLength="135.4678" x="545" y="135.8467">ActuatableProperty</text><line style="stroke:#181818;stroke-width:0.5;" x1="517" x2="682.4678" y1="147" y2="147"/><line style="stroke:#181818;stroke-width:0.5;" x1="517" x2="682.4678" y1="155" y2="155"/></g><!--class Sample--><g class="entity" data-qualified-name="Sample" data-source-line="2" id="ent0004"><rect fill="#F1F1F1" height="48" rx="2.5" ry="2.5" style="stroke:#181818;stroke-width:0.5;" width="84.4932" x="1126.5" y="7"/><ellipse cx="1141.5" cy="23" fill="#ADD1B2" rx="11" ry="11" style="stroke:#181818;stroke-width:1;"/><path d="M1144.4688,28.6406 Q1143.8906,28.9375 1143.25,29.0781 Q1142.6094,29.2344 1141.9063,29.2344 Q1139.4063,29.2344 1138.0781,27.5938 Q1136.7656,25.9375 1136.7656,22.8125 Q1136.7656,19.6875 1138.0781,18.0313 Q1139.4063,16.375 1141.9063,16.375 Q1142.6094,16.375 1143.25,16.5313 Q1143.9063,16.6875 1144.4688,16.9844 L1144.4688,19.7031 Q1143.8438,19.125 1143.25,18.8594 Q1142.6563,18.5781 1142.0313,18.5781 Q1140.6875,18.5781 1140,19.6563 Q1139.3125,20.7188 1139.3125,22.8125 Q1139.3125,24.9063 1140,25.9844 Q1140.6875,27.0469 1142.0313,27.0469 Q1142.6563,27.0469 1143.25,26.7813 Q1143.8438,26.5 1144.4688,25.9219 L1144.4688,28.6406 Z " fill="#000000"/><text fill="#000000" font-family="sans-serif" font-size="14" lengthAdjust="spacing" textLength="52.4932" x="1155.5" y="27.8467">Sample</text><line style="stroke:#181818;stroke-width:0.5;" x1="1127.5" x2="1209.9932" y1="39" y2="39"/><line style="stroke:#181818;stroke-width:0.5;" x1="1127.5" x2="1209.9932" y1="47" y2="47"/></g><!--class MaterialSample--><g class="entity" data-qualified-name="MaterialSample" data-source-line="2" id="ent0005"><rect fill="#F1F1F1" height="48" rx="2.5" ry="2.5" style="stroke:#181818;stroke-width:0.5;" width="141.3682" x="926" y="115"/><ellipse cx="941" cy="131" fill="#ADD1B2" rx="11" ry="11" style="stroke:#181818;stroke-width:1;"/><path d="M943.9688,136.6406 Q943.3906,136.9375 942.75,137.0781 Q942.1094,137.2344 941.4063,137.2344 Q938.9063,137.2344 937.5781,135.5938 Q936.2656,133.9375 936.2656,130.8125 Q936.2656,127.6875 937.5781,126.0313 Q938.9063,124.375 941.4063,124.375 Q942.1094,124.375 942.75,124.5313 Q943.4063,124.6875 943.9688,124.9844 L943.9688,127.7031 Q943.3438,127.125 942.75,126.8594 Q942.1563,126.5781 941.5313,126.5781 Q940.1875,126.5781 939.5,127.6563 Q938.8125,128.7188 938.8125,130.8125 Q938.8125,132.9063 939.5,133.9844 Q940.1875,135.0469 941.5313,135.0469 Q942.1563,135.0469 942.75,134.7813 Q943.3438,134.5 943.9688,133.9219 L943.9688,136.6406 Z " fill="#000000"/><text fill="#000000" font-family="sans-serif" font-size="14" lengthAdjust="spacing" textLength="109.3682" x="955" y="135.8467">MaterialSample</text><line style="stroke:#181818;stroke-width:0.5;" x1="927" x2="1066.3682" y1="147" y2="147"/><line style="stroke:#181818;stroke-width:0.5;" x1="927" x2="1066.3682" y1="155" y2="155"/></g><!--class SpatialSample--><g class="entity" data-qualified-name="SpatialSample" data-source-line="3" id="ent0007"><rect fill="#F1F1F1" height="48" rx="2.5" ry="2.5" style="stroke:#181818;stroke-width:0.5;" width="132.6934" x="1102" y="115"/><ellipse cx="1117" cy="131" fill="#ADD1B2" rx="11" ry="11" style="stroke:#181818;stroke-width:1;"/><path d="M1119.9688,136.6406 Q1119.3906,136.9375 1118.75,137.0781 Q1118.1094,137.2344 1117.4063,137.2344 Q1114.9063,137.2344 1113.5781,135.5938 Q1112.2656,133.9375 1112.2656,130.8125 Q1112.2656,127.6875 1113.5781,126.0313 Q1114.9063,124.375 1117.4063,124.375 Q1118.1094,124.375 1118.75,124.5313 Q1119.4063,124.6875 1119.9688,124.9844 L1119.9688,127.7031 Q1119.3438,127.125 1118.75,126.8594 Q1118.1563,126.5781 1117.5313,126.5781 Q1116.1875,126.5781 1115.5,127.6563 Q1114.8125,128.7188 1114.8125,130.8125 Q1114.8125,132.9063 1115.5,133.9844 Q1116.1875,135.0469 1117.5313,135.0469 Q1118.1563,135.0469 1118.75,134.7813 Q1119.3438,134.5 1119.9688,133.9219 L1119.9688,136.6406 Z " fill="#000000"/><text fill="#000000" font-family="sans-serif" font-size="14" lengthAdjust="spacing" textLength="100.6934" x="1131" y="135.8467">SpatialSample</text><line style="stroke:#181818;stroke-width:0.5;" x1="1103" x2="1233.6934" y1="147" y2="147"/><line style="stroke:#181818;stroke-width:0.5;" x1="1103" x2="1233.6934" y1="155" y2="155"/></g><!--class StatisticalSample--><g class="entity" data-qualified-name="StatisticalSample" data-source-line="4" id="ent0009"><rect fill="#F1F1F1" height="48" rx="2.5" ry="2.5" style="stroke:#181818;stroke-width:0.5;" width="153.666" x="1270.5" y="115"/><ellipse cx="1285.5" cy="131" fill="#ADD1B2" rx="11" ry="11" style="stroke:#181818;stroke-width:1;"/><path d="M1288.4688,136.6406 Q1287.8906,136.9375 1287.25,137.0781 Q1286.6094,137.2344 1285.9063,137.2344 Q1283.4063,137.2344 1282.0781,135.5938 Q1280.7656,133.9375 1280.7656,130.8125 Q1280.7656,127.6875 1282.0781,126.0313 Q1283.4063,124.375 1285.9063,124.375 Q1286.6094,124.375 1287.25,124.5313 Q1287.9063,124.6875 1288.4688,124.9844 L1288.4688,127.7031 Q1287.8438,127.125 1287.25,126.8594 Q1286.6563,126.5781 1286.0313,126.5781 Q1284.6875,126.5781 1284,127.6563 Q1283.3125,128.7188 1283.3125,130.8125 Q1283.3125,132.9063 1284,133.9844 Q1284.6875,135.0469 1286.0313,135.0469 Q1286.6563,135.0469 1287.25,134.7813 Q1287.8438,134.5 1288.4688,133.9219 L1288.4688,136.6406 Z " fill="#000000"/><text fill="#000000" font-family="sans-serif" font-size="14" lengthAdjust="spacing" textLength="121.666" x="1299.5" y="135.8467">StatisticalSample</text><line style="stroke:#181818;stroke-width:0.5;" x1="1271.5" x2="1423.166" y1="147" y2="147"/><line style="stroke:#181818;stroke-width:0.5;" x1="1271.5" x2="1423.166" y1="155" y2="155"/></g><!--class ObservableProperty--><g class="entity" data-qualified-name="ObservableProperty" data-source-line="5" id="ent0011"><rect fill="#F1F1F1" height="48" rx="2.5" ry="2.5" style="stroke:#181818;stroke-width:0.5;" width="171.6172" x="718.5" y="115"/><ellipse cx="733.5" cy="131" fill="#ADD1B2" rx="11" ry="11" style="stroke:#181818;stroke-width:1;"/><path d="M736.4688,136.6406 Q735.8906,136.9375 735.25,137.0781 Q734.6094,137.2344 733.9063,137.2344 Q731.4063,137.2344 730.0781,135.5938 Q728.7656,133.9375 728.7656,130.8125 Q728.7656,127.6875 730.0781,126.0313 Q731.4063,124.375 733.9063,124.375 Q734.6094,124.375 735.25,124.5313 Q735.9063,124.6875 736.4688,124.9844 L736.4688,127.7031 Q735.8438,127.125 735.25,126.8594 Q734.6563,126.5781 734.0313,126.5781 Q732.6875,126.5781 732,127.6563 Q731.3125,128.7188 731.3125,130.8125 Q731.3125,132.9063 732,133.9844 Q732.6875,135.0469 734.0313,135.0469 Q734.6563,135.0469 735.25,134.7813 Q735.8438,134.5 736.4688,133.9219 L736.4688,136.6406 Z " fill="#000000"/><text fill="#000000" font-family="sans-serif" font-size="14" lengthAdjust="spacing" textLength="139.6172" x="747.5" y="135.8467">ObservableProperty</text><line style="stroke:#181818;stroke-width:0.5;" x1="719.5" x2="889.1172" y1="147" y2="147"/><line style="stroke:#181818;stroke-width:0.5;" x1="719.5" x2="889.1172" y1="155" y2="155"/></g><!--class Procedure--><g class="entity" data-qualified-name="Procedure" data-source-line="6" id="ent0013"><rect fill="#F1F1F1" height="48" rx="2.5" ry="2.5" style="stroke:#181818;stroke-width:0.5;" width="103.2031" x="1702" y="7"/><ellipse cx="1717" cy="23" fill="#ADD1B2" rx="11" ry="11" style="stroke:#181818;stroke-width:1;"/><path d="M1719.9688,28.6406 Q1719.3906,28.9375 1718.75,29.0781 Q1718.1094,29.2344 1717.4063,29.2344 Q1714.9063,29.2344 1713.5781,27.5938 Q1712.2656,25.9375 1712.2656,22.8125 Q1712.2656,19.6875 1713.5781,18.0313 Q1714.9063,16.375 1717.4063,16.375 Q1718.1094,16.375 1718.75,16.5313 Q1719.4063,16.6875 1719.9688,16.9844 L1719.9688,19.7031 Q1719.3438,19.125 1718.75,18.8594 Q1718.1563,18.5781 1717.5313,18.5781 Q1716.1875,18.5781 1715.5,19.6563 Q1714.8125,20.7188 1714.8125,22.8125 Q1714.8125,24.9063 1715.5,25.9844 Q1716.1875,27.0469 1717.5313,27.0469 Q1718.1563,27.0469 1718.75,26.7813 Q1719.3438,26.5 1719.9688,25.9219 L1719.9688,28.6406 Z " fill="#000000"/><text fill="#000000" font-family="sans-serif" font-size="14" lengthAdjust="spacing" textLength="71.2031" x="1731" y="27.8467">Procedure</text><line style="stroke:#181818;stroke-width:0.5;" x1="1703" x2="1804.2031" y1="39" y2="39"/><line style="stroke:#181818;stroke-width:0.5;" x1="1703" x2="1804.2031" y1="47" y2="47"/></g><!--class ActuatingProcedure--><g class="entity" data-qualified-name="ActuatingProcedure" data-source-line="6" id="ent0014"><rect fill="#F1F1F1" height="48" rx="2.5" ry="2.5" style="stroke:#181818;stroke-width:0.5;" width="170.5576" x="1460" y="115"/><ellipse cx="1475" cy="131" fill="#ADD1B2" rx="11" ry="11" style="stroke:#181818;stroke-width:1;"/><path d="M1477.9688,136.6406 Q1477.3906,136.9375 1476.75,137.0781 Q1476.1094,137.2344 1475.4063,137.2344 Q1472.9063,137.2344 1471.5781,135.5938 Q1470.2656,133.9375 1470.2656,130.8125 Q1470.2656,127.6875 1471.5781,126.0313 Q1472.9063,124.375 1475.4063,124.375 Q1476.1094,124.375 1476.75,124.5313 Q1477.4063,124.6875 1477.9688,124.9844 L1477.9688,127.7031 Q1477.3438,127.125 1476.75,126.8594 Q1476.1563,126.5781 1475.5313,126.5781 Q1474.1875,126.5781 1473.5,127.6563 Q1472.8125,128.7188 1472.8125,130.8125 Q1472.8125,132.9063 1473.5,133.9844 Q1474.1875,135.0469 1475.5313,135.0469 Q1476.1563,135.0469 1476.75,134.7813 Q1477.3438,134.5 1477.9688,133.9219 L1477.9688,136.6406 Z " fill="#000000"/><text fill="#000000" font-family="sans-serif" font-size="14" lengthAdjust="spacing" textLength="138.5576" x="1489" y="135.8467">ActuatingProcedure</text><line style="stroke:#181818;stroke-width:0.5;" x1="1461" x2="1629.5576" y1="147" y2="147"/><line style="stroke:#181818;stroke-width:0.5;" x1="1461" x2="1629.5576" y1="155" y2="155"/></g><!--class ObservingProcedure--><g class="entity" data-qualified-name="ObservingProcedure" data-source-line="7" id="ent0016"><rect fill="#F1F1F1" height="48" rx="2.5" ry="2.5" style="stroke:#181818;stroke-width:0.5;" width="174.707" x="1666" y="115"/><ellipse cx="1681" cy="131" fill="#ADD1B2" rx="11" ry="11" style="stroke:#181818;stroke-width:1;"/><path d="M1683.9688,136.6406 Q1683.3906,136.9375 1682.75,137.0781 Q1682.1094,137.2344 1681.4063,137.2344 Q1678.9063,137.2344 1677.5781,135.5938 Q1676.2656,133.9375 1676.2656,130.8125 Q1676.2656,127.6875 1677.5781,126.0313 Q1678.9063,124.375 1681.4063,124.375 Q1682.1094,124.375 1682.75,124.5313 Q1683.4063,124.6875 1683.9688,124.9844 L1683.9688,127.7031 Q1683.3438,127.125 1682.75,126.8594 Q1682.1563,126.5781 1681.5313,126.5781 Q1680.1875,126.5781 1679.5,127.6563 Q1678.8125,128.7188 1678.8125,130.8125 Q1678.8125,132.9063 1679.5,133.9844 Q1680.1875,135.0469 1681.5313,135.0469 Q1682.1563,135.0469 1682.75,134.7813 Q1683.3438,134.5 1683.9688,133.9219 L1683.9688,136.6406 Z " fill="#000000"/><text fill="#000000" font-family="sans-serif" font-size="14" lengthAdjust="spacing" textLength="142.707" x="1695" y="135.8467">ObservingProcedure</text><line style="stroke:#181818;stroke-width:0.5;" x1="1667" x2="1839.707" y1="147" y2="147"/><line style="stroke:#181818;stroke-width:0.5;" x1="1667" x2="1839.707" y1="155" y2="155"/></g><!--class SamplingProcedure--><g class="entity" data-qualified-name="SamplingProcedure" data-source-line="8" id="ent0018"><rect fill="#F1F1F1" height="48" rx="2.5" ry="2.5" style="stroke:#181818;stroke-width:0.5;" width="168.7324" x="1876" y="115"/><ellipse cx="1891" cy="131" fill="#ADD1B2" rx="11" ry="11" style="stroke:#181818;stroke-width:1;"/><path d="M1893.9688,136.6406 Q1893.3906,136.9375 1892.75,137.0781 Q1892.1094,137.2344 1891.4063,137.2344 Q1888.9063,137.2344 1887.5781,135.5938 Q1886.2656,133.9375 1886.2656,130.8125 Q1886.2656,127.6875 1887.5781,126.0313 Q1888.9063,124.375 1891.4063,124.375 Q1892.1094,124.375 1892.75,124.5313 Q1893.4063,124.6875 1893.9688,124.9844 L1893.9688,127.7031 Q1893.3438,127.125 1892.75,126.8594 Q1892.1563,126.5781 1891.5313,126.5781 Q1890.1875,126.5781 1889.5,127.6563 Q1888.8125,128.7188 1888.8125,130.8125 Q1888.8125,132.9063 1889.5,133.9844 Q1890.1875,135.0469 1891.5313,135.0469 Q1892.1563,135.0469 1892.75,134.7813 Q1893.3438,134.5 1893.9688,133.9219 L1893.9688,136.6406 Z " fill="#000000"/><text fill="#000000" font-family="sans-serif" font-size="14" lengthAdjust="spacing" textLength="136.7324" x="1905" y="135.8467">SamplingProcedure</text><line style="stroke:#181818;stroke-width:0.5;" x1="1877" x2="2043.7324" y1="147" y2="147"/><line style="stroke:#181818;stroke-width:0.5;" x1="1877" x2="2043.7324" y1="155" y2="155"/></g><!--class Asset--><g class="entity" data-qualified-name="Asset" data-source-line="9" id="ent0020"><rect fill="#F1F1F1" height="48" rx="2.5" ry="2.5" style="stroke:#181818;stroke-width:0.5;" width="70.2676" x="2151.5" y="7"/><ellipse cx="2166.5" cy="23" fill="#ADD1B2" rx="11" ry="11" style="stroke:#181818;stroke-width:1;"/><path d="M2169.4688,28.6406 Q2168.8906,28.9375 2168.25,29.0781 Q2167.6094,29.2344 2166.9063,29.2344 Q2164.4063,29.2344 2163.0781,27.5938 Q2161.7656,25.9375 2161.7656,22.8125 Q2161.7656,19.6875 2163.0781,18.0313 Q2164.4063,16.375 2166.9063,16.375 Q2167.6094,16.375 2168.25,16.5313 Q2168.9063,16.6875 2169.4688,16.9844 L2169.4688,19.7031 Q2168.8438,19.125 2168.25,18.8594 Q2167.6563,18.5781 2167.0313,18.5781 Q2165.6875,18.5781 2165,19.6563 Q2164.3125,20.7188 2164.3125,22.8125 Q2164.3125,24.9063 2165,25.9844 Q2165.6875,27.0469 2167.0313,27.0469 Q2167.6563,27.0469 2168.25,26.7813 Q2168.8438,26.5 2169.4688,25.9219 L2169.4688,28.6406 Z " fill="#000000"/><text fill="#000000" font-family="sans-serif" font-size="14" lengthAdjust="spacing" textLength="38.2676" x="2180.5" y="27.8467">Asset</text><line style="stroke:#181818;stroke-width:0.5;" x1="2152.5" x2="2220.7676" y1="39" y2="39"/><line style="stroke:#181818;stroke-width:0.5;" x1="2152.5" x2="2220.7676" y1="47" y2="47"/></g><!--class Platform--><g class="entity" data-qualified-name="Platform" data-source-line="9" id="ent0021"><rect fill="#F1F1F1" height="48" rx="2.5" ry="2.5" style="stroke:#181818;stroke-width:0.5;" width="91.2881" x="2080" y="115"/><ellipse cx="2095" cy="131" fill="#ADD1B2" rx="11" ry="11" style="stroke:#181818;stroke-width:1;"/><path d="M2097.9688,136.6406 Q2097.3906,136.9375 2096.75,137.0781 Q2096.1094,137.2344 2095.4063,137.2344 Q2092.9063,137.2344 2091.5781,135.5938 Q2090.2656,133.9375 2090.2656,130.8125 Q2090.2656,127.6875 2091.5781,126.0313 Q2092.9063,124.375 2095.4063,124.375 Q2096.1094,124.375 2096.75,124.5313 Q2097.4063,124.6875 2097.9688,124.9844 L2097.9688,127.7031 Q2097.3438,127.125 2096.75,126.8594 Q2096.1563,126.5781 2095.5313,126.5781 Q2094.1875,126.5781 2093.5,127.6563 Q2092.8125,128.7188 2092.8125,130.8125 Q2092.8125,132.9063 2093.5,133.9844 Q2094.1875,135.0469 2095.5313,135.0469 Q2096.1563,135.0469 2096.75,134.7813 Q2097.3438,134.5 2097.9688,133.9219 L2097.9688,136.6406 Z " fill="#000000"/><text fill="#000000" font-family="sans-serif" font-size="14" lengthAdjust="spacing" textLength="59.2881" x="2109" y="135.8467">Platform</text><line style="stroke:#181818;stroke-width:0.5;" x1="2081" x2="2170.2881" y1="147" y2="147"/><line style="stroke:#181818;stroke-width:0.5;" x1="2081" x2="2170.2881" y1="155" y2="155"/></g><!--class System--><g class="entity" data-qualified-name="System" data-source-line="10" id="ent0023"><rect fill="#F1F1F1" height="48" rx="2.5" ry="2.5" style="stroke:#181818;stroke-width:0.5;" width="84.2061" x="2206.5" y="115"/><ellipse cx="2221.5" cy="131" fill="#ADD1B2" rx="11" ry="11" style="stroke:#181818;stroke-width:1;"/><path d="M2224.4688,136.6406 Q2223.8906,136.9375 2223.25,137.0781 Q2222.6094,137.2344 2221.9063,137.2344 Q2219.4063,137.2344 2218.0781,135.5938 Q2216.7656,133.9375 2216.7656,130.8125 Q2216.7656,127.6875 2218.0781,126.0313 Q2219.4063,124.375 2221.9063,124.375 Q2222.6094,124.375 2223.25,124.5313 Q2223.9063,124.6875 2224.4688,124.9844 L2224.4688,127.7031 Q2223.8438,127.125 2223.25,126.8594 Q2222.6563,126.5781 2222.0313,126.5781 Q2220.6875,126.5781 2220,127.6563 Q2219.3125,128.7188 2219.3125,130.8125 Q2219.3125,132.9063 2220,133.9844 Q2220.6875,135.0469 2222.0313,135.0469 Q2222.6563,135.0469 2223.25,134.7813 Q2223.8438,134.5 2224.4688,133.9219 L2224.4688,136.6406 Z " fill="#000000"/><text fill="#000000" font-family="sans-serif" font-size="14" lengthAdjust="spacing" textLength="52.2061" x="2235.5" y="135.8467">System</text><line style="stroke:#181818;stroke-width:0.5;" x1="2207.5" x2="2289.7061" y1="147" y2="147"/><line style="stroke:#181818;stroke-width:0.5;" x1="2207.5" x2="2289.7061" y1="155" y2="155"/></g><!--class Sampler--><g class="entity" data-qualified-name="Sampler" data-source-line="10" id="ent0024"><rect fill="#F1F1F1" height="48" rx="2.5" ry="2.5" style="stroke:#181818;stroke-width:0.5;" width="90.249" x="2077.5" y="223"/><ellipse cx="2092.5" cy="239" fill="#ADD1B2" rx="11" ry="11" style="stroke:#181818;stroke-width:1;"/><path d="M2095.4688,244.6406 Q2094.8906,244.9375 2094.25,245.0781 Q2093.6094,245.2344 2092.9063,245.2344 Q2090.4063,245.2344 2089.0781,243.5938 Q2087.7656,241.9375 2087.7656,238.8125 Q2087.7656,235.6875 2089.0781,234.0313 Q2090.4063,232.375 2092.9063,232.375 Q2093.6094,232.375 2094.25,232.5313 Q2094.9063,232.6875 2095.4688,232.9844 L2095.4688,235.7031 Q2094.8438,235.125 2094.25,234.8594 Q2093.6563,234.5781 2093.0313,234.5781 Q2091.6875,234.5781 2091,235.6563 Q2090.3125,236.7188 2090.3125,238.8125 Q2090.3125,240.9063 2091,241.9844 Q2091.6875,243.0469 2093.0313,243.0469 Q2093.6563,243.0469 2094.25,242.7813 Q2094.8438,242.5 2095.4688,241.9219 L2095.4688,244.6406 Z " fill="#000000"/><text fill="#000000" font-family="sans-serif" font-size="14" lengthAdjust="spacing" textLength="58.249" x="2106.5" y="243.8467">Sampler</text><line style="stroke:#181818;stroke-width:0.5;" x1="2078.5" x2="2166.749" y1="255" y2="255"/><line style="stroke:#181818;stroke-width:0.5;" x1="2078.5" x2="2166.749" y1="263" y2="263"/></g><!--class Actuator--><g class="entity" data-qualified-name="Actuator" data-source-line="11" id="ent0026"><rect fill="#F1F1F1" height="48" rx="2.5" ry="2.5" style="stroke:#181818;stroke-width:0.5;" width="92.0264" x="2202.5" y="223"/><ellipse cx="2217.5" cy="239" fill="#ADD1B2" rx="11" ry="11" style="stroke:#181818;stroke-width:1;"/><path d="M2220.4688,244.6406 Q2219.8906,244.9375 2219.25,245.0781 Q2218.6094,245.2344 2217.9063,245.2344 Q2215.4063,245.2344 2214.0781,243.5938 Q2212.7656,241.9375 2212.7656,238.8125 Q2212.7656,235.6875 2214.0781,234.0313 Q2215.4063,232.375 2217.9063,232.375 Q2218.6094,232.375 2219.25,232.5313 Q2219.9063,232.6875 2220.4688,232.9844 L2220.4688,235.7031 Q2219.8438,235.125 2219.25,234.8594 Q2218.6563,234.5781 2218.0313,234.5781 Q2216.6875,234.5781 2216,235.6563 Q2215.3125,236.7188 2215.3125,238.8125 Q2215.3125,240.9063 2216,241.9844 Q2216.6875,243.0469 2218.0313,243.0469 Q2218.6563,243.0469 2219.25,242.7813 Q2219.8438,242.5 2220.4688,241.9219 L2220.4688,244.6406 Z " fill="#000000"/><text fill="#000000" font-family="sans-serif" font-size="14" lengthAdjust="spacing" textLength="60.0264" x="2231.5" y="243.8467">Actuator</text><line style="stroke:#181818;stroke-width:0.5;" x1="2203.5" x2="2293.5264" y1="255" y2="255"/><line style="stroke:#181818;stroke-width:0.5;" x1="2203.5" x2="2293.5264" y1="263" y2="263"/></g><!--class Execution--><g class="entity" data-qualified-name="Execution" data-source-line="13" id="ent0029"><rect fill="#F1F1F1" height="48" rx="2.5" ry="2.5" style="stroke:#181818;stroke-width:0.5;" width="101.1318" x="2458" y="7"/><ellipse cx="2473" cy="23" fill="#ADD1B2" rx="11" ry="11" style="stroke:#181818;stroke-width:1;"/><path d="M2475.9688,28.6406 Q2475.3906,28.9375 2474.75,29.0781 Q2474.1094,29.2344 2473.4063,29.2344 Q2470.9063,29.2344 2469.5781,27.5938 Q2468.2656,25.9375 2468.2656,22.8125 Q2468.2656,19.6875 2469.5781,18.0313 Q2470.9063,16.375 2473.4063,16.375 Q2474.1094,16.375 2474.75,16.5313 Q2475.4063,16.6875 2475.9688,16.9844 L2475.9688,19.7031 Q2475.3438,19.125 2474.75,18.8594 Q2474.1563,18.5781 2473.5313,18.5781 Q2472.1875,18.5781 2471.5,19.6563 Q2470.8125,20.7188 2470.8125,22.8125 Q2470.8125,24.9063 2471.5,25.9844 Q2472.1875,27.0469 2473.5313,27.0469 Q2474.1563,27.0469 2474.75,26.7813 Q2475.3438,26.5 2475.9688,25.9219 L2475.9688,28.6406 Z " fill="#000000"/><text fill="#000000" font-family="sans-serif" font-size="14" lengthAdjust="spacing" textLength="69.1318" x="2487" y="27.8467">Execution</text><line style="stroke:#181818;stroke-width:0.5;" x1="2459" x2="2558.1318" y1="39" y2="39"/><line style="stroke:#181818;stroke-width:0.5;" x1="2459" x2="2558.1318" y1="47" y2="47"/></g><!--class Sampling--><g class="entity" data-qualified-name="Sampling" data-source-line="13" id="ent0030"><rect fill="#F1F1F1" height="48" rx="2.5" ry="2.5" style="stroke:#181818;stroke-width:0.5;" width="97.5293" x="2325.5" y="115"/><ellipse cx="2340.5" cy="131" fill="#ADD1B2" rx="11" ry="11" style="stroke:#181818;stroke-width:1;"/><path d="M2343.4688,136.6406 Q2342.8906,136.9375 2342.25,137.0781 Q2341.6094,137.2344 2340.9063,137.2344 Q2338.4063,137.2344 2337.0781,135.5938 Q2335.7656,133.9375 2335.7656,130.8125 Q2335.7656,127.6875 2337.0781,126.0313 Q2338.4063,124.375 2340.9063,124.375 Q2341.6094,124.375 2342.25,124.5313 Q2342.9063,124.6875 2343.4688,124.9844 L2343.4688,127.7031 Q2342.8438,127.125 2342.25,126.8594 Q2341.6563,126.5781 2341.0313,126.5781 Q2339.6875,126.5781 2339,127.6563 Q2338.3125,128.7188 2338.3125,130.8125 Q2338.3125,132.9063 2339,133.9844 Q2339.6875,135.0469 2341.0313,135.0469 Q2341.6563,135.0469 2342.25,134.7813 Q2342.8438,134.5 2343.4688,133.9219 L2343.4688,136.6406 Z " fill="#000000"/><text fill="#000000" font-family="sans-serif" font-size="14" lengthAdjust="spacing" textLength="65.5293" x="2354.5" y="135.8467">Sampling</text><line style="stroke:#181818;stroke-width:0.5;" x1="2326.5" x2="2422.0293" y1="147" y2="147"/><line style="stroke:#181818;stroke-width:0.5;" x1="2326.5" x2="2422.0293" y1="155" y2="155"/></g><!--class ExecutionCollection--><g class="entity" data-qualified-name="ExecutionCollection" data-source-line="14" id="ent0032"><rect fill="#F1F1F1" height="48" rx="2.5" ry="2.5" style="stroke:#181818;stroke-width:0.5;" width="170.3799" x="2945.5" y="7"/><ellipse cx="2960.5" cy="23" fill="#ADD1B2" rx="11" ry="11" style="stroke:#181818;stroke-width:1;"/><path d="M2963.4688,28.6406 Q2962.8906,28.9375 2962.25,29.0781 Q2961.6094,29.2344 2960.9063,29.2344 Q2958.4063,29.2344 2957.0781,27.5938 Q2955.7656,25.9375 2955.7656,22.8125 Q2955.7656,19.6875 2957.0781,18.0313 Q2958.4063,16.375 2960.9063,16.375 Q2961.6094,16.375 2962.25,16.5313 Q2962.9063,16.6875 2963.4688,16.9844 L2963.4688,19.7031 Q2962.8438,19.125 2962.25,18.8594 Q2961.6563,18.5781 2961.0313,18.5781 Q2959.6875,18.5781 2959,19.6563 Q2958.3125,20.7188 2958.3125,22.8125 Q2958.3125,24.9063 2959,25.9844 Q2959.6875,27.0469 2961.0313,27.0469 Q2961.6563,27.0469 2962.25,26.7813 Q2962.8438,26.5 2963.4688,25.9219 L2963.4688,28.6406 Z " fill="#000000"/><text fill="#000000" font-family="sans-serif" font-size="14" lengthAdjust="spacing" textLength="138.3799" x="2974.5" y="27.8467">ExecutionCollection</text><line style="stroke:#181818;stroke-width:0.5;" x1="2946.5" x2="3114.8799" y1="39" y2="39"/><line style="stroke:#181818;stroke-width:0.5;" x1="2946.5" x2="3114.8799" y1="47" y2="47"/></g><!--class SamplingCollection--><g class="entity" data-qualified-name="SamplingCollection" data-source-line="14" id="ent0033"><rect fill="#F1F1F1" height="48" rx="2.5" ry="2.5" style="stroke:#181818;stroke-width:0.5;" width="166.7773" x="2745" y="115"/><ellipse cx="2760" cy="131" fill="#ADD1B2" rx="11" ry="11" style="stroke:#181818;stroke-width:1;"/><path d="M2762.9688,136.6406 Q2762.3906,136.9375 2761.75,137.0781 Q2761.1094,137.2344 2760.4063,137.2344 Q2757.9063,137.2344 2756.5781,135.5938 Q2755.2656,133.9375 2755.2656,130.8125 Q2755.2656,127.6875 2756.5781,126.0313 Q2757.9063,124.375 2760.4063,124.375 Q2761.1094,124.375 2761.75,124.5313 Q2762.4063,124.6875 2762.9688,124.9844 L2762.9688,127.7031 Q2762.3438,127.125 2761.75,126.8594 Q2761.1563,126.5781 2760.5313,126.5781 Q2759.1875,126.5781 2758.5,127.6563 Q2757.8125,128.7188 2757.8125,130.8125 Q2757.8125,132.9063 2758.5,133.9844 Q2759.1875,135.0469 2760.5313,135.0469 Q2761.1563,135.0469 2761.75,134.7813 Q2762.3438,134.5 2762.9688,133.9219 L2762.9688,136.6406 Z " fill="#000000"/><text fill="#000000" font-family="sans-serif" font-size="14" lengthAdjust="spacing" textLength="134.7773" x="2774" y="135.8467">SamplingCollection</text><line style="stroke:#181818;stroke-width:0.5;" x1="2746" x2="2910.7773" y1="147" y2="147"/><line style="stroke:#181818;stroke-width:0.5;" x1="2746" x2="2910.7773" y1="155" y2="155"/></g><!--class Actuation--><g class="entity" data-qualified-name="Actuation" data-source-line="15" id="ent0035"><rect fill="#F1F1F1" height="48" rx="2.5" ry="2.5" style="stroke:#181818;stroke-width:0.5;" width="99.0332" x="2459" y="115"/><ellipse cx="2474" cy="131" fill="#ADD1B2" rx="11" ry="11" style="stroke:#181818;stroke-width:1;"/><path d="M2476.9688,136.6406 Q2476.3906,136.9375 2475.75,137.0781 Q2475.1094,137.2344 2474.4063,137.2344 Q2471.9063,137.2344 2470.5781,135.5938 Q2469.2656,133.9375 2469.2656,130.8125 Q2469.2656,127.6875 2470.5781,126.0313 Q2471.9063,124.375 2474.4063,124.375 Q2475.1094,124.375 2475.75,124.5313 Q2476.4063,124.6875 2476.9688,124.9844 L2476.9688,127.7031 Q2476.3438,127.125 2475.75,126.8594 Q2475.1563,126.5781 2474.5313,126.5781 Q2473.1875,126.5781 2472.5,127.6563 Q2471.8125,128.7188 2471.8125,130.8125 Q2471.8125,132.9063 2472.5,133.9844 Q2473.1875,135.0469 2474.5313,135.0469 Q2475.1563,135.0469 2475.75,134.7813 Q2476.3438,134.5 2476.9688,133.9219 L2476.9688,136.6406 Z " fill="#000000"/><text fill="#000000" font-family="sans-serif" font-size="14" lengthAdjust="spacing" textLength="67.0332" x="2488" y="135.8467">Actuation</text><line style="stroke:#181818;stroke-width:0.5;" x1="2460" x2="2557.0332" y1="147" y2="147"/><line style="stroke:#181818;stroke-width:0.5;" x1="2460" x2="2557.0332" y1="155" y2="155"/></g><!--class Sensor--><g class="entity" data-qualified-name="Sensor" data-source-line="16" id="ent0037"><rect fill="#F1F1F1" height="48" rx="2.5" ry="2.5" style="stroke:#181818;stroke-width:0.5;" width="79.9883" x="2329.5" y="223"/><ellipse cx="2344.5" cy="239" fill="#ADD1B2" rx="11" ry="11" style="stroke:#181818;stroke-width:1;"/><path d="M2347.4688,244.6406 Q2346.8906,244.9375 2346.25,245.0781 Q2345.6094,245.2344 2344.9063,245.2344 Q2342.4063,245.2344 2341.0781,243.5938 Q2339.7656,241.9375 2339.7656,238.8125 Q2339.7656,235.6875 2341.0781,234.0313 Q2342.4063,232.375 2344.9063,232.375 Q2345.6094,232.375 2346.25,232.5313 Q2346.9063,232.6875 2347.4688,232.9844 L2347.4688,235.7031 Q2346.8438,235.125 2346.25,234.8594 Q2345.6563,234.5781 2345.0313,234.5781 Q2343.6875,234.5781 2343,235.6563 Q2342.3125,236.7188 2342.3125,238.8125 Q2342.3125,240.9063 2343,241.9844 Q2343.6875,243.0469 2345.0313,243.0469 Q2345.6563,243.0469 2346.25,242.7813 Q2346.8438,242.5 2347.4688,241.9219 L2347.4688,244.6406 Z " fill="#000000"/><text fill="#000000" font-family="sans-serif" font-size="14" lengthAdjust="spacing" textLength="47.9883" x="2358.5" y="243.8467">Sensor</text><line style="stroke:#181818;stroke-width:0.5;" x1="2330.5" x2="2408.4883" y1="255" y2="255"/><line style="stroke:#181818;stroke-width:0.5;" x1="2330.5" x2="2408.4883" y1="263" y2="263"/></g><!--class ActuationCollection--><g class="entity" data-qualified-name="ActuationCollection" data-source-line="17" id="ent0039"><rect fill="#F1F1F1" height="48" rx="2.5" ry="2.5" style="stroke:#181818;stroke-width:0.5;" width="168.2813" x="2946.5" y="115"/><ellipse cx="2961.5" cy="131" fill="#ADD1B2" rx="11" ry="11" style="stroke:#181818;stroke-width:1;"/><path d="M2964.4688,136.6406 Q2963.8906,136.9375 2963.25,137.0781 Q2962.6094,137.2344 2961.9063,137.2344 Q2959.4063,137.2344 2958.0781,135.5938 Q2956.7656,133.9375 2956.7656,130.8125 Q2956.7656,127.6875 2958.0781,126.0313 Q2959.4063,124.375 2961.9063,124.375 Q2962.6094,124.375 2963.25,124.5313 Q2963.9063,124.6875 2964.4688,124.9844 L2964.4688,127.7031 Q2963.8438,127.125 2963.25,126.8594 Q2962.6563,126.5781 2962.0313,126.5781 Q2960.6875,126.5781 2960,127.6563 Q2959.3125,128.7188 2959.3125,130.8125 Q2959.3125,132.9063 2960,133.9844 Q2960.6875,135.0469 2962.0313,135.0469 Q2962.6563,135.0469 2963.25,134.7813 Q2963.8438,134.5 2964.4688,133.9219 L2964.4688,136.6406 Z " fill="#000000"/><text fill="#000000" font-family="sans-serif" font-size="14" lengthAdjust="spacing" textLength="136.2813" x="2975.5" y="135.8467">ActuationCollection</text><line style="stroke:#181818;stroke-width:0.5;" x1="2947.5" x2="3113.7813" y1="147" y2="147"/><line style="stroke:#181818;stroke-width:0.5;" x1="2947.5" x2="3113.7813" y1="155" y2="155"/></g><!--class ObservationCollection--><g class="entity" data-qualified-name="ObservationCollection" data-source-line="18" id="ent0041"><rect fill="#F1F1F1" height="48" rx="2.5" ry="2.5" style="stroke:#181818;stroke-width:0.5;" width="186.499" x="3149.5" y="115"/><ellipse cx="3164.5" cy="131" fill="#ADD1B2" rx="11" ry="11" style="stroke:#181818;stroke-width:1;"/><path d="M3167.4688,136.6406 Q3166.8906,136.9375 3166.25,137.0781 Q3165.6094,137.2344 3164.9063,137.2344 Q3162.4063,137.2344 3161.0781,135.5938 Q3159.7656,133.9375 3159.7656,130.8125 Q3159.7656,127.6875 3161.0781,126.0313 Q3162.4063,124.375 3164.9063,124.375 Q3165.6094,124.375 3166.25,124.5313 Q3166.9063,124.6875 3167.4688,124.9844 L3167.4688,127.7031 Q3166.8438,127.125 3166.25,126.8594 Q3165.6563,126.5781 3165.0313,126.5781 Q3163.6875,126.5781 3163,127.6563 Q3162.3125,128.7188 3162.3125,130.8125 Q3162.3125,132.9063 3163,133.9844 Q3163.6875,135.0469 3165.0313,135.0469 Q3165.6563,135.0469 3166.25,134.7813 Q3166.8438,134.5 3167.4688,133.9219 L3167.4688,136.6406 Z " fill="#000000"/><text fill="#000000" font-family="sans-serif" font-size="14" lengthAdjust="spacing" textLength="154.499" x="3178.5" y="135.8467">ObservationCollection</text><line style="stroke:#181818;stroke-width:0.5;" x1="3150.5" x2="3334.999" y1="147" y2="147"/><line style="stroke:#181818;stroke-width:0.5;" x1="3150.5" x2="3334.999" y1="155" y2="155"/></g><!--class Observation--><g class="entity" data-qualified-name="Observation" data-source-line="19" id="ent0043"><rect fill="#F1F1F1" height="48" rx="2.5" ry="2.5" style="stroke:#181818;stroke-width:0.5;" width="117.251" x="2593" y="115"/><ellipse cx="2608" cy="131" fill="#ADD1B2" rx="11" ry="11" style="stroke:#181818;stroke-width:1;"/><path d="M2610.9688,136.6406 Q2610.3906,136.9375 2609.75,137.0781 Q2609.1094,137.2344 2608.4063,137.2344 Q2605.9063,137.2344 2604.5781,135.5938 Q2603.2656,133.9375 2603.2656,130.8125 Q2603.2656,127.6875 2604.5781,126.0313 Q2605.9063,124.375 2608.4063,124.375 Q2609.1094,124.375 2609.75,124.5313 Q2610.4063,124.6875 2610.9688,124.9844 L2610.9688,127.7031 Q2610.3438,127.125 2609.75,126.8594 Q2609.1563,126.5781 2608.5313,126.5781 Q2607.1875,126.5781 2606.5,127.6563 Q2605.8125,128.7188 2605.8125,130.8125 Q2605.8125,132.9063 2606.5,133.9844 Q2607.1875,135.0469 2608.5313,135.0469 Q2609.1563,135.0469 2609.75,134.7813 Q2610.3438,134.5 2610.9688,133.9219 L2610.9688,136.6406 Z " fill="#000000"/><text fill="#000000" font-family="sans-serif" font-size="14" lengthAdjust="spacing" textLength="85.251" x="2622" y="135.8467">Observation</text><line style="stroke:#181818;stroke-width:0.5;" x1="2594" x2="2709.251" y1="147" y2="147"/><line style="stroke:#181818;stroke-width:0.5;" x1="2594" x2="2709.251" y1="155" y2="155"/></g><!--class Input--><g class="entity" data-qualified-name="Input" data-source-line="20" id="ent0045"><rect fill="#F1F1F1" height="48" rx="2.5" ry="2.5" style="stroke:#181818;stroke-width:0.5;" width="68.251" x="19.5" y="7"/><ellipse cx="34.5" cy="23" fill="#ADD1B2" rx="11" ry="11" style="stroke:#181818;stroke-width:1;"/><path d="M37.4688,28.6406 Q36.8906,28.9375 36.25,29.0781 Q35.6094,29.2344 34.9063,29.2344 Q32.4063,29.2344 31.0781,27.5938 Q29.7656,25.9375 29.7656,22.8125 Q29.7656,19.6875 31.0781,18.0313 Q32.4063,16.375 34.9063,16.375 Q35.6094,16.375 36.25,16.5313 Q36.9063,16.6875 37.4688,16.9844 L37.4688,19.7031 Q36.8438,19.125 36.25,18.8594 Q35.6563,18.5781 35.0313,18.5781 Q33.6875,18.5781 33,19.6563 Q32.3125,20.7188 32.3125,22.8125 Q32.3125,24.9063 33,25.9844 Q33.6875,27.0469 35.0313,27.0469 Q35.6563,27.0469 36.25,26.7813 Q36.8438,26.5 37.4688,25.9219 L37.4688,28.6406 Z " fill="#000000"/><text fill="#000000" font-family="sans-serif" font-size="14" lengthAdjust="spacing" textLength="36.251" x="48.5" y="27.8467">Input</text><line style="stroke:#181818;stroke-width:0.5;" x1="20.5" x2="86.751" y1="39" y2="39"/><line style="stroke:#181818;stroke-width:0.5;" x1="20.5" x2="86.751" y1="47" y2="47"/></g><!--class Deployment--><g class="entity" data-qualified-name="Deployment" data-source-line="21" id="ent0046"><rect fill="#F1F1F1" height="48" rx="2.5" ry="2.5" style="stroke:#181818;stroke-width:0.5;" width="117.6338" x="122.5" y="7"/><ellipse cx="137.5" cy="23" fill="#ADD1B2" rx="11" ry="11" style="stroke:#181818;stroke-width:1;"/><path d="M140.4688,28.6406 Q139.8906,28.9375 139.25,29.0781 Q138.6094,29.2344 137.9063,29.2344 Q135.4063,29.2344 134.0781,27.5938 Q132.7656,25.9375 132.7656,22.8125 Q132.7656,19.6875 134.0781,18.0313 Q135.4063,16.375 137.9063,16.375 Q138.6094,16.375 139.25,16.5313 Q139.9063,16.6875 140.4688,16.9844 L140.4688,19.7031 Q139.8438,19.125 139.25,18.8594 Q138.6563,18.5781 138.0313,18.5781 Q136.6875,18.5781 136,19.6563 Q135.3125,20.7188 135.3125,22.8125 Q135.3125,24.9063 136,25.9844 Q136.6875,27.0469 138.0313,27.0469 Q138.6563,27.0469 139.25,26.7813 Q139.8438,26.5 140.4688,25.9219 L140.4688,28.6406 Z " fill="#000000"/><text fill="#000000" font-family="sans-serif" font-size="14" lengthAdjust="spacing" textLength="85.6338" x="151.5" y="27.8467">Deployment</text><line style="stroke:#181818;stroke-width:0.5;" x1="123.5" x2="239.1338" y1="39" y2="39"/><line style="stroke:#181818;stroke-width:0.5;" x1="123.5" x2="239.1338" y1="47" y2="47"/></g><!--class Result--><g class="entity" data-qualified-name="Result" data-source-line="22" id="ent0047"><rect fill="#F1F1F1" height="48" rx="2.5" ry="2.5" style="stroke:#181818;stroke-width:0.5;" width="75.8867" x="275.5" y="7"/><ellipse cx="290.5" cy="23" fill="#ADD1B2" rx="11" ry="11" style="stroke:#181818;stroke-width:1;"/><path d="M293.4688,28.6406 Q292.8906,28.9375 292.25,29.0781 Q291.6094,29.2344 290.9063,29.2344 Q288.4063,29.2344 287.0781,27.5938 Q285.7656,25.9375 285.7656,22.8125 Q285.7656,19.6875 287.0781,18.0313 Q288.4063,16.375 290.9063,16.375 Q291.6094,16.375 292.25,16.5313 Q292.9063,16.6875 293.4688,16.9844 L293.4688,19.7031 Q292.8438,19.125 292.25,18.8594 Q291.6563,18.5781 291.0313,18.5781 Q289.6875,18.5781 289,19.6563 Q288.3125,20.7188 288.3125,22.8125 Q288.3125,24.9063 289,25.9844 Q289.6875,27.0469 291.0313,27.0469 Q291.6563,27.0469 292.25,26.7813 Q292.8438,26.5 293.4688,25.9219 L293.4688,28.6406 Z " fill="#000000"/><text fill="#000000" font-family="sans-serif" font-size="14" lengthAdjust="spacing" textLength="43.8867" x="304.5" y="27.8467">Result</text><line style="stroke:#181818;stroke-width:0.5;" x1="276.5" x2="350.3867" y1="39" y2="39"/><line style="stroke:#181818;stroke-width:0.5;" x1="276.5" x2="350.3867" y1="47" y2="47"/></g><!--class Stimulus--><g class="entity" data-qualified-name="Stimulus" data-source-line="24" id="ent0048"><rect fill="#F1F1F1" height="48" rx="2.5" ry="2.5" style="stroke:#181818;stroke-width:0.5;" width="92.833" x="7" y="115"/><ellipse cx="22" cy="131" fill="#ADD1B2" rx="11" ry="11" style="stroke:#181818;stroke-width:1;"/><path d="M24.9688,136.6406 Q24.3906,136.9375 23.75,137.0781 Q23.1094,137.2344 22.4063,137.2344 Q19.9063,137.2344 18.5781,135.5938 Q17.2656,133.9375 17.2656,130.8125 Q17.2656,127.6875 18.5781,126.0313 Q19.9063,124.375 22.4063,124.375 Q23.1094,124.375 23.75,124.5313 Q24.4063,124.6875 24.9688,124.9844 L24.9688,127.7031 Q24.3438,127.125 23.75,126.8594 Q23.1563,126.5781 22.5313,126.5781 Q21.1875,126.5781 20.5,127.6563 Q19.8125,128.7188 19.8125,130.8125 Q19.8125,132.9063 20.5,133.9844 Q21.1875,135.0469 22.5313,135.0469 Q23.1563,135.0469 23.75,134.7813 Q24.3438,134.5 24.9688,133.9219 L24.9688,136.6406 Z " fill="#000000"/><text fill="#000000" font-family="sans-serif" font-size="14" lengthAdjust="spacing" textLength="60.833" x="36" y="135.8467">Stimulus</text><line style="stroke:#181818;stroke-width:0.5;" x1="8" x2="98.833" y1="147" y2="147"/><line style="stroke:#181818;stroke-width:0.5;" x1="8" x2="98.833" y1="155" y2="155"/></g><!--class SampleCollection--><g class="entity" data-qualified-name="SampleCollection" data-source-line="25" id="ent0049"><rect fill="#F1F1F1" height="48" rx="2.5" ry="2.5" style="stroke:#181818;stroke-width:0.5;" width="153.7412" x="135.5" y="115"/><ellipse cx="150.5" cy="131" fill="#ADD1B2" rx="11" ry="11" style="stroke:#181818;stroke-width:1;"/><path d="M153.4688,136.6406 Q152.8906,136.9375 152.25,137.0781 Q151.6094,137.2344 150.9063,137.2344 Q148.4063,137.2344 147.0781,135.5938 Q145.7656,133.9375 145.7656,130.8125 Q145.7656,127.6875 147.0781,126.0313 Q148.4063,124.375 150.9063,124.375 Q151.6094,124.375 152.25,124.5313 Q152.9063,124.6875 153.4688,124.9844 L153.4688,127.7031 Q152.8438,127.125 152.25,126.8594 Q151.6563,126.5781 151.0313,126.5781 Q149.6875,126.5781 149,127.6563 Q148.3125,128.7188 148.3125,130.8125 Q148.3125,132.9063 149,133.9844 Q149.6875,135.0469 151.0313,135.0469 Q151.6563,135.0469 152.25,134.7813 Q152.8438,134.5 153.4688,133.9219 L153.4688,136.6406 Z " fill="#000000"/><text fill="#000000" font-family="sans-serif" font-size="14" lengthAdjust="spacing" textLength="121.7412" x="164.5" y="135.8467">SampleCollection</text><line style="stroke:#181818;stroke-width:0.5;" x1="136.5" x2="288.2412" y1="147" y2="147"/><line style="stroke:#181818;stroke-width:0.5;" x1="136.5" x2="288.2412" y1="155" y2="155"/></g><!--class FeatureOfInterest--><g class="entity" data-qualified-name="FeatureOfInterest" data-source-line="27" id="ent0050"><rect fill="#F1F1F1" height="48" rx="2.5" ry="2.5" style="stroke:#181818;stroke-width:0.5;" width="156.1816" x="324.5" y="115"/><ellipse cx="339.5" cy="131" fill="#ADD1B2" rx="11" ry="11" style="stroke:#181818;stroke-width:1;"/><path d="M342.4688,136.6406 Q341.8906,136.9375 341.25,137.0781 Q340.6094,137.2344 339.9063,137.2344 Q337.4063,137.2344 336.0781,135.5938 Q334.7656,133.9375 334.7656,130.8125 Q334.7656,127.6875 336.0781,126.0313 Q337.4063,124.375 339.9063,124.375 Q340.6094,124.375 341.25,124.5313 Q341.9063,124.6875 342.4688,124.9844 L342.4688,127.7031 Q341.8438,127.125 341.25,126.8594 Q340.6563,126.5781 340.0313,126.5781 Q338.6875,126.5781 338,127.6563 Q337.3125,128.7188 337.3125,130.8125 Q337.3125,132.9063 338,133.9844 Q338.6875,135.0469 340.0313,135.0469 Q340.6563,135.0469 341.25,134.7813 Q341.8438,134.5 342.4688,133.9219 L342.4688,136.6406 Z " fill="#000000"/><text fill="#000000" font-family="sans-serif" font-size="14" lengthAdjust="spacing" textLength="124.1816" x="353.5" y="135.8467">FeatureOfInterest</text><line style="stroke:#181818;stroke-width:0.5;" x1="325.5" x2="479.6816" y1="147" y2="147"/><line style="stroke:#181818;stroke-width:0.5;" x1="325.5" x2="479.6816" y1="155" y2="155"/></g><!--class Output--><g class="entity" data-qualified-name="Output" data-source-line="30" id="ent0051"><rect fill="#F1F1F1" height="48" rx="2.5" ry="2.5" style="stroke:#181818;stroke-width:0.5;" width="80.6309" x="13" y="223"/><ellipse cx="28" cy="239" fill="#ADD1B2" rx="11" ry="11" style="stroke:#181818;stroke-width:1;"/><path d="M30.9688,244.6406 Q30.3906,244.9375 29.75,245.0781 Q29.1094,245.2344 28.4063,245.2344 Q25.9063,245.2344 24.5781,243.5938 Q23.2656,241.9375 23.2656,238.8125 Q23.2656,235.6875 24.5781,234.0313 Q25.9063,232.375 28.4063,232.375 Q29.1094,232.375 29.75,232.5313 Q30.4063,232.6875 30.9688,232.9844 L30.9688,235.7031 Q30.3438,235.125 29.75,234.8594 Q29.1563,234.5781 28.5313,234.5781 Q27.1875,234.5781 26.5,235.6563 Q25.8125,236.7188 25.8125,238.8125 Q25.8125,240.9063 26.5,241.9844 Q27.1875,243.0469 28.5313,243.0469 Q29.1563,243.0469 29.75,242.7813 Q30.3438,242.5 30.9688,241.9219 L30.9688,244.6406 Z " fill="#000000"/><text fill="#000000" font-family="sans-serif" font-size="14" lengthAdjust="spacing" textLength="48.6309" x="42" y="243.8467">Output</text><line style="stroke:#181818;stroke-width:0.5;" x1="14" x2="92.6309" y1="255" y2="255"/><line style="stroke:#181818;stroke-width:0.5;" x1="14" x2="92.6309" y1="263" y2="263"/></g><!--reverse link Property to ActuatableProperty--><g class="link" data-entity-1="ent0001" data-entity-2="ent0002" data-link-type="extension" data-source-line="1" id="lnk3"><path codeLine="1" d="M666.8905,67.9716 C649.9005,85.6316 639.01,96.94 621.94,114.68" fill="none" id="Property-backto-ActuatableProperty" style="stroke:#181818;stroke-width:1;"/><polygon fill="none" points="679.37,55,662.5667,63.8118,671.2144,72.1314,679.37,55" style="stroke:#181818;stroke-width:1;stroke-linejoin:miter;stroke-miterlimit:10;"/></g><!--reverse link Sample to MaterialSample--><g class="link" data-entity-1="ent0004" data-entity-2="ent0005" data-link-type="extension" data-source-line="2" id="lnk6"><path codeLine="2" d="M1115.8567,64.4445 C1087.1067,82.1645 1062.85,97.11 1034.05,114.86" fill="none" id="Sample-backto-MaterialSample" style="stroke:#181818;stroke-width:1;"/><polygon fill="none" points="1131.18,55,1112.7086,59.3367,1119.0049,69.5522,1131.18,55" style="stroke:#181818;stroke-width:1;stroke-linejoin:miter;stroke-miterlimit:10;"/></g><!--reverse link Sample to SpatialSample--><g class="link" data-entity-1="ent0004" data-entity-2="ent0007" data-link-type="extension" data-source-line="3" id="lnk8"><path codeLine="3" d="M1168.5,73 C1168.5,90.66 1168.5,96.94 1168.5,114.68" fill="none" id="Sample-backto-SpatialSample" style="stroke:#181818;stroke-width:1;"/><polygon fill="none" points="1168.5,55,1162.5,73,1174.5,73,1168.5,55" style="stroke:#181818;stroke-width:1;stroke-linejoin:miter;stroke-miterlimit:10;"/></g><!--reverse link Sample to StatisticalSample--><g class="link" data-entity-1="ent0004" data-entity-2="ent0009" data-link-type="extension" data-source-line="4" id="lnk10"><path codeLine="4" d="M1222.8276,64.1725 C1252.7476,81.8925 1278.45,97.11 1308.43,114.86" fill="none" id="Sample-backto-StatisticalSample" style="stroke:#181818;stroke-width:1;"/><polygon fill="none" points="1207.34,55,1219.7701,69.335,1225.8851,59.0099,1207.34,55" style="stroke:#181818;stroke-width:1;stroke-linejoin:miter;stroke-miterlimit:10;"/></g><!--reverse link Property to ObservableProperty--><g class="link" data-entity-1="ent0001" data-entity-2="ent0011" data-link-type="extension" data-source-line="5" id="lnk12"><path codeLine="5" d="M736.3939,67.9094 C753.5539,85.5694 764.6,96.94 781.84,114.68" fill="none" id="Property-backto-ObservableProperty" style="stroke:#181818;stroke-width:1;"/><polygon fill="none" points="723.85,55,732.0907,72.0906,740.697,63.7281,723.85,55" style="stroke:#181818;stroke-width:1;stroke-linejoin:miter;stroke-miterlimit:10;"/></g><!--reverse link Procedure to ActuatingProcedure--><g class="link" data-entity-1="ent0013" data-entity-2="ent0014" data-link-type="extension" data-source-line="6" id="lnk15"><path codeLine="6" d="M1692.3326,63.1732 C1657.5626,80.8932 1625.74,97.11 1590.9,114.86" fill="none" id="Procedure-backto-ActuatingProcedure" style="stroke:#181818;stroke-width:1;"/><polygon fill="none" points="1708.37,55,1689.6082,57.8274,1695.057,68.519,1708.37,55" style="stroke:#181818;stroke-width:1;stroke-linejoin:miter;stroke-miterlimit:10;"/></g><!--reverse link Procedure to ObservingProcedure--><g class="link" data-entity-1="ent0013" data-entity-2="ent0016" data-link-type="extension" data-source-line="7" id="lnk17"><path codeLine="7" d="M1753.5,73 C1753.5,90.66 1753.5,96.94 1753.5,114.68" fill="none" id="Procedure-backto-ObservingProcedure" style="stroke:#181818;stroke-width:1;"/><polygon fill="none" points="1753.5,55,1747.5,73,1759.5,73,1753.5,55" style="stroke:#181818;stroke-width:1;stroke-linejoin:miter;stroke-miterlimit:10;"/></g><!--reverse link Procedure to SamplingProcedure--><g class="link" data-entity-1="ent0013" data-entity-2="ent0018" data-link-type="extension" data-source-line="8" id="lnk19"><path codeLine="8" d="M1814.4411,63.205 C1849.0411,80.925 1880.65,97.11 1915.31,114.86" fill="none" id="Procedure-backto-SamplingProcedure" style="stroke:#181818;stroke-width:1;"/><polygon fill="none" points="1798.42,55,1811.7061,68.5454,1817.1762,57.8647,1798.42,55" style="stroke:#181818;stroke-width:1;stroke-linejoin:miter;stroke-miterlimit:10;"/></g><!--reverse link Asset to Platform--><g class="link" data-entity-1="ent0020" data-entity-2="ent0021" data-link-type="extension" data-source-line="9" id="lnk22"><path codeLine="9" d="M2164.2839,70.6022 C2154.1239,88.2622 2149.13,96.94 2138.92,114.68" fill="none" id="Asset-backto-Platform" style="stroke:#181818;stroke-width:1;"/><polygon fill="none" points="2173.26,55,2159.0831,67.6102,2169.4846,73.5943,2173.26,55" style="stroke:#181818;stroke-width:1;stroke-linejoin:miter;stroke-miterlimit:10;"/></g><!--reverse link System to Sampler--><g class="link" data-entity-1="ent0023" data-entity-2="ent0024" data-link-type="extension" data-source-line="10" id="lnk25"><path codeLine="10" d="M2207.3865,174.5884 C2186.3965,192.2484 2171.31,204.94 2150.22,222.68" fill="none" id="System-backto-Sampler" style="stroke:#181818;stroke-width:1;"/><polygon fill="none" points="2221.16,163,2203.5237,169.9972,2211.2493,179.1795,2221.16,163" style="stroke:#181818;stroke-width:1;stroke-linejoin:miter;stroke-miterlimit:10;"/></g><!--reverse link System to Actuator--><g class="link" data-entity-1="ent0023" data-entity-2="ent0026" data-link-type="extension" data-source-line="11" id="lnk27"><path codeLine="11" d="M2248.5,181 C2248.5,198.66 2248.5,204.94 2248.5,222.68" fill="none" id="System-backto-Actuator" style="stroke:#181818;stroke-width:1;"/><polygon fill="none" points="2248.5,163,2242.5,181,2254.5,181,2248.5,163" style="stroke:#181818;stroke-width:1;stroke-linejoin:miter;stroke-miterlimit:10;"/></g><!--reverse link Asset to System--><g class="link" data-entity-1="ent0020" data-entity-2="ent0023" data-link-type="extension" data-source-line="12" id="lnk28"><path codeLine="12" d="M2209.0383,70.5372 C2219.3683,88.1972 2224.48,96.94 2234.86,114.68" fill="none" id="Asset-backto-System" style="stroke:#181818;stroke-width:1;"/><polygon fill="none" points="2199.95,55,2203.8592,73.5666,2214.2173,67.5077,2199.95,55" style="stroke:#181818;stroke-width:1;stroke-linejoin:miter;stroke-miterlimit:10;"/></g><!--reverse link Execution to Sampling--><g class="link" data-entity-1="ent0029" data-entity-2="ent0030" data-link-type="extension" data-source-line="13" id="lnk31"><path codeLine="13" d="M2465.3041,66.1688 C2442.9841,83.8288 2426.41,96.94 2403.98,114.68" fill="none" id="Execution-backto-Sampling" style="stroke:#181818;stroke-width:1;"/><polygon fill="none" points="2479.42,55,2461.5812,61.4635,2469.027,70.8741,2479.42,55" style="stroke:#181818;stroke-width:1;stroke-linejoin:miter;stroke-miterlimit:10;"/></g><!--reverse link ExecutionCollection to SamplingCollection--><g class="link" data-entity-1="ent0032" data-entity-2="ent0033" data-link-type="extension" data-source-line="14" id="lnk34"><path codeLine="14" d="M2970.731,63.3636 C2936.961,81.0836 2906.43,97.11 2872.59,114.86" fill="none" id="ExecutionCollection-backto-SamplingCollection" style="stroke:#181818;stroke-width:1;"/><polygon fill="none" points="2986.67,55,2967.9432,58.0506,2973.5189,68.6766,2986.67,55" style="stroke:#181818;stroke-width:1;stroke-linejoin:miter;stroke-miterlimit:10;"/></g><!--reverse link Execution to Actuation--><g class="link" data-entity-1="ent0029" data-entity-2="ent0035" data-link-type="extension" data-source-line="15" id="lnk36"><path codeLine="15" d="M2508.5,73 C2508.5,90.66 2508.5,96.94 2508.5,114.68" fill="none" id="Execution-backto-Actuation" style="stroke:#181818;stroke-width:1;"/><polygon fill="none" points="2508.5,55,2502.5,73,2514.5,73,2508.5,55" style="stroke:#181818;stroke-width:1;stroke-linejoin:miter;stroke-miterlimit:10;"/></g><!--reverse link System to Sensor--><g class="link" data-entity-1="ent0023" data-entity-2="ent0037" data-link-type="extension" data-source-line="16" id="lnk38"><path codeLine="16" d="M2288.2968,174.864 C2308.4468,192.524 2322.63,204.94 2342.88,222.68" fill="none" id="System-backto-Sensor" style="stroke:#181818;stroke-width:1;"/><polygon fill="none" points="2274.76,163,2284.3421,179.3763,2292.2515,170.3518,2274.76,163" style="stroke:#181818;stroke-width:1;stroke-linejoin:miter;stroke-miterlimit:10;"/></g><!--reverse link ExecutionCollection to ActuationCollection--><g class="link" data-entity-1="ent0032" data-entity-2="ent0039" data-link-type="extension" data-source-line="17" id="lnk40"><path codeLine="17" d="M3030.5,73 C3030.5,90.66 3030.5,96.94 3030.5,114.68" fill="none" id="ExecutionCollection-backto-ActuationCollection" style="stroke:#181818;stroke-width:1;"/><polygon fill="none" points="3030.5,55,3024.5,73,3036.5,73,3030.5,55" style="stroke:#181818;stroke-width:1;stroke-linejoin:miter;stroke-miterlimit:10;"/></g><!--reverse link ExecutionCollection to ObservationCollection--><g class="link" data-entity-1="ent0032" data-entity-2="ent0041" data-link-type="extension" data-source-line="18" id="lnk42"><path codeLine="18" d="M3092.5997,63.0498 C3128.0397,80.7698 3160.72,97.11 3196.22,114.86" fill="none" id="ExecutionCollection-backto-ObservationCollection" style="stroke:#181818;stroke-width:1;"/><polygon fill="none" points="3076.5,55,3089.9164,68.4164,3095.283,57.6833,3076.5,55" style="stroke:#181818;stroke-width:1;stroke-linejoin:miter;stroke-miterlimit:10;"/></g><!--reverse link Execution to Observation--><g class="link" data-entity-1="ent0029" data-entity-2="ent0043" data-link-type="extension" data-source-line="19" id="lnk44"><path codeLine="19" d="M2553.9895,65.7202 C2577.8095,83.3802 2596.11,96.94 2620.04,114.68" fill="none" id="Execution-backto-Observation" style="stroke:#181818;stroke-width:1;"/><polygon fill="none" points="2539.53,55,2550.4161,70.54,2557.5629,60.9004,2539.53,55" style="stroke:#181818;stroke-width:1;stroke-linejoin:miter;stroke-miterlimit:10;"/></g><?plantuml-src VL9RRi8m4FpFAN81Rj0VHAd4HvMeES5YbihI-Y7lkcea3e-5Wua3uS-UcPsPRDm7vp78s7vSDfjsgoI2m96md_1c0EC9C_qDWa43PQoY1W-omaXYMBGgR5zbTaV6y5TbfeF2KmmuRwNjRy6NYkpnJd6BhWHRPfHCzWHoTi4qmyY2PZQ1eS9o4nVcmvblzl-eecXdwxm7ldD4g9uL3tpfCNrt8gfUQ3arMFKjKw-Cb-9f-Mlo9r6Z29ZRW_LHflCdUdAZGNi7Vf0ZhRA3Q1Cfylrws_8iEyFbAUJh5uAaVzQT3pQzGEHYbdV_qhcBaafU0G00?></g></svg>