<svg xmlns="http://www.w3.org/2000/svg" xmlns:xlink="http://www.w3.org/1999/xlink" contentStyleType="text/css" data-diagram-type="CLASS" height="286px" preserveAspectRatio="none" style="width:3191px;height:286px;background:#FFFFFF;" version="1.1" viewBox="0 0 3191 286" width="3191px" zoomAndPan="magnify"><?plantuml 1.2026.4?><defs/><g><!--class Property--><g class="entity" data-qualified-name="Property" data-source-line="1" id="ent0001"><rect fill="#F1F1F1" height="48" rx="2.5" ry="2.5" style="stroke:#181818;stroke-width:0.5;" width="91.7939" x="531" y="7"/><ellipse cx="546" cy="23" fill="#ADD1B2" rx="11" ry="11" style="stroke:#181818;stroke-width:1;"/><path d="M548.9688,28.6406 Q548.3906,28.9375 547.75,29.0781 Q547.1094,29.2344 546.4063,29.2344 Q543.9063,29.2344 542.5781,27.5938 Q541.2656,25.9375 541.2656,22.8125 Q541.2656,19.6875 542.5781,18.0313 Q543.9063,16.375 546.4063,16.375 Q547.1094,16.375 547.75,16.5313 Q548.4063,16.6875 548.9688,16.9844 L548.9688,19.7031 Q548.3438,19.125 547.75,18.8594 Q547.1563,18.5781 546.5313,18.5781 Q545.1875,18.5781 544.5,19.6563 Q543.8125,20.7188 543.8125,22.8125 Q543.8125,24.9063 544.5,25.9844 Q545.1875,27.0469 546.5313,27.0469 Q547.1563,27.0469 547.75,26.7813 Q548.3438,26.5 548.9688,25.9219 L548.9688,28.6406 Z " fill="#000000"/><text fill="#000000" font-family="sans-serif" font-size="14" lengthAdjust="spacing" textLength="59.7939" x="560" y="27.8467">Property</text><line style="stroke:#181818;stroke-width:0.5;" x1="532" x2="621.7939" y1="39" y2="39"/><line style="stroke:#181818;stroke-width:0.5;" x1="532" x2="621.7939" y1="47" y2="47"/></g><!--class ActuatableProperty--><g class="entity" data-qualified-name="ActuatableProperty" data-source-line="1" id="ent0002"><rect fill="#F1F1F1" height="48" rx="2.5" ry="2.5" style="stroke:#181818;stroke-width:0.5;" width="167.4678" x="356.5" y="115"/><ellipse cx="371.5" cy="131" fill="#ADD1B2" rx="11" ry="11" style="stroke:#181818;stroke-width:1;"/><path d="M374.4688,136.6406 Q373.8906,136.9375 373.25,137.0781 Q372.6094,137.2344 371.9063,137.2344 Q369.4063,137.2344 368.0781,135.5938 Q366.7656,133.9375 366.7656,130.8125 Q366.7656,127.6875 368.0781,126.0313 Q369.4063,124.375 371.9063,124.375 Q372.6094,124.375 373.25,124.5313 Q373.9063,124.6875 374.4688,124.9844 L374.4688,127.7031 Q373.8438,127.125 373.25,126.8594 Q372.6563,126.5781 372.0313,126.5781 Q370.6875,126.5781 370,127.6563 Q369.3125,128.7188 369.3125,130.8125 Q369.3125,132.9063 370,133.9844 Q370.6875,135.0469 372.0313,135.0469 Q372.6563,135.0469 373.25,134.7813 Q373.8438,134.5 374.4688,133.9219 L374.4688,136.6406 Z " fill="#000000"/><text fill="#000000" font-family="sans-serif" font-size="14" lengthAdjust="spacing" textLength="135.4678" x="385.5" y="135.8467">ActuatableProperty</text><line style="stroke:#181818;stroke-width:0.5;" x1="357.5" x2="522.9678" y1="147" y2="147"/><line style="stroke:#181818;stroke-width:0.5;" x1="357.5" x2="522.9678" y1="155" y2="155"/></g><!--class Sample--><g class="entity" data-qualified-name="Sample" data-source-line="2" id="ent0004"><rect fill="#F1F1F1" height="48" rx="2.5" ry="2.5" style="stroke:#181818;stroke-width:0.5;" width="84.4932" x="967" y="7"/><ellipse cx="982" cy="23" fill="#ADD1B2" rx="11" ry="11" style="stroke:#181818;stroke-width:1;"/><path d="M984.9688,28.6406 Q984.3906,28.9375 983.75,29.0781 Q983.1094,29.2344 982.4063,29.2344 Q979.9063,29.2344 978.5781,27.5938 Q977.2656,25.9375 977.2656,22.8125 Q977.2656,19.6875 978.5781,18.0313 Q979.9063,16.375 982.4063,16.375 Q983.1094,16.375 983.75,16.5313 Q984.4063,16.6875 984.9688,16.9844 L984.9688,19.7031 Q984.3438,19.125 983.75,18.8594 Q983.1563,18.5781 982.5313,18.5781 Q981.1875,18.5781 980.5,19.6563 Q979.8125,20.7188 979.8125,22.8125 Q979.8125,24.9063 980.5,25.9844 Q981.1875,27.0469 982.5313,27.0469 Q983.1563,27.0469 983.75,26.7813 Q984.3438,26.5 984.9688,25.9219 L984.9688,28.6406 Z " fill="#000000"/><text fill="#000000" font-family="sans-serif" font-size="14" lengthAdjust="spacing" textLength="52.4932" x="996" y="27.8467">Sample</text><line style="stroke:#181818;stroke-width:0.5;" x1="968" x2="1050.4932" y1="39" y2="39"/><line style="stroke:#181818;stroke-width:0.5;" x1="968" x2="1050.4932" y1="47" y2="47"/></g><!--class MaterialSample--><g class="entity" data-qualified-name="MaterialSample" data-source-line="2" id="ent0005"><rect fill="#F1F1F1" height="48" rx="2.5" ry="2.5" style="stroke:#181818;stroke-width:0.5;" width="141.3682" x="766.5" y="115"/><ellipse cx="781.5" cy="131" fill="#ADD1B2" rx="11" ry="11" style="stroke:#181818;stroke-width:1;"/><path d="M784.4688,136.6406 Q783.8906,136.9375 783.25,137.0781 Q782.6094,137.2344 781.9063,137.2344 Q779.4063,137.2344 778.0781,135.5938 Q776.7656,133.9375 776.7656,130.8125 Q776.7656,127.6875 778.0781,126.0313 Q779.4063,124.375 781.9063,124.375 Q782.6094,124.375 783.25,124.5313 Q783.9063,124.6875 784.4688,124.9844 L784.4688,127.7031 Q783.8438,127.125 783.25,126.8594 Q782.6563,126.5781 782.0313,126.5781 Q780.6875,126.5781 780,127.6563 Q779.3125,128.7188 779.3125,130.8125 Q779.3125,132.9063 780,133.9844 Q780.6875,135.0469 782.0313,135.0469 Q782.6563,135.0469 783.25,134.7813 Q783.8438,134.5 784.4688,133.9219 L784.4688,136.6406 Z " fill="#000000"/><text fill="#000000" font-family="sans-serif" font-size="14" lengthAdjust="spacing" textLength="109.3682" x="795.5" y="135.8467">MaterialSample</text><line style="stroke:#181818;stroke-width:0.5;" x1="767.5" x2="906.8682" y1="147" y2="147"/><line style="stroke:#181818;stroke-width:0.5;" x1="767.5" x2="906.8682" y1="155" y2="155"/></g><!--class ObservableProperty--><g class="entity" data-qualified-name="ObservableProperty" data-source-line="3" id="ent0007"><rect fill="#F1F1F1" height="48" rx="2.5" ry="2.5" style="stroke:#181818;stroke-width:0.5;" width="171.6172" x="559" y="115"/><ellipse cx="574" cy="131" fill="#ADD1B2" rx="11" ry="11" style="stroke:#181818;stroke-width:1;"/><path d="M576.9688,136.6406 Q576.3906,136.9375 575.75,137.0781 Q575.1094,137.2344 574.4063,137.2344 Q571.9063,137.2344 570.5781,135.5938 Q569.2656,133.9375 569.2656,130.8125 Q569.2656,127.6875 570.5781,126.0313 Q571.9063,124.375 574.4063,124.375 Q575.1094,124.375 575.75,124.5313 Q576.4063,124.6875 576.9688,124.9844 L576.9688,127.7031 Q576.3438,127.125 575.75,126.8594 Q575.1563,126.5781 574.5313,126.5781 Q573.1875,126.5781 572.5,127.6563 Q571.8125,128.7188 571.8125,130.8125 Q571.8125,132.9063 572.5,133.9844 Q573.1875,135.0469 574.5313,135.0469 Q575.1563,135.0469 575.75,134.7813 Q576.3438,134.5 576.9688,133.9219 L576.9688,136.6406 Z " fill="#000000"/><text fill="#000000" font-family="sans-serif" font-size="14" lengthAdjust="spacing" textLength="139.6172" x="588" y="135.8467">ObservableProperty</text><line style="stroke:#181818;stroke-width:0.5;" x1="560" x2="729.6172" y1="147" y2="147"/><line style="stroke:#181818;stroke-width:0.5;" x1="560" x2="729.6172" y1="155" y2="155"/></g><!--class SpatialSample--><g class="entity" data-qualified-name="SpatialSample" data-source-line="4" id="ent0009"><rect fill="#F1F1F1" height="48" rx="2.5" ry="2.5" style="stroke:#181818;stroke-width:0.5;" width="132.6934" x="942.5" y="115"/><ellipse cx="957.5" cy="131" fill="#ADD1B2" rx="11" ry="11" style="stroke:#181818;stroke-width:1;"/><path d="M960.4688,136.6406 Q959.8906,136.9375 959.25,137.0781 Q958.6094,137.2344 957.9063,137.2344 Q955.4063,137.2344 954.0781,135.5938 Q952.7656,133.9375 952.7656,130.8125 Q952.7656,127.6875 954.0781,126.0313 Q955.4063,124.375 957.9063,124.375 Q958.6094,124.375 959.25,124.5313 Q959.9063,124.6875 960.4688,124.9844 L960.4688,127.7031 Q959.8438,127.125 959.25,126.8594 Q958.6563,126.5781 958.0313,126.5781 Q956.6875,126.5781 956,127.6563 Q955.3125,128.7188 955.3125,130.8125 Q955.3125,132.9063 956,133.9844 Q956.6875,135.0469 958.0313,135.0469 Q958.6563,135.0469 959.25,134.7813 Q959.8438,134.5 960.4688,133.9219 L960.4688,136.6406 Z " fill="#000000"/><text fill="#000000" font-family="sans-serif" font-size="14" lengthAdjust="spacing" textLength="100.6934" x="971.5" y="135.8467">SpatialSample</text><line style="stroke:#181818;stroke-width:0.5;" x1="943.5" x2="1074.1934" y1="147" y2="147"/><line style="stroke:#181818;stroke-width:0.5;" x1="943.5" x2="1074.1934" y1="155" y2="155"/></g><!--class StatisticalSample--><g class="entity" data-qualified-name="StatisticalSample" data-source-line="5" id="ent0011"><rect fill="#F1F1F1" height="48" rx="2.5" ry="2.5" style="stroke:#181818;stroke-width:0.5;" width="153.666" x="1111" y="115"/><ellipse cx="1126" cy="131" fill="#ADD1B2" rx="11" ry="11" style="stroke:#181818;stroke-width:1;"/><path d="M1128.9688,136.6406 Q1128.3906,136.9375 1127.75,137.0781 Q1127.1094,137.2344 1126.4063,137.2344 Q1123.9063,137.2344 1122.5781,135.5938 Q1121.2656,133.9375 1121.2656,130.8125 Q1121.2656,127.6875 1122.5781,126.0313 Q1123.9063,124.375 1126.4063,124.375 Q1127.1094,124.375 1127.75,124.5313 Q1128.4063,124.6875 1128.9688,124.9844 L1128.9688,127.7031 Q1128.3438,127.125 1127.75,126.8594 Q1127.1563,126.5781 1126.5313,126.5781 Q1125.1875,126.5781 1124.5,127.6563 Q1123.8125,128.7188 1123.8125,130.8125 Q1123.8125,132.9063 1124.5,133.9844 Q1125.1875,135.0469 1126.5313,135.0469 Q1127.1563,135.0469 1127.75,134.7813 Q1128.3438,134.5 1128.9688,133.9219 L1128.9688,136.6406 Z " fill="#000000"/><text fill="#000000" font-family="sans-serif" font-size="14" lengthAdjust="spacing" textLength="121.666" x="1140" y="135.8467">StatisticalSample</text><line style="stroke:#181818;stroke-width:0.5;" x1="1112" x2="1263.666" y1="147" y2="147"/><line style="stroke:#181818;stroke-width:0.5;" x1="1112" x2="1263.666" y1="155" y2="155"/></g><!--class Procedure--><g class="entity" data-qualified-name="Procedure" data-source-line="6" id="ent0013"><rect fill="#F1F1F1" height="48" rx="2.5" ry="2.5" style="stroke:#181818;stroke-width:0.5;" width="103.2031" x="1542.5" y="7"/><ellipse cx="1557.5" cy="23" fill="#ADD1B2" rx="11" ry="11" style="stroke:#181818;stroke-width:1;"/><path d="M1560.4688,28.6406 Q1559.8906,28.9375 1559.25,29.0781 Q1558.6094,29.2344 1557.9063,29.2344 Q1555.4063,29.2344 1554.0781,27.5938 Q1552.7656,25.9375 1552.7656,22.8125 Q1552.7656,19.6875 1554.0781,18.0313 Q1555.4063,16.375 1557.9063,16.375 Q1558.6094,16.375 1559.25,16.5313 Q1559.9063,16.6875 1560.4688,16.9844 L1560.4688,19.7031 Q1559.8438,19.125 1559.25,18.8594 Q1558.6563,18.5781 1558.0313,18.5781 Q1556.6875,18.5781 1556,19.6563 Q1555.3125,20.7188 1555.3125,22.8125 Q1555.3125,24.9063 1556,25.9844 Q1556.6875,27.0469 1558.0313,27.0469 Q1558.6563,27.0469 1559.25,26.7813 Q1559.8438,26.5 1560.4688,25.9219 L1560.4688,28.6406 Z " fill="#000000"/><text fill="#000000" font-family="sans-serif" font-size="14" lengthAdjust="spacing" textLength="71.2031" x="1571.5" y="27.8467">Procedure</text><line style="stroke:#181818;stroke-width:0.5;" x1="1543.5" x2="1644.7031" y1="39" y2="39"/><line style="stroke:#181818;stroke-width:0.5;" x1="1543.5" x2="1644.7031" y1="47" y2="47"/></g><!--class ActuatingProcedure--><g class="entity" data-qualified-name="ActuatingProcedure" data-source-line="6" id="ent0014"><rect fill="#F1F1F1" height="48" rx="2.5" ry="2.5" style="stroke:#181818;stroke-width:0.5;" width="170.5576" x="1300.5" y="115"/><ellipse cx="1315.5" cy="131" fill="#ADD1B2" rx="11" ry="11" style="stroke:#181818;stroke-width:1;"/><path d="M1318.4688,136.6406 Q1317.8906,136.9375 1317.25,137.0781 Q1316.6094,137.2344 1315.9063,137.2344 Q1313.4063,137.2344 1312.0781,135.5938 Q1310.7656,133.9375 1310.7656,130.8125 Q1310.7656,127.6875 1312.0781,126.0313 Q1313.4063,124.375 1315.9063,124.375 Q1316.6094,124.375 1317.25,124.5313 Q1317.9063,124.6875 1318.4688,124.9844 L1318.4688,127.7031 Q1317.8438,127.125 1317.25,126.8594 Q1316.6563,126.5781 1316.0313,126.5781 Q1314.6875,126.5781 1314,127.6563 Q1313.3125,128.7188 1313.3125,130.8125 Q1313.3125,132.9063 1314,133.9844 Q1314.6875,135.0469 1316.0313,135.0469 Q1316.6563,135.0469 1317.25,134.7813 Q1317.8438,134.5 1318.4688,133.9219 L1318.4688,136.6406 Z " fill="#000000"/><text fill="#000000" font-family="sans-serif" font-size="14" lengthAdjust="spacing" textLength="138.5576" x="1329.5" y="135.8467">ActuatingProcedure</text><line style="stroke:#181818;stroke-width:0.5;" x1="1301.5" x2="1470.0576" y1="147" y2="147"/><line style="stroke:#181818;stroke-width:0.5;" x1="1301.5" x2="1470.0576" y1="155" y2="155"/></g><!--class ObservingProcedure--><g class="entity" data-qualified-name="ObservingProcedure" data-source-line="7" id="ent0016"><rect fill="#F1F1F1" height="48" rx="2.5" ry="2.5" style="stroke:#181818;stroke-width:0.5;" width="174.707" x="1506.5" y="115"/><ellipse cx="1521.5" cy="131" fill="#ADD1B2" rx="11" ry="11" style="stroke:#181818;stroke-width:1;"/><path d="M1524.4688,136.6406 Q1523.8906,136.9375 1523.25,137.0781 Q1522.6094,137.2344 1521.9063,137.2344 Q1519.4063,137.2344 1518.0781,135.5938 Q1516.7656,133.9375 1516.7656,130.8125 Q1516.7656,127.6875 1518.0781,126.0313 Q1519.4063,124.375 1521.9063,124.375 Q1522.6094,124.375 1523.25,124.5313 Q1523.9063,124.6875 1524.4688,124.9844 L1524.4688,127.7031 Q1523.8438,127.125 1523.25,126.8594 Q1522.6563,126.5781 1522.0313,126.5781 Q1520.6875,126.5781 1520,127.6563 Q1519.3125,128.7188 1519.3125,130.8125 Q1519.3125,132.9063 1520,133.9844 Q1520.6875,135.0469 1522.0313,135.0469 Q1522.6563,135.0469 1523.25,134.7813 Q1523.8438,134.5 1524.4688,133.9219 L1524.4688,136.6406 Z " fill="#000000"/><text fill="#000000" font-family="sans-serif" font-size="14" lengthAdjust="spacing" textLength="142.707" x="1535.5" y="135.8467">ObservingProcedure</text><line style="stroke:#181818;stroke-width:0.5;" x1="1507.5" x2="1680.207" y1="147" y2="147"/><line style="stroke:#181818;stroke-width:0.5;" x1="1507.5" x2="1680.207" y1="155" y2="155"/></g><!--class SamplingProcedure--><g class="entity" data-qualified-name="SamplingProcedure" data-source-line="8" id="ent0018"><rect fill="#F1F1F1" height="48" rx="2.5" ry="2.5" style="stroke:#181818;stroke-width:0.5;" width="168.7324" x="1716.5" y="115"/><ellipse cx="1731.5" cy="131" fill="#ADD1B2" rx="11" ry="11" style="stroke:#181818;stroke-width:1;"/><path d="M1734.4688,136.6406 Q1733.8906,136.9375 1733.25,137.0781 Q1732.6094,137.2344 1731.9063,137.2344 Q1729.4063,137.2344 1728.0781,135.5938 Q1726.7656,133.9375 1726.7656,130.8125 Q1726.7656,127.6875 1728.0781,126.0313 Q1729.4063,124.375 1731.9063,124.375 Q1732.6094,124.375 1733.25,124.5313 Q1733.9063,124.6875 1734.4688,124.9844 L1734.4688,127.7031 Q1733.8438,127.125 1733.25,126.8594 Q1732.6563,126.5781 1732.0313,126.5781 Q1730.6875,126.5781 1730,127.6563 Q1729.3125,128.7188 1729.3125,130.8125 Q1729.3125,132.9063 1730,133.9844 Q1730.6875,135.0469 1732.0313,135.0469 Q1732.6563,135.0469 1733.25,134.7813 Q1733.8438,134.5 1734.4688,133.9219 L1734.4688,136.6406 Z " fill="#000000"/><text fill="#000000" font-family="sans-serif" font-size="14" lengthAdjust="spacing" textLength="136.7324" x="1745.5" y="135.8467">SamplingProcedure</text><line style="stroke:#181818;stroke-width:0.5;" x1="1717.5" x2="1884.2324" y1="147" y2="147"/><line style="stroke:#181818;stroke-width:0.5;" x1="1717.5" x2="1884.2324" y1="155" y2="155"/></g><!--class Asset--><g class="entity" data-qualified-name="Asset" data-source-line="9" id="ent0020"><rect fill="#F1F1F1" height="48" rx="2.5" ry="2.5" style="stroke:#181818;stroke-width:0.5;" width="70.2676" x="1992" y="7"/><ellipse cx="2007" cy="23" fill="#ADD1B2" rx="11" ry="11" style="stroke:#181818;stroke-width:1;"/><path d="M2009.9688,28.6406 Q2009.3906,28.9375 2008.75,29.0781 Q2008.1094,29.2344 2007.4063,29.2344 Q2004.9063,29.2344 2003.5781,27.5938 Q2002.2656,25.9375 2002.2656,22.8125 Q2002.2656,19.6875 2003.5781,18.0313 Q2004.9063,16.375 2007.4063,16.375 Q2008.1094,16.375 2008.75,16.5313 Q2009.4063,16.6875 2009.9688,16.9844 L2009.9688,19.7031 Q2009.3438,19.125 2008.75,18.8594 Q2008.1563,18.5781 2007.5313,18.5781 Q2006.1875,18.5781 2005.5,19.6563 Q2004.8125,20.7188 2004.8125,22.8125 Q2004.8125,24.9063 2005.5,25.9844 Q2006.1875,27.0469 2007.5313,27.0469 Q2008.1563,27.0469 2008.75,26.7813 Q2009.3438,26.5 2009.9688,25.9219 L2009.9688,28.6406 Z " fill="#000000"/><text fill="#000000" font-family="sans-serif" font-size="14" lengthAdjust="spacing" textLength="38.2676" x="2021" y="27.8467">Asset</text><line style="stroke:#181818;stroke-width:0.5;" x1="1993" x2="2061.2676" y1="39" y2="39"/><line style="stroke:#181818;stroke-width:0.5;" x1="1993" x2="2061.2676" y1="47" y2="47"/></g><!--class Platform--><g class="entity" data-qualified-name="Platform" data-source-line="9" id="ent0021"><rect fill="#F1F1F1" height="48" rx="2.5" ry="2.5" style="stroke:#181818;stroke-width:0.5;" width="91.2881" x="1920.5" y="115"/><ellipse cx="1935.5" cy="131" fill="#ADD1B2" rx="11" ry="11" style="stroke:#181818;stroke-width:1;"/><path d="M1938.4688,136.6406 Q1937.8906,136.9375 1937.25,137.0781 Q1936.6094,137.2344 1935.9063,137.2344 Q1933.4063,137.2344 1932.0781,135.5938 Q1930.7656,133.9375 1930.7656,130.8125 Q1930.7656,127.6875 1932.0781,126.0313 Q1933.4063,124.375 1935.9063,124.375 Q1936.6094,124.375 1937.25,124.5313 Q1937.9063,124.6875 1938.4688,124.9844 L1938.4688,127.7031 Q1937.8438,127.125 1937.25,126.8594 Q1936.6563,126.5781 1936.0313,126.5781 Q1934.6875,126.5781 1934,127.6563 Q1933.3125,128.7188 1933.3125,130.8125 Q1933.3125,132.9063 1934,133.9844 Q1934.6875,135.0469 1936.0313,135.0469 Q1936.6563,135.0469 1937.25,134.7813 Q1937.8438,134.5 1938.4688,133.9219 L1938.4688,136.6406 Z " fill="#000000"/><text fill="#000000" font-family="sans-serif" font-size="14" lengthAdjust="spacing" textLength="59.2881" x="1949.5" y="135.8467">Platform</text><line style="stroke:#181818;stroke-width:0.5;" x1="1921.5" x2="2010.7881" y1="147" y2="147"/><line style="stroke:#181818;stroke-width:0.5;" x1="1921.5" x2="2010.7881" y1="155" y2="155"/></g><!--class System--><g class="entity" data-qualified-name="System" data-source-line="10" id="ent0023"><rect fill="#F1F1F1" height="48" rx="2.5" ry="2.5" style="stroke:#181818;stroke-width:0.5;" width="84.2061" x="2047" y="115"/><ellipse cx="2062" cy="131" fill="#ADD1B2" rx="11" ry="11" style="stroke:#181818;stroke-width:1;"/><path d="M2064.9688,136.6406 Q2064.3906,136.9375 2063.75,137.0781 Q2063.1094,137.2344 2062.4063,137.2344 Q2059.9063,137.2344 2058.5781,135.5938 Q2057.2656,133.9375 2057.2656,130.8125 Q2057.2656,127.6875 2058.5781,126.0313 Q2059.9063,124.375 2062.4063,124.375 Q2063.1094,124.375 2063.75,124.5313 Q2064.4063,124.6875 2064.9688,124.9844 L2064.9688,127.7031 Q2064.3438,127.125 2063.75,126.8594 Q2063.1563,126.5781 2062.5313,126.5781 Q2061.1875,126.5781 2060.5,127.6563 Q2059.8125,128.7188 2059.8125,130.8125 Q2059.8125,132.9063 2060.5,133.9844 Q2061.1875,135.0469 2062.5313,135.0469 Q2063.1563,135.0469 2063.75,134.7813 Q2064.3438,134.5 2064.9688,133.9219 L2064.9688,136.6406 Z " fill="#000000"/><text fill="#000000" font-family="sans-serif" font-size="14" lengthAdjust="spacing" textLength="52.2061" x="2076" y="135.8467">System</text><line style="stroke:#181818;stroke-width:0.5;" x1="2048" x2="2130.2061" y1="147" y2="147"/><line style="stroke:#181818;stroke-width:0.5;" x1="2048" x2="2130.2061" y1="155" y2="155"/></g><!--class Sampler--><g class="entity" data-qualified-name="Sampler" data-source-line="10" id="ent0024"><rect fill="#F1F1F1" height="48" rx="2.5" ry="2.5" style="stroke:#181818;stroke-width:0.5;" width="90.249" x="1918" y="223"/><ellipse cx="1933" cy="239" fill="#ADD1B2" rx="11" ry="11" style="stroke:#181818;stroke-width:1;"/><path d="M1935.9688,244.6406 Q1935.3906,244.9375 1934.75,245.0781 Q1934.1094,245.2344 1933.4063,245.2344 Q1930.9063,245.2344 1929.5781,243.5938 Q1928.2656,241.9375 1928.2656,238.8125 Q1928.2656,235.6875 1929.5781,234.0313 Q1930.9063,232.375 1933.4063,232.375 Q1934.1094,232.375 1934.75,232.5313 Q1935.4063,232.6875 1935.9688,232.9844 L1935.9688,235.7031 Q1935.3438,235.125 1934.75,234.8594 Q1934.1563,234.5781 1933.5313,234.5781 Q1932.1875,234.5781 1931.5,235.6563 Q1930.8125,236.7188 1930.8125,238.8125 Q1930.8125,240.9063 1931.5,241.9844 Q1932.1875,243.0469 1933.5313,243.0469 Q1934.1563,243.0469 1934.75,242.7813 Q1935.3438,242.5 1935.9688,241.9219 L1935.9688,244.6406 Z " fill="#000000"/><text fill="#000000" font-family="sans-serif" font-size="14" lengthAdjust="spacing" textLength="58.249" x="1947" y="243.8467">Sampler</text><line style="stroke:#181818;stroke-width:0.5;" x1="1919" x2="2007.249" y1="255" y2="255"/><line style="stroke:#181818;stroke-width:0.5;" x1="1919" x2="2007.249" y1="263" y2="263"/></g><!--class Actuator--><g class="entity" data-qualified-name="Actuator" data-source-line="11" id="ent0026"><rect fill="#F1F1F1" height="48" rx="2.5" ry="2.5" style="stroke:#181818;stroke-width:0.5;" width="92.0264" x="2043" y="223"/><ellipse cx="2058" cy="239" fill="#ADD1B2" rx="11" ry="11" style="stroke:#181818;stroke-width:1;"/><path d="M2060.9688,244.6406 Q2060.3906,244.9375 2059.75,245.0781 Q2059.1094,245.2344 2058.4063,245.2344 Q2055.9063,245.2344 2054.5781,243.5938 Q2053.2656,241.9375 2053.2656,238.8125 Q2053.2656,235.6875 2054.5781,234.0313 Q2055.9063,232.375 2058.4063,232.375 Q2059.1094,232.375 2059.75,232.5313 Q2060.4063,232.6875 2060.9688,232.9844 L2060.9688,235.7031 Q2060.3438,235.125 2059.75,234.8594 Q2059.1563,234.5781 2058.5313,234.5781 Q2057.1875,234.5781 2056.5,235.6563 Q2055.8125,236.7188 2055.8125,238.8125 Q2055.8125,240.9063 2056.5,241.9844 Q2057.1875,243.0469 2058.5313,243.0469 Q2059.1563,243.0469 2059.75,242.7813 Q2060.3438,242.5 2060.9688,241.9219 L2060.9688,244.6406 Z " fill="#000000"/><text fill="#000000" font-family="sans-serif" font-size="14" lengthAdjust="spacing" textLength="60.0264" x="2072" y="243.8467">Actuator</text><line style="stroke:#181818;stroke-width:0.5;" x1="2044" x2="2134.0264" y1="255" y2="255"/><line style="stroke:#181818;stroke-width:0.5;" x1="2044" x2="2134.0264" y1="263" y2="263"/></g><!--class ExecutionCollection--><g class="entity" data-qualified-name="ExecutionCollection" data-source-line="12" id="ent0028"><rect fill="#F1F1F1" height="48" rx="2.5" ry="2.5" style="stroke:#181818;stroke-width:0.5;" width="170.3799" x="2367" y="7"/><ellipse cx="2382" cy="23" fill="#ADD1B2" rx="11" ry="11" style="stroke:#181818;stroke-width:1;"/><path d="M2384.9688,28.6406 Q2384.3906,28.9375 2383.75,29.0781 Q2383.1094,29.2344 2382.4063,29.2344 Q2379.9063,29.2344 2378.5781,27.5938 Q2377.2656,25.9375 2377.2656,22.8125 Q2377.2656,19.6875 2378.5781,18.0313 Q2379.9063,16.375 2382.4063,16.375 Q2383.1094,16.375 2383.75,16.5313 Q2384.4063,16.6875 2384.9688,16.9844 L2384.9688,19.7031 Q2384.3438,19.125 2383.75,18.8594 Q2383.1563,18.5781 2382.5313,18.5781 Q2381.1875,18.5781 2380.5,19.6563 Q2379.8125,20.7188 2379.8125,22.8125 Q2379.8125,24.9063 2380.5,25.9844 Q2381.1875,27.0469 2382.5313,27.0469 Q2383.1563,27.0469 2383.75,26.7813 Q2384.3438,26.5 2384.9688,25.9219 L2384.9688,28.6406 Z " fill="#000000"/><text fill="#000000" font-family="sans-serif" font-size="14" lengthAdjust="spacing" textLength="138.3799" x="2396" y="27.8467">ExecutionCollection</text><line style="stroke:#181818;stroke-width:0.5;" x1="2368" x2="2536.3799" y1="39" y2="39"/><line style="stroke:#181818;stroke-width:0.5;" x1="2368" x2="2536.3799" y1="47" y2="47"/></g><!--class SamplingCollection--><g class="entity" data-qualified-name="SamplingCollection" data-source-line="12" id="ent0029"><rect fill="#F1F1F1" height="48" rx="2.5" ry="2.5" style="stroke:#181818;stroke-width:0.5;" width="166.7773" x="2166.5" y="115"/><ellipse cx="2181.5" cy="131" fill="#ADD1B2" rx="11" ry="11" style="stroke:#181818;stroke-width:1;"/><path d="M2184.4688,136.6406 Q2183.8906,136.9375 2183.25,137.0781 Q2182.6094,137.2344 2181.9063,137.2344 Q2179.4063,137.2344 2178.0781,135.5938 Q2176.7656,133.9375 2176.7656,130.8125 Q2176.7656,127.6875 2178.0781,126.0313 Q2179.4063,124.375 2181.9063,124.375 Q2182.6094,124.375 2183.25,124.5313 Q2183.9063,124.6875 2184.4688,124.9844 L2184.4688,127.7031 Q2183.8438,127.125 2183.25,126.8594 Q2182.6563,126.5781 2182.0313,126.5781 Q2180.6875,126.5781 2180,127.6563 Q2179.3125,128.7188 2179.3125,130.8125 Q2179.3125,132.9063 2180,133.9844 Q2180.6875,135.0469 2182.0313,135.0469 Q2182.6563,135.0469 2183.25,134.7813 Q2183.8438,134.5 2184.4688,133.9219 L2184.4688,136.6406 Z " fill="#000000"/><text fill="#000000" font-family="sans-serif" font-size="14" lengthAdjust="spacing" textLength="134.7773" x="2195.5" y="135.8467">SamplingCollection</text><line style="stroke:#181818;stroke-width:0.5;" x1="2167.5" x2="2332.2773" y1="147" y2="147"/><line style="stroke:#181818;stroke-width:0.5;" x1="2167.5" x2="2332.2773" y1="155" y2="155"/></g><!--class Sensor--><g class="entity" data-qualified-name="Sensor" data-source-line="14" id="ent0032"><rect fill="#F1F1F1" height="48" rx="2.5" ry="2.5" style="stroke:#181818;stroke-width:0.5;" width="79.9883" x="2170" y="223"/><ellipse cx="2185" cy="239" fill="#ADD1B2" rx="11" ry="11" style="stroke:#181818;stroke-width:1;"/><path d="M2187.9688,244.6406 Q2187.3906,244.9375 2186.75,245.0781 Q2186.1094,245.2344 2185.4063,245.2344 Q2182.9063,245.2344 2181.5781,243.5938 Q2180.2656,241.9375 2180.2656,238.8125 Q2180.2656,235.6875 2181.5781,234.0313 Q2182.9063,232.375 2185.4063,232.375 Q2186.1094,232.375 2186.75,232.5313 Q2187.4063,232.6875 2187.9688,232.9844 L2187.9688,235.7031 Q2187.3438,235.125 2186.75,234.8594 Q2186.1563,234.5781 2185.5313,234.5781 Q2184.1875,234.5781 2183.5,235.6563 Q2182.8125,236.7188 2182.8125,238.8125 Q2182.8125,240.9063 2183.5,241.9844 Q2184.1875,243.0469 2185.5313,243.0469 Q2186.1563,243.0469 2186.75,242.7813 Q2187.3438,242.5 2187.9688,241.9219 L2187.9688,244.6406 Z " fill="#000000"/><text fill="#000000" font-family="sans-serif" font-size="14" lengthAdjust="spacing" textLength="47.9883" x="2199" y="243.8467">Sensor</text><line style="stroke:#181818;stroke-width:0.5;" x1="2171" x2="2248.9883" y1="255" y2="255"/><line style="stroke:#181818;stroke-width:0.5;" x1="2171" x2="2248.9883" y1="263" y2="263"/></g><!--class Execution--><g class="entity" data-qualified-name="Execution" data-source-line="15" id="ent0034"><rect fill="#F1F1F1" height="48" rx="2.5" ry="2.5" style="stroke:#181818;stroke-width:0.5;" width="101.1318" x="2924.5" y="7"/><ellipse cx="2939.5" cy="23" fill="#ADD1B2" rx="11" ry="11" style="stroke:#181818;stroke-width:1;"/><path d="M2942.4688,28.6406 Q2941.8906,28.9375 2941.25,29.0781 Q2940.6094,29.2344 2939.9063,29.2344 Q2937.4063,29.2344 2936.0781,27.5938 Q2934.7656,25.9375 2934.7656,22.8125 Q2934.7656,19.6875 2936.0781,18.0313 Q2937.4063,16.375 2939.9063,16.375 Q2940.6094,16.375 2941.25,16.5313 Q2941.9063,16.6875 2942.4688,16.9844 L2942.4688,19.7031 Q2941.8438,19.125 2941.25,18.8594 Q2940.6563,18.5781 2940.0313,18.5781 Q2938.6875,18.5781 2938,19.6563 Q2937.3125,20.7188 2937.3125,22.8125 Q2937.3125,24.9063 2938,25.9844 Q2938.6875,27.0469 2940.0313,27.0469 Q2940.6563,27.0469 2941.25,26.7813 Q2941.8438,26.5 2942.4688,25.9219 L2942.4688,28.6406 Z " fill="#000000"/><text fill="#000000" font-family="sans-serif" font-size="14" lengthAdjust="spacing" textLength="69.1318" x="2953.5" y="27.8467">Execution</text><line style="stroke:#181818;stroke-width:0.5;" x1="2925.5" x2="3024.6318" y1="39" y2="39"/><line style="stroke:#181818;stroke-width:0.5;" x1="2925.5" x2="3024.6318" y1="47" y2="47"/></g><!--class Sampling--><g class="entity" data-qualified-name="Sampling" data-source-line="15" id="ent0035"><rect fill="#F1F1F1" height="48" rx="2.5" ry="2.5" style="stroke:#181818;stroke-width:0.5;" width="97.5293" x="2792" y="115"/><ellipse cx="2807" cy="131" fill="#ADD1B2" rx="11" ry="11" style="stroke:#181818;stroke-width:1;"/><path d="M2809.9688,136.6406 Q2809.3906,136.9375 2808.75,137.0781 Q2808.1094,137.2344 2807.4063,137.2344 Q2804.9063,137.2344 2803.5781,135.5938 Q2802.2656,133.9375 2802.2656,130.8125 Q2802.2656,127.6875 2803.5781,126.0313 Q2804.9063,124.375 2807.4063,124.375 Q2808.1094,124.375 2808.75,124.5313 Q2809.4063,124.6875 2809.9688,124.9844 L2809.9688,127.7031 Q2809.3438,127.125 2808.75,126.8594 Q2808.1563,126.5781 2807.5313,126.5781 Q2806.1875,126.5781 2805.5,127.6563 Q2804.8125,128.7188 2804.8125,130.8125 Q2804.8125,132.9063 2805.5,133.9844 Q2806.1875,135.0469 2807.5313,135.0469 Q2808.1563,135.0469 2808.75,134.7813 Q2809.3438,134.5 2809.9688,133.9219 L2809.9688,136.6406 Z " fill="#000000"/><text fill="#000000" font-family="sans-serif" font-size="14" lengthAdjust="spacing" textLength="65.5293" x="2821" y="135.8467">Sampling</text><line style="stroke:#181818;stroke-width:0.5;" x1="2793" x2="2888.5293" y1="147" y2="147"/><line style="stroke:#181818;stroke-width:0.5;" x1="2793" x2="2888.5293" y1="155" y2="155"/></g><!--class Actuation--><g class="entity" data-qualified-name="Actuation" data-source-line="16" id="ent0037"><rect fill="#F1F1F1" height="48" rx="2.5" ry="2.5" style="stroke:#181818;stroke-width:0.5;" width="99.0332" x="2925.5" y="115"/><ellipse cx="2940.5" cy="131" fill="#ADD1B2" rx="11" ry="11" style="stroke:#181818;stroke-width:1;"/><path d="M2943.4688,136.6406 Q2942.8906,136.9375 2942.25,137.0781 Q2941.6094,137.2344 2940.9063,137.2344 Q2938.4063,137.2344 2937.0781,135.5938 Q2935.7656,133.9375 2935.7656,130.8125 Q2935.7656,127.6875 2937.0781,126.0313 Q2938.4063,124.375 2940.9063,124.375 Q2941.6094,124.375 2942.25,124.5313 Q2942.9063,124.6875 2943.4688,124.9844 L2943.4688,127.7031 Q2942.8438,127.125 2942.25,126.8594 Q2941.6563,126.5781 2941.0313,126.5781 Q2939.6875,126.5781 2939,127.6563 Q2938.3125,128.7188 2938.3125,130.8125 Q2938.3125,132.9063 2939,133.9844 Q2939.6875,135.0469 2941.0313,135.0469 Q2941.6563,135.0469 2942.25,134.7813 Q2942.8438,134.5 2943.4688,133.9219 L2943.4688,136.6406 Z " fill="#000000"/><text fill="#000000" font-family="sans-serif" font-size="14" lengthAdjust="spacing" textLength="67.0332" x="2954.5" y="135.8467">Actuation</text><line style="stroke:#181818;stroke-width:0.5;" x1="2926.5" x2="3023.5332" y1="147" y2="147"/><line style="stroke:#181818;stroke-width:0.5;" x1="2926.5" x2="3023.5332" y1="155" y2="155"/></g><!--class ActuationCollection--><g class="entity" data-qualified-name="ActuationCollection" data-source-line="17" id="ent0039"><rect fill="#F1F1F1" height="48" rx="2.5" ry="2.5" style="stroke:#181818;stroke-width:0.5;" width="168.2813" x="2368" y="115"/><ellipse cx="2383" cy="131" fill="#ADD1B2" rx="11" ry="11" style="stroke:#181818;stroke-width:1;"/><path d="M2385.9688,136.6406 Q2385.3906,136.9375 2384.75,137.0781 Q2384.1094,137.2344 2383.4063,137.2344 Q2380.9063,137.2344 2379.5781,135.5938 Q2378.2656,133.9375 2378.2656,130.8125 Q2378.2656,127.6875 2379.5781,126.0313 Q2380.9063,124.375 2383.4063,124.375 Q2384.1094,124.375 2384.75,124.5313 Q2385.4063,124.6875 2385.9688,124.9844 L2385.9688,127.7031 Q2385.3438,127.125 2384.75,126.8594 Q2384.1563,126.5781 2383.5313,126.5781 Q2382.1875,126.5781 2381.5,127.6563 Q2380.8125,128.7188 2380.8125,130.8125 Q2380.8125,132.9063 2381.5,133.9844 Q2382.1875,135.0469 2383.5313,135.0469 Q2384.1563,135.0469 2384.75,134.7813 Q2385.3438,134.5 2385.9688,133.9219 L2385.9688,136.6406 Z " fill="#000000"/><text fill="#000000" font-family="sans-serif" font-size="14" lengthAdjust="spacing" textLength="136.2813" x="2397" y="135.8467">ActuationCollection</text><line style="stroke:#181818;stroke-width:0.5;" x1="2369" x2="2535.2813" y1="147" y2="147"/><line style="stroke:#181818;stroke-width:0.5;" x1="2369" x2="2535.2813" y1="155" y2="155"/></g><!--class ObservationCollection--><g class="entity" data-qualified-name="ObservationCollection" data-source-line="18" id="ent0041"><rect fill="#F1F1F1" height="48" rx="2.5" ry="2.5" style="stroke:#181818;stroke-width:0.5;" width="186.499" x="2571" y="115"/><ellipse cx="2586" cy="131" fill="#ADD1B2" rx="11" ry="11" style="stroke:#181818;stroke-width:1;"/><path d="M2588.9688,136.6406 Q2588.3906,136.9375 2587.75,137.0781 Q2587.1094,137.2344 2586.4063,137.2344 Q2583.9063,137.2344 2582.5781,135.5938 Q2581.2656,133.9375 2581.2656,130.8125 Q2581.2656,127.6875 2582.5781,126.0313 Q2583.9063,124.375 2586.4063,124.375 Q2587.1094,124.375 2587.75,124.5313 Q2588.4063,124.6875 2588.9688,124.9844 L2588.9688,127.7031 Q2588.3438,127.125 2587.75,126.8594 Q2587.1563,126.5781 2586.5313,126.5781 Q2585.1875,126.5781 2584.5,127.6563 Q2583.8125,128.7188 2583.8125,130.8125 Q2583.8125,132.9063 2584.5,133.9844 Q2585.1875,135.0469 2586.5313,135.0469 Q2587.1563,135.0469 2587.75,134.7813 Q2588.3438,134.5 2588.9688,133.9219 L2588.9688,136.6406 Z " fill="#000000"/><text fill="#000000" font-family="sans-serif" font-size="14" lengthAdjust="spacing" textLength="154.499" x="2600" y="135.8467">ObservationCollection</text><line style="stroke:#181818;stroke-width:0.5;" x1="2572" x2="2756.499" y1="147" y2="147"/><line style="stroke:#181818;stroke-width:0.5;" x1="2572" x2="2756.499" y1="155" y2="155"/></g><!--class Observation--><g class="entity" data-qualified-name="Observation" data-source-line="19" id="ent0043"><rect fill="#F1F1F1" height="48" rx="2.5" ry="2.5" style="stroke:#181818;stroke-width:0.5;" width="117.251" x="3059.5" y="115"/><ellipse cx="3074.5" cy="131" fill="#ADD1B2" rx="11" ry="11" style="stroke:#181818;stroke-width:1;"/><path d="M3077.4688,136.6406 Q3076.8906,136.9375 3076.25,137.0781 Q3075.6094,137.2344 3074.9063,137.2344 Q3072.4063,137.2344 3071.0781,135.5938 Q3069.7656,133.9375 3069.7656,130.8125 Q3069.7656,127.6875 3071.0781,126.0313 Q3072.4063,124.375 3074.9063,124.375 Q3075.6094,124.375 3076.25,124.5313 Q3076.9063,124.6875 3077.4688,124.9844 L3077.4688,127.7031 Q3076.8438,127.125 3076.25,126.8594 Q3075.6563,126.5781 3075.0313,126.5781 Q3073.6875,126.5781 3073,127.6563 Q3072.3125,128.7188 3072.3125,130.8125 Q3072.3125,132.9063 3073,133.9844 Q3073.6875,135.0469 3075.0313,135.0469 Q3075.6563,135.0469 3076.25,134.7813 Q3076.8438,134.5 3077.4688,133.9219 L3077.4688,136.6406 Z " fill="#000000"/><text fill="#000000" font-family="sans-serif" font-size="14" lengthAdjust="spacing" textLength="85.251" x="3088.5" y="135.8467">Observation</text><line style="stroke:#181818;stroke-width:0.5;" x1="3060.5" x2="3175.751" y1="147" y2="147"/><line style="stroke:#181818;stroke-width:0.5;" x1="3060.5" x2="3175.751" y1="155" y2="155"/></g><!--class FeatureOfInterest--><g class="entity" data-qualified-name="FeatureOfInterest" data-source-line="20" id="ent0045"><rect fill="#F1F1F1" height="48" rx="2.5" ry="2.5" style="stroke:#181818;stroke-width:0.5;" width="156.1816" x="7" y="7"/><ellipse cx="22" cy="23" fill="#ADD1B2" rx="11" ry="11" style="stroke:#181818;stroke-width:1;"/><path d="M24.9688,28.6406 Q24.3906,28.9375 23.75,29.0781 Q23.1094,29.2344 22.4063,29.2344 Q19.9063,29.2344 18.5781,27.5938 Q17.2656,25.9375 17.2656,22.8125 Q17.2656,19.6875 18.5781,18.0313 Q19.9063,16.375 22.4063,16.375 Q23.1094,16.375 23.75,16.5313 Q24.4063,16.6875 24.9688,16.9844 L24.9688,19.7031 Q24.3438,19.125 23.75,18.8594 Q23.1563,18.5781 22.5313,18.5781 Q21.1875,18.5781 20.5,19.6563 Q19.8125,20.7188 19.8125,22.8125 Q19.8125,24.9063 20.5,25.9844 Q21.1875,27.0469 22.5313,27.0469 Q23.1563,27.0469 23.75,26.7813 Q24.3438,26.5 24.9688,25.9219 L24.9688,28.6406 Z " fill="#000000"/><text fill="#000000" font-family="sans-serif" font-size="14" lengthAdjust="spacing" textLength="124.1816" x="36" y="27.8467">FeatureOfInterest</text><line style="stroke:#181818;stroke-width:0.5;" x1="8" x2="162.1816" y1="39" y2="39"/><line style="stroke:#181818;stroke-width:0.5;" x1="8" x2="162.1816" y1="47" y2="47"/></g><!--class Result--><g class="entity" data-qualified-name="Result" data-source-line="21" id="ent0046"><rect fill="#F1F1F1" height="48" rx="2.5" ry="2.5" style="stroke:#181818;stroke-width:0.5;" width="75.8867" x="198" y="7"/><ellipse cx="213" cy="23" fill="#ADD1B2" rx="11" ry="11" style="stroke:#181818;stroke-width:1;"/><path d="M215.9688,28.6406 Q215.3906,28.9375 214.75,29.0781 Q214.1094,29.2344 213.4063,29.2344 Q210.9063,29.2344 209.5781,27.5938 Q208.2656,25.9375 208.2656,22.8125 Q208.2656,19.6875 209.5781,18.0313 Q210.9063,16.375 213.4063,16.375 Q214.1094,16.375 214.75,16.5313 Q215.4063,16.6875 215.9688,16.9844 L215.9688,19.7031 Q215.3438,19.125 214.75,18.8594 Q214.1563,18.5781 213.5313,18.5781 Q212.1875,18.5781 211.5,19.6563 Q210.8125,20.7188 210.8125,22.8125 Q210.8125,24.9063 211.5,25.9844 Q212.1875,27.0469 213.5313,27.0469 Q214.1563,27.0469 214.75,26.7813 Q215.3438,26.5 215.9688,25.9219 L215.9688,28.6406 Z " fill="#000000"/><text fill="#000000" font-family="sans-serif" font-size="14" lengthAdjust="spacing" textLength="43.8867" x="227" y="27.8467">Result</text><line style="stroke:#181818;stroke-width:0.5;" x1="199" x2="272.8867" y1="39" y2="39"/><line style="stroke:#181818;stroke-width:0.5;" x1="199" x2="272.8867" y1="47" y2="47"/></g><!--class Deployment--><g class="entity" data-qualified-name="Deployment" data-source-line="22" id="ent0047"><rect fill="#F1F1F1" height="48" rx="2.5" ry="2.5" style="stroke:#181818;stroke-width:0.5;" width="117.6338" x="309" y="7"/><ellipse cx="324" cy="23" fill="#ADD1B2" rx="11" ry="11" style="stroke:#181818;stroke-width:1;"/><path d="M326.9688,28.6406 Q326.3906,28.9375 325.75,29.0781 Q325.1094,29.2344 324.4063,29.2344 Q321.9063,29.2344 320.5781,27.5938 Q319.2656,25.9375 319.2656,22.8125 Q319.2656,19.6875 320.5781,18.0313 Q321.9063,16.375 324.4063,16.375 Q325.1094,16.375 325.75,16.5313 Q326.4063,16.6875 326.9688,16.9844 L326.9688,19.7031 Q326.3438,19.125 325.75,18.8594 Q325.1563,18.5781 324.5313,18.5781 Q323.1875,18.5781 322.5,19.6563 Q321.8125,20.7188 321.8125,22.8125 Q321.8125,24.9063 322.5,25.9844 Q323.1875,27.0469 324.5313,27.0469 Q325.1563,27.0469 325.75,26.7813 Q326.3438,26.5 326.9688,25.9219 L326.9688,28.6406 Z " fill="#000000"/><text fill="#000000" font-family="sans-serif" font-size="14" lengthAdjust="spacing" textLength="85.6338" x="338" y="27.8467">Deployment</text><line style="stroke:#181818;stroke-width:0.5;" x1="310" x2="425.6338" y1="39" y2="39"/><line style="stroke:#181818;stroke-width:0.5;" x1="310" x2="425.6338" y1="47" y2="47"/></g><!--class Stimulus--><g class="entity" data-qualified-name="Stimulus" data-source-line="23" id="ent0048"><rect fill="#F1F1F1" height="48" rx="2.5" ry="2.5" style="stroke:#181818;stroke-width:0.5;" width="92.833" x="38.5" y="115"/><ellipse cx="53.5" cy="131" fill="#ADD1B2" rx="11" ry="11" style="stroke:#181818;stroke-width:1;"/><path d="M56.4688,136.6406 Q55.8906,136.9375 55.25,137.0781 Q54.6094,137.2344 53.9063,137.2344 Q51.4063,137.2344 50.0781,135.5938 Q48.7656,133.9375 48.7656,130.8125 Q48.7656,127.6875 50.0781,126.0313 Q51.4063,124.375 53.9063,124.375 Q54.6094,124.375 55.25,124.5313 Q55.9063,124.6875 56.4688,124.9844 L56.4688,127.7031 Q55.8438,127.125 55.25,126.8594 Q54.6563,126.5781 54.0313,126.5781 Q52.6875,126.5781 52,127.6563 Q51.3125,128.7188 51.3125,130.8125 Q51.3125,132.9063 52,133.9844 Q52.6875,135.0469 54.0313,135.0469 Q54.6563,135.0469 55.25,134.7813 Q55.8438,134.5 56.4688,133.9219 L56.4688,136.6406 Z " fill="#000000"/><text fill="#000000" font-family="sans-serif" font-size="14" lengthAdjust="spacing" textLength="60.833" x="67.5" y="135.8467">Stimulus</text><line style="stroke:#181818;stroke-width:0.5;" x1="39.5" x2="130.333" y1="147" y2="147"/><line style="stroke:#181818;stroke-width:0.5;" x1="39.5" x2="130.333" y1="155" y2="155"/></g><!--class SampleCollection--><g class="entity" data-qualified-name="SampleCollection" data-source-line="24" id="ent0049"><rect fill="#F1F1F1" height="48" rx="2.5" ry="2.5" style="stroke:#181818;stroke-width:0.5;" width="153.7412" x="167" y="115"/><ellipse cx="182" cy="131" fill="#ADD1B2" rx="11" ry="11" style="stroke:#181818;stroke-width:1;"/><path d="M184.9688,136.6406 Q184.3906,136.9375 183.75,137.0781 Q183.1094,137.2344 182.4063,137.2344 Q179.9063,137.2344 178.5781,135.5938 Q177.2656,133.9375 177.2656,130.8125 Q177.2656,127.6875 178.5781,126.0313 Q179.9063,124.375 182.4063,124.375 Q183.1094,124.375 183.75,124.5313 Q184.4063,124.6875 184.9688,124.9844 L184.9688,127.7031 Q184.3438,127.125 183.75,126.8594 Q183.1563,126.5781 182.5313,126.5781 Q181.1875,126.5781 180.5,127.6563 Q179.8125,128.7188 179.8125,130.8125 Q179.8125,132.9063 180.5,133.9844 Q181.1875,135.0469 182.5313,135.0469 Q183.1563,135.0469 183.75,134.7813 Q184.3438,134.5 184.9688,133.9219 L184.9688,136.6406 Z " fill="#000000"/><text fill="#000000" font-family="sans-serif" font-size="14" lengthAdjust="spacing" textLength="121.7412" x="196" y="135.8467">SampleCollection</text><line style="stroke:#181818;stroke-width:0.5;" x1="168" x2="319.7412" y1="147" y2="147"/><line style="stroke:#181818;stroke-width:0.5;" x1="168" x2="319.7412" y1="155" y2="155"/></g><!--reverse link Property to ActuatableProperty--><g class="link" data-entity-1="ent0001" data-entity-2="ent0002" data-link-type="extension" data-source-line="1" id="lnk3"><path codeLine="1" d="M533.0348,66.0163 C510.2148,83.6763 493.07,96.94 470.14,114.68" fill="none" id="Property-backto-ActuatableProperty" style="stroke:#181818;stroke-width:1;"/><polygon fill="none" points="547.27,55,529.3627,61.2713,536.7069,70.7614,547.27,55" style="stroke:#181818;stroke-width:1;stroke-linejoin:miter;stroke-miterlimit:10;"/></g><!--reverse link Sample to MaterialSample--><g class="link" data-entity-1="ent0004" data-entity-2="ent0005" data-link-type="extension" data-source-line="2" id="lnk6"><path codeLine="2" d="M956.3567,64.4445 C927.6067,82.1645 903.35,97.11 874.55,114.86" fill="none" id="Sample-backto-MaterialSample" style="stroke:#181818;stroke-width:1;"/><polygon fill="none" points="971.68,55,953.2086,59.3367,959.5049,69.5522,971.68,55" style="stroke:#181818;stroke-width:1;stroke-linejoin:miter;stroke-miterlimit:10;"/></g><!--reverse link Property to ObservableProperty--><g class="link" data-entity-1="ent0001" data-entity-2="ent0007" data-link-type="extension" data-source-line="3" id="lnk8"><path codeLine="3" d="M601.4698,70.1501 C612.7998,87.8101 618.66,96.94 630.04,114.68" fill="none" id="Property-backto-ObservableProperty" style="stroke:#181818;stroke-width:1;"/><polygon fill="none" points="591.75,55,596.4197,73.39,606.5198,66.9102,591.75,55" style="stroke:#181818;stroke-width:1;stroke-linejoin:miter;stroke-miterlimit:10;"/></g><!--reverse link Sample to SpatialSample--><g class="link" data-entity-1="ent0004" data-entity-2="ent0009" data-link-type="extension" data-source-line="4" id="lnk10"><path codeLine="4" d="M1009,73 C1009,90.66 1009,96.94 1009,114.68" fill="none" id="Sample-backto-SpatialSample" style="stroke:#181818;stroke-width:1;"/><polygon fill="none" points="1009,55,1003,73,1015,73,1009,55" style="stroke:#181818;stroke-width:1;stroke-linejoin:miter;stroke-miterlimit:10;"/></g><!--reverse link Sample to StatisticalSample--><g class="link" data-entity-1="ent0004" data-entity-2="ent0011" data-link-type="extension" data-source-line="5" id="lnk12"><path codeLine="5" d="M1063.3276,64.1725 C1093.2476,81.8925 1118.95,97.11 1148.93,114.86" fill="none" id="Sample-backto-StatisticalSample" style="stroke:#181818;stroke-width:1;"/><polygon fill="none" points="1047.84,55,1060.2701,69.335,1066.3851,59.0099,1047.84,55" style="stroke:#181818;stroke-width:1;stroke-linejoin:miter;stroke-miterlimit:10;"/></g><!--reverse link Procedure to ActuatingProcedure--><g class="link" data-entity-1="ent0013" data-entity-2="ent0014" data-link-type="extension" data-source-line="6" id="lnk15"><path codeLine="6" d="M1532.8326,63.1732 C1498.0626,80.8932 1466.24,97.11 1431.4,114.86" fill="none" id="Procedure-backto-ActuatingProcedure" style="stroke:#181818;stroke-width:1;"/><polygon fill="none" points="1548.87,55,1530.1082,57.8274,1535.557,68.519,1548.87,55" style="stroke:#181818;stroke-width:1;stroke-linejoin:miter;stroke-miterlimit:10;"/></g><!--reverse link Procedure to ObservingProcedure--><g class="link" data-entity-1="ent0013" data-entity-2="ent0016" data-link-type="extension" data-source-line="7" id="lnk17"><path codeLine="7" d="M1594,73 C1594,90.66 1594,96.94 1594,114.68" fill="none" id="Procedure-backto-ObservingProcedure" style="stroke:#181818;stroke-width:1;"/><polygon fill="none" points="1594,55,1588,73,1600,73,1594,55" style="stroke:#181818;stroke-width:1;stroke-linejoin:miter;stroke-miterlimit:10;"/></g><!--reverse link Procedure to SamplingProcedure--><g class="link" data-entity-1="ent0013" data-entity-2="ent0018" data-link-type="extension" data-source-line="8" id="lnk19"><path codeLine="8" d="M1654.9411,63.205 C1689.5411,80.925 1721.15,97.11 1755.81,114.86" fill="none" id="Procedure-backto-SamplingProcedure" style="stroke:#181818;stroke-width:1;"/><polygon fill="none" points="1638.92,55,1652.2061,68.5454,1657.6762,57.8647,1638.92,55" style="stroke:#181818;stroke-width:1;stroke-linejoin:miter;stroke-miterlimit:10;"/></g><!--reverse link Asset to Platform--><g class="link" data-entity-1="ent0020" data-entity-2="ent0021" data-link-type="extension" data-source-line="9" id="lnk22"><path codeLine="9" d="M2004.7839,70.6022 C1994.6239,88.2622 1989.63,96.94 1979.42,114.68" fill="none" id="Asset-backto-Platform" style="stroke:#181818;stroke-width:1;"/><polygon fill="none" points="2013.76,55,1999.5831,67.6102,2009.9846,73.5943,2013.76,55" style="stroke:#181818;stroke-width:1;stroke-linejoin:miter;stroke-miterlimit:10;"/></g><!--reverse link System to Sampler--><g class="link" data-entity-1="ent0023" data-entity-2="ent0024" data-link-type="extension" data-source-line="10" id="lnk25"><path codeLine="10" d="M2047.8865,174.5884 C2026.8965,192.2484 2011.81,204.94 1990.72,222.68" fill="none" id="System-backto-Sampler" style="stroke:#181818;stroke-width:1;"/><polygon fill="none" points="2061.66,163,2044.0237,169.9972,2051.7493,179.1795,2061.66,163" style="stroke:#181818;stroke-width:1;stroke-linejoin:miter;stroke-miterlimit:10;"/></g><!--reverse link System to Actuator--><g class="link" data-entity-1="ent0023" data-entity-2="ent0026" data-link-type="extension" data-source-line="11" id="lnk27"><path codeLine="11" d="M2089,181 C2089,198.66 2089,204.94 2089,222.68" fill="none" id="System-backto-Actuator" style="stroke:#181818;stroke-width:1;"/><polygon fill="none" points="2089,163,2083,181,2095,181,2089,163" style="stroke:#181818;stroke-width:1;stroke-linejoin:miter;stroke-miterlimit:10;"/></g><!--reverse link ExecutionCollection to SamplingCollection--><g class="link" data-entity-1="ent0028" data-entity-2="ent0029" data-link-type="extension" data-source-line="12" id="lnk30"><path codeLine="12" d="M2392.231,63.3636 C2358.461,81.0836 2327.93,97.11 2294.09,114.86" fill="none" id="ExecutionCollection-backto-SamplingCollection" style="stroke:#181818;stroke-width:1;"/><polygon fill="none" points="2408.17,55,2389.4432,58.0506,2395.0189,68.6766,2408.17,55" style="stroke:#181818;stroke-width:1;stroke-linejoin:miter;stroke-miterlimit:10;"/></g><!--reverse link Asset to System--><g class="link" data-entity-1="ent0020" data-entity-2="ent0023" data-link-type="extension" data-source-line="13" id="lnk31"><path codeLine="13" d="M2049.5383,70.5372 C2059.8683,88.1972 2064.98,96.94 2075.36,114.68" fill="none" id="Asset-backto-System" style="stroke:#181818;stroke-width:1;"/><polygon fill="none" points="2040.45,55,2044.3592,73.5666,2054.7173,67.5077,2040.45,55" style="stroke:#181818;stroke-width:1;stroke-linejoin:miter;stroke-miterlimit:10;"/></g><!--reverse link System to Sensor--><g class="link" data-entity-1="ent0023" data-entity-2="ent0032" data-link-type="extension" data-source-line="14" id="lnk33"><path codeLine="14" d="M2128.7968,174.864 C2148.9468,192.524 2163.13,204.94 2183.38,222.68" fill="none" id="System-backto-Sensor" style="stroke:#181818;stroke-width:1;"/><polygon fill="none" points="2115.26,163,2124.8421,179.3763,2132.7515,170.3518,2115.26,163" style="stroke:#181818;stroke-width:1;stroke-linejoin:miter;stroke-miterlimit:10;"/></g><!--reverse link Execution to Sampling--><g class="link" data-entity-1="ent0034" data-entity-2="ent0035" data-link-type="extension" data-source-line="15" id="lnk36"><path codeLine="15" d="M2931.8041,66.1688 C2909.4841,83.8288 2892.91,96.94 2870.48,114.68" fill="none" id="Execution-backto-Sampling" style="stroke:#181818;stroke-width:1;"/><polygon fill="none" points="2945.92,55,2928.0812,61.4635,2935.527,70.8741,2945.92,55" style="stroke:#181818;stroke-width:1;stroke-linejoin:miter;stroke-miterlimit:10;"/></g><!--reverse link Execution to Actuation--><g class="link" data-entity-1="ent0034" data-entity-2="ent0037" data-link-type="extension" data-source-line="16" id="lnk38"><path codeLine="16" d="M2975,73 C2975,90.66 2975,96.94 2975,114.68" fill="none" id="Execution-backto-Actuation" style="stroke:#181818;stroke-width:1;"/><polygon fill="none" points="2975,55,2969,73,2981,73,2975,55" style="stroke:#181818;stroke-width:1;stroke-linejoin:miter;stroke-miterlimit:10;"/></g><!--reverse link ExecutionCollection to ActuationCollection--><g class="link" data-entity-1="ent0028" data-entity-2="ent0039" data-link-type="extension" data-source-line="17" id="lnk40"><path codeLine="17" d="M2452,73 C2452,90.66 2452,96.94 2452,114.68" fill="none" id="ExecutionCollection-backto-ActuationCollection" style="stroke:#181818;stroke-width:1;"/><polygon fill="none" points="2452,55,2446,73,2458,73,2452,55" style="stroke:#181818;stroke-width:1;stroke-linejoin:miter;stroke-miterlimit:10;"/></g><!--reverse link ExecutionCollection to ObservationCollection--><g class="link" data-entity-1="ent0028" data-entity-2="ent0041" data-link-type="extension" data-source-line="18" id="lnk42"><path codeLine="18" d="M2514.0997,63.0498 C2549.5397,80.7698 2582.22,97.11 2617.72,114.86" fill="none" id="ExecutionCollection-backto-ObservationCollection" style="stroke:#181818;stroke-width:1;"/><polygon fill="none" points="2498,55,2511.4164,68.4164,2516.783,57.6833,2498,55" style="stroke:#181818;stroke-width:1;stroke-linejoin:miter;stroke-miterlimit:10;"/></g><!--reverse link Execution to Observation--><g class="link" data-entity-1="ent0034" data-entity-2="ent0043" data-link-type="extension" data-source-line="19" id="lnk44"><path codeLine="19" d="M3020.4895,65.7202 C3044.3095,83.3802 3062.61,96.94 3086.54,114.68" fill="none" id="Execution-backto-Observation" style="stroke:#181818;stroke-width:1;"/><polygon fill="none" points="3006.03,55,3016.9161,70.54,3024.0629,60.9004,3006.03,55" style="stroke:#181818;stroke-width:1;stroke-linejoin:miter;stroke-miterlimit:10;"/></g><?plantuml-src VL9RZiCW4Fld5Bb0Rx0_rJwaVbIDDYUWrAsG1eYOeTf8U_XDIz90g-mVs1xR6cXZw15bQDv-DvjcQoHfqKT2E-6gqwudP7gl1T5gofXggzd3aH6lgxDThsKPhHWP6HPhIcE3KueeMrb_UU3FYfpzd-BkN0csp91CjgJb7A9JtS02LqmWLbXk4gBw_859OeD_3qGmjrETi-1bKFQgO-2vDAnjdl5f5QFhQeE7fAYmAfuURKt-8bA6D7Fp1ItZ3W_ddHz_15Wc_1kSQBvyeASmEFWPwCIwH8ddwtt1I-mV?></g></svg>