<svg xmlns="http://www.w3.org/2000/svg" xmlns:xlink="http://www.w3.org/1999/xlink" contentStyleType="text/css" data-diagram-type="CLASS" height="286px" preserveAspectRatio="none" style="width:3222px;height:286px;background:#FFFFFF;" version="1.1" viewBox="0 0 3222 286" width="3222px" zoomAndPan="magnify"><?plantuml 1.2026.3?><defs/><g><!--class Property--><g class="entity" data-qualified-name="Property" data-source-line="1" id="ent0002"><rect fill="#F1F1F1" height="48" rx="2.5" ry="2.5" style="stroke:#181818;stroke-width:0.5;" width="91.7939" x="527" y="7"/><ellipse cx="542" cy="23" fill="#ADD1B2" rx="11" ry="11" style="stroke:#181818;stroke-width:1;"/><path d="M544.9688,28.6406 Q544.3906,28.9375 543.75,29.0781 Q543.1094,29.2344 542.4063,29.2344 Q539.9063,29.2344 538.5781,27.5938 Q537.2656,25.9375 537.2656,22.8125 Q537.2656,19.6875 538.5781,18.0313 Q539.9063,16.375 542.4063,16.375 Q543.1094,16.375 543.75,16.5313 Q544.4063,16.6875 544.9688,16.9844 L544.9688,19.7031 Q544.3438,19.125 543.75,18.8594 Q543.1563,18.5781 542.5313,18.5781 Q541.1875,18.5781 540.5,19.6563 Q539.8125,20.7188 539.8125,22.8125 Q539.8125,24.9063 540.5,25.9844 Q541.1875,27.0469 542.5313,27.0469 Q543.1563,27.0469 543.75,26.7813 Q544.3438,26.5 544.9688,25.9219 L544.9688,28.6406 Z " fill="#000000"/><text fill="#000000" font-family="sans-serif" font-size="14" lengthAdjust="spacing" textLength="59.7939" x="556" y="27.8467">Property</text><line style="stroke:#181818;stroke-width:0.5;" x1="528" x2="617.7939" y1="39" y2="39"/><line style="stroke:#181818;stroke-width:0.5;" x1="528" x2="617.7939" y1="47" y2="47"/></g><!--class ActuatableProperty--><g class="entity" data-qualified-name="ActuatableProperty" data-source-line="1" id="ent0003"><rect fill="#F1F1F1" height="48" rx="2.5" ry="2.5" style="stroke:#181818;stroke-width:0.5;" width="167.4678" x="387.5" y="115"/><ellipse cx="402.5" cy="131" fill="#ADD1B2" rx="11" ry="11" style="stroke:#181818;stroke-width:1;"/><path d="M405.4688,136.6406 Q404.8906,136.9375 404.25,137.0781 Q403.6094,137.2344 402.9063,137.2344 Q400.4063,137.2344 399.0781,135.5938 Q397.7656,133.9375 397.7656,130.8125 Q397.7656,127.6875 399.0781,126.0313 Q400.4063,124.375 402.9063,124.375 Q403.6094,124.375 404.25,124.5313 Q404.9063,124.6875 405.4688,124.9844 L405.4688,127.7031 Q404.8438,127.125 404.25,126.8594 Q403.6563,126.5781 403.0313,126.5781 Q401.6875,126.5781 401,127.6563 Q400.3125,128.7188 400.3125,130.8125 Q400.3125,132.9063 401,133.9844 Q401.6875,135.0469 403.0313,135.0469 Q403.6563,135.0469 404.25,134.7813 Q404.8438,134.5 405.4688,133.9219 L405.4688,136.6406 Z " fill="#000000"/><text fill="#000000" font-family="sans-serif" font-size="14" lengthAdjust="spacing" textLength="135.4678" x="416.5" y="135.8467">ActuatableProperty</text><line style="stroke:#181818;stroke-width:0.5;" x1="388.5" x2="553.9678" y1="147" y2="147"/><line style="stroke:#181818;stroke-width:0.5;" x1="388.5" x2="553.9678" y1="155" y2="155"/></g><!--class Sample--><g class="entity" data-qualified-name="Sample" data-source-line="2" id="ent0005"><rect fill="#F1F1F1" height="48" rx="2.5" ry="2.5" style="stroke:#181818;stroke-width:0.5;" width="84.4932" x="998" y="7"/><ellipse cx="1013" cy="23" fill="#ADD1B2" rx="11" ry="11" style="stroke:#181818;stroke-width:1;"/><path d="M1015.9688,28.6406 Q1015.3906,28.9375 1014.75,29.0781 Q1014.1094,29.2344 1013.4063,29.2344 Q1010.9063,29.2344 1009.5781,27.5938 Q1008.2656,25.9375 1008.2656,22.8125 Q1008.2656,19.6875 1009.5781,18.0313 Q1010.9063,16.375 1013.4063,16.375 Q1014.1094,16.375 1014.75,16.5313 Q1015.4063,16.6875 1015.9688,16.9844 L1015.9688,19.7031 Q1015.3438,19.125 1014.75,18.8594 Q1014.1563,18.5781 1013.5313,18.5781 Q1012.1875,18.5781 1011.5,19.6563 Q1010.8125,20.7188 1010.8125,22.8125 Q1010.8125,24.9063 1011.5,25.9844 Q1012.1875,27.0469 1013.5313,27.0469 Q1014.1563,27.0469 1014.75,26.7813 Q1015.3438,26.5 1015.9688,25.9219 L1015.9688,28.6406 Z " fill="#000000"/><text fill="#000000" font-family="sans-serif" font-size="14" lengthAdjust="spacing" textLength="52.4932" x="1027" y="27.8467">Sample</text><line style="stroke:#181818;stroke-width:0.5;" x1="999" x2="1081.4932" y1="39" y2="39"/><line style="stroke:#181818;stroke-width:0.5;" x1="999" x2="1081.4932" y1="47" y2="47"/></g><!--class MaterialSample--><g class="entity" data-qualified-name="MaterialSample" data-source-line="2" id="ent0006"><rect fill="#F1F1F1" height="48" rx="2.5" ry="2.5" style="stroke:#181818;stroke-width:0.5;" width="141.3682" x="797.5" y="115"/><ellipse cx="812.5" cy="131" fill="#ADD1B2" rx="11" ry="11" style="stroke:#181818;stroke-width:1;"/><path d="M815.4688,136.6406 Q814.8906,136.9375 814.25,137.0781 Q813.6094,137.2344 812.9063,137.2344 Q810.4063,137.2344 809.0781,135.5938 Q807.7656,133.9375 807.7656,130.8125 Q807.7656,127.6875 809.0781,126.0313 Q810.4063,124.375 812.9063,124.375 Q813.6094,124.375 814.25,124.5313 Q814.9063,124.6875 815.4688,124.9844 L815.4688,127.7031 Q814.8438,127.125 814.25,126.8594 Q813.6563,126.5781 813.0313,126.5781 Q811.6875,126.5781 811,127.6563 Q810.3125,128.7188 810.3125,130.8125 Q810.3125,132.9063 811,133.9844 Q811.6875,135.0469 813.0313,135.0469 Q813.6563,135.0469 814.25,134.7813 Q814.8438,134.5 815.4688,133.9219 L815.4688,136.6406 Z " fill="#000000"/><text fill="#000000" font-family="sans-serif" font-size="14" lengthAdjust="spacing" textLength="109.3682" x="826.5" y="135.8467">MaterialSample</text><line style="stroke:#181818;stroke-width:0.5;" x1="798.5" x2="937.8682" y1="147" y2="147"/><line style="stroke:#181818;stroke-width:0.5;" x1="798.5" x2="937.8682" y1="155" y2="155"/></g><!--class ObservableProperty--><g class="entity" data-qualified-name="ObservableProperty" data-source-line="3" id="ent0008"><rect fill="#F1F1F1" height="48" rx="2.5" ry="2.5" style="stroke:#181818;stroke-width:0.5;" width="171.6172" x="590" y="115"/><ellipse cx="605" cy="131" fill="#ADD1B2" rx="11" ry="11" style="stroke:#181818;stroke-width:1;"/><path d="M607.9688,136.6406 Q607.3906,136.9375 606.75,137.0781 Q606.1094,137.2344 605.4063,137.2344 Q602.9063,137.2344 601.5781,135.5938 Q600.2656,133.9375 600.2656,130.8125 Q600.2656,127.6875 601.5781,126.0313 Q602.9063,124.375 605.4063,124.375 Q606.1094,124.375 606.75,124.5313 Q607.4063,124.6875 607.9688,124.9844 L607.9688,127.7031 Q607.3438,127.125 606.75,126.8594 Q606.1563,126.5781 605.5313,126.5781 Q604.1875,126.5781 603.5,127.6563 Q602.8125,128.7188 602.8125,130.8125 Q602.8125,132.9063 603.5,133.9844 Q604.1875,135.0469 605.5313,135.0469 Q606.1563,135.0469 606.75,134.7813 Q607.3438,134.5 607.9688,133.9219 L607.9688,136.6406 Z " fill="#000000"/><text fill="#000000" font-family="sans-serif" font-size="14" lengthAdjust="spacing" textLength="139.6172" x="619" y="135.8467">ObservableProperty</text><line style="stroke:#181818;stroke-width:0.5;" x1="591" x2="760.6172" y1="147" y2="147"/><line style="stroke:#181818;stroke-width:0.5;" x1="591" x2="760.6172" y1="155" y2="155"/></g><!--class SpatialSample--><g class="entity" data-qualified-name="SpatialSample" data-source-line="4" id="ent0010"><rect fill="#F1F1F1" height="48" rx="2.5" ry="2.5" style="stroke:#181818;stroke-width:0.5;" width="132.6934" x="973.5" y="115"/><ellipse cx="988.5" cy="131" fill="#ADD1B2" rx="11" ry="11" style="stroke:#181818;stroke-width:1;"/><path d="M991.4688,136.6406 Q990.8906,136.9375 990.25,137.0781 Q989.6094,137.2344 988.9063,137.2344 Q986.4063,137.2344 985.0781,135.5938 Q983.7656,133.9375 983.7656,130.8125 Q983.7656,127.6875 985.0781,126.0313 Q986.4063,124.375 988.9063,124.375 Q989.6094,124.375 990.25,124.5313 Q990.9063,124.6875 991.4688,124.9844 L991.4688,127.7031 Q990.8438,127.125 990.25,126.8594 Q989.6563,126.5781 989.0313,126.5781 Q987.6875,126.5781 987,127.6563 Q986.3125,128.7188 986.3125,130.8125 Q986.3125,132.9063 987,133.9844 Q987.6875,135.0469 989.0313,135.0469 Q989.6563,135.0469 990.25,134.7813 Q990.8438,134.5 991.4688,133.9219 L991.4688,136.6406 Z " fill="#000000"/><text fill="#000000" font-family="sans-serif" font-size="14" lengthAdjust="spacing" textLength="100.6934" x="1002.5" y="135.8467">SpatialSample</text><line style="stroke:#181818;stroke-width:0.5;" x1="974.5" x2="1105.1934" y1="147" y2="147"/><line style="stroke:#181818;stroke-width:0.5;" x1="974.5" x2="1105.1934" y1="155" y2="155"/></g><!--class StatisticalSample--><g class="entity" data-qualified-name="StatisticalSample" data-source-line="5" id="ent0012"><rect fill="#F1F1F1" height="48" rx="2.5" ry="2.5" style="stroke:#181818;stroke-width:0.5;" width="153.666" x="1142" y="115"/><ellipse cx="1157" cy="131" fill="#ADD1B2" rx="11" ry="11" style="stroke:#181818;stroke-width:1;"/><path d="M1159.9688,136.6406 Q1159.3906,136.9375 1158.75,137.0781 Q1158.1094,137.2344 1157.4063,137.2344 Q1154.9063,137.2344 1153.5781,135.5938 Q1152.2656,133.9375 1152.2656,130.8125 Q1152.2656,127.6875 1153.5781,126.0313 Q1154.9063,124.375 1157.4063,124.375 Q1158.1094,124.375 1158.75,124.5313 Q1159.4063,124.6875 1159.9688,124.9844 L1159.9688,127.7031 Q1159.3438,127.125 1158.75,126.8594 Q1158.1563,126.5781 1157.5313,126.5781 Q1156.1875,126.5781 1155.5,127.6563 Q1154.8125,128.7188 1154.8125,130.8125 Q1154.8125,132.9063 1155.5,133.9844 Q1156.1875,135.0469 1157.5313,135.0469 Q1158.1563,135.0469 1158.75,134.7813 Q1159.3438,134.5 1159.9688,133.9219 L1159.9688,136.6406 Z " fill="#000000"/><text fill="#000000" font-family="sans-serif" font-size="14" lengthAdjust="spacing" textLength="121.666" x="1171" y="135.8467">StatisticalSample</text><line style="stroke:#181818;stroke-width:0.5;" x1="1143" x2="1294.666" y1="147" y2="147"/><line style="stroke:#181818;stroke-width:0.5;" x1="1143" x2="1294.666" y1="155" y2="155"/></g><!--class Procedure--><g class="entity" data-qualified-name="Procedure" data-source-line="6" id="ent0014"><rect fill="#F1F1F1" height="48" rx="2.5" ry="2.5" style="stroke:#181818;stroke-width:0.5;" width="103.2031" x="1573.5" y="7"/><ellipse cx="1588.5" cy="23" fill="#ADD1B2" rx="11" ry="11" style="stroke:#181818;stroke-width:1;"/><path d="M1591.4688,28.6406 Q1590.8906,28.9375 1590.25,29.0781 Q1589.6094,29.2344 1588.9063,29.2344 Q1586.4063,29.2344 1585.0781,27.5938 Q1583.7656,25.9375 1583.7656,22.8125 Q1583.7656,19.6875 1585.0781,18.0313 Q1586.4063,16.375 1588.9063,16.375 Q1589.6094,16.375 1590.25,16.5313 Q1590.9063,16.6875 1591.4688,16.9844 L1591.4688,19.7031 Q1590.8438,19.125 1590.25,18.8594 Q1589.6563,18.5781 1589.0313,18.5781 Q1587.6875,18.5781 1587,19.6563 Q1586.3125,20.7188 1586.3125,22.8125 Q1586.3125,24.9063 1587,25.9844 Q1587.6875,27.0469 1589.0313,27.0469 Q1589.6563,27.0469 1590.25,26.7813 Q1590.8438,26.5 1591.4688,25.9219 L1591.4688,28.6406 Z " fill="#000000"/><text fill="#000000" font-family="sans-serif" font-size="14" lengthAdjust="spacing" textLength="71.2031" x="1602.5" y="27.8467">Procedure</text><line style="stroke:#181818;stroke-width:0.5;" x1="1574.5" x2="1675.7031" y1="39" y2="39"/><line style="stroke:#181818;stroke-width:0.5;" x1="1574.5" x2="1675.7031" y1="47" y2="47"/></g><!--class ActuatingProcedure--><g class="entity" data-qualified-name="ActuatingProcedure" data-source-line="6" id="ent0015"><rect fill="#F1F1F1" height="48" rx="2.5" ry="2.5" style="stroke:#181818;stroke-width:0.5;" width="170.5576" x="1331.5" y="115"/><ellipse cx="1346.5" cy="131" fill="#ADD1B2" rx="11" ry="11" style="stroke:#181818;stroke-width:1;"/><path d="M1349.4688,136.6406 Q1348.8906,136.9375 1348.25,137.0781 Q1347.6094,137.2344 1346.9063,137.2344 Q1344.4063,137.2344 1343.0781,135.5938 Q1341.7656,133.9375 1341.7656,130.8125 Q1341.7656,127.6875 1343.0781,126.0313 Q1344.4063,124.375 1346.9063,124.375 Q1347.6094,124.375 1348.25,124.5313 Q1348.9063,124.6875 1349.4688,124.9844 L1349.4688,127.7031 Q1348.8438,127.125 1348.25,126.8594 Q1347.6563,126.5781 1347.0313,126.5781 Q1345.6875,126.5781 1345,127.6563 Q1344.3125,128.7188 1344.3125,130.8125 Q1344.3125,132.9063 1345,133.9844 Q1345.6875,135.0469 1347.0313,135.0469 Q1347.6563,135.0469 1348.25,134.7813 Q1348.8438,134.5 1349.4688,133.9219 L1349.4688,136.6406 Z " fill="#000000"/><text fill="#000000" font-family="sans-serif" font-size="14" lengthAdjust="spacing" textLength="138.5576" x="1360.5" y="135.8467">ActuatingProcedure</text><line style="stroke:#181818;stroke-width:0.5;" x1="1332.5" x2="1501.0576" y1="147" y2="147"/><line style="stroke:#181818;stroke-width:0.5;" x1="1332.5" x2="1501.0576" y1="155" y2="155"/></g><!--class ObservingProcedure--><g class="entity" data-qualified-name="ObservingProcedure" data-source-line="7" id="ent0017"><rect fill="#F1F1F1" height="48" rx="2.5" ry="2.5" style="stroke:#181818;stroke-width:0.5;" width="174.707" x="1537.5" y="115"/><ellipse cx="1552.5" cy="131" fill="#ADD1B2" rx="11" ry="11" style="stroke:#181818;stroke-width:1;"/><path d="M1555.4688,136.6406 Q1554.8906,136.9375 1554.25,137.0781 Q1553.6094,137.2344 1552.9063,137.2344 Q1550.4063,137.2344 1549.0781,135.5938 Q1547.7656,133.9375 1547.7656,130.8125 Q1547.7656,127.6875 1549.0781,126.0313 Q1550.4063,124.375 1552.9063,124.375 Q1553.6094,124.375 1554.25,124.5313 Q1554.9063,124.6875 1555.4688,124.9844 L1555.4688,127.7031 Q1554.8438,127.125 1554.25,126.8594 Q1553.6563,126.5781 1553.0313,126.5781 Q1551.6875,126.5781 1551,127.6563 Q1550.3125,128.7188 1550.3125,130.8125 Q1550.3125,132.9063 1551,133.9844 Q1551.6875,135.0469 1553.0313,135.0469 Q1553.6563,135.0469 1554.25,134.7813 Q1554.8438,134.5 1555.4688,133.9219 L1555.4688,136.6406 Z " fill="#000000"/><text fill="#000000" font-family="sans-serif" font-size="14" lengthAdjust="spacing" textLength="142.707" x="1566.5" y="135.8467">ObservingProcedure</text><line style="stroke:#181818;stroke-width:0.5;" x1="1538.5" x2="1711.207" y1="147" y2="147"/><line style="stroke:#181818;stroke-width:0.5;" x1="1538.5" x2="1711.207" y1="155" y2="155"/></g><!--class SamplingProcedure--><g class="entity" data-qualified-name="SamplingProcedure" data-source-line="8" id="ent0019"><rect fill="#F1F1F1" height="48" rx="2.5" ry="2.5" style="stroke:#181818;stroke-width:0.5;" width="168.7324" x="1747.5" y="115"/><ellipse cx="1762.5" cy="131" fill="#ADD1B2" rx="11" ry="11" style="stroke:#181818;stroke-width:1;"/><path d="M1765.4688,136.6406 Q1764.8906,136.9375 1764.25,137.0781 Q1763.6094,137.2344 1762.9063,137.2344 Q1760.4063,137.2344 1759.0781,135.5938 Q1757.7656,133.9375 1757.7656,130.8125 Q1757.7656,127.6875 1759.0781,126.0313 Q1760.4063,124.375 1762.9063,124.375 Q1763.6094,124.375 1764.25,124.5313 Q1764.9063,124.6875 1765.4688,124.9844 L1765.4688,127.7031 Q1764.8438,127.125 1764.25,126.8594 Q1763.6563,126.5781 1763.0313,126.5781 Q1761.6875,126.5781 1761,127.6563 Q1760.3125,128.7188 1760.3125,130.8125 Q1760.3125,132.9063 1761,133.9844 Q1761.6875,135.0469 1763.0313,135.0469 Q1763.6563,135.0469 1764.25,134.7813 Q1764.8438,134.5 1765.4688,133.9219 L1765.4688,136.6406 Z " fill="#000000"/><text fill="#000000" font-family="sans-serif" font-size="14" lengthAdjust="spacing" textLength="136.7324" x="1776.5" y="135.8467">SamplingProcedure</text><line style="stroke:#181818;stroke-width:0.5;" x1="1748.5" x2="1915.2324" y1="147" y2="147"/><line style="stroke:#181818;stroke-width:0.5;" x1="1748.5" x2="1915.2324" y1="155" y2="155"/></g><!--class Asset--><g class="entity" data-qualified-name="Asset" data-source-line="9" id="ent0021"><rect fill="#F1F1F1" height="48" rx="2.5" ry="2.5" style="stroke:#181818;stroke-width:0.5;" width="70.2676" x="2023" y="7"/><ellipse cx="2038" cy="23" fill="#ADD1B2" rx="11" ry="11" style="stroke:#181818;stroke-width:1;"/><path d="M2040.9688,28.6406 Q2040.3906,28.9375 2039.75,29.0781 Q2039.1094,29.2344 2038.4063,29.2344 Q2035.9063,29.2344 2034.5781,27.5938 Q2033.2656,25.9375 2033.2656,22.8125 Q2033.2656,19.6875 2034.5781,18.0313 Q2035.9063,16.375 2038.4063,16.375 Q2039.1094,16.375 2039.75,16.5313 Q2040.4063,16.6875 2040.9688,16.9844 L2040.9688,19.7031 Q2040.3438,19.125 2039.75,18.8594 Q2039.1563,18.5781 2038.5313,18.5781 Q2037.1875,18.5781 2036.5,19.6563 Q2035.8125,20.7188 2035.8125,22.8125 Q2035.8125,24.9063 2036.5,25.9844 Q2037.1875,27.0469 2038.5313,27.0469 Q2039.1563,27.0469 2039.75,26.7813 Q2040.3438,26.5 2040.9688,25.9219 L2040.9688,28.6406 Z " fill="#000000"/><text fill="#000000" font-family="sans-serif" font-size="14" lengthAdjust="spacing" textLength="38.2676" x="2052" y="27.8467">Asset</text><line style="stroke:#181818;stroke-width:0.5;" x1="2024" x2="2092.2676" y1="39" y2="39"/><line style="stroke:#181818;stroke-width:0.5;" x1="2024" x2="2092.2676" y1="47" y2="47"/></g><!--class Platform--><g class="entity" data-qualified-name="Platform" data-source-line="9" id="ent0022"><rect fill="#F1F1F1" height="48" rx="2.5" ry="2.5" style="stroke:#181818;stroke-width:0.5;" width="91.2881" x="1951.5" y="115"/><ellipse cx="1966.5" cy="131" fill="#ADD1B2" rx="11" ry="11" style="stroke:#181818;stroke-width:1;"/><path d="M1969.4688,136.6406 Q1968.8906,136.9375 1968.25,137.0781 Q1967.6094,137.2344 1966.9063,137.2344 Q1964.4063,137.2344 1963.0781,135.5938 Q1961.7656,133.9375 1961.7656,130.8125 Q1961.7656,127.6875 1963.0781,126.0313 Q1964.4063,124.375 1966.9063,124.375 Q1967.6094,124.375 1968.25,124.5313 Q1968.9063,124.6875 1969.4688,124.9844 L1969.4688,127.7031 Q1968.8438,127.125 1968.25,126.8594 Q1967.6563,126.5781 1967.0313,126.5781 Q1965.6875,126.5781 1965,127.6563 Q1964.3125,128.7188 1964.3125,130.8125 Q1964.3125,132.9063 1965,133.9844 Q1965.6875,135.0469 1967.0313,135.0469 Q1967.6563,135.0469 1968.25,134.7813 Q1968.8438,134.5 1969.4688,133.9219 L1969.4688,136.6406 Z " fill="#000000"/><text fill="#000000" font-family="sans-serif" font-size="14" lengthAdjust="spacing" textLength="59.2881" x="1980.5" y="135.8467">Platform</text><line style="stroke:#181818;stroke-width:0.5;" x1="1952.5" x2="2041.7881" y1="147" y2="147"/><line style="stroke:#181818;stroke-width:0.5;" x1="1952.5" x2="2041.7881" y1="155" y2="155"/></g><!--class System--><g class="entity" data-qualified-name="System" data-source-line="10" id="ent0024"><rect fill="#F1F1F1" height="48" rx="2.5" ry="2.5" style="stroke:#181818;stroke-width:0.5;" width="84.2061" x="2078" y="115"/><ellipse cx="2093" cy="131" fill="#ADD1B2" rx="11" ry="11" style="stroke:#181818;stroke-width:1;"/><path d="M2095.9688,136.6406 Q2095.3906,136.9375 2094.75,137.0781 Q2094.1094,137.2344 2093.4063,137.2344 Q2090.9063,137.2344 2089.5781,135.5938 Q2088.2656,133.9375 2088.2656,130.8125 Q2088.2656,127.6875 2089.5781,126.0313 Q2090.9063,124.375 2093.4063,124.375 Q2094.1094,124.375 2094.75,124.5313 Q2095.4063,124.6875 2095.9688,124.9844 L2095.9688,127.7031 Q2095.3438,127.125 2094.75,126.8594 Q2094.1563,126.5781 2093.5313,126.5781 Q2092.1875,126.5781 2091.5,127.6563 Q2090.8125,128.7188 2090.8125,130.8125 Q2090.8125,132.9063 2091.5,133.9844 Q2092.1875,135.0469 2093.5313,135.0469 Q2094.1563,135.0469 2094.75,134.7813 Q2095.3438,134.5 2095.9688,133.9219 L2095.9688,136.6406 Z " fill="#000000"/><text fill="#000000" font-family="sans-serif" font-size="14" lengthAdjust="spacing" textLength="52.2061" x="2107" y="135.8467">System</text><line style="stroke:#181818;stroke-width:0.5;" x1="2079" x2="2161.2061" y1="147" y2="147"/><line style="stroke:#181818;stroke-width:0.5;" x1="2079" x2="2161.2061" y1="155" y2="155"/></g><!--class Sampler--><g class="entity" data-qualified-name="Sampler" data-source-line="10" id="ent0025"><rect fill="#F1F1F1" height="48" rx="2.5" ry="2.5" style="stroke:#181818;stroke-width:0.5;" width="90.249" x="1949" y="223"/><ellipse cx="1964" cy="239" fill="#ADD1B2" rx="11" ry="11" style="stroke:#181818;stroke-width:1;"/><path d="M1966.9688,244.6406 Q1966.3906,244.9375 1965.75,245.0781 Q1965.1094,245.2344 1964.4063,245.2344 Q1961.9063,245.2344 1960.5781,243.5938 Q1959.2656,241.9375 1959.2656,238.8125 Q1959.2656,235.6875 1960.5781,234.0313 Q1961.9063,232.375 1964.4063,232.375 Q1965.1094,232.375 1965.75,232.5313 Q1966.4063,232.6875 1966.9688,232.9844 L1966.9688,235.7031 Q1966.3438,235.125 1965.75,234.8594 Q1965.1563,234.5781 1964.5313,234.5781 Q1963.1875,234.5781 1962.5,235.6563 Q1961.8125,236.7188 1961.8125,238.8125 Q1961.8125,240.9063 1962.5,241.9844 Q1963.1875,243.0469 1964.5313,243.0469 Q1965.1563,243.0469 1965.75,242.7813 Q1966.3438,242.5 1966.9688,241.9219 L1966.9688,244.6406 Z " fill="#000000"/><text fill="#000000" font-family="sans-serif" font-size="14" lengthAdjust="spacing" textLength="58.249" x="1978" y="243.8467">Sampler</text><line style="stroke:#181818;stroke-width:0.5;" x1="1950" x2="2038.249" y1="255" y2="255"/><line style="stroke:#181818;stroke-width:0.5;" x1="1950" x2="2038.249" y1="263" y2="263"/></g><!--class Actuator--><g class="entity" data-qualified-name="Actuator" data-source-line="11" id="ent0027"><rect fill="#F1F1F1" height="48" rx="2.5" ry="2.5" style="stroke:#181818;stroke-width:0.5;" width="92.0264" x="2074" y="223"/><ellipse cx="2089" cy="239" fill="#ADD1B2" rx="11" ry="11" style="stroke:#181818;stroke-width:1;"/><path d="M2091.9688,244.6406 Q2091.3906,244.9375 2090.75,245.0781 Q2090.1094,245.2344 2089.4063,245.2344 Q2086.9063,245.2344 2085.5781,243.5938 Q2084.2656,241.9375 2084.2656,238.8125 Q2084.2656,235.6875 2085.5781,234.0313 Q2086.9063,232.375 2089.4063,232.375 Q2090.1094,232.375 2090.75,232.5313 Q2091.4063,232.6875 2091.9688,232.9844 L2091.9688,235.7031 Q2091.3438,235.125 2090.75,234.8594 Q2090.1563,234.5781 2089.5313,234.5781 Q2088.1875,234.5781 2087.5,235.6563 Q2086.8125,236.7188 2086.8125,238.8125 Q2086.8125,240.9063 2087.5,241.9844 Q2088.1875,243.0469 2089.5313,243.0469 Q2090.1563,243.0469 2090.75,242.7813 Q2091.3438,242.5 2091.9688,241.9219 L2091.9688,244.6406 Z " fill="#000000"/><text fill="#000000" font-family="sans-serif" font-size="14" lengthAdjust="spacing" textLength="60.0264" x="2103" y="243.8467">Actuator</text><line style="stroke:#181818;stroke-width:0.5;" x1="2075" x2="2165.0264" y1="255" y2="255"/><line style="stroke:#181818;stroke-width:0.5;" x1="2075" x2="2165.0264" y1="263" y2="263"/></g><!--class ExecutionCollection--><g class="entity" data-qualified-name="ExecutionCollection" data-source-line="12" id="ent0029"><rect fill="#F1F1F1" height="48" rx="2.5" ry="2.5" style="stroke:#181818;stroke-width:0.5;" width="170.3799" x="2398" y="7"/><ellipse cx="2413" cy="23" fill="#ADD1B2" rx="11" ry="11" style="stroke:#181818;stroke-width:1;"/><path d="M2415.9688,28.6406 Q2415.3906,28.9375 2414.75,29.0781 Q2414.1094,29.2344 2413.4063,29.2344 Q2410.9063,29.2344 2409.5781,27.5938 Q2408.2656,25.9375 2408.2656,22.8125 Q2408.2656,19.6875 2409.5781,18.0313 Q2410.9063,16.375 2413.4063,16.375 Q2414.1094,16.375 2414.75,16.5313 Q2415.4063,16.6875 2415.9688,16.9844 L2415.9688,19.7031 Q2415.3438,19.125 2414.75,18.8594 Q2414.1563,18.5781 2413.5313,18.5781 Q2412.1875,18.5781 2411.5,19.6563 Q2410.8125,20.7188 2410.8125,22.8125 Q2410.8125,24.9063 2411.5,25.9844 Q2412.1875,27.0469 2413.5313,27.0469 Q2414.1563,27.0469 2414.75,26.7813 Q2415.3438,26.5 2415.9688,25.9219 L2415.9688,28.6406 Z " fill="#000000"/><text fill="#000000" font-family="sans-serif" font-size="14" lengthAdjust="spacing" textLength="138.3799" x="2427" y="27.8467">ExecutionCollection</text><line style="stroke:#181818;stroke-width:0.5;" x1="2399" x2="2567.3799" y1="39" y2="39"/><line style="stroke:#181818;stroke-width:0.5;" x1="2399" x2="2567.3799" y1="47" y2="47"/></g><!--class SamplingCollection--><g class="entity" data-qualified-name="SamplingCollection" data-source-line="12" id="ent0030"><rect fill="#F1F1F1" height="48" rx="2.5" ry="2.5" style="stroke:#181818;stroke-width:0.5;" width="166.7773" x="2197.5" y="115"/><ellipse cx="2212.5" cy="131" fill="#ADD1B2" rx="11" ry="11" style="stroke:#181818;stroke-width:1;"/><path d="M2215.4688,136.6406 Q2214.8906,136.9375 2214.25,137.0781 Q2213.6094,137.2344 2212.9063,137.2344 Q2210.4063,137.2344 2209.0781,135.5938 Q2207.7656,133.9375 2207.7656,130.8125 Q2207.7656,127.6875 2209.0781,126.0313 Q2210.4063,124.375 2212.9063,124.375 Q2213.6094,124.375 2214.25,124.5313 Q2214.9063,124.6875 2215.4688,124.9844 L2215.4688,127.7031 Q2214.8438,127.125 2214.25,126.8594 Q2213.6563,126.5781 2213.0313,126.5781 Q2211.6875,126.5781 2211,127.6563 Q2210.3125,128.7188 2210.3125,130.8125 Q2210.3125,132.9063 2211,133.9844 Q2211.6875,135.0469 2213.0313,135.0469 Q2213.6563,135.0469 2214.25,134.7813 Q2214.8438,134.5 2215.4688,133.9219 L2215.4688,136.6406 Z " fill="#000000"/><text fill="#000000" font-family="sans-serif" font-size="14" lengthAdjust="spacing" textLength="134.7773" x="2226.5" y="135.8467">SamplingCollection</text><line style="stroke:#181818;stroke-width:0.5;" x1="2198.5" x2="2363.2773" y1="147" y2="147"/><line style="stroke:#181818;stroke-width:0.5;" x1="2198.5" x2="2363.2773" y1="155" y2="155"/></g><!--class Sensor--><g class="entity" data-qualified-name="Sensor" data-source-line="14" id="ent0033"><rect fill="#F1F1F1" height="48" rx="2.5" ry="2.5" style="stroke:#181818;stroke-width:0.5;" width="79.9883" x="2201" y="223"/><ellipse cx="2216" cy="239" fill="#ADD1B2" rx="11" ry="11" style="stroke:#181818;stroke-width:1;"/><path d="M2218.9688,244.6406 Q2218.3906,244.9375 2217.75,245.0781 Q2217.1094,245.2344 2216.4063,245.2344 Q2213.9063,245.2344 2212.5781,243.5938 Q2211.2656,241.9375 2211.2656,238.8125 Q2211.2656,235.6875 2212.5781,234.0313 Q2213.9063,232.375 2216.4063,232.375 Q2217.1094,232.375 2217.75,232.5313 Q2218.4063,232.6875 2218.9688,232.9844 L2218.9688,235.7031 Q2218.3438,235.125 2217.75,234.8594 Q2217.1563,234.5781 2216.5313,234.5781 Q2215.1875,234.5781 2214.5,235.6563 Q2213.8125,236.7188 2213.8125,238.8125 Q2213.8125,240.9063 2214.5,241.9844 Q2215.1875,243.0469 2216.5313,243.0469 Q2217.1563,243.0469 2217.75,242.7813 Q2218.3438,242.5 2218.9688,241.9219 L2218.9688,244.6406 Z " fill="#000000"/><text fill="#000000" font-family="sans-serif" font-size="14" lengthAdjust="spacing" textLength="47.9883" x="2230" y="243.8467">Sensor</text><line style="stroke:#181818;stroke-width:0.5;" x1="2202" x2="2279.9883" y1="255" y2="255"/><line style="stroke:#181818;stroke-width:0.5;" x1="2202" x2="2279.9883" y1="263" y2="263"/></g><!--class Execution--><g class="entity" data-qualified-name="Execution" data-source-line="15" id="ent0035"><rect fill="#F1F1F1" height="48" rx="2.5" ry="2.5" style="stroke:#181818;stroke-width:0.5;" width="101.1318" x="2955.5" y="7"/><ellipse cx="2970.5" cy="23" fill="#ADD1B2" rx="11" ry="11" style="stroke:#181818;stroke-width:1;"/><path d="M2973.4688,28.6406 Q2972.8906,28.9375 2972.25,29.0781 Q2971.6094,29.2344 2970.9063,29.2344 Q2968.4063,29.2344 2967.0781,27.5938 Q2965.7656,25.9375 2965.7656,22.8125 Q2965.7656,19.6875 2967.0781,18.0313 Q2968.4063,16.375 2970.9063,16.375 Q2971.6094,16.375 2972.25,16.5313 Q2972.9063,16.6875 2973.4688,16.9844 L2973.4688,19.7031 Q2972.8438,19.125 2972.25,18.8594 Q2971.6563,18.5781 2971.0313,18.5781 Q2969.6875,18.5781 2969,19.6563 Q2968.3125,20.7188 2968.3125,22.8125 Q2968.3125,24.9063 2969,25.9844 Q2969.6875,27.0469 2971.0313,27.0469 Q2971.6563,27.0469 2972.25,26.7813 Q2972.8438,26.5 2973.4688,25.9219 L2973.4688,28.6406 Z " fill="#000000"/><text fill="#000000" font-family="sans-serif" font-size="14" lengthAdjust="spacing" textLength="69.1318" x="2984.5" y="27.8467">Execution</text><line style="stroke:#181818;stroke-width:0.5;" x1="2956.5" x2="3055.6318" y1="39" y2="39"/><line style="stroke:#181818;stroke-width:0.5;" x1="2956.5" x2="3055.6318" y1="47" y2="47"/></g><!--class Sampling--><g class="entity" data-qualified-name="Sampling" data-source-line="15" id="ent0036"><rect fill="#F1F1F1" height="48" rx="2.5" ry="2.5" style="stroke:#181818;stroke-width:0.5;" width="97.5293" x="2823" y="115"/><ellipse cx="2838" cy="131" fill="#ADD1B2" rx="11" ry="11" style="stroke:#181818;stroke-width:1;"/><path d="M2840.9688,136.6406 Q2840.3906,136.9375 2839.75,137.0781 Q2839.1094,137.2344 2838.4063,137.2344 Q2835.9063,137.2344 2834.5781,135.5938 Q2833.2656,133.9375 2833.2656,130.8125 Q2833.2656,127.6875 2834.5781,126.0313 Q2835.9063,124.375 2838.4063,124.375 Q2839.1094,124.375 2839.75,124.5313 Q2840.4063,124.6875 2840.9688,124.9844 L2840.9688,127.7031 Q2840.3438,127.125 2839.75,126.8594 Q2839.1563,126.5781 2838.5313,126.5781 Q2837.1875,126.5781 2836.5,127.6563 Q2835.8125,128.7188 2835.8125,130.8125 Q2835.8125,132.9063 2836.5,133.9844 Q2837.1875,135.0469 2838.5313,135.0469 Q2839.1563,135.0469 2839.75,134.7813 Q2840.3438,134.5 2840.9688,133.9219 L2840.9688,136.6406 Z " fill="#000000"/><text fill="#000000" font-family="sans-serif" font-size="14" lengthAdjust="spacing" textLength="65.5293" x="2852" y="135.8467">Sampling</text><line style="stroke:#181818;stroke-width:0.5;" x1="2824" x2="2919.5293" y1="147" y2="147"/><line style="stroke:#181818;stroke-width:0.5;" x1="2824" x2="2919.5293" y1="155" y2="155"/></g><!--class Actuation--><g class="entity" data-qualified-name="Actuation" data-source-line="16" id="ent0038"><rect fill="#F1F1F1" height="48" rx="2.5" ry="2.5" style="stroke:#181818;stroke-width:0.5;" width="99.0332" x="2956.5" y="115"/><ellipse cx="2971.5" cy="131" fill="#ADD1B2" rx="11" ry="11" style="stroke:#181818;stroke-width:1;"/><path d="M2974.4688,136.6406 Q2973.8906,136.9375 2973.25,137.0781 Q2972.6094,137.2344 2971.9063,137.2344 Q2969.4063,137.2344 2968.0781,135.5938 Q2966.7656,133.9375 2966.7656,130.8125 Q2966.7656,127.6875 2968.0781,126.0313 Q2969.4063,124.375 2971.9063,124.375 Q2972.6094,124.375 2973.25,124.5313 Q2973.9063,124.6875 2974.4688,124.9844 L2974.4688,127.7031 Q2973.8438,127.125 2973.25,126.8594 Q2972.6563,126.5781 2972.0313,126.5781 Q2970.6875,126.5781 2970,127.6563 Q2969.3125,128.7188 2969.3125,130.8125 Q2969.3125,132.9063 2970,133.9844 Q2970.6875,135.0469 2972.0313,135.0469 Q2972.6563,135.0469 2973.25,134.7813 Q2973.8438,134.5 2974.4688,133.9219 L2974.4688,136.6406 Z " fill="#000000"/><text fill="#000000" font-family="sans-serif" font-size="14" lengthAdjust="spacing" textLength="67.0332" x="2985.5" y="135.8467">Actuation</text><line style="stroke:#181818;stroke-width:0.5;" x1="2957.5" x2="3054.5332" y1="147" y2="147"/><line style="stroke:#181818;stroke-width:0.5;" x1="2957.5" x2="3054.5332" y1="155" y2="155"/></g><!--class ActuationCollection--><g class="entity" data-qualified-name="ActuationCollection" data-source-line="17" id="ent0040"><rect fill="#F1F1F1" height="48" rx="2.5" ry="2.5" style="stroke:#181818;stroke-width:0.5;" width="168.2813" x="2399" y="115"/><ellipse cx="2414" cy="131" fill="#ADD1B2" rx="11" ry="11" style="stroke:#181818;stroke-width:1;"/><path d="M2416.9688,136.6406 Q2416.3906,136.9375 2415.75,137.0781 Q2415.1094,137.2344 2414.4063,137.2344 Q2411.9063,137.2344 2410.5781,135.5938 Q2409.2656,133.9375 2409.2656,130.8125 Q2409.2656,127.6875 2410.5781,126.0313 Q2411.9063,124.375 2414.4063,124.375 Q2415.1094,124.375 2415.75,124.5313 Q2416.4063,124.6875 2416.9688,124.9844 L2416.9688,127.7031 Q2416.3438,127.125 2415.75,126.8594 Q2415.1563,126.5781 2414.5313,126.5781 Q2413.1875,126.5781 2412.5,127.6563 Q2411.8125,128.7188 2411.8125,130.8125 Q2411.8125,132.9063 2412.5,133.9844 Q2413.1875,135.0469 2414.5313,135.0469 Q2415.1563,135.0469 2415.75,134.7813 Q2416.3438,134.5 2416.9688,133.9219 L2416.9688,136.6406 Z " fill="#000000"/><text fill="#000000" font-family="sans-serif" font-size="14" lengthAdjust="spacing" textLength="136.2813" x="2428" y="135.8467">ActuationCollection</text><line style="stroke:#181818;stroke-width:0.5;" x1="2400" x2="2566.2813" y1="147" y2="147"/><line style="stroke:#181818;stroke-width:0.5;" x1="2400" x2="2566.2813" y1="155" y2="155"/></g><!--class ObservationCollection--><g class="entity" data-qualified-name="ObservationCollection" data-source-line="18" id="ent0042"><rect fill="#F1F1F1" height="48" rx="2.5" ry="2.5" style="stroke:#181818;stroke-width:0.5;" width="186.499" x="2602" y="115"/><ellipse cx="2617" cy="131" fill="#ADD1B2" rx="11" ry="11" style="stroke:#181818;stroke-width:1;"/><path d="M2619.9688,136.6406 Q2619.3906,136.9375 2618.75,137.0781 Q2618.1094,137.2344 2617.4063,137.2344 Q2614.9063,137.2344 2613.5781,135.5938 Q2612.2656,133.9375 2612.2656,130.8125 Q2612.2656,127.6875 2613.5781,126.0313 Q2614.9063,124.375 2617.4063,124.375 Q2618.1094,124.375 2618.75,124.5313 Q2619.4063,124.6875 2619.9688,124.9844 L2619.9688,127.7031 Q2619.3438,127.125 2618.75,126.8594 Q2618.1563,126.5781 2617.5313,126.5781 Q2616.1875,126.5781 2615.5,127.6563 Q2614.8125,128.7188 2614.8125,130.8125 Q2614.8125,132.9063 2615.5,133.9844 Q2616.1875,135.0469 2617.5313,135.0469 Q2618.1563,135.0469 2618.75,134.7813 Q2619.3438,134.5 2619.9688,133.9219 L2619.9688,136.6406 Z " fill="#000000"/><text fill="#000000" font-family="sans-serif" font-size="14" lengthAdjust="spacing" textLength="154.499" x="2631" y="135.8467">ObservationCollection</text><line style="stroke:#181818;stroke-width:0.5;" x1="2603" x2="2787.499" y1="147" y2="147"/><line style="stroke:#181818;stroke-width:0.5;" x1="2603" x2="2787.499" y1="155" y2="155"/></g><!--class Observation--><g class="entity" data-qualified-name="Observation" data-source-line="19" id="ent0044"><rect fill="#F1F1F1" height="48" rx="2.5" ry="2.5" style="stroke:#181818;stroke-width:0.5;" width="117.251" x="3090.5" y="115"/><ellipse cx="3105.5" cy="131" fill="#ADD1B2" rx="11" ry="11" style="stroke:#181818;stroke-width:1;"/><path d="M3108.4688,136.6406 Q3107.8906,136.9375 3107.25,137.0781 Q3106.6094,137.2344 3105.9063,137.2344 Q3103.4063,137.2344 3102.0781,135.5938 Q3100.7656,133.9375 3100.7656,130.8125 Q3100.7656,127.6875 3102.0781,126.0313 Q3103.4063,124.375 3105.9063,124.375 Q3106.6094,124.375 3107.25,124.5313 Q3107.9063,124.6875 3108.4688,124.9844 L3108.4688,127.7031 Q3107.8438,127.125 3107.25,126.8594 Q3106.6563,126.5781 3106.0313,126.5781 Q3104.6875,126.5781 3104,127.6563 Q3103.3125,128.7188 3103.3125,130.8125 Q3103.3125,132.9063 3104,133.9844 Q3104.6875,135.0469 3106.0313,135.0469 Q3106.6563,135.0469 3107.25,134.7813 Q3107.8438,134.5 3108.4688,133.9219 L3108.4688,136.6406 Z " fill="#000000"/><text fill="#000000" font-family="sans-serif" font-size="14" lengthAdjust="spacing" textLength="85.251" x="3119.5" y="135.8467">Observation</text><line style="stroke:#181818;stroke-width:0.5;" x1="3091.5" x2="3206.751" y1="147" y2="147"/><line style="stroke:#181818;stroke-width:0.5;" x1="3091.5" x2="3206.751" y1="155" y2="155"/></g><!--class Deployment--><g class="entity" data-qualified-name="Deployment" data-source-line="20" id="ent0046"><rect fill="#F1F1F1" height="48" rx="2.5" ry="2.5" style="stroke:#181818;stroke-width:0.5;" width="117.6338" x="25" y="7"/><ellipse cx="40" cy="23" fill="#ADD1B2" rx="11" ry="11" style="stroke:#181818;stroke-width:1;"/><path d="M42.9688,28.6406 Q42.3906,28.9375 41.75,29.0781 Q41.1094,29.2344 40.4063,29.2344 Q37.9063,29.2344 36.5781,27.5938 Q35.2656,25.9375 35.2656,22.8125 Q35.2656,19.6875 36.5781,18.0313 Q37.9063,16.375 40.4063,16.375 Q41.1094,16.375 41.75,16.5313 Q42.4063,16.6875 42.9688,16.9844 L42.9688,19.7031 Q42.3438,19.125 41.75,18.8594 Q41.1563,18.5781 40.5313,18.5781 Q39.1875,18.5781 38.5,19.6563 Q37.8125,20.7188 37.8125,22.8125 Q37.8125,24.9063 38.5,25.9844 Q39.1875,27.0469 40.5313,27.0469 Q41.1563,27.0469 41.75,26.7813 Q42.3438,26.5 42.9688,25.9219 L42.9688,28.6406 Z " fill="#000000"/><text fill="#000000" font-family="sans-serif" font-size="14" lengthAdjust="spacing" textLength="85.6338" x="54" y="27.8467">Deployment</text><line style="stroke:#181818;stroke-width:0.5;" x1="26" x2="141.6338" y1="39" y2="39"/><line style="stroke:#181818;stroke-width:0.5;" x1="26" x2="141.6338" y1="47" y2="47"/></g><!--class Stimulus--><g class="entity" data-qualified-name="Stimulus" data-source-line="21" id="ent0047"><rect fill="#F1F1F1" height="48" rx="2.5" ry="2.5" style="stroke:#181818;stroke-width:0.5;" width="92.833" x="178.5" y="7"/><ellipse cx="193.5" cy="23" fill="#ADD1B2" rx="11" ry="11" style="stroke:#181818;stroke-width:1;"/><path d="M196.4688,28.6406 Q195.8906,28.9375 195.25,29.0781 Q194.6094,29.2344 193.9063,29.2344 Q191.4063,29.2344 190.0781,27.5938 Q188.7656,25.9375 188.7656,22.8125 Q188.7656,19.6875 190.0781,18.0313 Q191.4063,16.375 193.9063,16.375 Q194.6094,16.375 195.25,16.5313 Q195.9063,16.6875 196.4688,16.9844 L196.4688,19.7031 Q195.8438,19.125 195.25,18.8594 Q194.6563,18.5781 194.0313,18.5781 Q192.6875,18.5781 192,19.6563 Q191.3125,20.7188 191.3125,22.8125 Q191.3125,24.9063 192,25.9844 Q192.6875,27.0469 194.0313,27.0469 Q194.6563,27.0469 195.25,26.7813 Q195.8438,26.5 196.4688,25.9219 L196.4688,28.6406 Z " fill="#000000"/><text fill="#000000" font-family="sans-serif" font-size="14" lengthAdjust="spacing" textLength="60.833" x="207.5" y="27.8467">Stimulus</text><line style="stroke:#181818;stroke-width:0.5;" x1="179.5" x2="270.333" y1="39" y2="39"/><line style="stroke:#181818;stroke-width:0.5;" x1="179.5" x2="270.333" y1="47" y2="47"/></g><!--class Result--><g class="entity" data-qualified-name="Result" data-source-line="22" id="ent0048"><rect fill="#F1F1F1" height="48" rx="2.5" ry="2.5" style="stroke:#181818;stroke-width:0.5;" width="75.8867" x="307" y="7"/><ellipse cx="322" cy="23" fill="#ADD1B2" rx="11" ry="11" style="stroke:#181818;stroke-width:1;"/><path d="M324.9688,28.6406 Q324.3906,28.9375 323.75,29.0781 Q323.1094,29.2344 322.4063,29.2344 Q319.9063,29.2344 318.5781,27.5938 Q317.2656,25.9375 317.2656,22.8125 Q317.2656,19.6875 318.5781,18.0313 Q319.9063,16.375 322.4063,16.375 Q323.1094,16.375 323.75,16.5313 Q324.4063,16.6875 324.9688,16.9844 L324.9688,19.7031 Q324.3438,19.125 323.75,18.8594 Q323.1563,18.5781 322.5313,18.5781 Q321.1875,18.5781 320.5,19.6563 Q319.8125,20.7188 319.8125,22.8125 Q319.8125,24.9063 320.5,25.9844 Q321.1875,27.0469 322.5313,27.0469 Q323.1563,27.0469 323.75,26.7813 Q324.3438,26.5 324.9688,25.9219 L324.9688,28.6406 Z " fill="#000000"/><text fill="#000000" font-family="sans-serif" font-size="14" lengthAdjust="spacing" textLength="43.8867" x="336" y="27.8467">Result</text><line style="stroke:#181818;stroke-width:0.5;" x1="308" x2="381.8867" y1="39" y2="39"/><line style="stroke:#181818;stroke-width:0.5;" x1="308" x2="381.8867" y1="47" y2="47"/></g><!--class SampleCollection--><g class="entity" data-qualified-name="SampleCollection" data-source-line="23" id="ent0049"><rect fill="#F1F1F1" height="48" rx="2.5" ry="2.5" style="stroke:#181818;stroke-width:0.5;" width="153.7412" x="7" y="115"/><ellipse cx="22" cy="131" fill="#ADD1B2" rx="11" ry="11" style="stroke:#181818;stroke-width:1;"/><path d="M24.9688,136.6406 Q24.3906,136.9375 23.75,137.0781 Q23.1094,137.2344 22.4063,137.2344 Q19.9063,137.2344 18.5781,135.5938 Q17.2656,133.9375 17.2656,130.8125 Q17.2656,127.6875 18.5781,126.0313 Q19.9063,124.375 22.4063,124.375 Q23.1094,124.375 23.75,124.5313 Q24.4063,124.6875 24.9688,124.9844 L24.9688,127.7031 Q24.3438,127.125 23.75,126.8594 Q23.1563,126.5781 22.5313,126.5781 Q21.1875,126.5781 20.5,127.6563 Q19.8125,128.7188 19.8125,130.8125 Q19.8125,132.9063 20.5,133.9844 Q21.1875,135.0469 22.5313,135.0469 Q23.1563,135.0469 23.75,134.7813 Q24.3438,134.5 24.9688,133.9219 L24.9688,136.6406 Z " fill="#000000"/><text fill="#000000" font-family="sans-serif" font-size="14" lengthAdjust="spacing" textLength="121.7412" x="36" y="135.8467">SampleCollection</text><line style="stroke:#181818;stroke-width:0.5;" x1="8" x2="159.7412" y1="147" y2="147"/><line style="stroke:#181818;stroke-width:0.5;" x1="8" x2="159.7412" y1="155" y2="155"/></g><!--class FeatureOfInterest--><g class="entity" data-qualified-name="FeatureOfInterest" data-source-line="24" id="ent0050"><rect fill="#F1F1F1" height="48" rx="2.5" ry="2.5" style="stroke:#181818;stroke-width:0.5;" width="156.1816" x="196" y="115"/><ellipse cx="211" cy="131" fill="#ADD1B2" rx="11" ry="11" style="stroke:#181818;stroke-width:1;"/><path d="M213.9688,136.6406 Q213.3906,136.9375 212.75,137.0781 Q212.1094,137.2344 211.4063,137.2344 Q208.9063,137.2344 207.5781,135.5938 Q206.2656,133.9375 206.2656,130.8125 Q206.2656,127.6875 207.5781,126.0313 Q208.9063,124.375 211.4063,124.375 Q212.1094,124.375 212.75,124.5313 Q213.4063,124.6875 213.9688,124.9844 L213.9688,127.7031 Q213.3438,127.125 212.75,126.8594 Q212.1563,126.5781 211.5313,126.5781 Q210.1875,126.5781 209.5,127.6563 Q208.8125,128.7188 208.8125,130.8125 Q208.8125,132.9063 209.5,133.9844 Q210.1875,135.0469 211.5313,135.0469 Q212.1563,135.0469 212.75,134.7813 Q213.3438,134.5 213.9688,133.9219 L213.9688,136.6406 Z " fill="#000000"/><text fill="#000000" font-family="sans-serif" font-size="14" lengthAdjust="spacing" textLength="124.1816" x="225" y="135.8467">FeatureOfInterest</text><line style="stroke:#181818;stroke-width:0.5;" x1="197" x2="351.1816" y1="147" y2="147"/><line style="stroke:#181818;stroke-width:0.5;" x1="197" x2="351.1816" y1="155" y2="155"/></g><!--reverse link Property to ActuatableProperty--><g class="link" data-entity-1="ent0002" data-entity-2="ent0003" data-link-type="extension" data-source-line="1" id="lnk4"><path codeLine="1" d="M538.3905,67.9716 C521.4005,85.6316 510.51,96.94 493.44,114.68" fill="none" id="Property-backto-ActuatableProperty" style="stroke:#181818;stroke-width:1;"/><polygon fill="none" points="550.87,55,534.0667,63.8118,542.7144,72.1314,550.87,55" style="stroke:#181818;stroke-width:1;"/></g><!--reverse link Sample to MaterialSample--><g class="link" data-entity-1="ent0005" data-entity-2="ent0006" data-link-type="extension" data-source-line="2" id="lnk7"><path codeLine="2" d="M987.3567,64.4445 C958.6067,82.1645 934.35,97.11 905.55,114.86" fill="none" id="Sample-backto-MaterialSample" style="stroke:#181818;stroke-width:1;"/><polygon fill="none" points="1002.68,55,984.2086,59.3367,990.5049,69.5522,1002.68,55" style="stroke:#181818;stroke-width:1;"/></g><!--reverse link Property to ObservableProperty--><g class="link" data-entity-1="ent0002" data-entity-2="ent0008" data-link-type="extension" data-source-line="3" id="lnk9"><path codeLine="3" d="M607.8939,67.9094 C625.0539,85.5694 636.1,96.94 653.34,114.68" fill="none" id="Property-backto-ObservableProperty" style="stroke:#181818;stroke-width:1;"/><polygon fill="none" points="595.35,55,603.5907,72.0906,612.197,63.7281,595.35,55" style="stroke:#181818;stroke-width:1;"/></g><!--reverse link Sample to SpatialSample--><g class="link" data-entity-1="ent0005" data-entity-2="ent0010" data-link-type="extension" data-source-line="4" id="lnk11"><path codeLine="4" d="M1040,73 C1040,90.66 1040,96.94 1040,114.68" fill="none" id="Sample-backto-SpatialSample" style="stroke:#181818;stroke-width:1;"/><polygon fill="none" points="1040,55,1034,73,1046,73,1040,55" style="stroke:#181818;stroke-width:1;"/></g><!--reverse link Sample to StatisticalSample--><g class="link" data-entity-1="ent0005" data-entity-2="ent0012" data-link-type="extension" data-source-line="5" id="lnk13"><path codeLine="5" d="M1094.3276,64.1725 C1124.2476,81.8925 1149.95,97.11 1179.93,114.86" fill="none" id="Sample-backto-StatisticalSample" style="stroke:#181818;stroke-width:1;"/><polygon fill="none" points="1078.84,55,1091.2701,69.335,1097.3851,59.0099,1078.84,55" style="stroke:#181818;stroke-width:1;"/></g><!--reverse link Procedure to ActuatingProcedure--><g class="link" data-entity-1="ent0014" data-entity-2="ent0015" data-link-type="extension" data-source-line="6" id="lnk16"><path codeLine="6" d="M1563.8326,63.1732 C1529.0626,80.8932 1497.24,97.11 1462.4,114.86" fill="none" id="Procedure-backto-ActuatingProcedure" style="stroke:#181818;stroke-width:1;"/><polygon fill="none" points="1579.87,55,1561.1082,57.8274,1566.557,68.519,1579.87,55" style="stroke:#181818;stroke-width:1;"/></g><!--reverse link Procedure to ObservingProcedure--><g class="link" data-entity-1="ent0014" data-entity-2="ent0017" data-link-type="extension" data-source-line="7" id="lnk18"><path codeLine="7" d="M1625,73 C1625,90.66 1625,96.94 1625,114.68" fill="none" id="Procedure-backto-ObservingProcedure" style="stroke:#181818;stroke-width:1;"/><polygon fill="none" points="1625,55,1619,73,1631,73,1625,55" style="stroke:#181818;stroke-width:1;"/></g><!--reverse link Procedure to SamplingProcedure--><g class="link" data-entity-1="ent0014" data-entity-2="ent0019" data-link-type="extension" data-source-line="8" id="lnk20"><path codeLine="8" d="M1685.9411,63.205 C1720.5411,80.925 1752.15,97.11 1786.81,114.86" fill="none" id="Procedure-backto-SamplingProcedure" style="stroke:#181818;stroke-width:1;"/><polygon fill="none" points="1669.92,55,1683.2061,68.5454,1688.6762,57.8647,1669.92,55" style="stroke:#181818;stroke-width:1;"/></g><!--reverse link Asset to Platform--><g class="link" data-entity-1="ent0021" data-entity-2="ent0022" data-link-type="extension" data-source-line="9" id="lnk23"><path codeLine="9" d="M2035.7839,70.6022 C2025.6239,88.2622 2020.63,96.94 2010.42,114.68" fill="none" id="Asset-backto-Platform" style="stroke:#181818;stroke-width:1;"/><polygon fill="none" points="2044.76,55,2030.5831,67.6102,2040.9846,73.5943,2044.76,55" style="stroke:#181818;stroke-width:1;"/></g><!--reverse link System to Sampler--><g class="link" data-entity-1="ent0024" data-entity-2="ent0025" data-link-type="extension" data-source-line="10" id="lnk26"><path codeLine="10" d="M2078.8865,174.5884 C2057.8965,192.2484 2042.81,204.94 2021.72,222.68" fill="none" id="System-backto-Sampler" style="stroke:#181818;stroke-width:1;"/><polygon fill="none" points="2092.66,163,2075.0237,169.9972,2082.7493,179.1795,2092.66,163" style="stroke:#181818;stroke-width:1;"/></g><!--reverse link System to Actuator--><g class="link" data-entity-1="ent0024" data-entity-2="ent0027" data-link-type="extension" data-source-line="11" id="lnk28"><path codeLine="11" d="M2120,181 C2120,198.66 2120,204.94 2120,222.68" fill="none" id="System-backto-Actuator" style="stroke:#181818;stroke-width:1;"/><polygon fill="none" points="2120,163,2114,181,2126,181,2120,163" style="stroke:#181818;stroke-width:1;"/></g><!--reverse link ExecutionCollection to SamplingCollection--><g class="link" data-entity-1="ent0029" data-entity-2="ent0030" data-link-type="extension" data-source-line="12" id="lnk31"><path codeLine="12" d="M2423.231,63.3636 C2389.461,81.0836 2358.93,97.11 2325.09,114.86" fill="none" id="ExecutionCollection-backto-SamplingCollection" style="stroke:#181818;stroke-width:1;"/><polygon fill="none" points="2439.17,55,2420.4432,58.0506,2426.0189,68.6766,2439.17,55" style="stroke:#181818;stroke-width:1;"/></g><!--reverse link Asset to System--><g class="link" data-entity-1="ent0021" data-entity-2="ent0024" data-link-type="extension" data-source-line="13" id="lnk32"><path codeLine="13" d="M2080.5383,70.5372 C2090.8683,88.1972 2095.98,96.94 2106.36,114.68" fill="none" id="Asset-backto-System" style="stroke:#181818;stroke-width:1;"/><polygon fill="none" points="2071.45,55,2075.3592,73.5666,2085.7173,67.5077,2071.45,55" style="stroke:#181818;stroke-width:1;"/></g><!--reverse link System to Sensor--><g class="link" data-entity-1="ent0024" data-entity-2="ent0033" data-link-type="extension" data-source-line="14" id="lnk34"><path codeLine="14" d="M2159.7968,174.864 C2179.9468,192.524 2194.13,204.94 2214.38,222.68" fill="none" id="System-backto-Sensor" style="stroke:#181818;stroke-width:1;"/><polygon fill="none" points="2146.26,163,2155.8421,179.3763,2163.7515,170.3518,2146.26,163" style="stroke:#181818;stroke-width:1;"/></g><!--reverse link Execution to Sampling--><g class="link" data-entity-1="ent0035" data-entity-2="ent0036" data-link-type="extension" data-source-line="15" id="lnk37"><path codeLine="15" d="M2962.8041,66.1688 C2940.4841,83.8288 2923.91,96.94 2901.48,114.68" fill="none" id="Execution-backto-Sampling" style="stroke:#181818;stroke-width:1;"/><polygon fill="none" points="2976.92,55,2959.0812,61.4635,2966.527,70.8741,2976.92,55" style="stroke:#181818;stroke-width:1;"/></g><!--reverse link Execution to Actuation--><g class="link" data-entity-1="ent0035" data-entity-2="ent0038" data-link-type="extension" data-source-line="16" id="lnk39"><path codeLine="16" d="M3006,73 C3006,90.66 3006,96.94 3006,114.68" fill="none" id="Execution-backto-Actuation" style="stroke:#181818;stroke-width:1;"/><polygon fill="none" points="3006,55,3000,73,3012,73,3006,55" style="stroke:#181818;stroke-width:1;"/></g><!--reverse link ExecutionCollection to ActuationCollection--><g class="link" data-entity-1="ent0029" data-entity-2="ent0040" data-link-type="extension" data-source-line="17" id="lnk41"><path codeLine="17" d="M2483,73 C2483,90.66 2483,96.94 2483,114.68" fill="none" id="ExecutionCollection-backto-ActuationCollection" style="stroke:#181818;stroke-width:1;"/><polygon fill="none" points="2483,55,2477,73,2489,73,2483,55" style="stroke:#181818;stroke-width:1;"/></g><!--reverse link ExecutionCollection to ObservationCollection--><g class="link" data-entity-1="ent0029" data-entity-2="ent0042" data-link-type="extension" data-source-line="18" id="lnk43"><path codeLine="18" d="M2545.0997,63.0498 C2580.5397,80.7698 2613.22,97.11 2648.72,114.86" fill="none" id="ExecutionCollection-backto-ObservationCollection" style="stroke:#181818;stroke-width:1;"/><polygon fill="none" points="2529,55,2542.4164,68.4164,2547.783,57.6833,2529,55" style="stroke:#181818;stroke-width:1;"/></g><!--reverse link Execution to Observation--><g class="link" data-entity-1="ent0035" data-entity-2="ent0044" data-link-type="extension" data-source-line="19" id="lnk45"><path codeLine="19" d="M3051.4895,65.7202 C3075.3095,83.3802 3093.61,96.94 3117.54,114.68" fill="none" id="Execution-backto-Observation" style="stroke:#181818;stroke-width:1;"/><polygon fill="none" points="3037.03,55,3047.9161,70.54,3055.0629,60.9004,3037.03,55" style="stroke:#181818;stroke-width:1;"/></g><?plantuml-src VL91RiCW4Bpp2dyWFyWbQXifXoXM_G929n7I0XQxHBNKnzSDo854xWrcPcT62tqC8w9CtVPdi-bsHf8MVIRq1LU3TYCXqqSjY5PJnbJVp9xEZ7XRdHr6BO_HXf6POR6cDZRuIX5rA-kl2_wioDd_AUxEZM373CbaJrek8JerJ2nmrGHYW-Kc8QgFRvWaDlYtG0JpTsfp7dWTbBtQ67Yk3LkRPxoiOdPTRR18gWghul9eQ_8NaJAacRjtZ1Gc1oy56CIwH8dBzHESQE7kYwpiCxo7blaTJfU3dtyLM7u1?></g></svg>