<svg xmlns="http://www.w3.org/2000/svg" xmlns:xlink="http://www.w3.org/1999/xlink" contentStyleType="text/css" data-diagram-type="CLASS" height="286px" preserveAspectRatio="none" style="width:3248px;height:286px;background:#FFFFFF;" version="1.1" viewBox="0 0 3248 286" width="3248px" zoomAndPan="magnify"><?plantuml 1.2026.4?><defs/><g><!--class Property--><g class="entity" data-qualified-name="Property" data-source-line="1" id="ent0001"><rect fill="#F1F1F1" height="48" rx="2.5" ry="2.5" style="stroke:#181818;stroke-width:0.5;" width="91.7939" x="568" y="7"/><ellipse cx="583" cy="23" fill="#ADD1B2" rx="11" ry="11" style="stroke:#181818;stroke-width:1;"/><path d="M585.9688,28.6406 Q585.3906,28.9375 584.75,29.0781 Q584.1094,29.2344 583.4063,29.2344 Q580.9063,29.2344 579.5781,27.5938 Q578.2656,25.9375 578.2656,22.8125 Q578.2656,19.6875 579.5781,18.0313 Q580.9063,16.375 583.4063,16.375 Q584.1094,16.375 584.75,16.5313 Q585.4063,16.6875 585.9688,16.9844 L585.9688,19.7031 Q585.3438,19.125 584.75,18.8594 Q584.1563,18.5781 583.5313,18.5781 Q582.1875,18.5781 581.5,19.6563 Q580.8125,20.7188 580.8125,22.8125 Q580.8125,24.9063 581.5,25.9844 Q582.1875,27.0469 583.5313,27.0469 Q584.1563,27.0469 584.75,26.7813 Q585.3438,26.5 585.9688,25.9219 L585.9688,28.6406 Z " fill="#000000"/><text fill="#000000" font-family="sans-serif" font-size="14" lengthAdjust="spacing" textLength="59.7939" x="597" y="27.8467">Property</text><line style="stroke:#181818;stroke-width:0.5;" x1="569" x2="658.7939" y1="39" y2="39"/><line style="stroke:#181818;stroke-width:0.5;" x1="569" x2="658.7939" y1="47" y2="47"/></g><!--class ActuatableProperty--><g class="entity" data-qualified-name="ActuatableProperty" data-source-line="1" id="ent0002"><rect fill="#F1F1F1" height="48" rx="2.5" ry="2.5" style="stroke:#181818;stroke-width:0.5;" width="167.4678" x="413.5" y="115"/><ellipse cx="428.5" cy="131" fill="#ADD1B2" rx="11" ry="11" style="stroke:#181818;stroke-width:1;"/><path d="M431.4688,136.6406 Q430.8906,136.9375 430.25,137.0781 Q429.6094,137.2344 428.9063,137.2344 Q426.4063,137.2344 425.0781,135.5938 Q423.7656,133.9375 423.7656,130.8125 Q423.7656,127.6875 425.0781,126.0313 Q426.4063,124.375 428.9063,124.375 Q429.6094,124.375 430.25,124.5313 Q430.9063,124.6875 431.4688,124.9844 L431.4688,127.7031 Q430.8438,127.125 430.25,126.8594 Q429.6563,126.5781 429.0313,126.5781 Q427.6875,126.5781 427,127.6563 Q426.3125,128.7188 426.3125,130.8125 Q426.3125,132.9063 427,133.9844 Q427.6875,135.0469 429.0313,135.0469 Q429.6563,135.0469 430.25,134.7813 Q430.8438,134.5 431.4688,133.9219 L431.4688,136.6406 Z " fill="#000000"/><text fill="#000000" font-family="sans-serif" font-size="14" lengthAdjust="spacing" textLength="135.4678" x="442.5" y="135.8467">ActuatableProperty</text><line style="stroke:#181818;stroke-width:0.5;" x1="414.5" x2="579.9678" y1="147" y2="147"/><line style="stroke:#181818;stroke-width:0.5;" x1="414.5" x2="579.9678" y1="155" y2="155"/></g><!--class Sample--><g class="entity" data-qualified-name="Sample" data-source-line="2" id="ent0004"><rect fill="#F1F1F1" height="48" rx="2.5" ry="2.5" style="stroke:#181818;stroke-width:0.5;" width="84.4932" x="1024" y="7"/><ellipse cx="1039" cy="23" fill="#ADD1B2" rx="11" ry="11" style="stroke:#181818;stroke-width:1;"/><path d="M1041.9688,28.6406 Q1041.3906,28.9375 1040.75,29.0781 Q1040.1094,29.2344 1039.4063,29.2344 Q1036.9063,29.2344 1035.5781,27.5938 Q1034.2656,25.9375 1034.2656,22.8125 Q1034.2656,19.6875 1035.5781,18.0313 Q1036.9063,16.375 1039.4063,16.375 Q1040.1094,16.375 1040.75,16.5313 Q1041.4063,16.6875 1041.9688,16.9844 L1041.9688,19.7031 Q1041.3438,19.125 1040.75,18.8594 Q1040.1563,18.5781 1039.5313,18.5781 Q1038.1875,18.5781 1037.5,19.6563 Q1036.8125,20.7188 1036.8125,22.8125 Q1036.8125,24.9063 1037.5,25.9844 Q1038.1875,27.0469 1039.5313,27.0469 Q1040.1563,27.0469 1040.75,26.7813 Q1041.3438,26.5 1041.9688,25.9219 L1041.9688,28.6406 Z " fill="#000000"/><text fill="#000000" font-family="sans-serif" font-size="14" lengthAdjust="spacing" textLength="52.4932" x="1053" y="27.8467">Sample</text><line style="stroke:#181818;stroke-width:0.5;" x1="1025" x2="1107.4932" y1="39" y2="39"/><line style="stroke:#181818;stroke-width:0.5;" x1="1025" x2="1107.4932" y1="47" y2="47"/></g><!--class MaterialSample--><g class="entity" data-qualified-name="MaterialSample" data-source-line="2" id="ent0005"><rect fill="#F1F1F1" height="48" rx="2.5" ry="2.5" style="stroke:#181818;stroke-width:0.5;" width="141.3682" x="823.5" y="115"/><ellipse cx="838.5" cy="131" fill="#ADD1B2" rx="11" ry="11" style="stroke:#181818;stroke-width:1;"/><path d="M841.4688,136.6406 Q840.8906,136.9375 840.25,137.0781 Q839.6094,137.2344 838.9063,137.2344 Q836.4063,137.2344 835.0781,135.5938 Q833.7656,133.9375 833.7656,130.8125 Q833.7656,127.6875 835.0781,126.0313 Q836.4063,124.375 838.9063,124.375 Q839.6094,124.375 840.25,124.5313 Q840.9063,124.6875 841.4688,124.9844 L841.4688,127.7031 Q840.8438,127.125 840.25,126.8594 Q839.6563,126.5781 839.0313,126.5781 Q837.6875,126.5781 837,127.6563 Q836.3125,128.7188 836.3125,130.8125 Q836.3125,132.9063 837,133.9844 Q837.6875,135.0469 839.0313,135.0469 Q839.6563,135.0469 840.25,134.7813 Q840.8438,134.5 841.4688,133.9219 L841.4688,136.6406 Z " fill="#000000"/><text fill="#000000" font-family="sans-serif" font-size="14" lengthAdjust="spacing" textLength="109.3682" x="852.5" y="135.8467">MaterialSample</text><line style="stroke:#181818;stroke-width:0.5;" x1="824.5" x2="963.8682" y1="147" y2="147"/><line style="stroke:#181818;stroke-width:0.5;" x1="824.5" x2="963.8682" y1="155" y2="155"/></g><!--class SpatialSample--><g class="entity" data-qualified-name="SpatialSample" data-source-line="3" id="ent0007"><rect fill="#F1F1F1" height="48" rx="2.5" ry="2.5" style="stroke:#181818;stroke-width:0.5;" width="132.6934" x="999.5" y="115"/><ellipse cx="1014.5" cy="131" fill="#ADD1B2" rx="11" ry="11" style="stroke:#181818;stroke-width:1;"/><path d="M1017.4688,136.6406 Q1016.8906,136.9375 1016.25,137.0781 Q1015.6094,137.2344 1014.9063,137.2344 Q1012.4063,137.2344 1011.0781,135.5938 Q1009.7656,133.9375 1009.7656,130.8125 Q1009.7656,127.6875 1011.0781,126.0313 Q1012.4063,124.375 1014.9063,124.375 Q1015.6094,124.375 1016.25,124.5313 Q1016.9063,124.6875 1017.4688,124.9844 L1017.4688,127.7031 Q1016.8438,127.125 1016.25,126.8594 Q1015.6563,126.5781 1015.0313,126.5781 Q1013.6875,126.5781 1013,127.6563 Q1012.3125,128.7188 1012.3125,130.8125 Q1012.3125,132.9063 1013,133.9844 Q1013.6875,135.0469 1015.0313,135.0469 Q1015.6563,135.0469 1016.25,134.7813 Q1016.8438,134.5 1017.4688,133.9219 L1017.4688,136.6406 Z " fill="#000000"/><text fill="#000000" font-family="sans-serif" font-size="14" lengthAdjust="spacing" textLength="100.6934" x="1028.5" y="135.8467">SpatialSample</text><line style="stroke:#181818;stroke-width:0.5;" x1="1000.5" x2="1131.1934" y1="147" y2="147"/><line style="stroke:#181818;stroke-width:0.5;" x1="1000.5" x2="1131.1934" y1="155" y2="155"/></g><!--class StatisticalSample--><g class="entity" data-qualified-name="StatisticalSample" data-source-line="4" id="ent0009"><rect fill="#F1F1F1" height="48" rx="2.5" ry="2.5" style="stroke:#181818;stroke-width:0.5;" width="153.666" x="1168" y="115"/><ellipse cx="1183" cy="131" fill="#ADD1B2" rx="11" ry="11" style="stroke:#181818;stroke-width:1;"/><path d="M1185.9688,136.6406 Q1185.3906,136.9375 1184.75,137.0781 Q1184.1094,137.2344 1183.4063,137.2344 Q1180.9063,137.2344 1179.5781,135.5938 Q1178.2656,133.9375 1178.2656,130.8125 Q1178.2656,127.6875 1179.5781,126.0313 Q1180.9063,124.375 1183.4063,124.375 Q1184.1094,124.375 1184.75,124.5313 Q1185.4063,124.6875 1185.9688,124.9844 L1185.9688,127.7031 Q1185.3438,127.125 1184.75,126.8594 Q1184.1563,126.5781 1183.5313,126.5781 Q1182.1875,126.5781 1181.5,127.6563 Q1180.8125,128.7188 1180.8125,130.8125 Q1180.8125,132.9063 1181.5,133.9844 Q1182.1875,135.0469 1183.5313,135.0469 Q1184.1563,135.0469 1184.75,134.7813 Q1185.3438,134.5 1185.9688,133.9219 L1185.9688,136.6406 Z " fill="#000000"/><text fill="#000000" font-family="sans-serif" font-size="14" lengthAdjust="spacing" textLength="121.666" x="1197" y="135.8467">StatisticalSample</text><line style="stroke:#181818;stroke-width:0.5;" x1="1169" x2="1320.666" y1="147" y2="147"/><line style="stroke:#181818;stroke-width:0.5;" x1="1169" x2="1320.666" y1="155" y2="155"/></g><!--class ObservableProperty--><g class="entity" data-qualified-name="ObservableProperty" data-source-line="5" id="ent0011"><rect fill="#F1F1F1" height="48" rx="2.5" ry="2.5" style="stroke:#181818;stroke-width:0.5;" width="171.6172" x="616" y="115"/><ellipse cx="631" cy="131" fill="#ADD1B2" rx="11" ry="11" style="stroke:#181818;stroke-width:1;"/><path d="M633.9688,136.6406 Q633.3906,136.9375 632.75,137.0781 Q632.1094,137.2344 631.4063,137.2344 Q628.9063,137.2344 627.5781,135.5938 Q626.2656,133.9375 626.2656,130.8125 Q626.2656,127.6875 627.5781,126.0313 Q628.9063,124.375 631.4063,124.375 Q632.1094,124.375 632.75,124.5313 Q633.4063,124.6875 633.9688,124.9844 L633.9688,127.7031 Q633.3438,127.125 632.75,126.8594 Q632.1563,126.5781 631.5313,126.5781 Q630.1875,126.5781 629.5,127.6563 Q628.8125,128.7188 628.8125,130.8125 Q628.8125,132.9063 629.5,133.9844 Q630.1875,135.0469 631.5313,135.0469 Q632.1563,135.0469 632.75,134.7813 Q633.3438,134.5 633.9688,133.9219 L633.9688,136.6406 Z " fill="#000000"/><text fill="#000000" font-family="sans-serif" font-size="14" lengthAdjust="spacing" textLength="139.6172" x="645" y="135.8467">ObservableProperty</text><line style="stroke:#181818;stroke-width:0.5;" x1="617" x2="786.6172" y1="147" y2="147"/><line style="stroke:#181818;stroke-width:0.5;" x1="617" x2="786.6172" y1="155" y2="155"/></g><!--class Procedure--><g class="entity" data-qualified-name="Procedure" data-source-line="6" id="ent0013"><rect fill="#F1F1F1" height="48" rx="2.5" ry="2.5" style="stroke:#181818;stroke-width:0.5;" width="103.2031" x="1599.5" y="7"/><ellipse cx="1614.5" cy="23" fill="#ADD1B2" rx="11" ry="11" style="stroke:#181818;stroke-width:1;"/><path d="M1617.4688,28.6406 Q1616.8906,28.9375 1616.25,29.0781 Q1615.6094,29.2344 1614.9063,29.2344 Q1612.4063,29.2344 1611.0781,27.5938 Q1609.7656,25.9375 1609.7656,22.8125 Q1609.7656,19.6875 1611.0781,18.0313 Q1612.4063,16.375 1614.9063,16.375 Q1615.6094,16.375 1616.25,16.5313 Q1616.9063,16.6875 1617.4688,16.9844 L1617.4688,19.7031 Q1616.8438,19.125 1616.25,18.8594 Q1615.6563,18.5781 1615.0313,18.5781 Q1613.6875,18.5781 1613,19.6563 Q1612.3125,20.7188 1612.3125,22.8125 Q1612.3125,24.9063 1613,25.9844 Q1613.6875,27.0469 1615.0313,27.0469 Q1615.6563,27.0469 1616.25,26.7813 Q1616.8438,26.5 1617.4688,25.9219 L1617.4688,28.6406 Z " fill="#000000"/><text fill="#000000" font-family="sans-serif" font-size="14" lengthAdjust="spacing" textLength="71.2031" x="1628.5" y="27.8467">Procedure</text><line style="stroke:#181818;stroke-width:0.5;" x1="1600.5" x2="1701.7031" y1="39" y2="39"/><line style="stroke:#181818;stroke-width:0.5;" x1="1600.5" x2="1701.7031" y1="47" y2="47"/></g><!--class ActuatingProcedure--><g class="entity" data-qualified-name="ActuatingProcedure" data-source-line="6" id="ent0014"><rect fill="#F1F1F1" height="48" rx="2.5" ry="2.5" style="stroke:#181818;stroke-width:0.5;" width="170.5576" x="1357.5" y="115"/><ellipse cx="1372.5" cy="131" fill="#ADD1B2" rx="11" ry="11" style="stroke:#181818;stroke-width:1;"/><path d="M1375.4688,136.6406 Q1374.8906,136.9375 1374.25,137.0781 Q1373.6094,137.2344 1372.9063,137.2344 Q1370.4063,137.2344 1369.0781,135.5938 Q1367.7656,133.9375 1367.7656,130.8125 Q1367.7656,127.6875 1369.0781,126.0313 Q1370.4063,124.375 1372.9063,124.375 Q1373.6094,124.375 1374.25,124.5313 Q1374.9063,124.6875 1375.4688,124.9844 L1375.4688,127.7031 Q1374.8438,127.125 1374.25,126.8594 Q1373.6563,126.5781 1373.0313,126.5781 Q1371.6875,126.5781 1371,127.6563 Q1370.3125,128.7188 1370.3125,130.8125 Q1370.3125,132.9063 1371,133.9844 Q1371.6875,135.0469 1373.0313,135.0469 Q1373.6563,135.0469 1374.25,134.7813 Q1374.8438,134.5 1375.4688,133.9219 L1375.4688,136.6406 Z " fill="#000000"/><text fill="#000000" font-family="sans-serif" font-size="14" lengthAdjust="spacing" textLength="138.5576" x="1386.5" y="135.8467">ActuatingProcedure</text><line style="stroke:#181818;stroke-width:0.5;" x1="1358.5" x2="1527.0576" y1="147" y2="147"/><line style="stroke:#181818;stroke-width:0.5;" x1="1358.5" x2="1527.0576" y1="155" y2="155"/></g><!--class ObservingProcedure--><g class="entity" data-qualified-name="ObservingProcedure" data-source-line="7" id="ent0016"><rect fill="#F1F1F1" height="48" rx="2.5" ry="2.5" style="stroke:#181818;stroke-width:0.5;" width="174.707" x="1563.5" y="115"/><ellipse cx="1578.5" cy="131" fill="#ADD1B2" rx="11" ry="11" style="stroke:#181818;stroke-width:1;"/><path d="M1581.4688,136.6406 Q1580.8906,136.9375 1580.25,137.0781 Q1579.6094,137.2344 1578.9063,137.2344 Q1576.4063,137.2344 1575.0781,135.5938 Q1573.7656,133.9375 1573.7656,130.8125 Q1573.7656,127.6875 1575.0781,126.0313 Q1576.4063,124.375 1578.9063,124.375 Q1579.6094,124.375 1580.25,124.5313 Q1580.9063,124.6875 1581.4688,124.9844 L1581.4688,127.7031 Q1580.8438,127.125 1580.25,126.8594 Q1579.6563,126.5781 1579.0313,126.5781 Q1577.6875,126.5781 1577,127.6563 Q1576.3125,128.7188 1576.3125,130.8125 Q1576.3125,132.9063 1577,133.9844 Q1577.6875,135.0469 1579.0313,135.0469 Q1579.6563,135.0469 1580.25,134.7813 Q1580.8438,134.5 1581.4688,133.9219 L1581.4688,136.6406 Z " fill="#000000"/><text fill="#000000" font-family="sans-serif" font-size="14" lengthAdjust="spacing" textLength="142.707" x="1592.5" y="135.8467">ObservingProcedure</text><line style="stroke:#181818;stroke-width:0.5;" x1="1564.5" x2="1737.207" y1="147" y2="147"/><line style="stroke:#181818;stroke-width:0.5;" x1="1564.5" x2="1737.207" y1="155" y2="155"/></g><!--class SamplingProcedure--><g class="entity" data-qualified-name="SamplingProcedure" data-source-line="8" id="ent0018"><rect fill="#F1F1F1" height="48" rx="2.5" ry="2.5" style="stroke:#181818;stroke-width:0.5;" width="168.7324" x="1773.5" y="115"/><ellipse cx="1788.5" cy="131" fill="#ADD1B2" rx="11" ry="11" style="stroke:#181818;stroke-width:1;"/><path d="M1791.4688,136.6406 Q1790.8906,136.9375 1790.25,137.0781 Q1789.6094,137.2344 1788.9063,137.2344 Q1786.4063,137.2344 1785.0781,135.5938 Q1783.7656,133.9375 1783.7656,130.8125 Q1783.7656,127.6875 1785.0781,126.0313 Q1786.4063,124.375 1788.9063,124.375 Q1789.6094,124.375 1790.25,124.5313 Q1790.9063,124.6875 1791.4688,124.9844 L1791.4688,127.7031 Q1790.8438,127.125 1790.25,126.8594 Q1789.6563,126.5781 1789.0313,126.5781 Q1787.6875,126.5781 1787,127.6563 Q1786.3125,128.7188 1786.3125,130.8125 Q1786.3125,132.9063 1787,133.9844 Q1787.6875,135.0469 1789.0313,135.0469 Q1789.6563,135.0469 1790.25,134.7813 Q1790.8438,134.5 1791.4688,133.9219 L1791.4688,136.6406 Z " fill="#000000"/><text fill="#000000" font-family="sans-serif" font-size="14" lengthAdjust="spacing" textLength="136.7324" x="1802.5" y="135.8467">SamplingProcedure</text><line style="stroke:#181818;stroke-width:0.5;" x1="1774.5" x2="1941.2324" y1="147" y2="147"/><line style="stroke:#181818;stroke-width:0.5;" x1="1774.5" x2="1941.2324" y1="155" y2="155"/></g><!--class Asset--><g class="entity" data-qualified-name="Asset" data-source-line="9" id="ent0020"><rect fill="#F1F1F1" height="48" rx="2.5" ry="2.5" style="stroke:#181818;stroke-width:0.5;" width="70.2676" x="2049" y="7"/><ellipse cx="2064" cy="23" fill="#ADD1B2" rx="11" ry="11" style="stroke:#181818;stroke-width:1;"/><path d="M2066.9688,28.6406 Q2066.3906,28.9375 2065.75,29.0781 Q2065.1094,29.2344 2064.4063,29.2344 Q2061.9063,29.2344 2060.5781,27.5938 Q2059.2656,25.9375 2059.2656,22.8125 Q2059.2656,19.6875 2060.5781,18.0313 Q2061.9063,16.375 2064.4063,16.375 Q2065.1094,16.375 2065.75,16.5313 Q2066.4063,16.6875 2066.9688,16.9844 L2066.9688,19.7031 Q2066.3438,19.125 2065.75,18.8594 Q2065.1563,18.5781 2064.5313,18.5781 Q2063.1875,18.5781 2062.5,19.6563 Q2061.8125,20.7188 2061.8125,22.8125 Q2061.8125,24.9063 2062.5,25.9844 Q2063.1875,27.0469 2064.5313,27.0469 Q2065.1563,27.0469 2065.75,26.7813 Q2066.3438,26.5 2066.9688,25.9219 L2066.9688,28.6406 Z " fill="#000000"/><text fill="#000000" font-family="sans-serif" font-size="14" lengthAdjust="spacing" textLength="38.2676" x="2078" y="27.8467">Asset</text><line style="stroke:#181818;stroke-width:0.5;" x1="2050" x2="2118.2676" y1="39" y2="39"/><line style="stroke:#181818;stroke-width:0.5;" x1="2050" x2="2118.2676" y1="47" y2="47"/></g><!--class Platform--><g class="entity" data-qualified-name="Platform" data-source-line="9" id="ent0021"><rect fill="#F1F1F1" height="48" rx="2.5" ry="2.5" style="stroke:#181818;stroke-width:0.5;" width="91.2881" x="1977.5" y="115"/><ellipse cx="1992.5" cy="131" fill="#ADD1B2" rx="11" ry="11" style="stroke:#181818;stroke-width:1;"/><path d="M1995.4688,136.6406 Q1994.8906,136.9375 1994.25,137.0781 Q1993.6094,137.2344 1992.9063,137.2344 Q1990.4063,137.2344 1989.0781,135.5938 Q1987.7656,133.9375 1987.7656,130.8125 Q1987.7656,127.6875 1989.0781,126.0313 Q1990.4063,124.375 1992.9063,124.375 Q1993.6094,124.375 1994.25,124.5313 Q1994.9063,124.6875 1995.4688,124.9844 L1995.4688,127.7031 Q1994.8438,127.125 1994.25,126.8594 Q1993.6563,126.5781 1993.0313,126.5781 Q1991.6875,126.5781 1991,127.6563 Q1990.3125,128.7188 1990.3125,130.8125 Q1990.3125,132.9063 1991,133.9844 Q1991.6875,135.0469 1993.0313,135.0469 Q1993.6563,135.0469 1994.25,134.7813 Q1994.8438,134.5 1995.4688,133.9219 L1995.4688,136.6406 Z " fill="#000000"/><text fill="#000000" font-family="sans-serif" font-size="14" lengthAdjust="spacing" textLength="59.2881" x="2006.5" y="135.8467">Platform</text><line style="stroke:#181818;stroke-width:0.5;" x1="1978.5" x2="2067.7881" y1="147" y2="147"/><line style="stroke:#181818;stroke-width:0.5;" x1="1978.5" x2="2067.7881" y1="155" y2="155"/></g><!--class System--><g class="entity" data-qualified-name="System" data-source-line="10" id="ent0023"><rect fill="#F1F1F1" height="48" rx="2.5" ry="2.5" style="stroke:#181818;stroke-width:0.5;" width="84.2061" x="2104" y="115"/><ellipse cx="2119" cy="131" fill="#ADD1B2" rx="11" ry="11" style="stroke:#181818;stroke-width:1;"/><path d="M2121.9688,136.6406 Q2121.3906,136.9375 2120.75,137.0781 Q2120.1094,137.2344 2119.4063,137.2344 Q2116.9063,137.2344 2115.5781,135.5938 Q2114.2656,133.9375 2114.2656,130.8125 Q2114.2656,127.6875 2115.5781,126.0313 Q2116.9063,124.375 2119.4063,124.375 Q2120.1094,124.375 2120.75,124.5313 Q2121.4063,124.6875 2121.9688,124.9844 L2121.9688,127.7031 Q2121.3438,127.125 2120.75,126.8594 Q2120.1563,126.5781 2119.5313,126.5781 Q2118.1875,126.5781 2117.5,127.6563 Q2116.8125,128.7188 2116.8125,130.8125 Q2116.8125,132.9063 2117.5,133.9844 Q2118.1875,135.0469 2119.5313,135.0469 Q2120.1563,135.0469 2120.75,134.7813 Q2121.3438,134.5 2121.9688,133.9219 L2121.9688,136.6406 Z " fill="#000000"/><text fill="#000000" font-family="sans-serif" font-size="14" lengthAdjust="spacing" textLength="52.2061" x="2133" y="135.8467">System</text><line style="stroke:#181818;stroke-width:0.5;" x1="2105" x2="2187.2061" y1="147" y2="147"/><line style="stroke:#181818;stroke-width:0.5;" x1="2105" x2="2187.2061" y1="155" y2="155"/></g><!--class Sampler--><g class="entity" data-qualified-name="Sampler" data-source-line="10" id="ent0024"><rect fill="#F1F1F1" height="48" rx="2.5" ry="2.5" style="stroke:#181818;stroke-width:0.5;" width="90.249" x="1975" y="223"/><ellipse cx="1990" cy="239" fill="#ADD1B2" rx="11" ry="11" style="stroke:#181818;stroke-width:1;"/><path d="M1992.9688,244.6406 Q1992.3906,244.9375 1991.75,245.0781 Q1991.1094,245.2344 1990.4063,245.2344 Q1987.9063,245.2344 1986.5781,243.5938 Q1985.2656,241.9375 1985.2656,238.8125 Q1985.2656,235.6875 1986.5781,234.0313 Q1987.9063,232.375 1990.4063,232.375 Q1991.1094,232.375 1991.75,232.5313 Q1992.4063,232.6875 1992.9688,232.9844 L1992.9688,235.7031 Q1992.3438,235.125 1991.75,234.8594 Q1991.1563,234.5781 1990.5313,234.5781 Q1989.1875,234.5781 1988.5,235.6563 Q1987.8125,236.7188 1987.8125,238.8125 Q1987.8125,240.9063 1988.5,241.9844 Q1989.1875,243.0469 1990.5313,243.0469 Q1991.1563,243.0469 1991.75,242.7813 Q1992.3438,242.5 1992.9688,241.9219 L1992.9688,244.6406 Z " fill="#000000"/><text fill="#000000" font-family="sans-serif" font-size="14" lengthAdjust="spacing" textLength="58.249" x="2004" y="243.8467">Sampler</text><line style="stroke:#181818;stroke-width:0.5;" x1="1976" x2="2064.249" y1="255" y2="255"/><line style="stroke:#181818;stroke-width:0.5;" x1="1976" x2="2064.249" y1="263" y2="263"/></g><!--class Actuator--><g class="entity" data-qualified-name="Actuator" data-source-line="11" id="ent0026"><rect fill="#F1F1F1" height="48" rx="2.5" ry="2.5" style="stroke:#181818;stroke-width:0.5;" width="92.0264" x="2100" y="223"/><ellipse cx="2115" cy="239" fill="#ADD1B2" rx="11" ry="11" style="stroke:#181818;stroke-width:1;"/><path d="M2117.9688,244.6406 Q2117.3906,244.9375 2116.75,245.0781 Q2116.1094,245.2344 2115.4063,245.2344 Q2112.9063,245.2344 2111.5781,243.5938 Q2110.2656,241.9375 2110.2656,238.8125 Q2110.2656,235.6875 2111.5781,234.0313 Q2112.9063,232.375 2115.4063,232.375 Q2116.1094,232.375 2116.75,232.5313 Q2117.4063,232.6875 2117.9688,232.9844 L2117.9688,235.7031 Q2117.3438,235.125 2116.75,234.8594 Q2116.1563,234.5781 2115.5313,234.5781 Q2114.1875,234.5781 2113.5,235.6563 Q2112.8125,236.7188 2112.8125,238.8125 Q2112.8125,240.9063 2113.5,241.9844 Q2114.1875,243.0469 2115.5313,243.0469 Q2116.1563,243.0469 2116.75,242.7813 Q2117.3438,242.5 2117.9688,241.9219 L2117.9688,244.6406 Z " fill="#000000"/><text fill="#000000" font-family="sans-serif" font-size="14" lengthAdjust="spacing" textLength="60.0264" x="2129" y="243.8467">Actuator</text><line style="stroke:#181818;stroke-width:0.5;" x1="2101" x2="2191.0264" y1="255" y2="255"/><line style="stroke:#181818;stroke-width:0.5;" x1="2101" x2="2191.0264" y1="263" y2="263"/></g><!--class Execution--><g class="entity" data-qualified-name="Execution" data-source-line="13" id="ent0029"><rect fill="#F1F1F1" height="48" rx="2.5" ry="2.5" style="stroke:#181818;stroke-width:0.5;" width="101.1318" x="2355.5" y="7"/><ellipse cx="2370.5" cy="23" fill="#ADD1B2" rx="11" ry="11" style="stroke:#181818;stroke-width:1;"/><path d="M2373.4688,28.6406 Q2372.8906,28.9375 2372.25,29.0781 Q2371.6094,29.2344 2370.9063,29.2344 Q2368.4063,29.2344 2367.0781,27.5938 Q2365.7656,25.9375 2365.7656,22.8125 Q2365.7656,19.6875 2367.0781,18.0313 Q2368.4063,16.375 2370.9063,16.375 Q2371.6094,16.375 2372.25,16.5313 Q2372.9063,16.6875 2373.4688,16.9844 L2373.4688,19.7031 Q2372.8438,19.125 2372.25,18.8594 Q2371.6563,18.5781 2371.0313,18.5781 Q2369.6875,18.5781 2369,19.6563 Q2368.3125,20.7188 2368.3125,22.8125 Q2368.3125,24.9063 2369,25.9844 Q2369.6875,27.0469 2371.0313,27.0469 Q2371.6563,27.0469 2372.25,26.7813 Q2372.8438,26.5 2373.4688,25.9219 L2373.4688,28.6406 Z " fill="#000000"/><text fill="#000000" font-family="sans-serif" font-size="14" lengthAdjust="spacing" textLength="69.1318" x="2384.5" y="27.8467">Execution</text><line style="stroke:#181818;stroke-width:0.5;" x1="2356.5" x2="2455.6318" y1="39" y2="39"/><line style="stroke:#181818;stroke-width:0.5;" x1="2356.5" x2="2455.6318" y1="47" y2="47"/></g><!--class Sampling--><g class="entity" data-qualified-name="Sampling" data-source-line="13" id="ent0030"><rect fill="#F1F1F1" height="48" rx="2.5" ry="2.5" style="stroke:#181818;stroke-width:0.5;" width="97.5293" x="2223" y="115"/><ellipse cx="2238" cy="131" fill="#ADD1B2" rx="11" ry="11" style="stroke:#181818;stroke-width:1;"/><path d="M2240.9688,136.6406 Q2240.3906,136.9375 2239.75,137.0781 Q2239.1094,137.2344 2238.4063,137.2344 Q2235.9063,137.2344 2234.5781,135.5938 Q2233.2656,133.9375 2233.2656,130.8125 Q2233.2656,127.6875 2234.5781,126.0313 Q2235.9063,124.375 2238.4063,124.375 Q2239.1094,124.375 2239.75,124.5313 Q2240.4063,124.6875 2240.9688,124.9844 L2240.9688,127.7031 Q2240.3438,127.125 2239.75,126.8594 Q2239.1563,126.5781 2238.5313,126.5781 Q2237.1875,126.5781 2236.5,127.6563 Q2235.8125,128.7188 2235.8125,130.8125 Q2235.8125,132.9063 2236.5,133.9844 Q2237.1875,135.0469 2238.5313,135.0469 Q2239.1563,135.0469 2239.75,134.7813 Q2240.3438,134.5 2240.9688,133.9219 L2240.9688,136.6406 Z " fill="#000000"/><text fill="#000000" font-family="sans-serif" font-size="14" lengthAdjust="spacing" textLength="65.5293" x="2252" y="135.8467">Sampling</text><line style="stroke:#181818;stroke-width:0.5;" x1="2224" x2="2319.5293" y1="147" y2="147"/><line style="stroke:#181818;stroke-width:0.5;" x1="2224" x2="2319.5293" y1="155" y2="155"/></g><!--class ExecutionCollection--><g class="entity" data-qualified-name="ExecutionCollection" data-source-line="14" id="ent0032"><rect fill="#F1F1F1" height="48" rx="2.5" ry="2.5" style="stroke:#181818;stroke-width:0.5;" width="170.3799" x="2843" y="7"/><ellipse cx="2858" cy="23" fill="#ADD1B2" rx="11" ry="11" style="stroke:#181818;stroke-width:1;"/><path d="M2860.9688,28.6406 Q2860.3906,28.9375 2859.75,29.0781 Q2859.1094,29.2344 2858.4063,29.2344 Q2855.9063,29.2344 2854.5781,27.5938 Q2853.2656,25.9375 2853.2656,22.8125 Q2853.2656,19.6875 2854.5781,18.0313 Q2855.9063,16.375 2858.4063,16.375 Q2859.1094,16.375 2859.75,16.5313 Q2860.4063,16.6875 2860.9688,16.9844 L2860.9688,19.7031 Q2860.3438,19.125 2859.75,18.8594 Q2859.1563,18.5781 2858.5313,18.5781 Q2857.1875,18.5781 2856.5,19.6563 Q2855.8125,20.7188 2855.8125,22.8125 Q2855.8125,24.9063 2856.5,25.9844 Q2857.1875,27.0469 2858.5313,27.0469 Q2859.1563,27.0469 2859.75,26.7813 Q2860.3438,26.5 2860.9688,25.9219 L2860.9688,28.6406 Z " fill="#000000"/><text fill="#000000" font-family="sans-serif" font-size="14" lengthAdjust="spacing" textLength="138.3799" x="2872" y="27.8467">ExecutionCollection</text><line style="stroke:#181818;stroke-width:0.5;" x1="2844" x2="3012.3799" y1="39" y2="39"/><line style="stroke:#181818;stroke-width:0.5;" x1="2844" x2="3012.3799" y1="47" y2="47"/></g><!--class SamplingCollection--><g class="entity" data-qualified-name="SamplingCollection" data-source-line="14" id="ent0033"><rect fill="#F1F1F1" height="48" rx="2.5" ry="2.5" style="stroke:#181818;stroke-width:0.5;" width="166.7773" x="2642.5" y="115"/><ellipse cx="2657.5" cy="131" fill="#ADD1B2" rx="11" ry="11" style="stroke:#181818;stroke-width:1;"/><path d="M2660.4688,136.6406 Q2659.8906,136.9375 2659.25,137.0781 Q2658.6094,137.2344 2657.9063,137.2344 Q2655.4063,137.2344 2654.0781,135.5938 Q2652.7656,133.9375 2652.7656,130.8125 Q2652.7656,127.6875 2654.0781,126.0313 Q2655.4063,124.375 2657.9063,124.375 Q2658.6094,124.375 2659.25,124.5313 Q2659.9063,124.6875 2660.4688,124.9844 L2660.4688,127.7031 Q2659.8438,127.125 2659.25,126.8594 Q2658.6563,126.5781 2658.0313,126.5781 Q2656.6875,126.5781 2656,127.6563 Q2655.3125,128.7188 2655.3125,130.8125 Q2655.3125,132.9063 2656,133.9844 Q2656.6875,135.0469 2658.0313,135.0469 Q2658.6563,135.0469 2659.25,134.7813 Q2659.8438,134.5 2660.4688,133.9219 L2660.4688,136.6406 Z " fill="#000000"/><text fill="#000000" font-family="sans-serif" font-size="14" lengthAdjust="spacing" textLength="134.7773" x="2671.5" y="135.8467">SamplingCollection</text><line style="stroke:#181818;stroke-width:0.5;" x1="2643.5" x2="2808.2773" y1="147" y2="147"/><line style="stroke:#181818;stroke-width:0.5;" x1="2643.5" x2="2808.2773" y1="155" y2="155"/></g><!--class Actuation--><g class="entity" data-qualified-name="Actuation" data-source-line="15" id="ent0035"><rect fill="#F1F1F1" height="48" rx="2.5" ry="2.5" style="stroke:#181818;stroke-width:0.5;" width="99.0332" x="2356.5" y="115"/><ellipse cx="2371.5" cy="131" fill="#ADD1B2" rx="11" ry="11" style="stroke:#181818;stroke-width:1;"/><path d="M2374.4688,136.6406 Q2373.8906,136.9375 2373.25,137.0781 Q2372.6094,137.2344 2371.9063,137.2344 Q2369.4063,137.2344 2368.0781,135.5938 Q2366.7656,133.9375 2366.7656,130.8125 Q2366.7656,127.6875 2368.0781,126.0313 Q2369.4063,124.375 2371.9063,124.375 Q2372.6094,124.375 2373.25,124.5313 Q2373.9063,124.6875 2374.4688,124.9844 L2374.4688,127.7031 Q2373.8438,127.125 2373.25,126.8594 Q2372.6563,126.5781 2372.0313,126.5781 Q2370.6875,126.5781 2370,127.6563 Q2369.3125,128.7188 2369.3125,130.8125 Q2369.3125,132.9063 2370,133.9844 Q2370.6875,135.0469 2372.0313,135.0469 Q2372.6563,135.0469 2373.25,134.7813 Q2373.8438,134.5 2374.4688,133.9219 L2374.4688,136.6406 Z " fill="#000000"/><text fill="#000000" font-family="sans-serif" font-size="14" lengthAdjust="spacing" textLength="67.0332" x="2385.5" y="135.8467">Actuation</text><line style="stroke:#181818;stroke-width:0.5;" x1="2357.5" x2="2454.5332" y1="147" y2="147"/><line style="stroke:#181818;stroke-width:0.5;" x1="2357.5" x2="2454.5332" y1="155" y2="155"/></g><!--class Sensor--><g class="entity" data-qualified-name="Sensor" data-source-line="16" id="ent0037"><rect fill="#F1F1F1" height="48" rx="2.5" ry="2.5" style="stroke:#181818;stroke-width:0.5;" width="79.9883" x="2227" y="223"/><ellipse cx="2242" cy="239" fill="#ADD1B2" rx="11" ry="11" style="stroke:#181818;stroke-width:1;"/><path d="M2244.9688,244.6406 Q2244.3906,244.9375 2243.75,245.0781 Q2243.1094,245.2344 2242.4063,245.2344 Q2239.9063,245.2344 2238.5781,243.5938 Q2237.2656,241.9375 2237.2656,238.8125 Q2237.2656,235.6875 2238.5781,234.0313 Q2239.9063,232.375 2242.4063,232.375 Q2243.1094,232.375 2243.75,232.5313 Q2244.4063,232.6875 2244.9688,232.9844 L2244.9688,235.7031 Q2244.3438,235.125 2243.75,234.8594 Q2243.1563,234.5781 2242.5313,234.5781 Q2241.1875,234.5781 2240.5,235.6563 Q2239.8125,236.7188 2239.8125,238.8125 Q2239.8125,240.9063 2240.5,241.9844 Q2241.1875,243.0469 2242.5313,243.0469 Q2243.1563,243.0469 2243.75,242.7813 Q2244.3438,242.5 2244.9688,241.9219 L2244.9688,244.6406 Z " fill="#000000"/><text fill="#000000" font-family="sans-serif" font-size="14" lengthAdjust="spacing" textLength="47.9883" x="2256" y="243.8467">Sensor</text><line style="stroke:#181818;stroke-width:0.5;" x1="2228" x2="2305.9883" y1="255" y2="255"/><line style="stroke:#181818;stroke-width:0.5;" x1="2228" x2="2305.9883" y1="263" y2="263"/></g><!--class ActuationCollection--><g class="entity" data-qualified-name="ActuationCollection" data-source-line="17" id="ent0039"><rect fill="#F1F1F1" height="48" rx="2.5" ry="2.5" style="stroke:#181818;stroke-width:0.5;" width="168.2813" x="2844" y="115"/><ellipse cx="2859" cy="131" fill="#ADD1B2" rx="11" ry="11" style="stroke:#181818;stroke-width:1;"/><path d="M2861.9688,136.6406 Q2861.3906,136.9375 2860.75,137.0781 Q2860.1094,137.2344 2859.4063,137.2344 Q2856.9063,137.2344 2855.5781,135.5938 Q2854.2656,133.9375 2854.2656,130.8125 Q2854.2656,127.6875 2855.5781,126.0313 Q2856.9063,124.375 2859.4063,124.375 Q2860.1094,124.375 2860.75,124.5313 Q2861.4063,124.6875 2861.9688,124.9844 L2861.9688,127.7031 Q2861.3438,127.125 2860.75,126.8594 Q2860.1563,126.5781 2859.5313,126.5781 Q2858.1875,126.5781 2857.5,127.6563 Q2856.8125,128.7188 2856.8125,130.8125 Q2856.8125,132.9063 2857.5,133.9844 Q2858.1875,135.0469 2859.5313,135.0469 Q2860.1563,135.0469 2860.75,134.7813 Q2861.3438,134.5 2861.9688,133.9219 L2861.9688,136.6406 Z " fill="#000000"/><text fill="#000000" font-family="sans-serif" font-size="14" lengthAdjust="spacing" textLength="136.2813" x="2873" y="135.8467">ActuationCollection</text><line style="stroke:#181818;stroke-width:0.5;" x1="2845" x2="3011.2813" y1="147" y2="147"/><line style="stroke:#181818;stroke-width:0.5;" x1="2845" x2="3011.2813" y1="155" y2="155"/></g><!--class ObservationCollection--><g class="entity" data-qualified-name="ObservationCollection" data-source-line="18" id="ent0041"><rect fill="#F1F1F1" height="48" rx="2.5" ry="2.5" style="stroke:#181818;stroke-width:0.5;" width="186.499" x="3047" y="115"/><ellipse cx="3062" cy="131" fill="#ADD1B2" rx="11" ry="11" style="stroke:#181818;stroke-width:1;"/><path d="M3064.9688,136.6406 Q3064.3906,136.9375 3063.75,137.0781 Q3063.1094,137.2344 3062.4063,137.2344 Q3059.9063,137.2344 3058.5781,135.5938 Q3057.2656,133.9375 3057.2656,130.8125 Q3057.2656,127.6875 3058.5781,126.0313 Q3059.9063,124.375 3062.4063,124.375 Q3063.1094,124.375 3063.75,124.5313 Q3064.4063,124.6875 3064.9688,124.9844 L3064.9688,127.7031 Q3064.3438,127.125 3063.75,126.8594 Q3063.1563,126.5781 3062.5313,126.5781 Q3061.1875,126.5781 3060.5,127.6563 Q3059.8125,128.7188 3059.8125,130.8125 Q3059.8125,132.9063 3060.5,133.9844 Q3061.1875,135.0469 3062.5313,135.0469 Q3063.1563,135.0469 3063.75,134.7813 Q3064.3438,134.5 3064.9688,133.9219 L3064.9688,136.6406 Z " fill="#000000"/><text fill="#000000" font-family="sans-serif" font-size="14" lengthAdjust="spacing" textLength="154.499" x="3076" y="135.8467">ObservationCollection</text><line style="stroke:#181818;stroke-width:0.5;" x1="3048" x2="3232.499" y1="147" y2="147"/><line style="stroke:#181818;stroke-width:0.5;" x1="3048" x2="3232.499" y1="155" y2="155"/></g><!--class Observation--><g class="entity" data-qualified-name="Observation" data-source-line="19" id="ent0043"><rect fill="#F1F1F1" height="48" rx="2.5" ry="2.5" style="stroke:#181818;stroke-width:0.5;" width="117.251" x="2490.5" y="115"/><ellipse cx="2505.5" cy="131" fill="#ADD1B2" rx="11" ry="11" style="stroke:#181818;stroke-width:1;"/><path d="M2508.4688,136.6406 Q2507.8906,136.9375 2507.25,137.0781 Q2506.6094,137.2344 2505.9063,137.2344 Q2503.4063,137.2344 2502.0781,135.5938 Q2500.7656,133.9375 2500.7656,130.8125 Q2500.7656,127.6875 2502.0781,126.0313 Q2503.4063,124.375 2505.9063,124.375 Q2506.6094,124.375 2507.25,124.5313 Q2507.9063,124.6875 2508.4688,124.9844 L2508.4688,127.7031 Q2507.8438,127.125 2507.25,126.8594 Q2506.6563,126.5781 2506.0313,126.5781 Q2504.6875,126.5781 2504,127.6563 Q2503.3125,128.7188 2503.3125,130.8125 Q2503.3125,132.9063 2504,133.9844 Q2504.6875,135.0469 2506.0313,135.0469 Q2506.6563,135.0469 2507.25,134.7813 Q2507.8438,134.5 2508.4688,133.9219 L2508.4688,136.6406 Z " fill="#000000"/><text fill="#000000" font-family="sans-serif" font-size="14" lengthAdjust="spacing" textLength="85.251" x="2519.5" y="135.8467">Observation</text><line style="stroke:#181818;stroke-width:0.5;" x1="2491.5" x2="2606.751" y1="147" y2="147"/><line style="stroke:#181818;stroke-width:0.5;" x1="2491.5" x2="2606.751" y1="155" y2="155"/></g><!--class Output--><g class="entity" data-qualified-name="Output" data-source-line="22" id="ent0045"><rect fill="#F1F1F1" height="48" rx="2.5" ry="2.5" style="stroke:#181818;stroke-width:0.5;" width="80.6309" x="43.5" y="7"/><ellipse cx="58.5" cy="23" fill="#ADD1B2" rx="11" ry="11" style="stroke:#181818;stroke-width:1;"/><path d="M61.4688,28.6406 Q60.8906,28.9375 60.25,29.0781 Q59.6094,29.2344 58.9063,29.2344 Q56.4063,29.2344 55.0781,27.5938 Q53.7656,25.9375 53.7656,22.8125 Q53.7656,19.6875 55.0781,18.0313 Q56.4063,16.375 58.9063,16.375 Q59.6094,16.375 60.25,16.5313 Q60.9063,16.6875 61.4688,16.9844 L61.4688,19.7031 Q60.8438,19.125 60.25,18.8594 Q59.6563,18.5781 59.0313,18.5781 Q57.6875,18.5781 57,19.6563 Q56.3125,20.7188 56.3125,22.8125 Q56.3125,24.9063 57,25.9844 Q57.6875,27.0469 59.0313,27.0469 Q59.6563,27.0469 60.25,26.7813 Q60.8438,26.5 61.4688,25.9219 L61.4688,28.6406 Z " fill="#000000"/><text fill="#000000" font-family="sans-serif" font-size="14" lengthAdjust="spacing" textLength="48.6309" x="72.5" y="27.8467">Output</text><line style="stroke:#181818;stroke-width:0.5;" x1="44.5" x2="123.1309" y1="39" y2="39"/><line style="stroke:#181818;stroke-width:0.5;" x1="44.5" x2="123.1309" y1="47" y2="47"/></g><!--class FeatureOfInterest--><g class="entity" data-qualified-name="FeatureOfInterest" data-source-line="23" id="ent0046"><rect fill="#F1F1F1" height="48" rx="2.5" ry="2.5" style="stroke:#181818;stroke-width:0.5;" width="156.1816" x="160" y="7"/><ellipse cx="175" cy="23" fill="#ADD1B2" rx="11" ry="11" style="stroke:#181818;stroke-width:1;"/><path d="M177.9688,28.6406 Q177.3906,28.9375 176.75,29.0781 Q176.1094,29.2344 175.4063,29.2344 Q172.9063,29.2344 171.5781,27.5938 Q170.2656,25.9375 170.2656,22.8125 Q170.2656,19.6875 171.5781,18.0313 Q172.9063,16.375 175.4063,16.375 Q176.1094,16.375 176.75,16.5313 Q177.4063,16.6875 177.9688,16.9844 L177.9688,19.7031 Q177.3438,19.125 176.75,18.8594 Q176.1563,18.5781 175.5313,18.5781 Q174.1875,18.5781 173.5,19.6563 Q172.8125,20.7188 172.8125,22.8125 Q172.8125,24.9063 173.5,25.9844 Q174.1875,27.0469 175.5313,27.0469 Q176.1563,27.0469 176.75,26.7813 Q177.3438,26.5 177.9688,25.9219 L177.9688,28.6406 Z " fill="#000000"/><text fill="#000000" font-family="sans-serif" font-size="14" lengthAdjust="spacing" textLength="124.1816" x="189" y="27.8467">FeatureOfInterest</text><line style="stroke:#181818;stroke-width:0.5;" x1="161" x2="315.1816" y1="39" y2="39"/><line style="stroke:#181818;stroke-width:0.5;" x1="161" x2="315.1816" y1="47" y2="47"/></g><!--class Stimulus--><g class="entity" data-qualified-name="Stimulus" data-source-line="24" id="ent0047"><rect fill="#F1F1F1" height="48" rx="2.5" ry="2.5" style="stroke:#181818;stroke-width:0.5;" width="92.833" x="351.5" y="7"/><ellipse cx="366.5" cy="23" fill="#ADD1B2" rx="11" ry="11" style="stroke:#181818;stroke-width:1;"/><path d="M369.4688,28.6406 Q368.8906,28.9375 368.25,29.0781 Q367.6094,29.2344 366.9063,29.2344 Q364.4063,29.2344 363.0781,27.5938 Q361.7656,25.9375 361.7656,22.8125 Q361.7656,19.6875 363.0781,18.0313 Q364.4063,16.375 366.9063,16.375 Q367.6094,16.375 368.25,16.5313 Q368.9063,16.6875 369.4688,16.9844 L369.4688,19.7031 Q368.8438,19.125 368.25,18.8594 Q367.6563,18.5781 367.0313,18.5781 Q365.6875,18.5781 365,19.6563 Q364.3125,20.7188 364.3125,22.8125 Q364.3125,24.9063 365,25.9844 Q365.6875,27.0469 367.0313,27.0469 Q367.6563,27.0469 368.25,26.7813 Q368.8438,26.5 369.4688,25.9219 L369.4688,28.6406 Z " fill="#000000"/><text fill="#000000" font-family="sans-serif" font-size="14" lengthAdjust="spacing" textLength="60.833" x="380.5" y="27.8467">Stimulus</text><line style="stroke:#181818;stroke-width:0.5;" x1="352.5" x2="443.333" y1="39" y2="39"/><line style="stroke:#181818;stroke-width:0.5;" x1="352.5" x2="443.333" y1="47" y2="47"/></g><!--class Result--><g class="entity" data-qualified-name="Result" data-source-line="25" id="ent0048"><rect fill="#F1F1F1" height="48" rx="2.5" ry="2.5" style="stroke:#181818;stroke-width:0.5;" width="75.8867" x="46" y="115"/><ellipse cx="61" cy="131" fill="#ADD1B2" rx="11" ry="11" style="stroke:#181818;stroke-width:1;"/><path d="M63.9688,136.6406 Q63.3906,136.9375 62.75,137.0781 Q62.1094,137.2344 61.4063,137.2344 Q58.9063,137.2344 57.5781,135.5938 Q56.2656,133.9375 56.2656,130.8125 Q56.2656,127.6875 57.5781,126.0313 Q58.9063,124.375 61.4063,124.375 Q62.1094,124.375 62.75,124.5313 Q63.4063,124.6875 63.9688,124.9844 L63.9688,127.7031 Q63.3438,127.125 62.75,126.8594 Q62.1563,126.5781 61.5313,126.5781 Q60.1875,126.5781 59.5,127.6563 Q58.8125,128.7188 58.8125,130.8125 Q58.8125,132.9063 59.5,133.9844 Q60.1875,135.0469 61.5313,135.0469 Q62.1563,135.0469 62.75,134.7813 Q63.3438,134.5 63.9688,133.9219 L63.9688,136.6406 Z " fill="#000000"/><text fill="#000000" font-family="sans-serif" font-size="14" lengthAdjust="spacing" textLength="43.8867" x="75" y="135.8467">Result</text><line style="stroke:#181818;stroke-width:0.5;" x1="47" x2="120.8867" y1="147" y2="147"/><line style="stroke:#181818;stroke-width:0.5;" x1="47" x2="120.8867" y1="155" y2="155"/></g><!--class Deployment--><g class="entity" data-qualified-name="Deployment" data-source-line="26" id="ent0049"><rect fill="#F1F1F1" height="48" rx="2.5" ry="2.5" style="stroke:#181818;stroke-width:0.5;" width="117.6338" x="157" y="115"/><ellipse cx="172" cy="131" fill="#ADD1B2" rx="11" ry="11" style="stroke:#181818;stroke-width:1;"/><path d="M174.9688,136.6406 Q174.3906,136.9375 173.75,137.0781 Q173.1094,137.2344 172.4063,137.2344 Q169.9063,137.2344 168.5781,135.5938 Q167.2656,133.9375 167.2656,130.8125 Q167.2656,127.6875 168.5781,126.0313 Q169.9063,124.375 172.4063,124.375 Q173.1094,124.375 173.75,124.5313 Q174.4063,124.6875 174.9688,124.9844 L174.9688,127.7031 Q174.3438,127.125 173.75,126.8594 Q173.1563,126.5781 172.5313,126.5781 Q171.1875,126.5781 170.5,127.6563 Q169.8125,128.7188 169.8125,130.8125 Q169.8125,132.9063 170.5,133.9844 Q171.1875,135.0469 172.5313,135.0469 Q173.1563,135.0469 173.75,134.7813 Q174.3438,134.5 174.9688,133.9219 L174.9688,136.6406 Z " fill="#000000"/><text fill="#000000" font-family="sans-serif" font-size="14" lengthAdjust="spacing" textLength="85.6338" x="186" y="135.8467">Deployment</text><line style="stroke:#181818;stroke-width:0.5;" x1="158" x2="273.6338" y1="147" y2="147"/><line style="stroke:#181818;stroke-width:0.5;" x1="158" x2="273.6338" y1="155" y2="155"/></g><!--class Input--><g class="entity" data-qualified-name="Input" data-source-line="27" id="ent0050"><rect fill="#F1F1F1" height="48" rx="2.5" ry="2.5" style="stroke:#181818;stroke-width:0.5;" width="68.251" x="310" y="115"/><ellipse cx="325" cy="131" fill="#ADD1B2" rx="11" ry="11" style="stroke:#181818;stroke-width:1;"/><path d="M327.9688,136.6406 Q327.3906,136.9375 326.75,137.0781 Q326.1094,137.2344 325.4063,137.2344 Q322.9063,137.2344 321.5781,135.5938 Q320.2656,133.9375 320.2656,130.8125 Q320.2656,127.6875 321.5781,126.0313 Q322.9063,124.375 325.4063,124.375 Q326.1094,124.375 326.75,124.5313 Q327.4063,124.6875 327.9688,124.9844 L327.9688,127.7031 Q327.3438,127.125 326.75,126.8594 Q326.1563,126.5781 325.5313,126.5781 Q324.1875,126.5781 323.5,127.6563 Q322.8125,128.7188 322.8125,130.8125 Q322.8125,132.9063 323.5,133.9844 Q324.1875,135.0469 325.5313,135.0469 Q326.1563,135.0469 326.75,134.7813 Q327.3438,134.5 327.9688,133.9219 L327.9688,136.6406 Z " fill="#000000"/><text fill="#000000" font-family="sans-serif" font-size="14" lengthAdjust="spacing" textLength="36.251" x="339" y="135.8467">Input</text><line style="stroke:#181818;stroke-width:0.5;" x1="311" x2="377.251" y1="147" y2="147"/><line style="stroke:#181818;stroke-width:0.5;" x1="311" x2="377.251" y1="155" y2="155"/></g><!--class SampleCollection--><g class="entity" data-qualified-name="SampleCollection" data-source-line="30" id="ent0051"><rect fill="#F1F1F1" height="48" rx="2.5" ry="2.5" style="stroke:#181818;stroke-width:0.5;" width="153.7412" x="7" y="223"/><ellipse cx="22" cy="239" fill="#ADD1B2" rx="11" ry="11" style="stroke:#181818;stroke-width:1;"/><path d="M24.9688,244.6406 Q24.3906,244.9375 23.75,245.0781 Q23.1094,245.2344 22.4063,245.2344 Q19.9063,245.2344 18.5781,243.5938 Q17.2656,241.9375 17.2656,238.8125 Q17.2656,235.6875 18.5781,234.0313 Q19.9063,232.375 22.4063,232.375 Q23.1094,232.375 23.75,232.5313 Q24.4063,232.6875 24.9688,232.9844 L24.9688,235.7031 Q24.3438,235.125 23.75,234.8594 Q23.1563,234.5781 22.5313,234.5781 Q21.1875,234.5781 20.5,235.6563 Q19.8125,236.7188 19.8125,238.8125 Q19.8125,240.9063 20.5,241.9844 Q21.1875,243.0469 22.5313,243.0469 Q23.1563,243.0469 23.75,242.7813 Q24.3438,242.5 24.9688,241.9219 L24.9688,244.6406 Z " fill="#000000"/><text fill="#000000" font-family="sans-serif" font-size="14" lengthAdjust="spacing" textLength="121.7412" x="36" y="243.8467">SampleCollection</text><line style="stroke:#181818;stroke-width:0.5;" x1="8" x2="159.7412" y1="255" y2="255"/><line style="stroke:#181818;stroke-width:0.5;" x1="8" x2="159.7412" y1="263" y2="263"/></g><!--reverse link Property to ActuatableProperty--><g class="link" data-entity-1="ent0001" data-entity-2="ent0002" data-link-type="extension" data-source-line="1" id="lnk3"><path codeLine="1" d="M575.2713,67.0863 C555.7813,84.7463 542.32,96.94 522.74,114.68" fill="none" id="Property-backto-ActuatableProperty" style="stroke:#181818;stroke-width:1;"/><polygon fill="none" points="588.61,55,571.2425,62.6401,579.3,71.5325,588.61,55" style="stroke:#181818;stroke-width:1;stroke-linejoin:miter;stroke-miterlimit:10;"/></g><!--reverse link Sample to MaterialSample--><g class="link" data-entity-1="ent0004" data-entity-2="ent0005" data-link-type="extension" data-source-line="2" id="lnk6"><path codeLine="2" d="M1013.3567,64.4445 C984.6067,82.1645 960.35,97.11 931.55,114.86" fill="none" id="Sample-backto-MaterialSample" style="stroke:#181818;stroke-width:1;"/><polygon fill="none" points="1028.68,55,1010.2086,59.3367,1016.5049,69.5522,1028.68,55" style="stroke:#181818;stroke-width:1;stroke-linejoin:miter;stroke-miterlimit:10;"/></g><!--reverse link Sample to SpatialSample--><g class="link" data-entity-1="ent0004" data-entity-2="ent0007" data-link-type="extension" data-source-line="3" id="lnk8"><path codeLine="3" d="M1066,73 C1066,90.66 1066,96.94 1066,114.68" fill="none" id="Sample-backto-SpatialSample" style="stroke:#181818;stroke-width:1;"/><polygon fill="none" points="1066,55,1060,73,1072,73,1066,55" style="stroke:#181818;stroke-width:1;stroke-linejoin:miter;stroke-miterlimit:10;"/></g><!--reverse link Sample to StatisticalSample--><g class="link" data-entity-1="ent0004" data-entity-2="ent0009" data-link-type="extension" data-source-line="4" id="lnk10"><path codeLine="4" d="M1120.3276,64.1725 C1150.2476,81.8925 1175.95,97.11 1205.93,114.86" fill="none" id="Sample-backto-StatisticalSample" style="stroke:#181818;stroke-width:1;"/><polygon fill="none" points="1104.84,55,1117.2701,69.335,1123.3851,59.0099,1104.84,55" style="stroke:#181818;stroke-width:1;stroke-linejoin:miter;stroke-miterlimit:10;"/></g><!--reverse link Property to ObservableProperty--><g class="link" data-entity-1="ent0001" data-entity-2="ent0011" data-link-type="extension" data-source-line="5" id="lnk12"><path codeLine="5" d="M644.5871,68.8498 C659.2471,86.5098 667.91,96.94 682.64,114.68" fill="none" id="Property-backto-ObservableProperty" style="stroke:#181818;stroke-width:1;"/><polygon fill="none" points="633.09,55,639.9705,72.6822,649.2037,65.0175,633.09,55" style="stroke:#181818;stroke-width:1;stroke-linejoin:miter;stroke-miterlimit:10;"/></g><!--reverse link Procedure to ActuatingProcedure--><g class="link" data-entity-1="ent0013" data-entity-2="ent0014" data-link-type="extension" data-source-line="6" id="lnk15"><path codeLine="6" d="M1589.8326,63.1732 C1555.0626,80.8932 1523.24,97.11 1488.4,114.86" fill="none" id="Procedure-backto-ActuatingProcedure" style="stroke:#181818;stroke-width:1;"/><polygon fill="none" points="1605.87,55,1587.1082,57.8274,1592.557,68.519,1605.87,55" style="stroke:#181818;stroke-width:1;stroke-linejoin:miter;stroke-miterlimit:10;"/></g><!--reverse link Procedure to ObservingProcedure--><g class="link" data-entity-1="ent0013" data-entity-2="ent0016" data-link-type="extension" data-source-line="7" id="lnk17"><path codeLine="7" d="M1651,73 C1651,90.66 1651,96.94 1651,114.68" fill="none" id="Procedure-backto-ObservingProcedure" style="stroke:#181818;stroke-width:1;"/><polygon fill="none" points="1651,55,1645,73,1657,73,1651,55" style="stroke:#181818;stroke-width:1;stroke-linejoin:miter;stroke-miterlimit:10;"/></g><!--reverse link Procedure to SamplingProcedure--><g class="link" data-entity-1="ent0013" data-entity-2="ent0018" data-link-type="extension" data-source-line="8" id="lnk19"><path codeLine="8" d="M1711.9411,63.205 C1746.5411,80.925 1778.15,97.11 1812.81,114.86" fill="none" id="Procedure-backto-SamplingProcedure" style="stroke:#181818;stroke-width:1;"/><polygon fill="none" points="1695.92,55,1709.2061,68.5454,1714.6762,57.8647,1695.92,55" style="stroke:#181818;stroke-width:1;stroke-linejoin:miter;stroke-miterlimit:10;"/></g><!--reverse link Asset to Platform--><g class="link" data-entity-1="ent0020" data-entity-2="ent0021" data-link-type="extension" data-source-line="9" id="lnk22"><path codeLine="9" d="M2061.7839,70.6022 C2051.6239,88.2622 2046.63,96.94 2036.42,114.68" fill="none" id="Asset-backto-Platform" style="stroke:#181818;stroke-width:1;"/><polygon fill="none" points="2070.76,55,2056.5831,67.6102,2066.9846,73.5943,2070.76,55" style="stroke:#181818;stroke-width:1;stroke-linejoin:miter;stroke-miterlimit:10;"/></g><!--reverse link System to Sampler--><g class="link" data-entity-1="ent0023" data-entity-2="ent0024" data-link-type="extension" data-source-line="10" id="lnk25"><path codeLine="10" d="M2104.8865,174.5884 C2083.8965,192.2484 2068.81,204.94 2047.72,222.68" fill="none" id="System-backto-Sampler" style="stroke:#181818;stroke-width:1;"/><polygon fill="none" points="2118.66,163,2101.0237,169.9972,2108.7493,179.1795,2118.66,163" style="stroke:#181818;stroke-width:1;stroke-linejoin:miter;stroke-miterlimit:10;"/></g><!--reverse link System to Actuator--><g class="link" data-entity-1="ent0023" data-entity-2="ent0026" data-link-type="extension" data-source-line="11" id="lnk27"><path codeLine="11" d="M2146,181 C2146,198.66 2146,204.94 2146,222.68" fill="none" id="System-backto-Actuator" style="stroke:#181818;stroke-width:1;"/><polygon fill="none" points="2146,163,2140,181,2152,181,2146,163" style="stroke:#181818;stroke-width:1;stroke-linejoin:miter;stroke-miterlimit:10;"/></g><!--reverse link Asset to System--><g class="link" data-entity-1="ent0020" data-entity-2="ent0023" data-link-type="extension" data-source-line="12" id="lnk28"><path codeLine="12" d="M2106.5383,70.5372 C2116.8683,88.1972 2121.98,96.94 2132.36,114.68" fill="none" id="Asset-backto-System" style="stroke:#181818;stroke-width:1;"/><polygon fill="none" points="2097.45,55,2101.3592,73.5666,2111.7173,67.5077,2097.45,55" style="stroke:#181818;stroke-width:1;stroke-linejoin:miter;stroke-miterlimit:10;"/></g><!--reverse link Execution to Sampling--><g class="link" data-entity-1="ent0029" data-entity-2="ent0030" data-link-type="extension" data-source-line="13" id="lnk31"><path codeLine="13" d="M2362.8041,66.1688 C2340.4841,83.8288 2323.91,96.94 2301.48,114.68" fill="none" id="Execution-backto-Sampling" style="stroke:#181818;stroke-width:1;"/><polygon fill="none" points="2376.92,55,2359.0812,61.4635,2366.527,70.8741,2376.92,55" style="stroke:#181818;stroke-width:1;stroke-linejoin:miter;stroke-miterlimit:10;"/></g><!--reverse link ExecutionCollection to SamplingCollection--><g class="link" data-entity-1="ent0032" data-entity-2="ent0033" data-link-type="extension" data-source-line="14" id="lnk34"><path codeLine="14" d="M2868.231,63.3636 C2834.461,81.0836 2803.93,97.11 2770.09,114.86" fill="none" id="ExecutionCollection-backto-SamplingCollection" style="stroke:#181818;stroke-width:1;"/><polygon fill="none" points="2884.17,55,2865.4432,58.0506,2871.0189,68.6766,2884.17,55" style="stroke:#181818;stroke-width:1;stroke-linejoin:miter;stroke-miterlimit:10;"/></g><!--reverse link Execution to Actuation--><g class="link" data-entity-1="ent0029" data-entity-2="ent0035" data-link-type="extension" data-source-line="15" id="lnk36"><path codeLine="15" d="M2406,73 C2406,90.66 2406,96.94 2406,114.68" fill="none" id="Execution-backto-Actuation" style="stroke:#181818;stroke-width:1;"/><polygon fill="none" points="2406,55,2400,73,2412,73,2406,55" style="stroke:#181818;stroke-width:1;stroke-linejoin:miter;stroke-miterlimit:10;"/></g><!--reverse link System to Sensor--><g class="link" data-entity-1="ent0023" data-entity-2="ent0037" data-link-type="extension" data-source-line="16" id="lnk38"><path codeLine="16" d="M2185.7968,174.864 C2205.9468,192.524 2220.13,204.94 2240.38,222.68" fill="none" id="System-backto-Sensor" style="stroke:#181818;stroke-width:1;"/><polygon fill="none" points="2172.26,163,2181.8421,179.3763,2189.7515,170.3518,2172.26,163" style="stroke:#181818;stroke-width:1;stroke-linejoin:miter;stroke-miterlimit:10;"/></g><!--reverse link ExecutionCollection to ActuationCollection--><g class="link" data-entity-1="ent0032" data-entity-2="ent0039" data-link-type="extension" data-source-line="17" id="lnk40"><path codeLine="17" d="M2928,73 C2928,90.66 2928,96.94 2928,114.68" fill="none" id="ExecutionCollection-backto-ActuationCollection" style="stroke:#181818;stroke-width:1;"/><polygon fill="none" points="2928,55,2922,73,2934,73,2928,55" style="stroke:#181818;stroke-width:1;stroke-linejoin:miter;stroke-miterlimit:10;"/></g><!--reverse link ExecutionCollection to ObservationCollection--><g class="link" data-entity-1="ent0032" data-entity-2="ent0041" data-link-type="extension" data-source-line="18" id="lnk42"><path codeLine="18" d="M2990.0997,63.0498 C3025.5397,80.7698 3058.22,97.11 3093.72,114.86" fill="none" id="ExecutionCollection-backto-ObservationCollection" style="stroke:#181818;stroke-width:1;"/><polygon fill="none" points="2974,55,2987.4164,68.4164,2992.783,57.6833,2974,55" style="stroke:#181818;stroke-width:1;stroke-linejoin:miter;stroke-miterlimit:10;"/></g><!--reverse link Execution to Observation--><g class="link" data-entity-1="ent0029" data-entity-2="ent0043" data-link-type="extension" data-source-line="19" id="lnk44"><path codeLine="19" d="M2451.4895,65.7202 C2475.3095,83.3802 2493.61,96.94 2517.54,114.68" fill="none" id="Execution-backto-Observation" style="stroke:#181818;stroke-width:1;"/><polygon fill="none" points="2437.03,55,2447.9161,70.54,2455.0629,60.9004,2437.03,55" style="stroke:#181818;stroke-width:1;stroke-linejoin:miter;stroke-miterlimit:10;"/></g><?plantuml-src VP9BRiCm34JtFaKka1jq4pGDa4LX8pw1eZ250Ee3aIfge8UlKCeVsNLtvhpHa9JSHHyWyd1u-JuU3oVDIR6w8tH5Rtfb0uBWTyKGZKBHAjG7nJk4Co4sUg9TrREz4yJFgcV-qF184PPJ6VSnwMk7PFpd-6rT6Kv4m08xLFpqqJRzG0nsSG9YfSaaFYuF2s_Ula0dDjxL_MRzrIE2tZfcVPrHziwWcWiSvGbsSwTJVmMlpUNoz-mRKwDH4OqxIp4zcvHjuf2u51TGd2-xVLvT_dM0HhrdOnCcAkKDAE78pX3G3nRSA5pT7BY1goHvjNcN7m00?></g></svg>