<svg xmlns="http://www.w3.org/2000/svg" xmlns:xlink="http://www.w3.org/1999/xlink" contentStyleType="text/css" data-diagram-type="CLASS" height="286px" preserveAspectRatio="none" style="width:3160px;height:286px;background:#FFFFFF;" version="1.1" viewBox="0 0 3160 286" width="3160px" zoomAndPan="magnify"><?plantuml 1.2026.6?><defs/><g><!--class Property--><g class="entity" data-qualified-name="Property" data-source-line="1" id="ent0001"><rect fill="#F1F1F1" height="48" rx="2.5" ry="2.5" style="stroke:#181818;stroke-width:0.5;" width="91.7939" x="519.5" y="7"/><ellipse cx="534.5" cy="23" fill="#ADD1B2" rx="11" ry="11" style="stroke:#181818;stroke-width:1;"/><path d="M537.4688,28.6406 Q536.8906,28.9375 536.25,29.0781 Q535.6094,29.2344 534.9063,29.2344 Q532.4063,29.2344 531.0781,27.5938 Q529.7656,25.9375 529.7656,22.8125 Q529.7656,19.6875 531.0781,18.0313 Q532.4063,16.375 534.9063,16.375 Q535.6094,16.375 536.25,16.5313 Q536.9063,16.6875 537.4688,16.9844 L537.4688,19.7031 Q536.8438,19.125 536.25,18.8594 Q535.6563,18.5781 535.0313,18.5781 Q533.6875,18.5781 533,19.6563 Q532.3125,20.7188 532.3125,22.8125 Q532.3125,24.9063 533,25.9844 Q533.6875,27.0469 535.0313,27.0469 Q535.6563,27.0469 536.25,26.7813 Q536.8438,26.5 537.4688,25.9219 L537.4688,28.6406 Z " fill="#000000"/><text fill="#000000" font-family="sans-serif" font-size="14" lengthAdjust="spacing" textLength="59.7939" x="548.5" y="27.8467">Property</text><line style="stroke:#181818;stroke-width:0.5;" x1="520.5" x2="610.2939" y1="39" y2="39"/><line style="stroke:#181818;stroke-width:0.5;" x1="520.5" x2="610.2939" y1="47" y2="47"/></g><!--class ActuatableProperty--><g class="entity" data-qualified-name="ActuatableProperty" data-source-line="1" id="ent0002"><rect fill="#F1F1F1" height="48" rx="2.5" ry="2.5" style="stroke:#181818;stroke-width:0.5;" width="167.4678" x="325" y="115"/><ellipse cx="340" cy="131" fill="#ADD1B2" rx="11" ry="11" style="stroke:#181818;stroke-width:1;"/><path d="M342.9688,136.6406 Q342.3906,136.9375 341.75,137.0781 Q341.1094,137.2344 340.4063,137.2344 Q337.9063,137.2344 336.5781,135.5938 Q335.2656,133.9375 335.2656,130.8125 Q335.2656,127.6875 336.5781,126.0313 Q337.9063,124.375 340.4063,124.375 Q341.1094,124.375 341.75,124.5313 Q342.4063,124.6875 342.9688,124.9844 L342.9688,127.7031 Q342.3438,127.125 341.75,126.8594 Q341.1563,126.5781 340.5313,126.5781 Q339.1875,126.5781 338.5,127.6563 Q337.8125,128.7188 337.8125,130.8125 Q337.8125,132.9063 338.5,133.9844 Q339.1875,135.0469 340.5313,135.0469 Q341.1563,135.0469 341.75,134.7813 Q342.3438,134.5 342.9688,133.9219 L342.9688,136.6406 Z " fill="#000000"/><text fill="#000000" font-family="sans-serif" font-size="14" lengthAdjust="spacing" textLength="135.4678" x="354" y="135.8467">ActuatableProperty</text><line style="stroke:#181818;stroke-width:0.5;" x1="326" x2="491.4678" y1="147" y2="147"/><line style="stroke:#181818;stroke-width:0.5;" x1="326" x2="491.4678" y1="155" y2="155"/></g><!--class Sample--><g class="entity" data-qualified-name="Sample" data-source-line="2" id="ent0004"><rect fill="#F1F1F1" height="48" rx="2.5" ry="2.5" style="stroke:#181818;stroke-width:0.5;" width="84.4932" x="935.5" y="7"/><ellipse cx="950.5" cy="23" fill="#ADD1B2" rx="11" ry="11" style="stroke:#181818;stroke-width:1;"/><path d="M953.4688,28.6406 Q952.8906,28.9375 952.25,29.0781 Q951.6094,29.2344 950.9063,29.2344 Q948.4063,29.2344 947.0781,27.5938 Q945.7656,25.9375 945.7656,22.8125 Q945.7656,19.6875 947.0781,18.0313 Q948.4063,16.375 950.9063,16.375 Q951.6094,16.375 952.25,16.5313 Q952.9063,16.6875 953.4688,16.9844 L953.4688,19.7031 Q952.8438,19.125 952.25,18.8594 Q951.6563,18.5781 951.0313,18.5781 Q949.6875,18.5781 949,19.6563 Q948.3125,20.7188 948.3125,22.8125 Q948.3125,24.9063 949,25.9844 Q949.6875,27.0469 951.0313,27.0469 Q951.6563,27.0469 952.25,26.7813 Q952.8438,26.5 953.4688,25.9219 L953.4688,28.6406 Z " fill="#000000"/><text fill="#000000" font-family="sans-serif" font-size="14" lengthAdjust="spacing" textLength="52.4932" x="964.5" y="27.8467">Sample</text><line style="stroke:#181818;stroke-width:0.5;" x1="936.5" x2="1018.9932" y1="39" y2="39"/><line style="stroke:#181818;stroke-width:0.5;" x1="936.5" x2="1018.9932" y1="47" y2="47"/></g><!--class MaterialSample--><g class="entity" data-qualified-name="MaterialSample" data-source-line="2" id="ent0005"><rect fill="#F1F1F1" height="48" rx="2.5" ry="2.5" style="stroke:#181818;stroke-width:0.5;" width="141.3682" x="735" y="115"/><ellipse cx="750" cy="131" fill="#ADD1B2" rx="11" ry="11" style="stroke:#181818;stroke-width:1;"/><path d="M752.9688,136.6406 Q752.3906,136.9375 751.75,137.0781 Q751.1094,137.2344 750.4063,137.2344 Q747.9063,137.2344 746.5781,135.5938 Q745.2656,133.9375 745.2656,130.8125 Q745.2656,127.6875 746.5781,126.0313 Q747.9063,124.375 750.4063,124.375 Q751.1094,124.375 751.75,124.5313 Q752.4063,124.6875 752.9688,124.9844 L752.9688,127.7031 Q752.3438,127.125 751.75,126.8594 Q751.1563,126.5781 750.5313,126.5781 Q749.1875,126.5781 748.5,127.6563 Q747.8125,128.7188 747.8125,130.8125 Q747.8125,132.9063 748.5,133.9844 Q749.1875,135.0469 750.5313,135.0469 Q751.1563,135.0469 751.75,134.7813 Q752.3438,134.5 752.9688,133.9219 L752.9688,136.6406 Z " fill="#000000"/><text fill="#000000" font-family="sans-serif" font-size="14" lengthAdjust="spacing" textLength="109.3682" x="764" y="135.8467">MaterialSample</text><line style="stroke:#181818;stroke-width:0.5;" x1="736" x2="875.3682" y1="147" y2="147"/><line style="stroke:#181818;stroke-width:0.5;" x1="736" x2="875.3682" y1="155" y2="155"/></g><!--class ObservableProperty--><g class="entity" data-qualified-name="ObservableProperty" data-source-line="3" id="ent0007"><rect fill="#F1F1F1" height="48" rx="2.5" ry="2.5" style="stroke:#181818;stroke-width:0.5;" width="171.6172" x="527.5" y="115"/><ellipse cx="542.5" cy="131" fill="#ADD1B2" rx="11" ry="11" style="stroke:#181818;stroke-width:1;"/><path d="M545.4688,136.6406 Q544.8906,136.9375 544.25,137.0781 Q543.6094,137.2344 542.9063,137.2344 Q540.4063,137.2344 539.0781,135.5938 Q537.7656,133.9375 537.7656,130.8125 Q537.7656,127.6875 539.0781,126.0313 Q540.4063,124.375 542.9063,124.375 Q543.6094,124.375 544.25,124.5313 Q544.9063,124.6875 545.4688,124.9844 L545.4688,127.7031 Q544.8438,127.125 544.25,126.8594 Q543.6563,126.5781 543.0313,126.5781 Q541.6875,126.5781 541,127.6563 Q540.3125,128.7188 540.3125,130.8125 Q540.3125,132.9063 541,133.9844 Q541.6875,135.0469 543.0313,135.0469 Q543.6563,135.0469 544.25,134.7813 Q544.8438,134.5 545.4688,133.9219 L545.4688,136.6406 Z " fill="#000000"/><text fill="#000000" font-family="sans-serif" font-size="14" lengthAdjust="spacing" textLength="139.6172" x="556.5" y="135.8467">ObservableProperty</text><line style="stroke:#181818;stroke-width:0.5;" x1="528.5" x2="698.1172" y1="147" y2="147"/><line style="stroke:#181818;stroke-width:0.5;" x1="528.5" x2="698.1172" y1="155" y2="155"/></g><!--class SpatialSample--><g class="entity" data-qualified-name="SpatialSample" data-source-line="4" id="ent0009"><rect fill="#F1F1F1" height="48" rx="2.5" ry="2.5" style="stroke:#181818;stroke-width:0.5;" width="132.6934" x="911" y="115"/><ellipse cx="926" cy="131" fill="#ADD1B2" rx="11" ry="11" style="stroke:#181818;stroke-width:1;"/><path d="M928.9688,136.6406 Q928.3906,136.9375 927.75,137.0781 Q927.1094,137.2344 926.4063,137.2344 Q923.9063,137.2344 922.5781,135.5938 Q921.2656,133.9375 921.2656,130.8125 Q921.2656,127.6875 922.5781,126.0313 Q923.9063,124.375 926.4063,124.375 Q927.1094,124.375 927.75,124.5313 Q928.4063,124.6875 928.9688,124.9844 L928.9688,127.7031 Q928.3438,127.125 927.75,126.8594 Q927.1563,126.5781 926.5313,126.5781 Q925.1875,126.5781 924.5,127.6563 Q923.8125,128.7188 923.8125,130.8125 Q923.8125,132.9063 924.5,133.9844 Q925.1875,135.0469 926.5313,135.0469 Q927.1563,135.0469 927.75,134.7813 Q928.3438,134.5 928.9688,133.9219 L928.9688,136.6406 Z " fill="#000000"/><text fill="#000000" font-family="sans-serif" font-size="14" lengthAdjust="spacing" textLength="100.6934" x="940" y="135.8467">SpatialSample</text><line style="stroke:#181818;stroke-width:0.5;" x1="912" x2="1042.6934" y1="147" y2="147"/><line style="stroke:#181818;stroke-width:0.5;" x1="912" x2="1042.6934" y1="155" y2="155"/></g><!--class StatisticalSample--><g class="entity" data-qualified-name="StatisticalSample" data-source-line="5" id="ent0011"><rect fill="#F1F1F1" height="48" rx="2.5" ry="2.5" style="stroke:#181818;stroke-width:0.5;" width="153.666" x="1079.5" y="115"/><ellipse cx="1094.5" cy="131" fill="#ADD1B2" rx="11" ry="11" style="stroke:#181818;stroke-width:1;"/><path d="M1097.4688,136.6406 Q1096.8906,136.9375 1096.25,137.0781 Q1095.6094,137.2344 1094.9063,137.2344 Q1092.4063,137.2344 1091.0781,135.5938 Q1089.7656,133.9375 1089.7656,130.8125 Q1089.7656,127.6875 1091.0781,126.0313 Q1092.4063,124.375 1094.9063,124.375 Q1095.6094,124.375 1096.25,124.5313 Q1096.9063,124.6875 1097.4688,124.9844 L1097.4688,127.7031 Q1096.8438,127.125 1096.25,126.8594 Q1095.6563,126.5781 1095.0313,126.5781 Q1093.6875,126.5781 1093,127.6563 Q1092.3125,128.7188 1092.3125,130.8125 Q1092.3125,132.9063 1093,133.9844 Q1093.6875,135.0469 1095.0313,135.0469 Q1095.6563,135.0469 1096.25,134.7813 Q1096.8438,134.5 1097.4688,133.9219 L1097.4688,136.6406 Z " fill="#000000"/><text fill="#000000" font-family="sans-serif" font-size="14" lengthAdjust="spacing" textLength="121.666" x="1108.5" y="135.8467">StatisticalSample</text><line style="stroke:#181818;stroke-width:0.5;" x1="1080.5" x2="1232.166" y1="147" y2="147"/><line style="stroke:#181818;stroke-width:0.5;" x1="1080.5" x2="1232.166" y1="155" y2="155"/></g><!--class Procedure--><g class="entity" data-qualified-name="Procedure" data-source-line="6" id="ent0013"><rect fill="#F1F1F1" height="48" rx="2.5" ry="2.5" style="stroke:#181818;stroke-width:0.5;" width="103.2031" x="1511" y="7"/><ellipse cx="1526" cy="23" fill="#ADD1B2" rx="11" ry="11" style="stroke:#181818;stroke-width:1;"/><path d="M1528.9688,28.6406 Q1528.3906,28.9375 1527.75,29.0781 Q1527.1094,29.2344 1526.4063,29.2344 Q1523.9063,29.2344 1522.5781,27.5938 Q1521.2656,25.9375 1521.2656,22.8125 Q1521.2656,19.6875 1522.5781,18.0313 Q1523.9063,16.375 1526.4063,16.375 Q1527.1094,16.375 1527.75,16.5313 Q1528.4063,16.6875 1528.9688,16.9844 L1528.9688,19.7031 Q1528.3438,19.125 1527.75,18.8594 Q1527.1563,18.5781 1526.5313,18.5781 Q1525.1875,18.5781 1524.5,19.6563 Q1523.8125,20.7188 1523.8125,22.8125 Q1523.8125,24.9063 1524.5,25.9844 Q1525.1875,27.0469 1526.5313,27.0469 Q1527.1563,27.0469 1527.75,26.7813 Q1528.3438,26.5 1528.9688,25.9219 L1528.9688,28.6406 Z " fill="#000000"/><text fill="#000000" font-family="sans-serif" font-size="14" lengthAdjust="spacing" textLength="71.2031" x="1540" y="27.8467">Procedure</text><line style="stroke:#181818;stroke-width:0.5;" x1="1512" x2="1613.2031" y1="39" y2="39"/><line style="stroke:#181818;stroke-width:0.5;" x1="1512" x2="1613.2031" y1="47" y2="47"/></g><!--class ActuatingProcedure--><g class="entity" data-qualified-name="ActuatingProcedure" data-source-line="6" id="ent0014"><rect fill="#F1F1F1" height="48" rx="2.5" ry="2.5" style="stroke:#181818;stroke-width:0.5;" width="170.5576" x="1269" y="115"/><ellipse cx="1284" cy="131" fill="#ADD1B2" rx="11" ry="11" style="stroke:#181818;stroke-width:1;"/><path d="M1286.9688,136.6406 Q1286.3906,136.9375 1285.75,137.0781 Q1285.1094,137.2344 1284.4063,137.2344 Q1281.9063,137.2344 1280.5781,135.5938 Q1279.2656,133.9375 1279.2656,130.8125 Q1279.2656,127.6875 1280.5781,126.0313 Q1281.9063,124.375 1284.4063,124.375 Q1285.1094,124.375 1285.75,124.5313 Q1286.4063,124.6875 1286.9688,124.9844 L1286.9688,127.7031 Q1286.3438,127.125 1285.75,126.8594 Q1285.1563,126.5781 1284.5313,126.5781 Q1283.1875,126.5781 1282.5,127.6563 Q1281.8125,128.7188 1281.8125,130.8125 Q1281.8125,132.9063 1282.5,133.9844 Q1283.1875,135.0469 1284.5313,135.0469 Q1285.1563,135.0469 1285.75,134.7813 Q1286.3438,134.5 1286.9688,133.9219 L1286.9688,136.6406 Z " fill="#000000"/><text fill="#000000" font-family="sans-serif" font-size="14" lengthAdjust="spacing" textLength="138.5576" x="1298" y="135.8467">ActuatingProcedure</text><line style="stroke:#181818;stroke-width:0.5;" x1="1270" x2="1438.5576" y1="147" y2="147"/><line style="stroke:#181818;stroke-width:0.5;" x1="1270" x2="1438.5576" y1="155" y2="155"/></g><!--class ObservingProcedure--><g class="entity" data-qualified-name="ObservingProcedure" data-source-line="7" id="ent0016"><rect fill="#F1F1F1" height="48" rx="2.5" ry="2.5" style="stroke:#181818;stroke-width:0.5;" width="174.707" x="1475" y="115"/><ellipse cx="1490" cy="131" fill="#ADD1B2" rx="11" ry="11" style="stroke:#181818;stroke-width:1;"/><path d="M1492.9688,136.6406 Q1492.3906,136.9375 1491.75,137.0781 Q1491.1094,137.2344 1490.4063,137.2344 Q1487.9063,137.2344 1486.5781,135.5938 Q1485.2656,133.9375 1485.2656,130.8125 Q1485.2656,127.6875 1486.5781,126.0313 Q1487.9063,124.375 1490.4063,124.375 Q1491.1094,124.375 1491.75,124.5313 Q1492.4063,124.6875 1492.9688,124.9844 L1492.9688,127.7031 Q1492.3438,127.125 1491.75,126.8594 Q1491.1563,126.5781 1490.5313,126.5781 Q1489.1875,126.5781 1488.5,127.6563 Q1487.8125,128.7188 1487.8125,130.8125 Q1487.8125,132.9063 1488.5,133.9844 Q1489.1875,135.0469 1490.5313,135.0469 Q1491.1563,135.0469 1491.75,134.7813 Q1492.3438,134.5 1492.9688,133.9219 L1492.9688,136.6406 Z " fill="#000000"/><text fill="#000000" font-family="sans-serif" font-size="14" lengthAdjust="spacing" textLength="142.707" x="1504" y="135.8467">ObservingProcedure</text><line style="stroke:#181818;stroke-width:0.5;" x1="1476" x2="1648.707" y1="147" y2="147"/><line style="stroke:#181818;stroke-width:0.5;" x1="1476" x2="1648.707" y1="155" y2="155"/></g><!--class SamplingProcedure--><g class="entity" data-qualified-name="SamplingProcedure" data-source-line="8" id="ent0018"><rect fill="#F1F1F1" height="48" rx="2.5" ry="2.5" style="stroke:#181818;stroke-width:0.5;" width="168.7324" x="1685" y="115"/><ellipse cx="1700" cy="131" fill="#ADD1B2" rx="11" ry="11" style="stroke:#181818;stroke-width:1;"/><path d="M1702.9688,136.6406 Q1702.3906,136.9375 1701.75,137.0781 Q1701.1094,137.2344 1700.4063,137.2344 Q1697.9063,137.2344 1696.5781,135.5938 Q1695.2656,133.9375 1695.2656,130.8125 Q1695.2656,127.6875 1696.5781,126.0313 Q1697.9063,124.375 1700.4063,124.375 Q1701.1094,124.375 1701.75,124.5313 Q1702.4063,124.6875 1702.9688,124.9844 L1702.9688,127.7031 Q1702.3438,127.125 1701.75,126.8594 Q1701.1563,126.5781 1700.5313,126.5781 Q1699.1875,126.5781 1698.5,127.6563 Q1697.8125,128.7188 1697.8125,130.8125 Q1697.8125,132.9063 1698.5,133.9844 Q1699.1875,135.0469 1700.5313,135.0469 Q1701.1563,135.0469 1701.75,134.7813 Q1702.3438,134.5 1702.9688,133.9219 L1702.9688,136.6406 Z " fill="#000000"/><text fill="#000000" font-family="sans-serif" font-size="14" lengthAdjust="spacing" textLength="136.7324" x="1714" y="135.8467">SamplingProcedure</text><line style="stroke:#181818;stroke-width:0.5;" x1="1686" x2="1852.7324" y1="147" y2="147"/><line style="stroke:#181818;stroke-width:0.5;" x1="1686" x2="1852.7324" y1="155" y2="155"/></g><!--class Asset--><g class="entity" data-qualified-name="Asset" data-source-line="9" id="ent0020"><rect fill="#F1F1F1" height="48" rx="2.5" ry="2.5" style="stroke:#181818;stroke-width:0.5;" width="70.2676" x="1960.5" y="7"/><ellipse cx="1975.5" cy="23" fill="#ADD1B2" rx="11" ry="11" style="stroke:#181818;stroke-width:1;"/><path d="M1978.4688,28.6406 Q1977.8906,28.9375 1977.25,29.0781 Q1976.6094,29.2344 1975.9063,29.2344 Q1973.4063,29.2344 1972.0781,27.5938 Q1970.7656,25.9375 1970.7656,22.8125 Q1970.7656,19.6875 1972.0781,18.0313 Q1973.4063,16.375 1975.9063,16.375 Q1976.6094,16.375 1977.25,16.5313 Q1977.9063,16.6875 1978.4688,16.9844 L1978.4688,19.7031 Q1977.8438,19.125 1977.25,18.8594 Q1976.6563,18.5781 1976.0313,18.5781 Q1974.6875,18.5781 1974,19.6563 Q1973.3125,20.7188 1973.3125,22.8125 Q1973.3125,24.9063 1974,25.9844 Q1974.6875,27.0469 1976.0313,27.0469 Q1976.6563,27.0469 1977.25,26.7813 Q1977.8438,26.5 1978.4688,25.9219 L1978.4688,28.6406 Z " fill="#000000"/><text fill="#000000" font-family="sans-serif" font-size="14" lengthAdjust="spacing" textLength="38.2676" x="1989.5" y="27.8467">Asset</text><line style="stroke:#181818;stroke-width:0.5;" x1="1961.5" x2="2029.7676" y1="39" y2="39"/><line style="stroke:#181818;stroke-width:0.5;" x1="1961.5" x2="2029.7676" y1="47" y2="47"/></g><!--class Platform--><g class="entity" data-qualified-name="Platform" data-source-line="9" id="ent0021"><rect fill="#F1F1F1" height="48" rx="2.5" ry="2.5" style="stroke:#181818;stroke-width:0.5;" width="91.2881" x="1889" y="115"/><ellipse cx="1904" cy="131" fill="#ADD1B2" rx="11" ry="11" style="stroke:#181818;stroke-width:1;"/><path d="M1906.9688,136.6406 Q1906.3906,136.9375 1905.75,137.0781 Q1905.1094,137.2344 1904.4063,137.2344 Q1901.9063,137.2344 1900.5781,135.5938 Q1899.2656,133.9375 1899.2656,130.8125 Q1899.2656,127.6875 1900.5781,126.0313 Q1901.9063,124.375 1904.4063,124.375 Q1905.1094,124.375 1905.75,124.5313 Q1906.4063,124.6875 1906.9688,124.9844 L1906.9688,127.7031 Q1906.3438,127.125 1905.75,126.8594 Q1905.1563,126.5781 1904.5313,126.5781 Q1903.1875,126.5781 1902.5,127.6563 Q1901.8125,128.7188 1901.8125,130.8125 Q1901.8125,132.9063 1902.5,133.9844 Q1903.1875,135.0469 1904.5313,135.0469 Q1905.1563,135.0469 1905.75,134.7813 Q1906.3438,134.5 1906.9688,133.9219 L1906.9688,136.6406 Z " fill="#000000"/><text fill="#000000" font-family="sans-serif" font-size="14" lengthAdjust="spacing" textLength="59.2881" x="1918" y="135.8467">Platform</text><line style="stroke:#181818;stroke-width:0.5;" x1="1890" x2="1979.2881" y1="147" y2="147"/><line style="stroke:#181818;stroke-width:0.5;" x1="1890" x2="1979.2881" y1="155" y2="155"/></g><!--class System--><g class="entity" data-qualified-name="System" data-source-line="10" id="ent0023"><rect fill="#F1F1F1" height="48" rx="2.5" ry="2.5" style="stroke:#181818;stroke-width:0.5;" width="84.2061" x="2015.5" y="115"/><ellipse cx="2030.5" cy="131" fill="#ADD1B2" rx="11" ry="11" style="stroke:#181818;stroke-width:1;"/><path d="M2033.4688,136.6406 Q2032.8906,136.9375 2032.25,137.0781 Q2031.6094,137.2344 2030.9063,137.2344 Q2028.4063,137.2344 2027.0781,135.5938 Q2025.7656,133.9375 2025.7656,130.8125 Q2025.7656,127.6875 2027.0781,126.0313 Q2028.4063,124.375 2030.9063,124.375 Q2031.6094,124.375 2032.25,124.5313 Q2032.9063,124.6875 2033.4688,124.9844 L2033.4688,127.7031 Q2032.8438,127.125 2032.25,126.8594 Q2031.6563,126.5781 2031.0313,126.5781 Q2029.6875,126.5781 2029,127.6563 Q2028.3125,128.7188 2028.3125,130.8125 Q2028.3125,132.9063 2029,133.9844 Q2029.6875,135.0469 2031.0313,135.0469 Q2031.6563,135.0469 2032.25,134.7813 Q2032.8438,134.5 2033.4688,133.9219 L2033.4688,136.6406 Z " fill="#000000"/><text fill="#000000" font-family="sans-serif" font-size="14" lengthAdjust="spacing" textLength="52.2061" x="2044.5" y="135.8467">System</text><line style="stroke:#181818;stroke-width:0.5;" x1="2016.5" x2="2098.7061" y1="147" y2="147"/><line style="stroke:#181818;stroke-width:0.5;" x1="2016.5" x2="2098.7061" y1="155" y2="155"/></g><!--class Sampler--><g class="entity" data-qualified-name="Sampler" data-source-line="10" id="ent0024"><rect fill="#F1F1F1" height="48" rx="2.5" ry="2.5" style="stroke:#181818;stroke-width:0.5;" width="90.249" x="1886.5" y="223"/><ellipse cx="1901.5" cy="239" fill="#ADD1B2" rx="11" ry="11" style="stroke:#181818;stroke-width:1;"/><path d="M1904.4688,244.6406 Q1903.8906,244.9375 1903.25,245.0781 Q1902.6094,245.2344 1901.9063,245.2344 Q1899.4063,245.2344 1898.0781,243.5938 Q1896.7656,241.9375 1896.7656,238.8125 Q1896.7656,235.6875 1898.0781,234.0313 Q1899.4063,232.375 1901.9063,232.375 Q1902.6094,232.375 1903.25,232.5313 Q1903.9063,232.6875 1904.4688,232.9844 L1904.4688,235.7031 Q1903.8438,235.125 1903.25,234.8594 Q1902.6563,234.5781 1902.0313,234.5781 Q1900.6875,234.5781 1900,235.6563 Q1899.3125,236.7188 1899.3125,238.8125 Q1899.3125,240.9063 1900,241.9844 Q1900.6875,243.0469 1902.0313,243.0469 Q1902.6563,243.0469 1903.25,242.7813 Q1903.8438,242.5 1904.4688,241.9219 L1904.4688,244.6406 Z " fill="#000000"/><text fill="#000000" font-family="sans-serif" font-size="14" lengthAdjust="spacing" textLength="58.249" x="1915.5" y="243.8467">Sampler</text><line style="stroke:#181818;stroke-width:0.5;" x1="1887.5" x2="1975.749" y1="255" y2="255"/><line style="stroke:#181818;stroke-width:0.5;" x1="1887.5" x2="1975.749" y1="263" y2="263"/></g><!--class Actuator--><g class="entity" data-qualified-name="Actuator" data-source-line="11" id="ent0026"><rect fill="#F1F1F1" height="48" rx="2.5" ry="2.5" style="stroke:#181818;stroke-width:0.5;" width="92.0264" x="2011.5" y="223"/><ellipse cx="2026.5" cy="239" fill="#ADD1B2" rx="11" ry="11" style="stroke:#181818;stroke-width:1;"/><path d="M2029.4688,244.6406 Q2028.8906,244.9375 2028.25,245.0781 Q2027.6094,245.2344 2026.9063,245.2344 Q2024.4063,245.2344 2023.0781,243.5938 Q2021.7656,241.9375 2021.7656,238.8125 Q2021.7656,235.6875 2023.0781,234.0313 Q2024.4063,232.375 2026.9063,232.375 Q2027.6094,232.375 2028.25,232.5313 Q2028.9063,232.6875 2029.4688,232.9844 L2029.4688,235.7031 Q2028.8438,235.125 2028.25,234.8594 Q2027.6563,234.5781 2027.0313,234.5781 Q2025.6875,234.5781 2025,235.6563 Q2024.3125,236.7188 2024.3125,238.8125 Q2024.3125,240.9063 2025,241.9844 Q2025.6875,243.0469 2027.0313,243.0469 Q2027.6563,243.0469 2028.25,242.7813 Q2028.8438,242.5 2029.4688,241.9219 L2029.4688,244.6406 Z " fill="#000000"/><text fill="#000000" font-family="sans-serif" font-size="14" lengthAdjust="spacing" textLength="60.0264" x="2040.5" y="243.8467">Actuator</text><line style="stroke:#181818;stroke-width:0.5;" x1="2012.5" x2="2102.5264" y1="255" y2="255"/><line style="stroke:#181818;stroke-width:0.5;" x1="2012.5" x2="2102.5264" y1="263" y2="263"/></g><!--class ExecutionCollection--><g class="entity" data-qualified-name="ExecutionCollection" data-source-line="12" id="ent0028"><rect fill="#F1F1F1" height="48" rx="2.5" ry="2.5" style="stroke:#181818;stroke-width:0.5;" width="170.3799" x="2335.5" y="7"/><ellipse cx="2350.5" cy="23" fill="#ADD1B2" rx="11" ry="11" style="stroke:#181818;stroke-width:1;"/><path d="M2353.4688,28.6406 Q2352.8906,28.9375 2352.25,29.0781 Q2351.6094,29.2344 2350.9063,29.2344 Q2348.4063,29.2344 2347.0781,27.5938 Q2345.7656,25.9375 2345.7656,22.8125 Q2345.7656,19.6875 2347.0781,18.0313 Q2348.4063,16.375 2350.9063,16.375 Q2351.6094,16.375 2352.25,16.5313 Q2352.9063,16.6875 2353.4688,16.9844 L2353.4688,19.7031 Q2352.8438,19.125 2352.25,18.8594 Q2351.6563,18.5781 2351.0313,18.5781 Q2349.6875,18.5781 2349,19.6563 Q2348.3125,20.7188 2348.3125,22.8125 Q2348.3125,24.9063 2349,25.9844 Q2349.6875,27.0469 2351.0313,27.0469 Q2351.6563,27.0469 2352.25,26.7813 Q2352.8438,26.5 2353.4688,25.9219 L2353.4688,28.6406 Z " fill="#000000"/><text fill="#000000" font-family="sans-serif" font-size="14" lengthAdjust="spacing" textLength="138.3799" x="2364.5" y="27.8467">ExecutionCollection</text><line style="stroke:#181818;stroke-width:0.5;" x1="2336.5" x2="2504.8799" y1="39" y2="39"/><line style="stroke:#181818;stroke-width:0.5;" x1="2336.5" x2="2504.8799" y1="47" y2="47"/></g><!--class SamplingCollection--><g class="entity" data-qualified-name="SamplingCollection" data-source-line="12" id="ent0029"><rect fill="#F1F1F1" height="48" rx="2.5" ry="2.5" style="stroke:#181818;stroke-width:0.5;" width="166.7773" x="2135" y="115"/><ellipse cx="2150" cy="131" fill="#ADD1B2" rx="11" ry="11" style="stroke:#181818;stroke-width:1;"/><path d="M2152.9688,136.6406 Q2152.3906,136.9375 2151.75,137.0781 Q2151.1094,137.2344 2150.4063,137.2344 Q2147.9063,137.2344 2146.5781,135.5938 Q2145.2656,133.9375 2145.2656,130.8125 Q2145.2656,127.6875 2146.5781,126.0313 Q2147.9063,124.375 2150.4063,124.375 Q2151.1094,124.375 2151.75,124.5313 Q2152.4063,124.6875 2152.9688,124.9844 L2152.9688,127.7031 Q2152.3438,127.125 2151.75,126.8594 Q2151.1563,126.5781 2150.5313,126.5781 Q2149.1875,126.5781 2148.5,127.6563 Q2147.8125,128.7188 2147.8125,130.8125 Q2147.8125,132.9063 2148.5,133.9844 Q2149.1875,135.0469 2150.5313,135.0469 Q2151.1563,135.0469 2151.75,134.7813 Q2152.3438,134.5 2152.9688,133.9219 L2152.9688,136.6406 Z " fill="#000000"/><text fill="#000000" font-family="sans-serif" font-size="14" lengthAdjust="spacing" textLength="134.7773" x="2164" y="135.8467">SamplingCollection</text><line style="stroke:#181818;stroke-width:0.5;" x1="2136" x2="2300.7773" y1="147" y2="147"/><line style="stroke:#181818;stroke-width:0.5;" x1="2136" x2="2300.7773" y1="155" y2="155"/></g><!--class Sensor--><g class="entity" data-qualified-name="Sensor" data-source-line="14" id="ent0032"><rect fill="#F1F1F1" height="48" rx="2.5" ry="2.5" style="stroke:#181818;stroke-width:0.5;" width="79.9883" x="2138.5" y="223"/><ellipse cx="2153.5" cy="239" fill="#ADD1B2" rx="11" ry="11" style="stroke:#181818;stroke-width:1;"/><path d="M2156.4688,244.6406 Q2155.8906,244.9375 2155.25,245.0781 Q2154.6094,245.2344 2153.9063,245.2344 Q2151.4063,245.2344 2150.0781,243.5938 Q2148.7656,241.9375 2148.7656,238.8125 Q2148.7656,235.6875 2150.0781,234.0313 Q2151.4063,232.375 2153.9063,232.375 Q2154.6094,232.375 2155.25,232.5313 Q2155.9063,232.6875 2156.4688,232.9844 L2156.4688,235.7031 Q2155.8438,235.125 2155.25,234.8594 Q2154.6563,234.5781 2154.0313,234.5781 Q2152.6875,234.5781 2152,235.6563 Q2151.3125,236.7188 2151.3125,238.8125 Q2151.3125,240.9063 2152,241.9844 Q2152.6875,243.0469 2154.0313,243.0469 Q2154.6563,243.0469 2155.25,242.7813 Q2155.8438,242.5 2156.4688,241.9219 L2156.4688,244.6406 Z " fill="#000000"/><text fill="#000000" font-family="sans-serif" font-size="14" lengthAdjust="spacing" textLength="47.9883" x="2167.5" y="243.8467">Sensor</text><line style="stroke:#181818;stroke-width:0.5;" x1="2139.5" x2="2217.4883" y1="255" y2="255"/><line style="stroke:#181818;stroke-width:0.5;" x1="2139.5" x2="2217.4883" y1="263" y2="263"/></g><!--class Execution--><g class="entity" data-qualified-name="Execution" data-source-line="15" id="ent0034"><rect fill="#F1F1F1" height="48" rx="2.5" ry="2.5" style="stroke:#181818;stroke-width:0.5;" width="101.1318" x="2893" y="7"/><ellipse cx="2908" cy="23" fill="#ADD1B2" rx="11" ry="11" style="stroke:#181818;stroke-width:1;"/><path d="M2910.9688,28.6406 Q2910.3906,28.9375 2909.75,29.0781 Q2909.1094,29.2344 2908.4063,29.2344 Q2905.9063,29.2344 2904.5781,27.5938 Q2903.2656,25.9375 2903.2656,22.8125 Q2903.2656,19.6875 2904.5781,18.0313 Q2905.9063,16.375 2908.4063,16.375 Q2909.1094,16.375 2909.75,16.5313 Q2910.4063,16.6875 2910.9688,16.9844 L2910.9688,19.7031 Q2910.3438,19.125 2909.75,18.8594 Q2909.1563,18.5781 2908.5313,18.5781 Q2907.1875,18.5781 2906.5,19.6563 Q2905.8125,20.7188 2905.8125,22.8125 Q2905.8125,24.9063 2906.5,25.9844 Q2907.1875,27.0469 2908.5313,27.0469 Q2909.1563,27.0469 2909.75,26.7813 Q2910.3438,26.5 2910.9688,25.9219 L2910.9688,28.6406 Z " fill="#000000"/><text fill="#000000" font-family="sans-serif" font-size="14" lengthAdjust="spacing" textLength="69.1318" x="2922" y="27.8467">Execution</text><line style="stroke:#181818;stroke-width:0.5;" x1="2894" x2="2993.1318" y1="39" y2="39"/><line style="stroke:#181818;stroke-width:0.5;" x1="2894" x2="2993.1318" y1="47" y2="47"/></g><!--class Sampling--><g class="entity" data-qualified-name="Sampling" data-source-line="15" id="ent0035"><rect fill="#F1F1F1" height="48" rx="2.5" ry="2.5" style="stroke:#181818;stroke-width:0.5;" width="97.5293" x="2760.5" y="115"/><ellipse cx="2775.5" cy="131" fill="#ADD1B2" rx="11" ry="11" style="stroke:#181818;stroke-width:1;"/><path d="M2778.4688,136.6406 Q2777.8906,136.9375 2777.25,137.0781 Q2776.6094,137.2344 2775.9063,137.2344 Q2773.4063,137.2344 2772.0781,135.5938 Q2770.7656,133.9375 2770.7656,130.8125 Q2770.7656,127.6875 2772.0781,126.0313 Q2773.4063,124.375 2775.9063,124.375 Q2776.6094,124.375 2777.25,124.5313 Q2777.9063,124.6875 2778.4688,124.9844 L2778.4688,127.7031 Q2777.8438,127.125 2777.25,126.8594 Q2776.6563,126.5781 2776.0313,126.5781 Q2774.6875,126.5781 2774,127.6563 Q2773.3125,128.7188 2773.3125,130.8125 Q2773.3125,132.9063 2774,133.9844 Q2774.6875,135.0469 2776.0313,135.0469 Q2776.6563,135.0469 2777.25,134.7813 Q2777.8438,134.5 2778.4688,133.9219 L2778.4688,136.6406 Z " fill="#000000"/><text fill="#000000" font-family="sans-serif" font-size="14" lengthAdjust="spacing" textLength="65.5293" x="2789.5" y="135.8467">Sampling</text><line style="stroke:#181818;stroke-width:0.5;" x1="2761.5" x2="2857.0293" y1="147" y2="147"/><line style="stroke:#181818;stroke-width:0.5;" x1="2761.5" x2="2857.0293" y1="155" y2="155"/></g><!--class Actuation--><g class="entity" data-qualified-name="Actuation" data-source-line="16" id="ent0037"><rect fill="#F1F1F1" height="48" rx="2.5" ry="2.5" style="stroke:#181818;stroke-width:0.5;" width="99.0332" x="2894" y="115"/><ellipse cx="2909" cy="131" fill="#ADD1B2" rx="11" ry="11" style="stroke:#181818;stroke-width:1;"/><path d="M2911.9688,136.6406 Q2911.3906,136.9375 2910.75,137.0781 Q2910.1094,137.2344 2909.4063,137.2344 Q2906.9063,137.2344 2905.5781,135.5938 Q2904.2656,133.9375 2904.2656,130.8125 Q2904.2656,127.6875 2905.5781,126.0313 Q2906.9063,124.375 2909.4063,124.375 Q2910.1094,124.375 2910.75,124.5313 Q2911.4063,124.6875 2911.9688,124.9844 L2911.9688,127.7031 Q2911.3438,127.125 2910.75,126.8594 Q2910.1563,126.5781 2909.5313,126.5781 Q2908.1875,126.5781 2907.5,127.6563 Q2906.8125,128.7188 2906.8125,130.8125 Q2906.8125,132.9063 2907.5,133.9844 Q2908.1875,135.0469 2909.5313,135.0469 Q2910.1563,135.0469 2910.75,134.7813 Q2911.3438,134.5 2911.9688,133.9219 L2911.9688,136.6406 Z " fill="#000000"/><text fill="#000000" font-family="sans-serif" font-size="14" lengthAdjust="spacing" textLength="67.0332" x="2923" y="135.8467">Actuation</text><line style="stroke:#181818;stroke-width:0.5;" x1="2895" x2="2992.0332" y1="147" y2="147"/><line style="stroke:#181818;stroke-width:0.5;" x1="2895" x2="2992.0332" y1="155" y2="155"/></g><!--class ActuationCollection--><g class="entity" data-qualified-name="ActuationCollection" data-source-line="17" id="ent0039"><rect fill="#F1F1F1" height="48" rx="2.5" ry="2.5" style="stroke:#181818;stroke-width:0.5;" width="168.2813" x="2336.5" y="115"/><ellipse cx="2351.5" cy="131" fill="#ADD1B2" rx="11" ry="11" style="stroke:#181818;stroke-width:1;"/><path d="M2354.4688,136.6406 Q2353.8906,136.9375 2353.25,137.0781 Q2352.6094,137.2344 2351.9063,137.2344 Q2349.4063,137.2344 2348.0781,135.5938 Q2346.7656,133.9375 2346.7656,130.8125 Q2346.7656,127.6875 2348.0781,126.0313 Q2349.4063,124.375 2351.9063,124.375 Q2352.6094,124.375 2353.25,124.5313 Q2353.9063,124.6875 2354.4688,124.9844 L2354.4688,127.7031 Q2353.8438,127.125 2353.25,126.8594 Q2352.6563,126.5781 2352.0313,126.5781 Q2350.6875,126.5781 2350,127.6563 Q2349.3125,128.7188 2349.3125,130.8125 Q2349.3125,132.9063 2350,133.9844 Q2350.6875,135.0469 2352.0313,135.0469 Q2352.6563,135.0469 2353.25,134.7813 Q2353.8438,134.5 2354.4688,133.9219 L2354.4688,136.6406 Z " fill="#000000"/><text fill="#000000" font-family="sans-serif" font-size="14" lengthAdjust="spacing" textLength="136.2813" x="2365.5" y="135.8467">ActuationCollection</text><line style="stroke:#181818;stroke-width:0.5;" x1="2337.5" x2="2503.7813" y1="147" y2="147"/><line style="stroke:#181818;stroke-width:0.5;" x1="2337.5" x2="2503.7813" y1="155" y2="155"/></g><!--class ObservationCollection--><g class="entity" data-qualified-name="ObservationCollection" data-source-line="18" id="ent0041"><rect fill="#F1F1F1" height="48" rx="2.5" ry="2.5" style="stroke:#181818;stroke-width:0.5;" width="186.499" x="2539.5" y="115"/><ellipse cx="2554.5" cy="131" fill="#ADD1B2" rx="11" ry="11" style="stroke:#181818;stroke-width:1;"/><path d="M2557.4688,136.6406 Q2556.8906,136.9375 2556.25,137.0781 Q2555.6094,137.2344 2554.9063,137.2344 Q2552.4063,137.2344 2551.0781,135.5938 Q2549.7656,133.9375 2549.7656,130.8125 Q2549.7656,127.6875 2551.0781,126.0313 Q2552.4063,124.375 2554.9063,124.375 Q2555.6094,124.375 2556.25,124.5313 Q2556.9063,124.6875 2557.4688,124.9844 L2557.4688,127.7031 Q2556.8438,127.125 2556.25,126.8594 Q2555.6563,126.5781 2555.0313,126.5781 Q2553.6875,126.5781 2553,127.6563 Q2552.3125,128.7188 2552.3125,130.8125 Q2552.3125,132.9063 2553,133.9844 Q2553.6875,135.0469 2555.0313,135.0469 Q2555.6563,135.0469 2556.25,134.7813 Q2556.8438,134.5 2557.4688,133.9219 L2557.4688,136.6406 Z " fill="#000000"/><text fill="#000000" font-family="sans-serif" font-size="14" lengthAdjust="spacing" textLength="154.499" x="2568.5" y="135.8467">ObservationCollection</text><line style="stroke:#181818;stroke-width:0.5;" x1="2540.5" x2="2724.999" y1="147" y2="147"/><line style="stroke:#181818;stroke-width:0.5;" x1="2540.5" x2="2724.999" y1="155" y2="155"/></g><!--class Observation--><g class="entity" data-qualified-name="Observation" data-source-line="19" id="ent0043"><rect fill="#F1F1F1" height="48" rx="2.5" ry="2.5" style="stroke:#181818;stroke-width:0.5;" width="117.251" x="3028" y="115"/><ellipse cx="3043" cy="131" fill="#ADD1B2" rx="11" ry="11" style="stroke:#181818;stroke-width:1;"/><path d="M3045.9688,136.6406 Q3045.3906,136.9375 3044.75,137.0781 Q3044.1094,137.2344 3043.4063,137.2344 Q3040.9063,137.2344 3039.5781,135.5938 Q3038.2656,133.9375 3038.2656,130.8125 Q3038.2656,127.6875 3039.5781,126.0313 Q3040.9063,124.375 3043.4063,124.375 Q3044.1094,124.375 3044.75,124.5313 Q3045.4063,124.6875 3045.9688,124.9844 L3045.9688,127.7031 Q3045.3438,127.125 3044.75,126.8594 Q3044.1563,126.5781 3043.5313,126.5781 Q3042.1875,126.5781 3041.5,127.6563 Q3040.8125,128.7188 3040.8125,130.8125 Q3040.8125,132.9063 3041.5,133.9844 Q3042.1875,135.0469 3043.5313,135.0469 Q3044.1563,135.0469 3044.75,134.7813 Q3045.3438,134.5 3045.9688,133.9219 L3045.9688,136.6406 Z " fill="#000000"/><text fill="#000000" font-family="sans-serif" font-size="14" lengthAdjust="spacing" textLength="85.251" x="3057" y="135.8467">Observation</text><line style="stroke:#181818;stroke-width:0.5;" x1="3029" x2="3144.251" y1="147" y2="147"/><line style="stroke:#181818;stroke-width:0.5;" x1="3029" x2="3144.251" y1="155" y2="155"/></g><!--class Result--><g class="entity" data-qualified-name="Result" data-source-line="20" id="ent0045"><rect fill="#F1F1F1" height="48" rx="2.5" ry="2.5" style="stroke:#181818;stroke-width:0.5;" width="75.8867" x="15.5" y="7"/><ellipse cx="30.5" cy="23" fill="#ADD1B2" rx="11" ry="11" style="stroke:#181818;stroke-width:1;"/><path d="M33.4688,28.6406 Q32.8906,28.9375 32.25,29.0781 Q31.6094,29.2344 30.9063,29.2344 Q28.4063,29.2344 27.0781,27.5938 Q25.7656,25.9375 25.7656,22.8125 Q25.7656,19.6875 27.0781,18.0313 Q28.4063,16.375 30.9063,16.375 Q31.6094,16.375 32.25,16.5313 Q32.9063,16.6875 33.4688,16.9844 L33.4688,19.7031 Q32.8438,19.125 32.25,18.8594 Q31.6563,18.5781 31.0313,18.5781 Q29.6875,18.5781 29,19.6563 Q28.3125,20.7188 28.3125,22.8125 Q28.3125,24.9063 29,25.9844 Q29.6875,27.0469 31.0313,27.0469 Q31.6563,27.0469 32.25,26.7813 Q32.8438,26.5 33.4688,25.9219 L33.4688,28.6406 Z " fill="#000000"/><text fill="#000000" font-family="sans-serif" font-size="14" lengthAdjust="spacing" textLength="43.8867" x="44.5" y="27.8467">Result</text><line style="stroke:#181818;stroke-width:0.5;" x1="16.5" x2="90.3867" y1="39" y2="39"/><line style="stroke:#181818;stroke-width:0.5;" x1="16.5" x2="90.3867" y1="47" y2="47"/></g><!--class Deployment--><g class="entity" data-qualified-name="Deployment" data-source-line="21" id="ent0046"><rect fill="#F1F1F1" height="48" rx="2.5" ry="2.5" style="stroke:#181818;stroke-width:0.5;" width="117.6338" x="126.5" y="7"/><ellipse cx="141.5" cy="23" fill="#ADD1B2" rx="11" ry="11" style="stroke:#181818;stroke-width:1;"/><path d="M144.4688,28.6406 Q143.8906,28.9375 143.25,29.0781 Q142.6094,29.2344 141.9063,29.2344 Q139.4063,29.2344 138.0781,27.5938 Q136.7656,25.9375 136.7656,22.8125 Q136.7656,19.6875 138.0781,18.0313 Q139.4063,16.375 141.9063,16.375 Q142.6094,16.375 143.25,16.5313 Q143.9063,16.6875 144.4688,16.9844 L144.4688,19.7031 Q143.8438,19.125 143.25,18.8594 Q142.6563,18.5781 142.0313,18.5781 Q140.6875,18.5781 140,19.6563 Q139.3125,20.7188 139.3125,22.8125 Q139.3125,24.9063 140,25.9844 Q140.6875,27.0469 142.0313,27.0469 Q142.6563,27.0469 143.25,26.7813 Q143.8438,26.5 144.4688,25.9219 L144.4688,28.6406 Z " fill="#000000"/><text fill="#000000" font-family="sans-serif" font-size="14" lengthAdjust="spacing" textLength="85.6338" x="155.5" y="27.8467">Deployment</text><line style="stroke:#181818;stroke-width:0.5;" x1="127.5" x2="243.1338" y1="39" y2="39"/><line style="stroke:#181818;stroke-width:0.5;" x1="127.5" x2="243.1338" y1="47" y2="47"/></g><!--class FeatureOfInterest--><g class="entity" data-qualified-name="FeatureOfInterest" data-source-line="22" id="ent0047"><rect fill="#F1F1F1" height="48" rx="2.5" ry="2.5" style="stroke:#181818;stroke-width:0.5;" width="156.1816" x="279.5" y="7"/><ellipse cx="294.5" cy="23" fill="#ADD1B2" rx="11" ry="11" style="stroke:#181818;stroke-width:1;"/><path d="M297.4688,28.6406 Q296.8906,28.9375 296.25,29.0781 Q295.6094,29.2344 294.9063,29.2344 Q292.4063,29.2344 291.0781,27.5938 Q289.7656,25.9375 289.7656,22.8125 Q289.7656,19.6875 291.0781,18.0313 Q292.4063,16.375 294.9063,16.375 Q295.6094,16.375 296.25,16.5313 Q296.9063,16.6875 297.4688,16.9844 L297.4688,19.7031 Q296.8438,19.125 296.25,18.8594 Q295.6563,18.5781 295.0313,18.5781 Q293.6875,18.5781 293,19.6563 Q292.3125,20.7188 292.3125,22.8125 Q292.3125,24.9063 293,25.9844 Q293.6875,27.0469 295.0313,27.0469 Q295.6563,27.0469 296.25,26.7813 Q296.8438,26.5 297.4688,25.9219 L297.4688,28.6406 Z " fill="#000000"/><text fill="#000000" font-family="sans-serif" font-size="14" lengthAdjust="spacing" textLength="124.1816" x="308.5" y="27.8467">FeatureOfInterest</text><line style="stroke:#181818;stroke-width:0.5;" x1="280.5" x2="434.6816" y1="39" y2="39"/><line style="stroke:#181818;stroke-width:0.5;" x1="280.5" x2="434.6816" y1="47" y2="47"/></g><!--class Stimulus--><g class="entity" data-qualified-name="Stimulus" data-source-line="23" id="ent0048"><rect fill="#F1F1F1" height="48" rx="2.5" ry="2.5" style="stroke:#181818;stroke-width:0.5;" width="92.833" x="7" y="115"/><ellipse cx="22" cy="131" fill="#ADD1B2" rx="11" ry="11" style="stroke:#181818;stroke-width:1;"/><path d="M24.9688,136.6406 Q24.3906,136.9375 23.75,137.0781 Q23.1094,137.2344 22.4063,137.2344 Q19.9063,137.2344 18.5781,135.5938 Q17.2656,133.9375 17.2656,130.8125 Q17.2656,127.6875 18.5781,126.0313 Q19.9063,124.375 22.4063,124.375 Q23.1094,124.375 23.75,124.5313 Q24.4063,124.6875 24.9688,124.9844 L24.9688,127.7031 Q24.3438,127.125 23.75,126.8594 Q23.1563,126.5781 22.5313,126.5781 Q21.1875,126.5781 20.5,127.6563 Q19.8125,128.7188 19.8125,130.8125 Q19.8125,132.9063 20.5,133.9844 Q21.1875,135.0469 22.5313,135.0469 Q23.1563,135.0469 23.75,134.7813 Q24.3438,134.5 24.9688,133.9219 L24.9688,136.6406 Z " fill="#000000"/><text fill="#000000" font-family="sans-serif" font-size="14" lengthAdjust="spacing" textLength="60.833" x="36" y="135.8467">Stimulus</text><line style="stroke:#181818;stroke-width:0.5;" x1="8" x2="98.833" y1="147" y2="147"/><line style="stroke:#181818;stroke-width:0.5;" x1="8" x2="98.833" y1="155" y2="155"/></g><!--class SampleCollection--><g class="entity" data-qualified-name="SampleCollection" data-source-line="24" id="ent0049"><rect fill="#F1F1F1" height="48" rx="2.5" ry="2.5" style="stroke:#181818;stroke-width:0.5;" width="153.7412" x="135.5" y="115"/><ellipse cx="150.5" cy="131" fill="#ADD1B2" rx="11" ry="11" style="stroke:#181818;stroke-width:1;"/><path d="M153.4688,136.6406 Q152.8906,136.9375 152.25,137.0781 Q151.6094,137.2344 150.9063,137.2344 Q148.4063,137.2344 147.0781,135.5938 Q145.7656,133.9375 145.7656,130.8125 Q145.7656,127.6875 147.0781,126.0313 Q148.4063,124.375 150.9063,124.375 Q151.6094,124.375 152.25,124.5313 Q152.9063,124.6875 153.4688,124.9844 L153.4688,127.7031 Q152.8438,127.125 152.25,126.8594 Q151.6563,126.5781 151.0313,126.5781 Q149.6875,126.5781 149,127.6563 Q148.3125,128.7188 148.3125,130.8125 Q148.3125,132.9063 149,133.9844 Q149.6875,135.0469 151.0313,135.0469 Q151.6563,135.0469 152.25,134.7813 Q152.8438,134.5 153.4688,133.9219 L153.4688,136.6406 Z " fill="#000000"/><text fill="#000000" font-family="sans-serif" font-size="14" lengthAdjust="spacing" textLength="121.7412" x="164.5" y="135.8467">SampleCollection</text><line style="stroke:#181818;stroke-width:0.5;" x1="136.5" x2="288.2412" y1="147" y2="147"/><line style="stroke:#181818;stroke-width:0.5;" x1="136.5" x2="288.2412" y1="155" y2="155"/></g><!--reverse link Property to ActuatableProperty--><g class="link" data-entity-1="ent0001" data-entity-2="ent0002" data-link-type="extension" data-source-line="1" id="lnk3"><path codeLine="1" d="M516.5128,65.0736 C490.2728,82.7936 469.07,97.11 442.77,114.86" fill="none" id="Property-backto-ActuatableProperty" style="stroke:#181818;stroke-width:1;"/><polygon fill="none" points="531.43,55,513.155,60.1012,519.8707,70.046,531.43,55" style="stroke:#181818;stroke-width:1;stroke-linejoin:miter;stroke-miterlimit:10;"/></g><!--reverse link Sample to MaterialSample--><g class="link" data-entity-1="ent0004" data-entity-2="ent0005" data-link-type="extension" data-source-line="2" id="lnk6"><path codeLine="2" d="M924.8567,64.4445 C896.1067,82.1645 871.85,97.11 843.05,114.86" fill="none" id="Sample-backto-MaterialSample" style="stroke:#181818;stroke-width:1;"/><polygon fill="none" points="940.18,55,921.7086,59.3367,928.0049,69.5522,940.18,55" style="stroke:#181818;stroke-width:1;stroke-linejoin:miter;stroke-miterlimit:10;"/></g><!--reverse link Property to ObservableProperty--><g class="link" data-entity-1="ent0001" data-entity-2="ent0007" data-link-type="extension" data-source-line="3" id="lnk8"><path codeLine="3" d="M583.3398,71.3996 C591.3298,89.0596 594.91,96.94 602.94,114.68" fill="none" id="Property-backto-ObservableProperty" style="stroke:#181818;stroke-width:1;"/><polygon fill="none" points="575.92,55,577.8732,73.8729,588.8063,68.9264,575.92,55" style="stroke:#181818;stroke-width:1;stroke-linejoin:miter;stroke-miterlimit:10;"/></g><!--reverse link Sample to SpatialSample--><g class="link" data-entity-1="ent0004" data-entity-2="ent0009" data-link-type="extension" data-source-line="4" id="lnk10"><path codeLine="4" d="M977.5,73 C977.5,90.66 977.5,96.94 977.5,114.68" fill="none" id="Sample-backto-SpatialSample" style="stroke:#181818;stroke-width:1;"/><polygon fill="none" points="977.5,55,971.5,73,983.5,73,977.5,55" style="stroke:#181818;stroke-width:1;stroke-linejoin:miter;stroke-miterlimit:10;"/></g><!--reverse link Sample to StatisticalSample--><g class="link" data-entity-1="ent0004" data-entity-2="ent0011" data-link-type="extension" data-source-line="5" id="lnk12"><path codeLine="5" d="M1031.8276,64.1725 C1061.7476,81.8925 1087.45,97.11 1117.43,114.86" fill="none" id="Sample-backto-StatisticalSample" style="stroke:#181818;stroke-width:1;"/><polygon fill="none" points="1016.34,55,1028.7701,69.335,1034.8851,59.0099,1016.34,55" style="stroke:#181818;stroke-width:1;stroke-linejoin:miter;stroke-miterlimit:10;"/></g><!--reverse link Procedure to ActuatingProcedure--><g class="link" data-entity-1="ent0013" data-entity-2="ent0014" data-link-type="extension" data-source-line="6" id="lnk15"><path codeLine="6" d="M1501.3326,63.1732 C1466.5626,80.8932 1434.74,97.11 1399.9,114.86" fill="none" id="Procedure-backto-ActuatingProcedure" style="stroke:#181818;stroke-width:1;"/><polygon fill="none" points="1517.37,55,1498.6082,57.8274,1504.057,68.519,1517.37,55" style="stroke:#181818;stroke-width:1;stroke-linejoin:miter;stroke-miterlimit:10;"/></g><!--reverse link Procedure to ObservingProcedure--><g class="link" data-entity-1="ent0013" data-entity-2="ent0016" data-link-type="extension" data-source-line="7" id="lnk17"><path codeLine="7" d="M1562.5,73 C1562.5,90.66 1562.5,96.94 1562.5,114.68" fill="none" id="Procedure-backto-ObservingProcedure" style="stroke:#181818;stroke-width:1;"/><polygon fill="none" points="1562.5,55,1556.5,73,1568.5,73,1562.5,55" style="stroke:#181818;stroke-width:1;stroke-linejoin:miter;stroke-miterlimit:10;"/></g><!--reverse link Procedure to SamplingProcedure--><g class="link" data-entity-1="ent0013" data-entity-2="ent0018" data-link-type="extension" data-source-line="8" id="lnk19"><path codeLine="8" d="M1623.4411,63.205 C1658.0411,80.925 1689.65,97.11 1724.31,114.86" fill="none" id="Procedure-backto-SamplingProcedure" style="stroke:#181818;stroke-width:1;"/><polygon fill="none" points="1607.42,55,1620.7061,68.5454,1626.1762,57.8647,1607.42,55" style="stroke:#181818;stroke-width:1;stroke-linejoin:miter;stroke-miterlimit:10;"/></g><!--reverse link Asset to Platform--><g class="link" data-entity-1="ent0020" data-entity-2="ent0021" data-link-type="extension" data-source-line="9" id="lnk22"><path codeLine="9" d="M1973.2839,70.6022 C1963.1239,88.2622 1958.13,96.94 1947.92,114.68" fill="none" id="Asset-backto-Platform" style="stroke:#181818;stroke-width:1;"/><polygon fill="none" points="1982.26,55,1968.0831,67.6102,1978.4846,73.5943,1982.26,55" style="stroke:#181818;stroke-width:1;stroke-linejoin:miter;stroke-miterlimit:10;"/></g><!--reverse link System to Sampler--><g class="link" data-entity-1="ent0023" data-entity-2="ent0024" data-link-type="extension" data-source-line="10" id="lnk25"><path codeLine="10" d="M2016.3865,174.5884 C1995.3965,192.2484 1980.31,204.94 1959.22,222.68" fill="none" id="System-backto-Sampler" style="stroke:#181818;stroke-width:1;"/><polygon fill="none" points="2030.16,163,2012.5237,169.9972,2020.2493,179.1795,2030.16,163" style="stroke:#181818;stroke-width:1;stroke-linejoin:miter;stroke-miterlimit:10;"/></g><!--reverse link System to Actuator--><g class="link" data-entity-1="ent0023" data-entity-2="ent0026" data-link-type="extension" data-source-line="11" id="lnk27"><path codeLine="11" d="M2057.5,181 C2057.5,198.66 2057.5,204.94 2057.5,222.68" fill="none" id="System-backto-Actuator" style="stroke:#181818;stroke-width:1;"/><polygon fill="none" points="2057.5,163,2051.5,181,2063.5,181,2057.5,163" style="stroke:#181818;stroke-width:1;stroke-linejoin:miter;stroke-miterlimit:10;"/></g><!--reverse link ExecutionCollection to SamplingCollection--><g class="link" data-entity-1="ent0028" data-entity-2="ent0029" data-link-type="extension" data-source-line="12" id="lnk30"><path codeLine="12" d="M2360.731,63.3636 C2326.961,81.0836 2296.43,97.11 2262.59,114.86" fill="none" id="ExecutionCollection-backto-SamplingCollection" style="stroke:#181818;stroke-width:1;"/><polygon fill="none" points="2376.67,55,2357.9432,58.0506,2363.5189,68.6766,2376.67,55" style="stroke:#181818;stroke-width:1;stroke-linejoin:miter;stroke-miterlimit:10;"/></g><!--reverse link Asset to System--><g class="link" data-entity-1="ent0020" data-entity-2="ent0023" data-link-type="extension" data-source-line="13" id="lnk31"><path codeLine="13" d="M2018.0383,70.5372 C2028.3683,88.1972 2033.48,96.94 2043.86,114.68" fill="none" id="Asset-backto-System" style="stroke:#181818;stroke-width:1;"/><polygon fill="none" points="2008.95,55,2012.8592,73.5666,2023.2173,67.5077,2008.95,55" style="stroke:#181818;stroke-width:1;stroke-linejoin:miter;stroke-miterlimit:10;"/></g><!--reverse link System to Sensor--><g class="link" data-entity-1="ent0023" data-entity-2="ent0032" data-link-type="extension" data-source-line="14" id="lnk33"><path codeLine="14" d="M2097.2968,174.864 C2117.4468,192.524 2131.63,204.94 2151.88,222.68" fill="none" id="System-backto-Sensor" style="stroke:#181818;stroke-width:1;"/><polygon fill="none" points="2083.76,163,2093.3421,179.3763,2101.2515,170.3518,2083.76,163" style="stroke:#181818;stroke-width:1;stroke-linejoin:miter;stroke-miterlimit:10;"/></g><!--reverse link Execution to Sampling--><g class="link" data-entity-1="ent0034" data-entity-2="ent0035" data-link-type="extension" data-source-line="15" id="lnk36"><path codeLine="15" d="M2900.3041,66.1688 C2877.9841,83.8288 2861.41,96.94 2838.98,114.68" fill="none" id="Execution-backto-Sampling" style="stroke:#181818;stroke-width:1;"/><polygon fill="none" points="2914.42,55,2896.5812,61.4635,2904.027,70.8741,2914.42,55" style="stroke:#181818;stroke-width:1;stroke-linejoin:miter;stroke-miterlimit:10;"/></g><!--reverse link Execution to Actuation--><g class="link" data-entity-1="ent0034" data-entity-2="ent0037" data-link-type="extension" data-source-line="16" id="lnk38"><path codeLine="16" d="M2943.5,73 C2943.5,90.66 2943.5,96.94 2943.5,114.68" fill="none" id="Execution-backto-Actuation" style="stroke:#181818;stroke-width:1;"/><polygon fill="none" points="2943.5,55,2937.5,73,2949.5,73,2943.5,55" style="stroke:#181818;stroke-width:1;stroke-linejoin:miter;stroke-miterlimit:10;"/></g><!--reverse link ExecutionCollection to ActuationCollection--><g class="link" data-entity-1="ent0028" data-entity-2="ent0039" data-link-type="extension" data-source-line="17" id="lnk40"><path codeLine="17" d="M2420.5,73 C2420.5,90.66 2420.5,96.94 2420.5,114.68" fill="none" id="ExecutionCollection-backto-ActuationCollection" style="stroke:#181818;stroke-width:1;"/><polygon fill="none" points="2420.5,55,2414.5,73,2426.5,73,2420.5,55" style="stroke:#181818;stroke-width:1;stroke-linejoin:miter;stroke-miterlimit:10;"/></g><!--reverse link ExecutionCollection to ObservationCollection--><g class="link" data-entity-1="ent0028" data-entity-2="ent0041" data-link-type="extension" data-source-line="18" id="lnk42"><path codeLine="18" d="M2482.5997,63.0498 C2518.0397,80.7698 2550.72,97.11 2586.22,114.86" fill="none" id="ExecutionCollection-backto-ObservationCollection" style="stroke:#181818;stroke-width:1;"/><polygon fill="none" points="2466.5,55,2479.9164,68.4164,2485.283,57.6833,2466.5,55" style="stroke:#181818;stroke-width:1;stroke-linejoin:miter;stroke-miterlimit:10;"/></g><!--reverse link Execution to Observation--><g class="link" data-entity-1="ent0034" data-entity-2="ent0043" data-link-type="extension" data-source-line="19" id="lnk44"><path codeLine="19" d="M2988.9895,65.7202 C3012.8095,83.3802 3031.11,96.94 3055.04,114.68" fill="none" id="Execution-backto-Observation" style="stroke:#181818;stroke-width:1;"/><polygon fill="none" points="2974.53,55,2985.4161,70.54,2992.5629,60.9004,2974.53,55" style="stroke:#181818;stroke-width:1;stroke-linejoin:miter;stroke-miterlimit:10;"/></g><?plantuml-src VL9RZiCW4Fld5Bb0Rx0_rJwaVbIDDYUWrAsG1eYOeTf8U_XDIz90g-mVs1xR6cXZw15bQDv-DvjcQoHfqKT2E-6gqwudP7gl1T5gofXggzd3aH6lgxDThsKPhHWP6HPhIcE3KueeMrb_UU3FYfpzd-BkN0csp91CjgJb7A9JtS02LqmWLbXk4gBw_859OeD_3qGmjrETi-1bKFQgO-2vDAnjdl5f5QFhQeE7fAYmAfuURKt-8bA6D7Fp3Kuaq-K3FON1mS_05xIC6pwSTtxyB-0PxyIwH8ddwtt1I-mV?></g></svg>