<svg xmlns="http://www.w3.org/2000/svg" xmlns:xlink="http://www.w3.org/1999/xlink" contentStyleType="text/css" data-diagram-type="CLASS" height="286px" preserveAspectRatio="none" style="width:3246px;height:286px;background:#FFFFFF;" version="1.1" viewBox="0 0 3246 286" width="3246px" zoomAndPan="magnify"><?plantuml 1.2026.6?><defs/><g><!--class Property--><g class="entity" data-qualified-name="Property" data-source-line="1" id="ent0001"><rect fill="#F1F1F1" height="48" rx="2.5" ry="2.5" style="stroke:#181818;stroke-width:0.5;" width="91.7939" x="551" y="7"/><ellipse cx="566" cy="23" fill="#ADD1B2" rx="11" ry="11" style="stroke:#181818;stroke-width:1;"/><path d="M568.9688,28.6406 Q568.3906,28.9375 567.75,29.0781 Q567.1094,29.2344 566.4063,29.2344 Q563.9063,29.2344 562.5781,27.5938 Q561.2656,25.9375 561.2656,22.8125 Q561.2656,19.6875 562.5781,18.0313 Q563.9063,16.375 566.4063,16.375 Q567.1094,16.375 567.75,16.5313 Q568.4063,16.6875 568.9688,16.9844 L568.9688,19.7031 Q568.3438,19.125 567.75,18.8594 Q567.1563,18.5781 566.5313,18.5781 Q565.1875,18.5781 564.5,19.6563 Q563.8125,20.7188 563.8125,22.8125 Q563.8125,24.9063 564.5,25.9844 Q565.1875,27.0469 566.5313,27.0469 Q567.1563,27.0469 567.75,26.7813 Q568.3438,26.5 568.9688,25.9219 L568.9688,28.6406 Z " fill="#000000"/><text fill="#000000" font-family="sans-serif" font-size="14" lengthAdjust="spacing" textLength="59.7939" x="580" y="27.8467">Property</text><line style="stroke:#181818;stroke-width:0.5;" x1="552" x2="641.7939" y1="39" y2="39"/><line style="stroke:#181818;stroke-width:0.5;" x1="552" x2="641.7939" y1="47" y2="47"/></g><!--class ActuatableProperty--><g class="entity" data-qualified-name="ActuatableProperty" data-source-line="1" id="ent0002"><rect fill="#F1F1F1" height="48" rx="2.5" ry="2.5" style="stroke:#181818;stroke-width:0.5;" width="167.4678" x="411.5" y="115"/><ellipse cx="426.5" cy="131" fill="#ADD1B2" rx="11" ry="11" style="stroke:#181818;stroke-width:1;"/><path d="M429.4688,136.6406 Q428.8906,136.9375 428.25,137.0781 Q427.6094,137.2344 426.9063,137.2344 Q424.4063,137.2344 423.0781,135.5938 Q421.7656,133.9375 421.7656,130.8125 Q421.7656,127.6875 423.0781,126.0313 Q424.4063,124.375 426.9063,124.375 Q427.6094,124.375 428.25,124.5313 Q428.9063,124.6875 429.4688,124.9844 L429.4688,127.7031 Q428.8438,127.125 428.25,126.8594 Q427.6563,126.5781 427.0313,126.5781 Q425.6875,126.5781 425,127.6563 Q424.3125,128.7188 424.3125,130.8125 Q424.3125,132.9063 425,133.9844 Q425.6875,135.0469 427.0313,135.0469 Q427.6563,135.0469 428.25,134.7813 Q428.8438,134.5 429.4688,133.9219 L429.4688,136.6406 Z " fill="#000000"/><text fill="#000000" font-family="sans-serif" font-size="14" lengthAdjust="spacing" textLength="135.4678" x="440.5" y="135.8467">ActuatableProperty</text><line style="stroke:#181818;stroke-width:0.5;" x1="412.5" x2="577.9678" y1="147" y2="147"/><line style="stroke:#181818;stroke-width:0.5;" x1="412.5" x2="577.9678" y1="155" y2="155"/></g><!--class Sample--><g class="entity" data-qualified-name="Sample" data-source-line="2" id="ent0004"><rect fill="#F1F1F1" height="48" rx="2.5" ry="2.5" style="stroke:#181818;stroke-width:0.5;" width="84.4932" x="1022" y="7"/><ellipse cx="1037" cy="23" fill="#ADD1B2" rx="11" ry="11" style="stroke:#181818;stroke-width:1;"/><path d="M1039.9688,28.6406 Q1039.3906,28.9375 1038.75,29.0781 Q1038.1094,29.2344 1037.4063,29.2344 Q1034.9063,29.2344 1033.5781,27.5938 Q1032.2656,25.9375 1032.2656,22.8125 Q1032.2656,19.6875 1033.5781,18.0313 Q1034.9063,16.375 1037.4063,16.375 Q1038.1094,16.375 1038.75,16.5313 Q1039.4063,16.6875 1039.9688,16.9844 L1039.9688,19.7031 Q1039.3438,19.125 1038.75,18.8594 Q1038.1563,18.5781 1037.5313,18.5781 Q1036.1875,18.5781 1035.5,19.6563 Q1034.8125,20.7188 1034.8125,22.8125 Q1034.8125,24.9063 1035.5,25.9844 Q1036.1875,27.0469 1037.5313,27.0469 Q1038.1563,27.0469 1038.75,26.7813 Q1039.3438,26.5 1039.9688,25.9219 L1039.9688,28.6406 Z " fill="#000000"/><text fill="#000000" font-family="sans-serif" font-size="14" lengthAdjust="spacing" textLength="52.4932" x="1051" y="27.8467">Sample</text><line style="stroke:#181818;stroke-width:0.5;" x1="1023" x2="1105.4932" y1="39" y2="39"/><line style="stroke:#181818;stroke-width:0.5;" x1="1023" x2="1105.4932" y1="47" y2="47"/></g><!--class MaterialSample--><g class="entity" data-qualified-name="MaterialSample" data-source-line="2" id="ent0005"><rect fill="#F1F1F1" height="48" rx="2.5" ry="2.5" style="stroke:#181818;stroke-width:0.5;" width="141.3682" x="821.5" y="115"/><ellipse cx="836.5" cy="131" fill="#ADD1B2" rx="11" ry="11" style="stroke:#181818;stroke-width:1;"/><path d="M839.4688,136.6406 Q838.8906,136.9375 838.25,137.0781 Q837.6094,137.2344 836.9063,137.2344 Q834.4063,137.2344 833.0781,135.5938 Q831.7656,133.9375 831.7656,130.8125 Q831.7656,127.6875 833.0781,126.0313 Q834.4063,124.375 836.9063,124.375 Q837.6094,124.375 838.25,124.5313 Q838.9063,124.6875 839.4688,124.9844 L839.4688,127.7031 Q838.8438,127.125 838.25,126.8594 Q837.6563,126.5781 837.0313,126.5781 Q835.6875,126.5781 835,127.6563 Q834.3125,128.7188 834.3125,130.8125 Q834.3125,132.9063 835,133.9844 Q835.6875,135.0469 837.0313,135.0469 Q837.6563,135.0469 838.25,134.7813 Q838.8438,134.5 839.4688,133.9219 L839.4688,136.6406 Z " fill="#000000"/><text fill="#000000" font-family="sans-serif" font-size="14" lengthAdjust="spacing" textLength="109.3682" x="850.5" y="135.8467">MaterialSample</text><line style="stroke:#181818;stroke-width:0.5;" x1="822.5" x2="961.8682" y1="147" y2="147"/><line style="stroke:#181818;stroke-width:0.5;" x1="822.5" x2="961.8682" y1="155" y2="155"/></g><!--class SpatialSample--><g class="entity" data-qualified-name="SpatialSample" data-source-line="3" id="ent0007"><rect fill="#F1F1F1" height="48" rx="2.5" ry="2.5" style="stroke:#181818;stroke-width:0.5;" width="132.6934" x="997.5" y="115"/><ellipse cx="1012.5" cy="131" fill="#ADD1B2" rx="11" ry="11" style="stroke:#181818;stroke-width:1;"/><path d="M1015.4688,136.6406 Q1014.8906,136.9375 1014.25,137.0781 Q1013.6094,137.2344 1012.9063,137.2344 Q1010.4063,137.2344 1009.0781,135.5938 Q1007.7656,133.9375 1007.7656,130.8125 Q1007.7656,127.6875 1009.0781,126.0313 Q1010.4063,124.375 1012.9063,124.375 Q1013.6094,124.375 1014.25,124.5313 Q1014.9063,124.6875 1015.4688,124.9844 L1015.4688,127.7031 Q1014.8438,127.125 1014.25,126.8594 Q1013.6563,126.5781 1013.0313,126.5781 Q1011.6875,126.5781 1011,127.6563 Q1010.3125,128.7188 1010.3125,130.8125 Q1010.3125,132.9063 1011,133.9844 Q1011.6875,135.0469 1013.0313,135.0469 Q1013.6563,135.0469 1014.25,134.7813 Q1014.8438,134.5 1015.4688,133.9219 L1015.4688,136.6406 Z " fill="#000000"/><text fill="#000000" font-family="sans-serif" font-size="14" lengthAdjust="spacing" textLength="100.6934" x="1026.5" y="135.8467">SpatialSample</text><line style="stroke:#181818;stroke-width:0.5;" x1="998.5" x2="1129.1934" y1="147" y2="147"/><line style="stroke:#181818;stroke-width:0.5;" x1="998.5" x2="1129.1934" y1="155" y2="155"/></g><!--class StatisticalSample--><g class="entity" data-qualified-name="StatisticalSample" data-source-line="4" id="ent0009"><rect fill="#F1F1F1" height="48" rx="2.5" ry="2.5" style="stroke:#181818;stroke-width:0.5;" width="153.666" x="1166" y="115"/><ellipse cx="1181" cy="131" fill="#ADD1B2" rx="11" ry="11" style="stroke:#181818;stroke-width:1;"/><path d="M1183.9688,136.6406 Q1183.3906,136.9375 1182.75,137.0781 Q1182.1094,137.2344 1181.4063,137.2344 Q1178.9063,137.2344 1177.5781,135.5938 Q1176.2656,133.9375 1176.2656,130.8125 Q1176.2656,127.6875 1177.5781,126.0313 Q1178.9063,124.375 1181.4063,124.375 Q1182.1094,124.375 1182.75,124.5313 Q1183.4063,124.6875 1183.9688,124.9844 L1183.9688,127.7031 Q1183.3438,127.125 1182.75,126.8594 Q1182.1563,126.5781 1181.5313,126.5781 Q1180.1875,126.5781 1179.5,127.6563 Q1178.8125,128.7188 1178.8125,130.8125 Q1178.8125,132.9063 1179.5,133.9844 Q1180.1875,135.0469 1181.5313,135.0469 Q1182.1563,135.0469 1182.75,134.7813 Q1183.3438,134.5 1183.9688,133.9219 L1183.9688,136.6406 Z " fill="#000000"/><text fill="#000000" font-family="sans-serif" font-size="14" lengthAdjust="spacing" textLength="121.666" x="1195" y="135.8467">StatisticalSample</text><line style="stroke:#181818;stroke-width:0.5;" x1="1167" x2="1318.666" y1="147" y2="147"/><line style="stroke:#181818;stroke-width:0.5;" x1="1167" x2="1318.666" y1="155" y2="155"/></g><!--class ObservableProperty--><g class="entity" data-qualified-name="ObservableProperty" data-source-line="5" id="ent0011"><rect fill="#F1F1F1" height="48" rx="2.5" ry="2.5" style="stroke:#181818;stroke-width:0.5;" width="171.6172" x="614" y="115"/><ellipse cx="629" cy="131" fill="#ADD1B2" rx="11" ry="11" style="stroke:#181818;stroke-width:1;"/><path d="M631.9688,136.6406 Q631.3906,136.9375 630.75,137.0781 Q630.1094,137.2344 629.4063,137.2344 Q626.9063,137.2344 625.5781,135.5938 Q624.2656,133.9375 624.2656,130.8125 Q624.2656,127.6875 625.5781,126.0313 Q626.9063,124.375 629.4063,124.375 Q630.1094,124.375 630.75,124.5313 Q631.4063,124.6875 631.9688,124.9844 L631.9688,127.7031 Q631.3438,127.125 630.75,126.8594 Q630.1563,126.5781 629.5313,126.5781 Q628.1875,126.5781 627.5,127.6563 Q626.8125,128.7188 626.8125,130.8125 Q626.8125,132.9063 627.5,133.9844 Q628.1875,135.0469 629.5313,135.0469 Q630.1563,135.0469 630.75,134.7813 Q631.3438,134.5 631.9688,133.9219 L631.9688,136.6406 Z " fill="#000000"/><text fill="#000000" font-family="sans-serif" font-size="14" lengthAdjust="spacing" textLength="139.6172" x="643" y="135.8467">ObservableProperty</text><line style="stroke:#181818;stroke-width:0.5;" x1="615" x2="784.6172" y1="147" y2="147"/><line style="stroke:#181818;stroke-width:0.5;" x1="615" x2="784.6172" y1="155" y2="155"/></g><!--class Procedure--><g class="entity" data-qualified-name="Procedure" data-source-line="6" id="ent0013"><rect fill="#F1F1F1" height="48" rx="2.5" ry="2.5" style="stroke:#181818;stroke-width:0.5;" width="103.2031" x="1597.5" y="7"/><ellipse cx="1612.5" cy="23" fill="#ADD1B2" rx="11" ry="11" style="stroke:#181818;stroke-width:1;"/><path d="M1615.4688,28.6406 Q1614.8906,28.9375 1614.25,29.0781 Q1613.6094,29.2344 1612.9063,29.2344 Q1610.4063,29.2344 1609.0781,27.5938 Q1607.7656,25.9375 1607.7656,22.8125 Q1607.7656,19.6875 1609.0781,18.0313 Q1610.4063,16.375 1612.9063,16.375 Q1613.6094,16.375 1614.25,16.5313 Q1614.9063,16.6875 1615.4688,16.9844 L1615.4688,19.7031 Q1614.8438,19.125 1614.25,18.8594 Q1613.6563,18.5781 1613.0313,18.5781 Q1611.6875,18.5781 1611,19.6563 Q1610.3125,20.7188 1610.3125,22.8125 Q1610.3125,24.9063 1611,25.9844 Q1611.6875,27.0469 1613.0313,27.0469 Q1613.6563,27.0469 1614.25,26.7813 Q1614.8438,26.5 1615.4688,25.9219 L1615.4688,28.6406 Z " fill="#000000"/><text fill="#000000" font-family="sans-serif" font-size="14" lengthAdjust="spacing" textLength="71.2031" x="1626.5" y="27.8467">Procedure</text><line style="stroke:#181818;stroke-width:0.5;" x1="1598.5" x2="1699.7031" y1="39" y2="39"/><line style="stroke:#181818;stroke-width:0.5;" x1="1598.5" x2="1699.7031" y1="47" y2="47"/></g><!--class ActuatingProcedure--><g class="entity" data-qualified-name="ActuatingProcedure" data-source-line="6" id="ent0014"><rect fill="#F1F1F1" height="48" rx="2.5" ry="2.5" style="stroke:#181818;stroke-width:0.5;" width="170.5576" x="1355.5" y="115"/><ellipse cx="1370.5" cy="131" fill="#ADD1B2" rx="11" ry="11" style="stroke:#181818;stroke-width:1;"/><path d="M1373.4688,136.6406 Q1372.8906,136.9375 1372.25,137.0781 Q1371.6094,137.2344 1370.9063,137.2344 Q1368.4063,137.2344 1367.0781,135.5938 Q1365.7656,133.9375 1365.7656,130.8125 Q1365.7656,127.6875 1367.0781,126.0313 Q1368.4063,124.375 1370.9063,124.375 Q1371.6094,124.375 1372.25,124.5313 Q1372.9063,124.6875 1373.4688,124.9844 L1373.4688,127.7031 Q1372.8438,127.125 1372.25,126.8594 Q1371.6563,126.5781 1371.0313,126.5781 Q1369.6875,126.5781 1369,127.6563 Q1368.3125,128.7188 1368.3125,130.8125 Q1368.3125,132.9063 1369,133.9844 Q1369.6875,135.0469 1371.0313,135.0469 Q1371.6563,135.0469 1372.25,134.7813 Q1372.8438,134.5 1373.4688,133.9219 L1373.4688,136.6406 Z " fill="#000000"/><text fill="#000000" font-family="sans-serif" font-size="14" lengthAdjust="spacing" textLength="138.5576" x="1384.5" y="135.8467">ActuatingProcedure</text><line style="stroke:#181818;stroke-width:0.5;" x1="1356.5" x2="1525.0576" y1="147" y2="147"/><line style="stroke:#181818;stroke-width:0.5;" x1="1356.5" x2="1525.0576" y1="155" y2="155"/></g><!--class ObservingProcedure--><g class="entity" data-qualified-name="ObservingProcedure" data-source-line="7" id="ent0016"><rect fill="#F1F1F1" height="48" rx="2.5" ry="2.5" style="stroke:#181818;stroke-width:0.5;" width="174.707" x="1561.5" y="115"/><ellipse cx="1576.5" cy="131" fill="#ADD1B2" rx="11" ry="11" style="stroke:#181818;stroke-width:1;"/><path d="M1579.4688,136.6406 Q1578.8906,136.9375 1578.25,137.0781 Q1577.6094,137.2344 1576.9063,137.2344 Q1574.4063,137.2344 1573.0781,135.5938 Q1571.7656,133.9375 1571.7656,130.8125 Q1571.7656,127.6875 1573.0781,126.0313 Q1574.4063,124.375 1576.9063,124.375 Q1577.6094,124.375 1578.25,124.5313 Q1578.9063,124.6875 1579.4688,124.9844 L1579.4688,127.7031 Q1578.8438,127.125 1578.25,126.8594 Q1577.6563,126.5781 1577.0313,126.5781 Q1575.6875,126.5781 1575,127.6563 Q1574.3125,128.7188 1574.3125,130.8125 Q1574.3125,132.9063 1575,133.9844 Q1575.6875,135.0469 1577.0313,135.0469 Q1577.6563,135.0469 1578.25,134.7813 Q1578.8438,134.5 1579.4688,133.9219 L1579.4688,136.6406 Z " fill="#000000"/><text fill="#000000" font-family="sans-serif" font-size="14" lengthAdjust="spacing" textLength="142.707" x="1590.5" y="135.8467">ObservingProcedure</text><line style="stroke:#181818;stroke-width:0.5;" x1="1562.5" x2="1735.207" y1="147" y2="147"/><line style="stroke:#181818;stroke-width:0.5;" x1="1562.5" x2="1735.207" y1="155" y2="155"/></g><!--class SamplingProcedure--><g class="entity" data-qualified-name="SamplingProcedure" data-source-line="8" id="ent0018"><rect fill="#F1F1F1" height="48" rx="2.5" ry="2.5" style="stroke:#181818;stroke-width:0.5;" width="168.7324" x="1771.5" y="115"/><ellipse cx="1786.5" cy="131" fill="#ADD1B2" rx="11" ry="11" style="stroke:#181818;stroke-width:1;"/><path d="M1789.4688,136.6406 Q1788.8906,136.9375 1788.25,137.0781 Q1787.6094,137.2344 1786.9063,137.2344 Q1784.4063,137.2344 1783.0781,135.5938 Q1781.7656,133.9375 1781.7656,130.8125 Q1781.7656,127.6875 1783.0781,126.0313 Q1784.4063,124.375 1786.9063,124.375 Q1787.6094,124.375 1788.25,124.5313 Q1788.9063,124.6875 1789.4688,124.9844 L1789.4688,127.7031 Q1788.8438,127.125 1788.25,126.8594 Q1787.6563,126.5781 1787.0313,126.5781 Q1785.6875,126.5781 1785,127.6563 Q1784.3125,128.7188 1784.3125,130.8125 Q1784.3125,132.9063 1785,133.9844 Q1785.6875,135.0469 1787.0313,135.0469 Q1787.6563,135.0469 1788.25,134.7813 Q1788.8438,134.5 1789.4688,133.9219 L1789.4688,136.6406 Z " fill="#000000"/><text fill="#000000" font-family="sans-serif" font-size="14" lengthAdjust="spacing" textLength="136.7324" x="1800.5" y="135.8467">SamplingProcedure</text><line style="stroke:#181818;stroke-width:0.5;" x1="1772.5" x2="1939.2324" y1="147" y2="147"/><line style="stroke:#181818;stroke-width:0.5;" x1="1772.5" x2="1939.2324" y1="155" y2="155"/></g><!--class Asset--><g class="entity" data-qualified-name="Asset" data-source-line="9" id="ent0020"><rect fill="#F1F1F1" height="48" rx="2.5" ry="2.5" style="stroke:#181818;stroke-width:0.5;" width="70.2676" x="2047" y="7"/><ellipse cx="2062" cy="23" fill="#ADD1B2" rx="11" ry="11" style="stroke:#181818;stroke-width:1;"/><path d="M2064.9688,28.6406 Q2064.3906,28.9375 2063.75,29.0781 Q2063.1094,29.2344 2062.4063,29.2344 Q2059.9063,29.2344 2058.5781,27.5938 Q2057.2656,25.9375 2057.2656,22.8125 Q2057.2656,19.6875 2058.5781,18.0313 Q2059.9063,16.375 2062.4063,16.375 Q2063.1094,16.375 2063.75,16.5313 Q2064.4063,16.6875 2064.9688,16.9844 L2064.9688,19.7031 Q2064.3438,19.125 2063.75,18.8594 Q2063.1563,18.5781 2062.5313,18.5781 Q2061.1875,18.5781 2060.5,19.6563 Q2059.8125,20.7188 2059.8125,22.8125 Q2059.8125,24.9063 2060.5,25.9844 Q2061.1875,27.0469 2062.5313,27.0469 Q2063.1563,27.0469 2063.75,26.7813 Q2064.3438,26.5 2064.9688,25.9219 L2064.9688,28.6406 Z " fill="#000000"/><text fill="#000000" font-family="sans-serif" font-size="14" lengthAdjust="spacing" textLength="38.2676" x="2076" y="27.8467">Asset</text><line style="stroke:#181818;stroke-width:0.5;" x1="2048" x2="2116.2676" y1="39" y2="39"/><line style="stroke:#181818;stroke-width:0.5;" x1="2048" x2="2116.2676" y1="47" y2="47"/></g><!--class Platform--><g class="entity" data-qualified-name="Platform" data-source-line="9" id="ent0021"><rect fill="#F1F1F1" height="48" rx="2.5" ry="2.5" style="stroke:#181818;stroke-width:0.5;" width="91.2881" x="1975.5" y="115"/><ellipse cx="1990.5" cy="131" fill="#ADD1B2" rx="11" ry="11" style="stroke:#181818;stroke-width:1;"/><path d="M1993.4688,136.6406 Q1992.8906,136.9375 1992.25,137.0781 Q1991.6094,137.2344 1990.9063,137.2344 Q1988.4063,137.2344 1987.0781,135.5938 Q1985.7656,133.9375 1985.7656,130.8125 Q1985.7656,127.6875 1987.0781,126.0313 Q1988.4063,124.375 1990.9063,124.375 Q1991.6094,124.375 1992.25,124.5313 Q1992.9063,124.6875 1993.4688,124.9844 L1993.4688,127.7031 Q1992.8438,127.125 1992.25,126.8594 Q1991.6563,126.5781 1991.0313,126.5781 Q1989.6875,126.5781 1989,127.6563 Q1988.3125,128.7188 1988.3125,130.8125 Q1988.3125,132.9063 1989,133.9844 Q1989.6875,135.0469 1991.0313,135.0469 Q1991.6563,135.0469 1992.25,134.7813 Q1992.8438,134.5 1993.4688,133.9219 L1993.4688,136.6406 Z " fill="#000000"/><text fill="#000000" font-family="sans-serif" font-size="14" lengthAdjust="spacing" textLength="59.2881" x="2004.5" y="135.8467">Platform</text><line style="stroke:#181818;stroke-width:0.5;" x1="1976.5" x2="2065.7881" y1="147" y2="147"/><line style="stroke:#181818;stroke-width:0.5;" x1="1976.5" x2="2065.7881" y1="155" y2="155"/></g><!--class System--><g class="entity" data-qualified-name="System" data-source-line="10" id="ent0023"><rect fill="#F1F1F1" height="48" rx="2.5" ry="2.5" style="stroke:#181818;stroke-width:0.5;" width="84.2061" x="2102" y="115"/><ellipse cx="2117" cy="131" fill="#ADD1B2" rx="11" ry="11" style="stroke:#181818;stroke-width:1;"/><path d="M2119.9688,136.6406 Q2119.3906,136.9375 2118.75,137.0781 Q2118.1094,137.2344 2117.4063,137.2344 Q2114.9063,137.2344 2113.5781,135.5938 Q2112.2656,133.9375 2112.2656,130.8125 Q2112.2656,127.6875 2113.5781,126.0313 Q2114.9063,124.375 2117.4063,124.375 Q2118.1094,124.375 2118.75,124.5313 Q2119.4063,124.6875 2119.9688,124.9844 L2119.9688,127.7031 Q2119.3438,127.125 2118.75,126.8594 Q2118.1563,126.5781 2117.5313,126.5781 Q2116.1875,126.5781 2115.5,127.6563 Q2114.8125,128.7188 2114.8125,130.8125 Q2114.8125,132.9063 2115.5,133.9844 Q2116.1875,135.0469 2117.5313,135.0469 Q2118.1563,135.0469 2118.75,134.7813 Q2119.3438,134.5 2119.9688,133.9219 L2119.9688,136.6406 Z " fill="#000000"/><text fill="#000000" font-family="sans-serif" font-size="14" lengthAdjust="spacing" textLength="52.2061" x="2131" y="135.8467">System</text><line style="stroke:#181818;stroke-width:0.5;" x1="2103" x2="2185.2061" y1="147" y2="147"/><line style="stroke:#181818;stroke-width:0.5;" x1="2103" x2="2185.2061" y1="155" y2="155"/></g><!--class Sampler--><g class="entity" data-qualified-name="Sampler" data-source-line="10" id="ent0024"><rect fill="#F1F1F1" height="48" rx="2.5" ry="2.5" style="stroke:#181818;stroke-width:0.5;" width="90.249" x="1973" y="223"/><ellipse cx="1988" cy="239" fill="#ADD1B2" rx="11" ry="11" style="stroke:#181818;stroke-width:1;"/><path d="M1990.9688,244.6406 Q1990.3906,244.9375 1989.75,245.0781 Q1989.1094,245.2344 1988.4063,245.2344 Q1985.9063,245.2344 1984.5781,243.5938 Q1983.2656,241.9375 1983.2656,238.8125 Q1983.2656,235.6875 1984.5781,234.0313 Q1985.9063,232.375 1988.4063,232.375 Q1989.1094,232.375 1989.75,232.5313 Q1990.4063,232.6875 1990.9688,232.9844 L1990.9688,235.7031 Q1990.3438,235.125 1989.75,234.8594 Q1989.1563,234.5781 1988.5313,234.5781 Q1987.1875,234.5781 1986.5,235.6563 Q1985.8125,236.7188 1985.8125,238.8125 Q1985.8125,240.9063 1986.5,241.9844 Q1987.1875,243.0469 1988.5313,243.0469 Q1989.1563,243.0469 1989.75,242.7813 Q1990.3438,242.5 1990.9688,241.9219 L1990.9688,244.6406 Z " fill="#000000"/><text fill="#000000" font-family="sans-serif" font-size="14" lengthAdjust="spacing" textLength="58.249" x="2002" y="243.8467">Sampler</text><line style="stroke:#181818;stroke-width:0.5;" x1="1974" x2="2062.249" y1="255" y2="255"/><line style="stroke:#181818;stroke-width:0.5;" x1="1974" x2="2062.249" y1="263" y2="263"/></g><!--class Actuator--><g class="entity" data-qualified-name="Actuator" data-source-line="11" id="ent0026"><rect fill="#F1F1F1" height="48" rx="2.5" ry="2.5" style="stroke:#181818;stroke-width:0.5;" width="92.0264" x="2098" y="223"/><ellipse cx="2113" cy="239" fill="#ADD1B2" rx="11" ry="11" style="stroke:#181818;stroke-width:1;"/><path d="M2115.9688,244.6406 Q2115.3906,244.9375 2114.75,245.0781 Q2114.1094,245.2344 2113.4063,245.2344 Q2110.9063,245.2344 2109.5781,243.5938 Q2108.2656,241.9375 2108.2656,238.8125 Q2108.2656,235.6875 2109.5781,234.0313 Q2110.9063,232.375 2113.4063,232.375 Q2114.1094,232.375 2114.75,232.5313 Q2115.4063,232.6875 2115.9688,232.9844 L2115.9688,235.7031 Q2115.3438,235.125 2114.75,234.8594 Q2114.1563,234.5781 2113.5313,234.5781 Q2112.1875,234.5781 2111.5,235.6563 Q2110.8125,236.7188 2110.8125,238.8125 Q2110.8125,240.9063 2111.5,241.9844 Q2112.1875,243.0469 2113.5313,243.0469 Q2114.1563,243.0469 2114.75,242.7813 Q2115.3438,242.5 2115.9688,241.9219 L2115.9688,244.6406 Z " fill="#000000"/><text fill="#000000" font-family="sans-serif" font-size="14" lengthAdjust="spacing" textLength="60.0264" x="2127" y="243.8467">Actuator</text><line style="stroke:#181818;stroke-width:0.5;" x1="2099" x2="2189.0264" y1="255" y2="255"/><line style="stroke:#181818;stroke-width:0.5;" x1="2099" x2="2189.0264" y1="263" y2="263"/></g><!--class Execution--><g class="entity" data-qualified-name="Execution" data-source-line="13" id="ent0029"><rect fill="#F1F1F1" height="48" rx="2.5" ry="2.5" style="stroke:#181818;stroke-width:0.5;" width="101.1318" x="2353.5" y="7"/><ellipse cx="2368.5" cy="23" fill="#ADD1B2" rx="11" ry="11" style="stroke:#181818;stroke-width:1;"/><path d="M2371.4688,28.6406 Q2370.8906,28.9375 2370.25,29.0781 Q2369.6094,29.2344 2368.9063,29.2344 Q2366.4063,29.2344 2365.0781,27.5938 Q2363.7656,25.9375 2363.7656,22.8125 Q2363.7656,19.6875 2365.0781,18.0313 Q2366.4063,16.375 2368.9063,16.375 Q2369.6094,16.375 2370.25,16.5313 Q2370.9063,16.6875 2371.4688,16.9844 L2371.4688,19.7031 Q2370.8438,19.125 2370.25,18.8594 Q2369.6563,18.5781 2369.0313,18.5781 Q2367.6875,18.5781 2367,19.6563 Q2366.3125,20.7188 2366.3125,22.8125 Q2366.3125,24.9063 2367,25.9844 Q2367.6875,27.0469 2369.0313,27.0469 Q2369.6563,27.0469 2370.25,26.7813 Q2370.8438,26.5 2371.4688,25.9219 L2371.4688,28.6406 Z " fill="#000000"/><text fill="#000000" font-family="sans-serif" font-size="14" lengthAdjust="spacing" textLength="69.1318" x="2382.5" y="27.8467">Execution</text><line style="stroke:#181818;stroke-width:0.5;" x1="2354.5" x2="2453.6318" y1="39" y2="39"/><line style="stroke:#181818;stroke-width:0.5;" x1="2354.5" x2="2453.6318" y1="47" y2="47"/></g><!--class Sampling--><g class="entity" data-qualified-name="Sampling" data-source-line="13" id="ent0030"><rect fill="#F1F1F1" height="48" rx="2.5" ry="2.5" style="stroke:#181818;stroke-width:0.5;" width="97.5293" x="2221" y="115"/><ellipse cx="2236" cy="131" fill="#ADD1B2" rx="11" ry="11" style="stroke:#181818;stroke-width:1;"/><path d="M2238.9688,136.6406 Q2238.3906,136.9375 2237.75,137.0781 Q2237.1094,137.2344 2236.4063,137.2344 Q2233.9063,137.2344 2232.5781,135.5938 Q2231.2656,133.9375 2231.2656,130.8125 Q2231.2656,127.6875 2232.5781,126.0313 Q2233.9063,124.375 2236.4063,124.375 Q2237.1094,124.375 2237.75,124.5313 Q2238.4063,124.6875 2238.9688,124.9844 L2238.9688,127.7031 Q2238.3438,127.125 2237.75,126.8594 Q2237.1563,126.5781 2236.5313,126.5781 Q2235.1875,126.5781 2234.5,127.6563 Q2233.8125,128.7188 2233.8125,130.8125 Q2233.8125,132.9063 2234.5,133.9844 Q2235.1875,135.0469 2236.5313,135.0469 Q2237.1563,135.0469 2237.75,134.7813 Q2238.3438,134.5 2238.9688,133.9219 L2238.9688,136.6406 Z " fill="#000000"/><text fill="#000000" font-family="sans-serif" font-size="14" lengthAdjust="spacing" textLength="65.5293" x="2250" y="135.8467">Sampling</text><line style="stroke:#181818;stroke-width:0.5;" x1="2222" x2="2317.5293" y1="147" y2="147"/><line style="stroke:#181818;stroke-width:0.5;" x1="2222" x2="2317.5293" y1="155" y2="155"/></g><!--class ExecutionCollection--><g class="entity" data-qualified-name="ExecutionCollection" data-source-line="14" id="ent0032"><rect fill="#F1F1F1" height="48" rx="2.5" ry="2.5" style="stroke:#181818;stroke-width:0.5;" width="170.3799" x="2841" y="7"/><ellipse cx="2856" cy="23" fill="#ADD1B2" rx="11" ry="11" style="stroke:#181818;stroke-width:1;"/><path d="M2858.9688,28.6406 Q2858.3906,28.9375 2857.75,29.0781 Q2857.1094,29.2344 2856.4063,29.2344 Q2853.9063,29.2344 2852.5781,27.5938 Q2851.2656,25.9375 2851.2656,22.8125 Q2851.2656,19.6875 2852.5781,18.0313 Q2853.9063,16.375 2856.4063,16.375 Q2857.1094,16.375 2857.75,16.5313 Q2858.4063,16.6875 2858.9688,16.9844 L2858.9688,19.7031 Q2858.3438,19.125 2857.75,18.8594 Q2857.1563,18.5781 2856.5313,18.5781 Q2855.1875,18.5781 2854.5,19.6563 Q2853.8125,20.7188 2853.8125,22.8125 Q2853.8125,24.9063 2854.5,25.9844 Q2855.1875,27.0469 2856.5313,27.0469 Q2857.1563,27.0469 2857.75,26.7813 Q2858.3438,26.5 2858.9688,25.9219 L2858.9688,28.6406 Z " fill="#000000"/><text fill="#000000" font-family="sans-serif" font-size="14" lengthAdjust="spacing" textLength="138.3799" x="2870" y="27.8467">ExecutionCollection</text><line style="stroke:#181818;stroke-width:0.5;" x1="2842" x2="3010.3799" y1="39" y2="39"/><line style="stroke:#181818;stroke-width:0.5;" x1="2842" x2="3010.3799" y1="47" y2="47"/></g><!--class SamplingCollection--><g class="entity" data-qualified-name="SamplingCollection" data-source-line="14" id="ent0033"><rect fill="#F1F1F1" height="48" rx="2.5" ry="2.5" style="stroke:#181818;stroke-width:0.5;" width="166.7773" x="2640.5" y="115"/><ellipse cx="2655.5" cy="131" fill="#ADD1B2" rx="11" ry="11" style="stroke:#181818;stroke-width:1;"/><path d="M2658.4688,136.6406 Q2657.8906,136.9375 2657.25,137.0781 Q2656.6094,137.2344 2655.9063,137.2344 Q2653.4063,137.2344 2652.0781,135.5938 Q2650.7656,133.9375 2650.7656,130.8125 Q2650.7656,127.6875 2652.0781,126.0313 Q2653.4063,124.375 2655.9063,124.375 Q2656.6094,124.375 2657.25,124.5313 Q2657.9063,124.6875 2658.4688,124.9844 L2658.4688,127.7031 Q2657.8438,127.125 2657.25,126.8594 Q2656.6563,126.5781 2656.0313,126.5781 Q2654.6875,126.5781 2654,127.6563 Q2653.3125,128.7188 2653.3125,130.8125 Q2653.3125,132.9063 2654,133.9844 Q2654.6875,135.0469 2656.0313,135.0469 Q2656.6563,135.0469 2657.25,134.7813 Q2657.8438,134.5 2658.4688,133.9219 L2658.4688,136.6406 Z " fill="#000000"/><text fill="#000000" font-family="sans-serif" font-size="14" lengthAdjust="spacing" textLength="134.7773" x="2669.5" y="135.8467">SamplingCollection</text><line style="stroke:#181818;stroke-width:0.5;" x1="2641.5" x2="2806.2773" y1="147" y2="147"/><line style="stroke:#181818;stroke-width:0.5;" x1="2641.5" x2="2806.2773" y1="155" y2="155"/></g><!--class Actuation--><g class="entity" data-qualified-name="Actuation" data-source-line="15" id="ent0035"><rect fill="#F1F1F1" height="48" rx="2.5" ry="2.5" style="stroke:#181818;stroke-width:0.5;" width="99.0332" x="2354.5" y="115"/><ellipse cx="2369.5" cy="131" fill="#ADD1B2" rx="11" ry="11" style="stroke:#181818;stroke-width:1;"/><path d="M2372.4688,136.6406 Q2371.8906,136.9375 2371.25,137.0781 Q2370.6094,137.2344 2369.9063,137.2344 Q2367.4063,137.2344 2366.0781,135.5938 Q2364.7656,133.9375 2364.7656,130.8125 Q2364.7656,127.6875 2366.0781,126.0313 Q2367.4063,124.375 2369.9063,124.375 Q2370.6094,124.375 2371.25,124.5313 Q2371.9063,124.6875 2372.4688,124.9844 L2372.4688,127.7031 Q2371.8438,127.125 2371.25,126.8594 Q2370.6563,126.5781 2370.0313,126.5781 Q2368.6875,126.5781 2368,127.6563 Q2367.3125,128.7188 2367.3125,130.8125 Q2367.3125,132.9063 2368,133.9844 Q2368.6875,135.0469 2370.0313,135.0469 Q2370.6563,135.0469 2371.25,134.7813 Q2371.8438,134.5 2372.4688,133.9219 L2372.4688,136.6406 Z " fill="#000000"/><text fill="#000000" font-family="sans-serif" font-size="14" lengthAdjust="spacing" textLength="67.0332" x="2383.5" y="135.8467">Actuation</text><line style="stroke:#181818;stroke-width:0.5;" x1="2355.5" x2="2452.5332" y1="147" y2="147"/><line style="stroke:#181818;stroke-width:0.5;" x1="2355.5" x2="2452.5332" y1="155" y2="155"/></g><!--class Sensor--><g class="entity" data-qualified-name="Sensor" data-source-line="16" id="ent0037"><rect fill="#F1F1F1" height="48" rx="2.5" ry="2.5" style="stroke:#181818;stroke-width:0.5;" width="79.9883" x="2225" y="223"/><ellipse cx="2240" cy="239" fill="#ADD1B2" rx="11" ry="11" style="stroke:#181818;stroke-width:1;"/><path d="M2242.9688,244.6406 Q2242.3906,244.9375 2241.75,245.0781 Q2241.1094,245.2344 2240.4063,245.2344 Q2237.9063,245.2344 2236.5781,243.5938 Q2235.2656,241.9375 2235.2656,238.8125 Q2235.2656,235.6875 2236.5781,234.0313 Q2237.9063,232.375 2240.4063,232.375 Q2241.1094,232.375 2241.75,232.5313 Q2242.4063,232.6875 2242.9688,232.9844 L2242.9688,235.7031 Q2242.3438,235.125 2241.75,234.8594 Q2241.1563,234.5781 2240.5313,234.5781 Q2239.1875,234.5781 2238.5,235.6563 Q2237.8125,236.7188 2237.8125,238.8125 Q2237.8125,240.9063 2238.5,241.9844 Q2239.1875,243.0469 2240.5313,243.0469 Q2241.1563,243.0469 2241.75,242.7813 Q2242.3438,242.5 2242.9688,241.9219 L2242.9688,244.6406 Z " fill="#000000"/><text fill="#000000" font-family="sans-serif" font-size="14" lengthAdjust="spacing" textLength="47.9883" x="2254" y="243.8467">Sensor</text><line style="stroke:#181818;stroke-width:0.5;" x1="2226" x2="2303.9883" y1="255" y2="255"/><line style="stroke:#181818;stroke-width:0.5;" x1="2226" x2="2303.9883" y1="263" y2="263"/></g><!--class ActuationCollection--><g class="entity" data-qualified-name="ActuationCollection" data-source-line="17" id="ent0039"><rect fill="#F1F1F1" height="48" rx="2.5" ry="2.5" style="stroke:#181818;stroke-width:0.5;" width="168.2813" x="2842" y="115"/><ellipse cx="2857" cy="131" fill="#ADD1B2" rx="11" ry="11" style="stroke:#181818;stroke-width:1;"/><path d="M2859.9688,136.6406 Q2859.3906,136.9375 2858.75,137.0781 Q2858.1094,137.2344 2857.4063,137.2344 Q2854.9063,137.2344 2853.5781,135.5938 Q2852.2656,133.9375 2852.2656,130.8125 Q2852.2656,127.6875 2853.5781,126.0313 Q2854.9063,124.375 2857.4063,124.375 Q2858.1094,124.375 2858.75,124.5313 Q2859.4063,124.6875 2859.9688,124.9844 L2859.9688,127.7031 Q2859.3438,127.125 2858.75,126.8594 Q2858.1563,126.5781 2857.5313,126.5781 Q2856.1875,126.5781 2855.5,127.6563 Q2854.8125,128.7188 2854.8125,130.8125 Q2854.8125,132.9063 2855.5,133.9844 Q2856.1875,135.0469 2857.5313,135.0469 Q2858.1563,135.0469 2858.75,134.7813 Q2859.3438,134.5 2859.9688,133.9219 L2859.9688,136.6406 Z " fill="#000000"/><text fill="#000000" font-family="sans-serif" font-size="14" lengthAdjust="spacing" textLength="136.2813" x="2871" y="135.8467">ActuationCollection</text><line style="stroke:#181818;stroke-width:0.5;" x1="2843" x2="3009.2813" y1="147" y2="147"/><line style="stroke:#181818;stroke-width:0.5;" x1="2843" x2="3009.2813" y1="155" y2="155"/></g><!--class ObservationCollection--><g class="entity" data-qualified-name="ObservationCollection" data-source-line="18" id="ent0041"><rect fill="#F1F1F1" height="48" rx="2.5" ry="2.5" style="stroke:#181818;stroke-width:0.5;" width="186.499" x="3045" y="115"/><ellipse cx="3060" cy="131" fill="#ADD1B2" rx="11" ry="11" style="stroke:#181818;stroke-width:1;"/><path d="M3062.9688,136.6406 Q3062.3906,136.9375 3061.75,137.0781 Q3061.1094,137.2344 3060.4063,137.2344 Q3057.9063,137.2344 3056.5781,135.5938 Q3055.2656,133.9375 3055.2656,130.8125 Q3055.2656,127.6875 3056.5781,126.0313 Q3057.9063,124.375 3060.4063,124.375 Q3061.1094,124.375 3061.75,124.5313 Q3062.4063,124.6875 3062.9688,124.9844 L3062.9688,127.7031 Q3062.3438,127.125 3061.75,126.8594 Q3061.1563,126.5781 3060.5313,126.5781 Q3059.1875,126.5781 3058.5,127.6563 Q3057.8125,128.7188 3057.8125,130.8125 Q3057.8125,132.9063 3058.5,133.9844 Q3059.1875,135.0469 3060.5313,135.0469 Q3061.1563,135.0469 3061.75,134.7813 Q3062.3438,134.5 3062.9688,133.9219 L3062.9688,136.6406 Z " fill="#000000"/><text fill="#000000" font-family="sans-serif" font-size="14" lengthAdjust="spacing" textLength="154.499" x="3074" y="135.8467">ObservationCollection</text><line style="stroke:#181818;stroke-width:0.5;" x1="3046" x2="3230.499" y1="147" y2="147"/><line style="stroke:#181818;stroke-width:0.5;" x1="3046" x2="3230.499" y1="155" y2="155"/></g><!--class Observation--><g class="entity" data-qualified-name="Observation" data-source-line="19" id="ent0043"><rect fill="#F1F1F1" height="48" rx="2.5" ry="2.5" style="stroke:#181818;stroke-width:0.5;" width="117.251" x="2488.5" y="115"/><ellipse cx="2503.5" cy="131" fill="#ADD1B2" rx="11" ry="11" style="stroke:#181818;stroke-width:1;"/><path d="M2506.4688,136.6406 Q2505.8906,136.9375 2505.25,137.0781 Q2504.6094,137.2344 2503.9063,137.2344 Q2501.4063,137.2344 2500.0781,135.5938 Q2498.7656,133.9375 2498.7656,130.8125 Q2498.7656,127.6875 2500.0781,126.0313 Q2501.4063,124.375 2503.9063,124.375 Q2504.6094,124.375 2505.25,124.5313 Q2505.9063,124.6875 2506.4688,124.9844 L2506.4688,127.7031 Q2505.8438,127.125 2505.25,126.8594 Q2504.6563,126.5781 2504.0313,126.5781 Q2502.6875,126.5781 2502,127.6563 Q2501.3125,128.7188 2501.3125,130.8125 Q2501.3125,132.9063 2502,133.9844 Q2502.6875,135.0469 2504.0313,135.0469 Q2504.6563,135.0469 2505.25,134.7813 Q2505.8438,134.5 2506.4688,133.9219 L2506.4688,136.6406 Z " fill="#000000"/><text fill="#000000" font-family="sans-serif" font-size="14" lengthAdjust="spacing" textLength="85.251" x="2517.5" y="135.8467">Observation</text><line style="stroke:#181818;stroke-width:0.5;" x1="2489.5" x2="2604.751" y1="147" y2="147"/><line style="stroke:#181818;stroke-width:0.5;" x1="2489.5" x2="2604.751" y1="155" y2="155"/></g><!--class Stimulus--><g class="entity" data-qualified-name="Stimulus" data-source-line="21" id="ent0045"><rect fill="#F1F1F1" height="48" rx="2.5" ry="2.5" style="stroke:#181818;stroke-width:0.5;" width="92.833" x="38.5" y="7"/><ellipse cx="53.5" cy="23" fill="#ADD1B2" rx="11" ry="11" style="stroke:#181818;stroke-width:1;"/><path d="M56.4688,28.6406 Q55.8906,28.9375 55.25,29.0781 Q54.6094,29.2344 53.9063,29.2344 Q51.4063,29.2344 50.0781,27.5938 Q48.7656,25.9375 48.7656,22.8125 Q48.7656,19.6875 50.0781,18.0313 Q51.4063,16.375 53.9063,16.375 Q54.6094,16.375 55.25,16.5313 Q55.9063,16.6875 56.4688,16.9844 L56.4688,19.7031 Q55.8438,19.125 55.25,18.8594 Q54.6563,18.5781 54.0313,18.5781 Q52.6875,18.5781 52,19.6563 Q51.3125,20.7188 51.3125,22.8125 Q51.3125,24.9063 52,25.9844 Q52.6875,27.0469 54.0313,27.0469 Q54.6563,27.0469 55.25,26.7813 Q55.8438,26.5 56.4688,25.9219 L56.4688,28.6406 Z " fill="#000000"/><text fill="#000000" font-family="sans-serif" font-size="14" lengthAdjust="spacing" textLength="60.833" x="67.5" y="27.8467">Stimulus</text><line style="stroke:#181818;stroke-width:0.5;" x1="39.5" x2="130.333" y1="39" y2="39"/><line style="stroke:#181818;stroke-width:0.5;" x1="39.5" x2="130.333" y1="47" y2="47"/></g><!--class Deployment--><g class="entity" data-qualified-name="Deployment" data-source-line="22" id="ent0046"><rect fill="#F1F1F1" height="48" rx="2.5" ry="2.5" style="stroke:#181818;stroke-width:0.5;" width="117.6338" x="167" y="7"/><ellipse cx="182" cy="23" fill="#ADD1B2" rx="11" ry="11" style="stroke:#181818;stroke-width:1;"/><path d="M184.9688,28.6406 Q184.3906,28.9375 183.75,29.0781 Q183.1094,29.2344 182.4063,29.2344 Q179.9063,29.2344 178.5781,27.5938 Q177.2656,25.9375 177.2656,22.8125 Q177.2656,19.6875 178.5781,18.0313 Q179.9063,16.375 182.4063,16.375 Q183.1094,16.375 183.75,16.5313 Q184.4063,16.6875 184.9688,16.9844 L184.9688,19.7031 Q184.3438,19.125 183.75,18.8594 Q183.1563,18.5781 182.5313,18.5781 Q181.1875,18.5781 180.5,19.6563 Q179.8125,20.7188 179.8125,22.8125 Q179.8125,24.9063 180.5,25.9844 Q181.1875,27.0469 182.5313,27.0469 Q183.1563,27.0469 183.75,26.7813 Q184.3438,26.5 184.9688,25.9219 L184.9688,28.6406 Z " fill="#000000"/><text fill="#000000" font-family="sans-serif" font-size="14" lengthAdjust="spacing" textLength="85.6338" x="196" y="27.8467">Deployment</text><line style="stroke:#181818;stroke-width:0.5;" x1="168" x2="283.6338" y1="39" y2="39"/><line style="stroke:#181818;stroke-width:0.5;" x1="168" x2="283.6338" y1="47" y2="47"/></g><!--class Output--><g class="entity" data-qualified-name="Output" data-source-line="23" id="ent0047"><rect fill="#F1F1F1" height="48" rx="2.5" ry="2.5" style="stroke:#181818;stroke-width:0.5;" width="80.6309" x="320.5" y="7"/><ellipse cx="335.5" cy="23" fill="#ADD1B2" rx="11" ry="11" style="stroke:#181818;stroke-width:1;"/><path d="M338.4688,28.6406 Q337.8906,28.9375 337.25,29.0781 Q336.6094,29.2344 335.9063,29.2344 Q333.4063,29.2344 332.0781,27.5938 Q330.7656,25.9375 330.7656,22.8125 Q330.7656,19.6875 332.0781,18.0313 Q333.4063,16.375 335.9063,16.375 Q336.6094,16.375 337.25,16.5313 Q337.9063,16.6875 338.4688,16.9844 L338.4688,19.7031 Q337.8438,19.125 337.25,18.8594 Q336.6563,18.5781 336.0313,18.5781 Q334.6875,18.5781 334,19.6563 Q333.3125,20.7188 333.3125,22.8125 Q333.3125,24.9063 334,25.9844 Q334.6875,27.0469 336.0313,27.0469 Q336.6563,27.0469 337.25,26.7813 Q337.8438,26.5 338.4688,25.9219 L338.4688,28.6406 Z " fill="#000000"/><text fill="#000000" font-family="sans-serif" font-size="14" lengthAdjust="spacing" textLength="48.6309" x="349.5" y="27.8467">Output</text><line style="stroke:#181818;stroke-width:0.5;" x1="321.5" x2="400.1309" y1="39" y2="39"/><line style="stroke:#181818;stroke-width:0.5;" x1="321.5" x2="400.1309" y1="47" y2="47"/></g><!--class SampleCollection--><g class="entity" data-qualified-name="SampleCollection" data-source-line="26" id="ent0048"><rect fill="#F1F1F1" height="48" rx="2.5" ry="2.5" style="stroke:#181818;stroke-width:0.5;" width="153.7412" x="8" y="115"/><ellipse cx="23" cy="131" fill="#ADD1B2" rx="11" ry="11" style="stroke:#181818;stroke-width:1;"/><path d="M25.9688,136.6406 Q25.3906,136.9375 24.75,137.0781 Q24.1094,137.2344 23.4063,137.2344 Q20.9063,137.2344 19.5781,135.5938 Q18.2656,133.9375 18.2656,130.8125 Q18.2656,127.6875 19.5781,126.0313 Q20.9063,124.375 23.4063,124.375 Q24.1094,124.375 24.75,124.5313 Q25.4063,124.6875 25.9688,124.9844 L25.9688,127.7031 Q25.3438,127.125 24.75,126.8594 Q24.1563,126.5781 23.5313,126.5781 Q22.1875,126.5781 21.5,127.6563 Q20.8125,128.7188 20.8125,130.8125 Q20.8125,132.9063 21.5,133.9844 Q22.1875,135.0469 23.5313,135.0469 Q24.1563,135.0469 24.75,134.7813 Q25.3438,134.5 25.9688,133.9219 L25.9688,136.6406 Z " fill="#000000"/><text fill="#000000" font-family="sans-serif" font-size="14" lengthAdjust="spacing" textLength="121.7412" x="37" y="135.8467">SampleCollection</text><line style="stroke:#181818;stroke-width:0.5;" x1="9" x2="160.7412" y1="147" y2="147"/><line style="stroke:#181818;stroke-width:0.5;" x1="9" x2="160.7412" y1="155" y2="155"/></g><!--class Input--><g class="entity" data-qualified-name="Input" data-source-line="27" id="ent0049"><rect fill="#F1F1F1" height="48" rx="2.5" ry="2.5" style="stroke:#181818;stroke-width:0.5;" width="68.251" x="197" y="115"/><ellipse cx="212" cy="131" fill="#ADD1B2" rx="11" ry="11" style="stroke:#181818;stroke-width:1;"/><path d="M214.9688,136.6406 Q214.3906,136.9375 213.75,137.0781 Q213.1094,137.2344 212.4063,137.2344 Q209.9063,137.2344 208.5781,135.5938 Q207.2656,133.9375 207.2656,130.8125 Q207.2656,127.6875 208.5781,126.0313 Q209.9063,124.375 212.4063,124.375 Q213.1094,124.375 213.75,124.5313 Q214.4063,124.6875 214.9688,124.9844 L214.9688,127.7031 Q214.3438,127.125 213.75,126.8594 Q213.1563,126.5781 212.5313,126.5781 Q211.1875,126.5781 210.5,127.6563 Q209.8125,128.7188 209.8125,130.8125 Q209.8125,132.9063 210.5,133.9844 Q211.1875,135.0469 212.5313,135.0469 Q213.1563,135.0469 213.75,134.7813 Q214.3438,134.5 214.9688,133.9219 L214.9688,136.6406 Z " fill="#000000"/><text fill="#000000" font-family="sans-serif" font-size="14" lengthAdjust="spacing" textLength="36.251" x="226" y="135.8467">Input</text><line style="stroke:#181818;stroke-width:0.5;" x1="198" x2="264.251" y1="147" y2="147"/><line style="stroke:#181818;stroke-width:0.5;" x1="198" x2="264.251" y1="155" y2="155"/></g><!--class Result--><g class="entity" data-qualified-name="Result" data-source-line="28" id="ent0050"><rect fill="#F1F1F1" height="48" rx="2.5" ry="2.5" style="stroke:#181818;stroke-width:0.5;" width="75.8867" x="300" y="115"/><ellipse cx="315" cy="131" fill="#ADD1B2" rx="11" ry="11" style="stroke:#181818;stroke-width:1;"/><path d="M317.9688,136.6406 Q317.3906,136.9375 316.75,137.0781 Q316.1094,137.2344 315.4063,137.2344 Q312.9063,137.2344 311.5781,135.5938 Q310.2656,133.9375 310.2656,130.8125 Q310.2656,127.6875 311.5781,126.0313 Q312.9063,124.375 315.4063,124.375 Q316.1094,124.375 316.75,124.5313 Q317.4063,124.6875 317.9688,124.9844 L317.9688,127.7031 Q317.3438,127.125 316.75,126.8594 Q316.1563,126.5781 315.5313,126.5781 Q314.1875,126.5781 313.5,127.6563 Q312.8125,128.7188 312.8125,130.8125 Q312.8125,132.9063 313.5,133.9844 Q314.1875,135.0469 315.5313,135.0469 Q316.1563,135.0469 316.75,134.7813 Q317.3438,134.5 317.9688,133.9219 L317.9688,136.6406 Z " fill="#000000"/><text fill="#000000" font-family="sans-serif" font-size="14" lengthAdjust="spacing" textLength="43.8867" x="329" y="135.8467">Result</text><line style="stroke:#181818;stroke-width:0.5;" x1="301" x2="374.8867" y1="147" y2="147"/><line style="stroke:#181818;stroke-width:0.5;" x1="301" x2="374.8867" y1="155" y2="155"/></g><!--class FeatureOfInterest--><g class="entity" data-qualified-name="FeatureOfInterest" data-source-line="30" id="ent0051"><rect fill="#F1F1F1" height="48" rx="2.5" ry="2.5" style="stroke:#181818;stroke-width:0.5;" width="156.1816" x="7" y="223"/><ellipse cx="22" cy="239" fill="#ADD1B2" rx="11" ry="11" style="stroke:#181818;stroke-width:1;"/><path d="M24.9688,244.6406 Q24.3906,244.9375 23.75,245.0781 Q23.1094,245.2344 22.4063,245.2344 Q19.9063,245.2344 18.5781,243.5938 Q17.2656,241.9375 17.2656,238.8125 Q17.2656,235.6875 18.5781,234.0313 Q19.9063,232.375 22.4063,232.375 Q23.1094,232.375 23.75,232.5313 Q24.4063,232.6875 24.9688,232.9844 L24.9688,235.7031 Q24.3438,235.125 23.75,234.8594 Q23.1563,234.5781 22.5313,234.5781 Q21.1875,234.5781 20.5,235.6563 Q19.8125,236.7188 19.8125,238.8125 Q19.8125,240.9063 20.5,241.9844 Q21.1875,243.0469 22.5313,243.0469 Q23.1563,243.0469 23.75,242.7813 Q24.3438,242.5 24.9688,241.9219 L24.9688,244.6406 Z " fill="#000000"/><text fill="#000000" font-family="sans-serif" font-size="14" lengthAdjust="spacing" textLength="124.1816" x="36" y="243.8467">FeatureOfInterest</text><line style="stroke:#181818;stroke-width:0.5;" x1="8" x2="162.1816" y1="255" y2="255"/><line style="stroke:#181818;stroke-width:0.5;" x1="8" x2="162.1816" y1="263" y2="263"/></g><!--reverse link Property to ActuatableProperty--><g class="link" data-entity-1="ent0001" data-entity-2="ent0002" data-link-type="extension" data-source-line="1" id="lnk3"><path codeLine="1" d="M562.3905,67.9716 C545.4005,85.6316 534.51,96.94 517.44,114.68" fill="none" id="Property-backto-ActuatableProperty" style="stroke:#181818;stroke-width:1;"/><polygon fill="none" points="574.87,55,558.0667,63.8118,566.7144,72.1314,574.87,55" style="stroke:#181818;stroke-width:1;stroke-linejoin:miter;stroke-miterlimit:10;"/></g><!--reverse link Sample to MaterialSample--><g class="link" data-entity-1="ent0004" data-entity-2="ent0005" data-link-type="extension" data-source-line="2" id="lnk6"><path codeLine="2" d="M1011.3567,64.4445 C982.6067,82.1645 958.35,97.11 929.55,114.86" fill="none" id="Sample-backto-MaterialSample" style="stroke:#181818;stroke-width:1;"/><polygon fill="none" points="1026.68,55,1008.2086,59.3367,1014.5049,69.5522,1026.68,55" style="stroke:#181818;stroke-width:1;stroke-linejoin:miter;stroke-miterlimit:10;"/></g><!--reverse link Sample to SpatialSample--><g class="link" data-entity-1="ent0004" data-entity-2="ent0007" data-link-type="extension" data-source-line="3" id="lnk8"><path codeLine="3" d="M1064,73 C1064,90.66 1064,96.94 1064,114.68" fill="none" id="Sample-backto-SpatialSample" style="stroke:#181818;stroke-width:1;"/><polygon fill="none" points="1064,55,1058,73,1070,73,1064,55" style="stroke:#181818;stroke-width:1;stroke-linejoin:miter;stroke-miterlimit:10;"/></g><!--reverse link Sample to StatisticalSample--><g class="link" data-entity-1="ent0004" data-entity-2="ent0009" data-link-type="extension" data-source-line="4" id="lnk10"><path codeLine="4" d="M1118.3276,64.1725 C1148.2476,81.8925 1173.95,97.11 1203.93,114.86" fill="none" id="Sample-backto-StatisticalSample" style="stroke:#181818;stroke-width:1;"/><polygon fill="none" points="1102.84,55,1115.2701,69.335,1121.3851,59.0099,1102.84,55" style="stroke:#181818;stroke-width:1;stroke-linejoin:miter;stroke-miterlimit:10;"/></g><!--reverse link Property to ObservableProperty--><g class="link" data-entity-1="ent0001" data-entity-2="ent0011" data-link-type="extension" data-source-line="5" id="lnk12"><path codeLine="5" d="M631.8939,67.9094 C649.0539,85.5694 660.1,96.94 677.34,114.68" fill="none" id="Property-backto-ObservableProperty" style="stroke:#181818;stroke-width:1;"/><polygon fill="none" points="619.35,55,627.5907,72.0906,636.197,63.7281,619.35,55" style="stroke:#181818;stroke-width:1;stroke-linejoin:miter;stroke-miterlimit:10;"/></g><!--reverse link Procedure to ActuatingProcedure--><g class="link" data-entity-1="ent0013" data-entity-2="ent0014" data-link-type="extension" data-source-line="6" id="lnk15"><path codeLine="6" d="M1587.8326,63.1732 C1553.0626,80.8932 1521.24,97.11 1486.4,114.86" fill="none" id="Procedure-backto-ActuatingProcedure" style="stroke:#181818;stroke-width:1;"/><polygon fill="none" points="1603.87,55,1585.1082,57.8274,1590.557,68.519,1603.87,55" style="stroke:#181818;stroke-width:1;stroke-linejoin:miter;stroke-miterlimit:10;"/></g><!--reverse link Procedure to ObservingProcedure--><g class="link" data-entity-1="ent0013" data-entity-2="ent0016" data-link-type="extension" data-source-line="7" id="lnk17"><path codeLine="7" d="M1649,73 C1649,90.66 1649,96.94 1649,114.68" fill="none" id="Procedure-backto-ObservingProcedure" style="stroke:#181818;stroke-width:1;"/><polygon fill="none" points="1649,55,1643,73,1655,73,1649,55" style="stroke:#181818;stroke-width:1;stroke-linejoin:miter;stroke-miterlimit:10;"/></g><!--reverse link Procedure to SamplingProcedure--><g class="link" data-entity-1="ent0013" data-entity-2="ent0018" data-link-type="extension" data-source-line="8" id="lnk19"><path codeLine="8" d="M1709.9411,63.205 C1744.5411,80.925 1776.15,97.11 1810.81,114.86" fill="none" id="Procedure-backto-SamplingProcedure" style="stroke:#181818;stroke-width:1;"/><polygon fill="none" points="1693.92,55,1707.2061,68.5454,1712.6762,57.8647,1693.92,55" style="stroke:#181818;stroke-width:1;stroke-linejoin:miter;stroke-miterlimit:10;"/></g><!--reverse link Asset to Platform--><g class="link" data-entity-1="ent0020" data-entity-2="ent0021" data-link-type="extension" data-source-line="9" id="lnk22"><path codeLine="9" d="M2059.7839,70.6022 C2049.6239,88.2622 2044.63,96.94 2034.42,114.68" fill="none" id="Asset-backto-Platform" style="stroke:#181818;stroke-width:1;"/><polygon fill="none" points="2068.76,55,2054.5831,67.6102,2064.9846,73.5943,2068.76,55" style="stroke:#181818;stroke-width:1;stroke-linejoin:miter;stroke-miterlimit:10;"/></g><!--reverse link System to Sampler--><g class="link" data-entity-1="ent0023" data-entity-2="ent0024" data-link-type="extension" data-source-line="10" id="lnk25"><path codeLine="10" d="M2102.8865,174.5884 C2081.8965,192.2484 2066.81,204.94 2045.72,222.68" fill="none" id="System-backto-Sampler" style="stroke:#181818;stroke-width:1;"/><polygon fill="none" points="2116.66,163,2099.0237,169.9972,2106.7493,179.1795,2116.66,163" style="stroke:#181818;stroke-width:1;stroke-linejoin:miter;stroke-miterlimit:10;"/></g><!--reverse link System to Actuator--><g class="link" data-entity-1="ent0023" data-entity-2="ent0026" data-link-type="extension" data-source-line="11" id="lnk27"><path codeLine="11" d="M2144,181 C2144,198.66 2144,204.94 2144,222.68" fill="none" id="System-backto-Actuator" style="stroke:#181818;stroke-width:1;"/><polygon fill="none" points="2144,163,2138,181,2150,181,2144,163" style="stroke:#181818;stroke-width:1;stroke-linejoin:miter;stroke-miterlimit:10;"/></g><!--reverse link Asset to System--><g class="link" data-entity-1="ent0020" data-entity-2="ent0023" data-link-type="extension" data-source-line="12" id="lnk28"><path codeLine="12" d="M2104.5383,70.5372 C2114.8683,88.1972 2119.98,96.94 2130.36,114.68" fill="none" id="Asset-backto-System" style="stroke:#181818;stroke-width:1;"/><polygon fill="none" points="2095.45,55,2099.3592,73.5666,2109.7173,67.5077,2095.45,55" style="stroke:#181818;stroke-width:1;stroke-linejoin:miter;stroke-miterlimit:10;"/></g><!--reverse link Execution to Sampling--><g class="link" data-entity-1="ent0029" data-entity-2="ent0030" data-link-type="extension" data-source-line="13" id="lnk31"><path codeLine="13" d="M2360.8041,66.1688 C2338.4841,83.8288 2321.91,96.94 2299.48,114.68" fill="none" id="Execution-backto-Sampling" style="stroke:#181818;stroke-width:1;"/><polygon fill="none" points="2374.92,55,2357.0812,61.4635,2364.527,70.8741,2374.92,55" style="stroke:#181818;stroke-width:1;stroke-linejoin:miter;stroke-miterlimit:10;"/></g><!--reverse link ExecutionCollection to SamplingCollection--><g class="link" data-entity-1="ent0032" data-entity-2="ent0033" data-link-type="extension" data-source-line="14" id="lnk34"><path codeLine="14" d="M2866.231,63.3636 C2832.461,81.0836 2801.93,97.11 2768.09,114.86" fill="none" id="ExecutionCollection-backto-SamplingCollection" style="stroke:#181818;stroke-width:1;"/><polygon fill="none" points="2882.17,55,2863.4432,58.0506,2869.0189,68.6766,2882.17,55" style="stroke:#181818;stroke-width:1;stroke-linejoin:miter;stroke-miterlimit:10;"/></g><!--reverse link Execution to Actuation--><g class="link" data-entity-1="ent0029" data-entity-2="ent0035" data-link-type="extension" data-source-line="15" id="lnk36"><path codeLine="15" d="M2404,73 C2404,90.66 2404,96.94 2404,114.68" fill="none" id="Execution-backto-Actuation" style="stroke:#181818;stroke-width:1;"/><polygon fill="none" points="2404,55,2398,73,2410,73,2404,55" style="stroke:#181818;stroke-width:1;stroke-linejoin:miter;stroke-miterlimit:10;"/></g><!--reverse link System to Sensor--><g class="link" data-entity-1="ent0023" data-entity-2="ent0037" data-link-type="extension" data-source-line="16" id="lnk38"><path codeLine="16" d="M2183.7968,174.864 C2203.9468,192.524 2218.13,204.94 2238.38,222.68" fill="none" id="System-backto-Sensor" style="stroke:#181818;stroke-width:1;"/><polygon fill="none" points="2170.26,163,2179.8421,179.3763,2187.7515,170.3518,2170.26,163" style="stroke:#181818;stroke-width:1;stroke-linejoin:miter;stroke-miterlimit:10;"/></g><!--reverse link ExecutionCollection to ActuationCollection--><g class="link" data-entity-1="ent0032" data-entity-2="ent0039" data-link-type="extension" data-source-line="17" id="lnk40"><path codeLine="17" d="M2926,73 C2926,90.66 2926,96.94 2926,114.68" fill="none" id="ExecutionCollection-backto-ActuationCollection" style="stroke:#181818;stroke-width:1;"/><polygon fill="none" points="2926,55,2920,73,2932,73,2926,55" style="stroke:#181818;stroke-width:1;stroke-linejoin:miter;stroke-miterlimit:10;"/></g><!--reverse link ExecutionCollection to ObservationCollection--><g class="link" data-entity-1="ent0032" data-entity-2="ent0041" data-link-type="extension" data-source-line="18" id="lnk42"><path codeLine="18" d="M2988.0997,63.0498 C3023.5397,80.7698 3056.22,97.11 3091.72,114.86" fill="none" id="ExecutionCollection-backto-ObservationCollection" style="stroke:#181818;stroke-width:1;"/><polygon fill="none" points="2972,55,2985.4164,68.4164,2990.783,57.6833,2972,55" style="stroke:#181818;stroke-width:1;stroke-linejoin:miter;stroke-miterlimit:10;"/></g><!--reverse link Execution to Observation--><g class="link" data-entity-1="ent0029" data-entity-2="ent0043" data-link-type="extension" data-source-line="19" id="lnk44"><path codeLine="19" d="M2449.4895,65.7202 C2473.3095,83.3802 2491.61,96.94 2515.54,114.68" fill="none" id="Execution-backto-Observation" style="stroke:#181818;stroke-width:1;"/><polygon fill="none" points="2435.03,55,2445.9161,70.54,2453.0629,60.9004,2435.03,55" style="stroke:#181818;stroke-width:1;stroke-linejoin:miter;stroke-miterlimit:10;"/></g><?plantuml-src VL9RRi8m4FpFARW0D-WFegt41qhKd60n2xAqViYxHetKmzV29ea3uIyxCpipjjC5vp78iFdussutEoKH14w4NS6R7emdpFGH18C6obX5zHvaXP74i6WribsLsPuOmwtAJ1yApp7Wl9Msrn5VAhB7EyKzkXBic54osH78nGNJz0CBcja6XWhBJLoOBsU--Vf55KKxM-TD-DuHeNfMJFZIevmx4LKlj9mQhFgEMw-Cb-9o-Mlo9r6Z29WVPow3Q1CfSXa_qPCR35efG1l5nySmll6AED_wh4k63tQo-46E9A_3ln4aFMvxETZqgoBBFm00?></g></svg>