<svg xmlns="http://www.w3.org/2000/svg" xmlns:xlink="http://www.w3.org/1999/xlink" contentStyleType="text/css" data-diagram-type="CLASS" height="286px" preserveAspectRatio="none" style="width:3294px;height:286px;background:#FFFFFF;" version="1.1" viewBox="0 0 3294 286" width="3294px" zoomAndPan="magnify"><?plantuml 1.2026.6?><defs/><g><!--class Property--><g class="entity" data-qualified-name="Property" data-source-line="1" id="ent0001"><rect fill="#F1F1F1" height="48" rx="2.5" ry="2.5" style="stroke:#181818;stroke-width:0.5;" width="91.7939" x="599" y="7"/><ellipse cx="614" cy="23" fill="#ADD1B2" rx="11" ry="11" style="stroke:#181818;stroke-width:1;"/><path d="M616.9688,28.6406 Q616.3906,28.9375 615.75,29.0781 Q615.1094,29.2344 614.4063,29.2344 Q611.9063,29.2344 610.5781,27.5938 Q609.2656,25.9375 609.2656,22.8125 Q609.2656,19.6875 610.5781,18.0313 Q611.9063,16.375 614.4063,16.375 Q615.1094,16.375 615.75,16.5313 Q616.4063,16.6875 616.9688,16.9844 L616.9688,19.7031 Q616.3438,19.125 615.75,18.8594 Q615.1563,18.5781 614.5313,18.5781 Q613.1875,18.5781 612.5,19.6563 Q611.8125,20.7188 611.8125,22.8125 Q611.8125,24.9063 612.5,25.9844 Q613.1875,27.0469 614.5313,27.0469 Q615.1563,27.0469 615.75,26.7813 Q616.3438,26.5 616.9688,25.9219 L616.9688,28.6406 Z " fill="#000000"/><text fill="#000000" font-family="sans-serif" font-size="14" lengthAdjust="spacing" textLength="59.7939" x="628" y="27.8467">Property</text><line style="stroke:#181818;stroke-width:0.5;" x1="600" x2="689.7939" y1="39" y2="39"/><line style="stroke:#181818;stroke-width:0.5;" x1="600" x2="689.7939" y1="47" y2="47"/></g><!--class ActuatableProperty--><g class="entity" data-qualified-name="ActuatableProperty" data-source-line="1" id="ent0002"><rect fill="#F1F1F1" height="48" rx="2.5" ry="2.5" style="stroke:#181818;stroke-width:0.5;" width="167.4678" x="459.5" y="115"/><ellipse cx="474.5" cy="131" fill="#ADD1B2" rx="11" ry="11" style="stroke:#181818;stroke-width:1;"/><path d="M477.4688,136.6406 Q476.8906,136.9375 476.25,137.0781 Q475.6094,137.2344 474.9063,137.2344 Q472.4063,137.2344 471.0781,135.5938 Q469.7656,133.9375 469.7656,130.8125 Q469.7656,127.6875 471.0781,126.0313 Q472.4063,124.375 474.9063,124.375 Q475.6094,124.375 476.25,124.5313 Q476.9063,124.6875 477.4688,124.9844 L477.4688,127.7031 Q476.8438,127.125 476.25,126.8594 Q475.6563,126.5781 475.0313,126.5781 Q473.6875,126.5781 473,127.6563 Q472.3125,128.7188 472.3125,130.8125 Q472.3125,132.9063 473,133.9844 Q473.6875,135.0469 475.0313,135.0469 Q475.6563,135.0469 476.25,134.7813 Q476.8438,134.5 477.4688,133.9219 L477.4688,136.6406 Z " fill="#000000"/><text fill="#000000" font-family="sans-serif" font-size="14" lengthAdjust="spacing" textLength="135.4678" x="488.5" y="135.8467">ActuatableProperty</text><line style="stroke:#181818;stroke-width:0.5;" x1="460.5" x2="625.9678" y1="147" y2="147"/><line style="stroke:#181818;stroke-width:0.5;" x1="460.5" x2="625.9678" y1="155" y2="155"/></g><!--class Sample--><g class="entity" data-qualified-name="Sample" data-source-line="2" id="ent0004"><rect fill="#F1F1F1" height="48" rx="2.5" ry="2.5" style="stroke:#181818;stroke-width:0.5;" width="84.4932" x="1070" y="7"/><ellipse cx="1085" cy="23" fill="#ADD1B2" rx="11" ry="11" style="stroke:#181818;stroke-width:1;"/><path d="M1087.9688,28.6406 Q1087.3906,28.9375 1086.75,29.0781 Q1086.1094,29.2344 1085.4063,29.2344 Q1082.9063,29.2344 1081.5781,27.5938 Q1080.2656,25.9375 1080.2656,22.8125 Q1080.2656,19.6875 1081.5781,18.0313 Q1082.9063,16.375 1085.4063,16.375 Q1086.1094,16.375 1086.75,16.5313 Q1087.4063,16.6875 1087.9688,16.9844 L1087.9688,19.7031 Q1087.3438,19.125 1086.75,18.8594 Q1086.1563,18.5781 1085.5313,18.5781 Q1084.1875,18.5781 1083.5,19.6563 Q1082.8125,20.7188 1082.8125,22.8125 Q1082.8125,24.9063 1083.5,25.9844 Q1084.1875,27.0469 1085.5313,27.0469 Q1086.1563,27.0469 1086.75,26.7813 Q1087.3438,26.5 1087.9688,25.9219 L1087.9688,28.6406 Z " fill="#000000"/><text fill="#000000" font-family="sans-serif" font-size="14" lengthAdjust="spacing" textLength="52.4932" x="1099" y="27.8467">Sample</text><line style="stroke:#181818;stroke-width:0.5;" x1="1071" x2="1153.4932" y1="39" y2="39"/><line style="stroke:#181818;stroke-width:0.5;" x1="1071" x2="1153.4932" y1="47" y2="47"/></g><!--class MaterialSample--><g class="entity" data-qualified-name="MaterialSample" data-source-line="2" id="ent0005"><rect fill="#F1F1F1" height="48" rx="2.5" ry="2.5" style="stroke:#181818;stroke-width:0.5;" width="141.3682" x="869.5" y="115"/><ellipse cx="884.5" cy="131" fill="#ADD1B2" rx="11" ry="11" style="stroke:#181818;stroke-width:1;"/><path d="M887.4688,136.6406 Q886.8906,136.9375 886.25,137.0781 Q885.6094,137.2344 884.9063,137.2344 Q882.4063,137.2344 881.0781,135.5938 Q879.7656,133.9375 879.7656,130.8125 Q879.7656,127.6875 881.0781,126.0313 Q882.4063,124.375 884.9063,124.375 Q885.6094,124.375 886.25,124.5313 Q886.9063,124.6875 887.4688,124.9844 L887.4688,127.7031 Q886.8438,127.125 886.25,126.8594 Q885.6563,126.5781 885.0313,126.5781 Q883.6875,126.5781 883,127.6563 Q882.3125,128.7188 882.3125,130.8125 Q882.3125,132.9063 883,133.9844 Q883.6875,135.0469 885.0313,135.0469 Q885.6563,135.0469 886.25,134.7813 Q886.8438,134.5 887.4688,133.9219 L887.4688,136.6406 Z " fill="#000000"/><text fill="#000000" font-family="sans-serif" font-size="14" lengthAdjust="spacing" textLength="109.3682" x="898.5" y="135.8467">MaterialSample</text><line style="stroke:#181818;stroke-width:0.5;" x1="870.5" x2="1009.8682" y1="147" y2="147"/><line style="stroke:#181818;stroke-width:0.5;" x1="870.5" x2="1009.8682" y1="155" y2="155"/></g><!--class SpatialSample--><g class="entity" data-qualified-name="SpatialSample" data-source-line="3" id="ent0007"><rect fill="#F1F1F1" height="48" rx="2.5" ry="2.5" style="stroke:#181818;stroke-width:0.5;" width="132.6934" x="1045.5" y="115"/><ellipse cx="1060.5" cy="131" fill="#ADD1B2" rx="11" ry="11" style="stroke:#181818;stroke-width:1;"/><path d="M1063.4688,136.6406 Q1062.8906,136.9375 1062.25,137.0781 Q1061.6094,137.2344 1060.9063,137.2344 Q1058.4063,137.2344 1057.0781,135.5938 Q1055.7656,133.9375 1055.7656,130.8125 Q1055.7656,127.6875 1057.0781,126.0313 Q1058.4063,124.375 1060.9063,124.375 Q1061.6094,124.375 1062.25,124.5313 Q1062.9063,124.6875 1063.4688,124.9844 L1063.4688,127.7031 Q1062.8438,127.125 1062.25,126.8594 Q1061.6563,126.5781 1061.0313,126.5781 Q1059.6875,126.5781 1059,127.6563 Q1058.3125,128.7188 1058.3125,130.8125 Q1058.3125,132.9063 1059,133.9844 Q1059.6875,135.0469 1061.0313,135.0469 Q1061.6563,135.0469 1062.25,134.7813 Q1062.8438,134.5 1063.4688,133.9219 L1063.4688,136.6406 Z " fill="#000000"/><text fill="#000000" font-family="sans-serif" font-size="14" lengthAdjust="spacing" textLength="100.6934" x="1074.5" y="135.8467">SpatialSample</text><line style="stroke:#181818;stroke-width:0.5;" x1="1046.5" x2="1177.1934" y1="147" y2="147"/><line style="stroke:#181818;stroke-width:0.5;" x1="1046.5" x2="1177.1934" y1="155" y2="155"/></g><!--class StatisticalSample--><g class="entity" data-qualified-name="StatisticalSample" data-source-line="4" id="ent0009"><rect fill="#F1F1F1" height="48" rx="2.5" ry="2.5" style="stroke:#181818;stroke-width:0.5;" width="153.666" x="1214" y="115"/><ellipse cx="1229" cy="131" fill="#ADD1B2" rx="11" ry="11" style="stroke:#181818;stroke-width:1;"/><path d="M1231.9688,136.6406 Q1231.3906,136.9375 1230.75,137.0781 Q1230.1094,137.2344 1229.4063,137.2344 Q1226.9063,137.2344 1225.5781,135.5938 Q1224.2656,133.9375 1224.2656,130.8125 Q1224.2656,127.6875 1225.5781,126.0313 Q1226.9063,124.375 1229.4063,124.375 Q1230.1094,124.375 1230.75,124.5313 Q1231.4063,124.6875 1231.9688,124.9844 L1231.9688,127.7031 Q1231.3438,127.125 1230.75,126.8594 Q1230.1563,126.5781 1229.5313,126.5781 Q1228.1875,126.5781 1227.5,127.6563 Q1226.8125,128.7188 1226.8125,130.8125 Q1226.8125,132.9063 1227.5,133.9844 Q1228.1875,135.0469 1229.5313,135.0469 Q1230.1563,135.0469 1230.75,134.7813 Q1231.3438,134.5 1231.9688,133.9219 L1231.9688,136.6406 Z " fill="#000000"/><text fill="#000000" font-family="sans-serif" font-size="14" lengthAdjust="spacing" textLength="121.666" x="1243" y="135.8467">StatisticalSample</text><line style="stroke:#181818;stroke-width:0.5;" x1="1215" x2="1366.666" y1="147" y2="147"/><line style="stroke:#181818;stroke-width:0.5;" x1="1215" x2="1366.666" y1="155" y2="155"/></g><!--class ObservableProperty--><g class="entity" data-qualified-name="ObservableProperty" data-source-line="5" id="ent0011"><rect fill="#F1F1F1" height="48" rx="2.5" ry="2.5" style="stroke:#181818;stroke-width:0.5;" width="171.6172" x="662" y="115"/><ellipse cx="677" cy="131" fill="#ADD1B2" rx="11" ry="11" style="stroke:#181818;stroke-width:1;"/><path d="M679.9688,136.6406 Q679.3906,136.9375 678.75,137.0781 Q678.1094,137.2344 677.4063,137.2344 Q674.9063,137.2344 673.5781,135.5938 Q672.2656,133.9375 672.2656,130.8125 Q672.2656,127.6875 673.5781,126.0313 Q674.9063,124.375 677.4063,124.375 Q678.1094,124.375 678.75,124.5313 Q679.4063,124.6875 679.9688,124.9844 L679.9688,127.7031 Q679.3438,127.125 678.75,126.8594 Q678.1563,126.5781 677.5313,126.5781 Q676.1875,126.5781 675.5,127.6563 Q674.8125,128.7188 674.8125,130.8125 Q674.8125,132.9063 675.5,133.9844 Q676.1875,135.0469 677.5313,135.0469 Q678.1563,135.0469 678.75,134.7813 Q679.3438,134.5 679.9688,133.9219 L679.9688,136.6406 Z " fill="#000000"/><text fill="#000000" font-family="sans-serif" font-size="14" lengthAdjust="spacing" textLength="139.6172" x="691" y="135.8467">ObservableProperty</text><line style="stroke:#181818;stroke-width:0.5;" x1="663" x2="832.6172" y1="147" y2="147"/><line style="stroke:#181818;stroke-width:0.5;" x1="663" x2="832.6172" y1="155" y2="155"/></g><!--class Procedure--><g class="entity" data-qualified-name="Procedure" data-source-line="6" id="ent0013"><rect fill="#F1F1F1" height="48" rx="2.5" ry="2.5" style="stroke:#181818;stroke-width:0.5;" width="103.2031" x="1645.5" y="7"/><ellipse cx="1660.5" cy="23" fill="#ADD1B2" rx="11" ry="11" style="stroke:#181818;stroke-width:1;"/><path d="M1663.4688,28.6406 Q1662.8906,28.9375 1662.25,29.0781 Q1661.6094,29.2344 1660.9063,29.2344 Q1658.4063,29.2344 1657.0781,27.5938 Q1655.7656,25.9375 1655.7656,22.8125 Q1655.7656,19.6875 1657.0781,18.0313 Q1658.4063,16.375 1660.9063,16.375 Q1661.6094,16.375 1662.25,16.5313 Q1662.9063,16.6875 1663.4688,16.9844 L1663.4688,19.7031 Q1662.8438,19.125 1662.25,18.8594 Q1661.6563,18.5781 1661.0313,18.5781 Q1659.6875,18.5781 1659,19.6563 Q1658.3125,20.7188 1658.3125,22.8125 Q1658.3125,24.9063 1659,25.9844 Q1659.6875,27.0469 1661.0313,27.0469 Q1661.6563,27.0469 1662.25,26.7813 Q1662.8438,26.5 1663.4688,25.9219 L1663.4688,28.6406 Z " fill="#000000"/><text fill="#000000" font-family="sans-serif" font-size="14" lengthAdjust="spacing" textLength="71.2031" x="1674.5" y="27.8467">Procedure</text><line style="stroke:#181818;stroke-width:0.5;" x1="1646.5" x2="1747.7031" y1="39" y2="39"/><line style="stroke:#181818;stroke-width:0.5;" x1="1646.5" x2="1747.7031" y1="47" y2="47"/></g><!--class ActuatingProcedure--><g class="entity" data-qualified-name="ActuatingProcedure" data-source-line="6" id="ent0014"><rect fill="#F1F1F1" height="48" rx="2.5" ry="2.5" style="stroke:#181818;stroke-width:0.5;" width="170.5576" x="1403.5" y="115"/><ellipse cx="1418.5" cy="131" fill="#ADD1B2" rx="11" ry="11" style="stroke:#181818;stroke-width:1;"/><path d="M1421.4688,136.6406 Q1420.8906,136.9375 1420.25,137.0781 Q1419.6094,137.2344 1418.9063,137.2344 Q1416.4063,137.2344 1415.0781,135.5938 Q1413.7656,133.9375 1413.7656,130.8125 Q1413.7656,127.6875 1415.0781,126.0313 Q1416.4063,124.375 1418.9063,124.375 Q1419.6094,124.375 1420.25,124.5313 Q1420.9063,124.6875 1421.4688,124.9844 L1421.4688,127.7031 Q1420.8438,127.125 1420.25,126.8594 Q1419.6563,126.5781 1419.0313,126.5781 Q1417.6875,126.5781 1417,127.6563 Q1416.3125,128.7188 1416.3125,130.8125 Q1416.3125,132.9063 1417,133.9844 Q1417.6875,135.0469 1419.0313,135.0469 Q1419.6563,135.0469 1420.25,134.7813 Q1420.8438,134.5 1421.4688,133.9219 L1421.4688,136.6406 Z " fill="#000000"/><text fill="#000000" font-family="sans-serif" font-size="14" lengthAdjust="spacing" textLength="138.5576" x="1432.5" y="135.8467">ActuatingProcedure</text><line style="stroke:#181818;stroke-width:0.5;" x1="1404.5" x2="1573.0576" y1="147" y2="147"/><line style="stroke:#181818;stroke-width:0.5;" x1="1404.5" x2="1573.0576" y1="155" y2="155"/></g><!--class ObservingProcedure--><g class="entity" data-qualified-name="ObservingProcedure" data-source-line="7" id="ent0016"><rect fill="#F1F1F1" height="48" rx="2.5" ry="2.5" style="stroke:#181818;stroke-width:0.5;" width="174.707" x="1609.5" y="115"/><ellipse cx="1624.5" cy="131" fill="#ADD1B2" rx="11" ry="11" style="stroke:#181818;stroke-width:1;"/><path d="M1627.4688,136.6406 Q1626.8906,136.9375 1626.25,137.0781 Q1625.6094,137.2344 1624.9063,137.2344 Q1622.4063,137.2344 1621.0781,135.5938 Q1619.7656,133.9375 1619.7656,130.8125 Q1619.7656,127.6875 1621.0781,126.0313 Q1622.4063,124.375 1624.9063,124.375 Q1625.6094,124.375 1626.25,124.5313 Q1626.9063,124.6875 1627.4688,124.9844 L1627.4688,127.7031 Q1626.8438,127.125 1626.25,126.8594 Q1625.6563,126.5781 1625.0313,126.5781 Q1623.6875,126.5781 1623,127.6563 Q1622.3125,128.7188 1622.3125,130.8125 Q1622.3125,132.9063 1623,133.9844 Q1623.6875,135.0469 1625.0313,135.0469 Q1625.6563,135.0469 1626.25,134.7813 Q1626.8438,134.5 1627.4688,133.9219 L1627.4688,136.6406 Z " fill="#000000"/><text fill="#000000" font-family="sans-serif" font-size="14" lengthAdjust="spacing" textLength="142.707" x="1638.5" y="135.8467">ObservingProcedure</text><line style="stroke:#181818;stroke-width:0.5;" x1="1610.5" x2="1783.207" y1="147" y2="147"/><line style="stroke:#181818;stroke-width:0.5;" x1="1610.5" x2="1783.207" y1="155" y2="155"/></g><!--class SamplingProcedure--><g class="entity" data-qualified-name="SamplingProcedure" data-source-line="8" id="ent0018"><rect fill="#F1F1F1" height="48" rx="2.5" ry="2.5" style="stroke:#181818;stroke-width:0.5;" width="168.7324" x="1819.5" y="115"/><ellipse cx="1834.5" cy="131" fill="#ADD1B2" rx="11" ry="11" style="stroke:#181818;stroke-width:1;"/><path d="M1837.4688,136.6406 Q1836.8906,136.9375 1836.25,137.0781 Q1835.6094,137.2344 1834.9063,137.2344 Q1832.4063,137.2344 1831.0781,135.5938 Q1829.7656,133.9375 1829.7656,130.8125 Q1829.7656,127.6875 1831.0781,126.0313 Q1832.4063,124.375 1834.9063,124.375 Q1835.6094,124.375 1836.25,124.5313 Q1836.9063,124.6875 1837.4688,124.9844 L1837.4688,127.7031 Q1836.8438,127.125 1836.25,126.8594 Q1835.6563,126.5781 1835.0313,126.5781 Q1833.6875,126.5781 1833,127.6563 Q1832.3125,128.7188 1832.3125,130.8125 Q1832.3125,132.9063 1833,133.9844 Q1833.6875,135.0469 1835.0313,135.0469 Q1835.6563,135.0469 1836.25,134.7813 Q1836.8438,134.5 1837.4688,133.9219 L1837.4688,136.6406 Z " fill="#000000"/><text fill="#000000" font-family="sans-serif" font-size="14" lengthAdjust="spacing" textLength="136.7324" x="1848.5" y="135.8467">SamplingProcedure</text><line style="stroke:#181818;stroke-width:0.5;" x1="1820.5" x2="1987.2324" y1="147" y2="147"/><line style="stroke:#181818;stroke-width:0.5;" x1="1820.5" x2="1987.2324" y1="155" y2="155"/></g><!--class Asset--><g class="entity" data-qualified-name="Asset" data-source-line="9" id="ent0020"><rect fill="#F1F1F1" height="48" rx="2.5" ry="2.5" style="stroke:#181818;stroke-width:0.5;" width="70.2676" x="2095" y="7"/><ellipse cx="2110" cy="23" fill="#ADD1B2" rx="11" ry="11" style="stroke:#181818;stroke-width:1;"/><path d="M2112.9688,28.6406 Q2112.3906,28.9375 2111.75,29.0781 Q2111.1094,29.2344 2110.4063,29.2344 Q2107.9063,29.2344 2106.5781,27.5938 Q2105.2656,25.9375 2105.2656,22.8125 Q2105.2656,19.6875 2106.5781,18.0313 Q2107.9063,16.375 2110.4063,16.375 Q2111.1094,16.375 2111.75,16.5313 Q2112.4063,16.6875 2112.9688,16.9844 L2112.9688,19.7031 Q2112.3438,19.125 2111.75,18.8594 Q2111.1563,18.5781 2110.5313,18.5781 Q2109.1875,18.5781 2108.5,19.6563 Q2107.8125,20.7188 2107.8125,22.8125 Q2107.8125,24.9063 2108.5,25.9844 Q2109.1875,27.0469 2110.5313,27.0469 Q2111.1563,27.0469 2111.75,26.7813 Q2112.3438,26.5 2112.9688,25.9219 L2112.9688,28.6406 Z " fill="#000000"/><text fill="#000000" font-family="sans-serif" font-size="14" lengthAdjust="spacing" textLength="38.2676" x="2124" y="27.8467">Asset</text><line style="stroke:#181818;stroke-width:0.5;" x1="2096" x2="2164.2676" y1="39" y2="39"/><line style="stroke:#181818;stroke-width:0.5;" x1="2096" x2="2164.2676" y1="47" y2="47"/></g><!--class Platform--><g class="entity" data-qualified-name="Platform" data-source-line="9" id="ent0021"><rect fill="#F1F1F1" height="48" rx="2.5" ry="2.5" style="stroke:#181818;stroke-width:0.5;" width="91.2881" x="2023.5" y="115"/><ellipse cx="2038.5" cy="131" fill="#ADD1B2" rx="11" ry="11" style="stroke:#181818;stroke-width:1;"/><path d="M2041.4688,136.6406 Q2040.8906,136.9375 2040.25,137.0781 Q2039.6094,137.2344 2038.9063,137.2344 Q2036.4063,137.2344 2035.0781,135.5938 Q2033.7656,133.9375 2033.7656,130.8125 Q2033.7656,127.6875 2035.0781,126.0313 Q2036.4063,124.375 2038.9063,124.375 Q2039.6094,124.375 2040.25,124.5313 Q2040.9063,124.6875 2041.4688,124.9844 L2041.4688,127.7031 Q2040.8438,127.125 2040.25,126.8594 Q2039.6563,126.5781 2039.0313,126.5781 Q2037.6875,126.5781 2037,127.6563 Q2036.3125,128.7188 2036.3125,130.8125 Q2036.3125,132.9063 2037,133.9844 Q2037.6875,135.0469 2039.0313,135.0469 Q2039.6563,135.0469 2040.25,134.7813 Q2040.8438,134.5 2041.4688,133.9219 L2041.4688,136.6406 Z " fill="#000000"/><text fill="#000000" font-family="sans-serif" font-size="14" lengthAdjust="spacing" textLength="59.2881" x="2052.5" y="135.8467">Platform</text><line style="stroke:#181818;stroke-width:0.5;" x1="2024.5" x2="2113.7881" y1="147" y2="147"/><line style="stroke:#181818;stroke-width:0.5;" x1="2024.5" x2="2113.7881" y1="155" y2="155"/></g><!--class System--><g class="entity" data-qualified-name="System" data-source-line="10" id="ent0023"><rect fill="#F1F1F1" height="48" rx="2.5" ry="2.5" style="stroke:#181818;stroke-width:0.5;" width="84.2061" x="2150" y="115"/><ellipse cx="2165" cy="131" fill="#ADD1B2" rx="11" ry="11" style="stroke:#181818;stroke-width:1;"/><path d="M2167.9688,136.6406 Q2167.3906,136.9375 2166.75,137.0781 Q2166.1094,137.2344 2165.4063,137.2344 Q2162.9063,137.2344 2161.5781,135.5938 Q2160.2656,133.9375 2160.2656,130.8125 Q2160.2656,127.6875 2161.5781,126.0313 Q2162.9063,124.375 2165.4063,124.375 Q2166.1094,124.375 2166.75,124.5313 Q2167.4063,124.6875 2167.9688,124.9844 L2167.9688,127.7031 Q2167.3438,127.125 2166.75,126.8594 Q2166.1563,126.5781 2165.5313,126.5781 Q2164.1875,126.5781 2163.5,127.6563 Q2162.8125,128.7188 2162.8125,130.8125 Q2162.8125,132.9063 2163.5,133.9844 Q2164.1875,135.0469 2165.5313,135.0469 Q2166.1563,135.0469 2166.75,134.7813 Q2167.3438,134.5 2167.9688,133.9219 L2167.9688,136.6406 Z " fill="#000000"/><text fill="#000000" font-family="sans-serif" font-size="14" lengthAdjust="spacing" textLength="52.2061" x="2179" y="135.8467">System</text><line style="stroke:#181818;stroke-width:0.5;" x1="2151" x2="2233.2061" y1="147" y2="147"/><line style="stroke:#181818;stroke-width:0.5;" x1="2151" x2="2233.2061" y1="155" y2="155"/></g><!--class Sampler--><g class="entity" data-qualified-name="Sampler" data-source-line="10" id="ent0024"><rect fill="#F1F1F1" height="48" rx="2.5" ry="2.5" style="stroke:#181818;stroke-width:0.5;" width="90.249" x="2021" y="223"/><ellipse cx="2036" cy="239" fill="#ADD1B2" rx="11" ry="11" style="stroke:#181818;stroke-width:1;"/><path d="M2038.9688,244.6406 Q2038.3906,244.9375 2037.75,245.0781 Q2037.1094,245.2344 2036.4063,245.2344 Q2033.9063,245.2344 2032.5781,243.5938 Q2031.2656,241.9375 2031.2656,238.8125 Q2031.2656,235.6875 2032.5781,234.0313 Q2033.9063,232.375 2036.4063,232.375 Q2037.1094,232.375 2037.75,232.5313 Q2038.4063,232.6875 2038.9688,232.9844 L2038.9688,235.7031 Q2038.3438,235.125 2037.75,234.8594 Q2037.1563,234.5781 2036.5313,234.5781 Q2035.1875,234.5781 2034.5,235.6563 Q2033.8125,236.7188 2033.8125,238.8125 Q2033.8125,240.9063 2034.5,241.9844 Q2035.1875,243.0469 2036.5313,243.0469 Q2037.1563,243.0469 2037.75,242.7813 Q2038.3438,242.5 2038.9688,241.9219 L2038.9688,244.6406 Z " fill="#000000"/><text fill="#000000" font-family="sans-serif" font-size="14" lengthAdjust="spacing" textLength="58.249" x="2050" y="243.8467">Sampler</text><line style="stroke:#181818;stroke-width:0.5;" x1="2022" x2="2110.249" y1="255" y2="255"/><line style="stroke:#181818;stroke-width:0.5;" x1="2022" x2="2110.249" y1="263" y2="263"/></g><!--class Actuator--><g class="entity" data-qualified-name="Actuator" data-source-line="11" id="ent0026"><rect fill="#F1F1F1" height="48" rx="2.5" ry="2.5" style="stroke:#181818;stroke-width:0.5;" width="92.0264" x="2146" y="223"/><ellipse cx="2161" cy="239" fill="#ADD1B2" rx="11" ry="11" style="stroke:#181818;stroke-width:1;"/><path d="M2163.9688,244.6406 Q2163.3906,244.9375 2162.75,245.0781 Q2162.1094,245.2344 2161.4063,245.2344 Q2158.9063,245.2344 2157.5781,243.5938 Q2156.2656,241.9375 2156.2656,238.8125 Q2156.2656,235.6875 2157.5781,234.0313 Q2158.9063,232.375 2161.4063,232.375 Q2162.1094,232.375 2162.75,232.5313 Q2163.4063,232.6875 2163.9688,232.9844 L2163.9688,235.7031 Q2163.3438,235.125 2162.75,234.8594 Q2162.1563,234.5781 2161.5313,234.5781 Q2160.1875,234.5781 2159.5,235.6563 Q2158.8125,236.7188 2158.8125,238.8125 Q2158.8125,240.9063 2159.5,241.9844 Q2160.1875,243.0469 2161.5313,243.0469 Q2162.1563,243.0469 2162.75,242.7813 Q2163.3438,242.5 2163.9688,241.9219 L2163.9688,244.6406 Z " fill="#000000"/><text fill="#000000" font-family="sans-serif" font-size="14" lengthAdjust="spacing" textLength="60.0264" x="2175" y="243.8467">Actuator</text><line style="stroke:#181818;stroke-width:0.5;" x1="2147" x2="2237.0264" y1="255" y2="255"/><line style="stroke:#181818;stroke-width:0.5;" x1="2147" x2="2237.0264" y1="263" y2="263"/></g><!--class Execution--><g class="entity" data-qualified-name="Execution" data-source-line="13" id="ent0029"><rect fill="#F1F1F1" height="48" rx="2.5" ry="2.5" style="stroke:#181818;stroke-width:0.5;" width="101.1318" x="2401.5" y="7"/><ellipse cx="2416.5" cy="23" fill="#ADD1B2" rx="11" ry="11" style="stroke:#181818;stroke-width:1;"/><path d="M2419.4688,28.6406 Q2418.8906,28.9375 2418.25,29.0781 Q2417.6094,29.2344 2416.9063,29.2344 Q2414.4063,29.2344 2413.0781,27.5938 Q2411.7656,25.9375 2411.7656,22.8125 Q2411.7656,19.6875 2413.0781,18.0313 Q2414.4063,16.375 2416.9063,16.375 Q2417.6094,16.375 2418.25,16.5313 Q2418.9063,16.6875 2419.4688,16.9844 L2419.4688,19.7031 Q2418.8438,19.125 2418.25,18.8594 Q2417.6563,18.5781 2417.0313,18.5781 Q2415.6875,18.5781 2415,19.6563 Q2414.3125,20.7188 2414.3125,22.8125 Q2414.3125,24.9063 2415,25.9844 Q2415.6875,27.0469 2417.0313,27.0469 Q2417.6563,27.0469 2418.25,26.7813 Q2418.8438,26.5 2419.4688,25.9219 L2419.4688,28.6406 Z " fill="#000000"/><text fill="#000000" font-family="sans-serif" font-size="14" lengthAdjust="spacing" textLength="69.1318" x="2430.5" y="27.8467">Execution</text><line style="stroke:#181818;stroke-width:0.5;" x1="2402.5" x2="2501.6318" y1="39" y2="39"/><line style="stroke:#181818;stroke-width:0.5;" x1="2402.5" x2="2501.6318" y1="47" y2="47"/></g><!--class Sampling--><g class="entity" data-qualified-name="Sampling" data-source-line="13" id="ent0030"><rect fill="#F1F1F1" height="48" rx="2.5" ry="2.5" style="stroke:#181818;stroke-width:0.5;" width="97.5293" x="2269" y="115"/><ellipse cx="2284" cy="131" fill="#ADD1B2" rx="11" ry="11" style="stroke:#181818;stroke-width:1;"/><path d="M2286.9688,136.6406 Q2286.3906,136.9375 2285.75,137.0781 Q2285.1094,137.2344 2284.4063,137.2344 Q2281.9063,137.2344 2280.5781,135.5938 Q2279.2656,133.9375 2279.2656,130.8125 Q2279.2656,127.6875 2280.5781,126.0313 Q2281.9063,124.375 2284.4063,124.375 Q2285.1094,124.375 2285.75,124.5313 Q2286.4063,124.6875 2286.9688,124.9844 L2286.9688,127.7031 Q2286.3438,127.125 2285.75,126.8594 Q2285.1563,126.5781 2284.5313,126.5781 Q2283.1875,126.5781 2282.5,127.6563 Q2281.8125,128.7188 2281.8125,130.8125 Q2281.8125,132.9063 2282.5,133.9844 Q2283.1875,135.0469 2284.5313,135.0469 Q2285.1563,135.0469 2285.75,134.7813 Q2286.3438,134.5 2286.9688,133.9219 L2286.9688,136.6406 Z " fill="#000000"/><text fill="#000000" font-family="sans-serif" font-size="14" lengthAdjust="spacing" textLength="65.5293" x="2298" y="135.8467">Sampling</text><line style="stroke:#181818;stroke-width:0.5;" x1="2270" x2="2365.5293" y1="147" y2="147"/><line style="stroke:#181818;stroke-width:0.5;" x1="2270" x2="2365.5293" y1="155" y2="155"/></g><!--class ExecutionCollection--><g class="entity" data-qualified-name="ExecutionCollection" data-source-line="14" id="ent0032"><rect fill="#F1F1F1" height="48" rx="2.5" ry="2.5" style="stroke:#181818;stroke-width:0.5;" width="170.3799" x="2889" y="7"/><ellipse cx="2904" cy="23" fill="#ADD1B2" rx="11" ry="11" style="stroke:#181818;stroke-width:1;"/><path d="M2906.9688,28.6406 Q2906.3906,28.9375 2905.75,29.0781 Q2905.1094,29.2344 2904.4063,29.2344 Q2901.9063,29.2344 2900.5781,27.5938 Q2899.2656,25.9375 2899.2656,22.8125 Q2899.2656,19.6875 2900.5781,18.0313 Q2901.9063,16.375 2904.4063,16.375 Q2905.1094,16.375 2905.75,16.5313 Q2906.4063,16.6875 2906.9688,16.9844 L2906.9688,19.7031 Q2906.3438,19.125 2905.75,18.8594 Q2905.1563,18.5781 2904.5313,18.5781 Q2903.1875,18.5781 2902.5,19.6563 Q2901.8125,20.7188 2901.8125,22.8125 Q2901.8125,24.9063 2902.5,25.9844 Q2903.1875,27.0469 2904.5313,27.0469 Q2905.1563,27.0469 2905.75,26.7813 Q2906.3438,26.5 2906.9688,25.9219 L2906.9688,28.6406 Z " fill="#000000"/><text fill="#000000" font-family="sans-serif" font-size="14" lengthAdjust="spacing" textLength="138.3799" x="2918" y="27.8467">ExecutionCollection</text><line style="stroke:#181818;stroke-width:0.5;" x1="2890" x2="3058.3799" y1="39" y2="39"/><line style="stroke:#181818;stroke-width:0.5;" x1="2890" x2="3058.3799" y1="47" y2="47"/></g><!--class SamplingCollection--><g class="entity" data-qualified-name="SamplingCollection" data-source-line="14" id="ent0033"><rect fill="#F1F1F1" height="48" rx="2.5" ry="2.5" style="stroke:#181818;stroke-width:0.5;" width="166.7773" x="2688.5" y="115"/><ellipse cx="2703.5" cy="131" fill="#ADD1B2" rx="11" ry="11" style="stroke:#181818;stroke-width:1;"/><path d="M2706.4688,136.6406 Q2705.8906,136.9375 2705.25,137.0781 Q2704.6094,137.2344 2703.9063,137.2344 Q2701.4063,137.2344 2700.0781,135.5938 Q2698.7656,133.9375 2698.7656,130.8125 Q2698.7656,127.6875 2700.0781,126.0313 Q2701.4063,124.375 2703.9063,124.375 Q2704.6094,124.375 2705.25,124.5313 Q2705.9063,124.6875 2706.4688,124.9844 L2706.4688,127.7031 Q2705.8438,127.125 2705.25,126.8594 Q2704.6563,126.5781 2704.0313,126.5781 Q2702.6875,126.5781 2702,127.6563 Q2701.3125,128.7188 2701.3125,130.8125 Q2701.3125,132.9063 2702,133.9844 Q2702.6875,135.0469 2704.0313,135.0469 Q2704.6563,135.0469 2705.25,134.7813 Q2705.8438,134.5 2706.4688,133.9219 L2706.4688,136.6406 Z " fill="#000000"/><text fill="#000000" font-family="sans-serif" font-size="14" lengthAdjust="spacing" textLength="134.7773" x="2717.5" y="135.8467">SamplingCollection</text><line style="stroke:#181818;stroke-width:0.5;" x1="2689.5" x2="2854.2773" y1="147" y2="147"/><line style="stroke:#181818;stroke-width:0.5;" x1="2689.5" x2="2854.2773" y1="155" y2="155"/></g><!--class Actuation--><g class="entity" data-qualified-name="Actuation" data-source-line="15" id="ent0035"><rect fill="#F1F1F1" height="48" rx="2.5" ry="2.5" style="stroke:#181818;stroke-width:0.5;" width="99.0332" x="2402.5" y="115"/><ellipse cx="2417.5" cy="131" fill="#ADD1B2" rx="11" ry="11" style="stroke:#181818;stroke-width:1;"/><path d="M2420.4688,136.6406 Q2419.8906,136.9375 2419.25,137.0781 Q2418.6094,137.2344 2417.9063,137.2344 Q2415.4063,137.2344 2414.0781,135.5938 Q2412.7656,133.9375 2412.7656,130.8125 Q2412.7656,127.6875 2414.0781,126.0313 Q2415.4063,124.375 2417.9063,124.375 Q2418.6094,124.375 2419.25,124.5313 Q2419.9063,124.6875 2420.4688,124.9844 L2420.4688,127.7031 Q2419.8438,127.125 2419.25,126.8594 Q2418.6563,126.5781 2418.0313,126.5781 Q2416.6875,126.5781 2416,127.6563 Q2415.3125,128.7188 2415.3125,130.8125 Q2415.3125,132.9063 2416,133.9844 Q2416.6875,135.0469 2418.0313,135.0469 Q2418.6563,135.0469 2419.25,134.7813 Q2419.8438,134.5 2420.4688,133.9219 L2420.4688,136.6406 Z " fill="#000000"/><text fill="#000000" font-family="sans-serif" font-size="14" lengthAdjust="spacing" textLength="67.0332" x="2431.5" y="135.8467">Actuation</text><line style="stroke:#181818;stroke-width:0.5;" x1="2403.5" x2="2500.5332" y1="147" y2="147"/><line style="stroke:#181818;stroke-width:0.5;" x1="2403.5" x2="2500.5332" y1="155" y2="155"/></g><!--class Sensor--><g class="entity" data-qualified-name="Sensor" data-source-line="16" id="ent0037"><rect fill="#F1F1F1" height="48" rx="2.5" ry="2.5" style="stroke:#181818;stroke-width:0.5;" width="79.9883" x="2273" y="223"/><ellipse cx="2288" cy="239" fill="#ADD1B2" rx="11" ry="11" style="stroke:#181818;stroke-width:1;"/><path d="M2290.9688,244.6406 Q2290.3906,244.9375 2289.75,245.0781 Q2289.1094,245.2344 2288.4063,245.2344 Q2285.9063,245.2344 2284.5781,243.5938 Q2283.2656,241.9375 2283.2656,238.8125 Q2283.2656,235.6875 2284.5781,234.0313 Q2285.9063,232.375 2288.4063,232.375 Q2289.1094,232.375 2289.75,232.5313 Q2290.4063,232.6875 2290.9688,232.9844 L2290.9688,235.7031 Q2290.3438,235.125 2289.75,234.8594 Q2289.1563,234.5781 2288.5313,234.5781 Q2287.1875,234.5781 2286.5,235.6563 Q2285.8125,236.7188 2285.8125,238.8125 Q2285.8125,240.9063 2286.5,241.9844 Q2287.1875,243.0469 2288.5313,243.0469 Q2289.1563,243.0469 2289.75,242.7813 Q2290.3438,242.5 2290.9688,241.9219 L2290.9688,244.6406 Z " fill="#000000"/><text fill="#000000" font-family="sans-serif" font-size="14" lengthAdjust="spacing" textLength="47.9883" x="2302" y="243.8467">Sensor</text><line style="stroke:#181818;stroke-width:0.5;" x1="2274" x2="2351.9883" y1="255" y2="255"/><line style="stroke:#181818;stroke-width:0.5;" x1="2274" x2="2351.9883" y1="263" y2="263"/></g><!--class ActuationCollection--><g class="entity" data-qualified-name="ActuationCollection" data-source-line="17" id="ent0039"><rect fill="#F1F1F1" height="48" rx="2.5" ry="2.5" style="stroke:#181818;stroke-width:0.5;" width="168.2813" x="2890" y="115"/><ellipse cx="2905" cy="131" fill="#ADD1B2" rx="11" ry="11" style="stroke:#181818;stroke-width:1;"/><path d="M2907.9688,136.6406 Q2907.3906,136.9375 2906.75,137.0781 Q2906.1094,137.2344 2905.4063,137.2344 Q2902.9063,137.2344 2901.5781,135.5938 Q2900.2656,133.9375 2900.2656,130.8125 Q2900.2656,127.6875 2901.5781,126.0313 Q2902.9063,124.375 2905.4063,124.375 Q2906.1094,124.375 2906.75,124.5313 Q2907.4063,124.6875 2907.9688,124.9844 L2907.9688,127.7031 Q2907.3438,127.125 2906.75,126.8594 Q2906.1563,126.5781 2905.5313,126.5781 Q2904.1875,126.5781 2903.5,127.6563 Q2902.8125,128.7188 2902.8125,130.8125 Q2902.8125,132.9063 2903.5,133.9844 Q2904.1875,135.0469 2905.5313,135.0469 Q2906.1563,135.0469 2906.75,134.7813 Q2907.3438,134.5 2907.9688,133.9219 L2907.9688,136.6406 Z " fill="#000000"/><text fill="#000000" font-family="sans-serif" font-size="14" lengthAdjust="spacing" textLength="136.2813" x="2919" y="135.8467">ActuationCollection</text><line style="stroke:#181818;stroke-width:0.5;" x1="2891" x2="3057.2813" y1="147" y2="147"/><line style="stroke:#181818;stroke-width:0.5;" x1="2891" x2="3057.2813" y1="155" y2="155"/></g><!--class ObservationCollection--><g class="entity" data-qualified-name="ObservationCollection" data-source-line="18" id="ent0041"><rect fill="#F1F1F1" height="48" rx="2.5" ry="2.5" style="stroke:#181818;stroke-width:0.5;" width="186.499" x="3093" y="115"/><ellipse cx="3108" cy="131" fill="#ADD1B2" rx="11" ry="11" style="stroke:#181818;stroke-width:1;"/><path d="M3110.9688,136.6406 Q3110.3906,136.9375 3109.75,137.0781 Q3109.1094,137.2344 3108.4063,137.2344 Q3105.9063,137.2344 3104.5781,135.5938 Q3103.2656,133.9375 3103.2656,130.8125 Q3103.2656,127.6875 3104.5781,126.0313 Q3105.9063,124.375 3108.4063,124.375 Q3109.1094,124.375 3109.75,124.5313 Q3110.4063,124.6875 3110.9688,124.9844 L3110.9688,127.7031 Q3110.3438,127.125 3109.75,126.8594 Q3109.1563,126.5781 3108.5313,126.5781 Q3107.1875,126.5781 3106.5,127.6563 Q3105.8125,128.7188 3105.8125,130.8125 Q3105.8125,132.9063 3106.5,133.9844 Q3107.1875,135.0469 3108.5313,135.0469 Q3109.1563,135.0469 3109.75,134.7813 Q3110.3438,134.5 3110.9688,133.9219 L3110.9688,136.6406 Z " fill="#000000"/><text fill="#000000" font-family="sans-serif" font-size="14" lengthAdjust="spacing" textLength="154.499" x="3122" y="135.8467">ObservationCollection</text><line style="stroke:#181818;stroke-width:0.5;" x1="3094" x2="3278.499" y1="147" y2="147"/><line style="stroke:#181818;stroke-width:0.5;" x1="3094" x2="3278.499" y1="155" y2="155"/></g><!--class Observation--><g class="entity" data-qualified-name="Observation" data-source-line="19" id="ent0043"><rect fill="#F1F1F1" height="48" rx="2.5" ry="2.5" style="stroke:#181818;stroke-width:0.5;" width="117.251" x="2536.5" y="115"/><ellipse cx="2551.5" cy="131" fill="#ADD1B2" rx="11" ry="11" style="stroke:#181818;stroke-width:1;"/><path d="M2554.4688,136.6406 Q2553.8906,136.9375 2553.25,137.0781 Q2552.6094,137.2344 2551.9063,137.2344 Q2549.4063,137.2344 2548.0781,135.5938 Q2546.7656,133.9375 2546.7656,130.8125 Q2546.7656,127.6875 2548.0781,126.0313 Q2549.4063,124.375 2551.9063,124.375 Q2552.6094,124.375 2553.25,124.5313 Q2553.9063,124.6875 2554.4688,124.9844 L2554.4688,127.7031 Q2553.8438,127.125 2553.25,126.8594 Q2552.6563,126.5781 2552.0313,126.5781 Q2550.6875,126.5781 2550,127.6563 Q2549.3125,128.7188 2549.3125,130.8125 Q2549.3125,132.9063 2550,133.9844 Q2550.6875,135.0469 2552.0313,135.0469 Q2552.6563,135.0469 2553.25,134.7813 Q2553.8438,134.5 2554.4688,133.9219 L2554.4688,136.6406 Z " fill="#000000"/><text fill="#000000" font-family="sans-serif" font-size="14" lengthAdjust="spacing" textLength="85.251" x="2565.5" y="135.8467">Observation</text><line style="stroke:#181818;stroke-width:0.5;" x1="2537.5" x2="2652.751" y1="147" y2="147"/><line style="stroke:#181818;stroke-width:0.5;" x1="2537.5" x2="2652.751" y1="155" y2="155"/></g><!--class Deployment--><g class="entity" data-qualified-name="Deployment" data-source-line="20" id="ent0045"><rect fill="#F1F1F1" height="48" rx="2.5" ry="2.5" style="stroke:#181818;stroke-width:0.5;" width="117.6338" x="7" y="7"/><ellipse cx="22" cy="23" fill="#ADD1B2" rx="11" ry="11" style="stroke:#181818;stroke-width:1;"/><path d="M24.9688,28.6406 Q24.3906,28.9375 23.75,29.0781 Q23.1094,29.2344 22.4063,29.2344 Q19.9063,29.2344 18.5781,27.5938 Q17.2656,25.9375 17.2656,22.8125 Q17.2656,19.6875 18.5781,18.0313 Q19.9063,16.375 22.4063,16.375 Q23.1094,16.375 23.75,16.5313 Q24.4063,16.6875 24.9688,16.9844 L24.9688,19.7031 Q24.3438,19.125 23.75,18.8594 Q23.1563,18.5781 22.5313,18.5781 Q21.1875,18.5781 20.5,19.6563 Q19.8125,20.7188 19.8125,22.8125 Q19.8125,24.9063 20.5,25.9844 Q21.1875,27.0469 22.5313,27.0469 Q23.1563,27.0469 23.75,26.7813 Q24.3438,26.5 24.9688,25.9219 L24.9688,28.6406 Z " fill="#000000"/><text fill="#000000" font-family="sans-serif" font-size="14" lengthAdjust="spacing" textLength="85.6338" x="36" y="27.8467">Deployment</text><line style="stroke:#181818;stroke-width:0.5;" x1="8" x2="123.6338" y1="39" y2="39"/><line style="stroke:#181818;stroke-width:0.5;" x1="8" x2="123.6338" y1="47" y2="47"/></g><!--class FeatureOfInterest--><g class="entity" data-qualified-name="FeatureOfInterest" data-source-line="21" id="ent0046"><rect fill="#F1F1F1" height="48" rx="2.5" ry="2.5" style="stroke:#181818;stroke-width:0.5;" width="156.1816" x="160" y="7"/><ellipse cx="175" cy="23" fill="#ADD1B2" rx="11" ry="11" style="stroke:#181818;stroke-width:1;"/><path d="M177.9688,28.6406 Q177.3906,28.9375 176.75,29.0781 Q176.1094,29.2344 175.4063,29.2344 Q172.9063,29.2344 171.5781,27.5938 Q170.2656,25.9375 170.2656,22.8125 Q170.2656,19.6875 171.5781,18.0313 Q172.9063,16.375 175.4063,16.375 Q176.1094,16.375 176.75,16.5313 Q177.4063,16.6875 177.9688,16.9844 L177.9688,19.7031 Q177.3438,19.125 176.75,18.8594 Q176.1563,18.5781 175.5313,18.5781 Q174.1875,18.5781 173.5,19.6563 Q172.8125,20.7188 172.8125,22.8125 Q172.8125,24.9063 173.5,25.9844 Q174.1875,27.0469 175.5313,27.0469 Q176.1563,27.0469 176.75,26.7813 Q177.3438,26.5 177.9688,25.9219 L177.9688,28.6406 Z " fill="#000000"/><text fill="#000000" font-family="sans-serif" font-size="14" lengthAdjust="spacing" textLength="124.1816" x="189" y="27.8467">FeatureOfInterest</text><line style="stroke:#181818;stroke-width:0.5;" x1="161" x2="315.1816" y1="39" y2="39"/><line style="stroke:#181818;stroke-width:0.5;" x1="161" x2="315.1816" y1="47" y2="47"/></g><!--class Result--><g class="entity" data-qualified-name="Result" data-source-line="25" id="ent0047"><rect fill="#F1F1F1" height="48" rx="2.5" ry="2.5" style="stroke:#181818;stroke-width:0.5;" width="75.8867" x="351" y="7"/><ellipse cx="366" cy="23" fill="#ADD1B2" rx="11" ry="11" style="stroke:#181818;stroke-width:1;"/><path d="M368.9688,28.6406 Q368.3906,28.9375 367.75,29.0781 Q367.1094,29.2344 366.4063,29.2344 Q363.9063,29.2344 362.5781,27.5938 Q361.2656,25.9375 361.2656,22.8125 Q361.2656,19.6875 362.5781,18.0313 Q363.9063,16.375 366.4063,16.375 Q367.1094,16.375 367.75,16.5313 Q368.4063,16.6875 368.9688,16.9844 L368.9688,19.7031 Q368.3438,19.125 367.75,18.8594 Q367.1563,18.5781 366.5313,18.5781 Q365.1875,18.5781 364.5,19.6563 Q363.8125,20.7188 363.8125,22.8125 Q363.8125,24.9063 364.5,25.9844 Q365.1875,27.0469 366.5313,27.0469 Q367.1563,27.0469 367.75,26.7813 Q368.3438,26.5 368.9688,25.9219 L368.9688,28.6406 Z " fill="#000000"/><text fill="#000000" font-family="sans-serif" font-size="14" lengthAdjust="spacing" textLength="43.8867" x="380" y="27.8467">Result</text><line style="stroke:#181818;stroke-width:0.5;" x1="352" x2="425.8867" y1="39" y2="39"/><line style="stroke:#181818;stroke-width:0.5;" x1="352" x2="425.8867" y1="47" y2="47"/></g><!--class Output--><g class="entity" data-qualified-name="Output" data-source-line="26" id="ent0048"><rect fill="#F1F1F1" height="48" rx="2.5" ry="2.5" style="stroke:#181818;stroke-width:0.5;" width="80.6309" x="25.5" y="115"/><ellipse cx="40.5" cy="131" fill="#ADD1B2" rx="11" ry="11" style="stroke:#181818;stroke-width:1;"/><path d="M43.4688,136.6406 Q42.8906,136.9375 42.25,137.0781 Q41.6094,137.2344 40.9063,137.2344 Q38.4063,137.2344 37.0781,135.5938 Q35.7656,133.9375 35.7656,130.8125 Q35.7656,127.6875 37.0781,126.0313 Q38.4063,124.375 40.9063,124.375 Q41.6094,124.375 42.25,124.5313 Q42.9063,124.6875 43.4688,124.9844 L43.4688,127.7031 Q42.8438,127.125 42.25,126.8594 Q41.6563,126.5781 41.0313,126.5781 Q39.6875,126.5781 39,127.6563 Q38.3125,128.7188 38.3125,130.8125 Q38.3125,132.9063 39,133.9844 Q39.6875,135.0469 41.0313,135.0469 Q41.6563,135.0469 42.25,134.7813 Q42.8438,134.5 43.4688,133.9219 L43.4688,136.6406 Z " fill="#000000"/><text fill="#000000" font-family="sans-serif" font-size="14" lengthAdjust="spacing" textLength="48.6309" x="54.5" y="135.8467">Output</text><line style="stroke:#181818;stroke-width:0.5;" x1="26.5" x2="105.1309" y1="147" y2="147"/><line style="stroke:#181818;stroke-width:0.5;" x1="26.5" x2="105.1309" y1="155" y2="155"/></g><!--class Stimulus--><g class="entity" data-qualified-name="Stimulus" data-source-line="27" id="ent0049"><rect fill="#F1F1F1" height="48" rx="2.5" ry="2.5" style="stroke:#181818;stroke-width:0.5;" width="92.833" x="141.5" y="115"/><ellipse cx="156.5" cy="131" fill="#ADD1B2" rx="11" ry="11" style="stroke:#181818;stroke-width:1;"/><path d="M159.4688,136.6406 Q158.8906,136.9375 158.25,137.0781 Q157.6094,137.2344 156.9063,137.2344 Q154.4063,137.2344 153.0781,135.5938 Q151.7656,133.9375 151.7656,130.8125 Q151.7656,127.6875 153.0781,126.0313 Q154.4063,124.375 156.9063,124.375 Q157.6094,124.375 158.25,124.5313 Q158.9063,124.6875 159.4688,124.9844 L159.4688,127.7031 Q158.8438,127.125 158.25,126.8594 Q157.6563,126.5781 157.0313,126.5781 Q155.6875,126.5781 155,127.6563 Q154.3125,128.7188 154.3125,130.8125 Q154.3125,132.9063 155,133.9844 Q155.6875,135.0469 157.0313,135.0469 Q157.6563,135.0469 158.25,134.7813 Q158.8438,134.5 159.4688,133.9219 L159.4688,136.6406 Z " fill="#000000"/><text fill="#000000" font-family="sans-serif" font-size="14" lengthAdjust="spacing" textLength="60.833" x="170.5" y="135.8467">Stimulus</text><line style="stroke:#181818;stroke-width:0.5;" x1="142.5" x2="233.333" y1="147" y2="147"/><line style="stroke:#181818;stroke-width:0.5;" x1="142.5" x2="233.333" y1="155" y2="155"/></g><!--class SampleCollection--><g class="entity" data-qualified-name="SampleCollection" data-source-line="28" id="ent0050"><rect fill="#F1F1F1" height="48" rx="2.5" ry="2.5" style="stroke:#181818;stroke-width:0.5;" width="153.7412" x="270" y="115"/><ellipse cx="285" cy="131" fill="#ADD1B2" rx="11" ry="11" style="stroke:#181818;stroke-width:1;"/><path d="M287.9688,136.6406 Q287.3906,136.9375 286.75,137.0781 Q286.1094,137.2344 285.4063,137.2344 Q282.9063,137.2344 281.5781,135.5938 Q280.2656,133.9375 280.2656,130.8125 Q280.2656,127.6875 281.5781,126.0313 Q282.9063,124.375 285.4063,124.375 Q286.1094,124.375 286.75,124.5313 Q287.4063,124.6875 287.9688,124.9844 L287.9688,127.7031 Q287.3438,127.125 286.75,126.8594 Q286.1563,126.5781 285.5313,126.5781 Q284.1875,126.5781 283.5,127.6563 Q282.8125,128.7188 282.8125,130.8125 Q282.8125,132.9063 283.5,133.9844 Q284.1875,135.0469 285.5313,135.0469 Q286.1563,135.0469 286.75,134.7813 Q287.3438,134.5 287.9688,133.9219 L287.9688,136.6406 Z " fill="#000000"/><text fill="#000000" font-family="sans-serif" font-size="14" lengthAdjust="spacing" textLength="121.7412" x="299" y="135.8467">SampleCollection</text><line style="stroke:#181818;stroke-width:0.5;" x1="271" x2="422.7412" y1="147" y2="147"/><line style="stroke:#181818;stroke-width:0.5;" x1="271" x2="422.7412" y1="155" y2="155"/></g><!--class Input--><g class="entity" data-qualified-name="Input" data-source-line="29" id="ent0051"><rect fill="#F1F1F1" height="48" rx="2.5" ry="2.5" style="stroke:#181818;stroke-width:0.5;" width="68.251" x="32" y="223"/><ellipse cx="47" cy="239" fill="#ADD1B2" rx="11" ry="11" style="stroke:#181818;stroke-width:1;"/><path d="M49.9688,244.6406 Q49.3906,244.9375 48.75,245.0781 Q48.1094,245.2344 47.4063,245.2344 Q44.9063,245.2344 43.5781,243.5938 Q42.2656,241.9375 42.2656,238.8125 Q42.2656,235.6875 43.5781,234.0313 Q44.9063,232.375 47.4063,232.375 Q48.1094,232.375 48.75,232.5313 Q49.4063,232.6875 49.9688,232.9844 L49.9688,235.7031 Q49.3438,235.125 48.75,234.8594 Q48.1563,234.5781 47.5313,234.5781 Q46.1875,234.5781 45.5,235.6563 Q44.8125,236.7188 44.8125,238.8125 Q44.8125,240.9063 45.5,241.9844 Q46.1875,243.0469 47.5313,243.0469 Q48.1563,243.0469 48.75,242.7813 Q49.3438,242.5 49.9688,241.9219 L49.9688,244.6406 Z " fill="#000000"/><text fill="#000000" font-family="sans-serif" font-size="14" lengthAdjust="spacing" textLength="36.251" x="61" y="243.8467">Input</text><line style="stroke:#181818;stroke-width:0.5;" x1="33" x2="99.251" y1="255" y2="255"/><line style="stroke:#181818;stroke-width:0.5;" x1="33" x2="99.251" y1="263" y2="263"/></g><!--reverse link Property to ActuatableProperty--><g class="link" data-entity-1="ent0001" data-entity-2="ent0002" data-link-type="extension" data-source-line="1" id="lnk3"><path codeLine="1" d="M610.3905,67.9716 C593.4005,85.6316 582.51,96.94 565.44,114.68" fill="none" id="Property-backto-ActuatableProperty" style="stroke:#181818;stroke-width:1;"/><polygon fill="none" points="622.87,55,606.0667,63.8118,614.7144,72.1314,622.87,55" style="stroke:#181818;stroke-width:1;stroke-linejoin:miter;stroke-miterlimit:10;"/></g><!--reverse link Sample to MaterialSample--><g class="link" data-entity-1="ent0004" data-entity-2="ent0005" data-link-type="extension" data-source-line="2" id="lnk6"><path codeLine="2" d="M1059.3567,64.4445 C1030.6067,82.1645 1006.35,97.11 977.55,114.86" fill="none" id="Sample-backto-MaterialSample" style="stroke:#181818;stroke-width:1;"/><polygon fill="none" points="1074.68,55,1056.2086,59.3367,1062.5049,69.5522,1074.68,55" style="stroke:#181818;stroke-width:1;stroke-linejoin:miter;stroke-miterlimit:10;"/></g><!--reverse link Sample to SpatialSample--><g class="link" data-entity-1="ent0004" data-entity-2="ent0007" data-link-type="extension" data-source-line="3" id="lnk8"><path codeLine="3" d="M1112,73 C1112,90.66 1112,96.94 1112,114.68" fill="none" id="Sample-backto-SpatialSample" style="stroke:#181818;stroke-width:1;"/><polygon fill="none" points="1112,55,1106,73,1118,73,1112,55" style="stroke:#181818;stroke-width:1;stroke-linejoin:miter;stroke-miterlimit:10;"/></g><!--reverse link Sample to StatisticalSample--><g class="link" data-entity-1="ent0004" data-entity-2="ent0009" data-link-type="extension" data-source-line="4" id="lnk10"><path codeLine="4" d="M1166.3276,64.1725 C1196.2476,81.8925 1221.95,97.11 1251.93,114.86" fill="none" id="Sample-backto-StatisticalSample" style="stroke:#181818;stroke-width:1;"/><polygon fill="none" points="1150.84,55,1163.2701,69.335,1169.3851,59.0099,1150.84,55" style="stroke:#181818;stroke-width:1;stroke-linejoin:miter;stroke-miterlimit:10;"/></g><!--reverse link Property to ObservableProperty--><g class="link" data-entity-1="ent0001" data-entity-2="ent0011" data-link-type="extension" data-source-line="5" id="lnk12"><path codeLine="5" d="M679.8939,67.9094 C697.0539,85.5694 708.1,96.94 725.34,114.68" fill="none" id="Property-backto-ObservableProperty" style="stroke:#181818;stroke-width:1;"/><polygon fill="none" points="667.35,55,675.5907,72.0906,684.197,63.7281,667.35,55" style="stroke:#181818;stroke-width:1;stroke-linejoin:miter;stroke-miterlimit:10;"/></g><!--reverse link Procedure to ActuatingProcedure--><g class="link" data-entity-1="ent0013" data-entity-2="ent0014" data-link-type="extension" data-source-line="6" id="lnk15"><path codeLine="6" d="M1635.8326,63.1732 C1601.0626,80.8932 1569.24,97.11 1534.4,114.86" fill="none" id="Procedure-backto-ActuatingProcedure" style="stroke:#181818;stroke-width:1;"/><polygon fill="none" points="1651.87,55,1633.1082,57.8274,1638.557,68.519,1651.87,55" style="stroke:#181818;stroke-width:1;stroke-linejoin:miter;stroke-miterlimit:10;"/></g><!--reverse link Procedure to ObservingProcedure--><g class="link" data-entity-1="ent0013" data-entity-2="ent0016" data-link-type="extension" data-source-line="7" id="lnk17"><path codeLine="7" d="M1697,73 C1697,90.66 1697,96.94 1697,114.68" fill="none" id="Procedure-backto-ObservingProcedure" style="stroke:#181818;stroke-width:1;"/><polygon fill="none" points="1697,55,1691,73,1703,73,1697,55" style="stroke:#181818;stroke-width:1;stroke-linejoin:miter;stroke-miterlimit:10;"/></g><!--reverse link Procedure to SamplingProcedure--><g class="link" data-entity-1="ent0013" data-entity-2="ent0018" data-link-type="extension" data-source-line="8" id="lnk19"><path codeLine="8" d="M1757.9411,63.205 C1792.5411,80.925 1824.15,97.11 1858.81,114.86" fill="none" id="Procedure-backto-SamplingProcedure" style="stroke:#181818;stroke-width:1;"/><polygon fill="none" points="1741.92,55,1755.2061,68.5454,1760.6762,57.8647,1741.92,55" style="stroke:#181818;stroke-width:1;stroke-linejoin:miter;stroke-miterlimit:10;"/></g><!--reverse link Asset to Platform--><g class="link" data-entity-1="ent0020" data-entity-2="ent0021" data-link-type="extension" data-source-line="9" id="lnk22"><path codeLine="9" d="M2107.7839,70.6022 C2097.6239,88.2622 2092.63,96.94 2082.42,114.68" fill="none" id="Asset-backto-Platform" style="stroke:#181818;stroke-width:1;"/><polygon fill="none" points="2116.76,55,2102.5831,67.6102,2112.9846,73.5943,2116.76,55" style="stroke:#181818;stroke-width:1;stroke-linejoin:miter;stroke-miterlimit:10;"/></g><!--reverse link System to Sampler--><g class="link" data-entity-1="ent0023" data-entity-2="ent0024" data-link-type="extension" data-source-line="10" id="lnk25"><path codeLine="10" d="M2150.8865,174.5884 C2129.8965,192.2484 2114.81,204.94 2093.72,222.68" fill="none" id="System-backto-Sampler" style="stroke:#181818;stroke-width:1;"/><polygon fill="none" points="2164.66,163,2147.0237,169.9972,2154.7493,179.1795,2164.66,163" style="stroke:#181818;stroke-width:1;stroke-linejoin:miter;stroke-miterlimit:10;"/></g><!--reverse link System to Actuator--><g class="link" data-entity-1="ent0023" data-entity-2="ent0026" data-link-type="extension" data-source-line="11" id="lnk27"><path codeLine="11" d="M2192,181 C2192,198.66 2192,204.94 2192,222.68" fill="none" id="System-backto-Actuator" style="stroke:#181818;stroke-width:1;"/><polygon fill="none" points="2192,163,2186,181,2198,181,2192,163" style="stroke:#181818;stroke-width:1;stroke-linejoin:miter;stroke-miterlimit:10;"/></g><!--reverse link Asset to System--><g class="link" data-entity-1="ent0020" data-entity-2="ent0023" data-link-type="extension" data-source-line="12" id="lnk28"><path codeLine="12" d="M2152.5383,70.5372 C2162.8683,88.1972 2167.98,96.94 2178.36,114.68" fill="none" id="Asset-backto-System" style="stroke:#181818;stroke-width:1;"/><polygon fill="none" points="2143.45,55,2147.3592,73.5666,2157.7173,67.5077,2143.45,55" style="stroke:#181818;stroke-width:1;stroke-linejoin:miter;stroke-miterlimit:10;"/></g><!--reverse link Execution to Sampling--><g class="link" data-entity-1="ent0029" data-entity-2="ent0030" data-link-type="extension" data-source-line="13" id="lnk31"><path codeLine="13" d="M2408.8041,66.1688 C2386.4841,83.8288 2369.91,96.94 2347.48,114.68" fill="none" id="Execution-backto-Sampling" style="stroke:#181818;stroke-width:1;"/><polygon fill="none" points="2422.92,55,2405.0812,61.4635,2412.527,70.8741,2422.92,55" style="stroke:#181818;stroke-width:1;stroke-linejoin:miter;stroke-miterlimit:10;"/></g><!--reverse link ExecutionCollection to SamplingCollection--><g class="link" data-entity-1="ent0032" data-entity-2="ent0033" data-link-type="extension" data-source-line="14" id="lnk34"><path codeLine="14" d="M2914.231,63.3636 C2880.461,81.0836 2849.93,97.11 2816.09,114.86" fill="none" id="ExecutionCollection-backto-SamplingCollection" style="stroke:#181818;stroke-width:1;"/><polygon fill="none" points="2930.17,55,2911.4432,58.0506,2917.0189,68.6766,2930.17,55" style="stroke:#181818;stroke-width:1;stroke-linejoin:miter;stroke-miterlimit:10;"/></g><!--reverse link Execution to Actuation--><g class="link" data-entity-1="ent0029" data-entity-2="ent0035" data-link-type="extension" data-source-line="15" id="lnk36"><path codeLine="15" d="M2452,73 C2452,90.66 2452,96.94 2452,114.68" fill="none" id="Execution-backto-Actuation" style="stroke:#181818;stroke-width:1;"/><polygon fill="none" points="2452,55,2446,73,2458,73,2452,55" style="stroke:#181818;stroke-width:1;stroke-linejoin:miter;stroke-miterlimit:10;"/></g><!--reverse link System to Sensor--><g class="link" data-entity-1="ent0023" data-entity-2="ent0037" data-link-type="extension" data-source-line="16" id="lnk38"><path codeLine="16" d="M2231.7968,174.864 C2251.9468,192.524 2266.13,204.94 2286.38,222.68" fill="none" id="System-backto-Sensor" style="stroke:#181818;stroke-width:1;"/><polygon fill="none" points="2218.26,163,2227.8421,179.3763,2235.7515,170.3518,2218.26,163" style="stroke:#181818;stroke-width:1;stroke-linejoin:miter;stroke-miterlimit:10;"/></g><!--reverse link ExecutionCollection to ActuationCollection--><g class="link" data-entity-1="ent0032" data-entity-2="ent0039" data-link-type="extension" data-source-line="17" id="lnk40"><path codeLine="17" d="M2974,73 C2974,90.66 2974,96.94 2974,114.68" fill="none" id="ExecutionCollection-backto-ActuationCollection" style="stroke:#181818;stroke-width:1;"/><polygon fill="none" points="2974,55,2968,73,2980,73,2974,55" style="stroke:#181818;stroke-width:1;stroke-linejoin:miter;stroke-miterlimit:10;"/></g><!--reverse link ExecutionCollection to ObservationCollection--><g class="link" data-entity-1="ent0032" data-entity-2="ent0041" data-link-type="extension" data-source-line="18" id="lnk42"><path codeLine="18" d="M3036.0997,63.0498 C3071.5397,80.7698 3104.22,97.11 3139.72,114.86" fill="none" id="ExecutionCollection-backto-ObservationCollection" style="stroke:#181818;stroke-width:1;"/><polygon fill="none" points="3020,55,3033.4164,68.4164,3038.783,57.6833,3020,55" style="stroke:#181818;stroke-width:1;stroke-linejoin:miter;stroke-miterlimit:10;"/></g><!--reverse link Execution to Observation--><g class="link" data-entity-1="ent0029" data-entity-2="ent0043" data-link-type="extension" data-source-line="19" id="lnk44"><path codeLine="19" d="M2497.4895,65.7202 C2521.3095,83.3802 2539.61,96.94 2563.54,114.68" fill="none" id="Execution-backto-Observation" style="stroke:#181818;stroke-width:1;"/><polygon fill="none" points="2483.03,55,2493.9161,70.54,2501.0629,60.9004,2483.03,55" style="stroke:#181818;stroke-width:1;stroke-linejoin:miter;stroke-miterlimit:10;"/></g><?plantuml-src VL9BRiCW4Dtx5Bv0Rj1Dr2PI5f6j-WI4J2gauIDcY6AfXoyAc1Wxxiwytpm6zzuwy3os7x-xNRkN70IB2qAVyMOGsY4a-YmOl1AOi8eQdE0DXYD3h6HX-sfcTo7mzsfc_91m3HxchPJvAVXIaJB-Kpn7Lu8z4N0YUnHyirutmqWCUkO0Ns6fYVLpS-ARmmDaO6LDFU-5Vrf4a6l52rzcv7j7eke5XcA3pTpYUXUy5EVbRybNeaQY86g_mA4TDHZEm144nwLsjvE9lmZGXEVbRBZAWwVZDr30YUi2kr1YMEc0WQRZysbcXHDyCcl77m00?></g></svg>