<svg xmlns="http://www.w3.org/2000/svg" xmlns:xlink="http://www.w3.org/1999/xlink" contentStyleType="text/css" data-diagram-type="CLASS" height="286px" preserveAspectRatio="none" style="width:3144px;height:286px;background:#FFFFFF;" version="1.1" viewBox="0 0 3144 286" width="3144px" zoomAndPan="magnify"><?plantuml 1.2026.3?><defs/><g><!--class Property--><g class="entity" data-qualified-name="Property" data-source-line="1" id="ent0002"><rect fill="#F1F1F1" height="48" rx="2.5" ry="2.5" style="stroke:#181818;stroke-width:0.5;" width="91.7939" x="525" y="7"/><ellipse cx="540" cy="23" fill="#ADD1B2" rx="11" ry="11" style="stroke:#181818;stroke-width:1;"/><path d="M542.9688,28.6406 Q542.3906,28.9375 541.75,29.0781 Q541.1094,29.2344 540.4063,29.2344 Q537.9063,29.2344 536.5781,27.5938 Q535.2656,25.9375 535.2656,22.8125 Q535.2656,19.6875 536.5781,18.0313 Q537.9063,16.375 540.4063,16.375 Q541.1094,16.375 541.75,16.5313 Q542.4063,16.6875 542.9688,16.9844 L542.9688,19.7031 Q542.3438,19.125 541.75,18.8594 Q541.1563,18.5781 540.5313,18.5781 Q539.1875,18.5781 538.5,19.6563 Q537.8125,20.7188 537.8125,22.8125 Q537.8125,24.9063 538.5,25.9844 Q539.1875,27.0469 540.5313,27.0469 Q541.1563,27.0469 541.75,26.7813 Q542.3438,26.5 542.9688,25.9219 L542.9688,28.6406 Z " fill="#000000"/><text fill="#000000" font-family="sans-serif" font-size="14" lengthAdjust="spacing" textLength="59.7939" x="554" y="27.8467">Property</text><line style="stroke:#181818;stroke-width:0.5;" x1="526" x2="615.7939" y1="39" y2="39"/><line style="stroke:#181818;stroke-width:0.5;" x1="526" x2="615.7939" y1="47" y2="47"/></g><!--class ActuatableProperty--><g class="entity" data-qualified-name="ActuatableProperty" data-source-line="1" id="ent0003"><rect fill="#F1F1F1" height="48" rx="2.5" ry="2.5" style="stroke:#181818;stroke-width:0.5;" width="167.4678" x="309.5" y="115"/><ellipse cx="324.5" cy="131" fill="#ADD1B2" rx="11" ry="11" style="stroke:#181818;stroke-width:1;"/><path d="M327.4688,136.6406 Q326.8906,136.9375 326.25,137.0781 Q325.6094,137.2344 324.9063,137.2344 Q322.4063,137.2344 321.0781,135.5938 Q319.7656,133.9375 319.7656,130.8125 Q319.7656,127.6875 321.0781,126.0313 Q322.4063,124.375 324.9063,124.375 Q325.6094,124.375 326.25,124.5313 Q326.9063,124.6875 327.4688,124.9844 L327.4688,127.7031 Q326.8438,127.125 326.25,126.8594 Q325.6563,126.5781 325.0313,126.5781 Q323.6875,126.5781 323,127.6563 Q322.3125,128.7188 322.3125,130.8125 Q322.3125,132.9063 323,133.9844 Q323.6875,135.0469 325.0313,135.0469 Q325.6563,135.0469 326.25,134.7813 Q326.8438,134.5 327.4688,133.9219 L327.4688,136.6406 Z " fill="#000000"/><text fill="#000000" font-family="sans-serif" font-size="14" lengthAdjust="spacing" textLength="135.4678" x="338.5" y="135.8467">ActuatableProperty</text><line style="stroke:#181818;stroke-width:0.5;" x1="310.5" x2="475.9678" y1="147" y2="147"/><line style="stroke:#181818;stroke-width:0.5;" x1="310.5" x2="475.9678" y1="155" y2="155"/></g><!--class Sample--><g class="entity" data-qualified-name="Sample" data-source-line="2" id="ent0005"><rect fill="#F1F1F1" height="48" rx="2.5" ry="2.5" style="stroke:#181818;stroke-width:0.5;" width="84.4932" x="920" y="7"/><ellipse cx="935" cy="23" fill="#ADD1B2" rx="11" ry="11" style="stroke:#181818;stroke-width:1;"/><path d="M937.9688,28.6406 Q937.3906,28.9375 936.75,29.0781 Q936.1094,29.2344 935.4063,29.2344 Q932.9063,29.2344 931.5781,27.5938 Q930.2656,25.9375 930.2656,22.8125 Q930.2656,19.6875 931.5781,18.0313 Q932.9063,16.375 935.4063,16.375 Q936.1094,16.375 936.75,16.5313 Q937.4063,16.6875 937.9688,16.9844 L937.9688,19.7031 Q937.3438,19.125 936.75,18.8594 Q936.1563,18.5781 935.5313,18.5781 Q934.1875,18.5781 933.5,19.6563 Q932.8125,20.7188 932.8125,22.8125 Q932.8125,24.9063 933.5,25.9844 Q934.1875,27.0469 935.5313,27.0469 Q936.1563,27.0469 936.75,26.7813 Q937.3438,26.5 937.9688,25.9219 L937.9688,28.6406 Z " fill="#000000"/><text fill="#000000" font-family="sans-serif" font-size="14" lengthAdjust="spacing" textLength="52.4932" x="949" y="27.8467">Sample</text><line style="stroke:#181818;stroke-width:0.5;" x1="921" x2="1003.4932" y1="39" y2="39"/><line style="stroke:#181818;stroke-width:0.5;" x1="921" x2="1003.4932" y1="47" y2="47"/></g><!--class MaterialSample--><g class="entity" data-qualified-name="MaterialSample" data-source-line="2" id="ent0006"><rect fill="#F1F1F1" height="48" rx="2.5" ry="2.5" style="stroke:#181818;stroke-width:0.5;" width="141.3682" x="719.5" y="115"/><ellipse cx="734.5" cy="131" fill="#ADD1B2" rx="11" ry="11" style="stroke:#181818;stroke-width:1;"/><path d="M737.4688,136.6406 Q736.8906,136.9375 736.25,137.0781 Q735.6094,137.2344 734.9063,137.2344 Q732.4063,137.2344 731.0781,135.5938 Q729.7656,133.9375 729.7656,130.8125 Q729.7656,127.6875 731.0781,126.0313 Q732.4063,124.375 734.9063,124.375 Q735.6094,124.375 736.25,124.5313 Q736.9063,124.6875 737.4688,124.9844 L737.4688,127.7031 Q736.8438,127.125 736.25,126.8594 Q735.6563,126.5781 735.0313,126.5781 Q733.6875,126.5781 733,127.6563 Q732.3125,128.7188 732.3125,130.8125 Q732.3125,132.9063 733,133.9844 Q733.6875,135.0469 735.0313,135.0469 Q735.6563,135.0469 736.25,134.7813 Q736.8438,134.5 737.4688,133.9219 L737.4688,136.6406 Z " fill="#000000"/><text fill="#000000" font-family="sans-serif" font-size="14" lengthAdjust="spacing" textLength="109.3682" x="748.5" y="135.8467">MaterialSample</text><line style="stroke:#181818;stroke-width:0.5;" x1="720.5" x2="859.8682" y1="147" y2="147"/><line style="stroke:#181818;stroke-width:0.5;" x1="720.5" x2="859.8682" y1="155" y2="155"/></g><!--class ObservableProperty--><g class="entity" data-qualified-name="ObservableProperty" data-source-line="3" id="ent0008"><rect fill="#F1F1F1" height="48" rx="2.5" ry="2.5" style="stroke:#181818;stroke-width:0.5;" width="171.6172" x="512" y="115"/><ellipse cx="527" cy="131" fill="#ADD1B2" rx="11" ry="11" style="stroke:#181818;stroke-width:1;"/><path d="M529.9688,136.6406 Q529.3906,136.9375 528.75,137.0781 Q528.1094,137.2344 527.4063,137.2344 Q524.9063,137.2344 523.5781,135.5938 Q522.2656,133.9375 522.2656,130.8125 Q522.2656,127.6875 523.5781,126.0313 Q524.9063,124.375 527.4063,124.375 Q528.1094,124.375 528.75,124.5313 Q529.4063,124.6875 529.9688,124.9844 L529.9688,127.7031 Q529.3438,127.125 528.75,126.8594 Q528.1563,126.5781 527.5313,126.5781 Q526.1875,126.5781 525.5,127.6563 Q524.8125,128.7188 524.8125,130.8125 Q524.8125,132.9063 525.5,133.9844 Q526.1875,135.0469 527.5313,135.0469 Q528.1563,135.0469 528.75,134.7813 Q529.3438,134.5 529.9688,133.9219 L529.9688,136.6406 Z " fill="#000000"/><text fill="#000000" font-family="sans-serif" font-size="14" lengthAdjust="spacing" textLength="139.6172" x="541" y="135.8467">ObservableProperty</text><line style="stroke:#181818;stroke-width:0.5;" x1="513" x2="682.6172" y1="147" y2="147"/><line style="stroke:#181818;stroke-width:0.5;" x1="513" x2="682.6172" y1="155" y2="155"/></g><!--class SpatialSample--><g class="entity" data-qualified-name="SpatialSample" data-source-line="4" id="ent0010"><rect fill="#F1F1F1" height="48" rx="2.5" ry="2.5" style="stroke:#181818;stroke-width:0.5;" width="132.6934" x="895.5" y="115"/><ellipse cx="910.5" cy="131" fill="#ADD1B2" rx="11" ry="11" style="stroke:#181818;stroke-width:1;"/><path d="M913.4688,136.6406 Q912.8906,136.9375 912.25,137.0781 Q911.6094,137.2344 910.9063,137.2344 Q908.4063,137.2344 907.0781,135.5938 Q905.7656,133.9375 905.7656,130.8125 Q905.7656,127.6875 907.0781,126.0313 Q908.4063,124.375 910.9063,124.375 Q911.6094,124.375 912.25,124.5313 Q912.9063,124.6875 913.4688,124.9844 L913.4688,127.7031 Q912.8438,127.125 912.25,126.8594 Q911.6563,126.5781 911.0313,126.5781 Q909.6875,126.5781 909,127.6563 Q908.3125,128.7188 908.3125,130.8125 Q908.3125,132.9063 909,133.9844 Q909.6875,135.0469 911.0313,135.0469 Q911.6563,135.0469 912.25,134.7813 Q912.8438,134.5 913.4688,133.9219 L913.4688,136.6406 Z " fill="#000000"/><text fill="#000000" font-family="sans-serif" font-size="14" lengthAdjust="spacing" textLength="100.6934" x="924.5" y="135.8467">SpatialSample</text><line style="stroke:#181818;stroke-width:0.5;" x1="896.5" x2="1027.1934" y1="147" y2="147"/><line style="stroke:#181818;stroke-width:0.5;" x1="896.5" x2="1027.1934" y1="155" y2="155"/></g><!--class StatisticalSample--><g class="entity" data-qualified-name="StatisticalSample" data-source-line="5" id="ent0012"><rect fill="#F1F1F1" height="48" rx="2.5" ry="2.5" style="stroke:#181818;stroke-width:0.5;" width="153.666" x="1064" y="115"/><ellipse cx="1079" cy="131" fill="#ADD1B2" rx="11" ry="11" style="stroke:#181818;stroke-width:1;"/><path d="M1081.9688,136.6406 Q1081.3906,136.9375 1080.75,137.0781 Q1080.1094,137.2344 1079.4063,137.2344 Q1076.9063,137.2344 1075.5781,135.5938 Q1074.2656,133.9375 1074.2656,130.8125 Q1074.2656,127.6875 1075.5781,126.0313 Q1076.9063,124.375 1079.4063,124.375 Q1080.1094,124.375 1080.75,124.5313 Q1081.4063,124.6875 1081.9688,124.9844 L1081.9688,127.7031 Q1081.3438,127.125 1080.75,126.8594 Q1080.1563,126.5781 1079.5313,126.5781 Q1078.1875,126.5781 1077.5,127.6563 Q1076.8125,128.7188 1076.8125,130.8125 Q1076.8125,132.9063 1077.5,133.9844 Q1078.1875,135.0469 1079.5313,135.0469 Q1080.1563,135.0469 1080.75,134.7813 Q1081.3438,134.5 1081.9688,133.9219 L1081.9688,136.6406 Z " fill="#000000"/><text fill="#000000" font-family="sans-serif" font-size="14" lengthAdjust="spacing" textLength="121.666" x="1093" y="135.8467">StatisticalSample</text><line style="stroke:#181818;stroke-width:0.5;" x1="1065" x2="1216.666" y1="147" y2="147"/><line style="stroke:#181818;stroke-width:0.5;" x1="1065" x2="1216.666" y1="155" y2="155"/></g><!--class Procedure--><g class="entity" data-qualified-name="Procedure" data-source-line="6" id="ent0014"><rect fill="#F1F1F1" height="48" rx="2.5" ry="2.5" style="stroke:#181818;stroke-width:0.5;" width="103.2031" x="1495.5" y="7"/><ellipse cx="1510.5" cy="23" fill="#ADD1B2" rx="11" ry="11" style="stroke:#181818;stroke-width:1;"/><path d="M1513.4688,28.6406 Q1512.8906,28.9375 1512.25,29.0781 Q1511.6094,29.2344 1510.9063,29.2344 Q1508.4063,29.2344 1507.0781,27.5938 Q1505.7656,25.9375 1505.7656,22.8125 Q1505.7656,19.6875 1507.0781,18.0313 Q1508.4063,16.375 1510.9063,16.375 Q1511.6094,16.375 1512.25,16.5313 Q1512.9063,16.6875 1513.4688,16.9844 L1513.4688,19.7031 Q1512.8438,19.125 1512.25,18.8594 Q1511.6563,18.5781 1511.0313,18.5781 Q1509.6875,18.5781 1509,19.6563 Q1508.3125,20.7188 1508.3125,22.8125 Q1508.3125,24.9063 1509,25.9844 Q1509.6875,27.0469 1511.0313,27.0469 Q1511.6563,27.0469 1512.25,26.7813 Q1512.8438,26.5 1513.4688,25.9219 L1513.4688,28.6406 Z " fill="#000000"/><text fill="#000000" font-family="sans-serif" font-size="14" lengthAdjust="spacing" textLength="71.2031" x="1524.5" y="27.8467">Procedure</text><line style="stroke:#181818;stroke-width:0.5;" x1="1496.5" x2="1597.7031" y1="39" y2="39"/><line style="stroke:#181818;stroke-width:0.5;" x1="1496.5" x2="1597.7031" y1="47" y2="47"/></g><!--class ActuatingProcedure--><g class="entity" data-qualified-name="ActuatingProcedure" data-source-line="6" id="ent0015"><rect fill="#F1F1F1" height="48" rx="2.5" ry="2.5" style="stroke:#181818;stroke-width:0.5;" width="170.5576" x="1253.5" y="115"/><ellipse cx="1268.5" cy="131" fill="#ADD1B2" rx="11" ry="11" style="stroke:#181818;stroke-width:1;"/><path d="M1271.4688,136.6406 Q1270.8906,136.9375 1270.25,137.0781 Q1269.6094,137.2344 1268.9063,137.2344 Q1266.4063,137.2344 1265.0781,135.5938 Q1263.7656,133.9375 1263.7656,130.8125 Q1263.7656,127.6875 1265.0781,126.0313 Q1266.4063,124.375 1268.9063,124.375 Q1269.6094,124.375 1270.25,124.5313 Q1270.9063,124.6875 1271.4688,124.9844 L1271.4688,127.7031 Q1270.8438,127.125 1270.25,126.8594 Q1269.6563,126.5781 1269.0313,126.5781 Q1267.6875,126.5781 1267,127.6563 Q1266.3125,128.7188 1266.3125,130.8125 Q1266.3125,132.9063 1267,133.9844 Q1267.6875,135.0469 1269.0313,135.0469 Q1269.6563,135.0469 1270.25,134.7813 Q1270.8438,134.5 1271.4688,133.9219 L1271.4688,136.6406 Z " fill="#000000"/><text fill="#000000" font-family="sans-serif" font-size="14" lengthAdjust="spacing" textLength="138.5576" x="1282.5" y="135.8467">ActuatingProcedure</text><line style="stroke:#181818;stroke-width:0.5;" x1="1254.5" x2="1423.0576" y1="147" y2="147"/><line style="stroke:#181818;stroke-width:0.5;" x1="1254.5" x2="1423.0576" y1="155" y2="155"/></g><!--class ObservingProcedure--><g class="entity" data-qualified-name="ObservingProcedure" data-source-line="7" id="ent0017"><rect fill="#F1F1F1" height="48" rx="2.5" ry="2.5" style="stroke:#181818;stroke-width:0.5;" width="174.707" x="1459.5" y="115"/><ellipse cx="1474.5" cy="131" fill="#ADD1B2" rx="11" ry="11" style="stroke:#181818;stroke-width:1;"/><path d="M1477.4688,136.6406 Q1476.8906,136.9375 1476.25,137.0781 Q1475.6094,137.2344 1474.9063,137.2344 Q1472.4063,137.2344 1471.0781,135.5938 Q1469.7656,133.9375 1469.7656,130.8125 Q1469.7656,127.6875 1471.0781,126.0313 Q1472.4063,124.375 1474.9063,124.375 Q1475.6094,124.375 1476.25,124.5313 Q1476.9063,124.6875 1477.4688,124.9844 L1477.4688,127.7031 Q1476.8438,127.125 1476.25,126.8594 Q1475.6563,126.5781 1475.0313,126.5781 Q1473.6875,126.5781 1473,127.6563 Q1472.3125,128.7188 1472.3125,130.8125 Q1472.3125,132.9063 1473,133.9844 Q1473.6875,135.0469 1475.0313,135.0469 Q1475.6563,135.0469 1476.25,134.7813 Q1476.8438,134.5 1477.4688,133.9219 L1477.4688,136.6406 Z " fill="#000000"/><text fill="#000000" font-family="sans-serif" font-size="14" lengthAdjust="spacing" textLength="142.707" x="1488.5" y="135.8467">ObservingProcedure</text><line style="stroke:#181818;stroke-width:0.5;" x1="1460.5" x2="1633.207" y1="147" y2="147"/><line style="stroke:#181818;stroke-width:0.5;" x1="1460.5" x2="1633.207" y1="155" y2="155"/></g><!--class SamplingProcedure--><g class="entity" data-qualified-name="SamplingProcedure" data-source-line="8" id="ent0019"><rect fill="#F1F1F1" height="48" rx="2.5" ry="2.5" style="stroke:#181818;stroke-width:0.5;" width="168.7324" x="1669.5" y="115"/><ellipse cx="1684.5" cy="131" fill="#ADD1B2" rx="11" ry="11" style="stroke:#181818;stroke-width:1;"/><path d="M1687.4688,136.6406 Q1686.8906,136.9375 1686.25,137.0781 Q1685.6094,137.2344 1684.9063,137.2344 Q1682.4063,137.2344 1681.0781,135.5938 Q1679.7656,133.9375 1679.7656,130.8125 Q1679.7656,127.6875 1681.0781,126.0313 Q1682.4063,124.375 1684.9063,124.375 Q1685.6094,124.375 1686.25,124.5313 Q1686.9063,124.6875 1687.4688,124.9844 L1687.4688,127.7031 Q1686.8438,127.125 1686.25,126.8594 Q1685.6563,126.5781 1685.0313,126.5781 Q1683.6875,126.5781 1683,127.6563 Q1682.3125,128.7188 1682.3125,130.8125 Q1682.3125,132.9063 1683,133.9844 Q1683.6875,135.0469 1685.0313,135.0469 Q1685.6563,135.0469 1686.25,134.7813 Q1686.8438,134.5 1687.4688,133.9219 L1687.4688,136.6406 Z " fill="#000000"/><text fill="#000000" font-family="sans-serif" font-size="14" lengthAdjust="spacing" textLength="136.7324" x="1698.5" y="135.8467">SamplingProcedure</text><line style="stroke:#181818;stroke-width:0.5;" x1="1670.5" x2="1837.2324" y1="147" y2="147"/><line style="stroke:#181818;stroke-width:0.5;" x1="1670.5" x2="1837.2324" y1="155" y2="155"/></g><!--class Asset--><g class="entity" data-qualified-name="Asset" data-source-line="9" id="ent0021"><rect fill="#F1F1F1" height="48" rx="2.5" ry="2.5" style="stroke:#181818;stroke-width:0.5;" width="70.2676" x="1945" y="7"/><ellipse cx="1960" cy="23" fill="#ADD1B2" rx="11" ry="11" style="stroke:#181818;stroke-width:1;"/><path d="M1962.9688,28.6406 Q1962.3906,28.9375 1961.75,29.0781 Q1961.1094,29.2344 1960.4063,29.2344 Q1957.9063,29.2344 1956.5781,27.5938 Q1955.2656,25.9375 1955.2656,22.8125 Q1955.2656,19.6875 1956.5781,18.0313 Q1957.9063,16.375 1960.4063,16.375 Q1961.1094,16.375 1961.75,16.5313 Q1962.4063,16.6875 1962.9688,16.9844 L1962.9688,19.7031 Q1962.3438,19.125 1961.75,18.8594 Q1961.1563,18.5781 1960.5313,18.5781 Q1959.1875,18.5781 1958.5,19.6563 Q1957.8125,20.7188 1957.8125,22.8125 Q1957.8125,24.9063 1958.5,25.9844 Q1959.1875,27.0469 1960.5313,27.0469 Q1961.1563,27.0469 1961.75,26.7813 Q1962.3438,26.5 1962.9688,25.9219 L1962.9688,28.6406 Z " fill="#000000"/><text fill="#000000" font-family="sans-serif" font-size="14" lengthAdjust="spacing" textLength="38.2676" x="1974" y="27.8467">Asset</text><line style="stroke:#181818;stroke-width:0.5;" x1="1946" x2="2014.2676" y1="39" y2="39"/><line style="stroke:#181818;stroke-width:0.5;" x1="1946" x2="2014.2676" y1="47" y2="47"/></g><!--class Platform--><g class="entity" data-qualified-name="Platform" data-source-line="9" id="ent0022"><rect fill="#F1F1F1" height="48" rx="2.5" ry="2.5" style="stroke:#181818;stroke-width:0.5;" width="91.2881" x="1873.5" y="115"/><ellipse cx="1888.5" cy="131" fill="#ADD1B2" rx="11" ry="11" style="stroke:#181818;stroke-width:1;"/><path d="M1891.4688,136.6406 Q1890.8906,136.9375 1890.25,137.0781 Q1889.6094,137.2344 1888.9063,137.2344 Q1886.4063,137.2344 1885.0781,135.5938 Q1883.7656,133.9375 1883.7656,130.8125 Q1883.7656,127.6875 1885.0781,126.0313 Q1886.4063,124.375 1888.9063,124.375 Q1889.6094,124.375 1890.25,124.5313 Q1890.9063,124.6875 1891.4688,124.9844 L1891.4688,127.7031 Q1890.8438,127.125 1890.25,126.8594 Q1889.6563,126.5781 1889.0313,126.5781 Q1887.6875,126.5781 1887,127.6563 Q1886.3125,128.7188 1886.3125,130.8125 Q1886.3125,132.9063 1887,133.9844 Q1887.6875,135.0469 1889.0313,135.0469 Q1889.6563,135.0469 1890.25,134.7813 Q1890.8438,134.5 1891.4688,133.9219 L1891.4688,136.6406 Z " fill="#000000"/><text fill="#000000" font-family="sans-serif" font-size="14" lengthAdjust="spacing" textLength="59.2881" x="1902.5" y="135.8467">Platform</text><line style="stroke:#181818;stroke-width:0.5;" x1="1874.5" x2="1963.7881" y1="147" y2="147"/><line style="stroke:#181818;stroke-width:0.5;" x1="1874.5" x2="1963.7881" y1="155" y2="155"/></g><!--class System--><g class="entity" data-qualified-name="System" data-source-line="10" id="ent0024"><rect fill="#F1F1F1" height="48" rx="2.5" ry="2.5" style="stroke:#181818;stroke-width:0.5;" width="84.2061" x="2000" y="115"/><ellipse cx="2015" cy="131" fill="#ADD1B2" rx="11" ry="11" style="stroke:#181818;stroke-width:1;"/><path d="M2017.9688,136.6406 Q2017.3906,136.9375 2016.75,137.0781 Q2016.1094,137.2344 2015.4063,137.2344 Q2012.9063,137.2344 2011.5781,135.5938 Q2010.2656,133.9375 2010.2656,130.8125 Q2010.2656,127.6875 2011.5781,126.0313 Q2012.9063,124.375 2015.4063,124.375 Q2016.1094,124.375 2016.75,124.5313 Q2017.4063,124.6875 2017.9688,124.9844 L2017.9688,127.7031 Q2017.3438,127.125 2016.75,126.8594 Q2016.1563,126.5781 2015.5313,126.5781 Q2014.1875,126.5781 2013.5,127.6563 Q2012.8125,128.7188 2012.8125,130.8125 Q2012.8125,132.9063 2013.5,133.9844 Q2014.1875,135.0469 2015.5313,135.0469 Q2016.1563,135.0469 2016.75,134.7813 Q2017.3438,134.5 2017.9688,133.9219 L2017.9688,136.6406 Z " fill="#000000"/><text fill="#000000" font-family="sans-serif" font-size="14" lengthAdjust="spacing" textLength="52.2061" x="2029" y="135.8467">System</text><line style="stroke:#181818;stroke-width:0.5;" x1="2001" x2="2083.2061" y1="147" y2="147"/><line style="stroke:#181818;stroke-width:0.5;" x1="2001" x2="2083.2061" y1="155" y2="155"/></g><!--class Sampler--><g class="entity" data-qualified-name="Sampler" data-source-line="10" id="ent0025"><rect fill="#F1F1F1" height="48" rx="2.5" ry="2.5" style="stroke:#181818;stroke-width:0.5;" width="90.249" x="1871" y="223"/><ellipse cx="1886" cy="239" fill="#ADD1B2" rx="11" ry="11" style="stroke:#181818;stroke-width:1;"/><path d="M1888.9688,244.6406 Q1888.3906,244.9375 1887.75,245.0781 Q1887.1094,245.2344 1886.4063,245.2344 Q1883.9063,245.2344 1882.5781,243.5938 Q1881.2656,241.9375 1881.2656,238.8125 Q1881.2656,235.6875 1882.5781,234.0313 Q1883.9063,232.375 1886.4063,232.375 Q1887.1094,232.375 1887.75,232.5313 Q1888.4063,232.6875 1888.9688,232.9844 L1888.9688,235.7031 Q1888.3438,235.125 1887.75,234.8594 Q1887.1563,234.5781 1886.5313,234.5781 Q1885.1875,234.5781 1884.5,235.6563 Q1883.8125,236.7188 1883.8125,238.8125 Q1883.8125,240.9063 1884.5,241.9844 Q1885.1875,243.0469 1886.5313,243.0469 Q1887.1563,243.0469 1887.75,242.7813 Q1888.3438,242.5 1888.9688,241.9219 L1888.9688,244.6406 Z " fill="#000000"/><text fill="#000000" font-family="sans-serif" font-size="14" lengthAdjust="spacing" textLength="58.249" x="1900" y="243.8467">Sampler</text><line style="stroke:#181818;stroke-width:0.5;" x1="1872" x2="1960.249" y1="255" y2="255"/><line style="stroke:#181818;stroke-width:0.5;" x1="1872" x2="1960.249" y1="263" y2="263"/></g><!--class Actuator--><g class="entity" data-qualified-name="Actuator" data-source-line="11" id="ent0027"><rect fill="#F1F1F1" height="48" rx="2.5" ry="2.5" style="stroke:#181818;stroke-width:0.5;" width="92.0264" x="1996" y="223"/><ellipse cx="2011" cy="239" fill="#ADD1B2" rx="11" ry="11" style="stroke:#181818;stroke-width:1;"/><path d="M2013.9688,244.6406 Q2013.3906,244.9375 2012.75,245.0781 Q2012.1094,245.2344 2011.4063,245.2344 Q2008.9063,245.2344 2007.5781,243.5938 Q2006.2656,241.9375 2006.2656,238.8125 Q2006.2656,235.6875 2007.5781,234.0313 Q2008.9063,232.375 2011.4063,232.375 Q2012.1094,232.375 2012.75,232.5313 Q2013.4063,232.6875 2013.9688,232.9844 L2013.9688,235.7031 Q2013.3438,235.125 2012.75,234.8594 Q2012.1563,234.5781 2011.5313,234.5781 Q2010.1875,234.5781 2009.5,235.6563 Q2008.8125,236.7188 2008.8125,238.8125 Q2008.8125,240.9063 2009.5,241.9844 Q2010.1875,243.0469 2011.5313,243.0469 Q2012.1563,243.0469 2012.75,242.7813 Q2013.3438,242.5 2013.9688,241.9219 L2013.9688,244.6406 Z " fill="#000000"/><text fill="#000000" font-family="sans-serif" font-size="14" lengthAdjust="spacing" textLength="60.0264" x="2025" y="243.8467">Actuator</text><line style="stroke:#181818;stroke-width:0.5;" x1="1997" x2="2087.0264" y1="255" y2="255"/><line style="stroke:#181818;stroke-width:0.5;" x1="1997" x2="2087.0264" y1="263" y2="263"/></g><!--class ExecutionCollection--><g class="entity" data-qualified-name="ExecutionCollection" data-source-line="12" id="ent0029"><rect fill="#F1F1F1" height="48" rx="2.5" ry="2.5" style="stroke:#181818;stroke-width:0.5;" width="170.3799" x="2320" y="7"/><ellipse cx="2335" cy="23" fill="#ADD1B2" rx="11" ry="11" style="stroke:#181818;stroke-width:1;"/><path d="M2337.9688,28.6406 Q2337.3906,28.9375 2336.75,29.0781 Q2336.1094,29.2344 2335.4063,29.2344 Q2332.9063,29.2344 2331.5781,27.5938 Q2330.2656,25.9375 2330.2656,22.8125 Q2330.2656,19.6875 2331.5781,18.0313 Q2332.9063,16.375 2335.4063,16.375 Q2336.1094,16.375 2336.75,16.5313 Q2337.4063,16.6875 2337.9688,16.9844 L2337.9688,19.7031 Q2337.3438,19.125 2336.75,18.8594 Q2336.1563,18.5781 2335.5313,18.5781 Q2334.1875,18.5781 2333.5,19.6563 Q2332.8125,20.7188 2332.8125,22.8125 Q2332.8125,24.9063 2333.5,25.9844 Q2334.1875,27.0469 2335.5313,27.0469 Q2336.1563,27.0469 2336.75,26.7813 Q2337.3438,26.5 2337.9688,25.9219 L2337.9688,28.6406 Z " fill="#000000"/><text fill="#000000" font-family="sans-serif" font-size="14" lengthAdjust="spacing" textLength="138.3799" x="2349" y="27.8467">ExecutionCollection</text><line style="stroke:#181818;stroke-width:0.5;" x1="2321" x2="2489.3799" y1="39" y2="39"/><line style="stroke:#181818;stroke-width:0.5;" x1="2321" x2="2489.3799" y1="47" y2="47"/></g><!--class SamplingCollection--><g class="entity" data-qualified-name="SamplingCollection" data-source-line="12" id="ent0030"><rect fill="#F1F1F1" height="48" rx="2.5" ry="2.5" style="stroke:#181818;stroke-width:0.5;" width="166.7773" x="2119.5" y="115"/><ellipse cx="2134.5" cy="131" fill="#ADD1B2" rx="11" ry="11" style="stroke:#181818;stroke-width:1;"/><path d="M2137.4688,136.6406 Q2136.8906,136.9375 2136.25,137.0781 Q2135.6094,137.2344 2134.9063,137.2344 Q2132.4063,137.2344 2131.0781,135.5938 Q2129.7656,133.9375 2129.7656,130.8125 Q2129.7656,127.6875 2131.0781,126.0313 Q2132.4063,124.375 2134.9063,124.375 Q2135.6094,124.375 2136.25,124.5313 Q2136.9063,124.6875 2137.4688,124.9844 L2137.4688,127.7031 Q2136.8438,127.125 2136.25,126.8594 Q2135.6563,126.5781 2135.0313,126.5781 Q2133.6875,126.5781 2133,127.6563 Q2132.3125,128.7188 2132.3125,130.8125 Q2132.3125,132.9063 2133,133.9844 Q2133.6875,135.0469 2135.0313,135.0469 Q2135.6563,135.0469 2136.25,134.7813 Q2136.8438,134.5 2137.4688,133.9219 L2137.4688,136.6406 Z " fill="#000000"/><text fill="#000000" font-family="sans-serif" font-size="14" lengthAdjust="spacing" textLength="134.7773" x="2148.5" y="135.8467">SamplingCollection</text><line style="stroke:#181818;stroke-width:0.5;" x1="2120.5" x2="2285.2773" y1="147" y2="147"/><line style="stroke:#181818;stroke-width:0.5;" x1="2120.5" x2="2285.2773" y1="155" y2="155"/></g><!--class Sensor--><g class="entity" data-qualified-name="Sensor" data-source-line="14" id="ent0033"><rect fill="#F1F1F1" height="48" rx="2.5" ry="2.5" style="stroke:#181818;stroke-width:0.5;" width="79.9883" x="2123" y="223"/><ellipse cx="2138" cy="239" fill="#ADD1B2" rx="11" ry="11" style="stroke:#181818;stroke-width:1;"/><path d="M2140.9688,244.6406 Q2140.3906,244.9375 2139.75,245.0781 Q2139.1094,245.2344 2138.4063,245.2344 Q2135.9063,245.2344 2134.5781,243.5938 Q2133.2656,241.9375 2133.2656,238.8125 Q2133.2656,235.6875 2134.5781,234.0313 Q2135.9063,232.375 2138.4063,232.375 Q2139.1094,232.375 2139.75,232.5313 Q2140.4063,232.6875 2140.9688,232.9844 L2140.9688,235.7031 Q2140.3438,235.125 2139.75,234.8594 Q2139.1563,234.5781 2138.5313,234.5781 Q2137.1875,234.5781 2136.5,235.6563 Q2135.8125,236.7188 2135.8125,238.8125 Q2135.8125,240.9063 2136.5,241.9844 Q2137.1875,243.0469 2138.5313,243.0469 Q2139.1563,243.0469 2139.75,242.7813 Q2140.3438,242.5 2140.9688,241.9219 L2140.9688,244.6406 Z " fill="#000000"/><text fill="#000000" font-family="sans-serif" font-size="14" lengthAdjust="spacing" textLength="47.9883" x="2152" y="243.8467">Sensor</text><line style="stroke:#181818;stroke-width:0.5;" x1="2124" x2="2201.9883" y1="255" y2="255"/><line style="stroke:#181818;stroke-width:0.5;" x1="2124" x2="2201.9883" y1="263" y2="263"/></g><!--class Execution--><g class="entity" data-qualified-name="Execution" data-source-line="15" id="ent0035"><rect fill="#F1F1F1" height="48" rx="2.5" ry="2.5" style="stroke:#181818;stroke-width:0.5;" width="101.1318" x="2877.5" y="7"/><ellipse cx="2892.5" cy="23" fill="#ADD1B2" rx="11" ry="11" style="stroke:#181818;stroke-width:1;"/><path d="M2895.4688,28.6406 Q2894.8906,28.9375 2894.25,29.0781 Q2893.6094,29.2344 2892.9063,29.2344 Q2890.4063,29.2344 2889.0781,27.5938 Q2887.7656,25.9375 2887.7656,22.8125 Q2887.7656,19.6875 2889.0781,18.0313 Q2890.4063,16.375 2892.9063,16.375 Q2893.6094,16.375 2894.25,16.5313 Q2894.9063,16.6875 2895.4688,16.9844 L2895.4688,19.7031 Q2894.8438,19.125 2894.25,18.8594 Q2893.6563,18.5781 2893.0313,18.5781 Q2891.6875,18.5781 2891,19.6563 Q2890.3125,20.7188 2890.3125,22.8125 Q2890.3125,24.9063 2891,25.9844 Q2891.6875,27.0469 2893.0313,27.0469 Q2893.6563,27.0469 2894.25,26.7813 Q2894.8438,26.5 2895.4688,25.9219 L2895.4688,28.6406 Z " fill="#000000"/><text fill="#000000" font-family="sans-serif" font-size="14" lengthAdjust="spacing" textLength="69.1318" x="2906.5" y="27.8467">Execution</text><line style="stroke:#181818;stroke-width:0.5;" x1="2878.5" x2="2977.6318" y1="39" y2="39"/><line style="stroke:#181818;stroke-width:0.5;" x1="2878.5" x2="2977.6318" y1="47" y2="47"/></g><!--class Sampling--><g class="entity" data-qualified-name="Sampling" data-source-line="15" id="ent0036"><rect fill="#F1F1F1" height="48" rx="2.5" ry="2.5" style="stroke:#181818;stroke-width:0.5;" width="97.5293" x="2745" y="115"/><ellipse cx="2760" cy="131" fill="#ADD1B2" rx="11" ry="11" style="stroke:#181818;stroke-width:1;"/><path d="M2762.9688,136.6406 Q2762.3906,136.9375 2761.75,137.0781 Q2761.1094,137.2344 2760.4063,137.2344 Q2757.9063,137.2344 2756.5781,135.5938 Q2755.2656,133.9375 2755.2656,130.8125 Q2755.2656,127.6875 2756.5781,126.0313 Q2757.9063,124.375 2760.4063,124.375 Q2761.1094,124.375 2761.75,124.5313 Q2762.4063,124.6875 2762.9688,124.9844 L2762.9688,127.7031 Q2762.3438,127.125 2761.75,126.8594 Q2761.1563,126.5781 2760.5313,126.5781 Q2759.1875,126.5781 2758.5,127.6563 Q2757.8125,128.7188 2757.8125,130.8125 Q2757.8125,132.9063 2758.5,133.9844 Q2759.1875,135.0469 2760.5313,135.0469 Q2761.1563,135.0469 2761.75,134.7813 Q2762.3438,134.5 2762.9688,133.9219 L2762.9688,136.6406 Z " fill="#000000"/><text fill="#000000" font-family="sans-serif" font-size="14" lengthAdjust="spacing" textLength="65.5293" x="2774" y="135.8467">Sampling</text><line style="stroke:#181818;stroke-width:0.5;" x1="2746" x2="2841.5293" y1="147" y2="147"/><line style="stroke:#181818;stroke-width:0.5;" x1="2746" x2="2841.5293" y1="155" y2="155"/></g><!--class Actuation--><g class="entity" data-qualified-name="Actuation" data-source-line="16" id="ent0038"><rect fill="#F1F1F1" height="48" rx="2.5" ry="2.5" style="stroke:#181818;stroke-width:0.5;" width="99.0332" x="2878.5" y="115"/><ellipse cx="2893.5" cy="131" fill="#ADD1B2" rx="11" ry="11" style="stroke:#181818;stroke-width:1;"/><path d="M2896.4688,136.6406 Q2895.8906,136.9375 2895.25,137.0781 Q2894.6094,137.2344 2893.9063,137.2344 Q2891.4063,137.2344 2890.0781,135.5938 Q2888.7656,133.9375 2888.7656,130.8125 Q2888.7656,127.6875 2890.0781,126.0313 Q2891.4063,124.375 2893.9063,124.375 Q2894.6094,124.375 2895.25,124.5313 Q2895.9063,124.6875 2896.4688,124.9844 L2896.4688,127.7031 Q2895.8438,127.125 2895.25,126.8594 Q2894.6563,126.5781 2894.0313,126.5781 Q2892.6875,126.5781 2892,127.6563 Q2891.3125,128.7188 2891.3125,130.8125 Q2891.3125,132.9063 2892,133.9844 Q2892.6875,135.0469 2894.0313,135.0469 Q2894.6563,135.0469 2895.25,134.7813 Q2895.8438,134.5 2896.4688,133.9219 L2896.4688,136.6406 Z " fill="#000000"/><text fill="#000000" font-family="sans-serif" font-size="14" lengthAdjust="spacing" textLength="67.0332" x="2907.5" y="135.8467">Actuation</text><line style="stroke:#181818;stroke-width:0.5;" x1="2879.5" x2="2976.5332" y1="147" y2="147"/><line style="stroke:#181818;stroke-width:0.5;" x1="2879.5" x2="2976.5332" y1="155" y2="155"/></g><!--class ActuationCollection--><g class="entity" data-qualified-name="ActuationCollection" data-source-line="17" id="ent0040"><rect fill="#F1F1F1" height="48" rx="2.5" ry="2.5" style="stroke:#181818;stroke-width:0.5;" width="168.2813" x="2321" y="115"/><ellipse cx="2336" cy="131" fill="#ADD1B2" rx="11" ry="11" style="stroke:#181818;stroke-width:1;"/><path d="M2338.9688,136.6406 Q2338.3906,136.9375 2337.75,137.0781 Q2337.1094,137.2344 2336.4063,137.2344 Q2333.9063,137.2344 2332.5781,135.5938 Q2331.2656,133.9375 2331.2656,130.8125 Q2331.2656,127.6875 2332.5781,126.0313 Q2333.9063,124.375 2336.4063,124.375 Q2337.1094,124.375 2337.75,124.5313 Q2338.4063,124.6875 2338.9688,124.9844 L2338.9688,127.7031 Q2338.3438,127.125 2337.75,126.8594 Q2337.1563,126.5781 2336.5313,126.5781 Q2335.1875,126.5781 2334.5,127.6563 Q2333.8125,128.7188 2333.8125,130.8125 Q2333.8125,132.9063 2334.5,133.9844 Q2335.1875,135.0469 2336.5313,135.0469 Q2337.1563,135.0469 2337.75,134.7813 Q2338.3438,134.5 2338.9688,133.9219 L2338.9688,136.6406 Z " fill="#000000"/><text fill="#000000" font-family="sans-serif" font-size="14" lengthAdjust="spacing" textLength="136.2813" x="2350" y="135.8467">ActuationCollection</text><line style="stroke:#181818;stroke-width:0.5;" x1="2322" x2="2488.2813" y1="147" y2="147"/><line style="stroke:#181818;stroke-width:0.5;" x1="2322" x2="2488.2813" y1="155" y2="155"/></g><!--class ObservationCollection--><g class="entity" data-qualified-name="ObservationCollection" data-source-line="18" id="ent0042"><rect fill="#F1F1F1" height="48" rx="2.5" ry="2.5" style="stroke:#181818;stroke-width:0.5;" width="186.499" x="2524" y="115"/><ellipse cx="2539" cy="131" fill="#ADD1B2" rx="11" ry="11" style="stroke:#181818;stroke-width:1;"/><path d="M2541.9688,136.6406 Q2541.3906,136.9375 2540.75,137.0781 Q2540.1094,137.2344 2539.4063,137.2344 Q2536.9063,137.2344 2535.5781,135.5938 Q2534.2656,133.9375 2534.2656,130.8125 Q2534.2656,127.6875 2535.5781,126.0313 Q2536.9063,124.375 2539.4063,124.375 Q2540.1094,124.375 2540.75,124.5313 Q2541.4063,124.6875 2541.9688,124.9844 L2541.9688,127.7031 Q2541.3438,127.125 2540.75,126.8594 Q2540.1563,126.5781 2539.5313,126.5781 Q2538.1875,126.5781 2537.5,127.6563 Q2536.8125,128.7188 2536.8125,130.8125 Q2536.8125,132.9063 2537.5,133.9844 Q2538.1875,135.0469 2539.5313,135.0469 Q2540.1563,135.0469 2540.75,134.7813 Q2541.3438,134.5 2541.9688,133.9219 L2541.9688,136.6406 Z " fill="#000000"/><text fill="#000000" font-family="sans-serif" font-size="14" lengthAdjust="spacing" textLength="154.499" x="2553" y="135.8467">ObservationCollection</text><line style="stroke:#181818;stroke-width:0.5;" x1="2525" x2="2709.499" y1="147" y2="147"/><line style="stroke:#181818;stroke-width:0.5;" x1="2525" x2="2709.499" y1="155" y2="155"/></g><!--class Observation--><g class="entity" data-qualified-name="Observation" data-source-line="19" id="ent0044"><rect fill="#F1F1F1" height="48" rx="2.5" ry="2.5" style="stroke:#181818;stroke-width:0.5;" width="117.251" x="3012.5" y="115"/><ellipse cx="3027.5" cy="131" fill="#ADD1B2" rx="11" ry="11" style="stroke:#181818;stroke-width:1;"/><path d="M3030.4688,136.6406 Q3029.8906,136.9375 3029.25,137.0781 Q3028.6094,137.2344 3027.9063,137.2344 Q3025.4063,137.2344 3024.0781,135.5938 Q3022.7656,133.9375 3022.7656,130.8125 Q3022.7656,127.6875 3024.0781,126.0313 Q3025.4063,124.375 3027.9063,124.375 Q3028.6094,124.375 3029.25,124.5313 Q3029.9063,124.6875 3030.4688,124.9844 L3030.4688,127.7031 Q3029.8438,127.125 3029.25,126.8594 Q3028.6563,126.5781 3028.0313,126.5781 Q3026.6875,126.5781 3026,127.6563 Q3025.3125,128.7188 3025.3125,130.8125 Q3025.3125,132.9063 3026,133.9844 Q3026.6875,135.0469 3028.0313,135.0469 Q3028.6563,135.0469 3029.25,134.7813 Q3029.8438,134.5 3030.4688,133.9219 L3030.4688,136.6406 Z " fill="#000000"/><text fill="#000000" font-family="sans-serif" font-size="14" lengthAdjust="spacing" textLength="85.251" x="3041.5" y="135.8467">Observation</text><line style="stroke:#181818;stroke-width:0.5;" x1="3013.5" x2="3128.751" y1="147" y2="147"/><line style="stroke:#181818;stroke-width:0.5;" x1="3013.5" x2="3128.751" y1="155" y2="155"/></g><!--class Deployment--><g class="entity" data-qualified-name="Deployment" data-source-line="20" id="ent0046"><rect fill="#F1F1F1" height="48" rx="2.5" ry="2.5" style="stroke:#181818;stroke-width:0.5;" width="117.6338" x="26" y="7"/><ellipse cx="41" cy="23" fill="#ADD1B2" rx="11" ry="11" style="stroke:#181818;stroke-width:1;"/><path d="M43.9688,28.6406 Q43.3906,28.9375 42.75,29.0781 Q42.1094,29.2344 41.4063,29.2344 Q38.9063,29.2344 37.5781,27.5938 Q36.2656,25.9375 36.2656,22.8125 Q36.2656,19.6875 37.5781,18.0313 Q38.9063,16.375 41.4063,16.375 Q42.1094,16.375 42.75,16.5313 Q43.4063,16.6875 43.9688,16.9844 L43.9688,19.7031 Q43.3438,19.125 42.75,18.8594 Q42.1563,18.5781 41.5313,18.5781 Q40.1875,18.5781 39.5,19.6563 Q38.8125,20.7188 38.8125,22.8125 Q38.8125,24.9063 39.5,25.9844 Q40.1875,27.0469 41.5313,27.0469 Q42.1563,27.0469 42.75,26.7813 Q43.3438,26.5 43.9688,25.9219 L43.9688,28.6406 Z " fill="#000000"/><text fill="#000000" font-family="sans-serif" font-size="14" lengthAdjust="spacing" textLength="85.6338" x="55" y="27.8467">Deployment</text><line style="stroke:#181818;stroke-width:0.5;" x1="27" x2="142.6338" y1="39" y2="39"/><line style="stroke:#181818;stroke-width:0.5;" x1="27" x2="142.6338" y1="47" y2="47"/></g><!--class Stimulus--><g class="entity" data-qualified-name="Stimulus" data-source-line="21" id="ent0047"><rect fill="#F1F1F1" height="48" rx="2.5" ry="2.5" style="stroke:#181818;stroke-width:0.5;" width="92.833" x="179.5" y="7"/><ellipse cx="194.5" cy="23" fill="#ADD1B2" rx="11" ry="11" style="stroke:#181818;stroke-width:1;"/><path d="M197.4688,28.6406 Q196.8906,28.9375 196.25,29.0781 Q195.6094,29.2344 194.9063,29.2344 Q192.4063,29.2344 191.0781,27.5938 Q189.7656,25.9375 189.7656,22.8125 Q189.7656,19.6875 191.0781,18.0313 Q192.4063,16.375 194.9063,16.375 Q195.6094,16.375 196.25,16.5313 Q196.9063,16.6875 197.4688,16.9844 L197.4688,19.7031 Q196.8438,19.125 196.25,18.8594 Q195.6563,18.5781 195.0313,18.5781 Q193.6875,18.5781 193,19.6563 Q192.3125,20.7188 192.3125,22.8125 Q192.3125,24.9063 193,25.9844 Q193.6875,27.0469 195.0313,27.0469 Q195.6563,27.0469 196.25,26.7813 Q196.8438,26.5 197.4688,25.9219 L197.4688,28.6406 Z " fill="#000000"/><text fill="#000000" font-family="sans-serif" font-size="14" lengthAdjust="spacing" textLength="60.833" x="208.5" y="27.8467">Stimulus</text><line style="stroke:#181818;stroke-width:0.5;" x1="180.5" x2="271.333" y1="39" y2="39"/><line style="stroke:#181818;stroke-width:0.5;" x1="180.5" x2="271.333" y1="47" y2="47"/></g><!--class SampleCollection--><g class="entity" data-qualified-name="SampleCollection" data-source-line="22" id="ent0048"><rect fill="#F1F1F1" height="48" rx="2.5" ry="2.5" style="stroke:#181818;stroke-width:0.5;" width="153.7412" x="308" y="7"/><ellipse cx="323" cy="23" fill="#ADD1B2" rx="11" ry="11" style="stroke:#181818;stroke-width:1;"/><path d="M325.9688,28.6406 Q325.3906,28.9375 324.75,29.0781 Q324.1094,29.2344 323.4063,29.2344 Q320.9063,29.2344 319.5781,27.5938 Q318.2656,25.9375 318.2656,22.8125 Q318.2656,19.6875 319.5781,18.0313 Q320.9063,16.375 323.4063,16.375 Q324.1094,16.375 324.75,16.5313 Q325.4063,16.6875 325.9688,16.9844 L325.9688,19.7031 Q325.3438,19.125 324.75,18.8594 Q324.1563,18.5781 323.5313,18.5781 Q322.1875,18.5781 321.5,19.6563 Q320.8125,20.7188 320.8125,22.8125 Q320.8125,24.9063 321.5,25.9844 Q322.1875,27.0469 323.5313,27.0469 Q324.1563,27.0469 324.75,26.7813 Q325.3438,26.5 325.9688,25.9219 L325.9688,28.6406 Z " fill="#000000"/><text fill="#000000" font-family="sans-serif" font-size="14" lengthAdjust="spacing" textLength="121.7412" x="337" y="27.8467">SampleCollection</text><line style="stroke:#181818;stroke-width:0.5;" x1="309" x2="460.7412" y1="39" y2="39"/><line style="stroke:#181818;stroke-width:0.5;" x1="309" x2="460.7412" y1="47" y2="47"/></g><!--class FeatureOfInterest--><g class="entity" data-qualified-name="FeatureOfInterest" data-source-line="23" id="ent0049"><rect fill="#F1F1F1" height="48" rx="2.5" ry="2.5" style="stroke:#181818;stroke-width:0.5;" width="156.1816" x="7" y="115"/><ellipse cx="22" cy="131" fill="#ADD1B2" rx="11" ry="11" style="stroke:#181818;stroke-width:1;"/><path d="M24.9688,136.6406 Q24.3906,136.9375 23.75,137.0781 Q23.1094,137.2344 22.4063,137.2344 Q19.9063,137.2344 18.5781,135.5938 Q17.2656,133.9375 17.2656,130.8125 Q17.2656,127.6875 18.5781,126.0313 Q19.9063,124.375 22.4063,124.375 Q23.1094,124.375 23.75,124.5313 Q24.4063,124.6875 24.9688,124.9844 L24.9688,127.7031 Q24.3438,127.125 23.75,126.8594 Q23.1563,126.5781 22.5313,126.5781 Q21.1875,126.5781 20.5,127.6563 Q19.8125,128.7188 19.8125,130.8125 Q19.8125,132.9063 20.5,133.9844 Q21.1875,135.0469 22.5313,135.0469 Q23.1563,135.0469 23.75,134.7813 Q24.3438,134.5 24.9688,133.9219 L24.9688,136.6406 Z " fill="#000000"/><text fill="#000000" font-family="sans-serif" font-size="14" lengthAdjust="spacing" textLength="124.1816" x="36" y="135.8467">FeatureOfInterest</text><line style="stroke:#181818;stroke-width:0.5;" x1="8" x2="162.1816" y1="147" y2="147"/><line style="stroke:#181818;stroke-width:0.5;" x1="8" x2="162.1816" y1="155" y2="155"/></g><!--class Result--><g class="entity" data-qualified-name="Result" data-source-line="24" id="ent0050"><rect fill="#F1F1F1" height="48" rx="2.5" ry="2.5" style="stroke:#181818;stroke-width:0.5;" width="75.8867" x="198" y="115"/><ellipse cx="213" cy="131" fill="#ADD1B2" rx="11" ry="11" style="stroke:#181818;stroke-width:1;"/><path d="M215.9688,136.6406 Q215.3906,136.9375 214.75,137.0781 Q214.1094,137.2344 213.4063,137.2344 Q210.9063,137.2344 209.5781,135.5938 Q208.2656,133.9375 208.2656,130.8125 Q208.2656,127.6875 209.5781,126.0313 Q210.9063,124.375 213.4063,124.375 Q214.1094,124.375 214.75,124.5313 Q215.4063,124.6875 215.9688,124.9844 L215.9688,127.7031 Q215.3438,127.125 214.75,126.8594 Q214.1563,126.5781 213.5313,126.5781 Q212.1875,126.5781 211.5,127.6563 Q210.8125,128.7188 210.8125,130.8125 Q210.8125,132.9063 211.5,133.9844 Q212.1875,135.0469 213.5313,135.0469 Q214.1563,135.0469 214.75,134.7813 Q215.3438,134.5 215.9688,133.9219 L215.9688,136.6406 Z " fill="#000000"/><text fill="#000000" font-family="sans-serif" font-size="14" lengthAdjust="spacing" textLength="43.8867" x="227" y="135.8467">Result</text><line style="stroke:#181818;stroke-width:0.5;" x1="199" x2="272.8867" y1="147" y2="147"/><line style="stroke:#181818;stroke-width:0.5;" x1="199" x2="272.8867" y1="155" y2="155"/></g><!--reverse link Property to ActuatableProperty--><g class="link" data-entity-1="ent0002" data-entity-2="ent0003" data-link-type="extension" data-source-line="1" id="lnk4"><path codeLine="1" d="M516.914,64.2089 C487.154,81.9289 461.67,97.11 431.85,114.86" fill="none" id="Property-backto-ActuatableProperty" style="stroke:#181818;stroke-width:1;"/><polygon fill="none" points="532.38,55,513.8444,59.0536,519.9837,69.3642,532.38,55" style="stroke:#181818;stroke-width:1;"/></g><!--reverse link Sample to MaterialSample--><g class="link" data-entity-1="ent0005" data-entity-2="ent0006" data-link-type="extension" data-source-line="2" id="lnk7"><path codeLine="2" d="M909.3567,64.4445 C880.6067,82.1645 856.35,97.11 827.55,114.86" fill="none" id="Sample-backto-MaterialSample" style="stroke:#181818;stroke-width:1;"/><polygon fill="none" points="924.68,55,906.2086,59.3367,912.5049,69.5522,924.68,55" style="stroke:#181818;stroke-width:1;"/></g><!--reverse link Property to ObservableProperty--><g class="link" data-entity-1="ent0002" data-entity-2="ent0008" data-link-type="extension" data-source-line="3" id="lnk9"><path codeLine="3" d="M581.3046,72.4426 C585.8046,90.1026 587.54,96.94 592.06,114.68" fill="none" id="Property-backto-ObservableProperty" style="stroke:#181818;stroke-width:1;"/><polygon fill="none" points="576.86,55,575.4904,73.9242,587.1188,70.9611,576.86,55" style="stroke:#181818;stroke-width:1;"/></g><!--reverse link Sample to SpatialSample--><g class="link" data-entity-1="ent0005" data-entity-2="ent0010" data-link-type="extension" data-source-line="4" id="lnk11"><path codeLine="4" d="M962,73 C962,90.66 962,96.94 962,114.68" fill="none" id="Sample-backto-SpatialSample" style="stroke:#181818;stroke-width:1;"/><polygon fill="none" points="962,55,956,73,968,73,962,55" style="stroke:#181818;stroke-width:1;"/></g><!--reverse link Sample to StatisticalSample--><g class="link" data-entity-1="ent0005" data-entity-2="ent0012" data-link-type="extension" data-source-line="5" id="lnk13"><path codeLine="5" d="M1016.3276,64.1725 C1046.2476,81.8925 1071.95,97.11 1101.93,114.86" fill="none" id="Sample-backto-StatisticalSample" style="stroke:#181818;stroke-width:1;"/><polygon fill="none" points="1000.84,55,1013.2701,69.335,1019.3851,59.0099,1000.84,55" style="stroke:#181818;stroke-width:1;"/></g><!--reverse link Procedure to ActuatingProcedure--><g class="link" data-entity-1="ent0014" data-entity-2="ent0015" data-link-type="extension" data-source-line="6" id="lnk16"><path codeLine="6" d="M1485.8326,63.1732 C1451.0626,80.8932 1419.24,97.11 1384.4,114.86" fill="none" id="Procedure-backto-ActuatingProcedure" style="stroke:#181818;stroke-width:1;"/><polygon fill="none" points="1501.87,55,1483.1082,57.8274,1488.557,68.519,1501.87,55" style="stroke:#181818;stroke-width:1;"/></g><!--reverse link Procedure to ObservingProcedure--><g class="link" data-entity-1="ent0014" data-entity-2="ent0017" data-link-type="extension" data-source-line="7" id="lnk18"><path codeLine="7" d="M1547,73 C1547,90.66 1547,96.94 1547,114.68" fill="none" id="Procedure-backto-ObservingProcedure" style="stroke:#181818;stroke-width:1;"/><polygon fill="none" points="1547,55,1541,73,1553,73,1547,55" style="stroke:#181818;stroke-width:1;"/></g><!--reverse link Procedure to SamplingProcedure--><g class="link" data-entity-1="ent0014" data-entity-2="ent0019" data-link-type="extension" data-source-line="8" id="lnk20"><path codeLine="8" d="M1607.9411,63.205 C1642.5411,80.925 1674.15,97.11 1708.81,114.86" fill="none" id="Procedure-backto-SamplingProcedure" style="stroke:#181818;stroke-width:1;"/><polygon fill="none" points="1591.92,55,1605.2061,68.5454,1610.6762,57.8647,1591.92,55" style="stroke:#181818;stroke-width:1;"/></g><!--reverse link Asset to Platform--><g class="link" data-entity-1="ent0021" data-entity-2="ent0022" data-link-type="extension" data-source-line="9" id="lnk23"><path codeLine="9" d="M1957.7839,70.6022 C1947.6239,88.2622 1942.63,96.94 1932.42,114.68" fill="none" id="Asset-backto-Platform" style="stroke:#181818;stroke-width:1;"/><polygon fill="none" points="1966.76,55,1952.5831,67.6102,1962.9846,73.5943,1966.76,55" style="stroke:#181818;stroke-width:1;"/></g><!--reverse link System to Sampler--><g class="link" data-entity-1="ent0024" data-entity-2="ent0025" data-link-type="extension" data-source-line="10" id="lnk26"><path codeLine="10" d="M2000.8865,174.5884 C1979.8965,192.2484 1964.81,204.94 1943.72,222.68" fill="none" id="System-backto-Sampler" style="stroke:#181818;stroke-width:1;"/><polygon fill="none" points="2014.66,163,1997.0237,169.9972,2004.7493,179.1795,2014.66,163" style="stroke:#181818;stroke-width:1;"/></g><!--reverse link System to Actuator--><g class="link" data-entity-1="ent0024" data-entity-2="ent0027" data-link-type="extension" data-source-line="11" id="lnk28"><path codeLine="11" d="M2042,181 C2042,198.66 2042,204.94 2042,222.68" fill="none" id="System-backto-Actuator" style="stroke:#181818;stroke-width:1;"/><polygon fill="none" points="2042,163,2036,181,2048,181,2042,163" style="stroke:#181818;stroke-width:1;"/></g><!--reverse link ExecutionCollection to SamplingCollection--><g class="link" data-entity-1="ent0029" data-entity-2="ent0030" data-link-type="extension" data-source-line="12" id="lnk31"><path codeLine="12" d="M2345.231,63.3636 C2311.461,81.0836 2280.93,97.11 2247.09,114.86" fill="none" id="ExecutionCollection-backto-SamplingCollection" style="stroke:#181818;stroke-width:1;"/><polygon fill="none" points="2361.17,55,2342.4432,58.0506,2348.0189,68.6766,2361.17,55" style="stroke:#181818;stroke-width:1;"/></g><!--reverse link Asset to System--><g class="link" data-entity-1="ent0021" data-entity-2="ent0024" data-link-type="extension" data-source-line="13" id="lnk32"><path codeLine="13" d="M2002.5383,70.5372 C2012.8683,88.1972 2017.98,96.94 2028.36,114.68" fill="none" id="Asset-backto-System" style="stroke:#181818;stroke-width:1;"/><polygon fill="none" points="1993.45,55,1997.3592,73.5666,2007.7173,67.5077,1993.45,55" style="stroke:#181818;stroke-width:1;"/></g><!--reverse link System to Sensor--><g class="link" data-entity-1="ent0024" data-entity-2="ent0033" data-link-type="extension" data-source-line="14" id="lnk34"><path codeLine="14" d="M2081.7968,174.864 C2101.9468,192.524 2116.13,204.94 2136.38,222.68" fill="none" id="System-backto-Sensor" style="stroke:#181818;stroke-width:1;"/><polygon fill="none" points="2068.26,163,2077.8421,179.3763,2085.7515,170.3518,2068.26,163" style="stroke:#181818;stroke-width:1;"/></g><!--reverse link Execution to Sampling--><g class="link" data-entity-1="ent0035" data-entity-2="ent0036" data-link-type="extension" data-source-line="15" id="lnk37"><path codeLine="15" d="M2884.8041,66.1688 C2862.4841,83.8288 2845.91,96.94 2823.48,114.68" fill="none" id="Execution-backto-Sampling" style="stroke:#181818;stroke-width:1;"/><polygon fill="none" points="2898.92,55,2881.0812,61.4635,2888.527,70.8741,2898.92,55" style="stroke:#181818;stroke-width:1;"/></g><!--reverse link Execution to Actuation--><g class="link" data-entity-1="ent0035" data-entity-2="ent0038" data-link-type="extension" data-source-line="16" id="lnk39"><path codeLine="16" d="M2928,73 C2928,90.66 2928,96.94 2928,114.68" fill="none" id="Execution-backto-Actuation" style="stroke:#181818;stroke-width:1;"/><polygon fill="none" points="2928,55,2922,73,2934,73,2928,55" style="stroke:#181818;stroke-width:1;"/></g><!--reverse link ExecutionCollection to ActuationCollection--><g class="link" data-entity-1="ent0029" data-entity-2="ent0040" data-link-type="extension" data-source-line="17" id="lnk41"><path codeLine="17" d="M2405,73 C2405,90.66 2405,96.94 2405,114.68" fill="none" id="ExecutionCollection-backto-ActuationCollection" style="stroke:#181818;stroke-width:1;"/><polygon fill="none" points="2405,55,2399,73,2411,73,2405,55" style="stroke:#181818;stroke-width:1;"/></g><!--reverse link ExecutionCollection to ObservationCollection--><g class="link" data-entity-1="ent0029" data-entity-2="ent0042" data-link-type="extension" data-source-line="18" id="lnk43"><path codeLine="18" d="M2467.0997,63.0498 C2502.5397,80.7698 2535.22,97.11 2570.72,114.86" fill="none" id="ExecutionCollection-backto-ObservationCollection" style="stroke:#181818;stroke-width:1;"/><polygon fill="none" points="2451,55,2464.4164,68.4164,2469.783,57.6833,2451,55" style="stroke:#181818;stroke-width:1;"/></g><!--reverse link Execution to Observation--><g class="link" data-entity-1="ent0035" data-entity-2="ent0044" data-link-type="extension" data-source-line="19" id="lnk45"><path codeLine="19" d="M2973.4895,65.7202 C2997.3095,83.3802 3015.61,96.94 3039.54,114.68" fill="none" id="Execution-backto-Observation" style="stroke:#181818;stroke-width:1;"/><polygon fill="none" points="2959.03,55,2969.9161,70.54,2977.0629,60.9004,2959.03,55" style="stroke:#181818;stroke-width:1;"/></g><?plantuml-src VL9BRiCW4Drp2byWD-WcwaVgeefLds12NYga0IncY6gfXwyJd0HIkJjuytuQw5CSaNJgdduscsvhDPFIdj4lk1d8Zumo_Y15SiG5CtsZtUq5wRIg7KRIkxIPw3mHTROsjZZaXBgL2ryt_95HilzZN9mRmbO4MeOzanvZycQOHE4h1LA3bIOncTTlsAmkXkV837i-jJbtl0ugNcqCWjI6hSqZlgnYTbrjSADK5LR9owEjqV-GZ6KIwLumSfmyWYx0eCvdpdAzNdPNEHRu3QJpwdV7zp1_9CXL_Gd9hBy0?></g></svg>