<svg xmlns="http://www.w3.org/2000/svg" xmlns:xlink="http://www.w3.org/1999/xlink" contentStyleType="text/css" data-diagram-type="CLASS" height="286px" preserveAspectRatio="none" style="width:3184px;height:286px;background:#FFFFFF;" version="1.1" viewBox="0 0 3184 286" width="3184px" zoomAndPan="magnify"><?plantuml 1.2026.3?><defs/><g><!--class Property--><g class="entity" data-qualified-name="Property" data-source-line="1" id="ent0002"><rect fill="#F1F1F1" height="48" rx="2.5" ry="2.5" style="stroke:#181818;stroke-width:0.5;" width="91.7939" x="526" y="7"/><ellipse cx="541" cy="23" fill="#ADD1B2" rx="11" ry="11" style="stroke:#181818;stroke-width:1;"/><path d="M543.9688,28.6406 Q543.3906,28.9375 542.75,29.0781 Q542.1094,29.2344 541.4063,29.2344 Q538.9063,29.2344 537.5781,27.5938 Q536.2656,25.9375 536.2656,22.8125 Q536.2656,19.6875 537.5781,18.0313 Q538.9063,16.375 541.4063,16.375 Q542.1094,16.375 542.75,16.5313 Q543.4063,16.6875 543.9688,16.9844 L543.9688,19.7031 Q543.3438,19.125 542.75,18.8594 Q542.1563,18.5781 541.5313,18.5781 Q540.1875,18.5781 539.5,19.6563 Q538.8125,20.7188 538.8125,22.8125 Q538.8125,24.9063 539.5,25.9844 Q540.1875,27.0469 541.5313,27.0469 Q542.1563,27.0469 542.75,26.7813 Q543.3438,26.5 543.9688,25.9219 L543.9688,28.6406 Z " fill="#000000"/><text fill="#000000" font-family="sans-serif" font-size="14" lengthAdjust="spacing" textLength="59.7939" x="555" y="27.8467">Property</text><line style="stroke:#181818;stroke-width:0.5;" x1="527" x2="616.7939" y1="39" y2="39"/><line style="stroke:#181818;stroke-width:0.5;" x1="527" x2="616.7939" y1="47" y2="47"/></g><!--class ActuatableProperty--><g class="entity" data-qualified-name="ActuatableProperty" data-source-line="1" id="ent0003"><rect fill="#F1F1F1" height="48" rx="2.5" ry="2.5" style="stroke:#181818;stroke-width:0.5;" width="167.4678" x="349.5" y="115"/><ellipse cx="364.5" cy="131" fill="#ADD1B2" rx="11" ry="11" style="stroke:#181818;stroke-width:1;"/><path d="M367.4688,136.6406 Q366.8906,136.9375 366.25,137.0781 Q365.6094,137.2344 364.9063,137.2344 Q362.4063,137.2344 361.0781,135.5938 Q359.7656,133.9375 359.7656,130.8125 Q359.7656,127.6875 361.0781,126.0313 Q362.4063,124.375 364.9063,124.375 Q365.6094,124.375 366.25,124.5313 Q366.9063,124.6875 367.4688,124.9844 L367.4688,127.7031 Q366.8438,127.125 366.25,126.8594 Q365.6563,126.5781 365.0313,126.5781 Q363.6875,126.5781 363,127.6563 Q362.3125,128.7188 362.3125,130.8125 Q362.3125,132.9063 363,133.9844 Q363.6875,135.0469 365.0313,135.0469 Q365.6563,135.0469 366.25,134.7813 Q366.8438,134.5 367.4688,133.9219 L367.4688,136.6406 Z " fill="#000000"/><text fill="#000000" font-family="sans-serif" font-size="14" lengthAdjust="spacing" textLength="135.4678" x="378.5" y="135.8467">ActuatableProperty</text><line style="stroke:#181818;stroke-width:0.5;" x1="350.5" x2="515.9678" y1="147" y2="147"/><line style="stroke:#181818;stroke-width:0.5;" x1="350.5" x2="515.9678" y1="155" y2="155"/></g><!--class Sample--><g class="entity" data-qualified-name="Sample" data-source-line="2" id="ent0005"><rect fill="#F1F1F1" height="48" rx="2.5" ry="2.5" style="stroke:#181818;stroke-width:0.5;" width="84.4932" x="960" y="7"/><ellipse cx="975" cy="23" fill="#ADD1B2" rx="11" ry="11" style="stroke:#181818;stroke-width:1;"/><path d="M977.9688,28.6406 Q977.3906,28.9375 976.75,29.0781 Q976.1094,29.2344 975.4063,29.2344 Q972.9063,29.2344 971.5781,27.5938 Q970.2656,25.9375 970.2656,22.8125 Q970.2656,19.6875 971.5781,18.0313 Q972.9063,16.375 975.4063,16.375 Q976.1094,16.375 976.75,16.5313 Q977.4063,16.6875 977.9688,16.9844 L977.9688,19.7031 Q977.3438,19.125 976.75,18.8594 Q976.1563,18.5781 975.5313,18.5781 Q974.1875,18.5781 973.5,19.6563 Q972.8125,20.7188 972.8125,22.8125 Q972.8125,24.9063 973.5,25.9844 Q974.1875,27.0469 975.5313,27.0469 Q976.1563,27.0469 976.75,26.7813 Q977.3438,26.5 977.9688,25.9219 L977.9688,28.6406 Z " fill="#000000"/><text fill="#000000" font-family="sans-serif" font-size="14" lengthAdjust="spacing" textLength="52.4932" x="989" y="27.8467">Sample</text><line style="stroke:#181818;stroke-width:0.5;" x1="961" x2="1043.4932" y1="39" y2="39"/><line style="stroke:#181818;stroke-width:0.5;" x1="961" x2="1043.4932" y1="47" y2="47"/></g><!--class MaterialSample--><g class="entity" data-qualified-name="MaterialSample" data-source-line="2" id="ent0006"><rect fill="#F1F1F1" height="48" rx="2.5" ry="2.5" style="stroke:#181818;stroke-width:0.5;" width="141.3682" x="759.5" y="115"/><ellipse cx="774.5" cy="131" fill="#ADD1B2" rx="11" ry="11" style="stroke:#181818;stroke-width:1;"/><path d="M777.4688,136.6406 Q776.8906,136.9375 776.25,137.0781 Q775.6094,137.2344 774.9063,137.2344 Q772.4063,137.2344 771.0781,135.5938 Q769.7656,133.9375 769.7656,130.8125 Q769.7656,127.6875 771.0781,126.0313 Q772.4063,124.375 774.9063,124.375 Q775.6094,124.375 776.25,124.5313 Q776.9063,124.6875 777.4688,124.9844 L777.4688,127.7031 Q776.8438,127.125 776.25,126.8594 Q775.6563,126.5781 775.0313,126.5781 Q773.6875,126.5781 773,127.6563 Q772.3125,128.7188 772.3125,130.8125 Q772.3125,132.9063 773,133.9844 Q773.6875,135.0469 775.0313,135.0469 Q775.6563,135.0469 776.25,134.7813 Q776.8438,134.5 777.4688,133.9219 L777.4688,136.6406 Z " fill="#000000"/><text fill="#000000" font-family="sans-serif" font-size="14" lengthAdjust="spacing" textLength="109.3682" x="788.5" y="135.8467">MaterialSample</text><line style="stroke:#181818;stroke-width:0.5;" x1="760.5" x2="899.8682" y1="147" y2="147"/><line style="stroke:#181818;stroke-width:0.5;" x1="760.5" x2="899.8682" y1="155" y2="155"/></g><!--class ObservableProperty--><g class="entity" data-qualified-name="ObservableProperty" data-source-line="3" id="ent0008"><rect fill="#F1F1F1" height="48" rx="2.5" ry="2.5" style="stroke:#181818;stroke-width:0.5;" width="171.6172" x="552" y="115"/><ellipse cx="567" cy="131" fill="#ADD1B2" rx="11" ry="11" style="stroke:#181818;stroke-width:1;"/><path d="M569.9688,136.6406 Q569.3906,136.9375 568.75,137.0781 Q568.1094,137.2344 567.4063,137.2344 Q564.9063,137.2344 563.5781,135.5938 Q562.2656,133.9375 562.2656,130.8125 Q562.2656,127.6875 563.5781,126.0313 Q564.9063,124.375 567.4063,124.375 Q568.1094,124.375 568.75,124.5313 Q569.4063,124.6875 569.9688,124.9844 L569.9688,127.7031 Q569.3438,127.125 568.75,126.8594 Q568.1563,126.5781 567.5313,126.5781 Q566.1875,126.5781 565.5,127.6563 Q564.8125,128.7188 564.8125,130.8125 Q564.8125,132.9063 565.5,133.9844 Q566.1875,135.0469 567.5313,135.0469 Q568.1563,135.0469 568.75,134.7813 Q569.3438,134.5 569.9688,133.9219 L569.9688,136.6406 Z " fill="#000000"/><text fill="#000000" font-family="sans-serif" font-size="14" lengthAdjust="spacing" textLength="139.6172" x="581" y="135.8467">ObservableProperty</text><line style="stroke:#181818;stroke-width:0.5;" x1="553" x2="722.6172" y1="147" y2="147"/><line style="stroke:#181818;stroke-width:0.5;" x1="553" x2="722.6172" y1="155" y2="155"/></g><!--class SpatialSample--><g class="entity" data-qualified-name="SpatialSample" data-source-line="4" id="ent0010"><rect fill="#F1F1F1" height="48" rx="2.5" ry="2.5" style="stroke:#181818;stroke-width:0.5;" width="132.6934" x="935.5" y="115"/><ellipse cx="950.5" cy="131" fill="#ADD1B2" rx="11" ry="11" style="stroke:#181818;stroke-width:1;"/><path d="M953.4688,136.6406 Q952.8906,136.9375 952.25,137.0781 Q951.6094,137.2344 950.9063,137.2344 Q948.4063,137.2344 947.0781,135.5938 Q945.7656,133.9375 945.7656,130.8125 Q945.7656,127.6875 947.0781,126.0313 Q948.4063,124.375 950.9063,124.375 Q951.6094,124.375 952.25,124.5313 Q952.9063,124.6875 953.4688,124.9844 L953.4688,127.7031 Q952.8438,127.125 952.25,126.8594 Q951.6563,126.5781 951.0313,126.5781 Q949.6875,126.5781 949,127.6563 Q948.3125,128.7188 948.3125,130.8125 Q948.3125,132.9063 949,133.9844 Q949.6875,135.0469 951.0313,135.0469 Q951.6563,135.0469 952.25,134.7813 Q952.8438,134.5 953.4688,133.9219 L953.4688,136.6406 Z " fill="#000000"/><text fill="#000000" font-family="sans-serif" font-size="14" lengthAdjust="spacing" textLength="100.6934" x="964.5" y="135.8467">SpatialSample</text><line style="stroke:#181818;stroke-width:0.5;" x1="936.5" x2="1067.1934" y1="147" y2="147"/><line style="stroke:#181818;stroke-width:0.5;" x1="936.5" x2="1067.1934" y1="155" y2="155"/></g><!--class StatisticalSample--><g class="entity" data-qualified-name="StatisticalSample" data-source-line="5" id="ent0012"><rect fill="#F1F1F1" height="48" rx="2.5" ry="2.5" style="stroke:#181818;stroke-width:0.5;" width="153.666" x="1104" y="115"/><ellipse cx="1119" cy="131" fill="#ADD1B2" rx="11" ry="11" style="stroke:#181818;stroke-width:1;"/><path d="M1121.9688,136.6406 Q1121.3906,136.9375 1120.75,137.0781 Q1120.1094,137.2344 1119.4063,137.2344 Q1116.9063,137.2344 1115.5781,135.5938 Q1114.2656,133.9375 1114.2656,130.8125 Q1114.2656,127.6875 1115.5781,126.0313 Q1116.9063,124.375 1119.4063,124.375 Q1120.1094,124.375 1120.75,124.5313 Q1121.4063,124.6875 1121.9688,124.9844 L1121.9688,127.7031 Q1121.3438,127.125 1120.75,126.8594 Q1120.1563,126.5781 1119.5313,126.5781 Q1118.1875,126.5781 1117.5,127.6563 Q1116.8125,128.7188 1116.8125,130.8125 Q1116.8125,132.9063 1117.5,133.9844 Q1118.1875,135.0469 1119.5313,135.0469 Q1120.1563,135.0469 1120.75,134.7813 Q1121.3438,134.5 1121.9688,133.9219 L1121.9688,136.6406 Z " fill="#000000"/><text fill="#000000" font-family="sans-serif" font-size="14" lengthAdjust="spacing" textLength="121.666" x="1133" y="135.8467">StatisticalSample</text><line style="stroke:#181818;stroke-width:0.5;" x1="1105" x2="1256.666" y1="147" y2="147"/><line style="stroke:#181818;stroke-width:0.5;" x1="1105" x2="1256.666" y1="155" y2="155"/></g><!--class Procedure--><g class="entity" data-qualified-name="Procedure" data-source-line="6" id="ent0014"><rect fill="#F1F1F1" height="48" rx="2.5" ry="2.5" style="stroke:#181818;stroke-width:0.5;" width="103.2031" x="1535.5" y="7"/><ellipse cx="1550.5" cy="23" fill="#ADD1B2" rx="11" ry="11" style="stroke:#181818;stroke-width:1;"/><path d="M1553.4688,28.6406 Q1552.8906,28.9375 1552.25,29.0781 Q1551.6094,29.2344 1550.9063,29.2344 Q1548.4063,29.2344 1547.0781,27.5938 Q1545.7656,25.9375 1545.7656,22.8125 Q1545.7656,19.6875 1547.0781,18.0313 Q1548.4063,16.375 1550.9063,16.375 Q1551.6094,16.375 1552.25,16.5313 Q1552.9063,16.6875 1553.4688,16.9844 L1553.4688,19.7031 Q1552.8438,19.125 1552.25,18.8594 Q1551.6563,18.5781 1551.0313,18.5781 Q1549.6875,18.5781 1549,19.6563 Q1548.3125,20.7188 1548.3125,22.8125 Q1548.3125,24.9063 1549,25.9844 Q1549.6875,27.0469 1551.0313,27.0469 Q1551.6563,27.0469 1552.25,26.7813 Q1552.8438,26.5 1553.4688,25.9219 L1553.4688,28.6406 Z " fill="#000000"/><text fill="#000000" font-family="sans-serif" font-size="14" lengthAdjust="spacing" textLength="71.2031" x="1564.5" y="27.8467">Procedure</text><line style="stroke:#181818;stroke-width:0.5;" x1="1536.5" x2="1637.7031" y1="39" y2="39"/><line style="stroke:#181818;stroke-width:0.5;" x1="1536.5" x2="1637.7031" y1="47" y2="47"/></g><!--class ActuatingProcedure--><g class="entity" data-qualified-name="ActuatingProcedure" data-source-line="6" id="ent0015"><rect fill="#F1F1F1" height="48" rx="2.5" ry="2.5" style="stroke:#181818;stroke-width:0.5;" width="170.5576" x="1293.5" y="115"/><ellipse cx="1308.5" cy="131" fill="#ADD1B2" rx="11" ry="11" style="stroke:#181818;stroke-width:1;"/><path d="M1311.4688,136.6406 Q1310.8906,136.9375 1310.25,137.0781 Q1309.6094,137.2344 1308.9063,137.2344 Q1306.4063,137.2344 1305.0781,135.5938 Q1303.7656,133.9375 1303.7656,130.8125 Q1303.7656,127.6875 1305.0781,126.0313 Q1306.4063,124.375 1308.9063,124.375 Q1309.6094,124.375 1310.25,124.5313 Q1310.9063,124.6875 1311.4688,124.9844 L1311.4688,127.7031 Q1310.8438,127.125 1310.25,126.8594 Q1309.6563,126.5781 1309.0313,126.5781 Q1307.6875,126.5781 1307,127.6563 Q1306.3125,128.7188 1306.3125,130.8125 Q1306.3125,132.9063 1307,133.9844 Q1307.6875,135.0469 1309.0313,135.0469 Q1309.6563,135.0469 1310.25,134.7813 Q1310.8438,134.5 1311.4688,133.9219 L1311.4688,136.6406 Z " fill="#000000"/><text fill="#000000" font-family="sans-serif" font-size="14" lengthAdjust="spacing" textLength="138.5576" x="1322.5" y="135.8467">ActuatingProcedure</text><line style="stroke:#181818;stroke-width:0.5;" x1="1294.5" x2="1463.0576" y1="147" y2="147"/><line style="stroke:#181818;stroke-width:0.5;" x1="1294.5" x2="1463.0576" y1="155" y2="155"/></g><!--class ObservingProcedure--><g class="entity" data-qualified-name="ObservingProcedure" data-source-line="7" id="ent0017"><rect fill="#F1F1F1" height="48" rx="2.5" ry="2.5" style="stroke:#181818;stroke-width:0.5;" width="174.707" x="1499.5" y="115"/><ellipse cx="1514.5" cy="131" fill="#ADD1B2" rx="11" ry="11" style="stroke:#181818;stroke-width:1;"/><path d="M1517.4688,136.6406 Q1516.8906,136.9375 1516.25,137.0781 Q1515.6094,137.2344 1514.9063,137.2344 Q1512.4063,137.2344 1511.0781,135.5938 Q1509.7656,133.9375 1509.7656,130.8125 Q1509.7656,127.6875 1511.0781,126.0313 Q1512.4063,124.375 1514.9063,124.375 Q1515.6094,124.375 1516.25,124.5313 Q1516.9063,124.6875 1517.4688,124.9844 L1517.4688,127.7031 Q1516.8438,127.125 1516.25,126.8594 Q1515.6563,126.5781 1515.0313,126.5781 Q1513.6875,126.5781 1513,127.6563 Q1512.3125,128.7188 1512.3125,130.8125 Q1512.3125,132.9063 1513,133.9844 Q1513.6875,135.0469 1515.0313,135.0469 Q1515.6563,135.0469 1516.25,134.7813 Q1516.8438,134.5 1517.4688,133.9219 L1517.4688,136.6406 Z " fill="#000000"/><text fill="#000000" font-family="sans-serif" font-size="14" lengthAdjust="spacing" textLength="142.707" x="1528.5" y="135.8467">ObservingProcedure</text><line style="stroke:#181818;stroke-width:0.5;" x1="1500.5" x2="1673.207" y1="147" y2="147"/><line style="stroke:#181818;stroke-width:0.5;" x1="1500.5" x2="1673.207" y1="155" y2="155"/></g><!--class SamplingProcedure--><g class="entity" data-qualified-name="SamplingProcedure" data-source-line="8" id="ent0019"><rect fill="#F1F1F1" height="48" rx="2.5" ry="2.5" style="stroke:#181818;stroke-width:0.5;" width="168.7324" x="1709.5" y="115"/><ellipse cx="1724.5" cy="131" fill="#ADD1B2" rx="11" ry="11" style="stroke:#181818;stroke-width:1;"/><path d="M1727.4688,136.6406 Q1726.8906,136.9375 1726.25,137.0781 Q1725.6094,137.2344 1724.9063,137.2344 Q1722.4063,137.2344 1721.0781,135.5938 Q1719.7656,133.9375 1719.7656,130.8125 Q1719.7656,127.6875 1721.0781,126.0313 Q1722.4063,124.375 1724.9063,124.375 Q1725.6094,124.375 1726.25,124.5313 Q1726.9063,124.6875 1727.4688,124.9844 L1727.4688,127.7031 Q1726.8438,127.125 1726.25,126.8594 Q1725.6563,126.5781 1725.0313,126.5781 Q1723.6875,126.5781 1723,127.6563 Q1722.3125,128.7188 1722.3125,130.8125 Q1722.3125,132.9063 1723,133.9844 Q1723.6875,135.0469 1725.0313,135.0469 Q1725.6563,135.0469 1726.25,134.7813 Q1726.8438,134.5 1727.4688,133.9219 L1727.4688,136.6406 Z " fill="#000000"/><text fill="#000000" font-family="sans-serif" font-size="14" lengthAdjust="spacing" textLength="136.7324" x="1738.5" y="135.8467">SamplingProcedure</text><line style="stroke:#181818;stroke-width:0.5;" x1="1710.5" x2="1877.2324" y1="147" y2="147"/><line style="stroke:#181818;stroke-width:0.5;" x1="1710.5" x2="1877.2324" y1="155" y2="155"/></g><!--class Asset--><g class="entity" data-qualified-name="Asset" data-source-line="9" id="ent0021"><rect fill="#F1F1F1" height="48" rx="2.5" ry="2.5" style="stroke:#181818;stroke-width:0.5;" width="70.2676" x="1985" y="7"/><ellipse cx="2000" cy="23" fill="#ADD1B2" rx="11" ry="11" style="stroke:#181818;stroke-width:1;"/><path d="M2002.9688,28.6406 Q2002.3906,28.9375 2001.75,29.0781 Q2001.1094,29.2344 2000.4063,29.2344 Q1997.9063,29.2344 1996.5781,27.5938 Q1995.2656,25.9375 1995.2656,22.8125 Q1995.2656,19.6875 1996.5781,18.0313 Q1997.9063,16.375 2000.4063,16.375 Q2001.1094,16.375 2001.75,16.5313 Q2002.4063,16.6875 2002.9688,16.9844 L2002.9688,19.7031 Q2002.3438,19.125 2001.75,18.8594 Q2001.1563,18.5781 2000.5313,18.5781 Q1999.1875,18.5781 1998.5,19.6563 Q1997.8125,20.7188 1997.8125,22.8125 Q1997.8125,24.9063 1998.5,25.9844 Q1999.1875,27.0469 2000.5313,27.0469 Q2001.1563,27.0469 2001.75,26.7813 Q2002.3438,26.5 2002.9688,25.9219 L2002.9688,28.6406 Z " fill="#000000"/><text fill="#000000" font-family="sans-serif" font-size="14" lengthAdjust="spacing" textLength="38.2676" x="2014" y="27.8467">Asset</text><line style="stroke:#181818;stroke-width:0.5;" x1="1986" x2="2054.2676" y1="39" y2="39"/><line style="stroke:#181818;stroke-width:0.5;" x1="1986" x2="2054.2676" y1="47" y2="47"/></g><!--class Platform--><g class="entity" data-qualified-name="Platform" data-source-line="9" id="ent0022"><rect fill="#F1F1F1" height="48" rx="2.5" ry="2.5" style="stroke:#181818;stroke-width:0.5;" width="91.2881" x="1913.5" y="115"/><ellipse cx="1928.5" cy="131" fill="#ADD1B2" rx="11" ry="11" style="stroke:#181818;stroke-width:1;"/><path d="M1931.4688,136.6406 Q1930.8906,136.9375 1930.25,137.0781 Q1929.6094,137.2344 1928.9063,137.2344 Q1926.4063,137.2344 1925.0781,135.5938 Q1923.7656,133.9375 1923.7656,130.8125 Q1923.7656,127.6875 1925.0781,126.0313 Q1926.4063,124.375 1928.9063,124.375 Q1929.6094,124.375 1930.25,124.5313 Q1930.9063,124.6875 1931.4688,124.9844 L1931.4688,127.7031 Q1930.8438,127.125 1930.25,126.8594 Q1929.6563,126.5781 1929.0313,126.5781 Q1927.6875,126.5781 1927,127.6563 Q1926.3125,128.7188 1926.3125,130.8125 Q1926.3125,132.9063 1927,133.9844 Q1927.6875,135.0469 1929.0313,135.0469 Q1929.6563,135.0469 1930.25,134.7813 Q1930.8438,134.5 1931.4688,133.9219 L1931.4688,136.6406 Z " fill="#000000"/><text fill="#000000" font-family="sans-serif" font-size="14" lengthAdjust="spacing" textLength="59.2881" x="1942.5" y="135.8467">Platform</text><line style="stroke:#181818;stroke-width:0.5;" x1="1914.5" x2="2003.7881" y1="147" y2="147"/><line style="stroke:#181818;stroke-width:0.5;" x1="1914.5" x2="2003.7881" y1="155" y2="155"/></g><!--class System--><g class="entity" data-qualified-name="System" data-source-line="10" id="ent0024"><rect fill="#F1F1F1" height="48" rx="2.5" ry="2.5" style="stroke:#181818;stroke-width:0.5;" width="84.2061" x="2040" y="115"/><ellipse cx="2055" cy="131" fill="#ADD1B2" rx="11" ry="11" style="stroke:#181818;stroke-width:1;"/><path d="M2057.9688,136.6406 Q2057.3906,136.9375 2056.75,137.0781 Q2056.1094,137.2344 2055.4063,137.2344 Q2052.9063,137.2344 2051.5781,135.5938 Q2050.2656,133.9375 2050.2656,130.8125 Q2050.2656,127.6875 2051.5781,126.0313 Q2052.9063,124.375 2055.4063,124.375 Q2056.1094,124.375 2056.75,124.5313 Q2057.4063,124.6875 2057.9688,124.9844 L2057.9688,127.7031 Q2057.3438,127.125 2056.75,126.8594 Q2056.1563,126.5781 2055.5313,126.5781 Q2054.1875,126.5781 2053.5,127.6563 Q2052.8125,128.7188 2052.8125,130.8125 Q2052.8125,132.9063 2053.5,133.9844 Q2054.1875,135.0469 2055.5313,135.0469 Q2056.1563,135.0469 2056.75,134.7813 Q2057.3438,134.5 2057.9688,133.9219 L2057.9688,136.6406 Z " fill="#000000"/><text fill="#000000" font-family="sans-serif" font-size="14" lengthAdjust="spacing" textLength="52.2061" x="2069" y="135.8467">System</text><line style="stroke:#181818;stroke-width:0.5;" x1="2041" x2="2123.2061" y1="147" y2="147"/><line style="stroke:#181818;stroke-width:0.5;" x1="2041" x2="2123.2061" y1="155" y2="155"/></g><!--class Sampler--><g class="entity" data-qualified-name="Sampler" data-source-line="10" id="ent0025"><rect fill="#F1F1F1" height="48" rx="2.5" ry="2.5" style="stroke:#181818;stroke-width:0.5;" width="90.249" x="1911" y="223"/><ellipse cx="1926" cy="239" fill="#ADD1B2" rx="11" ry="11" style="stroke:#181818;stroke-width:1;"/><path d="M1928.9688,244.6406 Q1928.3906,244.9375 1927.75,245.0781 Q1927.1094,245.2344 1926.4063,245.2344 Q1923.9063,245.2344 1922.5781,243.5938 Q1921.2656,241.9375 1921.2656,238.8125 Q1921.2656,235.6875 1922.5781,234.0313 Q1923.9063,232.375 1926.4063,232.375 Q1927.1094,232.375 1927.75,232.5313 Q1928.4063,232.6875 1928.9688,232.9844 L1928.9688,235.7031 Q1928.3438,235.125 1927.75,234.8594 Q1927.1563,234.5781 1926.5313,234.5781 Q1925.1875,234.5781 1924.5,235.6563 Q1923.8125,236.7188 1923.8125,238.8125 Q1923.8125,240.9063 1924.5,241.9844 Q1925.1875,243.0469 1926.5313,243.0469 Q1927.1563,243.0469 1927.75,242.7813 Q1928.3438,242.5 1928.9688,241.9219 L1928.9688,244.6406 Z " fill="#000000"/><text fill="#000000" font-family="sans-serif" font-size="14" lengthAdjust="spacing" textLength="58.249" x="1940" y="243.8467">Sampler</text><line style="stroke:#181818;stroke-width:0.5;" x1="1912" x2="2000.249" y1="255" y2="255"/><line style="stroke:#181818;stroke-width:0.5;" x1="1912" x2="2000.249" y1="263" y2="263"/></g><!--class Actuator--><g class="entity" data-qualified-name="Actuator" data-source-line="11" id="ent0027"><rect fill="#F1F1F1" height="48" rx="2.5" ry="2.5" style="stroke:#181818;stroke-width:0.5;" width="92.0264" x="2036" y="223"/><ellipse cx="2051" cy="239" fill="#ADD1B2" rx="11" ry="11" style="stroke:#181818;stroke-width:1;"/><path d="M2053.9688,244.6406 Q2053.3906,244.9375 2052.75,245.0781 Q2052.1094,245.2344 2051.4063,245.2344 Q2048.9063,245.2344 2047.5781,243.5938 Q2046.2656,241.9375 2046.2656,238.8125 Q2046.2656,235.6875 2047.5781,234.0313 Q2048.9063,232.375 2051.4063,232.375 Q2052.1094,232.375 2052.75,232.5313 Q2053.4063,232.6875 2053.9688,232.9844 L2053.9688,235.7031 Q2053.3438,235.125 2052.75,234.8594 Q2052.1563,234.5781 2051.5313,234.5781 Q2050.1875,234.5781 2049.5,235.6563 Q2048.8125,236.7188 2048.8125,238.8125 Q2048.8125,240.9063 2049.5,241.9844 Q2050.1875,243.0469 2051.5313,243.0469 Q2052.1563,243.0469 2052.75,242.7813 Q2053.3438,242.5 2053.9688,241.9219 L2053.9688,244.6406 Z " fill="#000000"/><text fill="#000000" font-family="sans-serif" font-size="14" lengthAdjust="spacing" textLength="60.0264" x="2065" y="243.8467">Actuator</text><line style="stroke:#181818;stroke-width:0.5;" x1="2037" x2="2127.0264" y1="255" y2="255"/><line style="stroke:#181818;stroke-width:0.5;" x1="2037" x2="2127.0264" y1="263" y2="263"/></g><!--class ExecutionCollection--><g class="entity" data-qualified-name="ExecutionCollection" data-source-line="12" id="ent0029"><rect fill="#F1F1F1" height="48" rx="2.5" ry="2.5" style="stroke:#181818;stroke-width:0.5;" width="170.3799" x="2360" y="7"/><ellipse cx="2375" cy="23" fill="#ADD1B2" rx="11" ry="11" style="stroke:#181818;stroke-width:1;"/><path d="M2377.9688,28.6406 Q2377.3906,28.9375 2376.75,29.0781 Q2376.1094,29.2344 2375.4063,29.2344 Q2372.9063,29.2344 2371.5781,27.5938 Q2370.2656,25.9375 2370.2656,22.8125 Q2370.2656,19.6875 2371.5781,18.0313 Q2372.9063,16.375 2375.4063,16.375 Q2376.1094,16.375 2376.75,16.5313 Q2377.4063,16.6875 2377.9688,16.9844 L2377.9688,19.7031 Q2377.3438,19.125 2376.75,18.8594 Q2376.1563,18.5781 2375.5313,18.5781 Q2374.1875,18.5781 2373.5,19.6563 Q2372.8125,20.7188 2372.8125,22.8125 Q2372.8125,24.9063 2373.5,25.9844 Q2374.1875,27.0469 2375.5313,27.0469 Q2376.1563,27.0469 2376.75,26.7813 Q2377.3438,26.5 2377.9688,25.9219 L2377.9688,28.6406 Z " fill="#000000"/><text fill="#000000" font-family="sans-serif" font-size="14" lengthAdjust="spacing" textLength="138.3799" x="2389" y="27.8467">ExecutionCollection</text><line style="stroke:#181818;stroke-width:0.5;" x1="2361" x2="2529.3799" y1="39" y2="39"/><line style="stroke:#181818;stroke-width:0.5;" x1="2361" x2="2529.3799" y1="47" y2="47"/></g><!--class SamplingCollection--><g class="entity" data-qualified-name="SamplingCollection" data-source-line="12" id="ent0030"><rect fill="#F1F1F1" height="48" rx="2.5" ry="2.5" style="stroke:#181818;stroke-width:0.5;" width="166.7773" x="2159.5" y="115"/><ellipse cx="2174.5" cy="131" fill="#ADD1B2" rx="11" ry="11" style="stroke:#181818;stroke-width:1;"/><path d="M2177.4688,136.6406 Q2176.8906,136.9375 2176.25,137.0781 Q2175.6094,137.2344 2174.9063,137.2344 Q2172.4063,137.2344 2171.0781,135.5938 Q2169.7656,133.9375 2169.7656,130.8125 Q2169.7656,127.6875 2171.0781,126.0313 Q2172.4063,124.375 2174.9063,124.375 Q2175.6094,124.375 2176.25,124.5313 Q2176.9063,124.6875 2177.4688,124.9844 L2177.4688,127.7031 Q2176.8438,127.125 2176.25,126.8594 Q2175.6563,126.5781 2175.0313,126.5781 Q2173.6875,126.5781 2173,127.6563 Q2172.3125,128.7188 2172.3125,130.8125 Q2172.3125,132.9063 2173,133.9844 Q2173.6875,135.0469 2175.0313,135.0469 Q2175.6563,135.0469 2176.25,134.7813 Q2176.8438,134.5 2177.4688,133.9219 L2177.4688,136.6406 Z " fill="#000000"/><text fill="#000000" font-family="sans-serif" font-size="14" lengthAdjust="spacing" textLength="134.7773" x="2188.5" y="135.8467">SamplingCollection</text><line style="stroke:#181818;stroke-width:0.5;" x1="2160.5" x2="2325.2773" y1="147" y2="147"/><line style="stroke:#181818;stroke-width:0.5;" x1="2160.5" x2="2325.2773" y1="155" y2="155"/></g><!--class Sensor--><g class="entity" data-qualified-name="Sensor" data-source-line="14" id="ent0033"><rect fill="#F1F1F1" height="48" rx="2.5" ry="2.5" style="stroke:#181818;stroke-width:0.5;" width="79.9883" x="2163" y="223"/><ellipse cx="2178" cy="239" fill="#ADD1B2" rx="11" ry="11" style="stroke:#181818;stroke-width:1;"/><path d="M2180.9688,244.6406 Q2180.3906,244.9375 2179.75,245.0781 Q2179.1094,245.2344 2178.4063,245.2344 Q2175.9063,245.2344 2174.5781,243.5938 Q2173.2656,241.9375 2173.2656,238.8125 Q2173.2656,235.6875 2174.5781,234.0313 Q2175.9063,232.375 2178.4063,232.375 Q2179.1094,232.375 2179.75,232.5313 Q2180.4063,232.6875 2180.9688,232.9844 L2180.9688,235.7031 Q2180.3438,235.125 2179.75,234.8594 Q2179.1563,234.5781 2178.5313,234.5781 Q2177.1875,234.5781 2176.5,235.6563 Q2175.8125,236.7188 2175.8125,238.8125 Q2175.8125,240.9063 2176.5,241.9844 Q2177.1875,243.0469 2178.5313,243.0469 Q2179.1563,243.0469 2179.75,242.7813 Q2180.3438,242.5 2180.9688,241.9219 L2180.9688,244.6406 Z " fill="#000000"/><text fill="#000000" font-family="sans-serif" font-size="14" lengthAdjust="spacing" textLength="47.9883" x="2192" y="243.8467">Sensor</text><line style="stroke:#181818;stroke-width:0.5;" x1="2164" x2="2241.9883" y1="255" y2="255"/><line style="stroke:#181818;stroke-width:0.5;" x1="2164" x2="2241.9883" y1="263" y2="263"/></g><!--class Execution--><g class="entity" data-qualified-name="Execution" data-source-line="15" id="ent0035"><rect fill="#F1F1F1" height="48" rx="2.5" ry="2.5" style="stroke:#181818;stroke-width:0.5;" width="101.1318" x="2917.5" y="7"/><ellipse cx="2932.5" cy="23" fill="#ADD1B2" rx="11" ry="11" style="stroke:#181818;stroke-width:1;"/><path d="M2935.4688,28.6406 Q2934.8906,28.9375 2934.25,29.0781 Q2933.6094,29.2344 2932.9063,29.2344 Q2930.4063,29.2344 2929.0781,27.5938 Q2927.7656,25.9375 2927.7656,22.8125 Q2927.7656,19.6875 2929.0781,18.0313 Q2930.4063,16.375 2932.9063,16.375 Q2933.6094,16.375 2934.25,16.5313 Q2934.9063,16.6875 2935.4688,16.9844 L2935.4688,19.7031 Q2934.8438,19.125 2934.25,18.8594 Q2933.6563,18.5781 2933.0313,18.5781 Q2931.6875,18.5781 2931,19.6563 Q2930.3125,20.7188 2930.3125,22.8125 Q2930.3125,24.9063 2931,25.9844 Q2931.6875,27.0469 2933.0313,27.0469 Q2933.6563,27.0469 2934.25,26.7813 Q2934.8438,26.5 2935.4688,25.9219 L2935.4688,28.6406 Z " fill="#000000"/><text fill="#000000" font-family="sans-serif" font-size="14" lengthAdjust="spacing" textLength="69.1318" x="2946.5" y="27.8467">Execution</text><line style="stroke:#181818;stroke-width:0.5;" x1="2918.5" x2="3017.6318" y1="39" y2="39"/><line style="stroke:#181818;stroke-width:0.5;" x1="2918.5" x2="3017.6318" y1="47" y2="47"/></g><!--class Sampling--><g class="entity" data-qualified-name="Sampling" data-source-line="15" id="ent0036"><rect fill="#F1F1F1" height="48" rx="2.5" ry="2.5" style="stroke:#181818;stroke-width:0.5;" width="97.5293" x="2785" y="115"/><ellipse cx="2800" cy="131" fill="#ADD1B2" rx="11" ry="11" style="stroke:#181818;stroke-width:1;"/><path d="M2802.9688,136.6406 Q2802.3906,136.9375 2801.75,137.0781 Q2801.1094,137.2344 2800.4063,137.2344 Q2797.9063,137.2344 2796.5781,135.5938 Q2795.2656,133.9375 2795.2656,130.8125 Q2795.2656,127.6875 2796.5781,126.0313 Q2797.9063,124.375 2800.4063,124.375 Q2801.1094,124.375 2801.75,124.5313 Q2802.4063,124.6875 2802.9688,124.9844 L2802.9688,127.7031 Q2802.3438,127.125 2801.75,126.8594 Q2801.1563,126.5781 2800.5313,126.5781 Q2799.1875,126.5781 2798.5,127.6563 Q2797.8125,128.7188 2797.8125,130.8125 Q2797.8125,132.9063 2798.5,133.9844 Q2799.1875,135.0469 2800.5313,135.0469 Q2801.1563,135.0469 2801.75,134.7813 Q2802.3438,134.5 2802.9688,133.9219 L2802.9688,136.6406 Z " fill="#000000"/><text fill="#000000" font-family="sans-serif" font-size="14" lengthAdjust="spacing" textLength="65.5293" x="2814" y="135.8467">Sampling</text><line style="stroke:#181818;stroke-width:0.5;" x1="2786" x2="2881.5293" y1="147" y2="147"/><line style="stroke:#181818;stroke-width:0.5;" x1="2786" x2="2881.5293" y1="155" y2="155"/></g><!--class Actuation--><g class="entity" data-qualified-name="Actuation" data-source-line="16" id="ent0038"><rect fill="#F1F1F1" height="48" rx="2.5" ry="2.5" style="stroke:#181818;stroke-width:0.5;" width="99.0332" x="2918.5" y="115"/><ellipse cx="2933.5" cy="131" fill="#ADD1B2" rx="11" ry="11" style="stroke:#181818;stroke-width:1;"/><path d="M2936.4688,136.6406 Q2935.8906,136.9375 2935.25,137.0781 Q2934.6094,137.2344 2933.9063,137.2344 Q2931.4063,137.2344 2930.0781,135.5938 Q2928.7656,133.9375 2928.7656,130.8125 Q2928.7656,127.6875 2930.0781,126.0313 Q2931.4063,124.375 2933.9063,124.375 Q2934.6094,124.375 2935.25,124.5313 Q2935.9063,124.6875 2936.4688,124.9844 L2936.4688,127.7031 Q2935.8438,127.125 2935.25,126.8594 Q2934.6563,126.5781 2934.0313,126.5781 Q2932.6875,126.5781 2932,127.6563 Q2931.3125,128.7188 2931.3125,130.8125 Q2931.3125,132.9063 2932,133.9844 Q2932.6875,135.0469 2934.0313,135.0469 Q2934.6563,135.0469 2935.25,134.7813 Q2935.8438,134.5 2936.4688,133.9219 L2936.4688,136.6406 Z " fill="#000000"/><text fill="#000000" font-family="sans-serif" font-size="14" lengthAdjust="spacing" textLength="67.0332" x="2947.5" y="135.8467">Actuation</text><line style="stroke:#181818;stroke-width:0.5;" x1="2919.5" x2="3016.5332" y1="147" y2="147"/><line style="stroke:#181818;stroke-width:0.5;" x1="2919.5" x2="3016.5332" y1="155" y2="155"/></g><!--class ActuationCollection--><g class="entity" data-qualified-name="ActuationCollection" data-source-line="17" id="ent0040"><rect fill="#F1F1F1" height="48" rx="2.5" ry="2.5" style="stroke:#181818;stroke-width:0.5;" width="168.2813" x="2361" y="115"/><ellipse cx="2376" cy="131" fill="#ADD1B2" rx="11" ry="11" style="stroke:#181818;stroke-width:1;"/><path d="M2378.9688,136.6406 Q2378.3906,136.9375 2377.75,137.0781 Q2377.1094,137.2344 2376.4063,137.2344 Q2373.9063,137.2344 2372.5781,135.5938 Q2371.2656,133.9375 2371.2656,130.8125 Q2371.2656,127.6875 2372.5781,126.0313 Q2373.9063,124.375 2376.4063,124.375 Q2377.1094,124.375 2377.75,124.5313 Q2378.4063,124.6875 2378.9688,124.9844 L2378.9688,127.7031 Q2378.3438,127.125 2377.75,126.8594 Q2377.1563,126.5781 2376.5313,126.5781 Q2375.1875,126.5781 2374.5,127.6563 Q2373.8125,128.7188 2373.8125,130.8125 Q2373.8125,132.9063 2374.5,133.9844 Q2375.1875,135.0469 2376.5313,135.0469 Q2377.1563,135.0469 2377.75,134.7813 Q2378.3438,134.5 2378.9688,133.9219 L2378.9688,136.6406 Z " fill="#000000"/><text fill="#000000" font-family="sans-serif" font-size="14" lengthAdjust="spacing" textLength="136.2813" x="2390" y="135.8467">ActuationCollection</text><line style="stroke:#181818;stroke-width:0.5;" x1="2362" x2="2528.2813" y1="147" y2="147"/><line style="stroke:#181818;stroke-width:0.5;" x1="2362" x2="2528.2813" y1="155" y2="155"/></g><!--class ObservationCollection--><g class="entity" data-qualified-name="ObservationCollection" data-source-line="18" id="ent0042"><rect fill="#F1F1F1" height="48" rx="2.5" ry="2.5" style="stroke:#181818;stroke-width:0.5;" width="186.499" x="2564" y="115"/><ellipse cx="2579" cy="131" fill="#ADD1B2" rx="11" ry="11" style="stroke:#181818;stroke-width:1;"/><path d="M2581.9688,136.6406 Q2581.3906,136.9375 2580.75,137.0781 Q2580.1094,137.2344 2579.4063,137.2344 Q2576.9063,137.2344 2575.5781,135.5938 Q2574.2656,133.9375 2574.2656,130.8125 Q2574.2656,127.6875 2575.5781,126.0313 Q2576.9063,124.375 2579.4063,124.375 Q2580.1094,124.375 2580.75,124.5313 Q2581.4063,124.6875 2581.9688,124.9844 L2581.9688,127.7031 Q2581.3438,127.125 2580.75,126.8594 Q2580.1563,126.5781 2579.5313,126.5781 Q2578.1875,126.5781 2577.5,127.6563 Q2576.8125,128.7188 2576.8125,130.8125 Q2576.8125,132.9063 2577.5,133.9844 Q2578.1875,135.0469 2579.5313,135.0469 Q2580.1563,135.0469 2580.75,134.7813 Q2581.3438,134.5 2581.9688,133.9219 L2581.9688,136.6406 Z " fill="#000000"/><text fill="#000000" font-family="sans-serif" font-size="14" lengthAdjust="spacing" textLength="154.499" x="2593" y="135.8467">ObservationCollection</text><line style="stroke:#181818;stroke-width:0.5;" x1="2565" x2="2749.499" y1="147" y2="147"/><line style="stroke:#181818;stroke-width:0.5;" x1="2565" x2="2749.499" y1="155" y2="155"/></g><!--class Observation--><g class="entity" data-qualified-name="Observation" data-source-line="19" id="ent0044"><rect fill="#F1F1F1" height="48" rx="2.5" ry="2.5" style="stroke:#181818;stroke-width:0.5;" width="117.251" x="3052.5" y="115"/><ellipse cx="3067.5" cy="131" fill="#ADD1B2" rx="11" ry="11" style="stroke:#181818;stroke-width:1;"/><path d="M3070.4688,136.6406 Q3069.8906,136.9375 3069.25,137.0781 Q3068.6094,137.2344 3067.9063,137.2344 Q3065.4063,137.2344 3064.0781,135.5938 Q3062.7656,133.9375 3062.7656,130.8125 Q3062.7656,127.6875 3064.0781,126.0313 Q3065.4063,124.375 3067.9063,124.375 Q3068.6094,124.375 3069.25,124.5313 Q3069.9063,124.6875 3070.4688,124.9844 L3070.4688,127.7031 Q3069.8438,127.125 3069.25,126.8594 Q3068.6563,126.5781 3068.0313,126.5781 Q3066.6875,126.5781 3066,127.6563 Q3065.3125,128.7188 3065.3125,130.8125 Q3065.3125,132.9063 3066,133.9844 Q3066.6875,135.0469 3068.0313,135.0469 Q3068.6563,135.0469 3069.25,134.7813 Q3069.8438,134.5 3070.4688,133.9219 L3070.4688,136.6406 Z " fill="#000000"/><text fill="#000000" font-family="sans-serif" font-size="14" lengthAdjust="spacing" textLength="85.251" x="3081.5" y="135.8467">Observation</text><line style="stroke:#181818;stroke-width:0.5;" x1="3053.5" x2="3168.751" y1="147" y2="147"/><line style="stroke:#181818;stroke-width:0.5;" x1="3053.5" x2="3168.751" y1="155" y2="155"/></g><!--class Result--><g class="entity" data-qualified-name="Result" data-source-line="20" id="ent0046"><rect fill="#F1F1F1" height="48" rx="2.5" ry="2.5" style="stroke:#181818;stroke-width:0.5;" width="75.8867" x="28" y="7"/><ellipse cx="43" cy="23" fill="#ADD1B2" rx="11" ry="11" style="stroke:#181818;stroke-width:1;"/><path d="M45.9688,28.6406 Q45.3906,28.9375 44.75,29.0781 Q44.1094,29.2344 43.4063,29.2344 Q40.9063,29.2344 39.5781,27.5938 Q38.2656,25.9375 38.2656,22.8125 Q38.2656,19.6875 39.5781,18.0313 Q40.9063,16.375 43.4063,16.375 Q44.1094,16.375 44.75,16.5313 Q45.4063,16.6875 45.9688,16.9844 L45.9688,19.7031 Q45.3438,19.125 44.75,18.8594 Q44.1563,18.5781 43.5313,18.5781 Q42.1875,18.5781 41.5,19.6563 Q40.8125,20.7188 40.8125,22.8125 Q40.8125,24.9063 41.5,25.9844 Q42.1875,27.0469 43.5313,27.0469 Q44.1563,27.0469 44.75,26.7813 Q45.3438,26.5 45.9688,25.9219 L45.9688,28.6406 Z " fill="#000000"/><text fill="#000000" font-family="sans-serif" font-size="14" lengthAdjust="spacing" textLength="43.8867" x="57" y="27.8467">Result</text><line style="stroke:#181818;stroke-width:0.5;" x1="29" x2="102.8867" y1="39" y2="39"/><line style="stroke:#181818;stroke-width:0.5;" x1="29" x2="102.8867" y1="47" y2="47"/></g><!--class FeatureOfInterest--><g class="entity" data-qualified-name="FeatureOfInterest" data-source-line="21" id="ent0047"><rect fill="#F1F1F1" height="48" rx="2.5" ry="2.5" style="stroke:#181818;stroke-width:0.5;" width="156.1816" x="139" y="7"/><ellipse cx="154" cy="23" fill="#ADD1B2" rx="11" ry="11" style="stroke:#181818;stroke-width:1;"/><path d="M156.9688,28.6406 Q156.3906,28.9375 155.75,29.0781 Q155.1094,29.2344 154.4063,29.2344 Q151.9063,29.2344 150.5781,27.5938 Q149.2656,25.9375 149.2656,22.8125 Q149.2656,19.6875 150.5781,18.0313 Q151.9063,16.375 154.4063,16.375 Q155.1094,16.375 155.75,16.5313 Q156.4063,16.6875 156.9688,16.9844 L156.9688,19.7031 Q156.3438,19.125 155.75,18.8594 Q155.1563,18.5781 154.5313,18.5781 Q153.1875,18.5781 152.5,19.6563 Q151.8125,20.7188 151.8125,22.8125 Q151.8125,24.9063 152.5,25.9844 Q153.1875,27.0469 154.5313,27.0469 Q155.1563,27.0469 155.75,26.7813 Q156.3438,26.5 156.9688,25.9219 L156.9688,28.6406 Z " fill="#000000"/><text fill="#000000" font-family="sans-serif" font-size="14" lengthAdjust="spacing" textLength="124.1816" x="168" y="27.8467">FeatureOfInterest</text><line style="stroke:#181818;stroke-width:0.5;" x1="140" x2="294.1816" y1="39" y2="39"/><line style="stroke:#181818;stroke-width:0.5;" x1="140" x2="294.1816" y1="47" y2="47"/></g><!--class Stimulus--><g class="entity" data-qualified-name="Stimulus" data-source-line="22" id="ent0048"><rect fill="#F1F1F1" height="48" rx="2.5" ry="2.5" style="stroke:#181818;stroke-width:0.5;" width="92.833" x="330.5" y="7"/><ellipse cx="345.5" cy="23" fill="#ADD1B2" rx="11" ry="11" style="stroke:#181818;stroke-width:1;"/><path d="M348.4688,28.6406 Q347.8906,28.9375 347.25,29.0781 Q346.6094,29.2344 345.9063,29.2344 Q343.4063,29.2344 342.0781,27.5938 Q340.7656,25.9375 340.7656,22.8125 Q340.7656,19.6875 342.0781,18.0313 Q343.4063,16.375 345.9063,16.375 Q346.6094,16.375 347.25,16.5313 Q347.9063,16.6875 348.4688,16.9844 L348.4688,19.7031 Q347.8438,19.125 347.25,18.8594 Q346.6563,18.5781 346.0313,18.5781 Q344.6875,18.5781 344,19.6563 Q343.3125,20.7188 343.3125,22.8125 Q343.3125,24.9063 344,25.9844 Q344.6875,27.0469 346.0313,27.0469 Q346.6563,27.0469 347.25,26.7813 Q347.8438,26.5 348.4688,25.9219 L348.4688,28.6406 Z " fill="#000000"/><text fill="#000000" font-family="sans-serif" font-size="14" lengthAdjust="spacing" textLength="60.833" x="359.5" y="27.8467">Stimulus</text><line style="stroke:#181818;stroke-width:0.5;" x1="331.5" x2="422.333" y1="39" y2="39"/><line style="stroke:#181818;stroke-width:0.5;" x1="331.5" x2="422.333" y1="47" y2="47"/></g><!--class Deployment--><g class="entity" data-qualified-name="Deployment" data-source-line="23" id="ent0049"><rect fill="#F1F1F1" height="48" rx="2.5" ry="2.5" style="stroke:#181818;stroke-width:0.5;" width="117.6338" x="7" y="115"/><ellipse cx="22" cy="131" fill="#ADD1B2" rx="11" ry="11" style="stroke:#181818;stroke-width:1;"/><path d="M24.9688,136.6406 Q24.3906,136.9375 23.75,137.0781 Q23.1094,137.2344 22.4063,137.2344 Q19.9063,137.2344 18.5781,135.5938 Q17.2656,133.9375 17.2656,130.8125 Q17.2656,127.6875 18.5781,126.0313 Q19.9063,124.375 22.4063,124.375 Q23.1094,124.375 23.75,124.5313 Q24.4063,124.6875 24.9688,124.9844 L24.9688,127.7031 Q24.3438,127.125 23.75,126.8594 Q23.1563,126.5781 22.5313,126.5781 Q21.1875,126.5781 20.5,127.6563 Q19.8125,128.7188 19.8125,130.8125 Q19.8125,132.9063 20.5,133.9844 Q21.1875,135.0469 22.5313,135.0469 Q23.1563,135.0469 23.75,134.7813 Q24.3438,134.5 24.9688,133.9219 L24.9688,136.6406 Z " fill="#000000"/><text fill="#000000" font-family="sans-serif" font-size="14" lengthAdjust="spacing" textLength="85.6338" x="36" y="135.8467">Deployment</text><line style="stroke:#181818;stroke-width:0.5;" x1="8" x2="123.6338" y1="147" y2="147"/><line style="stroke:#181818;stroke-width:0.5;" x1="8" x2="123.6338" y1="155" y2="155"/></g><!--class SampleCollection--><g class="entity" data-qualified-name="SampleCollection" data-source-line="24" id="ent0050"><rect fill="#F1F1F1" height="48" rx="2.5" ry="2.5" style="stroke:#181818;stroke-width:0.5;" width="153.7412" x="160" y="115"/><ellipse cx="175" cy="131" fill="#ADD1B2" rx="11" ry="11" style="stroke:#181818;stroke-width:1;"/><path d="M177.9688,136.6406 Q177.3906,136.9375 176.75,137.0781 Q176.1094,137.2344 175.4063,137.2344 Q172.9063,137.2344 171.5781,135.5938 Q170.2656,133.9375 170.2656,130.8125 Q170.2656,127.6875 171.5781,126.0313 Q172.9063,124.375 175.4063,124.375 Q176.1094,124.375 176.75,124.5313 Q177.4063,124.6875 177.9688,124.9844 L177.9688,127.7031 Q177.3438,127.125 176.75,126.8594 Q176.1563,126.5781 175.5313,126.5781 Q174.1875,126.5781 173.5,127.6563 Q172.8125,128.7188 172.8125,130.8125 Q172.8125,132.9063 173.5,133.9844 Q174.1875,135.0469 175.5313,135.0469 Q176.1563,135.0469 176.75,134.7813 Q177.3438,134.5 177.9688,133.9219 L177.9688,136.6406 Z " fill="#000000"/><text fill="#000000" font-family="sans-serif" font-size="14" lengthAdjust="spacing" textLength="121.7412" x="189" y="135.8467">SampleCollection</text><line style="stroke:#181818;stroke-width:0.5;" x1="161" x2="312.7412" y1="147" y2="147"/><line style="stroke:#181818;stroke-width:0.5;" x1="161" x2="312.7412" y1="155" y2="155"/></g><!--reverse link Property to ActuatableProperty--><g class="link" data-entity-1="ent0002" data-entity-2="ent0003" data-link-type="extension" data-source-line="1" id="lnk4"><path codeLine="1" d="M527.5265,65.9144 C504.3665,83.5744 486.84,96.94 463.58,114.68" fill="none" id="Property-backto-ActuatableProperty" style="stroke:#181818;stroke-width:1;"/><polygon fill="none" points="541.84,55,523.8884,61.1432,531.1646,70.6855,541.84,55" style="stroke:#181818;stroke-width:1;"/></g><!--reverse link Sample to MaterialSample--><g class="link" data-entity-1="ent0005" data-entity-2="ent0006" data-link-type="extension" data-source-line="2" id="lnk7"><path codeLine="2" d="M949.3567,64.4445 C920.6067,82.1645 896.35,97.11 867.55,114.86" fill="none" id="Sample-backto-MaterialSample" style="stroke:#181818;stroke-width:1;"/><polygon fill="none" points="964.68,55,946.2086,59.3367,952.5049,69.5522,964.68,55" style="stroke:#181818;stroke-width:1;"/></g><!--reverse link Property to ObservableProperty--><g class="link" data-entity-1="ent0002" data-entity-2="ent0008" data-link-type="extension" data-source-line="3" id="lnk9"><path codeLine="3" d="M595.8366,70.2785 C606.8366,87.9385 612.43,96.94 623.48,114.68" fill="none" id="Property-backto-ObservableProperty" style="stroke:#181818;stroke-width:1;"/><polygon fill="none" points="586.32,55,590.7438,73.4507,600.9295,67.1063,586.32,55" style="stroke:#181818;stroke-width:1;"/></g><!--reverse link Sample to SpatialSample--><g class="link" data-entity-1="ent0005" data-entity-2="ent0010" data-link-type="extension" data-source-line="4" id="lnk11"><path codeLine="4" d="M1002,73 C1002,90.66 1002,96.94 1002,114.68" fill="none" id="Sample-backto-SpatialSample" style="stroke:#181818;stroke-width:1;"/><polygon fill="none" points="1002,55,996,73,1008,73,1002,55" style="stroke:#181818;stroke-width:1;"/></g><!--reverse link Sample to StatisticalSample--><g class="link" data-entity-1="ent0005" data-entity-2="ent0012" data-link-type="extension" data-source-line="5" id="lnk13"><path codeLine="5" d="M1056.3276,64.1725 C1086.2476,81.8925 1111.95,97.11 1141.93,114.86" fill="none" id="Sample-backto-StatisticalSample" style="stroke:#181818;stroke-width:1;"/><polygon fill="none" points="1040.84,55,1053.2701,69.335,1059.3851,59.0099,1040.84,55" style="stroke:#181818;stroke-width:1;"/></g><!--reverse link Procedure to ActuatingProcedure--><g class="link" data-entity-1="ent0014" data-entity-2="ent0015" data-link-type="extension" data-source-line="6" id="lnk16"><path codeLine="6" d="M1525.8326,63.1732 C1491.0626,80.8932 1459.24,97.11 1424.4,114.86" fill="none" id="Procedure-backto-ActuatingProcedure" style="stroke:#181818;stroke-width:1;"/><polygon fill="none" points="1541.87,55,1523.1082,57.8274,1528.557,68.519,1541.87,55" style="stroke:#181818;stroke-width:1;"/></g><!--reverse link Procedure to ObservingProcedure--><g class="link" data-entity-1="ent0014" data-entity-2="ent0017" data-link-type="extension" data-source-line="7" id="lnk18"><path codeLine="7" d="M1587,73 C1587,90.66 1587,96.94 1587,114.68" fill="none" id="Procedure-backto-ObservingProcedure" style="stroke:#181818;stroke-width:1;"/><polygon fill="none" points="1587,55,1581,73,1593,73,1587,55" style="stroke:#181818;stroke-width:1;"/></g><!--reverse link Procedure to SamplingProcedure--><g class="link" data-entity-1="ent0014" data-entity-2="ent0019" data-link-type="extension" data-source-line="8" id="lnk20"><path codeLine="8" d="M1647.9411,63.205 C1682.5411,80.925 1714.15,97.11 1748.81,114.86" fill="none" id="Procedure-backto-SamplingProcedure" style="stroke:#181818;stroke-width:1;"/><polygon fill="none" points="1631.92,55,1645.2061,68.5454,1650.6762,57.8647,1631.92,55" style="stroke:#181818;stroke-width:1;"/></g><!--reverse link Asset to Platform--><g class="link" data-entity-1="ent0021" data-entity-2="ent0022" data-link-type="extension" data-source-line="9" id="lnk23"><path codeLine="9" d="M1997.7839,70.6022 C1987.6239,88.2622 1982.63,96.94 1972.42,114.68" fill="none" id="Asset-backto-Platform" style="stroke:#181818;stroke-width:1;"/><polygon fill="none" points="2006.76,55,1992.5831,67.6102,2002.9846,73.5943,2006.76,55" style="stroke:#181818;stroke-width:1;"/></g><!--reverse link System to Sampler--><g class="link" data-entity-1="ent0024" data-entity-2="ent0025" data-link-type="extension" data-source-line="10" id="lnk26"><path codeLine="10" d="M2040.8865,174.5884 C2019.8965,192.2484 2004.81,204.94 1983.72,222.68" fill="none" id="System-backto-Sampler" style="stroke:#181818;stroke-width:1;"/><polygon fill="none" points="2054.66,163,2037.0237,169.9972,2044.7493,179.1795,2054.66,163" style="stroke:#181818;stroke-width:1;"/></g><!--reverse link System to Actuator--><g class="link" data-entity-1="ent0024" data-entity-2="ent0027" data-link-type="extension" data-source-line="11" id="lnk28"><path codeLine="11" d="M2082,181 C2082,198.66 2082,204.94 2082,222.68" fill="none" id="System-backto-Actuator" style="stroke:#181818;stroke-width:1;"/><polygon fill="none" points="2082,163,2076,181,2088,181,2082,163" style="stroke:#181818;stroke-width:1;"/></g><!--reverse link ExecutionCollection to SamplingCollection--><g class="link" data-entity-1="ent0029" data-entity-2="ent0030" data-link-type="extension" data-source-line="12" id="lnk31"><path codeLine="12" d="M2385.231,63.3636 C2351.461,81.0836 2320.93,97.11 2287.09,114.86" fill="none" id="ExecutionCollection-backto-SamplingCollection" style="stroke:#181818;stroke-width:1;"/><polygon fill="none" points="2401.17,55,2382.4432,58.0506,2388.0189,68.6766,2401.17,55" style="stroke:#181818;stroke-width:1;"/></g><!--reverse link Asset to System--><g class="link" data-entity-1="ent0021" data-entity-2="ent0024" data-link-type="extension" data-source-line="13" id="lnk32"><path codeLine="13" d="M2042.5383,70.5372 C2052.8683,88.1972 2057.98,96.94 2068.36,114.68" fill="none" id="Asset-backto-System" style="stroke:#181818;stroke-width:1;"/><polygon fill="none" points="2033.45,55,2037.3592,73.5666,2047.7173,67.5077,2033.45,55" style="stroke:#181818;stroke-width:1;"/></g><!--reverse link System to Sensor--><g class="link" data-entity-1="ent0024" data-entity-2="ent0033" data-link-type="extension" data-source-line="14" id="lnk34"><path codeLine="14" d="M2121.7968,174.864 C2141.9468,192.524 2156.13,204.94 2176.38,222.68" fill="none" id="System-backto-Sensor" style="stroke:#181818;stroke-width:1;"/><polygon fill="none" points="2108.26,163,2117.8421,179.3763,2125.7515,170.3518,2108.26,163" style="stroke:#181818;stroke-width:1;"/></g><!--reverse link Execution to Sampling--><g class="link" data-entity-1="ent0035" data-entity-2="ent0036" data-link-type="extension" data-source-line="15" id="lnk37"><path codeLine="15" d="M2924.8041,66.1688 C2902.4841,83.8288 2885.91,96.94 2863.48,114.68" fill="none" id="Execution-backto-Sampling" style="stroke:#181818;stroke-width:1;"/><polygon fill="none" points="2938.92,55,2921.0812,61.4635,2928.527,70.8741,2938.92,55" style="stroke:#181818;stroke-width:1;"/></g><!--reverse link Execution to Actuation--><g class="link" data-entity-1="ent0035" data-entity-2="ent0038" data-link-type="extension" data-source-line="16" id="lnk39"><path codeLine="16" d="M2968,73 C2968,90.66 2968,96.94 2968,114.68" fill="none" id="Execution-backto-Actuation" style="stroke:#181818;stroke-width:1;"/><polygon fill="none" points="2968,55,2962,73,2974,73,2968,55" style="stroke:#181818;stroke-width:1;"/></g><!--reverse link ExecutionCollection to ActuationCollection--><g class="link" data-entity-1="ent0029" data-entity-2="ent0040" data-link-type="extension" data-source-line="17" id="lnk41"><path codeLine="17" d="M2445,73 C2445,90.66 2445,96.94 2445,114.68" fill="none" id="ExecutionCollection-backto-ActuationCollection" style="stroke:#181818;stroke-width:1;"/><polygon fill="none" points="2445,55,2439,73,2451,73,2445,55" style="stroke:#181818;stroke-width:1;"/></g><!--reverse link ExecutionCollection to ObservationCollection--><g class="link" data-entity-1="ent0029" data-entity-2="ent0042" data-link-type="extension" data-source-line="18" id="lnk43"><path codeLine="18" d="M2507.0997,63.0498 C2542.5397,80.7698 2575.22,97.11 2610.72,114.86" fill="none" id="ExecutionCollection-backto-ObservationCollection" style="stroke:#181818;stroke-width:1;"/><polygon fill="none" points="2491,55,2504.4164,68.4164,2509.783,57.6833,2491,55" style="stroke:#181818;stroke-width:1;"/></g><!--reverse link Execution to Observation--><g class="link" data-entity-1="ent0035" data-entity-2="ent0044" data-link-type="extension" data-source-line="19" id="lnk45"><path codeLine="19" d="M3013.4895,65.7202 C3037.3095,83.3802 3055.61,96.94 3079.54,114.68" fill="none" id="Execution-backto-Observation" style="stroke:#181818;stroke-width:1;"/><polygon fill="none" points="2999.03,55,3009.9161,70.54,3017.0629,60.9004,2999.03,55" style="stroke:#181818;stroke-width:1;"/></g><?plantuml-src VL91RiCW4Bpp2dyWF-WbQXkfXoXM_G929XNI0XQxLBNKnzSDr8P4xWrcPcT62tqC8w9CtTFtRjVjZIGj-ape2wu6xKP2fezQ4AscZAc-cJsT6V5pStOOjQoZ3ICpms9DRMnmIH5rA-i_5lnUaRF_KzoS6y6U6PB9dhHSGtHgc5ZWgWd41ijDGbIlNp19RF3FWGZczzJch7WTbBtQ67Yk3LkRUxoiOdRTRB18gWgRul9eM_87aJAacRjtS28fbmEqp0izNT_y_3t0V_WWrYLANAul62bC3dxXRmjUOty0?></g></svg>