<svg xmlns="http://www.w3.org/2000/svg" xmlns:xlink="http://www.w3.org/1999/xlink" contentStyleType="text/css" data-diagram-type="CLASS" height="286px" preserveAspectRatio="none" style="width:3227px;height:286px;background:#FFFFFF;" version="1.1" viewBox="0 0 3227 286" width="3227px" zoomAndPan="magnify"><?plantuml 1.2026.5?><defs/><g><!--class Property--><g class="entity" data-qualified-name="Property" data-source-line="1" id="ent0001"><rect fill="#F1F1F1" height="48" rx="2.5" ry="2.5" style="stroke:#181818;stroke-width:0.5;" width="91.7939" x="557" y="7"/><ellipse cx="572" cy="23" fill="#ADD1B2" rx="11" ry="11" style="stroke:#181818;stroke-width:1;"/><path d="M574.9688,28.6406 Q574.3906,28.9375 573.75,29.0781 Q573.1094,29.2344 572.4063,29.2344 Q569.9063,29.2344 568.5781,27.5938 Q567.2656,25.9375 567.2656,22.8125 Q567.2656,19.6875 568.5781,18.0313 Q569.9063,16.375 572.4063,16.375 Q573.1094,16.375 573.75,16.5313 Q574.4063,16.6875 574.9688,16.9844 L574.9688,19.7031 Q574.3438,19.125 573.75,18.8594 Q573.1563,18.5781 572.5313,18.5781 Q571.1875,18.5781 570.5,19.6563 Q569.8125,20.7188 569.8125,22.8125 Q569.8125,24.9063 570.5,25.9844 Q571.1875,27.0469 572.5313,27.0469 Q573.1563,27.0469 573.75,26.7813 Q574.3438,26.5 574.9688,25.9219 L574.9688,28.6406 Z " fill="#000000"/><text fill="#000000" font-family="sans-serif" font-size="14" lengthAdjust="spacing" textLength="59.7939" x="586" y="27.8467">Property</text><line style="stroke:#181818;stroke-width:0.5;" x1="558" x2="647.7939" y1="39" y2="39"/><line style="stroke:#181818;stroke-width:0.5;" x1="558" x2="647.7939" y1="47" y2="47"/></g><!--class ActuatableProperty--><g class="entity" data-qualified-name="ActuatableProperty" data-source-line="1" id="ent0002"><rect fill="#F1F1F1" height="48" rx="2.5" ry="2.5" style="stroke:#181818;stroke-width:0.5;" width="167.4678" x="392.5" y="115"/><ellipse cx="407.5" cy="131" fill="#ADD1B2" rx="11" ry="11" style="stroke:#181818;stroke-width:1;"/><path d="M410.4688,136.6406 Q409.8906,136.9375 409.25,137.0781 Q408.6094,137.2344 407.9063,137.2344 Q405.4063,137.2344 404.0781,135.5938 Q402.7656,133.9375 402.7656,130.8125 Q402.7656,127.6875 404.0781,126.0313 Q405.4063,124.375 407.9063,124.375 Q408.6094,124.375 409.25,124.5313 Q409.9063,124.6875 410.4688,124.9844 L410.4688,127.7031 Q409.8438,127.125 409.25,126.8594 Q408.6563,126.5781 408.0313,126.5781 Q406.6875,126.5781 406,127.6563 Q405.3125,128.7188 405.3125,130.8125 Q405.3125,132.9063 406,133.9844 Q406.6875,135.0469 408.0313,135.0469 Q408.6563,135.0469 409.25,134.7813 Q409.8438,134.5 410.4688,133.9219 L410.4688,136.6406 Z " fill="#000000"/><text fill="#000000" font-family="sans-serif" font-size="14" lengthAdjust="spacing" textLength="135.4678" x="421.5" y="135.8467">ActuatableProperty</text><line style="stroke:#181818;stroke-width:0.5;" x1="393.5" x2="558.9678" y1="147" y2="147"/><line style="stroke:#181818;stroke-width:0.5;" x1="393.5" x2="558.9678" y1="155" y2="155"/></g><!--class Sample--><g class="entity" data-qualified-name="Sample" data-source-line="2" id="ent0004"><rect fill="#F1F1F1" height="48" rx="2.5" ry="2.5" style="stroke:#181818;stroke-width:0.5;" width="84.4932" x="1003" y="7"/><ellipse cx="1018" cy="23" fill="#ADD1B2" rx="11" ry="11" style="stroke:#181818;stroke-width:1;"/><path d="M1020.9688,28.6406 Q1020.3906,28.9375 1019.75,29.0781 Q1019.1094,29.2344 1018.4063,29.2344 Q1015.9063,29.2344 1014.5781,27.5938 Q1013.2656,25.9375 1013.2656,22.8125 Q1013.2656,19.6875 1014.5781,18.0313 Q1015.9063,16.375 1018.4063,16.375 Q1019.1094,16.375 1019.75,16.5313 Q1020.4063,16.6875 1020.9688,16.9844 L1020.9688,19.7031 Q1020.3438,19.125 1019.75,18.8594 Q1019.1563,18.5781 1018.5313,18.5781 Q1017.1875,18.5781 1016.5,19.6563 Q1015.8125,20.7188 1015.8125,22.8125 Q1015.8125,24.9063 1016.5,25.9844 Q1017.1875,27.0469 1018.5313,27.0469 Q1019.1563,27.0469 1019.75,26.7813 Q1020.3438,26.5 1020.9688,25.9219 L1020.9688,28.6406 Z " fill="#000000"/><text fill="#000000" font-family="sans-serif" font-size="14" lengthAdjust="spacing" textLength="52.4932" x="1032" y="27.8467">Sample</text><line style="stroke:#181818;stroke-width:0.5;" x1="1004" x2="1086.4932" y1="39" y2="39"/><line style="stroke:#181818;stroke-width:0.5;" x1="1004" x2="1086.4932" y1="47" y2="47"/></g><!--class MaterialSample--><g class="entity" data-qualified-name="MaterialSample" data-source-line="2" id="ent0005"><rect fill="#F1F1F1" height="48" rx="2.5" ry="2.5" style="stroke:#181818;stroke-width:0.5;" width="141.3682" x="802.5" y="115"/><ellipse cx="817.5" cy="131" fill="#ADD1B2" rx="11" ry="11" style="stroke:#181818;stroke-width:1;"/><path d="M820.4688,136.6406 Q819.8906,136.9375 819.25,137.0781 Q818.6094,137.2344 817.9063,137.2344 Q815.4063,137.2344 814.0781,135.5938 Q812.7656,133.9375 812.7656,130.8125 Q812.7656,127.6875 814.0781,126.0313 Q815.4063,124.375 817.9063,124.375 Q818.6094,124.375 819.25,124.5313 Q819.9063,124.6875 820.4688,124.9844 L820.4688,127.7031 Q819.8438,127.125 819.25,126.8594 Q818.6563,126.5781 818.0313,126.5781 Q816.6875,126.5781 816,127.6563 Q815.3125,128.7188 815.3125,130.8125 Q815.3125,132.9063 816,133.9844 Q816.6875,135.0469 818.0313,135.0469 Q818.6563,135.0469 819.25,134.7813 Q819.8438,134.5 820.4688,133.9219 L820.4688,136.6406 Z " fill="#000000"/><text fill="#000000" font-family="sans-serif" font-size="14" lengthAdjust="spacing" textLength="109.3682" x="831.5" y="135.8467">MaterialSample</text><line style="stroke:#181818;stroke-width:0.5;" x1="803.5" x2="942.8682" y1="147" y2="147"/><line style="stroke:#181818;stroke-width:0.5;" x1="803.5" x2="942.8682" y1="155" y2="155"/></g><!--class SpatialSample--><g class="entity" data-qualified-name="SpatialSample" data-source-line="3" id="ent0007"><rect fill="#F1F1F1" height="48" rx="2.5" ry="2.5" style="stroke:#181818;stroke-width:0.5;" width="132.6934" x="978.5" y="115"/><ellipse cx="993.5" cy="131" fill="#ADD1B2" rx="11" ry="11" style="stroke:#181818;stroke-width:1;"/><path d="M996.4688,136.6406 Q995.8906,136.9375 995.25,137.0781 Q994.6094,137.2344 993.9063,137.2344 Q991.4063,137.2344 990.0781,135.5938 Q988.7656,133.9375 988.7656,130.8125 Q988.7656,127.6875 990.0781,126.0313 Q991.4063,124.375 993.9063,124.375 Q994.6094,124.375 995.25,124.5313 Q995.9063,124.6875 996.4688,124.9844 L996.4688,127.7031 Q995.8438,127.125 995.25,126.8594 Q994.6563,126.5781 994.0313,126.5781 Q992.6875,126.5781 992,127.6563 Q991.3125,128.7188 991.3125,130.8125 Q991.3125,132.9063 992,133.9844 Q992.6875,135.0469 994.0313,135.0469 Q994.6563,135.0469 995.25,134.7813 Q995.8438,134.5 996.4688,133.9219 L996.4688,136.6406 Z " fill="#000000"/><text fill="#000000" font-family="sans-serif" font-size="14" lengthAdjust="spacing" textLength="100.6934" x="1007.5" y="135.8467">SpatialSample</text><line style="stroke:#181818;stroke-width:0.5;" x1="979.5" x2="1110.1934" y1="147" y2="147"/><line style="stroke:#181818;stroke-width:0.5;" x1="979.5" x2="1110.1934" y1="155" y2="155"/></g><!--class StatisticalSample--><g class="entity" data-qualified-name="StatisticalSample" data-source-line="4" id="ent0009"><rect fill="#F1F1F1" height="48" rx="2.5" ry="2.5" style="stroke:#181818;stroke-width:0.5;" width="153.666" x="1147" y="115"/><ellipse cx="1162" cy="131" fill="#ADD1B2" rx="11" ry="11" style="stroke:#181818;stroke-width:1;"/><path d="M1164.9688,136.6406 Q1164.3906,136.9375 1163.75,137.0781 Q1163.1094,137.2344 1162.4063,137.2344 Q1159.9063,137.2344 1158.5781,135.5938 Q1157.2656,133.9375 1157.2656,130.8125 Q1157.2656,127.6875 1158.5781,126.0313 Q1159.9063,124.375 1162.4063,124.375 Q1163.1094,124.375 1163.75,124.5313 Q1164.4063,124.6875 1164.9688,124.9844 L1164.9688,127.7031 Q1164.3438,127.125 1163.75,126.8594 Q1163.1563,126.5781 1162.5313,126.5781 Q1161.1875,126.5781 1160.5,127.6563 Q1159.8125,128.7188 1159.8125,130.8125 Q1159.8125,132.9063 1160.5,133.9844 Q1161.1875,135.0469 1162.5313,135.0469 Q1163.1563,135.0469 1163.75,134.7813 Q1164.3438,134.5 1164.9688,133.9219 L1164.9688,136.6406 Z " fill="#000000"/><text fill="#000000" font-family="sans-serif" font-size="14" lengthAdjust="spacing" textLength="121.666" x="1176" y="135.8467">StatisticalSample</text><line style="stroke:#181818;stroke-width:0.5;" x1="1148" x2="1299.666" y1="147" y2="147"/><line style="stroke:#181818;stroke-width:0.5;" x1="1148" x2="1299.666" y1="155" y2="155"/></g><!--class ObservableProperty--><g class="entity" data-qualified-name="ObservableProperty" data-source-line="5" id="ent0011"><rect fill="#F1F1F1" height="48" rx="2.5" ry="2.5" style="stroke:#181818;stroke-width:0.5;" width="171.6172" x="595" y="115"/><ellipse cx="610" cy="131" fill="#ADD1B2" rx="11" ry="11" style="stroke:#181818;stroke-width:1;"/><path d="M612.9688,136.6406 Q612.3906,136.9375 611.75,137.0781 Q611.1094,137.2344 610.4063,137.2344 Q607.9063,137.2344 606.5781,135.5938 Q605.2656,133.9375 605.2656,130.8125 Q605.2656,127.6875 606.5781,126.0313 Q607.9063,124.375 610.4063,124.375 Q611.1094,124.375 611.75,124.5313 Q612.4063,124.6875 612.9688,124.9844 L612.9688,127.7031 Q612.3438,127.125 611.75,126.8594 Q611.1563,126.5781 610.5313,126.5781 Q609.1875,126.5781 608.5,127.6563 Q607.8125,128.7188 607.8125,130.8125 Q607.8125,132.9063 608.5,133.9844 Q609.1875,135.0469 610.5313,135.0469 Q611.1563,135.0469 611.75,134.7813 Q612.3438,134.5 612.9688,133.9219 L612.9688,136.6406 Z " fill="#000000"/><text fill="#000000" font-family="sans-serif" font-size="14" lengthAdjust="spacing" textLength="139.6172" x="624" y="135.8467">ObservableProperty</text><line style="stroke:#181818;stroke-width:0.5;" x1="596" x2="765.6172" y1="147" y2="147"/><line style="stroke:#181818;stroke-width:0.5;" x1="596" x2="765.6172" y1="155" y2="155"/></g><!--class Procedure--><g class="entity" data-qualified-name="Procedure" data-source-line="6" id="ent0013"><rect fill="#F1F1F1" height="48" rx="2.5" ry="2.5" style="stroke:#181818;stroke-width:0.5;" width="103.2031" x="1578.5" y="7"/><ellipse cx="1593.5" cy="23" fill="#ADD1B2" rx="11" ry="11" style="stroke:#181818;stroke-width:1;"/><path d="M1596.4688,28.6406 Q1595.8906,28.9375 1595.25,29.0781 Q1594.6094,29.2344 1593.9063,29.2344 Q1591.4063,29.2344 1590.0781,27.5938 Q1588.7656,25.9375 1588.7656,22.8125 Q1588.7656,19.6875 1590.0781,18.0313 Q1591.4063,16.375 1593.9063,16.375 Q1594.6094,16.375 1595.25,16.5313 Q1595.9063,16.6875 1596.4688,16.9844 L1596.4688,19.7031 Q1595.8438,19.125 1595.25,18.8594 Q1594.6563,18.5781 1594.0313,18.5781 Q1592.6875,18.5781 1592,19.6563 Q1591.3125,20.7188 1591.3125,22.8125 Q1591.3125,24.9063 1592,25.9844 Q1592.6875,27.0469 1594.0313,27.0469 Q1594.6563,27.0469 1595.25,26.7813 Q1595.8438,26.5 1596.4688,25.9219 L1596.4688,28.6406 Z " fill="#000000"/><text fill="#000000" font-family="sans-serif" font-size="14" lengthAdjust="spacing" textLength="71.2031" x="1607.5" y="27.8467">Procedure</text><line style="stroke:#181818;stroke-width:0.5;" x1="1579.5" x2="1680.7031" y1="39" y2="39"/><line style="stroke:#181818;stroke-width:0.5;" x1="1579.5" x2="1680.7031" y1="47" y2="47"/></g><!--class ActuatingProcedure--><g class="entity" data-qualified-name="ActuatingProcedure" data-source-line="6" id="ent0014"><rect fill="#F1F1F1" height="48" rx="2.5" ry="2.5" style="stroke:#181818;stroke-width:0.5;" width="170.5576" x="1336.5" y="115"/><ellipse cx="1351.5" cy="131" fill="#ADD1B2" rx="11" ry="11" style="stroke:#181818;stroke-width:1;"/><path d="M1354.4688,136.6406 Q1353.8906,136.9375 1353.25,137.0781 Q1352.6094,137.2344 1351.9063,137.2344 Q1349.4063,137.2344 1348.0781,135.5938 Q1346.7656,133.9375 1346.7656,130.8125 Q1346.7656,127.6875 1348.0781,126.0313 Q1349.4063,124.375 1351.9063,124.375 Q1352.6094,124.375 1353.25,124.5313 Q1353.9063,124.6875 1354.4688,124.9844 L1354.4688,127.7031 Q1353.8438,127.125 1353.25,126.8594 Q1352.6563,126.5781 1352.0313,126.5781 Q1350.6875,126.5781 1350,127.6563 Q1349.3125,128.7188 1349.3125,130.8125 Q1349.3125,132.9063 1350,133.9844 Q1350.6875,135.0469 1352.0313,135.0469 Q1352.6563,135.0469 1353.25,134.7813 Q1353.8438,134.5 1354.4688,133.9219 L1354.4688,136.6406 Z " fill="#000000"/><text fill="#000000" font-family="sans-serif" font-size="14" lengthAdjust="spacing" textLength="138.5576" x="1365.5" y="135.8467">ActuatingProcedure</text><line style="stroke:#181818;stroke-width:0.5;" x1="1337.5" x2="1506.0576" y1="147" y2="147"/><line style="stroke:#181818;stroke-width:0.5;" x1="1337.5" x2="1506.0576" y1="155" y2="155"/></g><!--class ObservingProcedure--><g class="entity" data-qualified-name="ObservingProcedure" data-source-line="7" id="ent0016"><rect fill="#F1F1F1" height="48" rx="2.5" ry="2.5" style="stroke:#181818;stroke-width:0.5;" width="174.707" x="1542.5" y="115"/><ellipse cx="1557.5" cy="131" fill="#ADD1B2" rx="11" ry="11" style="stroke:#181818;stroke-width:1;"/><path d="M1560.4688,136.6406 Q1559.8906,136.9375 1559.25,137.0781 Q1558.6094,137.2344 1557.9063,137.2344 Q1555.4063,137.2344 1554.0781,135.5938 Q1552.7656,133.9375 1552.7656,130.8125 Q1552.7656,127.6875 1554.0781,126.0313 Q1555.4063,124.375 1557.9063,124.375 Q1558.6094,124.375 1559.25,124.5313 Q1559.9063,124.6875 1560.4688,124.9844 L1560.4688,127.7031 Q1559.8438,127.125 1559.25,126.8594 Q1558.6563,126.5781 1558.0313,126.5781 Q1556.6875,126.5781 1556,127.6563 Q1555.3125,128.7188 1555.3125,130.8125 Q1555.3125,132.9063 1556,133.9844 Q1556.6875,135.0469 1558.0313,135.0469 Q1558.6563,135.0469 1559.25,134.7813 Q1559.8438,134.5 1560.4688,133.9219 L1560.4688,136.6406 Z " fill="#000000"/><text fill="#000000" font-family="sans-serif" font-size="14" lengthAdjust="spacing" textLength="142.707" x="1571.5" y="135.8467">ObservingProcedure</text><line style="stroke:#181818;stroke-width:0.5;" x1="1543.5" x2="1716.207" y1="147" y2="147"/><line style="stroke:#181818;stroke-width:0.5;" x1="1543.5" x2="1716.207" y1="155" y2="155"/></g><!--class SamplingProcedure--><g class="entity" data-qualified-name="SamplingProcedure" data-source-line="8" id="ent0018"><rect fill="#F1F1F1" height="48" rx="2.5" ry="2.5" style="stroke:#181818;stroke-width:0.5;" width="168.7324" x="1752.5" y="115"/><ellipse cx="1767.5" cy="131" fill="#ADD1B2" rx="11" ry="11" style="stroke:#181818;stroke-width:1;"/><path d="M1770.4688,136.6406 Q1769.8906,136.9375 1769.25,137.0781 Q1768.6094,137.2344 1767.9063,137.2344 Q1765.4063,137.2344 1764.0781,135.5938 Q1762.7656,133.9375 1762.7656,130.8125 Q1762.7656,127.6875 1764.0781,126.0313 Q1765.4063,124.375 1767.9063,124.375 Q1768.6094,124.375 1769.25,124.5313 Q1769.9063,124.6875 1770.4688,124.9844 L1770.4688,127.7031 Q1769.8438,127.125 1769.25,126.8594 Q1768.6563,126.5781 1768.0313,126.5781 Q1766.6875,126.5781 1766,127.6563 Q1765.3125,128.7188 1765.3125,130.8125 Q1765.3125,132.9063 1766,133.9844 Q1766.6875,135.0469 1768.0313,135.0469 Q1768.6563,135.0469 1769.25,134.7813 Q1769.8438,134.5 1770.4688,133.9219 L1770.4688,136.6406 Z " fill="#000000"/><text fill="#000000" font-family="sans-serif" font-size="14" lengthAdjust="spacing" textLength="136.7324" x="1781.5" y="135.8467">SamplingProcedure</text><line style="stroke:#181818;stroke-width:0.5;" x1="1753.5" x2="1920.2324" y1="147" y2="147"/><line style="stroke:#181818;stroke-width:0.5;" x1="1753.5" x2="1920.2324" y1="155" y2="155"/></g><!--class Asset--><g class="entity" data-qualified-name="Asset" data-source-line="9" id="ent0020"><rect fill="#F1F1F1" height="48" rx="2.5" ry="2.5" style="stroke:#181818;stroke-width:0.5;" width="70.2676" x="2028" y="7"/><ellipse cx="2043" cy="23" fill="#ADD1B2" rx="11" ry="11" style="stroke:#181818;stroke-width:1;"/><path d="M2045.9688,28.6406 Q2045.3906,28.9375 2044.75,29.0781 Q2044.1094,29.2344 2043.4063,29.2344 Q2040.9063,29.2344 2039.5781,27.5938 Q2038.2656,25.9375 2038.2656,22.8125 Q2038.2656,19.6875 2039.5781,18.0313 Q2040.9063,16.375 2043.4063,16.375 Q2044.1094,16.375 2044.75,16.5313 Q2045.4063,16.6875 2045.9688,16.9844 L2045.9688,19.7031 Q2045.3438,19.125 2044.75,18.8594 Q2044.1563,18.5781 2043.5313,18.5781 Q2042.1875,18.5781 2041.5,19.6563 Q2040.8125,20.7188 2040.8125,22.8125 Q2040.8125,24.9063 2041.5,25.9844 Q2042.1875,27.0469 2043.5313,27.0469 Q2044.1563,27.0469 2044.75,26.7813 Q2045.3438,26.5 2045.9688,25.9219 L2045.9688,28.6406 Z " fill="#000000"/><text fill="#000000" font-family="sans-serif" font-size="14" lengthAdjust="spacing" textLength="38.2676" x="2057" y="27.8467">Asset</text><line style="stroke:#181818;stroke-width:0.5;" x1="2029" x2="2097.2676" y1="39" y2="39"/><line style="stroke:#181818;stroke-width:0.5;" x1="2029" x2="2097.2676" y1="47" y2="47"/></g><!--class Platform--><g class="entity" data-qualified-name="Platform" data-source-line="9" id="ent0021"><rect fill="#F1F1F1" height="48" rx="2.5" ry="2.5" style="stroke:#181818;stroke-width:0.5;" width="91.2881" x="1956.5" y="115"/><ellipse cx="1971.5" cy="131" fill="#ADD1B2" rx="11" ry="11" style="stroke:#181818;stroke-width:1;"/><path d="M1974.4688,136.6406 Q1973.8906,136.9375 1973.25,137.0781 Q1972.6094,137.2344 1971.9063,137.2344 Q1969.4063,137.2344 1968.0781,135.5938 Q1966.7656,133.9375 1966.7656,130.8125 Q1966.7656,127.6875 1968.0781,126.0313 Q1969.4063,124.375 1971.9063,124.375 Q1972.6094,124.375 1973.25,124.5313 Q1973.9063,124.6875 1974.4688,124.9844 L1974.4688,127.7031 Q1973.8438,127.125 1973.25,126.8594 Q1972.6563,126.5781 1972.0313,126.5781 Q1970.6875,126.5781 1970,127.6563 Q1969.3125,128.7188 1969.3125,130.8125 Q1969.3125,132.9063 1970,133.9844 Q1970.6875,135.0469 1972.0313,135.0469 Q1972.6563,135.0469 1973.25,134.7813 Q1973.8438,134.5 1974.4688,133.9219 L1974.4688,136.6406 Z " fill="#000000"/><text fill="#000000" font-family="sans-serif" font-size="14" lengthAdjust="spacing" textLength="59.2881" x="1985.5" y="135.8467">Platform</text><line style="stroke:#181818;stroke-width:0.5;" x1="1957.5" x2="2046.7881" y1="147" y2="147"/><line style="stroke:#181818;stroke-width:0.5;" x1="1957.5" x2="2046.7881" y1="155" y2="155"/></g><!--class System--><g class="entity" data-qualified-name="System" data-source-line="10" id="ent0023"><rect fill="#F1F1F1" height="48" rx="2.5" ry="2.5" style="stroke:#181818;stroke-width:0.5;" width="84.2061" x="2083" y="115"/><ellipse cx="2098" cy="131" fill="#ADD1B2" rx="11" ry="11" style="stroke:#181818;stroke-width:1;"/><path d="M2100.9688,136.6406 Q2100.3906,136.9375 2099.75,137.0781 Q2099.1094,137.2344 2098.4063,137.2344 Q2095.9063,137.2344 2094.5781,135.5938 Q2093.2656,133.9375 2093.2656,130.8125 Q2093.2656,127.6875 2094.5781,126.0313 Q2095.9063,124.375 2098.4063,124.375 Q2099.1094,124.375 2099.75,124.5313 Q2100.4063,124.6875 2100.9688,124.9844 L2100.9688,127.7031 Q2100.3438,127.125 2099.75,126.8594 Q2099.1563,126.5781 2098.5313,126.5781 Q2097.1875,126.5781 2096.5,127.6563 Q2095.8125,128.7188 2095.8125,130.8125 Q2095.8125,132.9063 2096.5,133.9844 Q2097.1875,135.0469 2098.5313,135.0469 Q2099.1563,135.0469 2099.75,134.7813 Q2100.3438,134.5 2100.9688,133.9219 L2100.9688,136.6406 Z " fill="#000000"/><text fill="#000000" font-family="sans-serif" font-size="14" lengthAdjust="spacing" textLength="52.2061" x="2112" y="135.8467">System</text><line style="stroke:#181818;stroke-width:0.5;" x1="2084" x2="2166.2061" y1="147" y2="147"/><line style="stroke:#181818;stroke-width:0.5;" x1="2084" x2="2166.2061" y1="155" y2="155"/></g><!--class Sampler--><g class="entity" data-qualified-name="Sampler" data-source-line="10" id="ent0024"><rect fill="#F1F1F1" height="48" rx="2.5" ry="2.5" style="stroke:#181818;stroke-width:0.5;" width="90.249" x="1954" y="223"/><ellipse cx="1969" cy="239" fill="#ADD1B2" rx="11" ry="11" style="stroke:#181818;stroke-width:1;"/><path d="M1971.9688,244.6406 Q1971.3906,244.9375 1970.75,245.0781 Q1970.1094,245.2344 1969.4063,245.2344 Q1966.9063,245.2344 1965.5781,243.5938 Q1964.2656,241.9375 1964.2656,238.8125 Q1964.2656,235.6875 1965.5781,234.0313 Q1966.9063,232.375 1969.4063,232.375 Q1970.1094,232.375 1970.75,232.5313 Q1971.4063,232.6875 1971.9688,232.9844 L1971.9688,235.7031 Q1971.3438,235.125 1970.75,234.8594 Q1970.1563,234.5781 1969.5313,234.5781 Q1968.1875,234.5781 1967.5,235.6563 Q1966.8125,236.7188 1966.8125,238.8125 Q1966.8125,240.9063 1967.5,241.9844 Q1968.1875,243.0469 1969.5313,243.0469 Q1970.1563,243.0469 1970.75,242.7813 Q1971.3438,242.5 1971.9688,241.9219 L1971.9688,244.6406 Z " fill="#000000"/><text fill="#000000" font-family="sans-serif" font-size="14" lengthAdjust="spacing" textLength="58.249" x="1983" y="243.8467">Sampler</text><line style="stroke:#181818;stroke-width:0.5;" x1="1955" x2="2043.249" y1="255" y2="255"/><line style="stroke:#181818;stroke-width:0.5;" x1="1955" x2="2043.249" y1="263" y2="263"/></g><!--class Actuator--><g class="entity" data-qualified-name="Actuator" data-source-line="11" id="ent0026"><rect fill="#F1F1F1" height="48" rx="2.5" ry="2.5" style="stroke:#181818;stroke-width:0.5;" width="92.0264" x="2079" y="223"/><ellipse cx="2094" cy="239" fill="#ADD1B2" rx="11" ry="11" style="stroke:#181818;stroke-width:1;"/><path d="M2096.9688,244.6406 Q2096.3906,244.9375 2095.75,245.0781 Q2095.1094,245.2344 2094.4063,245.2344 Q2091.9063,245.2344 2090.5781,243.5938 Q2089.2656,241.9375 2089.2656,238.8125 Q2089.2656,235.6875 2090.5781,234.0313 Q2091.9063,232.375 2094.4063,232.375 Q2095.1094,232.375 2095.75,232.5313 Q2096.4063,232.6875 2096.9688,232.9844 L2096.9688,235.7031 Q2096.3438,235.125 2095.75,234.8594 Q2095.1563,234.5781 2094.5313,234.5781 Q2093.1875,234.5781 2092.5,235.6563 Q2091.8125,236.7188 2091.8125,238.8125 Q2091.8125,240.9063 2092.5,241.9844 Q2093.1875,243.0469 2094.5313,243.0469 Q2095.1563,243.0469 2095.75,242.7813 Q2096.3438,242.5 2096.9688,241.9219 L2096.9688,244.6406 Z " fill="#000000"/><text fill="#000000" font-family="sans-serif" font-size="14" lengthAdjust="spacing" textLength="60.0264" x="2108" y="243.8467">Actuator</text><line style="stroke:#181818;stroke-width:0.5;" x1="2080" x2="2170.0264" y1="255" y2="255"/><line style="stroke:#181818;stroke-width:0.5;" x1="2080" x2="2170.0264" y1="263" y2="263"/></g><!--class Execution--><g class="entity" data-qualified-name="Execution" data-source-line="13" id="ent0029"><rect fill="#F1F1F1" height="48" rx="2.5" ry="2.5" style="stroke:#181818;stroke-width:0.5;" width="101.1318" x="2334.5" y="7"/><ellipse cx="2349.5" cy="23" fill="#ADD1B2" rx="11" ry="11" style="stroke:#181818;stroke-width:1;"/><path d="M2352.4688,28.6406 Q2351.8906,28.9375 2351.25,29.0781 Q2350.6094,29.2344 2349.9063,29.2344 Q2347.4063,29.2344 2346.0781,27.5938 Q2344.7656,25.9375 2344.7656,22.8125 Q2344.7656,19.6875 2346.0781,18.0313 Q2347.4063,16.375 2349.9063,16.375 Q2350.6094,16.375 2351.25,16.5313 Q2351.9063,16.6875 2352.4688,16.9844 L2352.4688,19.7031 Q2351.8438,19.125 2351.25,18.8594 Q2350.6563,18.5781 2350.0313,18.5781 Q2348.6875,18.5781 2348,19.6563 Q2347.3125,20.7188 2347.3125,22.8125 Q2347.3125,24.9063 2348,25.9844 Q2348.6875,27.0469 2350.0313,27.0469 Q2350.6563,27.0469 2351.25,26.7813 Q2351.8438,26.5 2352.4688,25.9219 L2352.4688,28.6406 Z " fill="#000000"/><text fill="#000000" font-family="sans-serif" font-size="14" lengthAdjust="spacing" textLength="69.1318" x="2363.5" y="27.8467">Execution</text><line style="stroke:#181818;stroke-width:0.5;" x1="2335.5" x2="2434.6318" y1="39" y2="39"/><line style="stroke:#181818;stroke-width:0.5;" x1="2335.5" x2="2434.6318" y1="47" y2="47"/></g><!--class Sampling--><g class="entity" data-qualified-name="Sampling" data-source-line="13" id="ent0030"><rect fill="#F1F1F1" height="48" rx="2.5" ry="2.5" style="stroke:#181818;stroke-width:0.5;" width="97.5293" x="2202" y="115"/><ellipse cx="2217" cy="131" fill="#ADD1B2" rx="11" ry="11" style="stroke:#181818;stroke-width:1;"/><path d="M2219.9688,136.6406 Q2219.3906,136.9375 2218.75,137.0781 Q2218.1094,137.2344 2217.4063,137.2344 Q2214.9063,137.2344 2213.5781,135.5938 Q2212.2656,133.9375 2212.2656,130.8125 Q2212.2656,127.6875 2213.5781,126.0313 Q2214.9063,124.375 2217.4063,124.375 Q2218.1094,124.375 2218.75,124.5313 Q2219.4063,124.6875 2219.9688,124.9844 L2219.9688,127.7031 Q2219.3438,127.125 2218.75,126.8594 Q2218.1563,126.5781 2217.5313,126.5781 Q2216.1875,126.5781 2215.5,127.6563 Q2214.8125,128.7188 2214.8125,130.8125 Q2214.8125,132.9063 2215.5,133.9844 Q2216.1875,135.0469 2217.5313,135.0469 Q2218.1563,135.0469 2218.75,134.7813 Q2219.3438,134.5 2219.9688,133.9219 L2219.9688,136.6406 Z " fill="#000000"/><text fill="#000000" font-family="sans-serif" font-size="14" lengthAdjust="spacing" textLength="65.5293" x="2231" y="135.8467">Sampling</text><line style="stroke:#181818;stroke-width:0.5;" x1="2203" x2="2298.5293" y1="147" y2="147"/><line style="stroke:#181818;stroke-width:0.5;" x1="2203" x2="2298.5293" y1="155" y2="155"/></g><!--class ExecutionCollection--><g class="entity" data-qualified-name="ExecutionCollection" data-source-line="14" id="ent0032"><rect fill="#F1F1F1" height="48" rx="2.5" ry="2.5" style="stroke:#181818;stroke-width:0.5;" width="170.3799" x="2822" y="7"/><ellipse cx="2837" cy="23" fill="#ADD1B2" rx="11" ry="11" style="stroke:#181818;stroke-width:1;"/><path d="M2839.9688,28.6406 Q2839.3906,28.9375 2838.75,29.0781 Q2838.1094,29.2344 2837.4063,29.2344 Q2834.9063,29.2344 2833.5781,27.5938 Q2832.2656,25.9375 2832.2656,22.8125 Q2832.2656,19.6875 2833.5781,18.0313 Q2834.9063,16.375 2837.4063,16.375 Q2838.1094,16.375 2838.75,16.5313 Q2839.4063,16.6875 2839.9688,16.9844 L2839.9688,19.7031 Q2839.3438,19.125 2838.75,18.8594 Q2838.1563,18.5781 2837.5313,18.5781 Q2836.1875,18.5781 2835.5,19.6563 Q2834.8125,20.7188 2834.8125,22.8125 Q2834.8125,24.9063 2835.5,25.9844 Q2836.1875,27.0469 2837.5313,27.0469 Q2838.1563,27.0469 2838.75,26.7813 Q2839.3438,26.5 2839.9688,25.9219 L2839.9688,28.6406 Z " fill="#000000"/><text fill="#000000" font-family="sans-serif" font-size="14" lengthAdjust="spacing" textLength="138.3799" x="2851" y="27.8467">ExecutionCollection</text><line style="stroke:#181818;stroke-width:0.5;" x1="2823" x2="2991.3799" y1="39" y2="39"/><line style="stroke:#181818;stroke-width:0.5;" x1="2823" x2="2991.3799" y1="47" y2="47"/></g><!--class SamplingCollection--><g class="entity" data-qualified-name="SamplingCollection" data-source-line="14" id="ent0033"><rect fill="#F1F1F1" height="48" rx="2.5" ry="2.5" style="stroke:#181818;stroke-width:0.5;" width="166.7773" x="2621.5" y="115"/><ellipse cx="2636.5" cy="131" fill="#ADD1B2" rx="11" ry="11" style="stroke:#181818;stroke-width:1;"/><path d="M2639.4688,136.6406 Q2638.8906,136.9375 2638.25,137.0781 Q2637.6094,137.2344 2636.9063,137.2344 Q2634.4063,137.2344 2633.0781,135.5938 Q2631.7656,133.9375 2631.7656,130.8125 Q2631.7656,127.6875 2633.0781,126.0313 Q2634.4063,124.375 2636.9063,124.375 Q2637.6094,124.375 2638.25,124.5313 Q2638.9063,124.6875 2639.4688,124.9844 L2639.4688,127.7031 Q2638.8438,127.125 2638.25,126.8594 Q2637.6563,126.5781 2637.0313,126.5781 Q2635.6875,126.5781 2635,127.6563 Q2634.3125,128.7188 2634.3125,130.8125 Q2634.3125,132.9063 2635,133.9844 Q2635.6875,135.0469 2637.0313,135.0469 Q2637.6563,135.0469 2638.25,134.7813 Q2638.8438,134.5 2639.4688,133.9219 L2639.4688,136.6406 Z " fill="#000000"/><text fill="#000000" font-family="sans-serif" font-size="14" lengthAdjust="spacing" textLength="134.7773" x="2650.5" y="135.8467">SamplingCollection</text><line style="stroke:#181818;stroke-width:0.5;" x1="2622.5" x2="2787.2773" y1="147" y2="147"/><line style="stroke:#181818;stroke-width:0.5;" x1="2622.5" x2="2787.2773" y1="155" y2="155"/></g><!--class Actuation--><g class="entity" data-qualified-name="Actuation" data-source-line="15" id="ent0035"><rect fill="#F1F1F1" height="48" rx="2.5" ry="2.5" style="stroke:#181818;stroke-width:0.5;" width="99.0332" x="2335.5" y="115"/><ellipse cx="2350.5" cy="131" fill="#ADD1B2" rx="11" ry="11" style="stroke:#181818;stroke-width:1;"/><path d="M2353.4688,136.6406 Q2352.8906,136.9375 2352.25,137.0781 Q2351.6094,137.2344 2350.9063,137.2344 Q2348.4063,137.2344 2347.0781,135.5938 Q2345.7656,133.9375 2345.7656,130.8125 Q2345.7656,127.6875 2347.0781,126.0313 Q2348.4063,124.375 2350.9063,124.375 Q2351.6094,124.375 2352.25,124.5313 Q2352.9063,124.6875 2353.4688,124.9844 L2353.4688,127.7031 Q2352.8438,127.125 2352.25,126.8594 Q2351.6563,126.5781 2351.0313,126.5781 Q2349.6875,126.5781 2349,127.6563 Q2348.3125,128.7188 2348.3125,130.8125 Q2348.3125,132.9063 2349,133.9844 Q2349.6875,135.0469 2351.0313,135.0469 Q2351.6563,135.0469 2352.25,134.7813 Q2352.8438,134.5 2353.4688,133.9219 L2353.4688,136.6406 Z " fill="#000000"/><text fill="#000000" font-family="sans-serif" font-size="14" lengthAdjust="spacing" textLength="67.0332" x="2364.5" y="135.8467">Actuation</text><line style="stroke:#181818;stroke-width:0.5;" x1="2336.5" x2="2433.5332" y1="147" y2="147"/><line style="stroke:#181818;stroke-width:0.5;" x1="2336.5" x2="2433.5332" y1="155" y2="155"/></g><!--class Sensor--><g class="entity" data-qualified-name="Sensor" data-source-line="16" id="ent0037"><rect fill="#F1F1F1" height="48" rx="2.5" ry="2.5" style="stroke:#181818;stroke-width:0.5;" width="79.9883" x="2206" y="223"/><ellipse cx="2221" cy="239" fill="#ADD1B2" rx="11" ry="11" style="stroke:#181818;stroke-width:1;"/><path d="M2223.9688,244.6406 Q2223.3906,244.9375 2222.75,245.0781 Q2222.1094,245.2344 2221.4063,245.2344 Q2218.9063,245.2344 2217.5781,243.5938 Q2216.2656,241.9375 2216.2656,238.8125 Q2216.2656,235.6875 2217.5781,234.0313 Q2218.9063,232.375 2221.4063,232.375 Q2222.1094,232.375 2222.75,232.5313 Q2223.4063,232.6875 2223.9688,232.9844 L2223.9688,235.7031 Q2223.3438,235.125 2222.75,234.8594 Q2222.1563,234.5781 2221.5313,234.5781 Q2220.1875,234.5781 2219.5,235.6563 Q2218.8125,236.7188 2218.8125,238.8125 Q2218.8125,240.9063 2219.5,241.9844 Q2220.1875,243.0469 2221.5313,243.0469 Q2222.1563,243.0469 2222.75,242.7813 Q2223.3438,242.5 2223.9688,241.9219 L2223.9688,244.6406 Z " fill="#000000"/><text fill="#000000" font-family="sans-serif" font-size="14" lengthAdjust="spacing" textLength="47.9883" x="2235" y="243.8467">Sensor</text><line style="stroke:#181818;stroke-width:0.5;" x1="2207" x2="2284.9883" y1="255" y2="255"/><line style="stroke:#181818;stroke-width:0.5;" x1="2207" x2="2284.9883" y1="263" y2="263"/></g><!--class ActuationCollection--><g class="entity" data-qualified-name="ActuationCollection" data-source-line="17" id="ent0039"><rect fill="#F1F1F1" height="48" rx="2.5" ry="2.5" style="stroke:#181818;stroke-width:0.5;" width="168.2813" x="2823" y="115"/><ellipse cx="2838" cy="131" fill="#ADD1B2" rx="11" ry="11" style="stroke:#181818;stroke-width:1;"/><path d="M2840.9688,136.6406 Q2840.3906,136.9375 2839.75,137.0781 Q2839.1094,137.2344 2838.4063,137.2344 Q2835.9063,137.2344 2834.5781,135.5938 Q2833.2656,133.9375 2833.2656,130.8125 Q2833.2656,127.6875 2834.5781,126.0313 Q2835.9063,124.375 2838.4063,124.375 Q2839.1094,124.375 2839.75,124.5313 Q2840.4063,124.6875 2840.9688,124.9844 L2840.9688,127.7031 Q2840.3438,127.125 2839.75,126.8594 Q2839.1563,126.5781 2838.5313,126.5781 Q2837.1875,126.5781 2836.5,127.6563 Q2835.8125,128.7188 2835.8125,130.8125 Q2835.8125,132.9063 2836.5,133.9844 Q2837.1875,135.0469 2838.5313,135.0469 Q2839.1563,135.0469 2839.75,134.7813 Q2840.3438,134.5 2840.9688,133.9219 L2840.9688,136.6406 Z " fill="#000000"/><text fill="#000000" font-family="sans-serif" font-size="14" lengthAdjust="spacing" textLength="136.2813" x="2852" y="135.8467">ActuationCollection</text><line style="stroke:#181818;stroke-width:0.5;" x1="2824" x2="2990.2813" y1="147" y2="147"/><line style="stroke:#181818;stroke-width:0.5;" x1="2824" x2="2990.2813" y1="155" y2="155"/></g><!--class ObservationCollection--><g class="entity" data-qualified-name="ObservationCollection" data-source-line="18" id="ent0041"><rect fill="#F1F1F1" height="48" rx="2.5" ry="2.5" style="stroke:#181818;stroke-width:0.5;" width="186.499" x="3026" y="115"/><ellipse cx="3041" cy="131" fill="#ADD1B2" rx="11" ry="11" style="stroke:#181818;stroke-width:1;"/><path d="M3043.9688,136.6406 Q3043.3906,136.9375 3042.75,137.0781 Q3042.1094,137.2344 3041.4063,137.2344 Q3038.9063,137.2344 3037.5781,135.5938 Q3036.2656,133.9375 3036.2656,130.8125 Q3036.2656,127.6875 3037.5781,126.0313 Q3038.9063,124.375 3041.4063,124.375 Q3042.1094,124.375 3042.75,124.5313 Q3043.4063,124.6875 3043.9688,124.9844 L3043.9688,127.7031 Q3043.3438,127.125 3042.75,126.8594 Q3042.1563,126.5781 3041.5313,126.5781 Q3040.1875,126.5781 3039.5,127.6563 Q3038.8125,128.7188 3038.8125,130.8125 Q3038.8125,132.9063 3039.5,133.9844 Q3040.1875,135.0469 3041.5313,135.0469 Q3042.1563,135.0469 3042.75,134.7813 Q3043.3438,134.5 3043.9688,133.9219 L3043.9688,136.6406 Z " fill="#000000"/><text fill="#000000" font-family="sans-serif" font-size="14" lengthAdjust="spacing" textLength="154.499" x="3055" y="135.8467">ObservationCollection</text><line style="stroke:#181818;stroke-width:0.5;" x1="3027" x2="3211.499" y1="147" y2="147"/><line style="stroke:#181818;stroke-width:0.5;" x1="3027" x2="3211.499" y1="155" y2="155"/></g><!--class Observation--><g class="entity" data-qualified-name="Observation" data-source-line="19" id="ent0043"><rect fill="#F1F1F1" height="48" rx="2.5" ry="2.5" style="stroke:#181818;stroke-width:0.5;" width="117.251" x="2469.5" y="115"/><ellipse cx="2484.5" cy="131" fill="#ADD1B2" rx="11" ry="11" style="stroke:#181818;stroke-width:1;"/><path d="M2487.4688,136.6406 Q2486.8906,136.9375 2486.25,137.0781 Q2485.6094,137.2344 2484.9063,137.2344 Q2482.4063,137.2344 2481.0781,135.5938 Q2479.7656,133.9375 2479.7656,130.8125 Q2479.7656,127.6875 2481.0781,126.0313 Q2482.4063,124.375 2484.9063,124.375 Q2485.6094,124.375 2486.25,124.5313 Q2486.9063,124.6875 2487.4688,124.9844 L2487.4688,127.7031 Q2486.8438,127.125 2486.25,126.8594 Q2485.6563,126.5781 2485.0313,126.5781 Q2483.6875,126.5781 2483,127.6563 Q2482.3125,128.7188 2482.3125,130.8125 Q2482.3125,132.9063 2483,133.9844 Q2483.6875,135.0469 2485.0313,135.0469 Q2485.6563,135.0469 2486.25,134.7813 Q2486.8438,134.5 2487.4688,133.9219 L2487.4688,136.6406 Z " fill="#000000"/><text fill="#000000" font-family="sans-serif" font-size="14" lengthAdjust="spacing" textLength="85.251" x="2498.5" y="135.8467">Observation</text><line style="stroke:#181818;stroke-width:0.5;" x1="2470.5" x2="2585.751" y1="147" y2="147"/><line style="stroke:#181818;stroke-width:0.5;" x1="2470.5" x2="2585.751" y1="155" y2="155"/></g><!--class Deployment--><g class="entity" data-qualified-name="Deployment" data-source-line="20" id="ent0045"><rect fill="#F1F1F1" height="48" rx="2.5" ry="2.5" style="stroke:#181818;stroke-width:0.5;" width="117.6338" x="26" y="7"/><ellipse cx="41" cy="23" fill="#ADD1B2" rx="11" ry="11" style="stroke:#181818;stroke-width:1;"/><path d="M43.9688,28.6406 Q43.3906,28.9375 42.75,29.0781 Q42.1094,29.2344 41.4063,29.2344 Q38.9063,29.2344 37.5781,27.5938 Q36.2656,25.9375 36.2656,22.8125 Q36.2656,19.6875 37.5781,18.0313 Q38.9063,16.375 41.4063,16.375 Q42.1094,16.375 42.75,16.5313 Q43.4063,16.6875 43.9688,16.9844 L43.9688,19.7031 Q43.3438,19.125 42.75,18.8594 Q42.1563,18.5781 41.5313,18.5781 Q40.1875,18.5781 39.5,19.6563 Q38.8125,20.7188 38.8125,22.8125 Q38.8125,24.9063 39.5,25.9844 Q40.1875,27.0469 41.5313,27.0469 Q42.1563,27.0469 42.75,26.7813 Q43.3438,26.5 43.9688,25.9219 L43.9688,28.6406 Z " fill="#000000"/><text fill="#000000" font-family="sans-serif" font-size="14" lengthAdjust="spacing" textLength="85.6338" x="55" y="27.8467">Deployment</text><line style="stroke:#181818;stroke-width:0.5;" x1="27" x2="142.6338" y1="39" y2="39"/><line style="stroke:#181818;stroke-width:0.5;" x1="27" x2="142.6338" y1="47" y2="47"/></g><!--class SampleCollection--><g class="entity" data-qualified-name="SampleCollection" data-source-line="21" id="ent0046"><rect fill="#F1F1F1" height="48" rx="2.5" ry="2.5" style="stroke:#181818;stroke-width:0.5;" width="153.7412" x="179" y="7"/><ellipse cx="194" cy="23" fill="#ADD1B2" rx="11" ry="11" style="stroke:#181818;stroke-width:1;"/><path d="M196.9688,28.6406 Q196.3906,28.9375 195.75,29.0781 Q195.1094,29.2344 194.4063,29.2344 Q191.9063,29.2344 190.5781,27.5938 Q189.2656,25.9375 189.2656,22.8125 Q189.2656,19.6875 190.5781,18.0313 Q191.9063,16.375 194.4063,16.375 Q195.1094,16.375 195.75,16.5313 Q196.4063,16.6875 196.9688,16.9844 L196.9688,19.7031 Q196.3438,19.125 195.75,18.8594 Q195.1563,18.5781 194.5313,18.5781 Q193.1875,18.5781 192.5,19.6563 Q191.8125,20.7188 191.8125,22.8125 Q191.8125,24.9063 192.5,25.9844 Q193.1875,27.0469 194.5313,27.0469 Q195.1563,27.0469 195.75,26.7813 Q196.3438,26.5 196.9688,25.9219 L196.9688,28.6406 Z " fill="#000000"/><text fill="#000000" font-family="sans-serif" font-size="14" lengthAdjust="spacing" textLength="121.7412" x="208" y="27.8467">SampleCollection</text><line style="stroke:#181818;stroke-width:0.5;" x1="180" x2="331.7412" y1="39" y2="39"/><line style="stroke:#181818;stroke-width:0.5;" x1="180" x2="331.7412" y1="47" y2="47"/></g><!--class Result--><g class="entity" data-qualified-name="Result" data-source-line="22" id="ent0047"><rect fill="#F1F1F1" height="48" rx="2.5" ry="2.5" style="stroke:#181818;stroke-width:0.5;" width="75.8867" x="368" y="7"/><ellipse cx="383" cy="23" fill="#ADD1B2" rx="11" ry="11" style="stroke:#181818;stroke-width:1;"/><path d="M385.9688,28.6406 Q385.3906,28.9375 384.75,29.0781 Q384.1094,29.2344 383.4063,29.2344 Q380.9063,29.2344 379.5781,27.5938 Q378.2656,25.9375 378.2656,22.8125 Q378.2656,19.6875 379.5781,18.0313 Q380.9063,16.375 383.4063,16.375 Q384.1094,16.375 384.75,16.5313 Q385.4063,16.6875 385.9688,16.9844 L385.9688,19.7031 Q385.3438,19.125 384.75,18.8594 Q384.1563,18.5781 383.5313,18.5781 Q382.1875,18.5781 381.5,19.6563 Q380.8125,20.7188 380.8125,22.8125 Q380.8125,24.9063 381.5,25.9844 Q382.1875,27.0469 383.5313,27.0469 Q384.1563,27.0469 384.75,26.7813 Q385.3438,26.5 385.9688,25.9219 L385.9688,28.6406 Z " fill="#000000"/><text fill="#000000" font-family="sans-serif" font-size="14" lengthAdjust="spacing" textLength="43.8867" x="397" y="27.8467">Result</text><line style="stroke:#181818;stroke-width:0.5;" x1="369" x2="442.8867" y1="39" y2="39"/><line style="stroke:#181818;stroke-width:0.5;" x1="369" x2="442.8867" y1="47" y2="47"/></g><!--class Output--><g class="entity" data-qualified-name="Output" data-source-line="23" id="ent0048"><rect fill="#F1F1F1" height="48" rx="2.5" ry="2.5" style="stroke:#181818;stroke-width:0.5;" width="80.6309" x="44.5" y="115"/><ellipse cx="59.5" cy="131" fill="#ADD1B2" rx="11" ry="11" style="stroke:#181818;stroke-width:1;"/><path d="M62.4688,136.6406 Q61.8906,136.9375 61.25,137.0781 Q60.6094,137.2344 59.9063,137.2344 Q57.4063,137.2344 56.0781,135.5938 Q54.7656,133.9375 54.7656,130.8125 Q54.7656,127.6875 56.0781,126.0313 Q57.4063,124.375 59.9063,124.375 Q60.6094,124.375 61.25,124.5313 Q61.9063,124.6875 62.4688,124.9844 L62.4688,127.7031 Q61.8438,127.125 61.25,126.8594 Q60.6563,126.5781 60.0313,126.5781 Q58.6875,126.5781 58,127.6563 Q57.3125,128.7188 57.3125,130.8125 Q57.3125,132.9063 58,133.9844 Q58.6875,135.0469 60.0313,135.0469 Q60.6563,135.0469 61.25,134.7813 Q61.8438,134.5 62.4688,133.9219 L62.4688,136.6406 Z " fill="#000000"/><text fill="#000000" font-family="sans-serif" font-size="14" lengthAdjust="spacing" textLength="48.6309" x="73.5" y="135.8467">Output</text><line style="stroke:#181818;stroke-width:0.5;" x1="45.5" x2="124.1309" y1="147" y2="147"/><line style="stroke:#181818;stroke-width:0.5;" x1="45.5" x2="124.1309" y1="155" y2="155"/></g><!--class Stimulus--><g class="entity" data-qualified-name="Stimulus" data-source-line="24" id="ent0049"><rect fill="#F1F1F1" height="48" rx="2.5" ry="2.5" style="stroke:#181818;stroke-width:0.5;" width="92.833" x="160.5" y="115"/><ellipse cx="175.5" cy="131" fill="#ADD1B2" rx="11" ry="11" style="stroke:#181818;stroke-width:1;"/><path d="M178.4688,136.6406 Q177.8906,136.9375 177.25,137.0781 Q176.6094,137.2344 175.9063,137.2344 Q173.4063,137.2344 172.0781,135.5938 Q170.7656,133.9375 170.7656,130.8125 Q170.7656,127.6875 172.0781,126.0313 Q173.4063,124.375 175.9063,124.375 Q176.6094,124.375 177.25,124.5313 Q177.9063,124.6875 178.4688,124.9844 L178.4688,127.7031 Q177.8438,127.125 177.25,126.8594 Q176.6563,126.5781 176.0313,126.5781 Q174.6875,126.5781 174,127.6563 Q173.3125,128.7188 173.3125,130.8125 Q173.3125,132.9063 174,133.9844 Q174.6875,135.0469 176.0313,135.0469 Q176.6563,135.0469 177.25,134.7813 Q177.8438,134.5 178.4688,133.9219 L178.4688,136.6406 Z " fill="#000000"/><text fill="#000000" font-family="sans-serif" font-size="14" lengthAdjust="spacing" textLength="60.833" x="189.5" y="135.8467">Stimulus</text><line style="stroke:#181818;stroke-width:0.5;" x1="161.5" x2="252.333" y1="147" y2="147"/><line style="stroke:#181818;stroke-width:0.5;" x1="161.5" x2="252.333" y1="155" y2="155"/></g><!--class Input--><g class="entity" data-qualified-name="Input" data-source-line="28" id="ent0050"><rect fill="#F1F1F1" height="48" rx="2.5" ry="2.5" style="stroke:#181818;stroke-width:0.5;" width="68.251" x="289" y="115"/><ellipse cx="304" cy="131" fill="#ADD1B2" rx="11" ry="11" style="stroke:#181818;stroke-width:1;"/><path d="M306.9688,136.6406 Q306.3906,136.9375 305.75,137.0781 Q305.1094,137.2344 304.4063,137.2344 Q301.9063,137.2344 300.5781,135.5938 Q299.2656,133.9375 299.2656,130.8125 Q299.2656,127.6875 300.5781,126.0313 Q301.9063,124.375 304.4063,124.375 Q305.1094,124.375 305.75,124.5313 Q306.4063,124.6875 306.9688,124.9844 L306.9688,127.7031 Q306.3438,127.125 305.75,126.8594 Q305.1563,126.5781 304.5313,126.5781 Q303.1875,126.5781 302.5,127.6563 Q301.8125,128.7188 301.8125,130.8125 Q301.8125,132.9063 302.5,133.9844 Q303.1875,135.0469 304.5313,135.0469 Q305.1563,135.0469 305.75,134.7813 Q306.3438,134.5 306.9688,133.9219 L306.9688,136.6406 Z " fill="#000000"/><text fill="#000000" font-family="sans-serif" font-size="14" lengthAdjust="spacing" textLength="36.251" x="318" y="135.8467">Input</text><line style="stroke:#181818;stroke-width:0.5;" x1="290" x2="356.251" y1="147" y2="147"/><line style="stroke:#181818;stroke-width:0.5;" x1="290" x2="356.251" y1="155" y2="155"/></g><!--class FeatureOfInterest--><g class="entity" data-qualified-name="FeatureOfInterest" data-source-line="30" id="ent0051"><rect fill="#F1F1F1" height="48" rx="2.5" ry="2.5" style="stroke:#181818;stroke-width:0.5;" width="156.1816" x="7" y="223"/><ellipse cx="22" cy="239" fill="#ADD1B2" rx="11" ry="11" style="stroke:#181818;stroke-width:1;"/><path d="M24.9688,244.6406 Q24.3906,244.9375 23.75,245.0781 Q23.1094,245.2344 22.4063,245.2344 Q19.9063,245.2344 18.5781,243.5938 Q17.2656,241.9375 17.2656,238.8125 Q17.2656,235.6875 18.5781,234.0313 Q19.9063,232.375 22.4063,232.375 Q23.1094,232.375 23.75,232.5313 Q24.4063,232.6875 24.9688,232.9844 L24.9688,235.7031 Q24.3438,235.125 23.75,234.8594 Q23.1563,234.5781 22.5313,234.5781 Q21.1875,234.5781 20.5,235.6563 Q19.8125,236.7188 19.8125,238.8125 Q19.8125,240.9063 20.5,241.9844 Q21.1875,243.0469 22.5313,243.0469 Q23.1563,243.0469 23.75,242.7813 Q24.3438,242.5 24.9688,241.9219 L24.9688,244.6406 Z " fill="#000000"/><text fill="#000000" font-family="sans-serif" font-size="14" lengthAdjust="spacing" textLength="124.1816" x="36" y="243.8467">FeatureOfInterest</text><line style="stroke:#181818;stroke-width:0.5;" x1="8" x2="162.1816" y1="255" y2="255"/><line style="stroke:#181818;stroke-width:0.5;" x1="8" x2="162.1816" y1="263" y2="263"/></g><!--reverse link Property to ActuatableProperty--><g class="link" data-entity-1="ent0001" data-entity-2="ent0002" data-link-type="extension" data-source-line="1" id="lnk3"><path codeLine="1" d="M561.6233,66.5368 C540.4733,84.1968 525.19,96.94 503.94,114.68" fill="none" id="Property-backto-ActuatableProperty" style="stroke:#181818;stroke-width:1;"/><polygon fill="none" points="575.44,55,557.7777,61.9312,565.4689,71.1424,575.44,55" style="stroke:#181818;stroke-width:1;stroke-linejoin:miter;stroke-miterlimit:10;"/></g><!--reverse link Sample to MaterialSample--><g class="link" data-entity-1="ent0004" data-entity-2="ent0005" data-link-type="extension" data-source-line="2" id="lnk6"><path codeLine="2" d="M992.3567,64.4445 C963.6067,82.1645 939.35,97.11 910.55,114.86" fill="none" id="Sample-backto-MaterialSample" style="stroke:#181818;stroke-width:1;"/><polygon fill="none" points="1007.68,55,989.2086,59.3367,995.5049,69.5522,1007.68,55" style="stroke:#181818;stroke-width:1;stroke-linejoin:miter;stroke-miterlimit:10;"/></g><!--reverse link Sample to SpatialSample--><g class="link" data-entity-1="ent0004" data-entity-2="ent0007" data-link-type="extension" data-source-line="3" id="lnk8"><path codeLine="3" d="M1045,73 C1045,90.66 1045,96.94 1045,114.68" fill="none" id="Sample-backto-SpatialSample" style="stroke:#181818;stroke-width:1;"/><polygon fill="none" points="1045,55,1039,73,1051,73,1045,55" style="stroke:#181818;stroke-width:1;stroke-linejoin:miter;stroke-miterlimit:10;"/></g><!--reverse link Sample to StatisticalSample--><g class="link" data-entity-1="ent0004" data-entity-2="ent0009" data-link-type="extension" data-source-line="4" id="lnk10"><path codeLine="4" d="M1099.3276,64.1725 C1129.2476,81.8925 1154.95,97.11 1184.93,114.86" fill="none" id="Sample-backto-StatisticalSample" style="stroke:#181818;stroke-width:1;"/><polygon fill="none" points="1083.84,55,1096.2701,69.335,1102.3851,59.0099,1083.84,55" style="stroke:#181818;stroke-width:1;stroke-linejoin:miter;stroke-miterlimit:10;"/></g><!--reverse link Property to ObservableProperty--><g class="link" data-entity-1="ent0001" data-entity-2="ent0011" data-link-type="extension" data-source-line="5" id="lnk12"><path codeLine="5" d="M630.5909,69.496 C643.5909,87.156 650.79,96.94 663.84,114.68" fill="none" id="Property-backto-ObservableProperty" style="stroke:#181818;stroke-width:1;"/><polygon fill="none" points="619.92,55,625.7589,73.0529,635.4228,65.939,619.92,55" style="stroke:#181818;stroke-width:1;stroke-linejoin:miter;stroke-miterlimit:10;"/></g><!--reverse link Procedure to ActuatingProcedure--><g class="link" data-entity-1="ent0013" data-entity-2="ent0014" data-link-type="extension" data-source-line="6" id="lnk15"><path codeLine="6" d="M1568.8326,63.1732 C1534.0626,80.8932 1502.24,97.11 1467.4,114.86" fill="none" id="Procedure-backto-ActuatingProcedure" style="stroke:#181818;stroke-width:1;"/><polygon fill="none" points="1584.87,55,1566.1082,57.8274,1571.557,68.519,1584.87,55" style="stroke:#181818;stroke-width:1;stroke-linejoin:miter;stroke-miterlimit:10;"/></g><!--reverse link Procedure to ObservingProcedure--><g class="link" data-entity-1="ent0013" data-entity-2="ent0016" data-link-type="extension" data-source-line="7" id="lnk17"><path codeLine="7" d="M1630,73 C1630,90.66 1630,96.94 1630,114.68" fill="none" id="Procedure-backto-ObservingProcedure" style="stroke:#181818;stroke-width:1;"/><polygon fill="none" points="1630,55,1624,73,1636,73,1630,55" style="stroke:#181818;stroke-width:1;stroke-linejoin:miter;stroke-miterlimit:10;"/></g><!--reverse link Procedure to SamplingProcedure--><g class="link" data-entity-1="ent0013" data-entity-2="ent0018" data-link-type="extension" data-source-line="8" id="lnk19"><path codeLine="8" d="M1690.9411,63.205 C1725.5411,80.925 1757.15,97.11 1791.81,114.86" fill="none" id="Procedure-backto-SamplingProcedure" style="stroke:#181818;stroke-width:1;"/><polygon fill="none" points="1674.92,55,1688.2061,68.5454,1693.6762,57.8647,1674.92,55" style="stroke:#181818;stroke-width:1;stroke-linejoin:miter;stroke-miterlimit:10;"/></g><!--reverse link Asset to Platform--><g class="link" data-entity-1="ent0020" data-entity-2="ent0021" data-link-type="extension" data-source-line="9" id="lnk22"><path codeLine="9" d="M2040.7839,70.6022 C2030.6239,88.2622 2025.63,96.94 2015.42,114.68" fill="none" id="Asset-backto-Platform" style="stroke:#181818;stroke-width:1;"/><polygon fill="none" points="2049.76,55,2035.5831,67.6102,2045.9846,73.5943,2049.76,55" style="stroke:#181818;stroke-width:1;stroke-linejoin:miter;stroke-miterlimit:10;"/></g><!--reverse link System to Sampler--><g class="link" data-entity-1="ent0023" data-entity-2="ent0024" data-link-type="extension" data-source-line="10" id="lnk25"><path codeLine="10" d="M2083.8865,174.5884 C2062.8965,192.2484 2047.81,204.94 2026.72,222.68" fill="none" id="System-backto-Sampler" style="stroke:#181818;stroke-width:1;"/><polygon fill="none" points="2097.66,163,2080.0237,169.9972,2087.7493,179.1795,2097.66,163" style="stroke:#181818;stroke-width:1;stroke-linejoin:miter;stroke-miterlimit:10;"/></g><!--reverse link System to Actuator--><g class="link" data-entity-1="ent0023" data-entity-2="ent0026" data-link-type="extension" data-source-line="11" id="lnk27"><path codeLine="11" d="M2125,181 C2125,198.66 2125,204.94 2125,222.68" fill="none" id="System-backto-Actuator" style="stroke:#181818;stroke-width:1;"/><polygon fill="none" points="2125,163,2119,181,2131,181,2125,163" style="stroke:#181818;stroke-width:1;stroke-linejoin:miter;stroke-miterlimit:10;"/></g><!--reverse link Asset to System--><g class="link" data-entity-1="ent0020" data-entity-2="ent0023" data-link-type="extension" data-source-line="12" id="lnk28"><path codeLine="12" d="M2085.5383,70.5372 C2095.8683,88.1972 2100.98,96.94 2111.36,114.68" fill="none" id="Asset-backto-System" style="stroke:#181818;stroke-width:1;"/><polygon fill="none" points="2076.45,55,2080.3592,73.5666,2090.7173,67.5077,2076.45,55" style="stroke:#181818;stroke-width:1;stroke-linejoin:miter;stroke-miterlimit:10;"/></g><!--reverse link Execution to Sampling--><g class="link" data-entity-1="ent0029" data-entity-2="ent0030" data-link-type="extension" data-source-line="13" id="lnk31"><path codeLine="13" d="M2341.8041,66.1688 C2319.4841,83.8288 2302.91,96.94 2280.48,114.68" fill="none" id="Execution-backto-Sampling" style="stroke:#181818;stroke-width:1;"/><polygon fill="none" points="2355.92,55,2338.0812,61.4635,2345.527,70.8741,2355.92,55" style="stroke:#181818;stroke-width:1;stroke-linejoin:miter;stroke-miterlimit:10;"/></g><!--reverse link ExecutionCollection to SamplingCollection--><g class="link" data-entity-1="ent0032" data-entity-2="ent0033" data-link-type="extension" data-source-line="14" id="lnk34"><path codeLine="14" d="M2847.231,63.3636 C2813.461,81.0836 2782.93,97.11 2749.09,114.86" fill="none" id="ExecutionCollection-backto-SamplingCollection" style="stroke:#181818;stroke-width:1;"/><polygon fill="none" points="2863.17,55,2844.4432,58.0506,2850.0189,68.6766,2863.17,55" style="stroke:#181818;stroke-width:1;stroke-linejoin:miter;stroke-miterlimit:10;"/></g><!--reverse link Execution to Actuation--><g class="link" data-entity-1="ent0029" data-entity-2="ent0035" data-link-type="extension" data-source-line="15" id="lnk36"><path codeLine="15" d="M2385,73 C2385,90.66 2385,96.94 2385,114.68" fill="none" id="Execution-backto-Actuation" style="stroke:#181818;stroke-width:1;"/><polygon fill="none" points="2385,55,2379,73,2391,73,2385,55" style="stroke:#181818;stroke-width:1;stroke-linejoin:miter;stroke-miterlimit:10;"/></g><!--reverse link System to Sensor--><g class="link" data-entity-1="ent0023" data-entity-2="ent0037" data-link-type="extension" data-source-line="16" id="lnk38"><path codeLine="16" d="M2164.7968,174.864 C2184.9468,192.524 2199.13,204.94 2219.38,222.68" fill="none" id="System-backto-Sensor" style="stroke:#181818;stroke-width:1;"/><polygon fill="none" points="2151.26,163,2160.8421,179.3763,2168.7515,170.3518,2151.26,163" style="stroke:#181818;stroke-width:1;stroke-linejoin:miter;stroke-miterlimit:10;"/></g><!--reverse link ExecutionCollection to ActuationCollection--><g class="link" data-entity-1="ent0032" data-entity-2="ent0039" data-link-type="extension" data-source-line="17" id="lnk40"><path codeLine="17" d="M2907,73 C2907,90.66 2907,96.94 2907,114.68" fill="none" id="ExecutionCollection-backto-ActuationCollection" style="stroke:#181818;stroke-width:1;"/><polygon fill="none" points="2907,55,2901,73,2913,73,2907,55" style="stroke:#181818;stroke-width:1;stroke-linejoin:miter;stroke-miterlimit:10;"/></g><!--reverse link ExecutionCollection to ObservationCollection--><g class="link" data-entity-1="ent0032" data-entity-2="ent0041" data-link-type="extension" data-source-line="18" id="lnk42"><path codeLine="18" d="M2969.0997,63.0498 C3004.5397,80.7698 3037.22,97.11 3072.72,114.86" fill="none" id="ExecutionCollection-backto-ObservationCollection" style="stroke:#181818;stroke-width:1;"/><polygon fill="none" points="2953,55,2966.4164,68.4164,2971.783,57.6833,2953,55" style="stroke:#181818;stroke-width:1;stroke-linejoin:miter;stroke-miterlimit:10;"/></g><!--reverse link Execution to Observation--><g class="link" data-entity-1="ent0029" data-entity-2="ent0043" data-link-type="extension" data-source-line="19" id="lnk44"><path codeLine="19" d="M2430.4895,65.7202 C2454.3095,83.3802 2472.61,96.94 2496.54,114.68" fill="none" id="Execution-backto-Observation" style="stroke:#181818;stroke-width:1;"/><polygon fill="none" points="2416.03,55,2426.9161,70.54,2434.0629,60.9004,2416.03,55" style="stroke:#181818;stroke-width:1;stroke-linejoin:miter;stroke-miterlimit:10;"/></g><?plantuml-src VL99RiCm3Bpx5Vv0Vj1Bq0N8eR1Hlq1HcK80jK2aYXheuoE4hYBPSM_Yp726eZH67o3ot3_z7WxzKNDIhCu8uu9tax81GUXtnH2DGi4QQWgATnZE3B7HXHsRpE5C4B-Rp7pGy9aYr5CPzrNmjK8y_bFSeXl1aGXOo14LNtoqtJGJWwqw83QOJE9ZtInyz_e3Eh7nhisxuyyU4VHMSSVN7ikzCz7C1Oxo1Bk-fUkHyLgyB7zFlX5r6XLH_m81_Mp1yGB8iYeBWJ-04lvfXiGXbGOsDc6Yn-N6ltmDAK-kSfBzI_46YlFZ3fUJoryLYAy0?></g></svg>