<svg xmlns="http://www.w3.org/2000/svg" xmlns:xlink="http://www.w3.org/1999/xlink" contentStyleType="text/css" data-diagram-type="CLASS" height="286px" preserveAspectRatio="none" style="width:3151px;height:286px;background:#FFFFFF;" version="1.1" viewBox="0 0 3151 286" width="3151px" zoomAndPan="magnify"><?plantuml 1.2026.4?><defs/><g><!--class Property--><g class="entity" data-qualified-name="Property" data-source-line="1" id="ent0001"><rect fill="#F1F1F1" height="48" rx="2.5" ry="2.5" style="stroke:#181818;stroke-width:0.5;" width="91.7939" x="519.5" y="7"/><ellipse cx="534.5" cy="23" fill="#ADD1B2" rx="11" ry="11" style="stroke:#181818;stroke-width:1;"/><path d="M537.4688,28.6406 Q536.8906,28.9375 536.25,29.0781 Q535.6094,29.2344 534.9063,29.2344 Q532.4063,29.2344 531.0781,27.5938 Q529.7656,25.9375 529.7656,22.8125 Q529.7656,19.6875 531.0781,18.0313 Q532.4063,16.375 534.9063,16.375 Q535.6094,16.375 536.25,16.5313 Q536.9063,16.6875 537.4688,16.9844 L537.4688,19.7031 Q536.8438,19.125 536.25,18.8594 Q535.6563,18.5781 535.0313,18.5781 Q533.6875,18.5781 533,19.6563 Q532.3125,20.7188 532.3125,22.8125 Q532.3125,24.9063 533,25.9844 Q533.6875,27.0469 535.0313,27.0469 Q535.6563,27.0469 536.25,26.7813 Q536.8438,26.5 537.4688,25.9219 L537.4688,28.6406 Z " fill="#000000"/><text fill="#000000" font-family="sans-serif" font-size="14" lengthAdjust="spacing" textLength="59.7939" x="548.5" y="27.8467">Property</text><line style="stroke:#181818;stroke-width:0.5;" x1="520.5" x2="610.2939" y1="39" y2="39"/><line style="stroke:#181818;stroke-width:0.5;" x1="520.5" x2="610.2939" y1="47" y2="47"/></g><!--class ActuatableProperty--><g class="entity" data-qualified-name="ActuatableProperty" data-source-line="1" id="ent0002"><rect fill="#F1F1F1" height="48" rx="2.5" ry="2.5" style="stroke:#181818;stroke-width:0.5;" width="167.4678" x="316" y="115"/><ellipse cx="331" cy="131" fill="#ADD1B2" rx="11" ry="11" style="stroke:#181818;stroke-width:1;"/><path d="M333.9688,136.6406 Q333.3906,136.9375 332.75,137.0781 Q332.1094,137.2344 331.4063,137.2344 Q328.9063,137.2344 327.5781,135.5938 Q326.2656,133.9375 326.2656,130.8125 Q326.2656,127.6875 327.5781,126.0313 Q328.9063,124.375 331.4063,124.375 Q332.1094,124.375 332.75,124.5313 Q333.4063,124.6875 333.9688,124.9844 L333.9688,127.7031 Q333.3438,127.125 332.75,126.8594 Q332.1563,126.5781 331.5313,126.5781 Q330.1875,126.5781 329.5,127.6563 Q328.8125,128.7188 328.8125,130.8125 Q328.8125,132.9063 329.5,133.9844 Q330.1875,135.0469 331.5313,135.0469 Q332.1563,135.0469 332.75,134.7813 Q333.3438,134.5 333.9688,133.9219 L333.9688,136.6406 Z " fill="#000000"/><text fill="#000000" font-family="sans-serif" font-size="14" lengthAdjust="spacing" textLength="135.4678" x="345" y="135.8467">ActuatableProperty</text><line style="stroke:#181818;stroke-width:0.5;" x1="317" x2="482.4678" y1="147" y2="147"/><line style="stroke:#181818;stroke-width:0.5;" x1="317" x2="482.4678" y1="155" y2="155"/></g><!--class Sample--><g class="entity" data-qualified-name="Sample" data-source-line="2" id="ent0004"><rect fill="#F1F1F1" height="48" rx="2.5" ry="2.5" style="stroke:#181818;stroke-width:0.5;" width="84.4932" x="926.5" y="7"/><ellipse cx="941.5" cy="23" fill="#ADD1B2" rx="11" ry="11" style="stroke:#181818;stroke-width:1;"/><path d="M944.4688,28.6406 Q943.8906,28.9375 943.25,29.0781 Q942.6094,29.2344 941.9063,29.2344 Q939.4063,29.2344 938.0781,27.5938 Q936.7656,25.9375 936.7656,22.8125 Q936.7656,19.6875 938.0781,18.0313 Q939.4063,16.375 941.9063,16.375 Q942.6094,16.375 943.25,16.5313 Q943.9063,16.6875 944.4688,16.9844 L944.4688,19.7031 Q943.8438,19.125 943.25,18.8594 Q942.6563,18.5781 942.0313,18.5781 Q940.6875,18.5781 940,19.6563 Q939.3125,20.7188 939.3125,22.8125 Q939.3125,24.9063 940,25.9844 Q940.6875,27.0469 942.0313,27.0469 Q942.6563,27.0469 943.25,26.7813 Q943.8438,26.5 944.4688,25.9219 L944.4688,28.6406 Z " fill="#000000"/><text fill="#000000" font-family="sans-serif" font-size="14" lengthAdjust="spacing" textLength="52.4932" x="955.5" y="27.8467">Sample</text><line style="stroke:#181818;stroke-width:0.5;" x1="927.5" x2="1009.9932" y1="39" y2="39"/><line style="stroke:#181818;stroke-width:0.5;" x1="927.5" x2="1009.9932" y1="47" y2="47"/></g><!--class MaterialSample--><g class="entity" data-qualified-name="MaterialSample" data-source-line="2" id="ent0005"><rect fill="#F1F1F1" height="48" rx="2.5" ry="2.5" style="stroke:#181818;stroke-width:0.5;" width="141.3682" x="726" y="115"/><ellipse cx="741" cy="131" fill="#ADD1B2" rx="11" ry="11" style="stroke:#181818;stroke-width:1;"/><path d="M743.9688,136.6406 Q743.3906,136.9375 742.75,137.0781 Q742.1094,137.2344 741.4063,137.2344 Q738.9063,137.2344 737.5781,135.5938 Q736.2656,133.9375 736.2656,130.8125 Q736.2656,127.6875 737.5781,126.0313 Q738.9063,124.375 741.4063,124.375 Q742.1094,124.375 742.75,124.5313 Q743.4063,124.6875 743.9688,124.9844 L743.9688,127.7031 Q743.3438,127.125 742.75,126.8594 Q742.1563,126.5781 741.5313,126.5781 Q740.1875,126.5781 739.5,127.6563 Q738.8125,128.7188 738.8125,130.8125 Q738.8125,132.9063 739.5,133.9844 Q740.1875,135.0469 741.5313,135.0469 Q742.1563,135.0469 742.75,134.7813 Q743.3438,134.5 743.9688,133.9219 L743.9688,136.6406 Z " fill="#000000"/><text fill="#000000" font-family="sans-serif" font-size="14" lengthAdjust="spacing" textLength="109.3682" x="755" y="135.8467">MaterialSample</text><line style="stroke:#181818;stroke-width:0.5;" x1="727" x2="866.3682" y1="147" y2="147"/><line style="stroke:#181818;stroke-width:0.5;" x1="727" x2="866.3682" y1="155" y2="155"/></g><!--class ObservableProperty--><g class="entity" data-qualified-name="ObservableProperty" data-source-line="3" id="ent0007"><rect fill="#F1F1F1" height="48" rx="2.5" ry="2.5" style="stroke:#181818;stroke-width:0.5;" width="171.6172" x="518.5" y="115"/><ellipse cx="533.5" cy="131" fill="#ADD1B2" rx="11" ry="11" style="stroke:#181818;stroke-width:1;"/><path d="M536.4688,136.6406 Q535.8906,136.9375 535.25,137.0781 Q534.6094,137.2344 533.9063,137.2344 Q531.4063,137.2344 530.0781,135.5938 Q528.7656,133.9375 528.7656,130.8125 Q528.7656,127.6875 530.0781,126.0313 Q531.4063,124.375 533.9063,124.375 Q534.6094,124.375 535.25,124.5313 Q535.9063,124.6875 536.4688,124.9844 L536.4688,127.7031 Q535.8438,127.125 535.25,126.8594 Q534.6563,126.5781 534.0313,126.5781 Q532.6875,126.5781 532,127.6563 Q531.3125,128.7188 531.3125,130.8125 Q531.3125,132.9063 532,133.9844 Q532.6875,135.0469 534.0313,135.0469 Q534.6563,135.0469 535.25,134.7813 Q535.8438,134.5 536.4688,133.9219 L536.4688,136.6406 Z " fill="#000000"/><text fill="#000000" font-family="sans-serif" font-size="14" lengthAdjust="spacing" textLength="139.6172" x="547.5" y="135.8467">ObservableProperty</text><line style="stroke:#181818;stroke-width:0.5;" x1="519.5" x2="689.1172" y1="147" y2="147"/><line style="stroke:#181818;stroke-width:0.5;" x1="519.5" x2="689.1172" y1="155" y2="155"/></g><!--class SpatialSample--><g class="entity" data-qualified-name="SpatialSample" data-source-line="4" id="ent0009"><rect fill="#F1F1F1" height="48" rx="2.5" ry="2.5" style="stroke:#181818;stroke-width:0.5;" width="132.6934" x="902" y="115"/><ellipse cx="917" cy="131" fill="#ADD1B2" rx="11" ry="11" style="stroke:#181818;stroke-width:1;"/><path d="M919.9688,136.6406 Q919.3906,136.9375 918.75,137.0781 Q918.1094,137.2344 917.4063,137.2344 Q914.9063,137.2344 913.5781,135.5938 Q912.2656,133.9375 912.2656,130.8125 Q912.2656,127.6875 913.5781,126.0313 Q914.9063,124.375 917.4063,124.375 Q918.1094,124.375 918.75,124.5313 Q919.4063,124.6875 919.9688,124.9844 L919.9688,127.7031 Q919.3438,127.125 918.75,126.8594 Q918.1563,126.5781 917.5313,126.5781 Q916.1875,126.5781 915.5,127.6563 Q914.8125,128.7188 914.8125,130.8125 Q914.8125,132.9063 915.5,133.9844 Q916.1875,135.0469 917.5313,135.0469 Q918.1563,135.0469 918.75,134.7813 Q919.3438,134.5 919.9688,133.9219 L919.9688,136.6406 Z " fill="#000000"/><text fill="#000000" font-family="sans-serif" font-size="14" lengthAdjust="spacing" textLength="100.6934" x="931" y="135.8467">SpatialSample</text><line style="stroke:#181818;stroke-width:0.5;" x1="903" x2="1033.6934" y1="147" y2="147"/><line style="stroke:#181818;stroke-width:0.5;" x1="903" x2="1033.6934" y1="155" y2="155"/></g><!--class StatisticalSample--><g class="entity" data-qualified-name="StatisticalSample" data-source-line="5" id="ent0011"><rect fill="#F1F1F1" height="48" rx="2.5" ry="2.5" style="stroke:#181818;stroke-width:0.5;" width="153.666" x="1070.5" y="115"/><ellipse cx="1085.5" cy="131" fill="#ADD1B2" rx="11" ry="11" style="stroke:#181818;stroke-width:1;"/><path d="M1088.4688,136.6406 Q1087.8906,136.9375 1087.25,137.0781 Q1086.6094,137.2344 1085.9063,137.2344 Q1083.4063,137.2344 1082.0781,135.5938 Q1080.7656,133.9375 1080.7656,130.8125 Q1080.7656,127.6875 1082.0781,126.0313 Q1083.4063,124.375 1085.9063,124.375 Q1086.6094,124.375 1087.25,124.5313 Q1087.9063,124.6875 1088.4688,124.9844 L1088.4688,127.7031 Q1087.8438,127.125 1087.25,126.8594 Q1086.6563,126.5781 1086.0313,126.5781 Q1084.6875,126.5781 1084,127.6563 Q1083.3125,128.7188 1083.3125,130.8125 Q1083.3125,132.9063 1084,133.9844 Q1084.6875,135.0469 1086.0313,135.0469 Q1086.6563,135.0469 1087.25,134.7813 Q1087.8438,134.5 1088.4688,133.9219 L1088.4688,136.6406 Z " fill="#000000"/><text fill="#000000" font-family="sans-serif" font-size="14" lengthAdjust="spacing" textLength="121.666" x="1099.5" y="135.8467">StatisticalSample</text><line style="stroke:#181818;stroke-width:0.5;" x1="1071.5" x2="1223.166" y1="147" y2="147"/><line style="stroke:#181818;stroke-width:0.5;" x1="1071.5" x2="1223.166" y1="155" y2="155"/></g><!--class Procedure--><g class="entity" data-qualified-name="Procedure" data-source-line="6" id="ent0013"><rect fill="#F1F1F1" height="48" rx="2.5" ry="2.5" style="stroke:#181818;stroke-width:0.5;" width="103.2031" x="1502" y="7"/><ellipse cx="1517" cy="23" fill="#ADD1B2" rx="11" ry="11" style="stroke:#181818;stroke-width:1;"/><path d="M1519.9688,28.6406 Q1519.3906,28.9375 1518.75,29.0781 Q1518.1094,29.2344 1517.4063,29.2344 Q1514.9063,29.2344 1513.5781,27.5938 Q1512.2656,25.9375 1512.2656,22.8125 Q1512.2656,19.6875 1513.5781,18.0313 Q1514.9063,16.375 1517.4063,16.375 Q1518.1094,16.375 1518.75,16.5313 Q1519.4063,16.6875 1519.9688,16.9844 L1519.9688,19.7031 Q1519.3438,19.125 1518.75,18.8594 Q1518.1563,18.5781 1517.5313,18.5781 Q1516.1875,18.5781 1515.5,19.6563 Q1514.8125,20.7188 1514.8125,22.8125 Q1514.8125,24.9063 1515.5,25.9844 Q1516.1875,27.0469 1517.5313,27.0469 Q1518.1563,27.0469 1518.75,26.7813 Q1519.3438,26.5 1519.9688,25.9219 L1519.9688,28.6406 Z " fill="#000000"/><text fill="#000000" font-family="sans-serif" font-size="14" lengthAdjust="spacing" textLength="71.2031" x="1531" y="27.8467">Procedure</text><line style="stroke:#181818;stroke-width:0.5;" x1="1503" x2="1604.2031" y1="39" y2="39"/><line style="stroke:#181818;stroke-width:0.5;" x1="1503" x2="1604.2031" y1="47" y2="47"/></g><!--class ActuatingProcedure--><g class="entity" data-qualified-name="ActuatingProcedure" data-source-line="6" id="ent0014"><rect fill="#F1F1F1" height="48" rx="2.5" ry="2.5" style="stroke:#181818;stroke-width:0.5;" width="170.5576" x="1260" y="115"/><ellipse cx="1275" cy="131" fill="#ADD1B2" rx="11" ry="11" style="stroke:#181818;stroke-width:1;"/><path d="M1277.9688,136.6406 Q1277.3906,136.9375 1276.75,137.0781 Q1276.1094,137.2344 1275.4063,137.2344 Q1272.9063,137.2344 1271.5781,135.5938 Q1270.2656,133.9375 1270.2656,130.8125 Q1270.2656,127.6875 1271.5781,126.0313 Q1272.9063,124.375 1275.4063,124.375 Q1276.1094,124.375 1276.75,124.5313 Q1277.4063,124.6875 1277.9688,124.9844 L1277.9688,127.7031 Q1277.3438,127.125 1276.75,126.8594 Q1276.1563,126.5781 1275.5313,126.5781 Q1274.1875,126.5781 1273.5,127.6563 Q1272.8125,128.7188 1272.8125,130.8125 Q1272.8125,132.9063 1273.5,133.9844 Q1274.1875,135.0469 1275.5313,135.0469 Q1276.1563,135.0469 1276.75,134.7813 Q1277.3438,134.5 1277.9688,133.9219 L1277.9688,136.6406 Z " fill="#000000"/><text fill="#000000" font-family="sans-serif" font-size="14" lengthAdjust="spacing" textLength="138.5576" x="1289" y="135.8467">ActuatingProcedure</text><line style="stroke:#181818;stroke-width:0.5;" x1="1261" x2="1429.5576" y1="147" y2="147"/><line style="stroke:#181818;stroke-width:0.5;" x1="1261" x2="1429.5576" y1="155" y2="155"/></g><!--class ObservingProcedure--><g class="entity" data-qualified-name="ObservingProcedure" data-source-line="7" id="ent0016"><rect fill="#F1F1F1" height="48" rx="2.5" ry="2.5" style="stroke:#181818;stroke-width:0.5;" width="174.707" x="1466" y="115"/><ellipse cx="1481" cy="131" fill="#ADD1B2" rx="11" ry="11" style="stroke:#181818;stroke-width:1;"/><path d="M1483.9688,136.6406 Q1483.3906,136.9375 1482.75,137.0781 Q1482.1094,137.2344 1481.4063,137.2344 Q1478.9063,137.2344 1477.5781,135.5938 Q1476.2656,133.9375 1476.2656,130.8125 Q1476.2656,127.6875 1477.5781,126.0313 Q1478.9063,124.375 1481.4063,124.375 Q1482.1094,124.375 1482.75,124.5313 Q1483.4063,124.6875 1483.9688,124.9844 L1483.9688,127.7031 Q1483.3438,127.125 1482.75,126.8594 Q1482.1563,126.5781 1481.5313,126.5781 Q1480.1875,126.5781 1479.5,127.6563 Q1478.8125,128.7188 1478.8125,130.8125 Q1478.8125,132.9063 1479.5,133.9844 Q1480.1875,135.0469 1481.5313,135.0469 Q1482.1563,135.0469 1482.75,134.7813 Q1483.3438,134.5 1483.9688,133.9219 L1483.9688,136.6406 Z " fill="#000000"/><text fill="#000000" font-family="sans-serif" font-size="14" lengthAdjust="spacing" textLength="142.707" x="1495" y="135.8467">ObservingProcedure</text><line style="stroke:#181818;stroke-width:0.5;" x1="1467" x2="1639.707" y1="147" y2="147"/><line style="stroke:#181818;stroke-width:0.5;" x1="1467" x2="1639.707" y1="155" y2="155"/></g><!--class SamplingProcedure--><g class="entity" data-qualified-name="SamplingProcedure" data-source-line="8" id="ent0018"><rect fill="#F1F1F1" height="48" rx="2.5" ry="2.5" style="stroke:#181818;stroke-width:0.5;" width="168.7324" x="1676" y="115"/><ellipse cx="1691" cy="131" fill="#ADD1B2" rx="11" ry="11" style="stroke:#181818;stroke-width:1;"/><path d="M1693.9688,136.6406 Q1693.3906,136.9375 1692.75,137.0781 Q1692.1094,137.2344 1691.4063,137.2344 Q1688.9063,137.2344 1687.5781,135.5938 Q1686.2656,133.9375 1686.2656,130.8125 Q1686.2656,127.6875 1687.5781,126.0313 Q1688.9063,124.375 1691.4063,124.375 Q1692.1094,124.375 1692.75,124.5313 Q1693.4063,124.6875 1693.9688,124.9844 L1693.9688,127.7031 Q1693.3438,127.125 1692.75,126.8594 Q1692.1563,126.5781 1691.5313,126.5781 Q1690.1875,126.5781 1689.5,127.6563 Q1688.8125,128.7188 1688.8125,130.8125 Q1688.8125,132.9063 1689.5,133.9844 Q1690.1875,135.0469 1691.5313,135.0469 Q1692.1563,135.0469 1692.75,134.7813 Q1693.3438,134.5 1693.9688,133.9219 L1693.9688,136.6406 Z " fill="#000000"/><text fill="#000000" font-family="sans-serif" font-size="14" lengthAdjust="spacing" textLength="136.7324" x="1705" y="135.8467">SamplingProcedure</text><line style="stroke:#181818;stroke-width:0.5;" x1="1677" x2="1843.7324" y1="147" y2="147"/><line style="stroke:#181818;stroke-width:0.5;" x1="1677" x2="1843.7324" y1="155" y2="155"/></g><!--class Asset--><g class="entity" data-qualified-name="Asset" data-source-line="9" id="ent0020"><rect fill="#F1F1F1" height="48" rx="2.5" ry="2.5" style="stroke:#181818;stroke-width:0.5;" width="70.2676" x="1951.5" y="7"/><ellipse cx="1966.5" cy="23" fill="#ADD1B2" rx="11" ry="11" style="stroke:#181818;stroke-width:1;"/><path d="M1969.4688,28.6406 Q1968.8906,28.9375 1968.25,29.0781 Q1967.6094,29.2344 1966.9063,29.2344 Q1964.4063,29.2344 1963.0781,27.5938 Q1961.7656,25.9375 1961.7656,22.8125 Q1961.7656,19.6875 1963.0781,18.0313 Q1964.4063,16.375 1966.9063,16.375 Q1967.6094,16.375 1968.25,16.5313 Q1968.9063,16.6875 1969.4688,16.9844 L1969.4688,19.7031 Q1968.8438,19.125 1968.25,18.8594 Q1967.6563,18.5781 1967.0313,18.5781 Q1965.6875,18.5781 1965,19.6563 Q1964.3125,20.7188 1964.3125,22.8125 Q1964.3125,24.9063 1965,25.9844 Q1965.6875,27.0469 1967.0313,27.0469 Q1967.6563,27.0469 1968.25,26.7813 Q1968.8438,26.5 1969.4688,25.9219 L1969.4688,28.6406 Z " fill="#000000"/><text fill="#000000" font-family="sans-serif" font-size="14" lengthAdjust="spacing" textLength="38.2676" x="1980.5" y="27.8467">Asset</text><line style="stroke:#181818;stroke-width:0.5;" x1="1952.5" x2="2020.7676" y1="39" y2="39"/><line style="stroke:#181818;stroke-width:0.5;" x1="1952.5" x2="2020.7676" y1="47" y2="47"/></g><!--class Platform--><g class="entity" data-qualified-name="Platform" data-source-line="9" id="ent0021"><rect fill="#F1F1F1" height="48" rx="2.5" ry="2.5" style="stroke:#181818;stroke-width:0.5;" width="91.2881" x="1880" y="115"/><ellipse cx="1895" cy="131" fill="#ADD1B2" rx="11" ry="11" style="stroke:#181818;stroke-width:1;"/><path d="M1897.9688,136.6406 Q1897.3906,136.9375 1896.75,137.0781 Q1896.1094,137.2344 1895.4063,137.2344 Q1892.9063,137.2344 1891.5781,135.5938 Q1890.2656,133.9375 1890.2656,130.8125 Q1890.2656,127.6875 1891.5781,126.0313 Q1892.9063,124.375 1895.4063,124.375 Q1896.1094,124.375 1896.75,124.5313 Q1897.4063,124.6875 1897.9688,124.9844 L1897.9688,127.7031 Q1897.3438,127.125 1896.75,126.8594 Q1896.1563,126.5781 1895.5313,126.5781 Q1894.1875,126.5781 1893.5,127.6563 Q1892.8125,128.7188 1892.8125,130.8125 Q1892.8125,132.9063 1893.5,133.9844 Q1894.1875,135.0469 1895.5313,135.0469 Q1896.1563,135.0469 1896.75,134.7813 Q1897.3438,134.5 1897.9688,133.9219 L1897.9688,136.6406 Z " fill="#000000"/><text fill="#000000" font-family="sans-serif" font-size="14" lengthAdjust="spacing" textLength="59.2881" x="1909" y="135.8467">Platform</text><line style="stroke:#181818;stroke-width:0.5;" x1="1881" x2="1970.2881" y1="147" y2="147"/><line style="stroke:#181818;stroke-width:0.5;" x1="1881" x2="1970.2881" y1="155" y2="155"/></g><!--class System--><g class="entity" data-qualified-name="System" data-source-line="10" id="ent0023"><rect fill="#F1F1F1" height="48" rx="2.5" ry="2.5" style="stroke:#181818;stroke-width:0.5;" width="84.2061" x="2006.5" y="115"/><ellipse cx="2021.5" cy="131" fill="#ADD1B2" rx="11" ry="11" style="stroke:#181818;stroke-width:1;"/><path d="M2024.4688,136.6406 Q2023.8906,136.9375 2023.25,137.0781 Q2022.6094,137.2344 2021.9063,137.2344 Q2019.4063,137.2344 2018.0781,135.5938 Q2016.7656,133.9375 2016.7656,130.8125 Q2016.7656,127.6875 2018.0781,126.0313 Q2019.4063,124.375 2021.9063,124.375 Q2022.6094,124.375 2023.25,124.5313 Q2023.9063,124.6875 2024.4688,124.9844 L2024.4688,127.7031 Q2023.8438,127.125 2023.25,126.8594 Q2022.6563,126.5781 2022.0313,126.5781 Q2020.6875,126.5781 2020,127.6563 Q2019.3125,128.7188 2019.3125,130.8125 Q2019.3125,132.9063 2020,133.9844 Q2020.6875,135.0469 2022.0313,135.0469 Q2022.6563,135.0469 2023.25,134.7813 Q2023.8438,134.5 2024.4688,133.9219 L2024.4688,136.6406 Z " fill="#000000"/><text fill="#000000" font-family="sans-serif" font-size="14" lengthAdjust="spacing" textLength="52.2061" x="2035.5" y="135.8467">System</text><line style="stroke:#181818;stroke-width:0.5;" x1="2007.5" x2="2089.7061" y1="147" y2="147"/><line style="stroke:#181818;stroke-width:0.5;" x1="2007.5" x2="2089.7061" y1="155" y2="155"/></g><!--class Sampler--><g class="entity" data-qualified-name="Sampler" data-source-line="10" id="ent0024"><rect fill="#F1F1F1" height="48" rx="2.5" ry="2.5" style="stroke:#181818;stroke-width:0.5;" width="90.249" x="1877.5" y="223"/><ellipse cx="1892.5" cy="239" fill="#ADD1B2" rx="11" ry="11" style="stroke:#181818;stroke-width:1;"/><path d="M1895.4688,244.6406 Q1894.8906,244.9375 1894.25,245.0781 Q1893.6094,245.2344 1892.9063,245.2344 Q1890.4063,245.2344 1889.0781,243.5938 Q1887.7656,241.9375 1887.7656,238.8125 Q1887.7656,235.6875 1889.0781,234.0313 Q1890.4063,232.375 1892.9063,232.375 Q1893.6094,232.375 1894.25,232.5313 Q1894.9063,232.6875 1895.4688,232.9844 L1895.4688,235.7031 Q1894.8438,235.125 1894.25,234.8594 Q1893.6563,234.5781 1893.0313,234.5781 Q1891.6875,234.5781 1891,235.6563 Q1890.3125,236.7188 1890.3125,238.8125 Q1890.3125,240.9063 1891,241.9844 Q1891.6875,243.0469 1893.0313,243.0469 Q1893.6563,243.0469 1894.25,242.7813 Q1894.8438,242.5 1895.4688,241.9219 L1895.4688,244.6406 Z " fill="#000000"/><text fill="#000000" font-family="sans-serif" font-size="14" lengthAdjust="spacing" textLength="58.249" x="1906.5" y="243.8467">Sampler</text><line style="stroke:#181818;stroke-width:0.5;" x1="1878.5" x2="1966.749" y1="255" y2="255"/><line style="stroke:#181818;stroke-width:0.5;" x1="1878.5" x2="1966.749" y1="263" y2="263"/></g><!--class Actuator--><g class="entity" data-qualified-name="Actuator" data-source-line="11" id="ent0026"><rect fill="#F1F1F1" height="48" rx="2.5" ry="2.5" style="stroke:#181818;stroke-width:0.5;" width="92.0264" x="2002.5" y="223"/><ellipse cx="2017.5" cy="239" fill="#ADD1B2" rx="11" ry="11" style="stroke:#181818;stroke-width:1;"/><path d="M2020.4688,244.6406 Q2019.8906,244.9375 2019.25,245.0781 Q2018.6094,245.2344 2017.9063,245.2344 Q2015.4063,245.2344 2014.0781,243.5938 Q2012.7656,241.9375 2012.7656,238.8125 Q2012.7656,235.6875 2014.0781,234.0313 Q2015.4063,232.375 2017.9063,232.375 Q2018.6094,232.375 2019.25,232.5313 Q2019.9063,232.6875 2020.4688,232.9844 L2020.4688,235.7031 Q2019.8438,235.125 2019.25,234.8594 Q2018.6563,234.5781 2018.0313,234.5781 Q2016.6875,234.5781 2016,235.6563 Q2015.3125,236.7188 2015.3125,238.8125 Q2015.3125,240.9063 2016,241.9844 Q2016.6875,243.0469 2018.0313,243.0469 Q2018.6563,243.0469 2019.25,242.7813 Q2019.8438,242.5 2020.4688,241.9219 L2020.4688,244.6406 Z " fill="#000000"/><text fill="#000000" font-family="sans-serif" font-size="14" lengthAdjust="spacing" textLength="60.0264" x="2031.5" y="243.8467">Actuator</text><line style="stroke:#181818;stroke-width:0.5;" x1="2003.5" x2="2093.5264" y1="255" y2="255"/><line style="stroke:#181818;stroke-width:0.5;" x1="2003.5" x2="2093.5264" y1="263" y2="263"/></g><!--class ExecutionCollection--><g class="entity" data-qualified-name="ExecutionCollection" data-source-line="12" id="ent0028"><rect fill="#F1F1F1" height="48" rx="2.5" ry="2.5" style="stroke:#181818;stroke-width:0.5;" width="170.3799" x="2326.5" y="7"/><ellipse cx="2341.5" cy="23" fill="#ADD1B2" rx="11" ry="11" style="stroke:#181818;stroke-width:1;"/><path d="M2344.4688,28.6406 Q2343.8906,28.9375 2343.25,29.0781 Q2342.6094,29.2344 2341.9063,29.2344 Q2339.4063,29.2344 2338.0781,27.5938 Q2336.7656,25.9375 2336.7656,22.8125 Q2336.7656,19.6875 2338.0781,18.0313 Q2339.4063,16.375 2341.9063,16.375 Q2342.6094,16.375 2343.25,16.5313 Q2343.9063,16.6875 2344.4688,16.9844 L2344.4688,19.7031 Q2343.8438,19.125 2343.25,18.8594 Q2342.6563,18.5781 2342.0313,18.5781 Q2340.6875,18.5781 2340,19.6563 Q2339.3125,20.7188 2339.3125,22.8125 Q2339.3125,24.9063 2340,25.9844 Q2340.6875,27.0469 2342.0313,27.0469 Q2342.6563,27.0469 2343.25,26.7813 Q2343.8438,26.5 2344.4688,25.9219 L2344.4688,28.6406 Z " fill="#000000"/><text fill="#000000" font-family="sans-serif" font-size="14" lengthAdjust="spacing" textLength="138.3799" x="2355.5" y="27.8467">ExecutionCollection</text><line style="stroke:#181818;stroke-width:0.5;" x1="2327.5" x2="2495.8799" y1="39" y2="39"/><line style="stroke:#181818;stroke-width:0.5;" x1="2327.5" x2="2495.8799" y1="47" y2="47"/></g><!--class SamplingCollection--><g class="entity" data-qualified-name="SamplingCollection" data-source-line="12" id="ent0029"><rect fill="#F1F1F1" height="48" rx="2.5" ry="2.5" style="stroke:#181818;stroke-width:0.5;" width="166.7773" x="2126" y="115"/><ellipse cx="2141" cy="131" fill="#ADD1B2" rx="11" ry="11" style="stroke:#181818;stroke-width:1;"/><path d="M2143.9688,136.6406 Q2143.3906,136.9375 2142.75,137.0781 Q2142.1094,137.2344 2141.4063,137.2344 Q2138.9063,137.2344 2137.5781,135.5938 Q2136.2656,133.9375 2136.2656,130.8125 Q2136.2656,127.6875 2137.5781,126.0313 Q2138.9063,124.375 2141.4063,124.375 Q2142.1094,124.375 2142.75,124.5313 Q2143.4063,124.6875 2143.9688,124.9844 L2143.9688,127.7031 Q2143.3438,127.125 2142.75,126.8594 Q2142.1563,126.5781 2141.5313,126.5781 Q2140.1875,126.5781 2139.5,127.6563 Q2138.8125,128.7188 2138.8125,130.8125 Q2138.8125,132.9063 2139.5,133.9844 Q2140.1875,135.0469 2141.5313,135.0469 Q2142.1563,135.0469 2142.75,134.7813 Q2143.3438,134.5 2143.9688,133.9219 L2143.9688,136.6406 Z " fill="#000000"/><text fill="#000000" font-family="sans-serif" font-size="14" lengthAdjust="spacing" textLength="134.7773" x="2155" y="135.8467">SamplingCollection</text><line style="stroke:#181818;stroke-width:0.5;" x1="2127" x2="2291.7773" y1="147" y2="147"/><line style="stroke:#181818;stroke-width:0.5;" x1="2127" x2="2291.7773" y1="155" y2="155"/></g><!--class Sensor--><g class="entity" data-qualified-name="Sensor" data-source-line="14" id="ent0032"><rect fill="#F1F1F1" height="48" rx="2.5" ry="2.5" style="stroke:#181818;stroke-width:0.5;" width="79.9883" x="2129.5" y="223"/><ellipse cx="2144.5" cy="239" fill="#ADD1B2" rx="11" ry="11" style="stroke:#181818;stroke-width:1;"/><path d="M2147.4688,244.6406 Q2146.8906,244.9375 2146.25,245.0781 Q2145.6094,245.2344 2144.9063,245.2344 Q2142.4063,245.2344 2141.0781,243.5938 Q2139.7656,241.9375 2139.7656,238.8125 Q2139.7656,235.6875 2141.0781,234.0313 Q2142.4063,232.375 2144.9063,232.375 Q2145.6094,232.375 2146.25,232.5313 Q2146.9063,232.6875 2147.4688,232.9844 L2147.4688,235.7031 Q2146.8438,235.125 2146.25,234.8594 Q2145.6563,234.5781 2145.0313,234.5781 Q2143.6875,234.5781 2143,235.6563 Q2142.3125,236.7188 2142.3125,238.8125 Q2142.3125,240.9063 2143,241.9844 Q2143.6875,243.0469 2145.0313,243.0469 Q2145.6563,243.0469 2146.25,242.7813 Q2146.8438,242.5 2147.4688,241.9219 L2147.4688,244.6406 Z " fill="#000000"/><text fill="#000000" font-family="sans-serif" font-size="14" lengthAdjust="spacing" textLength="47.9883" x="2158.5" y="243.8467">Sensor</text><line style="stroke:#181818;stroke-width:0.5;" x1="2130.5" x2="2208.4883" y1="255" y2="255"/><line style="stroke:#181818;stroke-width:0.5;" x1="2130.5" x2="2208.4883" y1="263" y2="263"/></g><!--class Execution--><g class="entity" data-qualified-name="Execution" data-source-line="15" id="ent0034"><rect fill="#F1F1F1" height="48" rx="2.5" ry="2.5" style="stroke:#181818;stroke-width:0.5;" width="101.1318" x="2884" y="7"/><ellipse cx="2899" cy="23" fill="#ADD1B2" rx="11" ry="11" style="stroke:#181818;stroke-width:1;"/><path d="M2901.9688,28.6406 Q2901.3906,28.9375 2900.75,29.0781 Q2900.1094,29.2344 2899.4063,29.2344 Q2896.9063,29.2344 2895.5781,27.5938 Q2894.2656,25.9375 2894.2656,22.8125 Q2894.2656,19.6875 2895.5781,18.0313 Q2896.9063,16.375 2899.4063,16.375 Q2900.1094,16.375 2900.75,16.5313 Q2901.4063,16.6875 2901.9688,16.9844 L2901.9688,19.7031 Q2901.3438,19.125 2900.75,18.8594 Q2900.1563,18.5781 2899.5313,18.5781 Q2898.1875,18.5781 2897.5,19.6563 Q2896.8125,20.7188 2896.8125,22.8125 Q2896.8125,24.9063 2897.5,25.9844 Q2898.1875,27.0469 2899.5313,27.0469 Q2900.1563,27.0469 2900.75,26.7813 Q2901.3438,26.5 2901.9688,25.9219 L2901.9688,28.6406 Z " fill="#000000"/><text fill="#000000" font-family="sans-serif" font-size="14" lengthAdjust="spacing" textLength="69.1318" x="2913" y="27.8467">Execution</text><line style="stroke:#181818;stroke-width:0.5;" x1="2885" x2="2984.1318" y1="39" y2="39"/><line style="stroke:#181818;stroke-width:0.5;" x1="2885" x2="2984.1318" y1="47" y2="47"/></g><!--class Sampling--><g class="entity" data-qualified-name="Sampling" data-source-line="15" id="ent0035"><rect fill="#F1F1F1" height="48" rx="2.5" ry="2.5" style="stroke:#181818;stroke-width:0.5;" width="97.5293" x="2751.5" y="115"/><ellipse cx="2766.5" cy="131" fill="#ADD1B2" rx="11" ry="11" style="stroke:#181818;stroke-width:1;"/><path d="M2769.4688,136.6406 Q2768.8906,136.9375 2768.25,137.0781 Q2767.6094,137.2344 2766.9063,137.2344 Q2764.4063,137.2344 2763.0781,135.5938 Q2761.7656,133.9375 2761.7656,130.8125 Q2761.7656,127.6875 2763.0781,126.0313 Q2764.4063,124.375 2766.9063,124.375 Q2767.6094,124.375 2768.25,124.5313 Q2768.9063,124.6875 2769.4688,124.9844 L2769.4688,127.7031 Q2768.8438,127.125 2768.25,126.8594 Q2767.6563,126.5781 2767.0313,126.5781 Q2765.6875,126.5781 2765,127.6563 Q2764.3125,128.7188 2764.3125,130.8125 Q2764.3125,132.9063 2765,133.9844 Q2765.6875,135.0469 2767.0313,135.0469 Q2767.6563,135.0469 2768.25,134.7813 Q2768.8438,134.5 2769.4688,133.9219 L2769.4688,136.6406 Z " fill="#000000"/><text fill="#000000" font-family="sans-serif" font-size="14" lengthAdjust="spacing" textLength="65.5293" x="2780.5" y="135.8467">Sampling</text><line style="stroke:#181818;stroke-width:0.5;" x1="2752.5" x2="2848.0293" y1="147" y2="147"/><line style="stroke:#181818;stroke-width:0.5;" x1="2752.5" x2="2848.0293" y1="155" y2="155"/></g><!--class Actuation--><g class="entity" data-qualified-name="Actuation" data-source-line="16" id="ent0037"><rect fill="#F1F1F1" height="48" rx="2.5" ry="2.5" style="stroke:#181818;stroke-width:0.5;" width="99.0332" x="2885" y="115"/><ellipse cx="2900" cy="131" fill="#ADD1B2" rx="11" ry="11" style="stroke:#181818;stroke-width:1;"/><path d="M2902.9688,136.6406 Q2902.3906,136.9375 2901.75,137.0781 Q2901.1094,137.2344 2900.4063,137.2344 Q2897.9063,137.2344 2896.5781,135.5938 Q2895.2656,133.9375 2895.2656,130.8125 Q2895.2656,127.6875 2896.5781,126.0313 Q2897.9063,124.375 2900.4063,124.375 Q2901.1094,124.375 2901.75,124.5313 Q2902.4063,124.6875 2902.9688,124.9844 L2902.9688,127.7031 Q2902.3438,127.125 2901.75,126.8594 Q2901.1563,126.5781 2900.5313,126.5781 Q2899.1875,126.5781 2898.5,127.6563 Q2897.8125,128.7188 2897.8125,130.8125 Q2897.8125,132.9063 2898.5,133.9844 Q2899.1875,135.0469 2900.5313,135.0469 Q2901.1563,135.0469 2901.75,134.7813 Q2902.3438,134.5 2902.9688,133.9219 L2902.9688,136.6406 Z " fill="#000000"/><text fill="#000000" font-family="sans-serif" font-size="14" lengthAdjust="spacing" textLength="67.0332" x="2914" y="135.8467">Actuation</text><line style="stroke:#181818;stroke-width:0.5;" x1="2886" x2="2983.0332" y1="147" y2="147"/><line style="stroke:#181818;stroke-width:0.5;" x1="2886" x2="2983.0332" y1="155" y2="155"/></g><!--class ActuationCollection--><g class="entity" data-qualified-name="ActuationCollection" data-source-line="17" id="ent0039"><rect fill="#F1F1F1" height="48" rx="2.5" ry="2.5" style="stroke:#181818;stroke-width:0.5;" width="168.2813" x="2327.5" y="115"/><ellipse cx="2342.5" cy="131" fill="#ADD1B2" rx="11" ry="11" style="stroke:#181818;stroke-width:1;"/><path d="M2345.4688,136.6406 Q2344.8906,136.9375 2344.25,137.0781 Q2343.6094,137.2344 2342.9063,137.2344 Q2340.4063,137.2344 2339.0781,135.5938 Q2337.7656,133.9375 2337.7656,130.8125 Q2337.7656,127.6875 2339.0781,126.0313 Q2340.4063,124.375 2342.9063,124.375 Q2343.6094,124.375 2344.25,124.5313 Q2344.9063,124.6875 2345.4688,124.9844 L2345.4688,127.7031 Q2344.8438,127.125 2344.25,126.8594 Q2343.6563,126.5781 2343.0313,126.5781 Q2341.6875,126.5781 2341,127.6563 Q2340.3125,128.7188 2340.3125,130.8125 Q2340.3125,132.9063 2341,133.9844 Q2341.6875,135.0469 2343.0313,135.0469 Q2343.6563,135.0469 2344.25,134.7813 Q2344.8438,134.5 2345.4688,133.9219 L2345.4688,136.6406 Z " fill="#000000"/><text fill="#000000" font-family="sans-serif" font-size="14" lengthAdjust="spacing" textLength="136.2813" x="2356.5" y="135.8467">ActuationCollection</text><line style="stroke:#181818;stroke-width:0.5;" x1="2328.5" x2="2494.7813" y1="147" y2="147"/><line style="stroke:#181818;stroke-width:0.5;" x1="2328.5" x2="2494.7813" y1="155" y2="155"/></g><!--class ObservationCollection--><g class="entity" data-qualified-name="ObservationCollection" data-source-line="18" id="ent0041"><rect fill="#F1F1F1" height="48" rx="2.5" ry="2.5" style="stroke:#181818;stroke-width:0.5;" width="186.499" x="2530.5" y="115"/><ellipse cx="2545.5" cy="131" fill="#ADD1B2" rx="11" ry="11" style="stroke:#181818;stroke-width:1;"/><path d="M2548.4688,136.6406 Q2547.8906,136.9375 2547.25,137.0781 Q2546.6094,137.2344 2545.9063,137.2344 Q2543.4063,137.2344 2542.0781,135.5938 Q2540.7656,133.9375 2540.7656,130.8125 Q2540.7656,127.6875 2542.0781,126.0313 Q2543.4063,124.375 2545.9063,124.375 Q2546.6094,124.375 2547.25,124.5313 Q2547.9063,124.6875 2548.4688,124.9844 L2548.4688,127.7031 Q2547.8438,127.125 2547.25,126.8594 Q2546.6563,126.5781 2546.0313,126.5781 Q2544.6875,126.5781 2544,127.6563 Q2543.3125,128.7188 2543.3125,130.8125 Q2543.3125,132.9063 2544,133.9844 Q2544.6875,135.0469 2546.0313,135.0469 Q2546.6563,135.0469 2547.25,134.7813 Q2547.8438,134.5 2548.4688,133.9219 L2548.4688,136.6406 Z " fill="#000000"/><text fill="#000000" font-family="sans-serif" font-size="14" lengthAdjust="spacing" textLength="154.499" x="2559.5" y="135.8467">ObservationCollection</text><line style="stroke:#181818;stroke-width:0.5;" x1="2531.5" x2="2715.999" y1="147" y2="147"/><line style="stroke:#181818;stroke-width:0.5;" x1="2531.5" x2="2715.999" y1="155" y2="155"/></g><!--class Observation--><g class="entity" data-qualified-name="Observation" data-source-line="19" id="ent0043"><rect fill="#F1F1F1" height="48" rx="2.5" ry="2.5" style="stroke:#181818;stroke-width:0.5;" width="117.251" x="3019" y="115"/><ellipse cx="3034" cy="131" fill="#ADD1B2" rx="11" ry="11" style="stroke:#181818;stroke-width:1;"/><path d="M3036.9688,136.6406 Q3036.3906,136.9375 3035.75,137.0781 Q3035.1094,137.2344 3034.4063,137.2344 Q3031.9063,137.2344 3030.5781,135.5938 Q3029.2656,133.9375 3029.2656,130.8125 Q3029.2656,127.6875 3030.5781,126.0313 Q3031.9063,124.375 3034.4063,124.375 Q3035.1094,124.375 3035.75,124.5313 Q3036.4063,124.6875 3036.9688,124.9844 L3036.9688,127.7031 Q3036.3438,127.125 3035.75,126.8594 Q3035.1563,126.5781 3034.5313,126.5781 Q3033.1875,126.5781 3032.5,127.6563 Q3031.8125,128.7188 3031.8125,130.8125 Q3031.8125,132.9063 3032.5,133.9844 Q3033.1875,135.0469 3034.5313,135.0469 Q3035.1563,135.0469 3035.75,134.7813 Q3036.3438,134.5 3036.9688,133.9219 L3036.9688,136.6406 Z " fill="#000000"/><text fill="#000000" font-family="sans-serif" font-size="14" lengthAdjust="spacing" textLength="85.251" x="3048" y="135.8467">Observation</text><line style="stroke:#181818;stroke-width:0.5;" x1="3020" x2="3135.251" y1="147" y2="147"/><line style="stroke:#181818;stroke-width:0.5;" x1="3020" x2="3135.251" y1="155" y2="155"/></g><!--class Stimulus--><g class="entity" data-qualified-name="Stimulus" data-source-line="20" id="ent0045"><rect fill="#F1F1F1" height="48" rx="2.5" ry="2.5" style="stroke:#181818;stroke-width:0.5;" width="92.833" x="7" y="7"/><ellipse cx="22" cy="23" fill="#ADD1B2" rx="11" ry="11" style="stroke:#181818;stroke-width:1;"/><path d="M24.9688,28.6406 Q24.3906,28.9375 23.75,29.0781 Q23.1094,29.2344 22.4063,29.2344 Q19.9063,29.2344 18.5781,27.5938 Q17.2656,25.9375 17.2656,22.8125 Q17.2656,19.6875 18.5781,18.0313 Q19.9063,16.375 22.4063,16.375 Q23.1094,16.375 23.75,16.5313 Q24.4063,16.6875 24.9688,16.9844 L24.9688,19.7031 Q24.3438,19.125 23.75,18.8594 Q23.1563,18.5781 22.5313,18.5781 Q21.1875,18.5781 20.5,19.6563 Q19.8125,20.7188 19.8125,22.8125 Q19.8125,24.9063 20.5,25.9844 Q21.1875,27.0469 22.5313,27.0469 Q23.1563,27.0469 23.75,26.7813 Q24.3438,26.5 24.9688,25.9219 L24.9688,28.6406 Z " fill="#000000"/><text fill="#000000" font-family="sans-serif" font-size="14" lengthAdjust="spacing" textLength="60.833" x="36" y="27.8467">Stimulus</text><line style="stroke:#181818;stroke-width:0.5;" x1="8" x2="98.833" y1="39" y2="39"/><line style="stroke:#181818;stroke-width:0.5;" x1="8" x2="98.833" y1="47" y2="47"/></g><!--class FeatureOfInterest--><g class="entity" data-qualified-name="FeatureOfInterest" data-source-line="21" id="ent0046"><rect fill="#F1F1F1" height="48" rx="2.5" ry="2.5" style="stroke:#181818;stroke-width:0.5;" width="156.1816" x="135.5" y="7"/><ellipse cx="150.5" cy="23" fill="#ADD1B2" rx="11" ry="11" style="stroke:#181818;stroke-width:1;"/><path d="M153.4688,28.6406 Q152.8906,28.9375 152.25,29.0781 Q151.6094,29.2344 150.9063,29.2344 Q148.4063,29.2344 147.0781,27.5938 Q145.7656,25.9375 145.7656,22.8125 Q145.7656,19.6875 147.0781,18.0313 Q148.4063,16.375 150.9063,16.375 Q151.6094,16.375 152.25,16.5313 Q152.9063,16.6875 153.4688,16.9844 L153.4688,19.7031 Q152.8438,19.125 152.25,18.8594 Q151.6563,18.5781 151.0313,18.5781 Q149.6875,18.5781 149,19.6563 Q148.3125,20.7188 148.3125,22.8125 Q148.3125,24.9063 149,25.9844 Q149.6875,27.0469 151.0313,27.0469 Q151.6563,27.0469 152.25,26.7813 Q152.8438,26.5 153.4688,25.9219 L153.4688,28.6406 Z " fill="#000000"/><text fill="#000000" font-family="sans-serif" font-size="14" lengthAdjust="spacing" textLength="124.1816" x="164.5" y="27.8467">FeatureOfInterest</text><line style="stroke:#181818;stroke-width:0.5;" x1="136.5" x2="290.6816" y1="39" y2="39"/><line style="stroke:#181818;stroke-width:0.5;" x1="136.5" x2="290.6816" y1="47" y2="47"/></g><!--class Deployment--><g class="entity" data-qualified-name="Deployment" data-source-line="22" id="ent0047"><rect fill="#F1F1F1" height="48" rx="2.5" ry="2.5" style="stroke:#181818;stroke-width:0.5;" width="117.6338" x="326.5" y="7"/><ellipse cx="341.5" cy="23" fill="#ADD1B2" rx="11" ry="11" style="stroke:#181818;stroke-width:1;"/><path d="M344.4688,28.6406 Q343.8906,28.9375 343.25,29.0781 Q342.6094,29.2344 341.9063,29.2344 Q339.4063,29.2344 338.0781,27.5938 Q336.7656,25.9375 336.7656,22.8125 Q336.7656,19.6875 338.0781,18.0313 Q339.4063,16.375 341.9063,16.375 Q342.6094,16.375 343.25,16.5313 Q343.9063,16.6875 344.4688,16.9844 L344.4688,19.7031 Q343.8438,19.125 343.25,18.8594 Q342.6563,18.5781 342.0313,18.5781 Q340.6875,18.5781 340,19.6563 Q339.3125,20.7188 339.3125,22.8125 Q339.3125,24.9063 340,25.9844 Q340.6875,27.0469 342.0313,27.0469 Q342.6563,27.0469 343.25,26.7813 Q343.8438,26.5 344.4688,25.9219 L344.4688,28.6406 Z " fill="#000000"/><text fill="#000000" font-family="sans-serif" font-size="14" lengthAdjust="spacing" textLength="85.6338" x="355.5" y="27.8467">Deployment</text><line style="stroke:#181818;stroke-width:0.5;" x1="327.5" x2="443.1338" y1="39" y2="39"/><line style="stroke:#181818;stroke-width:0.5;" x1="327.5" x2="443.1338" y1="47" y2="47"/></g><!--class Result--><g class="entity" data-qualified-name="Result" data-source-line="23" id="ent0048"><rect fill="#F1F1F1" height="48" rx="2.5" ry="2.5" style="stroke:#181818;stroke-width:0.5;" width="75.8867" x="15.5" y="115"/><ellipse cx="30.5" cy="131" fill="#ADD1B2" rx="11" ry="11" style="stroke:#181818;stroke-width:1;"/><path d="M33.4688,136.6406 Q32.8906,136.9375 32.25,137.0781 Q31.6094,137.2344 30.9063,137.2344 Q28.4063,137.2344 27.0781,135.5938 Q25.7656,133.9375 25.7656,130.8125 Q25.7656,127.6875 27.0781,126.0313 Q28.4063,124.375 30.9063,124.375 Q31.6094,124.375 32.25,124.5313 Q32.9063,124.6875 33.4688,124.9844 L33.4688,127.7031 Q32.8438,127.125 32.25,126.8594 Q31.6563,126.5781 31.0313,126.5781 Q29.6875,126.5781 29,127.6563 Q28.3125,128.7188 28.3125,130.8125 Q28.3125,132.9063 29,133.9844 Q29.6875,135.0469 31.0313,135.0469 Q31.6563,135.0469 32.25,134.7813 Q32.8438,134.5 33.4688,133.9219 L33.4688,136.6406 Z " fill="#000000"/><text fill="#000000" font-family="sans-serif" font-size="14" lengthAdjust="spacing" textLength="43.8867" x="44.5" y="135.8467">Result</text><line style="stroke:#181818;stroke-width:0.5;" x1="16.5" x2="90.3867" y1="147" y2="147"/><line style="stroke:#181818;stroke-width:0.5;" x1="16.5" x2="90.3867" y1="155" y2="155"/></g><!--class SampleCollection--><g class="entity" data-qualified-name="SampleCollection" data-source-line="24" id="ent0049"><rect fill="#F1F1F1" height="48" rx="2.5" ry="2.5" style="stroke:#181818;stroke-width:0.5;" width="153.7412" x="126.5" y="115"/><ellipse cx="141.5" cy="131" fill="#ADD1B2" rx="11" ry="11" style="stroke:#181818;stroke-width:1;"/><path d="M144.4688,136.6406 Q143.8906,136.9375 143.25,137.0781 Q142.6094,137.2344 141.9063,137.2344 Q139.4063,137.2344 138.0781,135.5938 Q136.7656,133.9375 136.7656,130.8125 Q136.7656,127.6875 138.0781,126.0313 Q139.4063,124.375 141.9063,124.375 Q142.6094,124.375 143.25,124.5313 Q143.9063,124.6875 144.4688,124.9844 L144.4688,127.7031 Q143.8438,127.125 143.25,126.8594 Q142.6563,126.5781 142.0313,126.5781 Q140.6875,126.5781 140,127.6563 Q139.3125,128.7188 139.3125,130.8125 Q139.3125,132.9063 140,133.9844 Q140.6875,135.0469 142.0313,135.0469 Q142.6563,135.0469 143.25,134.7813 Q143.8438,134.5 144.4688,133.9219 L144.4688,136.6406 Z " fill="#000000"/><text fill="#000000" font-family="sans-serif" font-size="14" lengthAdjust="spacing" textLength="121.7412" x="155.5" y="135.8467">SampleCollection</text><line style="stroke:#181818;stroke-width:0.5;" x1="127.5" x2="279.2412" y1="147" y2="147"/><line style="stroke:#181818;stroke-width:0.5;" x1="127.5" x2="279.2412" y1="155" y2="155"/></g><!--reverse link Property to ActuatableProperty--><g class="link" data-entity-1="ent0001" data-entity-2="ent0002" data-link-type="extension" data-source-line="1" id="lnk3"><path codeLine="1" d="M514.3092,64.6874 C486.5592,82.4074 463.54,97.11 435.74,114.86" fill="none" id="Property-backto-ActuatableProperty" style="stroke:#181818;stroke-width:1;"/><polygon fill="none" points="529.48,55,511.08,59.6305,517.5383,69.7444,529.48,55" style="stroke:#181818;stroke-width:1;stroke-linejoin:miter;stroke-miterlimit:10;"/></g><!--reverse link Sample to MaterialSample--><g class="link" data-entity-1="ent0004" data-entity-2="ent0005" data-link-type="extension" data-source-line="2" id="lnk6"><path codeLine="2" d="M915.8567,64.4445 C887.1067,82.1645 862.85,97.11 834.05,114.86" fill="none" id="Sample-backto-MaterialSample" style="stroke:#181818;stroke-width:1;"/><polygon fill="none" points="931.18,55,912.7086,59.3367,919.0049,69.5522,931.18,55" style="stroke:#181818;stroke-width:1;stroke-linejoin:miter;stroke-miterlimit:10;"/></g><!--reverse link Property to ObservableProperty--><g class="link" data-entity-1="ent0001" data-entity-2="ent0007" data-link-type="extension" data-source-line="3" id="lnk8"><path codeLine="3" d="M580.1774,71.8921 C586.6774,89.5521 589.39,96.94 595.92,114.68" fill="none" id="Property-backto-ObservableProperty" style="stroke:#181818;stroke-width:1;"/><polygon fill="none" points="573.96,55,574.5467,73.9646,585.8081,69.8197,573.96,55" style="stroke:#181818;stroke-width:1;stroke-linejoin:miter;stroke-miterlimit:10;"/></g><!--reverse link Sample to SpatialSample--><g class="link" data-entity-1="ent0004" data-entity-2="ent0009" data-link-type="extension" data-source-line="4" id="lnk10"><path codeLine="4" d="M968.5,73 C968.5,90.66 968.5,96.94 968.5,114.68" fill="none" id="Sample-backto-SpatialSample" style="stroke:#181818;stroke-width:1;"/><polygon fill="none" points="968.5,55,962.5,73,974.5,73,968.5,55" style="stroke:#181818;stroke-width:1;stroke-linejoin:miter;stroke-miterlimit:10;"/></g><!--reverse link Sample to StatisticalSample--><g class="link" data-entity-1="ent0004" data-entity-2="ent0011" data-link-type="extension" data-source-line="5" id="lnk12"><path codeLine="5" d="M1022.8276,64.1725 C1052.7476,81.8925 1078.45,97.11 1108.43,114.86" fill="none" id="Sample-backto-StatisticalSample" style="stroke:#181818;stroke-width:1;"/><polygon fill="none" points="1007.34,55,1019.7701,69.335,1025.8851,59.0099,1007.34,55" style="stroke:#181818;stroke-width:1;stroke-linejoin:miter;stroke-miterlimit:10;"/></g><!--reverse link Procedure to ActuatingProcedure--><g class="link" data-entity-1="ent0013" data-entity-2="ent0014" data-link-type="extension" data-source-line="6" id="lnk15"><path codeLine="6" d="M1492.3326,63.1732 C1457.5626,80.8932 1425.74,97.11 1390.9,114.86" fill="none" id="Procedure-backto-ActuatingProcedure" style="stroke:#181818;stroke-width:1;"/><polygon fill="none" points="1508.37,55,1489.6082,57.8274,1495.057,68.519,1508.37,55" style="stroke:#181818;stroke-width:1;stroke-linejoin:miter;stroke-miterlimit:10;"/></g><!--reverse link Procedure to ObservingProcedure--><g class="link" data-entity-1="ent0013" data-entity-2="ent0016" data-link-type="extension" data-source-line="7" id="lnk17"><path codeLine="7" d="M1553.5,73 C1553.5,90.66 1553.5,96.94 1553.5,114.68" fill="none" id="Procedure-backto-ObservingProcedure" style="stroke:#181818;stroke-width:1;"/><polygon fill="none" points="1553.5,55,1547.5,73,1559.5,73,1553.5,55" style="stroke:#181818;stroke-width:1;stroke-linejoin:miter;stroke-miterlimit:10;"/></g><!--reverse link Procedure to SamplingProcedure--><g class="link" data-entity-1="ent0013" data-entity-2="ent0018" data-link-type="extension" data-source-line="8" id="lnk19"><path codeLine="8" d="M1614.4411,63.205 C1649.0411,80.925 1680.65,97.11 1715.31,114.86" fill="none" id="Procedure-backto-SamplingProcedure" style="stroke:#181818;stroke-width:1;"/><polygon fill="none" points="1598.42,55,1611.7061,68.5454,1617.1762,57.8647,1598.42,55" style="stroke:#181818;stroke-width:1;stroke-linejoin:miter;stroke-miterlimit:10;"/></g><!--reverse link Asset to Platform--><g class="link" data-entity-1="ent0020" data-entity-2="ent0021" data-link-type="extension" data-source-line="9" id="lnk22"><path codeLine="9" d="M1964.2839,70.6022 C1954.1239,88.2622 1949.13,96.94 1938.92,114.68" fill="none" id="Asset-backto-Platform" style="stroke:#181818;stroke-width:1;"/><polygon fill="none" points="1973.26,55,1959.0831,67.6102,1969.4846,73.5943,1973.26,55" style="stroke:#181818;stroke-width:1;stroke-linejoin:miter;stroke-miterlimit:10;"/></g><!--reverse link System to Sampler--><g class="link" data-entity-1="ent0023" data-entity-2="ent0024" data-link-type="extension" data-source-line="10" id="lnk25"><path codeLine="10" d="M2007.3865,174.5884 C1986.3965,192.2484 1971.31,204.94 1950.22,222.68" fill="none" id="System-backto-Sampler" style="stroke:#181818;stroke-width:1;"/><polygon fill="none" points="2021.16,163,2003.5237,169.9972,2011.2493,179.1795,2021.16,163" style="stroke:#181818;stroke-width:1;stroke-linejoin:miter;stroke-miterlimit:10;"/></g><!--reverse link System to Actuator--><g class="link" data-entity-1="ent0023" data-entity-2="ent0026" data-link-type="extension" data-source-line="11" id="lnk27"><path codeLine="11" d="M2048.5,181 C2048.5,198.66 2048.5,204.94 2048.5,222.68" fill="none" id="System-backto-Actuator" style="stroke:#181818;stroke-width:1;"/><polygon fill="none" points="2048.5,163,2042.5,181,2054.5,181,2048.5,163" style="stroke:#181818;stroke-width:1;stroke-linejoin:miter;stroke-miterlimit:10;"/></g><!--reverse link ExecutionCollection to SamplingCollection--><g class="link" data-entity-1="ent0028" data-entity-2="ent0029" data-link-type="extension" data-source-line="12" id="lnk30"><path codeLine="12" d="M2351.731,63.3636 C2317.961,81.0836 2287.43,97.11 2253.59,114.86" fill="none" id="ExecutionCollection-backto-SamplingCollection" style="stroke:#181818;stroke-width:1;"/><polygon fill="none" points="2367.67,55,2348.9432,58.0506,2354.5189,68.6766,2367.67,55" style="stroke:#181818;stroke-width:1;stroke-linejoin:miter;stroke-miterlimit:10;"/></g><!--reverse link Asset to System--><g class="link" data-entity-1="ent0020" data-entity-2="ent0023" data-link-type="extension" data-source-line="13" id="lnk31"><path codeLine="13" d="M2009.0383,70.5372 C2019.3683,88.1972 2024.48,96.94 2034.86,114.68" fill="none" id="Asset-backto-System" style="stroke:#181818;stroke-width:1;"/><polygon fill="none" points="1999.95,55,2003.8592,73.5666,2014.2173,67.5077,1999.95,55" style="stroke:#181818;stroke-width:1;stroke-linejoin:miter;stroke-miterlimit:10;"/></g><!--reverse link System to Sensor--><g class="link" data-entity-1="ent0023" data-entity-2="ent0032" data-link-type="extension" data-source-line="14" id="lnk33"><path codeLine="14" d="M2088.2968,174.864 C2108.4468,192.524 2122.63,204.94 2142.88,222.68" fill="none" id="System-backto-Sensor" style="stroke:#181818;stroke-width:1;"/><polygon fill="none" points="2074.76,163,2084.3421,179.3763,2092.2515,170.3518,2074.76,163" style="stroke:#181818;stroke-width:1;stroke-linejoin:miter;stroke-miterlimit:10;"/></g><!--reverse link Execution to Sampling--><g class="link" data-entity-1="ent0034" data-entity-2="ent0035" data-link-type="extension" data-source-line="15" id="lnk36"><path codeLine="15" d="M2891.3041,66.1688 C2868.9841,83.8288 2852.41,96.94 2829.98,114.68" fill="none" id="Execution-backto-Sampling" style="stroke:#181818;stroke-width:1;"/><polygon fill="none" points="2905.42,55,2887.5812,61.4635,2895.027,70.8741,2905.42,55" style="stroke:#181818;stroke-width:1;stroke-linejoin:miter;stroke-miterlimit:10;"/></g><!--reverse link Execution to Actuation--><g class="link" data-entity-1="ent0034" data-entity-2="ent0037" data-link-type="extension" data-source-line="16" id="lnk38"><path codeLine="16" d="M2934.5,73 C2934.5,90.66 2934.5,96.94 2934.5,114.68" fill="none" id="Execution-backto-Actuation" style="stroke:#181818;stroke-width:1;"/><polygon fill="none" points="2934.5,55,2928.5,73,2940.5,73,2934.5,55" style="stroke:#181818;stroke-width:1;stroke-linejoin:miter;stroke-miterlimit:10;"/></g><!--reverse link ExecutionCollection to ActuationCollection--><g class="link" data-entity-1="ent0028" data-entity-2="ent0039" data-link-type="extension" data-source-line="17" id="lnk40"><path codeLine="17" d="M2411.5,73 C2411.5,90.66 2411.5,96.94 2411.5,114.68" fill="none" id="ExecutionCollection-backto-ActuationCollection" style="stroke:#181818;stroke-width:1;"/><polygon fill="none" points="2411.5,55,2405.5,73,2417.5,73,2411.5,55" style="stroke:#181818;stroke-width:1;stroke-linejoin:miter;stroke-miterlimit:10;"/></g><!--reverse link ExecutionCollection to ObservationCollection--><g class="link" data-entity-1="ent0028" data-entity-2="ent0041" data-link-type="extension" data-source-line="18" id="lnk42"><path codeLine="18" d="M2473.5997,63.0498 C2509.0397,80.7698 2541.72,97.11 2577.22,114.86" fill="none" id="ExecutionCollection-backto-ObservationCollection" style="stroke:#181818;stroke-width:1;"/><polygon fill="none" points="2457.5,55,2470.9164,68.4164,2476.283,57.6833,2457.5,55" style="stroke:#181818;stroke-width:1;stroke-linejoin:miter;stroke-miterlimit:10;"/></g><!--reverse link Execution to Observation--><g class="link" data-entity-1="ent0034" data-entity-2="ent0043" data-link-type="extension" data-source-line="19" id="lnk44"><path codeLine="19" d="M2979.9895,65.7202 C3003.8095,83.3802 3022.11,96.94 3046.04,114.68" fill="none" id="Execution-backto-Observation" style="stroke:#181818;stroke-width:1;"/><polygon fill="none" points="2965.53,55,2976.4161,70.54,2983.5629,60.9004,2965.53,55" style="stroke:#181818;stroke-width:1;stroke-linejoin:miter;stroke-miterlimit:10;"/></g><?plantuml-src VL91RWCX3BppYdmWF-WbQXkfXoYhxWi8cLH81bROL5sfZoyj90k9jZSy7i-CR8OO9aIPDq_Vs-rcPoHfqIV2K74rQZSHIlkW1T5gAfWQkjdZYH4_LsV7ISiosdKaTrYiQOKDpYcYJMNznms_PnJl_nX_oXrXnmmfpO6qN49qQfnPu9e9n0uhIK9KhrymIMpmpu48vlVL-onuQrIqUXjuRWLxcNkyhYAhhYQuKPe8g-Hwj3Nw0qaPqipvPDObIbpBFRJabHulRpv_4B1K_0KJXTd1Nu5tSA9hKHQysFu0?></g></svg>