<svg xmlns="http://www.w3.org/2000/svg" xmlns:xlink="http://www.w3.org/1999/xlink" contentStyleType="text/css" data-diagram-type="CLASS" height="286px" preserveAspectRatio="none" style="width:3123px;height:286px;background:#FFFFFF;" version="1.1" viewBox="0 0 3123 286" width="3123px" zoomAndPan="magnify"><?plantuml 1.2026.3?><defs/><g><!--class Property--><g class="entity" data-qualified-name="Property" data-source-line="1" id="ent0002"><rect fill="#F1F1F1" height="48" rx="2.5" ry="2.5" style="stroke:#181818;stroke-width:0.5;" width="91.7939" x="525" y="7"/><ellipse cx="540" cy="23" fill="#ADD1B2" rx="11" ry="11" style="stroke:#181818;stroke-width:1;"/><path d="M542.9688,28.6406 Q542.3906,28.9375 541.75,29.0781 Q541.1094,29.2344 540.4063,29.2344 Q537.9063,29.2344 536.5781,27.5938 Q535.2656,25.9375 535.2656,22.8125 Q535.2656,19.6875 536.5781,18.0313 Q537.9063,16.375 540.4063,16.375 Q541.1094,16.375 541.75,16.5313 Q542.4063,16.6875 542.9688,16.9844 L542.9688,19.7031 Q542.3438,19.125 541.75,18.8594 Q541.1563,18.5781 540.5313,18.5781 Q539.1875,18.5781 538.5,19.6563 Q537.8125,20.7188 537.8125,22.8125 Q537.8125,24.9063 538.5,25.9844 Q539.1875,27.0469 540.5313,27.0469 Q541.1563,27.0469 541.75,26.7813 Q542.3438,26.5 542.9688,25.9219 L542.9688,28.6406 Z " fill="#000000"/><text fill="#000000" font-family="sans-serif" font-size="14" lengthAdjust="spacing" textLength="59.7939" x="554" y="27.8467">Property</text><line style="stroke:#181818;stroke-width:0.5;" x1="526" x2="615.7939" y1="39" y2="39"/><line style="stroke:#181818;stroke-width:0.5;" x1="526" x2="615.7939" y1="47" y2="47"/></g><!--class ActuatableProperty--><g class="entity" data-qualified-name="ActuatableProperty" data-source-line="1" id="ent0003"><rect fill="#F1F1F1" height="48" rx="2.5" ry="2.5" style="stroke:#181818;stroke-width:0.5;" width="167.4678" x="288.5" y="115"/><ellipse cx="303.5" cy="131" fill="#ADD1B2" rx="11" ry="11" style="stroke:#181818;stroke-width:1;"/><path d="M306.4688,136.6406 Q305.8906,136.9375 305.25,137.0781 Q304.6094,137.2344 303.9063,137.2344 Q301.4063,137.2344 300.0781,135.5938 Q298.7656,133.9375 298.7656,130.8125 Q298.7656,127.6875 300.0781,126.0313 Q301.4063,124.375 303.9063,124.375 Q304.6094,124.375 305.25,124.5313 Q305.9063,124.6875 306.4688,124.9844 L306.4688,127.7031 Q305.8438,127.125 305.25,126.8594 Q304.6563,126.5781 304.0313,126.5781 Q302.6875,126.5781 302,127.6563 Q301.3125,128.7188 301.3125,130.8125 Q301.3125,132.9063 302,133.9844 Q302.6875,135.0469 304.0313,135.0469 Q304.6563,135.0469 305.25,134.7813 Q305.8438,134.5 306.4688,133.9219 L306.4688,136.6406 Z " fill="#000000"/><text fill="#000000" font-family="sans-serif" font-size="14" lengthAdjust="spacing" textLength="135.4678" x="317.5" y="135.8467">ActuatableProperty</text><line style="stroke:#181818;stroke-width:0.5;" x1="289.5" x2="454.9678" y1="147" y2="147"/><line style="stroke:#181818;stroke-width:0.5;" x1="289.5" x2="454.9678" y1="155" y2="155"/></g><!--class Sample--><g class="entity" data-qualified-name="Sample" data-source-line="2" id="ent0005"><rect fill="#F1F1F1" height="48" rx="2.5" ry="2.5" style="stroke:#181818;stroke-width:0.5;" width="84.4932" x="899" y="7"/><ellipse cx="914" cy="23" fill="#ADD1B2" rx="11" ry="11" style="stroke:#181818;stroke-width:1;"/><path d="M916.9688,28.6406 Q916.3906,28.9375 915.75,29.0781 Q915.1094,29.2344 914.4063,29.2344 Q911.9063,29.2344 910.5781,27.5938 Q909.2656,25.9375 909.2656,22.8125 Q909.2656,19.6875 910.5781,18.0313 Q911.9063,16.375 914.4063,16.375 Q915.1094,16.375 915.75,16.5313 Q916.4063,16.6875 916.9688,16.9844 L916.9688,19.7031 Q916.3438,19.125 915.75,18.8594 Q915.1563,18.5781 914.5313,18.5781 Q913.1875,18.5781 912.5,19.6563 Q911.8125,20.7188 911.8125,22.8125 Q911.8125,24.9063 912.5,25.9844 Q913.1875,27.0469 914.5313,27.0469 Q915.1563,27.0469 915.75,26.7813 Q916.3438,26.5 916.9688,25.9219 L916.9688,28.6406 Z " fill="#000000"/><text fill="#000000" font-family="sans-serif" font-size="14" lengthAdjust="spacing" textLength="52.4932" x="928" y="27.8467">Sample</text><line style="stroke:#181818;stroke-width:0.5;" x1="900" x2="982.4932" y1="39" y2="39"/><line style="stroke:#181818;stroke-width:0.5;" x1="900" x2="982.4932" y1="47" y2="47"/></g><!--class MaterialSample--><g class="entity" data-qualified-name="MaterialSample" data-source-line="2" id="ent0006"><rect fill="#F1F1F1" height="48" rx="2.5" ry="2.5" style="stroke:#181818;stroke-width:0.5;" width="141.3682" x="698.5" y="115"/><ellipse cx="713.5" cy="131" fill="#ADD1B2" rx="11" ry="11" style="stroke:#181818;stroke-width:1;"/><path d="M716.4688,136.6406 Q715.8906,136.9375 715.25,137.0781 Q714.6094,137.2344 713.9063,137.2344 Q711.4063,137.2344 710.0781,135.5938 Q708.7656,133.9375 708.7656,130.8125 Q708.7656,127.6875 710.0781,126.0313 Q711.4063,124.375 713.9063,124.375 Q714.6094,124.375 715.25,124.5313 Q715.9063,124.6875 716.4688,124.9844 L716.4688,127.7031 Q715.8438,127.125 715.25,126.8594 Q714.6563,126.5781 714.0313,126.5781 Q712.6875,126.5781 712,127.6563 Q711.3125,128.7188 711.3125,130.8125 Q711.3125,132.9063 712,133.9844 Q712.6875,135.0469 714.0313,135.0469 Q714.6563,135.0469 715.25,134.7813 Q715.8438,134.5 716.4688,133.9219 L716.4688,136.6406 Z " fill="#000000"/><text fill="#000000" font-family="sans-serif" font-size="14" lengthAdjust="spacing" textLength="109.3682" x="727.5" y="135.8467">MaterialSample</text><line style="stroke:#181818;stroke-width:0.5;" x1="699.5" x2="838.8682" y1="147" y2="147"/><line style="stroke:#181818;stroke-width:0.5;" x1="699.5" x2="838.8682" y1="155" y2="155"/></g><!--class ObservableProperty--><g class="entity" data-qualified-name="ObservableProperty" data-source-line="3" id="ent0008"><rect fill="#F1F1F1" height="48" rx="2.5" ry="2.5" style="stroke:#181818;stroke-width:0.5;" width="171.6172" x="491" y="115"/><ellipse cx="506" cy="131" fill="#ADD1B2" rx="11" ry="11" style="stroke:#181818;stroke-width:1;"/><path d="M508.9688,136.6406 Q508.3906,136.9375 507.75,137.0781 Q507.1094,137.2344 506.4063,137.2344 Q503.9063,137.2344 502.5781,135.5938 Q501.2656,133.9375 501.2656,130.8125 Q501.2656,127.6875 502.5781,126.0313 Q503.9063,124.375 506.4063,124.375 Q507.1094,124.375 507.75,124.5313 Q508.4063,124.6875 508.9688,124.9844 L508.9688,127.7031 Q508.3438,127.125 507.75,126.8594 Q507.1563,126.5781 506.5313,126.5781 Q505.1875,126.5781 504.5,127.6563 Q503.8125,128.7188 503.8125,130.8125 Q503.8125,132.9063 504.5,133.9844 Q505.1875,135.0469 506.5313,135.0469 Q507.1563,135.0469 507.75,134.7813 Q508.3438,134.5 508.9688,133.9219 L508.9688,136.6406 Z " fill="#000000"/><text fill="#000000" font-family="sans-serif" font-size="14" lengthAdjust="spacing" textLength="139.6172" x="520" y="135.8467">ObservableProperty</text><line style="stroke:#181818;stroke-width:0.5;" x1="492" x2="661.6172" y1="147" y2="147"/><line style="stroke:#181818;stroke-width:0.5;" x1="492" x2="661.6172" y1="155" y2="155"/></g><!--class SpatialSample--><g class="entity" data-qualified-name="SpatialSample" data-source-line="4" id="ent0010"><rect fill="#F1F1F1" height="48" rx="2.5" ry="2.5" style="stroke:#181818;stroke-width:0.5;" width="132.6934" x="874.5" y="115"/><ellipse cx="889.5" cy="131" fill="#ADD1B2" rx="11" ry="11" style="stroke:#181818;stroke-width:1;"/><path d="M892.4688,136.6406 Q891.8906,136.9375 891.25,137.0781 Q890.6094,137.2344 889.9063,137.2344 Q887.4063,137.2344 886.0781,135.5938 Q884.7656,133.9375 884.7656,130.8125 Q884.7656,127.6875 886.0781,126.0313 Q887.4063,124.375 889.9063,124.375 Q890.6094,124.375 891.25,124.5313 Q891.9063,124.6875 892.4688,124.9844 L892.4688,127.7031 Q891.8438,127.125 891.25,126.8594 Q890.6563,126.5781 890.0313,126.5781 Q888.6875,126.5781 888,127.6563 Q887.3125,128.7188 887.3125,130.8125 Q887.3125,132.9063 888,133.9844 Q888.6875,135.0469 890.0313,135.0469 Q890.6563,135.0469 891.25,134.7813 Q891.8438,134.5 892.4688,133.9219 L892.4688,136.6406 Z " fill="#000000"/><text fill="#000000" font-family="sans-serif" font-size="14" lengthAdjust="spacing" textLength="100.6934" x="903.5" y="135.8467">SpatialSample</text><line style="stroke:#181818;stroke-width:0.5;" x1="875.5" x2="1006.1934" y1="147" y2="147"/><line style="stroke:#181818;stroke-width:0.5;" x1="875.5" x2="1006.1934" y1="155" y2="155"/></g><!--class StatisticalSample--><g class="entity" data-qualified-name="StatisticalSample" data-source-line="5" id="ent0012"><rect fill="#F1F1F1" height="48" rx="2.5" ry="2.5" style="stroke:#181818;stroke-width:0.5;" width="153.666" x="1043" y="115"/><ellipse cx="1058" cy="131" fill="#ADD1B2" rx="11" ry="11" style="stroke:#181818;stroke-width:1;"/><path d="M1060.9688,136.6406 Q1060.3906,136.9375 1059.75,137.0781 Q1059.1094,137.2344 1058.4063,137.2344 Q1055.9063,137.2344 1054.5781,135.5938 Q1053.2656,133.9375 1053.2656,130.8125 Q1053.2656,127.6875 1054.5781,126.0313 Q1055.9063,124.375 1058.4063,124.375 Q1059.1094,124.375 1059.75,124.5313 Q1060.4063,124.6875 1060.9688,124.9844 L1060.9688,127.7031 Q1060.3438,127.125 1059.75,126.8594 Q1059.1563,126.5781 1058.5313,126.5781 Q1057.1875,126.5781 1056.5,127.6563 Q1055.8125,128.7188 1055.8125,130.8125 Q1055.8125,132.9063 1056.5,133.9844 Q1057.1875,135.0469 1058.5313,135.0469 Q1059.1563,135.0469 1059.75,134.7813 Q1060.3438,134.5 1060.9688,133.9219 L1060.9688,136.6406 Z " fill="#000000"/><text fill="#000000" font-family="sans-serif" font-size="14" lengthAdjust="spacing" textLength="121.666" x="1072" y="135.8467">StatisticalSample</text><line style="stroke:#181818;stroke-width:0.5;" x1="1044" x2="1195.666" y1="147" y2="147"/><line style="stroke:#181818;stroke-width:0.5;" x1="1044" x2="1195.666" y1="155" y2="155"/></g><!--class Procedure--><g class="entity" data-qualified-name="Procedure" data-source-line="6" id="ent0014"><rect fill="#F1F1F1" height="48" rx="2.5" ry="2.5" style="stroke:#181818;stroke-width:0.5;" width="103.2031" x="1474.5" y="7"/><ellipse cx="1489.5" cy="23" fill="#ADD1B2" rx="11" ry="11" style="stroke:#181818;stroke-width:1;"/><path d="M1492.4688,28.6406 Q1491.8906,28.9375 1491.25,29.0781 Q1490.6094,29.2344 1489.9063,29.2344 Q1487.4063,29.2344 1486.0781,27.5938 Q1484.7656,25.9375 1484.7656,22.8125 Q1484.7656,19.6875 1486.0781,18.0313 Q1487.4063,16.375 1489.9063,16.375 Q1490.6094,16.375 1491.25,16.5313 Q1491.9063,16.6875 1492.4688,16.9844 L1492.4688,19.7031 Q1491.8438,19.125 1491.25,18.8594 Q1490.6563,18.5781 1490.0313,18.5781 Q1488.6875,18.5781 1488,19.6563 Q1487.3125,20.7188 1487.3125,22.8125 Q1487.3125,24.9063 1488,25.9844 Q1488.6875,27.0469 1490.0313,27.0469 Q1490.6563,27.0469 1491.25,26.7813 Q1491.8438,26.5 1492.4688,25.9219 L1492.4688,28.6406 Z " fill="#000000"/><text fill="#000000" font-family="sans-serif" font-size="14" lengthAdjust="spacing" textLength="71.2031" x="1503.5" y="27.8467">Procedure</text><line style="stroke:#181818;stroke-width:0.5;" x1="1475.5" x2="1576.7031" y1="39" y2="39"/><line style="stroke:#181818;stroke-width:0.5;" x1="1475.5" x2="1576.7031" y1="47" y2="47"/></g><!--class ActuatingProcedure--><g class="entity" data-qualified-name="ActuatingProcedure" data-source-line="6" id="ent0015"><rect fill="#F1F1F1" height="48" rx="2.5" ry="2.5" style="stroke:#181818;stroke-width:0.5;" width="170.5576" x="1232.5" y="115"/><ellipse cx="1247.5" cy="131" fill="#ADD1B2" rx="11" ry="11" style="stroke:#181818;stroke-width:1;"/><path d="M1250.4688,136.6406 Q1249.8906,136.9375 1249.25,137.0781 Q1248.6094,137.2344 1247.9063,137.2344 Q1245.4063,137.2344 1244.0781,135.5938 Q1242.7656,133.9375 1242.7656,130.8125 Q1242.7656,127.6875 1244.0781,126.0313 Q1245.4063,124.375 1247.9063,124.375 Q1248.6094,124.375 1249.25,124.5313 Q1249.9063,124.6875 1250.4688,124.9844 L1250.4688,127.7031 Q1249.8438,127.125 1249.25,126.8594 Q1248.6563,126.5781 1248.0313,126.5781 Q1246.6875,126.5781 1246,127.6563 Q1245.3125,128.7188 1245.3125,130.8125 Q1245.3125,132.9063 1246,133.9844 Q1246.6875,135.0469 1248.0313,135.0469 Q1248.6563,135.0469 1249.25,134.7813 Q1249.8438,134.5 1250.4688,133.9219 L1250.4688,136.6406 Z " fill="#000000"/><text fill="#000000" font-family="sans-serif" font-size="14" lengthAdjust="spacing" textLength="138.5576" x="1261.5" y="135.8467">ActuatingProcedure</text><line style="stroke:#181818;stroke-width:0.5;" x1="1233.5" x2="1402.0576" y1="147" y2="147"/><line style="stroke:#181818;stroke-width:0.5;" x1="1233.5" x2="1402.0576" y1="155" y2="155"/></g><!--class ObservingProcedure--><g class="entity" data-qualified-name="ObservingProcedure" data-source-line="7" id="ent0017"><rect fill="#F1F1F1" height="48" rx="2.5" ry="2.5" style="stroke:#181818;stroke-width:0.5;" width="174.707" x="1438.5" y="115"/><ellipse cx="1453.5" cy="131" fill="#ADD1B2" rx="11" ry="11" style="stroke:#181818;stroke-width:1;"/><path d="M1456.4688,136.6406 Q1455.8906,136.9375 1455.25,137.0781 Q1454.6094,137.2344 1453.9063,137.2344 Q1451.4063,137.2344 1450.0781,135.5938 Q1448.7656,133.9375 1448.7656,130.8125 Q1448.7656,127.6875 1450.0781,126.0313 Q1451.4063,124.375 1453.9063,124.375 Q1454.6094,124.375 1455.25,124.5313 Q1455.9063,124.6875 1456.4688,124.9844 L1456.4688,127.7031 Q1455.8438,127.125 1455.25,126.8594 Q1454.6563,126.5781 1454.0313,126.5781 Q1452.6875,126.5781 1452,127.6563 Q1451.3125,128.7188 1451.3125,130.8125 Q1451.3125,132.9063 1452,133.9844 Q1452.6875,135.0469 1454.0313,135.0469 Q1454.6563,135.0469 1455.25,134.7813 Q1455.8438,134.5 1456.4688,133.9219 L1456.4688,136.6406 Z " fill="#000000"/><text fill="#000000" font-family="sans-serif" font-size="14" lengthAdjust="spacing" textLength="142.707" x="1467.5" y="135.8467">ObservingProcedure</text><line style="stroke:#181818;stroke-width:0.5;" x1="1439.5" x2="1612.207" y1="147" y2="147"/><line style="stroke:#181818;stroke-width:0.5;" x1="1439.5" x2="1612.207" y1="155" y2="155"/></g><!--class SamplingProcedure--><g class="entity" data-qualified-name="SamplingProcedure" data-source-line="8" id="ent0019"><rect fill="#F1F1F1" height="48" rx="2.5" ry="2.5" style="stroke:#181818;stroke-width:0.5;" width="168.7324" x="1648.5" y="115"/><ellipse cx="1663.5" cy="131" fill="#ADD1B2" rx="11" ry="11" style="stroke:#181818;stroke-width:1;"/><path d="M1666.4688,136.6406 Q1665.8906,136.9375 1665.25,137.0781 Q1664.6094,137.2344 1663.9063,137.2344 Q1661.4063,137.2344 1660.0781,135.5938 Q1658.7656,133.9375 1658.7656,130.8125 Q1658.7656,127.6875 1660.0781,126.0313 Q1661.4063,124.375 1663.9063,124.375 Q1664.6094,124.375 1665.25,124.5313 Q1665.9063,124.6875 1666.4688,124.9844 L1666.4688,127.7031 Q1665.8438,127.125 1665.25,126.8594 Q1664.6563,126.5781 1664.0313,126.5781 Q1662.6875,126.5781 1662,127.6563 Q1661.3125,128.7188 1661.3125,130.8125 Q1661.3125,132.9063 1662,133.9844 Q1662.6875,135.0469 1664.0313,135.0469 Q1664.6563,135.0469 1665.25,134.7813 Q1665.8438,134.5 1666.4688,133.9219 L1666.4688,136.6406 Z " fill="#000000"/><text fill="#000000" font-family="sans-serif" font-size="14" lengthAdjust="spacing" textLength="136.7324" x="1677.5" y="135.8467">SamplingProcedure</text><line style="stroke:#181818;stroke-width:0.5;" x1="1649.5" x2="1816.2324" y1="147" y2="147"/><line style="stroke:#181818;stroke-width:0.5;" x1="1649.5" x2="1816.2324" y1="155" y2="155"/></g><!--class Asset--><g class="entity" data-qualified-name="Asset" data-source-line="9" id="ent0021"><rect fill="#F1F1F1" height="48" rx="2.5" ry="2.5" style="stroke:#181818;stroke-width:0.5;" width="70.2676" x="1924" y="7"/><ellipse cx="1939" cy="23" fill="#ADD1B2" rx="11" ry="11" style="stroke:#181818;stroke-width:1;"/><path d="M1941.9688,28.6406 Q1941.3906,28.9375 1940.75,29.0781 Q1940.1094,29.2344 1939.4063,29.2344 Q1936.9063,29.2344 1935.5781,27.5938 Q1934.2656,25.9375 1934.2656,22.8125 Q1934.2656,19.6875 1935.5781,18.0313 Q1936.9063,16.375 1939.4063,16.375 Q1940.1094,16.375 1940.75,16.5313 Q1941.4063,16.6875 1941.9688,16.9844 L1941.9688,19.7031 Q1941.3438,19.125 1940.75,18.8594 Q1940.1563,18.5781 1939.5313,18.5781 Q1938.1875,18.5781 1937.5,19.6563 Q1936.8125,20.7188 1936.8125,22.8125 Q1936.8125,24.9063 1937.5,25.9844 Q1938.1875,27.0469 1939.5313,27.0469 Q1940.1563,27.0469 1940.75,26.7813 Q1941.3438,26.5 1941.9688,25.9219 L1941.9688,28.6406 Z " fill="#000000"/><text fill="#000000" font-family="sans-serif" font-size="14" lengthAdjust="spacing" textLength="38.2676" x="1953" y="27.8467">Asset</text><line style="stroke:#181818;stroke-width:0.5;" x1="1925" x2="1993.2676" y1="39" y2="39"/><line style="stroke:#181818;stroke-width:0.5;" x1="1925" x2="1993.2676" y1="47" y2="47"/></g><!--class Platform--><g class="entity" data-qualified-name="Platform" data-source-line="9" id="ent0022"><rect fill="#F1F1F1" height="48" rx="2.5" ry="2.5" style="stroke:#181818;stroke-width:0.5;" width="91.2881" x="1852.5" y="115"/><ellipse cx="1867.5" cy="131" fill="#ADD1B2" rx="11" ry="11" style="stroke:#181818;stroke-width:1;"/><path d="M1870.4688,136.6406 Q1869.8906,136.9375 1869.25,137.0781 Q1868.6094,137.2344 1867.9063,137.2344 Q1865.4063,137.2344 1864.0781,135.5938 Q1862.7656,133.9375 1862.7656,130.8125 Q1862.7656,127.6875 1864.0781,126.0313 Q1865.4063,124.375 1867.9063,124.375 Q1868.6094,124.375 1869.25,124.5313 Q1869.9063,124.6875 1870.4688,124.9844 L1870.4688,127.7031 Q1869.8438,127.125 1869.25,126.8594 Q1868.6563,126.5781 1868.0313,126.5781 Q1866.6875,126.5781 1866,127.6563 Q1865.3125,128.7188 1865.3125,130.8125 Q1865.3125,132.9063 1866,133.9844 Q1866.6875,135.0469 1868.0313,135.0469 Q1868.6563,135.0469 1869.25,134.7813 Q1869.8438,134.5 1870.4688,133.9219 L1870.4688,136.6406 Z " fill="#000000"/><text fill="#000000" font-family="sans-serif" font-size="14" lengthAdjust="spacing" textLength="59.2881" x="1881.5" y="135.8467">Platform</text><line style="stroke:#181818;stroke-width:0.5;" x1="1853.5" x2="1942.7881" y1="147" y2="147"/><line style="stroke:#181818;stroke-width:0.5;" x1="1853.5" x2="1942.7881" y1="155" y2="155"/></g><!--class System--><g class="entity" data-qualified-name="System" data-source-line="10" id="ent0024"><rect fill="#F1F1F1" height="48" rx="2.5" ry="2.5" style="stroke:#181818;stroke-width:0.5;" width="84.2061" x="1979" y="115"/><ellipse cx="1994" cy="131" fill="#ADD1B2" rx="11" ry="11" style="stroke:#181818;stroke-width:1;"/><path d="M1996.9688,136.6406 Q1996.3906,136.9375 1995.75,137.0781 Q1995.1094,137.2344 1994.4063,137.2344 Q1991.9063,137.2344 1990.5781,135.5938 Q1989.2656,133.9375 1989.2656,130.8125 Q1989.2656,127.6875 1990.5781,126.0313 Q1991.9063,124.375 1994.4063,124.375 Q1995.1094,124.375 1995.75,124.5313 Q1996.4063,124.6875 1996.9688,124.9844 L1996.9688,127.7031 Q1996.3438,127.125 1995.75,126.8594 Q1995.1563,126.5781 1994.5313,126.5781 Q1993.1875,126.5781 1992.5,127.6563 Q1991.8125,128.7188 1991.8125,130.8125 Q1991.8125,132.9063 1992.5,133.9844 Q1993.1875,135.0469 1994.5313,135.0469 Q1995.1563,135.0469 1995.75,134.7813 Q1996.3438,134.5 1996.9688,133.9219 L1996.9688,136.6406 Z " fill="#000000"/><text fill="#000000" font-family="sans-serif" font-size="14" lengthAdjust="spacing" textLength="52.2061" x="2008" y="135.8467">System</text><line style="stroke:#181818;stroke-width:0.5;" x1="1980" x2="2062.2061" y1="147" y2="147"/><line style="stroke:#181818;stroke-width:0.5;" x1="1980" x2="2062.2061" y1="155" y2="155"/></g><!--class Sampler--><g class="entity" data-qualified-name="Sampler" data-source-line="10" id="ent0025"><rect fill="#F1F1F1" height="48" rx="2.5" ry="2.5" style="stroke:#181818;stroke-width:0.5;" width="90.249" x="1850" y="223"/><ellipse cx="1865" cy="239" fill="#ADD1B2" rx="11" ry="11" style="stroke:#181818;stroke-width:1;"/><path d="M1867.9688,244.6406 Q1867.3906,244.9375 1866.75,245.0781 Q1866.1094,245.2344 1865.4063,245.2344 Q1862.9063,245.2344 1861.5781,243.5938 Q1860.2656,241.9375 1860.2656,238.8125 Q1860.2656,235.6875 1861.5781,234.0313 Q1862.9063,232.375 1865.4063,232.375 Q1866.1094,232.375 1866.75,232.5313 Q1867.4063,232.6875 1867.9688,232.9844 L1867.9688,235.7031 Q1867.3438,235.125 1866.75,234.8594 Q1866.1563,234.5781 1865.5313,234.5781 Q1864.1875,234.5781 1863.5,235.6563 Q1862.8125,236.7188 1862.8125,238.8125 Q1862.8125,240.9063 1863.5,241.9844 Q1864.1875,243.0469 1865.5313,243.0469 Q1866.1563,243.0469 1866.75,242.7813 Q1867.3438,242.5 1867.9688,241.9219 L1867.9688,244.6406 Z " fill="#000000"/><text fill="#000000" font-family="sans-serif" font-size="14" lengthAdjust="spacing" textLength="58.249" x="1879" y="243.8467">Sampler</text><line style="stroke:#181818;stroke-width:0.5;" x1="1851" x2="1939.249" y1="255" y2="255"/><line style="stroke:#181818;stroke-width:0.5;" x1="1851" x2="1939.249" y1="263" y2="263"/></g><!--class Actuator--><g class="entity" data-qualified-name="Actuator" data-source-line="11" id="ent0027"><rect fill="#F1F1F1" height="48" rx="2.5" ry="2.5" style="stroke:#181818;stroke-width:0.5;" width="92.0264" x="1975" y="223"/><ellipse cx="1990" cy="239" fill="#ADD1B2" rx="11" ry="11" style="stroke:#181818;stroke-width:1;"/><path d="M1992.9688,244.6406 Q1992.3906,244.9375 1991.75,245.0781 Q1991.1094,245.2344 1990.4063,245.2344 Q1987.9063,245.2344 1986.5781,243.5938 Q1985.2656,241.9375 1985.2656,238.8125 Q1985.2656,235.6875 1986.5781,234.0313 Q1987.9063,232.375 1990.4063,232.375 Q1991.1094,232.375 1991.75,232.5313 Q1992.4063,232.6875 1992.9688,232.9844 L1992.9688,235.7031 Q1992.3438,235.125 1991.75,234.8594 Q1991.1563,234.5781 1990.5313,234.5781 Q1989.1875,234.5781 1988.5,235.6563 Q1987.8125,236.7188 1987.8125,238.8125 Q1987.8125,240.9063 1988.5,241.9844 Q1989.1875,243.0469 1990.5313,243.0469 Q1991.1563,243.0469 1991.75,242.7813 Q1992.3438,242.5 1992.9688,241.9219 L1992.9688,244.6406 Z " fill="#000000"/><text fill="#000000" font-family="sans-serif" font-size="14" lengthAdjust="spacing" textLength="60.0264" x="2004" y="243.8467">Actuator</text><line style="stroke:#181818;stroke-width:0.5;" x1="1976" x2="2066.0264" y1="255" y2="255"/><line style="stroke:#181818;stroke-width:0.5;" x1="1976" x2="2066.0264" y1="263" y2="263"/></g><!--class ExecutionCollection--><g class="entity" data-qualified-name="ExecutionCollection" data-source-line="12" id="ent0029"><rect fill="#F1F1F1" height="48" rx="2.5" ry="2.5" style="stroke:#181818;stroke-width:0.5;" width="170.3799" x="2299" y="7"/><ellipse cx="2314" cy="23" fill="#ADD1B2" rx="11" ry="11" style="stroke:#181818;stroke-width:1;"/><path d="M2316.9688,28.6406 Q2316.3906,28.9375 2315.75,29.0781 Q2315.1094,29.2344 2314.4063,29.2344 Q2311.9063,29.2344 2310.5781,27.5938 Q2309.2656,25.9375 2309.2656,22.8125 Q2309.2656,19.6875 2310.5781,18.0313 Q2311.9063,16.375 2314.4063,16.375 Q2315.1094,16.375 2315.75,16.5313 Q2316.4063,16.6875 2316.9688,16.9844 L2316.9688,19.7031 Q2316.3438,19.125 2315.75,18.8594 Q2315.1563,18.5781 2314.5313,18.5781 Q2313.1875,18.5781 2312.5,19.6563 Q2311.8125,20.7188 2311.8125,22.8125 Q2311.8125,24.9063 2312.5,25.9844 Q2313.1875,27.0469 2314.5313,27.0469 Q2315.1563,27.0469 2315.75,26.7813 Q2316.3438,26.5 2316.9688,25.9219 L2316.9688,28.6406 Z " fill="#000000"/><text fill="#000000" font-family="sans-serif" font-size="14" lengthAdjust="spacing" textLength="138.3799" x="2328" y="27.8467">ExecutionCollection</text><line style="stroke:#181818;stroke-width:0.5;" x1="2300" x2="2468.3799" y1="39" y2="39"/><line style="stroke:#181818;stroke-width:0.5;" x1="2300" x2="2468.3799" y1="47" y2="47"/></g><!--class SamplingCollection--><g class="entity" data-qualified-name="SamplingCollection" data-source-line="12" id="ent0030"><rect fill="#F1F1F1" height="48" rx="2.5" ry="2.5" style="stroke:#181818;stroke-width:0.5;" width="166.7773" x="2098.5" y="115"/><ellipse cx="2113.5" cy="131" fill="#ADD1B2" rx="11" ry="11" style="stroke:#181818;stroke-width:1;"/><path d="M2116.4688,136.6406 Q2115.8906,136.9375 2115.25,137.0781 Q2114.6094,137.2344 2113.9063,137.2344 Q2111.4063,137.2344 2110.0781,135.5938 Q2108.7656,133.9375 2108.7656,130.8125 Q2108.7656,127.6875 2110.0781,126.0313 Q2111.4063,124.375 2113.9063,124.375 Q2114.6094,124.375 2115.25,124.5313 Q2115.9063,124.6875 2116.4688,124.9844 L2116.4688,127.7031 Q2115.8438,127.125 2115.25,126.8594 Q2114.6563,126.5781 2114.0313,126.5781 Q2112.6875,126.5781 2112,127.6563 Q2111.3125,128.7188 2111.3125,130.8125 Q2111.3125,132.9063 2112,133.9844 Q2112.6875,135.0469 2114.0313,135.0469 Q2114.6563,135.0469 2115.25,134.7813 Q2115.8438,134.5 2116.4688,133.9219 L2116.4688,136.6406 Z " fill="#000000"/><text fill="#000000" font-family="sans-serif" font-size="14" lengthAdjust="spacing" textLength="134.7773" x="2127.5" y="135.8467">SamplingCollection</text><line style="stroke:#181818;stroke-width:0.5;" x1="2099.5" x2="2264.2773" y1="147" y2="147"/><line style="stroke:#181818;stroke-width:0.5;" x1="2099.5" x2="2264.2773" y1="155" y2="155"/></g><!--class Sensor--><g class="entity" data-qualified-name="Sensor" data-source-line="14" id="ent0033"><rect fill="#F1F1F1" height="48" rx="2.5" ry="2.5" style="stroke:#181818;stroke-width:0.5;" width="79.9883" x="2102" y="223"/><ellipse cx="2117" cy="239" fill="#ADD1B2" rx="11" ry="11" style="stroke:#181818;stroke-width:1;"/><path d="M2119.9688,244.6406 Q2119.3906,244.9375 2118.75,245.0781 Q2118.1094,245.2344 2117.4063,245.2344 Q2114.9063,245.2344 2113.5781,243.5938 Q2112.2656,241.9375 2112.2656,238.8125 Q2112.2656,235.6875 2113.5781,234.0313 Q2114.9063,232.375 2117.4063,232.375 Q2118.1094,232.375 2118.75,232.5313 Q2119.4063,232.6875 2119.9688,232.9844 L2119.9688,235.7031 Q2119.3438,235.125 2118.75,234.8594 Q2118.1563,234.5781 2117.5313,234.5781 Q2116.1875,234.5781 2115.5,235.6563 Q2114.8125,236.7188 2114.8125,238.8125 Q2114.8125,240.9063 2115.5,241.9844 Q2116.1875,243.0469 2117.5313,243.0469 Q2118.1563,243.0469 2118.75,242.7813 Q2119.3438,242.5 2119.9688,241.9219 L2119.9688,244.6406 Z " fill="#000000"/><text fill="#000000" font-family="sans-serif" font-size="14" lengthAdjust="spacing" textLength="47.9883" x="2131" y="243.8467">Sensor</text><line style="stroke:#181818;stroke-width:0.5;" x1="2103" x2="2180.9883" y1="255" y2="255"/><line style="stroke:#181818;stroke-width:0.5;" x1="2103" x2="2180.9883" y1="263" y2="263"/></g><!--class Execution--><g class="entity" data-qualified-name="Execution" data-source-line="15" id="ent0035"><rect fill="#F1F1F1" height="48" rx="2.5" ry="2.5" style="stroke:#181818;stroke-width:0.5;" width="101.1318" x="2856.5" y="7"/><ellipse cx="2871.5" cy="23" fill="#ADD1B2" rx="11" ry="11" style="stroke:#181818;stroke-width:1;"/><path d="M2874.4688,28.6406 Q2873.8906,28.9375 2873.25,29.0781 Q2872.6094,29.2344 2871.9063,29.2344 Q2869.4063,29.2344 2868.0781,27.5938 Q2866.7656,25.9375 2866.7656,22.8125 Q2866.7656,19.6875 2868.0781,18.0313 Q2869.4063,16.375 2871.9063,16.375 Q2872.6094,16.375 2873.25,16.5313 Q2873.9063,16.6875 2874.4688,16.9844 L2874.4688,19.7031 Q2873.8438,19.125 2873.25,18.8594 Q2872.6563,18.5781 2872.0313,18.5781 Q2870.6875,18.5781 2870,19.6563 Q2869.3125,20.7188 2869.3125,22.8125 Q2869.3125,24.9063 2870,25.9844 Q2870.6875,27.0469 2872.0313,27.0469 Q2872.6563,27.0469 2873.25,26.7813 Q2873.8438,26.5 2874.4688,25.9219 L2874.4688,28.6406 Z " fill="#000000"/><text fill="#000000" font-family="sans-serif" font-size="14" lengthAdjust="spacing" textLength="69.1318" x="2885.5" y="27.8467">Execution</text><line style="stroke:#181818;stroke-width:0.5;" x1="2857.5" x2="2956.6318" y1="39" y2="39"/><line style="stroke:#181818;stroke-width:0.5;" x1="2857.5" x2="2956.6318" y1="47" y2="47"/></g><!--class Sampling--><g class="entity" data-qualified-name="Sampling" data-source-line="15" id="ent0036"><rect fill="#F1F1F1" height="48" rx="2.5" ry="2.5" style="stroke:#181818;stroke-width:0.5;" width="97.5293" x="2724" y="115"/><ellipse cx="2739" cy="131" fill="#ADD1B2" rx="11" ry="11" style="stroke:#181818;stroke-width:1;"/><path d="M2741.9688,136.6406 Q2741.3906,136.9375 2740.75,137.0781 Q2740.1094,137.2344 2739.4063,137.2344 Q2736.9063,137.2344 2735.5781,135.5938 Q2734.2656,133.9375 2734.2656,130.8125 Q2734.2656,127.6875 2735.5781,126.0313 Q2736.9063,124.375 2739.4063,124.375 Q2740.1094,124.375 2740.75,124.5313 Q2741.4063,124.6875 2741.9688,124.9844 L2741.9688,127.7031 Q2741.3438,127.125 2740.75,126.8594 Q2740.1563,126.5781 2739.5313,126.5781 Q2738.1875,126.5781 2737.5,127.6563 Q2736.8125,128.7188 2736.8125,130.8125 Q2736.8125,132.9063 2737.5,133.9844 Q2738.1875,135.0469 2739.5313,135.0469 Q2740.1563,135.0469 2740.75,134.7813 Q2741.3438,134.5 2741.9688,133.9219 L2741.9688,136.6406 Z " fill="#000000"/><text fill="#000000" font-family="sans-serif" font-size="14" lengthAdjust="spacing" textLength="65.5293" x="2753" y="135.8467">Sampling</text><line style="stroke:#181818;stroke-width:0.5;" x1="2725" x2="2820.5293" y1="147" y2="147"/><line style="stroke:#181818;stroke-width:0.5;" x1="2725" x2="2820.5293" y1="155" y2="155"/></g><!--class Actuation--><g class="entity" data-qualified-name="Actuation" data-source-line="16" id="ent0038"><rect fill="#F1F1F1" height="48" rx="2.5" ry="2.5" style="stroke:#181818;stroke-width:0.5;" width="99.0332" x="2857.5" y="115"/><ellipse cx="2872.5" cy="131" fill="#ADD1B2" rx="11" ry="11" style="stroke:#181818;stroke-width:1;"/><path d="M2875.4688,136.6406 Q2874.8906,136.9375 2874.25,137.0781 Q2873.6094,137.2344 2872.9063,137.2344 Q2870.4063,137.2344 2869.0781,135.5938 Q2867.7656,133.9375 2867.7656,130.8125 Q2867.7656,127.6875 2869.0781,126.0313 Q2870.4063,124.375 2872.9063,124.375 Q2873.6094,124.375 2874.25,124.5313 Q2874.9063,124.6875 2875.4688,124.9844 L2875.4688,127.7031 Q2874.8438,127.125 2874.25,126.8594 Q2873.6563,126.5781 2873.0313,126.5781 Q2871.6875,126.5781 2871,127.6563 Q2870.3125,128.7188 2870.3125,130.8125 Q2870.3125,132.9063 2871,133.9844 Q2871.6875,135.0469 2873.0313,135.0469 Q2873.6563,135.0469 2874.25,134.7813 Q2874.8438,134.5 2875.4688,133.9219 L2875.4688,136.6406 Z " fill="#000000"/><text fill="#000000" font-family="sans-serif" font-size="14" lengthAdjust="spacing" textLength="67.0332" x="2886.5" y="135.8467">Actuation</text><line style="stroke:#181818;stroke-width:0.5;" x1="2858.5" x2="2955.5332" y1="147" y2="147"/><line style="stroke:#181818;stroke-width:0.5;" x1="2858.5" x2="2955.5332" y1="155" y2="155"/></g><!--class ActuationCollection--><g class="entity" data-qualified-name="ActuationCollection" data-source-line="17" id="ent0040"><rect fill="#F1F1F1" height="48" rx="2.5" ry="2.5" style="stroke:#181818;stroke-width:0.5;" width="168.2813" x="2300" y="115"/><ellipse cx="2315" cy="131" fill="#ADD1B2" rx="11" ry="11" style="stroke:#181818;stroke-width:1;"/><path d="M2317.9688,136.6406 Q2317.3906,136.9375 2316.75,137.0781 Q2316.1094,137.2344 2315.4063,137.2344 Q2312.9063,137.2344 2311.5781,135.5938 Q2310.2656,133.9375 2310.2656,130.8125 Q2310.2656,127.6875 2311.5781,126.0313 Q2312.9063,124.375 2315.4063,124.375 Q2316.1094,124.375 2316.75,124.5313 Q2317.4063,124.6875 2317.9688,124.9844 L2317.9688,127.7031 Q2317.3438,127.125 2316.75,126.8594 Q2316.1563,126.5781 2315.5313,126.5781 Q2314.1875,126.5781 2313.5,127.6563 Q2312.8125,128.7188 2312.8125,130.8125 Q2312.8125,132.9063 2313.5,133.9844 Q2314.1875,135.0469 2315.5313,135.0469 Q2316.1563,135.0469 2316.75,134.7813 Q2317.3438,134.5 2317.9688,133.9219 L2317.9688,136.6406 Z " fill="#000000"/><text fill="#000000" font-family="sans-serif" font-size="14" lengthAdjust="spacing" textLength="136.2813" x="2329" y="135.8467">ActuationCollection</text><line style="stroke:#181818;stroke-width:0.5;" x1="2301" x2="2467.2813" y1="147" y2="147"/><line style="stroke:#181818;stroke-width:0.5;" x1="2301" x2="2467.2813" y1="155" y2="155"/></g><!--class ObservationCollection--><g class="entity" data-qualified-name="ObservationCollection" data-source-line="18" id="ent0042"><rect fill="#F1F1F1" height="48" rx="2.5" ry="2.5" style="stroke:#181818;stroke-width:0.5;" width="186.499" x="2503" y="115"/><ellipse cx="2518" cy="131" fill="#ADD1B2" rx="11" ry="11" style="stroke:#181818;stroke-width:1;"/><path d="M2520.9688,136.6406 Q2520.3906,136.9375 2519.75,137.0781 Q2519.1094,137.2344 2518.4063,137.2344 Q2515.9063,137.2344 2514.5781,135.5938 Q2513.2656,133.9375 2513.2656,130.8125 Q2513.2656,127.6875 2514.5781,126.0313 Q2515.9063,124.375 2518.4063,124.375 Q2519.1094,124.375 2519.75,124.5313 Q2520.4063,124.6875 2520.9688,124.9844 L2520.9688,127.7031 Q2520.3438,127.125 2519.75,126.8594 Q2519.1563,126.5781 2518.5313,126.5781 Q2517.1875,126.5781 2516.5,127.6563 Q2515.8125,128.7188 2515.8125,130.8125 Q2515.8125,132.9063 2516.5,133.9844 Q2517.1875,135.0469 2518.5313,135.0469 Q2519.1563,135.0469 2519.75,134.7813 Q2520.3438,134.5 2520.9688,133.9219 L2520.9688,136.6406 Z " fill="#000000"/><text fill="#000000" font-family="sans-serif" font-size="14" lengthAdjust="spacing" textLength="154.499" x="2532" y="135.8467">ObservationCollection</text><line style="stroke:#181818;stroke-width:0.5;" x1="2504" x2="2688.499" y1="147" y2="147"/><line style="stroke:#181818;stroke-width:0.5;" x1="2504" x2="2688.499" y1="155" y2="155"/></g><!--class Observation--><g class="entity" data-qualified-name="Observation" data-source-line="19" id="ent0044"><rect fill="#F1F1F1" height="48" rx="2.5" ry="2.5" style="stroke:#181818;stroke-width:0.5;" width="117.251" x="2991.5" y="115"/><ellipse cx="3006.5" cy="131" fill="#ADD1B2" rx="11" ry="11" style="stroke:#181818;stroke-width:1;"/><path d="M3009.4688,136.6406 Q3008.8906,136.9375 3008.25,137.0781 Q3007.6094,137.2344 3006.9063,137.2344 Q3004.4063,137.2344 3003.0781,135.5938 Q3001.7656,133.9375 3001.7656,130.8125 Q3001.7656,127.6875 3003.0781,126.0313 Q3004.4063,124.375 3006.9063,124.375 Q3007.6094,124.375 3008.25,124.5313 Q3008.9063,124.6875 3009.4688,124.9844 L3009.4688,127.7031 Q3008.8438,127.125 3008.25,126.8594 Q3007.6563,126.5781 3007.0313,126.5781 Q3005.6875,126.5781 3005,127.6563 Q3004.3125,128.7188 3004.3125,130.8125 Q3004.3125,132.9063 3005,133.9844 Q3005.6875,135.0469 3007.0313,135.0469 Q3007.6563,135.0469 3008.25,134.7813 Q3008.8438,134.5 3009.4688,133.9219 L3009.4688,136.6406 Z " fill="#000000"/><text fill="#000000" font-family="sans-serif" font-size="14" lengthAdjust="spacing" textLength="85.251" x="3020.5" y="135.8467">Observation</text><line style="stroke:#181818;stroke-width:0.5;" x1="2992.5" x2="3107.751" y1="147" y2="147"/><line style="stroke:#181818;stroke-width:0.5;" x1="2992.5" x2="3107.751" y1="155" y2="155"/></g><!--class Result--><g class="entity" data-qualified-name="Result" data-source-line="20" id="ent0046"><rect fill="#F1F1F1" height="48" rx="2.5" ry="2.5" style="stroke:#181818;stroke-width:0.5;" width="75.8867" x="28" y="7"/><ellipse cx="43" cy="23" fill="#ADD1B2" rx="11" ry="11" style="stroke:#181818;stroke-width:1;"/><path d="M45.9688,28.6406 Q45.3906,28.9375 44.75,29.0781 Q44.1094,29.2344 43.4063,29.2344 Q40.9063,29.2344 39.5781,27.5938 Q38.2656,25.9375 38.2656,22.8125 Q38.2656,19.6875 39.5781,18.0313 Q40.9063,16.375 43.4063,16.375 Q44.1094,16.375 44.75,16.5313 Q45.4063,16.6875 45.9688,16.9844 L45.9688,19.7031 Q45.3438,19.125 44.75,18.8594 Q44.1563,18.5781 43.5313,18.5781 Q42.1875,18.5781 41.5,19.6563 Q40.8125,20.7188 40.8125,22.8125 Q40.8125,24.9063 41.5,25.9844 Q42.1875,27.0469 43.5313,27.0469 Q44.1563,27.0469 44.75,26.7813 Q45.3438,26.5 45.9688,25.9219 L45.9688,28.6406 Z " fill="#000000"/><text fill="#000000" font-family="sans-serif" font-size="14" lengthAdjust="spacing" textLength="43.8867" x="57" y="27.8467">Result</text><line style="stroke:#181818;stroke-width:0.5;" x1="29" x2="102.8867" y1="39" y2="39"/><line style="stroke:#181818;stroke-width:0.5;" x1="29" x2="102.8867" y1="47" y2="47"/></g><!--class FeatureOfInterest--><g class="entity" data-qualified-name="FeatureOfInterest" data-source-line="21" id="ent0047"><rect fill="#F1F1F1" height="48" rx="2.5" ry="2.5" style="stroke:#181818;stroke-width:0.5;" width="156.1816" x="139" y="7"/><ellipse cx="154" cy="23" fill="#ADD1B2" rx="11" ry="11" style="stroke:#181818;stroke-width:1;"/><path d="M156.9688,28.6406 Q156.3906,28.9375 155.75,29.0781 Q155.1094,29.2344 154.4063,29.2344 Q151.9063,29.2344 150.5781,27.5938 Q149.2656,25.9375 149.2656,22.8125 Q149.2656,19.6875 150.5781,18.0313 Q151.9063,16.375 154.4063,16.375 Q155.1094,16.375 155.75,16.5313 Q156.4063,16.6875 156.9688,16.9844 L156.9688,19.7031 Q156.3438,19.125 155.75,18.8594 Q155.1563,18.5781 154.5313,18.5781 Q153.1875,18.5781 152.5,19.6563 Q151.8125,20.7188 151.8125,22.8125 Q151.8125,24.9063 152.5,25.9844 Q153.1875,27.0469 154.5313,27.0469 Q155.1563,27.0469 155.75,26.7813 Q156.3438,26.5 156.9688,25.9219 L156.9688,28.6406 Z " fill="#000000"/><text fill="#000000" font-family="sans-serif" font-size="14" lengthAdjust="spacing" textLength="124.1816" x="168" y="27.8467">FeatureOfInterest</text><line style="stroke:#181818;stroke-width:0.5;" x1="140" x2="294.1816" y1="39" y2="39"/><line style="stroke:#181818;stroke-width:0.5;" x1="140" x2="294.1816" y1="47" y2="47"/></g><!--class SampleCollection--><g class="entity" data-qualified-name="SampleCollection" data-source-line="22" id="ent0048"><rect fill="#F1F1F1" height="48" rx="2.5" ry="2.5" style="stroke:#181818;stroke-width:0.5;" width="153.7412" x="330" y="7"/><ellipse cx="345" cy="23" fill="#ADD1B2" rx="11" ry="11" style="stroke:#181818;stroke-width:1;"/><path d="M347.9688,28.6406 Q347.3906,28.9375 346.75,29.0781 Q346.1094,29.2344 345.4063,29.2344 Q342.9063,29.2344 341.5781,27.5938 Q340.2656,25.9375 340.2656,22.8125 Q340.2656,19.6875 341.5781,18.0313 Q342.9063,16.375 345.4063,16.375 Q346.1094,16.375 346.75,16.5313 Q347.4063,16.6875 347.9688,16.9844 L347.9688,19.7031 Q347.3438,19.125 346.75,18.8594 Q346.1563,18.5781 345.5313,18.5781 Q344.1875,18.5781 343.5,19.6563 Q342.8125,20.7188 342.8125,22.8125 Q342.8125,24.9063 343.5,25.9844 Q344.1875,27.0469 345.5313,27.0469 Q346.1563,27.0469 346.75,26.7813 Q347.3438,26.5 347.9688,25.9219 L347.9688,28.6406 Z " fill="#000000"/><text fill="#000000" font-family="sans-serif" font-size="14" lengthAdjust="spacing" textLength="121.7412" x="359" y="27.8467">SampleCollection</text><line style="stroke:#181818;stroke-width:0.5;" x1="331" x2="482.7412" y1="39" y2="39"/><line style="stroke:#181818;stroke-width:0.5;" x1="331" x2="482.7412" y1="47" y2="47"/></g><!--class Deployment--><g class="entity" data-qualified-name="Deployment" data-source-line="23" id="ent0049"><rect fill="#F1F1F1" height="48" rx="2.5" ry="2.5" style="stroke:#181818;stroke-width:0.5;" width="117.6338" x="7" y="115"/><ellipse cx="22" cy="131" fill="#ADD1B2" rx="11" ry="11" style="stroke:#181818;stroke-width:1;"/><path d="M24.9688,136.6406 Q24.3906,136.9375 23.75,137.0781 Q23.1094,137.2344 22.4063,137.2344 Q19.9063,137.2344 18.5781,135.5938 Q17.2656,133.9375 17.2656,130.8125 Q17.2656,127.6875 18.5781,126.0313 Q19.9063,124.375 22.4063,124.375 Q23.1094,124.375 23.75,124.5313 Q24.4063,124.6875 24.9688,124.9844 L24.9688,127.7031 Q24.3438,127.125 23.75,126.8594 Q23.1563,126.5781 22.5313,126.5781 Q21.1875,126.5781 20.5,127.6563 Q19.8125,128.7188 19.8125,130.8125 Q19.8125,132.9063 20.5,133.9844 Q21.1875,135.0469 22.5313,135.0469 Q23.1563,135.0469 23.75,134.7813 Q24.3438,134.5 24.9688,133.9219 L24.9688,136.6406 Z " fill="#000000"/><text fill="#000000" font-family="sans-serif" font-size="14" lengthAdjust="spacing" textLength="85.6338" x="36" y="135.8467">Deployment</text><line style="stroke:#181818;stroke-width:0.5;" x1="8" x2="123.6338" y1="147" y2="147"/><line style="stroke:#181818;stroke-width:0.5;" x1="8" x2="123.6338" y1="155" y2="155"/></g><!--class Stimulus--><g class="entity" data-qualified-name="Stimulus" data-source-line="24" id="ent0050"><rect fill="#F1F1F1" height="48" rx="2.5" ry="2.5" style="stroke:#181818;stroke-width:0.5;" width="92.833" x="160.5" y="115"/><ellipse cx="175.5" cy="131" fill="#ADD1B2" rx="11" ry="11" style="stroke:#181818;stroke-width:1;"/><path d="M178.4688,136.6406 Q177.8906,136.9375 177.25,137.0781 Q176.6094,137.2344 175.9063,137.2344 Q173.4063,137.2344 172.0781,135.5938 Q170.7656,133.9375 170.7656,130.8125 Q170.7656,127.6875 172.0781,126.0313 Q173.4063,124.375 175.9063,124.375 Q176.6094,124.375 177.25,124.5313 Q177.9063,124.6875 178.4688,124.9844 L178.4688,127.7031 Q177.8438,127.125 177.25,126.8594 Q176.6563,126.5781 176.0313,126.5781 Q174.6875,126.5781 174,127.6563 Q173.3125,128.7188 173.3125,130.8125 Q173.3125,132.9063 174,133.9844 Q174.6875,135.0469 176.0313,135.0469 Q176.6563,135.0469 177.25,134.7813 Q177.8438,134.5 178.4688,133.9219 L178.4688,136.6406 Z " fill="#000000"/><text fill="#000000" font-family="sans-serif" font-size="14" lengthAdjust="spacing" textLength="60.833" x="189.5" y="135.8467">Stimulus</text><line style="stroke:#181818;stroke-width:0.5;" x1="161.5" x2="252.333" y1="147" y2="147"/><line style="stroke:#181818;stroke-width:0.5;" x1="161.5" x2="252.333" y1="155" y2="155"/></g><!--reverse link Property to ActuatableProperty--><g class="link" data-entity-1="ent0002" data-entity-2="ent0003" data-link-type="extension" data-source-line="1" id="lnk4"><path codeLine="1" d="M511.9339,63.4636 C478.6739,81.1836 448.77,97.11 415.44,114.86" fill="none" id="Property-backto-ActuatableProperty" style="stroke:#181818;stroke-width:1;"/><polygon fill="none" points="527.82,55,509.1127,58.1683,514.7552,68.759,527.82,55" style="stroke:#181818;stroke-width:1;"/></g><!--reverse link Sample to MaterialSample--><g class="link" data-entity-1="ent0005" data-entity-2="ent0006" data-link-type="extension" data-source-line="2" id="lnk7"><path codeLine="2" d="M888.3567,64.4445 C859.6067,82.1645 835.35,97.11 806.55,114.86" fill="none" id="Sample-backto-MaterialSample" style="stroke:#181818;stroke-width:1;"/><polygon fill="none" points="903.68,55,885.2086,59.3367,891.5049,69.5522,903.68,55" style="stroke:#181818;stroke-width:1;"/></g><!--reverse link Property to ObservableProperty--><g class="link" data-entity-1="ent0002" data-entity-2="ent0008" data-link-type="extension" data-source-line="3" id="lnk9"><path codeLine="3" d="M573.3176,72.9712 C574.3176,90.6312 574.68,96.94 575.68,114.68" fill="none" id="Property-backto-ObservableProperty" style="stroke:#181818;stroke-width:1;"/><polygon fill="none" points="572.3,55,567.3272,73.3104,579.308,72.632,572.3,55" style="stroke:#181818;stroke-width:1;"/></g><!--reverse link Sample to SpatialSample--><g class="link" data-entity-1="ent0005" data-entity-2="ent0010" data-link-type="extension" data-source-line="4" id="lnk11"><path codeLine="4" d="M941,73 C941,90.66 941,96.94 941,114.68" fill="none" id="Sample-backto-SpatialSample" style="stroke:#181818;stroke-width:1;"/><polygon fill="none" points="941,55,935,73,947,73,941,55" style="stroke:#181818;stroke-width:1;"/></g><!--reverse link Sample to StatisticalSample--><g class="link" data-entity-1="ent0005" data-entity-2="ent0012" data-link-type="extension" data-source-line="5" id="lnk13"><path codeLine="5" d="M995.3276,64.1725 C1025.2476,81.8925 1050.95,97.11 1080.93,114.86" fill="none" id="Sample-backto-StatisticalSample" style="stroke:#181818;stroke-width:1;"/><polygon fill="none" points="979.84,55,992.2701,69.335,998.3851,59.0099,979.84,55" style="stroke:#181818;stroke-width:1;"/></g><!--reverse link Procedure to ActuatingProcedure--><g class="link" data-entity-1="ent0014" data-entity-2="ent0015" data-link-type="extension" data-source-line="6" id="lnk16"><path codeLine="6" d="M1464.8326,63.1732 C1430.0626,80.8932 1398.24,97.11 1363.4,114.86" fill="none" id="Procedure-backto-ActuatingProcedure" style="stroke:#181818;stroke-width:1;"/><polygon fill="none" points="1480.87,55,1462.1082,57.8274,1467.557,68.519,1480.87,55" style="stroke:#181818;stroke-width:1;"/></g><!--reverse link Procedure to ObservingProcedure--><g class="link" data-entity-1="ent0014" data-entity-2="ent0017" data-link-type="extension" data-source-line="7" id="lnk18"><path codeLine="7" d="M1526,73 C1526,90.66 1526,96.94 1526,114.68" fill="none" id="Procedure-backto-ObservingProcedure" style="stroke:#181818;stroke-width:1;"/><polygon fill="none" points="1526,55,1520,73,1532,73,1526,55" style="stroke:#181818;stroke-width:1;"/></g><!--reverse link Procedure to SamplingProcedure--><g class="link" data-entity-1="ent0014" data-entity-2="ent0019" data-link-type="extension" data-source-line="8" id="lnk20"><path codeLine="8" d="M1586.9411,63.205 C1621.5411,80.925 1653.15,97.11 1687.81,114.86" fill="none" id="Procedure-backto-SamplingProcedure" style="stroke:#181818;stroke-width:1;"/><polygon fill="none" points="1570.92,55,1584.2061,68.5454,1589.6762,57.8647,1570.92,55" style="stroke:#181818;stroke-width:1;"/></g><!--reverse link Asset to Platform--><g class="link" data-entity-1="ent0021" data-entity-2="ent0022" data-link-type="extension" data-source-line="9" id="lnk23"><path codeLine="9" d="M1936.7839,70.6022 C1926.6239,88.2622 1921.63,96.94 1911.42,114.68" fill="none" id="Asset-backto-Platform" style="stroke:#181818;stroke-width:1;"/><polygon fill="none" points="1945.76,55,1931.5831,67.6102,1941.9846,73.5943,1945.76,55" style="stroke:#181818;stroke-width:1;"/></g><!--reverse link System to Sampler--><g class="link" data-entity-1="ent0024" data-entity-2="ent0025" data-link-type="extension" data-source-line="10" id="lnk26"><path codeLine="10" d="M1979.8865,174.5884 C1958.8965,192.2484 1943.81,204.94 1922.72,222.68" fill="none" id="System-backto-Sampler" style="stroke:#181818;stroke-width:1;"/><polygon fill="none" points="1993.66,163,1976.0237,169.9972,1983.7493,179.1795,1993.66,163" style="stroke:#181818;stroke-width:1;"/></g><!--reverse link System to Actuator--><g class="link" data-entity-1="ent0024" data-entity-2="ent0027" data-link-type="extension" data-source-line="11" id="lnk28"><path codeLine="11" d="M2021,181 C2021,198.66 2021,204.94 2021,222.68" fill="none" id="System-backto-Actuator" style="stroke:#181818;stroke-width:1;"/><polygon fill="none" points="2021,163,2015,181,2027,181,2021,163" style="stroke:#181818;stroke-width:1;"/></g><!--reverse link ExecutionCollection to SamplingCollection--><g class="link" data-entity-1="ent0029" data-entity-2="ent0030" data-link-type="extension" data-source-line="12" id="lnk31"><path codeLine="12" d="M2324.231,63.3636 C2290.461,81.0836 2259.93,97.11 2226.09,114.86" fill="none" id="ExecutionCollection-backto-SamplingCollection" style="stroke:#181818;stroke-width:1;"/><polygon fill="none" points="2340.17,55,2321.4432,58.0506,2327.0189,68.6766,2340.17,55" style="stroke:#181818;stroke-width:1;"/></g><!--reverse link Asset to System--><g class="link" data-entity-1="ent0021" data-entity-2="ent0024" data-link-type="extension" data-source-line="13" id="lnk32"><path codeLine="13" d="M1981.5383,70.5372 C1991.8683,88.1972 1996.98,96.94 2007.36,114.68" fill="none" id="Asset-backto-System" style="stroke:#181818;stroke-width:1;"/><polygon fill="none" points="1972.45,55,1976.3592,73.5666,1986.7173,67.5077,1972.45,55" style="stroke:#181818;stroke-width:1;"/></g><!--reverse link System to Sensor--><g class="link" data-entity-1="ent0024" data-entity-2="ent0033" data-link-type="extension" data-source-line="14" id="lnk34"><path codeLine="14" d="M2060.7968,174.864 C2080.9468,192.524 2095.13,204.94 2115.38,222.68" fill="none" id="System-backto-Sensor" style="stroke:#181818;stroke-width:1;"/><polygon fill="none" points="2047.26,163,2056.8421,179.3763,2064.7515,170.3518,2047.26,163" style="stroke:#181818;stroke-width:1;"/></g><!--reverse link Execution to Sampling--><g class="link" data-entity-1="ent0035" data-entity-2="ent0036" data-link-type="extension" data-source-line="15" id="lnk37"><path codeLine="15" d="M2863.8041,66.1688 C2841.4841,83.8288 2824.91,96.94 2802.48,114.68" fill="none" id="Execution-backto-Sampling" style="stroke:#181818;stroke-width:1;"/><polygon fill="none" points="2877.92,55,2860.0812,61.4635,2867.527,70.8741,2877.92,55" style="stroke:#181818;stroke-width:1;"/></g><!--reverse link Execution to Actuation--><g class="link" data-entity-1="ent0035" data-entity-2="ent0038" data-link-type="extension" data-source-line="16" id="lnk39"><path codeLine="16" d="M2907,73 C2907,90.66 2907,96.94 2907,114.68" fill="none" id="Execution-backto-Actuation" style="stroke:#181818;stroke-width:1;"/><polygon fill="none" points="2907,55,2901,73,2913,73,2907,55" style="stroke:#181818;stroke-width:1;"/></g><!--reverse link ExecutionCollection to ActuationCollection--><g class="link" data-entity-1="ent0029" data-entity-2="ent0040" data-link-type="extension" data-source-line="17" id="lnk41"><path codeLine="17" d="M2384,73 C2384,90.66 2384,96.94 2384,114.68" fill="none" id="ExecutionCollection-backto-ActuationCollection" style="stroke:#181818;stroke-width:1;"/><polygon fill="none" points="2384,55,2378,73,2390,73,2384,55" style="stroke:#181818;stroke-width:1;"/></g><!--reverse link ExecutionCollection to ObservationCollection--><g class="link" data-entity-1="ent0029" data-entity-2="ent0042" data-link-type="extension" data-source-line="18" id="lnk43"><path codeLine="18" d="M2446.0997,63.0498 C2481.5397,80.7698 2514.22,97.11 2549.72,114.86" fill="none" id="ExecutionCollection-backto-ObservationCollection" style="stroke:#181818;stroke-width:1;"/><polygon fill="none" points="2430,55,2443.4164,68.4164,2448.783,57.6833,2430,55" style="stroke:#181818;stroke-width:1;"/></g><!--reverse link Execution to Observation--><g class="link" data-entity-1="ent0035" data-entity-2="ent0044" data-link-type="extension" data-source-line="19" id="lnk45"><path codeLine="19" d="M2952.4895,65.7202 C2976.3095,83.3802 2994.61,96.94 3018.54,114.68" fill="none" id="Execution-backto-Observation" style="stroke:#181818;stroke-width:1;"/><polygon fill="none" points="2938.03,55,2948.9161,70.54,2956.0629,60.9004,2938.03,55" style="stroke:#181818;stroke-width:1;"/></g><?plantuml-src VL9RRiCW4Fpd5Bv0Rj2Vg0-f7rMi-WGRCgcG5h3O9Qgb7hvESHr8vVx1pEpCQA5FSKJIgNluskswlTLCIaT6l-1c83yo2lr6YkI82sRwPlPm5AJBvkmmajv66qPdHjJPsjZYb1FgLYvyhFYzecJ_f_XnRWHx4MWXUoOzn-JDC8d2LnD83LQQn6IUFs6pkXWU8pFizTJctF0wg7YrCGXI6xOsz_YoYjbriy4ggIfiYfT7svB_4HdB9DAzGpBhSda1wRpGm_arpDy3yekN1LQs1Nx2o77o2AjEdS-SvHi0?></g></svg>