<svg xmlns="http://www.w3.org/2000/svg" xmlns:xlink="http://www.w3.org/1999/xlink" contentStyleType="text/css" data-diagram-type="CLASS" height="286px" preserveAspectRatio="none" style="width:3252px;height:286px;background:#FFFFFF;" version="1.1" viewBox="0 0 3252 286" width="3252px" zoomAndPan="magnify"><?plantuml 1.2026.6?><defs/><g><!--class Property--><g class="entity" data-qualified-name="Property" data-source-line="1" id="ent0001"><rect fill="#F1F1F1" height="48" rx="2.5" ry="2.5" style="stroke:#181818;stroke-width:0.5;" width="91.7939" x="557" y="7"/><ellipse cx="572" cy="23" fill="#ADD1B2" rx="11" ry="11" style="stroke:#181818;stroke-width:1;"/><path d="M574.9688,28.6406 Q574.3906,28.9375 573.75,29.0781 Q573.1094,29.2344 572.4063,29.2344 Q569.9063,29.2344 568.5781,27.5938 Q567.2656,25.9375 567.2656,22.8125 Q567.2656,19.6875 568.5781,18.0313 Q569.9063,16.375 572.4063,16.375 Q573.1094,16.375 573.75,16.5313 Q574.4063,16.6875 574.9688,16.9844 L574.9688,19.7031 Q574.3438,19.125 573.75,18.8594 Q573.1563,18.5781 572.5313,18.5781 Q571.1875,18.5781 570.5,19.6563 Q569.8125,20.7188 569.8125,22.8125 Q569.8125,24.9063 570.5,25.9844 Q571.1875,27.0469 572.5313,27.0469 Q573.1563,27.0469 573.75,26.7813 Q574.3438,26.5 574.9688,25.9219 L574.9688,28.6406 Z " fill="#000000"/><text fill="#000000" font-family="sans-serif" font-size="14" lengthAdjust="spacing" textLength="59.7939" x="586" y="27.8467">Property</text><line style="stroke:#181818;stroke-width:0.5;" x1="558" x2="647.7939" y1="39" y2="39"/><line style="stroke:#181818;stroke-width:0.5;" x1="558" x2="647.7939" y1="47" y2="47"/></g><!--class ActuatableProperty--><g class="entity" data-qualified-name="ActuatableProperty" data-source-line="1" id="ent0002"><rect fill="#F1F1F1" height="48" rx="2.5" ry="2.5" style="stroke:#181818;stroke-width:0.5;" width="167.4678" x="417.5" y="115"/><ellipse cx="432.5" cy="131" fill="#ADD1B2" rx="11" ry="11" style="stroke:#181818;stroke-width:1;"/><path d="M435.4688,136.6406 Q434.8906,136.9375 434.25,137.0781 Q433.6094,137.2344 432.9063,137.2344 Q430.4063,137.2344 429.0781,135.5938 Q427.7656,133.9375 427.7656,130.8125 Q427.7656,127.6875 429.0781,126.0313 Q430.4063,124.375 432.9063,124.375 Q433.6094,124.375 434.25,124.5313 Q434.9063,124.6875 435.4688,124.9844 L435.4688,127.7031 Q434.8438,127.125 434.25,126.8594 Q433.6563,126.5781 433.0313,126.5781 Q431.6875,126.5781 431,127.6563 Q430.3125,128.7188 430.3125,130.8125 Q430.3125,132.9063 431,133.9844 Q431.6875,135.0469 433.0313,135.0469 Q433.6563,135.0469 434.25,134.7813 Q434.8438,134.5 435.4688,133.9219 L435.4688,136.6406 Z " fill="#000000"/><text fill="#000000" font-family="sans-serif" font-size="14" lengthAdjust="spacing" textLength="135.4678" x="446.5" y="135.8467">ActuatableProperty</text><line style="stroke:#181818;stroke-width:0.5;" x1="418.5" x2="583.9678" y1="147" y2="147"/><line style="stroke:#181818;stroke-width:0.5;" x1="418.5" x2="583.9678" y1="155" y2="155"/></g><!--class Sample--><g class="entity" data-qualified-name="Sample" data-source-line="2" id="ent0004"><rect fill="#F1F1F1" height="48" rx="2.5" ry="2.5" style="stroke:#181818;stroke-width:0.5;" width="84.4932" x="1028" y="7"/><ellipse cx="1043" cy="23" fill="#ADD1B2" rx="11" ry="11" style="stroke:#181818;stroke-width:1;"/><path d="M1045.9688,28.6406 Q1045.3906,28.9375 1044.75,29.0781 Q1044.1094,29.2344 1043.4063,29.2344 Q1040.9063,29.2344 1039.5781,27.5938 Q1038.2656,25.9375 1038.2656,22.8125 Q1038.2656,19.6875 1039.5781,18.0313 Q1040.9063,16.375 1043.4063,16.375 Q1044.1094,16.375 1044.75,16.5313 Q1045.4063,16.6875 1045.9688,16.9844 L1045.9688,19.7031 Q1045.3438,19.125 1044.75,18.8594 Q1044.1563,18.5781 1043.5313,18.5781 Q1042.1875,18.5781 1041.5,19.6563 Q1040.8125,20.7188 1040.8125,22.8125 Q1040.8125,24.9063 1041.5,25.9844 Q1042.1875,27.0469 1043.5313,27.0469 Q1044.1563,27.0469 1044.75,26.7813 Q1045.3438,26.5 1045.9688,25.9219 L1045.9688,28.6406 Z " fill="#000000"/><text fill="#000000" font-family="sans-serif" font-size="14" lengthAdjust="spacing" textLength="52.4932" x="1057" y="27.8467">Sample</text><line style="stroke:#181818;stroke-width:0.5;" x1="1029" x2="1111.4932" y1="39" y2="39"/><line style="stroke:#181818;stroke-width:0.5;" x1="1029" x2="1111.4932" y1="47" y2="47"/></g><!--class MaterialSample--><g class="entity" data-qualified-name="MaterialSample" data-source-line="2" id="ent0005"><rect fill="#F1F1F1" height="48" rx="2.5" ry="2.5" style="stroke:#181818;stroke-width:0.5;" width="141.3682" x="827.5" y="115"/><ellipse cx="842.5" cy="131" fill="#ADD1B2" rx="11" ry="11" style="stroke:#181818;stroke-width:1;"/><path d="M845.4688,136.6406 Q844.8906,136.9375 844.25,137.0781 Q843.6094,137.2344 842.9063,137.2344 Q840.4063,137.2344 839.0781,135.5938 Q837.7656,133.9375 837.7656,130.8125 Q837.7656,127.6875 839.0781,126.0313 Q840.4063,124.375 842.9063,124.375 Q843.6094,124.375 844.25,124.5313 Q844.9063,124.6875 845.4688,124.9844 L845.4688,127.7031 Q844.8438,127.125 844.25,126.8594 Q843.6563,126.5781 843.0313,126.5781 Q841.6875,126.5781 841,127.6563 Q840.3125,128.7188 840.3125,130.8125 Q840.3125,132.9063 841,133.9844 Q841.6875,135.0469 843.0313,135.0469 Q843.6563,135.0469 844.25,134.7813 Q844.8438,134.5 845.4688,133.9219 L845.4688,136.6406 Z " fill="#000000"/><text fill="#000000" font-family="sans-serif" font-size="14" lengthAdjust="spacing" textLength="109.3682" x="856.5" y="135.8467">MaterialSample</text><line style="stroke:#181818;stroke-width:0.5;" x1="828.5" x2="967.8682" y1="147" y2="147"/><line style="stroke:#181818;stroke-width:0.5;" x1="828.5" x2="967.8682" y1="155" y2="155"/></g><!--class SpatialSample--><g class="entity" data-qualified-name="SpatialSample" data-source-line="3" id="ent0007"><rect fill="#F1F1F1" height="48" rx="2.5" ry="2.5" style="stroke:#181818;stroke-width:0.5;" width="132.6934" x="1003.5" y="115"/><ellipse cx="1018.5" cy="131" fill="#ADD1B2" rx="11" ry="11" style="stroke:#181818;stroke-width:1;"/><path d="M1021.4688,136.6406 Q1020.8906,136.9375 1020.25,137.0781 Q1019.6094,137.2344 1018.9063,137.2344 Q1016.4063,137.2344 1015.0781,135.5938 Q1013.7656,133.9375 1013.7656,130.8125 Q1013.7656,127.6875 1015.0781,126.0313 Q1016.4063,124.375 1018.9063,124.375 Q1019.6094,124.375 1020.25,124.5313 Q1020.9063,124.6875 1021.4688,124.9844 L1021.4688,127.7031 Q1020.8438,127.125 1020.25,126.8594 Q1019.6563,126.5781 1019.0313,126.5781 Q1017.6875,126.5781 1017,127.6563 Q1016.3125,128.7188 1016.3125,130.8125 Q1016.3125,132.9063 1017,133.9844 Q1017.6875,135.0469 1019.0313,135.0469 Q1019.6563,135.0469 1020.25,134.7813 Q1020.8438,134.5 1021.4688,133.9219 L1021.4688,136.6406 Z " fill="#000000"/><text fill="#000000" font-family="sans-serif" font-size="14" lengthAdjust="spacing" textLength="100.6934" x="1032.5" y="135.8467">SpatialSample</text><line style="stroke:#181818;stroke-width:0.5;" x1="1004.5" x2="1135.1934" y1="147" y2="147"/><line style="stroke:#181818;stroke-width:0.5;" x1="1004.5" x2="1135.1934" y1="155" y2="155"/></g><!--class StatisticalSample--><g class="entity" data-qualified-name="StatisticalSample" data-source-line="4" id="ent0009"><rect fill="#F1F1F1" height="48" rx="2.5" ry="2.5" style="stroke:#181818;stroke-width:0.5;" width="153.666" x="1172" y="115"/><ellipse cx="1187" cy="131" fill="#ADD1B2" rx="11" ry="11" style="stroke:#181818;stroke-width:1;"/><path d="M1189.9688,136.6406 Q1189.3906,136.9375 1188.75,137.0781 Q1188.1094,137.2344 1187.4063,137.2344 Q1184.9063,137.2344 1183.5781,135.5938 Q1182.2656,133.9375 1182.2656,130.8125 Q1182.2656,127.6875 1183.5781,126.0313 Q1184.9063,124.375 1187.4063,124.375 Q1188.1094,124.375 1188.75,124.5313 Q1189.4063,124.6875 1189.9688,124.9844 L1189.9688,127.7031 Q1189.3438,127.125 1188.75,126.8594 Q1188.1563,126.5781 1187.5313,126.5781 Q1186.1875,126.5781 1185.5,127.6563 Q1184.8125,128.7188 1184.8125,130.8125 Q1184.8125,132.9063 1185.5,133.9844 Q1186.1875,135.0469 1187.5313,135.0469 Q1188.1563,135.0469 1188.75,134.7813 Q1189.3438,134.5 1189.9688,133.9219 L1189.9688,136.6406 Z " fill="#000000"/><text fill="#000000" font-family="sans-serif" font-size="14" lengthAdjust="spacing" textLength="121.666" x="1201" y="135.8467">StatisticalSample</text><line style="stroke:#181818;stroke-width:0.5;" x1="1173" x2="1324.666" y1="147" y2="147"/><line style="stroke:#181818;stroke-width:0.5;" x1="1173" x2="1324.666" y1="155" y2="155"/></g><!--class ObservableProperty--><g class="entity" data-qualified-name="ObservableProperty" data-source-line="5" id="ent0011"><rect fill="#F1F1F1" height="48" rx="2.5" ry="2.5" style="stroke:#181818;stroke-width:0.5;" width="171.6172" x="620" y="115"/><ellipse cx="635" cy="131" fill="#ADD1B2" rx="11" ry="11" style="stroke:#181818;stroke-width:1;"/><path d="M637.9688,136.6406 Q637.3906,136.9375 636.75,137.0781 Q636.1094,137.2344 635.4063,137.2344 Q632.9063,137.2344 631.5781,135.5938 Q630.2656,133.9375 630.2656,130.8125 Q630.2656,127.6875 631.5781,126.0313 Q632.9063,124.375 635.4063,124.375 Q636.1094,124.375 636.75,124.5313 Q637.4063,124.6875 637.9688,124.9844 L637.9688,127.7031 Q637.3438,127.125 636.75,126.8594 Q636.1563,126.5781 635.5313,126.5781 Q634.1875,126.5781 633.5,127.6563 Q632.8125,128.7188 632.8125,130.8125 Q632.8125,132.9063 633.5,133.9844 Q634.1875,135.0469 635.5313,135.0469 Q636.1563,135.0469 636.75,134.7813 Q637.3438,134.5 637.9688,133.9219 L637.9688,136.6406 Z " fill="#000000"/><text fill="#000000" font-family="sans-serif" font-size="14" lengthAdjust="spacing" textLength="139.6172" x="649" y="135.8467">ObservableProperty</text><line style="stroke:#181818;stroke-width:0.5;" x1="621" x2="790.6172" y1="147" y2="147"/><line style="stroke:#181818;stroke-width:0.5;" x1="621" x2="790.6172" y1="155" y2="155"/></g><!--class Procedure--><g class="entity" data-qualified-name="Procedure" data-source-line="6" id="ent0013"><rect fill="#F1F1F1" height="48" rx="2.5" ry="2.5" style="stroke:#181818;stroke-width:0.5;" width="103.2031" x="1603.5" y="7"/><ellipse cx="1618.5" cy="23" fill="#ADD1B2" rx="11" ry="11" style="stroke:#181818;stroke-width:1;"/><path d="M1621.4688,28.6406 Q1620.8906,28.9375 1620.25,29.0781 Q1619.6094,29.2344 1618.9063,29.2344 Q1616.4063,29.2344 1615.0781,27.5938 Q1613.7656,25.9375 1613.7656,22.8125 Q1613.7656,19.6875 1615.0781,18.0313 Q1616.4063,16.375 1618.9063,16.375 Q1619.6094,16.375 1620.25,16.5313 Q1620.9063,16.6875 1621.4688,16.9844 L1621.4688,19.7031 Q1620.8438,19.125 1620.25,18.8594 Q1619.6563,18.5781 1619.0313,18.5781 Q1617.6875,18.5781 1617,19.6563 Q1616.3125,20.7188 1616.3125,22.8125 Q1616.3125,24.9063 1617,25.9844 Q1617.6875,27.0469 1619.0313,27.0469 Q1619.6563,27.0469 1620.25,26.7813 Q1620.8438,26.5 1621.4688,25.9219 L1621.4688,28.6406 Z " fill="#000000"/><text fill="#000000" font-family="sans-serif" font-size="14" lengthAdjust="spacing" textLength="71.2031" x="1632.5" y="27.8467">Procedure</text><line style="stroke:#181818;stroke-width:0.5;" x1="1604.5" x2="1705.7031" y1="39" y2="39"/><line style="stroke:#181818;stroke-width:0.5;" x1="1604.5" x2="1705.7031" y1="47" y2="47"/></g><!--class ActuatingProcedure--><g class="entity" data-qualified-name="ActuatingProcedure" data-source-line="6" id="ent0014"><rect fill="#F1F1F1" height="48" rx="2.5" ry="2.5" style="stroke:#181818;stroke-width:0.5;" width="170.5576" x="1361.5" y="115"/><ellipse cx="1376.5" cy="131" fill="#ADD1B2" rx="11" ry="11" style="stroke:#181818;stroke-width:1;"/><path d="M1379.4688,136.6406 Q1378.8906,136.9375 1378.25,137.0781 Q1377.6094,137.2344 1376.9063,137.2344 Q1374.4063,137.2344 1373.0781,135.5938 Q1371.7656,133.9375 1371.7656,130.8125 Q1371.7656,127.6875 1373.0781,126.0313 Q1374.4063,124.375 1376.9063,124.375 Q1377.6094,124.375 1378.25,124.5313 Q1378.9063,124.6875 1379.4688,124.9844 L1379.4688,127.7031 Q1378.8438,127.125 1378.25,126.8594 Q1377.6563,126.5781 1377.0313,126.5781 Q1375.6875,126.5781 1375,127.6563 Q1374.3125,128.7188 1374.3125,130.8125 Q1374.3125,132.9063 1375,133.9844 Q1375.6875,135.0469 1377.0313,135.0469 Q1377.6563,135.0469 1378.25,134.7813 Q1378.8438,134.5 1379.4688,133.9219 L1379.4688,136.6406 Z " fill="#000000"/><text fill="#000000" font-family="sans-serif" font-size="14" lengthAdjust="spacing" textLength="138.5576" x="1390.5" y="135.8467">ActuatingProcedure</text><line style="stroke:#181818;stroke-width:0.5;" x1="1362.5" x2="1531.0576" y1="147" y2="147"/><line style="stroke:#181818;stroke-width:0.5;" x1="1362.5" x2="1531.0576" y1="155" y2="155"/></g><!--class ObservingProcedure--><g class="entity" data-qualified-name="ObservingProcedure" data-source-line="7" id="ent0016"><rect fill="#F1F1F1" height="48" rx="2.5" ry="2.5" style="stroke:#181818;stroke-width:0.5;" width="174.707" x="1567.5" y="115"/><ellipse cx="1582.5" cy="131" fill="#ADD1B2" rx="11" ry="11" style="stroke:#181818;stroke-width:1;"/><path d="M1585.4688,136.6406 Q1584.8906,136.9375 1584.25,137.0781 Q1583.6094,137.2344 1582.9063,137.2344 Q1580.4063,137.2344 1579.0781,135.5938 Q1577.7656,133.9375 1577.7656,130.8125 Q1577.7656,127.6875 1579.0781,126.0313 Q1580.4063,124.375 1582.9063,124.375 Q1583.6094,124.375 1584.25,124.5313 Q1584.9063,124.6875 1585.4688,124.9844 L1585.4688,127.7031 Q1584.8438,127.125 1584.25,126.8594 Q1583.6563,126.5781 1583.0313,126.5781 Q1581.6875,126.5781 1581,127.6563 Q1580.3125,128.7188 1580.3125,130.8125 Q1580.3125,132.9063 1581,133.9844 Q1581.6875,135.0469 1583.0313,135.0469 Q1583.6563,135.0469 1584.25,134.7813 Q1584.8438,134.5 1585.4688,133.9219 L1585.4688,136.6406 Z " fill="#000000"/><text fill="#000000" font-family="sans-serif" font-size="14" lengthAdjust="spacing" textLength="142.707" x="1596.5" y="135.8467">ObservingProcedure</text><line style="stroke:#181818;stroke-width:0.5;" x1="1568.5" x2="1741.207" y1="147" y2="147"/><line style="stroke:#181818;stroke-width:0.5;" x1="1568.5" x2="1741.207" y1="155" y2="155"/></g><!--class SamplingProcedure--><g class="entity" data-qualified-name="SamplingProcedure" data-source-line="8" id="ent0018"><rect fill="#F1F1F1" height="48" rx="2.5" ry="2.5" style="stroke:#181818;stroke-width:0.5;" width="168.7324" x="1777.5" y="115"/><ellipse cx="1792.5" cy="131" fill="#ADD1B2" rx="11" ry="11" style="stroke:#181818;stroke-width:1;"/><path d="M1795.4688,136.6406 Q1794.8906,136.9375 1794.25,137.0781 Q1793.6094,137.2344 1792.9063,137.2344 Q1790.4063,137.2344 1789.0781,135.5938 Q1787.7656,133.9375 1787.7656,130.8125 Q1787.7656,127.6875 1789.0781,126.0313 Q1790.4063,124.375 1792.9063,124.375 Q1793.6094,124.375 1794.25,124.5313 Q1794.9063,124.6875 1795.4688,124.9844 L1795.4688,127.7031 Q1794.8438,127.125 1794.25,126.8594 Q1793.6563,126.5781 1793.0313,126.5781 Q1791.6875,126.5781 1791,127.6563 Q1790.3125,128.7188 1790.3125,130.8125 Q1790.3125,132.9063 1791,133.9844 Q1791.6875,135.0469 1793.0313,135.0469 Q1793.6563,135.0469 1794.25,134.7813 Q1794.8438,134.5 1795.4688,133.9219 L1795.4688,136.6406 Z " fill="#000000"/><text fill="#000000" font-family="sans-serif" font-size="14" lengthAdjust="spacing" textLength="136.7324" x="1806.5" y="135.8467">SamplingProcedure</text><line style="stroke:#181818;stroke-width:0.5;" x1="1778.5" x2="1945.2324" y1="147" y2="147"/><line style="stroke:#181818;stroke-width:0.5;" x1="1778.5" x2="1945.2324" y1="155" y2="155"/></g><!--class Asset--><g class="entity" data-qualified-name="Asset" data-source-line="9" id="ent0020"><rect fill="#F1F1F1" height="48" rx="2.5" ry="2.5" style="stroke:#181818;stroke-width:0.5;" width="70.2676" x="2053" y="7"/><ellipse cx="2068" cy="23" fill="#ADD1B2" rx="11" ry="11" style="stroke:#181818;stroke-width:1;"/><path d="M2070.9688,28.6406 Q2070.3906,28.9375 2069.75,29.0781 Q2069.1094,29.2344 2068.4063,29.2344 Q2065.9063,29.2344 2064.5781,27.5938 Q2063.2656,25.9375 2063.2656,22.8125 Q2063.2656,19.6875 2064.5781,18.0313 Q2065.9063,16.375 2068.4063,16.375 Q2069.1094,16.375 2069.75,16.5313 Q2070.4063,16.6875 2070.9688,16.9844 L2070.9688,19.7031 Q2070.3438,19.125 2069.75,18.8594 Q2069.1563,18.5781 2068.5313,18.5781 Q2067.1875,18.5781 2066.5,19.6563 Q2065.8125,20.7188 2065.8125,22.8125 Q2065.8125,24.9063 2066.5,25.9844 Q2067.1875,27.0469 2068.5313,27.0469 Q2069.1563,27.0469 2069.75,26.7813 Q2070.3438,26.5 2070.9688,25.9219 L2070.9688,28.6406 Z " fill="#000000"/><text fill="#000000" font-family="sans-serif" font-size="14" lengthAdjust="spacing" textLength="38.2676" x="2082" y="27.8467">Asset</text><line style="stroke:#181818;stroke-width:0.5;" x1="2054" x2="2122.2676" y1="39" y2="39"/><line style="stroke:#181818;stroke-width:0.5;" x1="2054" x2="2122.2676" y1="47" y2="47"/></g><!--class Platform--><g class="entity" data-qualified-name="Platform" data-source-line="9" id="ent0021"><rect fill="#F1F1F1" height="48" rx="2.5" ry="2.5" style="stroke:#181818;stroke-width:0.5;" width="91.2881" x="1981.5" y="115"/><ellipse cx="1996.5" cy="131" fill="#ADD1B2" rx="11" ry="11" style="stroke:#181818;stroke-width:1;"/><path d="M1999.4688,136.6406 Q1998.8906,136.9375 1998.25,137.0781 Q1997.6094,137.2344 1996.9063,137.2344 Q1994.4063,137.2344 1993.0781,135.5938 Q1991.7656,133.9375 1991.7656,130.8125 Q1991.7656,127.6875 1993.0781,126.0313 Q1994.4063,124.375 1996.9063,124.375 Q1997.6094,124.375 1998.25,124.5313 Q1998.9063,124.6875 1999.4688,124.9844 L1999.4688,127.7031 Q1998.8438,127.125 1998.25,126.8594 Q1997.6563,126.5781 1997.0313,126.5781 Q1995.6875,126.5781 1995,127.6563 Q1994.3125,128.7188 1994.3125,130.8125 Q1994.3125,132.9063 1995,133.9844 Q1995.6875,135.0469 1997.0313,135.0469 Q1997.6563,135.0469 1998.25,134.7813 Q1998.8438,134.5 1999.4688,133.9219 L1999.4688,136.6406 Z " fill="#000000"/><text fill="#000000" font-family="sans-serif" font-size="14" lengthAdjust="spacing" textLength="59.2881" x="2010.5" y="135.8467">Platform</text><line style="stroke:#181818;stroke-width:0.5;" x1="1982.5" x2="2071.7881" y1="147" y2="147"/><line style="stroke:#181818;stroke-width:0.5;" x1="1982.5" x2="2071.7881" y1="155" y2="155"/></g><!--class System--><g class="entity" data-qualified-name="System" data-source-line="10" id="ent0023"><rect fill="#F1F1F1" height="48" rx="2.5" ry="2.5" style="stroke:#181818;stroke-width:0.5;" width="84.2061" x="2108" y="115"/><ellipse cx="2123" cy="131" fill="#ADD1B2" rx="11" ry="11" style="stroke:#181818;stroke-width:1;"/><path d="M2125.9688,136.6406 Q2125.3906,136.9375 2124.75,137.0781 Q2124.1094,137.2344 2123.4063,137.2344 Q2120.9063,137.2344 2119.5781,135.5938 Q2118.2656,133.9375 2118.2656,130.8125 Q2118.2656,127.6875 2119.5781,126.0313 Q2120.9063,124.375 2123.4063,124.375 Q2124.1094,124.375 2124.75,124.5313 Q2125.4063,124.6875 2125.9688,124.9844 L2125.9688,127.7031 Q2125.3438,127.125 2124.75,126.8594 Q2124.1563,126.5781 2123.5313,126.5781 Q2122.1875,126.5781 2121.5,127.6563 Q2120.8125,128.7188 2120.8125,130.8125 Q2120.8125,132.9063 2121.5,133.9844 Q2122.1875,135.0469 2123.5313,135.0469 Q2124.1563,135.0469 2124.75,134.7813 Q2125.3438,134.5 2125.9688,133.9219 L2125.9688,136.6406 Z " fill="#000000"/><text fill="#000000" font-family="sans-serif" font-size="14" lengthAdjust="spacing" textLength="52.2061" x="2137" y="135.8467">System</text><line style="stroke:#181818;stroke-width:0.5;" x1="2109" x2="2191.2061" y1="147" y2="147"/><line style="stroke:#181818;stroke-width:0.5;" x1="2109" x2="2191.2061" y1="155" y2="155"/></g><!--class Sampler--><g class="entity" data-qualified-name="Sampler" data-source-line="10" id="ent0024"><rect fill="#F1F1F1" height="48" rx="2.5" ry="2.5" style="stroke:#181818;stroke-width:0.5;" width="90.249" x="1979" y="223"/><ellipse cx="1994" cy="239" fill="#ADD1B2" rx="11" ry="11" style="stroke:#181818;stroke-width:1;"/><path d="M1996.9688,244.6406 Q1996.3906,244.9375 1995.75,245.0781 Q1995.1094,245.2344 1994.4063,245.2344 Q1991.9063,245.2344 1990.5781,243.5938 Q1989.2656,241.9375 1989.2656,238.8125 Q1989.2656,235.6875 1990.5781,234.0313 Q1991.9063,232.375 1994.4063,232.375 Q1995.1094,232.375 1995.75,232.5313 Q1996.4063,232.6875 1996.9688,232.9844 L1996.9688,235.7031 Q1996.3438,235.125 1995.75,234.8594 Q1995.1563,234.5781 1994.5313,234.5781 Q1993.1875,234.5781 1992.5,235.6563 Q1991.8125,236.7188 1991.8125,238.8125 Q1991.8125,240.9063 1992.5,241.9844 Q1993.1875,243.0469 1994.5313,243.0469 Q1995.1563,243.0469 1995.75,242.7813 Q1996.3438,242.5 1996.9688,241.9219 L1996.9688,244.6406 Z " fill="#000000"/><text fill="#000000" font-family="sans-serif" font-size="14" lengthAdjust="spacing" textLength="58.249" x="2008" y="243.8467">Sampler</text><line style="stroke:#181818;stroke-width:0.5;" x1="1980" x2="2068.249" y1="255" y2="255"/><line style="stroke:#181818;stroke-width:0.5;" x1="1980" x2="2068.249" y1="263" y2="263"/></g><!--class Actuator--><g class="entity" data-qualified-name="Actuator" data-source-line="11" id="ent0026"><rect fill="#F1F1F1" height="48" rx="2.5" ry="2.5" style="stroke:#181818;stroke-width:0.5;" width="92.0264" x="2104" y="223"/><ellipse cx="2119" cy="239" fill="#ADD1B2" rx="11" ry="11" style="stroke:#181818;stroke-width:1;"/><path d="M2121.9688,244.6406 Q2121.3906,244.9375 2120.75,245.0781 Q2120.1094,245.2344 2119.4063,245.2344 Q2116.9063,245.2344 2115.5781,243.5938 Q2114.2656,241.9375 2114.2656,238.8125 Q2114.2656,235.6875 2115.5781,234.0313 Q2116.9063,232.375 2119.4063,232.375 Q2120.1094,232.375 2120.75,232.5313 Q2121.4063,232.6875 2121.9688,232.9844 L2121.9688,235.7031 Q2121.3438,235.125 2120.75,234.8594 Q2120.1563,234.5781 2119.5313,234.5781 Q2118.1875,234.5781 2117.5,235.6563 Q2116.8125,236.7188 2116.8125,238.8125 Q2116.8125,240.9063 2117.5,241.9844 Q2118.1875,243.0469 2119.5313,243.0469 Q2120.1563,243.0469 2120.75,242.7813 Q2121.3438,242.5 2121.9688,241.9219 L2121.9688,244.6406 Z " fill="#000000"/><text fill="#000000" font-family="sans-serif" font-size="14" lengthAdjust="spacing" textLength="60.0264" x="2133" y="243.8467">Actuator</text><line style="stroke:#181818;stroke-width:0.5;" x1="2105" x2="2195.0264" y1="255" y2="255"/><line style="stroke:#181818;stroke-width:0.5;" x1="2105" x2="2195.0264" y1="263" y2="263"/></g><!--class Execution--><g class="entity" data-qualified-name="Execution" data-source-line="13" id="ent0029"><rect fill="#F1F1F1" height="48" rx="2.5" ry="2.5" style="stroke:#181818;stroke-width:0.5;" width="101.1318" x="2359.5" y="7"/><ellipse cx="2374.5" cy="23" fill="#ADD1B2" rx="11" ry="11" style="stroke:#181818;stroke-width:1;"/><path d="M2377.4688,28.6406 Q2376.8906,28.9375 2376.25,29.0781 Q2375.6094,29.2344 2374.9063,29.2344 Q2372.4063,29.2344 2371.0781,27.5938 Q2369.7656,25.9375 2369.7656,22.8125 Q2369.7656,19.6875 2371.0781,18.0313 Q2372.4063,16.375 2374.9063,16.375 Q2375.6094,16.375 2376.25,16.5313 Q2376.9063,16.6875 2377.4688,16.9844 L2377.4688,19.7031 Q2376.8438,19.125 2376.25,18.8594 Q2375.6563,18.5781 2375.0313,18.5781 Q2373.6875,18.5781 2373,19.6563 Q2372.3125,20.7188 2372.3125,22.8125 Q2372.3125,24.9063 2373,25.9844 Q2373.6875,27.0469 2375.0313,27.0469 Q2375.6563,27.0469 2376.25,26.7813 Q2376.8438,26.5 2377.4688,25.9219 L2377.4688,28.6406 Z " fill="#000000"/><text fill="#000000" font-family="sans-serif" font-size="14" lengthAdjust="spacing" textLength="69.1318" x="2388.5" y="27.8467">Execution</text><line style="stroke:#181818;stroke-width:0.5;" x1="2360.5" x2="2459.6318" y1="39" y2="39"/><line style="stroke:#181818;stroke-width:0.5;" x1="2360.5" x2="2459.6318" y1="47" y2="47"/></g><!--class Sampling--><g class="entity" data-qualified-name="Sampling" data-source-line="13" id="ent0030"><rect fill="#F1F1F1" height="48" rx="2.5" ry="2.5" style="stroke:#181818;stroke-width:0.5;" width="97.5293" x="2227" y="115"/><ellipse cx="2242" cy="131" fill="#ADD1B2" rx="11" ry="11" style="stroke:#181818;stroke-width:1;"/><path d="M2244.9688,136.6406 Q2244.3906,136.9375 2243.75,137.0781 Q2243.1094,137.2344 2242.4063,137.2344 Q2239.9063,137.2344 2238.5781,135.5938 Q2237.2656,133.9375 2237.2656,130.8125 Q2237.2656,127.6875 2238.5781,126.0313 Q2239.9063,124.375 2242.4063,124.375 Q2243.1094,124.375 2243.75,124.5313 Q2244.4063,124.6875 2244.9688,124.9844 L2244.9688,127.7031 Q2244.3438,127.125 2243.75,126.8594 Q2243.1563,126.5781 2242.5313,126.5781 Q2241.1875,126.5781 2240.5,127.6563 Q2239.8125,128.7188 2239.8125,130.8125 Q2239.8125,132.9063 2240.5,133.9844 Q2241.1875,135.0469 2242.5313,135.0469 Q2243.1563,135.0469 2243.75,134.7813 Q2244.3438,134.5 2244.9688,133.9219 L2244.9688,136.6406 Z " fill="#000000"/><text fill="#000000" font-family="sans-serif" font-size="14" lengthAdjust="spacing" textLength="65.5293" x="2256" y="135.8467">Sampling</text><line style="stroke:#181818;stroke-width:0.5;" x1="2228" x2="2323.5293" y1="147" y2="147"/><line style="stroke:#181818;stroke-width:0.5;" x1="2228" x2="2323.5293" y1="155" y2="155"/></g><!--class ExecutionCollection--><g class="entity" data-qualified-name="ExecutionCollection" data-source-line="14" id="ent0032"><rect fill="#F1F1F1" height="48" rx="2.5" ry="2.5" style="stroke:#181818;stroke-width:0.5;" width="170.3799" x="2847" y="7"/><ellipse cx="2862" cy="23" fill="#ADD1B2" rx="11" ry="11" style="stroke:#181818;stroke-width:1;"/><path d="M2864.9688,28.6406 Q2864.3906,28.9375 2863.75,29.0781 Q2863.1094,29.2344 2862.4063,29.2344 Q2859.9063,29.2344 2858.5781,27.5938 Q2857.2656,25.9375 2857.2656,22.8125 Q2857.2656,19.6875 2858.5781,18.0313 Q2859.9063,16.375 2862.4063,16.375 Q2863.1094,16.375 2863.75,16.5313 Q2864.4063,16.6875 2864.9688,16.9844 L2864.9688,19.7031 Q2864.3438,19.125 2863.75,18.8594 Q2863.1563,18.5781 2862.5313,18.5781 Q2861.1875,18.5781 2860.5,19.6563 Q2859.8125,20.7188 2859.8125,22.8125 Q2859.8125,24.9063 2860.5,25.9844 Q2861.1875,27.0469 2862.5313,27.0469 Q2863.1563,27.0469 2863.75,26.7813 Q2864.3438,26.5 2864.9688,25.9219 L2864.9688,28.6406 Z " fill="#000000"/><text fill="#000000" font-family="sans-serif" font-size="14" lengthAdjust="spacing" textLength="138.3799" x="2876" y="27.8467">ExecutionCollection</text><line style="stroke:#181818;stroke-width:0.5;" x1="2848" x2="3016.3799" y1="39" y2="39"/><line style="stroke:#181818;stroke-width:0.5;" x1="2848" x2="3016.3799" y1="47" y2="47"/></g><!--class SamplingCollection--><g class="entity" data-qualified-name="SamplingCollection" data-source-line="14" id="ent0033"><rect fill="#F1F1F1" height="48" rx="2.5" ry="2.5" style="stroke:#181818;stroke-width:0.5;" width="166.7773" x="2646.5" y="115"/><ellipse cx="2661.5" cy="131" fill="#ADD1B2" rx="11" ry="11" style="stroke:#181818;stroke-width:1;"/><path d="M2664.4688,136.6406 Q2663.8906,136.9375 2663.25,137.0781 Q2662.6094,137.2344 2661.9063,137.2344 Q2659.4063,137.2344 2658.0781,135.5938 Q2656.7656,133.9375 2656.7656,130.8125 Q2656.7656,127.6875 2658.0781,126.0313 Q2659.4063,124.375 2661.9063,124.375 Q2662.6094,124.375 2663.25,124.5313 Q2663.9063,124.6875 2664.4688,124.9844 L2664.4688,127.7031 Q2663.8438,127.125 2663.25,126.8594 Q2662.6563,126.5781 2662.0313,126.5781 Q2660.6875,126.5781 2660,127.6563 Q2659.3125,128.7188 2659.3125,130.8125 Q2659.3125,132.9063 2660,133.9844 Q2660.6875,135.0469 2662.0313,135.0469 Q2662.6563,135.0469 2663.25,134.7813 Q2663.8438,134.5 2664.4688,133.9219 L2664.4688,136.6406 Z " fill="#000000"/><text fill="#000000" font-family="sans-serif" font-size="14" lengthAdjust="spacing" textLength="134.7773" x="2675.5" y="135.8467">SamplingCollection</text><line style="stroke:#181818;stroke-width:0.5;" x1="2647.5" x2="2812.2773" y1="147" y2="147"/><line style="stroke:#181818;stroke-width:0.5;" x1="2647.5" x2="2812.2773" y1="155" y2="155"/></g><!--class Actuation--><g class="entity" data-qualified-name="Actuation" data-source-line="15" id="ent0035"><rect fill="#F1F1F1" height="48" rx="2.5" ry="2.5" style="stroke:#181818;stroke-width:0.5;" width="99.0332" x="2360.5" y="115"/><ellipse cx="2375.5" cy="131" fill="#ADD1B2" rx="11" ry="11" style="stroke:#181818;stroke-width:1;"/><path d="M2378.4688,136.6406 Q2377.8906,136.9375 2377.25,137.0781 Q2376.6094,137.2344 2375.9063,137.2344 Q2373.4063,137.2344 2372.0781,135.5938 Q2370.7656,133.9375 2370.7656,130.8125 Q2370.7656,127.6875 2372.0781,126.0313 Q2373.4063,124.375 2375.9063,124.375 Q2376.6094,124.375 2377.25,124.5313 Q2377.9063,124.6875 2378.4688,124.9844 L2378.4688,127.7031 Q2377.8438,127.125 2377.25,126.8594 Q2376.6563,126.5781 2376.0313,126.5781 Q2374.6875,126.5781 2374,127.6563 Q2373.3125,128.7188 2373.3125,130.8125 Q2373.3125,132.9063 2374,133.9844 Q2374.6875,135.0469 2376.0313,135.0469 Q2376.6563,135.0469 2377.25,134.7813 Q2377.8438,134.5 2378.4688,133.9219 L2378.4688,136.6406 Z " fill="#000000"/><text fill="#000000" font-family="sans-serif" font-size="14" lengthAdjust="spacing" textLength="67.0332" x="2389.5" y="135.8467">Actuation</text><line style="stroke:#181818;stroke-width:0.5;" x1="2361.5" x2="2458.5332" y1="147" y2="147"/><line style="stroke:#181818;stroke-width:0.5;" x1="2361.5" x2="2458.5332" y1="155" y2="155"/></g><!--class Sensor--><g class="entity" data-qualified-name="Sensor" data-source-line="16" id="ent0037"><rect fill="#F1F1F1" height="48" rx="2.5" ry="2.5" style="stroke:#181818;stroke-width:0.5;" width="79.9883" x="2231" y="223"/><ellipse cx="2246" cy="239" fill="#ADD1B2" rx="11" ry="11" style="stroke:#181818;stroke-width:1;"/><path d="M2248.9688,244.6406 Q2248.3906,244.9375 2247.75,245.0781 Q2247.1094,245.2344 2246.4063,245.2344 Q2243.9063,245.2344 2242.5781,243.5938 Q2241.2656,241.9375 2241.2656,238.8125 Q2241.2656,235.6875 2242.5781,234.0313 Q2243.9063,232.375 2246.4063,232.375 Q2247.1094,232.375 2247.75,232.5313 Q2248.4063,232.6875 2248.9688,232.9844 L2248.9688,235.7031 Q2248.3438,235.125 2247.75,234.8594 Q2247.1563,234.5781 2246.5313,234.5781 Q2245.1875,234.5781 2244.5,235.6563 Q2243.8125,236.7188 2243.8125,238.8125 Q2243.8125,240.9063 2244.5,241.9844 Q2245.1875,243.0469 2246.5313,243.0469 Q2247.1563,243.0469 2247.75,242.7813 Q2248.3438,242.5 2248.9688,241.9219 L2248.9688,244.6406 Z " fill="#000000"/><text fill="#000000" font-family="sans-serif" font-size="14" lengthAdjust="spacing" textLength="47.9883" x="2260" y="243.8467">Sensor</text><line style="stroke:#181818;stroke-width:0.5;" x1="2232" x2="2309.9883" y1="255" y2="255"/><line style="stroke:#181818;stroke-width:0.5;" x1="2232" x2="2309.9883" y1="263" y2="263"/></g><!--class ActuationCollection--><g class="entity" data-qualified-name="ActuationCollection" data-source-line="17" id="ent0039"><rect fill="#F1F1F1" height="48" rx="2.5" ry="2.5" style="stroke:#181818;stroke-width:0.5;" width="168.2813" x="2848" y="115"/><ellipse cx="2863" cy="131" fill="#ADD1B2" rx="11" ry="11" style="stroke:#181818;stroke-width:1;"/><path d="M2865.9688,136.6406 Q2865.3906,136.9375 2864.75,137.0781 Q2864.1094,137.2344 2863.4063,137.2344 Q2860.9063,137.2344 2859.5781,135.5938 Q2858.2656,133.9375 2858.2656,130.8125 Q2858.2656,127.6875 2859.5781,126.0313 Q2860.9063,124.375 2863.4063,124.375 Q2864.1094,124.375 2864.75,124.5313 Q2865.4063,124.6875 2865.9688,124.9844 L2865.9688,127.7031 Q2865.3438,127.125 2864.75,126.8594 Q2864.1563,126.5781 2863.5313,126.5781 Q2862.1875,126.5781 2861.5,127.6563 Q2860.8125,128.7188 2860.8125,130.8125 Q2860.8125,132.9063 2861.5,133.9844 Q2862.1875,135.0469 2863.5313,135.0469 Q2864.1563,135.0469 2864.75,134.7813 Q2865.3438,134.5 2865.9688,133.9219 L2865.9688,136.6406 Z " fill="#000000"/><text fill="#000000" font-family="sans-serif" font-size="14" lengthAdjust="spacing" textLength="136.2813" x="2877" y="135.8467">ActuationCollection</text><line style="stroke:#181818;stroke-width:0.5;" x1="2849" x2="3015.2813" y1="147" y2="147"/><line style="stroke:#181818;stroke-width:0.5;" x1="2849" x2="3015.2813" y1="155" y2="155"/></g><!--class ObservationCollection--><g class="entity" data-qualified-name="ObservationCollection" data-source-line="18" id="ent0041"><rect fill="#F1F1F1" height="48" rx="2.5" ry="2.5" style="stroke:#181818;stroke-width:0.5;" width="186.499" x="3051" y="115"/><ellipse cx="3066" cy="131" fill="#ADD1B2" rx="11" ry="11" style="stroke:#181818;stroke-width:1;"/><path d="M3068.9688,136.6406 Q3068.3906,136.9375 3067.75,137.0781 Q3067.1094,137.2344 3066.4063,137.2344 Q3063.9063,137.2344 3062.5781,135.5938 Q3061.2656,133.9375 3061.2656,130.8125 Q3061.2656,127.6875 3062.5781,126.0313 Q3063.9063,124.375 3066.4063,124.375 Q3067.1094,124.375 3067.75,124.5313 Q3068.4063,124.6875 3068.9688,124.9844 L3068.9688,127.7031 Q3068.3438,127.125 3067.75,126.8594 Q3067.1563,126.5781 3066.5313,126.5781 Q3065.1875,126.5781 3064.5,127.6563 Q3063.8125,128.7188 3063.8125,130.8125 Q3063.8125,132.9063 3064.5,133.9844 Q3065.1875,135.0469 3066.5313,135.0469 Q3067.1563,135.0469 3067.75,134.7813 Q3068.3438,134.5 3068.9688,133.9219 L3068.9688,136.6406 Z " fill="#000000"/><text fill="#000000" font-family="sans-serif" font-size="14" lengthAdjust="spacing" textLength="154.499" x="3080" y="135.8467">ObservationCollection</text><line style="stroke:#181818;stroke-width:0.5;" x1="3052" x2="3236.499" y1="147" y2="147"/><line style="stroke:#181818;stroke-width:0.5;" x1="3052" x2="3236.499" y1="155" y2="155"/></g><!--class Observation--><g class="entity" data-qualified-name="Observation" data-source-line="19" id="ent0043"><rect fill="#F1F1F1" height="48" rx="2.5" ry="2.5" style="stroke:#181818;stroke-width:0.5;" width="117.251" x="2494.5" y="115"/><ellipse cx="2509.5" cy="131" fill="#ADD1B2" rx="11" ry="11" style="stroke:#181818;stroke-width:1;"/><path d="M2512.4688,136.6406 Q2511.8906,136.9375 2511.25,137.0781 Q2510.6094,137.2344 2509.9063,137.2344 Q2507.4063,137.2344 2506.0781,135.5938 Q2504.7656,133.9375 2504.7656,130.8125 Q2504.7656,127.6875 2506.0781,126.0313 Q2507.4063,124.375 2509.9063,124.375 Q2510.6094,124.375 2511.25,124.5313 Q2511.9063,124.6875 2512.4688,124.9844 L2512.4688,127.7031 Q2511.8438,127.125 2511.25,126.8594 Q2510.6563,126.5781 2510.0313,126.5781 Q2508.6875,126.5781 2508,127.6563 Q2507.3125,128.7188 2507.3125,130.8125 Q2507.3125,132.9063 2508,133.9844 Q2508.6875,135.0469 2510.0313,135.0469 Q2510.6563,135.0469 2511.25,134.7813 Q2511.8438,134.5 2512.4688,133.9219 L2512.4688,136.6406 Z " fill="#000000"/><text fill="#000000" font-family="sans-serif" font-size="14" lengthAdjust="spacing" textLength="85.251" x="2523.5" y="135.8467">Observation</text><line style="stroke:#181818;stroke-width:0.5;" x1="2495.5" x2="2610.751" y1="147" y2="147"/><line style="stroke:#181818;stroke-width:0.5;" x1="2495.5" x2="2610.751" y1="155" y2="155"/></g><!--class Result--><g class="entity" data-qualified-name="Result" data-source-line="21" id="ent0045"><rect fill="#F1F1F1" height="48" rx="2.5" ry="2.5" style="stroke:#181818;stroke-width:0.5;" width="75.8867" x="47" y="7"/><ellipse cx="62" cy="23" fill="#ADD1B2" rx="11" ry="11" style="stroke:#181818;stroke-width:1;"/><path d="M64.9688,28.6406 Q64.3906,28.9375 63.75,29.0781 Q63.1094,29.2344 62.4063,29.2344 Q59.9063,29.2344 58.5781,27.5938 Q57.2656,25.9375 57.2656,22.8125 Q57.2656,19.6875 58.5781,18.0313 Q59.9063,16.375 62.4063,16.375 Q63.1094,16.375 63.75,16.5313 Q64.4063,16.6875 64.9688,16.9844 L64.9688,19.7031 Q64.3438,19.125 63.75,18.8594 Q63.1563,18.5781 62.5313,18.5781 Q61.1875,18.5781 60.5,19.6563 Q59.8125,20.7188 59.8125,22.8125 Q59.8125,24.9063 60.5,25.9844 Q61.1875,27.0469 62.5313,27.0469 Q63.1563,27.0469 63.75,26.7813 Q64.3438,26.5 64.9688,25.9219 L64.9688,28.6406 Z " fill="#000000"/><text fill="#000000" font-family="sans-serif" font-size="14" lengthAdjust="spacing" textLength="43.8867" x="76" y="27.8467">Result</text><line style="stroke:#181818;stroke-width:0.5;" x1="48" x2="121.8867" y1="39" y2="39"/><line style="stroke:#181818;stroke-width:0.5;" x1="48" x2="121.8867" y1="47" y2="47"/></g><!--class Deployment--><g class="entity" data-qualified-name="Deployment" data-source-line="22" id="ent0046"><rect fill="#F1F1F1" height="48" rx="2.5" ry="2.5" style="stroke:#181818;stroke-width:0.5;" width="117.6338" x="158" y="7"/><ellipse cx="173" cy="23" fill="#ADD1B2" rx="11" ry="11" style="stroke:#181818;stroke-width:1;"/><path d="M175.9688,28.6406 Q175.3906,28.9375 174.75,29.0781 Q174.1094,29.2344 173.4063,29.2344 Q170.9063,29.2344 169.5781,27.5938 Q168.2656,25.9375 168.2656,22.8125 Q168.2656,19.6875 169.5781,18.0313 Q170.9063,16.375 173.4063,16.375 Q174.1094,16.375 174.75,16.5313 Q175.4063,16.6875 175.9688,16.9844 L175.9688,19.7031 Q175.3438,19.125 174.75,18.8594 Q174.1563,18.5781 173.5313,18.5781 Q172.1875,18.5781 171.5,19.6563 Q170.8125,20.7188 170.8125,22.8125 Q170.8125,24.9063 171.5,25.9844 Q172.1875,27.0469 173.5313,27.0469 Q174.1563,27.0469 174.75,26.7813 Q175.3438,26.5 175.9688,25.9219 L175.9688,28.6406 Z " fill="#000000"/><text fill="#000000" font-family="sans-serif" font-size="14" lengthAdjust="spacing" textLength="85.6338" x="187" y="27.8467">Deployment</text><line style="stroke:#181818;stroke-width:0.5;" x1="159" x2="274.6338" y1="39" y2="39"/><line style="stroke:#181818;stroke-width:0.5;" x1="159" x2="274.6338" y1="47" y2="47"/></g><!--class Stimulus--><g class="entity" data-qualified-name="Stimulus" data-source-line="23" id="ent0047"><rect fill="#F1F1F1" height="48" rx="2.5" ry="2.5" style="stroke:#181818;stroke-width:0.5;" width="92.833" x="311.5" y="7"/><ellipse cx="326.5" cy="23" fill="#ADD1B2" rx="11" ry="11" style="stroke:#181818;stroke-width:1;"/><path d="M329.4688,28.6406 Q328.8906,28.9375 328.25,29.0781 Q327.6094,29.2344 326.9063,29.2344 Q324.4063,29.2344 323.0781,27.5938 Q321.7656,25.9375 321.7656,22.8125 Q321.7656,19.6875 323.0781,18.0313 Q324.4063,16.375 326.9063,16.375 Q327.6094,16.375 328.25,16.5313 Q328.9063,16.6875 329.4688,16.9844 L329.4688,19.7031 Q328.8438,19.125 328.25,18.8594 Q327.6563,18.5781 327.0313,18.5781 Q325.6875,18.5781 325,19.6563 Q324.3125,20.7188 324.3125,22.8125 Q324.3125,24.9063 325,25.9844 Q325.6875,27.0469 327.0313,27.0469 Q327.6563,27.0469 328.25,26.7813 Q328.8438,26.5 329.4688,25.9219 L329.4688,28.6406 Z " fill="#000000"/><text fill="#000000" font-family="sans-serif" font-size="14" lengthAdjust="spacing" textLength="60.833" x="340.5" y="27.8467">Stimulus</text><line style="stroke:#181818;stroke-width:0.5;" x1="312.5" x2="403.333" y1="39" y2="39"/><line style="stroke:#181818;stroke-width:0.5;" x1="312.5" x2="403.333" y1="47" y2="47"/></g><!--class SampleCollection--><g class="entity" data-qualified-name="SampleCollection" data-source-line="24" id="ent0048"><rect fill="#F1F1F1" height="48" rx="2.5" ry="2.5" style="stroke:#181818;stroke-width:0.5;" width="153.7412" x="8" y="115"/><ellipse cx="23" cy="131" fill="#ADD1B2" rx="11" ry="11" style="stroke:#181818;stroke-width:1;"/><path d="M25.9688,136.6406 Q25.3906,136.9375 24.75,137.0781 Q24.1094,137.2344 23.4063,137.2344 Q20.9063,137.2344 19.5781,135.5938 Q18.2656,133.9375 18.2656,130.8125 Q18.2656,127.6875 19.5781,126.0313 Q20.9063,124.375 23.4063,124.375 Q24.1094,124.375 24.75,124.5313 Q25.4063,124.6875 25.9688,124.9844 L25.9688,127.7031 Q25.3438,127.125 24.75,126.8594 Q24.1563,126.5781 23.5313,126.5781 Q22.1875,126.5781 21.5,127.6563 Q20.8125,128.7188 20.8125,130.8125 Q20.8125,132.9063 21.5,133.9844 Q22.1875,135.0469 23.5313,135.0469 Q24.1563,135.0469 24.75,134.7813 Q25.3438,134.5 25.9688,133.9219 L25.9688,136.6406 Z " fill="#000000"/><text fill="#000000" font-family="sans-serif" font-size="14" lengthAdjust="spacing" textLength="121.7412" x="37" y="135.8467">SampleCollection</text><line style="stroke:#181818;stroke-width:0.5;" x1="9" x2="160.7412" y1="147" y2="147"/><line style="stroke:#181818;stroke-width:0.5;" x1="9" x2="160.7412" y1="155" y2="155"/></g><!--class Output--><g class="entity" data-qualified-name="Output" data-source-line="25" id="ent0049"><rect fill="#F1F1F1" height="48" rx="2.5" ry="2.5" style="stroke:#181818;stroke-width:0.5;" width="80.6309" x="197.5" y="115"/><ellipse cx="212.5" cy="131" fill="#ADD1B2" rx="11" ry="11" style="stroke:#181818;stroke-width:1;"/><path d="M215.4688,136.6406 Q214.8906,136.9375 214.25,137.0781 Q213.6094,137.2344 212.9063,137.2344 Q210.4063,137.2344 209.0781,135.5938 Q207.7656,133.9375 207.7656,130.8125 Q207.7656,127.6875 209.0781,126.0313 Q210.4063,124.375 212.9063,124.375 Q213.6094,124.375 214.25,124.5313 Q214.9063,124.6875 215.4688,124.9844 L215.4688,127.7031 Q214.8438,127.125 214.25,126.8594 Q213.6563,126.5781 213.0313,126.5781 Q211.6875,126.5781 211,127.6563 Q210.3125,128.7188 210.3125,130.8125 Q210.3125,132.9063 211,133.9844 Q211.6875,135.0469 213.0313,135.0469 Q213.6563,135.0469 214.25,134.7813 Q214.8438,134.5 215.4688,133.9219 L215.4688,136.6406 Z " fill="#000000"/><text fill="#000000" font-family="sans-serif" font-size="14" lengthAdjust="spacing" textLength="48.6309" x="226.5" y="135.8467">Output</text><line style="stroke:#181818;stroke-width:0.5;" x1="198.5" x2="277.1309" y1="147" y2="147"/><line style="stroke:#181818;stroke-width:0.5;" x1="198.5" x2="277.1309" y1="155" y2="155"/></g><!--class Input--><g class="entity" data-qualified-name="Input" data-source-line="29" id="ent0050"><rect fill="#F1F1F1" height="48" rx="2.5" ry="2.5" style="stroke:#181818;stroke-width:0.5;" width="68.251" x="314" y="115"/><ellipse cx="329" cy="131" fill="#ADD1B2" rx="11" ry="11" style="stroke:#181818;stroke-width:1;"/><path d="M331.9688,136.6406 Q331.3906,136.9375 330.75,137.0781 Q330.1094,137.2344 329.4063,137.2344 Q326.9063,137.2344 325.5781,135.5938 Q324.2656,133.9375 324.2656,130.8125 Q324.2656,127.6875 325.5781,126.0313 Q326.9063,124.375 329.4063,124.375 Q330.1094,124.375 330.75,124.5313 Q331.4063,124.6875 331.9688,124.9844 L331.9688,127.7031 Q331.3438,127.125 330.75,126.8594 Q330.1563,126.5781 329.5313,126.5781 Q328.1875,126.5781 327.5,127.6563 Q326.8125,128.7188 326.8125,130.8125 Q326.8125,132.9063 327.5,133.9844 Q328.1875,135.0469 329.5313,135.0469 Q330.1563,135.0469 330.75,134.7813 Q331.3438,134.5 331.9688,133.9219 L331.9688,136.6406 Z " fill="#000000"/><text fill="#000000" font-family="sans-serif" font-size="14" lengthAdjust="spacing" textLength="36.251" x="343" y="135.8467">Input</text><line style="stroke:#181818;stroke-width:0.5;" x1="315" x2="381.251" y1="147" y2="147"/><line style="stroke:#181818;stroke-width:0.5;" x1="315" x2="381.251" y1="155" y2="155"/></g><!--class FeatureOfInterest--><g class="entity" data-qualified-name="FeatureOfInterest" data-source-line="30" id="ent0051"><rect fill="#F1F1F1" height="48" rx="2.5" ry="2.5" style="stroke:#181818;stroke-width:0.5;" width="156.1816" x="7" y="223"/><ellipse cx="22" cy="239" fill="#ADD1B2" rx="11" ry="11" style="stroke:#181818;stroke-width:1;"/><path d="M24.9688,244.6406 Q24.3906,244.9375 23.75,245.0781 Q23.1094,245.2344 22.4063,245.2344 Q19.9063,245.2344 18.5781,243.5938 Q17.2656,241.9375 17.2656,238.8125 Q17.2656,235.6875 18.5781,234.0313 Q19.9063,232.375 22.4063,232.375 Q23.1094,232.375 23.75,232.5313 Q24.4063,232.6875 24.9688,232.9844 L24.9688,235.7031 Q24.3438,235.125 23.75,234.8594 Q23.1563,234.5781 22.5313,234.5781 Q21.1875,234.5781 20.5,235.6563 Q19.8125,236.7188 19.8125,238.8125 Q19.8125,240.9063 20.5,241.9844 Q21.1875,243.0469 22.5313,243.0469 Q23.1563,243.0469 23.75,242.7813 Q24.3438,242.5 24.9688,241.9219 L24.9688,244.6406 Z " fill="#000000"/><text fill="#000000" font-family="sans-serif" font-size="14" lengthAdjust="spacing" textLength="124.1816" x="36" y="243.8467">FeatureOfInterest</text><line style="stroke:#181818;stroke-width:0.5;" x1="8" x2="162.1816" y1="255" y2="255"/><line style="stroke:#181818;stroke-width:0.5;" x1="8" x2="162.1816" y1="263" y2="263"/></g><!--reverse link Property to ActuatableProperty--><g class="link" data-entity-1="ent0001" data-entity-2="ent0002" data-link-type="extension" data-source-line="1" id="lnk3"><path codeLine="1" d="M568.3905,67.9716 C551.4005,85.6316 540.51,96.94 523.44,114.68" fill="none" id="Property-backto-ActuatableProperty" style="stroke:#181818;stroke-width:1;"/><polygon fill="none" points="580.87,55,564.0667,63.8118,572.7144,72.1314,580.87,55" style="stroke:#181818;stroke-width:1;stroke-linejoin:miter;stroke-miterlimit:10;"/></g><!--reverse link Sample to MaterialSample--><g class="link" data-entity-1="ent0004" data-entity-2="ent0005" data-link-type="extension" data-source-line="2" id="lnk6"><path codeLine="2" d="M1017.3567,64.4445 C988.6067,82.1645 964.35,97.11 935.55,114.86" fill="none" id="Sample-backto-MaterialSample" style="stroke:#181818;stroke-width:1;"/><polygon fill="none" points="1032.68,55,1014.2086,59.3367,1020.5049,69.5522,1032.68,55" style="stroke:#181818;stroke-width:1;stroke-linejoin:miter;stroke-miterlimit:10;"/></g><!--reverse link Sample to SpatialSample--><g class="link" data-entity-1="ent0004" data-entity-2="ent0007" data-link-type="extension" data-source-line="3" id="lnk8"><path codeLine="3" d="M1070,73 C1070,90.66 1070,96.94 1070,114.68" fill="none" id="Sample-backto-SpatialSample" style="stroke:#181818;stroke-width:1;"/><polygon fill="none" points="1070,55,1064,73,1076,73,1070,55" style="stroke:#181818;stroke-width:1;stroke-linejoin:miter;stroke-miterlimit:10;"/></g><!--reverse link Sample to StatisticalSample--><g class="link" data-entity-1="ent0004" data-entity-2="ent0009" data-link-type="extension" data-source-line="4" id="lnk10"><path codeLine="4" d="M1124.3276,64.1725 C1154.2476,81.8925 1179.95,97.11 1209.93,114.86" fill="none" id="Sample-backto-StatisticalSample" style="stroke:#181818;stroke-width:1;"/><polygon fill="none" points="1108.84,55,1121.2701,69.335,1127.3851,59.0099,1108.84,55" style="stroke:#181818;stroke-width:1;stroke-linejoin:miter;stroke-miterlimit:10;"/></g><!--reverse link Property to ObservableProperty--><g class="link" data-entity-1="ent0001" data-entity-2="ent0011" data-link-type="extension" data-source-line="5" id="lnk12"><path codeLine="5" d="M637.8939,67.9094 C655.0539,85.5694 666.1,96.94 683.34,114.68" fill="none" id="Property-backto-ObservableProperty" style="stroke:#181818;stroke-width:1;"/><polygon fill="none" points="625.35,55,633.5907,72.0906,642.197,63.7281,625.35,55" style="stroke:#181818;stroke-width:1;stroke-linejoin:miter;stroke-miterlimit:10;"/></g><!--reverse link Procedure to ActuatingProcedure--><g class="link" data-entity-1="ent0013" data-entity-2="ent0014" data-link-type="extension" data-source-line="6" id="lnk15"><path codeLine="6" d="M1593.8326,63.1732 C1559.0626,80.8932 1527.24,97.11 1492.4,114.86" fill="none" id="Procedure-backto-ActuatingProcedure" style="stroke:#181818;stroke-width:1;"/><polygon fill="none" points="1609.87,55,1591.1082,57.8274,1596.557,68.519,1609.87,55" style="stroke:#181818;stroke-width:1;stroke-linejoin:miter;stroke-miterlimit:10;"/></g><!--reverse link Procedure to ObservingProcedure--><g class="link" data-entity-1="ent0013" data-entity-2="ent0016" data-link-type="extension" data-source-line="7" id="lnk17"><path codeLine="7" d="M1655,73 C1655,90.66 1655,96.94 1655,114.68" fill="none" id="Procedure-backto-ObservingProcedure" style="stroke:#181818;stroke-width:1;"/><polygon fill="none" points="1655,55,1649,73,1661,73,1655,55" style="stroke:#181818;stroke-width:1;stroke-linejoin:miter;stroke-miterlimit:10;"/></g><!--reverse link Procedure to SamplingProcedure--><g class="link" data-entity-1="ent0013" data-entity-2="ent0018" data-link-type="extension" data-source-line="8" id="lnk19"><path codeLine="8" d="M1715.9411,63.205 C1750.5411,80.925 1782.15,97.11 1816.81,114.86" fill="none" id="Procedure-backto-SamplingProcedure" style="stroke:#181818;stroke-width:1;"/><polygon fill="none" points="1699.92,55,1713.2061,68.5454,1718.6762,57.8647,1699.92,55" style="stroke:#181818;stroke-width:1;stroke-linejoin:miter;stroke-miterlimit:10;"/></g><!--reverse link Asset to Platform--><g class="link" data-entity-1="ent0020" data-entity-2="ent0021" data-link-type="extension" data-source-line="9" id="lnk22"><path codeLine="9" d="M2065.7839,70.6022 C2055.6239,88.2622 2050.63,96.94 2040.42,114.68" fill="none" id="Asset-backto-Platform" style="stroke:#181818;stroke-width:1;"/><polygon fill="none" points="2074.76,55,2060.5831,67.6102,2070.9846,73.5943,2074.76,55" style="stroke:#181818;stroke-width:1;stroke-linejoin:miter;stroke-miterlimit:10;"/></g><!--reverse link System to Sampler--><g class="link" data-entity-1="ent0023" data-entity-2="ent0024" data-link-type="extension" data-source-line="10" id="lnk25"><path codeLine="10" d="M2108.8865,174.5884 C2087.8965,192.2484 2072.81,204.94 2051.72,222.68" fill="none" id="System-backto-Sampler" style="stroke:#181818;stroke-width:1;"/><polygon fill="none" points="2122.66,163,2105.0237,169.9972,2112.7493,179.1795,2122.66,163" style="stroke:#181818;stroke-width:1;stroke-linejoin:miter;stroke-miterlimit:10;"/></g><!--reverse link System to Actuator--><g class="link" data-entity-1="ent0023" data-entity-2="ent0026" data-link-type="extension" data-source-line="11" id="lnk27"><path codeLine="11" d="M2150,181 C2150,198.66 2150,204.94 2150,222.68" fill="none" id="System-backto-Actuator" style="stroke:#181818;stroke-width:1;"/><polygon fill="none" points="2150,163,2144,181,2156,181,2150,163" style="stroke:#181818;stroke-width:1;stroke-linejoin:miter;stroke-miterlimit:10;"/></g><!--reverse link Asset to System--><g class="link" data-entity-1="ent0020" data-entity-2="ent0023" data-link-type="extension" data-source-line="12" id="lnk28"><path codeLine="12" d="M2110.5383,70.5372 C2120.8683,88.1972 2125.98,96.94 2136.36,114.68" fill="none" id="Asset-backto-System" style="stroke:#181818;stroke-width:1;"/><polygon fill="none" points="2101.45,55,2105.3592,73.5666,2115.7173,67.5077,2101.45,55" style="stroke:#181818;stroke-width:1;stroke-linejoin:miter;stroke-miterlimit:10;"/></g><!--reverse link Execution to Sampling--><g class="link" data-entity-1="ent0029" data-entity-2="ent0030" data-link-type="extension" data-source-line="13" id="lnk31"><path codeLine="13" d="M2366.8041,66.1688 C2344.4841,83.8288 2327.91,96.94 2305.48,114.68" fill="none" id="Execution-backto-Sampling" style="stroke:#181818;stroke-width:1;"/><polygon fill="none" points="2380.92,55,2363.0812,61.4635,2370.527,70.8741,2380.92,55" style="stroke:#181818;stroke-width:1;stroke-linejoin:miter;stroke-miterlimit:10;"/></g><!--reverse link ExecutionCollection to SamplingCollection--><g class="link" data-entity-1="ent0032" data-entity-2="ent0033" data-link-type="extension" data-source-line="14" id="lnk34"><path codeLine="14" d="M2872.231,63.3636 C2838.461,81.0836 2807.93,97.11 2774.09,114.86" fill="none" id="ExecutionCollection-backto-SamplingCollection" style="stroke:#181818;stroke-width:1;"/><polygon fill="none" points="2888.17,55,2869.4432,58.0506,2875.0189,68.6766,2888.17,55" style="stroke:#181818;stroke-width:1;stroke-linejoin:miter;stroke-miterlimit:10;"/></g><!--reverse link Execution to Actuation--><g class="link" data-entity-1="ent0029" data-entity-2="ent0035" data-link-type="extension" data-source-line="15" id="lnk36"><path codeLine="15" d="M2410,73 C2410,90.66 2410,96.94 2410,114.68" fill="none" id="Execution-backto-Actuation" style="stroke:#181818;stroke-width:1;"/><polygon fill="none" points="2410,55,2404,73,2416,73,2410,55" style="stroke:#181818;stroke-width:1;stroke-linejoin:miter;stroke-miterlimit:10;"/></g><!--reverse link System to Sensor--><g class="link" data-entity-1="ent0023" data-entity-2="ent0037" data-link-type="extension" data-source-line="16" id="lnk38"><path codeLine="16" d="M2189.7968,174.864 C2209.9468,192.524 2224.13,204.94 2244.38,222.68" fill="none" id="System-backto-Sensor" style="stroke:#181818;stroke-width:1;"/><polygon fill="none" points="2176.26,163,2185.8421,179.3763,2193.7515,170.3518,2176.26,163" style="stroke:#181818;stroke-width:1;stroke-linejoin:miter;stroke-miterlimit:10;"/></g><!--reverse link ExecutionCollection to ActuationCollection--><g class="link" data-entity-1="ent0032" data-entity-2="ent0039" data-link-type="extension" data-source-line="17" id="lnk40"><path codeLine="17" d="M2932,73 C2932,90.66 2932,96.94 2932,114.68" fill="none" id="ExecutionCollection-backto-ActuationCollection" style="stroke:#181818;stroke-width:1;"/><polygon fill="none" points="2932,55,2926,73,2938,73,2932,55" style="stroke:#181818;stroke-width:1;stroke-linejoin:miter;stroke-miterlimit:10;"/></g><!--reverse link ExecutionCollection to ObservationCollection--><g class="link" data-entity-1="ent0032" data-entity-2="ent0041" data-link-type="extension" data-source-line="18" id="lnk42"><path codeLine="18" d="M2994.0997,63.0498 C3029.5397,80.7698 3062.22,97.11 3097.72,114.86" fill="none" id="ExecutionCollection-backto-ObservationCollection" style="stroke:#181818;stroke-width:1;"/><polygon fill="none" points="2978,55,2991.4164,68.4164,2996.783,57.6833,2978,55" style="stroke:#181818;stroke-width:1;stroke-linejoin:miter;stroke-miterlimit:10;"/></g><!--reverse link Execution to Observation--><g class="link" data-entity-1="ent0029" data-entity-2="ent0043" data-link-type="extension" data-source-line="19" id="lnk44"><path codeLine="19" d="M2455.4895,65.7202 C2479.3095,83.3802 2497.61,96.94 2521.54,114.68" fill="none" id="Execution-backto-Observation" style="stroke:#181818;stroke-width:1;"/><polygon fill="none" points="2441.03,55,2451.9161,70.54,2459.0629,60.9004,2441.03,55" style="stroke:#181818;stroke-width:1;stroke-linejoin:miter;stroke-miterlimit:10;"/></g><?plantuml-src ZL99RiCm3Bpx5Vb0Vj1Bq0N8eR1Hlu1HcK80jK2aYXheuok4tkJKHM_Yp726bDIb4379S7ZuFXuF9oCP12w4tOWtFRX8gFGh22OBf5X5zH5aXv72i5WpirsLsLuOqsULMGu6ttF2zLJMVypuLg4UVobkqPNWn8oYP4SWrv1Sqmyiw5OTc2fC9mbftQnyy_o59eiDlivRyCT0XEPUiU1RZt7lGbHpeUSomQxltFMRyLOyNlwU_4xK60BcQMSjtf0poLWyOQGmEFGJq8jrcJ9FvUrMLraAjrbY_g_7_4-qFFkbzGL1okEsrxClNnLPVW00?></g></svg>