<svg xmlns="http://www.w3.org/2000/svg" xmlns:xlink="http://www.w3.org/1999/xlink" contentStyleType="text/css" data-diagram-type="CLASS" height="286px" preserveAspectRatio="none" style="width:3250px;height:286px;background:#FFFFFF;" version="1.1" viewBox="0 0 3250 286" width="3250px" zoomAndPan="magnify"><?plantuml 1.2026.6?><defs/><g><!--class Property--><g class="entity" data-qualified-name="Property" data-source-line="1" id="ent0001"><rect fill="#F1F1F1" height="48" rx="2.5" ry="2.5" style="stroke:#181818;stroke-width:0.5;" width="91.7939" x="578" y="7"/><ellipse cx="593" cy="23" fill="#ADD1B2" rx="11" ry="11" style="stroke:#181818;stroke-width:1;"/><path d="M595.9688,28.6406 Q595.3906,28.9375 594.75,29.0781 Q594.1094,29.2344 593.4063,29.2344 Q590.9063,29.2344 589.5781,27.5938 Q588.2656,25.9375 588.2656,22.8125 Q588.2656,19.6875 589.5781,18.0313 Q590.9063,16.375 593.4063,16.375 Q594.1094,16.375 594.75,16.5313 Q595.4063,16.6875 595.9688,16.9844 L595.9688,19.7031 Q595.3438,19.125 594.75,18.8594 Q594.1563,18.5781 593.5313,18.5781 Q592.1875,18.5781 591.5,19.6563 Q590.8125,20.7188 590.8125,22.8125 Q590.8125,24.9063 591.5,25.9844 Q592.1875,27.0469 593.5313,27.0469 Q594.1563,27.0469 594.75,26.7813 Q595.3438,26.5 595.9688,25.9219 L595.9688,28.6406 Z " fill="#000000"/><text fill="#000000" font-family="sans-serif" font-size="14" lengthAdjust="spacing" textLength="59.7939" x="607" y="27.8467">Property</text><line style="stroke:#181818;stroke-width:0.5;" x1="579" x2="668.7939" y1="39" y2="39"/><line style="stroke:#181818;stroke-width:0.5;" x1="579" x2="668.7939" y1="47" y2="47"/></g><!--class ActuatableProperty--><g class="entity" data-qualified-name="ActuatableProperty" data-source-line="1" id="ent0002"><rect fill="#F1F1F1" height="48" rx="2.5" ry="2.5" style="stroke:#181818;stroke-width:0.5;" width="167.4678" x="415.5" y="115"/><ellipse cx="430.5" cy="131" fill="#ADD1B2" rx="11" ry="11" style="stroke:#181818;stroke-width:1;"/><path d="M433.4688,136.6406 Q432.8906,136.9375 432.25,137.0781 Q431.6094,137.2344 430.9063,137.2344 Q428.4063,137.2344 427.0781,135.5938 Q425.7656,133.9375 425.7656,130.8125 Q425.7656,127.6875 427.0781,126.0313 Q428.4063,124.375 430.9063,124.375 Q431.6094,124.375 432.25,124.5313 Q432.9063,124.6875 433.4688,124.9844 L433.4688,127.7031 Q432.8438,127.125 432.25,126.8594 Q431.6563,126.5781 431.0313,126.5781 Q429.6875,126.5781 429,127.6563 Q428.3125,128.7188 428.3125,130.8125 Q428.3125,132.9063 429,133.9844 Q429.6875,135.0469 431.0313,135.0469 Q431.6563,135.0469 432.25,134.7813 Q432.8438,134.5 433.4688,133.9219 L433.4688,136.6406 Z " fill="#000000"/><text fill="#000000" font-family="sans-serif" font-size="14" lengthAdjust="spacing" textLength="135.4678" x="444.5" y="135.8467">ActuatableProperty</text><line style="stroke:#181818;stroke-width:0.5;" x1="416.5" x2="581.9678" y1="147" y2="147"/><line style="stroke:#181818;stroke-width:0.5;" x1="416.5" x2="581.9678" y1="155" y2="155"/></g><!--class Sample--><g class="entity" data-qualified-name="Sample" data-source-line="2" id="ent0004"><rect fill="#F1F1F1" height="48" rx="2.5" ry="2.5" style="stroke:#181818;stroke-width:0.5;" width="84.4932" x="1026" y="7"/><ellipse cx="1041" cy="23" fill="#ADD1B2" rx="11" ry="11" style="stroke:#181818;stroke-width:1;"/><path d="M1043.9688,28.6406 Q1043.3906,28.9375 1042.75,29.0781 Q1042.1094,29.2344 1041.4063,29.2344 Q1038.9063,29.2344 1037.5781,27.5938 Q1036.2656,25.9375 1036.2656,22.8125 Q1036.2656,19.6875 1037.5781,18.0313 Q1038.9063,16.375 1041.4063,16.375 Q1042.1094,16.375 1042.75,16.5313 Q1043.4063,16.6875 1043.9688,16.9844 L1043.9688,19.7031 Q1043.3438,19.125 1042.75,18.8594 Q1042.1563,18.5781 1041.5313,18.5781 Q1040.1875,18.5781 1039.5,19.6563 Q1038.8125,20.7188 1038.8125,22.8125 Q1038.8125,24.9063 1039.5,25.9844 Q1040.1875,27.0469 1041.5313,27.0469 Q1042.1563,27.0469 1042.75,26.7813 Q1043.3438,26.5 1043.9688,25.9219 L1043.9688,28.6406 Z " fill="#000000"/><text fill="#000000" font-family="sans-serif" font-size="14" lengthAdjust="spacing" textLength="52.4932" x="1055" y="27.8467">Sample</text><line style="stroke:#181818;stroke-width:0.5;" x1="1027" x2="1109.4932" y1="39" y2="39"/><line style="stroke:#181818;stroke-width:0.5;" x1="1027" x2="1109.4932" y1="47" y2="47"/></g><!--class MaterialSample--><g class="entity" data-qualified-name="MaterialSample" data-source-line="2" id="ent0005"><rect fill="#F1F1F1" height="48" rx="2.5" ry="2.5" style="stroke:#181818;stroke-width:0.5;" width="141.3682" x="825.5" y="115"/><ellipse cx="840.5" cy="131" fill="#ADD1B2" rx="11" ry="11" style="stroke:#181818;stroke-width:1;"/><path d="M843.4688,136.6406 Q842.8906,136.9375 842.25,137.0781 Q841.6094,137.2344 840.9063,137.2344 Q838.4063,137.2344 837.0781,135.5938 Q835.7656,133.9375 835.7656,130.8125 Q835.7656,127.6875 837.0781,126.0313 Q838.4063,124.375 840.9063,124.375 Q841.6094,124.375 842.25,124.5313 Q842.9063,124.6875 843.4688,124.9844 L843.4688,127.7031 Q842.8438,127.125 842.25,126.8594 Q841.6563,126.5781 841.0313,126.5781 Q839.6875,126.5781 839,127.6563 Q838.3125,128.7188 838.3125,130.8125 Q838.3125,132.9063 839,133.9844 Q839.6875,135.0469 841.0313,135.0469 Q841.6563,135.0469 842.25,134.7813 Q842.8438,134.5 843.4688,133.9219 L843.4688,136.6406 Z " fill="#000000"/><text fill="#000000" font-family="sans-serif" font-size="14" lengthAdjust="spacing" textLength="109.3682" x="854.5" y="135.8467">MaterialSample</text><line style="stroke:#181818;stroke-width:0.5;" x1="826.5" x2="965.8682" y1="147" y2="147"/><line style="stroke:#181818;stroke-width:0.5;" x1="826.5" x2="965.8682" y1="155" y2="155"/></g><!--class SpatialSample--><g class="entity" data-qualified-name="SpatialSample" data-source-line="3" id="ent0007"><rect fill="#F1F1F1" height="48" rx="2.5" ry="2.5" style="stroke:#181818;stroke-width:0.5;" width="132.6934" x="1001.5" y="115"/><ellipse cx="1016.5" cy="131" fill="#ADD1B2" rx="11" ry="11" style="stroke:#181818;stroke-width:1;"/><path d="M1019.4688,136.6406 Q1018.8906,136.9375 1018.25,137.0781 Q1017.6094,137.2344 1016.9063,137.2344 Q1014.4063,137.2344 1013.0781,135.5938 Q1011.7656,133.9375 1011.7656,130.8125 Q1011.7656,127.6875 1013.0781,126.0313 Q1014.4063,124.375 1016.9063,124.375 Q1017.6094,124.375 1018.25,124.5313 Q1018.9063,124.6875 1019.4688,124.9844 L1019.4688,127.7031 Q1018.8438,127.125 1018.25,126.8594 Q1017.6563,126.5781 1017.0313,126.5781 Q1015.6875,126.5781 1015,127.6563 Q1014.3125,128.7188 1014.3125,130.8125 Q1014.3125,132.9063 1015,133.9844 Q1015.6875,135.0469 1017.0313,135.0469 Q1017.6563,135.0469 1018.25,134.7813 Q1018.8438,134.5 1019.4688,133.9219 L1019.4688,136.6406 Z " fill="#000000"/><text fill="#000000" font-family="sans-serif" font-size="14" lengthAdjust="spacing" textLength="100.6934" x="1030.5" y="135.8467">SpatialSample</text><line style="stroke:#181818;stroke-width:0.5;" x1="1002.5" x2="1133.1934" y1="147" y2="147"/><line style="stroke:#181818;stroke-width:0.5;" x1="1002.5" x2="1133.1934" y1="155" y2="155"/></g><!--class StatisticalSample--><g class="entity" data-qualified-name="StatisticalSample" data-source-line="4" id="ent0009"><rect fill="#F1F1F1" height="48" rx="2.5" ry="2.5" style="stroke:#181818;stroke-width:0.5;" width="153.666" x="1170" y="115"/><ellipse cx="1185" cy="131" fill="#ADD1B2" rx="11" ry="11" style="stroke:#181818;stroke-width:1;"/><path d="M1187.9688,136.6406 Q1187.3906,136.9375 1186.75,137.0781 Q1186.1094,137.2344 1185.4063,137.2344 Q1182.9063,137.2344 1181.5781,135.5938 Q1180.2656,133.9375 1180.2656,130.8125 Q1180.2656,127.6875 1181.5781,126.0313 Q1182.9063,124.375 1185.4063,124.375 Q1186.1094,124.375 1186.75,124.5313 Q1187.4063,124.6875 1187.9688,124.9844 L1187.9688,127.7031 Q1187.3438,127.125 1186.75,126.8594 Q1186.1563,126.5781 1185.5313,126.5781 Q1184.1875,126.5781 1183.5,127.6563 Q1182.8125,128.7188 1182.8125,130.8125 Q1182.8125,132.9063 1183.5,133.9844 Q1184.1875,135.0469 1185.5313,135.0469 Q1186.1563,135.0469 1186.75,134.7813 Q1187.3438,134.5 1187.9688,133.9219 L1187.9688,136.6406 Z " fill="#000000"/><text fill="#000000" font-family="sans-serif" font-size="14" lengthAdjust="spacing" textLength="121.666" x="1199" y="135.8467">StatisticalSample</text><line style="stroke:#181818;stroke-width:0.5;" x1="1171" x2="1322.666" y1="147" y2="147"/><line style="stroke:#181818;stroke-width:0.5;" x1="1171" x2="1322.666" y1="155" y2="155"/></g><!--class ObservableProperty--><g class="entity" data-qualified-name="ObservableProperty" data-source-line="5" id="ent0011"><rect fill="#F1F1F1" height="48" rx="2.5" ry="2.5" style="stroke:#181818;stroke-width:0.5;" width="171.6172" x="618" y="115"/><ellipse cx="633" cy="131" fill="#ADD1B2" rx="11" ry="11" style="stroke:#181818;stroke-width:1;"/><path d="M635.9688,136.6406 Q635.3906,136.9375 634.75,137.0781 Q634.1094,137.2344 633.4063,137.2344 Q630.9063,137.2344 629.5781,135.5938 Q628.2656,133.9375 628.2656,130.8125 Q628.2656,127.6875 629.5781,126.0313 Q630.9063,124.375 633.4063,124.375 Q634.1094,124.375 634.75,124.5313 Q635.4063,124.6875 635.9688,124.9844 L635.9688,127.7031 Q635.3438,127.125 634.75,126.8594 Q634.1563,126.5781 633.5313,126.5781 Q632.1875,126.5781 631.5,127.6563 Q630.8125,128.7188 630.8125,130.8125 Q630.8125,132.9063 631.5,133.9844 Q632.1875,135.0469 633.5313,135.0469 Q634.1563,135.0469 634.75,134.7813 Q635.3438,134.5 635.9688,133.9219 L635.9688,136.6406 Z " fill="#000000"/><text fill="#000000" font-family="sans-serif" font-size="14" lengthAdjust="spacing" textLength="139.6172" x="647" y="135.8467">ObservableProperty</text><line style="stroke:#181818;stroke-width:0.5;" x1="619" x2="788.6172" y1="147" y2="147"/><line style="stroke:#181818;stroke-width:0.5;" x1="619" x2="788.6172" y1="155" y2="155"/></g><!--class Procedure--><g class="entity" data-qualified-name="Procedure" data-source-line="6" id="ent0013"><rect fill="#F1F1F1" height="48" rx="2.5" ry="2.5" style="stroke:#181818;stroke-width:0.5;" width="103.2031" x="1601.5" y="7"/><ellipse cx="1616.5" cy="23" fill="#ADD1B2" rx="11" ry="11" style="stroke:#181818;stroke-width:1;"/><path d="M1619.4688,28.6406 Q1618.8906,28.9375 1618.25,29.0781 Q1617.6094,29.2344 1616.9063,29.2344 Q1614.4063,29.2344 1613.0781,27.5938 Q1611.7656,25.9375 1611.7656,22.8125 Q1611.7656,19.6875 1613.0781,18.0313 Q1614.4063,16.375 1616.9063,16.375 Q1617.6094,16.375 1618.25,16.5313 Q1618.9063,16.6875 1619.4688,16.9844 L1619.4688,19.7031 Q1618.8438,19.125 1618.25,18.8594 Q1617.6563,18.5781 1617.0313,18.5781 Q1615.6875,18.5781 1615,19.6563 Q1614.3125,20.7188 1614.3125,22.8125 Q1614.3125,24.9063 1615,25.9844 Q1615.6875,27.0469 1617.0313,27.0469 Q1617.6563,27.0469 1618.25,26.7813 Q1618.8438,26.5 1619.4688,25.9219 L1619.4688,28.6406 Z " fill="#000000"/><text fill="#000000" font-family="sans-serif" font-size="14" lengthAdjust="spacing" textLength="71.2031" x="1630.5" y="27.8467">Procedure</text><line style="stroke:#181818;stroke-width:0.5;" x1="1602.5" x2="1703.7031" y1="39" y2="39"/><line style="stroke:#181818;stroke-width:0.5;" x1="1602.5" x2="1703.7031" y1="47" y2="47"/></g><!--class ActuatingProcedure--><g class="entity" data-qualified-name="ActuatingProcedure" data-source-line="6" id="ent0014"><rect fill="#F1F1F1" height="48" rx="2.5" ry="2.5" style="stroke:#181818;stroke-width:0.5;" width="170.5576" x="1359.5" y="115"/><ellipse cx="1374.5" cy="131" fill="#ADD1B2" rx="11" ry="11" style="stroke:#181818;stroke-width:1;"/><path d="M1377.4688,136.6406 Q1376.8906,136.9375 1376.25,137.0781 Q1375.6094,137.2344 1374.9063,137.2344 Q1372.4063,137.2344 1371.0781,135.5938 Q1369.7656,133.9375 1369.7656,130.8125 Q1369.7656,127.6875 1371.0781,126.0313 Q1372.4063,124.375 1374.9063,124.375 Q1375.6094,124.375 1376.25,124.5313 Q1376.9063,124.6875 1377.4688,124.9844 L1377.4688,127.7031 Q1376.8438,127.125 1376.25,126.8594 Q1375.6563,126.5781 1375.0313,126.5781 Q1373.6875,126.5781 1373,127.6563 Q1372.3125,128.7188 1372.3125,130.8125 Q1372.3125,132.9063 1373,133.9844 Q1373.6875,135.0469 1375.0313,135.0469 Q1375.6563,135.0469 1376.25,134.7813 Q1376.8438,134.5 1377.4688,133.9219 L1377.4688,136.6406 Z " fill="#000000"/><text fill="#000000" font-family="sans-serif" font-size="14" lengthAdjust="spacing" textLength="138.5576" x="1388.5" y="135.8467">ActuatingProcedure</text><line style="stroke:#181818;stroke-width:0.5;" x1="1360.5" x2="1529.0576" y1="147" y2="147"/><line style="stroke:#181818;stroke-width:0.5;" x1="1360.5" x2="1529.0576" y1="155" y2="155"/></g><!--class ObservingProcedure--><g class="entity" data-qualified-name="ObservingProcedure" data-source-line="7" id="ent0016"><rect fill="#F1F1F1" height="48" rx="2.5" ry="2.5" style="stroke:#181818;stroke-width:0.5;" width="174.707" x="1565.5" y="115"/><ellipse cx="1580.5" cy="131" fill="#ADD1B2" rx="11" ry="11" style="stroke:#181818;stroke-width:1;"/><path d="M1583.4688,136.6406 Q1582.8906,136.9375 1582.25,137.0781 Q1581.6094,137.2344 1580.9063,137.2344 Q1578.4063,137.2344 1577.0781,135.5938 Q1575.7656,133.9375 1575.7656,130.8125 Q1575.7656,127.6875 1577.0781,126.0313 Q1578.4063,124.375 1580.9063,124.375 Q1581.6094,124.375 1582.25,124.5313 Q1582.9063,124.6875 1583.4688,124.9844 L1583.4688,127.7031 Q1582.8438,127.125 1582.25,126.8594 Q1581.6563,126.5781 1581.0313,126.5781 Q1579.6875,126.5781 1579,127.6563 Q1578.3125,128.7188 1578.3125,130.8125 Q1578.3125,132.9063 1579,133.9844 Q1579.6875,135.0469 1581.0313,135.0469 Q1581.6563,135.0469 1582.25,134.7813 Q1582.8438,134.5 1583.4688,133.9219 L1583.4688,136.6406 Z " fill="#000000"/><text fill="#000000" font-family="sans-serif" font-size="14" lengthAdjust="spacing" textLength="142.707" x="1594.5" y="135.8467">ObservingProcedure</text><line style="stroke:#181818;stroke-width:0.5;" x1="1566.5" x2="1739.207" y1="147" y2="147"/><line style="stroke:#181818;stroke-width:0.5;" x1="1566.5" x2="1739.207" y1="155" y2="155"/></g><!--class SamplingProcedure--><g class="entity" data-qualified-name="SamplingProcedure" data-source-line="8" id="ent0018"><rect fill="#F1F1F1" height="48" rx="2.5" ry="2.5" style="stroke:#181818;stroke-width:0.5;" width="168.7324" x="1775.5" y="115"/><ellipse cx="1790.5" cy="131" fill="#ADD1B2" rx="11" ry="11" style="stroke:#181818;stroke-width:1;"/><path d="M1793.4688,136.6406 Q1792.8906,136.9375 1792.25,137.0781 Q1791.6094,137.2344 1790.9063,137.2344 Q1788.4063,137.2344 1787.0781,135.5938 Q1785.7656,133.9375 1785.7656,130.8125 Q1785.7656,127.6875 1787.0781,126.0313 Q1788.4063,124.375 1790.9063,124.375 Q1791.6094,124.375 1792.25,124.5313 Q1792.9063,124.6875 1793.4688,124.9844 L1793.4688,127.7031 Q1792.8438,127.125 1792.25,126.8594 Q1791.6563,126.5781 1791.0313,126.5781 Q1789.6875,126.5781 1789,127.6563 Q1788.3125,128.7188 1788.3125,130.8125 Q1788.3125,132.9063 1789,133.9844 Q1789.6875,135.0469 1791.0313,135.0469 Q1791.6563,135.0469 1792.25,134.7813 Q1792.8438,134.5 1793.4688,133.9219 L1793.4688,136.6406 Z " fill="#000000"/><text fill="#000000" font-family="sans-serif" font-size="14" lengthAdjust="spacing" textLength="136.7324" x="1804.5" y="135.8467">SamplingProcedure</text><line style="stroke:#181818;stroke-width:0.5;" x1="1776.5" x2="1943.2324" y1="147" y2="147"/><line style="stroke:#181818;stroke-width:0.5;" x1="1776.5" x2="1943.2324" y1="155" y2="155"/></g><!--class Asset--><g class="entity" data-qualified-name="Asset" data-source-line="9" id="ent0020"><rect fill="#F1F1F1" height="48" rx="2.5" ry="2.5" style="stroke:#181818;stroke-width:0.5;" width="70.2676" x="2051" y="7"/><ellipse cx="2066" cy="23" fill="#ADD1B2" rx="11" ry="11" style="stroke:#181818;stroke-width:1;"/><path d="M2068.9688,28.6406 Q2068.3906,28.9375 2067.75,29.0781 Q2067.1094,29.2344 2066.4063,29.2344 Q2063.9063,29.2344 2062.5781,27.5938 Q2061.2656,25.9375 2061.2656,22.8125 Q2061.2656,19.6875 2062.5781,18.0313 Q2063.9063,16.375 2066.4063,16.375 Q2067.1094,16.375 2067.75,16.5313 Q2068.4063,16.6875 2068.9688,16.9844 L2068.9688,19.7031 Q2068.3438,19.125 2067.75,18.8594 Q2067.1563,18.5781 2066.5313,18.5781 Q2065.1875,18.5781 2064.5,19.6563 Q2063.8125,20.7188 2063.8125,22.8125 Q2063.8125,24.9063 2064.5,25.9844 Q2065.1875,27.0469 2066.5313,27.0469 Q2067.1563,27.0469 2067.75,26.7813 Q2068.3438,26.5 2068.9688,25.9219 L2068.9688,28.6406 Z " fill="#000000"/><text fill="#000000" font-family="sans-serif" font-size="14" lengthAdjust="spacing" textLength="38.2676" x="2080" y="27.8467">Asset</text><line style="stroke:#181818;stroke-width:0.5;" x1="2052" x2="2120.2676" y1="39" y2="39"/><line style="stroke:#181818;stroke-width:0.5;" x1="2052" x2="2120.2676" y1="47" y2="47"/></g><!--class Platform--><g class="entity" data-qualified-name="Platform" data-source-line="9" id="ent0021"><rect fill="#F1F1F1" height="48" rx="2.5" ry="2.5" style="stroke:#181818;stroke-width:0.5;" width="91.2881" x="1979.5" y="115"/><ellipse cx="1994.5" cy="131" fill="#ADD1B2" rx="11" ry="11" style="stroke:#181818;stroke-width:1;"/><path d="M1997.4688,136.6406 Q1996.8906,136.9375 1996.25,137.0781 Q1995.6094,137.2344 1994.9063,137.2344 Q1992.4063,137.2344 1991.0781,135.5938 Q1989.7656,133.9375 1989.7656,130.8125 Q1989.7656,127.6875 1991.0781,126.0313 Q1992.4063,124.375 1994.9063,124.375 Q1995.6094,124.375 1996.25,124.5313 Q1996.9063,124.6875 1997.4688,124.9844 L1997.4688,127.7031 Q1996.8438,127.125 1996.25,126.8594 Q1995.6563,126.5781 1995.0313,126.5781 Q1993.6875,126.5781 1993,127.6563 Q1992.3125,128.7188 1992.3125,130.8125 Q1992.3125,132.9063 1993,133.9844 Q1993.6875,135.0469 1995.0313,135.0469 Q1995.6563,135.0469 1996.25,134.7813 Q1996.8438,134.5 1997.4688,133.9219 L1997.4688,136.6406 Z " fill="#000000"/><text fill="#000000" font-family="sans-serif" font-size="14" lengthAdjust="spacing" textLength="59.2881" x="2008.5" y="135.8467">Platform</text><line style="stroke:#181818;stroke-width:0.5;" x1="1980.5" x2="2069.7881" y1="147" y2="147"/><line style="stroke:#181818;stroke-width:0.5;" x1="1980.5" x2="2069.7881" y1="155" y2="155"/></g><!--class System--><g class="entity" data-qualified-name="System" data-source-line="10" id="ent0023"><rect fill="#F1F1F1" height="48" rx="2.5" ry="2.5" style="stroke:#181818;stroke-width:0.5;" width="84.2061" x="2106" y="115"/><ellipse cx="2121" cy="131" fill="#ADD1B2" rx="11" ry="11" style="stroke:#181818;stroke-width:1;"/><path d="M2123.9688,136.6406 Q2123.3906,136.9375 2122.75,137.0781 Q2122.1094,137.2344 2121.4063,137.2344 Q2118.9063,137.2344 2117.5781,135.5938 Q2116.2656,133.9375 2116.2656,130.8125 Q2116.2656,127.6875 2117.5781,126.0313 Q2118.9063,124.375 2121.4063,124.375 Q2122.1094,124.375 2122.75,124.5313 Q2123.4063,124.6875 2123.9688,124.9844 L2123.9688,127.7031 Q2123.3438,127.125 2122.75,126.8594 Q2122.1563,126.5781 2121.5313,126.5781 Q2120.1875,126.5781 2119.5,127.6563 Q2118.8125,128.7188 2118.8125,130.8125 Q2118.8125,132.9063 2119.5,133.9844 Q2120.1875,135.0469 2121.5313,135.0469 Q2122.1563,135.0469 2122.75,134.7813 Q2123.3438,134.5 2123.9688,133.9219 L2123.9688,136.6406 Z " fill="#000000"/><text fill="#000000" font-family="sans-serif" font-size="14" lengthAdjust="spacing" textLength="52.2061" x="2135" y="135.8467">System</text><line style="stroke:#181818;stroke-width:0.5;" x1="2107" x2="2189.2061" y1="147" y2="147"/><line style="stroke:#181818;stroke-width:0.5;" x1="2107" x2="2189.2061" y1="155" y2="155"/></g><!--class Sampler--><g class="entity" data-qualified-name="Sampler" data-source-line="10" id="ent0024"><rect fill="#F1F1F1" height="48" rx="2.5" ry="2.5" style="stroke:#181818;stroke-width:0.5;" width="90.249" x="1977" y="223"/><ellipse cx="1992" cy="239" fill="#ADD1B2" rx="11" ry="11" style="stroke:#181818;stroke-width:1;"/><path d="M1994.9688,244.6406 Q1994.3906,244.9375 1993.75,245.0781 Q1993.1094,245.2344 1992.4063,245.2344 Q1989.9063,245.2344 1988.5781,243.5938 Q1987.2656,241.9375 1987.2656,238.8125 Q1987.2656,235.6875 1988.5781,234.0313 Q1989.9063,232.375 1992.4063,232.375 Q1993.1094,232.375 1993.75,232.5313 Q1994.4063,232.6875 1994.9688,232.9844 L1994.9688,235.7031 Q1994.3438,235.125 1993.75,234.8594 Q1993.1563,234.5781 1992.5313,234.5781 Q1991.1875,234.5781 1990.5,235.6563 Q1989.8125,236.7188 1989.8125,238.8125 Q1989.8125,240.9063 1990.5,241.9844 Q1991.1875,243.0469 1992.5313,243.0469 Q1993.1563,243.0469 1993.75,242.7813 Q1994.3438,242.5 1994.9688,241.9219 L1994.9688,244.6406 Z " fill="#000000"/><text fill="#000000" font-family="sans-serif" font-size="14" lengthAdjust="spacing" textLength="58.249" x="2006" y="243.8467">Sampler</text><line style="stroke:#181818;stroke-width:0.5;" x1="1978" x2="2066.249" y1="255" y2="255"/><line style="stroke:#181818;stroke-width:0.5;" x1="1978" x2="2066.249" y1="263" y2="263"/></g><!--class Actuator--><g class="entity" data-qualified-name="Actuator" data-source-line="11" id="ent0026"><rect fill="#F1F1F1" height="48" rx="2.5" ry="2.5" style="stroke:#181818;stroke-width:0.5;" width="92.0264" x="2102" y="223"/><ellipse cx="2117" cy="239" fill="#ADD1B2" rx="11" ry="11" style="stroke:#181818;stroke-width:1;"/><path d="M2119.9688,244.6406 Q2119.3906,244.9375 2118.75,245.0781 Q2118.1094,245.2344 2117.4063,245.2344 Q2114.9063,245.2344 2113.5781,243.5938 Q2112.2656,241.9375 2112.2656,238.8125 Q2112.2656,235.6875 2113.5781,234.0313 Q2114.9063,232.375 2117.4063,232.375 Q2118.1094,232.375 2118.75,232.5313 Q2119.4063,232.6875 2119.9688,232.9844 L2119.9688,235.7031 Q2119.3438,235.125 2118.75,234.8594 Q2118.1563,234.5781 2117.5313,234.5781 Q2116.1875,234.5781 2115.5,235.6563 Q2114.8125,236.7188 2114.8125,238.8125 Q2114.8125,240.9063 2115.5,241.9844 Q2116.1875,243.0469 2117.5313,243.0469 Q2118.1563,243.0469 2118.75,242.7813 Q2119.3438,242.5 2119.9688,241.9219 L2119.9688,244.6406 Z " fill="#000000"/><text fill="#000000" font-family="sans-serif" font-size="14" lengthAdjust="spacing" textLength="60.0264" x="2131" y="243.8467">Actuator</text><line style="stroke:#181818;stroke-width:0.5;" x1="2103" x2="2193.0264" y1="255" y2="255"/><line style="stroke:#181818;stroke-width:0.5;" x1="2103" x2="2193.0264" y1="263" y2="263"/></g><!--class Execution--><g class="entity" data-qualified-name="Execution" data-source-line="13" id="ent0029"><rect fill="#F1F1F1" height="48" rx="2.5" ry="2.5" style="stroke:#181818;stroke-width:0.5;" width="101.1318" x="2357.5" y="7"/><ellipse cx="2372.5" cy="23" fill="#ADD1B2" rx="11" ry="11" style="stroke:#181818;stroke-width:1;"/><path d="M2375.4688,28.6406 Q2374.8906,28.9375 2374.25,29.0781 Q2373.6094,29.2344 2372.9063,29.2344 Q2370.4063,29.2344 2369.0781,27.5938 Q2367.7656,25.9375 2367.7656,22.8125 Q2367.7656,19.6875 2369.0781,18.0313 Q2370.4063,16.375 2372.9063,16.375 Q2373.6094,16.375 2374.25,16.5313 Q2374.9063,16.6875 2375.4688,16.9844 L2375.4688,19.7031 Q2374.8438,19.125 2374.25,18.8594 Q2373.6563,18.5781 2373.0313,18.5781 Q2371.6875,18.5781 2371,19.6563 Q2370.3125,20.7188 2370.3125,22.8125 Q2370.3125,24.9063 2371,25.9844 Q2371.6875,27.0469 2373.0313,27.0469 Q2373.6563,27.0469 2374.25,26.7813 Q2374.8438,26.5 2375.4688,25.9219 L2375.4688,28.6406 Z " fill="#000000"/><text fill="#000000" font-family="sans-serif" font-size="14" lengthAdjust="spacing" textLength="69.1318" x="2386.5" y="27.8467">Execution</text><line style="stroke:#181818;stroke-width:0.5;" x1="2358.5" x2="2457.6318" y1="39" y2="39"/><line style="stroke:#181818;stroke-width:0.5;" x1="2358.5" x2="2457.6318" y1="47" y2="47"/></g><!--class Sampling--><g class="entity" data-qualified-name="Sampling" data-source-line="13" id="ent0030"><rect fill="#F1F1F1" height="48" rx="2.5" ry="2.5" style="stroke:#181818;stroke-width:0.5;" width="97.5293" x="2225" y="115"/><ellipse cx="2240" cy="131" fill="#ADD1B2" rx="11" ry="11" style="stroke:#181818;stroke-width:1;"/><path d="M2242.9688,136.6406 Q2242.3906,136.9375 2241.75,137.0781 Q2241.1094,137.2344 2240.4063,137.2344 Q2237.9063,137.2344 2236.5781,135.5938 Q2235.2656,133.9375 2235.2656,130.8125 Q2235.2656,127.6875 2236.5781,126.0313 Q2237.9063,124.375 2240.4063,124.375 Q2241.1094,124.375 2241.75,124.5313 Q2242.4063,124.6875 2242.9688,124.9844 L2242.9688,127.7031 Q2242.3438,127.125 2241.75,126.8594 Q2241.1563,126.5781 2240.5313,126.5781 Q2239.1875,126.5781 2238.5,127.6563 Q2237.8125,128.7188 2237.8125,130.8125 Q2237.8125,132.9063 2238.5,133.9844 Q2239.1875,135.0469 2240.5313,135.0469 Q2241.1563,135.0469 2241.75,134.7813 Q2242.3438,134.5 2242.9688,133.9219 L2242.9688,136.6406 Z " fill="#000000"/><text fill="#000000" font-family="sans-serif" font-size="14" lengthAdjust="spacing" textLength="65.5293" x="2254" y="135.8467">Sampling</text><line style="stroke:#181818;stroke-width:0.5;" x1="2226" x2="2321.5293" y1="147" y2="147"/><line style="stroke:#181818;stroke-width:0.5;" x1="2226" x2="2321.5293" y1="155" y2="155"/></g><!--class ExecutionCollection--><g class="entity" data-qualified-name="ExecutionCollection" data-source-line="14" id="ent0032"><rect fill="#F1F1F1" height="48" rx="2.5" ry="2.5" style="stroke:#181818;stroke-width:0.5;" width="170.3799" x="2845" y="7"/><ellipse cx="2860" cy="23" fill="#ADD1B2" rx="11" ry="11" style="stroke:#181818;stroke-width:1;"/><path d="M2862.9688,28.6406 Q2862.3906,28.9375 2861.75,29.0781 Q2861.1094,29.2344 2860.4063,29.2344 Q2857.9063,29.2344 2856.5781,27.5938 Q2855.2656,25.9375 2855.2656,22.8125 Q2855.2656,19.6875 2856.5781,18.0313 Q2857.9063,16.375 2860.4063,16.375 Q2861.1094,16.375 2861.75,16.5313 Q2862.4063,16.6875 2862.9688,16.9844 L2862.9688,19.7031 Q2862.3438,19.125 2861.75,18.8594 Q2861.1563,18.5781 2860.5313,18.5781 Q2859.1875,18.5781 2858.5,19.6563 Q2857.8125,20.7188 2857.8125,22.8125 Q2857.8125,24.9063 2858.5,25.9844 Q2859.1875,27.0469 2860.5313,27.0469 Q2861.1563,27.0469 2861.75,26.7813 Q2862.3438,26.5 2862.9688,25.9219 L2862.9688,28.6406 Z " fill="#000000"/><text fill="#000000" font-family="sans-serif" font-size="14" lengthAdjust="spacing" textLength="138.3799" x="2874" y="27.8467">ExecutionCollection</text><line style="stroke:#181818;stroke-width:0.5;" x1="2846" x2="3014.3799" y1="39" y2="39"/><line style="stroke:#181818;stroke-width:0.5;" x1="2846" x2="3014.3799" y1="47" y2="47"/></g><!--class SamplingCollection--><g class="entity" data-qualified-name="SamplingCollection" data-source-line="14" id="ent0033"><rect fill="#F1F1F1" height="48" rx="2.5" ry="2.5" style="stroke:#181818;stroke-width:0.5;" width="166.7773" x="2644.5" y="115"/><ellipse cx="2659.5" cy="131" fill="#ADD1B2" rx="11" ry="11" style="stroke:#181818;stroke-width:1;"/><path d="M2662.4688,136.6406 Q2661.8906,136.9375 2661.25,137.0781 Q2660.6094,137.2344 2659.9063,137.2344 Q2657.4063,137.2344 2656.0781,135.5938 Q2654.7656,133.9375 2654.7656,130.8125 Q2654.7656,127.6875 2656.0781,126.0313 Q2657.4063,124.375 2659.9063,124.375 Q2660.6094,124.375 2661.25,124.5313 Q2661.9063,124.6875 2662.4688,124.9844 L2662.4688,127.7031 Q2661.8438,127.125 2661.25,126.8594 Q2660.6563,126.5781 2660.0313,126.5781 Q2658.6875,126.5781 2658,127.6563 Q2657.3125,128.7188 2657.3125,130.8125 Q2657.3125,132.9063 2658,133.9844 Q2658.6875,135.0469 2660.0313,135.0469 Q2660.6563,135.0469 2661.25,134.7813 Q2661.8438,134.5 2662.4688,133.9219 L2662.4688,136.6406 Z " fill="#000000"/><text fill="#000000" font-family="sans-serif" font-size="14" lengthAdjust="spacing" textLength="134.7773" x="2673.5" y="135.8467">SamplingCollection</text><line style="stroke:#181818;stroke-width:0.5;" x1="2645.5" x2="2810.2773" y1="147" y2="147"/><line style="stroke:#181818;stroke-width:0.5;" x1="2645.5" x2="2810.2773" y1="155" y2="155"/></g><!--class Actuation--><g class="entity" data-qualified-name="Actuation" data-source-line="15" id="ent0035"><rect fill="#F1F1F1" height="48" rx="2.5" ry="2.5" style="stroke:#181818;stroke-width:0.5;" width="99.0332" x="2358.5" y="115"/><ellipse cx="2373.5" cy="131" fill="#ADD1B2" rx="11" ry="11" style="stroke:#181818;stroke-width:1;"/><path d="M2376.4688,136.6406 Q2375.8906,136.9375 2375.25,137.0781 Q2374.6094,137.2344 2373.9063,137.2344 Q2371.4063,137.2344 2370.0781,135.5938 Q2368.7656,133.9375 2368.7656,130.8125 Q2368.7656,127.6875 2370.0781,126.0313 Q2371.4063,124.375 2373.9063,124.375 Q2374.6094,124.375 2375.25,124.5313 Q2375.9063,124.6875 2376.4688,124.9844 L2376.4688,127.7031 Q2375.8438,127.125 2375.25,126.8594 Q2374.6563,126.5781 2374.0313,126.5781 Q2372.6875,126.5781 2372,127.6563 Q2371.3125,128.7188 2371.3125,130.8125 Q2371.3125,132.9063 2372,133.9844 Q2372.6875,135.0469 2374.0313,135.0469 Q2374.6563,135.0469 2375.25,134.7813 Q2375.8438,134.5 2376.4688,133.9219 L2376.4688,136.6406 Z " fill="#000000"/><text fill="#000000" font-family="sans-serif" font-size="14" lengthAdjust="spacing" textLength="67.0332" x="2387.5" y="135.8467">Actuation</text><line style="stroke:#181818;stroke-width:0.5;" x1="2359.5" x2="2456.5332" y1="147" y2="147"/><line style="stroke:#181818;stroke-width:0.5;" x1="2359.5" x2="2456.5332" y1="155" y2="155"/></g><!--class Sensor--><g class="entity" data-qualified-name="Sensor" data-source-line="16" id="ent0037"><rect fill="#F1F1F1" height="48" rx="2.5" ry="2.5" style="stroke:#181818;stroke-width:0.5;" width="79.9883" x="2229" y="223"/><ellipse cx="2244" cy="239" fill="#ADD1B2" rx="11" ry="11" style="stroke:#181818;stroke-width:1;"/><path d="M2246.9688,244.6406 Q2246.3906,244.9375 2245.75,245.0781 Q2245.1094,245.2344 2244.4063,245.2344 Q2241.9063,245.2344 2240.5781,243.5938 Q2239.2656,241.9375 2239.2656,238.8125 Q2239.2656,235.6875 2240.5781,234.0313 Q2241.9063,232.375 2244.4063,232.375 Q2245.1094,232.375 2245.75,232.5313 Q2246.4063,232.6875 2246.9688,232.9844 L2246.9688,235.7031 Q2246.3438,235.125 2245.75,234.8594 Q2245.1563,234.5781 2244.5313,234.5781 Q2243.1875,234.5781 2242.5,235.6563 Q2241.8125,236.7188 2241.8125,238.8125 Q2241.8125,240.9063 2242.5,241.9844 Q2243.1875,243.0469 2244.5313,243.0469 Q2245.1563,243.0469 2245.75,242.7813 Q2246.3438,242.5 2246.9688,241.9219 L2246.9688,244.6406 Z " fill="#000000"/><text fill="#000000" font-family="sans-serif" font-size="14" lengthAdjust="spacing" textLength="47.9883" x="2258" y="243.8467">Sensor</text><line style="stroke:#181818;stroke-width:0.5;" x1="2230" x2="2307.9883" y1="255" y2="255"/><line style="stroke:#181818;stroke-width:0.5;" x1="2230" x2="2307.9883" y1="263" y2="263"/></g><!--class ActuationCollection--><g class="entity" data-qualified-name="ActuationCollection" data-source-line="17" id="ent0039"><rect fill="#F1F1F1" height="48" rx="2.5" ry="2.5" style="stroke:#181818;stroke-width:0.5;" width="168.2813" x="2846" y="115"/><ellipse cx="2861" cy="131" fill="#ADD1B2" rx="11" ry="11" style="stroke:#181818;stroke-width:1;"/><path d="M2863.9688,136.6406 Q2863.3906,136.9375 2862.75,137.0781 Q2862.1094,137.2344 2861.4063,137.2344 Q2858.9063,137.2344 2857.5781,135.5938 Q2856.2656,133.9375 2856.2656,130.8125 Q2856.2656,127.6875 2857.5781,126.0313 Q2858.9063,124.375 2861.4063,124.375 Q2862.1094,124.375 2862.75,124.5313 Q2863.4063,124.6875 2863.9688,124.9844 L2863.9688,127.7031 Q2863.3438,127.125 2862.75,126.8594 Q2862.1563,126.5781 2861.5313,126.5781 Q2860.1875,126.5781 2859.5,127.6563 Q2858.8125,128.7188 2858.8125,130.8125 Q2858.8125,132.9063 2859.5,133.9844 Q2860.1875,135.0469 2861.5313,135.0469 Q2862.1563,135.0469 2862.75,134.7813 Q2863.3438,134.5 2863.9688,133.9219 L2863.9688,136.6406 Z " fill="#000000"/><text fill="#000000" font-family="sans-serif" font-size="14" lengthAdjust="spacing" textLength="136.2813" x="2875" y="135.8467">ActuationCollection</text><line style="stroke:#181818;stroke-width:0.5;" x1="2847" x2="3013.2813" y1="147" y2="147"/><line style="stroke:#181818;stroke-width:0.5;" x1="2847" x2="3013.2813" y1="155" y2="155"/></g><!--class ObservationCollection--><g class="entity" data-qualified-name="ObservationCollection" data-source-line="18" id="ent0041"><rect fill="#F1F1F1" height="48" rx="2.5" ry="2.5" style="stroke:#181818;stroke-width:0.5;" width="186.499" x="3049" y="115"/><ellipse cx="3064" cy="131" fill="#ADD1B2" rx="11" ry="11" style="stroke:#181818;stroke-width:1;"/><path d="M3066.9688,136.6406 Q3066.3906,136.9375 3065.75,137.0781 Q3065.1094,137.2344 3064.4063,137.2344 Q3061.9063,137.2344 3060.5781,135.5938 Q3059.2656,133.9375 3059.2656,130.8125 Q3059.2656,127.6875 3060.5781,126.0313 Q3061.9063,124.375 3064.4063,124.375 Q3065.1094,124.375 3065.75,124.5313 Q3066.4063,124.6875 3066.9688,124.9844 L3066.9688,127.7031 Q3066.3438,127.125 3065.75,126.8594 Q3065.1563,126.5781 3064.5313,126.5781 Q3063.1875,126.5781 3062.5,127.6563 Q3061.8125,128.7188 3061.8125,130.8125 Q3061.8125,132.9063 3062.5,133.9844 Q3063.1875,135.0469 3064.5313,135.0469 Q3065.1563,135.0469 3065.75,134.7813 Q3066.3438,134.5 3066.9688,133.9219 L3066.9688,136.6406 Z " fill="#000000"/><text fill="#000000" font-family="sans-serif" font-size="14" lengthAdjust="spacing" textLength="154.499" x="3078" y="135.8467">ObservationCollection</text><line style="stroke:#181818;stroke-width:0.5;" x1="3050" x2="3234.499" y1="147" y2="147"/><line style="stroke:#181818;stroke-width:0.5;" x1="3050" x2="3234.499" y1="155" y2="155"/></g><!--class Observation--><g class="entity" data-qualified-name="Observation" data-source-line="19" id="ent0043"><rect fill="#F1F1F1" height="48" rx="2.5" ry="2.5" style="stroke:#181818;stroke-width:0.5;" width="117.251" x="2492.5" y="115"/><ellipse cx="2507.5" cy="131" fill="#ADD1B2" rx="11" ry="11" style="stroke:#181818;stroke-width:1;"/><path d="M2510.4688,136.6406 Q2509.8906,136.9375 2509.25,137.0781 Q2508.6094,137.2344 2507.9063,137.2344 Q2505.4063,137.2344 2504.0781,135.5938 Q2502.7656,133.9375 2502.7656,130.8125 Q2502.7656,127.6875 2504.0781,126.0313 Q2505.4063,124.375 2507.9063,124.375 Q2508.6094,124.375 2509.25,124.5313 Q2509.9063,124.6875 2510.4688,124.9844 L2510.4688,127.7031 Q2509.8438,127.125 2509.25,126.8594 Q2508.6563,126.5781 2508.0313,126.5781 Q2506.6875,126.5781 2506,127.6563 Q2505.3125,128.7188 2505.3125,130.8125 Q2505.3125,132.9063 2506,133.9844 Q2506.6875,135.0469 2508.0313,135.0469 Q2508.6563,135.0469 2509.25,134.7813 Q2509.8438,134.5 2510.4688,133.9219 L2510.4688,136.6406 Z " fill="#000000"/><text fill="#000000" font-family="sans-serif" font-size="14" lengthAdjust="spacing" textLength="85.251" x="2521.5" y="135.8467">Observation</text><line style="stroke:#181818;stroke-width:0.5;" x1="2493.5" x2="2608.751" y1="147" y2="147"/><line style="stroke:#181818;stroke-width:0.5;" x1="2493.5" x2="2608.751" y1="155" y2="155"/></g><!--class Deployment--><g class="entity" data-qualified-name="Deployment" data-source-line="20" id="ent0045"><rect fill="#F1F1F1" height="48" rx="2.5" ry="2.5" style="stroke:#181818;stroke-width:0.5;" width="117.6338" x="25" y="7"/><ellipse cx="40" cy="23" fill="#ADD1B2" rx="11" ry="11" style="stroke:#181818;stroke-width:1;"/><path d="M42.9688,28.6406 Q42.3906,28.9375 41.75,29.0781 Q41.1094,29.2344 40.4063,29.2344 Q37.9063,29.2344 36.5781,27.5938 Q35.2656,25.9375 35.2656,22.8125 Q35.2656,19.6875 36.5781,18.0313 Q37.9063,16.375 40.4063,16.375 Q41.1094,16.375 41.75,16.5313 Q42.4063,16.6875 42.9688,16.9844 L42.9688,19.7031 Q42.3438,19.125 41.75,18.8594 Q41.1563,18.5781 40.5313,18.5781 Q39.1875,18.5781 38.5,19.6563 Q37.8125,20.7188 37.8125,22.8125 Q37.8125,24.9063 38.5,25.9844 Q39.1875,27.0469 40.5313,27.0469 Q41.1563,27.0469 41.75,26.7813 Q42.3438,26.5 42.9688,25.9219 L42.9688,28.6406 Z " fill="#000000"/><text fill="#000000" font-family="sans-serif" font-size="14" lengthAdjust="spacing" textLength="85.6338" x="54" y="27.8467">Deployment</text><line style="stroke:#181818;stroke-width:0.5;" x1="26" x2="141.6338" y1="39" y2="39"/><line style="stroke:#181818;stroke-width:0.5;" x1="26" x2="141.6338" y1="47" y2="47"/></g><!--class FeatureOfInterest--><g class="entity" data-qualified-name="FeatureOfInterest" data-source-line="22" id="ent0046"><rect fill="#F1F1F1" height="48" rx="2.5" ry="2.5" style="stroke:#181818;stroke-width:0.5;" width="156.1816" x="178" y="7"/><ellipse cx="193" cy="23" fill="#ADD1B2" rx="11" ry="11" style="stroke:#181818;stroke-width:1;"/><path d="M195.9688,28.6406 Q195.3906,28.9375 194.75,29.0781 Q194.1094,29.2344 193.4063,29.2344 Q190.9063,29.2344 189.5781,27.5938 Q188.2656,25.9375 188.2656,22.8125 Q188.2656,19.6875 189.5781,18.0313 Q190.9063,16.375 193.4063,16.375 Q194.1094,16.375 194.75,16.5313 Q195.4063,16.6875 195.9688,16.9844 L195.9688,19.7031 Q195.3438,19.125 194.75,18.8594 Q194.1563,18.5781 193.5313,18.5781 Q192.1875,18.5781 191.5,19.6563 Q190.8125,20.7188 190.8125,22.8125 Q190.8125,24.9063 191.5,25.9844 Q192.1875,27.0469 193.5313,27.0469 Q194.1563,27.0469 194.75,26.7813 Q195.3438,26.5 195.9688,25.9219 L195.9688,28.6406 Z " fill="#000000"/><text fill="#000000" font-family="sans-serif" font-size="14" lengthAdjust="spacing" textLength="124.1816" x="207" y="27.8467">FeatureOfInterest</text><line style="stroke:#181818;stroke-width:0.5;" x1="179" x2="333.1816" y1="39" y2="39"/><line style="stroke:#181818;stroke-width:0.5;" x1="179" x2="333.1816" y1="47" y2="47"/></g><!--class Stimulus--><g class="entity" data-qualified-name="Stimulus" data-source-line="24" id="ent0047"><rect fill="#F1F1F1" height="48" rx="2.5" ry="2.5" style="stroke:#181818;stroke-width:0.5;" width="92.833" x="369.5" y="7"/><ellipse cx="384.5" cy="23" fill="#ADD1B2" rx="11" ry="11" style="stroke:#181818;stroke-width:1;"/><path d="M387.4688,28.6406 Q386.8906,28.9375 386.25,29.0781 Q385.6094,29.2344 384.9063,29.2344 Q382.4063,29.2344 381.0781,27.5938 Q379.7656,25.9375 379.7656,22.8125 Q379.7656,19.6875 381.0781,18.0313 Q382.4063,16.375 384.9063,16.375 Q385.6094,16.375 386.25,16.5313 Q386.9063,16.6875 387.4688,16.9844 L387.4688,19.7031 Q386.8438,19.125 386.25,18.8594 Q385.6563,18.5781 385.0313,18.5781 Q383.6875,18.5781 383,19.6563 Q382.3125,20.7188 382.3125,22.8125 Q382.3125,24.9063 383,25.9844 Q383.6875,27.0469 385.0313,27.0469 Q385.6563,27.0469 386.25,26.7813 Q386.8438,26.5 387.4688,25.9219 L387.4688,28.6406 Z " fill="#000000"/><text fill="#000000" font-family="sans-serif" font-size="14" lengthAdjust="spacing" textLength="60.833" x="398.5" y="27.8467">Stimulus</text><line style="stroke:#181818;stroke-width:0.5;" x1="370.5" x2="461.333" y1="39" y2="39"/><line style="stroke:#181818;stroke-width:0.5;" x1="370.5" x2="461.333" y1="47" y2="47"/></g><!--class SampleCollection--><g class="entity" data-qualified-name="SampleCollection" data-source-line="26" id="ent0048"><rect fill="#F1F1F1" height="48" rx="2.5" ry="2.5" style="stroke:#181818;stroke-width:0.5;" width="153.7412" x="7" y="115"/><ellipse cx="22" cy="131" fill="#ADD1B2" rx="11" ry="11" style="stroke:#181818;stroke-width:1;"/><path d="M24.9688,136.6406 Q24.3906,136.9375 23.75,137.0781 Q23.1094,137.2344 22.4063,137.2344 Q19.9063,137.2344 18.5781,135.5938 Q17.2656,133.9375 17.2656,130.8125 Q17.2656,127.6875 18.5781,126.0313 Q19.9063,124.375 22.4063,124.375 Q23.1094,124.375 23.75,124.5313 Q24.4063,124.6875 24.9688,124.9844 L24.9688,127.7031 Q24.3438,127.125 23.75,126.8594 Q23.1563,126.5781 22.5313,126.5781 Q21.1875,126.5781 20.5,127.6563 Q19.8125,128.7188 19.8125,130.8125 Q19.8125,132.9063 20.5,133.9844 Q21.1875,135.0469 22.5313,135.0469 Q23.1563,135.0469 23.75,134.7813 Q24.3438,134.5 24.9688,133.9219 L24.9688,136.6406 Z " fill="#000000"/><text fill="#000000" font-family="sans-serif" font-size="14" lengthAdjust="spacing" textLength="121.7412" x="36" y="135.8467">SampleCollection</text><line style="stroke:#181818;stroke-width:0.5;" x1="8" x2="159.7412" y1="147" y2="147"/><line style="stroke:#181818;stroke-width:0.5;" x1="8" x2="159.7412" y1="155" y2="155"/></g><!--class Input--><g class="entity" data-qualified-name="Input" data-source-line="27" id="ent0049"><rect fill="#F1F1F1" height="48" rx="2.5" ry="2.5" style="stroke:#181818;stroke-width:0.5;" width="68.251" x="196" y="115"/><ellipse cx="211" cy="131" fill="#ADD1B2" rx="11" ry="11" style="stroke:#181818;stroke-width:1;"/><path d="M213.9688,136.6406 Q213.3906,136.9375 212.75,137.0781 Q212.1094,137.2344 211.4063,137.2344 Q208.9063,137.2344 207.5781,135.5938 Q206.2656,133.9375 206.2656,130.8125 Q206.2656,127.6875 207.5781,126.0313 Q208.9063,124.375 211.4063,124.375 Q212.1094,124.375 212.75,124.5313 Q213.4063,124.6875 213.9688,124.9844 L213.9688,127.7031 Q213.3438,127.125 212.75,126.8594 Q212.1563,126.5781 211.5313,126.5781 Q210.1875,126.5781 209.5,127.6563 Q208.8125,128.7188 208.8125,130.8125 Q208.8125,132.9063 209.5,133.9844 Q210.1875,135.0469 211.5313,135.0469 Q212.1563,135.0469 212.75,134.7813 Q213.3438,134.5 213.9688,133.9219 L213.9688,136.6406 Z " fill="#000000"/><text fill="#000000" font-family="sans-serif" font-size="14" lengthAdjust="spacing" textLength="36.251" x="225" y="135.8467">Input</text><line style="stroke:#181818;stroke-width:0.5;" x1="197" x2="263.251" y1="147" y2="147"/><line style="stroke:#181818;stroke-width:0.5;" x1="197" x2="263.251" y1="155" y2="155"/></g><!--class Output--><g class="entity" data-qualified-name="Output" data-source-line="28" id="ent0050"><rect fill="#F1F1F1" height="48" rx="2.5" ry="2.5" style="stroke:#181818;stroke-width:0.5;" width="80.6309" x="299.5" y="115"/><ellipse cx="314.5" cy="131" fill="#ADD1B2" rx="11" ry="11" style="stroke:#181818;stroke-width:1;"/><path d="M317.4688,136.6406 Q316.8906,136.9375 316.25,137.0781 Q315.6094,137.2344 314.9063,137.2344 Q312.4063,137.2344 311.0781,135.5938 Q309.7656,133.9375 309.7656,130.8125 Q309.7656,127.6875 311.0781,126.0313 Q312.4063,124.375 314.9063,124.375 Q315.6094,124.375 316.25,124.5313 Q316.9063,124.6875 317.4688,124.9844 L317.4688,127.7031 Q316.8438,127.125 316.25,126.8594 Q315.6563,126.5781 315.0313,126.5781 Q313.6875,126.5781 313,127.6563 Q312.3125,128.7188 312.3125,130.8125 Q312.3125,132.9063 313,133.9844 Q313.6875,135.0469 315.0313,135.0469 Q315.6563,135.0469 316.25,134.7813 Q316.8438,134.5 317.4688,133.9219 L317.4688,136.6406 Z " fill="#000000"/><text fill="#000000" font-family="sans-serif" font-size="14" lengthAdjust="spacing" textLength="48.6309" x="328.5" y="135.8467">Output</text><line style="stroke:#181818;stroke-width:0.5;" x1="300.5" x2="379.1309" y1="147" y2="147"/><line style="stroke:#181818;stroke-width:0.5;" x1="300.5" x2="379.1309" y1="155" y2="155"/></g><!--class Result--><g class="entity" data-qualified-name="Result" data-source-line="30" id="ent0051"><rect fill="#F1F1F1" height="48" rx="2.5" ry="2.5" style="stroke:#181818;stroke-width:0.5;" width="75.8867" x="46" y="223"/><ellipse cx="61" cy="239" fill="#ADD1B2" rx="11" ry="11" style="stroke:#181818;stroke-width:1;"/><path d="M63.9688,244.6406 Q63.3906,244.9375 62.75,245.0781 Q62.1094,245.2344 61.4063,245.2344 Q58.9063,245.2344 57.5781,243.5938 Q56.2656,241.9375 56.2656,238.8125 Q56.2656,235.6875 57.5781,234.0313 Q58.9063,232.375 61.4063,232.375 Q62.1094,232.375 62.75,232.5313 Q63.4063,232.6875 63.9688,232.9844 L63.9688,235.7031 Q63.3438,235.125 62.75,234.8594 Q62.1563,234.5781 61.5313,234.5781 Q60.1875,234.5781 59.5,235.6563 Q58.8125,236.7188 58.8125,238.8125 Q58.8125,240.9063 59.5,241.9844 Q60.1875,243.0469 61.5313,243.0469 Q62.1563,243.0469 62.75,242.7813 Q63.3438,242.5 63.9688,241.9219 L63.9688,244.6406 Z " fill="#000000"/><text fill="#000000" font-family="sans-serif" font-size="14" lengthAdjust="spacing" textLength="43.8867" x="75" y="243.8467">Result</text><line style="stroke:#181818;stroke-width:0.5;" x1="47" x2="120.8867" y1="255" y2="255"/><line style="stroke:#181818;stroke-width:0.5;" x1="47" x2="120.8867" y1="263" y2="263"/></g><!--reverse link Property to ActuatableProperty--><g class="link" data-entity-1="ent0001" data-entity-2="ent0002" data-link-type="extension" data-source-line="1" id="lnk3"><path codeLine="1" d="M583.1503,66.6403 C562.3203,84.3003 547.42,96.94 526.5,114.68" fill="none" id="Property-backto-ActuatableProperty" style="stroke:#181818;stroke-width:1;"/><polygon fill="none" points="596.88,55,579.2702,62.0637,587.0304,71.2168,596.88,55" style="stroke:#181818;stroke-width:1;stroke-linejoin:miter;stroke-miterlimit:10;"/></g><!--reverse link Sample to MaterialSample--><g class="link" data-entity-1="ent0004" data-entity-2="ent0005" data-link-type="extension" data-source-line="2" id="lnk6"><path codeLine="2" d="M1015.3567,64.4445 C986.6067,82.1645 962.35,97.11 933.55,114.86" fill="none" id="Sample-backto-MaterialSample" style="stroke:#181818;stroke-width:1;"/><polygon fill="none" points="1030.68,55,1012.2086,59.3367,1018.5049,69.5522,1030.68,55" style="stroke:#181818;stroke-width:1;stroke-linejoin:miter;stroke-miterlimit:10;"/></g><!--reverse link Sample to SpatialSample--><g class="link" data-entity-1="ent0004" data-entity-2="ent0007" data-link-type="extension" data-source-line="3" id="lnk8"><path codeLine="3" d="M1068,73 C1068,90.66 1068,96.94 1068,114.68" fill="none" id="Sample-backto-SpatialSample" style="stroke:#181818;stroke-width:1;"/><polygon fill="none" points="1068,55,1062,73,1074,73,1068,55" style="stroke:#181818;stroke-width:1;stroke-linejoin:miter;stroke-miterlimit:10;"/></g><!--reverse link Sample to StatisticalSample--><g class="link" data-entity-1="ent0004" data-entity-2="ent0009" data-link-type="extension" data-source-line="4" id="lnk10"><path codeLine="4" d="M1122.3276,64.1725 C1152.2476,81.8925 1177.95,97.11 1207.93,114.86" fill="none" id="Sample-backto-StatisticalSample" style="stroke:#181818;stroke-width:1;"/><polygon fill="none" points="1106.84,55,1119.2701,69.335,1125.3851,59.0099,1106.84,55" style="stroke:#181818;stroke-width:1;stroke-linejoin:miter;stroke-miterlimit:10;"/></g><!--reverse link Property to ObservableProperty--><g class="link" data-entity-1="ent0001" data-entity-2="ent0011" data-link-type="extension" data-source-line="5" id="lnk12"><path codeLine="5" d="M652.2042,69.3667 C665.5342,87.0267 673.01,96.94 686.4,114.68" fill="none" id="Property-backto-ObservableProperty" style="stroke:#181818;stroke-width:1;"/><polygon fill="none" points="641.36,55,647.4153,72.9815,656.9931,65.752,641.36,55" style="stroke:#181818;stroke-width:1;stroke-linejoin:miter;stroke-miterlimit:10;"/></g><!--reverse link Procedure to ActuatingProcedure--><g class="link" data-entity-1="ent0013" data-entity-2="ent0014" data-link-type="extension" data-source-line="6" id="lnk15"><path codeLine="6" d="M1591.8326,63.1732 C1557.0626,80.8932 1525.24,97.11 1490.4,114.86" fill="none" id="Procedure-backto-ActuatingProcedure" style="stroke:#181818;stroke-width:1;"/><polygon fill="none" points="1607.87,55,1589.1082,57.8274,1594.557,68.519,1607.87,55" style="stroke:#181818;stroke-width:1;stroke-linejoin:miter;stroke-miterlimit:10;"/></g><!--reverse link Procedure to ObservingProcedure--><g class="link" data-entity-1="ent0013" data-entity-2="ent0016" data-link-type="extension" data-source-line="7" id="lnk17"><path codeLine="7" d="M1653,73 C1653,90.66 1653,96.94 1653,114.68" fill="none" id="Procedure-backto-ObservingProcedure" style="stroke:#181818;stroke-width:1;"/><polygon fill="none" points="1653,55,1647,73,1659,73,1653,55" style="stroke:#181818;stroke-width:1;stroke-linejoin:miter;stroke-miterlimit:10;"/></g><!--reverse link Procedure to SamplingProcedure--><g class="link" data-entity-1="ent0013" data-entity-2="ent0018" data-link-type="extension" data-source-line="8" id="lnk19"><path codeLine="8" d="M1713.9411,63.205 C1748.5411,80.925 1780.15,97.11 1814.81,114.86" fill="none" id="Procedure-backto-SamplingProcedure" style="stroke:#181818;stroke-width:1;"/><polygon fill="none" points="1697.92,55,1711.2061,68.5454,1716.6762,57.8647,1697.92,55" style="stroke:#181818;stroke-width:1;stroke-linejoin:miter;stroke-miterlimit:10;"/></g><!--reverse link Asset to Platform--><g class="link" data-entity-1="ent0020" data-entity-2="ent0021" data-link-type="extension" data-source-line="9" id="lnk22"><path codeLine="9" d="M2063.7839,70.6022 C2053.6239,88.2622 2048.63,96.94 2038.42,114.68" fill="none" id="Asset-backto-Platform" style="stroke:#181818;stroke-width:1;"/><polygon fill="none" points="2072.76,55,2058.5831,67.6102,2068.9846,73.5943,2072.76,55" style="stroke:#181818;stroke-width:1;stroke-linejoin:miter;stroke-miterlimit:10;"/></g><!--reverse link System to Sampler--><g class="link" data-entity-1="ent0023" data-entity-2="ent0024" data-link-type="extension" data-source-line="10" id="lnk25"><path codeLine="10" d="M2106.8865,174.5884 C2085.8965,192.2484 2070.81,204.94 2049.72,222.68" fill="none" id="System-backto-Sampler" style="stroke:#181818;stroke-width:1;"/><polygon fill="none" points="2120.66,163,2103.0237,169.9972,2110.7493,179.1795,2120.66,163" style="stroke:#181818;stroke-width:1;stroke-linejoin:miter;stroke-miterlimit:10;"/></g><!--reverse link System to Actuator--><g class="link" data-entity-1="ent0023" data-entity-2="ent0026" data-link-type="extension" data-source-line="11" id="lnk27"><path codeLine="11" d="M2148,181 C2148,198.66 2148,204.94 2148,222.68" fill="none" id="System-backto-Actuator" style="stroke:#181818;stroke-width:1;"/><polygon fill="none" points="2148,163,2142,181,2154,181,2148,163" style="stroke:#181818;stroke-width:1;stroke-linejoin:miter;stroke-miterlimit:10;"/></g><!--reverse link Asset to System--><g class="link" data-entity-1="ent0020" data-entity-2="ent0023" data-link-type="extension" data-source-line="12" id="lnk28"><path codeLine="12" d="M2108.5383,70.5372 C2118.8683,88.1972 2123.98,96.94 2134.36,114.68" fill="none" id="Asset-backto-System" style="stroke:#181818;stroke-width:1;"/><polygon fill="none" points="2099.45,55,2103.3592,73.5666,2113.7173,67.5077,2099.45,55" style="stroke:#181818;stroke-width:1;stroke-linejoin:miter;stroke-miterlimit:10;"/></g><!--reverse link Execution to Sampling--><g class="link" data-entity-1="ent0029" data-entity-2="ent0030" data-link-type="extension" data-source-line="13" id="lnk31"><path codeLine="13" d="M2364.8041,66.1688 C2342.4841,83.8288 2325.91,96.94 2303.48,114.68" fill="none" id="Execution-backto-Sampling" style="stroke:#181818;stroke-width:1;"/><polygon fill="none" points="2378.92,55,2361.0812,61.4635,2368.527,70.8741,2378.92,55" style="stroke:#181818;stroke-width:1;stroke-linejoin:miter;stroke-miterlimit:10;"/></g><!--reverse link ExecutionCollection to SamplingCollection--><g class="link" data-entity-1="ent0032" data-entity-2="ent0033" data-link-type="extension" data-source-line="14" id="lnk34"><path codeLine="14" d="M2870.231,63.3636 C2836.461,81.0836 2805.93,97.11 2772.09,114.86" fill="none" id="ExecutionCollection-backto-SamplingCollection" style="stroke:#181818;stroke-width:1;"/><polygon fill="none" points="2886.17,55,2867.4432,58.0506,2873.0189,68.6766,2886.17,55" style="stroke:#181818;stroke-width:1;stroke-linejoin:miter;stroke-miterlimit:10;"/></g><!--reverse link Execution to Actuation--><g class="link" data-entity-1="ent0029" data-entity-2="ent0035" data-link-type="extension" data-source-line="15" id="lnk36"><path codeLine="15" d="M2408,73 C2408,90.66 2408,96.94 2408,114.68" fill="none" id="Execution-backto-Actuation" style="stroke:#181818;stroke-width:1;"/><polygon fill="none" points="2408,55,2402,73,2414,73,2408,55" style="stroke:#181818;stroke-width:1;stroke-linejoin:miter;stroke-miterlimit:10;"/></g><!--reverse link System to Sensor--><g class="link" data-entity-1="ent0023" data-entity-2="ent0037" data-link-type="extension" data-source-line="16" id="lnk38"><path codeLine="16" d="M2187.7968,174.864 C2207.9468,192.524 2222.13,204.94 2242.38,222.68" fill="none" id="System-backto-Sensor" style="stroke:#181818;stroke-width:1;"/><polygon fill="none" points="2174.26,163,2183.8421,179.3763,2191.7515,170.3518,2174.26,163" style="stroke:#181818;stroke-width:1;stroke-linejoin:miter;stroke-miterlimit:10;"/></g><!--reverse link ExecutionCollection to ActuationCollection--><g class="link" data-entity-1="ent0032" data-entity-2="ent0039" data-link-type="extension" data-source-line="17" id="lnk40"><path codeLine="17" d="M2930,73 C2930,90.66 2930,96.94 2930,114.68" fill="none" id="ExecutionCollection-backto-ActuationCollection" style="stroke:#181818;stroke-width:1;"/><polygon fill="none" points="2930,55,2924,73,2936,73,2930,55" style="stroke:#181818;stroke-width:1;stroke-linejoin:miter;stroke-miterlimit:10;"/></g><!--reverse link ExecutionCollection to ObservationCollection--><g class="link" data-entity-1="ent0032" data-entity-2="ent0041" data-link-type="extension" data-source-line="18" id="lnk42"><path codeLine="18" d="M2992.0997,63.0498 C3027.5397,80.7698 3060.22,97.11 3095.72,114.86" fill="none" id="ExecutionCollection-backto-ObservationCollection" style="stroke:#181818;stroke-width:1;"/><polygon fill="none" points="2976,55,2989.4164,68.4164,2994.783,57.6833,2976,55" style="stroke:#181818;stroke-width:1;stroke-linejoin:miter;stroke-miterlimit:10;"/></g><!--reverse link Execution to Observation--><g class="link" data-entity-1="ent0029" data-entity-2="ent0043" data-link-type="extension" data-source-line="19" id="lnk44"><path codeLine="19" d="M2453.4895,65.7202 C2477.3095,83.3802 2495.61,96.94 2519.54,114.68" fill="none" id="Execution-backto-Observation" style="stroke:#181818;stroke-width:1;"/><polygon fill="none" points="2439.03,55,2449.9161,70.54,2457.0629,60.9004,2439.03,55" style="stroke:#181818;stroke-width:1;stroke-linejoin:miter;stroke-miterlimit:10;"/></g><?plantuml-src VL99RiCm3Bpx5Vv0Vj1BqAP03e6D-WMCmXG2g0KYLTH07XyXKctBYNiJPuR34QK-E8z1nlRjjjkrUoKH1Cw4VS6R0OmdpFG918C6obX53HvaWv74i6WriNqripipXfzgPZeelCI0orJQVa_uMf4z_bCyHbU2FJDA9di2kRfWcc5aGRFem51XEOaBo-RCDuTVL56qi_My6NztHAYU5JE-zYZtJaIL2osd19k-KzShuxMuB7zB_YHg505p-u6Ut6ZGIW7A4dBnYI1fmztrQDD_GPRDBj4cKkHIJkzVsCS3B69b-6Xz_3Feeip5okqBEPBS0G00?></g></svg>