<svg xmlns="http://www.w3.org/2000/svg" xmlns:xlink="http://www.w3.org/1999/xlink" contentStyleType="text/css" data-diagram-type="CLASS" height="286px" preserveAspectRatio="none" style="width:3159px;height:286px;background:#FFFFFF;" version="1.1" viewBox="0 0 3159 286" width="3159px" zoomAndPan="magnify"><?plantuml 1.2026.3?><defs/><g><!--class Property--><g class="entity" data-qualified-name="Property" data-source-line="1" id="ent0002"><rect fill="#F1F1F1" height="48" rx="2.5" ry="2.5" style="stroke:#181818;stroke-width:0.5;" width="91.7939" x="534" y="7"/><ellipse cx="549" cy="23" fill="#ADD1B2" rx="11" ry="11" style="stroke:#181818;stroke-width:1;"/><path d="M551.9688,28.6406 Q551.3906,28.9375 550.75,29.0781 Q550.1094,29.2344 549.4063,29.2344 Q546.9063,29.2344 545.5781,27.5938 Q544.2656,25.9375 544.2656,22.8125 Q544.2656,19.6875 545.5781,18.0313 Q546.9063,16.375 549.4063,16.375 Q550.1094,16.375 550.75,16.5313 Q551.4063,16.6875 551.9688,16.9844 L551.9688,19.7031 Q551.3438,19.125 550.75,18.8594 Q550.1563,18.5781 549.5313,18.5781 Q548.1875,18.5781 547.5,19.6563 Q546.8125,20.7188 546.8125,22.8125 Q546.8125,24.9063 547.5,25.9844 Q548.1875,27.0469 549.5313,27.0469 Q550.1563,27.0469 550.75,26.7813 Q551.3438,26.5 551.9688,25.9219 L551.9688,28.6406 Z " fill="#000000"/><text fill="#000000" font-family="sans-serif" font-size="14" lengthAdjust="spacing" textLength="59.7939" x="563" y="27.8467">Property</text><line style="stroke:#181818;stroke-width:0.5;" x1="535" x2="624.7939" y1="39" y2="39"/><line style="stroke:#181818;stroke-width:0.5;" x1="535" x2="624.7939" y1="47" y2="47"/></g><!--class ActuatableProperty--><g class="entity" data-qualified-name="ActuatableProperty" data-source-line="1" id="ent0003"><rect fill="#F1F1F1" height="48" rx="2.5" ry="2.5" style="stroke:#181818;stroke-width:0.5;" width="167.4678" x="324.5" y="115"/><ellipse cx="339.5" cy="131" fill="#ADD1B2" rx="11" ry="11" style="stroke:#181818;stroke-width:1;"/><path d="M342.4688,136.6406 Q341.8906,136.9375 341.25,137.0781 Q340.6094,137.2344 339.9063,137.2344 Q337.4063,137.2344 336.0781,135.5938 Q334.7656,133.9375 334.7656,130.8125 Q334.7656,127.6875 336.0781,126.0313 Q337.4063,124.375 339.9063,124.375 Q340.6094,124.375 341.25,124.5313 Q341.9063,124.6875 342.4688,124.9844 L342.4688,127.7031 Q341.8438,127.125 341.25,126.8594 Q340.6563,126.5781 340.0313,126.5781 Q338.6875,126.5781 338,127.6563 Q337.3125,128.7188 337.3125,130.8125 Q337.3125,132.9063 338,133.9844 Q338.6875,135.0469 340.0313,135.0469 Q340.6563,135.0469 341.25,134.7813 Q341.8438,134.5 342.4688,133.9219 L342.4688,136.6406 Z " fill="#000000"/><text fill="#000000" font-family="sans-serif" font-size="14" lengthAdjust="spacing" textLength="135.4678" x="353.5" y="135.8467">ActuatableProperty</text><line style="stroke:#181818;stroke-width:0.5;" x1="325.5" x2="490.9678" y1="147" y2="147"/><line style="stroke:#181818;stroke-width:0.5;" x1="325.5" x2="490.9678" y1="155" y2="155"/></g><!--class Sample--><g class="entity" data-qualified-name="Sample" data-source-line="2" id="ent0005"><rect fill="#F1F1F1" height="48" rx="2.5" ry="2.5" style="stroke:#181818;stroke-width:0.5;" width="84.4932" x="935" y="7"/><ellipse cx="950" cy="23" fill="#ADD1B2" rx="11" ry="11" style="stroke:#181818;stroke-width:1;"/><path d="M952.9688,28.6406 Q952.3906,28.9375 951.75,29.0781 Q951.1094,29.2344 950.4063,29.2344 Q947.9063,29.2344 946.5781,27.5938 Q945.2656,25.9375 945.2656,22.8125 Q945.2656,19.6875 946.5781,18.0313 Q947.9063,16.375 950.4063,16.375 Q951.1094,16.375 951.75,16.5313 Q952.4063,16.6875 952.9688,16.9844 L952.9688,19.7031 Q952.3438,19.125 951.75,18.8594 Q951.1563,18.5781 950.5313,18.5781 Q949.1875,18.5781 948.5,19.6563 Q947.8125,20.7188 947.8125,22.8125 Q947.8125,24.9063 948.5,25.9844 Q949.1875,27.0469 950.5313,27.0469 Q951.1563,27.0469 951.75,26.7813 Q952.3438,26.5 952.9688,25.9219 L952.9688,28.6406 Z " fill="#000000"/><text fill="#000000" font-family="sans-serif" font-size="14" lengthAdjust="spacing" textLength="52.4932" x="964" y="27.8467">Sample</text><line style="stroke:#181818;stroke-width:0.5;" x1="936" x2="1018.4932" y1="39" y2="39"/><line style="stroke:#181818;stroke-width:0.5;" x1="936" x2="1018.4932" y1="47" y2="47"/></g><!--class MaterialSample--><g class="entity" data-qualified-name="MaterialSample" data-source-line="2" id="ent0006"><rect fill="#F1F1F1" height="48" rx="2.5" ry="2.5" style="stroke:#181818;stroke-width:0.5;" width="141.3682" x="734.5" y="115"/><ellipse cx="749.5" cy="131" fill="#ADD1B2" rx="11" ry="11" style="stroke:#181818;stroke-width:1;"/><path d="M752.4688,136.6406 Q751.8906,136.9375 751.25,137.0781 Q750.6094,137.2344 749.9063,137.2344 Q747.4063,137.2344 746.0781,135.5938 Q744.7656,133.9375 744.7656,130.8125 Q744.7656,127.6875 746.0781,126.0313 Q747.4063,124.375 749.9063,124.375 Q750.6094,124.375 751.25,124.5313 Q751.9063,124.6875 752.4688,124.9844 L752.4688,127.7031 Q751.8438,127.125 751.25,126.8594 Q750.6563,126.5781 750.0313,126.5781 Q748.6875,126.5781 748,127.6563 Q747.3125,128.7188 747.3125,130.8125 Q747.3125,132.9063 748,133.9844 Q748.6875,135.0469 750.0313,135.0469 Q750.6563,135.0469 751.25,134.7813 Q751.8438,134.5 752.4688,133.9219 L752.4688,136.6406 Z " fill="#000000"/><text fill="#000000" font-family="sans-serif" font-size="14" lengthAdjust="spacing" textLength="109.3682" x="763.5" y="135.8467">MaterialSample</text><line style="stroke:#181818;stroke-width:0.5;" x1="735.5" x2="874.8682" y1="147" y2="147"/><line style="stroke:#181818;stroke-width:0.5;" x1="735.5" x2="874.8682" y1="155" y2="155"/></g><!--class ObservableProperty--><g class="entity" data-qualified-name="ObservableProperty" data-source-line="3" id="ent0008"><rect fill="#F1F1F1" height="48" rx="2.5" ry="2.5" style="stroke:#181818;stroke-width:0.5;" width="171.6172" x="527" y="115"/><ellipse cx="542" cy="131" fill="#ADD1B2" rx="11" ry="11" style="stroke:#181818;stroke-width:1;"/><path d="M544.9688,136.6406 Q544.3906,136.9375 543.75,137.0781 Q543.1094,137.2344 542.4063,137.2344 Q539.9063,137.2344 538.5781,135.5938 Q537.2656,133.9375 537.2656,130.8125 Q537.2656,127.6875 538.5781,126.0313 Q539.9063,124.375 542.4063,124.375 Q543.1094,124.375 543.75,124.5313 Q544.4063,124.6875 544.9688,124.9844 L544.9688,127.7031 Q544.3438,127.125 543.75,126.8594 Q543.1563,126.5781 542.5313,126.5781 Q541.1875,126.5781 540.5,127.6563 Q539.8125,128.7188 539.8125,130.8125 Q539.8125,132.9063 540.5,133.9844 Q541.1875,135.0469 542.5313,135.0469 Q543.1563,135.0469 543.75,134.7813 Q544.3438,134.5 544.9688,133.9219 L544.9688,136.6406 Z " fill="#000000"/><text fill="#000000" font-family="sans-serif" font-size="14" lengthAdjust="spacing" textLength="139.6172" x="556" y="135.8467">ObservableProperty</text><line style="stroke:#181818;stroke-width:0.5;" x1="528" x2="697.6172" y1="147" y2="147"/><line style="stroke:#181818;stroke-width:0.5;" x1="528" x2="697.6172" y1="155" y2="155"/></g><!--class SpatialSample--><g class="entity" data-qualified-name="SpatialSample" data-source-line="4" id="ent0010"><rect fill="#F1F1F1" height="48" rx="2.5" ry="2.5" style="stroke:#181818;stroke-width:0.5;" width="132.6934" x="910.5" y="115"/><ellipse cx="925.5" cy="131" fill="#ADD1B2" rx="11" ry="11" style="stroke:#181818;stroke-width:1;"/><path d="M928.4688,136.6406 Q927.8906,136.9375 927.25,137.0781 Q926.6094,137.2344 925.9063,137.2344 Q923.4063,137.2344 922.0781,135.5938 Q920.7656,133.9375 920.7656,130.8125 Q920.7656,127.6875 922.0781,126.0313 Q923.4063,124.375 925.9063,124.375 Q926.6094,124.375 927.25,124.5313 Q927.9063,124.6875 928.4688,124.9844 L928.4688,127.7031 Q927.8438,127.125 927.25,126.8594 Q926.6563,126.5781 926.0313,126.5781 Q924.6875,126.5781 924,127.6563 Q923.3125,128.7188 923.3125,130.8125 Q923.3125,132.9063 924,133.9844 Q924.6875,135.0469 926.0313,135.0469 Q926.6563,135.0469 927.25,134.7813 Q927.8438,134.5 928.4688,133.9219 L928.4688,136.6406 Z " fill="#000000"/><text fill="#000000" font-family="sans-serif" font-size="14" lengthAdjust="spacing" textLength="100.6934" x="939.5" y="135.8467">SpatialSample</text><line style="stroke:#181818;stroke-width:0.5;" x1="911.5" x2="1042.1934" y1="147" y2="147"/><line style="stroke:#181818;stroke-width:0.5;" x1="911.5" x2="1042.1934" y1="155" y2="155"/></g><!--class StatisticalSample--><g class="entity" data-qualified-name="StatisticalSample" data-source-line="5" id="ent0012"><rect fill="#F1F1F1" height="48" rx="2.5" ry="2.5" style="stroke:#181818;stroke-width:0.5;" width="153.666" x="1079" y="115"/><ellipse cx="1094" cy="131" fill="#ADD1B2" rx="11" ry="11" style="stroke:#181818;stroke-width:1;"/><path d="M1096.9688,136.6406 Q1096.3906,136.9375 1095.75,137.0781 Q1095.1094,137.2344 1094.4063,137.2344 Q1091.9063,137.2344 1090.5781,135.5938 Q1089.2656,133.9375 1089.2656,130.8125 Q1089.2656,127.6875 1090.5781,126.0313 Q1091.9063,124.375 1094.4063,124.375 Q1095.1094,124.375 1095.75,124.5313 Q1096.4063,124.6875 1096.9688,124.9844 L1096.9688,127.7031 Q1096.3438,127.125 1095.75,126.8594 Q1095.1563,126.5781 1094.5313,126.5781 Q1093.1875,126.5781 1092.5,127.6563 Q1091.8125,128.7188 1091.8125,130.8125 Q1091.8125,132.9063 1092.5,133.9844 Q1093.1875,135.0469 1094.5313,135.0469 Q1095.1563,135.0469 1095.75,134.7813 Q1096.3438,134.5 1096.9688,133.9219 L1096.9688,136.6406 Z " fill="#000000"/><text fill="#000000" font-family="sans-serif" font-size="14" lengthAdjust="spacing" textLength="121.666" x="1108" y="135.8467">StatisticalSample</text><line style="stroke:#181818;stroke-width:0.5;" x1="1080" x2="1231.666" y1="147" y2="147"/><line style="stroke:#181818;stroke-width:0.5;" x1="1080" x2="1231.666" y1="155" y2="155"/></g><!--class Procedure--><g class="entity" data-qualified-name="Procedure" data-source-line="6" id="ent0014"><rect fill="#F1F1F1" height="48" rx="2.5" ry="2.5" style="stroke:#181818;stroke-width:0.5;" width="103.2031" x="1510.5" y="7"/><ellipse cx="1525.5" cy="23" fill="#ADD1B2" rx="11" ry="11" style="stroke:#181818;stroke-width:1;"/><path d="M1528.4688,28.6406 Q1527.8906,28.9375 1527.25,29.0781 Q1526.6094,29.2344 1525.9063,29.2344 Q1523.4063,29.2344 1522.0781,27.5938 Q1520.7656,25.9375 1520.7656,22.8125 Q1520.7656,19.6875 1522.0781,18.0313 Q1523.4063,16.375 1525.9063,16.375 Q1526.6094,16.375 1527.25,16.5313 Q1527.9063,16.6875 1528.4688,16.9844 L1528.4688,19.7031 Q1527.8438,19.125 1527.25,18.8594 Q1526.6563,18.5781 1526.0313,18.5781 Q1524.6875,18.5781 1524,19.6563 Q1523.3125,20.7188 1523.3125,22.8125 Q1523.3125,24.9063 1524,25.9844 Q1524.6875,27.0469 1526.0313,27.0469 Q1526.6563,27.0469 1527.25,26.7813 Q1527.8438,26.5 1528.4688,25.9219 L1528.4688,28.6406 Z " fill="#000000"/><text fill="#000000" font-family="sans-serif" font-size="14" lengthAdjust="spacing" textLength="71.2031" x="1539.5" y="27.8467">Procedure</text><line style="stroke:#181818;stroke-width:0.5;" x1="1511.5" x2="1612.7031" y1="39" y2="39"/><line style="stroke:#181818;stroke-width:0.5;" x1="1511.5" x2="1612.7031" y1="47" y2="47"/></g><!--class ActuatingProcedure--><g class="entity" data-qualified-name="ActuatingProcedure" data-source-line="6" id="ent0015"><rect fill="#F1F1F1" height="48" rx="2.5" ry="2.5" style="stroke:#181818;stroke-width:0.5;" width="170.5576" x="1268.5" y="115"/><ellipse cx="1283.5" cy="131" fill="#ADD1B2" rx="11" ry="11" style="stroke:#181818;stroke-width:1;"/><path d="M1286.4688,136.6406 Q1285.8906,136.9375 1285.25,137.0781 Q1284.6094,137.2344 1283.9063,137.2344 Q1281.4063,137.2344 1280.0781,135.5938 Q1278.7656,133.9375 1278.7656,130.8125 Q1278.7656,127.6875 1280.0781,126.0313 Q1281.4063,124.375 1283.9063,124.375 Q1284.6094,124.375 1285.25,124.5313 Q1285.9063,124.6875 1286.4688,124.9844 L1286.4688,127.7031 Q1285.8438,127.125 1285.25,126.8594 Q1284.6563,126.5781 1284.0313,126.5781 Q1282.6875,126.5781 1282,127.6563 Q1281.3125,128.7188 1281.3125,130.8125 Q1281.3125,132.9063 1282,133.9844 Q1282.6875,135.0469 1284.0313,135.0469 Q1284.6563,135.0469 1285.25,134.7813 Q1285.8438,134.5 1286.4688,133.9219 L1286.4688,136.6406 Z " fill="#000000"/><text fill="#000000" font-family="sans-serif" font-size="14" lengthAdjust="spacing" textLength="138.5576" x="1297.5" y="135.8467">ActuatingProcedure</text><line style="stroke:#181818;stroke-width:0.5;" x1="1269.5" x2="1438.0576" y1="147" y2="147"/><line style="stroke:#181818;stroke-width:0.5;" x1="1269.5" x2="1438.0576" y1="155" y2="155"/></g><!--class ObservingProcedure--><g class="entity" data-qualified-name="ObservingProcedure" data-source-line="7" id="ent0017"><rect fill="#F1F1F1" height="48" rx="2.5" ry="2.5" style="stroke:#181818;stroke-width:0.5;" width="174.707" x="1474.5" y="115"/><ellipse cx="1489.5" cy="131" fill="#ADD1B2" rx="11" ry="11" style="stroke:#181818;stroke-width:1;"/><path d="M1492.4688,136.6406 Q1491.8906,136.9375 1491.25,137.0781 Q1490.6094,137.2344 1489.9063,137.2344 Q1487.4063,137.2344 1486.0781,135.5938 Q1484.7656,133.9375 1484.7656,130.8125 Q1484.7656,127.6875 1486.0781,126.0313 Q1487.4063,124.375 1489.9063,124.375 Q1490.6094,124.375 1491.25,124.5313 Q1491.9063,124.6875 1492.4688,124.9844 L1492.4688,127.7031 Q1491.8438,127.125 1491.25,126.8594 Q1490.6563,126.5781 1490.0313,126.5781 Q1488.6875,126.5781 1488,127.6563 Q1487.3125,128.7188 1487.3125,130.8125 Q1487.3125,132.9063 1488,133.9844 Q1488.6875,135.0469 1490.0313,135.0469 Q1490.6563,135.0469 1491.25,134.7813 Q1491.8438,134.5 1492.4688,133.9219 L1492.4688,136.6406 Z " fill="#000000"/><text fill="#000000" font-family="sans-serif" font-size="14" lengthAdjust="spacing" textLength="142.707" x="1503.5" y="135.8467">ObservingProcedure</text><line style="stroke:#181818;stroke-width:0.5;" x1="1475.5" x2="1648.207" y1="147" y2="147"/><line style="stroke:#181818;stroke-width:0.5;" x1="1475.5" x2="1648.207" y1="155" y2="155"/></g><!--class SamplingProcedure--><g class="entity" data-qualified-name="SamplingProcedure" data-source-line="8" id="ent0019"><rect fill="#F1F1F1" height="48" rx="2.5" ry="2.5" style="stroke:#181818;stroke-width:0.5;" width="168.7324" x="1684.5" y="115"/><ellipse cx="1699.5" cy="131" fill="#ADD1B2" rx="11" ry="11" style="stroke:#181818;stroke-width:1;"/><path d="M1702.4688,136.6406 Q1701.8906,136.9375 1701.25,137.0781 Q1700.6094,137.2344 1699.9063,137.2344 Q1697.4063,137.2344 1696.0781,135.5938 Q1694.7656,133.9375 1694.7656,130.8125 Q1694.7656,127.6875 1696.0781,126.0313 Q1697.4063,124.375 1699.9063,124.375 Q1700.6094,124.375 1701.25,124.5313 Q1701.9063,124.6875 1702.4688,124.9844 L1702.4688,127.7031 Q1701.8438,127.125 1701.25,126.8594 Q1700.6563,126.5781 1700.0313,126.5781 Q1698.6875,126.5781 1698,127.6563 Q1697.3125,128.7188 1697.3125,130.8125 Q1697.3125,132.9063 1698,133.9844 Q1698.6875,135.0469 1700.0313,135.0469 Q1700.6563,135.0469 1701.25,134.7813 Q1701.8438,134.5 1702.4688,133.9219 L1702.4688,136.6406 Z " fill="#000000"/><text fill="#000000" font-family="sans-serif" font-size="14" lengthAdjust="spacing" textLength="136.7324" x="1713.5" y="135.8467">SamplingProcedure</text><line style="stroke:#181818;stroke-width:0.5;" x1="1685.5" x2="1852.2324" y1="147" y2="147"/><line style="stroke:#181818;stroke-width:0.5;" x1="1685.5" x2="1852.2324" y1="155" y2="155"/></g><!--class Asset--><g class="entity" data-qualified-name="Asset" data-source-line="9" id="ent0021"><rect fill="#F1F1F1" height="48" rx="2.5" ry="2.5" style="stroke:#181818;stroke-width:0.5;" width="70.2676" x="1960" y="7"/><ellipse cx="1975" cy="23" fill="#ADD1B2" rx="11" ry="11" style="stroke:#181818;stroke-width:1;"/><path d="M1977.9688,28.6406 Q1977.3906,28.9375 1976.75,29.0781 Q1976.1094,29.2344 1975.4063,29.2344 Q1972.9063,29.2344 1971.5781,27.5938 Q1970.2656,25.9375 1970.2656,22.8125 Q1970.2656,19.6875 1971.5781,18.0313 Q1972.9063,16.375 1975.4063,16.375 Q1976.1094,16.375 1976.75,16.5313 Q1977.4063,16.6875 1977.9688,16.9844 L1977.9688,19.7031 Q1977.3438,19.125 1976.75,18.8594 Q1976.1563,18.5781 1975.5313,18.5781 Q1974.1875,18.5781 1973.5,19.6563 Q1972.8125,20.7188 1972.8125,22.8125 Q1972.8125,24.9063 1973.5,25.9844 Q1974.1875,27.0469 1975.5313,27.0469 Q1976.1563,27.0469 1976.75,26.7813 Q1977.3438,26.5 1977.9688,25.9219 L1977.9688,28.6406 Z " fill="#000000"/><text fill="#000000" font-family="sans-serif" font-size="14" lengthAdjust="spacing" textLength="38.2676" x="1989" y="27.8467">Asset</text><line style="stroke:#181818;stroke-width:0.5;" x1="1961" x2="2029.2676" y1="39" y2="39"/><line style="stroke:#181818;stroke-width:0.5;" x1="1961" x2="2029.2676" y1="47" y2="47"/></g><!--class Platform--><g class="entity" data-qualified-name="Platform" data-source-line="9" id="ent0022"><rect fill="#F1F1F1" height="48" rx="2.5" ry="2.5" style="stroke:#181818;stroke-width:0.5;" width="91.2881" x="1888.5" y="115"/><ellipse cx="1903.5" cy="131" fill="#ADD1B2" rx="11" ry="11" style="stroke:#181818;stroke-width:1;"/><path d="M1906.4688,136.6406 Q1905.8906,136.9375 1905.25,137.0781 Q1904.6094,137.2344 1903.9063,137.2344 Q1901.4063,137.2344 1900.0781,135.5938 Q1898.7656,133.9375 1898.7656,130.8125 Q1898.7656,127.6875 1900.0781,126.0313 Q1901.4063,124.375 1903.9063,124.375 Q1904.6094,124.375 1905.25,124.5313 Q1905.9063,124.6875 1906.4688,124.9844 L1906.4688,127.7031 Q1905.8438,127.125 1905.25,126.8594 Q1904.6563,126.5781 1904.0313,126.5781 Q1902.6875,126.5781 1902,127.6563 Q1901.3125,128.7188 1901.3125,130.8125 Q1901.3125,132.9063 1902,133.9844 Q1902.6875,135.0469 1904.0313,135.0469 Q1904.6563,135.0469 1905.25,134.7813 Q1905.8438,134.5 1906.4688,133.9219 L1906.4688,136.6406 Z " fill="#000000"/><text fill="#000000" font-family="sans-serif" font-size="14" lengthAdjust="spacing" textLength="59.2881" x="1917.5" y="135.8467">Platform</text><line style="stroke:#181818;stroke-width:0.5;" x1="1889.5" x2="1978.7881" y1="147" y2="147"/><line style="stroke:#181818;stroke-width:0.5;" x1="1889.5" x2="1978.7881" y1="155" y2="155"/></g><!--class System--><g class="entity" data-qualified-name="System" data-source-line="10" id="ent0024"><rect fill="#F1F1F1" height="48" rx="2.5" ry="2.5" style="stroke:#181818;stroke-width:0.5;" width="84.2061" x="2015" y="115"/><ellipse cx="2030" cy="131" fill="#ADD1B2" rx="11" ry="11" style="stroke:#181818;stroke-width:1;"/><path d="M2032.9688,136.6406 Q2032.3906,136.9375 2031.75,137.0781 Q2031.1094,137.2344 2030.4063,137.2344 Q2027.9063,137.2344 2026.5781,135.5938 Q2025.2656,133.9375 2025.2656,130.8125 Q2025.2656,127.6875 2026.5781,126.0313 Q2027.9063,124.375 2030.4063,124.375 Q2031.1094,124.375 2031.75,124.5313 Q2032.4063,124.6875 2032.9688,124.9844 L2032.9688,127.7031 Q2032.3438,127.125 2031.75,126.8594 Q2031.1563,126.5781 2030.5313,126.5781 Q2029.1875,126.5781 2028.5,127.6563 Q2027.8125,128.7188 2027.8125,130.8125 Q2027.8125,132.9063 2028.5,133.9844 Q2029.1875,135.0469 2030.5313,135.0469 Q2031.1563,135.0469 2031.75,134.7813 Q2032.3438,134.5 2032.9688,133.9219 L2032.9688,136.6406 Z " fill="#000000"/><text fill="#000000" font-family="sans-serif" font-size="14" lengthAdjust="spacing" textLength="52.2061" x="2044" y="135.8467">System</text><line style="stroke:#181818;stroke-width:0.5;" x1="2016" x2="2098.2061" y1="147" y2="147"/><line style="stroke:#181818;stroke-width:0.5;" x1="2016" x2="2098.2061" y1="155" y2="155"/></g><!--class Sampler--><g class="entity" data-qualified-name="Sampler" data-source-line="10" id="ent0025"><rect fill="#F1F1F1" height="48" rx="2.5" ry="2.5" style="stroke:#181818;stroke-width:0.5;" width="90.249" x="1886" y="223"/><ellipse cx="1901" cy="239" fill="#ADD1B2" rx="11" ry="11" style="stroke:#181818;stroke-width:1;"/><path d="M1903.9688,244.6406 Q1903.3906,244.9375 1902.75,245.0781 Q1902.1094,245.2344 1901.4063,245.2344 Q1898.9063,245.2344 1897.5781,243.5938 Q1896.2656,241.9375 1896.2656,238.8125 Q1896.2656,235.6875 1897.5781,234.0313 Q1898.9063,232.375 1901.4063,232.375 Q1902.1094,232.375 1902.75,232.5313 Q1903.4063,232.6875 1903.9688,232.9844 L1903.9688,235.7031 Q1903.3438,235.125 1902.75,234.8594 Q1902.1563,234.5781 1901.5313,234.5781 Q1900.1875,234.5781 1899.5,235.6563 Q1898.8125,236.7188 1898.8125,238.8125 Q1898.8125,240.9063 1899.5,241.9844 Q1900.1875,243.0469 1901.5313,243.0469 Q1902.1563,243.0469 1902.75,242.7813 Q1903.3438,242.5 1903.9688,241.9219 L1903.9688,244.6406 Z " fill="#000000"/><text fill="#000000" font-family="sans-serif" font-size="14" lengthAdjust="spacing" textLength="58.249" x="1915" y="243.8467">Sampler</text><line style="stroke:#181818;stroke-width:0.5;" x1="1887" x2="1975.249" y1="255" y2="255"/><line style="stroke:#181818;stroke-width:0.5;" x1="1887" x2="1975.249" y1="263" y2="263"/></g><!--class Actuator--><g class="entity" data-qualified-name="Actuator" data-source-line="11" id="ent0027"><rect fill="#F1F1F1" height="48" rx="2.5" ry="2.5" style="stroke:#181818;stroke-width:0.5;" width="92.0264" x="2011" y="223"/><ellipse cx="2026" cy="239" fill="#ADD1B2" rx="11" ry="11" style="stroke:#181818;stroke-width:1;"/><path d="M2028.9688,244.6406 Q2028.3906,244.9375 2027.75,245.0781 Q2027.1094,245.2344 2026.4063,245.2344 Q2023.9063,245.2344 2022.5781,243.5938 Q2021.2656,241.9375 2021.2656,238.8125 Q2021.2656,235.6875 2022.5781,234.0313 Q2023.9063,232.375 2026.4063,232.375 Q2027.1094,232.375 2027.75,232.5313 Q2028.4063,232.6875 2028.9688,232.9844 L2028.9688,235.7031 Q2028.3438,235.125 2027.75,234.8594 Q2027.1563,234.5781 2026.5313,234.5781 Q2025.1875,234.5781 2024.5,235.6563 Q2023.8125,236.7188 2023.8125,238.8125 Q2023.8125,240.9063 2024.5,241.9844 Q2025.1875,243.0469 2026.5313,243.0469 Q2027.1563,243.0469 2027.75,242.7813 Q2028.3438,242.5 2028.9688,241.9219 L2028.9688,244.6406 Z " fill="#000000"/><text fill="#000000" font-family="sans-serif" font-size="14" lengthAdjust="spacing" textLength="60.0264" x="2040" y="243.8467">Actuator</text><line style="stroke:#181818;stroke-width:0.5;" x1="2012" x2="2102.0264" y1="255" y2="255"/><line style="stroke:#181818;stroke-width:0.5;" x1="2012" x2="2102.0264" y1="263" y2="263"/></g><!--class ExecutionCollection--><g class="entity" data-qualified-name="ExecutionCollection" data-source-line="12" id="ent0029"><rect fill="#F1F1F1" height="48" rx="2.5" ry="2.5" style="stroke:#181818;stroke-width:0.5;" width="170.3799" x="2335" y="7"/><ellipse cx="2350" cy="23" fill="#ADD1B2" rx="11" ry="11" style="stroke:#181818;stroke-width:1;"/><path d="M2352.9688,28.6406 Q2352.3906,28.9375 2351.75,29.0781 Q2351.1094,29.2344 2350.4063,29.2344 Q2347.9063,29.2344 2346.5781,27.5938 Q2345.2656,25.9375 2345.2656,22.8125 Q2345.2656,19.6875 2346.5781,18.0313 Q2347.9063,16.375 2350.4063,16.375 Q2351.1094,16.375 2351.75,16.5313 Q2352.4063,16.6875 2352.9688,16.9844 L2352.9688,19.7031 Q2352.3438,19.125 2351.75,18.8594 Q2351.1563,18.5781 2350.5313,18.5781 Q2349.1875,18.5781 2348.5,19.6563 Q2347.8125,20.7188 2347.8125,22.8125 Q2347.8125,24.9063 2348.5,25.9844 Q2349.1875,27.0469 2350.5313,27.0469 Q2351.1563,27.0469 2351.75,26.7813 Q2352.3438,26.5 2352.9688,25.9219 L2352.9688,28.6406 Z " fill="#000000"/><text fill="#000000" font-family="sans-serif" font-size="14" lengthAdjust="spacing" textLength="138.3799" x="2364" y="27.8467">ExecutionCollection</text><line style="stroke:#181818;stroke-width:0.5;" x1="2336" x2="2504.3799" y1="39" y2="39"/><line style="stroke:#181818;stroke-width:0.5;" x1="2336" x2="2504.3799" y1="47" y2="47"/></g><!--class SamplingCollection--><g class="entity" data-qualified-name="SamplingCollection" data-source-line="12" id="ent0030"><rect fill="#F1F1F1" height="48" rx="2.5" ry="2.5" style="stroke:#181818;stroke-width:0.5;" width="166.7773" x="2134.5" y="115"/><ellipse cx="2149.5" cy="131" fill="#ADD1B2" rx="11" ry="11" style="stroke:#181818;stroke-width:1;"/><path d="M2152.4688,136.6406 Q2151.8906,136.9375 2151.25,137.0781 Q2150.6094,137.2344 2149.9063,137.2344 Q2147.4063,137.2344 2146.0781,135.5938 Q2144.7656,133.9375 2144.7656,130.8125 Q2144.7656,127.6875 2146.0781,126.0313 Q2147.4063,124.375 2149.9063,124.375 Q2150.6094,124.375 2151.25,124.5313 Q2151.9063,124.6875 2152.4688,124.9844 L2152.4688,127.7031 Q2151.8438,127.125 2151.25,126.8594 Q2150.6563,126.5781 2150.0313,126.5781 Q2148.6875,126.5781 2148,127.6563 Q2147.3125,128.7188 2147.3125,130.8125 Q2147.3125,132.9063 2148,133.9844 Q2148.6875,135.0469 2150.0313,135.0469 Q2150.6563,135.0469 2151.25,134.7813 Q2151.8438,134.5 2152.4688,133.9219 L2152.4688,136.6406 Z " fill="#000000"/><text fill="#000000" font-family="sans-serif" font-size="14" lengthAdjust="spacing" textLength="134.7773" x="2163.5" y="135.8467">SamplingCollection</text><line style="stroke:#181818;stroke-width:0.5;" x1="2135.5" x2="2300.2773" y1="147" y2="147"/><line style="stroke:#181818;stroke-width:0.5;" x1="2135.5" x2="2300.2773" y1="155" y2="155"/></g><!--class Sensor--><g class="entity" data-qualified-name="Sensor" data-source-line="14" id="ent0033"><rect fill="#F1F1F1" height="48" rx="2.5" ry="2.5" style="stroke:#181818;stroke-width:0.5;" width="79.9883" x="2138" y="223"/><ellipse cx="2153" cy="239" fill="#ADD1B2" rx="11" ry="11" style="stroke:#181818;stroke-width:1;"/><path d="M2155.9688,244.6406 Q2155.3906,244.9375 2154.75,245.0781 Q2154.1094,245.2344 2153.4063,245.2344 Q2150.9063,245.2344 2149.5781,243.5938 Q2148.2656,241.9375 2148.2656,238.8125 Q2148.2656,235.6875 2149.5781,234.0313 Q2150.9063,232.375 2153.4063,232.375 Q2154.1094,232.375 2154.75,232.5313 Q2155.4063,232.6875 2155.9688,232.9844 L2155.9688,235.7031 Q2155.3438,235.125 2154.75,234.8594 Q2154.1563,234.5781 2153.5313,234.5781 Q2152.1875,234.5781 2151.5,235.6563 Q2150.8125,236.7188 2150.8125,238.8125 Q2150.8125,240.9063 2151.5,241.9844 Q2152.1875,243.0469 2153.5313,243.0469 Q2154.1563,243.0469 2154.75,242.7813 Q2155.3438,242.5 2155.9688,241.9219 L2155.9688,244.6406 Z " fill="#000000"/><text fill="#000000" font-family="sans-serif" font-size="14" lengthAdjust="spacing" textLength="47.9883" x="2167" y="243.8467">Sensor</text><line style="stroke:#181818;stroke-width:0.5;" x1="2139" x2="2216.9883" y1="255" y2="255"/><line style="stroke:#181818;stroke-width:0.5;" x1="2139" x2="2216.9883" y1="263" y2="263"/></g><!--class Execution--><g class="entity" data-qualified-name="Execution" data-source-line="15" id="ent0035"><rect fill="#F1F1F1" height="48" rx="2.5" ry="2.5" style="stroke:#181818;stroke-width:0.5;" width="101.1318" x="2892.5" y="7"/><ellipse cx="2907.5" cy="23" fill="#ADD1B2" rx="11" ry="11" style="stroke:#181818;stroke-width:1;"/><path d="M2910.4688,28.6406 Q2909.8906,28.9375 2909.25,29.0781 Q2908.6094,29.2344 2907.9063,29.2344 Q2905.4063,29.2344 2904.0781,27.5938 Q2902.7656,25.9375 2902.7656,22.8125 Q2902.7656,19.6875 2904.0781,18.0313 Q2905.4063,16.375 2907.9063,16.375 Q2908.6094,16.375 2909.25,16.5313 Q2909.9063,16.6875 2910.4688,16.9844 L2910.4688,19.7031 Q2909.8438,19.125 2909.25,18.8594 Q2908.6563,18.5781 2908.0313,18.5781 Q2906.6875,18.5781 2906,19.6563 Q2905.3125,20.7188 2905.3125,22.8125 Q2905.3125,24.9063 2906,25.9844 Q2906.6875,27.0469 2908.0313,27.0469 Q2908.6563,27.0469 2909.25,26.7813 Q2909.8438,26.5 2910.4688,25.9219 L2910.4688,28.6406 Z " fill="#000000"/><text fill="#000000" font-family="sans-serif" font-size="14" lengthAdjust="spacing" textLength="69.1318" x="2921.5" y="27.8467">Execution</text><line style="stroke:#181818;stroke-width:0.5;" x1="2893.5" x2="2992.6318" y1="39" y2="39"/><line style="stroke:#181818;stroke-width:0.5;" x1="2893.5" x2="2992.6318" y1="47" y2="47"/></g><!--class Sampling--><g class="entity" data-qualified-name="Sampling" data-source-line="15" id="ent0036"><rect fill="#F1F1F1" height="48" rx="2.5" ry="2.5" style="stroke:#181818;stroke-width:0.5;" width="97.5293" x="2760" y="115"/><ellipse cx="2775" cy="131" fill="#ADD1B2" rx="11" ry="11" style="stroke:#181818;stroke-width:1;"/><path d="M2777.9688,136.6406 Q2777.3906,136.9375 2776.75,137.0781 Q2776.1094,137.2344 2775.4063,137.2344 Q2772.9063,137.2344 2771.5781,135.5938 Q2770.2656,133.9375 2770.2656,130.8125 Q2770.2656,127.6875 2771.5781,126.0313 Q2772.9063,124.375 2775.4063,124.375 Q2776.1094,124.375 2776.75,124.5313 Q2777.4063,124.6875 2777.9688,124.9844 L2777.9688,127.7031 Q2777.3438,127.125 2776.75,126.8594 Q2776.1563,126.5781 2775.5313,126.5781 Q2774.1875,126.5781 2773.5,127.6563 Q2772.8125,128.7188 2772.8125,130.8125 Q2772.8125,132.9063 2773.5,133.9844 Q2774.1875,135.0469 2775.5313,135.0469 Q2776.1563,135.0469 2776.75,134.7813 Q2777.3438,134.5 2777.9688,133.9219 L2777.9688,136.6406 Z " fill="#000000"/><text fill="#000000" font-family="sans-serif" font-size="14" lengthAdjust="spacing" textLength="65.5293" x="2789" y="135.8467">Sampling</text><line style="stroke:#181818;stroke-width:0.5;" x1="2761" x2="2856.5293" y1="147" y2="147"/><line style="stroke:#181818;stroke-width:0.5;" x1="2761" x2="2856.5293" y1="155" y2="155"/></g><!--class Actuation--><g class="entity" data-qualified-name="Actuation" data-source-line="16" id="ent0038"><rect fill="#F1F1F1" height="48" rx="2.5" ry="2.5" style="stroke:#181818;stroke-width:0.5;" width="99.0332" x="2893.5" y="115"/><ellipse cx="2908.5" cy="131" fill="#ADD1B2" rx="11" ry="11" style="stroke:#181818;stroke-width:1;"/><path d="M2911.4688,136.6406 Q2910.8906,136.9375 2910.25,137.0781 Q2909.6094,137.2344 2908.9063,137.2344 Q2906.4063,137.2344 2905.0781,135.5938 Q2903.7656,133.9375 2903.7656,130.8125 Q2903.7656,127.6875 2905.0781,126.0313 Q2906.4063,124.375 2908.9063,124.375 Q2909.6094,124.375 2910.25,124.5313 Q2910.9063,124.6875 2911.4688,124.9844 L2911.4688,127.7031 Q2910.8438,127.125 2910.25,126.8594 Q2909.6563,126.5781 2909.0313,126.5781 Q2907.6875,126.5781 2907,127.6563 Q2906.3125,128.7188 2906.3125,130.8125 Q2906.3125,132.9063 2907,133.9844 Q2907.6875,135.0469 2909.0313,135.0469 Q2909.6563,135.0469 2910.25,134.7813 Q2910.8438,134.5 2911.4688,133.9219 L2911.4688,136.6406 Z " fill="#000000"/><text fill="#000000" font-family="sans-serif" font-size="14" lengthAdjust="spacing" textLength="67.0332" x="2922.5" y="135.8467">Actuation</text><line style="stroke:#181818;stroke-width:0.5;" x1="2894.5" x2="2991.5332" y1="147" y2="147"/><line style="stroke:#181818;stroke-width:0.5;" x1="2894.5" x2="2991.5332" y1="155" y2="155"/></g><!--class ActuationCollection--><g class="entity" data-qualified-name="ActuationCollection" data-source-line="17" id="ent0040"><rect fill="#F1F1F1" height="48" rx="2.5" ry="2.5" style="stroke:#181818;stroke-width:0.5;" width="168.2813" x="2336" y="115"/><ellipse cx="2351" cy="131" fill="#ADD1B2" rx="11" ry="11" style="stroke:#181818;stroke-width:1;"/><path d="M2353.9688,136.6406 Q2353.3906,136.9375 2352.75,137.0781 Q2352.1094,137.2344 2351.4063,137.2344 Q2348.9063,137.2344 2347.5781,135.5938 Q2346.2656,133.9375 2346.2656,130.8125 Q2346.2656,127.6875 2347.5781,126.0313 Q2348.9063,124.375 2351.4063,124.375 Q2352.1094,124.375 2352.75,124.5313 Q2353.4063,124.6875 2353.9688,124.9844 L2353.9688,127.7031 Q2353.3438,127.125 2352.75,126.8594 Q2352.1563,126.5781 2351.5313,126.5781 Q2350.1875,126.5781 2349.5,127.6563 Q2348.8125,128.7188 2348.8125,130.8125 Q2348.8125,132.9063 2349.5,133.9844 Q2350.1875,135.0469 2351.5313,135.0469 Q2352.1563,135.0469 2352.75,134.7813 Q2353.3438,134.5 2353.9688,133.9219 L2353.9688,136.6406 Z " fill="#000000"/><text fill="#000000" font-family="sans-serif" font-size="14" lengthAdjust="spacing" textLength="136.2813" x="2365" y="135.8467">ActuationCollection</text><line style="stroke:#181818;stroke-width:0.5;" x1="2337" x2="2503.2813" y1="147" y2="147"/><line style="stroke:#181818;stroke-width:0.5;" x1="2337" x2="2503.2813" y1="155" y2="155"/></g><!--class ObservationCollection--><g class="entity" data-qualified-name="ObservationCollection" data-source-line="18" id="ent0042"><rect fill="#F1F1F1" height="48" rx="2.5" ry="2.5" style="stroke:#181818;stroke-width:0.5;" width="186.499" x="2539" y="115"/><ellipse cx="2554" cy="131" fill="#ADD1B2" rx="11" ry="11" style="stroke:#181818;stroke-width:1;"/><path d="M2556.9688,136.6406 Q2556.3906,136.9375 2555.75,137.0781 Q2555.1094,137.2344 2554.4063,137.2344 Q2551.9063,137.2344 2550.5781,135.5938 Q2549.2656,133.9375 2549.2656,130.8125 Q2549.2656,127.6875 2550.5781,126.0313 Q2551.9063,124.375 2554.4063,124.375 Q2555.1094,124.375 2555.75,124.5313 Q2556.4063,124.6875 2556.9688,124.9844 L2556.9688,127.7031 Q2556.3438,127.125 2555.75,126.8594 Q2555.1563,126.5781 2554.5313,126.5781 Q2553.1875,126.5781 2552.5,127.6563 Q2551.8125,128.7188 2551.8125,130.8125 Q2551.8125,132.9063 2552.5,133.9844 Q2553.1875,135.0469 2554.5313,135.0469 Q2555.1563,135.0469 2555.75,134.7813 Q2556.3438,134.5 2556.9688,133.9219 L2556.9688,136.6406 Z " fill="#000000"/><text fill="#000000" font-family="sans-serif" font-size="14" lengthAdjust="spacing" textLength="154.499" x="2568" y="135.8467">ObservationCollection</text><line style="stroke:#181818;stroke-width:0.5;" x1="2540" x2="2724.499" y1="147" y2="147"/><line style="stroke:#181818;stroke-width:0.5;" x1="2540" x2="2724.499" y1="155" y2="155"/></g><!--class Observation--><g class="entity" data-qualified-name="Observation" data-source-line="19" id="ent0044"><rect fill="#F1F1F1" height="48" rx="2.5" ry="2.5" style="stroke:#181818;stroke-width:0.5;" width="117.251" x="3027.5" y="115"/><ellipse cx="3042.5" cy="131" fill="#ADD1B2" rx="11" ry="11" style="stroke:#181818;stroke-width:1;"/><path d="M3045.4688,136.6406 Q3044.8906,136.9375 3044.25,137.0781 Q3043.6094,137.2344 3042.9063,137.2344 Q3040.4063,137.2344 3039.0781,135.5938 Q3037.7656,133.9375 3037.7656,130.8125 Q3037.7656,127.6875 3039.0781,126.0313 Q3040.4063,124.375 3042.9063,124.375 Q3043.6094,124.375 3044.25,124.5313 Q3044.9063,124.6875 3045.4688,124.9844 L3045.4688,127.7031 Q3044.8438,127.125 3044.25,126.8594 Q3043.6563,126.5781 3043.0313,126.5781 Q3041.6875,126.5781 3041,127.6563 Q3040.3125,128.7188 3040.3125,130.8125 Q3040.3125,132.9063 3041,133.9844 Q3041.6875,135.0469 3043.0313,135.0469 Q3043.6563,135.0469 3044.25,134.7813 Q3044.8438,134.5 3045.4688,133.9219 L3045.4688,136.6406 Z " fill="#000000"/><text fill="#000000" font-family="sans-serif" font-size="14" lengthAdjust="spacing" textLength="85.251" x="3056.5" y="135.8467">Observation</text><line style="stroke:#181818;stroke-width:0.5;" x1="3028.5" x2="3143.751" y1="147" y2="147"/><line style="stroke:#181818;stroke-width:0.5;" x1="3028.5" x2="3143.751" y1="155" y2="155"/></g><!--class Result--><g class="entity" data-qualified-name="Result" data-source-line="20" id="ent0046"><rect fill="#F1F1F1" height="48" rx="2.5" ry="2.5" style="stroke:#181818;stroke-width:0.5;" width="75.8867" x="46" y="7"/><ellipse cx="61" cy="23" fill="#ADD1B2" rx="11" ry="11" style="stroke:#181818;stroke-width:1;"/><path d="M63.9688,28.6406 Q63.3906,28.9375 62.75,29.0781 Q62.1094,29.2344 61.4063,29.2344 Q58.9063,29.2344 57.5781,27.5938 Q56.2656,25.9375 56.2656,22.8125 Q56.2656,19.6875 57.5781,18.0313 Q58.9063,16.375 61.4063,16.375 Q62.1094,16.375 62.75,16.5313 Q63.4063,16.6875 63.9688,16.9844 L63.9688,19.7031 Q63.3438,19.125 62.75,18.8594 Q62.1563,18.5781 61.5313,18.5781 Q60.1875,18.5781 59.5,19.6563 Q58.8125,20.7188 58.8125,22.8125 Q58.8125,24.9063 59.5,25.9844 Q60.1875,27.0469 61.5313,27.0469 Q62.1563,27.0469 62.75,26.7813 Q63.3438,26.5 63.9688,25.9219 L63.9688,28.6406 Z " fill="#000000"/><text fill="#000000" font-family="sans-serif" font-size="14" lengthAdjust="spacing" textLength="43.8867" x="75" y="27.8467">Result</text><line style="stroke:#181818;stroke-width:0.5;" x1="47" x2="120.8867" y1="39" y2="39"/><line style="stroke:#181818;stroke-width:0.5;" x1="47" x2="120.8867" y1="47" y2="47"/></g><!--class FeatureOfInterest--><g class="entity" data-qualified-name="FeatureOfInterest" data-source-line="21" id="ent0047"><rect fill="#F1F1F1" height="48" rx="2.5" ry="2.5" style="stroke:#181818;stroke-width:0.5;" width="156.1816" x="157" y="7"/><ellipse cx="172" cy="23" fill="#ADD1B2" rx="11" ry="11" style="stroke:#181818;stroke-width:1;"/><path d="M174.9688,28.6406 Q174.3906,28.9375 173.75,29.0781 Q173.1094,29.2344 172.4063,29.2344 Q169.9063,29.2344 168.5781,27.5938 Q167.2656,25.9375 167.2656,22.8125 Q167.2656,19.6875 168.5781,18.0313 Q169.9063,16.375 172.4063,16.375 Q173.1094,16.375 173.75,16.5313 Q174.4063,16.6875 174.9688,16.9844 L174.9688,19.7031 Q174.3438,19.125 173.75,18.8594 Q173.1563,18.5781 172.5313,18.5781 Q171.1875,18.5781 170.5,19.6563 Q169.8125,20.7188 169.8125,22.8125 Q169.8125,24.9063 170.5,25.9844 Q171.1875,27.0469 172.5313,27.0469 Q173.1563,27.0469 173.75,26.7813 Q174.3438,26.5 174.9688,25.9219 L174.9688,28.6406 Z " fill="#000000"/><text fill="#000000" font-family="sans-serif" font-size="14" lengthAdjust="spacing" textLength="124.1816" x="186" y="27.8467">FeatureOfInterest</text><line style="stroke:#181818;stroke-width:0.5;" x1="158" x2="312.1816" y1="39" y2="39"/><line style="stroke:#181818;stroke-width:0.5;" x1="158" x2="312.1816" y1="47" y2="47"/></g><!--class Deployment--><g class="entity" data-qualified-name="Deployment" data-source-line="22" id="ent0048"><rect fill="#F1F1F1" height="48" rx="2.5" ry="2.5" style="stroke:#181818;stroke-width:0.5;" width="117.6338" x="348" y="7"/><ellipse cx="363" cy="23" fill="#ADD1B2" rx="11" ry="11" style="stroke:#181818;stroke-width:1;"/><path d="M365.9688,28.6406 Q365.3906,28.9375 364.75,29.0781 Q364.1094,29.2344 363.4063,29.2344 Q360.9063,29.2344 359.5781,27.5938 Q358.2656,25.9375 358.2656,22.8125 Q358.2656,19.6875 359.5781,18.0313 Q360.9063,16.375 363.4063,16.375 Q364.1094,16.375 364.75,16.5313 Q365.4063,16.6875 365.9688,16.9844 L365.9688,19.7031 Q365.3438,19.125 364.75,18.8594 Q364.1563,18.5781 363.5313,18.5781 Q362.1875,18.5781 361.5,19.6563 Q360.8125,20.7188 360.8125,22.8125 Q360.8125,24.9063 361.5,25.9844 Q362.1875,27.0469 363.5313,27.0469 Q364.1563,27.0469 364.75,26.7813 Q365.3438,26.5 365.9688,25.9219 L365.9688,28.6406 Z " fill="#000000"/><text fill="#000000" font-family="sans-serif" font-size="14" lengthAdjust="spacing" textLength="85.6338" x="377" y="27.8467">Deployment</text><line style="stroke:#181818;stroke-width:0.5;" x1="349" x2="464.6338" y1="39" y2="39"/><line style="stroke:#181818;stroke-width:0.5;" x1="349" x2="464.6338" y1="47" y2="47"/></g><!--class SampleCollection--><g class="entity" data-qualified-name="SampleCollection" data-source-line="23" id="ent0049"><rect fill="#F1F1F1" height="48" rx="2.5" ry="2.5" style="stroke:#181818;stroke-width:0.5;" width="153.7412" x="7" y="115"/><ellipse cx="22" cy="131" fill="#ADD1B2" rx="11" ry="11" style="stroke:#181818;stroke-width:1;"/><path d="M24.9688,136.6406 Q24.3906,136.9375 23.75,137.0781 Q23.1094,137.2344 22.4063,137.2344 Q19.9063,137.2344 18.5781,135.5938 Q17.2656,133.9375 17.2656,130.8125 Q17.2656,127.6875 18.5781,126.0313 Q19.9063,124.375 22.4063,124.375 Q23.1094,124.375 23.75,124.5313 Q24.4063,124.6875 24.9688,124.9844 L24.9688,127.7031 Q24.3438,127.125 23.75,126.8594 Q23.1563,126.5781 22.5313,126.5781 Q21.1875,126.5781 20.5,127.6563 Q19.8125,128.7188 19.8125,130.8125 Q19.8125,132.9063 20.5,133.9844 Q21.1875,135.0469 22.5313,135.0469 Q23.1563,135.0469 23.75,134.7813 Q24.3438,134.5 24.9688,133.9219 L24.9688,136.6406 Z " fill="#000000"/><text fill="#000000" font-family="sans-serif" font-size="14" lengthAdjust="spacing" textLength="121.7412" x="36" y="135.8467">SampleCollection</text><line style="stroke:#181818;stroke-width:0.5;" x1="8" x2="159.7412" y1="147" y2="147"/><line style="stroke:#181818;stroke-width:0.5;" x1="8" x2="159.7412" y1="155" y2="155"/></g><!--class Stimulus--><g class="entity" data-qualified-name="Stimulus" data-source-line="24" id="ent0050"><rect fill="#F1F1F1" height="48" rx="2.5" ry="2.5" style="stroke:#181818;stroke-width:0.5;" width="92.833" x="196.5" y="115"/><ellipse cx="211.5" cy="131" fill="#ADD1B2" rx="11" ry="11" style="stroke:#181818;stroke-width:1;"/><path d="M214.4688,136.6406 Q213.8906,136.9375 213.25,137.0781 Q212.6094,137.2344 211.9063,137.2344 Q209.4063,137.2344 208.0781,135.5938 Q206.7656,133.9375 206.7656,130.8125 Q206.7656,127.6875 208.0781,126.0313 Q209.4063,124.375 211.9063,124.375 Q212.6094,124.375 213.25,124.5313 Q213.9063,124.6875 214.4688,124.9844 L214.4688,127.7031 Q213.8438,127.125 213.25,126.8594 Q212.6563,126.5781 212.0313,126.5781 Q210.6875,126.5781 210,127.6563 Q209.3125,128.7188 209.3125,130.8125 Q209.3125,132.9063 210,133.9844 Q210.6875,135.0469 212.0313,135.0469 Q212.6563,135.0469 213.25,134.7813 Q213.8438,134.5 214.4688,133.9219 L214.4688,136.6406 Z " fill="#000000"/><text fill="#000000" font-family="sans-serif" font-size="14" lengthAdjust="spacing" textLength="60.833" x="225.5" y="135.8467">Stimulus</text><line style="stroke:#181818;stroke-width:0.5;" x1="197.5" x2="288.333" y1="147" y2="147"/><line style="stroke:#181818;stroke-width:0.5;" x1="197.5" x2="288.333" y1="155" y2="155"/></g><!--reverse link Property to ActuatableProperty--><g class="link" data-entity-1="ent0002" data-entity-2="ent0003" data-link-type="extension" data-source-line="1" id="lnk4"><path codeLine="1" d="M527.3567,64.4445 C498.6067,82.1645 474.35,97.11 445.55,114.86" fill="none" id="Property-backto-ActuatableProperty" style="stroke:#181818;stroke-width:1;"/><polygon fill="none" points="542.68,55,524.2086,59.3367,530.5049,69.5522,542.68,55" style="stroke:#181818;stroke-width:1;"/></g><!--reverse link Sample to MaterialSample--><g class="link" data-entity-1="ent0005" data-entity-2="ent0006" data-link-type="extension" data-source-line="2" id="lnk7"><path codeLine="2" d="M924.3567,64.4445 C895.6067,82.1645 871.35,97.11 842.55,114.86" fill="none" id="Sample-backto-MaterialSample" style="stroke:#181818;stroke-width:1;"/><polygon fill="none" points="939.68,55,921.2086,59.3367,927.5049,69.5522,939.68,55" style="stroke:#181818;stroke-width:1;"/></g><!--reverse link Property to ObservableProperty--><g class="link" data-entity-1="ent0002" data-entity-2="ent0008" data-link-type="extension" data-source-line="3" id="lnk9"><path codeLine="3" d="M592.5123,72.1858 C598.0123,89.8458 600.22,96.94 605.74,114.68" fill="none" id="Property-backto-ObservableProperty" style="stroke:#181818;stroke-width:1;"/><polygon fill="none" points="587.16,55,586.7837,73.9699,598.2409,70.4017,587.16,55" style="stroke:#181818;stroke-width:1;"/></g><!--reverse link Sample to SpatialSample--><g class="link" data-entity-1="ent0005" data-entity-2="ent0010" data-link-type="extension" data-source-line="4" id="lnk11"><path codeLine="4" d="M977,73 C977,90.66 977,96.94 977,114.68" fill="none" id="Sample-backto-SpatialSample" style="stroke:#181818;stroke-width:1;"/><polygon fill="none" points="977,55,971,73,983,73,977,55" style="stroke:#181818;stroke-width:1;"/></g><!--reverse link Sample to StatisticalSample--><g class="link" data-entity-1="ent0005" data-entity-2="ent0012" data-link-type="extension" data-source-line="5" id="lnk13"><path codeLine="5" d="M1031.3276,64.1725 C1061.2476,81.8925 1086.95,97.11 1116.93,114.86" fill="none" id="Sample-backto-StatisticalSample" style="stroke:#181818;stroke-width:1;"/><polygon fill="none" points="1015.84,55,1028.2701,69.335,1034.3851,59.0099,1015.84,55" style="stroke:#181818;stroke-width:1;"/></g><!--reverse link Procedure to ActuatingProcedure--><g class="link" data-entity-1="ent0014" data-entity-2="ent0015" data-link-type="extension" data-source-line="6" id="lnk16"><path codeLine="6" d="M1500.8326,63.1732 C1466.0626,80.8932 1434.24,97.11 1399.4,114.86" fill="none" id="Procedure-backto-ActuatingProcedure" style="stroke:#181818;stroke-width:1;"/><polygon fill="none" points="1516.87,55,1498.1082,57.8274,1503.557,68.519,1516.87,55" style="stroke:#181818;stroke-width:1;"/></g><!--reverse link Procedure to ObservingProcedure--><g class="link" data-entity-1="ent0014" data-entity-2="ent0017" data-link-type="extension" data-source-line="7" id="lnk18"><path codeLine="7" d="M1562,73 C1562,90.66 1562,96.94 1562,114.68" fill="none" id="Procedure-backto-ObservingProcedure" style="stroke:#181818;stroke-width:1;"/><polygon fill="none" points="1562,55,1556,73,1568,73,1562,55" style="stroke:#181818;stroke-width:1;"/></g><!--reverse link Procedure to SamplingProcedure--><g class="link" data-entity-1="ent0014" data-entity-2="ent0019" data-link-type="extension" data-source-line="8" id="lnk20"><path codeLine="8" d="M1622.9411,63.205 C1657.5411,80.925 1689.15,97.11 1723.81,114.86" fill="none" id="Procedure-backto-SamplingProcedure" style="stroke:#181818;stroke-width:1;"/><polygon fill="none" points="1606.92,55,1620.2061,68.5454,1625.6762,57.8647,1606.92,55" style="stroke:#181818;stroke-width:1;"/></g><!--reverse link Asset to Platform--><g class="link" data-entity-1="ent0021" data-entity-2="ent0022" data-link-type="extension" data-source-line="9" id="lnk23"><path codeLine="9" d="M1972.7839,70.6022 C1962.6239,88.2622 1957.63,96.94 1947.42,114.68" fill="none" id="Asset-backto-Platform" style="stroke:#181818;stroke-width:1;"/><polygon fill="none" points="1981.76,55,1967.5831,67.6102,1977.9846,73.5943,1981.76,55" style="stroke:#181818;stroke-width:1;"/></g><!--reverse link System to Sampler--><g class="link" data-entity-1="ent0024" data-entity-2="ent0025" data-link-type="extension" data-source-line="10" id="lnk26"><path codeLine="10" d="M2015.8865,174.5884 C1994.8965,192.2484 1979.81,204.94 1958.72,222.68" fill="none" id="System-backto-Sampler" style="stroke:#181818;stroke-width:1;"/><polygon fill="none" points="2029.66,163,2012.0237,169.9972,2019.7493,179.1795,2029.66,163" style="stroke:#181818;stroke-width:1;"/></g><!--reverse link System to Actuator--><g class="link" data-entity-1="ent0024" data-entity-2="ent0027" data-link-type="extension" data-source-line="11" id="lnk28"><path codeLine="11" d="M2057,181 C2057,198.66 2057,204.94 2057,222.68" fill="none" id="System-backto-Actuator" style="stroke:#181818;stroke-width:1;"/><polygon fill="none" points="2057,163,2051,181,2063,181,2057,163" style="stroke:#181818;stroke-width:1;"/></g><!--reverse link ExecutionCollection to SamplingCollection--><g class="link" data-entity-1="ent0029" data-entity-2="ent0030" data-link-type="extension" data-source-line="12" id="lnk31"><path codeLine="12" d="M2360.231,63.3636 C2326.461,81.0836 2295.93,97.11 2262.09,114.86" fill="none" id="ExecutionCollection-backto-SamplingCollection" style="stroke:#181818;stroke-width:1;"/><polygon fill="none" points="2376.17,55,2357.4432,58.0506,2363.0189,68.6766,2376.17,55" style="stroke:#181818;stroke-width:1;"/></g><!--reverse link Asset to System--><g class="link" data-entity-1="ent0021" data-entity-2="ent0024" data-link-type="extension" data-source-line="13" id="lnk32"><path codeLine="13" d="M2017.5383,70.5372 C2027.8683,88.1972 2032.98,96.94 2043.36,114.68" fill="none" id="Asset-backto-System" style="stroke:#181818;stroke-width:1;"/><polygon fill="none" points="2008.45,55,2012.3592,73.5666,2022.7173,67.5077,2008.45,55" style="stroke:#181818;stroke-width:1;"/></g><!--reverse link System to Sensor--><g class="link" data-entity-1="ent0024" data-entity-2="ent0033" data-link-type="extension" data-source-line="14" id="lnk34"><path codeLine="14" d="M2096.7968,174.864 C2116.9468,192.524 2131.13,204.94 2151.38,222.68" fill="none" id="System-backto-Sensor" style="stroke:#181818;stroke-width:1;"/><polygon fill="none" points="2083.26,163,2092.8421,179.3763,2100.7515,170.3518,2083.26,163" style="stroke:#181818;stroke-width:1;"/></g><!--reverse link Execution to Sampling--><g class="link" data-entity-1="ent0035" data-entity-2="ent0036" data-link-type="extension" data-source-line="15" id="lnk37"><path codeLine="15" d="M2899.8041,66.1688 C2877.4841,83.8288 2860.91,96.94 2838.48,114.68" fill="none" id="Execution-backto-Sampling" style="stroke:#181818;stroke-width:1;"/><polygon fill="none" points="2913.92,55,2896.0812,61.4635,2903.527,70.8741,2913.92,55" style="stroke:#181818;stroke-width:1;"/></g><!--reverse link Execution to Actuation--><g class="link" data-entity-1="ent0035" data-entity-2="ent0038" data-link-type="extension" data-source-line="16" id="lnk39"><path codeLine="16" d="M2943,73 C2943,90.66 2943,96.94 2943,114.68" fill="none" id="Execution-backto-Actuation" style="stroke:#181818;stroke-width:1;"/><polygon fill="none" points="2943,55,2937,73,2949,73,2943,55" style="stroke:#181818;stroke-width:1;"/></g><!--reverse link ExecutionCollection to ActuationCollection--><g class="link" data-entity-1="ent0029" data-entity-2="ent0040" data-link-type="extension" data-source-line="17" id="lnk41"><path codeLine="17" d="M2420,73 C2420,90.66 2420,96.94 2420,114.68" fill="none" id="ExecutionCollection-backto-ActuationCollection" style="stroke:#181818;stroke-width:1;"/><polygon fill="none" points="2420,55,2414,73,2426,73,2420,55" style="stroke:#181818;stroke-width:1;"/></g><!--reverse link ExecutionCollection to ObservationCollection--><g class="link" data-entity-1="ent0029" data-entity-2="ent0042" data-link-type="extension" data-source-line="18" id="lnk43"><path codeLine="18" d="M2482.0997,63.0498 C2517.5397,80.7698 2550.22,97.11 2585.72,114.86" fill="none" id="ExecutionCollection-backto-ObservationCollection" style="stroke:#181818;stroke-width:1;"/><polygon fill="none" points="2466,55,2479.4164,68.4164,2484.783,57.6833,2466,55" style="stroke:#181818;stroke-width:1;"/></g><!--reverse link Execution to Observation--><g class="link" data-entity-1="ent0035" data-entity-2="ent0044" data-link-type="extension" data-source-line="19" id="lnk45"><path codeLine="19" d="M2988.4895,65.7202 C3012.3095,83.3802 3030.61,96.94 3054.54,114.68" fill="none" id="Execution-backto-Observation" style="stroke:#181818;stroke-width:1;"/><polygon fill="none" points="2974.03,55,2984.9161,70.54,2992.0629,60.9004,2974.03,55" style="stroke:#181818;stroke-width:1;"/></g><?plantuml-src VP9DRWCX38Ntd68ka1jq4_L7wgBAg7C2XxvKI0P6s5GTgOVlj904KartyFdvFSimfZWZwJBSVUrsmzvg9gKZOwpSJEHdHYc_a28vuiBCsFKUZeBqiTaxpQJNrgwYQqNKsTROuYqdj5Evy7xXjugI_P_YrxaJx4MWfJWowIacRwP55BxfGEfOcIGcy_W9czN5S1-PONzEVSwLjq75guz1aDQmjxdbTHMhw-O45qapmgQuFjgM_8_8M2QHuHMIMUlb2QJhGW-dvx1-3yYPFs3ck7Y4CoWRRN8gLkSpP_a6?></g></svg>