<svg xmlns="http://www.w3.org/2000/svg" xmlns:xlink="http://www.w3.org/1999/xlink" contentStyleType="text/css" data-diagram-type="CLASS" height="286px" preserveAspectRatio="none" style="width:3357px;height:286px;background:#FFFFFF;" version="1.1" viewBox="0 0 3357 286" width="3357px" zoomAndPan="magnify"><?plantuml 1.2026.3?><defs/><g><!--class Property--><g class="entity" data-qualified-name="Property" data-source-line="1" id="ent0002"><rect fill="#F1F1F1" height="48" rx="2.5" ry="2.5" style="stroke:#181818;stroke-width:0.5;" width="91.7939" x="662" y="7"/><ellipse cx="677" cy="23" fill="#ADD1B2" rx="11" ry="11" style="stroke:#181818;stroke-width:1;"/><path d="M679.9688,28.6406 Q679.3906,28.9375 678.75,29.0781 Q678.1094,29.2344 677.4063,29.2344 Q674.9063,29.2344 673.5781,27.5938 Q672.2656,25.9375 672.2656,22.8125 Q672.2656,19.6875 673.5781,18.0313 Q674.9063,16.375 677.4063,16.375 Q678.1094,16.375 678.75,16.5313 Q679.4063,16.6875 679.9688,16.9844 L679.9688,19.7031 Q679.3438,19.125 678.75,18.8594 Q678.1563,18.5781 677.5313,18.5781 Q676.1875,18.5781 675.5,19.6563 Q674.8125,20.7188 674.8125,22.8125 Q674.8125,24.9063 675.5,25.9844 Q676.1875,27.0469 677.5313,27.0469 Q678.1563,27.0469 678.75,26.7813 Q679.3438,26.5 679.9688,25.9219 L679.9688,28.6406 Z " fill="#000000"/><text fill="#000000" font-family="sans-serif" font-size="14" lengthAdjust="spacing" textLength="59.7939" x="691" y="27.8467">Property</text><line style="stroke:#181818;stroke-width:0.5;" x1="663" x2="752.7939" y1="39" y2="39"/><line style="stroke:#181818;stroke-width:0.5;" x1="663" x2="752.7939" y1="47" y2="47"/></g><!--class ActuatableProperty--><g class="entity" data-qualified-name="ActuatableProperty" data-source-line="1" id="ent0003"><rect fill="#F1F1F1" height="48" rx="2.5" ry="2.5" style="stroke:#181818;stroke-width:0.5;" width="167.4678" x="522.5" y="115"/><ellipse cx="537.5" cy="131" fill="#ADD1B2" rx="11" ry="11" style="stroke:#181818;stroke-width:1;"/><path d="M540.4688,136.6406 Q539.8906,136.9375 539.25,137.0781 Q538.6094,137.2344 537.9063,137.2344 Q535.4063,137.2344 534.0781,135.5938 Q532.7656,133.9375 532.7656,130.8125 Q532.7656,127.6875 534.0781,126.0313 Q535.4063,124.375 537.9063,124.375 Q538.6094,124.375 539.25,124.5313 Q539.9063,124.6875 540.4688,124.9844 L540.4688,127.7031 Q539.8438,127.125 539.25,126.8594 Q538.6563,126.5781 538.0313,126.5781 Q536.6875,126.5781 536,127.6563 Q535.3125,128.7188 535.3125,130.8125 Q535.3125,132.9063 536,133.9844 Q536.6875,135.0469 538.0313,135.0469 Q538.6563,135.0469 539.25,134.7813 Q539.8438,134.5 540.4688,133.9219 L540.4688,136.6406 Z " fill="#000000"/><text fill="#000000" font-family="sans-serif" font-size="14" lengthAdjust="spacing" textLength="135.4678" x="551.5" y="135.8467">ActuatableProperty</text><line style="stroke:#181818;stroke-width:0.5;" x1="523.5" x2="688.9678" y1="147" y2="147"/><line style="stroke:#181818;stroke-width:0.5;" x1="523.5" x2="688.9678" y1="155" y2="155"/></g><!--class Sample--><g class="entity" data-qualified-name="Sample" data-source-line="2" id="ent0005"><rect fill="#F1F1F1" height="48" rx="2.5" ry="2.5" style="stroke:#181818;stroke-width:0.5;" width="84.4932" x="1133" y="7"/><ellipse cx="1148" cy="23" fill="#ADD1B2" rx="11" ry="11" style="stroke:#181818;stroke-width:1;"/><path d="M1150.9688,28.6406 Q1150.3906,28.9375 1149.75,29.0781 Q1149.1094,29.2344 1148.4063,29.2344 Q1145.9063,29.2344 1144.5781,27.5938 Q1143.2656,25.9375 1143.2656,22.8125 Q1143.2656,19.6875 1144.5781,18.0313 Q1145.9063,16.375 1148.4063,16.375 Q1149.1094,16.375 1149.75,16.5313 Q1150.4063,16.6875 1150.9688,16.9844 L1150.9688,19.7031 Q1150.3438,19.125 1149.75,18.8594 Q1149.1563,18.5781 1148.5313,18.5781 Q1147.1875,18.5781 1146.5,19.6563 Q1145.8125,20.7188 1145.8125,22.8125 Q1145.8125,24.9063 1146.5,25.9844 Q1147.1875,27.0469 1148.5313,27.0469 Q1149.1563,27.0469 1149.75,26.7813 Q1150.3438,26.5 1150.9688,25.9219 L1150.9688,28.6406 Z " fill="#000000"/><text fill="#000000" font-family="sans-serif" font-size="14" lengthAdjust="spacing" textLength="52.4932" x="1162" y="27.8467">Sample</text><line style="stroke:#181818;stroke-width:0.5;" x1="1134" x2="1216.4932" y1="39" y2="39"/><line style="stroke:#181818;stroke-width:0.5;" x1="1134" x2="1216.4932" y1="47" y2="47"/></g><!--class MaterialSample--><g class="entity" data-qualified-name="MaterialSample" data-source-line="2" id="ent0006"><rect fill="#F1F1F1" height="48" rx="2.5" ry="2.5" style="stroke:#181818;stroke-width:0.5;" width="141.3682" x="932.5" y="115"/><ellipse cx="947.5" cy="131" fill="#ADD1B2" rx="11" ry="11" style="stroke:#181818;stroke-width:1;"/><path d="M950.4688,136.6406 Q949.8906,136.9375 949.25,137.0781 Q948.6094,137.2344 947.9063,137.2344 Q945.4063,137.2344 944.0781,135.5938 Q942.7656,133.9375 942.7656,130.8125 Q942.7656,127.6875 944.0781,126.0313 Q945.4063,124.375 947.9063,124.375 Q948.6094,124.375 949.25,124.5313 Q949.9063,124.6875 950.4688,124.9844 L950.4688,127.7031 Q949.8438,127.125 949.25,126.8594 Q948.6563,126.5781 948.0313,126.5781 Q946.6875,126.5781 946,127.6563 Q945.3125,128.7188 945.3125,130.8125 Q945.3125,132.9063 946,133.9844 Q946.6875,135.0469 948.0313,135.0469 Q948.6563,135.0469 949.25,134.7813 Q949.8438,134.5 950.4688,133.9219 L950.4688,136.6406 Z " fill="#000000"/><text fill="#000000" font-family="sans-serif" font-size="14" lengthAdjust="spacing" textLength="109.3682" x="961.5" y="135.8467">MaterialSample</text><line style="stroke:#181818;stroke-width:0.5;" x1="933.5" x2="1072.8682" y1="147" y2="147"/><line style="stroke:#181818;stroke-width:0.5;" x1="933.5" x2="1072.8682" y1="155" y2="155"/></g><!--class SpatialSample--><g class="entity" data-qualified-name="SpatialSample" data-source-line="3" id="ent0008"><rect fill="#F1F1F1" height="48" rx="2.5" ry="2.5" style="stroke:#181818;stroke-width:0.5;" width="132.6934" x="1108.5" y="115"/><ellipse cx="1123.5" cy="131" fill="#ADD1B2" rx="11" ry="11" style="stroke:#181818;stroke-width:1;"/><path d="M1126.4688,136.6406 Q1125.8906,136.9375 1125.25,137.0781 Q1124.6094,137.2344 1123.9063,137.2344 Q1121.4063,137.2344 1120.0781,135.5938 Q1118.7656,133.9375 1118.7656,130.8125 Q1118.7656,127.6875 1120.0781,126.0313 Q1121.4063,124.375 1123.9063,124.375 Q1124.6094,124.375 1125.25,124.5313 Q1125.9063,124.6875 1126.4688,124.9844 L1126.4688,127.7031 Q1125.8438,127.125 1125.25,126.8594 Q1124.6563,126.5781 1124.0313,126.5781 Q1122.6875,126.5781 1122,127.6563 Q1121.3125,128.7188 1121.3125,130.8125 Q1121.3125,132.9063 1122,133.9844 Q1122.6875,135.0469 1124.0313,135.0469 Q1124.6563,135.0469 1125.25,134.7813 Q1125.8438,134.5 1126.4688,133.9219 L1126.4688,136.6406 Z " fill="#000000"/><text fill="#000000" font-family="sans-serif" font-size="14" lengthAdjust="spacing" textLength="100.6934" x="1137.5" y="135.8467">SpatialSample</text><line style="stroke:#181818;stroke-width:0.5;" x1="1109.5" x2="1240.1934" y1="147" y2="147"/><line style="stroke:#181818;stroke-width:0.5;" x1="1109.5" x2="1240.1934" y1="155" y2="155"/></g><!--class StatisticalSample--><g class="entity" data-qualified-name="StatisticalSample" data-source-line="4" id="ent0010"><rect fill="#F1F1F1" height="48" rx="2.5" ry="2.5" style="stroke:#181818;stroke-width:0.5;" width="153.666" x="1277" y="115"/><ellipse cx="1292" cy="131" fill="#ADD1B2" rx="11" ry="11" style="stroke:#181818;stroke-width:1;"/><path d="M1294.9688,136.6406 Q1294.3906,136.9375 1293.75,137.0781 Q1293.1094,137.2344 1292.4063,137.2344 Q1289.9063,137.2344 1288.5781,135.5938 Q1287.2656,133.9375 1287.2656,130.8125 Q1287.2656,127.6875 1288.5781,126.0313 Q1289.9063,124.375 1292.4063,124.375 Q1293.1094,124.375 1293.75,124.5313 Q1294.4063,124.6875 1294.9688,124.9844 L1294.9688,127.7031 Q1294.3438,127.125 1293.75,126.8594 Q1293.1563,126.5781 1292.5313,126.5781 Q1291.1875,126.5781 1290.5,127.6563 Q1289.8125,128.7188 1289.8125,130.8125 Q1289.8125,132.9063 1290.5,133.9844 Q1291.1875,135.0469 1292.5313,135.0469 Q1293.1563,135.0469 1293.75,134.7813 Q1294.3438,134.5 1294.9688,133.9219 L1294.9688,136.6406 Z " fill="#000000"/><text fill="#000000" font-family="sans-serif" font-size="14" lengthAdjust="spacing" textLength="121.666" x="1306" y="135.8467">StatisticalSample</text><line style="stroke:#181818;stroke-width:0.5;" x1="1278" x2="1429.666" y1="147" y2="147"/><line style="stroke:#181818;stroke-width:0.5;" x1="1278" x2="1429.666" y1="155" y2="155"/></g><!--class ObservableProperty--><g class="entity" data-qualified-name="ObservableProperty" data-source-line="5" id="ent0012"><rect fill="#F1F1F1" height="48" rx="2.5" ry="2.5" style="stroke:#181818;stroke-width:0.5;" width="171.6172" x="725" y="115"/><ellipse cx="740" cy="131" fill="#ADD1B2" rx="11" ry="11" style="stroke:#181818;stroke-width:1;"/><path d="M742.9688,136.6406 Q742.3906,136.9375 741.75,137.0781 Q741.1094,137.2344 740.4063,137.2344 Q737.9063,137.2344 736.5781,135.5938 Q735.2656,133.9375 735.2656,130.8125 Q735.2656,127.6875 736.5781,126.0313 Q737.9063,124.375 740.4063,124.375 Q741.1094,124.375 741.75,124.5313 Q742.4063,124.6875 742.9688,124.9844 L742.9688,127.7031 Q742.3438,127.125 741.75,126.8594 Q741.1563,126.5781 740.5313,126.5781 Q739.1875,126.5781 738.5,127.6563 Q737.8125,128.7188 737.8125,130.8125 Q737.8125,132.9063 738.5,133.9844 Q739.1875,135.0469 740.5313,135.0469 Q741.1563,135.0469 741.75,134.7813 Q742.3438,134.5 742.9688,133.9219 L742.9688,136.6406 Z " fill="#000000"/><text fill="#000000" font-family="sans-serif" font-size="14" lengthAdjust="spacing" textLength="139.6172" x="754" y="135.8467">ObservableProperty</text><line style="stroke:#181818;stroke-width:0.5;" x1="726" x2="895.6172" y1="147" y2="147"/><line style="stroke:#181818;stroke-width:0.5;" x1="726" x2="895.6172" y1="155" y2="155"/></g><!--class Procedure--><g class="entity" data-qualified-name="Procedure" data-source-line="6" id="ent0014"><rect fill="#F1F1F1" height="48" rx="2.5" ry="2.5" style="stroke:#181818;stroke-width:0.5;" width="103.2031" x="1708.5" y="7"/><ellipse cx="1723.5" cy="23" fill="#ADD1B2" rx="11" ry="11" style="stroke:#181818;stroke-width:1;"/><path d="M1726.4688,28.6406 Q1725.8906,28.9375 1725.25,29.0781 Q1724.6094,29.2344 1723.9063,29.2344 Q1721.4063,29.2344 1720.0781,27.5938 Q1718.7656,25.9375 1718.7656,22.8125 Q1718.7656,19.6875 1720.0781,18.0313 Q1721.4063,16.375 1723.9063,16.375 Q1724.6094,16.375 1725.25,16.5313 Q1725.9063,16.6875 1726.4688,16.9844 L1726.4688,19.7031 Q1725.8438,19.125 1725.25,18.8594 Q1724.6563,18.5781 1724.0313,18.5781 Q1722.6875,18.5781 1722,19.6563 Q1721.3125,20.7188 1721.3125,22.8125 Q1721.3125,24.9063 1722,25.9844 Q1722.6875,27.0469 1724.0313,27.0469 Q1724.6563,27.0469 1725.25,26.7813 Q1725.8438,26.5 1726.4688,25.9219 L1726.4688,28.6406 Z " fill="#000000"/><text fill="#000000" font-family="sans-serif" font-size="14" lengthAdjust="spacing" textLength="71.2031" x="1737.5" y="27.8467">Procedure</text><line style="stroke:#181818;stroke-width:0.5;" x1="1709.5" x2="1810.7031" y1="39" y2="39"/><line style="stroke:#181818;stroke-width:0.5;" x1="1709.5" x2="1810.7031" y1="47" y2="47"/></g><!--class ActuatingProcedure--><g class="entity" data-qualified-name="ActuatingProcedure" data-source-line="6" id="ent0015"><rect fill="#F1F1F1" height="48" rx="2.5" ry="2.5" style="stroke:#181818;stroke-width:0.5;" width="170.5576" x="1466.5" y="115"/><ellipse cx="1481.5" cy="131" fill="#ADD1B2" rx="11" ry="11" style="stroke:#181818;stroke-width:1;"/><path d="M1484.4688,136.6406 Q1483.8906,136.9375 1483.25,137.0781 Q1482.6094,137.2344 1481.9063,137.2344 Q1479.4063,137.2344 1478.0781,135.5938 Q1476.7656,133.9375 1476.7656,130.8125 Q1476.7656,127.6875 1478.0781,126.0313 Q1479.4063,124.375 1481.9063,124.375 Q1482.6094,124.375 1483.25,124.5313 Q1483.9063,124.6875 1484.4688,124.9844 L1484.4688,127.7031 Q1483.8438,127.125 1483.25,126.8594 Q1482.6563,126.5781 1482.0313,126.5781 Q1480.6875,126.5781 1480,127.6563 Q1479.3125,128.7188 1479.3125,130.8125 Q1479.3125,132.9063 1480,133.9844 Q1480.6875,135.0469 1482.0313,135.0469 Q1482.6563,135.0469 1483.25,134.7813 Q1483.8438,134.5 1484.4688,133.9219 L1484.4688,136.6406 Z " fill="#000000"/><text fill="#000000" font-family="sans-serif" font-size="14" lengthAdjust="spacing" textLength="138.5576" x="1495.5" y="135.8467">ActuatingProcedure</text><line style="stroke:#181818;stroke-width:0.5;" x1="1467.5" x2="1636.0576" y1="147" y2="147"/><line style="stroke:#181818;stroke-width:0.5;" x1="1467.5" x2="1636.0576" y1="155" y2="155"/></g><!--class ObservingProcedure--><g class="entity" data-qualified-name="ObservingProcedure" data-source-line="7" id="ent0017"><rect fill="#F1F1F1" height="48" rx="2.5" ry="2.5" style="stroke:#181818;stroke-width:0.5;" width="174.707" x="1672.5" y="115"/><ellipse cx="1687.5" cy="131" fill="#ADD1B2" rx="11" ry="11" style="stroke:#181818;stroke-width:1;"/><path d="M1690.4688,136.6406 Q1689.8906,136.9375 1689.25,137.0781 Q1688.6094,137.2344 1687.9063,137.2344 Q1685.4063,137.2344 1684.0781,135.5938 Q1682.7656,133.9375 1682.7656,130.8125 Q1682.7656,127.6875 1684.0781,126.0313 Q1685.4063,124.375 1687.9063,124.375 Q1688.6094,124.375 1689.25,124.5313 Q1689.9063,124.6875 1690.4688,124.9844 L1690.4688,127.7031 Q1689.8438,127.125 1689.25,126.8594 Q1688.6563,126.5781 1688.0313,126.5781 Q1686.6875,126.5781 1686,127.6563 Q1685.3125,128.7188 1685.3125,130.8125 Q1685.3125,132.9063 1686,133.9844 Q1686.6875,135.0469 1688.0313,135.0469 Q1688.6563,135.0469 1689.25,134.7813 Q1689.8438,134.5 1690.4688,133.9219 L1690.4688,136.6406 Z " fill="#000000"/><text fill="#000000" font-family="sans-serif" font-size="14" lengthAdjust="spacing" textLength="142.707" x="1701.5" y="135.8467">ObservingProcedure</text><line style="stroke:#181818;stroke-width:0.5;" x1="1673.5" x2="1846.207" y1="147" y2="147"/><line style="stroke:#181818;stroke-width:0.5;" x1="1673.5" x2="1846.207" y1="155" y2="155"/></g><!--class SamplingProcedure--><g class="entity" data-qualified-name="SamplingProcedure" data-source-line="8" id="ent0019"><rect fill="#F1F1F1" height="48" rx="2.5" ry="2.5" style="stroke:#181818;stroke-width:0.5;" width="168.7324" x="1882.5" y="115"/><ellipse cx="1897.5" cy="131" fill="#ADD1B2" rx="11" ry="11" style="stroke:#181818;stroke-width:1;"/><path d="M1900.4688,136.6406 Q1899.8906,136.9375 1899.25,137.0781 Q1898.6094,137.2344 1897.9063,137.2344 Q1895.4063,137.2344 1894.0781,135.5938 Q1892.7656,133.9375 1892.7656,130.8125 Q1892.7656,127.6875 1894.0781,126.0313 Q1895.4063,124.375 1897.9063,124.375 Q1898.6094,124.375 1899.25,124.5313 Q1899.9063,124.6875 1900.4688,124.9844 L1900.4688,127.7031 Q1899.8438,127.125 1899.25,126.8594 Q1898.6563,126.5781 1898.0313,126.5781 Q1896.6875,126.5781 1896,127.6563 Q1895.3125,128.7188 1895.3125,130.8125 Q1895.3125,132.9063 1896,133.9844 Q1896.6875,135.0469 1898.0313,135.0469 Q1898.6563,135.0469 1899.25,134.7813 Q1899.8438,134.5 1900.4688,133.9219 L1900.4688,136.6406 Z " fill="#000000"/><text fill="#000000" font-family="sans-serif" font-size="14" lengthAdjust="spacing" textLength="136.7324" x="1911.5" y="135.8467">SamplingProcedure</text><line style="stroke:#181818;stroke-width:0.5;" x1="1883.5" x2="2050.2324" y1="147" y2="147"/><line style="stroke:#181818;stroke-width:0.5;" x1="1883.5" x2="2050.2324" y1="155" y2="155"/></g><!--class Asset--><g class="entity" data-qualified-name="Asset" data-source-line="9" id="ent0021"><rect fill="#F1F1F1" height="48" rx="2.5" ry="2.5" style="stroke:#181818;stroke-width:0.5;" width="70.2676" x="2158" y="7"/><ellipse cx="2173" cy="23" fill="#ADD1B2" rx="11" ry="11" style="stroke:#181818;stroke-width:1;"/><path d="M2175.9688,28.6406 Q2175.3906,28.9375 2174.75,29.0781 Q2174.1094,29.2344 2173.4063,29.2344 Q2170.9063,29.2344 2169.5781,27.5938 Q2168.2656,25.9375 2168.2656,22.8125 Q2168.2656,19.6875 2169.5781,18.0313 Q2170.9063,16.375 2173.4063,16.375 Q2174.1094,16.375 2174.75,16.5313 Q2175.4063,16.6875 2175.9688,16.9844 L2175.9688,19.7031 Q2175.3438,19.125 2174.75,18.8594 Q2174.1563,18.5781 2173.5313,18.5781 Q2172.1875,18.5781 2171.5,19.6563 Q2170.8125,20.7188 2170.8125,22.8125 Q2170.8125,24.9063 2171.5,25.9844 Q2172.1875,27.0469 2173.5313,27.0469 Q2174.1563,27.0469 2174.75,26.7813 Q2175.3438,26.5 2175.9688,25.9219 L2175.9688,28.6406 Z " fill="#000000"/><text fill="#000000" font-family="sans-serif" font-size="14" lengthAdjust="spacing" textLength="38.2676" x="2187" y="27.8467">Asset</text><line style="stroke:#181818;stroke-width:0.5;" x1="2159" x2="2227.2676" y1="39" y2="39"/><line style="stroke:#181818;stroke-width:0.5;" x1="2159" x2="2227.2676" y1="47" y2="47"/></g><!--class Platform--><g class="entity" data-qualified-name="Platform" data-source-line="9" id="ent0022"><rect fill="#F1F1F1" height="48" rx="2.5" ry="2.5" style="stroke:#181818;stroke-width:0.5;" width="91.2881" x="2086.5" y="115"/><ellipse cx="2101.5" cy="131" fill="#ADD1B2" rx="11" ry="11" style="stroke:#181818;stroke-width:1;"/><path d="M2104.4688,136.6406 Q2103.8906,136.9375 2103.25,137.0781 Q2102.6094,137.2344 2101.9063,137.2344 Q2099.4063,137.2344 2098.0781,135.5938 Q2096.7656,133.9375 2096.7656,130.8125 Q2096.7656,127.6875 2098.0781,126.0313 Q2099.4063,124.375 2101.9063,124.375 Q2102.6094,124.375 2103.25,124.5313 Q2103.9063,124.6875 2104.4688,124.9844 L2104.4688,127.7031 Q2103.8438,127.125 2103.25,126.8594 Q2102.6563,126.5781 2102.0313,126.5781 Q2100.6875,126.5781 2100,127.6563 Q2099.3125,128.7188 2099.3125,130.8125 Q2099.3125,132.9063 2100,133.9844 Q2100.6875,135.0469 2102.0313,135.0469 Q2102.6563,135.0469 2103.25,134.7813 Q2103.8438,134.5 2104.4688,133.9219 L2104.4688,136.6406 Z " fill="#000000"/><text fill="#000000" font-family="sans-serif" font-size="14" lengthAdjust="spacing" textLength="59.2881" x="2115.5" y="135.8467">Platform</text><line style="stroke:#181818;stroke-width:0.5;" x1="2087.5" x2="2176.7881" y1="147" y2="147"/><line style="stroke:#181818;stroke-width:0.5;" x1="2087.5" x2="2176.7881" y1="155" y2="155"/></g><!--class System--><g class="entity" data-qualified-name="System" data-source-line="10" id="ent0024"><rect fill="#F1F1F1" height="48" rx="2.5" ry="2.5" style="stroke:#181818;stroke-width:0.5;" width="84.2061" x="2213" y="115"/><ellipse cx="2228" cy="131" fill="#ADD1B2" rx="11" ry="11" style="stroke:#181818;stroke-width:1;"/><path d="M2230.9688,136.6406 Q2230.3906,136.9375 2229.75,137.0781 Q2229.1094,137.2344 2228.4063,137.2344 Q2225.9063,137.2344 2224.5781,135.5938 Q2223.2656,133.9375 2223.2656,130.8125 Q2223.2656,127.6875 2224.5781,126.0313 Q2225.9063,124.375 2228.4063,124.375 Q2229.1094,124.375 2229.75,124.5313 Q2230.4063,124.6875 2230.9688,124.9844 L2230.9688,127.7031 Q2230.3438,127.125 2229.75,126.8594 Q2229.1563,126.5781 2228.5313,126.5781 Q2227.1875,126.5781 2226.5,127.6563 Q2225.8125,128.7188 2225.8125,130.8125 Q2225.8125,132.9063 2226.5,133.9844 Q2227.1875,135.0469 2228.5313,135.0469 Q2229.1563,135.0469 2229.75,134.7813 Q2230.3438,134.5 2230.9688,133.9219 L2230.9688,136.6406 Z " fill="#000000"/><text fill="#000000" font-family="sans-serif" font-size="14" lengthAdjust="spacing" textLength="52.2061" x="2242" y="135.8467">System</text><line style="stroke:#181818;stroke-width:0.5;" x1="2214" x2="2296.2061" y1="147" y2="147"/><line style="stroke:#181818;stroke-width:0.5;" x1="2214" x2="2296.2061" y1="155" y2="155"/></g><!--class Sampler--><g class="entity" data-qualified-name="Sampler" data-source-line="10" id="ent0025"><rect fill="#F1F1F1" height="48" rx="2.5" ry="2.5" style="stroke:#181818;stroke-width:0.5;" width="90.249" x="2084" y="223"/><ellipse cx="2099" cy="239" fill="#ADD1B2" rx="11" ry="11" style="stroke:#181818;stroke-width:1;"/><path d="M2101.9688,244.6406 Q2101.3906,244.9375 2100.75,245.0781 Q2100.1094,245.2344 2099.4063,245.2344 Q2096.9063,245.2344 2095.5781,243.5938 Q2094.2656,241.9375 2094.2656,238.8125 Q2094.2656,235.6875 2095.5781,234.0313 Q2096.9063,232.375 2099.4063,232.375 Q2100.1094,232.375 2100.75,232.5313 Q2101.4063,232.6875 2101.9688,232.9844 L2101.9688,235.7031 Q2101.3438,235.125 2100.75,234.8594 Q2100.1563,234.5781 2099.5313,234.5781 Q2098.1875,234.5781 2097.5,235.6563 Q2096.8125,236.7188 2096.8125,238.8125 Q2096.8125,240.9063 2097.5,241.9844 Q2098.1875,243.0469 2099.5313,243.0469 Q2100.1563,243.0469 2100.75,242.7813 Q2101.3438,242.5 2101.9688,241.9219 L2101.9688,244.6406 Z " fill="#000000"/><text fill="#000000" font-family="sans-serif" font-size="14" lengthAdjust="spacing" textLength="58.249" x="2113" y="243.8467">Sampler</text><line style="stroke:#181818;stroke-width:0.5;" x1="2085" x2="2173.249" y1="255" y2="255"/><line style="stroke:#181818;stroke-width:0.5;" x1="2085" x2="2173.249" y1="263" y2="263"/></g><!--class Actuator--><g class="entity" data-qualified-name="Actuator" data-source-line="11" id="ent0027"><rect fill="#F1F1F1" height="48" rx="2.5" ry="2.5" style="stroke:#181818;stroke-width:0.5;" width="92.0264" x="2209" y="223"/><ellipse cx="2224" cy="239" fill="#ADD1B2" rx="11" ry="11" style="stroke:#181818;stroke-width:1;"/><path d="M2226.9688,244.6406 Q2226.3906,244.9375 2225.75,245.0781 Q2225.1094,245.2344 2224.4063,245.2344 Q2221.9063,245.2344 2220.5781,243.5938 Q2219.2656,241.9375 2219.2656,238.8125 Q2219.2656,235.6875 2220.5781,234.0313 Q2221.9063,232.375 2224.4063,232.375 Q2225.1094,232.375 2225.75,232.5313 Q2226.4063,232.6875 2226.9688,232.9844 L2226.9688,235.7031 Q2226.3438,235.125 2225.75,234.8594 Q2225.1563,234.5781 2224.5313,234.5781 Q2223.1875,234.5781 2222.5,235.6563 Q2221.8125,236.7188 2221.8125,238.8125 Q2221.8125,240.9063 2222.5,241.9844 Q2223.1875,243.0469 2224.5313,243.0469 Q2225.1563,243.0469 2225.75,242.7813 Q2226.3438,242.5 2226.9688,241.9219 L2226.9688,244.6406 Z " fill="#000000"/><text fill="#000000" font-family="sans-serif" font-size="14" lengthAdjust="spacing" textLength="60.0264" x="2238" y="243.8467">Actuator</text><line style="stroke:#181818;stroke-width:0.5;" x1="2210" x2="2300.0264" y1="255" y2="255"/><line style="stroke:#181818;stroke-width:0.5;" x1="2210" x2="2300.0264" y1="263" y2="263"/></g><!--class Execution--><g class="entity" data-qualified-name="Execution" data-source-line="13" id="ent0030"><rect fill="#F1F1F1" height="48" rx="2.5" ry="2.5" style="stroke:#181818;stroke-width:0.5;" width="101.1318" x="2464.5" y="7"/><ellipse cx="2479.5" cy="23" fill="#ADD1B2" rx="11" ry="11" style="stroke:#181818;stroke-width:1;"/><path d="M2482.4688,28.6406 Q2481.8906,28.9375 2481.25,29.0781 Q2480.6094,29.2344 2479.9063,29.2344 Q2477.4063,29.2344 2476.0781,27.5938 Q2474.7656,25.9375 2474.7656,22.8125 Q2474.7656,19.6875 2476.0781,18.0313 Q2477.4063,16.375 2479.9063,16.375 Q2480.6094,16.375 2481.25,16.5313 Q2481.9063,16.6875 2482.4688,16.9844 L2482.4688,19.7031 Q2481.8438,19.125 2481.25,18.8594 Q2480.6563,18.5781 2480.0313,18.5781 Q2478.6875,18.5781 2478,19.6563 Q2477.3125,20.7188 2477.3125,22.8125 Q2477.3125,24.9063 2478,25.9844 Q2478.6875,27.0469 2480.0313,27.0469 Q2480.6563,27.0469 2481.25,26.7813 Q2481.8438,26.5 2482.4688,25.9219 L2482.4688,28.6406 Z " fill="#000000"/><text fill="#000000" font-family="sans-serif" font-size="14" lengthAdjust="spacing" textLength="69.1318" x="2493.5" y="27.8467">Execution</text><line style="stroke:#181818;stroke-width:0.5;" x1="2465.5" x2="2564.6318" y1="39" y2="39"/><line style="stroke:#181818;stroke-width:0.5;" x1="2465.5" x2="2564.6318" y1="47" y2="47"/></g><!--class Sampling--><g class="entity" data-qualified-name="Sampling" data-source-line="13" id="ent0031"><rect fill="#F1F1F1" height="48" rx="2.5" ry="2.5" style="stroke:#181818;stroke-width:0.5;" width="97.5293" x="2332" y="115"/><ellipse cx="2347" cy="131" fill="#ADD1B2" rx="11" ry="11" style="stroke:#181818;stroke-width:1;"/><path d="M2349.9688,136.6406 Q2349.3906,136.9375 2348.75,137.0781 Q2348.1094,137.2344 2347.4063,137.2344 Q2344.9063,137.2344 2343.5781,135.5938 Q2342.2656,133.9375 2342.2656,130.8125 Q2342.2656,127.6875 2343.5781,126.0313 Q2344.9063,124.375 2347.4063,124.375 Q2348.1094,124.375 2348.75,124.5313 Q2349.4063,124.6875 2349.9688,124.9844 L2349.9688,127.7031 Q2349.3438,127.125 2348.75,126.8594 Q2348.1563,126.5781 2347.5313,126.5781 Q2346.1875,126.5781 2345.5,127.6563 Q2344.8125,128.7188 2344.8125,130.8125 Q2344.8125,132.9063 2345.5,133.9844 Q2346.1875,135.0469 2347.5313,135.0469 Q2348.1563,135.0469 2348.75,134.7813 Q2349.3438,134.5 2349.9688,133.9219 L2349.9688,136.6406 Z " fill="#000000"/><text fill="#000000" font-family="sans-serif" font-size="14" lengthAdjust="spacing" textLength="65.5293" x="2361" y="135.8467">Sampling</text><line style="stroke:#181818;stroke-width:0.5;" x1="2333" x2="2428.5293" y1="147" y2="147"/><line style="stroke:#181818;stroke-width:0.5;" x1="2333" x2="2428.5293" y1="155" y2="155"/></g><!--class ExecutionCollection--><g class="entity" data-qualified-name="ExecutionCollection" data-source-line="14" id="ent0033"><rect fill="#F1F1F1" height="48" rx="2.5" ry="2.5" style="stroke:#181818;stroke-width:0.5;" width="170.3799" x="2952" y="7"/><ellipse cx="2967" cy="23" fill="#ADD1B2" rx="11" ry="11" style="stroke:#181818;stroke-width:1;"/><path d="M2969.9688,28.6406 Q2969.3906,28.9375 2968.75,29.0781 Q2968.1094,29.2344 2967.4063,29.2344 Q2964.9063,29.2344 2963.5781,27.5938 Q2962.2656,25.9375 2962.2656,22.8125 Q2962.2656,19.6875 2963.5781,18.0313 Q2964.9063,16.375 2967.4063,16.375 Q2968.1094,16.375 2968.75,16.5313 Q2969.4063,16.6875 2969.9688,16.9844 L2969.9688,19.7031 Q2969.3438,19.125 2968.75,18.8594 Q2968.1563,18.5781 2967.5313,18.5781 Q2966.1875,18.5781 2965.5,19.6563 Q2964.8125,20.7188 2964.8125,22.8125 Q2964.8125,24.9063 2965.5,25.9844 Q2966.1875,27.0469 2967.5313,27.0469 Q2968.1563,27.0469 2968.75,26.7813 Q2969.3438,26.5 2969.9688,25.9219 L2969.9688,28.6406 Z " fill="#000000"/><text fill="#000000" font-family="sans-serif" font-size="14" lengthAdjust="spacing" textLength="138.3799" x="2981" y="27.8467">ExecutionCollection</text><line style="stroke:#181818;stroke-width:0.5;" x1="2953" x2="3121.3799" y1="39" y2="39"/><line style="stroke:#181818;stroke-width:0.5;" x1="2953" x2="3121.3799" y1="47" y2="47"/></g><!--class SamplingCollection--><g class="entity" data-qualified-name="SamplingCollection" data-source-line="14" id="ent0034"><rect fill="#F1F1F1" height="48" rx="2.5" ry="2.5" style="stroke:#181818;stroke-width:0.5;" width="166.7773" x="2751.5" y="115"/><ellipse cx="2766.5" cy="131" fill="#ADD1B2" rx="11" ry="11" style="stroke:#181818;stroke-width:1;"/><path d="M2769.4688,136.6406 Q2768.8906,136.9375 2768.25,137.0781 Q2767.6094,137.2344 2766.9063,137.2344 Q2764.4063,137.2344 2763.0781,135.5938 Q2761.7656,133.9375 2761.7656,130.8125 Q2761.7656,127.6875 2763.0781,126.0313 Q2764.4063,124.375 2766.9063,124.375 Q2767.6094,124.375 2768.25,124.5313 Q2768.9063,124.6875 2769.4688,124.9844 L2769.4688,127.7031 Q2768.8438,127.125 2768.25,126.8594 Q2767.6563,126.5781 2767.0313,126.5781 Q2765.6875,126.5781 2765,127.6563 Q2764.3125,128.7188 2764.3125,130.8125 Q2764.3125,132.9063 2765,133.9844 Q2765.6875,135.0469 2767.0313,135.0469 Q2767.6563,135.0469 2768.25,134.7813 Q2768.8438,134.5 2769.4688,133.9219 L2769.4688,136.6406 Z " fill="#000000"/><text fill="#000000" font-family="sans-serif" font-size="14" lengthAdjust="spacing" textLength="134.7773" x="2780.5" y="135.8467">SamplingCollection</text><line style="stroke:#181818;stroke-width:0.5;" x1="2752.5" x2="2917.2773" y1="147" y2="147"/><line style="stroke:#181818;stroke-width:0.5;" x1="2752.5" x2="2917.2773" y1="155" y2="155"/></g><!--class Actuation--><g class="entity" data-qualified-name="Actuation" data-source-line="15" id="ent0036"><rect fill="#F1F1F1" height="48" rx="2.5" ry="2.5" style="stroke:#181818;stroke-width:0.5;" width="99.0332" x="2465.5" y="115"/><ellipse cx="2480.5" cy="131" fill="#ADD1B2" rx="11" ry="11" style="stroke:#181818;stroke-width:1;"/><path d="M2483.4688,136.6406 Q2482.8906,136.9375 2482.25,137.0781 Q2481.6094,137.2344 2480.9063,137.2344 Q2478.4063,137.2344 2477.0781,135.5938 Q2475.7656,133.9375 2475.7656,130.8125 Q2475.7656,127.6875 2477.0781,126.0313 Q2478.4063,124.375 2480.9063,124.375 Q2481.6094,124.375 2482.25,124.5313 Q2482.9063,124.6875 2483.4688,124.9844 L2483.4688,127.7031 Q2482.8438,127.125 2482.25,126.8594 Q2481.6563,126.5781 2481.0313,126.5781 Q2479.6875,126.5781 2479,127.6563 Q2478.3125,128.7188 2478.3125,130.8125 Q2478.3125,132.9063 2479,133.9844 Q2479.6875,135.0469 2481.0313,135.0469 Q2481.6563,135.0469 2482.25,134.7813 Q2482.8438,134.5 2483.4688,133.9219 L2483.4688,136.6406 Z " fill="#000000"/><text fill="#000000" font-family="sans-serif" font-size="14" lengthAdjust="spacing" textLength="67.0332" x="2494.5" y="135.8467">Actuation</text><line style="stroke:#181818;stroke-width:0.5;" x1="2466.5" x2="2563.5332" y1="147" y2="147"/><line style="stroke:#181818;stroke-width:0.5;" x1="2466.5" x2="2563.5332" y1="155" y2="155"/></g><!--class Sensor--><g class="entity" data-qualified-name="Sensor" data-source-line="16" id="ent0038"><rect fill="#F1F1F1" height="48" rx="2.5" ry="2.5" style="stroke:#181818;stroke-width:0.5;" width="79.9883" x="2336" y="223"/><ellipse cx="2351" cy="239" fill="#ADD1B2" rx="11" ry="11" style="stroke:#181818;stroke-width:1;"/><path d="M2353.9688,244.6406 Q2353.3906,244.9375 2352.75,245.0781 Q2352.1094,245.2344 2351.4063,245.2344 Q2348.9063,245.2344 2347.5781,243.5938 Q2346.2656,241.9375 2346.2656,238.8125 Q2346.2656,235.6875 2347.5781,234.0313 Q2348.9063,232.375 2351.4063,232.375 Q2352.1094,232.375 2352.75,232.5313 Q2353.4063,232.6875 2353.9688,232.9844 L2353.9688,235.7031 Q2353.3438,235.125 2352.75,234.8594 Q2352.1563,234.5781 2351.5313,234.5781 Q2350.1875,234.5781 2349.5,235.6563 Q2348.8125,236.7188 2348.8125,238.8125 Q2348.8125,240.9063 2349.5,241.9844 Q2350.1875,243.0469 2351.5313,243.0469 Q2352.1563,243.0469 2352.75,242.7813 Q2353.3438,242.5 2353.9688,241.9219 L2353.9688,244.6406 Z " fill="#000000"/><text fill="#000000" font-family="sans-serif" font-size="14" lengthAdjust="spacing" textLength="47.9883" x="2365" y="243.8467">Sensor</text><line style="stroke:#181818;stroke-width:0.5;" x1="2337" x2="2414.9883" y1="255" y2="255"/><line style="stroke:#181818;stroke-width:0.5;" x1="2337" x2="2414.9883" y1="263" y2="263"/></g><!--class ActuationCollection--><g class="entity" data-qualified-name="ActuationCollection" data-source-line="17" id="ent0040"><rect fill="#F1F1F1" height="48" rx="2.5" ry="2.5" style="stroke:#181818;stroke-width:0.5;" width="168.2813" x="2953" y="115"/><ellipse cx="2968" cy="131" fill="#ADD1B2" rx="11" ry="11" style="stroke:#181818;stroke-width:1;"/><path d="M2970.9688,136.6406 Q2970.3906,136.9375 2969.75,137.0781 Q2969.1094,137.2344 2968.4063,137.2344 Q2965.9063,137.2344 2964.5781,135.5938 Q2963.2656,133.9375 2963.2656,130.8125 Q2963.2656,127.6875 2964.5781,126.0313 Q2965.9063,124.375 2968.4063,124.375 Q2969.1094,124.375 2969.75,124.5313 Q2970.4063,124.6875 2970.9688,124.9844 L2970.9688,127.7031 Q2970.3438,127.125 2969.75,126.8594 Q2969.1563,126.5781 2968.5313,126.5781 Q2967.1875,126.5781 2966.5,127.6563 Q2965.8125,128.7188 2965.8125,130.8125 Q2965.8125,132.9063 2966.5,133.9844 Q2967.1875,135.0469 2968.5313,135.0469 Q2969.1563,135.0469 2969.75,134.7813 Q2970.3438,134.5 2970.9688,133.9219 L2970.9688,136.6406 Z " fill="#000000"/><text fill="#000000" font-family="sans-serif" font-size="14" lengthAdjust="spacing" textLength="136.2813" x="2982" y="135.8467">ActuationCollection</text><line style="stroke:#181818;stroke-width:0.5;" x1="2954" x2="3120.2813" y1="147" y2="147"/><line style="stroke:#181818;stroke-width:0.5;" x1="2954" x2="3120.2813" y1="155" y2="155"/></g><!--class ObservationCollection--><g class="entity" data-qualified-name="ObservationCollection" data-source-line="18" id="ent0042"><rect fill="#F1F1F1" height="48" rx="2.5" ry="2.5" style="stroke:#181818;stroke-width:0.5;" width="186.499" x="3156" y="115"/><ellipse cx="3171" cy="131" fill="#ADD1B2" rx="11" ry="11" style="stroke:#181818;stroke-width:1;"/><path d="M3173.9688,136.6406 Q3173.3906,136.9375 3172.75,137.0781 Q3172.1094,137.2344 3171.4063,137.2344 Q3168.9063,137.2344 3167.5781,135.5938 Q3166.2656,133.9375 3166.2656,130.8125 Q3166.2656,127.6875 3167.5781,126.0313 Q3168.9063,124.375 3171.4063,124.375 Q3172.1094,124.375 3172.75,124.5313 Q3173.4063,124.6875 3173.9688,124.9844 L3173.9688,127.7031 Q3173.3438,127.125 3172.75,126.8594 Q3172.1563,126.5781 3171.5313,126.5781 Q3170.1875,126.5781 3169.5,127.6563 Q3168.8125,128.7188 3168.8125,130.8125 Q3168.8125,132.9063 3169.5,133.9844 Q3170.1875,135.0469 3171.5313,135.0469 Q3172.1563,135.0469 3172.75,134.7813 Q3173.3438,134.5 3173.9688,133.9219 L3173.9688,136.6406 Z " fill="#000000"/><text fill="#000000" font-family="sans-serif" font-size="14" lengthAdjust="spacing" textLength="154.499" x="3185" y="135.8467">ObservationCollection</text><line style="stroke:#181818;stroke-width:0.5;" x1="3157" x2="3341.499" y1="147" y2="147"/><line style="stroke:#181818;stroke-width:0.5;" x1="3157" x2="3341.499" y1="155" y2="155"/></g><!--class Observation--><g class="entity" data-qualified-name="Observation" data-source-line="19" id="ent0044"><rect fill="#F1F1F1" height="48" rx="2.5" ry="2.5" style="stroke:#181818;stroke-width:0.5;" width="117.251" x="2599.5" y="115"/><ellipse cx="2614.5" cy="131" fill="#ADD1B2" rx="11" ry="11" style="stroke:#181818;stroke-width:1;"/><path d="M2617.4688,136.6406 Q2616.8906,136.9375 2616.25,137.0781 Q2615.6094,137.2344 2614.9063,137.2344 Q2612.4063,137.2344 2611.0781,135.5938 Q2609.7656,133.9375 2609.7656,130.8125 Q2609.7656,127.6875 2611.0781,126.0313 Q2612.4063,124.375 2614.9063,124.375 Q2615.6094,124.375 2616.25,124.5313 Q2616.9063,124.6875 2617.4688,124.9844 L2617.4688,127.7031 Q2616.8438,127.125 2616.25,126.8594 Q2615.6563,126.5781 2615.0313,126.5781 Q2613.6875,126.5781 2613,127.6563 Q2612.3125,128.7188 2612.3125,130.8125 Q2612.3125,132.9063 2613,133.9844 Q2613.6875,135.0469 2615.0313,135.0469 Q2615.6563,135.0469 2616.25,134.7813 Q2616.8438,134.5 2617.4688,133.9219 L2617.4688,136.6406 Z " fill="#000000"/><text fill="#000000" font-family="sans-serif" font-size="14" lengthAdjust="spacing" textLength="85.251" x="2628.5" y="135.8467">Observation</text><line style="stroke:#181818;stroke-width:0.5;" x1="2600.5" x2="2715.751" y1="147" y2="147"/><line style="stroke:#181818;stroke-width:0.5;" x1="2600.5" x2="2715.751" y1="155" y2="155"/></g><!--class Deployment--><g class="entity" data-qualified-name="Deployment" data-source-line="20" id="ent0046"><rect fill="#F1F1F1" height="48" rx="2.5" ry="2.5" style="stroke:#181818;stroke-width:0.5;" width="117.6338" x="7" y="7"/><ellipse cx="22" cy="23" fill="#ADD1B2" rx="11" ry="11" style="stroke:#181818;stroke-width:1;"/><path d="M24.9688,28.6406 Q24.3906,28.9375 23.75,29.0781 Q23.1094,29.2344 22.4063,29.2344 Q19.9063,29.2344 18.5781,27.5938 Q17.2656,25.9375 17.2656,22.8125 Q17.2656,19.6875 18.5781,18.0313 Q19.9063,16.375 22.4063,16.375 Q23.1094,16.375 23.75,16.5313 Q24.4063,16.6875 24.9688,16.9844 L24.9688,19.7031 Q24.3438,19.125 23.75,18.8594 Q23.1563,18.5781 22.5313,18.5781 Q21.1875,18.5781 20.5,19.6563 Q19.8125,20.7188 19.8125,22.8125 Q19.8125,24.9063 20.5,25.9844 Q21.1875,27.0469 22.5313,27.0469 Q23.1563,27.0469 23.75,26.7813 Q24.3438,26.5 24.9688,25.9219 L24.9688,28.6406 Z " fill="#000000"/><text fill="#000000" font-family="sans-serif" font-size="14" lengthAdjust="spacing" textLength="85.6338" x="36" y="27.8467">Deployment</text><line style="stroke:#181818;stroke-width:0.5;" x1="8" x2="123.6338" y1="39" y2="39"/><line style="stroke:#181818;stroke-width:0.5;" x1="8" x2="123.6338" y1="47" y2="47"/></g><!--class Stimulus--><g class="entity" data-qualified-name="Stimulus" data-source-line="21" id="ent0047"><rect fill="#F1F1F1" height="48" rx="2.5" ry="2.5" style="stroke:#181818;stroke-width:0.5;" width="92.833" x="160.5" y="7"/><ellipse cx="175.5" cy="23" fill="#ADD1B2" rx="11" ry="11" style="stroke:#181818;stroke-width:1;"/><path d="M178.4688,28.6406 Q177.8906,28.9375 177.25,29.0781 Q176.6094,29.2344 175.9063,29.2344 Q173.4063,29.2344 172.0781,27.5938 Q170.7656,25.9375 170.7656,22.8125 Q170.7656,19.6875 172.0781,18.0313 Q173.4063,16.375 175.9063,16.375 Q176.6094,16.375 177.25,16.5313 Q177.9063,16.6875 178.4688,16.9844 L178.4688,19.7031 Q177.8438,19.125 177.25,18.8594 Q176.6563,18.5781 176.0313,18.5781 Q174.6875,18.5781 174,19.6563 Q173.3125,20.7188 173.3125,22.8125 Q173.3125,24.9063 174,25.9844 Q174.6875,27.0469 176.0313,27.0469 Q176.6563,27.0469 177.25,26.7813 Q177.8438,26.5 178.4688,25.9219 L178.4688,28.6406 Z " fill="#000000"/><text fill="#000000" font-family="sans-serif" font-size="14" lengthAdjust="spacing" textLength="60.833" x="189.5" y="27.8467">Stimulus</text><line style="stroke:#181818;stroke-width:0.5;" x1="161.5" x2="252.333" y1="39" y2="39"/><line style="stroke:#181818;stroke-width:0.5;" x1="161.5" x2="252.333" y1="47" y2="47"/></g><!--class Result--><g class="entity" data-qualified-name="Result" data-source-line="22" id="ent0048"><rect fill="#F1F1F1" height="48" rx="2.5" ry="2.5" style="stroke:#181818;stroke-width:0.5;" width="75.8867" x="289" y="7"/><ellipse cx="304" cy="23" fill="#ADD1B2" rx="11" ry="11" style="stroke:#181818;stroke-width:1;"/><path d="M306.9688,28.6406 Q306.3906,28.9375 305.75,29.0781 Q305.1094,29.2344 304.4063,29.2344 Q301.9063,29.2344 300.5781,27.5938 Q299.2656,25.9375 299.2656,22.8125 Q299.2656,19.6875 300.5781,18.0313 Q301.9063,16.375 304.4063,16.375 Q305.1094,16.375 305.75,16.5313 Q306.4063,16.6875 306.9688,16.9844 L306.9688,19.7031 Q306.3438,19.125 305.75,18.8594 Q305.1563,18.5781 304.5313,18.5781 Q303.1875,18.5781 302.5,19.6563 Q301.8125,20.7188 301.8125,22.8125 Q301.8125,24.9063 302.5,25.9844 Q303.1875,27.0469 304.5313,27.0469 Q305.1563,27.0469 305.75,26.7813 Q306.3438,26.5 306.9688,25.9219 L306.9688,28.6406 Z " fill="#000000"/><text fill="#000000" font-family="sans-serif" font-size="14" lengthAdjust="spacing" textLength="43.8867" x="318" y="27.8467">Result</text><line style="stroke:#181818;stroke-width:0.5;" x1="290" x2="363.8867" y1="39" y2="39"/><line style="stroke:#181818;stroke-width:0.5;" x1="290" x2="363.8867" y1="47" y2="47"/></g><!--class Output--><g class="entity" data-qualified-name="Output" data-source-line="23" id="ent0049"><rect fill="#F1F1F1" height="48" rx="2.5" ry="2.5" style="stroke:#181818;stroke-width:0.5;" width="80.6309" x="25.5" y="115"/><ellipse cx="40.5" cy="131" fill="#ADD1B2" rx="11" ry="11" style="stroke:#181818;stroke-width:1;"/><path d="M43.4688,136.6406 Q42.8906,136.9375 42.25,137.0781 Q41.6094,137.2344 40.9063,137.2344 Q38.4063,137.2344 37.0781,135.5938 Q35.7656,133.9375 35.7656,130.8125 Q35.7656,127.6875 37.0781,126.0313 Q38.4063,124.375 40.9063,124.375 Q41.6094,124.375 42.25,124.5313 Q42.9063,124.6875 43.4688,124.9844 L43.4688,127.7031 Q42.8438,127.125 42.25,126.8594 Q41.6563,126.5781 41.0313,126.5781 Q39.6875,126.5781 39,127.6563 Q38.3125,128.7188 38.3125,130.8125 Q38.3125,132.9063 39,133.9844 Q39.6875,135.0469 41.0313,135.0469 Q41.6563,135.0469 42.25,134.7813 Q42.8438,134.5 43.4688,133.9219 L43.4688,136.6406 Z " fill="#000000"/><text fill="#000000" font-family="sans-serif" font-size="14" lengthAdjust="spacing" textLength="48.6309" x="54.5" y="135.8467">Output</text><line style="stroke:#181818;stroke-width:0.5;" x1="26.5" x2="105.1309" y1="147" y2="147"/><line style="stroke:#181818;stroke-width:0.5;" x1="26.5" x2="105.1309" y1="155" y2="155"/></g><!--class SampleCollection--><g class="entity" data-qualified-name="SampleCollection" data-source-line="24" id="ent0050"><rect fill="#F1F1F1" height="48" rx="2.5" ry="2.5" style="stroke:#181818;stroke-width:0.5;" width="153.7412" x="142" y="115"/><ellipse cx="157" cy="131" fill="#ADD1B2" rx="11" ry="11" style="stroke:#181818;stroke-width:1;"/><path d="M159.9688,136.6406 Q159.3906,136.9375 158.75,137.0781 Q158.1094,137.2344 157.4063,137.2344 Q154.9063,137.2344 153.5781,135.5938 Q152.2656,133.9375 152.2656,130.8125 Q152.2656,127.6875 153.5781,126.0313 Q154.9063,124.375 157.4063,124.375 Q158.1094,124.375 158.75,124.5313 Q159.4063,124.6875 159.9688,124.9844 L159.9688,127.7031 Q159.3438,127.125 158.75,126.8594 Q158.1563,126.5781 157.5313,126.5781 Q156.1875,126.5781 155.5,127.6563 Q154.8125,128.7188 154.8125,130.8125 Q154.8125,132.9063 155.5,133.9844 Q156.1875,135.0469 157.5313,135.0469 Q158.1563,135.0469 158.75,134.7813 Q159.3438,134.5 159.9688,133.9219 L159.9688,136.6406 Z " fill="#000000"/><text fill="#000000" font-family="sans-serif" font-size="14" lengthAdjust="spacing" textLength="121.7412" x="171" y="135.8467">SampleCollection</text><line style="stroke:#181818;stroke-width:0.5;" x1="143" x2="294.7412" y1="147" y2="147"/><line style="stroke:#181818;stroke-width:0.5;" x1="143" x2="294.7412" y1="155" y2="155"/></g><!--class FeatureOfInterest--><g class="entity" data-qualified-name="FeatureOfInterest" data-source-line="25" id="ent0051"><rect fill="#F1F1F1" height="48" rx="2.5" ry="2.5" style="stroke:#181818;stroke-width:0.5;" width="156.1816" x="331" y="115"/><ellipse cx="346" cy="131" fill="#ADD1B2" rx="11" ry="11" style="stroke:#181818;stroke-width:1;"/><path d="M348.9688,136.6406 Q348.3906,136.9375 347.75,137.0781 Q347.1094,137.2344 346.4063,137.2344 Q343.9063,137.2344 342.5781,135.5938 Q341.2656,133.9375 341.2656,130.8125 Q341.2656,127.6875 342.5781,126.0313 Q343.9063,124.375 346.4063,124.375 Q347.1094,124.375 347.75,124.5313 Q348.4063,124.6875 348.9688,124.9844 L348.9688,127.7031 Q348.3438,127.125 347.75,126.8594 Q347.1563,126.5781 346.5313,126.5781 Q345.1875,126.5781 344.5,127.6563 Q343.8125,128.7188 343.8125,130.8125 Q343.8125,132.9063 344.5,133.9844 Q345.1875,135.0469 346.5313,135.0469 Q347.1563,135.0469 347.75,134.7813 Q348.3438,134.5 348.9688,133.9219 L348.9688,136.6406 Z " fill="#000000"/><text fill="#000000" font-family="sans-serif" font-size="14" lengthAdjust="spacing" textLength="124.1816" x="360" y="135.8467">FeatureOfInterest</text><line style="stroke:#181818;stroke-width:0.5;" x1="332" x2="486.1816" y1="147" y2="147"/><line style="stroke:#181818;stroke-width:0.5;" x1="332" x2="486.1816" y1="155" y2="155"/></g><!--class Input--><g class="entity" data-qualified-name="Input" data-source-line="27" id="ent0052"><rect fill="#F1F1F1" height="48" rx="2.5" ry="2.5" style="stroke:#181818;stroke-width:0.5;" width="68.251" x="32" y="223"/><ellipse cx="47" cy="239" fill="#ADD1B2" rx="11" ry="11" style="stroke:#181818;stroke-width:1;"/><path d="M49.9688,244.6406 Q49.3906,244.9375 48.75,245.0781 Q48.1094,245.2344 47.4063,245.2344 Q44.9063,245.2344 43.5781,243.5938 Q42.2656,241.9375 42.2656,238.8125 Q42.2656,235.6875 43.5781,234.0313 Q44.9063,232.375 47.4063,232.375 Q48.1094,232.375 48.75,232.5313 Q49.4063,232.6875 49.9688,232.9844 L49.9688,235.7031 Q49.3438,235.125 48.75,234.8594 Q48.1563,234.5781 47.5313,234.5781 Q46.1875,234.5781 45.5,235.6563 Q44.8125,236.7188 44.8125,238.8125 Q44.8125,240.9063 45.5,241.9844 Q46.1875,243.0469 47.5313,243.0469 Q48.1563,243.0469 48.75,242.7813 Q49.3438,242.5 49.9688,241.9219 L49.9688,244.6406 Z " fill="#000000"/><text fill="#000000" font-family="sans-serif" font-size="14" lengthAdjust="spacing" textLength="36.251" x="61" y="243.8467">Input</text><line style="stroke:#181818;stroke-width:0.5;" x1="33" x2="99.251" y1="255" y2="255"/><line style="stroke:#181818;stroke-width:0.5;" x1="33" x2="99.251" y1="263" y2="263"/></g><!--reverse link Property to ActuatableProperty--><g class="link" data-entity-1="ent0002" data-entity-2="ent0003" data-link-type="extension" data-source-line="1" id="lnk4"><path codeLine="1" d="M673.3905,67.9716 C656.4005,85.6316 645.51,96.94 628.44,114.68" fill="none" id="Property-backto-ActuatableProperty" style="stroke:#181818;stroke-width:1;"/><polygon fill="none" points="685.87,55,669.0667,63.8118,677.7144,72.1314,685.87,55" style="stroke:#181818;stroke-width:1;"/></g><!--reverse link Sample to MaterialSample--><g class="link" data-entity-1="ent0005" data-entity-2="ent0006" data-link-type="extension" data-source-line="2" id="lnk7"><path codeLine="2" d="M1122.3567,64.4445 C1093.6067,82.1645 1069.35,97.11 1040.55,114.86" fill="none" id="Sample-backto-MaterialSample" style="stroke:#181818;stroke-width:1;"/><polygon fill="none" points="1137.68,55,1119.2086,59.3367,1125.5049,69.5522,1137.68,55" style="stroke:#181818;stroke-width:1;"/></g><!--reverse link Sample to SpatialSample--><g class="link" data-entity-1="ent0005" data-entity-2="ent0008" data-link-type="extension" data-source-line="3" id="lnk9"><path codeLine="3" d="M1175,73 C1175,90.66 1175,96.94 1175,114.68" fill="none" id="Sample-backto-SpatialSample" style="stroke:#181818;stroke-width:1;"/><polygon fill="none" points="1175,55,1169,73,1181,73,1175,55" style="stroke:#181818;stroke-width:1;"/></g><!--reverse link Sample to StatisticalSample--><g class="link" data-entity-1="ent0005" data-entity-2="ent0010" data-link-type="extension" data-source-line="4" id="lnk11"><path codeLine="4" d="M1229.3276,64.1725 C1259.2476,81.8925 1284.95,97.11 1314.93,114.86" fill="none" id="Sample-backto-StatisticalSample" style="stroke:#181818;stroke-width:1;"/><polygon fill="none" points="1213.84,55,1226.2701,69.335,1232.3851,59.0099,1213.84,55" style="stroke:#181818;stroke-width:1;"/></g><!--reverse link Property to ObservableProperty--><g class="link" data-entity-1="ent0002" data-entity-2="ent0012" data-link-type="extension" data-source-line="5" id="lnk13"><path codeLine="5" d="M742.8939,67.9094 C760.0539,85.5694 771.1,96.94 788.34,114.68" fill="none" id="Property-backto-ObservableProperty" style="stroke:#181818;stroke-width:1;"/><polygon fill="none" points="730.35,55,738.5907,72.0906,747.197,63.7281,730.35,55" style="stroke:#181818;stroke-width:1;"/></g><!--reverse link Procedure to ActuatingProcedure--><g class="link" data-entity-1="ent0014" data-entity-2="ent0015" data-link-type="extension" data-source-line="6" id="lnk16"><path codeLine="6" d="M1698.8326,63.1732 C1664.0626,80.8932 1632.24,97.11 1597.4,114.86" fill="none" id="Procedure-backto-ActuatingProcedure" style="stroke:#181818;stroke-width:1;"/><polygon fill="none" points="1714.87,55,1696.1082,57.8274,1701.557,68.519,1714.87,55" style="stroke:#181818;stroke-width:1;"/></g><!--reverse link Procedure to ObservingProcedure--><g class="link" data-entity-1="ent0014" data-entity-2="ent0017" data-link-type="extension" data-source-line="7" id="lnk18"><path codeLine="7" d="M1760,73 C1760,90.66 1760,96.94 1760,114.68" fill="none" id="Procedure-backto-ObservingProcedure" style="stroke:#181818;stroke-width:1;"/><polygon fill="none" points="1760,55,1754,73,1766,73,1760,55" style="stroke:#181818;stroke-width:1;"/></g><!--reverse link Procedure to SamplingProcedure--><g class="link" data-entity-1="ent0014" data-entity-2="ent0019" data-link-type="extension" data-source-line="8" id="lnk20"><path codeLine="8" d="M1820.9411,63.205 C1855.5411,80.925 1887.15,97.11 1921.81,114.86" fill="none" id="Procedure-backto-SamplingProcedure" style="stroke:#181818;stroke-width:1;"/><polygon fill="none" points="1804.92,55,1818.2061,68.5454,1823.6762,57.8647,1804.92,55" style="stroke:#181818;stroke-width:1;"/></g><!--reverse link Asset to Platform--><g class="link" data-entity-1="ent0021" data-entity-2="ent0022" data-link-type="extension" data-source-line="9" id="lnk23"><path codeLine="9" d="M2170.7839,70.6022 C2160.6239,88.2622 2155.63,96.94 2145.42,114.68" fill="none" id="Asset-backto-Platform" style="stroke:#181818;stroke-width:1;"/><polygon fill="none" points="2179.76,55,2165.5831,67.6102,2175.9846,73.5943,2179.76,55" style="stroke:#181818;stroke-width:1;"/></g><!--reverse link System to Sampler--><g class="link" data-entity-1="ent0024" data-entity-2="ent0025" data-link-type="extension" data-source-line="10" id="lnk26"><path codeLine="10" d="M2213.8865,174.5884 C2192.8965,192.2484 2177.81,204.94 2156.72,222.68" fill="none" id="System-backto-Sampler" style="stroke:#181818;stroke-width:1;"/><polygon fill="none" points="2227.66,163,2210.0237,169.9972,2217.7493,179.1795,2227.66,163" style="stroke:#181818;stroke-width:1;"/></g><!--reverse link System to Actuator--><g class="link" data-entity-1="ent0024" data-entity-2="ent0027" data-link-type="extension" data-source-line="11" id="lnk28"><path codeLine="11" d="M2255,181 C2255,198.66 2255,204.94 2255,222.68" fill="none" id="System-backto-Actuator" style="stroke:#181818;stroke-width:1;"/><polygon fill="none" points="2255,163,2249,181,2261,181,2255,163" style="stroke:#181818;stroke-width:1;"/></g><!--reverse link Asset to System--><g class="link" data-entity-1="ent0021" data-entity-2="ent0024" data-link-type="extension" data-source-line="12" id="lnk29"><path codeLine="12" d="M2215.5383,70.5372 C2225.8683,88.1972 2230.98,96.94 2241.36,114.68" fill="none" id="Asset-backto-System" style="stroke:#181818;stroke-width:1;"/><polygon fill="none" points="2206.45,55,2210.3592,73.5666,2220.7173,67.5077,2206.45,55" style="stroke:#181818;stroke-width:1;"/></g><!--reverse link Execution to Sampling--><g class="link" data-entity-1="ent0030" data-entity-2="ent0031" data-link-type="extension" data-source-line="13" id="lnk32"><path codeLine="13" d="M2471.8041,66.1688 C2449.4841,83.8288 2432.91,96.94 2410.48,114.68" fill="none" id="Execution-backto-Sampling" style="stroke:#181818;stroke-width:1;"/><polygon fill="none" points="2485.92,55,2468.0812,61.4635,2475.527,70.8741,2485.92,55" style="stroke:#181818;stroke-width:1;"/></g><!--reverse link ExecutionCollection to SamplingCollection--><g class="link" data-entity-1="ent0033" data-entity-2="ent0034" data-link-type="extension" data-source-line="14" id="lnk35"><path codeLine="14" d="M2977.231,63.3636 C2943.461,81.0836 2912.93,97.11 2879.09,114.86" fill="none" id="ExecutionCollection-backto-SamplingCollection" style="stroke:#181818;stroke-width:1;"/><polygon fill="none" points="2993.17,55,2974.4432,58.0506,2980.0189,68.6766,2993.17,55" style="stroke:#181818;stroke-width:1;"/></g><!--reverse link Execution to Actuation--><g class="link" data-entity-1="ent0030" data-entity-2="ent0036" data-link-type="extension" data-source-line="15" id="lnk37"><path codeLine="15" d="M2515,73 C2515,90.66 2515,96.94 2515,114.68" fill="none" id="Execution-backto-Actuation" style="stroke:#181818;stroke-width:1;"/><polygon fill="none" points="2515,55,2509,73,2521,73,2515,55" style="stroke:#181818;stroke-width:1;"/></g><!--reverse link System to Sensor--><g class="link" data-entity-1="ent0024" data-entity-2="ent0038" data-link-type="extension" data-source-line="16" id="lnk39"><path codeLine="16" d="M2294.7968,174.864 C2314.9468,192.524 2329.13,204.94 2349.38,222.68" fill="none" id="System-backto-Sensor" style="stroke:#181818;stroke-width:1;"/><polygon fill="none" points="2281.26,163,2290.8421,179.3763,2298.7515,170.3518,2281.26,163" style="stroke:#181818;stroke-width:1;"/></g><!--reverse link ExecutionCollection to ActuationCollection--><g class="link" data-entity-1="ent0033" data-entity-2="ent0040" data-link-type="extension" data-source-line="17" id="lnk41"><path codeLine="17" d="M3037,73 C3037,90.66 3037,96.94 3037,114.68" fill="none" id="ExecutionCollection-backto-ActuationCollection" style="stroke:#181818;stroke-width:1;"/><polygon fill="none" points="3037,55,3031,73,3043,73,3037,55" style="stroke:#181818;stroke-width:1;"/></g><!--reverse link ExecutionCollection to ObservationCollection--><g class="link" data-entity-1="ent0033" data-entity-2="ent0042" data-link-type="extension" data-source-line="18" id="lnk43"><path codeLine="18" d="M3099.0997,63.0498 C3134.5397,80.7698 3167.22,97.11 3202.72,114.86" fill="none" id="ExecutionCollection-backto-ObservationCollection" style="stroke:#181818;stroke-width:1;"/><polygon fill="none" points="3083,55,3096.4164,68.4164,3101.783,57.6833,3083,55" style="stroke:#181818;stroke-width:1;"/></g><!--reverse link Execution to Observation--><g class="link" data-entity-1="ent0030" data-entity-2="ent0044" data-link-type="extension" data-source-line="19" id="lnk45"><path codeLine="19" d="M2560.4895,65.7202 C2584.3095,83.3802 2602.61,96.94 2626.54,114.68" fill="none" id="Execution-backto-Observation" style="stroke:#181818;stroke-width:1;"/><polygon fill="none" points="2546.03,55,2556.9161,70.54,2564.0629,60.9004,2546.03,55" style="stroke:#181818;stroke-width:1;"/></g><?plantuml-src VL9RRiCW4FptANo1t20_KPj8-QXirISWT5CXBG-nIrLBENnH81YSk7zcPdPcM3Dwwy3ptEzlkrr_a1m4Yml2cF5k4jeX9Ff3C7WbC64DDJd16mn7XbZ9mevDvd0Xy3zDPloGy1KyrAsK-IxuMf4y_bFSenl1WGWuaICAlbglksac1brDW6-mrCJwUZZntV4NP61bJPktu6yM4UIpOi7N7ldUaMXwWQ7OODEtJBqoNelpyhVaJw9EeY3gty6XdJKOpi34IWSCb8-VG04Vt13OXIAyRxNAIl091CUVCbpF9Zune8UyF8bqF9lAAUtzPVxIxmy0?></g></svg>