<svg xmlns="http://www.w3.org/2000/svg" xmlns:xlink="http://www.w3.org/1999/xlink" contentStyleType="text/css" data-diagram-type="CLASS" height="286px" preserveAspectRatio="none" style="width:3143px;height:286px;background:#FFFFFF;" version="1.1" viewBox="0 0 3143 286" width="3143px" zoomAndPan="magnify"><?plantuml 1.2026.5?><defs/><g><!--class Property--><g class="entity" data-qualified-name="Property" data-source-line="1" id="ent0001"><rect fill="#F1F1F1" height="48" rx="2.5" ry="2.5" style="stroke:#181818;stroke-width:0.5;" width="91.7939" x="516" y="7"/><ellipse cx="531" cy="23" fill="#ADD1B2" rx="11" ry="11" style="stroke:#181818;stroke-width:1;"/><path d="M533.9688,28.6406 Q533.3906,28.9375 532.75,29.0781 Q532.1094,29.2344 531.4063,29.2344 Q528.9063,29.2344 527.5781,27.5938 Q526.2656,25.9375 526.2656,22.8125 Q526.2656,19.6875 527.5781,18.0313 Q528.9063,16.375 531.4063,16.375 Q532.1094,16.375 532.75,16.5313 Q533.4063,16.6875 533.9688,16.9844 L533.9688,19.7031 Q533.3438,19.125 532.75,18.8594 Q532.1563,18.5781 531.5313,18.5781 Q530.1875,18.5781 529.5,19.6563 Q528.8125,20.7188 528.8125,22.8125 Q528.8125,24.9063 529.5,25.9844 Q530.1875,27.0469 531.5313,27.0469 Q532.1563,27.0469 532.75,26.7813 Q533.3438,26.5 533.9688,25.9219 L533.9688,28.6406 Z " fill="#000000"/><text fill="#000000" font-family="sans-serif" font-size="14" lengthAdjust="spacing" textLength="59.7939" x="545" y="27.8467">Property</text><line style="stroke:#181818;stroke-width:0.5;" x1="517" x2="606.7939" y1="39" y2="39"/><line style="stroke:#181818;stroke-width:0.5;" x1="517" x2="606.7939" y1="47" y2="47"/></g><!--class ActuatableProperty--><g class="entity" data-qualified-name="ActuatableProperty" data-source-line="1" id="ent0002"><rect fill="#F1F1F1" height="48" rx="2.5" ry="2.5" style="stroke:#181818;stroke-width:0.5;" width="167.4678" x="308.5" y="115"/><ellipse cx="323.5" cy="131" fill="#ADD1B2" rx="11" ry="11" style="stroke:#181818;stroke-width:1;"/><path d="M326.4688,136.6406 Q325.8906,136.9375 325.25,137.0781 Q324.6094,137.2344 323.9063,137.2344 Q321.4063,137.2344 320.0781,135.5938 Q318.7656,133.9375 318.7656,130.8125 Q318.7656,127.6875 320.0781,126.0313 Q321.4063,124.375 323.9063,124.375 Q324.6094,124.375 325.25,124.5313 Q325.9063,124.6875 326.4688,124.9844 L326.4688,127.7031 Q325.8438,127.125 325.25,126.8594 Q324.6563,126.5781 324.0313,126.5781 Q322.6875,126.5781 322,127.6563 Q321.3125,128.7188 321.3125,130.8125 Q321.3125,132.9063 322,133.9844 Q322.6875,135.0469 324.0313,135.0469 Q324.6563,135.0469 325.25,134.7813 Q325.8438,134.5 326.4688,133.9219 L326.4688,136.6406 Z " fill="#000000"/><text fill="#000000" font-family="sans-serif" font-size="14" lengthAdjust="spacing" textLength="135.4678" x="337.5" y="135.8467">ActuatableProperty</text><line style="stroke:#181818;stroke-width:0.5;" x1="309.5" x2="474.9678" y1="147" y2="147"/><line style="stroke:#181818;stroke-width:0.5;" x1="309.5" x2="474.9678" y1="155" y2="155"/></g><!--class Sample--><g class="entity" data-qualified-name="Sample" data-source-line="2" id="ent0004"><rect fill="#F1F1F1" height="48" rx="2.5" ry="2.5" style="stroke:#181818;stroke-width:0.5;" width="84.4932" x="919" y="7"/><ellipse cx="934" cy="23" fill="#ADD1B2" rx="11" ry="11" style="stroke:#181818;stroke-width:1;"/><path d="M936.9688,28.6406 Q936.3906,28.9375 935.75,29.0781 Q935.1094,29.2344 934.4063,29.2344 Q931.9063,29.2344 930.5781,27.5938 Q929.2656,25.9375 929.2656,22.8125 Q929.2656,19.6875 930.5781,18.0313 Q931.9063,16.375 934.4063,16.375 Q935.1094,16.375 935.75,16.5313 Q936.4063,16.6875 936.9688,16.9844 L936.9688,19.7031 Q936.3438,19.125 935.75,18.8594 Q935.1563,18.5781 934.5313,18.5781 Q933.1875,18.5781 932.5,19.6563 Q931.8125,20.7188 931.8125,22.8125 Q931.8125,24.9063 932.5,25.9844 Q933.1875,27.0469 934.5313,27.0469 Q935.1563,27.0469 935.75,26.7813 Q936.3438,26.5 936.9688,25.9219 L936.9688,28.6406 Z " fill="#000000"/><text fill="#000000" font-family="sans-serif" font-size="14" lengthAdjust="spacing" textLength="52.4932" x="948" y="27.8467">Sample</text><line style="stroke:#181818;stroke-width:0.5;" x1="920" x2="1002.4932" y1="39" y2="39"/><line style="stroke:#181818;stroke-width:0.5;" x1="920" x2="1002.4932" y1="47" y2="47"/></g><!--class MaterialSample--><g class="entity" data-qualified-name="MaterialSample" data-source-line="2" id="ent0005"><rect fill="#F1F1F1" height="48" rx="2.5" ry="2.5" style="stroke:#181818;stroke-width:0.5;" width="141.3682" x="718.5" y="115"/><ellipse cx="733.5" cy="131" fill="#ADD1B2" rx="11" ry="11" style="stroke:#181818;stroke-width:1;"/><path d="M736.4688,136.6406 Q735.8906,136.9375 735.25,137.0781 Q734.6094,137.2344 733.9063,137.2344 Q731.4063,137.2344 730.0781,135.5938 Q728.7656,133.9375 728.7656,130.8125 Q728.7656,127.6875 730.0781,126.0313 Q731.4063,124.375 733.9063,124.375 Q734.6094,124.375 735.25,124.5313 Q735.9063,124.6875 736.4688,124.9844 L736.4688,127.7031 Q735.8438,127.125 735.25,126.8594 Q734.6563,126.5781 734.0313,126.5781 Q732.6875,126.5781 732,127.6563 Q731.3125,128.7188 731.3125,130.8125 Q731.3125,132.9063 732,133.9844 Q732.6875,135.0469 734.0313,135.0469 Q734.6563,135.0469 735.25,134.7813 Q735.8438,134.5 736.4688,133.9219 L736.4688,136.6406 Z " fill="#000000"/><text fill="#000000" font-family="sans-serif" font-size="14" lengthAdjust="spacing" textLength="109.3682" x="747.5" y="135.8467">MaterialSample</text><line style="stroke:#181818;stroke-width:0.5;" x1="719.5" x2="858.8682" y1="147" y2="147"/><line style="stroke:#181818;stroke-width:0.5;" x1="719.5" x2="858.8682" y1="155" y2="155"/></g><!--class ObservableProperty--><g class="entity" data-qualified-name="ObservableProperty" data-source-line="3" id="ent0007"><rect fill="#F1F1F1" height="48" rx="2.5" ry="2.5" style="stroke:#181818;stroke-width:0.5;" width="171.6172" x="511" y="115"/><ellipse cx="526" cy="131" fill="#ADD1B2" rx="11" ry="11" style="stroke:#181818;stroke-width:1;"/><path d="M528.9688,136.6406 Q528.3906,136.9375 527.75,137.0781 Q527.1094,137.2344 526.4063,137.2344 Q523.9063,137.2344 522.5781,135.5938 Q521.2656,133.9375 521.2656,130.8125 Q521.2656,127.6875 522.5781,126.0313 Q523.9063,124.375 526.4063,124.375 Q527.1094,124.375 527.75,124.5313 Q528.4063,124.6875 528.9688,124.9844 L528.9688,127.7031 Q528.3438,127.125 527.75,126.8594 Q527.1563,126.5781 526.5313,126.5781 Q525.1875,126.5781 524.5,127.6563 Q523.8125,128.7188 523.8125,130.8125 Q523.8125,132.9063 524.5,133.9844 Q525.1875,135.0469 526.5313,135.0469 Q527.1563,135.0469 527.75,134.7813 Q528.3438,134.5 528.9688,133.9219 L528.9688,136.6406 Z " fill="#000000"/><text fill="#000000" font-family="sans-serif" font-size="14" lengthAdjust="spacing" textLength="139.6172" x="540" y="135.8467">ObservableProperty</text><line style="stroke:#181818;stroke-width:0.5;" x1="512" x2="681.6172" y1="147" y2="147"/><line style="stroke:#181818;stroke-width:0.5;" x1="512" x2="681.6172" y1="155" y2="155"/></g><!--class SpatialSample--><g class="entity" data-qualified-name="SpatialSample" data-source-line="4" id="ent0009"><rect fill="#F1F1F1" height="48" rx="2.5" ry="2.5" style="stroke:#181818;stroke-width:0.5;" width="132.6934" x="894.5" y="115"/><ellipse cx="909.5" cy="131" fill="#ADD1B2" rx="11" ry="11" style="stroke:#181818;stroke-width:1;"/><path d="M912.4688,136.6406 Q911.8906,136.9375 911.25,137.0781 Q910.6094,137.2344 909.9063,137.2344 Q907.4063,137.2344 906.0781,135.5938 Q904.7656,133.9375 904.7656,130.8125 Q904.7656,127.6875 906.0781,126.0313 Q907.4063,124.375 909.9063,124.375 Q910.6094,124.375 911.25,124.5313 Q911.9063,124.6875 912.4688,124.9844 L912.4688,127.7031 Q911.8438,127.125 911.25,126.8594 Q910.6563,126.5781 910.0313,126.5781 Q908.6875,126.5781 908,127.6563 Q907.3125,128.7188 907.3125,130.8125 Q907.3125,132.9063 908,133.9844 Q908.6875,135.0469 910.0313,135.0469 Q910.6563,135.0469 911.25,134.7813 Q911.8438,134.5 912.4688,133.9219 L912.4688,136.6406 Z " fill="#000000"/><text fill="#000000" font-family="sans-serif" font-size="14" lengthAdjust="spacing" textLength="100.6934" x="923.5" y="135.8467">SpatialSample</text><line style="stroke:#181818;stroke-width:0.5;" x1="895.5" x2="1026.1934" y1="147" y2="147"/><line style="stroke:#181818;stroke-width:0.5;" x1="895.5" x2="1026.1934" y1="155" y2="155"/></g><!--class StatisticalSample--><g class="entity" data-qualified-name="StatisticalSample" data-source-line="5" id="ent0011"><rect fill="#F1F1F1" height="48" rx="2.5" ry="2.5" style="stroke:#181818;stroke-width:0.5;" width="153.666" x="1063" y="115"/><ellipse cx="1078" cy="131" fill="#ADD1B2" rx="11" ry="11" style="stroke:#181818;stroke-width:1;"/><path d="M1080.9688,136.6406 Q1080.3906,136.9375 1079.75,137.0781 Q1079.1094,137.2344 1078.4063,137.2344 Q1075.9063,137.2344 1074.5781,135.5938 Q1073.2656,133.9375 1073.2656,130.8125 Q1073.2656,127.6875 1074.5781,126.0313 Q1075.9063,124.375 1078.4063,124.375 Q1079.1094,124.375 1079.75,124.5313 Q1080.4063,124.6875 1080.9688,124.9844 L1080.9688,127.7031 Q1080.3438,127.125 1079.75,126.8594 Q1079.1563,126.5781 1078.5313,126.5781 Q1077.1875,126.5781 1076.5,127.6563 Q1075.8125,128.7188 1075.8125,130.8125 Q1075.8125,132.9063 1076.5,133.9844 Q1077.1875,135.0469 1078.5313,135.0469 Q1079.1563,135.0469 1079.75,134.7813 Q1080.3438,134.5 1080.9688,133.9219 L1080.9688,136.6406 Z " fill="#000000"/><text fill="#000000" font-family="sans-serif" font-size="14" lengthAdjust="spacing" textLength="121.666" x="1092" y="135.8467">StatisticalSample</text><line style="stroke:#181818;stroke-width:0.5;" x1="1064" x2="1215.666" y1="147" y2="147"/><line style="stroke:#181818;stroke-width:0.5;" x1="1064" x2="1215.666" y1="155" y2="155"/></g><!--class Procedure--><g class="entity" data-qualified-name="Procedure" data-source-line="6" id="ent0013"><rect fill="#F1F1F1" height="48" rx="2.5" ry="2.5" style="stroke:#181818;stroke-width:0.5;" width="103.2031" x="1494.5" y="7"/><ellipse cx="1509.5" cy="23" fill="#ADD1B2" rx="11" ry="11" style="stroke:#181818;stroke-width:1;"/><path d="M1512.4688,28.6406 Q1511.8906,28.9375 1511.25,29.0781 Q1510.6094,29.2344 1509.9063,29.2344 Q1507.4063,29.2344 1506.0781,27.5938 Q1504.7656,25.9375 1504.7656,22.8125 Q1504.7656,19.6875 1506.0781,18.0313 Q1507.4063,16.375 1509.9063,16.375 Q1510.6094,16.375 1511.25,16.5313 Q1511.9063,16.6875 1512.4688,16.9844 L1512.4688,19.7031 Q1511.8438,19.125 1511.25,18.8594 Q1510.6563,18.5781 1510.0313,18.5781 Q1508.6875,18.5781 1508,19.6563 Q1507.3125,20.7188 1507.3125,22.8125 Q1507.3125,24.9063 1508,25.9844 Q1508.6875,27.0469 1510.0313,27.0469 Q1510.6563,27.0469 1511.25,26.7813 Q1511.8438,26.5 1512.4688,25.9219 L1512.4688,28.6406 Z " fill="#000000"/><text fill="#000000" font-family="sans-serif" font-size="14" lengthAdjust="spacing" textLength="71.2031" x="1523.5" y="27.8467">Procedure</text><line style="stroke:#181818;stroke-width:0.5;" x1="1495.5" x2="1596.7031" y1="39" y2="39"/><line style="stroke:#181818;stroke-width:0.5;" x1="1495.5" x2="1596.7031" y1="47" y2="47"/></g><!--class ActuatingProcedure--><g class="entity" data-qualified-name="ActuatingProcedure" data-source-line="6" id="ent0014"><rect fill="#F1F1F1" height="48" rx="2.5" ry="2.5" style="stroke:#181818;stroke-width:0.5;" width="170.5576" x="1252.5" y="115"/><ellipse cx="1267.5" cy="131" fill="#ADD1B2" rx="11" ry="11" style="stroke:#181818;stroke-width:1;"/><path d="M1270.4688,136.6406 Q1269.8906,136.9375 1269.25,137.0781 Q1268.6094,137.2344 1267.9063,137.2344 Q1265.4063,137.2344 1264.0781,135.5938 Q1262.7656,133.9375 1262.7656,130.8125 Q1262.7656,127.6875 1264.0781,126.0313 Q1265.4063,124.375 1267.9063,124.375 Q1268.6094,124.375 1269.25,124.5313 Q1269.9063,124.6875 1270.4688,124.9844 L1270.4688,127.7031 Q1269.8438,127.125 1269.25,126.8594 Q1268.6563,126.5781 1268.0313,126.5781 Q1266.6875,126.5781 1266,127.6563 Q1265.3125,128.7188 1265.3125,130.8125 Q1265.3125,132.9063 1266,133.9844 Q1266.6875,135.0469 1268.0313,135.0469 Q1268.6563,135.0469 1269.25,134.7813 Q1269.8438,134.5 1270.4688,133.9219 L1270.4688,136.6406 Z " fill="#000000"/><text fill="#000000" font-family="sans-serif" font-size="14" lengthAdjust="spacing" textLength="138.5576" x="1281.5" y="135.8467">ActuatingProcedure</text><line style="stroke:#181818;stroke-width:0.5;" x1="1253.5" x2="1422.0576" y1="147" y2="147"/><line style="stroke:#181818;stroke-width:0.5;" x1="1253.5" x2="1422.0576" y1="155" y2="155"/></g><!--class ObservingProcedure--><g class="entity" data-qualified-name="ObservingProcedure" data-source-line="7" id="ent0016"><rect fill="#F1F1F1" height="48" rx="2.5" ry="2.5" style="stroke:#181818;stroke-width:0.5;" width="174.707" x="1458.5" y="115"/><ellipse cx="1473.5" cy="131" fill="#ADD1B2" rx="11" ry="11" style="stroke:#181818;stroke-width:1;"/><path d="M1476.4688,136.6406 Q1475.8906,136.9375 1475.25,137.0781 Q1474.6094,137.2344 1473.9063,137.2344 Q1471.4063,137.2344 1470.0781,135.5938 Q1468.7656,133.9375 1468.7656,130.8125 Q1468.7656,127.6875 1470.0781,126.0313 Q1471.4063,124.375 1473.9063,124.375 Q1474.6094,124.375 1475.25,124.5313 Q1475.9063,124.6875 1476.4688,124.9844 L1476.4688,127.7031 Q1475.8438,127.125 1475.25,126.8594 Q1474.6563,126.5781 1474.0313,126.5781 Q1472.6875,126.5781 1472,127.6563 Q1471.3125,128.7188 1471.3125,130.8125 Q1471.3125,132.9063 1472,133.9844 Q1472.6875,135.0469 1474.0313,135.0469 Q1474.6563,135.0469 1475.25,134.7813 Q1475.8438,134.5 1476.4688,133.9219 L1476.4688,136.6406 Z " fill="#000000"/><text fill="#000000" font-family="sans-serif" font-size="14" lengthAdjust="spacing" textLength="142.707" x="1487.5" y="135.8467">ObservingProcedure</text><line style="stroke:#181818;stroke-width:0.5;" x1="1459.5" x2="1632.207" y1="147" y2="147"/><line style="stroke:#181818;stroke-width:0.5;" x1="1459.5" x2="1632.207" y1="155" y2="155"/></g><!--class SamplingProcedure--><g class="entity" data-qualified-name="SamplingProcedure" data-source-line="8" id="ent0018"><rect fill="#F1F1F1" height="48" rx="2.5" ry="2.5" style="stroke:#181818;stroke-width:0.5;" width="168.7324" x="1668.5" y="115"/><ellipse cx="1683.5" cy="131" fill="#ADD1B2" rx="11" ry="11" style="stroke:#181818;stroke-width:1;"/><path d="M1686.4688,136.6406 Q1685.8906,136.9375 1685.25,137.0781 Q1684.6094,137.2344 1683.9063,137.2344 Q1681.4063,137.2344 1680.0781,135.5938 Q1678.7656,133.9375 1678.7656,130.8125 Q1678.7656,127.6875 1680.0781,126.0313 Q1681.4063,124.375 1683.9063,124.375 Q1684.6094,124.375 1685.25,124.5313 Q1685.9063,124.6875 1686.4688,124.9844 L1686.4688,127.7031 Q1685.8438,127.125 1685.25,126.8594 Q1684.6563,126.5781 1684.0313,126.5781 Q1682.6875,126.5781 1682,127.6563 Q1681.3125,128.7188 1681.3125,130.8125 Q1681.3125,132.9063 1682,133.9844 Q1682.6875,135.0469 1684.0313,135.0469 Q1684.6563,135.0469 1685.25,134.7813 Q1685.8438,134.5 1686.4688,133.9219 L1686.4688,136.6406 Z " fill="#000000"/><text fill="#000000" font-family="sans-serif" font-size="14" lengthAdjust="spacing" textLength="136.7324" x="1697.5" y="135.8467">SamplingProcedure</text><line style="stroke:#181818;stroke-width:0.5;" x1="1669.5" x2="1836.2324" y1="147" y2="147"/><line style="stroke:#181818;stroke-width:0.5;" x1="1669.5" x2="1836.2324" y1="155" y2="155"/></g><!--class Asset--><g class="entity" data-qualified-name="Asset" data-source-line="9" id="ent0020"><rect fill="#F1F1F1" height="48" rx="2.5" ry="2.5" style="stroke:#181818;stroke-width:0.5;" width="70.2676" x="1944" y="7"/><ellipse cx="1959" cy="23" fill="#ADD1B2" rx="11" ry="11" style="stroke:#181818;stroke-width:1;"/><path d="M1961.9688,28.6406 Q1961.3906,28.9375 1960.75,29.0781 Q1960.1094,29.2344 1959.4063,29.2344 Q1956.9063,29.2344 1955.5781,27.5938 Q1954.2656,25.9375 1954.2656,22.8125 Q1954.2656,19.6875 1955.5781,18.0313 Q1956.9063,16.375 1959.4063,16.375 Q1960.1094,16.375 1960.75,16.5313 Q1961.4063,16.6875 1961.9688,16.9844 L1961.9688,19.7031 Q1961.3438,19.125 1960.75,18.8594 Q1960.1563,18.5781 1959.5313,18.5781 Q1958.1875,18.5781 1957.5,19.6563 Q1956.8125,20.7188 1956.8125,22.8125 Q1956.8125,24.9063 1957.5,25.9844 Q1958.1875,27.0469 1959.5313,27.0469 Q1960.1563,27.0469 1960.75,26.7813 Q1961.3438,26.5 1961.9688,25.9219 L1961.9688,28.6406 Z " fill="#000000"/><text fill="#000000" font-family="sans-serif" font-size="14" lengthAdjust="spacing" textLength="38.2676" x="1973" y="27.8467">Asset</text><line style="stroke:#181818;stroke-width:0.5;" x1="1945" x2="2013.2676" y1="39" y2="39"/><line style="stroke:#181818;stroke-width:0.5;" x1="1945" x2="2013.2676" y1="47" y2="47"/></g><!--class Platform--><g class="entity" data-qualified-name="Platform" data-source-line="9" id="ent0021"><rect fill="#F1F1F1" height="48" rx="2.5" ry="2.5" style="stroke:#181818;stroke-width:0.5;" width="91.2881" x="1872.5" y="115"/><ellipse cx="1887.5" cy="131" fill="#ADD1B2" rx="11" ry="11" style="stroke:#181818;stroke-width:1;"/><path d="M1890.4688,136.6406 Q1889.8906,136.9375 1889.25,137.0781 Q1888.6094,137.2344 1887.9063,137.2344 Q1885.4063,137.2344 1884.0781,135.5938 Q1882.7656,133.9375 1882.7656,130.8125 Q1882.7656,127.6875 1884.0781,126.0313 Q1885.4063,124.375 1887.9063,124.375 Q1888.6094,124.375 1889.25,124.5313 Q1889.9063,124.6875 1890.4688,124.9844 L1890.4688,127.7031 Q1889.8438,127.125 1889.25,126.8594 Q1888.6563,126.5781 1888.0313,126.5781 Q1886.6875,126.5781 1886,127.6563 Q1885.3125,128.7188 1885.3125,130.8125 Q1885.3125,132.9063 1886,133.9844 Q1886.6875,135.0469 1888.0313,135.0469 Q1888.6563,135.0469 1889.25,134.7813 Q1889.8438,134.5 1890.4688,133.9219 L1890.4688,136.6406 Z " fill="#000000"/><text fill="#000000" font-family="sans-serif" font-size="14" lengthAdjust="spacing" textLength="59.2881" x="1901.5" y="135.8467">Platform</text><line style="stroke:#181818;stroke-width:0.5;" x1="1873.5" x2="1962.7881" y1="147" y2="147"/><line style="stroke:#181818;stroke-width:0.5;" x1="1873.5" x2="1962.7881" y1="155" y2="155"/></g><!--class System--><g class="entity" data-qualified-name="System" data-source-line="10" id="ent0023"><rect fill="#F1F1F1" height="48" rx="2.5" ry="2.5" style="stroke:#181818;stroke-width:0.5;" width="84.2061" x="1999" y="115"/><ellipse cx="2014" cy="131" fill="#ADD1B2" rx="11" ry="11" style="stroke:#181818;stroke-width:1;"/><path d="M2016.9688,136.6406 Q2016.3906,136.9375 2015.75,137.0781 Q2015.1094,137.2344 2014.4063,137.2344 Q2011.9063,137.2344 2010.5781,135.5938 Q2009.2656,133.9375 2009.2656,130.8125 Q2009.2656,127.6875 2010.5781,126.0313 Q2011.9063,124.375 2014.4063,124.375 Q2015.1094,124.375 2015.75,124.5313 Q2016.4063,124.6875 2016.9688,124.9844 L2016.9688,127.7031 Q2016.3438,127.125 2015.75,126.8594 Q2015.1563,126.5781 2014.5313,126.5781 Q2013.1875,126.5781 2012.5,127.6563 Q2011.8125,128.7188 2011.8125,130.8125 Q2011.8125,132.9063 2012.5,133.9844 Q2013.1875,135.0469 2014.5313,135.0469 Q2015.1563,135.0469 2015.75,134.7813 Q2016.3438,134.5 2016.9688,133.9219 L2016.9688,136.6406 Z " fill="#000000"/><text fill="#000000" font-family="sans-serif" font-size="14" lengthAdjust="spacing" textLength="52.2061" x="2028" y="135.8467">System</text><line style="stroke:#181818;stroke-width:0.5;" x1="2000" x2="2082.2061" y1="147" y2="147"/><line style="stroke:#181818;stroke-width:0.5;" x1="2000" x2="2082.2061" y1="155" y2="155"/></g><!--class Sampler--><g class="entity" data-qualified-name="Sampler" data-source-line="10" id="ent0024"><rect fill="#F1F1F1" height="48" rx="2.5" ry="2.5" style="stroke:#181818;stroke-width:0.5;" width="90.249" x="1870" y="223"/><ellipse cx="1885" cy="239" fill="#ADD1B2" rx="11" ry="11" style="stroke:#181818;stroke-width:1;"/><path d="M1887.9688,244.6406 Q1887.3906,244.9375 1886.75,245.0781 Q1886.1094,245.2344 1885.4063,245.2344 Q1882.9063,245.2344 1881.5781,243.5938 Q1880.2656,241.9375 1880.2656,238.8125 Q1880.2656,235.6875 1881.5781,234.0313 Q1882.9063,232.375 1885.4063,232.375 Q1886.1094,232.375 1886.75,232.5313 Q1887.4063,232.6875 1887.9688,232.9844 L1887.9688,235.7031 Q1887.3438,235.125 1886.75,234.8594 Q1886.1563,234.5781 1885.5313,234.5781 Q1884.1875,234.5781 1883.5,235.6563 Q1882.8125,236.7188 1882.8125,238.8125 Q1882.8125,240.9063 1883.5,241.9844 Q1884.1875,243.0469 1885.5313,243.0469 Q1886.1563,243.0469 1886.75,242.7813 Q1887.3438,242.5 1887.9688,241.9219 L1887.9688,244.6406 Z " fill="#000000"/><text fill="#000000" font-family="sans-serif" font-size="14" lengthAdjust="spacing" textLength="58.249" x="1899" y="243.8467">Sampler</text><line style="stroke:#181818;stroke-width:0.5;" x1="1871" x2="1959.249" y1="255" y2="255"/><line style="stroke:#181818;stroke-width:0.5;" x1="1871" x2="1959.249" y1="263" y2="263"/></g><!--class Actuator--><g class="entity" data-qualified-name="Actuator" data-source-line="11" id="ent0026"><rect fill="#F1F1F1" height="48" rx="2.5" ry="2.5" style="stroke:#181818;stroke-width:0.5;" width="92.0264" x="1995" y="223"/><ellipse cx="2010" cy="239" fill="#ADD1B2" rx="11" ry="11" style="stroke:#181818;stroke-width:1;"/><path d="M2012.9688,244.6406 Q2012.3906,244.9375 2011.75,245.0781 Q2011.1094,245.2344 2010.4063,245.2344 Q2007.9063,245.2344 2006.5781,243.5938 Q2005.2656,241.9375 2005.2656,238.8125 Q2005.2656,235.6875 2006.5781,234.0313 Q2007.9063,232.375 2010.4063,232.375 Q2011.1094,232.375 2011.75,232.5313 Q2012.4063,232.6875 2012.9688,232.9844 L2012.9688,235.7031 Q2012.3438,235.125 2011.75,234.8594 Q2011.1563,234.5781 2010.5313,234.5781 Q2009.1875,234.5781 2008.5,235.6563 Q2007.8125,236.7188 2007.8125,238.8125 Q2007.8125,240.9063 2008.5,241.9844 Q2009.1875,243.0469 2010.5313,243.0469 Q2011.1563,243.0469 2011.75,242.7813 Q2012.3438,242.5 2012.9688,241.9219 L2012.9688,244.6406 Z " fill="#000000"/><text fill="#000000" font-family="sans-serif" font-size="14" lengthAdjust="spacing" textLength="60.0264" x="2024" y="243.8467">Actuator</text><line style="stroke:#181818;stroke-width:0.5;" x1="1996" x2="2086.0264" y1="255" y2="255"/><line style="stroke:#181818;stroke-width:0.5;" x1="1996" x2="2086.0264" y1="263" y2="263"/></g><!--class ExecutionCollection--><g class="entity" data-qualified-name="ExecutionCollection" data-source-line="12" id="ent0028"><rect fill="#F1F1F1" height="48" rx="2.5" ry="2.5" style="stroke:#181818;stroke-width:0.5;" width="170.3799" x="2319" y="7"/><ellipse cx="2334" cy="23" fill="#ADD1B2" rx="11" ry="11" style="stroke:#181818;stroke-width:1;"/><path d="M2336.9688,28.6406 Q2336.3906,28.9375 2335.75,29.0781 Q2335.1094,29.2344 2334.4063,29.2344 Q2331.9063,29.2344 2330.5781,27.5938 Q2329.2656,25.9375 2329.2656,22.8125 Q2329.2656,19.6875 2330.5781,18.0313 Q2331.9063,16.375 2334.4063,16.375 Q2335.1094,16.375 2335.75,16.5313 Q2336.4063,16.6875 2336.9688,16.9844 L2336.9688,19.7031 Q2336.3438,19.125 2335.75,18.8594 Q2335.1563,18.5781 2334.5313,18.5781 Q2333.1875,18.5781 2332.5,19.6563 Q2331.8125,20.7188 2331.8125,22.8125 Q2331.8125,24.9063 2332.5,25.9844 Q2333.1875,27.0469 2334.5313,27.0469 Q2335.1563,27.0469 2335.75,26.7813 Q2336.3438,26.5 2336.9688,25.9219 L2336.9688,28.6406 Z " fill="#000000"/><text fill="#000000" font-family="sans-serif" font-size="14" lengthAdjust="spacing" textLength="138.3799" x="2348" y="27.8467">ExecutionCollection</text><line style="stroke:#181818;stroke-width:0.5;" x1="2320" x2="2488.3799" y1="39" y2="39"/><line style="stroke:#181818;stroke-width:0.5;" x1="2320" x2="2488.3799" y1="47" y2="47"/></g><!--class SamplingCollection--><g class="entity" data-qualified-name="SamplingCollection" data-source-line="12" id="ent0029"><rect fill="#F1F1F1" height="48" rx="2.5" ry="2.5" style="stroke:#181818;stroke-width:0.5;" width="166.7773" x="2118.5" y="115"/><ellipse cx="2133.5" cy="131" fill="#ADD1B2" rx="11" ry="11" style="stroke:#181818;stroke-width:1;"/><path d="M2136.4688,136.6406 Q2135.8906,136.9375 2135.25,137.0781 Q2134.6094,137.2344 2133.9063,137.2344 Q2131.4063,137.2344 2130.0781,135.5938 Q2128.7656,133.9375 2128.7656,130.8125 Q2128.7656,127.6875 2130.0781,126.0313 Q2131.4063,124.375 2133.9063,124.375 Q2134.6094,124.375 2135.25,124.5313 Q2135.9063,124.6875 2136.4688,124.9844 L2136.4688,127.7031 Q2135.8438,127.125 2135.25,126.8594 Q2134.6563,126.5781 2134.0313,126.5781 Q2132.6875,126.5781 2132,127.6563 Q2131.3125,128.7188 2131.3125,130.8125 Q2131.3125,132.9063 2132,133.9844 Q2132.6875,135.0469 2134.0313,135.0469 Q2134.6563,135.0469 2135.25,134.7813 Q2135.8438,134.5 2136.4688,133.9219 L2136.4688,136.6406 Z " fill="#000000"/><text fill="#000000" font-family="sans-serif" font-size="14" lengthAdjust="spacing" textLength="134.7773" x="2147.5" y="135.8467">SamplingCollection</text><line style="stroke:#181818;stroke-width:0.5;" x1="2119.5" x2="2284.2773" y1="147" y2="147"/><line style="stroke:#181818;stroke-width:0.5;" x1="2119.5" x2="2284.2773" y1="155" y2="155"/></g><!--class Sensor--><g class="entity" data-qualified-name="Sensor" data-source-line="14" id="ent0032"><rect fill="#F1F1F1" height="48" rx="2.5" ry="2.5" style="stroke:#181818;stroke-width:0.5;" width="79.9883" x="2122" y="223"/><ellipse cx="2137" cy="239" fill="#ADD1B2" rx="11" ry="11" style="stroke:#181818;stroke-width:1;"/><path d="M2139.9688,244.6406 Q2139.3906,244.9375 2138.75,245.0781 Q2138.1094,245.2344 2137.4063,245.2344 Q2134.9063,245.2344 2133.5781,243.5938 Q2132.2656,241.9375 2132.2656,238.8125 Q2132.2656,235.6875 2133.5781,234.0313 Q2134.9063,232.375 2137.4063,232.375 Q2138.1094,232.375 2138.75,232.5313 Q2139.4063,232.6875 2139.9688,232.9844 L2139.9688,235.7031 Q2139.3438,235.125 2138.75,234.8594 Q2138.1563,234.5781 2137.5313,234.5781 Q2136.1875,234.5781 2135.5,235.6563 Q2134.8125,236.7188 2134.8125,238.8125 Q2134.8125,240.9063 2135.5,241.9844 Q2136.1875,243.0469 2137.5313,243.0469 Q2138.1563,243.0469 2138.75,242.7813 Q2139.3438,242.5 2139.9688,241.9219 L2139.9688,244.6406 Z " fill="#000000"/><text fill="#000000" font-family="sans-serif" font-size="14" lengthAdjust="spacing" textLength="47.9883" x="2151" y="243.8467">Sensor</text><line style="stroke:#181818;stroke-width:0.5;" x1="2123" x2="2200.9883" y1="255" y2="255"/><line style="stroke:#181818;stroke-width:0.5;" x1="2123" x2="2200.9883" y1="263" y2="263"/></g><!--class Execution--><g class="entity" data-qualified-name="Execution" data-source-line="15" id="ent0034"><rect fill="#F1F1F1" height="48" rx="2.5" ry="2.5" style="stroke:#181818;stroke-width:0.5;" width="101.1318" x="2876.5" y="7"/><ellipse cx="2891.5" cy="23" fill="#ADD1B2" rx="11" ry="11" style="stroke:#181818;stroke-width:1;"/><path d="M2894.4688,28.6406 Q2893.8906,28.9375 2893.25,29.0781 Q2892.6094,29.2344 2891.9063,29.2344 Q2889.4063,29.2344 2888.0781,27.5938 Q2886.7656,25.9375 2886.7656,22.8125 Q2886.7656,19.6875 2888.0781,18.0313 Q2889.4063,16.375 2891.9063,16.375 Q2892.6094,16.375 2893.25,16.5313 Q2893.9063,16.6875 2894.4688,16.9844 L2894.4688,19.7031 Q2893.8438,19.125 2893.25,18.8594 Q2892.6563,18.5781 2892.0313,18.5781 Q2890.6875,18.5781 2890,19.6563 Q2889.3125,20.7188 2889.3125,22.8125 Q2889.3125,24.9063 2890,25.9844 Q2890.6875,27.0469 2892.0313,27.0469 Q2892.6563,27.0469 2893.25,26.7813 Q2893.8438,26.5 2894.4688,25.9219 L2894.4688,28.6406 Z " fill="#000000"/><text fill="#000000" font-family="sans-serif" font-size="14" lengthAdjust="spacing" textLength="69.1318" x="2905.5" y="27.8467">Execution</text><line style="stroke:#181818;stroke-width:0.5;" x1="2877.5" x2="2976.6318" y1="39" y2="39"/><line style="stroke:#181818;stroke-width:0.5;" x1="2877.5" x2="2976.6318" y1="47" y2="47"/></g><!--class Sampling--><g class="entity" data-qualified-name="Sampling" data-source-line="15" id="ent0035"><rect fill="#F1F1F1" height="48" rx="2.5" ry="2.5" style="stroke:#181818;stroke-width:0.5;" width="97.5293" x="2744" y="115"/><ellipse cx="2759" cy="131" fill="#ADD1B2" rx="11" ry="11" style="stroke:#181818;stroke-width:1;"/><path d="M2761.9688,136.6406 Q2761.3906,136.9375 2760.75,137.0781 Q2760.1094,137.2344 2759.4063,137.2344 Q2756.9063,137.2344 2755.5781,135.5938 Q2754.2656,133.9375 2754.2656,130.8125 Q2754.2656,127.6875 2755.5781,126.0313 Q2756.9063,124.375 2759.4063,124.375 Q2760.1094,124.375 2760.75,124.5313 Q2761.4063,124.6875 2761.9688,124.9844 L2761.9688,127.7031 Q2761.3438,127.125 2760.75,126.8594 Q2760.1563,126.5781 2759.5313,126.5781 Q2758.1875,126.5781 2757.5,127.6563 Q2756.8125,128.7188 2756.8125,130.8125 Q2756.8125,132.9063 2757.5,133.9844 Q2758.1875,135.0469 2759.5313,135.0469 Q2760.1563,135.0469 2760.75,134.7813 Q2761.3438,134.5 2761.9688,133.9219 L2761.9688,136.6406 Z " fill="#000000"/><text fill="#000000" font-family="sans-serif" font-size="14" lengthAdjust="spacing" textLength="65.5293" x="2773" y="135.8467">Sampling</text><line style="stroke:#181818;stroke-width:0.5;" x1="2745" x2="2840.5293" y1="147" y2="147"/><line style="stroke:#181818;stroke-width:0.5;" x1="2745" x2="2840.5293" y1="155" y2="155"/></g><!--class Actuation--><g class="entity" data-qualified-name="Actuation" data-source-line="16" id="ent0037"><rect fill="#F1F1F1" height="48" rx="2.5" ry="2.5" style="stroke:#181818;stroke-width:0.5;" width="99.0332" x="2877.5" y="115"/><ellipse cx="2892.5" cy="131" fill="#ADD1B2" rx="11" ry="11" style="stroke:#181818;stroke-width:1;"/><path d="M2895.4688,136.6406 Q2894.8906,136.9375 2894.25,137.0781 Q2893.6094,137.2344 2892.9063,137.2344 Q2890.4063,137.2344 2889.0781,135.5938 Q2887.7656,133.9375 2887.7656,130.8125 Q2887.7656,127.6875 2889.0781,126.0313 Q2890.4063,124.375 2892.9063,124.375 Q2893.6094,124.375 2894.25,124.5313 Q2894.9063,124.6875 2895.4688,124.9844 L2895.4688,127.7031 Q2894.8438,127.125 2894.25,126.8594 Q2893.6563,126.5781 2893.0313,126.5781 Q2891.6875,126.5781 2891,127.6563 Q2890.3125,128.7188 2890.3125,130.8125 Q2890.3125,132.9063 2891,133.9844 Q2891.6875,135.0469 2893.0313,135.0469 Q2893.6563,135.0469 2894.25,134.7813 Q2894.8438,134.5 2895.4688,133.9219 L2895.4688,136.6406 Z " fill="#000000"/><text fill="#000000" font-family="sans-serif" font-size="14" lengthAdjust="spacing" textLength="67.0332" x="2906.5" y="135.8467">Actuation</text><line style="stroke:#181818;stroke-width:0.5;" x1="2878.5" x2="2975.5332" y1="147" y2="147"/><line style="stroke:#181818;stroke-width:0.5;" x1="2878.5" x2="2975.5332" y1="155" y2="155"/></g><!--class ActuationCollection--><g class="entity" data-qualified-name="ActuationCollection" data-source-line="17" id="ent0039"><rect fill="#F1F1F1" height="48" rx="2.5" ry="2.5" style="stroke:#181818;stroke-width:0.5;" width="168.2813" x="2320" y="115"/><ellipse cx="2335" cy="131" fill="#ADD1B2" rx="11" ry="11" style="stroke:#181818;stroke-width:1;"/><path d="M2337.9688,136.6406 Q2337.3906,136.9375 2336.75,137.0781 Q2336.1094,137.2344 2335.4063,137.2344 Q2332.9063,137.2344 2331.5781,135.5938 Q2330.2656,133.9375 2330.2656,130.8125 Q2330.2656,127.6875 2331.5781,126.0313 Q2332.9063,124.375 2335.4063,124.375 Q2336.1094,124.375 2336.75,124.5313 Q2337.4063,124.6875 2337.9688,124.9844 L2337.9688,127.7031 Q2337.3438,127.125 2336.75,126.8594 Q2336.1563,126.5781 2335.5313,126.5781 Q2334.1875,126.5781 2333.5,127.6563 Q2332.8125,128.7188 2332.8125,130.8125 Q2332.8125,132.9063 2333.5,133.9844 Q2334.1875,135.0469 2335.5313,135.0469 Q2336.1563,135.0469 2336.75,134.7813 Q2337.3438,134.5 2337.9688,133.9219 L2337.9688,136.6406 Z " fill="#000000"/><text fill="#000000" font-family="sans-serif" font-size="14" lengthAdjust="spacing" textLength="136.2813" x="2349" y="135.8467">ActuationCollection</text><line style="stroke:#181818;stroke-width:0.5;" x1="2321" x2="2487.2813" y1="147" y2="147"/><line style="stroke:#181818;stroke-width:0.5;" x1="2321" x2="2487.2813" y1="155" y2="155"/></g><!--class ObservationCollection--><g class="entity" data-qualified-name="ObservationCollection" data-source-line="18" id="ent0041"><rect fill="#F1F1F1" height="48" rx="2.5" ry="2.5" style="stroke:#181818;stroke-width:0.5;" width="186.499" x="2523" y="115"/><ellipse cx="2538" cy="131" fill="#ADD1B2" rx="11" ry="11" style="stroke:#181818;stroke-width:1;"/><path d="M2540.9688,136.6406 Q2540.3906,136.9375 2539.75,137.0781 Q2539.1094,137.2344 2538.4063,137.2344 Q2535.9063,137.2344 2534.5781,135.5938 Q2533.2656,133.9375 2533.2656,130.8125 Q2533.2656,127.6875 2534.5781,126.0313 Q2535.9063,124.375 2538.4063,124.375 Q2539.1094,124.375 2539.75,124.5313 Q2540.4063,124.6875 2540.9688,124.9844 L2540.9688,127.7031 Q2540.3438,127.125 2539.75,126.8594 Q2539.1563,126.5781 2538.5313,126.5781 Q2537.1875,126.5781 2536.5,127.6563 Q2535.8125,128.7188 2535.8125,130.8125 Q2535.8125,132.9063 2536.5,133.9844 Q2537.1875,135.0469 2538.5313,135.0469 Q2539.1563,135.0469 2539.75,134.7813 Q2540.3438,134.5 2540.9688,133.9219 L2540.9688,136.6406 Z " fill="#000000"/><text fill="#000000" font-family="sans-serif" font-size="14" lengthAdjust="spacing" textLength="154.499" x="2552" y="135.8467">ObservationCollection</text><line style="stroke:#181818;stroke-width:0.5;" x1="2524" x2="2708.499" y1="147" y2="147"/><line style="stroke:#181818;stroke-width:0.5;" x1="2524" x2="2708.499" y1="155" y2="155"/></g><!--class Observation--><g class="entity" data-qualified-name="Observation" data-source-line="19" id="ent0043"><rect fill="#F1F1F1" height="48" rx="2.5" ry="2.5" style="stroke:#181818;stroke-width:0.5;" width="117.251" x="3011.5" y="115"/><ellipse cx="3026.5" cy="131" fill="#ADD1B2" rx="11" ry="11" style="stroke:#181818;stroke-width:1;"/><path d="M3029.4688,136.6406 Q3028.8906,136.9375 3028.25,137.0781 Q3027.6094,137.2344 3026.9063,137.2344 Q3024.4063,137.2344 3023.0781,135.5938 Q3021.7656,133.9375 3021.7656,130.8125 Q3021.7656,127.6875 3023.0781,126.0313 Q3024.4063,124.375 3026.9063,124.375 Q3027.6094,124.375 3028.25,124.5313 Q3028.9063,124.6875 3029.4688,124.9844 L3029.4688,127.7031 Q3028.8438,127.125 3028.25,126.8594 Q3027.6563,126.5781 3027.0313,126.5781 Q3025.6875,126.5781 3025,127.6563 Q3024.3125,128.7188 3024.3125,130.8125 Q3024.3125,132.9063 3025,133.9844 Q3025.6875,135.0469 3027.0313,135.0469 Q3027.6563,135.0469 3028.25,134.7813 Q3028.8438,134.5 3029.4688,133.9219 L3029.4688,136.6406 Z " fill="#000000"/><text fill="#000000" font-family="sans-serif" font-size="14" lengthAdjust="spacing" textLength="85.251" x="3040.5" y="135.8467">Observation</text><line style="stroke:#181818;stroke-width:0.5;" x1="3012.5" x2="3127.751" y1="147" y2="147"/><line style="stroke:#181818;stroke-width:0.5;" x1="3012.5" x2="3127.751" y1="155" y2="155"/></g><!--class FeatureOfInterest--><g class="entity" data-qualified-name="FeatureOfInterest" data-source-line="20" id="ent0045"><rect fill="#F1F1F1" height="48" rx="2.5" ry="2.5" style="stroke:#181818;stroke-width:0.5;" width="156.1816" x="7" y="7"/><ellipse cx="22" cy="23" fill="#ADD1B2" rx="11" ry="11" style="stroke:#181818;stroke-width:1;"/><path d="M24.9688,28.6406 Q24.3906,28.9375 23.75,29.0781 Q23.1094,29.2344 22.4063,29.2344 Q19.9063,29.2344 18.5781,27.5938 Q17.2656,25.9375 17.2656,22.8125 Q17.2656,19.6875 18.5781,18.0313 Q19.9063,16.375 22.4063,16.375 Q23.1094,16.375 23.75,16.5313 Q24.4063,16.6875 24.9688,16.9844 L24.9688,19.7031 Q24.3438,19.125 23.75,18.8594 Q23.1563,18.5781 22.5313,18.5781 Q21.1875,18.5781 20.5,19.6563 Q19.8125,20.7188 19.8125,22.8125 Q19.8125,24.9063 20.5,25.9844 Q21.1875,27.0469 22.5313,27.0469 Q23.1563,27.0469 23.75,26.7813 Q24.3438,26.5 24.9688,25.9219 L24.9688,28.6406 Z " fill="#000000"/><text fill="#000000" font-family="sans-serif" font-size="14" lengthAdjust="spacing" textLength="124.1816" x="36" y="27.8467">FeatureOfInterest</text><line style="stroke:#181818;stroke-width:0.5;" x1="8" x2="162.1816" y1="39" y2="39"/><line style="stroke:#181818;stroke-width:0.5;" x1="8" x2="162.1816" y1="47" y2="47"/></g><!--class Stimulus--><g class="entity" data-qualified-name="Stimulus" data-source-line="21" id="ent0046"><rect fill="#F1F1F1" height="48" rx="2.5" ry="2.5" style="stroke:#181818;stroke-width:0.5;" width="92.833" x="198.5" y="7"/><ellipse cx="213.5" cy="23" fill="#ADD1B2" rx="11" ry="11" style="stroke:#181818;stroke-width:1;"/><path d="M216.4688,28.6406 Q215.8906,28.9375 215.25,29.0781 Q214.6094,29.2344 213.9063,29.2344 Q211.4063,29.2344 210.0781,27.5938 Q208.7656,25.9375 208.7656,22.8125 Q208.7656,19.6875 210.0781,18.0313 Q211.4063,16.375 213.9063,16.375 Q214.6094,16.375 215.25,16.5313 Q215.9063,16.6875 216.4688,16.9844 L216.4688,19.7031 Q215.8438,19.125 215.25,18.8594 Q214.6563,18.5781 214.0313,18.5781 Q212.6875,18.5781 212,19.6563 Q211.3125,20.7188 211.3125,22.8125 Q211.3125,24.9063 212,25.9844 Q212.6875,27.0469 214.0313,27.0469 Q214.6563,27.0469 215.25,26.7813 Q215.8438,26.5 216.4688,25.9219 L216.4688,28.6406 Z " fill="#000000"/><text fill="#000000" font-family="sans-serif" font-size="14" lengthAdjust="spacing" textLength="60.833" x="227.5" y="27.8467">Stimulus</text><line style="stroke:#181818;stroke-width:0.5;" x1="199.5" x2="290.333" y1="39" y2="39"/><line style="stroke:#181818;stroke-width:0.5;" x1="199.5" x2="290.333" y1="47" y2="47"/></g><!--class Deployment--><g class="entity" data-qualified-name="Deployment" data-source-line="22" id="ent0047"><rect fill="#F1F1F1" height="48" rx="2.5" ry="2.5" style="stroke:#181818;stroke-width:0.5;" width="117.6338" x="327" y="7"/><ellipse cx="342" cy="23" fill="#ADD1B2" rx="11" ry="11" style="stroke:#181818;stroke-width:1;"/><path d="M344.9688,28.6406 Q344.3906,28.9375 343.75,29.0781 Q343.1094,29.2344 342.4063,29.2344 Q339.9063,29.2344 338.5781,27.5938 Q337.2656,25.9375 337.2656,22.8125 Q337.2656,19.6875 338.5781,18.0313 Q339.9063,16.375 342.4063,16.375 Q343.1094,16.375 343.75,16.5313 Q344.4063,16.6875 344.9688,16.9844 L344.9688,19.7031 Q344.3438,19.125 343.75,18.8594 Q343.1563,18.5781 342.5313,18.5781 Q341.1875,18.5781 340.5,19.6563 Q339.8125,20.7188 339.8125,22.8125 Q339.8125,24.9063 340.5,25.9844 Q341.1875,27.0469 342.5313,27.0469 Q343.1563,27.0469 343.75,26.7813 Q344.3438,26.5 344.9688,25.9219 L344.9688,28.6406 Z " fill="#000000"/><text fill="#000000" font-family="sans-serif" font-size="14" lengthAdjust="spacing" textLength="85.6338" x="356" y="27.8467">Deployment</text><line style="stroke:#181818;stroke-width:0.5;" x1="328" x2="443.6338" y1="39" y2="39"/><line style="stroke:#181818;stroke-width:0.5;" x1="328" x2="443.6338" y1="47" y2="47"/></g><!--class SampleCollection--><g class="entity" data-qualified-name="SampleCollection" data-source-line="23" id="ent0048"><rect fill="#F1F1F1" height="48" rx="2.5" ry="2.5" style="stroke:#181818;stroke-width:0.5;" width="153.7412" x="8" y="115"/><ellipse cx="23" cy="131" fill="#ADD1B2" rx="11" ry="11" style="stroke:#181818;stroke-width:1;"/><path d="M25.9688,136.6406 Q25.3906,136.9375 24.75,137.0781 Q24.1094,137.2344 23.4063,137.2344 Q20.9063,137.2344 19.5781,135.5938 Q18.2656,133.9375 18.2656,130.8125 Q18.2656,127.6875 19.5781,126.0313 Q20.9063,124.375 23.4063,124.375 Q24.1094,124.375 24.75,124.5313 Q25.4063,124.6875 25.9688,124.9844 L25.9688,127.7031 Q25.3438,127.125 24.75,126.8594 Q24.1563,126.5781 23.5313,126.5781 Q22.1875,126.5781 21.5,127.6563 Q20.8125,128.7188 20.8125,130.8125 Q20.8125,132.9063 21.5,133.9844 Q22.1875,135.0469 23.5313,135.0469 Q24.1563,135.0469 24.75,134.7813 Q25.3438,134.5 25.9688,133.9219 L25.9688,136.6406 Z " fill="#000000"/><text fill="#000000" font-family="sans-serif" font-size="14" lengthAdjust="spacing" textLength="121.7412" x="37" y="135.8467">SampleCollection</text><line style="stroke:#181818;stroke-width:0.5;" x1="9" x2="160.7412" y1="147" y2="147"/><line style="stroke:#181818;stroke-width:0.5;" x1="9" x2="160.7412" y1="155" y2="155"/></g><!--class Result--><g class="entity" data-qualified-name="Result" data-source-line="24" id="ent0049"><rect fill="#F1F1F1" height="48" rx="2.5" ry="2.5" style="stroke:#181818;stroke-width:0.5;" width="75.8867" x="197" y="115"/><ellipse cx="212" cy="131" fill="#ADD1B2" rx="11" ry="11" style="stroke:#181818;stroke-width:1;"/><path d="M214.9688,136.6406 Q214.3906,136.9375 213.75,137.0781 Q213.1094,137.2344 212.4063,137.2344 Q209.9063,137.2344 208.5781,135.5938 Q207.2656,133.9375 207.2656,130.8125 Q207.2656,127.6875 208.5781,126.0313 Q209.9063,124.375 212.4063,124.375 Q213.1094,124.375 213.75,124.5313 Q214.4063,124.6875 214.9688,124.9844 L214.9688,127.7031 Q214.3438,127.125 213.75,126.8594 Q213.1563,126.5781 212.5313,126.5781 Q211.1875,126.5781 210.5,127.6563 Q209.8125,128.7188 209.8125,130.8125 Q209.8125,132.9063 210.5,133.9844 Q211.1875,135.0469 212.5313,135.0469 Q213.1563,135.0469 213.75,134.7813 Q214.3438,134.5 214.9688,133.9219 L214.9688,136.6406 Z " fill="#000000"/><text fill="#000000" font-family="sans-serif" font-size="14" lengthAdjust="spacing" textLength="43.8867" x="226" y="135.8467">Result</text><line style="stroke:#181818;stroke-width:0.5;" x1="198" x2="271.8867" y1="147" y2="147"/><line style="stroke:#181818;stroke-width:0.5;" x1="198" x2="271.8867" y1="155" y2="155"/></g><!--reverse link Property to ActuatableProperty--><g class="link" data-entity-1="ent0001" data-entity-2="ent0002" data-link-type="extension" data-source-line="1" id="lnk3"><path codeLine="1" d="M509.8373,64.526 C481.4273,82.246 457.58,97.11 429.11,114.86" fill="none" id="Property-backto-ActuatableProperty" style="stroke:#181818;stroke-width:1;"/><polygon fill="none" points="525.11,55,506.662,59.4351,513.0126,69.6169,525.11,55" style="stroke:#181818;stroke-width:1;stroke-linejoin:miter;stroke-miterlimit:10;"/></g><!--reverse link Sample to MaterialSample--><g class="link" data-entity-1="ent0004" data-entity-2="ent0005" data-link-type="extension" data-source-line="2" id="lnk6"><path codeLine="2" d="M908.3567,64.4445 C879.6067,82.1645 855.35,97.11 826.55,114.86" fill="none" id="Sample-backto-MaterialSample" style="stroke:#181818;stroke-width:1;"/><polygon fill="none" points="923.68,55,905.2086,59.3367,911.5049,69.5522,923.68,55" style="stroke:#181818;stroke-width:1;stroke-linejoin:miter;stroke-miterlimit:10;"/></g><!--reverse link Property to ObservableProperty--><g class="link" data-entity-1="ent0001" data-entity-2="ent0007" data-link-type="extension" data-source-line="3" id="lnk8"><path codeLine="3" d="M575.2327,72.0927 C581.0627,89.7527 583.44,96.94 589.3,114.68" fill="none" id="Property-backto-ObservableProperty" style="stroke:#181818;stroke-width:1;"/><polygon fill="none" points="569.59,55,569.5352,73.9736,580.9303,70.2118,569.59,55" style="stroke:#181818;stroke-width:1;stroke-linejoin:miter;stroke-miterlimit:10;"/></g><!--reverse link Sample to SpatialSample--><g class="link" data-entity-1="ent0004" data-entity-2="ent0009" data-link-type="extension" data-source-line="4" id="lnk10"><path codeLine="4" d="M961,73 C961,90.66 961,96.94 961,114.68" fill="none" id="Sample-backto-SpatialSample" style="stroke:#181818;stroke-width:1;"/><polygon fill="none" points="961,55,955,73,967,73,961,55" style="stroke:#181818;stroke-width:1;stroke-linejoin:miter;stroke-miterlimit:10;"/></g><!--reverse link Sample to StatisticalSample--><g class="link" data-entity-1="ent0004" data-entity-2="ent0011" data-link-type="extension" data-source-line="5" id="lnk12"><path codeLine="5" d="M1015.3276,64.1725 C1045.2476,81.8925 1070.95,97.11 1100.93,114.86" fill="none" id="Sample-backto-StatisticalSample" style="stroke:#181818;stroke-width:1;"/><polygon fill="none" points="999.84,55,1012.2701,69.335,1018.3851,59.0099,999.84,55" style="stroke:#181818;stroke-width:1;stroke-linejoin:miter;stroke-miterlimit:10;"/></g><!--reverse link Procedure to ActuatingProcedure--><g class="link" data-entity-1="ent0013" data-entity-2="ent0014" data-link-type="extension" data-source-line="6" id="lnk15"><path codeLine="6" d="M1484.8326,63.1732 C1450.0626,80.8932 1418.24,97.11 1383.4,114.86" fill="none" id="Procedure-backto-ActuatingProcedure" style="stroke:#181818;stroke-width:1;"/><polygon fill="none" points="1500.87,55,1482.1082,57.8274,1487.557,68.519,1500.87,55" style="stroke:#181818;stroke-width:1;stroke-linejoin:miter;stroke-miterlimit:10;"/></g><!--reverse link Procedure to ObservingProcedure--><g class="link" data-entity-1="ent0013" data-entity-2="ent0016" data-link-type="extension" data-source-line="7" id="lnk17"><path codeLine="7" d="M1546,73 C1546,90.66 1546,96.94 1546,114.68" fill="none" id="Procedure-backto-ObservingProcedure" style="stroke:#181818;stroke-width:1;"/><polygon fill="none" points="1546,55,1540,73,1552,73,1546,55" style="stroke:#181818;stroke-width:1;stroke-linejoin:miter;stroke-miterlimit:10;"/></g><!--reverse link Procedure to SamplingProcedure--><g class="link" data-entity-1="ent0013" data-entity-2="ent0018" data-link-type="extension" data-source-line="8" id="lnk19"><path codeLine="8" d="M1606.9411,63.205 C1641.5411,80.925 1673.15,97.11 1707.81,114.86" fill="none" id="Procedure-backto-SamplingProcedure" style="stroke:#181818;stroke-width:1;"/><polygon fill="none" points="1590.92,55,1604.2061,68.5454,1609.6762,57.8647,1590.92,55" style="stroke:#181818;stroke-width:1;stroke-linejoin:miter;stroke-miterlimit:10;"/></g><!--reverse link Asset to Platform--><g class="link" data-entity-1="ent0020" data-entity-2="ent0021" data-link-type="extension" data-source-line="9" id="lnk22"><path codeLine="9" d="M1956.7839,70.6022 C1946.6239,88.2622 1941.63,96.94 1931.42,114.68" fill="none" id="Asset-backto-Platform" style="stroke:#181818;stroke-width:1;"/><polygon fill="none" points="1965.76,55,1951.5831,67.6102,1961.9846,73.5943,1965.76,55" style="stroke:#181818;stroke-width:1;stroke-linejoin:miter;stroke-miterlimit:10;"/></g><!--reverse link System to Sampler--><g class="link" data-entity-1="ent0023" data-entity-2="ent0024" data-link-type="extension" data-source-line="10" id="lnk25"><path codeLine="10" d="M1999.8865,174.5884 C1978.8965,192.2484 1963.81,204.94 1942.72,222.68" fill="none" id="System-backto-Sampler" style="stroke:#181818;stroke-width:1;"/><polygon fill="none" points="2013.66,163,1996.0237,169.9972,2003.7493,179.1795,2013.66,163" style="stroke:#181818;stroke-width:1;stroke-linejoin:miter;stroke-miterlimit:10;"/></g><!--reverse link System to Actuator--><g class="link" data-entity-1="ent0023" data-entity-2="ent0026" data-link-type="extension" data-source-line="11" id="lnk27"><path codeLine="11" d="M2041,181 C2041,198.66 2041,204.94 2041,222.68" fill="none" id="System-backto-Actuator" style="stroke:#181818;stroke-width:1;"/><polygon fill="none" points="2041,163,2035,181,2047,181,2041,163" style="stroke:#181818;stroke-width:1;stroke-linejoin:miter;stroke-miterlimit:10;"/></g><!--reverse link ExecutionCollection to SamplingCollection--><g class="link" data-entity-1="ent0028" data-entity-2="ent0029" data-link-type="extension" data-source-line="12" id="lnk30"><path codeLine="12" d="M2344.231,63.3636 C2310.461,81.0836 2279.93,97.11 2246.09,114.86" fill="none" id="ExecutionCollection-backto-SamplingCollection" style="stroke:#181818;stroke-width:1;"/><polygon fill="none" points="2360.17,55,2341.4432,58.0506,2347.0189,68.6766,2360.17,55" style="stroke:#181818;stroke-width:1;stroke-linejoin:miter;stroke-miterlimit:10;"/></g><!--reverse link Asset to System--><g class="link" data-entity-1="ent0020" data-entity-2="ent0023" data-link-type="extension" data-source-line="13" id="lnk31"><path codeLine="13" d="M2001.5383,70.5372 C2011.8683,88.1972 2016.98,96.94 2027.36,114.68" fill="none" id="Asset-backto-System" style="stroke:#181818;stroke-width:1;"/><polygon fill="none" points="1992.45,55,1996.3592,73.5666,2006.7173,67.5077,1992.45,55" style="stroke:#181818;stroke-width:1;stroke-linejoin:miter;stroke-miterlimit:10;"/></g><!--reverse link System to Sensor--><g class="link" data-entity-1="ent0023" data-entity-2="ent0032" data-link-type="extension" data-source-line="14" id="lnk33"><path codeLine="14" d="M2080.7968,174.864 C2100.9468,192.524 2115.13,204.94 2135.38,222.68" fill="none" id="System-backto-Sensor" style="stroke:#181818;stroke-width:1;"/><polygon fill="none" points="2067.26,163,2076.8421,179.3763,2084.7515,170.3518,2067.26,163" style="stroke:#181818;stroke-width:1;stroke-linejoin:miter;stroke-miterlimit:10;"/></g><!--reverse link Execution to Sampling--><g class="link" data-entity-1="ent0034" data-entity-2="ent0035" data-link-type="extension" data-source-line="15" id="lnk36"><path codeLine="15" d="M2883.8041,66.1688 C2861.4841,83.8288 2844.91,96.94 2822.48,114.68" fill="none" id="Execution-backto-Sampling" style="stroke:#181818;stroke-width:1;"/><polygon fill="none" points="2897.92,55,2880.0812,61.4635,2887.527,70.8741,2897.92,55" style="stroke:#181818;stroke-width:1;stroke-linejoin:miter;stroke-miterlimit:10;"/></g><!--reverse link Execution to Actuation--><g class="link" data-entity-1="ent0034" data-entity-2="ent0037" data-link-type="extension" data-source-line="16" id="lnk38"><path codeLine="16" d="M2927,73 C2927,90.66 2927,96.94 2927,114.68" fill="none" id="Execution-backto-Actuation" style="stroke:#181818;stroke-width:1;"/><polygon fill="none" points="2927,55,2921,73,2933,73,2927,55" style="stroke:#181818;stroke-width:1;stroke-linejoin:miter;stroke-miterlimit:10;"/></g><!--reverse link ExecutionCollection to ActuationCollection--><g class="link" data-entity-1="ent0028" data-entity-2="ent0039" data-link-type="extension" data-source-line="17" id="lnk40"><path codeLine="17" d="M2404,73 C2404,90.66 2404,96.94 2404,114.68" fill="none" id="ExecutionCollection-backto-ActuationCollection" style="stroke:#181818;stroke-width:1;"/><polygon fill="none" points="2404,55,2398,73,2410,73,2404,55" style="stroke:#181818;stroke-width:1;stroke-linejoin:miter;stroke-miterlimit:10;"/></g><!--reverse link ExecutionCollection to ObservationCollection--><g class="link" data-entity-1="ent0028" data-entity-2="ent0041" data-link-type="extension" data-source-line="18" id="lnk42"><path codeLine="18" d="M2466.0997,63.0498 C2501.5397,80.7698 2534.22,97.11 2569.72,114.86" fill="none" id="ExecutionCollection-backto-ObservationCollection" style="stroke:#181818;stroke-width:1;"/><polygon fill="none" points="2450,55,2463.4164,68.4164,2468.783,57.6833,2450,55" style="stroke:#181818;stroke-width:1;stroke-linejoin:miter;stroke-miterlimit:10;"/></g><!--reverse link Execution to Observation--><g class="link" data-entity-1="ent0034" data-entity-2="ent0043" data-link-type="extension" data-source-line="19" id="lnk44"><path codeLine="19" d="M2972.4895,65.7202 C2996.3095,83.3802 3014.61,96.94 3038.54,114.68" fill="none" id="Execution-backto-Observation" style="stroke:#181818;stroke-width:1;"/><polygon fill="none" points="2958.03,55,2968.9161,70.54,2976.0629,60.9004,2958.03,55" style="stroke:#181818;stroke-width:1;stroke-linejoin:miter;stroke-miterlimit:10;"/></g><?plantuml-src VL91RiCW4Bpp2dyWFyWbQXifXoXM_G929n7I0XQxHBNKnzSDo854xWrcPcT62tqC8w9CtVPdi-bsHf8MVIRq1LU3TYCXqqSjY5PJnbJVp9xEZ7XRdHr6BO_HXf6POR6cDZRuIX5rA-kl2_wioDd_AUxEZM373CbaJrek8JerJ2nmrGHYW-Kc8QgFRvWaDlYtG0JpTsfp7dWTbBtQ67Yk3LkRPxoiOdPTRR18gWghul9eQ_8NaJAacRizjCmxF5qEVluHO2du8DObIbokxnWfJ0v-uUyxhP8o_0bE9By0?></g></svg>