<svg xmlns="http://www.w3.org/2000/svg" xmlns:xlink="http://www.w3.org/1999/xlink" contentStyleType="text/css" data-diagram-type="CLASS" height="286px" preserveAspectRatio="none" style="width:3270px;height:286px;background:#FFFFFF;" version="1.1" viewBox="0 0 3270 286" width="3270px" zoomAndPan="magnify"><?plantuml 1.2026.6?><defs/><g><!--class Property--><g class="entity" data-qualified-name="Property" data-source-line="1" id="ent0001"><rect fill="#F1F1F1" height="48" rx="2.5" ry="2.5" style="stroke:#181818;stroke-width:0.5;" width="91.7939" x="588" y="7"/><ellipse cx="603" cy="23" fill="#ADD1B2" rx="11" ry="11" style="stroke:#181818;stroke-width:1;"/><path d="M605.9688,28.6406 Q605.3906,28.9375 604.75,29.0781 Q604.1094,29.2344 603.4063,29.2344 Q600.9063,29.2344 599.5781,27.5938 Q598.2656,25.9375 598.2656,22.8125 Q598.2656,19.6875 599.5781,18.0313 Q600.9063,16.375 603.4063,16.375 Q604.1094,16.375 604.75,16.5313 Q605.4063,16.6875 605.9688,16.9844 L605.9688,19.7031 Q605.3438,19.125 604.75,18.8594 Q604.1563,18.5781 603.5313,18.5781 Q602.1875,18.5781 601.5,19.6563 Q600.8125,20.7188 600.8125,22.8125 Q600.8125,24.9063 601.5,25.9844 Q602.1875,27.0469 603.5313,27.0469 Q604.1563,27.0469 604.75,26.7813 Q605.3438,26.5 605.9688,25.9219 L605.9688,28.6406 Z " fill="#000000"/><text fill="#000000" font-family="sans-serif" font-size="14" lengthAdjust="spacing" textLength="59.7939" x="617" y="27.8467">Property</text><line style="stroke:#181818;stroke-width:0.5;" x1="589" x2="678.7939" y1="39" y2="39"/><line style="stroke:#181818;stroke-width:0.5;" x1="589" x2="678.7939" y1="47" y2="47"/></g><!--class ActuatableProperty--><g class="entity" data-qualified-name="ActuatableProperty" data-source-line="1" id="ent0002"><rect fill="#F1F1F1" height="48" rx="2.5" ry="2.5" style="stroke:#181818;stroke-width:0.5;" width="167.4678" x="435.5" y="115"/><ellipse cx="450.5" cy="131" fill="#ADD1B2" rx="11" ry="11" style="stroke:#181818;stroke-width:1;"/><path d="M453.4688,136.6406 Q452.8906,136.9375 452.25,137.0781 Q451.6094,137.2344 450.9063,137.2344 Q448.4063,137.2344 447.0781,135.5938 Q445.7656,133.9375 445.7656,130.8125 Q445.7656,127.6875 447.0781,126.0313 Q448.4063,124.375 450.9063,124.375 Q451.6094,124.375 452.25,124.5313 Q452.9063,124.6875 453.4688,124.9844 L453.4688,127.7031 Q452.8438,127.125 452.25,126.8594 Q451.6563,126.5781 451.0313,126.5781 Q449.6875,126.5781 449,127.6563 Q448.3125,128.7188 448.3125,130.8125 Q448.3125,132.9063 449,133.9844 Q449.6875,135.0469 451.0313,135.0469 Q451.6563,135.0469 452.25,134.7813 Q452.8438,134.5 453.4688,133.9219 L453.4688,136.6406 Z " fill="#000000"/><text fill="#000000" font-family="sans-serif" font-size="14" lengthAdjust="spacing" textLength="135.4678" x="464.5" y="135.8467">ActuatableProperty</text><line style="stroke:#181818;stroke-width:0.5;" x1="436.5" x2="601.9678" y1="147" y2="147"/><line style="stroke:#181818;stroke-width:0.5;" x1="436.5" x2="601.9678" y1="155" y2="155"/></g><!--class Sample--><g class="entity" data-qualified-name="Sample" data-source-line="2" id="ent0004"><rect fill="#F1F1F1" height="48" rx="2.5" ry="2.5" style="stroke:#181818;stroke-width:0.5;" width="84.4932" x="1046" y="7"/><ellipse cx="1061" cy="23" fill="#ADD1B2" rx="11" ry="11" style="stroke:#181818;stroke-width:1;"/><path d="M1063.9688,28.6406 Q1063.3906,28.9375 1062.75,29.0781 Q1062.1094,29.2344 1061.4063,29.2344 Q1058.9063,29.2344 1057.5781,27.5938 Q1056.2656,25.9375 1056.2656,22.8125 Q1056.2656,19.6875 1057.5781,18.0313 Q1058.9063,16.375 1061.4063,16.375 Q1062.1094,16.375 1062.75,16.5313 Q1063.4063,16.6875 1063.9688,16.9844 L1063.9688,19.7031 Q1063.3438,19.125 1062.75,18.8594 Q1062.1563,18.5781 1061.5313,18.5781 Q1060.1875,18.5781 1059.5,19.6563 Q1058.8125,20.7188 1058.8125,22.8125 Q1058.8125,24.9063 1059.5,25.9844 Q1060.1875,27.0469 1061.5313,27.0469 Q1062.1563,27.0469 1062.75,26.7813 Q1063.3438,26.5 1063.9688,25.9219 L1063.9688,28.6406 Z " fill="#000000"/><text fill="#000000" font-family="sans-serif" font-size="14" lengthAdjust="spacing" textLength="52.4932" x="1075" y="27.8467">Sample</text><line style="stroke:#181818;stroke-width:0.5;" x1="1047" x2="1129.4932" y1="39" y2="39"/><line style="stroke:#181818;stroke-width:0.5;" x1="1047" x2="1129.4932" y1="47" y2="47"/></g><!--class MaterialSample--><g class="entity" data-qualified-name="MaterialSample" data-source-line="2" id="ent0005"><rect fill="#F1F1F1" height="48" rx="2.5" ry="2.5" style="stroke:#181818;stroke-width:0.5;" width="141.3682" x="845.5" y="115"/><ellipse cx="860.5" cy="131" fill="#ADD1B2" rx="11" ry="11" style="stroke:#181818;stroke-width:1;"/><path d="M863.4688,136.6406 Q862.8906,136.9375 862.25,137.0781 Q861.6094,137.2344 860.9063,137.2344 Q858.4063,137.2344 857.0781,135.5938 Q855.7656,133.9375 855.7656,130.8125 Q855.7656,127.6875 857.0781,126.0313 Q858.4063,124.375 860.9063,124.375 Q861.6094,124.375 862.25,124.5313 Q862.9063,124.6875 863.4688,124.9844 L863.4688,127.7031 Q862.8438,127.125 862.25,126.8594 Q861.6563,126.5781 861.0313,126.5781 Q859.6875,126.5781 859,127.6563 Q858.3125,128.7188 858.3125,130.8125 Q858.3125,132.9063 859,133.9844 Q859.6875,135.0469 861.0313,135.0469 Q861.6563,135.0469 862.25,134.7813 Q862.8438,134.5 863.4688,133.9219 L863.4688,136.6406 Z " fill="#000000"/><text fill="#000000" font-family="sans-serif" font-size="14" lengthAdjust="spacing" textLength="109.3682" x="874.5" y="135.8467">MaterialSample</text><line style="stroke:#181818;stroke-width:0.5;" x1="846.5" x2="985.8682" y1="147" y2="147"/><line style="stroke:#181818;stroke-width:0.5;" x1="846.5" x2="985.8682" y1="155" y2="155"/></g><!--class SpatialSample--><g class="entity" data-qualified-name="SpatialSample" data-source-line="3" id="ent0007"><rect fill="#F1F1F1" height="48" rx="2.5" ry="2.5" style="stroke:#181818;stroke-width:0.5;" width="132.6934" x="1021.5" y="115"/><ellipse cx="1036.5" cy="131" fill="#ADD1B2" rx="11" ry="11" style="stroke:#181818;stroke-width:1;"/><path d="M1039.4688,136.6406 Q1038.8906,136.9375 1038.25,137.0781 Q1037.6094,137.2344 1036.9063,137.2344 Q1034.4063,137.2344 1033.0781,135.5938 Q1031.7656,133.9375 1031.7656,130.8125 Q1031.7656,127.6875 1033.0781,126.0313 Q1034.4063,124.375 1036.9063,124.375 Q1037.6094,124.375 1038.25,124.5313 Q1038.9063,124.6875 1039.4688,124.9844 L1039.4688,127.7031 Q1038.8438,127.125 1038.25,126.8594 Q1037.6563,126.5781 1037.0313,126.5781 Q1035.6875,126.5781 1035,127.6563 Q1034.3125,128.7188 1034.3125,130.8125 Q1034.3125,132.9063 1035,133.9844 Q1035.6875,135.0469 1037.0313,135.0469 Q1037.6563,135.0469 1038.25,134.7813 Q1038.8438,134.5 1039.4688,133.9219 L1039.4688,136.6406 Z " fill="#000000"/><text fill="#000000" font-family="sans-serif" font-size="14" lengthAdjust="spacing" textLength="100.6934" x="1050.5" y="135.8467">SpatialSample</text><line style="stroke:#181818;stroke-width:0.5;" x1="1022.5" x2="1153.1934" y1="147" y2="147"/><line style="stroke:#181818;stroke-width:0.5;" x1="1022.5" x2="1153.1934" y1="155" y2="155"/></g><!--class StatisticalSample--><g class="entity" data-qualified-name="StatisticalSample" data-source-line="4" id="ent0009"><rect fill="#F1F1F1" height="48" rx="2.5" ry="2.5" style="stroke:#181818;stroke-width:0.5;" width="153.666" x="1190" y="115"/><ellipse cx="1205" cy="131" fill="#ADD1B2" rx="11" ry="11" style="stroke:#181818;stroke-width:1;"/><path d="M1207.9688,136.6406 Q1207.3906,136.9375 1206.75,137.0781 Q1206.1094,137.2344 1205.4063,137.2344 Q1202.9063,137.2344 1201.5781,135.5938 Q1200.2656,133.9375 1200.2656,130.8125 Q1200.2656,127.6875 1201.5781,126.0313 Q1202.9063,124.375 1205.4063,124.375 Q1206.1094,124.375 1206.75,124.5313 Q1207.4063,124.6875 1207.9688,124.9844 L1207.9688,127.7031 Q1207.3438,127.125 1206.75,126.8594 Q1206.1563,126.5781 1205.5313,126.5781 Q1204.1875,126.5781 1203.5,127.6563 Q1202.8125,128.7188 1202.8125,130.8125 Q1202.8125,132.9063 1203.5,133.9844 Q1204.1875,135.0469 1205.5313,135.0469 Q1206.1563,135.0469 1206.75,134.7813 Q1207.3438,134.5 1207.9688,133.9219 L1207.9688,136.6406 Z " fill="#000000"/><text fill="#000000" font-family="sans-serif" font-size="14" lengthAdjust="spacing" textLength="121.666" x="1219" y="135.8467">StatisticalSample</text><line style="stroke:#181818;stroke-width:0.5;" x1="1191" x2="1342.666" y1="147" y2="147"/><line style="stroke:#181818;stroke-width:0.5;" x1="1191" x2="1342.666" y1="155" y2="155"/></g><!--class ObservableProperty--><g class="entity" data-qualified-name="ObservableProperty" data-source-line="5" id="ent0011"><rect fill="#F1F1F1" height="48" rx="2.5" ry="2.5" style="stroke:#181818;stroke-width:0.5;" width="171.6172" x="638" y="115"/><ellipse cx="653" cy="131" fill="#ADD1B2" rx="11" ry="11" style="stroke:#181818;stroke-width:1;"/><path d="M655.9688,136.6406 Q655.3906,136.9375 654.75,137.0781 Q654.1094,137.2344 653.4063,137.2344 Q650.9063,137.2344 649.5781,135.5938 Q648.2656,133.9375 648.2656,130.8125 Q648.2656,127.6875 649.5781,126.0313 Q650.9063,124.375 653.4063,124.375 Q654.1094,124.375 654.75,124.5313 Q655.4063,124.6875 655.9688,124.9844 L655.9688,127.7031 Q655.3438,127.125 654.75,126.8594 Q654.1563,126.5781 653.5313,126.5781 Q652.1875,126.5781 651.5,127.6563 Q650.8125,128.7188 650.8125,130.8125 Q650.8125,132.9063 651.5,133.9844 Q652.1875,135.0469 653.5313,135.0469 Q654.1563,135.0469 654.75,134.7813 Q655.3438,134.5 655.9688,133.9219 L655.9688,136.6406 Z " fill="#000000"/><text fill="#000000" font-family="sans-serif" font-size="14" lengthAdjust="spacing" textLength="139.6172" x="667" y="135.8467">ObservableProperty</text><line style="stroke:#181818;stroke-width:0.5;" x1="639" x2="808.6172" y1="147" y2="147"/><line style="stroke:#181818;stroke-width:0.5;" x1="639" x2="808.6172" y1="155" y2="155"/></g><!--class Procedure--><g class="entity" data-qualified-name="Procedure" data-source-line="6" id="ent0013"><rect fill="#F1F1F1" height="48" rx="2.5" ry="2.5" style="stroke:#181818;stroke-width:0.5;" width="103.2031" x="1621.5" y="7"/><ellipse cx="1636.5" cy="23" fill="#ADD1B2" rx="11" ry="11" style="stroke:#181818;stroke-width:1;"/><path d="M1639.4688,28.6406 Q1638.8906,28.9375 1638.25,29.0781 Q1637.6094,29.2344 1636.9063,29.2344 Q1634.4063,29.2344 1633.0781,27.5938 Q1631.7656,25.9375 1631.7656,22.8125 Q1631.7656,19.6875 1633.0781,18.0313 Q1634.4063,16.375 1636.9063,16.375 Q1637.6094,16.375 1638.25,16.5313 Q1638.9063,16.6875 1639.4688,16.9844 L1639.4688,19.7031 Q1638.8438,19.125 1638.25,18.8594 Q1637.6563,18.5781 1637.0313,18.5781 Q1635.6875,18.5781 1635,19.6563 Q1634.3125,20.7188 1634.3125,22.8125 Q1634.3125,24.9063 1635,25.9844 Q1635.6875,27.0469 1637.0313,27.0469 Q1637.6563,27.0469 1638.25,26.7813 Q1638.8438,26.5 1639.4688,25.9219 L1639.4688,28.6406 Z " fill="#000000"/><text fill="#000000" font-family="sans-serif" font-size="14" lengthAdjust="spacing" textLength="71.2031" x="1650.5" y="27.8467">Procedure</text><line style="stroke:#181818;stroke-width:0.5;" x1="1622.5" x2="1723.7031" y1="39" y2="39"/><line style="stroke:#181818;stroke-width:0.5;" x1="1622.5" x2="1723.7031" y1="47" y2="47"/></g><!--class ActuatingProcedure--><g class="entity" data-qualified-name="ActuatingProcedure" data-source-line="6" id="ent0014"><rect fill="#F1F1F1" height="48" rx="2.5" ry="2.5" style="stroke:#181818;stroke-width:0.5;" width="170.5576" x="1379.5" y="115"/><ellipse cx="1394.5" cy="131" fill="#ADD1B2" rx="11" ry="11" style="stroke:#181818;stroke-width:1;"/><path d="M1397.4688,136.6406 Q1396.8906,136.9375 1396.25,137.0781 Q1395.6094,137.2344 1394.9063,137.2344 Q1392.4063,137.2344 1391.0781,135.5938 Q1389.7656,133.9375 1389.7656,130.8125 Q1389.7656,127.6875 1391.0781,126.0313 Q1392.4063,124.375 1394.9063,124.375 Q1395.6094,124.375 1396.25,124.5313 Q1396.9063,124.6875 1397.4688,124.9844 L1397.4688,127.7031 Q1396.8438,127.125 1396.25,126.8594 Q1395.6563,126.5781 1395.0313,126.5781 Q1393.6875,126.5781 1393,127.6563 Q1392.3125,128.7188 1392.3125,130.8125 Q1392.3125,132.9063 1393,133.9844 Q1393.6875,135.0469 1395.0313,135.0469 Q1395.6563,135.0469 1396.25,134.7813 Q1396.8438,134.5 1397.4688,133.9219 L1397.4688,136.6406 Z " fill="#000000"/><text fill="#000000" font-family="sans-serif" font-size="14" lengthAdjust="spacing" textLength="138.5576" x="1408.5" y="135.8467">ActuatingProcedure</text><line style="stroke:#181818;stroke-width:0.5;" x1="1380.5" x2="1549.0576" y1="147" y2="147"/><line style="stroke:#181818;stroke-width:0.5;" x1="1380.5" x2="1549.0576" y1="155" y2="155"/></g><!--class ObservingProcedure--><g class="entity" data-qualified-name="ObservingProcedure" data-source-line="7" id="ent0016"><rect fill="#F1F1F1" height="48" rx="2.5" ry="2.5" style="stroke:#181818;stroke-width:0.5;" width="174.707" x="1585.5" y="115"/><ellipse cx="1600.5" cy="131" fill="#ADD1B2" rx="11" ry="11" style="stroke:#181818;stroke-width:1;"/><path d="M1603.4688,136.6406 Q1602.8906,136.9375 1602.25,137.0781 Q1601.6094,137.2344 1600.9063,137.2344 Q1598.4063,137.2344 1597.0781,135.5938 Q1595.7656,133.9375 1595.7656,130.8125 Q1595.7656,127.6875 1597.0781,126.0313 Q1598.4063,124.375 1600.9063,124.375 Q1601.6094,124.375 1602.25,124.5313 Q1602.9063,124.6875 1603.4688,124.9844 L1603.4688,127.7031 Q1602.8438,127.125 1602.25,126.8594 Q1601.6563,126.5781 1601.0313,126.5781 Q1599.6875,126.5781 1599,127.6563 Q1598.3125,128.7188 1598.3125,130.8125 Q1598.3125,132.9063 1599,133.9844 Q1599.6875,135.0469 1601.0313,135.0469 Q1601.6563,135.0469 1602.25,134.7813 Q1602.8438,134.5 1603.4688,133.9219 L1603.4688,136.6406 Z " fill="#000000"/><text fill="#000000" font-family="sans-serif" font-size="14" lengthAdjust="spacing" textLength="142.707" x="1614.5" y="135.8467">ObservingProcedure</text><line style="stroke:#181818;stroke-width:0.5;" x1="1586.5" x2="1759.207" y1="147" y2="147"/><line style="stroke:#181818;stroke-width:0.5;" x1="1586.5" x2="1759.207" y1="155" y2="155"/></g><!--class SamplingProcedure--><g class="entity" data-qualified-name="SamplingProcedure" data-source-line="8" id="ent0018"><rect fill="#F1F1F1" height="48" rx="2.5" ry="2.5" style="stroke:#181818;stroke-width:0.5;" width="168.7324" x="1795.5" y="115"/><ellipse cx="1810.5" cy="131" fill="#ADD1B2" rx="11" ry="11" style="stroke:#181818;stroke-width:1;"/><path d="M1813.4688,136.6406 Q1812.8906,136.9375 1812.25,137.0781 Q1811.6094,137.2344 1810.9063,137.2344 Q1808.4063,137.2344 1807.0781,135.5938 Q1805.7656,133.9375 1805.7656,130.8125 Q1805.7656,127.6875 1807.0781,126.0313 Q1808.4063,124.375 1810.9063,124.375 Q1811.6094,124.375 1812.25,124.5313 Q1812.9063,124.6875 1813.4688,124.9844 L1813.4688,127.7031 Q1812.8438,127.125 1812.25,126.8594 Q1811.6563,126.5781 1811.0313,126.5781 Q1809.6875,126.5781 1809,127.6563 Q1808.3125,128.7188 1808.3125,130.8125 Q1808.3125,132.9063 1809,133.9844 Q1809.6875,135.0469 1811.0313,135.0469 Q1811.6563,135.0469 1812.25,134.7813 Q1812.8438,134.5 1813.4688,133.9219 L1813.4688,136.6406 Z " fill="#000000"/><text fill="#000000" font-family="sans-serif" font-size="14" lengthAdjust="spacing" textLength="136.7324" x="1824.5" y="135.8467">SamplingProcedure</text><line style="stroke:#181818;stroke-width:0.5;" x1="1796.5" x2="1963.2324" y1="147" y2="147"/><line style="stroke:#181818;stroke-width:0.5;" x1="1796.5" x2="1963.2324" y1="155" y2="155"/></g><!--class Asset--><g class="entity" data-qualified-name="Asset" data-source-line="9" id="ent0020"><rect fill="#F1F1F1" height="48" rx="2.5" ry="2.5" style="stroke:#181818;stroke-width:0.5;" width="70.2676" x="2071" y="7"/><ellipse cx="2086" cy="23" fill="#ADD1B2" rx="11" ry="11" style="stroke:#181818;stroke-width:1;"/><path d="M2088.9688,28.6406 Q2088.3906,28.9375 2087.75,29.0781 Q2087.1094,29.2344 2086.4063,29.2344 Q2083.9063,29.2344 2082.5781,27.5938 Q2081.2656,25.9375 2081.2656,22.8125 Q2081.2656,19.6875 2082.5781,18.0313 Q2083.9063,16.375 2086.4063,16.375 Q2087.1094,16.375 2087.75,16.5313 Q2088.4063,16.6875 2088.9688,16.9844 L2088.9688,19.7031 Q2088.3438,19.125 2087.75,18.8594 Q2087.1563,18.5781 2086.5313,18.5781 Q2085.1875,18.5781 2084.5,19.6563 Q2083.8125,20.7188 2083.8125,22.8125 Q2083.8125,24.9063 2084.5,25.9844 Q2085.1875,27.0469 2086.5313,27.0469 Q2087.1563,27.0469 2087.75,26.7813 Q2088.3438,26.5 2088.9688,25.9219 L2088.9688,28.6406 Z " fill="#000000"/><text fill="#000000" font-family="sans-serif" font-size="14" lengthAdjust="spacing" textLength="38.2676" x="2100" y="27.8467">Asset</text><line style="stroke:#181818;stroke-width:0.5;" x1="2072" x2="2140.2676" y1="39" y2="39"/><line style="stroke:#181818;stroke-width:0.5;" x1="2072" x2="2140.2676" y1="47" y2="47"/></g><!--class Platform--><g class="entity" data-qualified-name="Platform" data-source-line="9" id="ent0021"><rect fill="#F1F1F1" height="48" rx="2.5" ry="2.5" style="stroke:#181818;stroke-width:0.5;" width="91.2881" x="1999.5" y="115"/><ellipse cx="2014.5" cy="131" fill="#ADD1B2" rx="11" ry="11" style="stroke:#181818;stroke-width:1;"/><path d="M2017.4688,136.6406 Q2016.8906,136.9375 2016.25,137.0781 Q2015.6094,137.2344 2014.9063,137.2344 Q2012.4063,137.2344 2011.0781,135.5938 Q2009.7656,133.9375 2009.7656,130.8125 Q2009.7656,127.6875 2011.0781,126.0313 Q2012.4063,124.375 2014.9063,124.375 Q2015.6094,124.375 2016.25,124.5313 Q2016.9063,124.6875 2017.4688,124.9844 L2017.4688,127.7031 Q2016.8438,127.125 2016.25,126.8594 Q2015.6563,126.5781 2015.0313,126.5781 Q2013.6875,126.5781 2013,127.6563 Q2012.3125,128.7188 2012.3125,130.8125 Q2012.3125,132.9063 2013,133.9844 Q2013.6875,135.0469 2015.0313,135.0469 Q2015.6563,135.0469 2016.25,134.7813 Q2016.8438,134.5 2017.4688,133.9219 L2017.4688,136.6406 Z " fill="#000000"/><text fill="#000000" font-family="sans-serif" font-size="14" lengthAdjust="spacing" textLength="59.2881" x="2028.5" y="135.8467">Platform</text><line style="stroke:#181818;stroke-width:0.5;" x1="2000.5" x2="2089.7881" y1="147" y2="147"/><line style="stroke:#181818;stroke-width:0.5;" x1="2000.5" x2="2089.7881" y1="155" y2="155"/></g><!--class System--><g class="entity" data-qualified-name="System" data-source-line="10" id="ent0023"><rect fill="#F1F1F1" height="48" rx="2.5" ry="2.5" style="stroke:#181818;stroke-width:0.5;" width="84.2061" x="2126" y="115"/><ellipse cx="2141" cy="131" fill="#ADD1B2" rx="11" ry="11" style="stroke:#181818;stroke-width:1;"/><path d="M2143.9688,136.6406 Q2143.3906,136.9375 2142.75,137.0781 Q2142.1094,137.2344 2141.4063,137.2344 Q2138.9063,137.2344 2137.5781,135.5938 Q2136.2656,133.9375 2136.2656,130.8125 Q2136.2656,127.6875 2137.5781,126.0313 Q2138.9063,124.375 2141.4063,124.375 Q2142.1094,124.375 2142.75,124.5313 Q2143.4063,124.6875 2143.9688,124.9844 L2143.9688,127.7031 Q2143.3438,127.125 2142.75,126.8594 Q2142.1563,126.5781 2141.5313,126.5781 Q2140.1875,126.5781 2139.5,127.6563 Q2138.8125,128.7188 2138.8125,130.8125 Q2138.8125,132.9063 2139.5,133.9844 Q2140.1875,135.0469 2141.5313,135.0469 Q2142.1563,135.0469 2142.75,134.7813 Q2143.3438,134.5 2143.9688,133.9219 L2143.9688,136.6406 Z " fill="#000000"/><text fill="#000000" font-family="sans-serif" font-size="14" lengthAdjust="spacing" textLength="52.2061" x="2155" y="135.8467">System</text><line style="stroke:#181818;stroke-width:0.5;" x1="2127" x2="2209.2061" y1="147" y2="147"/><line style="stroke:#181818;stroke-width:0.5;" x1="2127" x2="2209.2061" y1="155" y2="155"/></g><!--class Sampler--><g class="entity" data-qualified-name="Sampler" data-source-line="10" id="ent0024"><rect fill="#F1F1F1" height="48" rx="2.5" ry="2.5" style="stroke:#181818;stroke-width:0.5;" width="90.249" x="1997" y="223"/><ellipse cx="2012" cy="239" fill="#ADD1B2" rx="11" ry="11" style="stroke:#181818;stroke-width:1;"/><path d="M2014.9688,244.6406 Q2014.3906,244.9375 2013.75,245.0781 Q2013.1094,245.2344 2012.4063,245.2344 Q2009.9063,245.2344 2008.5781,243.5938 Q2007.2656,241.9375 2007.2656,238.8125 Q2007.2656,235.6875 2008.5781,234.0313 Q2009.9063,232.375 2012.4063,232.375 Q2013.1094,232.375 2013.75,232.5313 Q2014.4063,232.6875 2014.9688,232.9844 L2014.9688,235.7031 Q2014.3438,235.125 2013.75,234.8594 Q2013.1563,234.5781 2012.5313,234.5781 Q2011.1875,234.5781 2010.5,235.6563 Q2009.8125,236.7188 2009.8125,238.8125 Q2009.8125,240.9063 2010.5,241.9844 Q2011.1875,243.0469 2012.5313,243.0469 Q2013.1563,243.0469 2013.75,242.7813 Q2014.3438,242.5 2014.9688,241.9219 L2014.9688,244.6406 Z " fill="#000000"/><text fill="#000000" font-family="sans-serif" font-size="14" lengthAdjust="spacing" textLength="58.249" x="2026" y="243.8467">Sampler</text><line style="stroke:#181818;stroke-width:0.5;" x1="1998" x2="2086.249" y1="255" y2="255"/><line style="stroke:#181818;stroke-width:0.5;" x1="1998" x2="2086.249" y1="263" y2="263"/></g><!--class Actuator--><g class="entity" data-qualified-name="Actuator" data-source-line="11" id="ent0026"><rect fill="#F1F1F1" height="48" rx="2.5" ry="2.5" style="stroke:#181818;stroke-width:0.5;" width="92.0264" x="2122" y="223"/><ellipse cx="2137" cy="239" fill="#ADD1B2" rx="11" ry="11" style="stroke:#181818;stroke-width:1;"/><path d="M2139.9688,244.6406 Q2139.3906,244.9375 2138.75,245.0781 Q2138.1094,245.2344 2137.4063,245.2344 Q2134.9063,245.2344 2133.5781,243.5938 Q2132.2656,241.9375 2132.2656,238.8125 Q2132.2656,235.6875 2133.5781,234.0313 Q2134.9063,232.375 2137.4063,232.375 Q2138.1094,232.375 2138.75,232.5313 Q2139.4063,232.6875 2139.9688,232.9844 L2139.9688,235.7031 Q2139.3438,235.125 2138.75,234.8594 Q2138.1563,234.5781 2137.5313,234.5781 Q2136.1875,234.5781 2135.5,235.6563 Q2134.8125,236.7188 2134.8125,238.8125 Q2134.8125,240.9063 2135.5,241.9844 Q2136.1875,243.0469 2137.5313,243.0469 Q2138.1563,243.0469 2138.75,242.7813 Q2139.3438,242.5 2139.9688,241.9219 L2139.9688,244.6406 Z " fill="#000000"/><text fill="#000000" font-family="sans-serif" font-size="14" lengthAdjust="spacing" textLength="60.0264" x="2151" y="243.8467">Actuator</text><line style="stroke:#181818;stroke-width:0.5;" x1="2123" x2="2213.0264" y1="255" y2="255"/><line style="stroke:#181818;stroke-width:0.5;" x1="2123" x2="2213.0264" y1="263" y2="263"/></g><!--class Execution--><g class="entity" data-qualified-name="Execution" data-source-line="13" id="ent0029"><rect fill="#F1F1F1" height="48" rx="2.5" ry="2.5" style="stroke:#181818;stroke-width:0.5;" width="101.1318" x="2377.5" y="7"/><ellipse cx="2392.5" cy="23" fill="#ADD1B2" rx="11" ry="11" style="stroke:#181818;stroke-width:1;"/><path d="M2395.4688,28.6406 Q2394.8906,28.9375 2394.25,29.0781 Q2393.6094,29.2344 2392.9063,29.2344 Q2390.4063,29.2344 2389.0781,27.5938 Q2387.7656,25.9375 2387.7656,22.8125 Q2387.7656,19.6875 2389.0781,18.0313 Q2390.4063,16.375 2392.9063,16.375 Q2393.6094,16.375 2394.25,16.5313 Q2394.9063,16.6875 2395.4688,16.9844 L2395.4688,19.7031 Q2394.8438,19.125 2394.25,18.8594 Q2393.6563,18.5781 2393.0313,18.5781 Q2391.6875,18.5781 2391,19.6563 Q2390.3125,20.7188 2390.3125,22.8125 Q2390.3125,24.9063 2391,25.9844 Q2391.6875,27.0469 2393.0313,27.0469 Q2393.6563,27.0469 2394.25,26.7813 Q2394.8438,26.5 2395.4688,25.9219 L2395.4688,28.6406 Z " fill="#000000"/><text fill="#000000" font-family="sans-serif" font-size="14" lengthAdjust="spacing" textLength="69.1318" x="2406.5" y="27.8467">Execution</text><line style="stroke:#181818;stroke-width:0.5;" x1="2378.5" x2="2477.6318" y1="39" y2="39"/><line style="stroke:#181818;stroke-width:0.5;" x1="2378.5" x2="2477.6318" y1="47" y2="47"/></g><!--class Sampling--><g class="entity" data-qualified-name="Sampling" data-source-line="13" id="ent0030"><rect fill="#F1F1F1" height="48" rx="2.5" ry="2.5" style="stroke:#181818;stroke-width:0.5;" width="97.5293" x="2245" y="115"/><ellipse cx="2260" cy="131" fill="#ADD1B2" rx="11" ry="11" style="stroke:#181818;stroke-width:1;"/><path d="M2262.9688,136.6406 Q2262.3906,136.9375 2261.75,137.0781 Q2261.1094,137.2344 2260.4063,137.2344 Q2257.9063,137.2344 2256.5781,135.5938 Q2255.2656,133.9375 2255.2656,130.8125 Q2255.2656,127.6875 2256.5781,126.0313 Q2257.9063,124.375 2260.4063,124.375 Q2261.1094,124.375 2261.75,124.5313 Q2262.4063,124.6875 2262.9688,124.9844 L2262.9688,127.7031 Q2262.3438,127.125 2261.75,126.8594 Q2261.1563,126.5781 2260.5313,126.5781 Q2259.1875,126.5781 2258.5,127.6563 Q2257.8125,128.7188 2257.8125,130.8125 Q2257.8125,132.9063 2258.5,133.9844 Q2259.1875,135.0469 2260.5313,135.0469 Q2261.1563,135.0469 2261.75,134.7813 Q2262.3438,134.5 2262.9688,133.9219 L2262.9688,136.6406 Z " fill="#000000"/><text fill="#000000" font-family="sans-serif" font-size="14" lengthAdjust="spacing" textLength="65.5293" x="2274" y="135.8467">Sampling</text><line style="stroke:#181818;stroke-width:0.5;" x1="2246" x2="2341.5293" y1="147" y2="147"/><line style="stroke:#181818;stroke-width:0.5;" x1="2246" x2="2341.5293" y1="155" y2="155"/></g><!--class ExecutionCollection--><g class="entity" data-qualified-name="ExecutionCollection" data-source-line="14" id="ent0032"><rect fill="#F1F1F1" height="48" rx="2.5" ry="2.5" style="stroke:#181818;stroke-width:0.5;" width="170.3799" x="2865" y="7"/><ellipse cx="2880" cy="23" fill="#ADD1B2" rx="11" ry="11" style="stroke:#181818;stroke-width:1;"/><path d="M2882.9688,28.6406 Q2882.3906,28.9375 2881.75,29.0781 Q2881.1094,29.2344 2880.4063,29.2344 Q2877.9063,29.2344 2876.5781,27.5938 Q2875.2656,25.9375 2875.2656,22.8125 Q2875.2656,19.6875 2876.5781,18.0313 Q2877.9063,16.375 2880.4063,16.375 Q2881.1094,16.375 2881.75,16.5313 Q2882.4063,16.6875 2882.9688,16.9844 L2882.9688,19.7031 Q2882.3438,19.125 2881.75,18.8594 Q2881.1563,18.5781 2880.5313,18.5781 Q2879.1875,18.5781 2878.5,19.6563 Q2877.8125,20.7188 2877.8125,22.8125 Q2877.8125,24.9063 2878.5,25.9844 Q2879.1875,27.0469 2880.5313,27.0469 Q2881.1563,27.0469 2881.75,26.7813 Q2882.3438,26.5 2882.9688,25.9219 L2882.9688,28.6406 Z " fill="#000000"/><text fill="#000000" font-family="sans-serif" font-size="14" lengthAdjust="spacing" textLength="138.3799" x="2894" y="27.8467">ExecutionCollection</text><line style="stroke:#181818;stroke-width:0.5;" x1="2866" x2="3034.3799" y1="39" y2="39"/><line style="stroke:#181818;stroke-width:0.5;" x1="2866" x2="3034.3799" y1="47" y2="47"/></g><!--class SamplingCollection--><g class="entity" data-qualified-name="SamplingCollection" data-source-line="14" id="ent0033"><rect fill="#F1F1F1" height="48" rx="2.5" ry="2.5" style="stroke:#181818;stroke-width:0.5;" width="166.7773" x="2664.5" y="115"/><ellipse cx="2679.5" cy="131" fill="#ADD1B2" rx="11" ry="11" style="stroke:#181818;stroke-width:1;"/><path d="M2682.4688,136.6406 Q2681.8906,136.9375 2681.25,137.0781 Q2680.6094,137.2344 2679.9063,137.2344 Q2677.4063,137.2344 2676.0781,135.5938 Q2674.7656,133.9375 2674.7656,130.8125 Q2674.7656,127.6875 2676.0781,126.0313 Q2677.4063,124.375 2679.9063,124.375 Q2680.6094,124.375 2681.25,124.5313 Q2681.9063,124.6875 2682.4688,124.9844 L2682.4688,127.7031 Q2681.8438,127.125 2681.25,126.8594 Q2680.6563,126.5781 2680.0313,126.5781 Q2678.6875,126.5781 2678,127.6563 Q2677.3125,128.7188 2677.3125,130.8125 Q2677.3125,132.9063 2678,133.9844 Q2678.6875,135.0469 2680.0313,135.0469 Q2680.6563,135.0469 2681.25,134.7813 Q2681.8438,134.5 2682.4688,133.9219 L2682.4688,136.6406 Z " fill="#000000"/><text fill="#000000" font-family="sans-serif" font-size="14" lengthAdjust="spacing" textLength="134.7773" x="2693.5" y="135.8467">SamplingCollection</text><line style="stroke:#181818;stroke-width:0.5;" x1="2665.5" x2="2830.2773" y1="147" y2="147"/><line style="stroke:#181818;stroke-width:0.5;" x1="2665.5" x2="2830.2773" y1="155" y2="155"/></g><!--class Actuation--><g class="entity" data-qualified-name="Actuation" data-source-line="15" id="ent0035"><rect fill="#F1F1F1" height="48" rx="2.5" ry="2.5" style="stroke:#181818;stroke-width:0.5;" width="99.0332" x="2378.5" y="115"/><ellipse cx="2393.5" cy="131" fill="#ADD1B2" rx="11" ry="11" style="stroke:#181818;stroke-width:1;"/><path d="M2396.4688,136.6406 Q2395.8906,136.9375 2395.25,137.0781 Q2394.6094,137.2344 2393.9063,137.2344 Q2391.4063,137.2344 2390.0781,135.5938 Q2388.7656,133.9375 2388.7656,130.8125 Q2388.7656,127.6875 2390.0781,126.0313 Q2391.4063,124.375 2393.9063,124.375 Q2394.6094,124.375 2395.25,124.5313 Q2395.9063,124.6875 2396.4688,124.9844 L2396.4688,127.7031 Q2395.8438,127.125 2395.25,126.8594 Q2394.6563,126.5781 2394.0313,126.5781 Q2392.6875,126.5781 2392,127.6563 Q2391.3125,128.7188 2391.3125,130.8125 Q2391.3125,132.9063 2392,133.9844 Q2392.6875,135.0469 2394.0313,135.0469 Q2394.6563,135.0469 2395.25,134.7813 Q2395.8438,134.5 2396.4688,133.9219 L2396.4688,136.6406 Z " fill="#000000"/><text fill="#000000" font-family="sans-serif" font-size="14" lengthAdjust="spacing" textLength="67.0332" x="2407.5" y="135.8467">Actuation</text><line style="stroke:#181818;stroke-width:0.5;" x1="2379.5" x2="2476.5332" y1="147" y2="147"/><line style="stroke:#181818;stroke-width:0.5;" x1="2379.5" x2="2476.5332" y1="155" y2="155"/></g><!--class Sensor--><g class="entity" data-qualified-name="Sensor" data-source-line="16" id="ent0037"><rect fill="#F1F1F1" height="48" rx="2.5" ry="2.5" style="stroke:#181818;stroke-width:0.5;" width="79.9883" x="2249" y="223"/><ellipse cx="2264" cy="239" fill="#ADD1B2" rx="11" ry="11" style="stroke:#181818;stroke-width:1;"/><path d="M2266.9688,244.6406 Q2266.3906,244.9375 2265.75,245.0781 Q2265.1094,245.2344 2264.4063,245.2344 Q2261.9063,245.2344 2260.5781,243.5938 Q2259.2656,241.9375 2259.2656,238.8125 Q2259.2656,235.6875 2260.5781,234.0313 Q2261.9063,232.375 2264.4063,232.375 Q2265.1094,232.375 2265.75,232.5313 Q2266.4063,232.6875 2266.9688,232.9844 L2266.9688,235.7031 Q2266.3438,235.125 2265.75,234.8594 Q2265.1563,234.5781 2264.5313,234.5781 Q2263.1875,234.5781 2262.5,235.6563 Q2261.8125,236.7188 2261.8125,238.8125 Q2261.8125,240.9063 2262.5,241.9844 Q2263.1875,243.0469 2264.5313,243.0469 Q2265.1563,243.0469 2265.75,242.7813 Q2266.3438,242.5 2266.9688,241.9219 L2266.9688,244.6406 Z " fill="#000000"/><text fill="#000000" font-family="sans-serif" font-size="14" lengthAdjust="spacing" textLength="47.9883" x="2278" y="243.8467">Sensor</text><line style="stroke:#181818;stroke-width:0.5;" x1="2250" x2="2327.9883" y1="255" y2="255"/><line style="stroke:#181818;stroke-width:0.5;" x1="2250" x2="2327.9883" y1="263" y2="263"/></g><!--class ActuationCollection--><g class="entity" data-qualified-name="ActuationCollection" data-source-line="17" id="ent0039"><rect fill="#F1F1F1" height="48" rx="2.5" ry="2.5" style="stroke:#181818;stroke-width:0.5;" width="168.2813" x="2866" y="115"/><ellipse cx="2881" cy="131" fill="#ADD1B2" rx="11" ry="11" style="stroke:#181818;stroke-width:1;"/><path d="M2883.9688,136.6406 Q2883.3906,136.9375 2882.75,137.0781 Q2882.1094,137.2344 2881.4063,137.2344 Q2878.9063,137.2344 2877.5781,135.5938 Q2876.2656,133.9375 2876.2656,130.8125 Q2876.2656,127.6875 2877.5781,126.0313 Q2878.9063,124.375 2881.4063,124.375 Q2882.1094,124.375 2882.75,124.5313 Q2883.4063,124.6875 2883.9688,124.9844 L2883.9688,127.7031 Q2883.3438,127.125 2882.75,126.8594 Q2882.1563,126.5781 2881.5313,126.5781 Q2880.1875,126.5781 2879.5,127.6563 Q2878.8125,128.7188 2878.8125,130.8125 Q2878.8125,132.9063 2879.5,133.9844 Q2880.1875,135.0469 2881.5313,135.0469 Q2882.1563,135.0469 2882.75,134.7813 Q2883.3438,134.5 2883.9688,133.9219 L2883.9688,136.6406 Z " fill="#000000"/><text fill="#000000" font-family="sans-serif" font-size="14" lengthAdjust="spacing" textLength="136.2813" x="2895" y="135.8467">ActuationCollection</text><line style="stroke:#181818;stroke-width:0.5;" x1="2867" x2="3033.2813" y1="147" y2="147"/><line style="stroke:#181818;stroke-width:0.5;" x1="2867" x2="3033.2813" y1="155" y2="155"/></g><!--class ObservationCollection--><g class="entity" data-qualified-name="ObservationCollection" data-source-line="18" id="ent0041"><rect fill="#F1F1F1" height="48" rx="2.5" ry="2.5" style="stroke:#181818;stroke-width:0.5;" width="186.499" x="3069" y="115"/><ellipse cx="3084" cy="131" fill="#ADD1B2" rx="11" ry="11" style="stroke:#181818;stroke-width:1;"/><path d="M3086.9688,136.6406 Q3086.3906,136.9375 3085.75,137.0781 Q3085.1094,137.2344 3084.4063,137.2344 Q3081.9063,137.2344 3080.5781,135.5938 Q3079.2656,133.9375 3079.2656,130.8125 Q3079.2656,127.6875 3080.5781,126.0313 Q3081.9063,124.375 3084.4063,124.375 Q3085.1094,124.375 3085.75,124.5313 Q3086.4063,124.6875 3086.9688,124.9844 L3086.9688,127.7031 Q3086.3438,127.125 3085.75,126.8594 Q3085.1563,126.5781 3084.5313,126.5781 Q3083.1875,126.5781 3082.5,127.6563 Q3081.8125,128.7188 3081.8125,130.8125 Q3081.8125,132.9063 3082.5,133.9844 Q3083.1875,135.0469 3084.5313,135.0469 Q3085.1563,135.0469 3085.75,134.7813 Q3086.3438,134.5 3086.9688,133.9219 L3086.9688,136.6406 Z " fill="#000000"/><text fill="#000000" font-family="sans-serif" font-size="14" lengthAdjust="spacing" textLength="154.499" x="3098" y="135.8467">ObservationCollection</text><line style="stroke:#181818;stroke-width:0.5;" x1="3070" x2="3254.499" y1="147" y2="147"/><line style="stroke:#181818;stroke-width:0.5;" x1="3070" x2="3254.499" y1="155" y2="155"/></g><!--class Observation--><g class="entity" data-qualified-name="Observation" data-source-line="19" id="ent0043"><rect fill="#F1F1F1" height="48" rx="2.5" ry="2.5" style="stroke:#181818;stroke-width:0.5;" width="117.251" x="2512.5" y="115"/><ellipse cx="2527.5" cy="131" fill="#ADD1B2" rx="11" ry="11" style="stroke:#181818;stroke-width:1;"/><path d="M2530.4688,136.6406 Q2529.8906,136.9375 2529.25,137.0781 Q2528.6094,137.2344 2527.9063,137.2344 Q2525.4063,137.2344 2524.0781,135.5938 Q2522.7656,133.9375 2522.7656,130.8125 Q2522.7656,127.6875 2524.0781,126.0313 Q2525.4063,124.375 2527.9063,124.375 Q2528.6094,124.375 2529.25,124.5313 Q2529.9063,124.6875 2530.4688,124.9844 L2530.4688,127.7031 Q2529.8438,127.125 2529.25,126.8594 Q2528.6563,126.5781 2528.0313,126.5781 Q2526.6875,126.5781 2526,127.6563 Q2525.3125,128.7188 2525.3125,130.8125 Q2525.3125,132.9063 2526,133.9844 Q2526.6875,135.0469 2528.0313,135.0469 Q2528.6563,135.0469 2529.25,134.7813 Q2529.8438,134.5 2530.4688,133.9219 L2530.4688,136.6406 Z " fill="#000000"/><text fill="#000000" font-family="sans-serif" font-size="14" lengthAdjust="spacing" textLength="85.251" x="2541.5" y="135.8467">Observation</text><line style="stroke:#181818;stroke-width:0.5;" x1="2513.5" x2="2628.751" y1="147" y2="147"/><line style="stroke:#181818;stroke-width:0.5;" x1="2513.5" x2="2628.751" y1="155" y2="155"/></g><!--class Input--><g class="entity" data-qualified-name="Input" data-source-line="20" id="ent0045"><rect fill="#F1F1F1" height="48" rx="2.5" ry="2.5" style="stroke:#181818;stroke-width:0.5;" width="68.251" x="50" y="7"/><ellipse cx="65" cy="23" fill="#ADD1B2" rx="11" ry="11" style="stroke:#181818;stroke-width:1;"/><path d="M67.9688,28.6406 Q67.3906,28.9375 66.75,29.0781 Q66.1094,29.2344 65.4063,29.2344 Q62.9063,29.2344 61.5781,27.5938 Q60.2656,25.9375 60.2656,22.8125 Q60.2656,19.6875 61.5781,18.0313 Q62.9063,16.375 65.4063,16.375 Q66.1094,16.375 66.75,16.5313 Q67.4063,16.6875 67.9688,16.9844 L67.9688,19.7031 Q67.3438,19.125 66.75,18.8594 Q66.1563,18.5781 65.5313,18.5781 Q64.1875,18.5781 63.5,19.6563 Q62.8125,20.7188 62.8125,22.8125 Q62.8125,24.9063 63.5,25.9844 Q64.1875,27.0469 65.5313,27.0469 Q66.1563,27.0469 66.75,26.7813 Q67.3438,26.5 67.9688,25.9219 L67.9688,28.6406 Z " fill="#000000"/><text fill="#000000" font-family="sans-serif" font-size="14" lengthAdjust="spacing" textLength="36.251" x="79" y="27.8467">Input</text><line style="stroke:#181818;stroke-width:0.5;" x1="51" x2="117.251" y1="39" y2="39"/><line style="stroke:#181818;stroke-width:0.5;" x1="51" x2="117.251" y1="47" y2="47"/></g><!--class Deployment--><g class="entity" data-qualified-name="Deployment" data-source-line="22" id="ent0046"><rect fill="#F1F1F1" height="48" rx="2.5" ry="2.5" style="stroke:#181818;stroke-width:0.5;" width="117.6338" x="153" y="7"/><ellipse cx="168" cy="23" fill="#ADD1B2" rx="11" ry="11" style="stroke:#181818;stroke-width:1;"/><path d="M170.9688,28.6406 Q170.3906,28.9375 169.75,29.0781 Q169.1094,29.2344 168.4063,29.2344 Q165.9063,29.2344 164.5781,27.5938 Q163.2656,25.9375 163.2656,22.8125 Q163.2656,19.6875 164.5781,18.0313 Q165.9063,16.375 168.4063,16.375 Q169.1094,16.375 169.75,16.5313 Q170.4063,16.6875 170.9688,16.9844 L170.9688,19.7031 Q170.3438,19.125 169.75,18.8594 Q169.1563,18.5781 168.5313,18.5781 Q167.1875,18.5781 166.5,19.6563 Q165.8125,20.7188 165.8125,22.8125 Q165.8125,24.9063 166.5,25.9844 Q167.1875,27.0469 168.5313,27.0469 Q169.1563,27.0469 169.75,26.7813 Q170.3438,26.5 170.9688,25.9219 L170.9688,28.6406 Z " fill="#000000"/><text fill="#000000" font-family="sans-serif" font-size="14" lengthAdjust="spacing" textLength="85.6338" x="182" y="27.8467">Deployment</text><line style="stroke:#181818;stroke-width:0.5;" x1="154" x2="269.6338" y1="39" y2="39"/><line style="stroke:#181818;stroke-width:0.5;" x1="154" x2="269.6338" y1="47" y2="47"/></g><!--class FeatureOfInterest--><g class="entity" data-qualified-name="FeatureOfInterest" data-source-line="23" id="ent0047"><rect fill="#F1F1F1" height="48" rx="2.5" ry="2.5" style="stroke:#181818;stroke-width:0.5;" width="156.1816" x="306" y="7"/><ellipse cx="321" cy="23" fill="#ADD1B2" rx="11" ry="11" style="stroke:#181818;stroke-width:1;"/><path d="M323.9688,28.6406 Q323.3906,28.9375 322.75,29.0781 Q322.1094,29.2344 321.4063,29.2344 Q318.9063,29.2344 317.5781,27.5938 Q316.2656,25.9375 316.2656,22.8125 Q316.2656,19.6875 317.5781,18.0313 Q318.9063,16.375 321.4063,16.375 Q322.1094,16.375 322.75,16.5313 Q323.4063,16.6875 323.9688,16.9844 L323.9688,19.7031 Q323.3438,19.125 322.75,18.8594 Q322.1563,18.5781 321.5313,18.5781 Q320.1875,18.5781 319.5,19.6563 Q318.8125,20.7188 318.8125,22.8125 Q318.8125,24.9063 319.5,25.9844 Q320.1875,27.0469 321.5313,27.0469 Q322.1563,27.0469 322.75,26.7813 Q323.3438,26.5 323.9688,25.9219 L323.9688,28.6406 Z " fill="#000000"/><text fill="#000000" font-family="sans-serif" font-size="14" lengthAdjust="spacing" textLength="124.1816" x="335" y="27.8467">FeatureOfInterest</text><line style="stroke:#181818;stroke-width:0.5;" x1="307" x2="461.1816" y1="39" y2="39"/><line style="stroke:#181818;stroke-width:0.5;" x1="307" x2="461.1816" y1="47" y2="47"/></g><!--class SampleCollection--><g class="entity" data-qualified-name="SampleCollection" data-source-line="24" id="ent0048"><rect fill="#F1F1F1" height="48" rx="2.5" ry="2.5" style="stroke:#181818;stroke-width:0.5;" width="153.7412" x="7" y="115"/><ellipse cx="22" cy="131" fill="#ADD1B2" rx="11" ry="11" style="stroke:#181818;stroke-width:1;"/><path d="M24.9688,136.6406 Q24.3906,136.9375 23.75,137.0781 Q23.1094,137.2344 22.4063,137.2344 Q19.9063,137.2344 18.5781,135.5938 Q17.2656,133.9375 17.2656,130.8125 Q17.2656,127.6875 18.5781,126.0313 Q19.9063,124.375 22.4063,124.375 Q23.1094,124.375 23.75,124.5313 Q24.4063,124.6875 24.9688,124.9844 L24.9688,127.7031 Q24.3438,127.125 23.75,126.8594 Q23.1563,126.5781 22.5313,126.5781 Q21.1875,126.5781 20.5,127.6563 Q19.8125,128.7188 19.8125,130.8125 Q19.8125,132.9063 20.5,133.9844 Q21.1875,135.0469 22.5313,135.0469 Q23.1563,135.0469 23.75,134.7813 Q24.3438,134.5 24.9688,133.9219 L24.9688,136.6406 Z " fill="#000000"/><text fill="#000000" font-family="sans-serif" font-size="14" lengthAdjust="spacing" textLength="121.7412" x="36" y="135.8467">SampleCollection</text><line style="stroke:#181818;stroke-width:0.5;" x1="8" x2="159.7412" y1="147" y2="147"/><line style="stroke:#181818;stroke-width:0.5;" x1="8" x2="159.7412" y1="155" y2="155"/></g><!--class Result--><g class="entity" data-qualified-name="Result" data-source-line="27" id="ent0049"><rect fill="#F1F1F1" height="48" rx="2.5" ry="2.5" style="stroke:#181818;stroke-width:0.5;" width="75.8867" x="196" y="115"/><ellipse cx="211" cy="131" fill="#ADD1B2" rx="11" ry="11" style="stroke:#181818;stroke-width:1;"/><path d="M213.9688,136.6406 Q213.3906,136.9375 212.75,137.0781 Q212.1094,137.2344 211.4063,137.2344 Q208.9063,137.2344 207.5781,135.5938 Q206.2656,133.9375 206.2656,130.8125 Q206.2656,127.6875 207.5781,126.0313 Q208.9063,124.375 211.4063,124.375 Q212.1094,124.375 212.75,124.5313 Q213.4063,124.6875 213.9688,124.9844 L213.9688,127.7031 Q213.3438,127.125 212.75,126.8594 Q212.1563,126.5781 211.5313,126.5781 Q210.1875,126.5781 209.5,127.6563 Q208.8125,128.7188 208.8125,130.8125 Q208.8125,132.9063 209.5,133.9844 Q210.1875,135.0469 211.5313,135.0469 Q212.1563,135.0469 212.75,134.7813 Q213.3438,134.5 213.9688,133.9219 L213.9688,136.6406 Z " fill="#000000"/><text fill="#000000" font-family="sans-serif" font-size="14" lengthAdjust="spacing" textLength="43.8867" x="225" y="135.8467">Result</text><line style="stroke:#181818;stroke-width:0.5;" x1="197" x2="270.8867" y1="147" y2="147"/><line style="stroke:#181818;stroke-width:0.5;" x1="197" x2="270.8867" y1="155" y2="155"/></g><!--class Stimulus--><g class="entity" data-qualified-name="Stimulus" data-source-line="28" id="ent0050"><rect fill="#F1F1F1" height="48" rx="2.5" ry="2.5" style="stroke:#181818;stroke-width:0.5;" width="92.833" x="307.5" y="115"/><ellipse cx="322.5" cy="131" fill="#ADD1B2" rx="11" ry="11" style="stroke:#181818;stroke-width:1;"/><path d="M325.4688,136.6406 Q324.8906,136.9375 324.25,137.0781 Q323.6094,137.2344 322.9063,137.2344 Q320.4063,137.2344 319.0781,135.5938 Q317.7656,133.9375 317.7656,130.8125 Q317.7656,127.6875 319.0781,126.0313 Q320.4063,124.375 322.9063,124.375 Q323.6094,124.375 324.25,124.5313 Q324.9063,124.6875 325.4688,124.9844 L325.4688,127.7031 Q324.8438,127.125 324.25,126.8594 Q323.6563,126.5781 323.0313,126.5781 Q321.6875,126.5781 321,127.6563 Q320.3125,128.7188 320.3125,130.8125 Q320.3125,132.9063 321,133.9844 Q321.6875,135.0469 323.0313,135.0469 Q323.6563,135.0469 324.25,134.7813 Q324.8438,134.5 325.4688,133.9219 L325.4688,136.6406 Z " fill="#000000"/><text fill="#000000" font-family="sans-serif" font-size="14" lengthAdjust="spacing" textLength="60.833" x="336.5" y="135.8467">Stimulus</text><line style="stroke:#181818;stroke-width:0.5;" x1="308.5" x2="399.333" y1="147" y2="147"/><line style="stroke:#181818;stroke-width:0.5;" x1="308.5" x2="399.333" y1="155" y2="155"/></g><!--class Output--><g class="entity" data-qualified-name="Output" data-source-line="29" id="ent0051"><rect fill="#F1F1F1" height="48" rx="2.5" ry="2.5" style="stroke:#181818;stroke-width:0.5;" width="80.6309" x="43.5" y="223"/><ellipse cx="58.5" cy="239" fill="#ADD1B2" rx="11" ry="11" style="stroke:#181818;stroke-width:1;"/><path d="M61.4688,244.6406 Q60.8906,244.9375 60.25,245.0781 Q59.6094,245.2344 58.9063,245.2344 Q56.4063,245.2344 55.0781,243.5938 Q53.7656,241.9375 53.7656,238.8125 Q53.7656,235.6875 55.0781,234.0313 Q56.4063,232.375 58.9063,232.375 Q59.6094,232.375 60.25,232.5313 Q60.9063,232.6875 61.4688,232.9844 L61.4688,235.7031 Q60.8438,235.125 60.25,234.8594 Q59.6563,234.5781 59.0313,234.5781 Q57.6875,234.5781 57,235.6563 Q56.3125,236.7188 56.3125,238.8125 Q56.3125,240.9063 57,241.9844 Q57.6875,243.0469 59.0313,243.0469 Q59.6563,243.0469 60.25,242.7813 Q60.8438,242.5 61.4688,241.9219 L61.4688,244.6406 Z " fill="#000000"/><text fill="#000000" font-family="sans-serif" font-size="14" lengthAdjust="spacing" textLength="48.6309" x="72.5" y="243.8467">Output</text><line style="stroke:#181818;stroke-width:0.5;" x1="44.5" x2="123.1309" y1="255" y2="255"/><line style="stroke:#181818;stroke-width:0.5;" x1="44.5" x2="123.1309" y1="263" y2="263"/></g><!--reverse link Property to ActuatableProperty--><g class="link" data-entity-1="ent0001" data-entity-2="ent0002" data-link-type="extension" data-source-line="1" id="lnk3"><path codeLine="1" d="M595.8145,67.1993 C576.6545,84.8593 563.55,96.94 544.3,114.68" fill="none" id="Property-backto-ActuatableProperty" style="stroke:#181818;stroke-width:1;"/><polygon fill="none" points="609.05,55,591.7481,62.7875,599.881,71.6111,609.05,55" style="stroke:#181818;stroke-width:1;stroke-linejoin:miter;stroke-miterlimit:10;"/></g><!--reverse link Sample to MaterialSample--><g class="link" data-entity-1="ent0004" data-entity-2="ent0005" data-link-type="extension" data-source-line="2" id="lnk6"><path codeLine="2" d="M1035.3567,64.4445 C1006.6067,82.1645 982.35,97.11 953.55,114.86" fill="none" id="Sample-backto-MaterialSample" style="stroke:#181818;stroke-width:1;"/><polygon fill="none" points="1050.68,55,1032.2086,59.3367,1038.5049,69.5522,1050.68,55" style="stroke:#181818;stroke-width:1;stroke-linejoin:miter;stroke-miterlimit:10;"/></g><!--reverse link Sample to SpatialSample--><g class="link" data-entity-1="ent0004" data-entity-2="ent0007" data-link-type="extension" data-source-line="3" id="lnk8"><path codeLine="3" d="M1088,73 C1088,90.66 1088,96.94 1088,114.68" fill="none" id="Sample-backto-SpatialSample" style="stroke:#181818;stroke-width:1;"/><polygon fill="none" points="1088,55,1082,73,1094,73,1088,55" style="stroke:#181818;stroke-width:1;stroke-linejoin:miter;stroke-miterlimit:10;"/></g><!--reverse link Sample to StatisticalSample--><g class="link" data-entity-1="ent0004" data-entity-2="ent0009" data-link-type="extension" data-source-line="4" id="lnk10"><path codeLine="4" d="M1142.3276,64.1725 C1172.2476,81.8925 1197.95,97.11 1227.93,114.86" fill="none" id="Sample-backto-StatisticalSample" style="stroke:#181818;stroke-width:1;"/><polygon fill="none" points="1126.84,55,1139.2701,69.335,1145.3851,59.0099,1126.84,55" style="stroke:#181818;stroke-width:1;stroke-linejoin:miter;stroke-miterlimit:10;"/></g><!--reverse link Property to ObservableProperty--><g class="link" data-entity-1="ent0001" data-entity-2="ent0011" data-link-type="extension" data-source-line="5" id="lnk12"><path codeLine="5" d="M665.1782,68.723 C680.1682,86.383 689.14,96.94 704.2,114.68" fill="none" id="Property-backto-ObservableProperty" style="stroke:#181818;stroke-width:1;"/><polygon fill="none" points="653.53,55,660.6039,72.6057,669.7525,64.8402,653.53,55" style="stroke:#181818;stroke-width:1;stroke-linejoin:miter;stroke-miterlimit:10;"/></g><!--reverse link Procedure to ActuatingProcedure--><g class="link" data-entity-1="ent0013" data-entity-2="ent0014" data-link-type="extension" data-source-line="6" id="lnk15"><path codeLine="6" d="M1611.8326,63.1732 C1577.0626,80.8932 1545.24,97.11 1510.4,114.86" fill="none" id="Procedure-backto-ActuatingProcedure" style="stroke:#181818;stroke-width:1;"/><polygon fill="none" points="1627.87,55,1609.1082,57.8274,1614.557,68.519,1627.87,55" style="stroke:#181818;stroke-width:1;stroke-linejoin:miter;stroke-miterlimit:10;"/></g><!--reverse link Procedure to ObservingProcedure--><g class="link" data-entity-1="ent0013" data-entity-2="ent0016" data-link-type="extension" data-source-line="7" id="lnk17"><path codeLine="7" d="M1673,73 C1673,90.66 1673,96.94 1673,114.68" fill="none" id="Procedure-backto-ObservingProcedure" style="stroke:#181818;stroke-width:1;"/><polygon fill="none" points="1673,55,1667,73,1679,73,1673,55" style="stroke:#181818;stroke-width:1;stroke-linejoin:miter;stroke-miterlimit:10;"/></g><!--reverse link Procedure to SamplingProcedure--><g class="link" data-entity-1="ent0013" data-entity-2="ent0018" data-link-type="extension" data-source-line="8" id="lnk19"><path codeLine="8" d="M1733.9411,63.205 C1768.5411,80.925 1800.15,97.11 1834.81,114.86" fill="none" id="Procedure-backto-SamplingProcedure" style="stroke:#181818;stroke-width:1;"/><polygon fill="none" points="1717.92,55,1731.2061,68.5454,1736.6762,57.8647,1717.92,55" style="stroke:#181818;stroke-width:1;stroke-linejoin:miter;stroke-miterlimit:10;"/></g><!--reverse link Asset to Platform--><g class="link" data-entity-1="ent0020" data-entity-2="ent0021" data-link-type="extension" data-source-line="9" id="lnk22"><path codeLine="9" d="M2083.7839,70.6022 C2073.6239,88.2622 2068.63,96.94 2058.42,114.68" fill="none" id="Asset-backto-Platform" style="stroke:#181818;stroke-width:1;"/><polygon fill="none" points="2092.76,55,2078.5831,67.6102,2088.9846,73.5943,2092.76,55" style="stroke:#181818;stroke-width:1;stroke-linejoin:miter;stroke-miterlimit:10;"/></g><!--reverse link System to Sampler--><g class="link" data-entity-1="ent0023" data-entity-2="ent0024" data-link-type="extension" data-source-line="10" id="lnk25"><path codeLine="10" d="M2126.8865,174.5884 C2105.8965,192.2484 2090.81,204.94 2069.72,222.68" fill="none" id="System-backto-Sampler" style="stroke:#181818;stroke-width:1;"/><polygon fill="none" points="2140.66,163,2123.0237,169.9972,2130.7493,179.1795,2140.66,163" style="stroke:#181818;stroke-width:1;stroke-linejoin:miter;stroke-miterlimit:10;"/></g><!--reverse link System to Actuator--><g class="link" data-entity-1="ent0023" data-entity-2="ent0026" data-link-type="extension" data-source-line="11" id="lnk27"><path codeLine="11" d="M2168,181 C2168,198.66 2168,204.94 2168,222.68" fill="none" id="System-backto-Actuator" style="stroke:#181818;stroke-width:1;"/><polygon fill="none" points="2168,163,2162,181,2174,181,2168,163" style="stroke:#181818;stroke-width:1;stroke-linejoin:miter;stroke-miterlimit:10;"/></g><!--reverse link Asset to System--><g class="link" data-entity-1="ent0020" data-entity-2="ent0023" data-link-type="extension" data-source-line="12" id="lnk28"><path codeLine="12" d="M2128.5383,70.5372 C2138.8683,88.1972 2143.98,96.94 2154.36,114.68" fill="none" id="Asset-backto-System" style="stroke:#181818;stroke-width:1;"/><polygon fill="none" points="2119.45,55,2123.3592,73.5666,2133.7173,67.5077,2119.45,55" style="stroke:#181818;stroke-width:1;stroke-linejoin:miter;stroke-miterlimit:10;"/></g><!--reverse link Execution to Sampling--><g class="link" data-entity-1="ent0029" data-entity-2="ent0030" data-link-type="extension" data-source-line="13" id="lnk31"><path codeLine="13" d="M2384.8041,66.1688 C2362.4841,83.8288 2345.91,96.94 2323.48,114.68" fill="none" id="Execution-backto-Sampling" style="stroke:#181818;stroke-width:1;"/><polygon fill="none" points="2398.92,55,2381.0812,61.4635,2388.527,70.8741,2398.92,55" style="stroke:#181818;stroke-width:1;stroke-linejoin:miter;stroke-miterlimit:10;"/></g><!--reverse link ExecutionCollection to SamplingCollection--><g class="link" data-entity-1="ent0032" data-entity-2="ent0033" data-link-type="extension" data-source-line="14" id="lnk34"><path codeLine="14" d="M2890.231,63.3636 C2856.461,81.0836 2825.93,97.11 2792.09,114.86" fill="none" id="ExecutionCollection-backto-SamplingCollection" style="stroke:#181818;stroke-width:1;"/><polygon fill="none" points="2906.17,55,2887.4432,58.0506,2893.0189,68.6766,2906.17,55" style="stroke:#181818;stroke-width:1;stroke-linejoin:miter;stroke-miterlimit:10;"/></g><!--reverse link Execution to Actuation--><g class="link" data-entity-1="ent0029" data-entity-2="ent0035" data-link-type="extension" data-source-line="15" id="lnk36"><path codeLine="15" d="M2428,73 C2428,90.66 2428,96.94 2428,114.68" fill="none" id="Execution-backto-Actuation" style="stroke:#181818;stroke-width:1;"/><polygon fill="none" points="2428,55,2422,73,2434,73,2428,55" style="stroke:#181818;stroke-width:1;stroke-linejoin:miter;stroke-miterlimit:10;"/></g><!--reverse link System to Sensor--><g class="link" data-entity-1="ent0023" data-entity-2="ent0037" data-link-type="extension" data-source-line="16" id="lnk38"><path codeLine="16" d="M2207.7968,174.864 C2227.9468,192.524 2242.13,204.94 2262.38,222.68" fill="none" id="System-backto-Sensor" style="stroke:#181818;stroke-width:1;"/><polygon fill="none" points="2194.26,163,2203.8421,179.3763,2211.7515,170.3518,2194.26,163" style="stroke:#181818;stroke-width:1;stroke-linejoin:miter;stroke-miterlimit:10;"/></g><!--reverse link ExecutionCollection to ActuationCollection--><g class="link" data-entity-1="ent0032" data-entity-2="ent0039" data-link-type="extension" data-source-line="17" id="lnk40"><path codeLine="17" d="M2950,73 C2950,90.66 2950,96.94 2950,114.68" fill="none" id="ExecutionCollection-backto-ActuationCollection" style="stroke:#181818;stroke-width:1;"/><polygon fill="none" points="2950,55,2944,73,2956,73,2950,55" style="stroke:#181818;stroke-width:1;stroke-linejoin:miter;stroke-miterlimit:10;"/></g><!--reverse link ExecutionCollection to ObservationCollection--><g class="link" data-entity-1="ent0032" data-entity-2="ent0041" data-link-type="extension" data-source-line="18" id="lnk42"><path codeLine="18" d="M3012.0997,63.0498 C3047.5397,80.7698 3080.22,97.11 3115.72,114.86" fill="none" id="ExecutionCollection-backto-ObservationCollection" style="stroke:#181818;stroke-width:1;"/><polygon fill="none" points="2996,55,3009.4164,68.4164,3014.783,57.6833,2996,55" style="stroke:#181818;stroke-width:1;stroke-linejoin:miter;stroke-miterlimit:10;"/></g><!--reverse link Execution to Observation--><g class="link" data-entity-1="ent0029" data-entity-2="ent0043" data-link-type="extension" data-source-line="19" id="lnk44"><path codeLine="19" d="M2473.4895,65.7202 C2497.3095,83.3802 2515.61,96.94 2539.54,114.68" fill="none" id="Execution-backto-Observation" style="stroke:#181818;stroke-width:1;"/><polygon fill="none" points="2459.03,55,2469.9161,70.54,2477.0629,60.9004,2459.03,55" style="stroke:#181818;stroke-width:1;stroke-linejoin:miter;stroke-miterlimit:10;"/></g><?plantuml-src VP9BRiGW38RtEKKkC3VePjI7D8igKNC2Xdeg9FCGDbKZzV15DI4XqtI7_-_t0yCOVO38S__mVJhrPyr9iReYZ4Nl9cK3Wk1NnH2DGj4QD0N51uGp8JQwqh7fELm9ucVJCnyqlAS8swcC-wZwtY4r_dFyjcuCPo9WWICgllbeksac1hl9WDXeCecFssJXtVCNwCJ6kxRVgZzwHD3tZbNVroZtpg2P2npb2Gxhrgo_2k_DPVb7zZjJfr4HzHSN4fTpVJK9do2WdosuXR-0uhpluNPn-VS0BRhiTzFr8B_iLu8te8ILiB494vLmIBnEjR0V?></g></svg>