<svg xmlns="http://www.w3.org/2000/svg" xmlns:xlink="http://www.w3.org/1999/xlink" contentStyleType="text/css" data-diagram-type="CLASS" height="286px" preserveAspectRatio="none" style="width:3254px;height:286px;background:#FFFFFF;" version="1.1" viewBox="0 0 3254 286" width="3254px" zoomAndPan="magnify"><?plantuml 1.2026.6?><defs/><g><!--class Property--><g class="entity" data-qualified-name="Property" data-source-line="1" id="ent0001"><rect fill="#F1F1F1" height="48" rx="2.5" ry="2.5" style="stroke:#181818;stroke-width:0.5;" width="91.7939" x="576" y="7"/><ellipse cx="591" cy="23" fill="#ADD1B2" rx="11" ry="11" style="stroke:#181818;stroke-width:1;"/><path d="M593.9688,28.6406 Q593.3906,28.9375 592.75,29.0781 Q592.1094,29.2344 591.4063,29.2344 Q588.9063,29.2344 587.5781,27.5938 Q586.2656,25.9375 586.2656,22.8125 Q586.2656,19.6875 587.5781,18.0313 Q588.9063,16.375 591.4063,16.375 Q592.1094,16.375 592.75,16.5313 Q593.4063,16.6875 593.9688,16.9844 L593.9688,19.7031 Q593.3438,19.125 592.75,18.8594 Q592.1563,18.5781 591.5313,18.5781 Q590.1875,18.5781 589.5,19.6563 Q588.8125,20.7188 588.8125,22.8125 Q588.8125,24.9063 589.5,25.9844 Q590.1875,27.0469 591.5313,27.0469 Q592.1563,27.0469 592.75,26.7813 Q593.3438,26.5 593.9688,25.9219 L593.9688,28.6406 Z " fill="#000000"/><text fill="#000000" font-family="sans-serif" font-size="14" lengthAdjust="spacing" textLength="59.7939" x="605" y="27.8467">Property</text><line style="stroke:#181818;stroke-width:0.5;" x1="577" x2="666.7939" y1="39" y2="39"/><line style="stroke:#181818;stroke-width:0.5;" x1="577" x2="666.7939" y1="47" y2="47"/></g><!--class ActuatableProperty--><g class="entity" data-qualified-name="ActuatableProperty" data-source-line="1" id="ent0002"><rect fill="#F1F1F1" height="48" rx="2.5" ry="2.5" style="stroke:#181818;stroke-width:0.5;" width="167.4678" x="419.5" y="115"/><ellipse cx="434.5" cy="131" fill="#ADD1B2" rx="11" ry="11" style="stroke:#181818;stroke-width:1;"/><path d="M437.4688,136.6406 Q436.8906,136.9375 436.25,137.0781 Q435.6094,137.2344 434.9063,137.2344 Q432.4063,137.2344 431.0781,135.5938 Q429.7656,133.9375 429.7656,130.8125 Q429.7656,127.6875 431.0781,126.0313 Q432.4063,124.375 434.9063,124.375 Q435.6094,124.375 436.25,124.5313 Q436.9063,124.6875 437.4688,124.9844 L437.4688,127.7031 Q436.8438,127.125 436.25,126.8594 Q435.6563,126.5781 435.0313,126.5781 Q433.6875,126.5781 433,127.6563 Q432.3125,128.7188 432.3125,130.8125 Q432.3125,132.9063 433,133.9844 Q433.6875,135.0469 435.0313,135.0469 Q435.6563,135.0469 436.25,134.7813 Q436.8438,134.5 437.4688,133.9219 L437.4688,136.6406 Z " fill="#000000"/><text fill="#000000" font-family="sans-serif" font-size="14" lengthAdjust="spacing" textLength="135.4678" x="448.5" y="135.8467">ActuatableProperty</text><line style="stroke:#181818;stroke-width:0.5;" x1="420.5" x2="585.9678" y1="147" y2="147"/><line style="stroke:#181818;stroke-width:0.5;" x1="420.5" x2="585.9678" y1="155" y2="155"/></g><!--class Sample--><g class="entity" data-qualified-name="Sample" data-source-line="2" id="ent0004"><rect fill="#F1F1F1" height="48" rx="2.5" ry="2.5" style="stroke:#181818;stroke-width:0.5;" width="84.4932" x="1030" y="7"/><ellipse cx="1045" cy="23" fill="#ADD1B2" rx="11" ry="11" style="stroke:#181818;stroke-width:1;"/><path d="M1047.9688,28.6406 Q1047.3906,28.9375 1046.75,29.0781 Q1046.1094,29.2344 1045.4063,29.2344 Q1042.9063,29.2344 1041.5781,27.5938 Q1040.2656,25.9375 1040.2656,22.8125 Q1040.2656,19.6875 1041.5781,18.0313 Q1042.9063,16.375 1045.4063,16.375 Q1046.1094,16.375 1046.75,16.5313 Q1047.4063,16.6875 1047.9688,16.9844 L1047.9688,19.7031 Q1047.3438,19.125 1046.75,18.8594 Q1046.1563,18.5781 1045.5313,18.5781 Q1044.1875,18.5781 1043.5,19.6563 Q1042.8125,20.7188 1042.8125,22.8125 Q1042.8125,24.9063 1043.5,25.9844 Q1044.1875,27.0469 1045.5313,27.0469 Q1046.1563,27.0469 1046.75,26.7813 Q1047.3438,26.5 1047.9688,25.9219 L1047.9688,28.6406 Z " fill="#000000"/><text fill="#000000" font-family="sans-serif" font-size="14" lengthAdjust="spacing" textLength="52.4932" x="1059" y="27.8467">Sample</text><line style="stroke:#181818;stroke-width:0.5;" x1="1031" x2="1113.4932" y1="39" y2="39"/><line style="stroke:#181818;stroke-width:0.5;" x1="1031" x2="1113.4932" y1="47" y2="47"/></g><!--class MaterialSample--><g class="entity" data-qualified-name="MaterialSample" data-source-line="2" id="ent0005"><rect fill="#F1F1F1" height="48" rx="2.5" ry="2.5" style="stroke:#181818;stroke-width:0.5;" width="141.3682" x="829.5" y="115"/><ellipse cx="844.5" cy="131" fill="#ADD1B2" rx="11" ry="11" style="stroke:#181818;stroke-width:1;"/><path d="M847.4688,136.6406 Q846.8906,136.9375 846.25,137.0781 Q845.6094,137.2344 844.9063,137.2344 Q842.4063,137.2344 841.0781,135.5938 Q839.7656,133.9375 839.7656,130.8125 Q839.7656,127.6875 841.0781,126.0313 Q842.4063,124.375 844.9063,124.375 Q845.6094,124.375 846.25,124.5313 Q846.9063,124.6875 847.4688,124.9844 L847.4688,127.7031 Q846.8438,127.125 846.25,126.8594 Q845.6563,126.5781 845.0313,126.5781 Q843.6875,126.5781 843,127.6563 Q842.3125,128.7188 842.3125,130.8125 Q842.3125,132.9063 843,133.9844 Q843.6875,135.0469 845.0313,135.0469 Q845.6563,135.0469 846.25,134.7813 Q846.8438,134.5 847.4688,133.9219 L847.4688,136.6406 Z " fill="#000000"/><text fill="#000000" font-family="sans-serif" font-size="14" lengthAdjust="spacing" textLength="109.3682" x="858.5" y="135.8467">MaterialSample</text><line style="stroke:#181818;stroke-width:0.5;" x1="830.5" x2="969.8682" y1="147" y2="147"/><line style="stroke:#181818;stroke-width:0.5;" x1="830.5" x2="969.8682" y1="155" y2="155"/></g><!--class SpatialSample--><g class="entity" data-qualified-name="SpatialSample" data-source-line="3" id="ent0007"><rect fill="#F1F1F1" height="48" rx="2.5" ry="2.5" style="stroke:#181818;stroke-width:0.5;" width="132.6934" x="1005.5" y="115"/><ellipse cx="1020.5" cy="131" fill="#ADD1B2" rx="11" ry="11" style="stroke:#181818;stroke-width:1;"/><path d="M1023.4688,136.6406 Q1022.8906,136.9375 1022.25,137.0781 Q1021.6094,137.2344 1020.9063,137.2344 Q1018.4063,137.2344 1017.0781,135.5938 Q1015.7656,133.9375 1015.7656,130.8125 Q1015.7656,127.6875 1017.0781,126.0313 Q1018.4063,124.375 1020.9063,124.375 Q1021.6094,124.375 1022.25,124.5313 Q1022.9063,124.6875 1023.4688,124.9844 L1023.4688,127.7031 Q1022.8438,127.125 1022.25,126.8594 Q1021.6563,126.5781 1021.0313,126.5781 Q1019.6875,126.5781 1019,127.6563 Q1018.3125,128.7188 1018.3125,130.8125 Q1018.3125,132.9063 1019,133.9844 Q1019.6875,135.0469 1021.0313,135.0469 Q1021.6563,135.0469 1022.25,134.7813 Q1022.8438,134.5 1023.4688,133.9219 L1023.4688,136.6406 Z " fill="#000000"/><text fill="#000000" font-family="sans-serif" font-size="14" lengthAdjust="spacing" textLength="100.6934" x="1034.5" y="135.8467">SpatialSample</text><line style="stroke:#181818;stroke-width:0.5;" x1="1006.5" x2="1137.1934" y1="147" y2="147"/><line style="stroke:#181818;stroke-width:0.5;" x1="1006.5" x2="1137.1934" y1="155" y2="155"/></g><!--class StatisticalSample--><g class="entity" data-qualified-name="StatisticalSample" data-source-line="4" id="ent0009"><rect fill="#F1F1F1" height="48" rx="2.5" ry="2.5" style="stroke:#181818;stroke-width:0.5;" width="153.666" x="1174" y="115"/><ellipse cx="1189" cy="131" fill="#ADD1B2" rx="11" ry="11" style="stroke:#181818;stroke-width:1;"/><path d="M1191.9688,136.6406 Q1191.3906,136.9375 1190.75,137.0781 Q1190.1094,137.2344 1189.4063,137.2344 Q1186.9063,137.2344 1185.5781,135.5938 Q1184.2656,133.9375 1184.2656,130.8125 Q1184.2656,127.6875 1185.5781,126.0313 Q1186.9063,124.375 1189.4063,124.375 Q1190.1094,124.375 1190.75,124.5313 Q1191.4063,124.6875 1191.9688,124.9844 L1191.9688,127.7031 Q1191.3438,127.125 1190.75,126.8594 Q1190.1563,126.5781 1189.5313,126.5781 Q1188.1875,126.5781 1187.5,127.6563 Q1186.8125,128.7188 1186.8125,130.8125 Q1186.8125,132.9063 1187.5,133.9844 Q1188.1875,135.0469 1189.5313,135.0469 Q1190.1563,135.0469 1190.75,134.7813 Q1191.3438,134.5 1191.9688,133.9219 L1191.9688,136.6406 Z " fill="#000000"/><text fill="#000000" font-family="sans-serif" font-size="14" lengthAdjust="spacing" textLength="121.666" x="1203" y="135.8467">StatisticalSample</text><line style="stroke:#181818;stroke-width:0.5;" x1="1175" x2="1326.666" y1="147" y2="147"/><line style="stroke:#181818;stroke-width:0.5;" x1="1175" x2="1326.666" y1="155" y2="155"/></g><!--class ObservableProperty--><g class="entity" data-qualified-name="ObservableProperty" data-source-line="5" id="ent0011"><rect fill="#F1F1F1" height="48" rx="2.5" ry="2.5" style="stroke:#181818;stroke-width:0.5;" width="171.6172" x="622" y="115"/><ellipse cx="637" cy="131" fill="#ADD1B2" rx="11" ry="11" style="stroke:#181818;stroke-width:1;"/><path d="M639.9688,136.6406 Q639.3906,136.9375 638.75,137.0781 Q638.1094,137.2344 637.4063,137.2344 Q634.9063,137.2344 633.5781,135.5938 Q632.2656,133.9375 632.2656,130.8125 Q632.2656,127.6875 633.5781,126.0313 Q634.9063,124.375 637.4063,124.375 Q638.1094,124.375 638.75,124.5313 Q639.4063,124.6875 639.9688,124.9844 L639.9688,127.7031 Q639.3438,127.125 638.75,126.8594 Q638.1563,126.5781 637.5313,126.5781 Q636.1875,126.5781 635.5,127.6563 Q634.8125,128.7188 634.8125,130.8125 Q634.8125,132.9063 635.5,133.9844 Q636.1875,135.0469 637.5313,135.0469 Q638.1563,135.0469 638.75,134.7813 Q639.3438,134.5 639.9688,133.9219 L639.9688,136.6406 Z " fill="#000000"/><text fill="#000000" font-family="sans-serif" font-size="14" lengthAdjust="spacing" textLength="139.6172" x="651" y="135.8467">ObservableProperty</text><line style="stroke:#181818;stroke-width:0.5;" x1="623" x2="792.6172" y1="147" y2="147"/><line style="stroke:#181818;stroke-width:0.5;" x1="623" x2="792.6172" y1="155" y2="155"/></g><!--class Procedure--><g class="entity" data-qualified-name="Procedure" data-source-line="6" id="ent0013"><rect fill="#F1F1F1" height="48" rx="2.5" ry="2.5" style="stroke:#181818;stroke-width:0.5;" width="103.2031" x="1605.5" y="7"/><ellipse cx="1620.5" cy="23" fill="#ADD1B2" rx="11" ry="11" style="stroke:#181818;stroke-width:1;"/><path d="M1623.4688,28.6406 Q1622.8906,28.9375 1622.25,29.0781 Q1621.6094,29.2344 1620.9063,29.2344 Q1618.4063,29.2344 1617.0781,27.5938 Q1615.7656,25.9375 1615.7656,22.8125 Q1615.7656,19.6875 1617.0781,18.0313 Q1618.4063,16.375 1620.9063,16.375 Q1621.6094,16.375 1622.25,16.5313 Q1622.9063,16.6875 1623.4688,16.9844 L1623.4688,19.7031 Q1622.8438,19.125 1622.25,18.8594 Q1621.6563,18.5781 1621.0313,18.5781 Q1619.6875,18.5781 1619,19.6563 Q1618.3125,20.7188 1618.3125,22.8125 Q1618.3125,24.9063 1619,25.9844 Q1619.6875,27.0469 1621.0313,27.0469 Q1621.6563,27.0469 1622.25,26.7813 Q1622.8438,26.5 1623.4688,25.9219 L1623.4688,28.6406 Z " fill="#000000"/><text fill="#000000" font-family="sans-serif" font-size="14" lengthAdjust="spacing" textLength="71.2031" x="1634.5" y="27.8467">Procedure</text><line style="stroke:#181818;stroke-width:0.5;" x1="1606.5" x2="1707.7031" y1="39" y2="39"/><line style="stroke:#181818;stroke-width:0.5;" x1="1606.5" x2="1707.7031" y1="47" y2="47"/></g><!--class ActuatingProcedure--><g class="entity" data-qualified-name="ActuatingProcedure" data-source-line="6" id="ent0014"><rect fill="#F1F1F1" height="48" rx="2.5" ry="2.5" style="stroke:#181818;stroke-width:0.5;" width="170.5576" x="1363.5" y="115"/><ellipse cx="1378.5" cy="131" fill="#ADD1B2" rx="11" ry="11" style="stroke:#181818;stroke-width:1;"/><path d="M1381.4688,136.6406 Q1380.8906,136.9375 1380.25,137.0781 Q1379.6094,137.2344 1378.9063,137.2344 Q1376.4063,137.2344 1375.0781,135.5938 Q1373.7656,133.9375 1373.7656,130.8125 Q1373.7656,127.6875 1375.0781,126.0313 Q1376.4063,124.375 1378.9063,124.375 Q1379.6094,124.375 1380.25,124.5313 Q1380.9063,124.6875 1381.4688,124.9844 L1381.4688,127.7031 Q1380.8438,127.125 1380.25,126.8594 Q1379.6563,126.5781 1379.0313,126.5781 Q1377.6875,126.5781 1377,127.6563 Q1376.3125,128.7188 1376.3125,130.8125 Q1376.3125,132.9063 1377,133.9844 Q1377.6875,135.0469 1379.0313,135.0469 Q1379.6563,135.0469 1380.25,134.7813 Q1380.8438,134.5 1381.4688,133.9219 L1381.4688,136.6406 Z " fill="#000000"/><text fill="#000000" font-family="sans-serif" font-size="14" lengthAdjust="spacing" textLength="138.5576" x="1392.5" y="135.8467">ActuatingProcedure</text><line style="stroke:#181818;stroke-width:0.5;" x1="1364.5" x2="1533.0576" y1="147" y2="147"/><line style="stroke:#181818;stroke-width:0.5;" x1="1364.5" x2="1533.0576" y1="155" y2="155"/></g><!--class ObservingProcedure--><g class="entity" data-qualified-name="ObservingProcedure" data-source-line="7" id="ent0016"><rect fill="#F1F1F1" height="48" rx="2.5" ry="2.5" style="stroke:#181818;stroke-width:0.5;" width="174.707" x="1569.5" y="115"/><ellipse cx="1584.5" cy="131" fill="#ADD1B2" rx="11" ry="11" style="stroke:#181818;stroke-width:1;"/><path d="M1587.4688,136.6406 Q1586.8906,136.9375 1586.25,137.0781 Q1585.6094,137.2344 1584.9063,137.2344 Q1582.4063,137.2344 1581.0781,135.5938 Q1579.7656,133.9375 1579.7656,130.8125 Q1579.7656,127.6875 1581.0781,126.0313 Q1582.4063,124.375 1584.9063,124.375 Q1585.6094,124.375 1586.25,124.5313 Q1586.9063,124.6875 1587.4688,124.9844 L1587.4688,127.7031 Q1586.8438,127.125 1586.25,126.8594 Q1585.6563,126.5781 1585.0313,126.5781 Q1583.6875,126.5781 1583,127.6563 Q1582.3125,128.7188 1582.3125,130.8125 Q1582.3125,132.9063 1583,133.9844 Q1583.6875,135.0469 1585.0313,135.0469 Q1585.6563,135.0469 1586.25,134.7813 Q1586.8438,134.5 1587.4688,133.9219 L1587.4688,136.6406 Z " fill="#000000"/><text fill="#000000" font-family="sans-serif" font-size="14" lengthAdjust="spacing" textLength="142.707" x="1598.5" y="135.8467">ObservingProcedure</text><line style="stroke:#181818;stroke-width:0.5;" x1="1570.5" x2="1743.207" y1="147" y2="147"/><line style="stroke:#181818;stroke-width:0.5;" x1="1570.5" x2="1743.207" y1="155" y2="155"/></g><!--class SamplingProcedure--><g class="entity" data-qualified-name="SamplingProcedure" data-source-line="8" id="ent0018"><rect fill="#F1F1F1" height="48" rx="2.5" ry="2.5" style="stroke:#181818;stroke-width:0.5;" width="168.7324" x="1779.5" y="115"/><ellipse cx="1794.5" cy="131" fill="#ADD1B2" rx="11" ry="11" style="stroke:#181818;stroke-width:1;"/><path d="M1797.4688,136.6406 Q1796.8906,136.9375 1796.25,137.0781 Q1795.6094,137.2344 1794.9063,137.2344 Q1792.4063,137.2344 1791.0781,135.5938 Q1789.7656,133.9375 1789.7656,130.8125 Q1789.7656,127.6875 1791.0781,126.0313 Q1792.4063,124.375 1794.9063,124.375 Q1795.6094,124.375 1796.25,124.5313 Q1796.9063,124.6875 1797.4688,124.9844 L1797.4688,127.7031 Q1796.8438,127.125 1796.25,126.8594 Q1795.6563,126.5781 1795.0313,126.5781 Q1793.6875,126.5781 1793,127.6563 Q1792.3125,128.7188 1792.3125,130.8125 Q1792.3125,132.9063 1793,133.9844 Q1793.6875,135.0469 1795.0313,135.0469 Q1795.6563,135.0469 1796.25,134.7813 Q1796.8438,134.5 1797.4688,133.9219 L1797.4688,136.6406 Z " fill="#000000"/><text fill="#000000" font-family="sans-serif" font-size="14" lengthAdjust="spacing" textLength="136.7324" x="1808.5" y="135.8467">SamplingProcedure</text><line style="stroke:#181818;stroke-width:0.5;" x1="1780.5" x2="1947.2324" y1="147" y2="147"/><line style="stroke:#181818;stroke-width:0.5;" x1="1780.5" x2="1947.2324" y1="155" y2="155"/></g><!--class Asset--><g class="entity" data-qualified-name="Asset" data-source-line="9" id="ent0020"><rect fill="#F1F1F1" height="48" rx="2.5" ry="2.5" style="stroke:#181818;stroke-width:0.5;" width="70.2676" x="2055" y="7"/><ellipse cx="2070" cy="23" fill="#ADD1B2" rx="11" ry="11" style="stroke:#181818;stroke-width:1;"/><path d="M2072.9688,28.6406 Q2072.3906,28.9375 2071.75,29.0781 Q2071.1094,29.2344 2070.4063,29.2344 Q2067.9063,29.2344 2066.5781,27.5938 Q2065.2656,25.9375 2065.2656,22.8125 Q2065.2656,19.6875 2066.5781,18.0313 Q2067.9063,16.375 2070.4063,16.375 Q2071.1094,16.375 2071.75,16.5313 Q2072.4063,16.6875 2072.9688,16.9844 L2072.9688,19.7031 Q2072.3438,19.125 2071.75,18.8594 Q2071.1563,18.5781 2070.5313,18.5781 Q2069.1875,18.5781 2068.5,19.6563 Q2067.8125,20.7188 2067.8125,22.8125 Q2067.8125,24.9063 2068.5,25.9844 Q2069.1875,27.0469 2070.5313,27.0469 Q2071.1563,27.0469 2071.75,26.7813 Q2072.3438,26.5 2072.9688,25.9219 L2072.9688,28.6406 Z " fill="#000000"/><text fill="#000000" font-family="sans-serif" font-size="14" lengthAdjust="spacing" textLength="38.2676" x="2084" y="27.8467">Asset</text><line style="stroke:#181818;stroke-width:0.5;" x1="2056" x2="2124.2676" y1="39" y2="39"/><line style="stroke:#181818;stroke-width:0.5;" x1="2056" x2="2124.2676" y1="47" y2="47"/></g><!--class Platform--><g class="entity" data-qualified-name="Platform" data-source-line="9" id="ent0021"><rect fill="#F1F1F1" height="48" rx="2.5" ry="2.5" style="stroke:#181818;stroke-width:0.5;" width="91.2881" x="1983.5" y="115"/><ellipse cx="1998.5" cy="131" fill="#ADD1B2" rx="11" ry="11" style="stroke:#181818;stroke-width:1;"/><path d="M2001.4688,136.6406 Q2000.8906,136.9375 2000.25,137.0781 Q1999.6094,137.2344 1998.9063,137.2344 Q1996.4063,137.2344 1995.0781,135.5938 Q1993.7656,133.9375 1993.7656,130.8125 Q1993.7656,127.6875 1995.0781,126.0313 Q1996.4063,124.375 1998.9063,124.375 Q1999.6094,124.375 2000.25,124.5313 Q2000.9063,124.6875 2001.4688,124.9844 L2001.4688,127.7031 Q2000.8438,127.125 2000.25,126.8594 Q1999.6563,126.5781 1999.0313,126.5781 Q1997.6875,126.5781 1997,127.6563 Q1996.3125,128.7188 1996.3125,130.8125 Q1996.3125,132.9063 1997,133.9844 Q1997.6875,135.0469 1999.0313,135.0469 Q1999.6563,135.0469 2000.25,134.7813 Q2000.8438,134.5 2001.4688,133.9219 L2001.4688,136.6406 Z " fill="#000000"/><text fill="#000000" font-family="sans-serif" font-size="14" lengthAdjust="spacing" textLength="59.2881" x="2012.5" y="135.8467">Platform</text><line style="stroke:#181818;stroke-width:0.5;" x1="1984.5" x2="2073.7881" y1="147" y2="147"/><line style="stroke:#181818;stroke-width:0.5;" x1="1984.5" x2="2073.7881" y1="155" y2="155"/></g><!--class System--><g class="entity" data-qualified-name="System" data-source-line="10" id="ent0023"><rect fill="#F1F1F1" height="48" rx="2.5" ry="2.5" style="stroke:#181818;stroke-width:0.5;" width="84.2061" x="2110" y="115"/><ellipse cx="2125" cy="131" fill="#ADD1B2" rx="11" ry="11" style="stroke:#181818;stroke-width:1;"/><path d="M2127.9688,136.6406 Q2127.3906,136.9375 2126.75,137.0781 Q2126.1094,137.2344 2125.4063,137.2344 Q2122.9063,137.2344 2121.5781,135.5938 Q2120.2656,133.9375 2120.2656,130.8125 Q2120.2656,127.6875 2121.5781,126.0313 Q2122.9063,124.375 2125.4063,124.375 Q2126.1094,124.375 2126.75,124.5313 Q2127.4063,124.6875 2127.9688,124.9844 L2127.9688,127.7031 Q2127.3438,127.125 2126.75,126.8594 Q2126.1563,126.5781 2125.5313,126.5781 Q2124.1875,126.5781 2123.5,127.6563 Q2122.8125,128.7188 2122.8125,130.8125 Q2122.8125,132.9063 2123.5,133.9844 Q2124.1875,135.0469 2125.5313,135.0469 Q2126.1563,135.0469 2126.75,134.7813 Q2127.3438,134.5 2127.9688,133.9219 L2127.9688,136.6406 Z " fill="#000000"/><text fill="#000000" font-family="sans-serif" font-size="14" lengthAdjust="spacing" textLength="52.2061" x="2139" y="135.8467">System</text><line style="stroke:#181818;stroke-width:0.5;" x1="2111" x2="2193.2061" y1="147" y2="147"/><line style="stroke:#181818;stroke-width:0.5;" x1="2111" x2="2193.2061" y1="155" y2="155"/></g><!--class Sampler--><g class="entity" data-qualified-name="Sampler" data-source-line="10" id="ent0024"><rect fill="#F1F1F1" height="48" rx="2.5" ry="2.5" style="stroke:#181818;stroke-width:0.5;" width="90.249" x="1981" y="223"/><ellipse cx="1996" cy="239" fill="#ADD1B2" rx="11" ry="11" style="stroke:#181818;stroke-width:1;"/><path d="M1998.9688,244.6406 Q1998.3906,244.9375 1997.75,245.0781 Q1997.1094,245.2344 1996.4063,245.2344 Q1993.9063,245.2344 1992.5781,243.5938 Q1991.2656,241.9375 1991.2656,238.8125 Q1991.2656,235.6875 1992.5781,234.0313 Q1993.9063,232.375 1996.4063,232.375 Q1997.1094,232.375 1997.75,232.5313 Q1998.4063,232.6875 1998.9688,232.9844 L1998.9688,235.7031 Q1998.3438,235.125 1997.75,234.8594 Q1997.1563,234.5781 1996.5313,234.5781 Q1995.1875,234.5781 1994.5,235.6563 Q1993.8125,236.7188 1993.8125,238.8125 Q1993.8125,240.9063 1994.5,241.9844 Q1995.1875,243.0469 1996.5313,243.0469 Q1997.1563,243.0469 1997.75,242.7813 Q1998.3438,242.5 1998.9688,241.9219 L1998.9688,244.6406 Z " fill="#000000"/><text fill="#000000" font-family="sans-serif" font-size="14" lengthAdjust="spacing" textLength="58.249" x="2010" y="243.8467">Sampler</text><line style="stroke:#181818;stroke-width:0.5;" x1="1982" x2="2070.249" y1="255" y2="255"/><line style="stroke:#181818;stroke-width:0.5;" x1="1982" x2="2070.249" y1="263" y2="263"/></g><!--class Actuator--><g class="entity" data-qualified-name="Actuator" data-source-line="11" id="ent0026"><rect fill="#F1F1F1" height="48" rx="2.5" ry="2.5" style="stroke:#181818;stroke-width:0.5;" width="92.0264" x="2106" y="223"/><ellipse cx="2121" cy="239" fill="#ADD1B2" rx="11" ry="11" style="stroke:#181818;stroke-width:1;"/><path d="M2123.9688,244.6406 Q2123.3906,244.9375 2122.75,245.0781 Q2122.1094,245.2344 2121.4063,245.2344 Q2118.9063,245.2344 2117.5781,243.5938 Q2116.2656,241.9375 2116.2656,238.8125 Q2116.2656,235.6875 2117.5781,234.0313 Q2118.9063,232.375 2121.4063,232.375 Q2122.1094,232.375 2122.75,232.5313 Q2123.4063,232.6875 2123.9688,232.9844 L2123.9688,235.7031 Q2123.3438,235.125 2122.75,234.8594 Q2122.1563,234.5781 2121.5313,234.5781 Q2120.1875,234.5781 2119.5,235.6563 Q2118.8125,236.7188 2118.8125,238.8125 Q2118.8125,240.9063 2119.5,241.9844 Q2120.1875,243.0469 2121.5313,243.0469 Q2122.1563,243.0469 2122.75,242.7813 Q2123.3438,242.5 2123.9688,241.9219 L2123.9688,244.6406 Z " fill="#000000"/><text fill="#000000" font-family="sans-serif" font-size="14" lengthAdjust="spacing" textLength="60.0264" x="2135" y="243.8467">Actuator</text><line style="stroke:#181818;stroke-width:0.5;" x1="2107" x2="2197.0264" y1="255" y2="255"/><line style="stroke:#181818;stroke-width:0.5;" x1="2107" x2="2197.0264" y1="263" y2="263"/></g><!--class Execution--><g class="entity" data-qualified-name="Execution" data-source-line="13" id="ent0029"><rect fill="#F1F1F1" height="48" rx="2.5" ry="2.5" style="stroke:#181818;stroke-width:0.5;" width="101.1318" x="2361.5" y="7"/><ellipse cx="2376.5" cy="23" fill="#ADD1B2" rx="11" ry="11" style="stroke:#181818;stroke-width:1;"/><path d="M2379.4688,28.6406 Q2378.8906,28.9375 2378.25,29.0781 Q2377.6094,29.2344 2376.9063,29.2344 Q2374.4063,29.2344 2373.0781,27.5938 Q2371.7656,25.9375 2371.7656,22.8125 Q2371.7656,19.6875 2373.0781,18.0313 Q2374.4063,16.375 2376.9063,16.375 Q2377.6094,16.375 2378.25,16.5313 Q2378.9063,16.6875 2379.4688,16.9844 L2379.4688,19.7031 Q2378.8438,19.125 2378.25,18.8594 Q2377.6563,18.5781 2377.0313,18.5781 Q2375.6875,18.5781 2375,19.6563 Q2374.3125,20.7188 2374.3125,22.8125 Q2374.3125,24.9063 2375,25.9844 Q2375.6875,27.0469 2377.0313,27.0469 Q2377.6563,27.0469 2378.25,26.7813 Q2378.8438,26.5 2379.4688,25.9219 L2379.4688,28.6406 Z " fill="#000000"/><text fill="#000000" font-family="sans-serif" font-size="14" lengthAdjust="spacing" textLength="69.1318" x="2390.5" y="27.8467">Execution</text><line style="stroke:#181818;stroke-width:0.5;" x1="2362.5" x2="2461.6318" y1="39" y2="39"/><line style="stroke:#181818;stroke-width:0.5;" x1="2362.5" x2="2461.6318" y1="47" y2="47"/></g><!--class Sampling--><g class="entity" data-qualified-name="Sampling" data-source-line="13" id="ent0030"><rect fill="#F1F1F1" height="48" rx="2.5" ry="2.5" style="stroke:#181818;stroke-width:0.5;" width="97.5293" x="2229" y="115"/><ellipse cx="2244" cy="131" fill="#ADD1B2" rx="11" ry="11" style="stroke:#181818;stroke-width:1;"/><path d="M2246.9688,136.6406 Q2246.3906,136.9375 2245.75,137.0781 Q2245.1094,137.2344 2244.4063,137.2344 Q2241.9063,137.2344 2240.5781,135.5938 Q2239.2656,133.9375 2239.2656,130.8125 Q2239.2656,127.6875 2240.5781,126.0313 Q2241.9063,124.375 2244.4063,124.375 Q2245.1094,124.375 2245.75,124.5313 Q2246.4063,124.6875 2246.9688,124.9844 L2246.9688,127.7031 Q2246.3438,127.125 2245.75,126.8594 Q2245.1563,126.5781 2244.5313,126.5781 Q2243.1875,126.5781 2242.5,127.6563 Q2241.8125,128.7188 2241.8125,130.8125 Q2241.8125,132.9063 2242.5,133.9844 Q2243.1875,135.0469 2244.5313,135.0469 Q2245.1563,135.0469 2245.75,134.7813 Q2246.3438,134.5 2246.9688,133.9219 L2246.9688,136.6406 Z " fill="#000000"/><text fill="#000000" font-family="sans-serif" font-size="14" lengthAdjust="spacing" textLength="65.5293" x="2258" y="135.8467">Sampling</text><line style="stroke:#181818;stroke-width:0.5;" x1="2230" x2="2325.5293" y1="147" y2="147"/><line style="stroke:#181818;stroke-width:0.5;" x1="2230" x2="2325.5293" y1="155" y2="155"/></g><!--class ExecutionCollection--><g class="entity" data-qualified-name="ExecutionCollection" data-source-line="14" id="ent0032"><rect fill="#F1F1F1" height="48" rx="2.5" ry="2.5" style="stroke:#181818;stroke-width:0.5;" width="170.3799" x="2849" y="7"/><ellipse cx="2864" cy="23" fill="#ADD1B2" rx="11" ry="11" style="stroke:#181818;stroke-width:1;"/><path d="M2866.9688,28.6406 Q2866.3906,28.9375 2865.75,29.0781 Q2865.1094,29.2344 2864.4063,29.2344 Q2861.9063,29.2344 2860.5781,27.5938 Q2859.2656,25.9375 2859.2656,22.8125 Q2859.2656,19.6875 2860.5781,18.0313 Q2861.9063,16.375 2864.4063,16.375 Q2865.1094,16.375 2865.75,16.5313 Q2866.4063,16.6875 2866.9688,16.9844 L2866.9688,19.7031 Q2866.3438,19.125 2865.75,18.8594 Q2865.1563,18.5781 2864.5313,18.5781 Q2863.1875,18.5781 2862.5,19.6563 Q2861.8125,20.7188 2861.8125,22.8125 Q2861.8125,24.9063 2862.5,25.9844 Q2863.1875,27.0469 2864.5313,27.0469 Q2865.1563,27.0469 2865.75,26.7813 Q2866.3438,26.5 2866.9688,25.9219 L2866.9688,28.6406 Z " fill="#000000"/><text fill="#000000" font-family="sans-serif" font-size="14" lengthAdjust="spacing" textLength="138.3799" x="2878" y="27.8467">ExecutionCollection</text><line style="stroke:#181818;stroke-width:0.5;" x1="2850" x2="3018.3799" y1="39" y2="39"/><line style="stroke:#181818;stroke-width:0.5;" x1="2850" x2="3018.3799" y1="47" y2="47"/></g><!--class SamplingCollection--><g class="entity" data-qualified-name="SamplingCollection" data-source-line="14" id="ent0033"><rect fill="#F1F1F1" height="48" rx="2.5" ry="2.5" style="stroke:#181818;stroke-width:0.5;" width="166.7773" x="2648.5" y="115"/><ellipse cx="2663.5" cy="131" fill="#ADD1B2" rx="11" ry="11" style="stroke:#181818;stroke-width:1;"/><path d="M2666.4688,136.6406 Q2665.8906,136.9375 2665.25,137.0781 Q2664.6094,137.2344 2663.9063,137.2344 Q2661.4063,137.2344 2660.0781,135.5938 Q2658.7656,133.9375 2658.7656,130.8125 Q2658.7656,127.6875 2660.0781,126.0313 Q2661.4063,124.375 2663.9063,124.375 Q2664.6094,124.375 2665.25,124.5313 Q2665.9063,124.6875 2666.4688,124.9844 L2666.4688,127.7031 Q2665.8438,127.125 2665.25,126.8594 Q2664.6563,126.5781 2664.0313,126.5781 Q2662.6875,126.5781 2662,127.6563 Q2661.3125,128.7188 2661.3125,130.8125 Q2661.3125,132.9063 2662,133.9844 Q2662.6875,135.0469 2664.0313,135.0469 Q2664.6563,135.0469 2665.25,134.7813 Q2665.8438,134.5 2666.4688,133.9219 L2666.4688,136.6406 Z " fill="#000000"/><text fill="#000000" font-family="sans-serif" font-size="14" lengthAdjust="spacing" textLength="134.7773" x="2677.5" y="135.8467">SamplingCollection</text><line style="stroke:#181818;stroke-width:0.5;" x1="2649.5" x2="2814.2773" y1="147" y2="147"/><line style="stroke:#181818;stroke-width:0.5;" x1="2649.5" x2="2814.2773" y1="155" y2="155"/></g><!--class Actuation--><g class="entity" data-qualified-name="Actuation" data-source-line="15" id="ent0035"><rect fill="#F1F1F1" height="48" rx="2.5" ry="2.5" style="stroke:#181818;stroke-width:0.5;" width="99.0332" x="2362.5" y="115"/><ellipse cx="2377.5" cy="131" fill="#ADD1B2" rx="11" ry="11" style="stroke:#181818;stroke-width:1;"/><path d="M2380.4688,136.6406 Q2379.8906,136.9375 2379.25,137.0781 Q2378.6094,137.2344 2377.9063,137.2344 Q2375.4063,137.2344 2374.0781,135.5938 Q2372.7656,133.9375 2372.7656,130.8125 Q2372.7656,127.6875 2374.0781,126.0313 Q2375.4063,124.375 2377.9063,124.375 Q2378.6094,124.375 2379.25,124.5313 Q2379.9063,124.6875 2380.4688,124.9844 L2380.4688,127.7031 Q2379.8438,127.125 2379.25,126.8594 Q2378.6563,126.5781 2378.0313,126.5781 Q2376.6875,126.5781 2376,127.6563 Q2375.3125,128.7188 2375.3125,130.8125 Q2375.3125,132.9063 2376,133.9844 Q2376.6875,135.0469 2378.0313,135.0469 Q2378.6563,135.0469 2379.25,134.7813 Q2379.8438,134.5 2380.4688,133.9219 L2380.4688,136.6406 Z " fill="#000000"/><text fill="#000000" font-family="sans-serif" font-size="14" lengthAdjust="spacing" textLength="67.0332" x="2391.5" y="135.8467">Actuation</text><line style="stroke:#181818;stroke-width:0.5;" x1="2363.5" x2="2460.5332" y1="147" y2="147"/><line style="stroke:#181818;stroke-width:0.5;" x1="2363.5" x2="2460.5332" y1="155" y2="155"/></g><!--class Sensor--><g class="entity" data-qualified-name="Sensor" data-source-line="16" id="ent0037"><rect fill="#F1F1F1" height="48" rx="2.5" ry="2.5" style="stroke:#181818;stroke-width:0.5;" width="79.9883" x="2233" y="223"/><ellipse cx="2248" cy="239" fill="#ADD1B2" rx="11" ry="11" style="stroke:#181818;stroke-width:1;"/><path d="M2250.9688,244.6406 Q2250.3906,244.9375 2249.75,245.0781 Q2249.1094,245.2344 2248.4063,245.2344 Q2245.9063,245.2344 2244.5781,243.5938 Q2243.2656,241.9375 2243.2656,238.8125 Q2243.2656,235.6875 2244.5781,234.0313 Q2245.9063,232.375 2248.4063,232.375 Q2249.1094,232.375 2249.75,232.5313 Q2250.4063,232.6875 2250.9688,232.9844 L2250.9688,235.7031 Q2250.3438,235.125 2249.75,234.8594 Q2249.1563,234.5781 2248.5313,234.5781 Q2247.1875,234.5781 2246.5,235.6563 Q2245.8125,236.7188 2245.8125,238.8125 Q2245.8125,240.9063 2246.5,241.9844 Q2247.1875,243.0469 2248.5313,243.0469 Q2249.1563,243.0469 2249.75,242.7813 Q2250.3438,242.5 2250.9688,241.9219 L2250.9688,244.6406 Z " fill="#000000"/><text fill="#000000" font-family="sans-serif" font-size="14" lengthAdjust="spacing" textLength="47.9883" x="2262" y="243.8467">Sensor</text><line style="stroke:#181818;stroke-width:0.5;" x1="2234" x2="2311.9883" y1="255" y2="255"/><line style="stroke:#181818;stroke-width:0.5;" x1="2234" x2="2311.9883" y1="263" y2="263"/></g><!--class ActuationCollection--><g class="entity" data-qualified-name="ActuationCollection" data-source-line="17" id="ent0039"><rect fill="#F1F1F1" height="48" rx="2.5" ry="2.5" style="stroke:#181818;stroke-width:0.5;" width="168.2813" x="2850" y="115"/><ellipse cx="2865" cy="131" fill="#ADD1B2" rx="11" ry="11" style="stroke:#181818;stroke-width:1;"/><path d="M2867.9688,136.6406 Q2867.3906,136.9375 2866.75,137.0781 Q2866.1094,137.2344 2865.4063,137.2344 Q2862.9063,137.2344 2861.5781,135.5938 Q2860.2656,133.9375 2860.2656,130.8125 Q2860.2656,127.6875 2861.5781,126.0313 Q2862.9063,124.375 2865.4063,124.375 Q2866.1094,124.375 2866.75,124.5313 Q2867.4063,124.6875 2867.9688,124.9844 L2867.9688,127.7031 Q2867.3438,127.125 2866.75,126.8594 Q2866.1563,126.5781 2865.5313,126.5781 Q2864.1875,126.5781 2863.5,127.6563 Q2862.8125,128.7188 2862.8125,130.8125 Q2862.8125,132.9063 2863.5,133.9844 Q2864.1875,135.0469 2865.5313,135.0469 Q2866.1563,135.0469 2866.75,134.7813 Q2867.3438,134.5 2867.9688,133.9219 L2867.9688,136.6406 Z " fill="#000000"/><text fill="#000000" font-family="sans-serif" font-size="14" lengthAdjust="spacing" textLength="136.2813" x="2879" y="135.8467">ActuationCollection</text><line style="stroke:#181818;stroke-width:0.5;" x1="2851" x2="3017.2813" y1="147" y2="147"/><line style="stroke:#181818;stroke-width:0.5;" x1="2851" x2="3017.2813" y1="155" y2="155"/></g><!--class ObservationCollection--><g class="entity" data-qualified-name="ObservationCollection" data-source-line="18" id="ent0041"><rect fill="#F1F1F1" height="48" rx="2.5" ry="2.5" style="stroke:#181818;stroke-width:0.5;" width="186.499" x="3053" y="115"/><ellipse cx="3068" cy="131" fill="#ADD1B2" rx="11" ry="11" style="stroke:#181818;stroke-width:1;"/><path d="M3070.9688,136.6406 Q3070.3906,136.9375 3069.75,137.0781 Q3069.1094,137.2344 3068.4063,137.2344 Q3065.9063,137.2344 3064.5781,135.5938 Q3063.2656,133.9375 3063.2656,130.8125 Q3063.2656,127.6875 3064.5781,126.0313 Q3065.9063,124.375 3068.4063,124.375 Q3069.1094,124.375 3069.75,124.5313 Q3070.4063,124.6875 3070.9688,124.9844 L3070.9688,127.7031 Q3070.3438,127.125 3069.75,126.8594 Q3069.1563,126.5781 3068.5313,126.5781 Q3067.1875,126.5781 3066.5,127.6563 Q3065.8125,128.7188 3065.8125,130.8125 Q3065.8125,132.9063 3066.5,133.9844 Q3067.1875,135.0469 3068.5313,135.0469 Q3069.1563,135.0469 3069.75,134.7813 Q3070.3438,134.5 3070.9688,133.9219 L3070.9688,136.6406 Z " fill="#000000"/><text fill="#000000" font-family="sans-serif" font-size="14" lengthAdjust="spacing" textLength="154.499" x="3082" y="135.8467">ObservationCollection</text><line style="stroke:#181818;stroke-width:0.5;" x1="3054" x2="3238.499" y1="147" y2="147"/><line style="stroke:#181818;stroke-width:0.5;" x1="3054" x2="3238.499" y1="155" y2="155"/></g><!--class Observation--><g class="entity" data-qualified-name="Observation" data-source-line="19" id="ent0043"><rect fill="#F1F1F1" height="48" rx="2.5" ry="2.5" style="stroke:#181818;stroke-width:0.5;" width="117.251" x="2496.5" y="115"/><ellipse cx="2511.5" cy="131" fill="#ADD1B2" rx="11" ry="11" style="stroke:#181818;stroke-width:1;"/><path d="M2514.4688,136.6406 Q2513.8906,136.9375 2513.25,137.0781 Q2512.6094,137.2344 2511.9063,137.2344 Q2509.4063,137.2344 2508.0781,135.5938 Q2506.7656,133.9375 2506.7656,130.8125 Q2506.7656,127.6875 2508.0781,126.0313 Q2509.4063,124.375 2511.9063,124.375 Q2512.6094,124.375 2513.25,124.5313 Q2513.9063,124.6875 2514.4688,124.9844 L2514.4688,127.7031 Q2513.8438,127.125 2513.25,126.8594 Q2512.6563,126.5781 2512.0313,126.5781 Q2510.6875,126.5781 2510,127.6563 Q2509.3125,128.7188 2509.3125,130.8125 Q2509.3125,132.9063 2510,133.9844 Q2510.6875,135.0469 2512.0313,135.0469 Q2512.6563,135.0469 2513.25,134.7813 Q2513.8438,134.5 2514.4688,133.9219 L2514.4688,136.6406 Z " fill="#000000"/><text fill="#000000" font-family="sans-serif" font-size="14" lengthAdjust="spacing" textLength="85.251" x="2525.5" y="135.8467">Observation</text><line style="stroke:#181818;stroke-width:0.5;" x1="2497.5" x2="2612.751" y1="147" y2="147"/><line style="stroke:#181818;stroke-width:0.5;" x1="2497.5" x2="2612.751" y1="155" y2="155"/></g><!--class FeatureOfInterest--><g class="entity" data-qualified-name="FeatureOfInterest" data-source-line="20" id="ent0045"><rect fill="#F1F1F1" height="48" rx="2.5" ry="2.5" style="stroke:#181818;stroke-width:0.5;" width="156.1816" x="7" y="7"/><ellipse cx="22" cy="23" fill="#ADD1B2" rx="11" ry="11" style="stroke:#181818;stroke-width:1;"/><path d="M24.9688,28.6406 Q24.3906,28.9375 23.75,29.0781 Q23.1094,29.2344 22.4063,29.2344 Q19.9063,29.2344 18.5781,27.5938 Q17.2656,25.9375 17.2656,22.8125 Q17.2656,19.6875 18.5781,18.0313 Q19.9063,16.375 22.4063,16.375 Q23.1094,16.375 23.75,16.5313 Q24.4063,16.6875 24.9688,16.9844 L24.9688,19.7031 Q24.3438,19.125 23.75,18.8594 Q23.1563,18.5781 22.5313,18.5781 Q21.1875,18.5781 20.5,19.6563 Q19.8125,20.7188 19.8125,22.8125 Q19.8125,24.9063 20.5,25.9844 Q21.1875,27.0469 22.5313,27.0469 Q23.1563,27.0469 23.75,26.7813 Q24.3438,26.5 24.9688,25.9219 L24.9688,28.6406 Z " fill="#000000"/><text fill="#000000" font-family="sans-serif" font-size="14" lengthAdjust="spacing" textLength="124.1816" x="36" y="27.8467">FeatureOfInterest</text><line style="stroke:#181818;stroke-width:0.5;" x1="8" x2="162.1816" y1="39" y2="39"/><line style="stroke:#181818;stroke-width:0.5;" x1="8" x2="162.1816" y1="47" y2="47"/></g><!--class SampleCollection--><g class="entity" data-qualified-name="SampleCollection" data-source-line="21" id="ent0046"><rect fill="#F1F1F1" height="48" rx="2.5" ry="2.5" style="stroke:#181818;stroke-width:0.5;" width="153.7412" x="198" y="7"/><ellipse cx="213" cy="23" fill="#ADD1B2" rx="11" ry="11" style="stroke:#181818;stroke-width:1;"/><path d="M215.9688,28.6406 Q215.3906,28.9375 214.75,29.0781 Q214.1094,29.2344 213.4063,29.2344 Q210.9063,29.2344 209.5781,27.5938 Q208.2656,25.9375 208.2656,22.8125 Q208.2656,19.6875 209.5781,18.0313 Q210.9063,16.375 213.4063,16.375 Q214.1094,16.375 214.75,16.5313 Q215.4063,16.6875 215.9688,16.9844 L215.9688,19.7031 Q215.3438,19.125 214.75,18.8594 Q214.1563,18.5781 213.5313,18.5781 Q212.1875,18.5781 211.5,19.6563 Q210.8125,20.7188 210.8125,22.8125 Q210.8125,24.9063 211.5,25.9844 Q212.1875,27.0469 213.5313,27.0469 Q214.1563,27.0469 214.75,26.7813 Q215.3438,26.5 215.9688,25.9219 L215.9688,28.6406 Z " fill="#000000"/><text fill="#000000" font-family="sans-serif" font-size="14" lengthAdjust="spacing" textLength="121.7412" x="227" y="27.8467">SampleCollection</text><line style="stroke:#181818;stroke-width:0.5;" x1="199" x2="350.7412" y1="39" y2="39"/><line style="stroke:#181818;stroke-width:0.5;" x1="199" x2="350.7412" y1="47" y2="47"/></g><!--class Input--><g class="entity" data-qualified-name="Input" data-source-line="22" id="ent0047"><rect fill="#F1F1F1" height="48" rx="2.5" ry="2.5" style="stroke:#181818;stroke-width:0.5;" width="68.251" x="387" y="7"/><ellipse cx="402" cy="23" fill="#ADD1B2" rx="11" ry="11" style="stroke:#181818;stroke-width:1;"/><path d="M404.9688,28.6406 Q404.3906,28.9375 403.75,29.0781 Q403.1094,29.2344 402.4063,29.2344 Q399.9063,29.2344 398.5781,27.5938 Q397.2656,25.9375 397.2656,22.8125 Q397.2656,19.6875 398.5781,18.0313 Q399.9063,16.375 402.4063,16.375 Q403.1094,16.375 403.75,16.5313 Q404.4063,16.6875 404.9688,16.9844 L404.9688,19.7031 Q404.3438,19.125 403.75,18.8594 Q403.1563,18.5781 402.5313,18.5781 Q401.1875,18.5781 400.5,19.6563 Q399.8125,20.7188 399.8125,22.8125 Q399.8125,24.9063 400.5,25.9844 Q401.1875,27.0469 402.5313,27.0469 Q403.1563,27.0469 403.75,26.7813 Q404.3438,26.5 404.9688,25.9219 L404.9688,28.6406 Z " fill="#000000"/><text fill="#000000" font-family="sans-serif" font-size="14" lengthAdjust="spacing" textLength="36.251" x="416" y="27.8467">Input</text><line style="stroke:#181818;stroke-width:0.5;" x1="388" x2="454.251" y1="39" y2="39"/><line style="stroke:#181818;stroke-width:0.5;" x1="388" x2="454.251" y1="47" y2="47"/></g><!--class Deployment--><g class="entity" data-qualified-name="Deployment" data-source-line="24" id="ent0048"><rect fill="#F1F1F1" height="48" rx="2.5" ry="2.5" style="stroke:#181818;stroke-width:0.5;" width="117.6338" x="26" y="115"/><ellipse cx="41" cy="131" fill="#ADD1B2" rx="11" ry="11" style="stroke:#181818;stroke-width:1;"/><path d="M43.9688,136.6406 Q43.3906,136.9375 42.75,137.0781 Q42.1094,137.2344 41.4063,137.2344 Q38.9063,137.2344 37.5781,135.5938 Q36.2656,133.9375 36.2656,130.8125 Q36.2656,127.6875 37.5781,126.0313 Q38.9063,124.375 41.4063,124.375 Q42.1094,124.375 42.75,124.5313 Q43.4063,124.6875 43.9688,124.9844 L43.9688,127.7031 Q43.3438,127.125 42.75,126.8594 Q42.1563,126.5781 41.5313,126.5781 Q40.1875,126.5781 39.5,127.6563 Q38.8125,128.7188 38.8125,130.8125 Q38.8125,132.9063 39.5,133.9844 Q40.1875,135.0469 41.5313,135.0469 Q42.1563,135.0469 42.75,134.7813 Q43.3438,134.5 43.9688,133.9219 L43.9688,136.6406 Z " fill="#000000"/><text fill="#000000" font-family="sans-serif" font-size="14" lengthAdjust="spacing" textLength="85.6338" x="55" y="135.8467">Deployment</text><line style="stroke:#181818;stroke-width:0.5;" x1="27" x2="142.6338" y1="147" y2="147"/><line style="stroke:#181818;stroke-width:0.5;" x1="27" x2="142.6338" y1="155" y2="155"/></g><!--class Stimulus--><g class="entity" data-qualified-name="Stimulus" data-source-line="26" id="ent0049"><rect fill="#F1F1F1" height="48" rx="2.5" ry="2.5" style="stroke:#181818;stroke-width:0.5;" width="92.833" x="179.5" y="115"/><ellipse cx="194.5" cy="131" fill="#ADD1B2" rx="11" ry="11" style="stroke:#181818;stroke-width:1;"/><path d="M197.4688,136.6406 Q196.8906,136.9375 196.25,137.0781 Q195.6094,137.2344 194.9063,137.2344 Q192.4063,137.2344 191.0781,135.5938 Q189.7656,133.9375 189.7656,130.8125 Q189.7656,127.6875 191.0781,126.0313 Q192.4063,124.375 194.9063,124.375 Q195.6094,124.375 196.25,124.5313 Q196.9063,124.6875 197.4688,124.9844 L197.4688,127.7031 Q196.8438,127.125 196.25,126.8594 Q195.6563,126.5781 195.0313,126.5781 Q193.6875,126.5781 193,127.6563 Q192.3125,128.7188 192.3125,130.8125 Q192.3125,132.9063 193,133.9844 Q193.6875,135.0469 195.0313,135.0469 Q195.6563,135.0469 196.25,134.7813 Q196.8438,134.5 197.4688,133.9219 L197.4688,136.6406 Z " fill="#000000"/><text fill="#000000" font-family="sans-serif" font-size="14" lengthAdjust="spacing" textLength="60.833" x="208.5" y="135.8467">Stimulus</text><line style="stroke:#181818;stroke-width:0.5;" x1="180.5" x2="271.333" y1="147" y2="147"/><line style="stroke:#181818;stroke-width:0.5;" x1="180.5" x2="271.333" y1="155" y2="155"/></g><!--class Result--><g class="entity" data-qualified-name="Result" data-source-line="27" id="ent0050"><rect fill="#F1F1F1" height="48" rx="2.5" ry="2.5" style="stroke:#181818;stroke-width:0.5;" width="75.8867" x="308" y="115"/><ellipse cx="323" cy="131" fill="#ADD1B2" rx="11" ry="11" style="stroke:#181818;stroke-width:1;"/><path d="M325.9688,136.6406 Q325.3906,136.9375 324.75,137.0781 Q324.1094,137.2344 323.4063,137.2344 Q320.9063,137.2344 319.5781,135.5938 Q318.2656,133.9375 318.2656,130.8125 Q318.2656,127.6875 319.5781,126.0313 Q320.9063,124.375 323.4063,124.375 Q324.1094,124.375 324.75,124.5313 Q325.4063,124.6875 325.9688,124.9844 L325.9688,127.7031 Q325.3438,127.125 324.75,126.8594 Q324.1563,126.5781 323.5313,126.5781 Q322.1875,126.5781 321.5,127.6563 Q320.8125,128.7188 320.8125,130.8125 Q320.8125,132.9063 321.5,133.9844 Q322.1875,135.0469 323.5313,135.0469 Q324.1563,135.0469 324.75,134.7813 Q325.3438,134.5 325.9688,133.9219 L325.9688,136.6406 Z " fill="#000000"/><text fill="#000000" font-family="sans-serif" font-size="14" lengthAdjust="spacing" textLength="43.8867" x="337" y="135.8467">Result</text><line style="stroke:#181818;stroke-width:0.5;" x1="309" x2="382.8867" y1="147" y2="147"/><line style="stroke:#181818;stroke-width:0.5;" x1="309" x2="382.8867" y1="155" y2="155"/></g><!--class Output--><g class="entity" data-qualified-name="Output" data-source-line="29" id="ent0051"><rect fill="#F1F1F1" height="48" rx="2.5" ry="2.5" style="stroke:#181818;stroke-width:0.5;" width="80.6309" x="44.5" y="223"/><ellipse cx="59.5" cy="239" fill="#ADD1B2" rx="11" ry="11" style="stroke:#181818;stroke-width:1;"/><path d="M62.4688,244.6406 Q61.8906,244.9375 61.25,245.0781 Q60.6094,245.2344 59.9063,245.2344 Q57.4063,245.2344 56.0781,243.5938 Q54.7656,241.9375 54.7656,238.8125 Q54.7656,235.6875 56.0781,234.0313 Q57.4063,232.375 59.9063,232.375 Q60.6094,232.375 61.25,232.5313 Q61.9063,232.6875 62.4688,232.9844 L62.4688,235.7031 Q61.8438,235.125 61.25,234.8594 Q60.6563,234.5781 60.0313,234.5781 Q58.6875,234.5781 58,235.6563 Q57.3125,236.7188 57.3125,238.8125 Q57.3125,240.9063 58,241.9844 Q58.6875,243.0469 60.0313,243.0469 Q60.6563,243.0469 61.25,242.7813 Q61.8438,242.5 62.4688,241.9219 L62.4688,244.6406 Z " fill="#000000"/><text fill="#000000" font-family="sans-serif" font-size="14" lengthAdjust="spacing" textLength="48.6309" x="73.5" y="243.8467">Output</text><line style="stroke:#181818;stroke-width:0.5;" x1="45.5" x2="124.1309" y1="255" y2="255"/><line style="stroke:#181818;stroke-width:0.5;" x1="45.5" x2="124.1309" y1="263" y2="263"/></g><!--reverse link Property to ActuatableProperty--><g class="link" data-entity-1="ent0001" data-entity-2="ent0002" data-link-type="extension" data-source-line="1" id="lnk3"><path codeLine="1" d="M582.7409,66.9745 C562.9209,84.6345 549.09,96.94 529.18,114.68" fill="none" id="Property-backto-ActuatableProperty" style="stroke:#181818;stroke-width:1;"/><polygon fill="none" points="596.18,55,578.7493,62.4948,586.7324,71.4542,596.18,55" style="stroke:#181818;stroke-width:1;stroke-linejoin:miter;stroke-miterlimit:10;"/></g><!--reverse link Sample to MaterialSample--><g class="link" data-entity-1="ent0004" data-entity-2="ent0005" data-link-type="extension" data-source-line="2" id="lnk6"><path codeLine="2" d="M1019.3567,64.4445 C990.6067,82.1645 966.35,97.11 937.55,114.86" fill="none" id="Sample-backto-MaterialSample" style="stroke:#181818;stroke-width:1;"/><polygon fill="none" points="1034.68,55,1016.2086,59.3367,1022.5049,69.5522,1034.68,55" style="stroke:#181818;stroke-width:1;stroke-linejoin:miter;stroke-miterlimit:10;"/></g><!--reverse link Sample to SpatialSample--><g class="link" data-entity-1="ent0004" data-entity-2="ent0007" data-link-type="extension" data-source-line="3" id="lnk8"><path codeLine="3" d="M1072,73 C1072,90.66 1072,96.94 1072,114.68" fill="none" id="Sample-backto-SpatialSample" style="stroke:#181818;stroke-width:1;"/><polygon fill="none" points="1072,55,1066,73,1078,73,1072,55" style="stroke:#181818;stroke-width:1;stroke-linejoin:miter;stroke-miterlimit:10;"/></g><!--reverse link Sample to StatisticalSample--><g class="link" data-entity-1="ent0004" data-entity-2="ent0009" data-link-type="extension" data-source-line="4" id="lnk10"><path codeLine="4" d="M1126.3276,64.1725 C1156.2476,81.8925 1181.95,97.11 1211.93,114.86" fill="none" id="Sample-backto-StatisticalSample" style="stroke:#181818;stroke-width:1;"/><polygon fill="none" points="1110.84,55,1123.2701,69.335,1129.3851,59.0099,1110.84,55" style="stroke:#181818;stroke-width:1;stroke-linejoin:miter;stroke-miterlimit:10;"/></g><!--reverse link Property to ObservableProperty--><g class="link" data-entity-1="ent0001" data-entity-2="ent0011" data-link-type="extension" data-source-line="5" id="lnk12"><path codeLine="5" d="M652.0017,68.9773 C666.3317,86.6373 674.69,96.94 689.08,114.68" fill="none" id="Property-backto-ObservableProperty" style="stroke:#181818;stroke-width:1;"/><polygon fill="none" points="640.66,55,647.3426,72.7579,656.6608,65.1967,640.66,55" style="stroke:#181818;stroke-width:1;stroke-linejoin:miter;stroke-miterlimit:10;"/></g><!--reverse link Procedure to ActuatingProcedure--><g class="link" data-entity-1="ent0013" data-entity-2="ent0014" data-link-type="extension" data-source-line="6" id="lnk15"><path codeLine="6" d="M1595.8326,63.1732 C1561.0626,80.8932 1529.24,97.11 1494.4,114.86" fill="none" id="Procedure-backto-ActuatingProcedure" style="stroke:#181818;stroke-width:1;"/><polygon fill="none" points="1611.87,55,1593.1082,57.8274,1598.557,68.519,1611.87,55" style="stroke:#181818;stroke-width:1;stroke-linejoin:miter;stroke-miterlimit:10;"/></g><!--reverse link Procedure to ObservingProcedure--><g class="link" data-entity-1="ent0013" data-entity-2="ent0016" data-link-type="extension" data-source-line="7" id="lnk17"><path codeLine="7" d="M1657,73 C1657,90.66 1657,96.94 1657,114.68" fill="none" id="Procedure-backto-ObservingProcedure" style="stroke:#181818;stroke-width:1;"/><polygon fill="none" points="1657,55,1651,73,1663,73,1657,55" style="stroke:#181818;stroke-width:1;stroke-linejoin:miter;stroke-miterlimit:10;"/></g><!--reverse link Procedure to SamplingProcedure--><g class="link" data-entity-1="ent0013" data-entity-2="ent0018" data-link-type="extension" data-source-line="8" id="lnk19"><path codeLine="8" d="M1717.9411,63.205 C1752.5411,80.925 1784.15,97.11 1818.81,114.86" fill="none" id="Procedure-backto-SamplingProcedure" style="stroke:#181818;stroke-width:1;"/><polygon fill="none" points="1701.92,55,1715.2061,68.5454,1720.6762,57.8647,1701.92,55" style="stroke:#181818;stroke-width:1;stroke-linejoin:miter;stroke-miterlimit:10;"/></g><!--reverse link Asset to Platform--><g class="link" data-entity-1="ent0020" data-entity-2="ent0021" data-link-type="extension" data-source-line="9" id="lnk22"><path codeLine="9" d="M2067.7839,70.6022 C2057.6239,88.2622 2052.63,96.94 2042.42,114.68" fill="none" id="Asset-backto-Platform" style="stroke:#181818;stroke-width:1;"/><polygon fill="none" points="2076.76,55,2062.5831,67.6102,2072.9846,73.5943,2076.76,55" style="stroke:#181818;stroke-width:1;stroke-linejoin:miter;stroke-miterlimit:10;"/></g><!--reverse link System to Sampler--><g class="link" data-entity-1="ent0023" data-entity-2="ent0024" data-link-type="extension" data-source-line="10" id="lnk25"><path codeLine="10" d="M2110.8865,174.5884 C2089.8965,192.2484 2074.81,204.94 2053.72,222.68" fill="none" id="System-backto-Sampler" style="stroke:#181818;stroke-width:1;"/><polygon fill="none" points="2124.66,163,2107.0237,169.9972,2114.7493,179.1795,2124.66,163" style="stroke:#181818;stroke-width:1;stroke-linejoin:miter;stroke-miterlimit:10;"/></g><!--reverse link System to Actuator--><g class="link" data-entity-1="ent0023" data-entity-2="ent0026" data-link-type="extension" data-source-line="11" id="lnk27"><path codeLine="11" d="M2152,181 C2152,198.66 2152,204.94 2152,222.68" fill="none" id="System-backto-Actuator" style="stroke:#181818;stroke-width:1;"/><polygon fill="none" points="2152,163,2146,181,2158,181,2152,163" style="stroke:#181818;stroke-width:1;stroke-linejoin:miter;stroke-miterlimit:10;"/></g><!--reverse link Asset to System--><g class="link" data-entity-1="ent0020" data-entity-2="ent0023" data-link-type="extension" data-source-line="12" id="lnk28"><path codeLine="12" d="M2112.5383,70.5372 C2122.8683,88.1972 2127.98,96.94 2138.36,114.68" fill="none" id="Asset-backto-System" style="stroke:#181818;stroke-width:1;"/><polygon fill="none" points="2103.45,55,2107.3592,73.5666,2117.7173,67.5077,2103.45,55" style="stroke:#181818;stroke-width:1;stroke-linejoin:miter;stroke-miterlimit:10;"/></g><!--reverse link Execution to Sampling--><g class="link" data-entity-1="ent0029" data-entity-2="ent0030" data-link-type="extension" data-source-line="13" id="lnk31"><path codeLine="13" d="M2368.8041,66.1688 C2346.4841,83.8288 2329.91,96.94 2307.48,114.68" fill="none" id="Execution-backto-Sampling" style="stroke:#181818;stroke-width:1;"/><polygon fill="none" points="2382.92,55,2365.0812,61.4635,2372.527,70.8741,2382.92,55" style="stroke:#181818;stroke-width:1;stroke-linejoin:miter;stroke-miterlimit:10;"/></g><!--reverse link ExecutionCollection to SamplingCollection--><g class="link" data-entity-1="ent0032" data-entity-2="ent0033" data-link-type="extension" data-source-line="14" id="lnk34"><path codeLine="14" d="M2874.231,63.3636 C2840.461,81.0836 2809.93,97.11 2776.09,114.86" fill="none" id="ExecutionCollection-backto-SamplingCollection" style="stroke:#181818;stroke-width:1;"/><polygon fill="none" points="2890.17,55,2871.4432,58.0506,2877.0189,68.6766,2890.17,55" style="stroke:#181818;stroke-width:1;stroke-linejoin:miter;stroke-miterlimit:10;"/></g><!--reverse link Execution to Actuation--><g class="link" data-entity-1="ent0029" data-entity-2="ent0035" data-link-type="extension" data-source-line="15" id="lnk36"><path codeLine="15" d="M2412,73 C2412,90.66 2412,96.94 2412,114.68" fill="none" id="Execution-backto-Actuation" style="stroke:#181818;stroke-width:1;"/><polygon fill="none" points="2412,55,2406,73,2418,73,2412,55" style="stroke:#181818;stroke-width:1;stroke-linejoin:miter;stroke-miterlimit:10;"/></g><!--reverse link System to Sensor--><g class="link" data-entity-1="ent0023" data-entity-2="ent0037" data-link-type="extension" data-source-line="16" id="lnk38"><path codeLine="16" d="M2191.7968,174.864 C2211.9468,192.524 2226.13,204.94 2246.38,222.68" fill="none" id="System-backto-Sensor" style="stroke:#181818;stroke-width:1;"/><polygon fill="none" points="2178.26,163,2187.8421,179.3763,2195.7515,170.3518,2178.26,163" style="stroke:#181818;stroke-width:1;stroke-linejoin:miter;stroke-miterlimit:10;"/></g><!--reverse link ExecutionCollection to ActuationCollection--><g class="link" data-entity-1="ent0032" data-entity-2="ent0039" data-link-type="extension" data-source-line="17" id="lnk40"><path codeLine="17" d="M2934,73 C2934,90.66 2934,96.94 2934,114.68" fill="none" id="ExecutionCollection-backto-ActuationCollection" style="stroke:#181818;stroke-width:1;"/><polygon fill="none" points="2934,55,2928,73,2940,73,2934,55" style="stroke:#181818;stroke-width:1;stroke-linejoin:miter;stroke-miterlimit:10;"/></g><!--reverse link ExecutionCollection to ObservationCollection--><g class="link" data-entity-1="ent0032" data-entity-2="ent0041" data-link-type="extension" data-source-line="18" id="lnk42"><path codeLine="18" d="M2996.0997,63.0498 C3031.5397,80.7698 3064.22,97.11 3099.72,114.86" fill="none" id="ExecutionCollection-backto-ObservationCollection" style="stroke:#181818;stroke-width:1;"/><polygon fill="none" points="2980,55,2993.4164,68.4164,2998.783,57.6833,2980,55" style="stroke:#181818;stroke-width:1;stroke-linejoin:miter;stroke-miterlimit:10;"/></g><!--reverse link Execution to Observation--><g class="link" data-entity-1="ent0029" data-entity-2="ent0043" data-link-type="extension" data-source-line="19" id="lnk44"><path codeLine="19" d="M2457.4895,65.7202 C2481.3095,83.3802 2499.61,96.94 2523.54,114.68" fill="none" id="Execution-backto-Observation" style="stroke:#181818;stroke-width:1;"/><polygon fill="none" points="2443.03,55,2453.9161,70.54,2461.0629,60.9004,2443.03,55" style="stroke:#181818;stroke-width:1;stroke-linejoin:miter;stroke-miterlimit:10;"/></g><?plantuml-src VL99RiCm3Bpx5Vv0Vj1Bq0N8eR1Hlq1HcK80jK2aWXheuokKgY8vTM_Yp7268ZX77o3oEZvy7GxZKNDIhCu8Sy67HTc08FIhOeX6eM0TjGJ5EmndXjZeoivTvdGcYDSkCpyqlAS8xLJ6VLHygn2F_nG_qPtWI0Giv8oABpxQOLc9mJOT43jC9l6nRHP-UFu4dTXur-VTy4UF2FfUSSEt7kNVcUZc0aTvWbtVslMNyLPSbhydlnCD6XNH-0AAymwdoydbYm3YWilE6YU1JowaAf5rIV440VrgmV4UiB2n2HELyWqeuIzNxqNAAN4JK_g-0G00?></g></svg>