<svg xmlns="http://www.w3.org/2000/svg" xmlns:xlink="http://www.w3.org/1999/xlink" contentStyleType="text/css" data-diagram-type="CLASS" height="286px" preserveAspectRatio="none" style="width:3253px;height:286px;background:#FFFFFF;" version="1.1" viewBox="0 0 3253 286" width="3253px" zoomAndPan="magnify"><?plantuml 1.2026.6?><defs/><g><!--class Property--><g class="entity" data-qualified-name="Property" data-source-line="1" id="ent0001"><rect fill="#F1F1F1" height="48" rx="2.5" ry="2.5" style="stroke:#181818;stroke-width:0.5;" width="91.7939" x="589" y="7"/><ellipse cx="604" cy="23" fill="#ADD1B2" rx="11" ry="11" style="stroke:#181818;stroke-width:1;"/><path d="M606.9688,28.6406 Q606.3906,28.9375 605.75,29.0781 Q605.1094,29.2344 604.4063,29.2344 Q601.9063,29.2344 600.5781,27.5938 Q599.2656,25.9375 599.2656,22.8125 Q599.2656,19.6875 600.5781,18.0313 Q601.9063,16.375 604.4063,16.375 Q605.1094,16.375 605.75,16.5313 Q606.4063,16.6875 606.9688,16.9844 L606.9688,19.7031 Q606.3438,19.125 605.75,18.8594 Q605.1563,18.5781 604.5313,18.5781 Q603.1875,18.5781 602.5,19.6563 Q601.8125,20.7188 601.8125,22.8125 Q601.8125,24.9063 602.5,25.9844 Q603.1875,27.0469 604.5313,27.0469 Q605.1563,27.0469 605.75,26.7813 Q606.3438,26.5 606.9688,25.9219 L606.9688,28.6406 Z " fill="#000000"/><text fill="#000000" font-family="sans-serif" font-size="14" lengthAdjust="spacing" textLength="59.7939" x="618" y="27.8467">Property</text><line style="stroke:#181818;stroke-width:0.5;" x1="590" x2="679.7939" y1="39" y2="39"/><line style="stroke:#181818;stroke-width:0.5;" x1="590" x2="679.7939" y1="47" y2="47"/></g><!--class ActuatableProperty--><g class="entity" data-qualified-name="ActuatableProperty" data-source-line="1" id="ent0002"><rect fill="#F1F1F1" height="48" rx="2.5" ry="2.5" style="stroke:#181818;stroke-width:0.5;" width="167.4678" x="418.5" y="115"/><ellipse cx="433.5" cy="131" fill="#ADD1B2" rx="11" ry="11" style="stroke:#181818;stroke-width:1;"/><path d="M436.4688,136.6406 Q435.8906,136.9375 435.25,137.0781 Q434.6094,137.2344 433.9063,137.2344 Q431.4063,137.2344 430.0781,135.5938 Q428.7656,133.9375 428.7656,130.8125 Q428.7656,127.6875 430.0781,126.0313 Q431.4063,124.375 433.9063,124.375 Q434.6094,124.375 435.25,124.5313 Q435.9063,124.6875 436.4688,124.9844 L436.4688,127.7031 Q435.8438,127.125 435.25,126.8594 Q434.6563,126.5781 434.0313,126.5781 Q432.6875,126.5781 432,127.6563 Q431.3125,128.7188 431.3125,130.8125 Q431.3125,132.9063 432,133.9844 Q432.6875,135.0469 434.0313,135.0469 Q434.6563,135.0469 435.25,134.7813 Q435.8438,134.5 436.4688,133.9219 L436.4688,136.6406 Z " fill="#000000"/><text fill="#000000" font-family="sans-serif" font-size="14" lengthAdjust="spacing" textLength="135.4678" x="447.5" y="135.8467">ActuatableProperty</text><line style="stroke:#181818;stroke-width:0.5;" x1="419.5" x2="584.9678" y1="147" y2="147"/><line style="stroke:#181818;stroke-width:0.5;" x1="419.5" x2="584.9678" y1="155" y2="155"/></g><!--class Sample--><g class="entity" data-qualified-name="Sample" data-source-line="2" id="ent0004"><rect fill="#F1F1F1" height="48" rx="2.5" ry="2.5" style="stroke:#181818;stroke-width:0.5;" width="84.4932" x="1029" y="7"/><ellipse cx="1044" cy="23" fill="#ADD1B2" rx="11" ry="11" style="stroke:#181818;stroke-width:1;"/><path d="M1046.9688,28.6406 Q1046.3906,28.9375 1045.75,29.0781 Q1045.1094,29.2344 1044.4063,29.2344 Q1041.9063,29.2344 1040.5781,27.5938 Q1039.2656,25.9375 1039.2656,22.8125 Q1039.2656,19.6875 1040.5781,18.0313 Q1041.9063,16.375 1044.4063,16.375 Q1045.1094,16.375 1045.75,16.5313 Q1046.4063,16.6875 1046.9688,16.9844 L1046.9688,19.7031 Q1046.3438,19.125 1045.75,18.8594 Q1045.1563,18.5781 1044.5313,18.5781 Q1043.1875,18.5781 1042.5,19.6563 Q1041.8125,20.7188 1041.8125,22.8125 Q1041.8125,24.9063 1042.5,25.9844 Q1043.1875,27.0469 1044.5313,27.0469 Q1045.1563,27.0469 1045.75,26.7813 Q1046.3438,26.5 1046.9688,25.9219 L1046.9688,28.6406 Z " fill="#000000"/><text fill="#000000" font-family="sans-serif" font-size="14" lengthAdjust="spacing" textLength="52.4932" x="1058" y="27.8467">Sample</text><line style="stroke:#181818;stroke-width:0.5;" x1="1030" x2="1112.4932" y1="39" y2="39"/><line style="stroke:#181818;stroke-width:0.5;" x1="1030" x2="1112.4932" y1="47" y2="47"/></g><!--class MaterialSample--><g class="entity" data-qualified-name="MaterialSample" data-source-line="2" id="ent0005"><rect fill="#F1F1F1" height="48" rx="2.5" ry="2.5" style="stroke:#181818;stroke-width:0.5;" width="141.3682" x="828.5" y="115"/><ellipse cx="843.5" cy="131" fill="#ADD1B2" rx="11" ry="11" style="stroke:#181818;stroke-width:1;"/><path d="M846.4688,136.6406 Q845.8906,136.9375 845.25,137.0781 Q844.6094,137.2344 843.9063,137.2344 Q841.4063,137.2344 840.0781,135.5938 Q838.7656,133.9375 838.7656,130.8125 Q838.7656,127.6875 840.0781,126.0313 Q841.4063,124.375 843.9063,124.375 Q844.6094,124.375 845.25,124.5313 Q845.9063,124.6875 846.4688,124.9844 L846.4688,127.7031 Q845.8438,127.125 845.25,126.8594 Q844.6563,126.5781 844.0313,126.5781 Q842.6875,126.5781 842,127.6563 Q841.3125,128.7188 841.3125,130.8125 Q841.3125,132.9063 842,133.9844 Q842.6875,135.0469 844.0313,135.0469 Q844.6563,135.0469 845.25,134.7813 Q845.8438,134.5 846.4688,133.9219 L846.4688,136.6406 Z " fill="#000000"/><text fill="#000000" font-family="sans-serif" font-size="14" lengthAdjust="spacing" textLength="109.3682" x="857.5" y="135.8467">MaterialSample</text><line style="stroke:#181818;stroke-width:0.5;" x1="829.5" x2="968.8682" y1="147" y2="147"/><line style="stroke:#181818;stroke-width:0.5;" x1="829.5" x2="968.8682" y1="155" y2="155"/></g><!--class SpatialSample--><g class="entity" data-qualified-name="SpatialSample" data-source-line="3" id="ent0007"><rect fill="#F1F1F1" height="48" rx="2.5" ry="2.5" style="stroke:#181818;stroke-width:0.5;" width="132.6934" x="1004.5" y="115"/><ellipse cx="1019.5" cy="131" fill="#ADD1B2" rx="11" ry="11" style="stroke:#181818;stroke-width:1;"/><path d="M1022.4688,136.6406 Q1021.8906,136.9375 1021.25,137.0781 Q1020.6094,137.2344 1019.9063,137.2344 Q1017.4063,137.2344 1016.0781,135.5938 Q1014.7656,133.9375 1014.7656,130.8125 Q1014.7656,127.6875 1016.0781,126.0313 Q1017.4063,124.375 1019.9063,124.375 Q1020.6094,124.375 1021.25,124.5313 Q1021.9063,124.6875 1022.4688,124.9844 L1022.4688,127.7031 Q1021.8438,127.125 1021.25,126.8594 Q1020.6563,126.5781 1020.0313,126.5781 Q1018.6875,126.5781 1018,127.6563 Q1017.3125,128.7188 1017.3125,130.8125 Q1017.3125,132.9063 1018,133.9844 Q1018.6875,135.0469 1020.0313,135.0469 Q1020.6563,135.0469 1021.25,134.7813 Q1021.8438,134.5 1022.4688,133.9219 L1022.4688,136.6406 Z " fill="#000000"/><text fill="#000000" font-family="sans-serif" font-size="14" lengthAdjust="spacing" textLength="100.6934" x="1033.5" y="135.8467">SpatialSample</text><line style="stroke:#181818;stroke-width:0.5;" x1="1005.5" x2="1136.1934" y1="147" y2="147"/><line style="stroke:#181818;stroke-width:0.5;" x1="1005.5" x2="1136.1934" y1="155" y2="155"/></g><!--class StatisticalSample--><g class="entity" data-qualified-name="StatisticalSample" data-source-line="4" id="ent0009"><rect fill="#F1F1F1" height="48" rx="2.5" ry="2.5" style="stroke:#181818;stroke-width:0.5;" width="153.666" x="1173" y="115"/><ellipse cx="1188" cy="131" fill="#ADD1B2" rx="11" ry="11" style="stroke:#181818;stroke-width:1;"/><path d="M1190.9688,136.6406 Q1190.3906,136.9375 1189.75,137.0781 Q1189.1094,137.2344 1188.4063,137.2344 Q1185.9063,137.2344 1184.5781,135.5938 Q1183.2656,133.9375 1183.2656,130.8125 Q1183.2656,127.6875 1184.5781,126.0313 Q1185.9063,124.375 1188.4063,124.375 Q1189.1094,124.375 1189.75,124.5313 Q1190.4063,124.6875 1190.9688,124.9844 L1190.9688,127.7031 Q1190.3438,127.125 1189.75,126.8594 Q1189.1563,126.5781 1188.5313,126.5781 Q1187.1875,126.5781 1186.5,127.6563 Q1185.8125,128.7188 1185.8125,130.8125 Q1185.8125,132.9063 1186.5,133.9844 Q1187.1875,135.0469 1188.5313,135.0469 Q1189.1563,135.0469 1189.75,134.7813 Q1190.3438,134.5 1190.9688,133.9219 L1190.9688,136.6406 Z " fill="#000000"/><text fill="#000000" font-family="sans-serif" font-size="14" lengthAdjust="spacing" textLength="121.666" x="1202" y="135.8467">StatisticalSample</text><line style="stroke:#181818;stroke-width:0.5;" x1="1174" x2="1325.666" y1="147" y2="147"/><line style="stroke:#181818;stroke-width:0.5;" x1="1174" x2="1325.666" y1="155" y2="155"/></g><!--class ObservableProperty--><g class="entity" data-qualified-name="ObservableProperty" data-source-line="5" id="ent0011"><rect fill="#F1F1F1" height="48" rx="2.5" ry="2.5" style="stroke:#181818;stroke-width:0.5;" width="171.6172" x="621" y="115"/><ellipse cx="636" cy="131" fill="#ADD1B2" rx="11" ry="11" style="stroke:#181818;stroke-width:1;"/><path d="M638.9688,136.6406 Q638.3906,136.9375 637.75,137.0781 Q637.1094,137.2344 636.4063,137.2344 Q633.9063,137.2344 632.5781,135.5938 Q631.2656,133.9375 631.2656,130.8125 Q631.2656,127.6875 632.5781,126.0313 Q633.9063,124.375 636.4063,124.375 Q637.1094,124.375 637.75,124.5313 Q638.4063,124.6875 638.9688,124.9844 L638.9688,127.7031 Q638.3438,127.125 637.75,126.8594 Q637.1563,126.5781 636.5313,126.5781 Q635.1875,126.5781 634.5,127.6563 Q633.8125,128.7188 633.8125,130.8125 Q633.8125,132.9063 634.5,133.9844 Q635.1875,135.0469 636.5313,135.0469 Q637.1563,135.0469 637.75,134.7813 Q638.3438,134.5 638.9688,133.9219 L638.9688,136.6406 Z " fill="#000000"/><text fill="#000000" font-family="sans-serif" font-size="14" lengthAdjust="spacing" textLength="139.6172" x="650" y="135.8467">ObservableProperty</text><line style="stroke:#181818;stroke-width:0.5;" x1="622" x2="791.6172" y1="147" y2="147"/><line style="stroke:#181818;stroke-width:0.5;" x1="622" x2="791.6172" y1="155" y2="155"/></g><!--class Procedure--><g class="entity" data-qualified-name="Procedure" data-source-line="6" id="ent0013"><rect fill="#F1F1F1" height="48" rx="2.5" ry="2.5" style="stroke:#181818;stroke-width:0.5;" width="103.2031" x="1604.5" y="7"/><ellipse cx="1619.5" cy="23" fill="#ADD1B2" rx="11" ry="11" style="stroke:#181818;stroke-width:1;"/><path d="M1622.4688,28.6406 Q1621.8906,28.9375 1621.25,29.0781 Q1620.6094,29.2344 1619.9063,29.2344 Q1617.4063,29.2344 1616.0781,27.5938 Q1614.7656,25.9375 1614.7656,22.8125 Q1614.7656,19.6875 1616.0781,18.0313 Q1617.4063,16.375 1619.9063,16.375 Q1620.6094,16.375 1621.25,16.5313 Q1621.9063,16.6875 1622.4688,16.9844 L1622.4688,19.7031 Q1621.8438,19.125 1621.25,18.8594 Q1620.6563,18.5781 1620.0313,18.5781 Q1618.6875,18.5781 1618,19.6563 Q1617.3125,20.7188 1617.3125,22.8125 Q1617.3125,24.9063 1618,25.9844 Q1618.6875,27.0469 1620.0313,27.0469 Q1620.6563,27.0469 1621.25,26.7813 Q1621.8438,26.5 1622.4688,25.9219 L1622.4688,28.6406 Z " fill="#000000"/><text fill="#000000" font-family="sans-serif" font-size="14" lengthAdjust="spacing" textLength="71.2031" x="1633.5" y="27.8467">Procedure</text><line style="stroke:#181818;stroke-width:0.5;" x1="1605.5" x2="1706.7031" y1="39" y2="39"/><line style="stroke:#181818;stroke-width:0.5;" x1="1605.5" x2="1706.7031" y1="47" y2="47"/></g><!--class ActuatingProcedure--><g class="entity" data-qualified-name="ActuatingProcedure" data-source-line="6" id="ent0014"><rect fill="#F1F1F1" height="48" rx="2.5" ry="2.5" style="stroke:#181818;stroke-width:0.5;" width="170.5576" x="1362.5" y="115"/><ellipse cx="1377.5" cy="131" fill="#ADD1B2" rx="11" ry="11" style="stroke:#181818;stroke-width:1;"/><path d="M1380.4688,136.6406 Q1379.8906,136.9375 1379.25,137.0781 Q1378.6094,137.2344 1377.9063,137.2344 Q1375.4063,137.2344 1374.0781,135.5938 Q1372.7656,133.9375 1372.7656,130.8125 Q1372.7656,127.6875 1374.0781,126.0313 Q1375.4063,124.375 1377.9063,124.375 Q1378.6094,124.375 1379.25,124.5313 Q1379.9063,124.6875 1380.4688,124.9844 L1380.4688,127.7031 Q1379.8438,127.125 1379.25,126.8594 Q1378.6563,126.5781 1378.0313,126.5781 Q1376.6875,126.5781 1376,127.6563 Q1375.3125,128.7188 1375.3125,130.8125 Q1375.3125,132.9063 1376,133.9844 Q1376.6875,135.0469 1378.0313,135.0469 Q1378.6563,135.0469 1379.25,134.7813 Q1379.8438,134.5 1380.4688,133.9219 L1380.4688,136.6406 Z " fill="#000000"/><text fill="#000000" font-family="sans-serif" font-size="14" lengthAdjust="spacing" textLength="138.5576" x="1391.5" y="135.8467">ActuatingProcedure</text><line style="stroke:#181818;stroke-width:0.5;" x1="1363.5" x2="1532.0576" y1="147" y2="147"/><line style="stroke:#181818;stroke-width:0.5;" x1="1363.5" x2="1532.0576" y1="155" y2="155"/></g><!--class ObservingProcedure--><g class="entity" data-qualified-name="ObservingProcedure" data-source-line="7" id="ent0016"><rect fill="#F1F1F1" height="48" rx="2.5" ry="2.5" style="stroke:#181818;stroke-width:0.5;" width="174.707" x="1568.5" y="115"/><ellipse cx="1583.5" cy="131" fill="#ADD1B2" rx="11" ry="11" style="stroke:#181818;stroke-width:1;"/><path d="M1586.4688,136.6406 Q1585.8906,136.9375 1585.25,137.0781 Q1584.6094,137.2344 1583.9063,137.2344 Q1581.4063,137.2344 1580.0781,135.5938 Q1578.7656,133.9375 1578.7656,130.8125 Q1578.7656,127.6875 1580.0781,126.0313 Q1581.4063,124.375 1583.9063,124.375 Q1584.6094,124.375 1585.25,124.5313 Q1585.9063,124.6875 1586.4688,124.9844 L1586.4688,127.7031 Q1585.8438,127.125 1585.25,126.8594 Q1584.6563,126.5781 1584.0313,126.5781 Q1582.6875,126.5781 1582,127.6563 Q1581.3125,128.7188 1581.3125,130.8125 Q1581.3125,132.9063 1582,133.9844 Q1582.6875,135.0469 1584.0313,135.0469 Q1584.6563,135.0469 1585.25,134.7813 Q1585.8438,134.5 1586.4688,133.9219 L1586.4688,136.6406 Z " fill="#000000"/><text fill="#000000" font-family="sans-serif" font-size="14" lengthAdjust="spacing" textLength="142.707" x="1597.5" y="135.8467">ObservingProcedure</text><line style="stroke:#181818;stroke-width:0.5;" x1="1569.5" x2="1742.207" y1="147" y2="147"/><line style="stroke:#181818;stroke-width:0.5;" x1="1569.5" x2="1742.207" y1="155" y2="155"/></g><!--class SamplingProcedure--><g class="entity" data-qualified-name="SamplingProcedure" data-source-line="8" id="ent0018"><rect fill="#F1F1F1" height="48" rx="2.5" ry="2.5" style="stroke:#181818;stroke-width:0.5;" width="168.7324" x="1778.5" y="115"/><ellipse cx="1793.5" cy="131" fill="#ADD1B2" rx="11" ry="11" style="stroke:#181818;stroke-width:1;"/><path d="M1796.4688,136.6406 Q1795.8906,136.9375 1795.25,137.0781 Q1794.6094,137.2344 1793.9063,137.2344 Q1791.4063,137.2344 1790.0781,135.5938 Q1788.7656,133.9375 1788.7656,130.8125 Q1788.7656,127.6875 1790.0781,126.0313 Q1791.4063,124.375 1793.9063,124.375 Q1794.6094,124.375 1795.25,124.5313 Q1795.9063,124.6875 1796.4688,124.9844 L1796.4688,127.7031 Q1795.8438,127.125 1795.25,126.8594 Q1794.6563,126.5781 1794.0313,126.5781 Q1792.6875,126.5781 1792,127.6563 Q1791.3125,128.7188 1791.3125,130.8125 Q1791.3125,132.9063 1792,133.9844 Q1792.6875,135.0469 1794.0313,135.0469 Q1794.6563,135.0469 1795.25,134.7813 Q1795.8438,134.5 1796.4688,133.9219 L1796.4688,136.6406 Z " fill="#000000"/><text fill="#000000" font-family="sans-serif" font-size="14" lengthAdjust="spacing" textLength="136.7324" x="1807.5" y="135.8467">SamplingProcedure</text><line style="stroke:#181818;stroke-width:0.5;" x1="1779.5" x2="1946.2324" y1="147" y2="147"/><line style="stroke:#181818;stroke-width:0.5;" x1="1779.5" x2="1946.2324" y1="155" y2="155"/></g><!--class Asset--><g class="entity" data-qualified-name="Asset" data-source-line="9" id="ent0020"><rect fill="#F1F1F1" height="48" rx="2.5" ry="2.5" style="stroke:#181818;stroke-width:0.5;" width="70.2676" x="2054" y="7"/><ellipse cx="2069" cy="23" fill="#ADD1B2" rx="11" ry="11" style="stroke:#181818;stroke-width:1;"/><path d="M2071.9688,28.6406 Q2071.3906,28.9375 2070.75,29.0781 Q2070.1094,29.2344 2069.4063,29.2344 Q2066.9063,29.2344 2065.5781,27.5938 Q2064.2656,25.9375 2064.2656,22.8125 Q2064.2656,19.6875 2065.5781,18.0313 Q2066.9063,16.375 2069.4063,16.375 Q2070.1094,16.375 2070.75,16.5313 Q2071.4063,16.6875 2071.9688,16.9844 L2071.9688,19.7031 Q2071.3438,19.125 2070.75,18.8594 Q2070.1563,18.5781 2069.5313,18.5781 Q2068.1875,18.5781 2067.5,19.6563 Q2066.8125,20.7188 2066.8125,22.8125 Q2066.8125,24.9063 2067.5,25.9844 Q2068.1875,27.0469 2069.5313,27.0469 Q2070.1563,27.0469 2070.75,26.7813 Q2071.3438,26.5 2071.9688,25.9219 L2071.9688,28.6406 Z " fill="#000000"/><text fill="#000000" font-family="sans-serif" font-size="14" lengthAdjust="spacing" textLength="38.2676" x="2083" y="27.8467">Asset</text><line style="stroke:#181818;stroke-width:0.5;" x1="2055" x2="2123.2676" y1="39" y2="39"/><line style="stroke:#181818;stroke-width:0.5;" x1="2055" x2="2123.2676" y1="47" y2="47"/></g><!--class Platform--><g class="entity" data-qualified-name="Platform" data-source-line="9" id="ent0021"><rect fill="#F1F1F1" height="48" rx="2.5" ry="2.5" style="stroke:#181818;stroke-width:0.5;" width="91.2881" x="1982.5" y="115"/><ellipse cx="1997.5" cy="131" fill="#ADD1B2" rx="11" ry="11" style="stroke:#181818;stroke-width:1;"/><path d="M2000.4688,136.6406 Q1999.8906,136.9375 1999.25,137.0781 Q1998.6094,137.2344 1997.9063,137.2344 Q1995.4063,137.2344 1994.0781,135.5938 Q1992.7656,133.9375 1992.7656,130.8125 Q1992.7656,127.6875 1994.0781,126.0313 Q1995.4063,124.375 1997.9063,124.375 Q1998.6094,124.375 1999.25,124.5313 Q1999.9063,124.6875 2000.4688,124.9844 L2000.4688,127.7031 Q1999.8438,127.125 1999.25,126.8594 Q1998.6563,126.5781 1998.0313,126.5781 Q1996.6875,126.5781 1996,127.6563 Q1995.3125,128.7188 1995.3125,130.8125 Q1995.3125,132.9063 1996,133.9844 Q1996.6875,135.0469 1998.0313,135.0469 Q1998.6563,135.0469 1999.25,134.7813 Q1999.8438,134.5 2000.4688,133.9219 L2000.4688,136.6406 Z " fill="#000000"/><text fill="#000000" font-family="sans-serif" font-size="14" lengthAdjust="spacing" textLength="59.2881" x="2011.5" y="135.8467">Platform</text><line style="stroke:#181818;stroke-width:0.5;" x1="1983.5" x2="2072.7881" y1="147" y2="147"/><line style="stroke:#181818;stroke-width:0.5;" x1="1983.5" x2="2072.7881" y1="155" y2="155"/></g><!--class System--><g class="entity" data-qualified-name="System" data-source-line="10" id="ent0023"><rect fill="#F1F1F1" height="48" rx="2.5" ry="2.5" style="stroke:#181818;stroke-width:0.5;" width="84.2061" x="2109" y="115"/><ellipse cx="2124" cy="131" fill="#ADD1B2" rx="11" ry="11" style="stroke:#181818;stroke-width:1;"/><path d="M2126.9688,136.6406 Q2126.3906,136.9375 2125.75,137.0781 Q2125.1094,137.2344 2124.4063,137.2344 Q2121.9063,137.2344 2120.5781,135.5938 Q2119.2656,133.9375 2119.2656,130.8125 Q2119.2656,127.6875 2120.5781,126.0313 Q2121.9063,124.375 2124.4063,124.375 Q2125.1094,124.375 2125.75,124.5313 Q2126.4063,124.6875 2126.9688,124.9844 L2126.9688,127.7031 Q2126.3438,127.125 2125.75,126.8594 Q2125.1563,126.5781 2124.5313,126.5781 Q2123.1875,126.5781 2122.5,127.6563 Q2121.8125,128.7188 2121.8125,130.8125 Q2121.8125,132.9063 2122.5,133.9844 Q2123.1875,135.0469 2124.5313,135.0469 Q2125.1563,135.0469 2125.75,134.7813 Q2126.3438,134.5 2126.9688,133.9219 L2126.9688,136.6406 Z " fill="#000000"/><text fill="#000000" font-family="sans-serif" font-size="14" lengthAdjust="spacing" textLength="52.2061" x="2138" y="135.8467">System</text><line style="stroke:#181818;stroke-width:0.5;" x1="2110" x2="2192.2061" y1="147" y2="147"/><line style="stroke:#181818;stroke-width:0.5;" x1="2110" x2="2192.2061" y1="155" y2="155"/></g><!--class Sampler--><g class="entity" data-qualified-name="Sampler" data-source-line="10" id="ent0024"><rect fill="#F1F1F1" height="48" rx="2.5" ry="2.5" style="stroke:#181818;stroke-width:0.5;" width="90.249" x="1980" y="223"/><ellipse cx="1995" cy="239" fill="#ADD1B2" rx="11" ry="11" style="stroke:#181818;stroke-width:1;"/><path d="M1997.9688,244.6406 Q1997.3906,244.9375 1996.75,245.0781 Q1996.1094,245.2344 1995.4063,245.2344 Q1992.9063,245.2344 1991.5781,243.5938 Q1990.2656,241.9375 1990.2656,238.8125 Q1990.2656,235.6875 1991.5781,234.0313 Q1992.9063,232.375 1995.4063,232.375 Q1996.1094,232.375 1996.75,232.5313 Q1997.4063,232.6875 1997.9688,232.9844 L1997.9688,235.7031 Q1997.3438,235.125 1996.75,234.8594 Q1996.1563,234.5781 1995.5313,234.5781 Q1994.1875,234.5781 1993.5,235.6563 Q1992.8125,236.7188 1992.8125,238.8125 Q1992.8125,240.9063 1993.5,241.9844 Q1994.1875,243.0469 1995.5313,243.0469 Q1996.1563,243.0469 1996.75,242.7813 Q1997.3438,242.5 1997.9688,241.9219 L1997.9688,244.6406 Z " fill="#000000"/><text fill="#000000" font-family="sans-serif" font-size="14" lengthAdjust="spacing" textLength="58.249" x="2009" y="243.8467">Sampler</text><line style="stroke:#181818;stroke-width:0.5;" x1="1981" x2="2069.249" y1="255" y2="255"/><line style="stroke:#181818;stroke-width:0.5;" x1="1981" x2="2069.249" y1="263" y2="263"/></g><!--class Actuator--><g class="entity" data-qualified-name="Actuator" data-source-line="11" id="ent0026"><rect fill="#F1F1F1" height="48" rx="2.5" ry="2.5" style="stroke:#181818;stroke-width:0.5;" width="92.0264" x="2105" y="223"/><ellipse cx="2120" cy="239" fill="#ADD1B2" rx="11" ry="11" style="stroke:#181818;stroke-width:1;"/><path d="M2122.9688,244.6406 Q2122.3906,244.9375 2121.75,245.0781 Q2121.1094,245.2344 2120.4063,245.2344 Q2117.9063,245.2344 2116.5781,243.5938 Q2115.2656,241.9375 2115.2656,238.8125 Q2115.2656,235.6875 2116.5781,234.0313 Q2117.9063,232.375 2120.4063,232.375 Q2121.1094,232.375 2121.75,232.5313 Q2122.4063,232.6875 2122.9688,232.9844 L2122.9688,235.7031 Q2122.3438,235.125 2121.75,234.8594 Q2121.1563,234.5781 2120.5313,234.5781 Q2119.1875,234.5781 2118.5,235.6563 Q2117.8125,236.7188 2117.8125,238.8125 Q2117.8125,240.9063 2118.5,241.9844 Q2119.1875,243.0469 2120.5313,243.0469 Q2121.1563,243.0469 2121.75,242.7813 Q2122.3438,242.5 2122.9688,241.9219 L2122.9688,244.6406 Z " fill="#000000"/><text fill="#000000" font-family="sans-serif" font-size="14" lengthAdjust="spacing" textLength="60.0264" x="2134" y="243.8467">Actuator</text><line style="stroke:#181818;stroke-width:0.5;" x1="2106" x2="2196.0264" y1="255" y2="255"/><line style="stroke:#181818;stroke-width:0.5;" x1="2106" x2="2196.0264" y1="263" y2="263"/></g><!--class Execution--><g class="entity" data-qualified-name="Execution" data-source-line="13" id="ent0029"><rect fill="#F1F1F1" height="48" rx="2.5" ry="2.5" style="stroke:#181818;stroke-width:0.5;" width="101.1318" x="2360.5" y="7"/><ellipse cx="2375.5" cy="23" fill="#ADD1B2" rx="11" ry="11" style="stroke:#181818;stroke-width:1;"/><path d="M2378.4688,28.6406 Q2377.8906,28.9375 2377.25,29.0781 Q2376.6094,29.2344 2375.9063,29.2344 Q2373.4063,29.2344 2372.0781,27.5938 Q2370.7656,25.9375 2370.7656,22.8125 Q2370.7656,19.6875 2372.0781,18.0313 Q2373.4063,16.375 2375.9063,16.375 Q2376.6094,16.375 2377.25,16.5313 Q2377.9063,16.6875 2378.4688,16.9844 L2378.4688,19.7031 Q2377.8438,19.125 2377.25,18.8594 Q2376.6563,18.5781 2376.0313,18.5781 Q2374.6875,18.5781 2374,19.6563 Q2373.3125,20.7188 2373.3125,22.8125 Q2373.3125,24.9063 2374,25.9844 Q2374.6875,27.0469 2376.0313,27.0469 Q2376.6563,27.0469 2377.25,26.7813 Q2377.8438,26.5 2378.4688,25.9219 L2378.4688,28.6406 Z " fill="#000000"/><text fill="#000000" font-family="sans-serif" font-size="14" lengthAdjust="spacing" textLength="69.1318" x="2389.5" y="27.8467">Execution</text><line style="stroke:#181818;stroke-width:0.5;" x1="2361.5" x2="2460.6318" y1="39" y2="39"/><line style="stroke:#181818;stroke-width:0.5;" x1="2361.5" x2="2460.6318" y1="47" y2="47"/></g><!--class Sampling--><g class="entity" data-qualified-name="Sampling" data-source-line="13" id="ent0030"><rect fill="#F1F1F1" height="48" rx="2.5" ry="2.5" style="stroke:#181818;stroke-width:0.5;" width="97.5293" x="2228" y="115"/><ellipse cx="2243" cy="131" fill="#ADD1B2" rx="11" ry="11" style="stroke:#181818;stroke-width:1;"/><path d="M2245.9688,136.6406 Q2245.3906,136.9375 2244.75,137.0781 Q2244.1094,137.2344 2243.4063,137.2344 Q2240.9063,137.2344 2239.5781,135.5938 Q2238.2656,133.9375 2238.2656,130.8125 Q2238.2656,127.6875 2239.5781,126.0313 Q2240.9063,124.375 2243.4063,124.375 Q2244.1094,124.375 2244.75,124.5313 Q2245.4063,124.6875 2245.9688,124.9844 L2245.9688,127.7031 Q2245.3438,127.125 2244.75,126.8594 Q2244.1563,126.5781 2243.5313,126.5781 Q2242.1875,126.5781 2241.5,127.6563 Q2240.8125,128.7188 2240.8125,130.8125 Q2240.8125,132.9063 2241.5,133.9844 Q2242.1875,135.0469 2243.5313,135.0469 Q2244.1563,135.0469 2244.75,134.7813 Q2245.3438,134.5 2245.9688,133.9219 L2245.9688,136.6406 Z " fill="#000000"/><text fill="#000000" font-family="sans-serif" font-size="14" lengthAdjust="spacing" textLength="65.5293" x="2257" y="135.8467">Sampling</text><line style="stroke:#181818;stroke-width:0.5;" x1="2229" x2="2324.5293" y1="147" y2="147"/><line style="stroke:#181818;stroke-width:0.5;" x1="2229" x2="2324.5293" y1="155" y2="155"/></g><!--class ExecutionCollection--><g class="entity" data-qualified-name="ExecutionCollection" data-source-line="14" id="ent0032"><rect fill="#F1F1F1" height="48" rx="2.5" ry="2.5" style="stroke:#181818;stroke-width:0.5;" width="170.3799" x="2848" y="7"/><ellipse cx="2863" cy="23" fill="#ADD1B2" rx="11" ry="11" style="stroke:#181818;stroke-width:1;"/><path d="M2865.9688,28.6406 Q2865.3906,28.9375 2864.75,29.0781 Q2864.1094,29.2344 2863.4063,29.2344 Q2860.9063,29.2344 2859.5781,27.5938 Q2858.2656,25.9375 2858.2656,22.8125 Q2858.2656,19.6875 2859.5781,18.0313 Q2860.9063,16.375 2863.4063,16.375 Q2864.1094,16.375 2864.75,16.5313 Q2865.4063,16.6875 2865.9688,16.9844 L2865.9688,19.7031 Q2865.3438,19.125 2864.75,18.8594 Q2864.1563,18.5781 2863.5313,18.5781 Q2862.1875,18.5781 2861.5,19.6563 Q2860.8125,20.7188 2860.8125,22.8125 Q2860.8125,24.9063 2861.5,25.9844 Q2862.1875,27.0469 2863.5313,27.0469 Q2864.1563,27.0469 2864.75,26.7813 Q2865.3438,26.5 2865.9688,25.9219 L2865.9688,28.6406 Z " fill="#000000"/><text fill="#000000" font-family="sans-serif" font-size="14" lengthAdjust="spacing" textLength="138.3799" x="2877" y="27.8467">ExecutionCollection</text><line style="stroke:#181818;stroke-width:0.5;" x1="2849" x2="3017.3799" y1="39" y2="39"/><line style="stroke:#181818;stroke-width:0.5;" x1="2849" x2="3017.3799" y1="47" y2="47"/></g><!--class SamplingCollection--><g class="entity" data-qualified-name="SamplingCollection" data-source-line="14" id="ent0033"><rect fill="#F1F1F1" height="48" rx="2.5" ry="2.5" style="stroke:#181818;stroke-width:0.5;" width="166.7773" x="2647.5" y="115"/><ellipse cx="2662.5" cy="131" fill="#ADD1B2" rx="11" ry="11" style="stroke:#181818;stroke-width:1;"/><path d="M2665.4688,136.6406 Q2664.8906,136.9375 2664.25,137.0781 Q2663.6094,137.2344 2662.9063,137.2344 Q2660.4063,137.2344 2659.0781,135.5938 Q2657.7656,133.9375 2657.7656,130.8125 Q2657.7656,127.6875 2659.0781,126.0313 Q2660.4063,124.375 2662.9063,124.375 Q2663.6094,124.375 2664.25,124.5313 Q2664.9063,124.6875 2665.4688,124.9844 L2665.4688,127.7031 Q2664.8438,127.125 2664.25,126.8594 Q2663.6563,126.5781 2663.0313,126.5781 Q2661.6875,126.5781 2661,127.6563 Q2660.3125,128.7188 2660.3125,130.8125 Q2660.3125,132.9063 2661,133.9844 Q2661.6875,135.0469 2663.0313,135.0469 Q2663.6563,135.0469 2664.25,134.7813 Q2664.8438,134.5 2665.4688,133.9219 L2665.4688,136.6406 Z " fill="#000000"/><text fill="#000000" font-family="sans-serif" font-size="14" lengthAdjust="spacing" textLength="134.7773" x="2676.5" y="135.8467">SamplingCollection</text><line style="stroke:#181818;stroke-width:0.5;" x1="2648.5" x2="2813.2773" y1="147" y2="147"/><line style="stroke:#181818;stroke-width:0.5;" x1="2648.5" x2="2813.2773" y1="155" y2="155"/></g><!--class Actuation--><g class="entity" data-qualified-name="Actuation" data-source-line="15" id="ent0035"><rect fill="#F1F1F1" height="48" rx="2.5" ry="2.5" style="stroke:#181818;stroke-width:0.5;" width="99.0332" x="2361.5" y="115"/><ellipse cx="2376.5" cy="131" fill="#ADD1B2" rx="11" ry="11" style="stroke:#181818;stroke-width:1;"/><path d="M2379.4688,136.6406 Q2378.8906,136.9375 2378.25,137.0781 Q2377.6094,137.2344 2376.9063,137.2344 Q2374.4063,137.2344 2373.0781,135.5938 Q2371.7656,133.9375 2371.7656,130.8125 Q2371.7656,127.6875 2373.0781,126.0313 Q2374.4063,124.375 2376.9063,124.375 Q2377.6094,124.375 2378.25,124.5313 Q2378.9063,124.6875 2379.4688,124.9844 L2379.4688,127.7031 Q2378.8438,127.125 2378.25,126.8594 Q2377.6563,126.5781 2377.0313,126.5781 Q2375.6875,126.5781 2375,127.6563 Q2374.3125,128.7188 2374.3125,130.8125 Q2374.3125,132.9063 2375,133.9844 Q2375.6875,135.0469 2377.0313,135.0469 Q2377.6563,135.0469 2378.25,134.7813 Q2378.8438,134.5 2379.4688,133.9219 L2379.4688,136.6406 Z " fill="#000000"/><text fill="#000000" font-family="sans-serif" font-size="14" lengthAdjust="spacing" textLength="67.0332" x="2390.5" y="135.8467">Actuation</text><line style="stroke:#181818;stroke-width:0.5;" x1="2362.5" x2="2459.5332" y1="147" y2="147"/><line style="stroke:#181818;stroke-width:0.5;" x1="2362.5" x2="2459.5332" y1="155" y2="155"/></g><!--class Sensor--><g class="entity" data-qualified-name="Sensor" data-source-line="16" id="ent0037"><rect fill="#F1F1F1" height="48" rx="2.5" ry="2.5" style="stroke:#181818;stroke-width:0.5;" width="79.9883" x="2232" y="223"/><ellipse cx="2247" cy="239" fill="#ADD1B2" rx="11" ry="11" style="stroke:#181818;stroke-width:1;"/><path d="M2249.9688,244.6406 Q2249.3906,244.9375 2248.75,245.0781 Q2248.1094,245.2344 2247.4063,245.2344 Q2244.9063,245.2344 2243.5781,243.5938 Q2242.2656,241.9375 2242.2656,238.8125 Q2242.2656,235.6875 2243.5781,234.0313 Q2244.9063,232.375 2247.4063,232.375 Q2248.1094,232.375 2248.75,232.5313 Q2249.4063,232.6875 2249.9688,232.9844 L2249.9688,235.7031 Q2249.3438,235.125 2248.75,234.8594 Q2248.1563,234.5781 2247.5313,234.5781 Q2246.1875,234.5781 2245.5,235.6563 Q2244.8125,236.7188 2244.8125,238.8125 Q2244.8125,240.9063 2245.5,241.9844 Q2246.1875,243.0469 2247.5313,243.0469 Q2248.1563,243.0469 2248.75,242.7813 Q2249.3438,242.5 2249.9688,241.9219 L2249.9688,244.6406 Z " fill="#000000"/><text fill="#000000" font-family="sans-serif" font-size="14" lengthAdjust="spacing" textLength="47.9883" x="2261" y="243.8467">Sensor</text><line style="stroke:#181818;stroke-width:0.5;" x1="2233" x2="2310.9883" y1="255" y2="255"/><line style="stroke:#181818;stroke-width:0.5;" x1="2233" x2="2310.9883" y1="263" y2="263"/></g><!--class ActuationCollection--><g class="entity" data-qualified-name="ActuationCollection" data-source-line="17" id="ent0039"><rect fill="#F1F1F1" height="48" rx="2.5" ry="2.5" style="stroke:#181818;stroke-width:0.5;" width="168.2813" x="2849" y="115"/><ellipse cx="2864" cy="131" fill="#ADD1B2" rx="11" ry="11" style="stroke:#181818;stroke-width:1;"/><path d="M2866.9688,136.6406 Q2866.3906,136.9375 2865.75,137.0781 Q2865.1094,137.2344 2864.4063,137.2344 Q2861.9063,137.2344 2860.5781,135.5938 Q2859.2656,133.9375 2859.2656,130.8125 Q2859.2656,127.6875 2860.5781,126.0313 Q2861.9063,124.375 2864.4063,124.375 Q2865.1094,124.375 2865.75,124.5313 Q2866.4063,124.6875 2866.9688,124.9844 L2866.9688,127.7031 Q2866.3438,127.125 2865.75,126.8594 Q2865.1563,126.5781 2864.5313,126.5781 Q2863.1875,126.5781 2862.5,127.6563 Q2861.8125,128.7188 2861.8125,130.8125 Q2861.8125,132.9063 2862.5,133.9844 Q2863.1875,135.0469 2864.5313,135.0469 Q2865.1563,135.0469 2865.75,134.7813 Q2866.3438,134.5 2866.9688,133.9219 L2866.9688,136.6406 Z " fill="#000000"/><text fill="#000000" font-family="sans-serif" font-size="14" lengthAdjust="spacing" textLength="136.2813" x="2878" y="135.8467">ActuationCollection</text><line style="stroke:#181818;stroke-width:0.5;" x1="2850" x2="3016.2813" y1="147" y2="147"/><line style="stroke:#181818;stroke-width:0.5;" x1="2850" x2="3016.2813" y1="155" y2="155"/></g><!--class ObservationCollection--><g class="entity" data-qualified-name="ObservationCollection" data-source-line="18" id="ent0041"><rect fill="#F1F1F1" height="48" rx="2.5" ry="2.5" style="stroke:#181818;stroke-width:0.5;" width="186.499" x="3052" y="115"/><ellipse cx="3067" cy="131" fill="#ADD1B2" rx="11" ry="11" style="stroke:#181818;stroke-width:1;"/><path d="M3069.9688,136.6406 Q3069.3906,136.9375 3068.75,137.0781 Q3068.1094,137.2344 3067.4063,137.2344 Q3064.9063,137.2344 3063.5781,135.5938 Q3062.2656,133.9375 3062.2656,130.8125 Q3062.2656,127.6875 3063.5781,126.0313 Q3064.9063,124.375 3067.4063,124.375 Q3068.1094,124.375 3068.75,124.5313 Q3069.4063,124.6875 3069.9688,124.9844 L3069.9688,127.7031 Q3069.3438,127.125 3068.75,126.8594 Q3068.1563,126.5781 3067.5313,126.5781 Q3066.1875,126.5781 3065.5,127.6563 Q3064.8125,128.7188 3064.8125,130.8125 Q3064.8125,132.9063 3065.5,133.9844 Q3066.1875,135.0469 3067.5313,135.0469 Q3068.1563,135.0469 3068.75,134.7813 Q3069.3438,134.5 3069.9688,133.9219 L3069.9688,136.6406 Z " fill="#000000"/><text fill="#000000" font-family="sans-serif" font-size="14" lengthAdjust="spacing" textLength="154.499" x="3081" y="135.8467">ObservationCollection</text><line style="stroke:#181818;stroke-width:0.5;" x1="3053" x2="3237.499" y1="147" y2="147"/><line style="stroke:#181818;stroke-width:0.5;" x1="3053" x2="3237.499" y1="155" y2="155"/></g><!--class Observation--><g class="entity" data-qualified-name="Observation" data-source-line="19" id="ent0043"><rect fill="#F1F1F1" height="48" rx="2.5" ry="2.5" style="stroke:#181818;stroke-width:0.5;" width="117.251" x="2495.5" y="115"/><ellipse cx="2510.5" cy="131" fill="#ADD1B2" rx="11" ry="11" style="stroke:#181818;stroke-width:1;"/><path d="M2513.4688,136.6406 Q2512.8906,136.9375 2512.25,137.0781 Q2511.6094,137.2344 2510.9063,137.2344 Q2508.4063,137.2344 2507.0781,135.5938 Q2505.7656,133.9375 2505.7656,130.8125 Q2505.7656,127.6875 2507.0781,126.0313 Q2508.4063,124.375 2510.9063,124.375 Q2511.6094,124.375 2512.25,124.5313 Q2512.9063,124.6875 2513.4688,124.9844 L2513.4688,127.7031 Q2512.8438,127.125 2512.25,126.8594 Q2511.6563,126.5781 2511.0313,126.5781 Q2509.6875,126.5781 2509,127.6563 Q2508.3125,128.7188 2508.3125,130.8125 Q2508.3125,132.9063 2509,133.9844 Q2509.6875,135.0469 2511.0313,135.0469 Q2511.6563,135.0469 2512.25,134.7813 Q2512.8438,134.5 2513.4688,133.9219 L2513.4688,136.6406 Z " fill="#000000"/><text fill="#000000" font-family="sans-serif" font-size="14" lengthAdjust="spacing" textLength="85.251" x="2524.5" y="135.8467">Observation</text><line style="stroke:#181818;stroke-width:0.5;" x1="2496.5" x2="2611.751" y1="147" y2="147"/><line style="stroke:#181818;stroke-width:0.5;" x1="2496.5" x2="2611.751" y1="155" y2="155"/></g><!--class FeatureOfInterest--><g class="entity" data-qualified-name="FeatureOfInterest" data-source-line="20" id="ent0045"><rect fill="#F1F1F1" height="48" rx="2.5" ry="2.5" style="stroke:#181818;stroke-width:0.5;" width="156.1816" x="7" y="7"/><ellipse cx="22" cy="23" fill="#ADD1B2" rx="11" ry="11" style="stroke:#181818;stroke-width:1;"/><path d="M24.9688,28.6406 Q24.3906,28.9375 23.75,29.0781 Q23.1094,29.2344 22.4063,29.2344 Q19.9063,29.2344 18.5781,27.5938 Q17.2656,25.9375 17.2656,22.8125 Q17.2656,19.6875 18.5781,18.0313 Q19.9063,16.375 22.4063,16.375 Q23.1094,16.375 23.75,16.5313 Q24.4063,16.6875 24.9688,16.9844 L24.9688,19.7031 Q24.3438,19.125 23.75,18.8594 Q23.1563,18.5781 22.5313,18.5781 Q21.1875,18.5781 20.5,19.6563 Q19.8125,20.7188 19.8125,22.8125 Q19.8125,24.9063 20.5,25.9844 Q21.1875,27.0469 22.5313,27.0469 Q23.1563,27.0469 23.75,26.7813 Q24.3438,26.5 24.9688,25.9219 L24.9688,28.6406 Z " fill="#000000"/><text fill="#000000" font-family="sans-serif" font-size="14" lengthAdjust="spacing" textLength="124.1816" x="36" y="27.8467">FeatureOfInterest</text><line style="stroke:#181818;stroke-width:0.5;" x1="8" x2="162.1816" y1="39" y2="39"/><line style="stroke:#181818;stroke-width:0.5;" x1="8" x2="162.1816" y1="47" y2="47"/></g><!--class SampleCollection--><g class="entity" data-qualified-name="SampleCollection" data-source-line="21" id="ent0046"><rect fill="#F1F1F1" height="48" rx="2.5" ry="2.5" style="stroke:#181818;stroke-width:0.5;" width="153.7412" x="198" y="7"/><ellipse cx="213" cy="23" fill="#ADD1B2" rx="11" ry="11" style="stroke:#181818;stroke-width:1;"/><path d="M215.9688,28.6406 Q215.3906,28.9375 214.75,29.0781 Q214.1094,29.2344 213.4063,29.2344 Q210.9063,29.2344 209.5781,27.5938 Q208.2656,25.9375 208.2656,22.8125 Q208.2656,19.6875 209.5781,18.0313 Q210.9063,16.375 213.4063,16.375 Q214.1094,16.375 214.75,16.5313 Q215.4063,16.6875 215.9688,16.9844 L215.9688,19.7031 Q215.3438,19.125 214.75,18.8594 Q214.1563,18.5781 213.5313,18.5781 Q212.1875,18.5781 211.5,19.6563 Q210.8125,20.7188 210.8125,22.8125 Q210.8125,24.9063 211.5,25.9844 Q212.1875,27.0469 213.5313,27.0469 Q214.1563,27.0469 214.75,26.7813 Q215.3438,26.5 215.9688,25.9219 L215.9688,28.6406 Z " fill="#000000"/><text fill="#000000" font-family="sans-serif" font-size="14" lengthAdjust="spacing" textLength="121.7412" x="227" y="27.8467">SampleCollection</text><line style="stroke:#181818;stroke-width:0.5;" x1="199" x2="350.7412" y1="39" y2="39"/><line style="stroke:#181818;stroke-width:0.5;" x1="199" x2="350.7412" y1="47" y2="47"/></g><!--class Stimulus--><g class="entity" data-qualified-name="Stimulus" data-source-line="22" id="ent0047"><rect fill="#F1F1F1" height="48" rx="2.5" ry="2.5" style="stroke:#181818;stroke-width:0.5;" width="92.833" x="387.5" y="7"/><ellipse cx="402.5" cy="23" fill="#ADD1B2" rx="11" ry="11" style="stroke:#181818;stroke-width:1;"/><path d="M405.4688,28.6406 Q404.8906,28.9375 404.25,29.0781 Q403.6094,29.2344 402.9063,29.2344 Q400.4063,29.2344 399.0781,27.5938 Q397.7656,25.9375 397.7656,22.8125 Q397.7656,19.6875 399.0781,18.0313 Q400.4063,16.375 402.9063,16.375 Q403.6094,16.375 404.25,16.5313 Q404.9063,16.6875 405.4688,16.9844 L405.4688,19.7031 Q404.8438,19.125 404.25,18.8594 Q403.6563,18.5781 403.0313,18.5781 Q401.6875,18.5781 401,19.6563 Q400.3125,20.7188 400.3125,22.8125 Q400.3125,24.9063 401,25.9844 Q401.6875,27.0469 403.0313,27.0469 Q403.6563,27.0469 404.25,26.7813 Q404.8438,26.5 405.4688,25.9219 L405.4688,28.6406 Z " fill="#000000"/><text fill="#000000" font-family="sans-serif" font-size="14" lengthAdjust="spacing" textLength="60.833" x="416.5" y="27.8467">Stimulus</text><line style="stroke:#181818;stroke-width:0.5;" x1="388.5" x2="479.333" y1="39" y2="39"/><line style="stroke:#181818;stroke-width:0.5;" x1="388.5" x2="479.333" y1="47" y2="47"/></g><!--class Input--><g class="entity" data-qualified-name="Input" data-source-line="23" id="ent0048"><rect fill="#F1F1F1" height="48" rx="2.5" ry="2.5" style="stroke:#181818;stroke-width:0.5;" width="68.251" x="51" y="115"/><ellipse cx="66" cy="131" fill="#ADD1B2" rx="11" ry="11" style="stroke:#181818;stroke-width:1;"/><path d="M68.9688,136.6406 Q68.3906,136.9375 67.75,137.0781 Q67.1094,137.2344 66.4063,137.2344 Q63.9063,137.2344 62.5781,135.5938 Q61.2656,133.9375 61.2656,130.8125 Q61.2656,127.6875 62.5781,126.0313 Q63.9063,124.375 66.4063,124.375 Q67.1094,124.375 67.75,124.5313 Q68.4063,124.6875 68.9688,124.9844 L68.9688,127.7031 Q68.3438,127.125 67.75,126.8594 Q67.1563,126.5781 66.5313,126.5781 Q65.1875,126.5781 64.5,127.6563 Q63.8125,128.7188 63.8125,130.8125 Q63.8125,132.9063 64.5,133.9844 Q65.1875,135.0469 66.5313,135.0469 Q67.1563,135.0469 67.75,134.7813 Q68.3438,134.5 68.9688,133.9219 L68.9688,136.6406 Z " fill="#000000"/><text fill="#000000" font-family="sans-serif" font-size="14" lengthAdjust="spacing" textLength="36.251" x="80" y="135.8467">Input</text><line style="stroke:#181818;stroke-width:0.5;" x1="52" x2="118.251" y1="147" y2="147"/><line style="stroke:#181818;stroke-width:0.5;" x1="52" x2="118.251" y1="155" y2="155"/></g><!--class Deployment--><g class="entity" data-qualified-name="Deployment" data-source-line="25" id="ent0049"><rect fill="#F1F1F1" height="48" rx="2.5" ry="2.5" style="stroke:#181818;stroke-width:0.5;" width="117.6338" x="154" y="115"/><ellipse cx="169" cy="131" fill="#ADD1B2" rx="11" ry="11" style="stroke:#181818;stroke-width:1;"/><path d="M171.9688,136.6406 Q171.3906,136.9375 170.75,137.0781 Q170.1094,137.2344 169.4063,137.2344 Q166.9063,137.2344 165.5781,135.5938 Q164.2656,133.9375 164.2656,130.8125 Q164.2656,127.6875 165.5781,126.0313 Q166.9063,124.375 169.4063,124.375 Q170.1094,124.375 170.75,124.5313 Q171.4063,124.6875 171.9688,124.9844 L171.9688,127.7031 Q171.3438,127.125 170.75,126.8594 Q170.1563,126.5781 169.5313,126.5781 Q168.1875,126.5781 167.5,127.6563 Q166.8125,128.7188 166.8125,130.8125 Q166.8125,132.9063 167.5,133.9844 Q168.1875,135.0469 169.5313,135.0469 Q170.1563,135.0469 170.75,134.7813 Q171.3438,134.5 171.9688,133.9219 L171.9688,136.6406 Z " fill="#000000"/><text fill="#000000" font-family="sans-serif" font-size="14" lengthAdjust="spacing" textLength="85.6338" x="183" y="135.8467">Deployment</text><line style="stroke:#181818;stroke-width:0.5;" x1="155" x2="270.6338" y1="147" y2="147"/><line style="stroke:#181818;stroke-width:0.5;" x1="155" x2="270.6338" y1="155" y2="155"/></g><!--class Result--><g class="entity" data-qualified-name="Result" data-source-line="26" id="ent0050"><rect fill="#F1F1F1" height="48" rx="2.5" ry="2.5" style="stroke:#181818;stroke-width:0.5;" width="75.8867" x="307" y="115"/><ellipse cx="322" cy="131" fill="#ADD1B2" rx="11" ry="11" style="stroke:#181818;stroke-width:1;"/><path d="M324.9688,136.6406 Q324.3906,136.9375 323.75,137.0781 Q323.1094,137.2344 322.4063,137.2344 Q319.9063,137.2344 318.5781,135.5938 Q317.2656,133.9375 317.2656,130.8125 Q317.2656,127.6875 318.5781,126.0313 Q319.9063,124.375 322.4063,124.375 Q323.1094,124.375 323.75,124.5313 Q324.4063,124.6875 324.9688,124.9844 L324.9688,127.7031 Q324.3438,127.125 323.75,126.8594 Q323.1563,126.5781 322.5313,126.5781 Q321.1875,126.5781 320.5,127.6563 Q319.8125,128.7188 319.8125,130.8125 Q319.8125,132.9063 320.5,133.9844 Q321.1875,135.0469 322.5313,135.0469 Q323.1563,135.0469 323.75,134.7813 Q324.3438,134.5 324.9688,133.9219 L324.9688,136.6406 Z " fill="#000000"/><text fill="#000000" font-family="sans-serif" font-size="14" lengthAdjust="spacing" textLength="43.8867" x="336" y="135.8467">Result</text><line style="stroke:#181818;stroke-width:0.5;" x1="308" x2="381.8867" y1="147" y2="147"/><line style="stroke:#181818;stroke-width:0.5;" x1="308" x2="381.8867" y1="155" y2="155"/></g><!--class Output--><g class="entity" data-qualified-name="Output" data-source-line="28" id="ent0051"><rect fill="#F1F1F1" height="48" rx="2.5" ry="2.5" style="stroke:#181818;stroke-width:0.5;" width="80.6309" x="44.5" y="223"/><ellipse cx="59.5" cy="239" fill="#ADD1B2" rx="11" ry="11" style="stroke:#181818;stroke-width:1;"/><path d="M62.4688,244.6406 Q61.8906,244.9375 61.25,245.0781 Q60.6094,245.2344 59.9063,245.2344 Q57.4063,245.2344 56.0781,243.5938 Q54.7656,241.9375 54.7656,238.8125 Q54.7656,235.6875 56.0781,234.0313 Q57.4063,232.375 59.9063,232.375 Q60.6094,232.375 61.25,232.5313 Q61.9063,232.6875 62.4688,232.9844 L62.4688,235.7031 Q61.8438,235.125 61.25,234.8594 Q60.6563,234.5781 60.0313,234.5781 Q58.6875,234.5781 58,235.6563 Q57.3125,236.7188 57.3125,238.8125 Q57.3125,240.9063 58,241.9844 Q58.6875,243.0469 60.0313,243.0469 Q60.6563,243.0469 61.25,242.7813 Q61.8438,242.5 62.4688,241.9219 L62.4688,244.6406 Z " fill="#000000"/><text fill="#000000" font-family="sans-serif" font-size="14" lengthAdjust="spacing" textLength="48.6309" x="73.5" y="243.8467">Output</text><line style="stroke:#181818;stroke-width:0.5;" x1="45.5" x2="124.1309" y1="255" y2="255"/><line style="stroke:#181818;stroke-width:0.5;" x1="45.5" x2="124.1309" y1="263" y2="263"/></g><!--reverse link Property to ActuatableProperty--><g class="link" data-entity-1="ent0001" data-entity-2="ent0002" data-link-type="extension" data-source-line="1" id="lnk3"><path codeLine="1" d="M592.0658,66.2212 C569.9158,83.8812 553.52,96.94 531.26,114.68" fill="none" id="Property-backto-ActuatableProperty" style="stroke:#181818;stroke-width:1;"/><polygon fill="none" points="606.14,55,588.3254,61.5298,595.8062,70.9127,606.14,55" style="stroke:#181818;stroke-width:1;stroke-linejoin:miter;stroke-miterlimit:10;"/></g><!--reverse link Sample to MaterialSample--><g class="link" data-entity-1="ent0004" data-entity-2="ent0005" data-link-type="extension" data-source-line="2" id="lnk6"><path codeLine="2" d="M1018.3567,64.4445 C989.6067,82.1645 965.35,97.11 936.55,114.86" fill="none" id="Sample-backto-MaterialSample" style="stroke:#181818;stroke-width:1;"/><polygon fill="none" points="1033.68,55,1015.2086,59.3367,1021.5049,69.5522,1033.68,55" style="stroke:#181818;stroke-width:1;stroke-linejoin:miter;stroke-miterlimit:10;"/></g><!--reverse link Sample to SpatialSample--><g class="link" data-entity-1="ent0004" data-entity-2="ent0007" data-link-type="extension" data-source-line="3" id="lnk8"><path codeLine="3" d="M1071,73 C1071,90.66 1071,96.94 1071,114.68" fill="none" id="Sample-backto-SpatialSample" style="stroke:#181818;stroke-width:1;"/><polygon fill="none" points="1071,55,1065,73,1077,73,1071,55" style="stroke:#181818;stroke-width:1;stroke-linejoin:miter;stroke-miterlimit:10;"/></g><!--reverse link Sample to StatisticalSample--><g class="link" data-entity-1="ent0004" data-entity-2="ent0009" data-link-type="extension" data-source-line="4" id="lnk10"><path codeLine="4" d="M1125.3276,64.1725 C1155.2476,81.8925 1180.95,97.11 1210.93,114.86" fill="none" id="Sample-backto-StatisticalSample" style="stroke:#181818;stroke-width:1;"/><polygon fill="none" points="1109.84,55,1122.2701,69.335,1128.3851,59.0099,1109.84,55" style="stroke:#181818;stroke-width:1;stroke-linejoin:miter;stroke-miterlimit:10;"/></g><!--reverse link Property to ObservableProperty--><g class="link" data-entity-1="ent0001" data-entity-2="ent0011" data-link-type="extension" data-source-line="5" id="lnk12"><path codeLine="5" d="M660.7365,69.8881 C672.7365,87.5481 679.11,96.94 691.16,114.68" fill="none" id="Property-backto-ObservableProperty" style="stroke:#181818;stroke-width:1;"/><polygon fill="none" points="650.62,55,655.7738,73.2603,665.6992,66.516,650.62,55" style="stroke:#181818;stroke-width:1;stroke-linejoin:miter;stroke-miterlimit:10;"/></g><!--reverse link Procedure to ActuatingProcedure--><g class="link" data-entity-1="ent0013" data-entity-2="ent0014" data-link-type="extension" data-source-line="6" id="lnk15"><path codeLine="6" d="M1594.8326,63.1732 C1560.0626,80.8932 1528.24,97.11 1493.4,114.86" fill="none" id="Procedure-backto-ActuatingProcedure" style="stroke:#181818;stroke-width:1;"/><polygon fill="none" points="1610.87,55,1592.1082,57.8274,1597.557,68.519,1610.87,55" style="stroke:#181818;stroke-width:1;stroke-linejoin:miter;stroke-miterlimit:10;"/></g><!--reverse link Procedure to ObservingProcedure--><g class="link" data-entity-1="ent0013" data-entity-2="ent0016" data-link-type="extension" data-source-line="7" id="lnk17"><path codeLine="7" d="M1656,73 C1656,90.66 1656,96.94 1656,114.68" fill="none" id="Procedure-backto-ObservingProcedure" style="stroke:#181818;stroke-width:1;"/><polygon fill="none" points="1656,55,1650,73,1662,73,1656,55" style="stroke:#181818;stroke-width:1;stroke-linejoin:miter;stroke-miterlimit:10;"/></g><!--reverse link Procedure to SamplingProcedure--><g class="link" data-entity-1="ent0013" data-entity-2="ent0018" data-link-type="extension" data-source-line="8" id="lnk19"><path codeLine="8" d="M1716.9411,63.205 C1751.5411,80.925 1783.15,97.11 1817.81,114.86" fill="none" id="Procedure-backto-SamplingProcedure" style="stroke:#181818;stroke-width:1;"/><polygon fill="none" points="1700.92,55,1714.2061,68.5454,1719.6762,57.8647,1700.92,55" style="stroke:#181818;stroke-width:1;stroke-linejoin:miter;stroke-miterlimit:10;"/></g><!--reverse link Asset to Platform--><g class="link" data-entity-1="ent0020" data-entity-2="ent0021" data-link-type="extension" data-source-line="9" id="lnk22"><path codeLine="9" d="M2066.7839,70.6022 C2056.6239,88.2622 2051.63,96.94 2041.42,114.68" fill="none" id="Asset-backto-Platform" style="stroke:#181818;stroke-width:1;"/><polygon fill="none" points="2075.76,55,2061.5831,67.6102,2071.9846,73.5943,2075.76,55" style="stroke:#181818;stroke-width:1;stroke-linejoin:miter;stroke-miterlimit:10;"/></g><!--reverse link System to Sampler--><g class="link" data-entity-1="ent0023" data-entity-2="ent0024" data-link-type="extension" data-source-line="10" id="lnk25"><path codeLine="10" d="M2109.8865,174.5884 C2088.8965,192.2484 2073.81,204.94 2052.72,222.68" fill="none" id="System-backto-Sampler" style="stroke:#181818;stroke-width:1;"/><polygon fill="none" points="2123.66,163,2106.0237,169.9972,2113.7493,179.1795,2123.66,163" style="stroke:#181818;stroke-width:1;stroke-linejoin:miter;stroke-miterlimit:10;"/></g><!--reverse link System to Actuator--><g class="link" data-entity-1="ent0023" data-entity-2="ent0026" data-link-type="extension" data-source-line="11" id="lnk27"><path codeLine="11" d="M2151,181 C2151,198.66 2151,204.94 2151,222.68" fill="none" id="System-backto-Actuator" style="stroke:#181818;stroke-width:1;"/><polygon fill="none" points="2151,163,2145,181,2157,181,2151,163" style="stroke:#181818;stroke-width:1;stroke-linejoin:miter;stroke-miterlimit:10;"/></g><!--reverse link Asset to System--><g class="link" data-entity-1="ent0020" data-entity-2="ent0023" data-link-type="extension" data-source-line="12" id="lnk28"><path codeLine="12" d="M2111.5383,70.5372 C2121.8683,88.1972 2126.98,96.94 2137.36,114.68" fill="none" id="Asset-backto-System" style="stroke:#181818;stroke-width:1;"/><polygon fill="none" points="2102.45,55,2106.3592,73.5666,2116.7173,67.5077,2102.45,55" style="stroke:#181818;stroke-width:1;stroke-linejoin:miter;stroke-miterlimit:10;"/></g><!--reverse link Execution to Sampling--><g class="link" data-entity-1="ent0029" data-entity-2="ent0030" data-link-type="extension" data-source-line="13" id="lnk31"><path codeLine="13" d="M2367.8041,66.1688 C2345.4841,83.8288 2328.91,96.94 2306.48,114.68" fill="none" id="Execution-backto-Sampling" style="stroke:#181818;stroke-width:1;"/><polygon fill="none" points="2381.92,55,2364.0812,61.4635,2371.527,70.8741,2381.92,55" style="stroke:#181818;stroke-width:1;stroke-linejoin:miter;stroke-miterlimit:10;"/></g><!--reverse link ExecutionCollection to SamplingCollection--><g class="link" data-entity-1="ent0032" data-entity-2="ent0033" data-link-type="extension" data-source-line="14" id="lnk34"><path codeLine="14" d="M2873.231,63.3636 C2839.461,81.0836 2808.93,97.11 2775.09,114.86" fill="none" id="ExecutionCollection-backto-SamplingCollection" style="stroke:#181818;stroke-width:1;"/><polygon fill="none" points="2889.17,55,2870.4432,58.0506,2876.0189,68.6766,2889.17,55" style="stroke:#181818;stroke-width:1;stroke-linejoin:miter;stroke-miterlimit:10;"/></g><!--reverse link Execution to Actuation--><g class="link" data-entity-1="ent0029" data-entity-2="ent0035" data-link-type="extension" data-source-line="15" id="lnk36"><path codeLine="15" d="M2411,73 C2411,90.66 2411,96.94 2411,114.68" fill="none" id="Execution-backto-Actuation" style="stroke:#181818;stroke-width:1;"/><polygon fill="none" points="2411,55,2405,73,2417,73,2411,55" style="stroke:#181818;stroke-width:1;stroke-linejoin:miter;stroke-miterlimit:10;"/></g><!--reverse link System to Sensor--><g class="link" data-entity-1="ent0023" data-entity-2="ent0037" data-link-type="extension" data-source-line="16" id="lnk38"><path codeLine="16" d="M2190.7968,174.864 C2210.9468,192.524 2225.13,204.94 2245.38,222.68" fill="none" id="System-backto-Sensor" style="stroke:#181818;stroke-width:1;"/><polygon fill="none" points="2177.26,163,2186.8421,179.3763,2194.7515,170.3518,2177.26,163" style="stroke:#181818;stroke-width:1;stroke-linejoin:miter;stroke-miterlimit:10;"/></g><!--reverse link ExecutionCollection to ActuationCollection--><g class="link" data-entity-1="ent0032" data-entity-2="ent0039" data-link-type="extension" data-source-line="17" id="lnk40"><path codeLine="17" d="M2933,73 C2933,90.66 2933,96.94 2933,114.68" fill="none" id="ExecutionCollection-backto-ActuationCollection" style="stroke:#181818;stroke-width:1;"/><polygon fill="none" points="2933,55,2927,73,2939,73,2933,55" style="stroke:#181818;stroke-width:1;stroke-linejoin:miter;stroke-miterlimit:10;"/></g><!--reverse link ExecutionCollection to ObservationCollection--><g class="link" data-entity-1="ent0032" data-entity-2="ent0041" data-link-type="extension" data-source-line="18" id="lnk42"><path codeLine="18" d="M2995.0997,63.0498 C3030.5397,80.7698 3063.22,97.11 3098.72,114.86" fill="none" id="ExecutionCollection-backto-ObservationCollection" style="stroke:#181818;stroke-width:1;"/><polygon fill="none" points="2979,55,2992.4164,68.4164,2997.783,57.6833,2979,55" style="stroke:#181818;stroke-width:1;stroke-linejoin:miter;stroke-miterlimit:10;"/></g><!--reverse link Execution to Observation--><g class="link" data-entity-1="ent0029" data-entity-2="ent0043" data-link-type="extension" data-source-line="19" id="lnk44"><path codeLine="19" d="M2456.4895,65.7202 C2480.3095,83.3802 2498.61,96.94 2522.54,114.68" fill="none" id="Execution-backto-Observation" style="stroke:#181818;stroke-width:1;"/><polygon fill="none" points="2442.03,55,2452.9161,70.54,2460.0629,60.9004,2442.03,55" style="stroke:#181818;stroke-width:1;stroke-linejoin:miter;stroke-miterlimit:10;"/></g><?plantuml-src VP9BRiCm34JtFeKla1ja4xGDa4LWepu1epA10Ee3aGfge8UlK2csvSJTMVE6Gufo7vp786Ex_zdjseEI208NmhxepG364sPy1i6WWR9MeS63R119X4MhYVPLp-x26EvLp_IXy2i6N4wbxMtIruwSyP_ZhtLbE32ZPDWJoDK5qmmZ2vf51OPAovEui2pElFduHXL5Erltc_KtHuJgsJ7hwunoxmIgkT1occ0pTwfw5Rmsb-LlsPzCZI9WRey8adRONKys_H78KlIyiqLIaKMRI97ByMHzV5HCRvwFx-Z9ZGRjWtyYHvBNELsKEQWymphc5m00?></g></svg>