<svg xmlns="http://www.w3.org/2000/svg" xmlns:xlink="http://www.w3.org/1999/xlink" contentStyleType="text/css" data-diagram-type="CLASS" height="286px" preserveAspectRatio="none" style="width:3302px;height:286px;background:#FFFFFF;" version="1.1" viewBox="0 0 3302 286" width="3302px" zoomAndPan="magnify"><?plantuml 1.2026.3?><defs/><g><!--class Property--><g class="entity" data-qualified-name="Property" data-source-line="1" id="ent0002"><rect fill="#F1F1F1" height="48" rx="2.5" ry="2.5" style="stroke:#181818;stroke-width:0.5;" width="91.7939" x="607.5" y="7"/><ellipse cx="622.5" cy="23" fill="#ADD1B2" rx="11" ry="11" style="stroke:#181818;stroke-width:1;"/><path d="M625.4688,28.6406 Q624.8906,28.9375 624.25,29.0781 Q623.6094,29.2344 622.9063,29.2344 Q620.4063,29.2344 619.0781,27.5938 Q617.7656,25.9375 617.7656,22.8125 Q617.7656,19.6875 619.0781,18.0313 Q620.4063,16.375 622.9063,16.375 Q623.6094,16.375 624.25,16.5313 Q624.9063,16.6875 625.4688,16.9844 L625.4688,19.7031 Q624.8438,19.125 624.25,18.8594 Q623.6563,18.5781 623.0313,18.5781 Q621.6875,18.5781 621,19.6563 Q620.3125,20.7188 620.3125,22.8125 Q620.3125,24.9063 621,25.9844 Q621.6875,27.0469 623.0313,27.0469 Q623.6563,27.0469 624.25,26.7813 Q624.8438,26.5 625.4688,25.9219 L625.4688,28.6406 Z " fill="#000000"/><text fill="#000000" font-family="sans-serif" font-size="14" lengthAdjust="spacing" textLength="59.7939" x="636.5" y="27.8467">Property</text><line style="stroke:#181818;stroke-width:0.5;" x1="608.5" x2="698.2939" y1="39" y2="39"/><line style="stroke:#181818;stroke-width:0.5;" x1="608.5" x2="698.2939" y1="47" y2="47"/></g><!--class ActuatableProperty--><g class="entity" data-qualified-name="ActuatableProperty" data-source-line="1" id="ent0003"><rect fill="#F1F1F1" height="48" rx="2.5" ry="2.5" style="stroke:#181818;stroke-width:0.5;" width="167.4678" x="468" y="115"/><ellipse cx="483" cy="131" fill="#ADD1B2" rx="11" ry="11" style="stroke:#181818;stroke-width:1;"/><path d="M485.9688,136.6406 Q485.3906,136.9375 484.75,137.0781 Q484.1094,137.2344 483.4063,137.2344 Q480.9063,137.2344 479.5781,135.5938 Q478.2656,133.9375 478.2656,130.8125 Q478.2656,127.6875 479.5781,126.0313 Q480.9063,124.375 483.4063,124.375 Q484.1094,124.375 484.75,124.5313 Q485.4063,124.6875 485.9688,124.9844 L485.9688,127.7031 Q485.3438,127.125 484.75,126.8594 Q484.1563,126.5781 483.5313,126.5781 Q482.1875,126.5781 481.5,127.6563 Q480.8125,128.7188 480.8125,130.8125 Q480.8125,132.9063 481.5,133.9844 Q482.1875,135.0469 483.5313,135.0469 Q484.1563,135.0469 484.75,134.7813 Q485.3438,134.5 485.9688,133.9219 L485.9688,136.6406 Z " fill="#000000"/><text fill="#000000" font-family="sans-serif" font-size="14" lengthAdjust="spacing" textLength="135.4678" x="497" y="135.8467">ActuatableProperty</text><line style="stroke:#181818;stroke-width:0.5;" x1="469" x2="634.4678" y1="147" y2="147"/><line style="stroke:#181818;stroke-width:0.5;" x1="469" x2="634.4678" y1="155" y2="155"/></g><!--class Sample--><g class="entity" data-qualified-name="Sample" data-source-line="2" id="ent0005"><rect fill="#F1F1F1" height="48" rx="2.5" ry="2.5" style="stroke:#181818;stroke-width:0.5;" width="84.4932" x="1078.5" y="7"/><ellipse cx="1093.5" cy="23" fill="#ADD1B2" rx="11" ry="11" style="stroke:#181818;stroke-width:1;"/><path d="M1096.4688,28.6406 Q1095.8906,28.9375 1095.25,29.0781 Q1094.6094,29.2344 1093.9063,29.2344 Q1091.4063,29.2344 1090.0781,27.5938 Q1088.7656,25.9375 1088.7656,22.8125 Q1088.7656,19.6875 1090.0781,18.0313 Q1091.4063,16.375 1093.9063,16.375 Q1094.6094,16.375 1095.25,16.5313 Q1095.9063,16.6875 1096.4688,16.9844 L1096.4688,19.7031 Q1095.8438,19.125 1095.25,18.8594 Q1094.6563,18.5781 1094.0313,18.5781 Q1092.6875,18.5781 1092,19.6563 Q1091.3125,20.7188 1091.3125,22.8125 Q1091.3125,24.9063 1092,25.9844 Q1092.6875,27.0469 1094.0313,27.0469 Q1094.6563,27.0469 1095.25,26.7813 Q1095.8438,26.5 1096.4688,25.9219 L1096.4688,28.6406 Z " fill="#000000"/><text fill="#000000" font-family="sans-serif" font-size="14" lengthAdjust="spacing" textLength="52.4932" x="1107.5" y="27.8467">Sample</text><line style="stroke:#181818;stroke-width:0.5;" x1="1079.5" x2="1161.9932" y1="39" y2="39"/><line style="stroke:#181818;stroke-width:0.5;" x1="1079.5" x2="1161.9932" y1="47" y2="47"/></g><!--class MaterialSample--><g class="entity" data-qualified-name="MaterialSample" data-source-line="2" id="ent0006"><rect fill="#F1F1F1" height="48" rx="2.5" ry="2.5" style="stroke:#181818;stroke-width:0.5;" width="141.3682" x="878" y="115"/><ellipse cx="893" cy="131" fill="#ADD1B2" rx="11" ry="11" style="stroke:#181818;stroke-width:1;"/><path d="M895.9688,136.6406 Q895.3906,136.9375 894.75,137.0781 Q894.1094,137.2344 893.4063,137.2344 Q890.9063,137.2344 889.5781,135.5938 Q888.2656,133.9375 888.2656,130.8125 Q888.2656,127.6875 889.5781,126.0313 Q890.9063,124.375 893.4063,124.375 Q894.1094,124.375 894.75,124.5313 Q895.4063,124.6875 895.9688,124.9844 L895.9688,127.7031 Q895.3438,127.125 894.75,126.8594 Q894.1563,126.5781 893.5313,126.5781 Q892.1875,126.5781 891.5,127.6563 Q890.8125,128.7188 890.8125,130.8125 Q890.8125,132.9063 891.5,133.9844 Q892.1875,135.0469 893.5313,135.0469 Q894.1563,135.0469 894.75,134.7813 Q895.3438,134.5 895.9688,133.9219 L895.9688,136.6406 Z " fill="#000000"/><text fill="#000000" font-family="sans-serif" font-size="14" lengthAdjust="spacing" textLength="109.3682" x="907" y="135.8467">MaterialSample</text><line style="stroke:#181818;stroke-width:0.5;" x1="879" x2="1018.3682" y1="147" y2="147"/><line style="stroke:#181818;stroke-width:0.5;" x1="879" x2="1018.3682" y1="155" y2="155"/></g><!--class SpatialSample--><g class="entity" data-qualified-name="SpatialSample" data-source-line="3" id="ent0008"><rect fill="#F1F1F1" height="48" rx="2.5" ry="2.5" style="stroke:#181818;stroke-width:0.5;" width="132.6934" x="1054" y="115"/><ellipse cx="1069" cy="131" fill="#ADD1B2" rx="11" ry="11" style="stroke:#181818;stroke-width:1;"/><path d="M1071.9688,136.6406 Q1071.3906,136.9375 1070.75,137.0781 Q1070.1094,137.2344 1069.4063,137.2344 Q1066.9063,137.2344 1065.5781,135.5938 Q1064.2656,133.9375 1064.2656,130.8125 Q1064.2656,127.6875 1065.5781,126.0313 Q1066.9063,124.375 1069.4063,124.375 Q1070.1094,124.375 1070.75,124.5313 Q1071.4063,124.6875 1071.9688,124.9844 L1071.9688,127.7031 Q1071.3438,127.125 1070.75,126.8594 Q1070.1563,126.5781 1069.5313,126.5781 Q1068.1875,126.5781 1067.5,127.6563 Q1066.8125,128.7188 1066.8125,130.8125 Q1066.8125,132.9063 1067.5,133.9844 Q1068.1875,135.0469 1069.5313,135.0469 Q1070.1563,135.0469 1070.75,134.7813 Q1071.3438,134.5 1071.9688,133.9219 L1071.9688,136.6406 Z " fill="#000000"/><text fill="#000000" font-family="sans-serif" font-size="14" lengthAdjust="spacing" textLength="100.6934" x="1083" y="135.8467">SpatialSample</text><line style="stroke:#181818;stroke-width:0.5;" x1="1055" x2="1185.6934" y1="147" y2="147"/><line style="stroke:#181818;stroke-width:0.5;" x1="1055" x2="1185.6934" y1="155" y2="155"/></g><!--class StatisticalSample--><g class="entity" data-qualified-name="StatisticalSample" data-source-line="4" id="ent0010"><rect fill="#F1F1F1" height="48" rx="2.5" ry="2.5" style="stroke:#181818;stroke-width:0.5;" width="153.666" x="1222.5" y="115"/><ellipse cx="1237.5" cy="131" fill="#ADD1B2" rx="11" ry="11" style="stroke:#181818;stroke-width:1;"/><path d="M1240.4688,136.6406 Q1239.8906,136.9375 1239.25,137.0781 Q1238.6094,137.2344 1237.9063,137.2344 Q1235.4063,137.2344 1234.0781,135.5938 Q1232.7656,133.9375 1232.7656,130.8125 Q1232.7656,127.6875 1234.0781,126.0313 Q1235.4063,124.375 1237.9063,124.375 Q1238.6094,124.375 1239.25,124.5313 Q1239.9063,124.6875 1240.4688,124.9844 L1240.4688,127.7031 Q1239.8438,127.125 1239.25,126.8594 Q1238.6563,126.5781 1238.0313,126.5781 Q1236.6875,126.5781 1236,127.6563 Q1235.3125,128.7188 1235.3125,130.8125 Q1235.3125,132.9063 1236,133.9844 Q1236.6875,135.0469 1238.0313,135.0469 Q1238.6563,135.0469 1239.25,134.7813 Q1239.8438,134.5 1240.4688,133.9219 L1240.4688,136.6406 Z " fill="#000000"/><text fill="#000000" font-family="sans-serif" font-size="14" lengthAdjust="spacing" textLength="121.666" x="1251.5" y="135.8467">StatisticalSample</text><line style="stroke:#181818;stroke-width:0.5;" x1="1223.5" x2="1375.166" y1="147" y2="147"/><line style="stroke:#181818;stroke-width:0.5;" x1="1223.5" x2="1375.166" y1="155" y2="155"/></g><!--class ObservableProperty--><g class="entity" data-qualified-name="ObservableProperty" data-source-line="5" id="ent0012"><rect fill="#F1F1F1" height="48" rx="2.5" ry="2.5" style="stroke:#181818;stroke-width:0.5;" width="171.6172" x="670.5" y="115"/><ellipse cx="685.5" cy="131" fill="#ADD1B2" rx="11" ry="11" style="stroke:#181818;stroke-width:1;"/><path d="M688.4688,136.6406 Q687.8906,136.9375 687.25,137.0781 Q686.6094,137.2344 685.9063,137.2344 Q683.4063,137.2344 682.0781,135.5938 Q680.7656,133.9375 680.7656,130.8125 Q680.7656,127.6875 682.0781,126.0313 Q683.4063,124.375 685.9063,124.375 Q686.6094,124.375 687.25,124.5313 Q687.9063,124.6875 688.4688,124.9844 L688.4688,127.7031 Q687.8438,127.125 687.25,126.8594 Q686.6563,126.5781 686.0313,126.5781 Q684.6875,126.5781 684,127.6563 Q683.3125,128.7188 683.3125,130.8125 Q683.3125,132.9063 684,133.9844 Q684.6875,135.0469 686.0313,135.0469 Q686.6563,135.0469 687.25,134.7813 Q687.8438,134.5 688.4688,133.9219 L688.4688,136.6406 Z " fill="#000000"/><text fill="#000000" font-family="sans-serif" font-size="14" lengthAdjust="spacing" textLength="139.6172" x="699.5" y="135.8467">ObservableProperty</text><line style="stroke:#181818;stroke-width:0.5;" x1="671.5" x2="841.1172" y1="147" y2="147"/><line style="stroke:#181818;stroke-width:0.5;" x1="671.5" x2="841.1172" y1="155" y2="155"/></g><!--class Procedure--><g class="entity" data-qualified-name="Procedure" data-source-line="6" id="ent0014"><rect fill="#F1F1F1" height="48" rx="2.5" ry="2.5" style="stroke:#181818;stroke-width:0.5;" width="103.2031" x="1654" y="7"/><ellipse cx="1669" cy="23" fill="#ADD1B2" rx="11" ry="11" style="stroke:#181818;stroke-width:1;"/><path d="M1671.9688,28.6406 Q1671.3906,28.9375 1670.75,29.0781 Q1670.1094,29.2344 1669.4063,29.2344 Q1666.9063,29.2344 1665.5781,27.5938 Q1664.2656,25.9375 1664.2656,22.8125 Q1664.2656,19.6875 1665.5781,18.0313 Q1666.9063,16.375 1669.4063,16.375 Q1670.1094,16.375 1670.75,16.5313 Q1671.4063,16.6875 1671.9688,16.9844 L1671.9688,19.7031 Q1671.3438,19.125 1670.75,18.8594 Q1670.1563,18.5781 1669.5313,18.5781 Q1668.1875,18.5781 1667.5,19.6563 Q1666.8125,20.7188 1666.8125,22.8125 Q1666.8125,24.9063 1667.5,25.9844 Q1668.1875,27.0469 1669.5313,27.0469 Q1670.1563,27.0469 1670.75,26.7813 Q1671.3438,26.5 1671.9688,25.9219 L1671.9688,28.6406 Z " fill="#000000"/><text fill="#000000" font-family="sans-serif" font-size="14" lengthAdjust="spacing" textLength="71.2031" x="1683" y="27.8467">Procedure</text><line style="stroke:#181818;stroke-width:0.5;" x1="1655" x2="1756.2031" y1="39" y2="39"/><line style="stroke:#181818;stroke-width:0.5;" x1="1655" x2="1756.2031" y1="47" y2="47"/></g><!--class ActuatingProcedure--><g class="entity" data-qualified-name="ActuatingProcedure" data-source-line="6" id="ent0015"><rect fill="#F1F1F1" height="48" rx="2.5" ry="2.5" style="stroke:#181818;stroke-width:0.5;" width="170.5576" x="1412" y="115"/><ellipse cx="1427" cy="131" fill="#ADD1B2" rx="11" ry="11" style="stroke:#181818;stroke-width:1;"/><path d="M1429.9688,136.6406 Q1429.3906,136.9375 1428.75,137.0781 Q1428.1094,137.2344 1427.4063,137.2344 Q1424.9063,137.2344 1423.5781,135.5938 Q1422.2656,133.9375 1422.2656,130.8125 Q1422.2656,127.6875 1423.5781,126.0313 Q1424.9063,124.375 1427.4063,124.375 Q1428.1094,124.375 1428.75,124.5313 Q1429.4063,124.6875 1429.9688,124.9844 L1429.9688,127.7031 Q1429.3438,127.125 1428.75,126.8594 Q1428.1563,126.5781 1427.5313,126.5781 Q1426.1875,126.5781 1425.5,127.6563 Q1424.8125,128.7188 1424.8125,130.8125 Q1424.8125,132.9063 1425.5,133.9844 Q1426.1875,135.0469 1427.5313,135.0469 Q1428.1563,135.0469 1428.75,134.7813 Q1429.3438,134.5 1429.9688,133.9219 L1429.9688,136.6406 Z " fill="#000000"/><text fill="#000000" font-family="sans-serif" font-size="14" lengthAdjust="spacing" textLength="138.5576" x="1441" y="135.8467">ActuatingProcedure</text><line style="stroke:#181818;stroke-width:0.5;" x1="1413" x2="1581.5576" y1="147" y2="147"/><line style="stroke:#181818;stroke-width:0.5;" x1="1413" x2="1581.5576" y1="155" y2="155"/></g><!--class ObservingProcedure--><g class="entity" data-qualified-name="ObservingProcedure" data-source-line="7" id="ent0017"><rect fill="#F1F1F1" height="48" rx="2.5" ry="2.5" style="stroke:#181818;stroke-width:0.5;" width="174.707" x="1618" y="115"/><ellipse cx="1633" cy="131" fill="#ADD1B2" rx="11" ry="11" style="stroke:#181818;stroke-width:1;"/><path d="M1635.9688,136.6406 Q1635.3906,136.9375 1634.75,137.0781 Q1634.1094,137.2344 1633.4063,137.2344 Q1630.9063,137.2344 1629.5781,135.5938 Q1628.2656,133.9375 1628.2656,130.8125 Q1628.2656,127.6875 1629.5781,126.0313 Q1630.9063,124.375 1633.4063,124.375 Q1634.1094,124.375 1634.75,124.5313 Q1635.4063,124.6875 1635.9688,124.9844 L1635.9688,127.7031 Q1635.3438,127.125 1634.75,126.8594 Q1634.1563,126.5781 1633.5313,126.5781 Q1632.1875,126.5781 1631.5,127.6563 Q1630.8125,128.7188 1630.8125,130.8125 Q1630.8125,132.9063 1631.5,133.9844 Q1632.1875,135.0469 1633.5313,135.0469 Q1634.1563,135.0469 1634.75,134.7813 Q1635.3438,134.5 1635.9688,133.9219 L1635.9688,136.6406 Z " fill="#000000"/><text fill="#000000" font-family="sans-serif" font-size="14" lengthAdjust="spacing" textLength="142.707" x="1647" y="135.8467">ObservingProcedure</text><line style="stroke:#181818;stroke-width:0.5;" x1="1619" x2="1791.707" y1="147" y2="147"/><line style="stroke:#181818;stroke-width:0.5;" x1="1619" x2="1791.707" y1="155" y2="155"/></g><!--class SamplingProcedure--><g class="entity" data-qualified-name="SamplingProcedure" data-source-line="8" id="ent0019"><rect fill="#F1F1F1" height="48" rx="2.5" ry="2.5" style="stroke:#181818;stroke-width:0.5;" width="168.7324" x="1828" y="115"/><ellipse cx="1843" cy="131" fill="#ADD1B2" rx="11" ry="11" style="stroke:#181818;stroke-width:1;"/><path d="M1845.9688,136.6406 Q1845.3906,136.9375 1844.75,137.0781 Q1844.1094,137.2344 1843.4063,137.2344 Q1840.9063,137.2344 1839.5781,135.5938 Q1838.2656,133.9375 1838.2656,130.8125 Q1838.2656,127.6875 1839.5781,126.0313 Q1840.9063,124.375 1843.4063,124.375 Q1844.1094,124.375 1844.75,124.5313 Q1845.4063,124.6875 1845.9688,124.9844 L1845.9688,127.7031 Q1845.3438,127.125 1844.75,126.8594 Q1844.1563,126.5781 1843.5313,126.5781 Q1842.1875,126.5781 1841.5,127.6563 Q1840.8125,128.7188 1840.8125,130.8125 Q1840.8125,132.9063 1841.5,133.9844 Q1842.1875,135.0469 1843.5313,135.0469 Q1844.1563,135.0469 1844.75,134.7813 Q1845.3438,134.5 1845.9688,133.9219 L1845.9688,136.6406 Z " fill="#000000"/><text fill="#000000" font-family="sans-serif" font-size="14" lengthAdjust="spacing" textLength="136.7324" x="1857" y="135.8467">SamplingProcedure</text><line style="stroke:#181818;stroke-width:0.5;" x1="1829" x2="1995.7324" y1="147" y2="147"/><line style="stroke:#181818;stroke-width:0.5;" x1="1829" x2="1995.7324" y1="155" y2="155"/></g><!--class Asset--><g class="entity" data-qualified-name="Asset" data-source-line="9" id="ent0021"><rect fill="#F1F1F1" height="48" rx="2.5" ry="2.5" style="stroke:#181818;stroke-width:0.5;" width="70.2676" x="2103.5" y="7"/><ellipse cx="2118.5" cy="23" fill="#ADD1B2" rx="11" ry="11" style="stroke:#181818;stroke-width:1;"/><path d="M2121.4688,28.6406 Q2120.8906,28.9375 2120.25,29.0781 Q2119.6094,29.2344 2118.9063,29.2344 Q2116.4063,29.2344 2115.0781,27.5938 Q2113.7656,25.9375 2113.7656,22.8125 Q2113.7656,19.6875 2115.0781,18.0313 Q2116.4063,16.375 2118.9063,16.375 Q2119.6094,16.375 2120.25,16.5313 Q2120.9063,16.6875 2121.4688,16.9844 L2121.4688,19.7031 Q2120.8438,19.125 2120.25,18.8594 Q2119.6563,18.5781 2119.0313,18.5781 Q2117.6875,18.5781 2117,19.6563 Q2116.3125,20.7188 2116.3125,22.8125 Q2116.3125,24.9063 2117,25.9844 Q2117.6875,27.0469 2119.0313,27.0469 Q2119.6563,27.0469 2120.25,26.7813 Q2120.8438,26.5 2121.4688,25.9219 L2121.4688,28.6406 Z " fill="#000000"/><text fill="#000000" font-family="sans-serif" font-size="14" lengthAdjust="spacing" textLength="38.2676" x="2132.5" y="27.8467">Asset</text><line style="stroke:#181818;stroke-width:0.5;" x1="2104.5" x2="2172.7676" y1="39" y2="39"/><line style="stroke:#181818;stroke-width:0.5;" x1="2104.5" x2="2172.7676" y1="47" y2="47"/></g><!--class Platform--><g class="entity" data-qualified-name="Platform" data-source-line="9" id="ent0022"><rect fill="#F1F1F1" height="48" rx="2.5" ry="2.5" style="stroke:#181818;stroke-width:0.5;" width="91.2881" x="2032" y="115"/><ellipse cx="2047" cy="131" fill="#ADD1B2" rx="11" ry="11" style="stroke:#181818;stroke-width:1;"/><path d="M2049.9688,136.6406 Q2049.3906,136.9375 2048.75,137.0781 Q2048.1094,137.2344 2047.4063,137.2344 Q2044.9063,137.2344 2043.5781,135.5938 Q2042.2656,133.9375 2042.2656,130.8125 Q2042.2656,127.6875 2043.5781,126.0313 Q2044.9063,124.375 2047.4063,124.375 Q2048.1094,124.375 2048.75,124.5313 Q2049.4063,124.6875 2049.9688,124.9844 L2049.9688,127.7031 Q2049.3438,127.125 2048.75,126.8594 Q2048.1563,126.5781 2047.5313,126.5781 Q2046.1875,126.5781 2045.5,127.6563 Q2044.8125,128.7188 2044.8125,130.8125 Q2044.8125,132.9063 2045.5,133.9844 Q2046.1875,135.0469 2047.5313,135.0469 Q2048.1563,135.0469 2048.75,134.7813 Q2049.3438,134.5 2049.9688,133.9219 L2049.9688,136.6406 Z " fill="#000000"/><text fill="#000000" font-family="sans-serif" font-size="14" lengthAdjust="spacing" textLength="59.2881" x="2061" y="135.8467">Platform</text><line style="stroke:#181818;stroke-width:0.5;" x1="2033" x2="2122.2881" y1="147" y2="147"/><line style="stroke:#181818;stroke-width:0.5;" x1="2033" x2="2122.2881" y1="155" y2="155"/></g><!--class System--><g class="entity" data-qualified-name="System" data-source-line="10" id="ent0024"><rect fill="#F1F1F1" height="48" rx="2.5" ry="2.5" style="stroke:#181818;stroke-width:0.5;" width="84.2061" x="2158.5" y="115"/><ellipse cx="2173.5" cy="131" fill="#ADD1B2" rx="11" ry="11" style="stroke:#181818;stroke-width:1;"/><path d="M2176.4688,136.6406 Q2175.8906,136.9375 2175.25,137.0781 Q2174.6094,137.2344 2173.9063,137.2344 Q2171.4063,137.2344 2170.0781,135.5938 Q2168.7656,133.9375 2168.7656,130.8125 Q2168.7656,127.6875 2170.0781,126.0313 Q2171.4063,124.375 2173.9063,124.375 Q2174.6094,124.375 2175.25,124.5313 Q2175.9063,124.6875 2176.4688,124.9844 L2176.4688,127.7031 Q2175.8438,127.125 2175.25,126.8594 Q2174.6563,126.5781 2174.0313,126.5781 Q2172.6875,126.5781 2172,127.6563 Q2171.3125,128.7188 2171.3125,130.8125 Q2171.3125,132.9063 2172,133.9844 Q2172.6875,135.0469 2174.0313,135.0469 Q2174.6563,135.0469 2175.25,134.7813 Q2175.8438,134.5 2176.4688,133.9219 L2176.4688,136.6406 Z " fill="#000000"/><text fill="#000000" font-family="sans-serif" font-size="14" lengthAdjust="spacing" textLength="52.2061" x="2187.5" y="135.8467">System</text><line style="stroke:#181818;stroke-width:0.5;" x1="2159.5" x2="2241.7061" y1="147" y2="147"/><line style="stroke:#181818;stroke-width:0.5;" x1="2159.5" x2="2241.7061" y1="155" y2="155"/></g><!--class Sampler--><g class="entity" data-qualified-name="Sampler" data-source-line="10" id="ent0025"><rect fill="#F1F1F1" height="48" rx="2.5" ry="2.5" style="stroke:#181818;stroke-width:0.5;" width="90.249" x="2029.5" y="223"/><ellipse cx="2044.5" cy="239" fill="#ADD1B2" rx="11" ry="11" style="stroke:#181818;stroke-width:1;"/><path d="M2047.4688,244.6406 Q2046.8906,244.9375 2046.25,245.0781 Q2045.6094,245.2344 2044.9063,245.2344 Q2042.4063,245.2344 2041.0781,243.5938 Q2039.7656,241.9375 2039.7656,238.8125 Q2039.7656,235.6875 2041.0781,234.0313 Q2042.4063,232.375 2044.9063,232.375 Q2045.6094,232.375 2046.25,232.5313 Q2046.9063,232.6875 2047.4688,232.9844 L2047.4688,235.7031 Q2046.8438,235.125 2046.25,234.8594 Q2045.6563,234.5781 2045.0313,234.5781 Q2043.6875,234.5781 2043,235.6563 Q2042.3125,236.7188 2042.3125,238.8125 Q2042.3125,240.9063 2043,241.9844 Q2043.6875,243.0469 2045.0313,243.0469 Q2045.6563,243.0469 2046.25,242.7813 Q2046.8438,242.5 2047.4688,241.9219 L2047.4688,244.6406 Z " fill="#000000"/><text fill="#000000" font-family="sans-serif" font-size="14" lengthAdjust="spacing" textLength="58.249" x="2058.5" y="243.8467">Sampler</text><line style="stroke:#181818;stroke-width:0.5;" x1="2030.5" x2="2118.749" y1="255" y2="255"/><line style="stroke:#181818;stroke-width:0.5;" x1="2030.5" x2="2118.749" y1="263" y2="263"/></g><!--class Actuator--><g class="entity" data-qualified-name="Actuator" data-source-line="11" id="ent0027"><rect fill="#F1F1F1" height="48" rx="2.5" ry="2.5" style="stroke:#181818;stroke-width:0.5;" width="92.0264" x="2154.5" y="223"/><ellipse cx="2169.5" cy="239" fill="#ADD1B2" rx="11" ry="11" style="stroke:#181818;stroke-width:1;"/><path d="M2172.4688,244.6406 Q2171.8906,244.9375 2171.25,245.0781 Q2170.6094,245.2344 2169.9063,245.2344 Q2167.4063,245.2344 2166.0781,243.5938 Q2164.7656,241.9375 2164.7656,238.8125 Q2164.7656,235.6875 2166.0781,234.0313 Q2167.4063,232.375 2169.9063,232.375 Q2170.6094,232.375 2171.25,232.5313 Q2171.9063,232.6875 2172.4688,232.9844 L2172.4688,235.7031 Q2171.8438,235.125 2171.25,234.8594 Q2170.6563,234.5781 2170.0313,234.5781 Q2168.6875,234.5781 2168,235.6563 Q2167.3125,236.7188 2167.3125,238.8125 Q2167.3125,240.9063 2168,241.9844 Q2168.6875,243.0469 2170.0313,243.0469 Q2170.6563,243.0469 2171.25,242.7813 Q2171.8438,242.5 2172.4688,241.9219 L2172.4688,244.6406 Z " fill="#000000"/><text fill="#000000" font-family="sans-serif" font-size="14" lengthAdjust="spacing" textLength="60.0264" x="2183.5" y="243.8467">Actuator</text><line style="stroke:#181818;stroke-width:0.5;" x1="2155.5" x2="2245.5264" y1="255" y2="255"/><line style="stroke:#181818;stroke-width:0.5;" x1="2155.5" x2="2245.5264" y1="263" y2="263"/></g><!--class Execution--><g class="entity" data-qualified-name="Execution" data-source-line="13" id="ent0030"><rect fill="#F1F1F1" height="48" rx="2.5" ry="2.5" style="stroke:#181818;stroke-width:0.5;" width="101.1318" x="2410" y="7"/><ellipse cx="2425" cy="23" fill="#ADD1B2" rx="11" ry="11" style="stroke:#181818;stroke-width:1;"/><path d="M2427.9688,28.6406 Q2427.3906,28.9375 2426.75,29.0781 Q2426.1094,29.2344 2425.4063,29.2344 Q2422.9063,29.2344 2421.5781,27.5938 Q2420.2656,25.9375 2420.2656,22.8125 Q2420.2656,19.6875 2421.5781,18.0313 Q2422.9063,16.375 2425.4063,16.375 Q2426.1094,16.375 2426.75,16.5313 Q2427.4063,16.6875 2427.9688,16.9844 L2427.9688,19.7031 Q2427.3438,19.125 2426.75,18.8594 Q2426.1563,18.5781 2425.5313,18.5781 Q2424.1875,18.5781 2423.5,19.6563 Q2422.8125,20.7188 2422.8125,22.8125 Q2422.8125,24.9063 2423.5,25.9844 Q2424.1875,27.0469 2425.5313,27.0469 Q2426.1563,27.0469 2426.75,26.7813 Q2427.3438,26.5 2427.9688,25.9219 L2427.9688,28.6406 Z " fill="#000000"/><text fill="#000000" font-family="sans-serif" font-size="14" lengthAdjust="spacing" textLength="69.1318" x="2439" y="27.8467">Execution</text><line style="stroke:#181818;stroke-width:0.5;" x1="2411" x2="2510.1318" y1="39" y2="39"/><line style="stroke:#181818;stroke-width:0.5;" x1="2411" x2="2510.1318" y1="47" y2="47"/></g><!--class Sampling--><g class="entity" data-qualified-name="Sampling" data-source-line="13" id="ent0031"><rect fill="#F1F1F1" height="48" rx="2.5" ry="2.5" style="stroke:#181818;stroke-width:0.5;" width="97.5293" x="2277.5" y="115"/><ellipse cx="2292.5" cy="131" fill="#ADD1B2" rx="11" ry="11" style="stroke:#181818;stroke-width:1;"/><path d="M2295.4688,136.6406 Q2294.8906,136.9375 2294.25,137.0781 Q2293.6094,137.2344 2292.9063,137.2344 Q2290.4063,137.2344 2289.0781,135.5938 Q2287.7656,133.9375 2287.7656,130.8125 Q2287.7656,127.6875 2289.0781,126.0313 Q2290.4063,124.375 2292.9063,124.375 Q2293.6094,124.375 2294.25,124.5313 Q2294.9063,124.6875 2295.4688,124.9844 L2295.4688,127.7031 Q2294.8438,127.125 2294.25,126.8594 Q2293.6563,126.5781 2293.0313,126.5781 Q2291.6875,126.5781 2291,127.6563 Q2290.3125,128.7188 2290.3125,130.8125 Q2290.3125,132.9063 2291,133.9844 Q2291.6875,135.0469 2293.0313,135.0469 Q2293.6563,135.0469 2294.25,134.7813 Q2294.8438,134.5 2295.4688,133.9219 L2295.4688,136.6406 Z " fill="#000000"/><text fill="#000000" font-family="sans-serif" font-size="14" lengthAdjust="spacing" textLength="65.5293" x="2306.5" y="135.8467">Sampling</text><line style="stroke:#181818;stroke-width:0.5;" x1="2278.5" x2="2374.0293" y1="147" y2="147"/><line style="stroke:#181818;stroke-width:0.5;" x1="2278.5" x2="2374.0293" y1="155" y2="155"/></g><!--class ExecutionCollection--><g class="entity" data-qualified-name="ExecutionCollection" data-source-line="14" id="ent0033"><rect fill="#F1F1F1" height="48" rx="2.5" ry="2.5" style="stroke:#181818;stroke-width:0.5;" width="170.3799" x="2897.5" y="7"/><ellipse cx="2912.5" cy="23" fill="#ADD1B2" rx="11" ry="11" style="stroke:#181818;stroke-width:1;"/><path d="M2915.4688,28.6406 Q2914.8906,28.9375 2914.25,29.0781 Q2913.6094,29.2344 2912.9063,29.2344 Q2910.4063,29.2344 2909.0781,27.5938 Q2907.7656,25.9375 2907.7656,22.8125 Q2907.7656,19.6875 2909.0781,18.0313 Q2910.4063,16.375 2912.9063,16.375 Q2913.6094,16.375 2914.25,16.5313 Q2914.9063,16.6875 2915.4688,16.9844 L2915.4688,19.7031 Q2914.8438,19.125 2914.25,18.8594 Q2913.6563,18.5781 2913.0313,18.5781 Q2911.6875,18.5781 2911,19.6563 Q2910.3125,20.7188 2910.3125,22.8125 Q2910.3125,24.9063 2911,25.9844 Q2911.6875,27.0469 2913.0313,27.0469 Q2913.6563,27.0469 2914.25,26.7813 Q2914.8438,26.5 2915.4688,25.9219 L2915.4688,28.6406 Z " fill="#000000"/><text fill="#000000" font-family="sans-serif" font-size="14" lengthAdjust="spacing" textLength="138.3799" x="2926.5" y="27.8467">ExecutionCollection</text><line style="stroke:#181818;stroke-width:0.5;" x1="2898.5" x2="3066.8799" y1="39" y2="39"/><line style="stroke:#181818;stroke-width:0.5;" x1="2898.5" x2="3066.8799" y1="47" y2="47"/></g><!--class SamplingCollection--><g class="entity" data-qualified-name="SamplingCollection" data-source-line="14" id="ent0034"><rect fill="#F1F1F1" height="48" rx="2.5" ry="2.5" style="stroke:#181818;stroke-width:0.5;" width="166.7773" x="2697" y="115"/><ellipse cx="2712" cy="131" fill="#ADD1B2" rx="11" ry="11" style="stroke:#181818;stroke-width:1;"/><path d="M2714.9688,136.6406 Q2714.3906,136.9375 2713.75,137.0781 Q2713.1094,137.2344 2712.4063,137.2344 Q2709.9063,137.2344 2708.5781,135.5938 Q2707.2656,133.9375 2707.2656,130.8125 Q2707.2656,127.6875 2708.5781,126.0313 Q2709.9063,124.375 2712.4063,124.375 Q2713.1094,124.375 2713.75,124.5313 Q2714.4063,124.6875 2714.9688,124.9844 L2714.9688,127.7031 Q2714.3438,127.125 2713.75,126.8594 Q2713.1563,126.5781 2712.5313,126.5781 Q2711.1875,126.5781 2710.5,127.6563 Q2709.8125,128.7188 2709.8125,130.8125 Q2709.8125,132.9063 2710.5,133.9844 Q2711.1875,135.0469 2712.5313,135.0469 Q2713.1563,135.0469 2713.75,134.7813 Q2714.3438,134.5 2714.9688,133.9219 L2714.9688,136.6406 Z " fill="#000000"/><text fill="#000000" font-family="sans-serif" font-size="14" lengthAdjust="spacing" textLength="134.7773" x="2726" y="135.8467">SamplingCollection</text><line style="stroke:#181818;stroke-width:0.5;" x1="2698" x2="2862.7773" y1="147" y2="147"/><line style="stroke:#181818;stroke-width:0.5;" x1="2698" x2="2862.7773" y1="155" y2="155"/></g><!--class Actuation--><g class="entity" data-qualified-name="Actuation" data-source-line="15" id="ent0036"><rect fill="#F1F1F1" height="48" rx="2.5" ry="2.5" style="stroke:#181818;stroke-width:0.5;" width="99.0332" x="2411" y="115"/><ellipse cx="2426" cy="131" fill="#ADD1B2" rx="11" ry="11" style="stroke:#181818;stroke-width:1;"/><path d="M2428.9688,136.6406 Q2428.3906,136.9375 2427.75,137.0781 Q2427.1094,137.2344 2426.4063,137.2344 Q2423.9063,137.2344 2422.5781,135.5938 Q2421.2656,133.9375 2421.2656,130.8125 Q2421.2656,127.6875 2422.5781,126.0313 Q2423.9063,124.375 2426.4063,124.375 Q2427.1094,124.375 2427.75,124.5313 Q2428.4063,124.6875 2428.9688,124.9844 L2428.9688,127.7031 Q2428.3438,127.125 2427.75,126.8594 Q2427.1563,126.5781 2426.5313,126.5781 Q2425.1875,126.5781 2424.5,127.6563 Q2423.8125,128.7188 2423.8125,130.8125 Q2423.8125,132.9063 2424.5,133.9844 Q2425.1875,135.0469 2426.5313,135.0469 Q2427.1563,135.0469 2427.75,134.7813 Q2428.3438,134.5 2428.9688,133.9219 L2428.9688,136.6406 Z " fill="#000000"/><text fill="#000000" font-family="sans-serif" font-size="14" lengthAdjust="spacing" textLength="67.0332" x="2440" y="135.8467">Actuation</text><line style="stroke:#181818;stroke-width:0.5;" x1="2412" x2="2509.0332" y1="147" y2="147"/><line style="stroke:#181818;stroke-width:0.5;" x1="2412" x2="2509.0332" y1="155" y2="155"/></g><!--class Sensor--><g class="entity" data-qualified-name="Sensor" data-source-line="16" id="ent0038"><rect fill="#F1F1F1" height="48" rx="2.5" ry="2.5" style="stroke:#181818;stroke-width:0.5;" width="79.9883" x="2281.5" y="223"/><ellipse cx="2296.5" cy="239" fill="#ADD1B2" rx="11" ry="11" style="stroke:#181818;stroke-width:1;"/><path d="M2299.4688,244.6406 Q2298.8906,244.9375 2298.25,245.0781 Q2297.6094,245.2344 2296.9063,245.2344 Q2294.4063,245.2344 2293.0781,243.5938 Q2291.7656,241.9375 2291.7656,238.8125 Q2291.7656,235.6875 2293.0781,234.0313 Q2294.4063,232.375 2296.9063,232.375 Q2297.6094,232.375 2298.25,232.5313 Q2298.9063,232.6875 2299.4688,232.9844 L2299.4688,235.7031 Q2298.8438,235.125 2298.25,234.8594 Q2297.6563,234.5781 2297.0313,234.5781 Q2295.6875,234.5781 2295,235.6563 Q2294.3125,236.7188 2294.3125,238.8125 Q2294.3125,240.9063 2295,241.9844 Q2295.6875,243.0469 2297.0313,243.0469 Q2297.6563,243.0469 2298.25,242.7813 Q2298.8438,242.5 2299.4688,241.9219 L2299.4688,244.6406 Z " fill="#000000"/><text fill="#000000" font-family="sans-serif" font-size="14" lengthAdjust="spacing" textLength="47.9883" x="2310.5" y="243.8467">Sensor</text><line style="stroke:#181818;stroke-width:0.5;" x1="2282.5" x2="2360.4883" y1="255" y2="255"/><line style="stroke:#181818;stroke-width:0.5;" x1="2282.5" x2="2360.4883" y1="263" y2="263"/></g><!--class ActuationCollection--><g class="entity" data-qualified-name="ActuationCollection" data-source-line="17" id="ent0040"><rect fill="#F1F1F1" height="48" rx="2.5" ry="2.5" style="stroke:#181818;stroke-width:0.5;" width="168.2813" x="2898.5" y="115"/><ellipse cx="2913.5" cy="131" fill="#ADD1B2" rx="11" ry="11" style="stroke:#181818;stroke-width:1;"/><path d="M2916.4688,136.6406 Q2915.8906,136.9375 2915.25,137.0781 Q2914.6094,137.2344 2913.9063,137.2344 Q2911.4063,137.2344 2910.0781,135.5938 Q2908.7656,133.9375 2908.7656,130.8125 Q2908.7656,127.6875 2910.0781,126.0313 Q2911.4063,124.375 2913.9063,124.375 Q2914.6094,124.375 2915.25,124.5313 Q2915.9063,124.6875 2916.4688,124.9844 L2916.4688,127.7031 Q2915.8438,127.125 2915.25,126.8594 Q2914.6563,126.5781 2914.0313,126.5781 Q2912.6875,126.5781 2912,127.6563 Q2911.3125,128.7188 2911.3125,130.8125 Q2911.3125,132.9063 2912,133.9844 Q2912.6875,135.0469 2914.0313,135.0469 Q2914.6563,135.0469 2915.25,134.7813 Q2915.8438,134.5 2916.4688,133.9219 L2916.4688,136.6406 Z " fill="#000000"/><text fill="#000000" font-family="sans-serif" font-size="14" lengthAdjust="spacing" textLength="136.2813" x="2927.5" y="135.8467">ActuationCollection</text><line style="stroke:#181818;stroke-width:0.5;" x1="2899.5" x2="3065.7813" y1="147" y2="147"/><line style="stroke:#181818;stroke-width:0.5;" x1="2899.5" x2="3065.7813" y1="155" y2="155"/></g><!--class ObservationCollection--><g class="entity" data-qualified-name="ObservationCollection" data-source-line="18" id="ent0042"><rect fill="#F1F1F1" height="48" rx="2.5" ry="2.5" style="stroke:#181818;stroke-width:0.5;" width="186.499" x="3101.5" y="115"/><ellipse cx="3116.5" cy="131" fill="#ADD1B2" rx="11" ry="11" style="stroke:#181818;stroke-width:1;"/><path d="M3119.4688,136.6406 Q3118.8906,136.9375 3118.25,137.0781 Q3117.6094,137.2344 3116.9063,137.2344 Q3114.4063,137.2344 3113.0781,135.5938 Q3111.7656,133.9375 3111.7656,130.8125 Q3111.7656,127.6875 3113.0781,126.0313 Q3114.4063,124.375 3116.9063,124.375 Q3117.6094,124.375 3118.25,124.5313 Q3118.9063,124.6875 3119.4688,124.9844 L3119.4688,127.7031 Q3118.8438,127.125 3118.25,126.8594 Q3117.6563,126.5781 3117.0313,126.5781 Q3115.6875,126.5781 3115,127.6563 Q3114.3125,128.7188 3114.3125,130.8125 Q3114.3125,132.9063 3115,133.9844 Q3115.6875,135.0469 3117.0313,135.0469 Q3117.6563,135.0469 3118.25,134.7813 Q3118.8438,134.5 3119.4688,133.9219 L3119.4688,136.6406 Z " fill="#000000"/><text fill="#000000" font-family="sans-serif" font-size="14" lengthAdjust="spacing" textLength="154.499" x="3130.5" y="135.8467">ObservationCollection</text><line style="stroke:#181818;stroke-width:0.5;" x1="3102.5" x2="3286.999" y1="147" y2="147"/><line style="stroke:#181818;stroke-width:0.5;" x1="3102.5" x2="3286.999" y1="155" y2="155"/></g><!--class Observation--><g class="entity" data-qualified-name="Observation" data-source-line="19" id="ent0044"><rect fill="#F1F1F1" height="48" rx="2.5" ry="2.5" style="stroke:#181818;stroke-width:0.5;" width="117.251" x="2545" y="115"/><ellipse cx="2560" cy="131" fill="#ADD1B2" rx="11" ry="11" style="stroke:#181818;stroke-width:1;"/><path d="M2562.9688,136.6406 Q2562.3906,136.9375 2561.75,137.0781 Q2561.1094,137.2344 2560.4063,137.2344 Q2557.9063,137.2344 2556.5781,135.5938 Q2555.2656,133.9375 2555.2656,130.8125 Q2555.2656,127.6875 2556.5781,126.0313 Q2557.9063,124.375 2560.4063,124.375 Q2561.1094,124.375 2561.75,124.5313 Q2562.4063,124.6875 2562.9688,124.9844 L2562.9688,127.7031 Q2562.3438,127.125 2561.75,126.8594 Q2561.1563,126.5781 2560.5313,126.5781 Q2559.1875,126.5781 2558.5,127.6563 Q2557.8125,128.7188 2557.8125,130.8125 Q2557.8125,132.9063 2558.5,133.9844 Q2559.1875,135.0469 2560.5313,135.0469 Q2561.1563,135.0469 2561.75,134.7813 Q2562.3438,134.5 2562.9688,133.9219 L2562.9688,136.6406 Z " fill="#000000"/><text fill="#000000" font-family="sans-serif" font-size="14" lengthAdjust="spacing" textLength="85.251" x="2574" y="135.8467">Observation</text><line style="stroke:#181818;stroke-width:0.5;" x1="2546" x2="2661.251" y1="147" y2="147"/><line style="stroke:#181818;stroke-width:0.5;" x1="2546" x2="2661.251" y1="155" y2="155"/></g><!--class Input--><g class="entity" data-qualified-name="Input" data-source-line="20" id="ent0046"><rect fill="#F1F1F1" height="48" rx="2.5" ry="2.5" style="stroke:#181818;stroke-width:0.5;" width="68.251" x="13.5" y="7"/><ellipse cx="28.5" cy="23" fill="#ADD1B2" rx="11" ry="11" style="stroke:#181818;stroke-width:1;"/><path d="M31.4688,28.6406 Q30.8906,28.9375 30.25,29.0781 Q29.6094,29.2344 28.9063,29.2344 Q26.4063,29.2344 25.0781,27.5938 Q23.7656,25.9375 23.7656,22.8125 Q23.7656,19.6875 25.0781,18.0313 Q26.4063,16.375 28.9063,16.375 Q29.6094,16.375 30.25,16.5313 Q30.9063,16.6875 31.4688,16.9844 L31.4688,19.7031 Q30.8438,19.125 30.25,18.8594 Q29.6563,18.5781 29.0313,18.5781 Q27.6875,18.5781 27,19.6563 Q26.3125,20.7188 26.3125,22.8125 Q26.3125,24.9063 27,25.9844 Q27.6875,27.0469 29.0313,27.0469 Q29.6563,27.0469 30.25,26.7813 Q30.8438,26.5 31.4688,25.9219 L31.4688,28.6406 Z " fill="#000000"/><text fill="#000000" font-family="sans-serif" font-size="14" lengthAdjust="spacing" textLength="36.251" x="42.5" y="27.8467">Input</text><line style="stroke:#181818;stroke-width:0.5;" x1="14.5" x2="80.751" y1="39" y2="39"/><line style="stroke:#181818;stroke-width:0.5;" x1="14.5" x2="80.751" y1="47" y2="47"/></g><!--class Stimulus--><g class="entity" data-qualified-name="Stimulus" data-source-line="22" id="ent0047"><rect fill="#F1F1F1" height="48" rx="2.5" ry="2.5" style="stroke:#181818;stroke-width:0.5;" width="92.833" x="117" y="7"/><ellipse cx="132" cy="23" fill="#ADD1B2" rx="11" ry="11" style="stroke:#181818;stroke-width:1;"/><path d="M134.9688,28.6406 Q134.3906,28.9375 133.75,29.0781 Q133.1094,29.2344 132.4063,29.2344 Q129.9063,29.2344 128.5781,27.5938 Q127.2656,25.9375 127.2656,22.8125 Q127.2656,19.6875 128.5781,18.0313 Q129.9063,16.375 132.4063,16.375 Q133.1094,16.375 133.75,16.5313 Q134.4063,16.6875 134.9688,16.9844 L134.9688,19.7031 Q134.3438,19.125 133.75,18.8594 Q133.1563,18.5781 132.5313,18.5781 Q131.1875,18.5781 130.5,19.6563 Q129.8125,20.7188 129.8125,22.8125 Q129.8125,24.9063 130.5,25.9844 Q131.1875,27.0469 132.5313,27.0469 Q133.1563,27.0469 133.75,26.7813 Q134.3438,26.5 134.9688,25.9219 L134.9688,28.6406 Z " fill="#000000"/><text fill="#000000" font-family="sans-serif" font-size="14" lengthAdjust="spacing" textLength="60.833" x="146" y="27.8467">Stimulus</text><line style="stroke:#181818;stroke-width:0.5;" x1="118" x2="208.833" y1="39" y2="39"/><line style="stroke:#181818;stroke-width:0.5;" x1="118" x2="208.833" y1="47" y2="47"/></g><!--class SampleCollection--><g class="entity" data-qualified-name="SampleCollection" data-source-line="23" id="ent0048"><rect fill="#F1F1F1" height="48" rx="2.5" ry="2.5" style="stroke:#181818;stroke-width:0.5;" width="153.7412" x="245.5" y="7"/><ellipse cx="260.5" cy="23" fill="#ADD1B2" rx="11" ry="11" style="stroke:#181818;stroke-width:1;"/><path d="M263.4688,28.6406 Q262.8906,28.9375 262.25,29.0781 Q261.6094,29.2344 260.9063,29.2344 Q258.4063,29.2344 257.0781,27.5938 Q255.7656,25.9375 255.7656,22.8125 Q255.7656,19.6875 257.0781,18.0313 Q258.4063,16.375 260.9063,16.375 Q261.6094,16.375 262.25,16.5313 Q262.9063,16.6875 263.4688,16.9844 L263.4688,19.7031 Q262.8438,19.125 262.25,18.8594 Q261.6563,18.5781 261.0313,18.5781 Q259.6875,18.5781 259,19.6563 Q258.3125,20.7188 258.3125,22.8125 Q258.3125,24.9063 259,25.9844 Q259.6875,27.0469 261.0313,27.0469 Q261.6563,27.0469 262.25,26.7813 Q262.8438,26.5 263.4688,25.9219 L263.4688,28.6406 Z " fill="#000000"/><text fill="#000000" font-family="sans-serif" font-size="14" lengthAdjust="spacing" textLength="121.7412" x="274.5" y="27.8467">SampleCollection</text><line style="stroke:#181818;stroke-width:0.5;" x1="246.5" x2="398.2412" y1="39" y2="39"/><line style="stroke:#181818;stroke-width:0.5;" x1="246.5" x2="398.2412" y1="47" y2="47"/></g><!--class Output--><g class="entity" data-qualified-name="Output" data-source-line="26" id="ent0049"><rect fill="#F1F1F1" height="48" rx="2.5" ry="2.5" style="stroke:#181818;stroke-width:0.5;" width="80.6309" x="7" y="115"/><ellipse cx="22" cy="131" fill="#ADD1B2" rx="11" ry="11" style="stroke:#181818;stroke-width:1;"/><path d="M24.9688,136.6406 Q24.3906,136.9375 23.75,137.0781 Q23.1094,137.2344 22.4063,137.2344 Q19.9063,137.2344 18.5781,135.5938 Q17.2656,133.9375 17.2656,130.8125 Q17.2656,127.6875 18.5781,126.0313 Q19.9063,124.375 22.4063,124.375 Q23.1094,124.375 23.75,124.5313 Q24.4063,124.6875 24.9688,124.9844 L24.9688,127.7031 Q24.3438,127.125 23.75,126.8594 Q23.1563,126.5781 22.5313,126.5781 Q21.1875,126.5781 20.5,127.6563 Q19.8125,128.7188 19.8125,130.8125 Q19.8125,132.9063 20.5,133.9844 Q21.1875,135.0469 22.5313,135.0469 Q23.1563,135.0469 23.75,134.7813 Q24.3438,134.5 24.9688,133.9219 L24.9688,136.6406 Z " fill="#000000"/><text fill="#000000" font-family="sans-serif" font-size="14" lengthAdjust="spacing" textLength="48.6309" x="36" y="135.8467">Output</text><line style="stroke:#181818;stroke-width:0.5;" x1="8" x2="86.6309" y1="147" y2="147"/><line style="stroke:#181818;stroke-width:0.5;" x1="8" x2="86.6309" y1="155" y2="155"/></g><!--class Deployment--><g class="entity" data-qualified-name="Deployment" data-source-line="27" id="ent0050"><rect fill="#F1F1F1" height="48" rx="2.5" ry="2.5" style="stroke:#181818;stroke-width:0.5;" width="117.6338" x="123.5" y="115"/><ellipse cx="138.5" cy="131" fill="#ADD1B2" rx="11" ry="11" style="stroke:#181818;stroke-width:1;"/><path d="M141.4688,136.6406 Q140.8906,136.9375 140.25,137.0781 Q139.6094,137.2344 138.9063,137.2344 Q136.4063,137.2344 135.0781,135.5938 Q133.7656,133.9375 133.7656,130.8125 Q133.7656,127.6875 135.0781,126.0313 Q136.4063,124.375 138.9063,124.375 Q139.6094,124.375 140.25,124.5313 Q140.9063,124.6875 141.4688,124.9844 L141.4688,127.7031 Q140.8438,127.125 140.25,126.8594 Q139.6563,126.5781 139.0313,126.5781 Q137.6875,126.5781 137,127.6563 Q136.3125,128.7188 136.3125,130.8125 Q136.3125,132.9063 137,133.9844 Q137.6875,135.0469 139.0313,135.0469 Q139.6563,135.0469 140.25,134.7813 Q140.8438,134.5 141.4688,133.9219 L141.4688,136.6406 Z " fill="#000000"/><text fill="#000000" font-family="sans-serif" font-size="14" lengthAdjust="spacing" textLength="85.6338" x="152.5" y="135.8467">Deployment</text><line style="stroke:#181818;stroke-width:0.5;" x1="124.5" x2="240.1338" y1="147" y2="147"/><line style="stroke:#181818;stroke-width:0.5;" x1="124.5" x2="240.1338" y1="155" y2="155"/></g><!--class FeatureOfInterest--><g class="entity" data-qualified-name="FeatureOfInterest" data-source-line="28" id="ent0051"><rect fill="#F1F1F1" height="48" rx="2.5" ry="2.5" style="stroke:#181818;stroke-width:0.5;" width="156.1816" x="276.5" y="115"/><ellipse cx="291.5" cy="131" fill="#ADD1B2" rx="11" ry="11" style="stroke:#181818;stroke-width:1;"/><path d="M294.4688,136.6406 Q293.8906,136.9375 293.25,137.0781 Q292.6094,137.2344 291.9063,137.2344 Q289.4063,137.2344 288.0781,135.5938 Q286.7656,133.9375 286.7656,130.8125 Q286.7656,127.6875 288.0781,126.0313 Q289.4063,124.375 291.9063,124.375 Q292.6094,124.375 293.25,124.5313 Q293.9063,124.6875 294.4688,124.9844 L294.4688,127.7031 Q293.8438,127.125 293.25,126.8594 Q292.6563,126.5781 292.0313,126.5781 Q290.6875,126.5781 290,127.6563 Q289.3125,128.7188 289.3125,130.8125 Q289.3125,132.9063 290,133.9844 Q290.6875,135.0469 292.0313,135.0469 Q292.6563,135.0469 293.25,134.7813 Q293.8438,134.5 294.4688,133.9219 L294.4688,136.6406 Z " fill="#000000"/><text fill="#000000" font-family="sans-serif" font-size="14" lengthAdjust="spacing" textLength="124.1816" x="305.5" y="135.8467">FeatureOfInterest</text><line style="stroke:#181818;stroke-width:0.5;" x1="277.5" x2="431.6816" y1="147" y2="147"/><line style="stroke:#181818;stroke-width:0.5;" x1="277.5" x2="431.6816" y1="155" y2="155"/></g><!--class Result--><g class="entity" data-qualified-name="Result" data-source-line="29" id="ent0052"><rect fill="#F1F1F1" height="48" rx="2.5" ry="2.5" style="stroke:#181818;stroke-width:0.5;" width="75.8867" x="9.5" y="223"/><ellipse cx="24.5" cy="239" fill="#ADD1B2" rx="11" ry="11" style="stroke:#181818;stroke-width:1;"/><path d="M27.4688,244.6406 Q26.8906,244.9375 26.25,245.0781 Q25.6094,245.2344 24.9063,245.2344 Q22.4063,245.2344 21.0781,243.5938 Q19.7656,241.9375 19.7656,238.8125 Q19.7656,235.6875 21.0781,234.0313 Q22.4063,232.375 24.9063,232.375 Q25.6094,232.375 26.25,232.5313 Q26.9063,232.6875 27.4688,232.9844 L27.4688,235.7031 Q26.8438,235.125 26.25,234.8594 Q25.6563,234.5781 25.0313,234.5781 Q23.6875,234.5781 23,235.6563 Q22.3125,236.7188 22.3125,238.8125 Q22.3125,240.9063 23,241.9844 Q23.6875,243.0469 25.0313,243.0469 Q25.6563,243.0469 26.25,242.7813 Q26.8438,242.5 27.4688,241.9219 L27.4688,244.6406 Z " fill="#000000"/><text fill="#000000" font-family="sans-serif" font-size="14" lengthAdjust="spacing" textLength="43.8867" x="38.5" y="243.8467">Result</text><line style="stroke:#181818;stroke-width:0.5;" x1="10.5" x2="84.3867" y1="255" y2="255"/><line style="stroke:#181818;stroke-width:0.5;" x1="10.5" x2="84.3867" y1="263" y2="263"/></g><!--reverse link Property to ActuatableProperty--><g class="link" data-entity-1="ent0002" data-entity-2="ent0003" data-link-type="extension" data-source-line="1" id="lnk4"><path codeLine="1" d="M618.8905,67.9716 C601.9005,85.6316 591.01,96.94 573.94,114.68" fill="none" id="Property-backto-ActuatableProperty" style="stroke:#181818;stroke-width:1;"/><polygon fill="none" points="631.37,55,614.5667,63.8118,623.2144,72.1314,631.37,55" style="stroke:#181818;stroke-width:1;"/></g><!--reverse link Sample to MaterialSample--><g class="link" data-entity-1="ent0005" data-entity-2="ent0006" data-link-type="extension" data-source-line="2" id="lnk7"><path codeLine="2" d="M1067.8567,64.4445 C1039.1067,82.1645 1014.85,97.11 986.05,114.86" fill="none" id="Sample-backto-MaterialSample" style="stroke:#181818;stroke-width:1;"/><polygon fill="none" points="1083.18,55,1064.7086,59.3367,1071.0049,69.5522,1083.18,55" style="stroke:#181818;stroke-width:1;"/></g><!--reverse link Sample to SpatialSample--><g class="link" data-entity-1="ent0005" data-entity-2="ent0008" data-link-type="extension" data-source-line="3" id="lnk9"><path codeLine="3" d="M1120.5,73 C1120.5,90.66 1120.5,96.94 1120.5,114.68" fill="none" id="Sample-backto-SpatialSample" style="stroke:#181818;stroke-width:1;"/><polygon fill="none" points="1120.5,55,1114.5,73,1126.5,73,1120.5,55" style="stroke:#181818;stroke-width:1;"/></g><!--reverse link Sample to StatisticalSample--><g class="link" data-entity-1="ent0005" data-entity-2="ent0010" data-link-type="extension" data-source-line="4" id="lnk11"><path codeLine="4" d="M1174.8276,64.1725 C1204.7476,81.8925 1230.45,97.11 1260.43,114.86" fill="none" id="Sample-backto-StatisticalSample" style="stroke:#181818;stroke-width:1;"/><polygon fill="none" points="1159.34,55,1171.7701,69.335,1177.8851,59.0099,1159.34,55" style="stroke:#181818;stroke-width:1;"/></g><!--reverse link Property to ObservableProperty--><g class="link" data-entity-1="ent0002" data-entity-2="ent0012" data-link-type="extension" data-source-line="5" id="lnk13"><path codeLine="5" d="M688.3939,67.9094 C705.5539,85.5694 716.6,96.94 733.84,114.68" fill="none" id="Property-backto-ObservableProperty" style="stroke:#181818;stroke-width:1;"/><polygon fill="none" points="675.85,55,684.0907,72.0906,692.697,63.7281,675.85,55" style="stroke:#181818;stroke-width:1;"/></g><!--reverse link Procedure to ActuatingProcedure--><g class="link" data-entity-1="ent0014" data-entity-2="ent0015" data-link-type="extension" data-source-line="6" id="lnk16"><path codeLine="6" d="M1644.3326,63.1732 C1609.5626,80.8932 1577.74,97.11 1542.9,114.86" fill="none" id="Procedure-backto-ActuatingProcedure" style="stroke:#181818;stroke-width:1;"/><polygon fill="none" points="1660.37,55,1641.6082,57.8274,1647.057,68.519,1660.37,55" style="stroke:#181818;stroke-width:1;"/></g><!--reverse link Procedure to ObservingProcedure--><g class="link" data-entity-1="ent0014" data-entity-2="ent0017" data-link-type="extension" data-source-line="7" id="lnk18"><path codeLine="7" d="M1705.5,73 C1705.5,90.66 1705.5,96.94 1705.5,114.68" fill="none" id="Procedure-backto-ObservingProcedure" style="stroke:#181818;stroke-width:1;"/><polygon fill="none" points="1705.5,55,1699.5,73,1711.5,73,1705.5,55" style="stroke:#181818;stroke-width:1;"/></g><!--reverse link Procedure to SamplingProcedure--><g class="link" data-entity-1="ent0014" data-entity-2="ent0019" data-link-type="extension" data-source-line="8" id="lnk20"><path codeLine="8" d="M1766.4411,63.205 C1801.0411,80.925 1832.65,97.11 1867.31,114.86" fill="none" id="Procedure-backto-SamplingProcedure" style="stroke:#181818;stroke-width:1;"/><polygon fill="none" points="1750.42,55,1763.7061,68.5454,1769.1762,57.8647,1750.42,55" style="stroke:#181818;stroke-width:1;"/></g><!--reverse link Asset to Platform--><g class="link" data-entity-1="ent0021" data-entity-2="ent0022" data-link-type="extension" data-source-line="9" id="lnk23"><path codeLine="9" d="M2116.2839,70.6022 C2106.1239,88.2622 2101.13,96.94 2090.92,114.68" fill="none" id="Asset-backto-Platform" style="stroke:#181818;stroke-width:1;"/><polygon fill="none" points="2125.26,55,2111.0831,67.6102,2121.4846,73.5943,2125.26,55" style="stroke:#181818;stroke-width:1;"/></g><!--reverse link System to Sampler--><g class="link" data-entity-1="ent0024" data-entity-2="ent0025" data-link-type="extension" data-source-line="10" id="lnk26"><path codeLine="10" d="M2159.3865,174.5884 C2138.3965,192.2484 2123.31,204.94 2102.22,222.68" fill="none" id="System-backto-Sampler" style="stroke:#181818;stroke-width:1;"/><polygon fill="none" points="2173.16,163,2155.5237,169.9972,2163.2493,179.1795,2173.16,163" style="stroke:#181818;stroke-width:1;"/></g><!--reverse link System to Actuator--><g class="link" data-entity-1="ent0024" data-entity-2="ent0027" data-link-type="extension" data-source-line="11" id="lnk28"><path codeLine="11" d="M2200.5,181 C2200.5,198.66 2200.5,204.94 2200.5,222.68" fill="none" id="System-backto-Actuator" style="stroke:#181818;stroke-width:1;"/><polygon fill="none" points="2200.5,163,2194.5,181,2206.5,181,2200.5,163" style="stroke:#181818;stroke-width:1;"/></g><!--reverse link Asset to System--><g class="link" data-entity-1="ent0021" data-entity-2="ent0024" data-link-type="extension" data-source-line="12" id="lnk29"><path codeLine="12" d="M2161.0383,70.5372 C2171.3683,88.1972 2176.48,96.94 2186.86,114.68" fill="none" id="Asset-backto-System" style="stroke:#181818;stroke-width:1;"/><polygon fill="none" points="2151.95,55,2155.8592,73.5666,2166.2173,67.5077,2151.95,55" style="stroke:#181818;stroke-width:1;"/></g><!--reverse link Execution to Sampling--><g class="link" data-entity-1="ent0030" data-entity-2="ent0031" data-link-type="extension" data-source-line="13" id="lnk32"><path codeLine="13" d="M2417.3041,66.1688 C2394.9841,83.8288 2378.41,96.94 2355.98,114.68" fill="none" id="Execution-backto-Sampling" style="stroke:#181818;stroke-width:1;"/><polygon fill="none" points="2431.42,55,2413.5812,61.4635,2421.027,70.8741,2431.42,55" style="stroke:#181818;stroke-width:1;"/></g><!--reverse link ExecutionCollection to SamplingCollection--><g class="link" data-entity-1="ent0033" data-entity-2="ent0034" data-link-type="extension" data-source-line="14" id="lnk35"><path codeLine="14" d="M2922.731,63.3636 C2888.961,81.0836 2858.43,97.11 2824.59,114.86" fill="none" id="ExecutionCollection-backto-SamplingCollection" style="stroke:#181818;stroke-width:1;"/><polygon fill="none" points="2938.67,55,2919.9432,58.0506,2925.5189,68.6766,2938.67,55" style="stroke:#181818;stroke-width:1;"/></g><!--reverse link Execution to Actuation--><g class="link" data-entity-1="ent0030" data-entity-2="ent0036" data-link-type="extension" data-source-line="15" id="lnk37"><path codeLine="15" d="M2460.5,73 C2460.5,90.66 2460.5,96.94 2460.5,114.68" fill="none" id="Execution-backto-Actuation" style="stroke:#181818;stroke-width:1;"/><polygon fill="none" points="2460.5,55,2454.5,73,2466.5,73,2460.5,55" style="stroke:#181818;stroke-width:1;"/></g><!--reverse link System to Sensor--><g class="link" data-entity-1="ent0024" data-entity-2="ent0038" data-link-type="extension" data-source-line="16" id="lnk39"><path codeLine="16" d="M2240.2968,174.864 C2260.4468,192.524 2274.63,204.94 2294.88,222.68" fill="none" id="System-backto-Sensor" style="stroke:#181818;stroke-width:1;"/><polygon fill="none" points="2226.76,163,2236.3421,179.3763,2244.2515,170.3518,2226.76,163" style="stroke:#181818;stroke-width:1;"/></g><!--reverse link ExecutionCollection to ActuationCollection--><g class="link" data-entity-1="ent0033" data-entity-2="ent0040" data-link-type="extension" data-source-line="17" id="lnk41"><path codeLine="17" d="M2982.5,73 C2982.5,90.66 2982.5,96.94 2982.5,114.68" fill="none" id="ExecutionCollection-backto-ActuationCollection" style="stroke:#181818;stroke-width:1;"/><polygon fill="none" points="2982.5,55,2976.5,73,2988.5,73,2982.5,55" style="stroke:#181818;stroke-width:1;"/></g><!--reverse link ExecutionCollection to ObservationCollection--><g class="link" data-entity-1="ent0033" data-entity-2="ent0042" data-link-type="extension" data-source-line="18" id="lnk43"><path codeLine="18" d="M3044.5997,63.0498 C3080.0397,80.7698 3112.72,97.11 3148.22,114.86" fill="none" id="ExecutionCollection-backto-ObservationCollection" style="stroke:#181818;stroke-width:1;"/><polygon fill="none" points="3028.5,55,3041.9164,68.4164,3047.283,57.6833,3028.5,55" style="stroke:#181818;stroke-width:1;"/></g><!--reverse link Execution to Observation--><g class="link" data-entity-1="ent0030" data-entity-2="ent0044" data-link-type="extension" data-source-line="19" id="lnk45"><path codeLine="19" d="M2505.9895,65.7202 C2529.8095,83.3802 2548.11,96.94 2572.04,114.68" fill="none" id="Execution-backto-Observation" style="stroke:#181818;stroke-width:1;"/><polygon fill="none" points="2491.53,55,2502.4161,70.54,2509.5629,60.9004,2491.53,55" style="stroke:#181818;stroke-width:1;"/></g><?plantuml-src VL99RiCm3Bpx5Vv0Vf1Bq2P03eMD-WMAoXG2g0KYLTH07byXz2OxxesS6GufKctq0IBtzV5nEDGdpKcnkY6q0rvroWO4eJyKGpGA1IkeBYZUOJWpn4PFR5lqR6u4yQVecGCDNod2SYhZlYTyhH2F_nJFreNWH0GiP8kAxpxQgkk9mIug81QOJEBZibZuwlmBEh7nhkmtusyU4VHMCUDhZ-7TcIZc0aTvWbtVgUgLyLeyB7zFlX5L6XLHVNKXyH1FLvEqOsCJ9XhJvnONtgzLiaD9ciIp-pi4zBq5Dm8NK9pFrzolBdz6e17_14guhVe3?></g></svg>