<svg xmlns="http://www.w3.org/2000/svg" xmlns:xlink="http://www.w3.org/1999/xlink" contentStyleType="text/css" data-diagram-type="CLASS" height="286px" preserveAspectRatio="none" style="width:3298px;height:286px;background:#FFFFFF;" version="1.1" viewBox="0 0 3298 286" width="3298px" zoomAndPan="magnify"><?plantuml 1.2026.4?><defs/><g><!--class Property--><g class="entity" data-qualified-name="Property" data-source-line="1" id="ent0001"><rect fill="#F1F1F1" height="48" rx="2.5" ry="2.5" style="stroke:#181818;stroke-width:0.5;" width="91.7939" x="603" y="7"/><ellipse cx="618" cy="23" fill="#ADD1B2" rx="11" ry="11" style="stroke:#181818;stroke-width:1;"/><path d="M620.9688,28.6406 Q620.3906,28.9375 619.75,29.0781 Q619.1094,29.2344 618.4063,29.2344 Q615.9063,29.2344 614.5781,27.5938 Q613.2656,25.9375 613.2656,22.8125 Q613.2656,19.6875 614.5781,18.0313 Q615.9063,16.375 618.4063,16.375 Q619.1094,16.375 619.75,16.5313 Q620.4063,16.6875 620.9688,16.9844 L620.9688,19.7031 Q620.3438,19.125 619.75,18.8594 Q619.1563,18.5781 618.5313,18.5781 Q617.1875,18.5781 616.5,19.6563 Q615.8125,20.7188 615.8125,22.8125 Q615.8125,24.9063 616.5,25.9844 Q617.1875,27.0469 618.5313,27.0469 Q619.1563,27.0469 619.75,26.7813 Q620.3438,26.5 620.9688,25.9219 L620.9688,28.6406 Z " fill="#000000"/><text fill="#000000" font-family="sans-serif" font-size="14" lengthAdjust="spacing" textLength="59.7939" x="632" y="27.8467">Property</text><line style="stroke:#181818;stroke-width:0.5;" x1="604" x2="693.7939" y1="39" y2="39"/><line style="stroke:#181818;stroke-width:0.5;" x1="604" x2="693.7939" y1="47" y2="47"/></g><!--class ActuatableProperty--><g class="entity" data-qualified-name="ActuatableProperty" data-source-line="1" id="ent0002"><rect fill="#F1F1F1" height="48" rx="2.5" ry="2.5" style="stroke:#181818;stroke-width:0.5;" width="167.4678" x="463.5" y="115"/><ellipse cx="478.5" cy="131" fill="#ADD1B2" rx="11" ry="11" style="stroke:#181818;stroke-width:1;"/><path d="M481.4688,136.6406 Q480.8906,136.9375 480.25,137.0781 Q479.6094,137.2344 478.9063,137.2344 Q476.4063,137.2344 475.0781,135.5938 Q473.7656,133.9375 473.7656,130.8125 Q473.7656,127.6875 475.0781,126.0313 Q476.4063,124.375 478.9063,124.375 Q479.6094,124.375 480.25,124.5313 Q480.9063,124.6875 481.4688,124.9844 L481.4688,127.7031 Q480.8438,127.125 480.25,126.8594 Q479.6563,126.5781 479.0313,126.5781 Q477.6875,126.5781 477,127.6563 Q476.3125,128.7188 476.3125,130.8125 Q476.3125,132.9063 477,133.9844 Q477.6875,135.0469 479.0313,135.0469 Q479.6563,135.0469 480.25,134.7813 Q480.8438,134.5 481.4688,133.9219 L481.4688,136.6406 Z " fill="#000000"/><text fill="#000000" font-family="sans-serif" font-size="14" lengthAdjust="spacing" textLength="135.4678" x="492.5" y="135.8467">ActuatableProperty</text><line style="stroke:#181818;stroke-width:0.5;" x1="464.5" x2="629.9678" y1="147" y2="147"/><line style="stroke:#181818;stroke-width:0.5;" x1="464.5" x2="629.9678" y1="155" y2="155"/></g><!--class Sample--><g class="entity" data-qualified-name="Sample" data-source-line="2" id="ent0004"><rect fill="#F1F1F1" height="48" rx="2.5" ry="2.5" style="stroke:#181818;stroke-width:0.5;" width="84.4932" x="1074" y="7"/><ellipse cx="1089" cy="23" fill="#ADD1B2" rx="11" ry="11" style="stroke:#181818;stroke-width:1;"/><path d="M1091.9688,28.6406 Q1091.3906,28.9375 1090.75,29.0781 Q1090.1094,29.2344 1089.4063,29.2344 Q1086.9063,29.2344 1085.5781,27.5938 Q1084.2656,25.9375 1084.2656,22.8125 Q1084.2656,19.6875 1085.5781,18.0313 Q1086.9063,16.375 1089.4063,16.375 Q1090.1094,16.375 1090.75,16.5313 Q1091.4063,16.6875 1091.9688,16.9844 L1091.9688,19.7031 Q1091.3438,19.125 1090.75,18.8594 Q1090.1563,18.5781 1089.5313,18.5781 Q1088.1875,18.5781 1087.5,19.6563 Q1086.8125,20.7188 1086.8125,22.8125 Q1086.8125,24.9063 1087.5,25.9844 Q1088.1875,27.0469 1089.5313,27.0469 Q1090.1563,27.0469 1090.75,26.7813 Q1091.3438,26.5 1091.9688,25.9219 L1091.9688,28.6406 Z " fill="#000000"/><text fill="#000000" font-family="sans-serif" font-size="14" lengthAdjust="spacing" textLength="52.4932" x="1103" y="27.8467">Sample</text><line style="stroke:#181818;stroke-width:0.5;" x1="1075" x2="1157.4932" y1="39" y2="39"/><line style="stroke:#181818;stroke-width:0.5;" x1="1075" x2="1157.4932" y1="47" y2="47"/></g><!--class MaterialSample--><g class="entity" data-qualified-name="MaterialSample" data-source-line="2" id="ent0005"><rect fill="#F1F1F1" height="48" rx="2.5" ry="2.5" style="stroke:#181818;stroke-width:0.5;" width="141.3682" x="873.5" y="115"/><ellipse cx="888.5" cy="131" fill="#ADD1B2" rx="11" ry="11" style="stroke:#181818;stroke-width:1;"/><path d="M891.4688,136.6406 Q890.8906,136.9375 890.25,137.0781 Q889.6094,137.2344 888.9063,137.2344 Q886.4063,137.2344 885.0781,135.5938 Q883.7656,133.9375 883.7656,130.8125 Q883.7656,127.6875 885.0781,126.0313 Q886.4063,124.375 888.9063,124.375 Q889.6094,124.375 890.25,124.5313 Q890.9063,124.6875 891.4688,124.9844 L891.4688,127.7031 Q890.8438,127.125 890.25,126.8594 Q889.6563,126.5781 889.0313,126.5781 Q887.6875,126.5781 887,127.6563 Q886.3125,128.7188 886.3125,130.8125 Q886.3125,132.9063 887,133.9844 Q887.6875,135.0469 889.0313,135.0469 Q889.6563,135.0469 890.25,134.7813 Q890.8438,134.5 891.4688,133.9219 L891.4688,136.6406 Z " fill="#000000"/><text fill="#000000" font-family="sans-serif" font-size="14" lengthAdjust="spacing" textLength="109.3682" x="902.5" y="135.8467">MaterialSample</text><line style="stroke:#181818;stroke-width:0.5;" x1="874.5" x2="1013.8682" y1="147" y2="147"/><line style="stroke:#181818;stroke-width:0.5;" x1="874.5" x2="1013.8682" y1="155" y2="155"/></g><!--class SpatialSample--><g class="entity" data-qualified-name="SpatialSample" data-source-line="3" id="ent0007"><rect fill="#F1F1F1" height="48" rx="2.5" ry="2.5" style="stroke:#181818;stroke-width:0.5;" width="132.6934" x="1049.5" y="115"/><ellipse cx="1064.5" cy="131" fill="#ADD1B2" rx="11" ry="11" style="stroke:#181818;stroke-width:1;"/><path d="M1067.4688,136.6406 Q1066.8906,136.9375 1066.25,137.0781 Q1065.6094,137.2344 1064.9063,137.2344 Q1062.4063,137.2344 1061.0781,135.5938 Q1059.7656,133.9375 1059.7656,130.8125 Q1059.7656,127.6875 1061.0781,126.0313 Q1062.4063,124.375 1064.9063,124.375 Q1065.6094,124.375 1066.25,124.5313 Q1066.9063,124.6875 1067.4688,124.9844 L1067.4688,127.7031 Q1066.8438,127.125 1066.25,126.8594 Q1065.6563,126.5781 1065.0313,126.5781 Q1063.6875,126.5781 1063,127.6563 Q1062.3125,128.7188 1062.3125,130.8125 Q1062.3125,132.9063 1063,133.9844 Q1063.6875,135.0469 1065.0313,135.0469 Q1065.6563,135.0469 1066.25,134.7813 Q1066.8438,134.5 1067.4688,133.9219 L1067.4688,136.6406 Z " fill="#000000"/><text fill="#000000" font-family="sans-serif" font-size="14" lengthAdjust="spacing" textLength="100.6934" x="1078.5" y="135.8467">SpatialSample</text><line style="stroke:#181818;stroke-width:0.5;" x1="1050.5" x2="1181.1934" y1="147" y2="147"/><line style="stroke:#181818;stroke-width:0.5;" x1="1050.5" x2="1181.1934" y1="155" y2="155"/></g><!--class StatisticalSample--><g class="entity" data-qualified-name="StatisticalSample" data-source-line="4" id="ent0009"><rect fill="#F1F1F1" height="48" rx="2.5" ry="2.5" style="stroke:#181818;stroke-width:0.5;" width="153.666" x="1218" y="115"/><ellipse cx="1233" cy="131" fill="#ADD1B2" rx="11" ry="11" style="stroke:#181818;stroke-width:1;"/><path d="M1235.9688,136.6406 Q1235.3906,136.9375 1234.75,137.0781 Q1234.1094,137.2344 1233.4063,137.2344 Q1230.9063,137.2344 1229.5781,135.5938 Q1228.2656,133.9375 1228.2656,130.8125 Q1228.2656,127.6875 1229.5781,126.0313 Q1230.9063,124.375 1233.4063,124.375 Q1234.1094,124.375 1234.75,124.5313 Q1235.4063,124.6875 1235.9688,124.9844 L1235.9688,127.7031 Q1235.3438,127.125 1234.75,126.8594 Q1234.1563,126.5781 1233.5313,126.5781 Q1232.1875,126.5781 1231.5,127.6563 Q1230.8125,128.7188 1230.8125,130.8125 Q1230.8125,132.9063 1231.5,133.9844 Q1232.1875,135.0469 1233.5313,135.0469 Q1234.1563,135.0469 1234.75,134.7813 Q1235.3438,134.5 1235.9688,133.9219 L1235.9688,136.6406 Z " fill="#000000"/><text fill="#000000" font-family="sans-serif" font-size="14" lengthAdjust="spacing" textLength="121.666" x="1247" y="135.8467">StatisticalSample</text><line style="stroke:#181818;stroke-width:0.5;" x1="1219" x2="1370.666" y1="147" y2="147"/><line style="stroke:#181818;stroke-width:0.5;" x1="1219" x2="1370.666" y1="155" y2="155"/></g><!--class ObservableProperty--><g class="entity" data-qualified-name="ObservableProperty" data-source-line="5" id="ent0011"><rect fill="#F1F1F1" height="48" rx="2.5" ry="2.5" style="stroke:#181818;stroke-width:0.5;" width="171.6172" x="666" y="115"/><ellipse cx="681" cy="131" fill="#ADD1B2" rx="11" ry="11" style="stroke:#181818;stroke-width:1;"/><path d="M683.9688,136.6406 Q683.3906,136.9375 682.75,137.0781 Q682.1094,137.2344 681.4063,137.2344 Q678.9063,137.2344 677.5781,135.5938 Q676.2656,133.9375 676.2656,130.8125 Q676.2656,127.6875 677.5781,126.0313 Q678.9063,124.375 681.4063,124.375 Q682.1094,124.375 682.75,124.5313 Q683.4063,124.6875 683.9688,124.9844 L683.9688,127.7031 Q683.3438,127.125 682.75,126.8594 Q682.1563,126.5781 681.5313,126.5781 Q680.1875,126.5781 679.5,127.6563 Q678.8125,128.7188 678.8125,130.8125 Q678.8125,132.9063 679.5,133.9844 Q680.1875,135.0469 681.5313,135.0469 Q682.1563,135.0469 682.75,134.7813 Q683.3438,134.5 683.9688,133.9219 L683.9688,136.6406 Z " fill="#000000"/><text fill="#000000" font-family="sans-serif" font-size="14" lengthAdjust="spacing" textLength="139.6172" x="695" y="135.8467">ObservableProperty</text><line style="stroke:#181818;stroke-width:0.5;" x1="667" x2="836.6172" y1="147" y2="147"/><line style="stroke:#181818;stroke-width:0.5;" x1="667" x2="836.6172" y1="155" y2="155"/></g><!--class Procedure--><g class="entity" data-qualified-name="Procedure" data-source-line="6" id="ent0013"><rect fill="#F1F1F1" height="48" rx="2.5" ry="2.5" style="stroke:#181818;stroke-width:0.5;" width="103.2031" x="1649.5" y="7"/><ellipse cx="1664.5" cy="23" fill="#ADD1B2" rx="11" ry="11" style="stroke:#181818;stroke-width:1;"/><path d="M1667.4688,28.6406 Q1666.8906,28.9375 1666.25,29.0781 Q1665.6094,29.2344 1664.9063,29.2344 Q1662.4063,29.2344 1661.0781,27.5938 Q1659.7656,25.9375 1659.7656,22.8125 Q1659.7656,19.6875 1661.0781,18.0313 Q1662.4063,16.375 1664.9063,16.375 Q1665.6094,16.375 1666.25,16.5313 Q1666.9063,16.6875 1667.4688,16.9844 L1667.4688,19.7031 Q1666.8438,19.125 1666.25,18.8594 Q1665.6563,18.5781 1665.0313,18.5781 Q1663.6875,18.5781 1663,19.6563 Q1662.3125,20.7188 1662.3125,22.8125 Q1662.3125,24.9063 1663,25.9844 Q1663.6875,27.0469 1665.0313,27.0469 Q1665.6563,27.0469 1666.25,26.7813 Q1666.8438,26.5 1667.4688,25.9219 L1667.4688,28.6406 Z " fill="#000000"/><text fill="#000000" font-family="sans-serif" font-size="14" lengthAdjust="spacing" textLength="71.2031" x="1678.5" y="27.8467">Procedure</text><line style="stroke:#181818;stroke-width:0.5;" x1="1650.5" x2="1751.7031" y1="39" y2="39"/><line style="stroke:#181818;stroke-width:0.5;" x1="1650.5" x2="1751.7031" y1="47" y2="47"/></g><!--class ActuatingProcedure--><g class="entity" data-qualified-name="ActuatingProcedure" data-source-line="6" id="ent0014"><rect fill="#F1F1F1" height="48" rx="2.5" ry="2.5" style="stroke:#181818;stroke-width:0.5;" width="170.5576" x="1407.5" y="115"/><ellipse cx="1422.5" cy="131" fill="#ADD1B2" rx="11" ry="11" style="stroke:#181818;stroke-width:1;"/><path d="M1425.4688,136.6406 Q1424.8906,136.9375 1424.25,137.0781 Q1423.6094,137.2344 1422.9063,137.2344 Q1420.4063,137.2344 1419.0781,135.5938 Q1417.7656,133.9375 1417.7656,130.8125 Q1417.7656,127.6875 1419.0781,126.0313 Q1420.4063,124.375 1422.9063,124.375 Q1423.6094,124.375 1424.25,124.5313 Q1424.9063,124.6875 1425.4688,124.9844 L1425.4688,127.7031 Q1424.8438,127.125 1424.25,126.8594 Q1423.6563,126.5781 1423.0313,126.5781 Q1421.6875,126.5781 1421,127.6563 Q1420.3125,128.7188 1420.3125,130.8125 Q1420.3125,132.9063 1421,133.9844 Q1421.6875,135.0469 1423.0313,135.0469 Q1423.6563,135.0469 1424.25,134.7813 Q1424.8438,134.5 1425.4688,133.9219 L1425.4688,136.6406 Z " fill="#000000"/><text fill="#000000" font-family="sans-serif" font-size="14" lengthAdjust="spacing" textLength="138.5576" x="1436.5" y="135.8467">ActuatingProcedure</text><line style="stroke:#181818;stroke-width:0.5;" x1="1408.5" x2="1577.0576" y1="147" y2="147"/><line style="stroke:#181818;stroke-width:0.5;" x1="1408.5" x2="1577.0576" y1="155" y2="155"/></g><!--class ObservingProcedure--><g class="entity" data-qualified-name="ObservingProcedure" data-source-line="7" id="ent0016"><rect fill="#F1F1F1" height="48" rx="2.5" ry="2.5" style="stroke:#181818;stroke-width:0.5;" width="174.707" x="1613.5" y="115"/><ellipse cx="1628.5" cy="131" fill="#ADD1B2" rx="11" ry="11" style="stroke:#181818;stroke-width:1;"/><path d="M1631.4688,136.6406 Q1630.8906,136.9375 1630.25,137.0781 Q1629.6094,137.2344 1628.9063,137.2344 Q1626.4063,137.2344 1625.0781,135.5938 Q1623.7656,133.9375 1623.7656,130.8125 Q1623.7656,127.6875 1625.0781,126.0313 Q1626.4063,124.375 1628.9063,124.375 Q1629.6094,124.375 1630.25,124.5313 Q1630.9063,124.6875 1631.4688,124.9844 L1631.4688,127.7031 Q1630.8438,127.125 1630.25,126.8594 Q1629.6563,126.5781 1629.0313,126.5781 Q1627.6875,126.5781 1627,127.6563 Q1626.3125,128.7188 1626.3125,130.8125 Q1626.3125,132.9063 1627,133.9844 Q1627.6875,135.0469 1629.0313,135.0469 Q1629.6563,135.0469 1630.25,134.7813 Q1630.8438,134.5 1631.4688,133.9219 L1631.4688,136.6406 Z " fill="#000000"/><text fill="#000000" font-family="sans-serif" font-size="14" lengthAdjust="spacing" textLength="142.707" x="1642.5" y="135.8467">ObservingProcedure</text><line style="stroke:#181818;stroke-width:0.5;" x1="1614.5" x2="1787.207" y1="147" y2="147"/><line style="stroke:#181818;stroke-width:0.5;" x1="1614.5" x2="1787.207" y1="155" y2="155"/></g><!--class SamplingProcedure--><g class="entity" data-qualified-name="SamplingProcedure" data-source-line="8" id="ent0018"><rect fill="#F1F1F1" height="48" rx="2.5" ry="2.5" style="stroke:#181818;stroke-width:0.5;" width="168.7324" x="1823.5" y="115"/><ellipse cx="1838.5" cy="131" fill="#ADD1B2" rx="11" ry="11" style="stroke:#181818;stroke-width:1;"/><path d="M1841.4688,136.6406 Q1840.8906,136.9375 1840.25,137.0781 Q1839.6094,137.2344 1838.9063,137.2344 Q1836.4063,137.2344 1835.0781,135.5938 Q1833.7656,133.9375 1833.7656,130.8125 Q1833.7656,127.6875 1835.0781,126.0313 Q1836.4063,124.375 1838.9063,124.375 Q1839.6094,124.375 1840.25,124.5313 Q1840.9063,124.6875 1841.4688,124.9844 L1841.4688,127.7031 Q1840.8438,127.125 1840.25,126.8594 Q1839.6563,126.5781 1839.0313,126.5781 Q1837.6875,126.5781 1837,127.6563 Q1836.3125,128.7188 1836.3125,130.8125 Q1836.3125,132.9063 1837,133.9844 Q1837.6875,135.0469 1839.0313,135.0469 Q1839.6563,135.0469 1840.25,134.7813 Q1840.8438,134.5 1841.4688,133.9219 L1841.4688,136.6406 Z " fill="#000000"/><text fill="#000000" font-family="sans-serif" font-size="14" lengthAdjust="spacing" textLength="136.7324" x="1852.5" y="135.8467">SamplingProcedure</text><line style="stroke:#181818;stroke-width:0.5;" x1="1824.5" x2="1991.2324" y1="147" y2="147"/><line style="stroke:#181818;stroke-width:0.5;" x1="1824.5" x2="1991.2324" y1="155" y2="155"/></g><!--class Asset--><g class="entity" data-qualified-name="Asset" data-source-line="9" id="ent0020"><rect fill="#F1F1F1" height="48" rx="2.5" ry="2.5" style="stroke:#181818;stroke-width:0.5;" width="70.2676" x="2099" y="7"/><ellipse cx="2114" cy="23" fill="#ADD1B2" rx="11" ry="11" style="stroke:#181818;stroke-width:1;"/><path d="M2116.9688,28.6406 Q2116.3906,28.9375 2115.75,29.0781 Q2115.1094,29.2344 2114.4063,29.2344 Q2111.9063,29.2344 2110.5781,27.5938 Q2109.2656,25.9375 2109.2656,22.8125 Q2109.2656,19.6875 2110.5781,18.0313 Q2111.9063,16.375 2114.4063,16.375 Q2115.1094,16.375 2115.75,16.5313 Q2116.4063,16.6875 2116.9688,16.9844 L2116.9688,19.7031 Q2116.3438,19.125 2115.75,18.8594 Q2115.1563,18.5781 2114.5313,18.5781 Q2113.1875,18.5781 2112.5,19.6563 Q2111.8125,20.7188 2111.8125,22.8125 Q2111.8125,24.9063 2112.5,25.9844 Q2113.1875,27.0469 2114.5313,27.0469 Q2115.1563,27.0469 2115.75,26.7813 Q2116.3438,26.5 2116.9688,25.9219 L2116.9688,28.6406 Z " fill="#000000"/><text fill="#000000" font-family="sans-serif" font-size="14" lengthAdjust="spacing" textLength="38.2676" x="2128" y="27.8467">Asset</text><line style="stroke:#181818;stroke-width:0.5;" x1="2100" x2="2168.2676" y1="39" y2="39"/><line style="stroke:#181818;stroke-width:0.5;" x1="2100" x2="2168.2676" y1="47" y2="47"/></g><!--class Platform--><g class="entity" data-qualified-name="Platform" data-source-line="9" id="ent0021"><rect fill="#F1F1F1" height="48" rx="2.5" ry="2.5" style="stroke:#181818;stroke-width:0.5;" width="91.2881" x="2027.5" y="115"/><ellipse cx="2042.5" cy="131" fill="#ADD1B2" rx="11" ry="11" style="stroke:#181818;stroke-width:1;"/><path d="M2045.4688,136.6406 Q2044.8906,136.9375 2044.25,137.0781 Q2043.6094,137.2344 2042.9063,137.2344 Q2040.4063,137.2344 2039.0781,135.5938 Q2037.7656,133.9375 2037.7656,130.8125 Q2037.7656,127.6875 2039.0781,126.0313 Q2040.4063,124.375 2042.9063,124.375 Q2043.6094,124.375 2044.25,124.5313 Q2044.9063,124.6875 2045.4688,124.9844 L2045.4688,127.7031 Q2044.8438,127.125 2044.25,126.8594 Q2043.6563,126.5781 2043.0313,126.5781 Q2041.6875,126.5781 2041,127.6563 Q2040.3125,128.7188 2040.3125,130.8125 Q2040.3125,132.9063 2041,133.9844 Q2041.6875,135.0469 2043.0313,135.0469 Q2043.6563,135.0469 2044.25,134.7813 Q2044.8438,134.5 2045.4688,133.9219 L2045.4688,136.6406 Z " fill="#000000"/><text fill="#000000" font-family="sans-serif" font-size="14" lengthAdjust="spacing" textLength="59.2881" x="2056.5" y="135.8467">Platform</text><line style="stroke:#181818;stroke-width:0.5;" x1="2028.5" x2="2117.7881" y1="147" y2="147"/><line style="stroke:#181818;stroke-width:0.5;" x1="2028.5" x2="2117.7881" y1="155" y2="155"/></g><!--class System--><g class="entity" data-qualified-name="System" data-source-line="10" id="ent0023"><rect fill="#F1F1F1" height="48" rx="2.5" ry="2.5" style="stroke:#181818;stroke-width:0.5;" width="84.2061" x="2154" y="115"/><ellipse cx="2169" cy="131" fill="#ADD1B2" rx="11" ry="11" style="stroke:#181818;stroke-width:1;"/><path d="M2171.9688,136.6406 Q2171.3906,136.9375 2170.75,137.0781 Q2170.1094,137.2344 2169.4063,137.2344 Q2166.9063,137.2344 2165.5781,135.5938 Q2164.2656,133.9375 2164.2656,130.8125 Q2164.2656,127.6875 2165.5781,126.0313 Q2166.9063,124.375 2169.4063,124.375 Q2170.1094,124.375 2170.75,124.5313 Q2171.4063,124.6875 2171.9688,124.9844 L2171.9688,127.7031 Q2171.3438,127.125 2170.75,126.8594 Q2170.1563,126.5781 2169.5313,126.5781 Q2168.1875,126.5781 2167.5,127.6563 Q2166.8125,128.7188 2166.8125,130.8125 Q2166.8125,132.9063 2167.5,133.9844 Q2168.1875,135.0469 2169.5313,135.0469 Q2170.1563,135.0469 2170.75,134.7813 Q2171.3438,134.5 2171.9688,133.9219 L2171.9688,136.6406 Z " fill="#000000"/><text fill="#000000" font-family="sans-serif" font-size="14" lengthAdjust="spacing" textLength="52.2061" x="2183" y="135.8467">System</text><line style="stroke:#181818;stroke-width:0.5;" x1="2155" x2="2237.2061" y1="147" y2="147"/><line style="stroke:#181818;stroke-width:0.5;" x1="2155" x2="2237.2061" y1="155" y2="155"/></g><!--class Sampler--><g class="entity" data-qualified-name="Sampler" data-source-line="10" id="ent0024"><rect fill="#F1F1F1" height="48" rx="2.5" ry="2.5" style="stroke:#181818;stroke-width:0.5;" width="90.249" x="2025" y="223"/><ellipse cx="2040" cy="239" fill="#ADD1B2" rx="11" ry="11" style="stroke:#181818;stroke-width:1;"/><path d="M2042.9688,244.6406 Q2042.3906,244.9375 2041.75,245.0781 Q2041.1094,245.2344 2040.4063,245.2344 Q2037.9063,245.2344 2036.5781,243.5938 Q2035.2656,241.9375 2035.2656,238.8125 Q2035.2656,235.6875 2036.5781,234.0313 Q2037.9063,232.375 2040.4063,232.375 Q2041.1094,232.375 2041.75,232.5313 Q2042.4063,232.6875 2042.9688,232.9844 L2042.9688,235.7031 Q2042.3438,235.125 2041.75,234.8594 Q2041.1563,234.5781 2040.5313,234.5781 Q2039.1875,234.5781 2038.5,235.6563 Q2037.8125,236.7188 2037.8125,238.8125 Q2037.8125,240.9063 2038.5,241.9844 Q2039.1875,243.0469 2040.5313,243.0469 Q2041.1563,243.0469 2041.75,242.7813 Q2042.3438,242.5 2042.9688,241.9219 L2042.9688,244.6406 Z " fill="#000000"/><text fill="#000000" font-family="sans-serif" font-size="14" lengthAdjust="spacing" textLength="58.249" x="2054" y="243.8467">Sampler</text><line style="stroke:#181818;stroke-width:0.5;" x1="2026" x2="2114.249" y1="255" y2="255"/><line style="stroke:#181818;stroke-width:0.5;" x1="2026" x2="2114.249" y1="263" y2="263"/></g><!--class Actuator--><g class="entity" data-qualified-name="Actuator" data-source-line="11" id="ent0026"><rect fill="#F1F1F1" height="48" rx="2.5" ry="2.5" style="stroke:#181818;stroke-width:0.5;" width="92.0264" x="2150" y="223"/><ellipse cx="2165" cy="239" fill="#ADD1B2" rx="11" ry="11" style="stroke:#181818;stroke-width:1;"/><path d="M2167.9688,244.6406 Q2167.3906,244.9375 2166.75,245.0781 Q2166.1094,245.2344 2165.4063,245.2344 Q2162.9063,245.2344 2161.5781,243.5938 Q2160.2656,241.9375 2160.2656,238.8125 Q2160.2656,235.6875 2161.5781,234.0313 Q2162.9063,232.375 2165.4063,232.375 Q2166.1094,232.375 2166.75,232.5313 Q2167.4063,232.6875 2167.9688,232.9844 L2167.9688,235.7031 Q2167.3438,235.125 2166.75,234.8594 Q2166.1563,234.5781 2165.5313,234.5781 Q2164.1875,234.5781 2163.5,235.6563 Q2162.8125,236.7188 2162.8125,238.8125 Q2162.8125,240.9063 2163.5,241.9844 Q2164.1875,243.0469 2165.5313,243.0469 Q2166.1563,243.0469 2166.75,242.7813 Q2167.3438,242.5 2167.9688,241.9219 L2167.9688,244.6406 Z " fill="#000000"/><text fill="#000000" font-family="sans-serif" font-size="14" lengthAdjust="spacing" textLength="60.0264" x="2179" y="243.8467">Actuator</text><line style="stroke:#181818;stroke-width:0.5;" x1="2151" x2="2241.0264" y1="255" y2="255"/><line style="stroke:#181818;stroke-width:0.5;" x1="2151" x2="2241.0264" y1="263" y2="263"/></g><!--class Execution--><g class="entity" data-qualified-name="Execution" data-source-line="13" id="ent0029"><rect fill="#F1F1F1" height="48" rx="2.5" ry="2.5" style="stroke:#181818;stroke-width:0.5;" width="101.1318" x="2405.5" y="7"/><ellipse cx="2420.5" cy="23" fill="#ADD1B2" rx="11" ry="11" style="stroke:#181818;stroke-width:1;"/><path d="M2423.4688,28.6406 Q2422.8906,28.9375 2422.25,29.0781 Q2421.6094,29.2344 2420.9063,29.2344 Q2418.4063,29.2344 2417.0781,27.5938 Q2415.7656,25.9375 2415.7656,22.8125 Q2415.7656,19.6875 2417.0781,18.0313 Q2418.4063,16.375 2420.9063,16.375 Q2421.6094,16.375 2422.25,16.5313 Q2422.9063,16.6875 2423.4688,16.9844 L2423.4688,19.7031 Q2422.8438,19.125 2422.25,18.8594 Q2421.6563,18.5781 2421.0313,18.5781 Q2419.6875,18.5781 2419,19.6563 Q2418.3125,20.7188 2418.3125,22.8125 Q2418.3125,24.9063 2419,25.9844 Q2419.6875,27.0469 2421.0313,27.0469 Q2421.6563,27.0469 2422.25,26.7813 Q2422.8438,26.5 2423.4688,25.9219 L2423.4688,28.6406 Z " fill="#000000"/><text fill="#000000" font-family="sans-serif" font-size="14" lengthAdjust="spacing" textLength="69.1318" x="2434.5" y="27.8467">Execution</text><line style="stroke:#181818;stroke-width:0.5;" x1="2406.5" x2="2505.6318" y1="39" y2="39"/><line style="stroke:#181818;stroke-width:0.5;" x1="2406.5" x2="2505.6318" y1="47" y2="47"/></g><!--class Sampling--><g class="entity" data-qualified-name="Sampling" data-source-line="13" id="ent0030"><rect fill="#F1F1F1" height="48" rx="2.5" ry="2.5" style="stroke:#181818;stroke-width:0.5;" width="97.5293" x="2273" y="115"/><ellipse cx="2288" cy="131" fill="#ADD1B2" rx="11" ry="11" style="stroke:#181818;stroke-width:1;"/><path d="M2290.9688,136.6406 Q2290.3906,136.9375 2289.75,137.0781 Q2289.1094,137.2344 2288.4063,137.2344 Q2285.9063,137.2344 2284.5781,135.5938 Q2283.2656,133.9375 2283.2656,130.8125 Q2283.2656,127.6875 2284.5781,126.0313 Q2285.9063,124.375 2288.4063,124.375 Q2289.1094,124.375 2289.75,124.5313 Q2290.4063,124.6875 2290.9688,124.9844 L2290.9688,127.7031 Q2290.3438,127.125 2289.75,126.8594 Q2289.1563,126.5781 2288.5313,126.5781 Q2287.1875,126.5781 2286.5,127.6563 Q2285.8125,128.7188 2285.8125,130.8125 Q2285.8125,132.9063 2286.5,133.9844 Q2287.1875,135.0469 2288.5313,135.0469 Q2289.1563,135.0469 2289.75,134.7813 Q2290.3438,134.5 2290.9688,133.9219 L2290.9688,136.6406 Z " fill="#000000"/><text fill="#000000" font-family="sans-serif" font-size="14" lengthAdjust="spacing" textLength="65.5293" x="2302" y="135.8467">Sampling</text><line style="stroke:#181818;stroke-width:0.5;" x1="2274" x2="2369.5293" y1="147" y2="147"/><line style="stroke:#181818;stroke-width:0.5;" x1="2274" x2="2369.5293" y1="155" y2="155"/></g><!--class ExecutionCollection--><g class="entity" data-qualified-name="ExecutionCollection" data-source-line="14" id="ent0032"><rect fill="#F1F1F1" height="48" rx="2.5" ry="2.5" style="stroke:#181818;stroke-width:0.5;" width="170.3799" x="2893" y="7"/><ellipse cx="2908" cy="23" fill="#ADD1B2" rx="11" ry="11" style="stroke:#181818;stroke-width:1;"/><path d="M2910.9688,28.6406 Q2910.3906,28.9375 2909.75,29.0781 Q2909.1094,29.2344 2908.4063,29.2344 Q2905.9063,29.2344 2904.5781,27.5938 Q2903.2656,25.9375 2903.2656,22.8125 Q2903.2656,19.6875 2904.5781,18.0313 Q2905.9063,16.375 2908.4063,16.375 Q2909.1094,16.375 2909.75,16.5313 Q2910.4063,16.6875 2910.9688,16.9844 L2910.9688,19.7031 Q2910.3438,19.125 2909.75,18.8594 Q2909.1563,18.5781 2908.5313,18.5781 Q2907.1875,18.5781 2906.5,19.6563 Q2905.8125,20.7188 2905.8125,22.8125 Q2905.8125,24.9063 2906.5,25.9844 Q2907.1875,27.0469 2908.5313,27.0469 Q2909.1563,27.0469 2909.75,26.7813 Q2910.3438,26.5 2910.9688,25.9219 L2910.9688,28.6406 Z " fill="#000000"/><text fill="#000000" font-family="sans-serif" font-size="14" lengthAdjust="spacing" textLength="138.3799" x="2922" y="27.8467">ExecutionCollection</text><line style="stroke:#181818;stroke-width:0.5;" x1="2894" x2="3062.3799" y1="39" y2="39"/><line style="stroke:#181818;stroke-width:0.5;" x1="2894" x2="3062.3799" y1="47" y2="47"/></g><!--class SamplingCollection--><g class="entity" data-qualified-name="SamplingCollection" data-source-line="14" id="ent0033"><rect fill="#F1F1F1" height="48" rx="2.5" ry="2.5" style="stroke:#181818;stroke-width:0.5;" width="166.7773" x="2692.5" y="115"/><ellipse cx="2707.5" cy="131" fill="#ADD1B2" rx="11" ry="11" style="stroke:#181818;stroke-width:1;"/><path d="M2710.4688,136.6406 Q2709.8906,136.9375 2709.25,137.0781 Q2708.6094,137.2344 2707.9063,137.2344 Q2705.4063,137.2344 2704.0781,135.5938 Q2702.7656,133.9375 2702.7656,130.8125 Q2702.7656,127.6875 2704.0781,126.0313 Q2705.4063,124.375 2707.9063,124.375 Q2708.6094,124.375 2709.25,124.5313 Q2709.9063,124.6875 2710.4688,124.9844 L2710.4688,127.7031 Q2709.8438,127.125 2709.25,126.8594 Q2708.6563,126.5781 2708.0313,126.5781 Q2706.6875,126.5781 2706,127.6563 Q2705.3125,128.7188 2705.3125,130.8125 Q2705.3125,132.9063 2706,133.9844 Q2706.6875,135.0469 2708.0313,135.0469 Q2708.6563,135.0469 2709.25,134.7813 Q2709.8438,134.5 2710.4688,133.9219 L2710.4688,136.6406 Z " fill="#000000"/><text fill="#000000" font-family="sans-serif" font-size="14" lengthAdjust="spacing" textLength="134.7773" x="2721.5" y="135.8467">SamplingCollection</text><line style="stroke:#181818;stroke-width:0.5;" x1="2693.5" x2="2858.2773" y1="147" y2="147"/><line style="stroke:#181818;stroke-width:0.5;" x1="2693.5" x2="2858.2773" y1="155" y2="155"/></g><!--class Actuation--><g class="entity" data-qualified-name="Actuation" data-source-line="15" id="ent0035"><rect fill="#F1F1F1" height="48" rx="2.5" ry="2.5" style="stroke:#181818;stroke-width:0.5;" width="99.0332" x="2406.5" y="115"/><ellipse cx="2421.5" cy="131" fill="#ADD1B2" rx="11" ry="11" style="stroke:#181818;stroke-width:1;"/><path d="M2424.4688,136.6406 Q2423.8906,136.9375 2423.25,137.0781 Q2422.6094,137.2344 2421.9063,137.2344 Q2419.4063,137.2344 2418.0781,135.5938 Q2416.7656,133.9375 2416.7656,130.8125 Q2416.7656,127.6875 2418.0781,126.0313 Q2419.4063,124.375 2421.9063,124.375 Q2422.6094,124.375 2423.25,124.5313 Q2423.9063,124.6875 2424.4688,124.9844 L2424.4688,127.7031 Q2423.8438,127.125 2423.25,126.8594 Q2422.6563,126.5781 2422.0313,126.5781 Q2420.6875,126.5781 2420,127.6563 Q2419.3125,128.7188 2419.3125,130.8125 Q2419.3125,132.9063 2420,133.9844 Q2420.6875,135.0469 2422.0313,135.0469 Q2422.6563,135.0469 2423.25,134.7813 Q2423.8438,134.5 2424.4688,133.9219 L2424.4688,136.6406 Z " fill="#000000"/><text fill="#000000" font-family="sans-serif" font-size="14" lengthAdjust="spacing" textLength="67.0332" x="2435.5" y="135.8467">Actuation</text><line style="stroke:#181818;stroke-width:0.5;" x1="2407.5" x2="2504.5332" y1="147" y2="147"/><line style="stroke:#181818;stroke-width:0.5;" x1="2407.5" x2="2504.5332" y1="155" y2="155"/></g><!--class Sensor--><g class="entity" data-qualified-name="Sensor" data-source-line="16" id="ent0037"><rect fill="#F1F1F1" height="48" rx="2.5" ry="2.5" style="stroke:#181818;stroke-width:0.5;" width="79.9883" x="2277" y="223"/><ellipse cx="2292" cy="239" fill="#ADD1B2" rx="11" ry="11" style="stroke:#181818;stroke-width:1;"/><path d="M2294.9688,244.6406 Q2294.3906,244.9375 2293.75,245.0781 Q2293.1094,245.2344 2292.4063,245.2344 Q2289.9063,245.2344 2288.5781,243.5938 Q2287.2656,241.9375 2287.2656,238.8125 Q2287.2656,235.6875 2288.5781,234.0313 Q2289.9063,232.375 2292.4063,232.375 Q2293.1094,232.375 2293.75,232.5313 Q2294.4063,232.6875 2294.9688,232.9844 L2294.9688,235.7031 Q2294.3438,235.125 2293.75,234.8594 Q2293.1563,234.5781 2292.5313,234.5781 Q2291.1875,234.5781 2290.5,235.6563 Q2289.8125,236.7188 2289.8125,238.8125 Q2289.8125,240.9063 2290.5,241.9844 Q2291.1875,243.0469 2292.5313,243.0469 Q2293.1563,243.0469 2293.75,242.7813 Q2294.3438,242.5 2294.9688,241.9219 L2294.9688,244.6406 Z " fill="#000000"/><text fill="#000000" font-family="sans-serif" font-size="14" lengthAdjust="spacing" textLength="47.9883" x="2306" y="243.8467">Sensor</text><line style="stroke:#181818;stroke-width:0.5;" x1="2278" x2="2355.9883" y1="255" y2="255"/><line style="stroke:#181818;stroke-width:0.5;" x1="2278" x2="2355.9883" y1="263" y2="263"/></g><!--class ActuationCollection--><g class="entity" data-qualified-name="ActuationCollection" data-source-line="17" id="ent0039"><rect fill="#F1F1F1" height="48" rx="2.5" ry="2.5" style="stroke:#181818;stroke-width:0.5;" width="168.2813" x="2894" y="115"/><ellipse cx="2909" cy="131" fill="#ADD1B2" rx="11" ry="11" style="stroke:#181818;stroke-width:1;"/><path d="M2911.9688,136.6406 Q2911.3906,136.9375 2910.75,137.0781 Q2910.1094,137.2344 2909.4063,137.2344 Q2906.9063,137.2344 2905.5781,135.5938 Q2904.2656,133.9375 2904.2656,130.8125 Q2904.2656,127.6875 2905.5781,126.0313 Q2906.9063,124.375 2909.4063,124.375 Q2910.1094,124.375 2910.75,124.5313 Q2911.4063,124.6875 2911.9688,124.9844 L2911.9688,127.7031 Q2911.3438,127.125 2910.75,126.8594 Q2910.1563,126.5781 2909.5313,126.5781 Q2908.1875,126.5781 2907.5,127.6563 Q2906.8125,128.7188 2906.8125,130.8125 Q2906.8125,132.9063 2907.5,133.9844 Q2908.1875,135.0469 2909.5313,135.0469 Q2910.1563,135.0469 2910.75,134.7813 Q2911.3438,134.5 2911.9688,133.9219 L2911.9688,136.6406 Z " fill="#000000"/><text fill="#000000" font-family="sans-serif" font-size="14" lengthAdjust="spacing" textLength="136.2813" x="2923" y="135.8467">ActuationCollection</text><line style="stroke:#181818;stroke-width:0.5;" x1="2895" x2="3061.2813" y1="147" y2="147"/><line style="stroke:#181818;stroke-width:0.5;" x1="2895" x2="3061.2813" y1="155" y2="155"/></g><!--class ObservationCollection--><g class="entity" data-qualified-name="ObservationCollection" data-source-line="18" id="ent0041"><rect fill="#F1F1F1" height="48" rx="2.5" ry="2.5" style="stroke:#181818;stroke-width:0.5;" width="186.499" x="3097" y="115"/><ellipse cx="3112" cy="131" fill="#ADD1B2" rx="11" ry="11" style="stroke:#181818;stroke-width:1;"/><path d="M3114.9688,136.6406 Q3114.3906,136.9375 3113.75,137.0781 Q3113.1094,137.2344 3112.4063,137.2344 Q3109.9063,137.2344 3108.5781,135.5938 Q3107.2656,133.9375 3107.2656,130.8125 Q3107.2656,127.6875 3108.5781,126.0313 Q3109.9063,124.375 3112.4063,124.375 Q3113.1094,124.375 3113.75,124.5313 Q3114.4063,124.6875 3114.9688,124.9844 L3114.9688,127.7031 Q3114.3438,127.125 3113.75,126.8594 Q3113.1563,126.5781 3112.5313,126.5781 Q3111.1875,126.5781 3110.5,127.6563 Q3109.8125,128.7188 3109.8125,130.8125 Q3109.8125,132.9063 3110.5,133.9844 Q3111.1875,135.0469 3112.5313,135.0469 Q3113.1563,135.0469 3113.75,134.7813 Q3114.3438,134.5 3114.9688,133.9219 L3114.9688,136.6406 Z " fill="#000000"/><text fill="#000000" font-family="sans-serif" font-size="14" lengthAdjust="spacing" textLength="154.499" x="3126" y="135.8467">ObservationCollection</text><line style="stroke:#181818;stroke-width:0.5;" x1="3098" x2="3282.499" y1="147" y2="147"/><line style="stroke:#181818;stroke-width:0.5;" x1="3098" x2="3282.499" y1="155" y2="155"/></g><!--class Observation--><g class="entity" data-qualified-name="Observation" data-source-line="19" id="ent0043"><rect fill="#F1F1F1" height="48" rx="2.5" ry="2.5" style="stroke:#181818;stroke-width:0.5;" width="117.251" x="2540.5" y="115"/><ellipse cx="2555.5" cy="131" fill="#ADD1B2" rx="11" ry="11" style="stroke:#181818;stroke-width:1;"/><path d="M2558.4688,136.6406 Q2557.8906,136.9375 2557.25,137.0781 Q2556.6094,137.2344 2555.9063,137.2344 Q2553.4063,137.2344 2552.0781,135.5938 Q2550.7656,133.9375 2550.7656,130.8125 Q2550.7656,127.6875 2552.0781,126.0313 Q2553.4063,124.375 2555.9063,124.375 Q2556.6094,124.375 2557.25,124.5313 Q2557.9063,124.6875 2558.4688,124.9844 L2558.4688,127.7031 Q2557.8438,127.125 2557.25,126.8594 Q2556.6563,126.5781 2556.0313,126.5781 Q2554.6875,126.5781 2554,127.6563 Q2553.3125,128.7188 2553.3125,130.8125 Q2553.3125,132.9063 2554,133.9844 Q2554.6875,135.0469 2556.0313,135.0469 Q2556.6563,135.0469 2557.25,134.7813 Q2557.8438,134.5 2558.4688,133.9219 L2558.4688,136.6406 Z " fill="#000000"/><text fill="#000000" font-family="sans-serif" font-size="14" lengthAdjust="spacing" textLength="85.251" x="2569.5" y="135.8467">Observation</text><line style="stroke:#181818;stroke-width:0.5;" x1="2541.5" x2="2656.751" y1="147" y2="147"/><line style="stroke:#181818;stroke-width:0.5;" x1="2541.5" x2="2656.751" y1="155" y2="155"/></g><!--class Input--><g class="entity" data-qualified-name="Input" data-source-line="20" id="ent0045"><rect fill="#F1F1F1" height="48" rx="2.5" ry="2.5" style="stroke:#181818;stroke-width:0.5;" width="68.251" x="51" y="7"/><ellipse cx="66" cy="23" fill="#ADD1B2" rx="11" ry="11" style="stroke:#181818;stroke-width:1;"/><path d="M68.9688,28.6406 Q68.3906,28.9375 67.75,29.0781 Q67.1094,29.2344 66.4063,29.2344 Q63.9063,29.2344 62.5781,27.5938 Q61.2656,25.9375 61.2656,22.8125 Q61.2656,19.6875 62.5781,18.0313 Q63.9063,16.375 66.4063,16.375 Q67.1094,16.375 67.75,16.5313 Q68.4063,16.6875 68.9688,16.9844 L68.9688,19.7031 Q68.3438,19.125 67.75,18.8594 Q67.1563,18.5781 66.5313,18.5781 Q65.1875,18.5781 64.5,19.6563 Q63.8125,20.7188 63.8125,22.8125 Q63.8125,24.9063 64.5,25.9844 Q65.1875,27.0469 66.5313,27.0469 Q67.1563,27.0469 67.75,26.7813 Q68.3438,26.5 68.9688,25.9219 L68.9688,28.6406 Z " fill="#000000"/><text fill="#000000" font-family="sans-serif" font-size="14" lengthAdjust="spacing" textLength="36.251" x="80" y="27.8467">Input</text><line style="stroke:#181818;stroke-width:0.5;" x1="52" x2="118.251" y1="39" y2="39"/><line style="stroke:#181818;stroke-width:0.5;" x1="52" x2="118.251" y1="47" y2="47"/></g><!--class Stimulus--><g class="entity" data-qualified-name="Stimulus" data-source-line="21" id="ent0046"><rect fill="#F1F1F1" height="48" rx="2.5" ry="2.5" style="stroke:#181818;stroke-width:0.5;" width="92.833" x="154.5" y="7"/><ellipse cx="169.5" cy="23" fill="#ADD1B2" rx="11" ry="11" style="stroke:#181818;stroke-width:1;"/><path d="M172.4688,28.6406 Q171.8906,28.9375 171.25,29.0781 Q170.6094,29.2344 169.9063,29.2344 Q167.4063,29.2344 166.0781,27.5938 Q164.7656,25.9375 164.7656,22.8125 Q164.7656,19.6875 166.0781,18.0313 Q167.4063,16.375 169.9063,16.375 Q170.6094,16.375 171.25,16.5313 Q171.9063,16.6875 172.4688,16.9844 L172.4688,19.7031 Q171.8438,19.125 171.25,18.8594 Q170.6563,18.5781 170.0313,18.5781 Q168.6875,18.5781 168,19.6563 Q167.3125,20.7188 167.3125,22.8125 Q167.3125,24.9063 168,25.9844 Q168.6875,27.0469 170.0313,27.0469 Q170.6563,27.0469 171.25,26.7813 Q171.8438,26.5 172.4688,25.9219 L172.4688,28.6406 Z " fill="#000000"/><text fill="#000000" font-family="sans-serif" font-size="14" lengthAdjust="spacing" textLength="60.833" x="183.5" y="27.8467">Stimulus</text><line style="stroke:#181818;stroke-width:0.5;" x1="155.5" x2="246.333" y1="39" y2="39"/><line style="stroke:#181818;stroke-width:0.5;" x1="155.5" x2="246.333" y1="47" y2="47"/></g><!--class Deployment--><g class="entity" data-qualified-name="Deployment" data-source-line="22" id="ent0047"><rect fill="#F1F1F1" height="48" rx="2.5" ry="2.5" style="stroke:#181818;stroke-width:0.5;" width="117.6338" x="283" y="7"/><ellipse cx="298" cy="23" fill="#ADD1B2" rx="11" ry="11" style="stroke:#181818;stroke-width:1;"/><path d="M300.9688,28.6406 Q300.3906,28.9375 299.75,29.0781 Q299.1094,29.2344 298.4063,29.2344 Q295.9063,29.2344 294.5781,27.5938 Q293.2656,25.9375 293.2656,22.8125 Q293.2656,19.6875 294.5781,18.0313 Q295.9063,16.375 298.4063,16.375 Q299.1094,16.375 299.75,16.5313 Q300.4063,16.6875 300.9688,16.9844 L300.9688,19.7031 Q300.3438,19.125 299.75,18.8594 Q299.1563,18.5781 298.5313,18.5781 Q297.1875,18.5781 296.5,19.6563 Q295.8125,20.7188 295.8125,22.8125 Q295.8125,24.9063 296.5,25.9844 Q297.1875,27.0469 298.5313,27.0469 Q299.1563,27.0469 299.75,26.7813 Q300.3438,26.5 300.9688,25.9219 L300.9688,28.6406 Z " fill="#000000"/><text fill="#000000" font-family="sans-serif" font-size="14" lengthAdjust="spacing" textLength="85.6338" x="312" y="27.8467">Deployment</text><line style="stroke:#181818;stroke-width:0.5;" x1="284" x2="399.6338" y1="39" y2="39"/><line style="stroke:#181818;stroke-width:0.5;" x1="284" x2="399.6338" y1="47" y2="47"/></g><!--class Result--><g class="entity" data-qualified-name="Result" data-source-line="24" id="ent0048"><rect fill="#F1F1F1" height="48" rx="2.5" ry="2.5" style="stroke:#181818;stroke-width:0.5;" width="75.8867" x="47" y="115"/><ellipse cx="62" cy="131" fill="#ADD1B2" rx="11" ry="11" style="stroke:#181818;stroke-width:1;"/><path d="M64.9688,136.6406 Q64.3906,136.9375 63.75,137.0781 Q63.1094,137.2344 62.4063,137.2344 Q59.9063,137.2344 58.5781,135.5938 Q57.2656,133.9375 57.2656,130.8125 Q57.2656,127.6875 58.5781,126.0313 Q59.9063,124.375 62.4063,124.375 Q63.1094,124.375 63.75,124.5313 Q64.4063,124.6875 64.9688,124.9844 L64.9688,127.7031 Q64.3438,127.125 63.75,126.8594 Q63.1563,126.5781 62.5313,126.5781 Q61.1875,126.5781 60.5,127.6563 Q59.8125,128.7188 59.8125,130.8125 Q59.8125,132.9063 60.5,133.9844 Q61.1875,135.0469 62.5313,135.0469 Q63.1563,135.0469 63.75,134.7813 Q64.3438,134.5 64.9688,133.9219 L64.9688,136.6406 Z " fill="#000000"/><text fill="#000000" font-family="sans-serif" font-size="14" lengthAdjust="spacing" textLength="43.8867" x="76" y="135.8467">Result</text><line style="stroke:#181818;stroke-width:0.5;" x1="48" x2="121.8867" y1="147" y2="147"/><line style="stroke:#181818;stroke-width:0.5;" x1="48" x2="121.8867" y1="155" y2="155"/></g><!--class SampleCollection--><g class="entity" data-qualified-name="SampleCollection" data-source-line="26" id="ent0049"><rect fill="#F1F1F1" height="48" rx="2.5" ry="2.5" style="stroke:#181818;stroke-width:0.5;" width="153.7412" x="158" y="115"/><ellipse cx="173" cy="131" fill="#ADD1B2" rx="11" ry="11" style="stroke:#181818;stroke-width:1;"/><path d="M175.9688,136.6406 Q175.3906,136.9375 174.75,137.0781 Q174.1094,137.2344 173.4063,137.2344 Q170.9063,137.2344 169.5781,135.5938 Q168.2656,133.9375 168.2656,130.8125 Q168.2656,127.6875 169.5781,126.0313 Q170.9063,124.375 173.4063,124.375 Q174.1094,124.375 174.75,124.5313 Q175.4063,124.6875 175.9688,124.9844 L175.9688,127.7031 Q175.3438,127.125 174.75,126.8594 Q174.1563,126.5781 173.5313,126.5781 Q172.1875,126.5781 171.5,127.6563 Q170.8125,128.7188 170.8125,130.8125 Q170.8125,132.9063 171.5,133.9844 Q172.1875,135.0469 173.5313,135.0469 Q174.1563,135.0469 174.75,134.7813 Q175.3438,134.5 175.9688,133.9219 L175.9688,136.6406 Z " fill="#000000"/><text fill="#000000" font-family="sans-serif" font-size="14" lengthAdjust="spacing" textLength="121.7412" x="187" y="135.8467">SampleCollection</text><line style="stroke:#181818;stroke-width:0.5;" x1="159" x2="310.7412" y1="147" y2="147"/><line style="stroke:#181818;stroke-width:0.5;" x1="159" x2="310.7412" y1="155" y2="155"/></g><!--class Output--><g class="entity" data-qualified-name="Output" data-source-line="29" id="ent0050"><rect fill="#F1F1F1" height="48" rx="2.5" ry="2.5" style="stroke:#181818;stroke-width:0.5;" width="80.6309" x="347.5" y="115"/><ellipse cx="362.5" cy="131" fill="#ADD1B2" rx="11" ry="11" style="stroke:#181818;stroke-width:1;"/><path d="M365.4688,136.6406 Q364.8906,136.9375 364.25,137.0781 Q363.6094,137.2344 362.9063,137.2344 Q360.4063,137.2344 359.0781,135.5938 Q357.7656,133.9375 357.7656,130.8125 Q357.7656,127.6875 359.0781,126.0313 Q360.4063,124.375 362.9063,124.375 Q363.6094,124.375 364.25,124.5313 Q364.9063,124.6875 365.4688,124.9844 L365.4688,127.7031 Q364.8438,127.125 364.25,126.8594 Q363.6563,126.5781 363.0313,126.5781 Q361.6875,126.5781 361,127.6563 Q360.3125,128.7188 360.3125,130.8125 Q360.3125,132.9063 361,133.9844 Q361.6875,135.0469 363.0313,135.0469 Q363.6563,135.0469 364.25,134.7813 Q364.8438,134.5 365.4688,133.9219 L365.4688,136.6406 Z " fill="#000000"/><text fill="#000000" font-family="sans-serif" font-size="14" lengthAdjust="spacing" textLength="48.6309" x="376.5" y="135.8467">Output</text><line style="stroke:#181818;stroke-width:0.5;" x1="348.5" x2="427.1309" y1="147" y2="147"/><line style="stroke:#181818;stroke-width:0.5;" x1="348.5" x2="427.1309" y1="155" y2="155"/></g><!--class FeatureOfInterest--><g class="entity" data-qualified-name="FeatureOfInterest" data-source-line="30" id="ent0051"><rect fill="#F1F1F1" height="48" rx="2.5" ry="2.5" style="stroke:#181818;stroke-width:0.5;" width="156.1816" x="7" y="223"/><ellipse cx="22" cy="239" fill="#ADD1B2" rx="11" ry="11" style="stroke:#181818;stroke-width:1;"/><path d="M24.9688,244.6406 Q24.3906,244.9375 23.75,245.0781 Q23.1094,245.2344 22.4063,245.2344 Q19.9063,245.2344 18.5781,243.5938 Q17.2656,241.9375 17.2656,238.8125 Q17.2656,235.6875 18.5781,234.0313 Q19.9063,232.375 22.4063,232.375 Q23.1094,232.375 23.75,232.5313 Q24.4063,232.6875 24.9688,232.9844 L24.9688,235.7031 Q24.3438,235.125 23.75,234.8594 Q23.1563,234.5781 22.5313,234.5781 Q21.1875,234.5781 20.5,235.6563 Q19.8125,236.7188 19.8125,238.8125 Q19.8125,240.9063 20.5,241.9844 Q21.1875,243.0469 22.5313,243.0469 Q23.1563,243.0469 23.75,242.7813 Q24.3438,242.5 24.9688,241.9219 L24.9688,244.6406 Z " fill="#000000"/><text fill="#000000" font-family="sans-serif" font-size="14" lengthAdjust="spacing" textLength="124.1816" x="36" y="243.8467">FeatureOfInterest</text><line style="stroke:#181818;stroke-width:0.5;" x1="8" x2="162.1816" y1="255" y2="255"/><line style="stroke:#181818;stroke-width:0.5;" x1="8" x2="162.1816" y1="263" y2="263"/></g><!--reverse link Property to ActuatableProperty--><g class="link" data-entity-1="ent0001" data-entity-2="ent0002" data-link-type="extension" data-source-line="1" id="lnk3"><path codeLine="1" d="M614.3905,67.9716 C597.4005,85.6316 586.51,96.94 569.44,114.68" fill="none" id="Property-backto-ActuatableProperty" style="stroke:#181818;stroke-width:1;"/><polygon fill="none" points="626.87,55,610.0667,63.8118,618.7144,72.1314,626.87,55" style="stroke:#181818;stroke-width:1;stroke-linejoin:miter;stroke-miterlimit:10;"/></g><!--reverse link Sample to MaterialSample--><g class="link" data-entity-1="ent0004" data-entity-2="ent0005" data-link-type="extension" data-source-line="2" id="lnk6"><path codeLine="2" d="M1063.3567,64.4445 C1034.6067,82.1645 1010.35,97.11 981.55,114.86" fill="none" id="Sample-backto-MaterialSample" style="stroke:#181818;stroke-width:1;"/><polygon fill="none" points="1078.68,55,1060.2086,59.3367,1066.5049,69.5522,1078.68,55" style="stroke:#181818;stroke-width:1;stroke-linejoin:miter;stroke-miterlimit:10;"/></g><!--reverse link Sample to SpatialSample--><g class="link" data-entity-1="ent0004" data-entity-2="ent0007" data-link-type="extension" data-source-line="3" id="lnk8"><path codeLine="3" d="M1116,73 C1116,90.66 1116,96.94 1116,114.68" fill="none" id="Sample-backto-SpatialSample" style="stroke:#181818;stroke-width:1;"/><polygon fill="none" points="1116,55,1110,73,1122,73,1116,55" style="stroke:#181818;stroke-width:1;stroke-linejoin:miter;stroke-miterlimit:10;"/></g><!--reverse link Sample to StatisticalSample--><g class="link" data-entity-1="ent0004" data-entity-2="ent0009" data-link-type="extension" data-source-line="4" id="lnk10"><path codeLine="4" d="M1170.3276,64.1725 C1200.2476,81.8925 1225.95,97.11 1255.93,114.86" fill="none" id="Sample-backto-StatisticalSample" style="stroke:#181818;stroke-width:1;"/><polygon fill="none" points="1154.84,55,1167.2701,69.335,1173.3851,59.0099,1154.84,55" style="stroke:#181818;stroke-width:1;stroke-linejoin:miter;stroke-miterlimit:10;"/></g><!--reverse link Property to ObservableProperty--><g class="link" data-entity-1="ent0001" data-entity-2="ent0011" data-link-type="extension" data-source-line="5" id="lnk12"><path codeLine="5" d="M683.8939,67.9094 C701.0539,85.5694 712.1,96.94 729.34,114.68" fill="none" id="Property-backto-ObservableProperty" style="stroke:#181818;stroke-width:1;"/><polygon fill="none" points="671.35,55,679.5907,72.0906,688.197,63.7281,671.35,55" style="stroke:#181818;stroke-width:1;stroke-linejoin:miter;stroke-miterlimit:10;"/></g><!--reverse link Procedure to ActuatingProcedure--><g class="link" data-entity-1="ent0013" data-entity-2="ent0014" data-link-type="extension" data-source-line="6" id="lnk15"><path codeLine="6" d="M1639.8326,63.1732 C1605.0626,80.8932 1573.24,97.11 1538.4,114.86" fill="none" id="Procedure-backto-ActuatingProcedure" style="stroke:#181818;stroke-width:1;"/><polygon fill="none" points="1655.87,55,1637.1082,57.8274,1642.557,68.519,1655.87,55" style="stroke:#181818;stroke-width:1;stroke-linejoin:miter;stroke-miterlimit:10;"/></g><!--reverse link Procedure to ObservingProcedure--><g class="link" data-entity-1="ent0013" data-entity-2="ent0016" data-link-type="extension" data-source-line="7" id="lnk17"><path codeLine="7" d="M1701,73 C1701,90.66 1701,96.94 1701,114.68" fill="none" id="Procedure-backto-ObservingProcedure" style="stroke:#181818;stroke-width:1;"/><polygon fill="none" points="1701,55,1695,73,1707,73,1701,55" style="stroke:#181818;stroke-width:1;stroke-linejoin:miter;stroke-miterlimit:10;"/></g><!--reverse link Procedure to SamplingProcedure--><g class="link" data-entity-1="ent0013" data-entity-2="ent0018" data-link-type="extension" data-source-line="8" id="lnk19"><path codeLine="8" d="M1761.9411,63.205 C1796.5411,80.925 1828.15,97.11 1862.81,114.86" fill="none" id="Procedure-backto-SamplingProcedure" style="stroke:#181818;stroke-width:1;"/><polygon fill="none" points="1745.92,55,1759.2061,68.5454,1764.6762,57.8647,1745.92,55" style="stroke:#181818;stroke-width:1;stroke-linejoin:miter;stroke-miterlimit:10;"/></g><!--reverse link Asset to Platform--><g class="link" data-entity-1="ent0020" data-entity-2="ent0021" data-link-type="extension" data-source-line="9" id="lnk22"><path codeLine="9" d="M2111.7839,70.6022 C2101.6239,88.2622 2096.63,96.94 2086.42,114.68" fill="none" id="Asset-backto-Platform" style="stroke:#181818;stroke-width:1;"/><polygon fill="none" points="2120.76,55,2106.5831,67.6102,2116.9846,73.5943,2120.76,55" style="stroke:#181818;stroke-width:1;stroke-linejoin:miter;stroke-miterlimit:10;"/></g><!--reverse link System to Sampler--><g class="link" data-entity-1="ent0023" data-entity-2="ent0024" data-link-type="extension" data-source-line="10" id="lnk25"><path codeLine="10" d="M2154.8865,174.5884 C2133.8965,192.2484 2118.81,204.94 2097.72,222.68" fill="none" id="System-backto-Sampler" style="stroke:#181818;stroke-width:1;"/><polygon fill="none" points="2168.66,163,2151.0237,169.9972,2158.7493,179.1795,2168.66,163" style="stroke:#181818;stroke-width:1;stroke-linejoin:miter;stroke-miterlimit:10;"/></g><!--reverse link System to Actuator--><g class="link" data-entity-1="ent0023" data-entity-2="ent0026" data-link-type="extension" data-source-line="11" id="lnk27"><path codeLine="11" d="M2196,181 C2196,198.66 2196,204.94 2196,222.68" fill="none" id="System-backto-Actuator" style="stroke:#181818;stroke-width:1;"/><polygon fill="none" points="2196,163,2190,181,2202,181,2196,163" style="stroke:#181818;stroke-width:1;stroke-linejoin:miter;stroke-miterlimit:10;"/></g><!--reverse link Asset to System--><g class="link" data-entity-1="ent0020" data-entity-2="ent0023" data-link-type="extension" data-source-line="12" id="lnk28"><path codeLine="12" d="M2156.5383,70.5372 C2166.8683,88.1972 2171.98,96.94 2182.36,114.68" fill="none" id="Asset-backto-System" style="stroke:#181818;stroke-width:1;"/><polygon fill="none" points="2147.45,55,2151.3592,73.5666,2161.7173,67.5077,2147.45,55" style="stroke:#181818;stroke-width:1;stroke-linejoin:miter;stroke-miterlimit:10;"/></g><!--reverse link Execution to Sampling--><g class="link" data-entity-1="ent0029" data-entity-2="ent0030" data-link-type="extension" data-source-line="13" id="lnk31"><path codeLine="13" d="M2412.8041,66.1688 C2390.4841,83.8288 2373.91,96.94 2351.48,114.68" fill="none" id="Execution-backto-Sampling" style="stroke:#181818;stroke-width:1;"/><polygon fill="none" points="2426.92,55,2409.0812,61.4635,2416.527,70.8741,2426.92,55" style="stroke:#181818;stroke-width:1;stroke-linejoin:miter;stroke-miterlimit:10;"/></g><!--reverse link ExecutionCollection to SamplingCollection--><g class="link" data-entity-1="ent0032" data-entity-2="ent0033" data-link-type="extension" data-source-line="14" id="lnk34"><path codeLine="14" d="M2918.231,63.3636 C2884.461,81.0836 2853.93,97.11 2820.09,114.86" fill="none" id="ExecutionCollection-backto-SamplingCollection" style="stroke:#181818;stroke-width:1;"/><polygon fill="none" points="2934.17,55,2915.4432,58.0506,2921.0189,68.6766,2934.17,55" style="stroke:#181818;stroke-width:1;stroke-linejoin:miter;stroke-miterlimit:10;"/></g><!--reverse link Execution to Actuation--><g class="link" data-entity-1="ent0029" data-entity-2="ent0035" data-link-type="extension" data-source-line="15" id="lnk36"><path codeLine="15" d="M2456,73 C2456,90.66 2456,96.94 2456,114.68" fill="none" id="Execution-backto-Actuation" style="stroke:#181818;stroke-width:1;"/><polygon fill="none" points="2456,55,2450,73,2462,73,2456,55" style="stroke:#181818;stroke-width:1;stroke-linejoin:miter;stroke-miterlimit:10;"/></g><!--reverse link System to Sensor--><g class="link" data-entity-1="ent0023" data-entity-2="ent0037" data-link-type="extension" data-source-line="16" id="lnk38"><path codeLine="16" d="M2235.7968,174.864 C2255.9468,192.524 2270.13,204.94 2290.38,222.68" fill="none" id="System-backto-Sensor" style="stroke:#181818;stroke-width:1;"/><polygon fill="none" points="2222.26,163,2231.8421,179.3763,2239.7515,170.3518,2222.26,163" style="stroke:#181818;stroke-width:1;stroke-linejoin:miter;stroke-miterlimit:10;"/></g><!--reverse link ExecutionCollection to ActuationCollection--><g class="link" data-entity-1="ent0032" data-entity-2="ent0039" data-link-type="extension" data-source-line="17" id="lnk40"><path codeLine="17" d="M2978,73 C2978,90.66 2978,96.94 2978,114.68" fill="none" id="ExecutionCollection-backto-ActuationCollection" style="stroke:#181818;stroke-width:1;"/><polygon fill="none" points="2978,55,2972,73,2984,73,2978,55" style="stroke:#181818;stroke-width:1;stroke-linejoin:miter;stroke-miterlimit:10;"/></g><!--reverse link ExecutionCollection to ObservationCollection--><g class="link" data-entity-1="ent0032" data-entity-2="ent0041" data-link-type="extension" data-source-line="18" id="lnk42"><path codeLine="18" d="M3040.0997,63.0498 C3075.5397,80.7698 3108.22,97.11 3143.72,114.86" fill="none" id="ExecutionCollection-backto-ObservationCollection" style="stroke:#181818;stroke-width:1;"/><polygon fill="none" points="3024,55,3037.4164,68.4164,3042.783,57.6833,3024,55" style="stroke:#181818;stroke-width:1;stroke-linejoin:miter;stroke-miterlimit:10;"/></g><!--reverse link Execution to Observation--><g class="link" data-entity-1="ent0029" data-entity-2="ent0043" data-link-type="extension" data-source-line="19" id="lnk44"><path codeLine="19" d="M2501.4895,65.7202 C2525.3095,83.3802 2543.61,96.94 2567.54,114.68" fill="none" id="Execution-backto-Observation" style="stroke:#181818;stroke-width:1;"/><polygon fill="none" points="2487.03,55,2497.9161,70.54,2505.0629,60.9004,2487.03,55" style="stroke:#181818;stroke-width:1;stroke-linejoin:miter;stroke-miterlimit:10;"/></g><?plantuml-src ZL99RiCm3Bpx5Vv0Vj1Bq0N8eR1Hlu1HcK80jK2aWXheuoj4gcmvTT6RE3CSZYYDmNaCClSFNuT3VrGIGU1CE1Qycy1umao_Wc3GG1bhgCc3x32I61QjAZisCuSpOxWsCzD1uNiCk4wbxKV5juhiyPVYDheH79bHCZaIoCK5qqqp2vfL1uO6oqbSM3Tdldl-H1L5EzlEM_17HuJgNh7WMuzoxqGqkT1oIh3hMxj-CzwAo_Btv7UYJX4mzoVhevJp9Df4YbpA9_JaPeFsXw-lciitv4YrD--k5BU5hsBypt-8ieHvGP3qkCFbPDDNHPPl?></g></svg>