<svg xmlns="http://www.w3.org/2000/svg" xmlns:xlink="http://www.w3.org/1999/xlink" contentStyleType="text/css" data-diagram-type="CLASS" height="286px" preserveAspectRatio="none" style="width:3153px;height:286px;background:#FFFFFF;" version="1.1" viewBox="0 0 3153 286" width="3153px" zoomAndPan="magnify"><?plantuml 1.2026.6?><defs/><g><!--class Property--><g class="entity" data-qualified-name="Property" data-source-line="1" id="ent0001"><rect fill="#F1F1F1" height="48" rx="2.5" ry="2.5" style="stroke:#181818;stroke-width:0.5;" width="91.7939" x="519.5" y="7"/><ellipse cx="534.5" cy="23" fill="#ADD1B2" rx="11" ry="11" style="stroke:#181818;stroke-width:1;"/><path d="M537.4688,28.6406 Q536.8906,28.9375 536.25,29.0781 Q535.6094,29.2344 534.9063,29.2344 Q532.4063,29.2344 531.0781,27.5938 Q529.7656,25.9375 529.7656,22.8125 Q529.7656,19.6875 531.0781,18.0313 Q532.4063,16.375 534.9063,16.375 Q535.6094,16.375 536.25,16.5313 Q536.9063,16.6875 537.4688,16.9844 L537.4688,19.7031 Q536.8438,19.125 536.25,18.8594 Q535.6563,18.5781 535.0313,18.5781 Q533.6875,18.5781 533,19.6563 Q532.3125,20.7188 532.3125,22.8125 Q532.3125,24.9063 533,25.9844 Q533.6875,27.0469 535.0313,27.0469 Q535.6563,27.0469 536.25,26.7813 Q536.8438,26.5 537.4688,25.9219 L537.4688,28.6406 Z " fill="#000000"/><text fill="#000000" font-family="sans-serif" font-size="14" lengthAdjust="spacing" textLength="59.7939" x="548.5" y="27.8467">Property</text><line style="stroke:#181818;stroke-width:0.5;" x1="520.5" x2="610.2939" y1="39" y2="39"/><line style="stroke:#181818;stroke-width:0.5;" x1="520.5" x2="610.2939" y1="47" y2="47"/></g><!--class ActuatableProperty--><g class="entity" data-qualified-name="ActuatableProperty" data-source-line="1" id="ent0002"><rect fill="#F1F1F1" height="48" rx="2.5" ry="2.5" style="stroke:#181818;stroke-width:0.5;" width="167.4678" x="318" y="115"/><ellipse cx="333" cy="131" fill="#ADD1B2" rx="11" ry="11" style="stroke:#181818;stroke-width:1;"/><path d="M335.9688,136.6406 Q335.3906,136.9375 334.75,137.0781 Q334.1094,137.2344 333.4063,137.2344 Q330.9063,137.2344 329.5781,135.5938 Q328.2656,133.9375 328.2656,130.8125 Q328.2656,127.6875 329.5781,126.0313 Q330.9063,124.375 333.4063,124.375 Q334.1094,124.375 334.75,124.5313 Q335.4063,124.6875 335.9688,124.9844 L335.9688,127.7031 Q335.3438,127.125 334.75,126.8594 Q334.1563,126.5781 333.5313,126.5781 Q332.1875,126.5781 331.5,127.6563 Q330.8125,128.7188 330.8125,130.8125 Q330.8125,132.9063 331.5,133.9844 Q332.1875,135.0469 333.5313,135.0469 Q334.1563,135.0469 334.75,134.7813 Q335.3438,134.5 335.9688,133.9219 L335.9688,136.6406 Z " fill="#000000"/><text fill="#000000" font-family="sans-serif" font-size="14" lengthAdjust="spacing" textLength="135.4678" x="347" y="135.8467">ActuatableProperty</text><line style="stroke:#181818;stroke-width:0.5;" x1="319" x2="484.4678" y1="147" y2="147"/><line style="stroke:#181818;stroke-width:0.5;" x1="319" x2="484.4678" y1="155" y2="155"/></g><!--class Sample--><g class="entity" data-qualified-name="Sample" data-source-line="2" id="ent0004"><rect fill="#F1F1F1" height="48" rx="2.5" ry="2.5" style="stroke:#181818;stroke-width:0.5;" width="84.4932" x="928.5" y="7"/><ellipse cx="943.5" cy="23" fill="#ADD1B2" rx="11" ry="11" style="stroke:#181818;stroke-width:1;"/><path d="M946.4688,28.6406 Q945.8906,28.9375 945.25,29.0781 Q944.6094,29.2344 943.9063,29.2344 Q941.4063,29.2344 940.0781,27.5938 Q938.7656,25.9375 938.7656,22.8125 Q938.7656,19.6875 940.0781,18.0313 Q941.4063,16.375 943.9063,16.375 Q944.6094,16.375 945.25,16.5313 Q945.9063,16.6875 946.4688,16.9844 L946.4688,19.7031 Q945.8438,19.125 945.25,18.8594 Q944.6563,18.5781 944.0313,18.5781 Q942.6875,18.5781 942,19.6563 Q941.3125,20.7188 941.3125,22.8125 Q941.3125,24.9063 942,25.9844 Q942.6875,27.0469 944.0313,27.0469 Q944.6563,27.0469 945.25,26.7813 Q945.8438,26.5 946.4688,25.9219 L946.4688,28.6406 Z " fill="#000000"/><text fill="#000000" font-family="sans-serif" font-size="14" lengthAdjust="spacing" textLength="52.4932" x="957.5" y="27.8467">Sample</text><line style="stroke:#181818;stroke-width:0.5;" x1="929.5" x2="1011.9932" y1="39" y2="39"/><line style="stroke:#181818;stroke-width:0.5;" x1="929.5" x2="1011.9932" y1="47" y2="47"/></g><!--class MaterialSample--><g class="entity" data-qualified-name="MaterialSample" data-source-line="2" id="ent0005"><rect fill="#F1F1F1" height="48" rx="2.5" ry="2.5" style="stroke:#181818;stroke-width:0.5;" width="141.3682" x="728" y="115"/><ellipse cx="743" cy="131" fill="#ADD1B2" rx="11" ry="11" style="stroke:#181818;stroke-width:1;"/><path d="M745.9688,136.6406 Q745.3906,136.9375 744.75,137.0781 Q744.1094,137.2344 743.4063,137.2344 Q740.9063,137.2344 739.5781,135.5938 Q738.2656,133.9375 738.2656,130.8125 Q738.2656,127.6875 739.5781,126.0313 Q740.9063,124.375 743.4063,124.375 Q744.1094,124.375 744.75,124.5313 Q745.4063,124.6875 745.9688,124.9844 L745.9688,127.7031 Q745.3438,127.125 744.75,126.8594 Q744.1563,126.5781 743.5313,126.5781 Q742.1875,126.5781 741.5,127.6563 Q740.8125,128.7188 740.8125,130.8125 Q740.8125,132.9063 741.5,133.9844 Q742.1875,135.0469 743.5313,135.0469 Q744.1563,135.0469 744.75,134.7813 Q745.3438,134.5 745.9688,133.9219 L745.9688,136.6406 Z " fill="#000000"/><text fill="#000000" font-family="sans-serif" font-size="14" lengthAdjust="spacing" textLength="109.3682" x="757" y="135.8467">MaterialSample</text><line style="stroke:#181818;stroke-width:0.5;" x1="729" x2="868.3682" y1="147" y2="147"/><line style="stroke:#181818;stroke-width:0.5;" x1="729" x2="868.3682" y1="155" y2="155"/></g><!--class ObservableProperty--><g class="entity" data-qualified-name="ObservableProperty" data-source-line="3" id="ent0007"><rect fill="#F1F1F1" height="48" rx="2.5" ry="2.5" style="stroke:#181818;stroke-width:0.5;" width="171.6172" x="520.5" y="115"/><ellipse cx="535.5" cy="131" fill="#ADD1B2" rx="11" ry="11" style="stroke:#181818;stroke-width:1;"/><path d="M538.4688,136.6406 Q537.8906,136.9375 537.25,137.0781 Q536.6094,137.2344 535.9063,137.2344 Q533.4063,137.2344 532.0781,135.5938 Q530.7656,133.9375 530.7656,130.8125 Q530.7656,127.6875 532.0781,126.0313 Q533.4063,124.375 535.9063,124.375 Q536.6094,124.375 537.25,124.5313 Q537.9063,124.6875 538.4688,124.9844 L538.4688,127.7031 Q537.8438,127.125 537.25,126.8594 Q536.6563,126.5781 536.0313,126.5781 Q534.6875,126.5781 534,127.6563 Q533.3125,128.7188 533.3125,130.8125 Q533.3125,132.9063 534,133.9844 Q534.6875,135.0469 536.0313,135.0469 Q536.6563,135.0469 537.25,134.7813 Q537.8438,134.5 538.4688,133.9219 L538.4688,136.6406 Z " fill="#000000"/><text fill="#000000" font-family="sans-serif" font-size="14" lengthAdjust="spacing" textLength="139.6172" x="549.5" y="135.8467">ObservableProperty</text><line style="stroke:#181818;stroke-width:0.5;" x1="521.5" x2="691.1172" y1="147" y2="147"/><line style="stroke:#181818;stroke-width:0.5;" x1="521.5" x2="691.1172" y1="155" y2="155"/></g><!--class SpatialSample--><g class="entity" data-qualified-name="SpatialSample" data-source-line="4" id="ent0009"><rect fill="#F1F1F1" height="48" rx="2.5" ry="2.5" style="stroke:#181818;stroke-width:0.5;" width="132.6934" x="904" y="115"/><ellipse cx="919" cy="131" fill="#ADD1B2" rx="11" ry="11" style="stroke:#181818;stroke-width:1;"/><path d="M921.9688,136.6406 Q921.3906,136.9375 920.75,137.0781 Q920.1094,137.2344 919.4063,137.2344 Q916.9063,137.2344 915.5781,135.5938 Q914.2656,133.9375 914.2656,130.8125 Q914.2656,127.6875 915.5781,126.0313 Q916.9063,124.375 919.4063,124.375 Q920.1094,124.375 920.75,124.5313 Q921.4063,124.6875 921.9688,124.9844 L921.9688,127.7031 Q921.3438,127.125 920.75,126.8594 Q920.1563,126.5781 919.5313,126.5781 Q918.1875,126.5781 917.5,127.6563 Q916.8125,128.7188 916.8125,130.8125 Q916.8125,132.9063 917.5,133.9844 Q918.1875,135.0469 919.5313,135.0469 Q920.1563,135.0469 920.75,134.7813 Q921.3438,134.5 921.9688,133.9219 L921.9688,136.6406 Z " fill="#000000"/><text fill="#000000" font-family="sans-serif" font-size="14" lengthAdjust="spacing" textLength="100.6934" x="933" y="135.8467">SpatialSample</text><line style="stroke:#181818;stroke-width:0.5;" x1="905" x2="1035.6934" y1="147" y2="147"/><line style="stroke:#181818;stroke-width:0.5;" x1="905" x2="1035.6934" y1="155" y2="155"/></g><!--class StatisticalSample--><g class="entity" data-qualified-name="StatisticalSample" data-source-line="5" id="ent0011"><rect fill="#F1F1F1" height="48" rx="2.5" ry="2.5" style="stroke:#181818;stroke-width:0.5;" width="153.666" x="1072.5" y="115"/><ellipse cx="1087.5" cy="131" fill="#ADD1B2" rx="11" ry="11" style="stroke:#181818;stroke-width:1;"/><path d="M1090.4688,136.6406 Q1089.8906,136.9375 1089.25,137.0781 Q1088.6094,137.2344 1087.9063,137.2344 Q1085.4063,137.2344 1084.0781,135.5938 Q1082.7656,133.9375 1082.7656,130.8125 Q1082.7656,127.6875 1084.0781,126.0313 Q1085.4063,124.375 1087.9063,124.375 Q1088.6094,124.375 1089.25,124.5313 Q1089.9063,124.6875 1090.4688,124.9844 L1090.4688,127.7031 Q1089.8438,127.125 1089.25,126.8594 Q1088.6563,126.5781 1088.0313,126.5781 Q1086.6875,126.5781 1086,127.6563 Q1085.3125,128.7188 1085.3125,130.8125 Q1085.3125,132.9063 1086,133.9844 Q1086.6875,135.0469 1088.0313,135.0469 Q1088.6563,135.0469 1089.25,134.7813 Q1089.8438,134.5 1090.4688,133.9219 L1090.4688,136.6406 Z " fill="#000000"/><text fill="#000000" font-family="sans-serif" font-size="14" lengthAdjust="spacing" textLength="121.666" x="1101.5" y="135.8467">StatisticalSample</text><line style="stroke:#181818;stroke-width:0.5;" x1="1073.5" x2="1225.166" y1="147" y2="147"/><line style="stroke:#181818;stroke-width:0.5;" x1="1073.5" x2="1225.166" y1="155" y2="155"/></g><!--class Procedure--><g class="entity" data-qualified-name="Procedure" data-source-line="6" id="ent0013"><rect fill="#F1F1F1" height="48" rx="2.5" ry="2.5" style="stroke:#181818;stroke-width:0.5;" width="103.2031" x="1504" y="7"/><ellipse cx="1519" cy="23" fill="#ADD1B2" rx="11" ry="11" style="stroke:#181818;stroke-width:1;"/><path d="M1521.9688,28.6406 Q1521.3906,28.9375 1520.75,29.0781 Q1520.1094,29.2344 1519.4063,29.2344 Q1516.9063,29.2344 1515.5781,27.5938 Q1514.2656,25.9375 1514.2656,22.8125 Q1514.2656,19.6875 1515.5781,18.0313 Q1516.9063,16.375 1519.4063,16.375 Q1520.1094,16.375 1520.75,16.5313 Q1521.4063,16.6875 1521.9688,16.9844 L1521.9688,19.7031 Q1521.3438,19.125 1520.75,18.8594 Q1520.1563,18.5781 1519.5313,18.5781 Q1518.1875,18.5781 1517.5,19.6563 Q1516.8125,20.7188 1516.8125,22.8125 Q1516.8125,24.9063 1517.5,25.9844 Q1518.1875,27.0469 1519.5313,27.0469 Q1520.1563,27.0469 1520.75,26.7813 Q1521.3438,26.5 1521.9688,25.9219 L1521.9688,28.6406 Z " fill="#000000"/><text fill="#000000" font-family="sans-serif" font-size="14" lengthAdjust="spacing" textLength="71.2031" x="1533" y="27.8467">Procedure</text><line style="stroke:#181818;stroke-width:0.5;" x1="1505" x2="1606.2031" y1="39" y2="39"/><line style="stroke:#181818;stroke-width:0.5;" x1="1505" x2="1606.2031" y1="47" y2="47"/></g><!--class ActuatingProcedure--><g class="entity" data-qualified-name="ActuatingProcedure" data-source-line="6" id="ent0014"><rect fill="#F1F1F1" height="48" rx="2.5" ry="2.5" style="stroke:#181818;stroke-width:0.5;" width="170.5576" x="1262" y="115"/><ellipse cx="1277" cy="131" fill="#ADD1B2" rx="11" ry="11" style="stroke:#181818;stroke-width:1;"/><path d="M1279.9688,136.6406 Q1279.3906,136.9375 1278.75,137.0781 Q1278.1094,137.2344 1277.4063,137.2344 Q1274.9063,137.2344 1273.5781,135.5938 Q1272.2656,133.9375 1272.2656,130.8125 Q1272.2656,127.6875 1273.5781,126.0313 Q1274.9063,124.375 1277.4063,124.375 Q1278.1094,124.375 1278.75,124.5313 Q1279.4063,124.6875 1279.9688,124.9844 L1279.9688,127.7031 Q1279.3438,127.125 1278.75,126.8594 Q1278.1563,126.5781 1277.5313,126.5781 Q1276.1875,126.5781 1275.5,127.6563 Q1274.8125,128.7188 1274.8125,130.8125 Q1274.8125,132.9063 1275.5,133.9844 Q1276.1875,135.0469 1277.5313,135.0469 Q1278.1563,135.0469 1278.75,134.7813 Q1279.3438,134.5 1279.9688,133.9219 L1279.9688,136.6406 Z " fill="#000000"/><text fill="#000000" font-family="sans-serif" font-size="14" lengthAdjust="spacing" textLength="138.5576" x="1291" y="135.8467">ActuatingProcedure</text><line style="stroke:#181818;stroke-width:0.5;" x1="1263" x2="1431.5576" y1="147" y2="147"/><line style="stroke:#181818;stroke-width:0.5;" x1="1263" x2="1431.5576" y1="155" y2="155"/></g><!--class ObservingProcedure--><g class="entity" data-qualified-name="ObservingProcedure" data-source-line="7" id="ent0016"><rect fill="#F1F1F1" height="48" rx="2.5" ry="2.5" style="stroke:#181818;stroke-width:0.5;" width="174.707" x="1468" y="115"/><ellipse cx="1483" cy="131" fill="#ADD1B2" rx="11" ry="11" style="stroke:#181818;stroke-width:1;"/><path d="M1485.9688,136.6406 Q1485.3906,136.9375 1484.75,137.0781 Q1484.1094,137.2344 1483.4063,137.2344 Q1480.9063,137.2344 1479.5781,135.5938 Q1478.2656,133.9375 1478.2656,130.8125 Q1478.2656,127.6875 1479.5781,126.0313 Q1480.9063,124.375 1483.4063,124.375 Q1484.1094,124.375 1484.75,124.5313 Q1485.4063,124.6875 1485.9688,124.9844 L1485.9688,127.7031 Q1485.3438,127.125 1484.75,126.8594 Q1484.1563,126.5781 1483.5313,126.5781 Q1482.1875,126.5781 1481.5,127.6563 Q1480.8125,128.7188 1480.8125,130.8125 Q1480.8125,132.9063 1481.5,133.9844 Q1482.1875,135.0469 1483.5313,135.0469 Q1484.1563,135.0469 1484.75,134.7813 Q1485.3438,134.5 1485.9688,133.9219 L1485.9688,136.6406 Z " fill="#000000"/><text fill="#000000" font-family="sans-serif" font-size="14" lengthAdjust="spacing" textLength="142.707" x="1497" y="135.8467">ObservingProcedure</text><line style="stroke:#181818;stroke-width:0.5;" x1="1469" x2="1641.707" y1="147" y2="147"/><line style="stroke:#181818;stroke-width:0.5;" x1="1469" x2="1641.707" y1="155" y2="155"/></g><!--class SamplingProcedure--><g class="entity" data-qualified-name="SamplingProcedure" data-source-line="8" id="ent0018"><rect fill="#F1F1F1" height="48" rx="2.5" ry="2.5" style="stroke:#181818;stroke-width:0.5;" width="168.7324" x="1678" y="115"/><ellipse cx="1693" cy="131" fill="#ADD1B2" rx="11" ry="11" style="stroke:#181818;stroke-width:1;"/><path d="M1695.9688,136.6406 Q1695.3906,136.9375 1694.75,137.0781 Q1694.1094,137.2344 1693.4063,137.2344 Q1690.9063,137.2344 1689.5781,135.5938 Q1688.2656,133.9375 1688.2656,130.8125 Q1688.2656,127.6875 1689.5781,126.0313 Q1690.9063,124.375 1693.4063,124.375 Q1694.1094,124.375 1694.75,124.5313 Q1695.4063,124.6875 1695.9688,124.9844 L1695.9688,127.7031 Q1695.3438,127.125 1694.75,126.8594 Q1694.1563,126.5781 1693.5313,126.5781 Q1692.1875,126.5781 1691.5,127.6563 Q1690.8125,128.7188 1690.8125,130.8125 Q1690.8125,132.9063 1691.5,133.9844 Q1692.1875,135.0469 1693.5313,135.0469 Q1694.1563,135.0469 1694.75,134.7813 Q1695.3438,134.5 1695.9688,133.9219 L1695.9688,136.6406 Z " fill="#000000"/><text fill="#000000" font-family="sans-serif" font-size="14" lengthAdjust="spacing" textLength="136.7324" x="1707" y="135.8467">SamplingProcedure</text><line style="stroke:#181818;stroke-width:0.5;" x1="1679" x2="1845.7324" y1="147" y2="147"/><line style="stroke:#181818;stroke-width:0.5;" x1="1679" x2="1845.7324" y1="155" y2="155"/></g><!--class Asset--><g class="entity" data-qualified-name="Asset" data-source-line="9" id="ent0020"><rect fill="#F1F1F1" height="48" rx="2.5" ry="2.5" style="stroke:#181818;stroke-width:0.5;" width="70.2676" x="1953.5" y="7"/><ellipse cx="1968.5" cy="23" fill="#ADD1B2" rx="11" ry="11" style="stroke:#181818;stroke-width:1;"/><path d="M1971.4688,28.6406 Q1970.8906,28.9375 1970.25,29.0781 Q1969.6094,29.2344 1968.9063,29.2344 Q1966.4063,29.2344 1965.0781,27.5938 Q1963.7656,25.9375 1963.7656,22.8125 Q1963.7656,19.6875 1965.0781,18.0313 Q1966.4063,16.375 1968.9063,16.375 Q1969.6094,16.375 1970.25,16.5313 Q1970.9063,16.6875 1971.4688,16.9844 L1971.4688,19.7031 Q1970.8438,19.125 1970.25,18.8594 Q1969.6563,18.5781 1969.0313,18.5781 Q1967.6875,18.5781 1967,19.6563 Q1966.3125,20.7188 1966.3125,22.8125 Q1966.3125,24.9063 1967,25.9844 Q1967.6875,27.0469 1969.0313,27.0469 Q1969.6563,27.0469 1970.25,26.7813 Q1970.8438,26.5 1971.4688,25.9219 L1971.4688,28.6406 Z " fill="#000000"/><text fill="#000000" font-family="sans-serif" font-size="14" lengthAdjust="spacing" textLength="38.2676" x="1982.5" y="27.8467">Asset</text><line style="stroke:#181818;stroke-width:0.5;" x1="1954.5" x2="2022.7676" y1="39" y2="39"/><line style="stroke:#181818;stroke-width:0.5;" x1="1954.5" x2="2022.7676" y1="47" y2="47"/></g><!--class Platform--><g class="entity" data-qualified-name="Platform" data-source-line="9" id="ent0021"><rect fill="#F1F1F1" height="48" rx="2.5" ry="2.5" style="stroke:#181818;stroke-width:0.5;" width="91.2881" x="1882" y="115"/><ellipse cx="1897" cy="131" fill="#ADD1B2" rx="11" ry="11" style="stroke:#181818;stroke-width:1;"/><path d="M1899.9688,136.6406 Q1899.3906,136.9375 1898.75,137.0781 Q1898.1094,137.2344 1897.4063,137.2344 Q1894.9063,137.2344 1893.5781,135.5938 Q1892.2656,133.9375 1892.2656,130.8125 Q1892.2656,127.6875 1893.5781,126.0313 Q1894.9063,124.375 1897.4063,124.375 Q1898.1094,124.375 1898.75,124.5313 Q1899.4063,124.6875 1899.9688,124.9844 L1899.9688,127.7031 Q1899.3438,127.125 1898.75,126.8594 Q1898.1563,126.5781 1897.5313,126.5781 Q1896.1875,126.5781 1895.5,127.6563 Q1894.8125,128.7188 1894.8125,130.8125 Q1894.8125,132.9063 1895.5,133.9844 Q1896.1875,135.0469 1897.5313,135.0469 Q1898.1563,135.0469 1898.75,134.7813 Q1899.3438,134.5 1899.9688,133.9219 L1899.9688,136.6406 Z " fill="#000000"/><text fill="#000000" font-family="sans-serif" font-size="14" lengthAdjust="spacing" textLength="59.2881" x="1911" y="135.8467">Platform</text><line style="stroke:#181818;stroke-width:0.5;" x1="1883" x2="1972.2881" y1="147" y2="147"/><line style="stroke:#181818;stroke-width:0.5;" x1="1883" x2="1972.2881" y1="155" y2="155"/></g><!--class System--><g class="entity" data-qualified-name="System" data-source-line="10" id="ent0023"><rect fill="#F1F1F1" height="48" rx="2.5" ry="2.5" style="stroke:#181818;stroke-width:0.5;" width="84.2061" x="2008.5" y="115"/><ellipse cx="2023.5" cy="131" fill="#ADD1B2" rx="11" ry="11" style="stroke:#181818;stroke-width:1;"/><path d="M2026.4688,136.6406 Q2025.8906,136.9375 2025.25,137.0781 Q2024.6094,137.2344 2023.9063,137.2344 Q2021.4063,137.2344 2020.0781,135.5938 Q2018.7656,133.9375 2018.7656,130.8125 Q2018.7656,127.6875 2020.0781,126.0313 Q2021.4063,124.375 2023.9063,124.375 Q2024.6094,124.375 2025.25,124.5313 Q2025.9063,124.6875 2026.4688,124.9844 L2026.4688,127.7031 Q2025.8438,127.125 2025.25,126.8594 Q2024.6563,126.5781 2024.0313,126.5781 Q2022.6875,126.5781 2022,127.6563 Q2021.3125,128.7188 2021.3125,130.8125 Q2021.3125,132.9063 2022,133.9844 Q2022.6875,135.0469 2024.0313,135.0469 Q2024.6563,135.0469 2025.25,134.7813 Q2025.8438,134.5 2026.4688,133.9219 L2026.4688,136.6406 Z " fill="#000000"/><text fill="#000000" font-family="sans-serif" font-size="14" lengthAdjust="spacing" textLength="52.2061" x="2037.5" y="135.8467">System</text><line style="stroke:#181818;stroke-width:0.5;" x1="2009.5" x2="2091.7061" y1="147" y2="147"/><line style="stroke:#181818;stroke-width:0.5;" x1="2009.5" x2="2091.7061" y1="155" y2="155"/></g><!--class Sampler--><g class="entity" data-qualified-name="Sampler" data-source-line="10" id="ent0024"><rect fill="#F1F1F1" height="48" rx="2.5" ry="2.5" style="stroke:#181818;stroke-width:0.5;" width="90.249" x="1879.5" y="223"/><ellipse cx="1894.5" cy="239" fill="#ADD1B2" rx="11" ry="11" style="stroke:#181818;stroke-width:1;"/><path d="M1897.4688,244.6406 Q1896.8906,244.9375 1896.25,245.0781 Q1895.6094,245.2344 1894.9063,245.2344 Q1892.4063,245.2344 1891.0781,243.5938 Q1889.7656,241.9375 1889.7656,238.8125 Q1889.7656,235.6875 1891.0781,234.0313 Q1892.4063,232.375 1894.9063,232.375 Q1895.6094,232.375 1896.25,232.5313 Q1896.9063,232.6875 1897.4688,232.9844 L1897.4688,235.7031 Q1896.8438,235.125 1896.25,234.8594 Q1895.6563,234.5781 1895.0313,234.5781 Q1893.6875,234.5781 1893,235.6563 Q1892.3125,236.7188 1892.3125,238.8125 Q1892.3125,240.9063 1893,241.9844 Q1893.6875,243.0469 1895.0313,243.0469 Q1895.6563,243.0469 1896.25,242.7813 Q1896.8438,242.5 1897.4688,241.9219 L1897.4688,244.6406 Z " fill="#000000"/><text fill="#000000" font-family="sans-serif" font-size="14" lengthAdjust="spacing" textLength="58.249" x="1908.5" y="243.8467">Sampler</text><line style="stroke:#181818;stroke-width:0.5;" x1="1880.5" x2="1968.749" y1="255" y2="255"/><line style="stroke:#181818;stroke-width:0.5;" x1="1880.5" x2="1968.749" y1="263" y2="263"/></g><!--class Actuator--><g class="entity" data-qualified-name="Actuator" data-source-line="11" id="ent0026"><rect fill="#F1F1F1" height="48" rx="2.5" ry="2.5" style="stroke:#181818;stroke-width:0.5;" width="92.0264" x="2004.5" y="223"/><ellipse cx="2019.5" cy="239" fill="#ADD1B2" rx="11" ry="11" style="stroke:#181818;stroke-width:1;"/><path d="M2022.4688,244.6406 Q2021.8906,244.9375 2021.25,245.0781 Q2020.6094,245.2344 2019.9063,245.2344 Q2017.4063,245.2344 2016.0781,243.5938 Q2014.7656,241.9375 2014.7656,238.8125 Q2014.7656,235.6875 2016.0781,234.0313 Q2017.4063,232.375 2019.9063,232.375 Q2020.6094,232.375 2021.25,232.5313 Q2021.9063,232.6875 2022.4688,232.9844 L2022.4688,235.7031 Q2021.8438,235.125 2021.25,234.8594 Q2020.6563,234.5781 2020.0313,234.5781 Q2018.6875,234.5781 2018,235.6563 Q2017.3125,236.7188 2017.3125,238.8125 Q2017.3125,240.9063 2018,241.9844 Q2018.6875,243.0469 2020.0313,243.0469 Q2020.6563,243.0469 2021.25,242.7813 Q2021.8438,242.5 2022.4688,241.9219 L2022.4688,244.6406 Z " fill="#000000"/><text fill="#000000" font-family="sans-serif" font-size="14" lengthAdjust="spacing" textLength="60.0264" x="2033.5" y="243.8467">Actuator</text><line style="stroke:#181818;stroke-width:0.5;" x1="2005.5" x2="2095.5264" y1="255" y2="255"/><line style="stroke:#181818;stroke-width:0.5;" x1="2005.5" x2="2095.5264" y1="263" y2="263"/></g><!--class ExecutionCollection--><g class="entity" data-qualified-name="ExecutionCollection" data-source-line="12" id="ent0028"><rect fill="#F1F1F1" height="48" rx="2.5" ry="2.5" style="stroke:#181818;stroke-width:0.5;" width="170.3799" x="2328.5" y="7"/><ellipse cx="2343.5" cy="23" fill="#ADD1B2" rx="11" ry="11" style="stroke:#181818;stroke-width:1;"/><path d="M2346.4688,28.6406 Q2345.8906,28.9375 2345.25,29.0781 Q2344.6094,29.2344 2343.9063,29.2344 Q2341.4063,29.2344 2340.0781,27.5938 Q2338.7656,25.9375 2338.7656,22.8125 Q2338.7656,19.6875 2340.0781,18.0313 Q2341.4063,16.375 2343.9063,16.375 Q2344.6094,16.375 2345.25,16.5313 Q2345.9063,16.6875 2346.4688,16.9844 L2346.4688,19.7031 Q2345.8438,19.125 2345.25,18.8594 Q2344.6563,18.5781 2344.0313,18.5781 Q2342.6875,18.5781 2342,19.6563 Q2341.3125,20.7188 2341.3125,22.8125 Q2341.3125,24.9063 2342,25.9844 Q2342.6875,27.0469 2344.0313,27.0469 Q2344.6563,27.0469 2345.25,26.7813 Q2345.8438,26.5 2346.4688,25.9219 L2346.4688,28.6406 Z " fill="#000000"/><text fill="#000000" font-family="sans-serif" font-size="14" lengthAdjust="spacing" textLength="138.3799" x="2357.5" y="27.8467">ExecutionCollection</text><line style="stroke:#181818;stroke-width:0.5;" x1="2329.5" x2="2497.8799" y1="39" y2="39"/><line style="stroke:#181818;stroke-width:0.5;" x1="2329.5" x2="2497.8799" y1="47" y2="47"/></g><!--class SamplingCollection--><g class="entity" data-qualified-name="SamplingCollection" data-source-line="12" id="ent0029"><rect fill="#F1F1F1" height="48" rx="2.5" ry="2.5" style="stroke:#181818;stroke-width:0.5;" width="166.7773" x="2128" y="115"/><ellipse cx="2143" cy="131" fill="#ADD1B2" rx="11" ry="11" style="stroke:#181818;stroke-width:1;"/><path d="M2145.9688,136.6406 Q2145.3906,136.9375 2144.75,137.0781 Q2144.1094,137.2344 2143.4063,137.2344 Q2140.9063,137.2344 2139.5781,135.5938 Q2138.2656,133.9375 2138.2656,130.8125 Q2138.2656,127.6875 2139.5781,126.0313 Q2140.9063,124.375 2143.4063,124.375 Q2144.1094,124.375 2144.75,124.5313 Q2145.4063,124.6875 2145.9688,124.9844 L2145.9688,127.7031 Q2145.3438,127.125 2144.75,126.8594 Q2144.1563,126.5781 2143.5313,126.5781 Q2142.1875,126.5781 2141.5,127.6563 Q2140.8125,128.7188 2140.8125,130.8125 Q2140.8125,132.9063 2141.5,133.9844 Q2142.1875,135.0469 2143.5313,135.0469 Q2144.1563,135.0469 2144.75,134.7813 Q2145.3438,134.5 2145.9688,133.9219 L2145.9688,136.6406 Z " fill="#000000"/><text fill="#000000" font-family="sans-serif" font-size="14" lengthAdjust="spacing" textLength="134.7773" x="2157" y="135.8467">SamplingCollection</text><line style="stroke:#181818;stroke-width:0.5;" x1="2129" x2="2293.7773" y1="147" y2="147"/><line style="stroke:#181818;stroke-width:0.5;" x1="2129" x2="2293.7773" y1="155" y2="155"/></g><!--class Sensor--><g class="entity" data-qualified-name="Sensor" data-source-line="14" id="ent0032"><rect fill="#F1F1F1" height="48" rx="2.5" ry="2.5" style="stroke:#181818;stroke-width:0.5;" width="79.9883" x="2131.5" y="223"/><ellipse cx="2146.5" cy="239" fill="#ADD1B2" rx="11" ry="11" style="stroke:#181818;stroke-width:1;"/><path d="M2149.4688,244.6406 Q2148.8906,244.9375 2148.25,245.0781 Q2147.6094,245.2344 2146.9063,245.2344 Q2144.4063,245.2344 2143.0781,243.5938 Q2141.7656,241.9375 2141.7656,238.8125 Q2141.7656,235.6875 2143.0781,234.0313 Q2144.4063,232.375 2146.9063,232.375 Q2147.6094,232.375 2148.25,232.5313 Q2148.9063,232.6875 2149.4688,232.9844 L2149.4688,235.7031 Q2148.8438,235.125 2148.25,234.8594 Q2147.6563,234.5781 2147.0313,234.5781 Q2145.6875,234.5781 2145,235.6563 Q2144.3125,236.7188 2144.3125,238.8125 Q2144.3125,240.9063 2145,241.9844 Q2145.6875,243.0469 2147.0313,243.0469 Q2147.6563,243.0469 2148.25,242.7813 Q2148.8438,242.5 2149.4688,241.9219 L2149.4688,244.6406 Z " fill="#000000"/><text fill="#000000" font-family="sans-serif" font-size="14" lengthAdjust="spacing" textLength="47.9883" x="2160.5" y="243.8467">Sensor</text><line style="stroke:#181818;stroke-width:0.5;" x1="2132.5" x2="2210.4883" y1="255" y2="255"/><line style="stroke:#181818;stroke-width:0.5;" x1="2132.5" x2="2210.4883" y1="263" y2="263"/></g><!--class Execution--><g class="entity" data-qualified-name="Execution" data-source-line="15" id="ent0034"><rect fill="#F1F1F1" height="48" rx="2.5" ry="2.5" style="stroke:#181818;stroke-width:0.5;" width="101.1318" x="2886" y="7"/><ellipse cx="2901" cy="23" fill="#ADD1B2" rx="11" ry="11" style="stroke:#181818;stroke-width:1;"/><path d="M2903.9688,28.6406 Q2903.3906,28.9375 2902.75,29.0781 Q2902.1094,29.2344 2901.4063,29.2344 Q2898.9063,29.2344 2897.5781,27.5938 Q2896.2656,25.9375 2896.2656,22.8125 Q2896.2656,19.6875 2897.5781,18.0313 Q2898.9063,16.375 2901.4063,16.375 Q2902.1094,16.375 2902.75,16.5313 Q2903.4063,16.6875 2903.9688,16.9844 L2903.9688,19.7031 Q2903.3438,19.125 2902.75,18.8594 Q2902.1563,18.5781 2901.5313,18.5781 Q2900.1875,18.5781 2899.5,19.6563 Q2898.8125,20.7188 2898.8125,22.8125 Q2898.8125,24.9063 2899.5,25.9844 Q2900.1875,27.0469 2901.5313,27.0469 Q2902.1563,27.0469 2902.75,26.7813 Q2903.3438,26.5 2903.9688,25.9219 L2903.9688,28.6406 Z " fill="#000000"/><text fill="#000000" font-family="sans-serif" font-size="14" lengthAdjust="spacing" textLength="69.1318" x="2915" y="27.8467">Execution</text><line style="stroke:#181818;stroke-width:0.5;" x1="2887" x2="2986.1318" y1="39" y2="39"/><line style="stroke:#181818;stroke-width:0.5;" x1="2887" x2="2986.1318" y1="47" y2="47"/></g><!--class Sampling--><g class="entity" data-qualified-name="Sampling" data-source-line="15" id="ent0035"><rect fill="#F1F1F1" height="48" rx="2.5" ry="2.5" style="stroke:#181818;stroke-width:0.5;" width="97.5293" x="2753.5" y="115"/><ellipse cx="2768.5" cy="131" fill="#ADD1B2" rx="11" ry="11" style="stroke:#181818;stroke-width:1;"/><path d="M2771.4688,136.6406 Q2770.8906,136.9375 2770.25,137.0781 Q2769.6094,137.2344 2768.9063,137.2344 Q2766.4063,137.2344 2765.0781,135.5938 Q2763.7656,133.9375 2763.7656,130.8125 Q2763.7656,127.6875 2765.0781,126.0313 Q2766.4063,124.375 2768.9063,124.375 Q2769.6094,124.375 2770.25,124.5313 Q2770.9063,124.6875 2771.4688,124.9844 L2771.4688,127.7031 Q2770.8438,127.125 2770.25,126.8594 Q2769.6563,126.5781 2769.0313,126.5781 Q2767.6875,126.5781 2767,127.6563 Q2766.3125,128.7188 2766.3125,130.8125 Q2766.3125,132.9063 2767,133.9844 Q2767.6875,135.0469 2769.0313,135.0469 Q2769.6563,135.0469 2770.25,134.7813 Q2770.8438,134.5 2771.4688,133.9219 L2771.4688,136.6406 Z " fill="#000000"/><text fill="#000000" font-family="sans-serif" font-size="14" lengthAdjust="spacing" textLength="65.5293" x="2782.5" y="135.8467">Sampling</text><line style="stroke:#181818;stroke-width:0.5;" x1="2754.5" x2="2850.0293" y1="147" y2="147"/><line style="stroke:#181818;stroke-width:0.5;" x1="2754.5" x2="2850.0293" y1="155" y2="155"/></g><!--class Actuation--><g class="entity" data-qualified-name="Actuation" data-source-line="16" id="ent0037"><rect fill="#F1F1F1" height="48" rx="2.5" ry="2.5" style="stroke:#181818;stroke-width:0.5;" width="99.0332" x="2887" y="115"/><ellipse cx="2902" cy="131" fill="#ADD1B2" rx="11" ry="11" style="stroke:#181818;stroke-width:1;"/><path d="M2904.9688,136.6406 Q2904.3906,136.9375 2903.75,137.0781 Q2903.1094,137.2344 2902.4063,137.2344 Q2899.9063,137.2344 2898.5781,135.5938 Q2897.2656,133.9375 2897.2656,130.8125 Q2897.2656,127.6875 2898.5781,126.0313 Q2899.9063,124.375 2902.4063,124.375 Q2903.1094,124.375 2903.75,124.5313 Q2904.4063,124.6875 2904.9688,124.9844 L2904.9688,127.7031 Q2904.3438,127.125 2903.75,126.8594 Q2903.1563,126.5781 2902.5313,126.5781 Q2901.1875,126.5781 2900.5,127.6563 Q2899.8125,128.7188 2899.8125,130.8125 Q2899.8125,132.9063 2900.5,133.9844 Q2901.1875,135.0469 2902.5313,135.0469 Q2903.1563,135.0469 2903.75,134.7813 Q2904.3438,134.5 2904.9688,133.9219 L2904.9688,136.6406 Z " fill="#000000"/><text fill="#000000" font-family="sans-serif" font-size="14" lengthAdjust="spacing" textLength="67.0332" x="2916" y="135.8467">Actuation</text><line style="stroke:#181818;stroke-width:0.5;" x1="2888" x2="2985.0332" y1="147" y2="147"/><line style="stroke:#181818;stroke-width:0.5;" x1="2888" x2="2985.0332" y1="155" y2="155"/></g><!--class ActuationCollection--><g class="entity" data-qualified-name="ActuationCollection" data-source-line="17" id="ent0039"><rect fill="#F1F1F1" height="48" rx="2.5" ry="2.5" style="stroke:#181818;stroke-width:0.5;" width="168.2813" x="2329.5" y="115"/><ellipse cx="2344.5" cy="131" fill="#ADD1B2" rx="11" ry="11" style="stroke:#181818;stroke-width:1;"/><path d="M2347.4688,136.6406 Q2346.8906,136.9375 2346.25,137.0781 Q2345.6094,137.2344 2344.9063,137.2344 Q2342.4063,137.2344 2341.0781,135.5938 Q2339.7656,133.9375 2339.7656,130.8125 Q2339.7656,127.6875 2341.0781,126.0313 Q2342.4063,124.375 2344.9063,124.375 Q2345.6094,124.375 2346.25,124.5313 Q2346.9063,124.6875 2347.4688,124.9844 L2347.4688,127.7031 Q2346.8438,127.125 2346.25,126.8594 Q2345.6563,126.5781 2345.0313,126.5781 Q2343.6875,126.5781 2343,127.6563 Q2342.3125,128.7188 2342.3125,130.8125 Q2342.3125,132.9063 2343,133.9844 Q2343.6875,135.0469 2345.0313,135.0469 Q2345.6563,135.0469 2346.25,134.7813 Q2346.8438,134.5 2347.4688,133.9219 L2347.4688,136.6406 Z " fill="#000000"/><text fill="#000000" font-family="sans-serif" font-size="14" lengthAdjust="spacing" textLength="136.2813" x="2358.5" y="135.8467">ActuationCollection</text><line style="stroke:#181818;stroke-width:0.5;" x1="2330.5" x2="2496.7813" y1="147" y2="147"/><line style="stroke:#181818;stroke-width:0.5;" x1="2330.5" x2="2496.7813" y1="155" y2="155"/></g><!--class ObservationCollection--><g class="entity" data-qualified-name="ObservationCollection" data-source-line="18" id="ent0041"><rect fill="#F1F1F1" height="48" rx="2.5" ry="2.5" style="stroke:#181818;stroke-width:0.5;" width="186.499" x="2532.5" y="115"/><ellipse cx="2547.5" cy="131" fill="#ADD1B2" rx="11" ry="11" style="stroke:#181818;stroke-width:1;"/><path d="M2550.4688,136.6406 Q2549.8906,136.9375 2549.25,137.0781 Q2548.6094,137.2344 2547.9063,137.2344 Q2545.4063,137.2344 2544.0781,135.5938 Q2542.7656,133.9375 2542.7656,130.8125 Q2542.7656,127.6875 2544.0781,126.0313 Q2545.4063,124.375 2547.9063,124.375 Q2548.6094,124.375 2549.25,124.5313 Q2549.9063,124.6875 2550.4688,124.9844 L2550.4688,127.7031 Q2549.8438,127.125 2549.25,126.8594 Q2548.6563,126.5781 2548.0313,126.5781 Q2546.6875,126.5781 2546,127.6563 Q2545.3125,128.7188 2545.3125,130.8125 Q2545.3125,132.9063 2546,133.9844 Q2546.6875,135.0469 2548.0313,135.0469 Q2548.6563,135.0469 2549.25,134.7813 Q2549.8438,134.5 2550.4688,133.9219 L2550.4688,136.6406 Z " fill="#000000"/><text fill="#000000" font-family="sans-serif" font-size="14" lengthAdjust="spacing" textLength="154.499" x="2561.5" y="135.8467">ObservationCollection</text><line style="stroke:#181818;stroke-width:0.5;" x1="2533.5" x2="2717.999" y1="147" y2="147"/><line style="stroke:#181818;stroke-width:0.5;" x1="2533.5" x2="2717.999" y1="155" y2="155"/></g><!--class Observation--><g class="entity" data-qualified-name="Observation" data-source-line="19" id="ent0043"><rect fill="#F1F1F1" height="48" rx="2.5" ry="2.5" style="stroke:#181818;stroke-width:0.5;" width="117.251" x="3021" y="115"/><ellipse cx="3036" cy="131" fill="#ADD1B2" rx="11" ry="11" style="stroke:#181818;stroke-width:1;"/><path d="M3038.9688,136.6406 Q3038.3906,136.9375 3037.75,137.0781 Q3037.1094,137.2344 3036.4063,137.2344 Q3033.9063,137.2344 3032.5781,135.5938 Q3031.2656,133.9375 3031.2656,130.8125 Q3031.2656,127.6875 3032.5781,126.0313 Q3033.9063,124.375 3036.4063,124.375 Q3037.1094,124.375 3037.75,124.5313 Q3038.4063,124.6875 3038.9688,124.9844 L3038.9688,127.7031 Q3038.3438,127.125 3037.75,126.8594 Q3037.1563,126.5781 3036.5313,126.5781 Q3035.1875,126.5781 3034.5,127.6563 Q3033.8125,128.7188 3033.8125,130.8125 Q3033.8125,132.9063 3034.5,133.9844 Q3035.1875,135.0469 3036.5313,135.0469 Q3037.1563,135.0469 3037.75,134.7813 Q3038.3438,134.5 3038.9688,133.9219 L3038.9688,136.6406 Z " fill="#000000"/><text fill="#000000" font-family="sans-serif" font-size="14" lengthAdjust="spacing" textLength="85.251" x="3050" y="135.8467">Observation</text><line style="stroke:#181818;stroke-width:0.5;" x1="3022" x2="3137.251" y1="147" y2="147"/><line style="stroke:#181818;stroke-width:0.5;" x1="3022" x2="3137.251" y1="155" y2="155"/></g><!--class Stimulus--><g class="entity" data-qualified-name="Stimulus" data-source-line="20" id="ent0045"><rect fill="#F1F1F1" height="48" rx="2.5" ry="2.5" style="stroke:#181818;stroke-width:0.5;" width="92.833" x="7" y="7"/><ellipse cx="22" cy="23" fill="#ADD1B2" rx="11" ry="11" style="stroke:#181818;stroke-width:1;"/><path d="M24.9688,28.6406 Q24.3906,28.9375 23.75,29.0781 Q23.1094,29.2344 22.4063,29.2344 Q19.9063,29.2344 18.5781,27.5938 Q17.2656,25.9375 17.2656,22.8125 Q17.2656,19.6875 18.5781,18.0313 Q19.9063,16.375 22.4063,16.375 Q23.1094,16.375 23.75,16.5313 Q24.4063,16.6875 24.9688,16.9844 L24.9688,19.7031 Q24.3438,19.125 23.75,18.8594 Q23.1563,18.5781 22.5313,18.5781 Q21.1875,18.5781 20.5,19.6563 Q19.8125,20.7188 19.8125,22.8125 Q19.8125,24.9063 20.5,25.9844 Q21.1875,27.0469 22.5313,27.0469 Q23.1563,27.0469 23.75,26.7813 Q24.3438,26.5 24.9688,25.9219 L24.9688,28.6406 Z " fill="#000000"/><text fill="#000000" font-family="sans-serif" font-size="14" lengthAdjust="spacing" textLength="60.833" x="36" y="27.8467">Stimulus</text><line style="stroke:#181818;stroke-width:0.5;" x1="8" x2="98.833" y1="39" y2="39"/><line style="stroke:#181818;stroke-width:0.5;" x1="8" x2="98.833" y1="47" y2="47"/></g><!--class Deployment--><g class="entity" data-qualified-name="Deployment" data-source-line="21" id="ent0046"><rect fill="#F1F1F1" height="48" rx="2.5" ry="2.5" style="stroke:#181818;stroke-width:0.5;" width="117.6338" x="135.5" y="7"/><ellipse cx="150.5" cy="23" fill="#ADD1B2" rx="11" ry="11" style="stroke:#181818;stroke-width:1;"/><path d="M153.4688,28.6406 Q152.8906,28.9375 152.25,29.0781 Q151.6094,29.2344 150.9063,29.2344 Q148.4063,29.2344 147.0781,27.5938 Q145.7656,25.9375 145.7656,22.8125 Q145.7656,19.6875 147.0781,18.0313 Q148.4063,16.375 150.9063,16.375 Q151.6094,16.375 152.25,16.5313 Q152.9063,16.6875 153.4688,16.9844 L153.4688,19.7031 Q152.8438,19.125 152.25,18.8594 Q151.6563,18.5781 151.0313,18.5781 Q149.6875,18.5781 149,19.6563 Q148.3125,20.7188 148.3125,22.8125 Q148.3125,24.9063 149,25.9844 Q149.6875,27.0469 151.0313,27.0469 Q151.6563,27.0469 152.25,26.7813 Q152.8438,26.5 153.4688,25.9219 L153.4688,28.6406 Z " fill="#000000"/><text fill="#000000" font-family="sans-serif" font-size="14" lengthAdjust="spacing" textLength="85.6338" x="164.5" y="27.8467">Deployment</text><line style="stroke:#181818;stroke-width:0.5;" x1="136.5" x2="252.1338" y1="39" y2="39"/><line style="stroke:#181818;stroke-width:0.5;" x1="136.5" x2="252.1338" y1="47" y2="47"/></g><!--class SampleCollection--><g class="entity" data-qualified-name="SampleCollection" data-source-line="22" id="ent0047"><rect fill="#F1F1F1" height="48" rx="2.5" ry="2.5" style="stroke:#181818;stroke-width:0.5;" width="153.7412" x="288.5" y="7"/><ellipse cx="303.5" cy="23" fill="#ADD1B2" rx="11" ry="11" style="stroke:#181818;stroke-width:1;"/><path d="M306.4688,28.6406 Q305.8906,28.9375 305.25,29.0781 Q304.6094,29.2344 303.9063,29.2344 Q301.4063,29.2344 300.0781,27.5938 Q298.7656,25.9375 298.7656,22.8125 Q298.7656,19.6875 300.0781,18.0313 Q301.4063,16.375 303.9063,16.375 Q304.6094,16.375 305.25,16.5313 Q305.9063,16.6875 306.4688,16.9844 L306.4688,19.7031 Q305.8438,19.125 305.25,18.8594 Q304.6563,18.5781 304.0313,18.5781 Q302.6875,18.5781 302,19.6563 Q301.3125,20.7188 301.3125,22.8125 Q301.3125,24.9063 302,25.9844 Q302.6875,27.0469 304.0313,27.0469 Q304.6563,27.0469 305.25,26.7813 Q305.8438,26.5 306.4688,25.9219 L306.4688,28.6406 Z " fill="#000000"/><text fill="#000000" font-family="sans-serif" font-size="14" lengthAdjust="spacing" textLength="121.7412" x="317.5" y="27.8467">SampleCollection</text><line style="stroke:#181818;stroke-width:0.5;" x1="289.5" x2="441.2412" y1="39" y2="39"/><line style="stroke:#181818;stroke-width:0.5;" x1="289.5" x2="441.2412" y1="47" y2="47"/></g><!--class Result--><g class="entity" data-qualified-name="Result" data-source-line="23" id="ent0048"><rect fill="#F1F1F1" height="48" rx="2.5" ry="2.5" style="stroke:#181818;stroke-width:0.5;" width="75.8867" x="15.5" y="115"/><ellipse cx="30.5" cy="131" fill="#ADD1B2" rx="11" ry="11" style="stroke:#181818;stroke-width:1;"/><path d="M33.4688,136.6406 Q32.8906,136.9375 32.25,137.0781 Q31.6094,137.2344 30.9063,137.2344 Q28.4063,137.2344 27.0781,135.5938 Q25.7656,133.9375 25.7656,130.8125 Q25.7656,127.6875 27.0781,126.0313 Q28.4063,124.375 30.9063,124.375 Q31.6094,124.375 32.25,124.5313 Q32.9063,124.6875 33.4688,124.9844 L33.4688,127.7031 Q32.8438,127.125 32.25,126.8594 Q31.6563,126.5781 31.0313,126.5781 Q29.6875,126.5781 29,127.6563 Q28.3125,128.7188 28.3125,130.8125 Q28.3125,132.9063 29,133.9844 Q29.6875,135.0469 31.0313,135.0469 Q31.6563,135.0469 32.25,134.7813 Q32.8438,134.5 33.4688,133.9219 L33.4688,136.6406 Z " fill="#000000"/><text fill="#000000" font-family="sans-serif" font-size="14" lengthAdjust="spacing" textLength="43.8867" x="44.5" y="135.8467">Result</text><line style="stroke:#181818;stroke-width:0.5;" x1="16.5" x2="90.3867" y1="147" y2="147"/><line style="stroke:#181818;stroke-width:0.5;" x1="16.5" x2="90.3867" y1="155" y2="155"/></g><!--class FeatureOfInterest--><g class="entity" data-qualified-name="FeatureOfInterest" data-source-line="24" id="ent0049"><rect fill="#F1F1F1" height="48" rx="2.5" ry="2.5" style="stroke:#181818;stroke-width:0.5;" width="156.1816" x="126.5" y="115"/><ellipse cx="141.5" cy="131" fill="#ADD1B2" rx="11" ry="11" style="stroke:#181818;stroke-width:1;"/><path d="M144.4688,136.6406 Q143.8906,136.9375 143.25,137.0781 Q142.6094,137.2344 141.9063,137.2344 Q139.4063,137.2344 138.0781,135.5938 Q136.7656,133.9375 136.7656,130.8125 Q136.7656,127.6875 138.0781,126.0313 Q139.4063,124.375 141.9063,124.375 Q142.6094,124.375 143.25,124.5313 Q143.9063,124.6875 144.4688,124.9844 L144.4688,127.7031 Q143.8438,127.125 143.25,126.8594 Q142.6563,126.5781 142.0313,126.5781 Q140.6875,126.5781 140,127.6563 Q139.3125,128.7188 139.3125,130.8125 Q139.3125,132.9063 140,133.9844 Q140.6875,135.0469 142.0313,135.0469 Q142.6563,135.0469 143.25,134.7813 Q143.8438,134.5 144.4688,133.9219 L144.4688,136.6406 Z " fill="#000000"/><text fill="#000000" font-family="sans-serif" font-size="14" lengthAdjust="spacing" textLength="124.1816" x="155.5" y="135.8467">FeatureOfInterest</text><line style="stroke:#181818;stroke-width:0.5;" x1="127.5" x2="281.6816" y1="147" y2="147"/><line style="stroke:#181818;stroke-width:0.5;" x1="127.5" x2="281.6816" y1="155" y2="155"/></g><!--reverse link Property to ActuatableProperty--><g class="link" data-entity-1="ent0001" data-entity-2="ent0002" data-link-type="extension" data-source-line="1" id="lnk3"><path codeLine="1" d="M514.7937,64.7723 C487.3837,82.4923 464.77,97.11 437.3,114.86" fill="none" id="Property-backto-ActuatableProperty" style="stroke:#181818;stroke-width:1;"/><polygon fill="none" points="529.91,55,511.5363,59.7336,518.0512,69.8111,529.91,55" style="stroke:#181818;stroke-width:1;stroke-linejoin:miter;stroke-miterlimit:10;"/></g><!--reverse link Sample to MaterialSample--><g class="link" data-entity-1="ent0004" data-entity-2="ent0005" data-link-type="extension" data-source-line="2" id="lnk6"><path codeLine="2" d="M917.8567,64.4445 C889.1067,82.1645 864.85,97.11 836.05,114.86" fill="none" id="Sample-backto-MaterialSample" style="stroke:#181818;stroke-width:1;"/><polygon fill="none" points="933.18,55,914.7086,59.3367,921.0049,69.5522,933.18,55" style="stroke:#181818;stroke-width:1;stroke-linejoin:miter;stroke-miterlimit:10;"/></g><!--reverse link Property to ObservableProperty--><g class="link" data-entity-1="ent0001" data-entity-2="ent0007" data-link-type="extension" data-source-line="3" id="lnk8"><path codeLine="3" d="M580.8928,71.7882 C587.7228,89.4482 590.62,96.94 597.48,114.68" fill="none" id="Property-backto-ObservableProperty" style="stroke:#181818;stroke-width:1;"/><polygon fill="none" points="574.4,55,575.2968,73.9525,586.4889,69.6239,574.4,55" style="stroke:#181818;stroke-width:1;stroke-linejoin:miter;stroke-miterlimit:10;"/></g><!--reverse link Sample to SpatialSample--><g class="link" data-entity-1="ent0004" data-entity-2="ent0009" data-link-type="extension" data-source-line="4" id="lnk10"><path codeLine="4" d="M970.5,73 C970.5,90.66 970.5,96.94 970.5,114.68" fill="none" id="Sample-backto-SpatialSample" style="stroke:#181818;stroke-width:1;"/><polygon fill="none" points="970.5,55,964.5,73,976.5,73,970.5,55" style="stroke:#181818;stroke-width:1;stroke-linejoin:miter;stroke-miterlimit:10;"/></g><!--reverse link Sample to StatisticalSample--><g class="link" data-entity-1="ent0004" data-entity-2="ent0011" data-link-type="extension" data-source-line="5" id="lnk12"><path codeLine="5" d="M1024.8276,64.1725 C1054.7476,81.8925 1080.45,97.11 1110.43,114.86" fill="none" id="Sample-backto-StatisticalSample" style="stroke:#181818;stroke-width:1;"/><polygon fill="none" points="1009.34,55,1021.7701,69.335,1027.8851,59.0099,1009.34,55" style="stroke:#181818;stroke-width:1;stroke-linejoin:miter;stroke-miterlimit:10;"/></g><!--reverse link Procedure to ActuatingProcedure--><g class="link" data-entity-1="ent0013" data-entity-2="ent0014" data-link-type="extension" data-source-line="6" id="lnk15"><path codeLine="6" d="M1494.3326,63.1732 C1459.5626,80.8932 1427.74,97.11 1392.9,114.86" fill="none" id="Procedure-backto-ActuatingProcedure" style="stroke:#181818;stroke-width:1;"/><polygon fill="none" points="1510.37,55,1491.6082,57.8274,1497.057,68.519,1510.37,55" style="stroke:#181818;stroke-width:1;stroke-linejoin:miter;stroke-miterlimit:10;"/></g><!--reverse link Procedure to ObservingProcedure--><g class="link" data-entity-1="ent0013" data-entity-2="ent0016" data-link-type="extension" data-source-line="7" id="lnk17"><path codeLine="7" d="M1555.5,73 C1555.5,90.66 1555.5,96.94 1555.5,114.68" fill="none" id="Procedure-backto-ObservingProcedure" style="stroke:#181818;stroke-width:1;"/><polygon fill="none" points="1555.5,55,1549.5,73,1561.5,73,1555.5,55" style="stroke:#181818;stroke-width:1;stroke-linejoin:miter;stroke-miterlimit:10;"/></g><!--reverse link Procedure to SamplingProcedure--><g class="link" data-entity-1="ent0013" data-entity-2="ent0018" data-link-type="extension" data-source-line="8" id="lnk19"><path codeLine="8" d="M1616.4411,63.205 C1651.0411,80.925 1682.65,97.11 1717.31,114.86" fill="none" id="Procedure-backto-SamplingProcedure" style="stroke:#181818;stroke-width:1;"/><polygon fill="none" points="1600.42,55,1613.7061,68.5454,1619.1762,57.8647,1600.42,55" style="stroke:#181818;stroke-width:1;stroke-linejoin:miter;stroke-miterlimit:10;"/></g><!--reverse link Asset to Platform--><g class="link" data-entity-1="ent0020" data-entity-2="ent0021" data-link-type="extension" data-source-line="9" id="lnk22"><path codeLine="9" d="M1966.2839,70.6022 C1956.1239,88.2622 1951.13,96.94 1940.92,114.68" fill="none" id="Asset-backto-Platform" style="stroke:#181818;stroke-width:1;"/><polygon fill="none" points="1975.26,55,1961.0831,67.6102,1971.4846,73.5943,1975.26,55" style="stroke:#181818;stroke-width:1;stroke-linejoin:miter;stroke-miterlimit:10;"/></g><!--reverse link System to Sampler--><g class="link" data-entity-1="ent0023" data-entity-2="ent0024" data-link-type="extension" data-source-line="10" id="lnk25"><path codeLine="10" d="M2009.3865,174.5884 C1988.3965,192.2484 1973.31,204.94 1952.22,222.68" fill="none" id="System-backto-Sampler" style="stroke:#181818;stroke-width:1;"/><polygon fill="none" points="2023.16,163,2005.5237,169.9972,2013.2493,179.1795,2023.16,163" style="stroke:#181818;stroke-width:1;stroke-linejoin:miter;stroke-miterlimit:10;"/></g><!--reverse link System to Actuator--><g class="link" data-entity-1="ent0023" data-entity-2="ent0026" data-link-type="extension" data-source-line="11" id="lnk27"><path codeLine="11" d="M2050.5,181 C2050.5,198.66 2050.5,204.94 2050.5,222.68" fill="none" id="System-backto-Actuator" style="stroke:#181818;stroke-width:1;"/><polygon fill="none" points="2050.5,163,2044.5,181,2056.5,181,2050.5,163" style="stroke:#181818;stroke-width:1;stroke-linejoin:miter;stroke-miterlimit:10;"/></g><!--reverse link ExecutionCollection to SamplingCollection--><g class="link" data-entity-1="ent0028" data-entity-2="ent0029" data-link-type="extension" data-source-line="12" id="lnk30"><path codeLine="12" d="M2353.731,63.3636 C2319.961,81.0836 2289.43,97.11 2255.59,114.86" fill="none" id="ExecutionCollection-backto-SamplingCollection" style="stroke:#181818;stroke-width:1;"/><polygon fill="none" points="2369.67,55,2350.9432,58.0506,2356.5189,68.6766,2369.67,55" style="stroke:#181818;stroke-width:1;stroke-linejoin:miter;stroke-miterlimit:10;"/></g><!--reverse link Asset to System--><g class="link" data-entity-1="ent0020" data-entity-2="ent0023" data-link-type="extension" data-source-line="13" id="lnk31"><path codeLine="13" d="M2011.0383,70.5372 C2021.3683,88.1972 2026.48,96.94 2036.86,114.68" fill="none" id="Asset-backto-System" style="stroke:#181818;stroke-width:1;"/><polygon fill="none" points="2001.95,55,2005.8592,73.5666,2016.2173,67.5077,2001.95,55" style="stroke:#181818;stroke-width:1;stroke-linejoin:miter;stroke-miterlimit:10;"/></g><!--reverse link System to Sensor--><g class="link" data-entity-1="ent0023" data-entity-2="ent0032" data-link-type="extension" data-source-line="14" id="lnk33"><path codeLine="14" d="M2090.2968,174.864 C2110.4468,192.524 2124.63,204.94 2144.88,222.68" fill="none" id="System-backto-Sensor" style="stroke:#181818;stroke-width:1;"/><polygon fill="none" points="2076.76,163,2086.3421,179.3763,2094.2515,170.3518,2076.76,163" style="stroke:#181818;stroke-width:1;stroke-linejoin:miter;stroke-miterlimit:10;"/></g><!--reverse link Execution to Sampling--><g class="link" data-entity-1="ent0034" data-entity-2="ent0035" data-link-type="extension" data-source-line="15" id="lnk36"><path codeLine="15" d="M2893.3041,66.1688 C2870.9841,83.8288 2854.41,96.94 2831.98,114.68" fill="none" id="Execution-backto-Sampling" style="stroke:#181818;stroke-width:1;"/><polygon fill="none" points="2907.42,55,2889.5812,61.4635,2897.027,70.8741,2907.42,55" style="stroke:#181818;stroke-width:1;stroke-linejoin:miter;stroke-miterlimit:10;"/></g><!--reverse link Execution to Actuation--><g class="link" data-entity-1="ent0034" data-entity-2="ent0037" data-link-type="extension" data-source-line="16" id="lnk38"><path codeLine="16" d="M2936.5,73 C2936.5,90.66 2936.5,96.94 2936.5,114.68" fill="none" id="Execution-backto-Actuation" style="stroke:#181818;stroke-width:1;"/><polygon fill="none" points="2936.5,55,2930.5,73,2942.5,73,2936.5,55" style="stroke:#181818;stroke-width:1;stroke-linejoin:miter;stroke-miterlimit:10;"/></g><!--reverse link ExecutionCollection to ActuationCollection--><g class="link" data-entity-1="ent0028" data-entity-2="ent0039" data-link-type="extension" data-source-line="17" id="lnk40"><path codeLine="17" d="M2413.5,73 C2413.5,90.66 2413.5,96.94 2413.5,114.68" fill="none" id="ExecutionCollection-backto-ActuationCollection" style="stroke:#181818;stroke-width:1;"/><polygon fill="none" points="2413.5,55,2407.5,73,2419.5,73,2413.5,55" style="stroke:#181818;stroke-width:1;stroke-linejoin:miter;stroke-miterlimit:10;"/></g><!--reverse link ExecutionCollection to ObservationCollection--><g class="link" data-entity-1="ent0028" data-entity-2="ent0041" data-link-type="extension" data-source-line="18" id="lnk42"><path codeLine="18" d="M2475.5997,63.0498 C2511.0397,80.7698 2543.72,97.11 2579.22,114.86" fill="none" id="ExecutionCollection-backto-ObservationCollection" style="stroke:#181818;stroke-width:1;"/><polygon fill="none" points="2459.5,55,2472.9164,68.4164,2478.283,57.6833,2459.5,55" style="stroke:#181818;stroke-width:1;stroke-linejoin:miter;stroke-miterlimit:10;"/></g><!--reverse link Execution to Observation--><g class="link" data-entity-1="ent0034" data-entity-2="ent0043" data-link-type="extension" data-source-line="19" id="lnk44"><path codeLine="19" d="M2981.9895,65.7202 C3005.8095,83.3802 3024.11,96.94 3048.04,114.68" fill="none" id="Execution-backto-Observation" style="stroke:#181818;stroke-width:1;"/><polygon fill="none" points="2967.53,55,2978.4161,70.54,2985.5629,60.9004,2967.53,55" style="stroke:#181818;stroke-width:1;stroke-linejoin:miter;stroke-miterlimit:10;"/></g><?plantuml-src VL9RRWCX4Fld5Bb0Rj2Vg0-f7rLMtHDCg5CX3R1YXgWhzV2bOPD0gkqVs1xROXXId91qtZnyRxURdTLCIWV6iE1c93ynAlr6YkI8AsQ6RdP_4AJJwkmuaTv6EqOB8-fiQspnaHFQLYvyNl5xHSt-Jt5sxWGx4MWb1oOznkJDE8l2DnD87LQRn6IUls2pkXWU8pFixwdFkU5jKFNgOn2aDUnjxl7bAOhhQeEhfAcmAbwMjYR_8pAMIQIipFdCMPRh4oQEiqVG2tz-kyQnmk-Gp1VD2qZB7lR7rr1-5KH_0000?></g></svg>