<svg xmlns="http://www.w3.org/2000/svg" xmlns:xlink="http://www.w3.org/1999/xlink" contentStyleType="text/css" data-diagram-type="CLASS" height="286px" preserveAspectRatio="none" style="width:3277px;height:286px;background:#FFFFFF;" version="1.1" viewBox="0 0 3277 286" width="3277px" zoomAndPan="magnify"><?plantuml 1.2026.3?><defs/><g><!--class Property--><g class="entity" data-qualified-name="Property" data-source-line="1" id="ent0002"><rect fill="#F1F1F1" height="48" rx="2.5" ry="2.5" style="stroke:#181818;stroke-width:0.5;" width="91.7939" x="582" y="7"/><ellipse cx="597" cy="23" fill="#ADD1B2" rx="11" ry="11" style="stroke:#181818;stroke-width:1;"/><path d="M599.9688,28.6406 Q599.3906,28.9375 598.75,29.0781 Q598.1094,29.2344 597.4063,29.2344 Q594.9063,29.2344 593.5781,27.5938 Q592.2656,25.9375 592.2656,22.8125 Q592.2656,19.6875 593.5781,18.0313 Q594.9063,16.375 597.4063,16.375 Q598.1094,16.375 598.75,16.5313 Q599.4063,16.6875 599.9688,16.9844 L599.9688,19.7031 Q599.3438,19.125 598.75,18.8594 Q598.1563,18.5781 597.5313,18.5781 Q596.1875,18.5781 595.5,19.6563 Q594.8125,20.7188 594.8125,22.8125 Q594.8125,24.9063 595.5,25.9844 Q596.1875,27.0469 597.5313,27.0469 Q598.1563,27.0469 598.75,26.7813 Q599.3438,26.5 599.9688,25.9219 L599.9688,28.6406 Z " fill="#000000"/><text fill="#000000" font-family="sans-serif" font-size="14" lengthAdjust="spacing" textLength="59.7939" x="611" y="27.8467">Property</text><line style="stroke:#181818;stroke-width:0.5;" x1="583" x2="672.7939" y1="39" y2="39"/><line style="stroke:#181818;stroke-width:0.5;" x1="583" x2="672.7939" y1="47" y2="47"/></g><!--class ActuatableProperty--><g class="entity" data-qualified-name="ActuatableProperty" data-source-line="1" id="ent0003"><rect fill="#F1F1F1" height="48" rx="2.5" ry="2.5" style="stroke:#181818;stroke-width:0.5;" width="167.4678" x="442.5" y="115"/><ellipse cx="457.5" cy="131" fill="#ADD1B2" rx="11" ry="11" style="stroke:#181818;stroke-width:1;"/><path d="M460.4688,136.6406 Q459.8906,136.9375 459.25,137.0781 Q458.6094,137.2344 457.9063,137.2344 Q455.4063,137.2344 454.0781,135.5938 Q452.7656,133.9375 452.7656,130.8125 Q452.7656,127.6875 454.0781,126.0313 Q455.4063,124.375 457.9063,124.375 Q458.6094,124.375 459.25,124.5313 Q459.9063,124.6875 460.4688,124.9844 L460.4688,127.7031 Q459.8438,127.125 459.25,126.8594 Q458.6563,126.5781 458.0313,126.5781 Q456.6875,126.5781 456,127.6563 Q455.3125,128.7188 455.3125,130.8125 Q455.3125,132.9063 456,133.9844 Q456.6875,135.0469 458.0313,135.0469 Q458.6563,135.0469 459.25,134.7813 Q459.8438,134.5 460.4688,133.9219 L460.4688,136.6406 Z " fill="#000000"/><text fill="#000000" font-family="sans-serif" font-size="14" lengthAdjust="spacing" textLength="135.4678" x="471.5" y="135.8467">ActuatableProperty</text><line style="stroke:#181818;stroke-width:0.5;" x1="443.5" x2="608.9678" y1="147" y2="147"/><line style="stroke:#181818;stroke-width:0.5;" x1="443.5" x2="608.9678" y1="155" y2="155"/></g><!--class Sample--><g class="entity" data-qualified-name="Sample" data-source-line="2" id="ent0005"><rect fill="#F1F1F1" height="48" rx="2.5" ry="2.5" style="stroke:#181818;stroke-width:0.5;" width="84.4932" x="1053" y="7"/><ellipse cx="1068" cy="23" fill="#ADD1B2" rx="11" ry="11" style="stroke:#181818;stroke-width:1;"/><path d="M1070.9688,28.6406 Q1070.3906,28.9375 1069.75,29.0781 Q1069.1094,29.2344 1068.4063,29.2344 Q1065.9063,29.2344 1064.5781,27.5938 Q1063.2656,25.9375 1063.2656,22.8125 Q1063.2656,19.6875 1064.5781,18.0313 Q1065.9063,16.375 1068.4063,16.375 Q1069.1094,16.375 1069.75,16.5313 Q1070.4063,16.6875 1070.9688,16.9844 L1070.9688,19.7031 Q1070.3438,19.125 1069.75,18.8594 Q1069.1563,18.5781 1068.5313,18.5781 Q1067.1875,18.5781 1066.5,19.6563 Q1065.8125,20.7188 1065.8125,22.8125 Q1065.8125,24.9063 1066.5,25.9844 Q1067.1875,27.0469 1068.5313,27.0469 Q1069.1563,27.0469 1069.75,26.7813 Q1070.3438,26.5 1070.9688,25.9219 L1070.9688,28.6406 Z " fill="#000000"/><text fill="#000000" font-family="sans-serif" font-size="14" lengthAdjust="spacing" textLength="52.4932" x="1082" y="27.8467">Sample</text><line style="stroke:#181818;stroke-width:0.5;" x1="1054" x2="1136.4932" y1="39" y2="39"/><line style="stroke:#181818;stroke-width:0.5;" x1="1054" x2="1136.4932" y1="47" y2="47"/></g><!--class MaterialSample--><g class="entity" data-qualified-name="MaterialSample" data-source-line="2" id="ent0006"><rect fill="#F1F1F1" height="48" rx="2.5" ry="2.5" style="stroke:#181818;stroke-width:0.5;" width="141.3682" x="852.5" y="115"/><ellipse cx="867.5" cy="131" fill="#ADD1B2" rx="11" ry="11" style="stroke:#181818;stroke-width:1;"/><path d="M870.4688,136.6406 Q869.8906,136.9375 869.25,137.0781 Q868.6094,137.2344 867.9063,137.2344 Q865.4063,137.2344 864.0781,135.5938 Q862.7656,133.9375 862.7656,130.8125 Q862.7656,127.6875 864.0781,126.0313 Q865.4063,124.375 867.9063,124.375 Q868.6094,124.375 869.25,124.5313 Q869.9063,124.6875 870.4688,124.9844 L870.4688,127.7031 Q869.8438,127.125 869.25,126.8594 Q868.6563,126.5781 868.0313,126.5781 Q866.6875,126.5781 866,127.6563 Q865.3125,128.7188 865.3125,130.8125 Q865.3125,132.9063 866,133.9844 Q866.6875,135.0469 868.0313,135.0469 Q868.6563,135.0469 869.25,134.7813 Q869.8438,134.5 870.4688,133.9219 L870.4688,136.6406 Z " fill="#000000"/><text fill="#000000" font-family="sans-serif" font-size="14" lengthAdjust="spacing" textLength="109.3682" x="881.5" y="135.8467">MaterialSample</text><line style="stroke:#181818;stroke-width:0.5;" x1="853.5" x2="992.8682" y1="147" y2="147"/><line style="stroke:#181818;stroke-width:0.5;" x1="853.5" x2="992.8682" y1="155" y2="155"/></g><!--class SpatialSample--><g class="entity" data-qualified-name="SpatialSample" data-source-line="3" id="ent0008"><rect fill="#F1F1F1" height="48" rx="2.5" ry="2.5" style="stroke:#181818;stroke-width:0.5;" width="132.6934" x="1028.5" y="115"/><ellipse cx="1043.5" cy="131" fill="#ADD1B2" rx="11" ry="11" style="stroke:#181818;stroke-width:1;"/><path d="M1046.4688,136.6406 Q1045.8906,136.9375 1045.25,137.0781 Q1044.6094,137.2344 1043.9063,137.2344 Q1041.4063,137.2344 1040.0781,135.5938 Q1038.7656,133.9375 1038.7656,130.8125 Q1038.7656,127.6875 1040.0781,126.0313 Q1041.4063,124.375 1043.9063,124.375 Q1044.6094,124.375 1045.25,124.5313 Q1045.9063,124.6875 1046.4688,124.9844 L1046.4688,127.7031 Q1045.8438,127.125 1045.25,126.8594 Q1044.6563,126.5781 1044.0313,126.5781 Q1042.6875,126.5781 1042,127.6563 Q1041.3125,128.7188 1041.3125,130.8125 Q1041.3125,132.9063 1042,133.9844 Q1042.6875,135.0469 1044.0313,135.0469 Q1044.6563,135.0469 1045.25,134.7813 Q1045.8438,134.5 1046.4688,133.9219 L1046.4688,136.6406 Z " fill="#000000"/><text fill="#000000" font-family="sans-serif" font-size="14" lengthAdjust="spacing" textLength="100.6934" x="1057.5" y="135.8467">SpatialSample</text><line style="stroke:#181818;stroke-width:0.5;" x1="1029.5" x2="1160.1934" y1="147" y2="147"/><line style="stroke:#181818;stroke-width:0.5;" x1="1029.5" x2="1160.1934" y1="155" y2="155"/></g><!--class StatisticalSample--><g class="entity" data-qualified-name="StatisticalSample" data-source-line="4" id="ent0010"><rect fill="#F1F1F1" height="48" rx="2.5" ry="2.5" style="stroke:#181818;stroke-width:0.5;" width="153.666" x="1197" y="115"/><ellipse cx="1212" cy="131" fill="#ADD1B2" rx="11" ry="11" style="stroke:#181818;stroke-width:1;"/><path d="M1214.9688,136.6406 Q1214.3906,136.9375 1213.75,137.0781 Q1213.1094,137.2344 1212.4063,137.2344 Q1209.9063,137.2344 1208.5781,135.5938 Q1207.2656,133.9375 1207.2656,130.8125 Q1207.2656,127.6875 1208.5781,126.0313 Q1209.9063,124.375 1212.4063,124.375 Q1213.1094,124.375 1213.75,124.5313 Q1214.4063,124.6875 1214.9688,124.9844 L1214.9688,127.7031 Q1214.3438,127.125 1213.75,126.8594 Q1213.1563,126.5781 1212.5313,126.5781 Q1211.1875,126.5781 1210.5,127.6563 Q1209.8125,128.7188 1209.8125,130.8125 Q1209.8125,132.9063 1210.5,133.9844 Q1211.1875,135.0469 1212.5313,135.0469 Q1213.1563,135.0469 1213.75,134.7813 Q1214.3438,134.5 1214.9688,133.9219 L1214.9688,136.6406 Z " fill="#000000"/><text fill="#000000" font-family="sans-serif" font-size="14" lengthAdjust="spacing" textLength="121.666" x="1226" y="135.8467">StatisticalSample</text><line style="stroke:#181818;stroke-width:0.5;" x1="1198" x2="1349.666" y1="147" y2="147"/><line style="stroke:#181818;stroke-width:0.5;" x1="1198" x2="1349.666" y1="155" y2="155"/></g><!--class ObservableProperty--><g class="entity" data-qualified-name="ObservableProperty" data-source-line="5" id="ent0012"><rect fill="#F1F1F1" height="48" rx="2.5" ry="2.5" style="stroke:#181818;stroke-width:0.5;" width="171.6172" x="645" y="115"/><ellipse cx="660" cy="131" fill="#ADD1B2" rx="11" ry="11" style="stroke:#181818;stroke-width:1;"/><path d="M662.9688,136.6406 Q662.3906,136.9375 661.75,137.0781 Q661.1094,137.2344 660.4063,137.2344 Q657.9063,137.2344 656.5781,135.5938 Q655.2656,133.9375 655.2656,130.8125 Q655.2656,127.6875 656.5781,126.0313 Q657.9063,124.375 660.4063,124.375 Q661.1094,124.375 661.75,124.5313 Q662.4063,124.6875 662.9688,124.9844 L662.9688,127.7031 Q662.3438,127.125 661.75,126.8594 Q661.1563,126.5781 660.5313,126.5781 Q659.1875,126.5781 658.5,127.6563 Q657.8125,128.7188 657.8125,130.8125 Q657.8125,132.9063 658.5,133.9844 Q659.1875,135.0469 660.5313,135.0469 Q661.1563,135.0469 661.75,134.7813 Q662.3438,134.5 662.9688,133.9219 L662.9688,136.6406 Z " fill="#000000"/><text fill="#000000" font-family="sans-serif" font-size="14" lengthAdjust="spacing" textLength="139.6172" x="674" y="135.8467">ObservableProperty</text><line style="stroke:#181818;stroke-width:0.5;" x1="646" x2="815.6172" y1="147" y2="147"/><line style="stroke:#181818;stroke-width:0.5;" x1="646" x2="815.6172" y1="155" y2="155"/></g><!--class Procedure--><g class="entity" data-qualified-name="Procedure" data-source-line="6" id="ent0014"><rect fill="#F1F1F1" height="48" rx="2.5" ry="2.5" style="stroke:#181818;stroke-width:0.5;" width="103.2031" x="1628.5" y="7"/><ellipse cx="1643.5" cy="23" fill="#ADD1B2" rx="11" ry="11" style="stroke:#181818;stroke-width:1;"/><path d="M1646.4688,28.6406 Q1645.8906,28.9375 1645.25,29.0781 Q1644.6094,29.2344 1643.9063,29.2344 Q1641.4063,29.2344 1640.0781,27.5938 Q1638.7656,25.9375 1638.7656,22.8125 Q1638.7656,19.6875 1640.0781,18.0313 Q1641.4063,16.375 1643.9063,16.375 Q1644.6094,16.375 1645.25,16.5313 Q1645.9063,16.6875 1646.4688,16.9844 L1646.4688,19.7031 Q1645.8438,19.125 1645.25,18.8594 Q1644.6563,18.5781 1644.0313,18.5781 Q1642.6875,18.5781 1642,19.6563 Q1641.3125,20.7188 1641.3125,22.8125 Q1641.3125,24.9063 1642,25.9844 Q1642.6875,27.0469 1644.0313,27.0469 Q1644.6563,27.0469 1645.25,26.7813 Q1645.8438,26.5 1646.4688,25.9219 L1646.4688,28.6406 Z " fill="#000000"/><text fill="#000000" font-family="sans-serif" font-size="14" lengthAdjust="spacing" textLength="71.2031" x="1657.5" y="27.8467">Procedure</text><line style="stroke:#181818;stroke-width:0.5;" x1="1629.5" x2="1730.7031" y1="39" y2="39"/><line style="stroke:#181818;stroke-width:0.5;" x1="1629.5" x2="1730.7031" y1="47" y2="47"/></g><!--class ActuatingProcedure--><g class="entity" data-qualified-name="ActuatingProcedure" data-source-line="6" id="ent0015"><rect fill="#F1F1F1" height="48" rx="2.5" ry="2.5" style="stroke:#181818;stroke-width:0.5;" width="170.5576" x="1386.5" y="115"/><ellipse cx="1401.5" cy="131" fill="#ADD1B2" rx="11" ry="11" style="stroke:#181818;stroke-width:1;"/><path d="M1404.4688,136.6406 Q1403.8906,136.9375 1403.25,137.0781 Q1402.6094,137.2344 1401.9063,137.2344 Q1399.4063,137.2344 1398.0781,135.5938 Q1396.7656,133.9375 1396.7656,130.8125 Q1396.7656,127.6875 1398.0781,126.0313 Q1399.4063,124.375 1401.9063,124.375 Q1402.6094,124.375 1403.25,124.5313 Q1403.9063,124.6875 1404.4688,124.9844 L1404.4688,127.7031 Q1403.8438,127.125 1403.25,126.8594 Q1402.6563,126.5781 1402.0313,126.5781 Q1400.6875,126.5781 1400,127.6563 Q1399.3125,128.7188 1399.3125,130.8125 Q1399.3125,132.9063 1400,133.9844 Q1400.6875,135.0469 1402.0313,135.0469 Q1402.6563,135.0469 1403.25,134.7813 Q1403.8438,134.5 1404.4688,133.9219 L1404.4688,136.6406 Z " fill="#000000"/><text fill="#000000" font-family="sans-serif" font-size="14" lengthAdjust="spacing" textLength="138.5576" x="1415.5" y="135.8467">ActuatingProcedure</text><line style="stroke:#181818;stroke-width:0.5;" x1="1387.5" x2="1556.0576" y1="147" y2="147"/><line style="stroke:#181818;stroke-width:0.5;" x1="1387.5" x2="1556.0576" y1="155" y2="155"/></g><!--class ObservingProcedure--><g class="entity" data-qualified-name="ObservingProcedure" data-source-line="7" id="ent0017"><rect fill="#F1F1F1" height="48" rx="2.5" ry="2.5" style="stroke:#181818;stroke-width:0.5;" width="174.707" x="1592.5" y="115"/><ellipse cx="1607.5" cy="131" fill="#ADD1B2" rx="11" ry="11" style="stroke:#181818;stroke-width:1;"/><path d="M1610.4688,136.6406 Q1609.8906,136.9375 1609.25,137.0781 Q1608.6094,137.2344 1607.9063,137.2344 Q1605.4063,137.2344 1604.0781,135.5938 Q1602.7656,133.9375 1602.7656,130.8125 Q1602.7656,127.6875 1604.0781,126.0313 Q1605.4063,124.375 1607.9063,124.375 Q1608.6094,124.375 1609.25,124.5313 Q1609.9063,124.6875 1610.4688,124.9844 L1610.4688,127.7031 Q1609.8438,127.125 1609.25,126.8594 Q1608.6563,126.5781 1608.0313,126.5781 Q1606.6875,126.5781 1606,127.6563 Q1605.3125,128.7188 1605.3125,130.8125 Q1605.3125,132.9063 1606,133.9844 Q1606.6875,135.0469 1608.0313,135.0469 Q1608.6563,135.0469 1609.25,134.7813 Q1609.8438,134.5 1610.4688,133.9219 L1610.4688,136.6406 Z " fill="#000000"/><text fill="#000000" font-family="sans-serif" font-size="14" lengthAdjust="spacing" textLength="142.707" x="1621.5" y="135.8467">ObservingProcedure</text><line style="stroke:#181818;stroke-width:0.5;" x1="1593.5" x2="1766.207" y1="147" y2="147"/><line style="stroke:#181818;stroke-width:0.5;" x1="1593.5" x2="1766.207" y1="155" y2="155"/></g><!--class SamplingProcedure--><g class="entity" data-qualified-name="SamplingProcedure" data-source-line="8" id="ent0019"><rect fill="#F1F1F1" height="48" rx="2.5" ry="2.5" style="stroke:#181818;stroke-width:0.5;" width="168.7324" x="1802.5" y="115"/><ellipse cx="1817.5" cy="131" fill="#ADD1B2" rx="11" ry="11" style="stroke:#181818;stroke-width:1;"/><path d="M1820.4688,136.6406 Q1819.8906,136.9375 1819.25,137.0781 Q1818.6094,137.2344 1817.9063,137.2344 Q1815.4063,137.2344 1814.0781,135.5938 Q1812.7656,133.9375 1812.7656,130.8125 Q1812.7656,127.6875 1814.0781,126.0313 Q1815.4063,124.375 1817.9063,124.375 Q1818.6094,124.375 1819.25,124.5313 Q1819.9063,124.6875 1820.4688,124.9844 L1820.4688,127.7031 Q1819.8438,127.125 1819.25,126.8594 Q1818.6563,126.5781 1818.0313,126.5781 Q1816.6875,126.5781 1816,127.6563 Q1815.3125,128.7188 1815.3125,130.8125 Q1815.3125,132.9063 1816,133.9844 Q1816.6875,135.0469 1818.0313,135.0469 Q1818.6563,135.0469 1819.25,134.7813 Q1819.8438,134.5 1820.4688,133.9219 L1820.4688,136.6406 Z " fill="#000000"/><text fill="#000000" font-family="sans-serif" font-size="14" lengthAdjust="spacing" textLength="136.7324" x="1831.5" y="135.8467">SamplingProcedure</text><line style="stroke:#181818;stroke-width:0.5;" x1="1803.5" x2="1970.2324" y1="147" y2="147"/><line style="stroke:#181818;stroke-width:0.5;" x1="1803.5" x2="1970.2324" y1="155" y2="155"/></g><!--class Asset--><g class="entity" data-qualified-name="Asset" data-source-line="9" id="ent0021"><rect fill="#F1F1F1" height="48" rx="2.5" ry="2.5" style="stroke:#181818;stroke-width:0.5;" width="70.2676" x="2078" y="7"/><ellipse cx="2093" cy="23" fill="#ADD1B2" rx="11" ry="11" style="stroke:#181818;stroke-width:1;"/><path d="M2095.9688,28.6406 Q2095.3906,28.9375 2094.75,29.0781 Q2094.1094,29.2344 2093.4063,29.2344 Q2090.9063,29.2344 2089.5781,27.5938 Q2088.2656,25.9375 2088.2656,22.8125 Q2088.2656,19.6875 2089.5781,18.0313 Q2090.9063,16.375 2093.4063,16.375 Q2094.1094,16.375 2094.75,16.5313 Q2095.4063,16.6875 2095.9688,16.9844 L2095.9688,19.7031 Q2095.3438,19.125 2094.75,18.8594 Q2094.1563,18.5781 2093.5313,18.5781 Q2092.1875,18.5781 2091.5,19.6563 Q2090.8125,20.7188 2090.8125,22.8125 Q2090.8125,24.9063 2091.5,25.9844 Q2092.1875,27.0469 2093.5313,27.0469 Q2094.1563,27.0469 2094.75,26.7813 Q2095.3438,26.5 2095.9688,25.9219 L2095.9688,28.6406 Z " fill="#000000"/><text fill="#000000" font-family="sans-serif" font-size="14" lengthAdjust="spacing" textLength="38.2676" x="2107" y="27.8467">Asset</text><line style="stroke:#181818;stroke-width:0.5;" x1="2079" x2="2147.2676" y1="39" y2="39"/><line style="stroke:#181818;stroke-width:0.5;" x1="2079" x2="2147.2676" y1="47" y2="47"/></g><!--class Platform--><g class="entity" data-qualified-name="Platform" data-source-line="9" id="ent0022"><rect fill="#F1F1F1" height="48" rx="2.5" ry="2.5" style="stroke:#181818;stroke-width:0.5;" width="91.2881" x="2006.5" y="115"/><ellipse cx="2021.5" cy="131" fill="#ADD1B2" rx="11" ry="11" style="stroke:#181818;stroke-width:1;"/><path d="M2024.4688,136.6406 Q2023.8906,136.9375 2023.25,137.0781 Q2022.6094,137.2344 2021.9063,137.2344 Q2019.4063,137.2344 2018.0781,135.5938 Q2016.7656,133.9375 2016.7656,130.8125 Q2016.7656,127.6875 2018.0781,126.0313 Q2019.4063,124.375 2021.9063,124.375 Q2022.6094,124.375 2023.25,124.5313 Q2023.9063,124.6875 2024.4688,124.9844 L2024.4688,127.7031 Q2023.8438,127.125 2023.25,126.8594 Q2022.6563,126.5781 2022.0313,126.5781 Q2020.6875,126.5781 2020,127.6563 Q2019.3125,128.7188 2019.3125,130.8125 Q2019.3125,132.9063 2020,133.9844 Q2020.6875,135.0469 2022.0313,135.0469 Q2022.6563,135.0469 2023.25,134.7813 Q2023.8438,134.5 2024.4688,133.9219 L2024.4688,136.6406 Z " fill="#000000"/><text fill="#000000" font-family="sans-serif" font-size="14" lengthAdjust="spacing" textLength="59.2881" x="2035.5" y="135.8467">Platform</text><line style="stroke:#181818;stroke-width:0.5;" x1="2007.5" x2="2096.7881" y1="147" y2="147"/><line style="stroke:#181818;stroke-width:0.5;" x1="2007.5" x2="2096.7881" y1="155" y2="155"/></g><!--class System--><g class="entity" data-qualified-name="System" data-source-line="10" id="ent0024"><rect fill="#F1F1F1" height="48" rx="2.5" ry="2.5" style="stroke:#181818;stroke-width:0.5;" width="84.2061" x="2133" y="115"/><ellipse cx="2148" cy="131" fill="#ADD1B2" rx="11" ry="11" style="stroke:#181818;stroke-width:1;"/><path d="M2150.9688,136.6406 Q2150.3906,136.9375 2149.75,137.0781 Q2149.1094,137.2344 2148.4063,137.2344 Q2145.9063,137.2344 2144.5781,135.5938 Q2143.2656,133.9375 2143.2656,130.8125 Q2143.2656,127.6875 2144.5781,126.0313 Q2145.9063,124.375 2148.4063,124.375 Q2149.1094,124.375 2149.75,124.5313 Q2150.4063,124.6875 2150.9688,124.9844 L2150.9688,127.7031 Q2150.3438,127.125 2149.75,126.8594 Q2149.1563,126.5781 2148.5313,126.5781 Q2147.1875,126.5781 2146.5,127.6563 Q2145.8125,128.7188 2145.8125,130.8125 Q2145.8125,132.9063 2146.5,133.9844 Q2147.1875,135.0469 2148.5313,135.0469 Q2149.1563,135.0469 2149.75,134.7813 Q2150.3438,134.5 2150.9688,133.9219 L2150.9688,136.6406 Z " fill="#000000"/><text fill="#000000" font-family="sans-serif" font-size="14" lengthAdjust="spacing" textLength="52.2061" x="2162" y="135.8467">System</text><line style="stroke:#181818;stroke-width:0.5;" x1="2134" x2="2216.2061" y1="147" y2="147"/><line style="stroke:#181818;stroke-width:0.5;" x1="2134" x2="2216.2061" y1="155" y2="155"/></g><!--class Sampler--><g class="entity" data-qualified-name="Sampler" data-source-line="10" id="ent0025"><rect fill="#F1F1F1" height="48" rx="2.5" ry="2.5" style="stroke:#181818;stroke-width:0.5;" width="90.249" x="2004" y="223"/><ellipse cx="2019" cy="239" fill="#ADD1B2" rx="11" ry="11" style="stroke:#181818;stroke-width:1;"/><path d="M2021.9688,244.6406 Q2021.3906,244.9375 2020.75,245.0781 Q2020.1094,245.2344 2019.4063,245.2344 Q2016.9063,245.2344 2015.5781,243.5938 Q2014.2656,241.9375 2014.2656,238.8125 Q2014.2656,235.6875 2015.5781,234.0313 Q2016.9063,232.375 2019.4063,232.375 Q2020.1094,232.375 2020.75,232.5313 Q2021.4063,232.6875 2021.9688,232.9844 L2021.9688,235.7031 Q2021.3438,235.125 2020.75,234.8594 Q2020.1563,234.5781 2019.5313,234.5781 Q2018.1875,234.5781 2017.5,235.6563 Q2016.8125,236.7188 2016.8125,238.8125 Q2016.8125,240.9063 2017.5,241.9844 Q2018.1875,243.0469 2019.5313,243.0469 Q2020.1563,243.0469 2020.75,242.7813 Q2021.3438,242.5 2021.9688,241.9219 L2021.9688,244.6406 Z " fill="#000000"/><text fill="#000000" font-family="sans-serif" font-size="14" lengthAdjust="spacing" textLength="58.249" x="2033" y="243.8467">Sampler</text><line style="stroke:#181818;stroke-width:0.5;" x1="2005" x2="2093.249" y1="255" y2="255"/><line style="stroke:#181818;stroke-width:0.5;" x1="2005" x2="2093.249" y1="263" y2="263"/></g><!--class Actuator--><g class="entity" data-qualified-name="Actuator" data-source-line="11" id="ent0027"><rect fill="#F1F1F1" height="48" rx="2.5" ry="2.5" style="stroke:#181818;stroke-width:0.5;" width="92.0264" x="2129" y="223"/><ellipse cx="2144" cy="239" fill="#ADD1B2" rx="11" ry="11" style="stroke:#181818;stroke-width:1;"/><path d="M2146.9688,244.6406 Q2146.3906,244.9375 2145.75,245.0781 Q2145.1094,245.2344 2144.4063,245.2344 Q2141.9063,245.2344 2140.5781,243.5938 Q2139.2656,241.9375 2139.2656,238.8125 Q2139.2656,235.6875 2140.5781,234.0313 Q2141.9063,232.375 2144.4063,232.375 Q2145.1094,232.375 2145.75,232.5313 Q2146.4063,232.6875 2146.9688,232.9844 L2146.9688,235.7031 Q2146.3438,235.125 2145.75,234.8594 Q2145.1563,234.5781 2144.5313,234.5781 Q2143.1875,234.5781 2142.5,235.6563 Q2141.8125,236.7188 2141.8125,238.8125 Q2141.8125,240.9063 2142.5,241.9844 Q2143.1875,243.0469 2144.5313,243.0469 Q2145.1563,243.0469 2145.75,242.7813 Q2146.3438,242.5 2146.9688,241.9219 L2146.9688,244.6406 Z " fill="#000000"/><text fill="#000000" font-family="sans-serif" font-size="14" lengthAdjust="spacing" textLength="60.0264" x="2158" y="243.8467">Actuator</text><line style="stroke:#181818;stroke-width:0.5;" x1="2130" x2="2220.0264" y1="255" y2="255"/><line style="stroke:#181818;stroke-width:0.5;" x1="2130" x2="2220.0264" y1="263" y2="263"/></g><!--class Execution--><g class="entity" data-qualified-name="Execution" data-source-line="13" id="ent0030"><rect fill="#F1F1F1" height="48" rx="2.5" ry="2.5" style="stroke:#181818;stroke-width:0.5;" width="101.1318" x="2384.5" y="7"/><ellipse cx="2399.5" cy="23" fill="#ADD1B2" rx="11" ry="11" style="stroke:#181818;stroke-width:1;"/><path d="M2402.4688,28.6406 Q2401.8906,28.9375 2401.25,29.0781 Q2400.6094,29.2344 2399.9063,29.2344 Q2397.4063,29.2344 2396.0781,27.5938 Q2394.7656,25.9375 2394.7656,22.8125 Q2394.7656,19.6875 2396.0781,18.0313 Q2397.4063,16.375 2399.9063,16.375 Q2400.6094,16.375 2401.25,16.5313 Q2401.9063,16.6875 2402.4688,16.9844 L2402.4688,19.7031 Q2401.8438,19.125 2401.25,18.8594 Q2400.6563,18.5781 2400.0313,18.5781 Q2398.6875,18.5781 2398,19.6563 Q2397.3125,20.7188 2397.3125,22.8125 Q2397.3125,24.9063 2398,25.9844 Q2398.6875,27.0469 2400.0313,27.0469 Q2400.6563,27.0469 2401.25,26.7813 Q2401.8438,26.5 2402.4688,25.9219 L2402.4688,28.6406 Z " fill="#000000"/><text fill="#000000" font-family="sans-serif" font-size="14" lengthAdjust="spacing" textLength="69.1318" x="2413.5" y="27.8467">Execution</text><line style="stroke:#181818;stroke-width:0.5;" x1="2385.5" x2="2484.6318" y1="39" y2="39"/><line style="stroke:#181818;stroke-width:0.5;" x1="2385.5" x2="2484.6318" y1="47" y2="47"/></g><!--class Sampling--><g class="entity" data-qualified-name="Sampling" data-source-line="13" id="ent0031"><rect fill="#F1F1F1" height="48" rx="2.5" ry="2.5" style="stroke:#181818;stroke-width:0.5;" width="97.5293" x="2252" y="115"/><ellipse cx="2267" cy="131" fill="#ADD1B2" rx="11" ry="11" style="stroke:#181818;stroke-width:1;"/><path d="M2269.9688,136.6406 Q2269.3906,136.9375 2268.75,137.0781 Q2268.1094,137.2344 2267.4063,137.2344 Q2264.9063,137.2344 2263.5781,135.5938 Q2262.2656,133.9375 2262.2656,130.8125 Q2262.2656,127.6875 2263.5781,126.0313 Q2264.9063,124.375 2267.4063,124.375 Q2268.1094,124.375 2268.75,124.5313 Q2269.4063,124.6875 2269.9688,124.9844 L2269.9688,127.7031 Q2269.3438,127.125 2268.75,126.8594 Q2268.1563,126.5781 2267.5313,126.5781 Q2266.1875,126.5781 2265.5,127.6563 Q2264.8125,128.7188 2264.8125,130.8125 Q2264.8125,132.9063 2265.5,133.9844 Q2266.1875,135.0469 2267.5313,135.0469 Q2268.1563,135.0469 2268.75,134.7813 Q2269.3438,134.5 2269.9688,133.9219 L2269.9688,136.6406 Z " fill="#000000"/><text fill="#000000" font-family="sans-serif" font-size="14" lengthAdjust="spacing" textLength="65.5293" x="2281" y="135.8467">Sampling</text><line style="stroke:#181818;stroke-width:0.5;" x1="2253" x2="2348.5293" y1="147" y2="147"/><line style="stroke:#181818;stroke-width:0.5;" x1="2253" x2="2348.5293" y1="155" y2="155"/></g><!--class ExecutionCollection--><g class="entity" data-qualified-name="ExecutionCollection" data-source-line="14" id="ent0033"><rect fill="#F1F1F1" height="48" rx="2.5" ry="2.5" style="stroke:#181818;stroke-width:0.5;" width="170.3799" x="2872" y="7"/><ellipse cx="2887" cy="23" fill="#ADD1B2" rx="11" ry="11" style="stroke:#181818;stroke-width:1;"/><path d="M2889.9688,28.6406 Q2889.3906,28.9375 2888.75,29.0781 Q2888.1094,29.2344 2887.4063,29.2344 Q2884.9063,29.2344 2883.5781,27.5938 Q2882.2656,25.9375 2882.2656,22.8125 Q2882.2656,19.6875 2883.5781,18.0313 Q2884.9063,16.375 2887.4063,16.375 Q2888.1094,16.375 2888.75,16.5313 Q2889.4063,16.6875 2889.9688,16.9844 L2889.9688,19.7031 Q2889.3438,19.125 2888.75,18.8594 Q2888.1563,18.5781 2887.5313,18.5781 Q2886.1875,18.5781 2885.5,19.6563 Q2884.8125,20.7188 2884.8125,22.8125 Q2884.8125,24.9063 2885.5,25.9844 Q2886.1875,27.0469 2887.5313,27.0469 Q2888.1563,27.0469 2888.75,26.7813 Q2889.3438,26.5 2889.9688,25.9219 L2889.9688,28.6406 Z " fill="#000000"/><text fill="#000000" font-family="sans-serif" font-size="14" lengthAdjust="spacing" textLength="138.3799" x="2901" y="27.8467">ExecutionCollection</text><line style="stroke:#181818;stroke-width:0.5;" x1="2873" x2="3041.3799" y1="39" y2="39"/><line style="stroke:#181818;stroke-width:0.5;" x1="2873" x2="3041.3799" y1="47" y2="47"/></g><!--class SamplingCollection--><g class="entity" data-qualified-name="SamplingCollection" data-source-line="14" id="ent0034"><rect fill="#F1F1F1" height="48" rx="2.5" ry="2.5" style="stroke:#181818;stroke-width:0.5;" width="166.7773" x="2671.5" y="115"/><ellipse cx="2686.5" cy="131" fill="#ADD1B2" rx="11" ry="11" style="stroke:#181818;stroke-width:1;"/><path d="M2689.4688,136.6406 Q2688.8906,136.9375 2688.25,137.0781 Q2687.6094,137.2344 2686.9063,137.2344 Q2684.4063,137.2344 2683.0781,135.5938 Q2681.7656,133.9375 2681.7656,130.8125 Q2681.7656,127.6875 2683.0781,126.0313 Q2684.4063,124.375 2686.9063,124.375 Q2687.6094,124.375 2688.25,124.5313 Q2688.9063,124.6875 2689.4688,124.9844 L2689.4688,127.7031 Q2688.8438,127.125 2688.25,126.8594 Q2687.6563,126.5781 2687.0313,126.5781 Q2685.6875,126.5781 2685,127.6563 Q2684.3125,128.7188 2684.3125,130.8125 Q2684.3125,132.9063 2685,133.9844 Q2685.6875,135.0469 2687.0313,135.0469 Q2687.6563,135.0469 2688.25,134.7813 Q2688.8438,134.5 2689.4688,133.9219 L2689.4688,136.6406 Z " fill="#000000"/><text fill="#000000" font-family="sans-serif" font-size="14" lengthAdjust="spacing" textLength="134.7773" x="2700.5" y="135.8467">SamplingCollection</text><line style="stroke:#181818;stroke-width:0.5;" x1="2672.5" x2="2837.2773" y1="147" y2="147"/><line style="stroke:#181818;stroke-width:0.5;" x1="2672.5" x2="2837.2773" y1="155" y2="155"/></g><!--class Actuation--><g class="entity" data-qualified-name="Actuation" data-source-line="15" id="ent0036"><rect fill="#F1F1F1" height="48" rx="2.5" ry="2.5" style="stroke:#181818;stroke-width:0.5;" width="99.0332" x="2385.5" y="115"/><ellipse cx="2400.5" cy="131" fill="#ADD1B2" rx="11" ry="11" style="stroke:#181818;stroke-width:1;"/><path d="M2403.4688,136.6406 Q2402.8906,136.9375 2402.25,137.0781 Q2401.6094,137.2344 2400.9063,137.2344 Q2398.4063,137.2344 2397.0781,135.5938 Q2395.7656,133.9375 2395.7656,130.8125 Q2395.7656,127.6875 2397.0781,126.0313 Q2398.4063,124.375 2400.9063,124.375 Q2401.6094,124.375 2402.25,124.5313 Q2402.9063,124.6875 2403.4688,124.9844 L2403.4688,127.7031 Q2402.8438,127.125 2402.25,126.8594 Q2401.6563,126.5781 2401.0313,126.5781 Q2399.6875,126.5781 2399,127.6563 Q2398.3125,128.7188 2398.3125,130.8125 Q2398.3125,132.9063 2399,133.9844 Q2399.6875,135.0469 2401.0313,135.0469 Q2401.6563,135.0469 2402.25,134.7813 Q2402.8438,134.5 2403.4688,133.9219 L2403.4688,136.6406 Z " fill="#000000"/><text fill="#000000" font-family="sans-serif" font-size="14" lengthAdjust="spacing" textLength="67.0332" x="2414.5" y="135.8467">Actuation</text><line style="stroke:#181818;stroke-width:0.5;" x1="2386.5" x2="2483.5332" y1="147" y2="147"/><line style="stroke:#181818;stroke-width:0.5;" x1="2386.5" x2="2483.5332" y1="155" y2="155"/></g><!--class Sensor--><g class="entity" data-qualified-name="Sensor" data-source-line="16" id="ent0038"><rect fill="#F1F1F1" height="48" rx="2.5" ry="2.5" style="stroke:#181818;stroke-width:0.5;" width="79.9883" x="2256" y="223"/><ellipse cx="2271" cy="239" fill="#ADD1B2" rx="11" ry="11" style="stroke:#181818;stroke-width:1;"/><path d="M2273.9688,244.6406 Q2273.3906,244.9375 2272.75,245.0781 Q2272.1094,245.2344 2271.4063,245.2344 Q2268.9063,245.2344 2267.5781,243.5938 Q2266.2656,241.9375 2266.2656,238.8125 Q2266.2656,235.6875 2267.5781,234.0313 Q2268.9063,232.375 2271.4063,232.375 Q2272.1094,232.375 2272.75,232.5313 Q2273.4063,232.6875 2273.9688,232.9844 L2273.9688,235.7031 Q2273.3438,235.125 2272.75,234.8594 Q2272.1563,234.5781 2271.5313,234.5781 Q2270.1875,234.5781 2269.5,235.6563 Q2268.8125,236.7188 2268.8125,238.8125 Q2268.8125,240.9063 2269.5,241.9844 Q2270.1875,243.0469 2271.5313,243.0469 Q2272.1563,243.0469 2272.75,242.7813 Q2273.3438,242.5 2273.9688,241.9219 L2273.9688,244.6406 Z " fill="#000000"/><text fill="#000000" font-family="sans-serif" font-size="14" lengthAdjust="spacing" textLength="47.9883" x="2285" y="243.8467">Sensor</text><line style="stroke:#181818;stroke-width:0.5;" x1="2257" x2="2334.9883" y1="255" y2="255"/><line style="stroke:#181818;stroke-width:0.5;" x1="2257" x2="2334.9883" y1="263" y2="263"/></g><!--class ActuationCollection--><g class="entity" data-qualified-name="ActuationCollection" data-source-line="17" id="ent0040"><rect fill="#F1F1F1" height="48" rx="2.5" ry="2.5" style="stroke:#181818;stroke-width:0.5;" width="168.2813" x="2873" y="115"/><ellipse cx="2888" cy="131" fill="#ADD1B2" rx="11" ry="11" style="stroke:#181818;stroke-width:1;"/><path d="M2890.9688,136.6406 Q2890.3906,136.9375 2889.75,137.0781 Q2889.1094,137.2344 2888.4063,137.2344 Q2885.9063,137.2344 2884.5781,135.5938 Q2883.2656,133.9375 2883.2656,130.8125 Q2883.2656,127.6875 2884.5781,126.0313 Q2885.9063,124.375 2888.4063,124.375 Q2889.1094,124.375 2889.75,124.5313 Q2890.4063,124.6875 2890.9688,124.9844 L2890.9688,127.7031 Q2890.3438,127.125 2889.75,126.8594 Q2889.1563,126.5781 2888.5313,126.5781 Q2887.1875,126.5781 2886.5,127.6563 Q2885.8125,128.7188 2885.8125,130.8125 Q2885.8125,132.9063 2886.5,133.9844 Q2887.1875,135.0469 2888.5313,135.0469 Q2889.1563,135.0469 2889.75,134.7813 Q2890.3438,134.5 2890.9688,133.9219 L2890.9688,136.6406 Z " fill="#000000"/><text fill="#000000" font-family="sans-serif" font-size="14" lengthAdjust="spacing" textLength="136.2813" x="2902" y="135.8467">ActuationCollection</text><line style="stroke:#181818;stroke-width:0.5;" x1="2874" x2="3040.2813" y1="147" y2="147"/><line style="stroke:#181818;stroke-width:0.5;" x1="2874" x2="3040.2813" y1="155" y2="155"/></g><!--class ObservationCollection--><g class="entity" data-qualified-name="ObservationCollection" data-source-line="18" id="ent0042"><rect fill="#F1F1F1" height="48" rx="2.5" ry="2.5" style="stroke:#181818;stroke-width:0.5;" width="186.499" x="3076" y="115"/><ellipse cx="3091" cy="131" fill="#ADD1B2" rx="11" ry="11" style="stroke:#181818;stroke-width:1;"/><path d="M3093.9688,136.6406 Q3093.3906,136.9375 3092.75,137.0781 Q3092.1094,137.2344 3091.4063,137.2344 Q3088.9063,137.2344 3087.5781,135.5938 Q3086.2656,133.9375 3086.2656,130.8125 Q3086.2656,127.6875 3087.5781,126.0313 Q3088.9063,124.375 3091.4063,124.375 Q3092.1094,124.375 3092.75,124.5313 Q3093.4063,124.6875 3093.9688,124.9844 L3093.9688,127.7031 Q3093.3438,127.125 3092.75,126.8594 Q3092.1563,126.5781 3091.5313,126.5781 Q3090.1875,126.5781 3089.5,127.6563 Q3088.8125,128.7188 3088.8125,130.8125 Q3088.8125,132.9063 3089.5,133.9844 Q3090.1875,135.0469 3091.5313,135.0469 Q3092.1563,135.0469 3092.75,134.7813 Q3093.3438,134.5 3093.9688,133.9219 L3093.9688,136.6406 Z " fill="#000000"/><text fill="#000000" font-family="sans-serif" font-size="14" lengthAdjust="spacing" textLength="154.499" x="3105" y="135.8467">ObservationCollection</text><line style="stroke:#181818;stroke-width:0.5;" x1="3077" x2="3261.499" y1="147" y2="147"/><line style="stroke:#181818;stroke-width:0.5;" x1="3077" x2="3261.499" y1="155" y2="155"/></g><!--class Observation--><g class="entity" data-qualified-name="Observation" data-source-line="19" id="ent0044"><rect fill="#F1F1F1" height="48" rx="2.5" ry="2.5" style="stroke:#181818;stroke-width:0.5;" width="117.251" x="2519.5" y="115"/><ellipse cx="2534.5" cy="131" fill="#ADD1B2" rx="11" ry="11" style="stroke:#181818;stroke-width:1;"/><path d="M2537.4688,136.6406 Q2536.8906,136.9375 2536.25,137.0781 Q2535.6094,137.2344 2534.9063,137.2344 Q2532.4063,137.2344 2531.0781,135.5938 Q2529.7656,133.9375 2529.7656,130.8125 Q2529.7656,127.6875 2531.0781,126.0313 Q2532.4063,124.375 2534.9063,124.375 Q2535.6094,124.375 2536.25,124.5313 Q2536.9063,124.6875 2537.4688,124.9844 L2537.4688,127.7031 Q2536.8438,127.125 2536.25,126.8594 Q2535.6563,126.5781 2535.0313,126.5781 Q2533.6875,126.5781 2533,127.6563 Q2532.3125,128.7188 2532.3125,130.8125 Q2532.3125,132.9063 2533,133.9844 Q2533.6875,135.0469 2535.0313,135.0469 Q2535.6563,135.0469 2536.25,134.7813 Q2536.8438,134.5 2537.4688,133.9219 L2537.4688,136.6406 Z " fill="#000000"/><text fill="#000000" font-family="sans-serif" font-size="14" lengthAdjust="spacing" textLength="85.251" x="2548.5" y="135.8467">Observation</text><line style="stroke:#181818;stroke-width:0.5;" x1="2520.5" x2="2635.751" y1="147" y2="147"/><line style="stroke:#181818;stroke-width:0.5;" x1="2520.5" x2="2635.751" y1="155" y2="155"/></g><!--class SampleCollection--><g class="entity" data-qualified-name="SampleCollection" data-source-line="20" id="ent0046"><rect fill="#F1F1F1" height="48" rx="2.5" ry="2.5" style="stroke:#181818;stroke-width:0.5;" width="153.7412" x="8" y="7"/><ellipse cx="23" cy="23" fill="#ADD1B2" rx="11" ry="11" style="stroke:#181818;stroke-width:1;"/><path d="M25.9688,28.6406 Q25.3906,28.9375 24.75,29.0781 Q24.1094,29.2344 23.4063,29.2344 Q20.9063,29.2344 19.5781,27.5938 Q18.2656,25.9375 18.2656,22.8125 Q18.2656,19.6875 19.5781,18.0313 Q20.9063,16.375 23.4063,16.375 Q24.1094,16.375 24.75,16.5313 Q25.4063,16.6875 25.9688,16.9844 L25.9688,19.7031 Q25.3438,19.125 24.75,18.8594 Q24.1563,18.5781 23.5313,18.5781 Q22.1875,18.5781 21.5,19.6563 Q20.8125,20.7188 20.8125,22.8125 Q20.8125,24.9063 21.5,25.9844 Q22.1875,27.0469 23.5313,27.0469 Q24.1563,27.0469 24.75,26.7813 Q25.3438,26.5 25.9688,25.9219 L25.9688,28.6406 Z " fill="#000000"/><text fill="#000000" font-family="sans-serif" font-size="14" lengthAdjust="spacing" textLength="121.7412" x="37" y="27.8467">SampleCollection</text><line style="stroke:#181818;stroke-width:0.5;" x1="9" x2="160.7412" y1="39" y2="39"/><line style="stroke:#181818;stroke-width:0.5;" x1="9" x2="160.7412" y1="47" y2="47"/></g><!--class Result--><g class="entity" data-qualified-name="Result" data-source-line="21" id="ent0047"><rect fill="#F1F1F1" height="48" rx="2.5" ry="2.5" style="stroke:#181818;stroke-width:0.5;" width="75.8867" x="197" y="7"/><ellipse cx="212" cy="23" fill="#ADD1B2" rx="11" ry="11" style="stroke:#181818;stroke-width:1;"/><path d="M214.9688,28.6406 Q214.3906,28.9375 213.75,29.0781 Q213.1094,29.2344 212.4063,29.2344 Q209.9063,29.2344 208.5781,27.5938 Q207.2656,25.9375 207.2656,22.8125 Q207.2656,19.6875 208.5781,18.0313 Q209.9063,16.375 212.4063,16.375 Q213.1094,16.375 213.75,16.5313 Q214.4063,16.6875 214.9688,16.9844 L214.9688,19.7031 Q214.3438,19.125 213.75,18.8594 Q213.1563,18.5781 212.5313,18.5781 Q211.1875,18.5781 210.5,19.6563 Q209.8125,20.7188 209.8125,22.8125 Q209.8125,24.9063 210.5,25.9844 Q211.1875,27.0469 212.5313,27.0469 Q213.1563,27.0469 213.75,26.7813 Q214.3438,26.5 214.9688,25.9219 L214.9688,28.6406 Z " fill="#000000"/><text fill="#000000" font-family="sans-serif" font-size="14" lengthAdjust="spacing" textLength="43.8867" x="226" y="27.8467">Result</text><line style="stroke:#181818;stroke-width:0.5;" x1="198" x2="271.8867" y1="39" y2="39"/><line style="stroke:#181818;stroke-width:0.5;" x1="198" x2="271.8867" y1="47" y2="47"/></g><!--class Input--><g class="entity" data-qualified-name="Input" data-source-line="22" id="ent0048"><rect fill="#F1F1F1" height="48" rx="2.5" ry="2.5" style="stroke:#181818;stroke-width:0.5;" width="68.251" x="308" y="7"/><ellipse cx="323" cy="23" fill="#ADD1B2" rx="11" ry="11" style="stroke:#181818;stroke-width:1;"/><path d="M325.9688,28.6406 Q325.3906,28.9375 324.75,29.0781 Q324.1094,29.2344 323.4063,29.2344 Q320.9063,29.2344 319.5781,27.5938 Q318.2656,25.9375 318.2656,22.8125 Q318.2656,19.6875 319.5781,18.0313 Q320.9063,16.375 323.4063,16.375 Q324.1094,16.375 324.75,16.5313 Q325.4063,16.6875 325.9688,16.9844 L325.9688,19.7031 Q325.3438,19.125 324.75,18.8594 Q324.1563,18.5781 323.5313,18.5781 Q322.1875,18.5781 321.5,19.6563 Q320.8125,20.7188 320.8125,22.8125 Q320.8125,24.9063 321.5,25.9844 Q322.1875,27.0469 323.5313,27.0469 Q324.1563,27.0469 324.75,26.7813 Q325.3438,26.5 325.9688,25.9219 L325.9688,28.6406 Z " fill="#000000"/><text fill="#000000" font-family="sans-serif" font-size="14" lengthAdjust="spacing" textLength="36.251" x="337" y="27.8467">Input</text><line style="stroke:#181818;stroke-width:0.5;" x1="309" x2="375.251" y1="39" y2="39"/><line style="stroke:#181818;stroke-width:0.5;" x1="309" x2="375.251" y1="47" y2="47"/></g><!--class FeatureOfInterest--><g class="entity" data-qualified-name="FeatureOfInterest" data-source-line="23" id="ent0049"><rect fill="#F1F1F1" height="48" rx="2.5" ry="2.5" style="stroke:#181818;stroke-width:0.5;" width="156.1816" x="7" y="115"/><ellipse cx="22" cy="131" fill="#ADD1B2" rx="11" ry="11" style="stroke:#181818;stroke-width:1;"/><path d="M24.9688,136.6406 Q24.3906,136.9375 23.75,137.0781 Q23.1094,137.2344 22.4063,137.2344 Q19.9063,137.2344 18.5781,135.5938 Q17.2656,133.9375 17.2656,130.8125 Q17.2656,127.6875 18.5781,126.0313 Q19.9063,124.375 22.4063,124.375 Q23.1094,124.375 23.75,124.5313 Q24.4063,124.6875 24.9688,124.9844 L24.9688,127.7031 Q24.3438,127.125 23.75,126.8594 Q23.1563,126.5781 22.5313,126.5781 Q21.1875,126.5781 20.5,127.6563 Q19.8125,128.7188 19.8125,130.8125 Q19.8125,132.9063 20.5,133.9844 Q21.1875,135.0469 22.5313,135.0469 Q23.1563,135.0469 23.75,134.7813 Q24.3438,134.5 24.9688,133.9219 L24.9688,136.6406 Z " fill="#000000"/><text fill="#000000" font-family="sans-serif" font-size="14" lengthAdjust="spacing" textLength="124.1816" x="36" y="135.8467">FeatureOfInterest</text><line style="stroke:#181818;stroke-width:0.5;" x1="8" x2="162.1816" y1="147" y2="147"/><line style="stroke:#181818;stroke-width:0.5;" x1="8" x2="162.1816" y1="155" y2="155"/></g><!--class Stimulus--><g class="entity" data-qualified-name="Stimulus" data-source-line="24" id="ent0050"><rect fill="#F1F1F1" height="48" rx="2.5" ry="2.5" style="stroke:#181818;stroke-width:0.5;" width="92.833" x="198.5" y="115"/><ellipse cx="213.5" cy="131" fill="#ADD1B2" rx="11" ry="11" style="stroke:#181818;stroke-width:1;"/><path d="M216.4688,136.6406 Q215.8906,136.9375 215.25,137.0781 Q214.6094,137.2344 213.9063,137.2344 Q211.4063,137.2344 210.0781,135.5938 Q208.7656,133.9375 208.7656,130.8125 Q208.7656,127.6875 210.0781,126.0313 Q211.4063,124.375 213.9063,124.375 Q214.6094,124.375 215.25,124.5313 Q215.9063,124.6875 216.4688,124.9844 L216.4688,127.7031 Q215.8438,127.125 215.25,126.8594 Q214.6563,126.5781 214.0313,126.5781 Q212.6875,126.5781 212,127.6563 Q211.3125,128.7188 211.3125,130.8125 Q211.3125,132.9063 212,133.9844 Q212.6875,135.0469 214.0313,135.0469 Q214.6563,135.0469 215.25,134.7813 Q215.8438,134.5 216.4688,133.9219 L216.4688,136.6406 Z " fill="#000000"/><text fill="#000000" font-family="sans-serif" font-size="14" lengthAdjust="spacing" textLength="60.833" x="227.5" y="135.8467">Stimulus</text><line style="stroke:#181818;stroke-width:0.5;" x1="199.5" x2="290.333" y1="147" y2="147"/><line style="stroke:#181818;stroke-width:0.5;" x1="199.5" x2="290.333" y1="155" y2="155"/></g><!--class Output--><g class="entity" data-qualified-name="Output" data-source-line="27" id="ent0051"><rect fill="#F1F1F1" height="48" rx="2.5" ry="2.5" style="stroke:#181818;stroke-width:0.5;" width="80.6309" x="326.5" y="115"/><ellipse cx="341.5" cy="131" fill="#ADD1B2" rx="11" ry="11" style="stroke:#181818;stroke-width:1;"/><path d="M344.4688,136.6406 Q343.8906,136.9375 343.25,137.0781 Q342.6094,137.2344 341.9063,137.2344 Q339.4063,137.2344 338.0781,135.5938 Q336.7656,133.9375 336.7656,130.8125 Q336.7656,127.6875 338.0781,126.0313 Q339.4063,124.375 341.9063,124.375 Q342.6094,124.375 343.25,124.5313 Q343.9063,124.6875 344.4688,124.9844 L344.4688,127.7031 Q343.8438,127.125 343.25,126.8594 Q342.6563,126.5781 342.0313,126.5781 Q340.6875,126.5781 340,127.6563 Q339.3125,128.7188 339.3125,130.8125 Q339.3125,132.9063 340,133.9844 Q340.6875,135.0469 342.0313,135.0469 Q342.6563,135.0469 343.25,134.7813 Q343.8438,134.5 344.4688,133.9219 L344.4688,136.6406 Z " fill="#000000"/><text fill="#000000" font-family="sans-serif" font-size="14" lengthAdjust="spacing" textLength="48.6309" x="355.5" y="135.8467">Output</text><line style="stroke:#181818;stroke-width:0.5;" x1="327.5" x2="406.1309" y1="147" y2="147"/><line style="stroke:#181818;stroke-width:0.5;" x1="327.5" x2="406.1309" y1="155" y2="155"/></g><!--class Deployment--><g class="entity" data-qualified-name="Deployment" data-source-line="28" id="ent0052"><rect fill="#F1F1F1" height="48" rx="2.5" ry="2.5" style="stroke:#181818;stroke-width:0.5;" width="117.6338" x="26" y="223"/><ellipse cx="41" cy="239" fill="#ADD1B2" rx="11" ry="11" style="stroke:#181818;stroke-width:1;"/><path d="M43.9688,244.6406 Q43.3906,244.9375 42.75,245.0781 Q42.1094,245.2344 41.4063,245.2344 Q38.9063,245.2344 37.5781,243.5938 Q36.2656,241.9375 36.2656,238.8125 Q36.2656,235.6875 37.5781,234.0313 Q38.9063,232.375 41.4063,232.375 Q42.1094,232.375 42.75,232.5313 Q43.4063,232.6875 43.9688,232.9844 L43.9688,235.7031 Q43.3438,235.125 42.75,234.8594 Q42.1563,234.5781 41.5313,234.5781 Q40.1875,234.5781 39.5,235.6563 Q38.8125,236.7188 38.8125,238.8125 Q38.8125,240.9063 39.5,241.9844 Q40.1875,243.0469 41.5313,243.0469 Q42.1563,243.0469 42.75,242.7813 Q43.3438,242.5 43.9688,241.9219 L43.9688,244.6406 Z " fill="#000000"/><text fill="#000000" font-family="sans-serif" font-size="14" lengthAdjust="spacing" textLength="85.6338" x="55" y="243.8467">Deployment</text><line style="stroke:#181818;stroke-width:0.5;" x1="27" x2="142.6338" y1="255" y2="255"/><line style="stroke:#181818;stroke-width:0.5;" x1="27" x2="142.6338" y1="263" y2="263"/></g><!--reverse link Property to ActuatableProperty--><g class="link" data-entity-1="ent0002" data-entity-2="ent0003" data-link-type="extension" data-source-line="1" id="lnk4"><path codeLine="1" d="M593.3905,67.9716 C576.4005,85.6316 565.51,96.94 548.44,114.68" fill="none" id="Property-backto-ActuatableProperty" style="stroke:#181818;stroke-width:1;"/><polygon fill="none" points="605.87,55,589.0667,63.8118,597.7144,72.1314,605.87,55" style="stroke:#181818;stroke-width:1;"/></g><!--reverse link Sample to MaterialSample--><g class="link" data-entity-1="ent0005" data-entity-2="ent0006" data-link-type="extension" data-source-line="2" id="lnk7"><path codeLine="2" d="M1042.3567,64.4445 C1013.6067,82.1645 989.35,97.11 960.55,114.86" fill="none" id="Sample-backto-MaterialSample" style="stroke:#181818;stroke-width:1;"/><polygon fill="none" points="1057.68,55,1039.2086,59.3367,1045.5049,69.5522,1057.68,55" style="stroke:#181818;stroke-width:1;"/></g><!--reverse link Sample to SpatialSample--><g class="link" data-entity-1="ent0005" data-entity-2="ent0008" data-link-type="extension" data-source-line="3" id="lnk9"><path codeLine="3" d="M1095,73 C1095,90.66 1095,96.94 1095,114.68" fill="none" id="Sample-backto-SpatialSample" style="stroke:#181818;stroke-width:1;"/><polygon fill="none" points="1095,55,1089,73,1101,73,1095,55" style="stroke:#181818;stroke-width:1;"/></g><!--reverse link Sample to StatisticalSample--><g class="link" data-entity-1="ent0005" data-entity-2="ent0010" data-link-type="extension" data-source-line="4" id="lnk11"><path codeLine="4" d="M1149.3276,64.1725 C1179.2476,81.8925 1204.95,97.11 1234.93,114.86" fill="none" id="Sample-backto-StatisticalSample" style="stroke:#181818;stroke-width:1;"/><polygon fill="none" points="1133.84,55,1146.2701,69.335,1152.3851,59.0099,1133.84,55" style="stroke:#181818;stroke-width:1;"/></g><!--reverse link Property to ObservableProperty--><g class="link" data-entity-1="ent0002" data-entity-2="ent0012" data-link-type="extension" data-source-line="5" id="lnk13"><path codeLine="5" d="M662.8939,67.9094 C680.0539,85.5694 691.1,96.94 708.34,114.68" fill="none" id="Property-backto-ObservableProperty" style="stroke:#181818;stroke-width:1;"/><polygon fill="none" points="650.35,55,658.5907,72.0906,667.197,63.7281,650.35,55" style="stroke:#181818;stroke-width:1;"/></g><!--reverse link Procedure to ActuatingProcedure--><g class="link" data-entity-1="ent0014" data-entity-2="ent0015" data-link-type="extension" data-source-line="6" id="lnk16"><path codeLine="6" d="M1618.8326,63.1732 C1584.0626,80.8932 1552.24,97.11 1517.4,114.86" fill="none" id="Procedure-backto-ActuatingProcedure" style="stroke:#181818;stroke-width:1;"/><polygon fill="none" points="1634.87,55,1616.1082,57.8274,1621.557,68.519,1634.87,55" style="stroke:#181818;stroke-width:1;"/></g><!--reverse link Procedure to ObservingProcedure--><g class="link" data-entity-1="ent0014" data-entity-2="ent0017" data-link-type="extension" data-source-line="7" id="lnk18"><path codeLine="7" d="M1680,73 C1680,90.66 1680,96.94 1680,114.68" fill="none" id="Procedure-backto-ObservingProcedure" style="stroke:#181818;stroke-width:1;"/><polygon fill="none" points="1680,55,1674,73,1686,73,1680,55" style="stroke:#181818;stroke-width:1;"/></g><!--reverse link Procedure to SamplingProcedure--><g class="link" data-entity-1="ent0014" data-entity-2="ent0019" data-link-type="extension" data-source-line="8" id="lnk20"><path codeLine="8" d="M1740.9411,63.205 C1775.5411,80.925 1807.15,97.11 1841.81,114.86" fill="none" id="Procedure-backto-SamplingProcedure" style="stroke:#181818;stroke-width:1;"/><polygon fill="none" points="1724.92,55,1738.2061,68.5454,1743.6762,57.8647,1724.92,55" style="stroke:#181818;stroke-width:1;"/></g><!--reverse link Asset to Platform--><g class="link" data-entity-1="ent0021" data-entity-2="ent0022" data-link-type="extension" data-source-line="9" id="lnk23"><path codeLine="9" d="M2090.7839,70.6022 C2080.6239,88.2622 2075.63,96.94 2065.42,114.68" fill="none" id="Asset-backto-Platform" style="stroke:#181818;stroke-width:1;"/><polygon fill="none" points="2099.76,55,2085.5831,67.6102,2095.9846,73.5943,2099.76,55" style="stroke:#181818;stroke-width:1;"/></g><!--reverse link System to Sampler--><g class="link" data-entity-1="ent0024" data-entity-2="ent0025" data-link-type="extension" data-source-line="10" id="lnk26"><path codeLine="10" d="M2133.8865,174.5884 C2112.8965,192.2484 2097.81,204.94 2076.72,222.68" fill="none" id="System-backto-Sampler" style="stroke:#181818;stroke-width:1;"/><polygon fill="none" points="2147.66,163,2130.0237,169.9972,2137.7493,179.1795,2147.66,163" style="stroke:#181818;stroke-width:1;"/></g><!--reverse link System to Actuator--><g class="link" data-entity-1="ent0024" data-entity-2="ent0027" data-link-type="extension" data-source-line="11" id="lnk28"><path codeLine="11" d="M2175,181 C2175,198.66 2175,204.94 2175,222.68" fill="none" id="System-backto-Actuator" style="stroke:#181818;stroke-width:1;"/><polygon fill="none" points="2175,163,2169,181,2181,181,2175,163" style="stroke:#181818;stroke-width:1;"/></g><!--reverse link Asset to System--><g class="link" data-entity-1="ent0021" data-entity-2="ent0024" data-link-type="extension" data-source-line="12" id="lnk29"><path codeLine="12" d="M2135.5383,70.5372 C2145.8683,88.1972 2150.98,96.94 2161.36,114.68" fill="none" id="Asset-backto-System" style="stroke:#181818;stroke-width:1;"/><polygon fill="none" points="2126.45,55,2130.3592,73.5666,2140.7173,67.5077,2126.45,55" style="stroke:#181818;stroke-width:1;"/></g><!--reverse link Execution to Sampling--><g class="link" data-entity-1="ent0030" data-entity-2="ent0031" data-link-type="extension" data-source-line="13" id="lnk32"><path codeLine="13" d="M2391.8041,66.1688 C2369.4841,83.8288 2352.91,96.94 2330.48,114.68" fill="none" id="Execution-backto-Sampling" style="stroke:#181818;stroke-width:1;"/><polygon fill="none" points="2405.92,55,2388.0812,61.4635,2395.527,70.8741,2405.92,55" style="stroke:#181818;stroke-width:1;"/></g><!--reverse link ExecutionCollection to SamplingCollection--><g class="link" data-entity-1="ent0033" data-entity-2="ent0034" data-link-type="extension" data-source-line="14" id="lnk35"><path codeLine="14" d="M2897.231,63.3636 C2863.461,81.0836 2832.93,97.11 2799.09,114.86" fill="none" id="ExecutionCollection-backto-SamplingCollection" style="stroke:#181818;stroke-width:1;"/><polygon fill="none" points="2913.17,55,2894.4432,58.0506,2900.0189,68.6766,2913.17,55" style="stroke:#181818;stroke-width:1;"/></g><!--reverse link Execution to Actuation--><g class="link" data-entity-1="ent0030" data-entity-2="ent0036" data-link-type="extension" data-source-line="15" id="lnk37"><path codeLine="15" d="M2435,73 C2435,90.66 2435,96.94 2435,114.68" fill="none" id="Execution-backto-Actuation" style="stroke:#181818;stroke-width:1;"/><polygon fill="none" points="2435,55,2429,73,2441,73,2435,55" style="stroke:#181818;stroke-width:1;"/></g><!--reverse link System to Sensor--><g class="link" data-entity-1="ent0024" data-entity-2="ent0038" data-link-type="extension" data-source-line="16" id="lnk39"><path codeLine="16" d="M2214.7968,174.864 C2234.9468,192.524 2249.13,204.94 2269.38,222.68" fill="none" id="System-backto-Sensor" style="stroke:#181818;stroke-width:1;"/><polygon fill="none" points="2201.26,163,2210.8421,179.3763,2218.7515,170.3518,2201.26,163" style="stroke:#181818;stroke-width:1;"/></g><!--reverse link ExecutionCollection to ActuationCollection--><g class="link" data-entity-1="ent0033" data-entity-2="ent0040" data-link-type="extension" data-source-line="17" id="lnk41"><path codeLine="17" d="M2957,73 C2957,90.66 2957,96.94 2957,114.68" fill="none" id="ExecutionCollection-backto-ActuationCollection" style="stroke:#181818;stroke-width:1;"/><polygon fill="none" points="2957,55,2951,73,2963,73,2957,55" style="stroke:#181818;stroke-width:1;"/></g><!--reverse link ExecutionCollection to ObservationCollection--><g class="link" data-entity-1="ent0033" data-entity-2="ent0042" data-link-type="extension" data-source-line="18" id="lnk43"><path codeLine="18" d="M3019.0997,63.0498 C3054.5397,80.7698 3087.22,97.11 3122.72,114.86" fill="none" id="ExecutionCollection-backto-ObservationCollection" style="stroke:#181818;stroke-width:1;"/><polygon fill="none" points="3003,55,3016.4164,68.4164,3021.783,57.6833,3003,55" style="stroke:#181818;stroke-width:1;"/></g><!--reverse link Execution to Observation--><g class="link" data-entity-1="ent0030" data-entity-2="ent0044" data-link-type="extension" data-source-line="19" id="lnk45"><path codeLine="19" d="M2480.4895,65.7202 C2504.3095,83.3802 2522.61,96.94 2546.54,114.68" fill="none" id="Execution-backto-Observation" style="stroke:#181818;stroke-width:1;"/><polygon fill="none" points="2466.03,55,2476.9161,70.54,2484.0629,60.9004,2466.03,55" style="stroke:#181818;stroke-width:1;"/></g><?plantuml-src VP9DZi8m38NtFGKNu0QpGSoCn0Arcfx018CYEJ-A7JILvl0JaT0sXR9BtlVyx5ZfWlCOPDXy_6stcvsI208dmgxeJG_64sPy1C6WWR9MeTw3h119X4MhaNPLp_R466vLptHGU8u1vrDfUntrfIDdl7FSMrU67JDAXXs1N5mmJJ-me9bLOAYqF8aBy-BCcwzVL56qitM_ITyx8bJFZabVPfHt9r3DXPRJ1AkvOzMhuAMvB7_D_cHg505psSsi8ii_o96aN0xMnyVv6q7IpjlBmQOVXFpGUz4cKkHo7J_0Izf6cH8_qPCR3DfL8U_i7m00?></g></svg>