<svg xmlns="http://www.w3.org/2000/svg" xmlns:xlink="http://www.w3.org/1999/xlink" contentStyleType="text/css" data-diagram-type="CLASS" height="286px" preserveAspectRatio="none" style="width:3162px;height:286px;background:#FFFFFF;" version="1.1" viewBox="0 0 3162 286" width="3162px" zoomAndPan="magnify"><?plantuml 1.2026.6?><defs/><g><!--class Property--><g class="entity" data-qualified-name="Property" data-source-line="1" id="ent0001"><rect fill="#F1F1F1" height="48" rx="2.5" ry="2.5" style="stroke:#181818;stroke-width:0.5;" width="91.7939" x="519.5" y="7"/><ellipse cx="534.5" cy="23" fill="#ADD1B2" rx="11" ry="11" style="stroke:#181818;stroke-width:1;"/><path d="M537.4688,28.6406 Q536.8906,28.9375 536.25,29.0781 Q535.6094,29.2344 534.9063,29.2344 Q532.4063,29.2344 531.0781,27.5938 Q529.7656,25.9375 529.7656,22.8125 Q529.7656,19.6875 531.0781,18.0313 Q532.4063,16.375 534.9063,16.375 Q535.6094,16.375 536.25,16.5313 Q536.9063,16.6875 537.4688,16.9844 L537.4688,19.7031 Q536.8438,19.125 536.25,18.8594 Q535.6563,18.5781 535.0313,18.5781 Q533.6875,18.5781 533,19.6563 Q532.3125,20.7188 532.3125,22.8125 Q532.3125,24.9063 533,25.9844 Q533.6875,27.0469 535.0313,27.0469 Q535.6563,27.0469 536.25,26.7813 Q536.8438,26.5 537.4688,25.9219 L537.4688,28.6406 Z " fill="#000000"/><text fill="#000000" font-family="sans-serif" font-size="14" lengthAdjust="spacing" textLength="59.7939" x="548.5" y="27.8467">Property</text><line style="stroke:#181818;stroke-width:0.5;" x1="520.5" x2="610.2939" y1="39" y2="39"/><line style="stroke:#181818;stroke-width:0.5;" x1="520.5" x2="610.2939" y1="47" y2="47"/></g><!--class ActuatableProperty--><g class="entity" data-qualified-name="ActuatableProperty" data-source-line="1" id="ent0002"><rect fill="#F1F1F1" height="48" rx="2.5" ry="2.5" style="stroke:#181818;stroke-width:0.5;" width="167.4678" x="327" y="115"/><ellipse cx="342" cy="131" fill="#ADD1B2" rx="11" ry="11" style="stroke:#181818;stroke-width:1;"/><path d="M344.9688,136.6406 Q344.3906,136.9375 343.75,137.0781 Q343.1094,137.2344 342.4063,137.2344 Q339.9063,137.2344 338.5781,135.5938 Q337.2656,133.9375 337.2656,130.8125 Q337.2656,127.6875 338.5781,126.0313 Q339.9063,124.375 342.4063,124.375 Q343.1094,124.375 343.75,124.5313 Q344.4063,124.6875 344.9688,124.9844 L344.9688,127.7031 Q344.3438,127.125 343.75,126.8594 Q343.1563,126.5781 342.5313,126.5781 Q341.1875,126.5781 340.5,127.6563 Q339.8125,128.7188 339.8125,130.8125 Q339.8125,132.9063 340.5,133.9844 Q341.1875,135.0469 342.5313,135.0469 Q343.1563,135.0469 343.75,134.7813 Q344.3438,134.5 344.9688,133.9219 L344.9688,136.6406 Z " fill="#000000"/><text fill="#000000" font-family="sans-serif" font-size="14" lengthAdjust="spacing" textLength="135.4678" x="356" y="135.8467">ActuatableProperty</text><line style="stroke:#181818;stroke-width:0.5;" x1="328" x2="493.4678" y1="147" y2="147"/><line style="stroke:#181818;stroke-width:0.5;" x1="328" x2="493.4678" y1="155" y2="155"/></g><!--class Sample--><g class="entity" data-qualified-name="Sample" data-source-line="2" id="ent0004"><rect fill="#F1F1F1" height="48" rx="2.5" ry="2.5" style="stroke:#181818;stroke-width:0.5;" width="84.4932" x="937.5" y="7"/><ellipse cx="952.5" cy="23" fill="#ADD1B2" rx="11" ry="11" style="stroke:#181818;stroke-width:1;"/><path d="M955.4688,28.6406 Q954.8906,28.9375 954.25,29.0781 Q953.6094,29.2344 952.9063,29.2344 Q950.4063,29.2344 949.0781,27.5938 Q947.7656,25.9375 947.7656,22.8125 Q947.7656,19.6875 949.0781,18.0313 Q950.4063,16.375 952.9063,16.375 Q953.6094,16.375 954.25,16.5313 Q954.9063,16.6875 955.4688,16.9844 L955.4688,19.7031 Q954.8438,19.125 954.25,18.8594 Q953.6563,18.5781 953.0313,18.5781 Q951.6875,18.5781 951,19.6563 Q950.3125,20.7188 950.3125,22.8125 Q950.3125,24.9063 951,25.9844 Q951.6875,27.0469 953.0313,27.0469 Q953.6563,27.0469 954.25,26.7813 Q954.8438,26.5 955.4688,25.9219 L955.4688,28.6406 Z " fill="#000000"/><text fill="#000000" font-family="sans-serif" font-size="14" lengthAdjust="spacing" textLength="52.4932" x="966.5" y="27.8467">Sample</text><line style="stroke:#181818;stroke-width:0.5;" x1="938.5" x2="1020.9932" y1="39" y2="39"/><line style="stroke:#181818;stroke-width:0.5;" x1="938.5" x2="1020.9932" y1="47" y2="47"/></g><!--class MaterialSample--><g class="entity" data-qualified-name="MaterialSample" data-source-line="2" id="ent0005"><rect fill="#F1F1F1" height="48" rx="2.5" ry="2.5" style="stroke:#181818;stroke-width:0.5;" width="141.3682" x="737" y="115"/><ellipse cx="752" cy="131" fill="#ADD1B2" rx="11" ry="11" style="stroke:#181818;stroke-width:1;"/><path d="M754.9688,136.6406 Q754.3906,136.9375 753.75,137.0781 Q753.1094,137.2344 752.4063,137.2344 Q749.9063,137.2344 748.5781,135.5938 Q747.2656,133.9375 747.2656,130.8125 Q747.2656,127.6875 748.5781,126.0313 Q749.9063,124.375 752.4063,124.375 Q753.1094,124.375 753.75,124.5313 Q754.4063,124.6875 754.9688,124.9844 L754.9688,127.7031 Q754.3438,127.125 753.75,126.8594 Q753.1563,126.5781 752.5313,126.5781 Q751.1875,126.5781 750.5,127.6563 Q749.8125,128.7188 749.8125,130.8125 Q749.8125,132.9063 750.5,133.9844 Q751.1875,135.0469 752.5313,135.0469 Q753.1563,135.0469 753.75,134.7813 Q754.3438,134.5 754.9688,133.9219 L754.9688,136.6406 Z " fill="#000000"/><text fill="#000000" font-family="sans-serif" font-size="14" lengthAdjust="spacing" textLength="109.3682" x="766" y="135.8467">MaterialSample</text><line style="stroke:#181818;stroke-width:0.5;" x1="738" x2="877.3682" y1="147" y2="147"/><line style="stroke:#181818;stroke-width:0.5;" x1="738" x2="877.3682" y1="155" y2="155"/></g><!--class ObservableProperty--><g class="entity" data-qualified-name="ObservableProperty" data-source-line="3" id="ent0007"><rect fill="#F1F1F1" height="48" rx="2.5" ry="2.5" style="stroke:#181818;stroke-width:0.5;" width="171.6172" x="529.5" y="115"/><ellipse cx="544.5" cy="131" fill="#ADD1B2" rx="11" ry="11" style="stroke:#181818;stroke-width:1;"/><path d="M547.4688,136.6406 Q546.8906,136.9375 546.25,137.0781 Q545.6094,137.2344 544.9063,137.2344 Q542.4063,137.2344 541.0781,135.5938 Q539.7656,133.9375 539.7656,130.8125 Q539.7656,127.6875 541.0781,126.0313 Q542.4063,124.375 544.9063,124.375 Q545.6094,124.375 546.25,124.5313 Q546.9063,124.6875 547.4688,124.9844 L547.4688,127.7031 Q546.8438,127.125 546.25,126.8594 Q545.6563,126.5781 545.0313,126.5781 Q543.6875,126.5781 543,127.6563 Q542.3125,128.7188 542.3125,130.8125 Q542.3125,132.9063 543,133.9844 Q543.6875,135.0469 545.0313,135.0469 Q545.6563,135.0469 546.25,134.7813 Q546.8438,134.5 547.4688,133.9219 L547.4688,136.6406 Z " fill="#000000"/><text fill="#000000" font-family="sans-serif" font-size="14" lengthAdjust="spacing" textLength="139.6172" x="558.5" y="135.8467">ObservableProperty</text><line style="stroke:#181818;stroke-width:0.5;" x1="530.5" x2="700.1172" y1="147" y2="147"/><line style="stroke:#181818;stroke-width:0.5;" x1="530.5" x2="700.1172" y1="155" y2="155"/></g><!--class SpatialSample--><g class="entity" data-qualified-name="SpatialSample" data-source-line="4" id="ent0009"><rect fill="#F1F1F1" height="48" rx="2.5" ry="2.5" style="stroke:#181818;stroke-width:0.5;" width="132.6934" x="913" y="115"/><ellipse cx="928" cy="131" fill="#ADD1B2" rx="11" ry="11" style="stroke:#181818;stroke-width:1;"/><path d="M930.9688,136.6406 Q930.3906,136.9375 929.75,137.0781 Q929.1094,137.2344 928.4063,137.2344 Q925.9063,137.2344 924.5781,135.5938 Q923.2656,133.9375 923.2656,130.8125 Q923.2656,127.6875 924.5781,126.0313 Q925.9063,124.375 928.4063,124.375 Q929.1094,124.375 929.75,124.5313 Q930.4063,124.6875 930.9688,124.9844 L930.9688,127.7031 Q930.3438,127.125 929.75,126.8594 Q929.1563,126.5781 928.5313,126.5781 Q927.1875,126.5781 926.5,127.6563 Q925.8125,128.7188 925.8125,130.8125 Q925.8125,132.9063 926.5,133.9844 Q927.1875,135.0469 928.5313,135.0469 Q929.1563,135.0469 929.75,134.7813 Q930.3438,134.5 930.9688,133.9219 L930.9688,136.6406 Z " fill="#000000"/><text fill="#000000" font-family="sans-serif" font-size="14" lengthAdjust="spacing" textLength="100.6934" x="942" y="135.8467">SpatialSample</text><line style="stroke:#181818;stroke-width:0.5;" x1="914" x2="1044.6934" y1="147" y2="147"/><line style="stroke:#181818;stroke-width:0.5;" x1="914" x2="1044.6934" y1="155" y2="155"/></g><!--class StatisticalSample--><g class="entity" data-qualified-name="StatisticalSample" data-source-line="5" id="ent0011"><rect fill="#F1F1F1" height="48" rx="2.5" ry="2.5" style="stroke:#181818;stroke-width:0.5;" width="153.666" x="1081.5" y="115"/><ellipse cx="1096.5" cy="131" fill="#ADD1B2" rx="11" ry="11" style="stroke:#181818;stroke-width:1;"/><path d="M1099.4688,136.6406 Q1098.8906,136.9375 1098.25,137.0781 Q1097.6094,137.2344 1096.9063,137.2344 Q1094.4063,137.2344 1093.0781,135.5938 Q1091.7656,133.9375 1091.7656,130.8125 Q1091.7656,127.6875 1093.0781,126.0313 Q1094.4063,124.375 1096.9063,124.375 Q1097.6094,124.375 1098.25,124.5313 Q1098.9063,124.6875 1099.4688,124.9844 L1099.4688,127.7031 Q1098.8438,127.125 1098.25,126.8594 Q1097.6563,126.5781 1097.0313,126.5781 Q1095.6875,126.5781 1095,127.6563 Q1094.3125,128.7188 1094.3125,130.8125 Q1094.3125,132.9063 1095,133.9844 Q1095.6875,135.0469 1097.0313,135.0469 Q1097.6563,135.0469 1098.25,134.7813 Q1098.8438,134.5 1099.4688,133.9219 L1099.4688,136.6406 Z " fill="#000000"/><text fill="#000000" font-family="sans-serif" font-size="14" lengthAdjust="spacing" textLength="121.666" x="1110.5" y="135.8467">StatisticalSample</text><line style="stroke:#181818;stroke-width:0.5;" x1="1082.5" x2="1234.166" y1="147" y2="147"/><line style="stroke:#181818;stroke-width:0.5;" x1="1082.5" x2="1234.166" y1="155" y2="155"/></g><!--class Procedure--><g class="entity" data-qualified-name="Procedure" data-source-line="6" id="ent0013"><rect fill="#F1F1F1" height="48" rx="2.5" ry="2.5" style="stroke:#181818;stroke-width:0.5;" width="103.2031" x="1513" y="7"/><ellipse cx="1528" cy="23" fill="#ADD1B2" rx="11" ry="11" style="stroke:#181818;stroke-width:1;"/><path d="M1530.9688,28.6406 Q1530.3906,28.9375 1529.75,29.0781 Q1529.1094,29.2344 1528.4063,29.2344 Q1525.9063,29.2344 1524.5781,27.5938 Q1523.2656,25.9375 1523.2656,22.8125 Q1523.2656,19.6875 1524.5781,18.0313 Q1525.9063,16.375 1528.4063,16.375 Q1529.1094,16.375 1529.75,16.5313 Q1530.4063,16.6875 1530.9688,16.9844 L1530.9688,19.7031 Q1530.3438,19.125 1529.75,18.8594 Q1529.1563,18.5781 1528.5313,18.5781 Q1527.1875,18.5781 1526.5,19.6563 Q1525.8125,20.7188 1525.8125,22.8125 Q1525.8125,24.9063 1526.5,25.9844 Q1527.1875,27.0469 1528.5313,27.0469 Q1529.1563,27.0469 1529.75,26.7813 Q1530.3438,26.5 1530.9688,25.9219 L1530.9688,28.6406 Z " fill="#000000"/><text fill="#000000" font-family="sans-serif" font-size="14" lengthAdjust="spacing" textLength="71.2031" x="1542" y="27.8467">Procedure</text><line style="stroke:#181818;stroke-width:0.5;" x1="1514" x2="1615.2031" y1="39" y2="39"/><line style="stroke:#181818;stroke-width:0.5;" x1="1514" x2="1615.2031" y1="47" y2="47"/></g><!--class ActuatingProcedure--><g class="entity" data-qualified-name="ActuatingProcedure" data-source-line="6" id="ent0014"><rect fill="#F1F1F1" height="48" rx="2.5" ry="2.5" style="stroke:#181818;stroke-width:0.5;" width="170.5576" x="1271" y="115"/><ellipse cx="1286" cy="131" fill="#ADD1B2" rx="11" ry="11" style="stroke:#181818;stroke-width:1;"/><path d="M1288.9688,136.6406 Q1288.3906,136.9375 1287.75,137.0781 Q1287.1094,137.2344 1286.4063,137.2344 Q1283.9063,137.2344 1282.5781,135.5938 Q1281.2656,133.9375 1281.2656,130.8125 Q1281.2656,127.6875 1282.5781,126.0313 Q1283.9063,124.375 1286.4063,124.375 Q1287.1094,124.375 1287.75,124.5313 Q1288.4063,124.6875 1288.9688,124.9844 L1288.9688,127.7031 Q1288.3438,127.125 1287.75,126.8594 Q1287.1563,126.5781 1286.5313,126.5781 Q1285.1875,126.5781 1284.5,127.6563 Q1283.8125,128.7188 1283.8125,130.8125 Q1283.8125,132.9063 1284.5,133.9844 Q1285.1875,135.0469 1286.5313,135.0469 Q1287.1563,135.0469 1287.75,134.7813 Q1288.3438,134.5 1288.9688,133.9219 L1288.9688,136.6406 Z " fill="#000000"/><text fill="#000000" font-family="sans-serif" font-size="14" lengthAdjust="spacing" textLength="138.5576" x="1300" y="135.8467">ActuatingProcedure</text><line style="stroke:#181818;stroke-width:0.5;" x1="1272" x2="1440.5576" y1="147" y2="147"/><line style="stroke:#181818;stroke-width:0.5;" x1="1272" x2="1440.5576" y1="155" y2="155"/></g><!--class ObservingProcedure--><g class="entity" data-qualified-name="ObservingProcedure" data-source-line="7" id="ent0016"><rect fill="#F1F1F1" height="48" rx="2.5" ry="2.5" style="stroke:#181818;stroke-width:0.5;" width="174.707" x="1477" y="115"/><ellipse cx="1492" cy="131" fill="#ADD1B2" rx="11" ry="11" style="stroke:#181818;stroke-width:1;"/><path d="M1494.9688,136.6406 Q1494.3906,136.9375 1493.75,137.0781 Q1493.1094,137.2344 1492.4063,137.2344 Q1489.9063,137.2344 1488.5781,135.5938 Q1487.2656,133.9375 1487.2656,130.8125 Q1487.2656,127.6875 1488.5781,126.0313 Q1489.9063,124.375 1492.4063,124.375 Q1493.1094,124.375 1493.75,124.5313 Q1494.4063,124.6875 1494.9688,124.9844 L1494.9688,127.7031 Q1494.3438,127.125 1493.75,126.8594 Q1493.1563,126.5781 1492.5313,126.5781 Q1491.1875,126.5781 1490.5,127.6563 Q1489.8125,128.7188 1489.8125,130.8125 Q1489.8125,132.9063 1490.5,133.9844 Q1491.1875,135.0469 1492.5313,135.0469 Q1493.1563,135.0469 1493.75,134.7813 Q1494.3438,134.5 1494.9688,133.9219 L1494.9688,136.6406 Z " fill="#000000"/><text fill="#000000" font-family="sans-serif" font-size="14" lengthAdjust="spacing" textLength="142.707" x="1506" y="135.8467">ObservingProcedure</text><line style="stroke:#181818;stroke-width:0.5;" x1="1478" x2="1650.707" y1="147" y2="147"/><line style="stroke:#181818;stroke-width:0.5;" x1="1478" x2="1650.707" y1="155" y2="155"/></g><!--class SamplingProcedure--><g class="entity" data-qualified-name="SamplingProcedure" data-source-line="8" id="ent0018"><rect fill="#F1F1F1" height="48" rx="2.5" ry="2.5" style="stroke:#181818;stroke-width:0.5;" width="168.7324" x="1687" y="115"/><ellipse cx="1702" cy="131" fill="#ADD1B2" rx="11" ry="11" style="stroke:#181818;stroke-width:1;"/><path d="M1704.9688,136.6406 Q1704.3906,136.9375 1703.75,137.0781 Q1703.1094,137.2344 1702.4063,137.2344 Q1699.9063,137.2344 1698.5781,135.5938 Q1697.2656,133.9375 1697.2656,130.8125 Q1697.2656,127.6875 1698.5781,126.0313 Q1699.9063,124.375 1702.4063,124.375 Q1703.1094,124.375 1703.75,124.5313 Q1704.4063,124.6875 1704.9688,124.9844 L1704.9688,127.7031 Q1704.3438,127.125 1703.75,126.8594 Q1703.1563,126.5781 1702.5313,126.5781 Q1701.1875,126.5781 1700.5,127.6563 Q1699.8125,128.7188 1699.8125,130.8125 Q1699.8125,132.9063 1700.5,133.9844 Q1701.1875,135.0469 1702.5313,135.0469 Q1703.1563,135.0469 1703.75,134.7813 Q1704.3438,134.5 1704.9688,133.9219 L1704.9688,136.6406 Z " fill="#000000"/><text fill="#000000" font-family="sans-serif" font-size="14" lengthAdjust="spacing" textLength="136.7324" x="1716" y="135.8467">SamplingProcedure</text><line style="stroke:#181818;stroke-width:0.5;" x1="1688" x2="1854.7324" y1="147" y2="147"/><line style="stroke:#181818;stroke-width:0.5;" x1="1688" x2="1854.7324" y1="155" y2="155"/></g><!--class Asset--><g class="entity" data-qualified-name="Asset" data-source-line="9" id="ent0020"><rect fill="#F1F1F1" height="48" rx="2.5" ry="2.5" style="stroke:#181818;stroke-width:0.5;" width="70.2676" x="1962.5" y="7"/><ellipse cx="1977.5" cy="23" fill="#ADD1B2" rx="11" ry="11" style="stroke:#181818;stroke-width:1;"/><path d="M1980.4688,28.6406 Q1979.8906,28.9375 1979.25,29.0781 Q1978.6094,29.2344 1977.9063,29.2344 Q1975.4063,29.2344 1974.0781,27.5938 Q1972.7656,25.9375 1972.7656,22.8125 Q1972.7656,19.6875 1974.0781,18.0313 Q1975.4063,16.375 1977.9063,16.375 Q1978.6094,16.375 1979.25,16.5313 Q1979.9063,16.6875 1980.4688,16.9844 L1980.4688,19.7031 Q1979.8438,19.125 1979.25,18.8594 Q1978.6563,18.5781 1978.0313,18.5781 Q1976.6875,18.5781 1976,19.6563 Q1975.3125,20.7188 1975.3125,22.8125 Q1975.3125,24.9063 1976,25.9844 Q1976.6875,27.0469 1978.0313,27.0469 Q1978.6563,27.0469 1979.25,26.7813 Q1979.8438,26.5 1980.4688,25.9219 L1980.4688,28.6406 Z " fill="#000000"/><text fill="#000000" font-family="sans-serif" font-size="14" lengthAdjust="spacing" textLength="38.2676" x="1991.5" y="27.8467">Asset</text><line style="stroke:#181818;stroke-width:0.5;" x1="1963.5" x2="2031.7676" y1="39" y2="39"/><line style="stroke:#181818;stroke-width:0.5;" x1="1963.5" x2="2031.7676" y1="47" y2="47"/></g><!--class Platform--><g class="entity" data-qualified-name="Platform" data-source-line="9" id="ent0021"><rect fill="#F1F1F1" height="48" rx="2.5" ry="2.5" style="stroke:#181818;stroke-width:0.5;" width="91.2881" x="1891" y="115"/><ellipse cx="1906" cy="131" fill="#ADD1B2" rx="11" ry="11" style="stroke:#181818;stroke-width:1;"/><path d="M1908.9688,136.6406 Q1908.3906,136.9375 1907.75,137.0781 Q1907.1094,137.2344 1906.4063,137.2344 Q1903.9063,137.2344 1902.5781,135.5938 Q1901.2656,133.9375 1901.2656,130.8125 Q1901.2656,127.6875 1902.5781,126.0313 Q1903.9063,124.375 1906.4063,124.375 Q1907.1094,124.375 1907.75,124.5313 Q1908.4063,124.6875 1908.9688,124.9844 L1908.9688,127.7031 Q1908.3438,127.125 1907.75,126.8594 Q1907.1563,126.5781 1906.5313,126.5781 Q1905.1875,126.5781 1904.5,127.6563 Q1903.8125,128.7188 1903.8125,130.8125 Q1903.8125,132.9063 1904.5,133.9844 Q1905.1875,135.0469 1906.5313,135.0469 Q1907.1563,135.0469 1907.75,134.7813 Q1908.3438,134.5 1908.9688,133.9219 L1908.9688,136.6406 Z " fill="#000000"/><text fill="#000000" font-family="sans-serif" font-size="14" lengthAdjust="spacing" textLength="59.2881" x="1920" y="135.8467">Platform</text><line style="stroke:#181818;stroke-width:0.5;" x1="1892" x2="1981.2881" y1="147" y2="147"/><line style="stroke:#181818;stroke-width:0.5;" x1="1892" x2="1981.2881" y1="155" y2="155"/></g><!--class System--><g class="entity" data-qualified-name="System" data-source-line="10" id="ent0023"><rect fill="#F1F1F1" height="48" rx="2.5" ry="2.5" style="stroke:#181818;stroke-width:0.5;" width="84.2061" x="2017.5" y="115"/><ellipse cx="2032.5" cy="131" fill="#ADD1B2" rx="11" ry="11" style="stroke:#181818;stroke-width:1;"/><path d="M2035.4688,136.6406 Q2034.8906,136.9375 2034.25,137.0781 Q2033.6094,137.2344 2032.9063,137.2344 Q2030.4063,137.2344 2029.0781,135.5938 Q2027.7656,133.9375 2027.7656,130.8125 Q2027.7656,127.6875 2029.0781,126.0313 Q2030.4063,124.375 2032.9063,124.375 Q2033.6094,124.375 2034.25,124.5313 Q2034.9063,124.6875 2035.4688,124.9844 L2035.4688,127.7031 Q2034.8438,127.125 2034.25,126.8594 Q2033.6563,126.5781 2033.0313,126.5781 Q2031.6875,126.5781 2031,127.6563 Q2030.3125,128.7188 2030.3125,130.8125 Q2030.3125,132.9063 2031,133.9844 Q2031.6875,135.0469 2033.0313,135.0469 Q2033.6563,135.0469 2034.25,134.7813 Q2034.8438,134.5 2035.4688,133.9219 L2035.4688,136.6406 Z " fill="#000000"/><text fill="#000000" font-family="sans-serif" font-size="14" lengthAdjust="spacing" textLength="52.2061" x="2046.5" y="135.8467">System</text><line style="stroke:#181818;stroke-width:0.5;" x1="2018.5" x2="2100.7061" y1="147" y2="147"/><line style="stroke:#181818;stroke-width:0.5;" x1="2018.5" x2="2100.7061" y1="155" y2="155"/></g><!--class Sampler--><g class="entity" data-qualified-name="Sampler" data-source-line="10" id="ent0024"><rect fill="#F1F1F1" height="48" rx="2.5" ry="2.5" style="stroke:#181818;stroke-width:0.5;" width="90.249" x="1888.5" y="223"/><ellipse cx="1903.5" cy="239" fill="#ADD1B2" rx="11" ry="11" style="stroke:#181818;stroke-width:1;"/><path d="M1906.4688,244.6406 Q1905.8906,244.9375 1905.25,245.0781 Q1904.6094,245.2344 1903.9063,245.2344 Q1901.4063,245.2344 1900.0781,243.5938 Q1898.7656,241.9375 1898.7656,238.8125 Q1898.7656,235.6875 1900.0781,234.0313 Q1901.4063,232.375 1903.9063,232.375 Q1904.6094,232.375 1905.25,232.5313 Q1905.9063,232.6875 1906.4688,232.9844 L1906.4688,235.7031 Q1905.8438,235.125 1905.25,234.8594 Q1904.6563,234.5781 1904.0313,234.5781 Q1902.6875,234.5781 1902,235.6563 Q1901.3125,236.7188 1901.3125,238.8125 Q1901.3125,240.9063 1902,241.9844 Q1902.6875,243.0469 1904.0313,243.0469 Q1904.6563,243.0469 1905.25,242.7813 Q1905.8438,242.5 1906.4688,241.9219 L1906.4688,244.6406 Z " fill="#000000"/><text fill="#000000" font-family="sans-serif" font-size="14" lengthAdjust="spacing" textLength="58.249" x="1917.5" y="243.8467">Sampler</text><line style="stroke:#181818;stroke-width:0.5;" x1="1889.5" x2="1977.749" y1="255" y2="255"/><line style="stroke:#181818;stroke-width:0.5;" x1="1889.5" x2="1977.749" y1="263" y2="263"/></g><!--class Actuator--><g class="entity" data-qualified-name="Actuator" data-source-line="11" id="ent0026"><rect fill="#F1F1F1" height="48" rx="2.5" ry="2.5" style="stroke:#181818;stroke-width:0.5;" width="92.0264" x="2013.5" y="223"/><ellipse cx="2028.5" cy="239" fill="#ADD1B2" rx="11" ry="11" style="stroke:#181818;stroke-width:1;"/><path d="M2031.4688,244.6406 Q2030.8906,244.9375 2030.25,245.0781 Q2029.6094,245.2344 2028.9063,245.2344 Q2026.4063,245.2344 2025.0781,243.5938 Q2023.7656,241.9375 2023.7656,238.8125 Q2023.7656,235.6875 2025.0781,234.0313 Q2026.4063,232.375 2028.9063,232.375 Q2029.6094,232.375 2030.25,232.5313 Q2030.9063,232.6875 2031.4688,232.9844 L2031.4688,235.7031 Q2030.8438,235.125 2030.25,234.8594 Q2029.6563,234.5781 2029.0313,234.5781 Q2027.6875,234.5781 2027,235.6563 Q2026.3125,236.7188 2026.3125,238.8125 Q2026.3125,240.9063 2027,241.9844 Q2027.6875,243.0469 2029.0313,243.0469 Q2029.6563,243.0469 2030.25,242.7813 Q2030.8438,242.5 2031.4688,241.9219 L2031.4688,244.6406 Z " fill="#000000"/><text fill="#000000" font-family="sans-serif" font-size="14" lengthAdjust="spacing" textLength="60.0264" x="2042.5" y="243.8467">Actuator</text><line style="stroke:#181818;stroke-width:0.5;" x1="2014.5" x2="2104.5264" y1="255" y2="255"/><line style="stroke:#181818;stroke-width:0.5;" x1="2014.5" x2="2104.5264" y1="263" y2="263"/></g><!--class ExecutionCollection--><g class="entity" data-qualified-name="ExecutionCollection" data-source-line="12" id="ent0028"><rect fill="#F1F1F1" height="48" rx="2.5" ry="2.5" style="stroke:#181818;stroke-width:0.5;" width="170.3799" x="2337.5" y="7"/><ellipse cx="2352.5" cy="23" fill="#ADD1B2" rx="11" ry="11" style="stroke:#181818;stroke-width:1;"/><path d="M2355.4688,28.6406 Q2354.8906,28.9375 2354.25,29.0781 Q2353.6094,29.2344 2352.9063,29.2344 Q2350.4063,29.2344 2349.0781,27.5938 Q2347.7656,25.9375 2347.7656,22.8125 Q2347.7656,19.6875 2349.0781,18.0313 Q2350.4063,16.375 2352.9063,16.375 Q2353.6094,16.375 2354.25,16.5313 Q2354.9063,16.6875 2355.4688,16.9844 L2355.4688,19.7031 Q2354.8438,19.125 2354.25,18.8594 Q2353.6563,18.5781 2353.0313,18.5781 Q2351.6875,18.5781 2351,19.6563 Q2350.3125,20.7188 2350.3125,22.8125 Q2350.3125,24.9063 2351,25.9844 Q2351.6875,27.0469 2353.0313,27.0469 Q2353.6563,27.0469 2354.25,26.7813 Q2354.8438,26.5 2355.4688,25.9219 L2355.4688,28.6406 Z " fill="#000000"/><text fill="#000000" font-family="sans-serif" font-size="14" lengthAdjust="spacing" textLength="138.3799" x="2366.5" y="27.8467">ExecutionCollection</text><line style="stroke:#181818;stroke-width:0.5;" x1="2338.5" x2="2506.8799" y1="39" y2="39"/><line style="stroke:#181818;stroke-width:0.5;" x1="2338.5" x2="2506.8799" y1="47" y2="47"/></g><!--class SamplingCollection--><g class="entity" data-qualified-name="SamplingCollection" data-source-line="12" id="ent0029"><rect fill="#F1F1F1" height="48" rx="2.5" ry="2.5" style="stroke:#181818;stroke-width:0.5;" width="166.7773" x="2137" y="115"/><ellipse cx="2152" cy="131" fill="#ADD1B2" rx="11" ry="11" style="stroke:#181818;stroke-width:1;"/><path d="M2154.9688,136.6406 Q2154.3906,136.9375 2153.75,137.0781 Q2153.1094,137.2344 2152.4063,137.2344 Q2149.9063,137.2344 2148.5781,135.5938 Q2147.2656,133.9375 2147.2656,130.8125 Q2147.2656,127.6875 2148.5781,126.0313 Q2149.9063,124.375 2152.4063,124.375 Q2153.1094,124.375 2153.75,124.5313 Q2154.4063,124.6875 2154.9688,124.9844 L2154.9688,127.7031 Q2154.3438,127.125 2153.75,126.8594 Q2153.1563,126.5781 2152.5313,126.5781 Q2151.1875,126.5781 2150.5,127.6563 Q2149.8125,128.7188 2149.8125,130.8125 Q2149.8125,132.9063 2150.5,133.9844 Q2151.1875,135.0469 2152.5313,135.0469 Q2153.1563,135.0469 2153.75,134.7813 Q2154.3438,134.5 2154.9688,133.9219 L2154.9688,136.6406 Z " fill="#000000"/><text fill="#000000" font-family="sans-serif" font-size="14" lengthAdjust="spacing" textLength="134.7773" x="2166" y="135.8467">SamplingCollection</text><line style="stroke:#181818;stroke-width:0.5;" x1="2138" x2="2302.7773" y1="147" y2="147"/><line style="stroke:#181818;stroke-width:0.5;" x1="2138" x2="2302.7773" y1="155" y2="155"/></g><!--class Sensor--><g class="entity" data-qualified-name="Sensor" data-source-line="14" id="ent0032"><rect fill="#F1F1F1" height="48" rx="2.5" ry="2.5" style="stroke:#181818;stroke-width:0.5;" width="79.9883" x="2140.5" y="223"/><ellipse cx="2155.5" cy="239" fill="#ADD1B2" rx="11" ry="11" style="stroke:#181818;stroke-width:1;"/><path d="M2158.4688,244.6406 Q2157.8906,244.9375 2157.25,245.0781 Q2156.6094,245.2344 2155.9063,245.2344 Q2153.4063,245.2344 2152.0781,243.5938 Q2150.7656,241.9375 2150.7656,238.8125 Q2150.7656,235.6875 2152.0781,234.0313 Q2153.4063,232.375 2155.9063,232.375 Q2156.6094,232.375 2157.25,232.5313 Q2157.9063,232.6875 2158.4688,232.9844 L2158.4688,235.7031 Q2157.8438,235.125 2157.25,234.8594 Q2156.6563,234.5781 2156.0313,234.5781 Q2154.6875,234.5781 2154,235.6563 Q2153.3125,236.7188 2153.3125,238.8125 Q2153.3125,240.9063 2154,241.9844 Q2154.6875,243.0469 2156.0313,243.0469 Q2156.6563,243.0469 2157.25,242.7813 Q2157.8438,242.5 2158.4688,241.9219 L2158.4688,244.6406 Z " fill="#000000"/><text fill="#000000" font-family="sans-serif" font-size="14" lengthAdjust="spacing" textLength="47.9883" x="2169.5" y="243.8467">Sensor</text><line style="stroke:#181818;stroke-width:0.5;" x1="2141.5" x2="2219.4883" y1="255" y2="255"/><line style="stroke:#181818;stroke-width:0.5;" x1="2141.5" x2="2219.4883" y1="263" y2="263"/></g><!--class Execution--><g class="entity" data-qualified-name="Execution" data-source-line="15" id="ent0034"><rect fill="#F1F1F1" height="48" rx="2.5" ry="2.5" style="stroke:#181818;stroke-width:0.5;" width="101.1318" x="2895" y="7"/><ellipse cx="2910" cy="23" fill="#ADD1B2" rx="11" ry="11" style="stroke:#181818;stroke-width:1;"/><path d="M2912.9688,28.6406 Q2912.3906,28.9375 2911.75,29.0781 Q2911.1094,29.2344 2910.4063,29.2344 Q2907.9063,29.2344 2906.5781,27.5938 Q2905.2656,25.9375 2905.2656,22.8125 Q2905.2656,19.6875 2906.5781,18.0313 Q2907.9063,16.375 2910.4063,16.375 Q2911.1094,16.375 2911.75,16.5313 Q2912.4063,16.6875 2912.9688,16.9844 L2912.9688,19.7031 Q2912.3438,19.125 2911.75,18.8594 Q2911.1563,18.5781 2910.5313,18.5781 Q2909.1875,18.5781 2908.5,19.6563 Q2907.8125,20.7188 2907.8125,22.8125 Q2907.8125,24.9063 2908.5,25.9844 Q2909.1875,27.0469 2910.5313,27.0469 Q2911.1563,27.0469 2911.75,26.7813 Q2912.3438,26.5 2912.9688,25.9219 L2912.9688,28.6406 Z " fill="#000000"/><text fill="#000000" font-family="sans-serif" font-size="14" lengthAdjust="spacing" textLength="69.1318" x="2924" y="27.8467">Execution</text><line style="stroke:#181818;stroke-width:0.5;" x1="2896" x2="2995.1318" y1="39" y2="39"/><line style="stroke:#181818;stroke-width:0.5;" x1="2896" x2="2995.1318" y1="47" y2="47"/></g><!--class Sampling--><g class="entity" data-qualified-name="Sampling" data-source-line="15" id="ent0035"><rect fill="#F1F1F1" height="48" rx="2.5" ry="2.5" style="stroke:#181818;stroke-width:0.5;" width="97.5293" x="2762.5" y="115"/><ellipse cx="2777.5" cy="131" fill="#ADD1B2" rx="11" ry="11" style="stroke:#181818;stroke-width:1;"/><path d="M2780.4688,136.6406 Q2779.8906,136.9375 2779.25,137.0781 Q2778.6094,137.2344 2777.9063,137.2344 Q2775.4063,137.2344 2774.0781,135.5938 Q2772.7656,133.9375 2772.7656,130.8125 Q2772.7656,127.6875 2774.0781,126.0313 Q2775.4063,124.375 2777.9063,124.375 Q2778.6094,124.375 2779.25,124.5313 Q2779.9063,124.6875 2780.4688,124.9844 L2780.4688,127.7031 Q2779.8438,127.125 2779.25,126.8594 Q2778.6563,126.5781 2778.0313,126.5781 Q2776.6875,126.5781 2776,127.6563 Q2775.3125,128.7188 2775.3125,130.8125 Q2775.3125,132.9063 2776,133.9844 Q2776.6875,135.0469 2778.0313,135.0469 Q2778.6563,135.0469 2779.25,134.7813 Q2779.8438,134.5 2780.4688,133.9219 L2780.4688,136.6406 Z " fill="#000000"/><text fill="#000000" font-family="sans-serif" font-size="14" lengthAdjust="spacing" textLength="65.5293" x="2791.5" y="135.8467">Sampling</text><line style="stroke:#181818;stroke-width:0.5;" x1="2763.5" x2="2859.0293" y1="147" y2="147"/><line style="stroke:#181818;stroke-width:0.5;" x1="2763.5" x2="2859.0293" y1="155" y2="155"/></g><!--class Actuation--><g class="entity" data-qualified-name="Actuation" data-source-line="16" id="ent0037"><rect fill="#F1F1F1" height="48" rx="2.5" ry="2.5" style="stroke:#181818;stroke-width:0.5;" width="99.0332" x="2896" y="115"/><ellipse cx="2911" cy="131" fill="#ADD1B2" rx="11" ry="11" style="stroke:#181818;stroke-width:1;"/><path d="M2913.9688,136.6406 Q2913.3906,136.9375 2912.75,137.0781 Q2912.1094,137.2344 2911.4063,137.2344 Q2908.9063,137.2344 2907.5781,135.5938 Q2906.2656,133.9375 2906.2656,130.8125 Q2906.2656,127.6875 2907.5781,126.0313 Q2908.9063,124.375 2911.4063,124.375 Q2912.1094,124.375 2912.75,124.5313 Q2913.4063,124.6875 2913.9688,124.9844 L2913.9688,127.7031 Q2913.3438,127.125 2912.75,126.8594 Q2912.1563,126.5781 2911.5313,126.5781 Q2910.1875,126.5781 2909.5,127.6563 Q2908.8125,128.7188 2908.8125,130.8125 Q2908.8125,132.9063 2909.5,133.9844 Q2910.1875,135.0469 2911.5313,135.0469 Q2912.1563,135.0469 2912.75,134.7813 Q2913.3438,134.5 2913.9688,133.9219 L2913.9688,136.6406 Z " fill="#000000"/><text fill="#000000" font-family="sans-serif" font-size="14" lengthAdjust="spacing" textLength="67.0332" x="2925" y="135.8467">Actuation</text><line style="stroke:#181818;stroke-width:0.5;" x1="2897" x2="2994.0332" y1="147" y2="147"/><line style="stroke:#181818;stroke-width:0.5;" x1="2897" x2="2994.0332" y1="155" y2="155"/></g><!--class ActuationCollection--><g class="entity" data-qualified-name="ActuationCollection" data-source-line="17" id="ent0039"><rect fill="#F1F1F1" height="48" rx="2.5" ry="2.5" style="stroke:#181818;stroke-width:0.5;" width="168.2813" x="2338.5" y="115"/><ellipse cx="2353.5" cy="131" fill="#ADD1B2" rx="11" ry="11" style="stroke:#181818;stroke-width:1;"/><path d="M2356.4688,136.6406 Q2355.8906,136.9375 2355.25,137.0781 Q2354.6094,137.2344 2353.9063,137.2344 Q2351.4063,137.2344 2350.0781,135.5938 Q2348.7656,133.9375 2348.7656,130.8125 Q2348.7656,127.6875 2350.0781,126.0313 Q2351.4063,124.375 2353.9063,124.375 Q2354.6094,124.375 2355.25,124.5313 Q2355.9063,124.6875 2356.4688,124.9844 L2356.4688,127.7031 Q2355.8438,127.125 2355.25,126.8594 Q2354.6563,126.5781 2354.0313,126.5781 Q2352.6875,126.5781 2352,127.6563 Q2351.3125,128.7188 2351.3125,130.8125 Q2351.3125,132.9063 2352,133.9844 Q2352.6875,135.0469 2354.0313,135.0469 Q2354.6563,135.0469 2355.25,134.7813 Q2355.8438,134.5 2356.4688,133.9219 L2356.4688,136.6406 Z " fill="#000000"/><text fill="#000000" font-family="sans-serif" font-size="14" lengthAdjust="spacing" textLength="136.2813" x="2367.5" y="135.8467">ActuationCollection</text><line style="stroke:#181818;stroke-width:0.5;" x1="2339.5" x2="2505.7813" y1="147" y2="147"/><line style="stroke:#181818;stroke-width:0.5;" x1="2339.5" x2="2505.7813" y1="155" y2="155"/></g><!--class ObservationCollection--><g class="entity" data-qualified-name="ObservationCollection" data-source-line="18" id="ent0041"><rect fill="#F1F1F1" height="48" rx="2.5" ry="2.5" style="stroke:#181818;stroke-width:0.5;" width="186.499" x="2541.5" y="115"/><ellipse cx="2556.5" cy="131" fill="#ADD1B2" rx="11" ry="11" style="stroke:#181818;stroke-width:1;"/><path d="M2559.4688,136.6406 Q2558.8906,136.9375 2558.25,137.0781 Q2557.6094,137.2344 2556.9063,137.2344 Q2554.4063,137.2344 2553.0781,135.5938 Q2551.7656,133.9375 2551.7656,130.8125 Q2551.7656,127.6875 2553.0781,126.0313 Q2554.4063,124.375 2556.9063,124.375 Q2557.6094,124.375 2558.25,124.5313 Q2558.9063,124.6875 2559.4688,124.9844 L2559.4688,127.7031 Q2558.8438,127.125 2558.25,126.8594 Q2557.6563,126.5781 2557.0313,126.5781 Q2555.6875,126.5781 2555,127.6563 Q2554.3125,128.7188 2554.3125,130.8125 Q2554.3125,132.9063 2555,133.9844 Q2555.6875,135.0469 2557.0313,135.0469 Q2557.6563,135.0469 2558.25,134.7813 Q2558.8438,134.5 2559.4688,133.9219 L2559.4688,136.6406 Z " fill="#000000"/><text fill="#000000" font-family="sans-serif" font-size="14" lengthAdjust="spacing" textLength="154.499" x="2570.5" y="135.8467">ObservationCollection</text><line style="stroke:#181818;stroke-width:0.5;" x1="2542.5" x2="2726.999" y1="147" y2="147"/><line style="stroke:#181818;stroke-width:0.5;" x1="2542.5" x2="2726.999" y1="155" y2="155"/></g><!--class Observation--><g class="entity" data-qualified-name="Observation" data-source-line="19" id="ent0043"><rect fill="#F1F1F1" height="48" rx="2.5" ry="2.5" style="stroke:#181818;stroke-width:0.5;" width="117.251" x="3030" y="115"/><ellipse cx="3045" cy="131" fill="#ADD1B2" rx="11" ry="11" style="stroke:#181818;stroke-width:1;"/><path d="M3047.9688,136.6406 Q3047.3906,136.9375 3046.75,137.0781 Q3046.1094,137.2344 3045.4063,137.2344 Q3042.9063,137.2344 3041.5781,135.5938 Q3040.2656,133.9375 3040.2656,130.8125 Q3040.2656,127.6875 3041.5781,126.0313 Q3042.9063,124.375 3045.4063,124.375 Q3046.1094,124.375 3046.75,124.5313 Q3047.4063,124.6875 3047.9688,124.9844 L3047.9688,127.7031 Q3047.3438,127.125 3046.75,126.8594 Q3046.1563,126.5781 3045.5313,126.5781 Q3044.1875,126.5781 3043.5,127.6563 Q3042.8125,128.7188 3042.8125,130.8125 Q3042.8125,132.9063 3043.5,133.9844 Q3044.1875,135.0469 3045.5313,135.0469 Q3046.1563,135.0469 3046.75,134.7813 Q3047.3438,134.5 3047.9688,133.9219 L3047.9688,136.6406 Z " fill="#000000"/><text fill="#000000" font-family="sans-serif" font-size="14" lengthAdjust="spacing" textLength="85.251" x="3059" y="135.8467">Observation</text><line style="stroke:#181818;stroke-width:0.5;" x1="3031" x2="3146.251" y1="147" y2="147"/><line style="stroke:#181818;stroke-width:0.5;" x1="3031" x2="3146.251" y1="155" y2="155"/></g><!--class Result--><g class="entity" data-qualified-name="Result" data-source-line="20" id="ent0045"><rect fill="#F1F1F1" height="48" rx="2.5" ry="2.5" style="stroke:#181818;stroke-width:0.5;" width="75.8867" x="15.5" y="7"/><ellipse cx="30.5" cy="23" fill="#ADD1B2" rx="11" ry="11" style="stroke:#181818;stroke-width:1;"/><path d="M33.4688,28.6406 Q32.8906,28.9375 32.25,29.0781 Q31.6094,29.2344 30.9063,29.2344 Q28.4063,29.2344 27.0781,27.5938 Q25.7656,25.9375 25.7656,22.8125 Q25.7656,19.6875 27.0781,18.0313 Q28.4063,16.375 30.9063,16.375 Q31.6094,16.375 32.25,16.5313 Q32.9063,16.6875 33.4688,16.9844 L33.4688,19.7031 Q32.8438,19.125 32.25,18.8594 Q31.6563,18.5781 31.0313,18.5781 Q29.6875,18.5781 29,19.6563 Q28.3125,20.7188 28.3125,22.8125 Q28.3125,24.9063 29,25.9844 Q29.6875,27.0469 31.0313,27.0469 Q31.6563,27.0469 32.25,26.7813 Q32.8438,26.5 33.4688,25.9219 L33.4688,28.6406 Z " fill="#000000"/><text fill="#000000" font-family="sans-serif" font-size="14" lengthAdjust="spacing" textLength="43.8867" x="44.5" y="27.8467">Result</text><line style="stroke:#181818;stroke-width:0.5;" x1="16.5" x2="90.3867" y1="39" y2="39"/><line style="stroke:#181818;stroke-width:0.5;" x1="16.5" x2="90.3867" y1="47" y2="47"/></g><!--class SampleCollection--><g class="entity" data-qualified-name="SampleCollection" data-source-line="21" id="ent0046"><rect fill="#F1F1F1" height="48" rx="2.5" ry="2.5" style="stroke:#181818;stroke-width:0.5;" width="153.7412" x="126.5" y="7"/><ellipse cx="141.5" cy="23" fill="#ADD1B2" rx="11" ry="11" style="stroke:#181818;stroke-width:1;"/><path d="M144.4688,28.6406 Q143.8906,28.9375 143.25,29.0781 Q142.6094,29.2344 141.9063,29.2344 Q139.4063,29.2344 138.0781,27.5938 Q136.7656,25.9375 136.7656,22.8125 Q136.7656,19.6875 138.0781,18.0313 Q139.4063,16.375 141.9063,16.375 Q142.6094,16.375 143.25,16.5313 Q143.9063,16.6875 144.4688,16.9844 L144.4688,19.7031 Q143.8438,19.125 143.25,18.8594 Q142.6563,18.5781 142.0313,18.5781 Q140.6875,18.5781 140,19.6563 Q139.3125,20.7188 139.3125,22.8125 Q139.3125,24.9063 140,25.9844 Q140.6875,27.0469 142.0313,27.0469 Q142.6563,27.0469 143.25,26.7813 Q143.8438,26.5 144.4688,25.9219 L144.4688,28.6406 Z " fill="#000000"/><text fill="#000000" font-family="sans-serif" font-size="14" lengthAdjust="spacing" textLength="121.7412" x="155.5" y="27.8467">SampleCollection</text><line style="stroke:#181818;stroke-width:0.5;" x1="127.5" x2="279.2412" y1="39" y2="39"/><line style="stroke:#181818;stroke-width:0.5;" x1="127.5" x2="279.2412" y1="47" y2="47"/></g><!--class Deployment--><g class="entity" data-qualified-name="Deployment" data-source-line="22" id="ent0047"><rect fill="#F1F1F1" height="48" rx="2.5" ry="2.5" style="stroke:#181818;stroke-width:0.5;" width="117.6338" x="315.5" y="7"/><ellipse cx="330.5" cy="23" fill="#ADD1B2" rx="11" ry="11" style="stroke:#181818;stroke-width:1;"/><path d="M333.4688,28.6406 Q332.8906,28.9375 332.25,29.0781 Q331.6094,29.2344 330.9063,29.2344 Q328.4063,29.2344 327.0781,27.5938 Q325.7656,25.9375 325.7656,22.8125 Q325.7656,19.6875 327.0781,18.0313 Q328.4063,16.375 330.9063,16.375 Q331.6094,16.375 332.25,16.5313 Q332.9063,16.6875 333.4688,16.9844 L333.4688,19.7031 Q332.8438,19.125 332.25,18.8594 Q331.6563,18.5781 331.0313,18.5781 Q329.6875,18.5781 329,19.6563 Q328.3125,20.7188 328.3125,22.8125 Q328.3125,24.9063 329,25.9844 Q329.6875,27.0469 331.0313,27.0469 Q331.6563,27.0469 332.25,26.7813 Q332.8438,26.5 333.4688,25.9219 L333.4688,28.6406 Z " fill="#000000"/><text fill="#000000" font-family="sans-serif" font-size="14" lengthAdjust="spacing" textLength="85.6338" x="344.5" y="27.8467">Deployment</text><line style="stroke:#181818;stroke-width:0.5;" x1="316.5" x2="432.1338" y1="39" y2="39"/><line style="stroke:#181818;stroke-width:0.5;" x1="316.5" x2="432.1338" y1="47" y2="47"/></g><!--class Stimulus--><g class="entity" data-qualified-name="Stimulus" data-source-line="23" id="ent0048"><rect fill="#F1F1F1" height="48" rx="2.5" ry="2.5" style="stroke:#181818;stroke-width:0.5;" width="92.833" x="7" y="115"/><ellipse cx="22" cy="131" fill="#ADD1B2" rx="11" ry="11" style="stroke:#181818;stroke-width:1;"/><path d="M24.9688,136.6406 Q24.3906,136.9375 23.75,137.0781 Q23.1094,137.2344 22.4063,137.2344 Q19.9063,137.2344 18.5781,135.5938 Q17.2656,133.9375 17.2656,130.8125 Q17.2656,127.6875 18.5781,126.0313 Q19.9063,124.375 22.4063,124.375 Q23.1094,124.375 23.75,124.5313 Q24.4063,124.6875 24.9688,124.9844 L24.9688,127.7031 Q24.3438,127.125 23.75,126.8594 Q23.1563,126.5781 22.5313,126.5781 Q21.1875,126.5781 20.5,127.6563 Q19.8125,128.7188 19.8125,130.8125 Q19.8125,132.9063 20.5,133.9844 Q21.1875,135.0469 22.5313,135.0469 Q23.1563,135.0469 23.75,134.7813 Q24.3438,134.5 24.9688,133.9219 L24.9688,136.6406 Z " fill="#000000"/><text fill="#000000" font-family="sans-serif" font-size="14" lengthAdjust="spacing" textLength="60.833" x="36" y="135.8467">Stimulus</text><line style="stroke:#181818;stroke-width:0.5;" x1="8" x2="98.833" y1="147" y2="147"/><line style="stroke:#181818;stroke-width:0.5;" x1="8" x2="98.833" y1="155" y2="155"/></g><!--class FeatureOfInterest--><g class="entity" data-qualified-name="FeatureOfInterest" data-source-line="24" id="ent0049"><rect fill="#F1F1F1" height="48" rx="2.5" ry="2.5" style="stroke:#181818;stroke-width:0.5;" width="156.1816" x="135.5" y="115"/><ellipse cx="150.5" cy="131" fill="#ADD1B2" rx="11" ry="11" style="stroke:#181818;stroke-width:1;"/><path d="M153.4688,136.6406 Q152.8906,136.9375 152.25,137.0781 Q151.6094,137.2344 150.9063,137.2344 Q148.4063,137.2344 147.0781,135.5938 Q145.7656,133.9375 145.7656,130.8125 Q145.7656,127.6875 147.0781,126.0313 Q148.4063,124.375 150.9063,124.375 Q151.6094,124.375 152.25,124.5313 Q152.9063,124.6875 153.4688,124.9844 L153.4688,127.7031 Q152.8438,127.125 152.25,126.8594 Q151.6563,126.5781 151.0313,126.5781 Q149.6875,126.5781 149,127.6563 Q148.3125,128.7188 148.3125,130.8125 Q148.3125,132.9063 149,133.9844 Q149.6875,135.0469 151.0313,135.0469 Q151.6563,135.0469 152.25,134.7813 Q152.8438,134.5 153.4688,133.9219 L153.4688,136.6406 Z " fill="#000000"/><text fill="#000000" font-family="sans-serif" font-size="14" lengthAdjust="spacing" textLength="124.1816" x="164.5" y="135.8467">FeatureOfInterest</text><line style="stroke:#181818;stroke-width:0.5;" x1="136.5" x2="290.6816" y1="147" y2="147"/><line style="stroke:#181818;stroke-width:0.5;" x1="136.5" x2="290.6816" y1="155" y2="155"/></g><!--reverse link Property to ActuatableProperty--><g class="link" data-entity-1="ent0001" data-entity-2="ent0002" data-link-type="extension" data-source-line="1" id="lnk3"><path codeLine="1" d="M517.0124,65.1612 C491.1024,82.8812 470.29,97.11 444.33,114.86" fill="none" id="Property-backto-ActuatableProperty" style="stroke:#181818;stroke-width:1;"/><polygon fill="none" points="531.87,55,513.6253,60.2087,520.3994,70.1138,531.87,55" style="stroke:#181818;stroke-width:1;stroke-linejoin:miter;stroke-miterlimit:10;"/></g><!--reverse link Sample to MaterialSample--><g class="link" data-entity-1="ent0004" data-entity-2="ent0005" data-link-type="extension" data-source-line="2" id="lnk6"><path codeLine="2" d="M926.8567,64.4445 C898.1067,82.1645 873.85,97.11 845.05,114.86" fill="none" id="Sample-backto-MaterialSample" style="stroke:#181818;stroke-width:1;"/><polygon fill="none" points="942.18,55,923.7086,59.3367,930.0049,69.5522,942.18,55" style="stroke:#181818;stroke-width:1;stroke-linejoin:miter;stroke-miterlimit:10;"/></g><!--reverse link Property to ObservableProperty--><g class="link" data-entity-1="ent0001" data-entity-2="ent0007" data-link-type="extension" data-source-line="3" id="lnk8"><path codeLine="3" d="M584.029,71.2798 C592.359,88.9398 596.13,96.94 604.5,114.68" fill="none" id="Property-backto-ObservableProperty" style="stroke:#181818;stroke-width:1;"/><polygon fill="none" points="576.35,55,578.6024,73.8395,589.4556,68.7202,576.35,55" style="stroke:#181818;stroke-width:1;stroke-linejoin:miter;stroke-miterlimit:10;"/></g><!--reverse link Sample to SpatialSample--><g class="link" data-entity-1="ent0004" data-entity-2="ent0009" data-link-type="extension" data-source-line="4" id="lnk10"><path codeLine="4" d="M979.5,73 C979.5,90.66 979.5,96.94 979.5,114.68" fill="none" id="Sample-backto-SpatialSample" style="stroke:#181818;stroke-width:1;"/><polygon fill="none" points="979.5,55,973.5,73,985.5,73,979.5,55" style="stroke:#181818;stroke-width:1;stroke-linejoin:miter;stroke-miterlimit:10;"/></g><!--reverse link Sample to StatisticalSample--><g class="link" data-entity-1="ent0004" data-entity-2="ent0011" data-link-type="extension" data-source-line="5" id="lnk12"><path codeLine="5" d="M1033.8276,64.1725 C1063.7476,81.8925 1089.45,97.11 1119.43,114.86" fill="none" id="Sample-backto-StatisticalSample" style="stroke:#181818;stroke-width:1;"/><polygon fill="none" points="1018.34,55,1030.7701,69.335,1036.8851,59.0099,1018.34,55" style="stroke:#181818;stroke-width:1;stroke-linejoin:miter;stroke-miterlimit:10;"/></g><!--reverse link Procedure to ActuatingProcedure--><g class="link" data-entity-1="ent0013" data-entity-2="ent0014" data-link-type="extension" data-source-line="6" id="lnk15"><path codeLine="6" d="M1503.3326,63.1732 C1468.5626,80.8932 1436.74,97.11 1401.9,114.86" fill="none" id="Procedure-backto-ActuatingProcedure" style="stroke:#181818;stroke-width:1;"/><polygon fill="none" points="1519.37,55,1500.6082,57.8274,1506.057,68.519,1519.37,55" style="stroke:#181818;stroke-width:1;stroke-linejoin:miter;stroke-miterlimit:10;"/></g><!--reverse link Procedure to ObservingProcedure--><g class="link" data-entity-1="ent0013" data-entity-2="ent0016" data-link-type="extension" data-source-line="7" id="lnk17"><path codeLine="7" d="M1564.5,73 C1564.5,90.66 1564.5,96.94 1564.5,114.68" fill="none" id="Procedure-backto-ObservingProcedure" style="stroke:#181818;stroke-width:1;"/><polygon fill="none" points="1564.5,55,1558.5,73,1570.5,73,1564.5,55" style="stroke:#181818;stroke-width:1;stroke-linejoin:miter;stroke-miterlimit:10;"/></g><!--reverse link Procedure to SamplingProcedure--><g class="link" data-entity-1="ent0013" data-entity-2="ent0018" data-link-type="extension" data-source-line="8" id="lnk19"><path codeLine="8" d="M1625.4411,63.205 C1660.0411,80.925 1691.65,97.11 1726.31,114.86" fill="none" id="Procedure-backto-SamplingProcedure" style="stroke:#181818;stroke-width:1;"/><polygon fill="none" points="1609.42,55,1622.7061,68.5454,1628.1762,57.8647,1609.42,55" style="stroke:#181818;stroke-width:1;stroke-linejoin:miter;stroke-miterlimit:10;"/></g><!--reverse link Asset to Platform--><g class="link" data-entity-1="ent0020" data-entity-2="ent0021" data-link-type="extension" data-source-line="9" id="lnk22"><path codeLine="9" d="M1975.2839,70.6022 C1965.1239,88.2622 1960.13,96.94 1949.92,114.68" fill="none" id="Asset-backto-Platform" style="stroke:#181818;stroke-width:1;"/><polygon fill="none" points="1984.26,55,1970.0831,67.6102,1980.4846,73.5943,1984.26,55" style="stroke:#181818;stroke-width:1;stroke-linejoin:miter;stroke-miterlimit:10;"/></g><!--reverse link System to Sampler--><g class="link" data-entity-1="ent0023" data-entity-2="ent0024" data-link-type="extension" data-source-line="10" id="lnk25"><path codeLine="10" d="M2018.3865,174.5884 C1997.3965,192.2484 1982.31,204.94 1961.22,222.68" fill="none" id="System-backto-Sampler" style="stroke:#181818;stroke-width:1;"/><polygon fill="none" points="2032.16,163,2014.5237,169.9972,2022.2493,179.1795,2032.16,163" style="stroke:#181818;stroke-width:1;stroke-linejoin:miter;stroke-miterlimit:10;"/></g><!--reverse link System to Actuator--><g class="link" data-entity-1="ent0023" data-entity-2="ent0026" data-link-type="extension" data-source-line="11" id="lnk27"><path codeLine="11" d="M2059.5,181 C2059.5,198.66 2059.5,204.94 2059.5,222.68" fill="none" id="System-backto-Actuator" style="stroke:#181818;stroke-width:1;"/><polygon fill="none" points="2059.5,163,2053.5,181,2065.5,181,2059.5,163" style="stroke:#181818;stroke-width:1;stroke-linejoin:miter;stroke-miterlimit:10;"/></g><!--reverse link ExecutionCollection to SamplingCollection--><g class="link" data-entity-1="ent0028" data-entity-2="ent0029" data-link-type="extension" data-source-line="12" id="lnk30"><path codeLine="12" d="M2362.731,63.3636 C2328.961,81.0836 2298.43,97.11 2264.59,114.86" fill="none" id="ExecutionCollection-backto-SamplingCollection" style="stroke:#181818;stroke-width:1;"/><polygon fill="none" points="2378.67,55,2359.9432,58.0506,2365.5189,68.6766,2378.67,55" style="stroke:#181818;stroke-width:1;stroke-linejoin:miter;stroke-miterlimit:10;"/></g><!--reverse link Asset to System--><g class="link" data-entity-1="ent0020" data-entity-2="ent0023" data-link-type="extension" data-source-line="13" id="lnk31"><path codeLine="13" d="M2020.0383,70.5372 C2030.3683,88.1972 2035.48,96.94 2045.86,114.68" fill="none" id="Asset-backto-System" style="stroke:#181818;stroke-width:1;"/><polygon fill="none" points="2010.95,55,2014.8592,73.5666,2025.2173,67.5077,2010.95,55" style="stroke:#181818;stroke-width:1;stroke-linejoin:miter;stroke-miterlimit:10;"/></g><!--reverse link System to Sensor--><g class="link" data-entity-1="ent0023" data-entity-2="ent0032" data-link-type="extension" data-source-line="14" id="lnk33"><path codeLine="14" d="M2099.2968,174.864 C2119.4468,192.524 2133.63,204.94 2153.88,222.68" fill="none" id="System-backto-Sensor" style="stroke:#181818;stroke-width:1;"/><polygon fill="none" points="2085.76,163,2095.3421,179.3763,2103.2515,170.3518,2085.76,163" style="stroke:#181818;stroke-width:1;stroke-linejoin:miter;stroke-miterlimit:10;"/></g><!--reverse link Execution to Sampling--><g class="link" data-entity-1="ent0034" data-entity-2="ent0035" data-link-type="extension" data-source-line="15" id="lnk36"><path codeLine="15" d="M2902.3041,66.1688 C2879.9841,83.8288 2863.41,96.94 2840.98,114.68" fill="none" id="Execution-backto-Sampling" style="stroke:#181818;stroke-width:1;"/><polygon fill="none" points="2916.42,55,2898.5812,61.4635,2906.027,70.8741,2916.42,55" style="stroke:#181818;stroke-width:1;stroke-linejoin:miter;stroke-miterlimit:10;"/></g><!--reverse link Execution to Actuation--><g class="link" data-entity-1="ent0034" data-entity-2="ent0037" data-link-type="extension" data-source-line="16" id="lnk38"><path codeLine="16" d="M2945.5,73 C2945.5,90.66 2945.5,96.94 2945.5,114.68" fill="none" id="Execution-backto-Actuation" style="stroke:#181818;stroke-width:1;"/><polygon fill="none" points="2945.5,55,2939.5,73,2951.5,73,2945.5,55" style="stroke:#181818;stroke-width:1;stroke-linejoin:miter;stroke-miterlimit:10;"/></g><!--reverse link ExecutionCollection to ActuationCollection--><g class="link" data-entity-1="ent0028" data-entity-2="ent0039" data-link-type="extension" data-source-line="17" id="lnk40"><path codeLine="17" d="M2422.5,73 C2422.5,90.66 2422.5,96.94 2422.5,114.68" fill="none" id="ExecutionCollection-backto-ActuationCollection" style="stroke:#181818;stroke-width:1;"/><polygon fill="none" points="2422.5,55,2416.5,73,2428.5,73,2422.5,55" style="stroke:#181818;stroke-width:1;stroke-linejoin:miter;stroke-miterlimit:10;"/></g><!--reverse link ExecutionCollection to ObservationCollection--><g class="link" data-entity-1="ent0028" data-entity-2="ent0041" data-link-type="extension" data-source-line="18" id="lnk42"><path codeLine="18" d="M2484.5997,63.0498 C2520.0397,80.7698 2552.72,97.11 2588.22,114.86" fill="none" id="ExecutionCollection-backto-ObservationCollection" style="stroke:#181818;stroke-width:1;"/><polygon fill="none" points="2468.5,55,2481.9164,68.4164,2487.283,57.6833,2468.5,55" style="stroke:#181818;stroke-width:1;stroke-linejoin:miter;stroke-miterlimit:10;"/></g><!--reverse link Execution to Observation--><g class="link" data-entity-1="ent0034" data-entity-2="ent0043" data-link-type="extension" data-source-line="19" id="lnk44"><path codeLine="19" d="M2990.9895,65.7202 C3014.8095,83.3802 3033.11,96.94 3057.04,114.68" fill="none" id="Execution-backto-Observation" style="stroke:#181818;stroke-width:1;"/><polygon fill="none" points="2976.53,55,2987.4161,70.54,2994.5629,60.9004,2976.53,55" style="stroke:#181818;stroke-width:1;stroke-linejoin:miter;stroke-miterlimit:10;"/></g><?plantuml-src VL9BJiGm3Dtd5Bt0t83DY8_40ar5J-09Rr0a9wbY1r69mrD8r4a6bLty_3wMdJ756KcNuUxhS1YELZCfdHbZnSr4VcQKzWifaYCkc1axxUaiI1-xscaclKgxZguTKMTROuktdD1EvSBxXjyoIlP_Z5_dZd0KWPRcoAINcBoP5b7uHe7KOMMIcCpZ9snM5yDzP8RzUVKvLxmDAbvz38AqXhtDBLvNiRhkJh1HcX5soVLeU_G_96EPH8PNI6QjHLbK8o_m0sQEYqVOUEfyvYorV0BfUeVJvJcilmgYtm00?></g></svg>