<svg xmlns="http://www.w3.org/2000/svg" xmlns:xlink="http://www.w3.org/1999/xlink" contentStyleType="text/css" data-diagram-type="CLASS" height="286px" preserveAspectRatio="none" style="width:3339px;height:286px;background:#FFFFFF;" version="1.1" viewBox="0 0 3339 286" width="3339px" zoomAndPan="magnify"><?plantuml 1.2026.3?><defs/><g><!--class Property--><g class="entity" data-qualified-name="Property" data-source-line="1" id="ent0002"><rect fill="#F1F1F1" height="48" rx="2.5" ry="2.5" style="stroke:#181818;stroke-width:0.5;" width="91.7939" x="644" y="7"/><ellipse cx="659" cy="23" fill="#ADD1B2" rx="11" ry="11" style="stroke:#181818;stroke-width:1;"/><path d="M661.9688,28.6406 Q661.3906,28.9375 660.75,29.0781 Q660.1094,29.2344 659.4063,29.2344 Q656.9063,29.2344 655.5781,27.5938 Q654.2656,25.9375 654.2656,22.8125 Q654.2656,19.6875 655.5781,18.0313 Q656.9063,16.375 659.4063,16.375 Q660.1094,16.375 660.75,16.5313 Q661.4063,16.6875 661.9688,16.9844 L661.9688,19.7031 Q661.3438,19.125 660.75,18.8594 Q660.1563,18.5781 659.5313,18.5781 Q658.1875,18.5781 657.5,19.6563 Q656.8125,20.7188 656.8125,22.8125 Q656.8125,24.9063 657.5,25.9844 Q658.1875,27.0469 659.5313,27.0469 Q660.1563,27.0469 660.75,26.7813 Q661.3438,26.5 661.9688,25.9219 L661.9688,28.6406 Z " fill="#000000"/><text fill="#000000" font-family="sans-serif" font-size="14" lengthAdjust="spacing" textLength="59.7939" x="673" y="27.8467">Property</text><line style="stroke:#181818;stroke-width:0.5;" x1="645" x2="734.7939" y1="39" y2="39"/><line style="stroke:#181818;stroke-width:0.5;" x1="645" x2="734.7939" y1="47" y2="47"/></g><!--class ActuatableProperty--><g class="entity" data-qualified-name="ActuatableProperty" data-source-line="1" id="ent0003"><rect fill="#F1F1F1" height="48" rx="2.5" ry="2.5" style="stroke:#181818;stroke-width:0.5;" width="167.4678" x="504.5" y="115"/><ellipse cx="519.5" cy="131" fill="#ADD1B2" rx="11" ry="11" style="stroke:#181818;stroke-width:1;"/><path d="M522.4688,136.6406 Q521.8906,136.9375 521.25,137.0781 Q520.6094,137.2344 519.9063,137.2344 Q517.4063,137.2344 516.0781,135.5938 Q514.7656,133.9375 514.7656,130.8125 Q514.7656,127.6875 516.0781,126.0313 Q517.4063,124.375 519.9063,124.375 Q520.6094,124.375 521.25,124.5313 Q521.9063,124.6875 522.4688,124.9844 L522.4688,127.7031 Q521.8438,127.125 521.25,126.8594 Q520.6563,126.5781 520.0313,126.5781 Q518.6875,126.5781 518,127.6563 Q517.3125,128.7188 517.3125,130.8125 Q517.3125,132.9063 518,133.9844 Q518.6875,135.0469 520.0313,135.0469 Q520.6563,135.0469 521.25,134.7813 Q521.8438,134.5 522.4688,133.9219 L522.4688,136.6406 Z " fill="#000000"/><text fill="#000000" font-family="sans-serif" font-size="14" lengthAdjust="spacing" textLength="135.4678" x="533.5" y="135.8467">ActuatableProperty</text><line style="stroke:#181818;stroke-width:0.5;" x1="505.5" x2="670.9678" y1="147" y2="147"/><line style="stroke:#181818;stroke-width:0.5;" x1="505.5" x2="670.9678" y1="155" y2="155"/></g><!--class Sample--><g class="entity" data-qualified-name="Sample" data-source-line="2" id="ent0005"><rect fill="#F1F1F1" height="48" rx="2.5" ry="2.5" style="stroke:#181818;stroke-width:0.5;" width="84.4932" x="1115" y="7"/><ellipse cx="1130" cy="23" fill="#ADD1B2" rx="11" ry="11" style="stroke:#181818;stroke-width:1;"/><path d="M1132.9688,28.6406 Q1132.3906,28.9375 1131.75,29.0781 Q1131.1094,29.2344 1130.4063,29.2344 Q1127.9063,29.2344 1126.5781,27.5938 Q1125.2656,25.9375 1125.2656,22.8125 Q1125.2656,19.6875 1126.5781,18.0313 Q1127.9063,16.375 1130.4063,16.375 Q1131.1094,16.375 1131.75,16.5313 Q1132.4063,16.6875 1132.9688,16.9844 L1132.9688,19.7031 Q1132.3438,19.125 1131.75,18.8594 Q1131.1563,18.5781 1130.5313,18.5781 Q1129.1875,18.5781 1128.5,19.6563 Q1127.8125,20.7188 1127.8125,22.8125 Q1127.8125,24.9063 1128.5,25.9844 Q1129.1875,27.0469 1130.5313,27.0469 Q1131.1563,27.0469 1131.75,26.7813 Q1132.3438,26.5 1132.9688,25.9219 L1132.9688,28.6406 Z " fill="#000000"/><text fill="#000000" font-family="sans-serif" font-size="14" lengthAdjust="spacing" textLength="52.4932" x="1144" y="27.8467">Sample</text><line style="stroke:#181818;stroke-width:0.5;" x1="1116" x2="1198.4932" y1="39" y2="39"/><line style="stroke:#181818;stroke-width:0.5;" x1="1116" x2="1198.4932" y1="47" y2="47"/></g><!--class MaterialSample--><g class="entity" data-qualified-name="MaterialSample" data-source-line="2" id="ent0006"><rect fill="#F1F1F1" height="48" rx="2.5" ry="2.5" style="stroke:#181818;stroke-width:0.5;" width="141.3682" x="914.5" y="115"/><ellipse cx="929.5" cy="131" fill="#ADD1B2" rx="11" ry="11" style="stroke:#181818;stroke-width:1;"/><path d="M932.4688,136.6406 Q931.8906,136.9375 931.25,137.0781 Q930.6094,137.2344 929.9063,137.2344 Q927.4063,137.2344 926.0781,135.5938 Q924.7656,133.9375 924.7656,130.8125 Q924.7656,127.6875 926.0781,126.0313 Q927.4063,124.375 929.9063,124.375 Q930.6094,124.375 931.25,124.5313 Q931.9063,124.6875 932.4688,124.9844 L932.4688,127.7031 Q931.8438,127.125 931.25,126.8594 Q930.6563,126.5781 930.0313,126.5781 Q928.6875,126.5781 928,127.6563 Q927.3125,128.7188 927.3125,130.8125 Q927.3125,132.9063 928,133.9844 Q928.6875,135.0469 930.0313,135.0469 Q930.6563,135.0469 931.25,134.7813 Q931.8438,134.5 932.4688,133.9219 L932.4688,136.6406 Z " fill="#000000"/><text fill="#000000" font-family="sans-serif" font-size="14" lengthAdjust="spacing" textLength="109.3682" x="943.5" y="135.8467">MaterialSample</text><line style="stroke:#181818;stroke-width:0.5;" x1="915.5" x2="1054.8682" y1="147" y2="147"/><line style="stroke:#181818;stroke-width:0.5;" x1="915.5" x2="1054.8682" y1="155" y2="155"/></g><!--class SpatialSample--><g class="entity" data-qualified-name="SpatialSample" data-source-line="3" id="ent0008"><rect fill="#F1F1F1" height="48" rx="2.5" ry="2.5" style="stroke:#181818;stroke-width:0.5;" width="132.6934" x="1090.5" y="115"/><ellipse cx="1105.5" cy="131" fill="#ADD1B2" rx="11" ry="11" style="stroke:#181818;stroke-width:1;"/><path d="M1108.4688,136.6406 Q1107.8906,136.9375 1107.25,137.0781 Q1106.6094,137.2344 1105.9063,137.2344 Q1103.4063,137.2344 1102.0781,135.5938 Q1100.7656,133.9375 1100.7656,130.8125 Q1100.7656,127.6875 1102.0781,126.0313 Q1103.4063,124.375 1105.9063,124.375 Q1106.6094,124.375 1107.25,124.5313 Q1107.9063,124.6875 1108.4688,124.9844 L1108.4688,127.7031 Q1107.8438,127.125 1107.25,126.8594 Q1106.6563,126.5781 1106.0313,126.5781 Q1104.6875,126.5781 1104,127.6563 Q1103.3125,128.7188 1103.3125,130.8125 Q1103.3125,132.9063 1104,133.9844 Q1104.6875,135.0469 1106.0313,135.0469 Q1106.6563,135.0469 1107.25,134.7813 Q1107.8438,134.5 1108.4688,133.9219 L1108.4688,136.6406 Z " fill="#000000"/><text fill="#000000" font-family="sans-serif" font-size="14" lengthAdjust="spacing" textLength="100.6934" x="1119.5" y="135.8467">SpatialSample</text><line style="stroke:#181818;stroke-width:0.5;" x1="1091.5" x2="1222.1934" y1="147" y2="147"/><line style="stroke:#181818;stroke-width:0.5;" x1="1091.5" x2="1222.1934" y1="155" y2="155"/></g><!--class StatisticalSample--><g class="entity" data-qualified-name="StatisticalSample" data-source-line="4" id="ent0010"><rect fill="#F1F1F1" height="48" rx="2.5" ry="2.5" style="stroke:#181818;stroke-width:0.5;" width="153.666" x="1259" y="115"/><ellipse cx="1274" cy="131" fill="#ADD1B2" rx="11" ry="11" style="stroke:#181818;stroke-width:1;"/><path d="M1276.9688,136.6406 Q1276.3906,136.9375 1275.75,137.0781 Q1275.1094,137.2344 1274.4063,137.2344 Q1271.9063,137.2344 1270.5781,135.5938 Q1269.2656,133.9375 1269.2656,130.8125 Q1269.2656,127.6875 1270.5781,126.0313 Q1271.9063,124.375 1274.4063,124.375 Q1275.1094,124.375 1275.75,124.5313 Q1276.4063,124.6875 1276.9688,124.9844 L1276.9688,127.7031 Q1276.3438,127.125 1275.75,126.8594 Q1275.1563,126.5781 1274.5313,126.5781 Q1273.1875,126.5781 1272.5,127.6563 Q1271.8125,128.7188 1271.8125,130.8125 Q1271.8125,132.9063 1272.5,133.9844 Q1273.1875,135.0469 1274.5313,135.0469 Q1275.1563,135.0469 1275.75,134.7813 Q1276.3438,134.5 1276.9688,133.9219 L1276.9688,136.6406 Z " fill="#000000"/><text fill="#000000" font-family="sans-serif" font-size="14" lengthAdjust="spacing" textLength="121.666" x="1288" y="135.8467">StatisticalSample</text><line style="stroke:#181818;stroke-width:0.5;" x1="1260" x2="1411.666" y1="147" y2="147"/><line style="stroke:#181818;stroke-width:0.5;" x1="1260" x2="1411.666" y1="155" y2="155"/></g><!--class ObservableProperty--><g class="entity" data-qualified-name="ObservableProperty" data-source-line="5" id="ent0012"><rect fill="#F1F1F1" height="48" rx="2.5" ry="2.5" style="stroke:#181818;stroke-width:0.5;" width="171.6172" x="707" y="115"/><ellipse cx="722" cy="131" fill="#ADD1B2" rx="11" ry="11" style="stroke:#181818;stroke-width:1;"/><path d="M724.9688,136.6406 Q724.3906,136.9375 723.75,137.0781 Q723.1094,137.2344 722.4063,137.2344 Q719.9063,137.2344 718.5781,135.5938 Q717.2656,133.9375 717.2656,130.8125 Q717.2656,127.6875 718.5781,126.0313 Q719.9063,124.375 722.4063,124.375 Q723.1094,124.375 723.75,124.5313 Q724.4063,124.6875 724.9688,124.9844 L724.9688,127.7031 Q724.3438,127.125 723.75,126.8594 Q723.1563,126.5781 722.5313,126.5781 Q721.1875,126.5781 720.5,127.6563 Q719.8125,128.7188 719.8125,130.8125 Q719.8125,132.9063 720.5,133.9844 Q721.1875,135.0469 722.5313,135.0469 Q723.1563,135.0469 723.75,134.7813 Q724.3438,134.5 724.9688,133.9219 L724.9688,136.6406 Z " fill="#000000"/><text fill="#000000" font-family="sans-serif" font-size="14" lengthAdjust="spacing" textLength="139.6172" x="736" y="135.8467">ObservableProperty</text><line style="stroke:#181818;stroke-width:0.5;" x1="708" x2="877.6172" y1="147" y2="147"/><line style="stroke:#181818;stroke-width:0.5;" x1="708" x2="877.6172" y1="155" y2="155"/></g><!--class Procedure--><g class="entity" data-qualified-name="Procedure" data-source-line="6" id="ent0014"><rect fill="#F1F1F1" height="48" rx="2.5" ry="2.5" style="stroke:#181818;stroke-width:0.5;" width="103.2031" x="1690.5" y="7"/><ellipse cx="1705.5" cy="23" fill="#ADD1B2" rx="11" ry="11" style="stroke:#181818;stroke-width:1;"/><path d="M1708.4688,28.6406 Q1707.8906,28.9375 1707.25,29.0781 Q1706.6094,29.2344 1705.9063,29.2344 Q1703.4063,29.2344 1702.0781,27.5938 Q1700.7656,25.9375 1700.7656,22.8125 Q1700.7656,19.6875 1702.0781,18.0313 Q1703.4063,16.375 1705.9063,16.375 Q1706.6094,16.375 1707.25,16.5313 Q1707.9063,16.6875 1708.4688,16.9844 L1708.4688,19.7031 Q1707.8438,19.125 1707.25,18.8594 Q1706.6563,18.5781 1706.0313,18.5781 Q1704.6875,18.5781 1704,19.6563 Q1703.3125,20.7188 1703.3125,22.8125 Q1703.3125,24.9063 1704,25.9844 Q1704.6875,27.0469 1706.0313,27.0469 Q1706.6563,27.0469 1707.25,26.7813 Q1707.8438,26.5 1708.4688,25.9219 L1708.4688,28.6406 Z " fill="#000000"/><text fill="#000000" font-family="sans-serif" font-size="14" lengthAdjust="spacing" textLength="71.2031" x="1719.5" y="27.8467">Procedure</text><line style="stroke:#181818;stroke-width:0.5;" x1="1691.5" x2="1792.7031" y1="39" y2="39"/><line style="stroke:#181818;stroke-width:0.5;" x1="1691.5" x2="1792.7031" y1="47" y2="47"/></g><!--class ActuatingProcedure--><g class="entity" data-qualified-name="ActuatingProcedure" data-source-line="6" id="ent0015"><rect fill="#F1F1F1" height="48" rx="2.5" ry="2.5" style="stroke:#181818;stroke-width:0.5;" width="170.5576" x="1448.5" y="115"/><ellipse cx="1463.5" cy="131" fill="#ADD1B2" rx="11" ry="11" style="stroke:#181818;stroke-width:1;"/><path d="M1466.4688,136.6406 Q1465.8906,136.9375 1465.25,137.0781 Q1464.6094,137.2344 1463.9063,137.2344 Q1461.4063,137.2344 1460.0781,135.5938 Q1458.7656,133.9375 1458.7656,130.8125 Q1458.7656,127.6875 1460.0781,126.0313 Q1461.4063,124.375 1463.9063,124.375 Q1464.6094,124.375 1465.25,124.5313 Q1465.9063,124.6875 1466.4688,124.9844 L1466.4688,127.7031 Q1465.8438,127.125 1465.25,126.8594 Q1464.6563,126.5781 1464.0313,126.5781 Q1462.6875,126.5781 1462,127.6563 Q1461.3125,128.7188 1461.3125,130.8125 Q1461.3125,132.9063 1462,133.9844 Q1462.6875,135.0469 1464.0313,135.0469 Q1464.6563,135.0469 1465.25,134.7813 Q1465.8438,134.5 1466.4688,133.9219 L1466.4688,136.6406 Z " fill="#000000"/><text fill="#000000" font-family="sans-serif" font-size="14" lengthAdjust="spacing" textLength="138.5576" x="1477.5" y="135.8467">ActuatingProcedure</text><line style="stroke:#181818;stroke-width:0.5;" x1="1449.5" x2="1618.0576" y1="147" y2="147"/><line style="stroke:#181818;stroke-width:0.5;" x1="1449.5" x2="1618.0576" y1="155" y2="155"/></g><!--class ObservingProcedure--><g class="entity" data-qualified-name="ObservingProcedure" data-source-line="7" id="ent0017"><rect fill="#F1F1F1" height="48" rx="2.5" ry="2.5" style="stroke:#181818;stroke-width:0.5;" width="174.707" x="1654.5" y="115"/><ellipse cx="1669.5" cy="131" fill="#ADD1B2" rx="11" ry="11" style="stroke:#181818;stroke-width:1;"/><path d="M1672.4688,136.6406 Q1671.8906,136.9375 1671.25,137.0781 Q1670.6094,137.2344 1669.9063,137.2344 Q1667.4063,137.2344 1666.0781,135.5938 Q1664.7656,133.9375 1664.7656,130.8125 Q1664.7656,127.6875 1666.0781,126.0313 Q1667.4063,124.375 1669.9063,124.375 Q1670.6094,124.375 1671.25,124.5313 Q1671.9063,124.6875 1672.4688,124.9844 L1672.4688,127.7031 Q1671.8438,127.125 1671.25,126.8594 Q1670.6563,126.5781 1670.0313,126.5781 Q1668.6875,126.5781 1668,127.6563 Q1667.3125,128.7188 1667.3125,130.8125 Q1667.3125,132.9063 1668,133.9844 Q1668.6875,135.0469 1670.0313,135.0469 Q1670.6563,135.0469 1671.25,134.7813 Q1671.8438,134.5 1672.4688,133.9219 L1672.4688,136.6406 Z " fill="#000000"/><text fill="#000000" font-family="sans-serif" font-size="14" lengthAdjust="spacing" textLength="142.707" x="1683.5" y="135.8467">ObservingProcedure</text><line style="stroke:#181818;stroke-width:0.5;" x1="1655.5" x2="1828.207" y1="147" y2="147"/><line style="stroke:#181818;stroke-width:0.5;" x1="1655.5" x2="1828.207" y1="155" y2="155"/></g><!--class SamplingProcedure--><g class="entity" data-qualified-name="SamplingProcedure" data-source-line="8" id="ent0019"><rect fill="#F1F1F1" height="48" rx="2.5" ry="2.5" style="stroke:#181818;stroke-width:0.5;" width="168.7324" x="1864.5" y="115"/><ellipse cx="1879.5" cy="131" fill="#ADD1B2" rx="11" ry="11" style="stroke:#181818;stroke-width:1;"/><path d="M1882.4688,136.6406 Q1881.8906,136.9375 1881.25,137.0781 Q1880.6094,137.2344 1879.9063,137.2344 Q1877.4063,137.2344 1876.0781,135.5938 Q1874.7656,133.9375 1874.7656,130.8125 Q1874.7656,127.6875 1876.0781,126.0313 Q1877.4063,124.375 1879.9063,124.375 Q1880.6094,124.375 1881.25,124.5313 Q1881.9063,124.6875 1882.4688,124.9844 L1882.4688,127.7031 Q1881.8438,127.125 1881.25,126.8594 Q1880.6563,126.5781 1880.0313,126.5781 Q1878.6875,126.5781 1878,127.6563 Q1877.3125,128.7188 1877.3125,130.8125 Q1877.3125,132.9063 1878,133.9844 Q1878.6875,135.0469 1880.0313,135.0469 Q1880.6563,135.0469 1881.25,134.7813 Q1881.8438,134.5 1882.4688,133.9219 L1882.4688,136.6406 Z " fill="#000000"/><text fill="#000000" font-family="sans-serif" font-size="14" lengthAdjust="spacing" textLength="136.7324" x="1893.5" y="135.8467">SamplingProcedure</text><line style="stroke:#181818;stroke-width:0.5;" x1="1865.5" x2="2032.2324" y1="147" y2="147"/><line style="stroke:#181818;stroke-width:0.5;" x1="1865.5" x2="2032.2324" y1="155" y2="155"/></g><!--class Asset--><g class="entity" data-qualified-name="Asset" data-source-line="9" id="ent0021"><rect fill="#F1F1F1" height="48" rx="2.5" ry="2.5" style="stroke:#181818;stroke-width:0.5;" width="70.2676" x="2140" y="7"/><ellipse cx="2155" cy="23" fill="#ADD1B2" rx="11" ry="11" style="stroke:#181818;stroke-width:1;"/><path d="M2157.9688,28.6406 Q2157.3906,28.9375 2156.75,29.0781 Q2156.1094,29.2344 2155.4063,29.2344 Q2152.9063,29.2344 2151.5781,27.5938 Q2150.2656,25.9375 2150.2656,22.8125 Q2150.2656,19.6875 2151.5781,18.0313 Q2152.9063,16.375 2155.4063,16.375 Q2156.1094,16.375 2156.75,16.5313 Q2157.4063,16.6875 2157.9688,16.9844 L2157.9688,19.7031 Q2157.3438,19.125 2156.75,18.8594 Q2156.1563,18.5781 2155.5313,18.5781 Q2154.1875,18.5781 2153.5,19.6563 Q2152.8125,20.7188 2152.8125,22.8125 Q2152.8125,24.9063 2153.5,25.9844 Q2154.1875,27.0469 2155.5313,27.0469 Q2156.1563,27.0469 2156.75,26.7813 Q2157.3438,26.5 2157.9688,25.9219 L2157.9688,28.6406 Z " fill="#000000"/><text fill="#000000" font-family="sans-serif" font-size="14" lengthAdjust="spacing" textLength="38.2676" x="2169" y="27.8467">Asset</text><line style="stroke:#181818;stroke-width:0.5;" x1="2141" x2="2209.2676" y1="39" y2="39"/><line style="stroke:#181818;stroke-width:0.5;" x1="2141" x2="2209.2676" y1="47" y2="47"/></g><!--class Platform--><g class="entity" data-qualified-name="Platform" data-source-line="9" id="ent0022"><rect fill="#F1F1F1" height="48" rx="2.5" ry="2.5" style="stroke:#181818;stroke-width:0.5;" width="91.2881" x="2068.5" y="115"/><ellipse cx="2083.5" cy="131" fill="#ADD1B2" rx="11" ry="11" style="stroke:#181818;stroke-width:1;"/><path d="M2086.4688,136.6406 Q2085.8906,136.9375 2085.25,137.0781 Q2084.6094,137.2344 2083.9063,137.2344 Q2081.4063,137.2344 2080.0781,135.5938 Q2078.7656,133.9375 2078.7656,130.8125 Q2078.7656,127.6875 2080.0781,126.0313 Q2081.4063,124.375 2083.9063,124.375 Q2084.6094,124.375 2085.25,124.5313 Q2085.9063,124.6875 2086.4688,124.9844 L2086.4688,127.7031 Q2085.8438,127.125 2085.25,126.8594 Q2084.6563,126.5781 2084.0313,126.5781 Q2082.6875,126.5781 2082,127.6563 Q2081.3125,128.7188 2081.3125,130.8125 Q2081.3125,132.9063 2082,133.9844 Q2082.6875,135.0469 2084.0313,135.0469 Q2084.6563,135.0469 2085.25,134.7813 Q2085.8438,134.5 2086.4688,133.9219 L2086.4688,136.6406 Z " fill="#000000"/><text fill="#000000" font-family="sans-serif" font-size="14" lengthAdjust="spacing" textLength="59.2881" x="2097.5" y="135.8467">Platform</text><line style="stroke:#181818;stroke-width:0.5;" x1="2069.5" x2="2158.7881" y1="147" y2="147"/><line style="stroke:#181818;stroke-width:0.5;" x1="2069.5" x2="2158.7881" y1="155" y2="155"/></g><!--class System--><g class="entity" data-qualified-name="System" data-source-line="10" id="ent0024"><rect fill="#F1F1F1" height="48" rx="2.5" ry="2.5" style="stroke:#181818;stroke-width:0.5;" width="84.2061" x="2195" y="115"/><ellipse cx="2210" cy="131" fill="#ADD1B2" rx="11" ry="11" style="stroke:#181818;stroke-width:1;"/><path d="M2212.9688,136.6406 Q2212.3906,136.9375 2211.75,137.0781 Q2211.1094,137.2344 2210.4063,137.2344 Q2207.9063,137.2344 2206.5781,135.5938 Q2205.2656,133.9375 2205.2656,130.8125 Q2205.2656,127.6875 2206.5781,126.0313 Q2207.9063,124.375 2210.4063,124.375 Q2211.1094,124.375 2211.75,124.5313 Q2212.4063,124.6875 2212.9688,124.9844 L2212.9688,127.7031 Q2212.3438,127.125 2211.75,126.8594 Q2211.1563,126.5781 2210.5313,126.5781 Q2209.1875,126.5781 2208.5,127.6563 Q2207.8125,128.7188 2207.8125,130.8125 Q2207.8125,132.9063 2208.5,133.9844 Q2209.1875,135.0469 2210.5313,135.0469 Q2211.1563,135.0469 2211.75,134.7813 Q2212.3438,134.5 2212.9688,133.9219 L2212.9688,136.6406 Z " fill="#000000"/><text fill="#000000" font-family="sans-serif" font-size="14" lengthAdjust="spacing" textLength="52.2061" x="2224" y="135.8467">System</text><line style="stroke:#181818;stroke-width:0.5;" x1="2196" x2="2278.2061" y1="147" y2="147"/><line style="stroke:#181818;stroke-width:0.5;" x1="2196" x2="2278.2061" y1="155" y2="155"/></g><!--class Sampler--><g class="entity" data-qualified-name="Sampler" data-source-line="10" id="ent0025"><rect fill="#F1F1F1" height="48" rx="2.5" ry="2.5" style="stroke:#181818;stroke-width:0.5;" width="90.249" x="2066" y="223"/><ellipse cx="2081" cy="239" fill="#ADD1B2" rx="11" ry="11" style="stroke:#181818;stroke-width:1;"/><path d="M2083.9688,244.6406 Q2083.3906,244.9375 2082.75,245.0781 Q2082.1094,245.2344 2081.4063,245.2344 Q2078.9063,245.2344 2077.5781,243.5938 Q2076.2656,241.9375 2076.2656,238.8125 Q2076.2656,235.6875 2077.5781,234.0313 Q2078.9063,232.375 2081.4063,232.375 Q2082.1094,232.375 2082.75,232.5313 Q2083.4063,232.6875 2083.9688,232.9844 L2083.9688,235.7031 Q2083.3438,235.125 2082.75,234.8594 Q2082.1563,234.5781 2081.5313,234.5781 Q2080.1875,234.5781 2079.5,235.6563 Q2078.8125,236.7188 2078.8125,238.8125 Q2078.8125,240.9063 2079.5,241.9844 Q2080.1875,243.0469 2081.5313,243.0469 Q2082.1563,243.0469 2082.75,242.7813 Q2083.3438,242.5 2083.9688,241.9219 L2083.9688,244.6406 Z " fill="#000000"/><text fill="#000000" font-family="sans-serif" font-size="14" lengthAdjust="spacing" textLength="58.249" x="2095" y="243.8467">Sampler</text><line style="stroke:#181818;stroke-width:0.5;" x1="2067" x2="2155.249" y1="255" y2="255"/><line style="stroke:#181818;stroke-width:0.5;" x1="2067" x2="2155.249" y1="263" y2="263"/></g><!--class Actuator--><g class="entity" data-qualified-name="Actuator" data-source-line="11" id="ent0027"><rect fill="#F1F1F1" height="48" rx="2.5" ry="2.5" style="stroke:#181818;stroke-width:0.5;" width="92.0264" x="2191" y="223"/><ellipse cx="2206" cy="239" fill="#ADD1B2" rx="11" ry="11" style="stroke:#181818;stroke-width:1;"/><path d="M2208.9688,244.6406 Q2208.3906,244.9375 2207.75,245.0781 Q2207.1094,245.2344 2206.4063,245.2344 Q2203.9063,245.2344 2202.5781,243.5938 Q2201.2656,241.9375 2201.2656,238.8125 Q2201.2656,235.6875 2202.5781,234.0313 Q2203.9063,232.375 2206.4063,232.375 Q2207.1094,232.375 2207.75,232.5313 Q2208.4063,232.6875 2208.9688,232.9844 L2208.9688,235.7031 Q2208.3438,235.125 2207.75,234.8594 Q2207.1563,234.5781 2206.5313,234.5781 Q2205.1875,234.5781 2204.5,235.6563 Q2203.8125,236.7188 2203.8125,238.8125 Q2203.8125,240.9063 2204.5,241.9844 Q2205.1875,243.0469 2206.5313,243.0469 Q2207.1563,243.0469 2207.75,242.7813 Q2208.3438,242.5 2208.9688,241.9219 L2208.9688,244.6406 Z " fill="#000000"/><text fill="#000000" font-family="sans-serif" font-size="14" lengthAdjust="spacing" textLength="60.0264" x="2220" y="243.8467">Actuator</text><line style="stroke:#181818;stroke-width:0.5;" x1="2192" x2="2282.0264" y1="255" y2="255"/><line style="stroke:#181818;stroke-width:0.5;" x1="2192" x2="2282.0264" y1="263" y2="263"/></g><!--class Execution--><g class="entity" data-qualified-name="Execution" data-source-line="13" id="ent0030"><rect fill="#F1F1F1" height="48" rx="2.5" ry="2.5" style="stroke:#181818;stroke-width:0.5;" width="101.1318" x="2446.5" y="7"/><ellipse cx="2461.5" cy="23" fill="#ADD1B2" rx="11" ry="11" style="stroke:#181818;stroke-width:1;"/><path d="M2464.4688,28.6406 Q2463.8906,28.9375 2463.25,29.0781 Q2462.6094,29.2344 2461.9063,29.2344 Q2459.4063,29.2344 2458.0781,27.5938 Q2456.7656,25.9375 2456.7656,22.8125 Q2456.7656,19.6875 2458.0781,18.0313 Q2459.4063,16.375 2461.9063,16.375 Q2462.6094,16.375 2463.25,16.5313 Q2463.9063,16.6875 2464.4688,16.9844 L2464.4688,19.7031 Q2463.8438,19.125 2463.25,18.8594 Q2462.6563,18.5781 2462.0313,18.5781 Q2460.6875,18.5781 2460,19.6563 Q2459.3125,20.7188 2459.3125,22.8125 Q2459.3125,24.9063 2460,25.9844 Q2460.6875,27.0469 2462.0313,27.0469 Q2462.6563,27.0469 2463.25,26.7813 Q2463.8438,26.5 2464.4688,25.9219 L2464.4688,28.6406 Z " fill="#000000"/><text fill="#000000" font-family="sans-serif" font-size="14" lengthAdjust="spacing" textLength="69.1318" x="2475.5" y="27.8467">Execution</text><line style="stroke:#181818;stroke-width:0.5;" x1="2447.5" x2="2546.6318" y1="39" y2="39"/><line style="stroke:#181818;stroke-width:0.5;" x1="2447.5" x2="2546.6318" y1="47" y2="47"/></g><!--class Sampling--><g class="entity" data-qualified-name="Sampling" data-source-line="13" id="ent0031"><rect fill="#F1F1F1" height="48" rx="2.5" ry="2.5" style="stroke:#181818;stroke-width:0.5;" width="97.5293" x="2314" y="115"/><ellipse cx="2329" cy="131" fill="#ADD1B2" rx="11" ry="11" style="stroke:#181818;stroke-width:1;"/><path d="M2331.9688,136.6406 Q2331.3906,136.9375 2330.75,137.0781 Q2330.1094,137.2344 2329.4063,137.2344 Q2326.9063,137.2344 2325.5781,135.5938 Q2324.2656,133.9375 2324.2656,130.8125 Q2324.2656,127.6875 2325.5781,126.0313 Q2326.9063,124.375 2329.4063,124.375 Q2330.1094,124.375 2330.75,124.5313 Q2331.4063,124.6875 2331.9688,124.9844 L2331.9688,127.7031 Q2331.3438,127.125 2330.75,126.8594 Q2330.1563,126.5781 2329.5313,126.5781 Q2328.1875,126.5781 2327.5,127.6563 Q2326.8125,128.7188 2326.8125,130.8125 Q2326.8125,132.9063 2327.5,133.9844 Q2328.1875,135.0469 2329.5313,135.0469 Q2330.1563,135.0469 2330.75,134.7813 Q2331.3438,134.5 2331.9688,133.9219 L2331.9688,136.6406 Z " fill="#000000"/><text fill="#000000" font-family="sans-serif" font-size="14" lengthAdjust="spacing" textLength="65.5293" x="2343" y="135.8467">Sampling</text><line style="stroke:#181818;stroke-width:0.5;" x1="2315" x2="2410.5293" y1="147" y2="147"/><line style="stroke:#181818;stroke-width:0.5;" x1="2315" x2="2410.5293" y1="155" y2="155"/></g><!--class ExecutionCollection--><g class="entity" data-qualified-name="ExecutionCollection" data-source-line="14" id="ent0033"><rect fill="#F1F1F1" height="48" rx="2.5" ry="2.5" style="stroke:#181818;stroke-width:0.5;" width="170.3799" x="2934" y="7"/><ellipse cx="2949" cy="23" fill="#ADD1B2" rx="11" ry="11" style="stroke:#181818;stroke-width:1;"/><path d="M2951.9688,28.6406 Q2951.3906,28.9375 2950.75,29.0781 Q2950.1094,29.2344 2949.4063,29.2344 Q2946.9063,29.2344 2945.5781,27.5938 Q2944.2656,25.9375 2944.2656,22.8125 Q2944.2656,19.6875 2945.5781,18.0313 Q2946.9063,16.375 2949.4063,16.375 Q2950.1094,16.375 2950.75,16.5313 Q2951.4063,16.6875 2951.9688,16.9844 L2951.9688,19.7031 Q2951.3438,19.125 2950.75,18.8594 Q2950.1563,18.5781 2949.5313,18.5781 Q2948.1875,18.5781 2947.5,19.6563 Q2946.8125,20.7188 2946.8125,22.8125 Q2946.8125,24.9063 2947.5,25.9844 Q2948.1875,27.0469 2949.5313,27.0469 Q2950.1563,27.0469 2950.75,26.7813 Q2951.3438,26.5 2951.9688,25.9219 L2951.9688,28.6406 Z " fill="#000000"/><text fill="#000000" font-family="sans-serif" font-size="14" lengthAdjust="spacing" textLength="138.3799" x="2963" y="27.8467">ExecutionCollection</text><line style="stroke:#181818;stroke-width:0.5;" x1="2935" x2="3103.3799" y1="39" y2="39"/><line style="stroke:#181818;stroke-width:0.5;" x1="2935" x2="3103.3799" y1="47" y2="47"/></g><!--class SamplingCollection--><g class="entity" data-qualified-name="SamplingCollection" data-source-line="14" id="ent0034"><rect fill="#F1F1F1" height="48" rx="2.5" ry="2.5" style="stroke:#181818;stroke-width:0.5;" width="166.7773" x="2733.5" y="115"/><ellipse cx="2748.5" cy="131" fill="#ADD1B2" rx="11" ry="11" style="stroke:#181818;stroke-width:1;"/><path d="M2751.4688,136.6406 Q2750.8906,136.9375 2750.25,137.0781 Q2749.6094,137.2344 2748.9063,137.2344 Q2746.4063,137.2344 2745.0781,135.5938 Q2743.7656,133.9375 2743.7656,130.8125 Q2743.7656,127.6875 2745.0781,126.0313 Q2746.4063,124.375 2748.9063,124.375 Q2749.6094,124.375 2750.25,124.5313 Q2750.9063,124.6875 2751.4688,124.9844 L2751.4688,127.7031 Q2750.8438,127.125 2750.25,126.8594 Q2749.6563,126.5781 2749.0313,126.5781 Q2747.6875,126.5781 2747,127.6563 Q2746.3125,128.7188 2746.3125,130.8125 Q2746.3125,132.9063 2747,133.9844 Q2747.6875,135.0469 2749.0313,135.0469 Q2749.6563,135.0469 2750.25,134.7813 Q2750.8438,134.5 2751.4688,133.9219 L2751.4688,136.6406 Z " fill="#000000"/><text fill="#000000" font-family="sans-serif" font-size="14" lengthAdjust="spacing" textLength="134.7773" x="2762.5" y="135.8467">SamplingCollection</text><line style="stroke:#181818;stroke-width:0.5;" x1="2734.5" x2="2899.2773" y1="147" y2="147"/><line style="stroke:#181818;stroke-width:0.5;" x1="2734.5" x2="2899.2773" y1="155" y2="155"/></g><!--class Actuation--><g class="entity" data-qualified-name="Actuation" data-source-line="15" id="ent0036"><rect fill="#F1F1F1" height="48" rx="2.5" ry="2.5" style="stroke:#181818;stroke-width:0.5;" width="99.0332" x="2447.5" y="115"/><ellipse cx="2462.5" cy="131" fill="#ADD1B2" rx="11" ry="11" style="stroke:#181818;stroke-width:1;"/><path d="M2465.4688,136.6406 Q2464.8906,136.9375 2464.25,137.0781 Q2463.6094,137.2344 2462.9063,137.2344 Q2460.4063,137.2344 2459.0781,135.5938 Q2457.7656,133.9375 2457.7656,130.8125 Q2457.7656,127.6875 2459.0781,126.0313 Q2460.4063,124.375 2462.9063,124.375 Q2463.6094,124.375 2464.25,124.5313 Q2464.9063,124.6875 2465.4688,124.9844 L2465.4688,127.7031 Q2464.8438,127.125 2464.25,126.8594 Q2463.6563,126.5781 2463.0313,126.5781 Q2461.6875,126.5781 2461,127.6563 Q2460.3125,128.7188 2460.3125,130.8125 Q2460.3125,132.9063 2461,133.9844 Q2461.6875,135.0469 2463.0313,135.0469 Q2463.6563,135.0469 2464.25,134.7813 Q2464.8438,134.5 2465.4688,133.9219 L2465.4688,136.6406 Z " fill="#000000"/><text fill="#000000" font-family="sans-serif" font-size="14" lengthAdjust="spacing" textLength="67.0332" x="2476.5" y="135.8467">Actuation</text><line style="stroke:#181818;stroke-width:0.5;" x1="2448.5" x2="2545.5332" y1="147" y2="147"/><line style="stroke:#181818;stroke-width:0.5;" x1="2448.5" x2="2545.5332" y1="155" y2="155"/></g><!--class Sensor--><g class="entity" data-qualified-name="Sensor" data-source-line="16" id="ent0038"><rect fill="#F1F1F1" height="48" rx="2.5" ry="2.5" style="stroke:#181818;stroke-width:0.5;" width="79.9883" x="2318" y="223"/><ellipse cx="2333" cy="239" fill="#ADD1B2" rx="11" ry="11" style="stroke:#181818;stroke-width:1;"/><path d="M2335.9688,244.6406 Q2335.3906,244.9375 2334.75,245.0781 Q2334.1094,245.2344 2333.4063,245.2344 Q2330.9063,245.2344 2329.5781,243.5938 Q2328.2656,241.9375 2328.2656,238.8125 Q2328.2656,235.6875 2329.5781,234.0313 Q2330.9063,232.375 2333.4063,232.375 Q2334.1094,232.375 2334.75,232.5313 Q2335.4063,232.6875 2335.9688,232.9844 L2335.9688,235.7031 Q2335.3438,235.125 2334.75,234.8594 Q2334.1563,234.5781 2333.5313,234.5781 Q2332.1875,234.5781 2331.5,235.6563 Q2330.8125,236.7188 2330.8125,238.8125 Q2330.8125,240.9063 2331.5,241.9844 Q2332.1875,243.0469 2333.5313,243.0469 Q2334.1563,243.0469 2334.75,242.7813 Q2335.3438,242.5 2335.9688,241.9219 L2335.9688,244.6406 Z " fill="#000000"/><text fill="#000000" font-family="sans-serif" font-size="14" lengthAdjust="spacing" textLength="47.9883" x="2347" y="243.8467">Sensor</text><line style="stroke:#181818;stroke-width:0.5;" x1="2319" x2="2396.9883" y1="255" y2="255"/><line style="stroke:#181818;stroke-width:0.5;" x1="2319" x2="2396.9883" y1="263" y2="263"/></g><!--class ActuationCollection--><g class="entity" data-qualified-name="ActuationCollection" data-source-line="17" id="ent0040"><rect fill="#F1F1F1" height="48" rx="2.5" ry="2.5" style="stroke:#181818;stroke-width:0.5;" width="168.2813" x="2935" y="115"/><ellipse cx="2950" cy="131" fill="#ADD1B2" rx="11" ry="11" style="stroke:#181818;stroke-width:1;"/><path d="M2952.9688,136.6406 Q2952.3906,136.9375 2951.75,137.0781 Q2951.1094,137.2344 2950.4063,137.2344 Q2947.9063,137.2344 2946.5781,135.5938 Q2945.2656,133.9375 2945.2656,130.8125 Q2945.2656,127.6875 2946.5781,126.0313 Q2947.9063,124.375 2950.4063,124.375 Q2951.1094,124.375 2951.75,124.5313 Q2952.4063,124.6875 2952.9688,124.9844 L2952.9688,127.7031 Q2952.3438,127.125 2951.75,126.8594 Q2951.1563,126.5781 2950.5313,126.5781 Q2949.1875,126.5781 2948.5,127.6563 Q2947.8125,128.7188 2947.8125,130.8125 Q2947.8125,132.9063 2948.5,133.9844 Q2949.1875,135.0469 2950.5313,135.0469 Q2951.1563,135.0469 2951.75,134.7813 Q2952.3438,134.5 2952.9688,133.9219 L2952.9688,136.6406 Z " fill="#000000"/><text fill="#000000" font-family="sans-serif" font-size="14" lengthAdjust="spacing" textLength="136.2813" x="2964" y="135.8467">ActuationCollection</text><line style="stroke:#181818;stroke-width:0.5;" x1="2936" x2="3102.2813" y1="147" y2="147"/><line style="stroke:#181818;stroke-width:0.5;" x1="2936" x2="3102.2813" y1="155" y2="155"/></g><!--class ObservationCollection--><g class="entity" data-qualified-name="ObservationCollection" data-source-line="18" id="ent0042"><rect fill="#F1F1F1" height="48" rx="2.5" ry="2.5" style="stroke:#181818;stroke-width:0.5;" width="186.499" x="3138" y="115"/><ellipse cx="3153" cy="131" fill="#ADD1B2" rx="11" ry="11" style="stroke:#181818;stroke-width:1;"/><path d="M3155.9688,136.6406 Q3155.3906,136.9375 3154.75,137.0781 Q3154.1094,137.2344 3153.4063,137.2344 Q3150.9063,137.2344 3149.5781,135.5938 Q3148.2656,133.9375 3148.2656,130.8125 Q3148.2656,127.6875 3149.5781,126.0313 Q3150.9063,124.375 3153.4063,124.375 Q3154.1094,124.375 3154.75,124.5313 Q3155.4063,124.6875 3155.9688,124.9844 L3155.9688,127.7031 Q3155.3438,127.125 3154.75,126.8594 Q3154.1563,126.5781 3153.5313,126.5781 Q3152.1875,126.5781 3151.5,127.6563 Q3150.8125,128.7188 3150.8125,130.8125 Q3150.8125,132.9063 3151.5,133.9844 Q3152.1875,135.0469 3153.5313,135.0469 Q3154.1563,135.0469 3154.75,134.7813 Q3155.3438,134.5 3155.9688,133.9219 L3155.9688,136.6406 Z " fill="#000000"/><text fill="#000000" font-family="sans-serif" font-size="14" lengthAdjust="spacing" textLength="154.499" x="3167" y="135.8467">ObservationCollection</text><line style="stroke:#181818;stroke-width:0.5;" x1="3139" x2="3323.499" y1="147" y2="147"/><line style="stroke:#181818;stroke-width:0.5;" x1="3139" x2="3323.499" y1="155" y2="155"/></g><!--class Observation--><g class="entity" data-qualified-name="Observation" data-source-line="19" id="ent0044"><rect fill="#F1F1F1" height="48" rx="2.5" ry="2.5" style="stroke:#181818;stroke-width:0.5;" width="117.251" x="2581.5" y="115"/><ellipse cx="2596.5" cy="131" fill="#ADD1B2" rx="11" ry="11" style="stroke:#181818;stroke-width:1;"/><path d="M2599.4688,136.6406 Q2598.8906,136.9375 2598.25,137.0781 Q2597.6094,137.2344 2596.9063,137.2344 Q2594.4063,137.2344 2593.0781,135.5938 Q2591.7656,133.9375 2591.7656,130.8125 Q2591.7656,127.6875 2593.0781,126.0313 Q2594.4063,124.375 2596.9063,124.375 Q2597.6094,124.375 2598.25,124.5313 Q2598.9063,124.6875 2599.4688,124.9844 L2599.4688,127.7031 Q2598.8438,127.125 2598.25,126.8594 Q2597.6563,126.5781 2597.0313,126.5781 Q2595.6875,126.5781 2595,127.6563 Q2594.3125,128.7188 2594.3125,130.8125 Q2594.3125,132.9063 2595,133.9844 Q2595.6875,135.0469 2597.0313,135.0469 Q2597.6563,135.0469 2598.25,134.7813 Q2598.8438,134.5 2599.4688,133.9219 L2599.4688,136.6406 Z " fill="#000000"/><text fill="#000000" font-family="sans-serif" font-size="14" lengthAdjust="spacing" textLength="85.251" x="2610.5" y="135.8467">Observation</text><line style="stroke:#181818;stroke-width:0.5;" x1="2582.5" x2="2697.751" y1="147" y2="147"/><line style="stroke:#181818;stroke-width:0.5;" x1="2582.5" x2="2697.751" y1="155" y2="155"/></g><!--class Deployment--><g class="entity" data-qualified-name="Deployment" data-source-line="20" id="ent0046"><rect fill="#F1F1F1" height="48" rx="2.5" ry="2.5" style="stroke:#181818;stroke-width:0.5;" width="117.6338" x="25" y="7"/><ellipse cx="40" cy="23" fill="#ADD1B2" rx="11" ry="11" style="stroke:#181818;stroke-width:1;"/><path d="M42.9688,28.6406 Q42.3906,28.9375 41.75,29.0781 Q41.1094,29.2344 40.4063,29.2344 Q37.9063,29.2344 36.5781,27.5938 Q35.2656,25.9375 35.2656,22.8125 Q35.2656,19.6875 36.5781,18.0313 Q37.9063,16.375 40.4063,16.375 Q41.1094,16.375 41.75,16.5313 Q42.4063,16.6875 42.9688,16.9844 L42.9688,19.7031 Q42.3438,19.125 41.75,18.8594 Q41.1563,18.5781 40.5313,18.5781 Q39.1875,18.5781 38.5,19.6563 Q37.8125,20.7188 37.8125,22.8125 Q37.8125,24.9063 38.5,25.9844 Q39.1875,27.0469 40.5313,27.0469 Q41.1563,27.0469 41.75,26.7813 Q42.3438,26.5 42.9688,25.9219 L42.9688,28.6406 Z " fill="#000000"/><text fill="#000000" font-family="sans-serif" font-size="14" lengthAdjust="spacing" textLength="85.6338" x="54" y="27.8467">Deployment</text><line style="stroke:#181818;stroke-width:0.5;" x1="26" x2="141.6338" y1="39" y2="39"/><line style="stroke:#181818;stroke-width:0.5;" x1="26" x2="141.6338" y1="47" y2="47"/></g><!--class Input--><g class="entity" data-qualified-name="Input" data-source-line="22" id="ent0047"><rect fill="#F1F1F1" height="48" rx="2.5" ry="2.5" style="stroke:#181818;stroke-width:0.5;" width="68.251" x="178" y="7"/><ellipse cx="193" cy="23" fill="#ADD1B2" rx="11" ry="11" style="stroke:#181818;stroke-width:1;"/><path d="M195.9688,28.6406 Q195.3906,28.9375 194.75,29.0781 Q194.1094,29.2344 193.4063,29.2344 Q190.9063,29.2344 189.5781,27.5938 Q188.2656,25.9375 188.2656,22.8125 Q188.2656,19.6875 189.5781,18.0313 Q190.9063,16.375 193.4063,16.375 Q194.1094,16.375 194.75,16.5313 Q195.4063,16.6875 195.9688,16.9844 L195.9688,19.7031 Q195.3438,19.125 194.75,18.8594 Q194.1563,18.5781 193.5313,18.5781 Q192.1875,18.5781 191.5,19.6563 Q190.8125,20.7188 190.8125,22.8125 Q190.8125,24.9063 191.5,25.9844 Q192.1875,27.0469 193.5313,27.0469 Q194.1563,27.0469 194.75,26.7813 Q195.3438,26.5 195.9688,25.9219 L195.9688,28.6406 Z " fill="#000000"/><text fill="#000000" font-family="sans-serif" font-size="14" lengthAdjust="spacing" textLength="36.251" x="207" y="27.8467">Input</text><line style="stroke:#181818;stroke-width:0.5;" x1="179" x2="245.251" y1="39" y2="39"/><line style="stroke:#181818;stroke-width:0.5;" x1="179" x2="245.251" y1="47" y2="47"/></g><!--class Stimulus--><g class="entity" data-qualified-name="Stimulus" data-source-line="23" id="ent0048"><rect fill="#F1F1F1" height="48" rx="2.5" ry="2.5" style="stroke:#181818;stroke-width:0.5;" width="92.833" x="281.5" y="7"/><ellipse cx="296.5" cy="23" fill="#ADD1B2" rx="11" ry="11" style="stroke:#181818;stroke-width:1;"/><path d="M299.4688,28.6406 Q298.8906,28.9375 298.25,29.0781 Q297.6094,29.2344 296.9063,29.2344 Q294.4063,29.2344 293.0781,27.5938 Q291.7656,25.9375 291.7656,22.8125 Q291.7656,19.6875 293.0781,18.0313 Q294.4063,16.375 296.9063,16.375 Q297.6094,16.375 298.25,16.5313 Q298.9063,16.6875 299.4688,16.9844 L299.4688,19.7031 Q298.8438,19.125 298.25,18.8594 Q297.6563,18.5781 297.0313,18.5781 Q295.6875,18.5781 295,19.6563 Q294.3125,20.7188 294.3125,22.8125 Q294.3125,24.9063 295,25.9844 Q295.6875,27.0469 297.0313,27.0469 Q297.6563,27.0469 298.25,26.7813 Q298.8438,26.5 299.4688,25.9219 L299.4688,28.6406 Z " fill="#000000"/><text fill="#000000" font-family="sans-serif" font-size="14" lengthAdjust="spacing" textLength="60.833" x="310.5" y="27.8467">Stimulus</text><line style="stroke:#181818;stroke-width:0.5;" x1="282.5" x2="373.333" y1="39" y2="39"/><line style="stroke:#181818;stroke-width:0.5;" x1="282.5" x2="373.333" y1="47" y2="47"/></g><!--class SampleCollection--><g class="entity" data-qualified-name="SampleCollection" data-source-line="24" id="ent0049"><rect fill="#F1F1F1" height="48" rx="2.5" ry="2.5" style="stroke:#181818;stroke-width:0.5;" width="153.7412" x="7" y="115"/><ellipse cx="22" cy="131" fill="#ADD1B2" rx="11" ry="11" style="stroke:#181818;stroke-width:1;"/><path d="M24.9688,136.6406 Q24.3906,136.9375 23.75,137.0781 Q23.1094,137.2344 22.4063,137.2344 Q19.9063,137.2344 18.5781,135.5938 Q17.2656,133.9375 17.2656,130.8125 Q17.2656,127.6875 18.5781,126.0313 Q19.9063,124.375 22.4063,124.375 Q23.1094,124.375 23.75,124.5313 Q24.4063,124.6875 24.9688,124.9844 L24.9688,127.7031 Q24.3438,127.125 23.75,126.8594 Q23.1563,126.5781 22.5313,126.5781 Q21.1875,126.5781 20.5,127.6563 Q19.8125,128.7188 19.8125,130.8125 Q19.8125,132.9063 20.5,133.9844 Q21.1875,135.0469 22.5313,135.0469 Q23.1563,135.0469 23.75,134.7813 Q24.3438,134.5 24.9688,133.9219 L24.9688,136.6406 Z " fill="#000000"/><text fill="#000000" font-family="sans-serif" font-size="14" lengthAdjust="spacing" textLength="121.7412" x="36" y="135.8467">SampleCollection</text><line style="stroke:#181818;stroke-width:0.5;" x1="8" x2="159.7412" y1="147" y2="147"/><line style="stroke:#181818;stroke-width:0.5;" x1="8" x2="159.7412" y1="155" y2="155"/></g><!--class Output--><g class="entity" data-qualified-name="Output" data-source-line="25" id="ent0050"><rect fill="#F1F1F1" height="48" rx="2.5" ry="2.5" style="stroke:#181818;stroke-width:0.5;" width="80.6309" x="196.5" y="115"/><ellipse cx="211.5" cy="131" fill="#ADD1B2" rx="11" ry="11" style="stroke:#181818;stroke-width:1;"/><path d="M214.4688,136.6406 Q213.8906,136.9375 213.25,137.0781 Q212.6094,137.2344 211.9063,137.2344 Q209.4063,137.2344 208.0781,135.5938 Q206.7656,133.9375 206.7656,130.8125 Q206.7656,127.6875 208.0781,126.0313 Q209.4063,124.375 211.9063,124.375 Q212.6094,124.375 213.25,124.5313 Q213.9063,124.6875 214.4688,124.9844 L214.4688,127.7031 Q213.8438,127.125 213.25,126.8594 Q212.6563,126.5781 212.0313,126.5781 Q210.6875,126.5781 210,127.6563 Q209.3125,128.7188 209.3125,130.8125 Q209.3125,132.9063 210,133.9844 Q210.6875,135.0469 212.0313,135.0469 Q212.6563,135.0469 213.25,134.7813 Q213.8438,134.5 214.4688,133.9219 L214.4688,136.6406 Z " fill="#000000"/><text fill="#000000" font-family="sans-serif" font-size="14" lengthAdjust="spacing" textLength="48.6309" x="225.5" y="135.8467">Output</text><line style="stroke:#181818;stroke-width:0.5;" x1="197.5" x2="276.1309" y1="147" y2="147"/><line style="stroke:#181818;stroke-width:0.5;" x1="197.5" x2="276.1309" y1="155" y2="155"/></g><!--class FeatureOfInterest--><g class="entity" data-qualified-name="FeatureOfInterest" data-source-line="26" id="ent0051"><rect fill="#F1F1F1" height="48" rx="2.5" ry="2.5" style="stroke:#181818;stroke-width:0.5;" width="156.1816" x="313" y="115"/><ellipse cx="328" cy="131" fill="#ADD1B2" rx="11" ry="11" style="stroke:#181818;stroke-width:1;"/><path d="M330.9688,136.6406 Q330.3906,136.9375 329.75,137.0781 Q329.1094,137.2344 328.4063,137.2344 Q325.9063,137.2344 324.5781,135.5938 Q323.2656,133.9375 323.2656,130.8125 Q323.2656,127.6875 324.5781,126.0313 Q325.9063,124.375 328.4063,124.375 Q329.1094,124.375 329.75,124.5313 Q330.4063,124.6875 330.9688,124.9844 L330.9688,127.7031 Q330.3438,127.125 329.75,126.8594 Q329.1563,126.5781 328.5313,126.5781 Q327.1875,126.5781 326.5,127.6563 Q325.8125,128.7188 325.8125,130.8125 Q325.8125,132.9063 326.5,133.9844 Q327.1875,135.0469 328.5313,135.0469 Q329.1563,135.0469 329.75,134.7813 Q330.3438,134.5 330.9688,133.9219 L330.9688,136.6406 Z " fill="#000000"/><text fill="#000000" font-family="sans-serif" font-size="14" lengthAdjust="spacing" textLength="124.1816" x="342" y="135.8467">FeatureOfInterest</text><line style="stroke:#181818;stroke-width:0.5;" x1="314" x2="468.1816" y1="147" y2="147"/><line style="stroke:#181818;stroke-width:0.5;" x1="314" x2="468.1816" y1="155" y2="155"/></g><!--class Result--><g class="entity" data-qualified-name="Result" data-source-line="30" id="ent0052"><rect fill="#F1F1F1" height="48" rx="2.5" ry="2.5" style="stroke:#181818;stroke-width:0.5;" width="75.8867" x="46" y="223"/><ellipse cx="61" cy="239" fill="#ADD1B2" rx="11" ry="11" style="stroke:#181818;stroke-width:1;"/><path d="M63.9688,244.6406 Q63.3906,244.9375 62.75,245.0781 Q62.1094,245.2344 61.4063,245.2344 Q58.9063,245.2344 57.5781,243.5938 Q56.2656,241.9375 56.2656,238.8125 Q56.2656,235.6875 57.5781,234.0313 Q58.9063,232.375 61.4063,232.375 Q62.1094,232.375 62.75,232.5313 Q63.4063,232.6875 63.9688,232.9844 L63.9688,235.7031 Q63.3438,235.125 62.75,234.8594 Q62.1563,234.5781 61.5313,234.5781 Q60.1875,234.5781 59.5,235.6563 Q58.8125,236.7188 58.8125,238.8125 Q58.8125,240.9063 59.5,241.9844 Q60.1875,243.0469 61.5313,243.0469 Q62.1563,243.0469 62.75,242.7813 Q63.3438,242.5 63.9688,241.9219 L63.9688,244.6406 Z " fill="#000000"/><text fill="#000000" font-family="sans-serif" font-size="14" lengthAdjust="spacing" textLength="43.8867" x="75" y="243.8467">Result</text><line style="stroke:#181818;stroke-width:0.5;" x1="47" x2="120.8867" y1="255" y2="255"/><line style="stroke:#181818;stroke-width:0.5;" x1="47" x2="120.8867" y1="263" y2="263"/></g><!--reverse link Property to ActuatableProperty--><g class="link" data-entity-1="ent0002" data-entity-2="ent0003" data-link-type="extension" data-source-line="1" id="lnk4"><path codeLine="1" d="M655.3905,67.9716 C638.4005,85.6316 627.51,96.94 610.44,114.68" fill="none" id="Property-backto-ActuatableProperty" style="stroke:#181818;stroke-width:1;"/><polygon fill="none" points="667.87,55,651.0667,63.8118,659.7144,72.1314,667.87,55" style="stroke:#181818;stroke-width:1;"/></g><!--reverse link Sample to MaterialSample--><g class="link" data-entity-1="ent0005" data-entity-2="ent0006" data-link-type="extension" data-source-line="2" id="lnk7"><path codeLine="2" d="M1104.3567,64.4445 C1075.6067,82.1645 1051.35,97.11 1022.55,114.86" fill="none" id="Sample-backto-MaterialSample" style="stroke:#181818;stroke-width:1;"/><polygon fill="none" points="1119.68,55,1101.2086,59.3367,1107.5049,69.5522,1119.68,55" style="stroke:#181818;stroke-width:1;"/></g><!--reverse link Sample to SpatialSample--><g class="link" data-entity-1="ent0005" data-entity-2="ent0008" data-link-type="extension" data-source-line="3" id="lnk9"><path codeLine="3" d="M1157,73 C1157,90.66 1157,96.94 1157,114.68" fill="none" id="Sample-backto-SpatialSample" style="stroke:#181818;stroke-width:1;"/><polygon fill="none" points="1157,55,1151,73,1163,73,1157,55" style="stroke:#181818;stroke-width:1;"/></g><!--reverse link Sample to StatisticalSample--><g class="link" data-entity-1="ent0005" data-entity-2="ent0010" data-link-type="extension" data-source-line="4" id="lnk11"><path codeLine="4" d="M1211.3276,64.1725 C1241.2476,81.8925 1266.95,97.11 1296.93,114.86" fill="none" id="Sample-backto-StatisticalSample" style="stroke:#181818;stroke-width:1;"/><polygon fill="none" points="1195.84,55,1208.2701,69.335,1214.3851,59.0099,1195.84,55" style="stroke:#181818;stroke-width:1;"/></g><!--reverse link Property to ObservableProperty--><g class="link" data-entity-1="ent0002" data-entity-2="ent0012" data-link-type="extension" data-source-line="5" id="lnk13"><path codeLine="5" d="M724.8939,67.9094 C742.0539,85.5694 753.1,96.94 770.34,114.68" fill="none" id="Property-backto-ObservableProperty" style="stroke:#181818;stroke-width:1;"/><polygon fill="none" points="712.35,55,720.5907,72.0906,729.197,63.7281,712.35,55" style="stroke:#181818;stroke-width:1;"/></g><!--reverse link Procedure to ActuatingProcedure--><g class="link" data-entity-1="ent0014" data-entity-2="ent0015" data-link-type="extension" data-source-line="6" id="lnk16"><path codeLine="6" d="M1680.8326,63.1732 C1646.0626,80.8932 1614.24,97.11 1579.4,114.86" fill="none" id="Procedure-backto-ActuatingProcedure" style="stroke:#181818;stroke-width:1;"/><polygon fill="none" points="1696.87,55,1678.1082,57.8274,1683.557,68.519,1696.87,55" style="stroke:#181818;stroke-width:1;"/></g><!--reverse link Procedure to ObservingProcedure--><g class="link" data-entity-1="ent0014" data-entity-2="ent0017" data-link-type="extension" data-source-line="7" id="lnk18"><path codeLine="7" d="M1742,73 C1742,90.66 1742,96.94 1742,114.68" fill="none" id="Procedure-backto-ObservingProcedure" style="stroke:#181818;stroke-width:1;"/><polygon fill="none" points="1742,55,1736,73,1748,73,1742,55" style="stroke:#181818;stroke-width:1;"/></g><!--reverse link Procedure to SamplingProcedure--><g class="link" data-entity-1="ent0014" data-entity-2="ent0019" data-link-type="extension" data-source-line="8" id="lnk20"><path codeLine="8" d="M1802.9411,63.205 C1837.5411,80.925 1869.15,97.11 1903.81,114.86" fill="none" id="Procedure-backto-SamplingProcedure" style="stroke:#181818;stroke-width:1;"/><polygon fill="none" points="1786.92,55,1800.2061,68.5454,1805.6762,57.8647,1786.92,55" style="stroke:#181818;stroke-width:1;"/></g><!--reverse link Asset to Platform--><g class="link" data-entity-1="ent0021" data-entity-2="ent0022" data-link-type="extension" data-source-line="9" id="lnk23"><path codeLine="9" d="M2152.7839,70.6022 C2142.6239,88.2622 2137.63,96.94 2127.42,114.68" fill="none" id="Asset-backto-Platform" style="stroke:#181818;stroke-width:1;"/><polygon fill="none" points="2161.76,55,2147.5831,67.6102,2157.9846,73.5943,2161.76,55" style="stroke:#181818;stroke-width:1;"/></g><!--reverse link System to Sampler--><g class="link" data-entity-1="ent0024" data-entity-2="ent0025" data-link-type="extension" data-source-line="10" id="lnk26"><path codeLine="10" d="M2195.8865,174.5884 C2174.8965,192.2484 2159.81,204.94 2138.72,222.68" fill="none" id="System-backto-Sampler" style="stroke:#181818;stroke-width:1;"/><polygon fill="none" points="2209.66,163,2192.0237,169.9972,2199.7493,179.1795,2209.66,163" style="stroke:#181818;stroke-width:1;"/></g><!--reverse link System to Actuator--><g class="link" data-entity-1="ent0024" data-entity-2="ent0027" data-link-type="extension" data-source-line="11" id="lnk28"><path codeLine="11" d="M2237,181 C2237,198.66 2237,204.94 2237,222.68" fill="none" id="System-backto-Actuator" style="stroke:#181818;stroke-width:1;"/><polygon fill="none" points="2237,163,2231,181,2243,181,2237,163" style="stroke:#181818;stroke-width:1;"/></g><!--reverse link Asset to System--><g class="link" data-entity-1="ent0021" data-entity-2="ent0024" data-link-type="extension" data-source-line="12" id="lnk29"><path codeLine="12" d="M2197.5383,70.5372 C2207.8683,88.1972 2212.98,96.94 2223.36,114.68" fill="none" id="Asset-backto-System" style="stroke:#181818;stroke-width:1;"/><polygon fill="none" points="2188.45,55,2192.3592,73.5666,2202.7173,67.5077,2188.45,55" style="stroke:#181818;stroke-width:1;"/></g><!--reverse link Execution to Sampling--><g class="link" data-entity-1="ent0030" data-entity-2="ent0031" data-link-type="extension" data-source-line="13" id="lnk32"><path codeLine="13" d="M2453.8041,66.1688 C2431.4841,83.8288 2414.91,96.94 2392.48,114.68" fill="none" id="Execution-backto-Sampling" style="stroke:#181818;stroke-width:1;"/><polygon fill="none" points="2467.92,55,2450.0812,61.4635,2457.527,70.8741,2467.92,55" style="stroke:#181818;stroke-width:1;"/></g><!--reverse link ExecutionCollection to SamplingCollection--><g class="link" data-entity-1="ent0033" data-entity-2="ent0034" data-link-type="extension" data-source-line="14" id="lnk35"><path codeLine="14" d="M2959.231,63.3636 C2925.461,81.0836 2894.93,97.11 2861.09,114.86" fill="none" id="ExecutionCollection-backto-SamplingCollection" style="stroke:#181818;stroke-width:1;"/><polygon fill="none" points="2975.17,55,2956.4432,58.0506,2962.0189,68.6766,2975.17,55" style="stroke:#181818;stroke-width:1;"/></g><!--reverse link Execution to Actuation--><g class="link" data-entity-1="ent0030" data-entity-2="ent0036" data-link-type="extension" data-source-line="15" id="lnk37"><path codeLine="15" d="M2497,73 C2497,90.66 2497,96.94 2497,114.68" fill="none" id="Execution-backto-Actuation" style="stroke:#181818;stroke-width:1;"/><polygon fill="none" points="2497,55,2491,73,2503,73,2497,55" style="stroke:#181818;stroke-width:1;"/></g><!--reverse link System to Sensor--><g class="link" data-entity-1="ent0024" data-entity-2="ent0038" data-link-type="extension" data-source-line="16" id="lnk39"><path codeLine="16" d="M2276.7968,174.864 C2296.9468,192.524 2311.13,204.94 2331.38,222.68" fill="none" id="System-backto-Sensor" style="stroke:#181818;stroke-width:1;"/><polygon fill="none" points="2263.26,163,2272.8421,179.3763,2280.7515,170.3518,2263.26,163" style="stroke:#181818;stroke-width:1;"/></g><!--reverse link ExecutionCollection to ActuationCollection--><g class="link" data-entity-1="ent0033" data-entity-2="ent0040" data-link-type="extension" data-source-line="17" id="lnk41"><path codeLine="17" d="M3019,73 C3019,90.66 3019,96.94 3019,114.68" fill="none" id="ExecutionCollection-backto-ActuationCollection" style="stroke:#181818;stroke-width:1;"/><polygon fill="none" points="3019,55,3013,73,3025,73,3019,55" style="stroke:#181818;stroke-width:1;"/></g><!--reverse link ExecutionCollection to ObservationCollection--><g class="link" data-entity-1="ent0033" data-entity-2="ent0042" data-link-type="extension" data-source-line="18" id="lnk43"><path codeLine="18" d="M3081.0997,63.0498 C3116.5397,80.7698 3149.22,97.11 3184.72,114.86" fill="none" id="ExecutionCollection-backto-ObservationCollection" style="stroke:#181818;stroke-width:1;"/><polygon fill="none" points="3065,55,3078.4164,68.4164,3083.783,57.6833,3065,55" style="stroke:#181818;stroke-width:1;"/></g><!--reverse link Execution to Observation--><g class="link" data-entity-1="ent0030" data-entity-2="ent0044" data-link-type="extension" data-source-line="19" id="lnk45"><path codeLine="19" d="M2542.4895,65.7202 C2566.3095,83.3802 2584.61,96.94 2608.54,114.68" fill="none" id="Execution-backto-Observation" style="stroke:#181818;stroke-width:1;"/><polygon fill="none" points="2528.03,55,2538.9161,70.54,2546.0629,60.9004,2528.03,55" style="stroke:#181818;stroke-width:1;"/></g><?plantuml-src VP9BRiCm34JtFeKla1ja4xG9a4LXepu1epA50Ee3aIfg88Ul42csvSJTMVE678fo7vp786Exl-rsxK59184BOL_qPW3Z2JF-0C6WWR9MeS63R119X4MhYVPLPdTX33zLPlfG-1K3BgVIzdlIruxSup_7FReo79XHCkm9vEg2QOQH1SsY0aEbvKbSM1PdtXn_KKNHpjPvi_xcY50zEsPztQFSEu5gBhIS9jZiErMzQhmsb-LlsPzCZI9WRj_HaniDMYd2z7JvUBO-Fj0WsaIA_3ZUrxe8ot8NPIuv8KXwekvwjkc7GvQjsBBxbq6Vo97a3m00?></g></svg>