<svg xmlns="http://www.w3.org/2000/svg" xmlns:xlink="http://www.w3.org/1999/xlink" contentStyleType="text/css" data-diagram-type="CLASS" height="286px" preserveAspectRatio="none" style="width:3285px;height:286px;background:#FFFFFF;" version="1.1" viewBox="0 0 3285 286" width="3285px" zoomAndPan="magnify"><?plantuml 1.2026.6?><defs/><g><!--class Property--><g class="entity" data-qualified-name="Property" data-source-line="1" id="ent0001"><rect fill="#F1F1F1" height="48" rx="2.5" ry="2.5" style="stroke:#181818;stroke-width:0.5;" width="91.7939" x="590" y="7"/><ellipse cx="605" cy="23" fill="#ADD1B2" rx="11" ry="11" style="stroke:#181818;stroke-width:1;"/><path d="M607.9688,28.6406 Q607.3906,28.9375 606.75,29.0781 Q606.1094,29.2344 605.4063,29.2344 Q602.9063,29.2344 601.5781,27.5938 Q600.2656,25.9375 600.2656,22.8125 Q600.2656,19.6875 601.5781,18.0313 Q602.9063,16.375 605.4063,16.375 Q606.1094,16.375 606.75,16.5313 Q607.4063,16.6875 607.9688,16.9844 L607.9688,19.7031 Q607.3438,19.125 606.75,18.8594 Q606.1563,18.5781 605.5313,18.5781 Q604.1875,18.5781 603.5,19.6563 Q602.8125,20.7188 602.8125,22.8125 Q602.8125,24.9063 603.5,25.9844 Q604.1875,27.0469 605.5313,27.0469 Q606.1563,27.0469 606.75,26.7813 Q607.3438,26.5 607.9688,25.9219 L607.9688,28.6406 Z " fill="#000000"/><text fill="#000000" font-family="sans-serif" font-size="14" lengthAdjust="spacing" textLength="59.7939" x="619" y="27.8467">Property</text><line style="stroke:#181818;stroke-width:0.5;" x1="591" x2="680.7939" y1="39" y2="39"/><line style="stroke:#181818;stroke-width:0.5;" x1="591" x2="680.7939" y1="47" y2="47"/></g><!--class ActuatableProperty--><g class="entity" data-qualified-name="ActuatableProperty" data-source-line="1" id="ent0002"><rect fill="#F1F1F1" height="48" rx="2.5" ry="2.5" style="stroke:#181818;stroke-width:0.5;" width="167.4678" x="450.5" y="115"/><ellipse cx="465.5" cy="131" fill="#ADD1B2" rx="11" ry="11" style="stroke:#181818;stroke-width:1;"/><path d="M468.4688,136.6406 Q467.8906,136.9375 467.25,137.0781 Q466.6094,137.2344 465.9063,137.2344 Q463.4063,137.2344 462.0781,135.5938 Q460.7656,133.9375 460.7656,130.8125 Q460.7656,127.6875 462.0781,126.0313 Q463.4063,124.375 465.9063,124.375 Q466.6094,124.375 467.25,124.5313 Q467.9063,124.6875 468.4688,124.9844 L468.4688,127.7031 Q467.8438,127.125 467.25,126.8594 Q466.6563,126.5781 466.0313,126.5781 Q464.6875,126.5781 464,127.6563 Q463.3125,128.7188 463.3125,130.8125 Q463.3125,132.9063 464,133.9844 Q464.6875,135.0469 466.0313,135.0469 Q466.6563,135.0469 467.25,134.7813 Q467.8438,134.5 468.4688,133.9219 L468.4688,136.6406 Z " fill="#000000"/><text fill="#000000" font-family="sans-serif" font-size="14" lengthAdjust="spacing" textLength="135.4678" x="479.5" y="135.8467">ActuatableProperty</text><line style="stroke:#181818;stroke-width:0.5;" x1="451.5" x2="616.9678" y1="147" y2="147"/><line style="stroke:#181818;stroke-width:0.5;" x1="451.5" x2="616.9678" y1="155" y2="155"/></g><!--class Sample--><g class="entity" data-qualified-name="Sample" data-source-line="2" id="ent0004"><rect fill="#F1F1F1" height="48" rx="2.5" ry="2.5" style="stroke:#181818;stroke-width:0.5;" width="84.4932" x="1061" y="7"/><ellipse cx="1076" cy="23" fill="#ADD1B2" rx="11" ry="11" style="stroke:#181818;stroke-width:1;"/><path d="M1078.9688,28.6406 Q1078.3906,28.9375 1077.75,29.0781 Q1077.1094,29.2344 1076.4063,29.2344 Q1073.9063,29.2344 1072.5781,27.5938 Q1071.2656,25.9375 1071.2656,22.8125 Q1071.2656,19.6875 1072.5781,18.0313 Q1073.9063,16.375 1076.4063,16.375 Q1077.1094,16.375 1077.75,16.5313 Q1078.4063,16.6875 1078.9688,16.9844 L1078.9688,19.7031 Q1078.3438,19.125 1077.75,18.8594 Q1077.1563,18.5781 1076.5313,18.5781 Q1075.1875,18.5781 1074.5,19.6563 Q1073.8125,20.7188 1073.8125,22.8125 Q1073.8125,24.9063 1074.5,25.9844 Q1075.1875,27.0469 1076.5313,27.0469 Q1077.1563,27.0469 1077.75,26.7813 Q1078.3438,26.5 1078.9688,25.9219 L1078.9688,28.6406 Z " fill="#000000"/><text fill="#000000" font-family="sans-serif" font-size="14" lengthAdjust="spacing" textLength="52.4932" x="1090" y="27.8467">Sample</text><line style="stroke:#181818;stroke-width:0.5;" x1="1062" x2="1144.4932" y1="39" y2="39"/><line style="stroke:#181818;stroke-width:0.5;" x1="1062" x2="1144.4932" y1="47" y2="47"/></g><!--class MaterialSample--><g class="entity" data-qualified-name="MaterialSample" data-source-line="2" id="ent0005"><rect fill="#F1F1F1" height="48" rx="2.5" ry="2.5" style="stroke:#181818;stroke-width:0.5;" width="141.3682" x="860.5" y="115"/><ellipse cx="875.5" cy="131" fill="#ADD1B2" rx="11" ry="11" style="stroke:#181818;stroke-width:1;"/><path d="M878.4688,136.6406 Q877.8906,136.9375 877.25,137.0781 Q876.6094,137.2344 875.9063,137.2344 Q873.4063,137.2344 872.0781,135.5938 Q870.7656,133.9375 870.7656,130.8125 Q870.7656,127.6875 872.0781,126.0313 Q873.4063,124.375 875.9063,124.375 Q876.6094,124.375 877.25,124.5313 Q877.9063,124.6875 878.4688,124.9844 L878.4688,127.7031 Q877.8438,127.125 877.25,126.8594 Q876.6563,126.5781 876.0313,126.5781 Q874.6875,126.5781 874,127.6563 Q873.3125,128.7188 873.3125,130.8125 Q873.3125,132.9063 874,133.9844 Q874.6875,135.0469 876.0313,135.0469 Q876.6563,135.0469 877.25,134.7813 Q877.8438,134.5 878.4688,133.9219 L878.4688,136.6406 Z " fill="#000000"/><text fill="#000000" font-family="sans-serif" font-size="14" lengthAdjust="spacing" textLength="109.3682" x="889.5" y="135.8467">MaterialSample</text><line style="stroke:#181818;stroke-width:0.5;" x1="861.5" x2="1000.8682" y1="147" y2="147"/><line style="stroke:#181818;stroke-width:0.5;" x1="861.5" x2="1000.8682" y1="155" y2="155"/></g><!--class SpatialSample--><g class="entity" data-qualified-name="SpatialSample" data-source-line="3" id="ent0007"><rect fill="#F1F1F1" height="48" rx="2.5" ry="2.5" style="stroke:#181818;stroke-width:0.5;" width="132.6934" x="1036.5" y="115"/><ellipse cx="1051.5" cy="131" fill="#ADD1B2" rx="11" ry="11" style="stroke:#181818;stroke-width:1;"/><path d="M1054.4688,136.6406 Q1053.8906,136.9375 1053.25,137.0781 Q1052.6094,137.2344 1051.9063,137.2344 Q1049.4063,137.2344 1048.0781,135.5938 Q1046.7656,133.9375 1046.7656,130.8125 Q1046.7656,127.6875 1048.0781,126.0313 Q1049.4063,124.375 1051.9063,124.375 Q1052.6094,124.375 1053.25,124.5313 Q1053.9063,124.6875 1054.4688,124.9844 L1054.4688,127.7031 Q1053.8438,127.125 1053.25,126.8594 Q1052.6563,126.5781 1052.0313,126.5781 Q1050.6875,126.5781 1050,127.6563 Q1049.3125,128.7188 1049.3125,130.8125 Q1049.3125,132.9063 1050,133.9844 Q1050.6875,135.0469 1052.0313,135.0469 Q1052.6563,135.0469 1053.25,134.7813 Q1053.8438,134.5 1054.4688,133.9219 L1054.4688,136.6406 Z " fill="#000000"/><text fill="#000000" font-family="sans-serif" font-size="14" lengthAdjust="spacing" textLength="100.6934" x="1065.5" y="135.8467">SpatialSample</text><line style="stroke:#181818;stroke-width:0.5;" x1="1037.5" x2="1168.1934" y1="147" y2="147"/><line style="stroke:#181818;stroke-width:0.5;" x1="1037.5" x2="1168.1934" y1="155" y2="155"/></g><!--class StatisticalSample--><g class="entity" data-qualified-name="StatisticalSample" data-source-line="4" id="ent0009"><rect fill="#F1F1F1" height="48" rx="2.5" ry="2.5" style="stroke:#181818;stroke-width:0.5;" width="153.666" x="1205" y="115"/><ellipse cx="1220" cy="131" fill="#ADD1B2" rx="11" ry="11" style="stroke:#181818;stroke-width:1;"/><path d="M1222.9688,136.6406 Q1222.3906,136.9375 1221.75,137.0781 Q1221.1094,137.2344 1220.4063,137.2344 Q1217.9063,137.2344 1216.5781,135.5938 Q1215.2656,133.9375 1215.2656,130.8125 Q1215.2656,127.6875 1216.5781,126.0313 Q1217.9063,124.375 1220.4063,124.375 Q1221.1094,124.375 1221.75,124.5313 Q1222.4063,124.6875 1222.9688,124.9844 L1222.9688,127.7031 Q1222.3438,127.125 1221.75,126.8594 Q1221.1563,126.5781 1220.5313,126.5781 Q1219.1875,126.5781 1218.5,127.6563 Q1217.8125,128.7188 1217.8125,130.8125 Q1217.8125,132.9063 1218.5,133.9844 Q1219.1875,135.0469 1220.5313,135.0469 Q1221.1563,135.0469 1221.75,134.7813 Q1222.3438,134.5 1222.9688,133.9219 L1222.9688,136.6406 Z " fill="#000000"/><text fill="#000000" font-family="sans-serif" font-size="14" lengthAdjust="spacing" textLength="121.666" x="1234" y="135.8467">StatisticalSample</text><line style="stroke:#181818;stroke-width:0.5;" x1="1206" x2="1357.666" y1="147" y2="147"/><line style="stroke:#181818;stroke-width:0.5;" x1="1206" x2="1357.666" y1="155" y2="155"/></g><!--class ObservableProperty--><g class="entity" data-qualified-name="ObservableProperty" data-source-line="5" id="ent0011"><rect fill="#F1F1F1" height="48" rx="2.5" ry="2.5" style="stroke:#181818;stroke-width:0.5;" width="171.6172" x="653" y="115"/><ellipse cx="668" cy="131" fill="#ADD1B2" rx="11" ry="11" style="stroke:#181818;stroke-width:1;"/><path d="M670.9688,136.6406 Q670.3906,136.9375 669.75,137.0781 Q669.1094,137.2344 668.4063,137.2344 Q665.9063,137.2344 664.5781,135.5938 Q663.2656,133.9375 663.2656,130.8125 Q663.2656,127.6875 664.5781,126.0313 Q665.9063,124.375 668.4063,124.375 Q669.1094,124.375 669.75,124.5313 Q670.4063,124.6875 670.9688,124.9844 L670.9688,127.7031 Q670.3438,127.125 669.75,126.8594 Q669.1563,126.5781 668.5313,126.5781 Q667.1875,126.5781 666.5,127.6563 Q665.8125,128.7188 665.8125,130.8125 Q665.8125,132.9063 666.5,133.9844 Q667.1875,135.0469 668.5313,135.0469 Q669.1563,135.0469 669.75,134.7813 Q670.3438,134.5 670.9688,133.9219 L670.9688,136.6406 Z " fill="#000000"/><text fill="#000000" font-family="sans-serif" font-size="14" lengthAdjust="spacing" textLength="139.6172" x="682" y="135.8467">ObservableProperty</text><line style="stroke:#181818;stroke-width:0.5;" x1="654" x2="823.6172" y1="147" y2="147"/><line style="stroke:#181818;stroke-width:0.5;" x1="654" x2="823.6172" y1="155" y2="155"/></g><!--class Procedure--><g class="entity" data-qualified-name="Procedure" data-source-line="6" id="ent0013"><rect fill="#F1F1F1" height="48" rx="2.5" ry="2.5" style="stroke:#181818;stroke-width:0.5;" width="103.2031" x="1636.5" y="7"/><ellipse cx="1651.5" cy="23" fill="#ADD1B2" rx="11" ry="11" style="stroke:#181818;stroke-width:1;"/><path d="M1654.4688,28.6406 Q1653.8906,28.9375 1653.25,29.0781 Q1652.6094,29.2344 1651.9063,29.2344 Q1649.4063,29.2344 1648.0781,27.5938 Q1646.7656,25.9375 1646.7656,22.8125 Q1646.7656,19.6875 1648.0781,18.0313 Q1649.4063,16.375 1651.9063,16.375 Q1652.6094,16.375 1653.25,16.5313 Q1653.9063,16.6875 1654.4688,16.9844 L1654.4688,19.7031 Q1653.8438,19.125 1653.25,18.8594 Q1652.6563,18.5781 1652.0313,18.5781 Q1650.6875,18.5781 1650,19.6563 Q1649.3125,20.7188 1649.3125,22.8125 Q1649.3125,24.9063 1650,25.9844 Q1650.6875,27.0469 1652.0313,27.0469 Q1652.6563,27.0469 1653.25,26.7813 Q1653.8438,26.5 1654.4688,25.9219 L1654.4688,28.6406 Z " fill="#000000"/><text fill="#000000" font-family="sans-serif" font-size="14" lengthAdjust="spacing" textLength="71.2031" x="1665.5" y="27.8467">Procedure</text><line style="stroke:#181818;stroke-width:0.5;" x1="1637.5" x2="1738.7031" y1="39" y2="39"/><line style="stroke:#181818;stroke-width:0.5;" x1="1637.5" x2="1738.7031" y1="47" y2="47"/></g><!--class ActuatingProcedure--><g class="entity" data-qualified-name="ActuatingProcedure" data-source-line="6" id="ent0014"><rect fill="#F1F1F1" height="48" rx="2.5" ry="2.5" style="stroke:#181818;stroke-width:0.5;" width="170.5576" x="1394.5" y="115"/><ellipse cx="1409.5" cy="131" fill="#ADD1B2" rx="11" ry="11" style="stroke:#181818;stroke-width:1;"/><path d="M1412.4688,136.6406 Q1411.8906,136.9375 1411.25,137.0781 Q1410.6094,137.2344 1409.9063,137.2344 Q1407.4063,137.2344 1406.0781,135.5938 Q1404.7656,133.9375 1404.7656,130.8125 Q1404.7656,127.6875 1406.0781,126.0313 Q1407.4063,124.375 1409.9063,124.375 Q1410.6094,124.375 1411.25,124.5313 Q1411.9063,124.6875 1412.4688,124.9844 L1412.4688,127.7031 Q1411.8438,127.125 1411.25,126.8594 Q1410.6563,126.5781 1410.0313,126.5781 Q1408.6875,126.5781 1408,127.6563 Q1407.3125,128.7188 1407.3125,130.8125 Q1407.3125,132.9063 1408,133.9844 Q1408.6875,135.0469 1410.0313,135.0469 Q1410.6563,135.0469 1411.25,134.7813 Q1411.8438,134.5 1412.4688,133.9219 L1412.4688,136.6406 Z " fill="#000000"/><text fill="#000000" font-family="sans-serif" font-size="14" lengthAdjust="spacing" textLength="138.5576" x="1423.5" y="135.8467">ActuatingProcedure</text><line style="stroke:#181818;stroke-width:0.5;" x1="1395.5" x2="1564.0576" y1="147" y2="147"/><line style="stroke:#181818;stroke-width:0.5;" x1="1395.5" x2="1564.0576" y1="155" y2="155"/></g><!--class ObservingProcedure--><g class="entity" data-qualified-name="ObservingProcedure" data-source-line="7" id="ent0016"><rect fill="#F1F1F1" height="48" rx="2.5" ry="2.5" style="stroke:#181818;stroke-width:0.5;" width="174.707" x="1600.5" y="115"/><ellipse cx="1615.5" cy="131" fill="#ADD1B2" rx="11" ry="11" style="stroke:#181818;stroke-width:1;"/><path d="M1618.4688,136.6406 Q1617.8906,136.9375 1617.25,137.0781 Q1616.6094,137.2344 1615.9063,137.2344 Q1613.4063,137.2344 1612.0781,135.5938 Q1610.7656,133.9375 1610.7656,130.8125 Q1610.7656,127.6875 1612.0781,126.0313 Q1613.4063,124.375 1615.9063,124.375 Q1616.6094,124.375 1617.25,124.5313 Q1617.9063,124.6875 1618.4688,124.9844 L1618.4688,127.7031 Q1617.8438,127.125 1617.25,126.8594 Q1616.6563,126.5781 1616.0313,126.5781 Q1614.6875,126.5781 1614,127.6563 Q1613.3125,128.7188 1613.3125,130.8125 Q1613.3125,132.9063 1614,133.9844 Q1614.6875,135.0469 1616.0313,135.0469 Q1616.6563,135.0469 1617.25,134.7813 Q1617.8438,134.5 1618.4688,133.9219 L1618.4688,136.6406 Z " fill="#000000"/><text fill="#000000" font-family="sans-serif" font-size="14" lengthAdjust="spacing" textLength="142.707" x="1629.5" y="135.8467">ObservingProcedure</text><line style="stroke:#181818;stroke-width:0.5;" x1="1601.5" x2="1774.207" y1="147" y2="147"/><line style="stroke:#181818;stroke-width:0.5;" x1="1601.5" x2="1774.207" y1="155" y2="155"/></g><!--class SamplingProcedure--><g class="entity" data-qualified-name="SamplingProcedure" data-source-line="8" id="ent0018"><rect fill="#F1F1F1" height="48" rx="2.5" ry="2.5" style="stroke:#181818;stroke-width:0.5;" width="168.7324" x="1810.5" y="115"/><ellipse cx="1825.5" cy="131" fill="#ADD1B2" rx="11" ry="11" style="stroke:#181818;stroke-width:1;"/><path d="M1828.4688,136.6406 Q1827.8906,136.9375 1827.25,137.0781 Q1826.6094,137.2344 1825.9063,137.2344 Q1823.4063,137.2344 1822.0781,135.5938 Q1820.7656,133.9375 1820.7656,130.8125 Q1820.7656,127.6875 1822.0781,126.0313 Q1823.4063,124.375 1825.9063,124.375 Q1826.6094,124.375 1827.25,124.5313 Q1827.9063,124.6875 1828.4688,124.9844 L1828.4688,127.7031 Q1827.8438,127.125 1827.25,126.8594 Q1826.6563,126.5781 1826.0313,126.5781 Q1824.6875,126.5781 1824,127.6563 Q1823.3125,128.7188 1823.3125,130.8125 Q1823.3125,132.9063 1824,133.9844 Q1824.6875,135.0469 1826.0313,135.0469 Q1826.6563,135.0469 1827.25,134.7813 Q1827.8438,134.5 1828.4688,133.9219 L1828.4688,136.6406 Z " fill="#000000"/><text fill="#000000" font-family="sans-serif" font-size="14" lengthAdjust="spacing" textLength="136.7324" x="1839.5" y="135.8467">SamplingProcedure</text><line style="stroke:#181818;stroke-width:0.5;" x1="1811.5" x2="1978.2324" y1="147" y2="147"/><line style="stroke:#181818;stroke-width:0.5;" x1="1811.5" x2="1978.2324" y1="155" y2="155"/></g><!--class Asset--><g class="entity" data-qualified-name="Asset" data-source-line="9" id="ent0020"><rect fill="#F1F1F1" height="48" rx="2.5" ry="2.5" style="stroke:#181818;stroke-width:0.5;" width="70.2676" x="2086" y="7"/><ellipse cx="2101" cy="23" fill="#ADD1B2" rx="11" ry="11" style="stroke:#181818;stroke-width:1;"/><path d="M2103.9688,28.6406 Q2103.3906,28.9375 2102.75,29.0781 Q2102.1094,29.2344 2101.4063,29.2344 Q2098.9063,29.2344 2097.5781,27.5938 Q2096.2656,25.9375 2096.2656,22.8125 Q2096.2656,19.6875 2097.5781,18.0313 Q2098.9063,16.375 2101.4063,16.375 Q2102.1094,16.375 2102.75,16.5313 Q2103.4063,16.6875 2103.9688,16.9844 L2103.9688,19.7031 Q2103.3438,19.125 2102.75,18.8594 Q2102.1563,18.5781 2101.5313,18.5781 Q2100.1875,18.5781 2099.5,19.6563 Q2098.8125,20.7188 2098.8125,22.8125 Q2098.8125,24.9063 2099.5,25.9844 Q2100.1875,27.0469 2101.5313,27.0469 Q2102.1563,27.0469 2102.75,26.7813 Q2103.3438,26.5 2103.9688,25.9219 L2103.9688,28.6406 Z " fill="#000000"/><text fill="#000000" font-family="sans-serif" font-size="14" lengthAdjust="spacing" textLength="38.2676" x="2115" y="27.8467">Asset</text><line style="stroke:#181818;stroke-width:0.5;" x1="2087" x2="2155.2676" y1="39" y2="39"/><line style="stroke:#181818;stroke-width:0.5;" x1="2087" x2="2155.2676" y1="47" y2="47"/></g><!--class Platform--><g class="entity" data-qualified-name="Platform" data-source-line="9" id="ent0021"><rect fill="#F1F1F1" height="48" rx="2.5" ry="2.5" style="stroke:#181818;stroke-width:0.5;" width="91.2881" x="2014.5" y="115"/><ellipse cx="2029.5" cy="131" fill="#ADD1B2" rx="11" ry="11" style="stroke:#181818;stroke-width:1;"/><path d="M2032.4688,136.6406 Q2031.8906,136.9375 2031.25,137.0781 Q2030.6094,137.2344 2029.9063,137.2344 Q2027.4063,137.2344 2026.0781,135.5938 Q2024.7656,133.9375 2024.7656,130.8125 Q2024.7656,127.6875 2026.0781,126.0313 Q2027.4063,124.375 2029.9063,124.375 Q2030.6094,124.375 2031.25,124.5313 Q2031.9063,124.6875 2032.4688,124.9844 L2032.4688,127.7031 Q2031.8438,127.125 2031.25,126.8594 Q2030.6563,126.5781 2030.0313,126.5781 Q2028.6875,126.5781 2028,127.6563 Q2027.3125,128.7188 2027.3125,130.8125 Q2027.3125,132.9063 2028,133.9844 Q2028.6875,135.0469 2030.0313,135.0469 Q2030.6563,135.0469 2031.25,134.7813 Q2031.8438,134.5 2032.4688,133.9219 L2032.4688,136.6406 Z " fill="#000000"/><text fill="#000000" font-family="sans-serif" font-size="14" lengthAdjust="spacing" textLength="59.2881" x="2043.5" y="135.8467">Platform</text><line style="stroke:#181818;stroke-width:0.5;" x1="2015.5" x2="2104.7881" y1="147" y2="147"/><line style="stroke:#181818;stroke-width:0.5;" x1="2015.5" x2="2104.7881" y1="155" y2="155"/></g><!--class System--><g class="entity" data-qualified-name="System" data-source-line="10" id="ent0023"><rect fill="#F1F1F1" height="48" rx="2.5" ry="2.5" style="stroke:#181818;stroke-width:0.5;" width="84.2061" x="2141" y="115"/><ellipse cx="2156" cy="131" fill="#ADD1B2" rx="11" ry="11" style="stroke:#181818;stroke-width:1;"/><path d="M2158.9688,136.6406 Q2158.3906,136.9375 2157.75,137.0781 Q2157.1094,137.2344 2156.4063,137.2344 Q2153.9063,137.2344 2152.5781,135.5938 Q2151.2656,133.9375 2151.2656,130.8125 Q2151.2656,127.6875 2152.5781,126.0313 Q2153.9063,124.375 2156.4063,124.375 Q2157.1094,124.375 2157.75,124.5313 Q2158.4063,124.6875 2158.9688,124.9844 L2158.9688,127.7031 Q2158.3438,127.125 2157.75,126.8594 Q2157.1563,126.5781 2156.5313,126.5781 Q2155.1875,126.5781 2154.5,127.6563 Q2153.8125,128.7188 2153.8125,130.8125 Q2153.8125,132.9063 2154.5,133.9844 Q2155.1875,135.0469 2156.5313,135.0469 Q2157.1563,135.0469 2157.75,134.7813 Q2158.3438,134.5 2158.9688,133.9219 L2158.9688,136.6406 Z " fill="#000000"/><text fill="#000000" font-family="sans-serif" font-size="14" lengthAdjust="spacing" textLength="52.2061" x="2170" y="135.8467">System</text><line style="stroke:#181818;stroke-width:0.5;" x1="2142" x2="2224.2061" y1="147" y2="147"/><line style="stroke:#181818;stroke-width:0.5;" x1="2142" x2="2224.2061" y1="155" y2="155"/></g><!--class Sampler--><g class="entity" data-qualified-name="Sampler" data-source-line="10" id="ent0024"><rect fill="#F1F1F1" height="48" rx="2.5" ry="2.5" style="stroke:#181818;stroke-width:0.5;" width="90.249" x="2012" y="223"/><ellipse cx="2027" cy="239" fill="#ADD1B2" rx="11" ry="11" style="stroke:#181818;stroke-width:1;"/><path d="M2029.9688,244.6406 Q2029.3906,244.9375 2028.75,245.0781 Q2028.1094,245.2344 2027.4063,245.2344 Q2024.9063,245.2344 2023.5781,243.5938 Q2022.2656,241.9375 2022.2656,238.8125 Q2022.2656,235.6875 2023.5781,234.0313 Q2024.9063,232.375 2027.4063,232.375 Q2028.1094,232.375 2028.75,232.5313 Q2029.4063,232.6875 2029.9688,232.9844 L2029.9688,235.7031 Q2029.3438,235.125 2028.75,234.8594 Q2028.1563,234.5781 2027.5313,234.5781 Q2026.1875,234.5781 2025.5,235.6563 Q2024.8125,236.7188 2024.8125,238.8125 Q2024.8125,240.9063 2025.5,241.9844 Q2026.1875,243.0469 2027.5313,243.0469 Q2028.1563,243.0469 2028.75,242.7813 Q2029.3438,242.5 2029.9688,241.9219 L2029.9688,244.6406 Z " fill="#000000"/><text fill="#000000" font-family="sans-serif" font-size="14" lengthAdjust="spacing" textLength="58.249" x="2041" y="243.8467">Sampler</text><line style="stroke:#181818;stroke-width:0.5;" x1="2013" x2="2101.249" y1="255" y2="255"/><line style="stroke:#181818;stroke-width:0.5;" x1="2013" x2="2101.249" y1="263" y2="263"/></g><!--class Actuator--><g class="entity" data-qualified-name="Actuator" data-source-line="11" id="ent0026"><rect fill="#F1F1F1" height="48" rx="2.5" ry="2.5" style="stroke:#181818;stroke-width:0.5;" width="92.0264" x="2137" y="223"/><ellipse cx="2152" cy="239" fill="#ADD1B2" rx="11" ry="11" style="stroke:#181818;stroke-width:1;"/><path d="M2154.9688,244.6406 Q2154.3906,244.9375 2153.75,245.0781 Q2153.1094,245.2344 2152.4063,245.2344 Q2149.9063,245.2344 2148.5781,243.5938 Q2147.2656,241.9375 2147.2656,238.8125 Q2147.2656,235.6875 2148.5781,234.0313 Q2149.9063,232.375 2152.4063,232.375 Q2153.1094,232.375 2153.75,232.5313 Q2154.4063,232.6875 2154.9688,232.9844 L2154.9688,235.7031 Q2154.3438,235.125 2153.75,234.8594 Q2153.1563,234.5781 2152.5313,234.5781 Q2151.1875,234.5781 2150.5,235.6563 Q2149.8125,236.7188 2149.8125,238.8125 Q2149.8125,240.9063 2150.5,241.9844 Q2151.1875,243.0469 2152.5313,243.0469 Q2153.1563,243.0469 2153.75,242.7813 Q2154.3438,242.5 2154.9688,241.9219 L2154.9688,244.6406 Z " fill="#000000"/><text fill="#000000" font-family="sans-serif" font-size="14" lengthAdjust="spacing" textLength="60.0264" x="2166" y="243.8467">Actuator</text><line style="stroke:#181818;stroke-width:0.5;" x1="2138" x2="2228.0264" y1="255" y2="255"/><line style="stroke:#181818;stroke-width:0.5;" x1="2138" x2="2228.0264" y1="263" y2="263"/></g><!--class Execution--><g class="entity" data-qualified-name="Execution" data-source-line="13" id="ent0029"><rect fill="#F1F1F1" height="48" rx="2.5" ry="2.5" style="stroke:#181818;stroke-width:0.5;" width="101.1318" x="2392.5" y="7"/><ellipse cx="2407.5" cy="23" fill="#ADD1B2" rx="11" ry="11" style="stroke:#181818;stroke-width:1;"/><path d="M2410.4688,28.6406 Q2409.8906,28.9375 2409.25,29.0781 Q2408.6094,29.2344 2407.9063,29.2344 Q2405.4063,29.2344 2404.0781,27.5938 Q2402.7656,25.9375 2402.7656,22.8125 Q2402.7656,19.6875 2404.0781,18.0313 Q2405.4063,16.375 2407.9063,16.375 Q2408.6094,16.375 2409.25,16.5313 Q2409.9063,16.6875 2410.4688,16.9844 L2410.4688,19.7031 Q2409.8438,19.125 2409.25,18.8594 Q2408.6563,18.5781 2408.0313,18.5781 Q2406.6875,18.5781 2406,19.6563 Q2405.3125,20.7188 2405.3125,22.8125 Q2405.3125,24.9063 2406,25.9844 Q2406.6875,27.0469 2408.0313,27.0469 Q2408.6563,27.0469 2409.25,26.7813 Q2409.8438,26.5 2410.4688,25.9219 L2410.4688,28.6406 Z " fill="#000000"/><text fill="#000000" font-family="sans-serif" font-size="14" lengthAdjust="spacing" textLength="69.1318" x="2421.5" y="27.8467">Execution</text><line style="stroke:#181818;stroke-width:0.5;" x1="2393.5" x2="2492.6318" y1="39" y2="39"/><line style="stroke:#181818;stroke-width:0.5;" x1="2393.5" x2="2492.6318" y1="47" y2="47"/></g><!--class Sampling--><g class="entity" data-qualified-name="Sampling" data-source-line="13" id="ent0030"><rect fill="#F1F1F1" height="48" rx="2.5" ry="2.5" style="stroke:#181818;stroke-width:0.5;" width="97.5293" x="2260" y="115"/><ellipse cx="2275" cy="131" fill="#ADD1B2" rx="11" ry="11" style="stroke:#181818;stroke-width:1;"/><path d="M2277.9688,136.6406 Q2277.3906,136.9375 2276.75,137.0781 Q2276.1094,137.2344 2275.4063,137.2344 Q2272.9063,137.2344 2271.5781,135.5938 Q2270.2656,133.9375 2270.2656,130.8125 Q2270.2656,127.6875 2271.5781,126.0313 Q2272.9063,124.375 2275.4063,124.375 Q2276.1094,124.375 2276.75,124.5313 Q2277.4063,124.6875 2277.9688,124.9844 L2277.9688,127.7031 Q2277.3438,127.125 2276.75,126.8594 Q2276.1563,126.5781 2275.5313,126.5781 Q2274.1875,126.5781 2273.5,127.6563 Q2272.8125,128.7188 2272.8125,130.8125 Q2272.8125,132.9063 2273.5,133.9844 Q2274.1875,135.0469 2275.5313,135.0469 Q2276.1563,135.0469 2276.75,134.7813 Q2277.3438,134.5 2277.9688,133.9219 L2277.9688,136.6406 Z " fill="#000000"/><text fill="#000000" font-family="sans-serif" font-size="14" lengthAdjust="spacing" textLength="65.5293" x="2289" y="135.8467">Sampling</text><line style="stroke:#181818;stroke-width:0.5;" x1="2261" x2="2356.5293" y1="147" y2="147"/><line style="stroke:#181818;stroke-width:0.5;" x1="2261" x2="2356.5293" y1="155" y2="155"/></g><!--class ExecutionCollection--><g class="entity" data-qualified-name="ExecutionCollection" data-source-line="14" id="ent0032"><rect fill="#F1F1F1" height="48" rx="2.5" ry="2.5" style="stroke:#181818;stroke-width:0.5;" width="170.3799" x="2880" y="7"/><ellipse cx="2895" cy="23" fill="#ADD1B2" rx="11" ry="11" style="stroke:#181818;stroke-width:1;"/><path d="M2897.9688,28.6406 Q2897.3906,28.9375 2896.75,29.0781 Q2896.1094,29.2344 2895.4063,29.2344 Q2892.9063,29.2344 2891.5781,27.5938 Q2890.2656,25.9375 2890.2656,22.8125 Q2890.2656,19.6875 2891.5781,18.0313 Q2892.9063,16.375 2895.4063,16.375 Q2896.1094,16.375 2896.75,16.5313 Q2897.4063,16.6875 2897.9688,16.9844 L2897.9688,19.7031 Q2897.3438,19.125 2896.75,18.8594 Q2896.1563,18.5781 2895.5313,18.5781 Q2894.1875,18.5781 2893.5,19.6563 Q2892.8125,20.7188 2892.8125,22.8125 Q2892.8125,24.9063 2893.5,25.9844 Q2894.1875,27.0469 2895.5313,27.0469 Q2896.1563,27.0469 2896.75,26.7813 Q2897.3438,26.5 2897.9688,25.9219 L2897.9688,28.6406 Z " fill="#000000"/><text fill="#000000" font-family="sans-serif" font-size="14" lengthAdjust="spacing" textLength="138.3799" x="2909" y="27.8467">ExecutionCollection</text><line style="stroke:#181818;stroke-width:0.5;" x1="2881" x2="3049.3799" y1="39" y2="39"/><line style="stroke:#181818;stroke-width:0.5;" x1="2881" x2="3049.3799" y1="47" y2="47"/></g><!--class SamplingCollection--><g class="entity" data-qualified-name="SamplingCollection" data-source-line="14" id="ent0033"><rect fill="#F1F1F1" height="48" rx="2.5" ry="2.5" style="stroke:#181818;stroke-width:0.5;" width="166.7773" x="2679.5" y="115"/><ellipse cx="2694.5" cy="131" fill="#ADD1B2" rx="11" ry="11" style="stroke:#181818;stroke-width:1;"/><path d="M2697.4688,136.6406 Q2696.8906,136.9375 2696.25,137.0781 Q2695.6094,137.2344 2694.9063,137.2344 Q2692.4063,137.2344 2691.0781,135.5938 Q2689.7656,133.9375 2689.7656,130.8125 Q2689.7656,127.6875 2691.0781,126.0313 Q2692.4063,124.375 2694.9063,124.375 Q2695.6094,124.375 2696.25,124.5313 Q2696.9063,124.6875 2697.4688,124.9844 L2697.4688,127.7031 Q2696.8438,127.125 2696.25,126.8594 Q2695.6563,126.5781 2695.0313,126.5781 Q2693.6875,126.5781 2693,127.6563 Q2692.3125,128.7188 2692.3125,130.8125 Q2692.3125,132.9063 2693,133.9844 Q2693.6875,135.0469 2695.0313,135.0469 Q2695.6563,135.0469 2696.25,134.7813 Q2696.8438,134.5 2697.4688,133.9219 L2697.4688,136.6406 Z " fill="#000000"/><text fill="#000000" font-family="sans-serif" font-size="14" lengthAdjust="spacing" textLength="134.7773" x="2708.5" y="135.8467">SamplingCollection</text><line style="stroke:#181818;stroke-width:0.5;" x1="2680.5" x2="2845.2773" y1="147" y2="147"/><line style="stroke:#181818;stroke-width:0.5;" x1="2680.5" x2="2845.2773" y1="155" y2="155"/></g><!--class Actuation--><g class="entity" data-qualified-name="Actuation" data-source-line="15" id="ent0035"><rect fill="#F1F1F1" height="48" rx="2.5" ry="2.5" style="stroke:#181818;stroke-width:0.5;" width="99.0332" x="2393.5" y="115"/><ellipse cx="2408.5" cy="131" fill="#ADD1B2" rx="11" ry="11" style="stroke:#181818;stroke-width:1;"/><path d="M2411.4688,136.6406 Q2410.8906,136.9375 2410.25,137.0781 Q2409.6094,137.2344 2408.9063,137.2344 Q2406.4063,137.2344 2405.0781,135.5938 Q2403.7656,133.9375 2403.7656,130.8125 Q2403.7656,127.6875 2405.0781,126.0313 Q2406.4063,124.375 2408.9063,124.375 Q2409.6094,124.375 2410.25,124.5313 Q2410.9063,124.6875 2411.4688,124.9844 L2411.4688,127.7031 Q2410.8438,127.125 2410.25,126.8594 Q2409.6563,126.5781 2409.0313,126.5781 Q2407.6875,126.5781 2407,127.6563 Q2406.3125,128.7188 2406.3125,130.8125 Q2406.3125,132.9063 2407,133.9844 Q2407.6875,135.0469 2409.0313,135.0469 Q2409.6563,135.0469 2410.25,134.7813 Q2410.8438,134.5 2411.4688,133.9219 L2411.4688,136.6406 Z " fill="#000000"/><text fill="#000000" font-family="sans-serif" font-size="14" lengthAdjust="spacing" textLength="67.0332" x="2422.5" y="135.8467">Actuation</text><line style="stroke:#181818;stroke-width:0.5;" x1="2394.5" x2="2491.5332" y1="147" y2="147"/><line style="stroke:#181818;stroke-width:0.5;" x1="2394.5" x2="2491.5332" y1="155" y2="155"/></g><!--class Sensor--><g class="entity" data-qualified-name="Sensor" data-source-line="16" id="ent0037"><rect fill="#F1F1F1" height="48" rx="2.5" ry="2.5" style="stroke:#181818;stroke-width:0.5;" width="79.9883" x="2264" y="223"/><ellipse cx="2279" cy="239" fill="#ADD1B2" rx="11" ry="11" style="stroke:#181818;stroke-width:1;"/><path d="M2281.9688,244.6406 Q2281.3906,244.9375 2280.75,245.0781 Q2280.1094,245.2344 2279.4063,245.2344 Q2276.9063,245.2344 2275.5781,243.5938 Q2274.2656,241.9375 2274.2656,238.8125 Q2274.2656,235.6875 2275.5781,234.0313 Q2276.9063,232.375 2279.4063,232.375 Q2280.1094,232.375 2280.75,232.5313 Q2281.4063,232.6875 2281.9688,232.9844 L2281.9688,235.7031 Q2281.3438,235.125 2280.75,234.8594 Q2280.1563,234.5781 2279.5313,234.5781 Q2278.1875,234.5781 2277.5,235.6563 Q2276.8125,236.7188 2276.8125,238.8125 Q2276.8125,240.9063 2277.5,241.9844 Q2278.1875,243.0469 2279.5313,243.0469 Q2280.1563,243.0469 2280.75,242.7813 Q2281.3438,242.5 2281.9688,241.9219 L2281.9688,244.6406 Z " fill="#000000"/><text fill="#000000" font-family="sans-serif" font-size="14" lengthAdjust="spacing" textLength="47.9883" x="2293" y="243.8467">Sensor</text><line style="stroke:#181818;stroke-width:0.5;" x1="2265" x2="2342.9883" y1="255" y2="255"/><line style="stroke:#181818;stroke-width:0.5;" x1="2265" x2="2342.9883" y1="263" y2="263"/></g><!--class ActuationCollection--><g class="entity" data-qualified-name="ActuationCollection" data-source-line="17" id="ent0039"><rect fill="#F1F1F1" height="48" rx="2.5" ry="2.5" style="stroke:#181818;stroke-width:0.5;" width="168.2813" x="2881" y="115"/><ellipse cx="2896" cy="131" fill="#ADD1B2" rx="11" ry="11" style="stroke:#181818;stroke-width:1;"/><path d="M2898.9688,136.6406 Q2898.3906,136.9375 2897.75,137.0781 Q2897.1094,137.2344 2896.4063,137.2344 Q2893.9063,137.2344 2892.5781,135.5938 Q2891.2656,133.9375 2891.2656,130.8125 Q2891.2656,127.6875 2892.5781,126.0313 Q2893.9063,124.375 2896.4063,124.375 Q2897.1094,124.375 2897.75,124.5313 Q2898.4063,124.6875 2898.9688,124.9844 L2898.9688,127.7031 Q2898.3438,127.125 2897.75,126.8594 Q2897.1563,126.5781 2896.5313,126.5781 Q2895.1875,126.5781 2894.5,127.6563 Q2893.8125,128.7188 2893.8125,130.8125 Q2893.8125,132.9063 2894.5,133.9844 Q2895.1875,135.0469 2896.5313,135.0469 Q2897.1563,135.0469 2897.75,134.7813 Q2898.3438,134.5 2898.9688,133.9219 L2898.9688,136.6406 Z " fill="#000000"/><text fill="#000000" font-family="sans-serif" font-size="14" lengthAdjust="spacing" textLength="136.2813" x="2910" y="135.8467">ActuationCollection</text><line style="stroke:#181818;stroke-width:0.5;" x1="2882" x2="3048.2813" y1="147" y2="147"/><line style="stroke:#181818;stroke-width:0.5;" x1="2882" x2="3048.2813" y1="155" y2="155"/></g><!--class ObservationCollection--><g class="entity" data-qualified-name="ObservationCollection" data-source-line="18" id="ent0041"><rect fill="#F1F1F1" height="48" rx="2.5" ry="2.5" style="stroke:#181818;stroke-width:0.5;" width="186.499" x="3084" y="115"/><ellipse cx="3099" cy="131" fill="#ADD1B2" rx="11" ry="11" style="stroke:#181818;stroke-width:1;"/><path d="M3101.9688,136.6406 Q3101.3906,136.9375 3100.75,137.0781 Q3100.1094,137.2344 3099.4063,137.2344 Q3096.9063,137.2344 3095.5781,135.5938 Q3094.2656,133.9375 3094.2656,130.8125 Q3094.2656,127.6875 3095.5781,126.0313 Q3096.9063,124.375 3099.4063,124.375 Q3100.1094,124.375 3100.75,124.5313 Q3101.4063,124.6875 3101.9688,124.9844 L3101.9688,127.7031 Q3101.3438,127.125 3100.75,126.8594 Q3100.1563,126.5781 3099.5313,126.5781 Q3098.1875,126.5781 3097.5,127.6563 Q3096.8125,128.7188 3096.8125,130.8125 Q3096.8125,132.9063 3097.5,133.9844 Q3098.1875,135.0469 3099.5313,135.0469 Q3100.1563,135.0469 3100.75,134.7813 Q3101.3438,134.5 3101.9688,133.9219 L3101.9688,136.6406 Z " fill="#000000"/><text fill="#000000" font-family="sans-serif" font-size="14" lengthAdjust="spacing" textLength="154.499" x="3113" y="135.8467">ObservationCollection</text><line style="stroke:#181818;stroke-width:0.5;" x1="3085" x2="3269.499" y1="147" y2="147"/><line style="stroke:#181818;stroke-width:0.5;" x1="3085" x2="3269.499" y1="155" y2="155"/></g><!--class Observation--><g class="entity" data-qualified-name="Observation" data-source-line="19" id="ent0043"><rect fill="#F1F1F1" height="48" rx="2.5" ry="2.5" style="stroke:#181818;stroke-width:0.5;" width="117.251" x="2527.5" y="115"/><ellipse cx="2542.5" cy="131" fill="#ADD1B2" rx="11" ry="11" style="stroke:#181818;stroke-width:1;"/><path d="M2545.4688,136.6406 Q2544.8906,136.9375 2544.25,137.0781 Q2543.6094,137.2344 2542.9063,137.2344 Q2540.4063,137.2344 2539.0781,135.5938 Q2537.7656,133.9375 2537.7656,130.8125 Q2537.7656,127.6875 2539.0781,126.0313 Q2540.4063,124.375 2542.9063,124.375 Q2543.6094,124.375 2544.25,124.5313 Q2544.9063,124.6875 2545.4688,124.9844 L2545.4688,127.7031 Q2544.8438,127.125 2544.25,126.8594 Q2543.6563,126.5781 2543.0313,126.5781 Q2541.6875,126.5781 2541,127.6563 Q2540.3125,128.7188 2540.3125,130.8125 Q2540.3125,132.9063 2541,133.9844 Q2541.6875,135.0469 2543.0313,135.0469 Q2543.6563,135.0469 2544.25,134.7813 Q2544.8438,134.5 2545.4688,133.9219 L2545.4688,136.6406 Z " fill="#000000"/><text fill="#000000" font-family="sans-serif" font-size="14" lengthAdjust="spacing" textLength="85.251" x="2556.5" y="135.8467">Observation</text><line style="stroke:#181818;stroke-width:0.5;" x1="2528.5" x2="2643.751" y1="147" y2="147"/><line style="stroke:#181818;stroke-width:0.5;" x1="2528.5" x2="2643.751" y1="155" y2="155"/></g><!--class Deployment--><g class="entity" data-qualified-name="Deployment" data-source-line="20" id="ent0045"><rect fill="#F1F1F1" height="48" rx="2.5" ry="2.5" style="stroke:#181818;stroke-width:0.5;" width="117.6338" x="7" y="7"/><ellipse cx="22" cy="23" fill="#ADD1B2" rx="11" ry="11" style="stroke:#181818;stroke-width:1;"/><path d="M24.9688,28.6406 Q24.3906,28.9375 23.75,29.0781 Q23.1094,29.2344 22.4063,29.2344 Q19.9063,29.2344 18.5781,27.5938 Q17.2656,25.9375 17.2656,22.8125 Q17.2656,19.6875 18.5781,18.0313 Q19.9063,16.375 22.4063,16.375 Q23.1094,16.375 23.75,16.5313 Q24.4063,16.6875 24.9688,16.9844 L24.9688,19.7031 Q24.3438,19.125 23.75,18.8594 Q23.1563,18.5781 22.5313,18.5781 Q21.1875,18.5781 20.5,19.6563 Q19.8125,20.7188 19.8125,22.8125 Q19.8125,24.9063 20.5,25.9844 Q21.1875,27.0469 22.5313,27.0469 Q23.1563,27.0469 23.75,26.7813 Q24.3438,26.5 24.9688,25.9219 L24.9688,28.6406 Z " fill="#000000"/><text fill="#000000" font-family="sans-serif" font-size="14" lengthAdjust="spacing" textLength="85.6338" x="36" y="27.8467">Deployment</text><line style="stroke:#181818;stroke-width:0.5;" x1="8" x2="123.6338" y1="39" y2="39"/><line style="stroke:#181818;stroke-width:0.5;" x1="8" x2="123.6338" y1="47" y2="47"/></g><!--class Input--><g class="entity" data-qualified-name="Input" data-source-line="21" id="ent0046"><rect fill="#F1F1F1" height="48" rx="2.5" ry="2.5" style="stroke:#181818;stroke-width:0.5;" width="68.251" x="160" y="7"/><ellipse cx="175" cy="23" fill="#ADD1B2" rx="11" ry="11" style="stroke:#181818;stroke-width:1;"/><path d="M177.9688,28.6406 Q177.3906,28.9375 176.75,29.0781 Q176.1094,29.2344 175.4063,29.2344 Q172.9063,29.2344 171.5781,27.5938 Q170.2656,25.9375 170.2656,22.8125 Q170.2656,19.6875 171.5781,18.0313 Q172.9063,16.375 175.4063,16.375 Q176.1094,16.375 176.75,16.5313 Q177.4063,16.6875 177.9688,16.9844 L177.9688,19.7031 Q177.3438,19.125 176.75,18.8594 Q176.1563,18.5781 175.5313,18.5781 Q174.1875,18.5781 173.5,19.6563 Q172.8125,20.7188 172.8125,22.8125 Q172.8125,24.9063 173.5,25.9844 Q174.1875,27.0469 175.5313,27.0469 Q176.1563,27.0469 176.75,26.7813 Q177.3438,26.5 177.9688,25.9219 L177.9688,28.6406 Z " fill="#000000"/><text fill="#000000" font-family="sans-serif" font-size="14" lengthAdjust="spacing" textLength="36.251" x="189" y="27.8467">Input</text><line style="stroke:#181818;stroke-width:0.5;" x1="161" x2="227.251" y1="39" y2="39"/><line style="stroke:#181818;stroke-width:0.5;" x1="161" x2="227.251" y1="47" y2="47"/></g><!--class SampleCollection--><g class="entity" data-qualified-name="SampleCollection" data-source-line="23" id="ent0047"><rect fill="#F1F1F1" height="48" rx="2.5" ry="2.5" style="stroke:#181818;stroke-width:0.5;" width="153.7412" x="263" y="7"/><ellipse cx="278" cy="23" fill="#ADD1B2" rx="11" ry="11" style="stroke:#181818;stroke-width:1;"/><path d="M280.9688,28.6406 Q280.3906,28.9375 279.75,29.0781 Q279.1094,29.2344 278.4063,29.2344 Q275.9063,29.2344 274.5781,27.5938 Q273.2656,25.9375 273.2656,22.8125 Q273.2656,19.6875 274.5781,18.0313 Q275.9063,16.375 278.4063,16.375 Q279.1094,16.375 279.75,16.5313 Q280.4063,16.6875 280.9688,16.9844 L280.9688,19.7031 Q280.3438,19.125 279.75,18.8594 Q279.1563,18.5781 278.5313,18.5781 Q277.1875,18.5781 276.5,19.6563 Q275.8125,20.7188 275.8125,22.8125 Q275.8125,24.9063 276.5,25.9844 Q277.1875,27.0469 278.5313,27.0469 Q279.1563,27.0469 279.75,26.7813 Q280.3438,26.5 280.9688,25.9219 L280.9688,28.6406 Z " fill="#000000"/><text fill="#000000" font-family="sans-serif" font-size="14" lengthAdjust="spacing" textLength="121.7412" x="292" y="27.8467">SampleCollection</text><line style="stroke:#181818;stroke-width:0.5;" x1="264" x2="415.7412" y1="39" y2="39"/><line style="stroke:#181818;stroke-width:0.5;" x1="264" x2="415.7412" y1="47" y2="47"/></g><!--class Stimulus--><g class="entity" data-qualified-name="Stimulus" data-source-line="25" id="ent0048"><rect fill="#F1F1F1" height="48" rx="2.5" ry="2.5" style="stroke:#181818;stroke-width:0.5;" width="92.833" x="19.5" y="115"/><ellipse cx="34.5" cy="131" fill="#ADD1B2" rx="11" ry="11" style="stroke:#181818;stroke-width:1;"/><path d="M37.4688,136.6406 Q36.8906,136.9375 36.25,137.0781 Q35.6094,137.2344 34.9063,137.2344 Q32.4063,137.2344 31.0781,135.5938 Q29.7656,133.9375 29.7656,130.8125 Q29.7656,127.6875 31.0781,126.0313 Q32.4063,124.375 34.9063,124.375 Q35.6094,124.375 36.25,124.5313 Q36.9063,124.6875 37.4688,124.9844 L37.4688,127.7031 Q36.8438,127.125 36.25,126.8594 Q35.6563,126.5781 35.0313,126.5781 Q33.6875,126.5781 33,127.6563 Q32.3125,128.7188 32.3125,130.8125 Q32.3125,132.9063 33,133.9844 Q33.6875,135.0469 35.0313,135.0469 Q35.6563,135.0469 36.25,134.7813 Q36.8438,134.5 37.4688,133.9219 L37.4688,136.6406 Z " fill="#000000"/><text fill="#000000" font-family="sans-serif" font-size="14" lengthAdjust="spacing" textLength="60.833" x="48.5" y="135.8467">Stimulus</text><line style="stroke:#181818;stroke-width:0.5;" x1="20.5" x2="111.333" y1="147" y2="147"/><line style="stroke:#181818;stroke-width:0.5;" x1="20.5" x2="111.333" y1="155" y2="155"/></g><!--class Result--><g class="entity" data-qualified-name="Result" data-source-line="26" id="ent0049"><rect fill="#F1F1F1" height="48" rx="2.5" ry="2.5" style="stroke:#181818;stroke-width:0.5;" width="75.8867" x="148" y="115"/><ellipse cx="163" cy="131" fill="#ADD1B2" rx="11" ry="11" style="stroke:#181818;stroke-width:1;"/><path d="M165.9688,136.6406 Q165.3906,136.9375 164.75,137.0781 Q164.1094,137.2344 163.4063,137.2344 Q160.9063,137.2344 159.5781,135.5938 Q158.2656,133.9375 158.2656,130.8125 Q158.2656,127.6875 159.5781,126.0313 Q160.9063,124.375 163.4063,124.375 Q164.1094,124.375 164.75,124.5313 Q165.4063,124.6875 165.9688,124.9844 L165.9688,127.7031 Q165.3438,127.125 164.75,126.8594 Q164.1563,126.5781 163.5313,126.5781 Q162.1875,126.5781 161.5,127.6563 Q160.8125,128.7188 160.8125,130.8125 Q160.8125,132.9063 161.5,133.9844 Q162.1875,135.0469 163.5313,135.0469 Q164.1563,135.0469 164.75,134.7813 Q165.3438,134.5 165.9688,133.9219 L165.9688,136.6406 Z " fill="#000000"/><text fill="#000000" font-family="sans-serif" font-size="14" lengthAdjust="spacing" textLength="43.8867" x="177" y="135.8467">Result</text><line style="stroke:#181818;stroke-width:0.5;" x1="149" x2="222.8867" y1="147" y2="147"/><line style="stroke:#181818;stroke-width:0.5;" x1="149" x2="222.8867" y1="155" y2="155"/></g><!--class FeatureOfInterest--><g class="entity" data-qualified-name="FeatureOfInterest" data-source-line="28" id="ent0050"><rect fill="#F1F1F1" height="48" rx="2.5" ry="2.5" style="stroke:#181818;stroke-width:0.5;" width="156.1816" x="259" y="115"/><ellipse cx="274" cy="131" fill="#ADD1B2" rx="11" ry="11" style="stroke:#181818;stroke-width:1;"/><path d="M276.9688,136.6406 Q276.3906,136.9375 275.75,137.0781 Q275.1094,137.2344 274.4063,137.2344 Q271.9063,137.2344 270.5781,135.5938 Q269.2656,133.9375 269.2656,130.8125 Q269.2656,127.6875 270.5781,126.0313 Q271.9063,124.375 274.4063,124.375 Q275.1094,124.375 275.75,124.5313 Q276.4063,124.6875 276.9688,124.9844 L276.9688,127.7031 Q276.3438,127.125 275.75,126.8594 Q275.1563,126.5781 274.5313,126.5781 Q273.1875,126.5781 272.5,127.6563 Q271.8125,128.7188 271.8125,130.8125 Q271.8125,132.9063 272.5,133.9844 Q273.1875,135.0469 274.5313,135.0469 Q275.1563,135.0469 275.75,134.7813 Q276.3438,134.5 276.9688,133.9219 L276.9688,136.6406 Z " fill="#000000"/><text fill="#000000" font-family="sans-serif" font-size="14" lengthAdjust="spacing" textLength="124.1816" x="288" y="135.8467">FeatureOfInterest</text><line style="stroke:#181818;stroke-width:0.5;" x1="260" x2="414.1816" y1="147" y2="147"/><line style="stroke:#181818;stroke-width:0.5;" x1="260" x2="414.1816" y1="155" y2="155"/></g><!--class Output--><g class="entity" data-qualified-name="Output" data-source-line="29" id="ent0051"><rect fill="#F1F1F1" height="48" rx="2.5" ry="2.5" style="stroke:#181818;stroke-width:0.5;" width="80.6309" x="25.5" y="223"/><ellipse cx="40.5" cy="239" fill="#ADD1B2" rx="11" ry="11" style="stroke:#181818;stroke-width:1;"/><path d="M43.4688,244.6406 Q42.8906,244.9375 42.25,245.0781 Q41.6094,245.2344 40.9063,245.2344 Q38.4063,245.2344 37.0781,243.5938 Q35.7656,241.9375 35.7656,238.8125 Q35.7656,235.6875 37.0781,234.0313 Q38.4063,232.375 40.9063,232.375 Q41.6094,232.375 42.25,232.5313 Q42.9063,232.6875 43.4688,232.9844 L43.4688,235.7031 Q42.8438,235.125 42.25,234.8594 Q41.6563,234.5781 41.0313,234.5781 Q39.6875,234.5781 39,235.6563 Q38.3125,236.7188 38.3125,238.8125 Q38.3125,240.9063 39,241.9844 Q39.6875,243.0469 41.0313,243.0469 Q41.6563,243.0469 42.25,242.7813 Q42.8438,242.5 43.4688,241.9219 L43.4688,244.6406 Z " fill="#000000"/><text fill="#000000" font-family="sans-serif" font-size="14" lengthAdjust="spacing" textLength="48.6309" x="54.5" y="243.8467">Output</text><line style="stroke:#181818;stroke-width:0.5;" x1="26.5" x2="105.1309" y1="255" y2="255"/><line style="stroke:#181818;stroke-width:0.5;" x1="26.5" x2="105.1309" y1="263" y2="263"/></g><!--reverse link Property to ActuatableProperty--><g class="link" data-entity-1="ent0001" data-entity-2="ent0002" data-link-type="extension" data-source-line="1" id="lnk3"><path codeLine="1" d="M601.3905,67.9716 C584.4005,85.6316 573.51,96.94 556.44,114.68" fill="none" id="Property-backto-ActuatableProperty" style="stroke:#181818;stroke-width:1;"/><polygon fill="none" points="613.87,55,597.0667,63.8118,605.7144,72.1314,613.87,55" style="stroke:#181818;stroke-width:1;stroke-linejoin:miter;stroke-miterlimit:10;"/></g><!--reverse link Sample to MaterialSample--><g class="link" data-entity-1="ent0004" data-entity-2="ent0005" data-link-type="extension" data-source-line="2" id="lnk6"><path codeLine="2" d="M1050.3567,64.4445 C1021.6067,82.1645 997.35,97.11 968.55,114.86" fill="none" id="Sample-backto-MaterialSample" style="stroke:#181818;stroke-width:1;"/><polygon fill="none" points="1065.68,55,1047.2086,59.3367,1053.5049,69.5522,1065.68,55" style="stroke:#181818;stroke-width:1;stroke-linejoin:miter;stroke-miterlimit:10;"/></g><!--reverse link Sample to SpatialSample--><g class="link" data-entity-1="ent0004" data-entity-2="ent0007" data-link-type="extension" data-source-line="3" id="lnk8"><path codeLine="3" d="M1103,73 C1103,90.66 1103,96.94 1103,114.68" fill="none" id="Sample-backto-SpatialSample" style="stroke:#181818;stroke-width:1;"/><polygon fill="none" points="1103,55,1097,73,1109,73,1103,55" style="stroke:#181818;stroke-width:1;stroke-linejoin:miter;stroke-miterlimit:10;"/></g><!--reverse link Sample to StatisticalSample--><g class="link" data-entity-1="ent0004" data-entity-2="ent0009" data-link-type="extension" data-source-line="4" id="lnk10"><path codeLine="4" d="M1157.3276,64.1725 C1187.2476,81.8925 1212.95,97.11 1242.93,114.86" fill="none" id="Sample-backto-StatisticalSample" style="stroke:#181818;stroke-width:1;"/><polygon fill="none" points="1141.84,55,1154.2701,69.335,1160.3851,59.0099,1141.84,55" style="stroke:#181818;stroke-width:1;stroke-linejoin:miter;stroke-miterlimit:10;"/></g><!--reverse link Property to ObservableProperty--><g class="link" data-entity-1="ent0001" data-entity-2="ent0011" data-link-type="extension" data-source-line="5" id="lnk12"><path codeLine="5" d="M670.8939,67.9094 C688.0539,85.5694 699.1,96.94 716.34,114.68" fill="none" id="Property-backto-ObservableProperty" style="stroke:#181818;stroke-width:1;"/><polygon fill="none" points="658.35,55,666.5907,72.0906,675.197,63.7281,658.35,55" style="stroke:#181818;stroke-width:1;stroke-linejoin:miter;stroke-miterlimit:10;"/></g><!--reverse link Procedure to ActuatingProcedure--><g class="link" data-entity-1="ent0013" data-entity-2="ent0014" data-link-type="extension" data-source-line="6" id="lnk15"><path codeLine="6" d="M1626.8326,63.1732 C1592.0626,80.8932 1560.24,97.11 1525.4,114.86" fill="none" id="Procedure-backto-ActuatingProcedure" style="stroke:#181818;stroke-width:1;"/><polygon fill="none" points="1642.87,55,1624.1082,57.8274,1629.557,68.519,1642.87,55" style="stroke:#181818;stroke-width:1;stroke-linejoin:miter;stroke-miterlimit:10;"/></g><!--reverse link Procedure to ObservingProcedure--><g class="link" data-entity-1="ent0013" data-entity-2="ent0016" data-link-type="extension" data-source-line="7" id="lnk17"><path codeLine="7" d="M1688,73 C1688,90.66 1688,96.94 1688,114.68" fill="none" id="Procedure-backto-ObservingProcedure" style="stroke:#181818;stroke-width:1;"/><polygon fill="none" points="1688,55,1682,73,1694,73,1688,55" style="stroke:#181818;stroke-width:1;stroke-linejoin:miter;stroke-miterlimit:10;"/></g><!--reverse link Procedure to SamplingProcedure--><g class="link" data-entity-1="ent0013" data-entity-2="ent0018" data-link-type="extension" data-source-line="8" id="lnk19"><path codeLine="8" d="M1748.9411,63.205 C1783.5411,80.925 1815.15,97.11 1849.81,114.86" fill="none" id="Procedure-backto-SamplingProcedure" style="stroke:#181818;stroke-width:1;"/><polygon fill="none" points="1732.92,55,1746.2061,68.5454,1751.6762,57.8647,1732.92,55" style="stroke:#181818;stroke-width:1;stroke-linejoin:miter;stroke-miterlimit:10;"/></g><!--reverse link Asset to Platform--><g class="link" data-entity-1="ent0020" data-entity-2="ent0021" data-link-type="extension" data-source-line="9" id="lnk22"><path codeLine="9" d="M2098.7839,70.6022 C2088.6239,88.2622 2083.63,96.94 2073.42,114.68" fill="none" id="Asset-backto-Platform" style="stroke:#181818;stroke-width:1;"/><polygon fill="none" points="2107.76,55,2093.5831,67.6102,2103.9846,73.5943,2107.76,55" style="stroke:#181818;stroke-width:1;stroke-linejoin:miter;stroke-miterlimit:10;"/></g><!--reverse link System to Sampler--><g class="link" data-entity-1="ent0023" data-entity-2="ent0024" data-link-type="extension" data-source-line="10" id="lnk25"><path codeLine="10" d="M2141.8865,174.5884 C2120.8965,192.2484 2105.81,204.94 2084.72,222.68" fill="none" id="System-backto-Sampler" style="stroke:#181818;stroke-width:1;"/><polygon fill="none" points="2155.66,163,2138.0237,169.9972,2145.7493,179.1795,2155.66,163" style="stroke:#181818;stroke-width:1;stroke-linejoin:miter;stroke-miterlimit:10;"/></g><!--reverse link System to Actuator--><g class="link" data-entity-1="ent0023" data-entity-2="ent0026" data-link-type="extension" data-source-line="11" id="lnk27"><path codeLine="11" d="M2183,181 C2183,198.66 2183,204.94 2183,222.68" fill="none" id="System-backto-Actuator" style="stroke:#181818;stroke-width:1;"/><polygon fill="none" points="2183,163,2177,181,2189,181,2183,163" style="stroke:#181818;stroke-width:1;stroke-linejoin:miter;stroke-miterlimit:10;"/></g><!--reverse link Asset to System--><g class="link" data-entity-1="ent0020" data-entity-2="ent0023" data-link-type="extension" data-source-line="12" id="lnk28"><path codeLine="12" d="M2143.5383,70.5372 C2153.8683,88.1972 2158.98,96.94 2169.36,114.68" fill="none" id="Asset-backto-System" style="stroke:#181818;stroke-width:1;"/><polygon fill="none" points="2134.45,55,2138.3592,73.5666,2148.7173,67.5077,2134.45,55" style="stroke:#181818;stroke-width:1;stroke-linejoin:miter;stroke-miterlimit:10;"/></g><!--reverse link Execution to Sampling--><g class="link" data-entity-1="ent0029" data-entity-2="ent0030" data-link-type="extension" data-source-line="13" id="lnk31"><path codeLine="13" d="M2399.8041,66.1688 C2377.4841,83.8288 2360.91,96.94 2338.48,114.68" fill="none" id="Execution-backto-Sampling" style="stroke:#181818;stroke-width:1;"/><polygon fill="none" points="2413.92,55,2396.0812,61.4635,2403.527,70.8741,2413.92,55" style="stroke:#181818;stroke-width:1;stroke-linejoin:miter;stroke-miterlimit:10;"/></g><!--reverse link ExecutionCollection to SamplingCollection--><g class="link" data-entity-1="ent0032" data-entity-2="ent0033" data-link-type="extension" data-source-line="14" id="lnk34"><path codeLine="14" d="M2905.231,63.3636 C2871.461,81.0836 2840.93,97.11 2807.09,114.86" fill="none" id="ExecutionCollection-backto-SamplingCollection" style="stroke:#181818;stroke-width:1;"/><polygon fill="none" points="2921.17,55,2902.4432,58.0506,2908.0189,68.6766,2921.17,55" style="stroke:#181818;stroke-width:1;stroke-linejoin:miter;stroke-miterlimit:10;"/></g><!--reverse link Execution to Actuation--><g class="link" data-entity-1="ent0029" data-entity-2="ent0035" data-link-type="extension" data-source-line="15" id="lnk36"><path codeLine="15" d="M2443,73 C2443,90.66 2443,96.94 2443,114.68" fill="none" id="Execution-backto-Actuation" style="stroke:#181818;stroke-width:1;"/><polygon fill="none" points="2443,55,2437,73,2449,73,2443,55" style="stroke:#181818;stroke-width:1;stroke-linejoin:miter;stroke-miterlimit:10;"/></g><!--reverse link System to Sensor--><g class="link" data-entity-1="ent0023" data-entity-2="ent0037" data-link-type="extension" data-source-line="16" id="lnk38"><path codeLine="16" d="M2222.7968,174.864 C2242.9468,192.524 2257.13,204.94 2277.38,222.68" fill="none" id="System-backto-Sensor" style="stroke:#181818;stroke-width:1;"/><polygon fill="none" points="2209.26,163,2218.8421,179.3763,2226.7515,170.3518,2209.26,163" style="stroke:#181818;stroke-width:1;stroke-linejoin:miter;stroke-miterlimit:10;"/></g><!--reverse link ExecutionCollection to ActuationCollection--><g class="link" data-entity-1="ent0032" data-entity-2="ent0039" data-link-type="extension" data-source-line="17" id="lnk40"><path codeLine="17" d="M2965,73 C2965,90.66 2965,96.94 2965,114.68" fill="none" id="ExecutionCollection-backto-ActuationCollection" style="stroke:#181818;stroke-width:1;"/><polygon fill="none" points="2965,55,2959,73,2971,73,2965,55" style="stroke:#181818;stroke-width:1;stroke-linejoin:miter;stroke-miterlimit:10;"/></g><!--reverse link ExecutionCollection to ObservationCollection--><g class="link" data-entity-1="ent0032" data-entity-2="ent0041" data-link-type="extension" data-source-line="18" id="lnk42"><path codeLine="18" d="M3027.0997,63.0498 C3062.5397,80.7698 3095.22,97.11 3130.72,114.86" fill="none" id="ExecutionCollection-backto-ObservationCollection" style="stroke:#181818;stroke-width:1;"/><polygon fill="none" points="3011,55,3024.4164,68.4164,3029.783,57.6833,3011,55" style="stroke:#181818;stroke-width:1;stroke-linejoin:miter;stroke-miterlimit:10;"/></g><!--reverse link Execution to Observation--><g class="link" data-entity-1="ent0029" data-entity-2="ent0043" data-link-type="extension" data-source-line="19" id="lnk44"><path codeLine="19" d="M2488.4895,65.7202 C2512.3095,83.3802 2530.61,96.94 2554.54,114.68" fill="none" id="Execution-backto-Observation" style="stroke:#181818;stroke-width:1;"/><polygon fill="none" points="2474.03,55,2484.9161,70.54,2492.0629,60.9004,2474.03,55" style="stroke:#181818;stroke-width:1;stroke-linejoin:miter;stroke-miterlimit:10;"/></g><?plantuml-src VP9BRiCm34JtFeKla1jq4xGDa4LWepw1eZ210Ee3aIfge8UF4AgsvSJToVE6v9XI7ts0o6FxzhlRjNlDIR4w8_H5RmPb0uBWasA8Hg5e5Hg2uWt2cH0RFT6-cjcT2U9tDJCVD5nIX6KguswJldP8Z_ySZz6LOKy4BB17nLSVRJECn60N5H0hJPBuk2mMtdp-W4vilAldpVgxHmJzx9ZrTO_otnbKkS1HJh3PTwfwrNXjBilViZ-P6esAgFs0W7wquBW8HnSIRq7PvAA_oDDr5nSRcp1H-Vm2IiYlsG4KvolihaUN7oJGdwrBFCUGdTq1?></g></svg>