<svg xmlns="http://www.w3.org/2000/svg" xmlns:xlink="http://www.w3.org/1999/xlink" contentStyleType="text/css" data-diagram-type="CLASS" height="286px" preserveAspectRatio="none" style="width:3289px;height:286px;background:#FFFFFF;" version="1.1" viewBox="0 0 3289 286" width="3289px" zoomAndPan="magnify"><?plantuml 1.2026.4?><defs/><g><!--class Property--><g class="entity" data-qualified-name="Property" data-source-line="1" id="ent0001"><rect fill="#F1F1F1" height="48" rx="2.5" ry="2.5" style="stroke:#181818;stroke-width:0.5;" width="91.7939" x="594" y="7"/><ellipse cx="609" cy="23" fill="#ADD1B2" rx="11" ry="11" style="stroke:#181818;stroke-width:1;"/><path d="M611.9688,28.6406 Q611.3906,28.9375 610.75,29.0781 Q610.1094,29.2344 609.4063,29.2344 Q606.9063,29.2344 605.5781,27.5938 Q604.2656,25.9375 604.2656,22.8125 Q604.2656,19.6875 605.5781,18.0313 Q606.9063,16.375 609.4063,16.375 Q610.1094,16.375 610.75,16.5313 Q611.4063,16.6875 611.9688,16.9844 L611.9688,19.7031 Q611.3438,19.125 610.75,18.8594 Q610.1563,18.5781 609.5313,18.5781 Q608.1875,18.5781 607.5,19.6563 Q606.8125,20.7188 606.8125,22.8125 Q606.8125,24.9063 607.5,25.9844 Q608.1875,27.0469 609.5313,27.0469 Q610.1563,27.0469 610.75,26.7813 Q611.3438,26.5 611.9688,25.9219 L611.9688,28.6406 Z " fill="#000000"/><text fill="#000000" font-family="sans-serif" font-size="14" lengthAdjust="spacing" textLength="59.7939" x="623" y="27.8467">Property</text><line style="stroke:#181818;stroke-width:0.5;" x1="595" x2="684.7939" y1="39" y2="39"/><line style="stroke:#181818;stroke-width:0.5;" x1="595" x2="684.7939" y1="47" y2="47"/></g><!--class ActuatableProperty--><g class="entity" data-qualified-name="ActuatableProperty" data-source-line="1" id="ent0002"><rect fill="#F1F1F1" height="48" rx="2.5" ry="2.5" style="stroke:#181818;stroke-width:0.5;" width="167.4678" x="454.5" y="115"/><ellipse cx="469.5" cy="131" fill="#ADD1B2" rx="11" ry="11" style="stroke:#181818;stroke-width:1;"/><path d="M472.4688,136.6406 Q471.8906,136.9375 471.25,137.0781 Q470.6094,137.2344 469.9063,137.2344 Q467.4063,137.2344 466.0781,135.5938 Q464.7656,133.9375 464.7656,130.8125 Q464.7656,127.6875 466.0781,126.0313 Q467.4063,124.375 469.9063,124.375 Q470.6094,124.375 471.25,124.5313 Q471.9063,124.6875 472.4688,124.9844 L472.4688,127.7031 Q471.8438,127.125 471.25,126.8594 Q470.6563,126.5781 470.0313,126.5781 Q468.6875,126.5781 468,127.6563 Q467.3125,128.7188 467.3125,130.8125 Q467.3125,132.9063 468,133.9844 Q468.6875,135.0469 470.0313,135.0469 Q470.6563,135.0469 471.25,134.7813 Q471.8438,134.5 472.4688,133.9219 L472.4688,136.6406 Z " fill="#000000"/><text fill="#000000" font-family="sans-serif" font-size="14" lengthAdjust="spacing" textLength="135.4678" x="483.5" y="135.8467">ActuatableProperty</text><line style="stroke:#181818;stroke-width:0.5;" x1="455.5" x2="620.9678" y1="147" y2="147"/><line style="stroke:#181818;stroke-width:0.5;" x1="455.5" x2="620.9678" y1="155" y2="155"/></g><!--class Sample--><g class="entity" data-qualified-name="Sample" data-source-line="2" id="ent0004"><rect fill="#F1F1F1" height="48" rx="2.5" ry="2.5" style="stroke:#181818;stroke-width:0.5;" width="84.4932" x="1065" y="7"/><ellipse cx="1080" cy="23" fill="#ADD1B2" rx="11" ry="11" style="stroke:#181818;stroke-width:1;"/><path d="M1082.9688,28.6406 Q1082.3906,28.9375 1081.75,29.0781 Q1081.1094,29.2344 1080.4063,29.2344 Q1077.9063,29.2344 1076.5781,27.5938 Q1075.2656,25.9375 1075.2656,22.8125 Q1075.2656,19.6875 1076.5781,18.0313 Q1077.9063,16.375 1080.4063,16.375 Q1081.1094,16.375 1081.75,16.5313 Q1082.4063,16.6875 1082.9688,16.9844 L1082.9688,19.7031 Q1082.3438,19.125 1081.75,18.8594 Q1081.1563,18.5781 1080.5313,18.5781 Q1079.1875,18.5781 1078.5,19.6563 Q1077.8125,20.7188 1077.8125,22.8125 Q1077.8125,24.9063 1078.5,25.9844 Q1079.1875,27.0469 1080.5313,27.0469 Q1081.1563,27.0469 1081.75,26.7813 Q1082.3438,26.5 1082.9688,25.9219 L1082.9688,28.6406 Z " fill="#000000"/><text fill="#000000" font-family="sans-serif" font-size="14" lengthAdjust="spacing" textLength="52.4932" x="1094" y="27.8467">Sample</text><line style="stroke:#181818;stroke-width:0.5;" x1="1066" x2="1148.4932" y1="39" y2="39"/><line style="stroke:#181818;stroke-width:0.5;" x1="1066" x2="1148.4932" y1="47" y2="47"/></g><!--class MaterialSample--><g class="entity" data-qualified-name="MaterialSample" data-source-line="2" id="ent0005"><rect fill="#F1F1F1" height="48" rx="2.5" ry="2.5" style="stroke:#181818;stroke-width:0.5;" width="141.3682" x="864.5" y="115"/><ellipse cx="879.5" cy="131" fill="#ADD1B2" rx="11" ry="11" style="stroke:#181818;stroke-width:1;"/><path d="M882.4688,136.6406 Q881.8906,136.9375 881.25,137.0781 Q880.6094,137.2344 879.9063,137.2344 Q877.4063,137.2344 876.0781,135.5938 Q874.7656,133.9375 874.7656,130.8125 Q874.7656,127.6875 876.0781,126.0313 Q877.4063,124.375 879.9063,124.375 Q880.6094,124.375 881.25,124.5313 Q881.9063,124.6875 882.4688,124.9844 L882.4688,127.7031 Q881.8438,127.125 881.25,126.8594 Q880.6563,126.5781 880.0313,126.5781 Q878.6875,126.5781 878,127.6563 Q877.3125,128.7188 877.3125,130.8125 Q877.3125,132.9063 878,133.9844 Q878.6875,135.0469 880.0313,135.0469 Q880.6563,135.0469 881.25,134.7813 Q881.8438,134.5 882.4688,133.9219 L882.4688,136.6406 Z " fill="#000000"/><text fill="#000000" font-family="sans-serif" font-size="14" lengthAdjust="spacing" textLength="109.3682" x="893.5" y="135.8467">MaterialSample</text><line style="stroke:#181818;stroke-width:0.5;" x1="865.5" x2="1004.8682" y1="147" y2="147"/><line style="stroke:#181818;stroke-width:0.5;" x1="865.5" x2="1004.8682" y1="155" y2="155"/></g><!--class SpatialSample--><g class="entity" data-qualified-name="SpatialSample" data-source-line="3" id="ent0007"><rect fill="#F1F1F1" height="48" rx="2.5" ry="2.5" style="stroke:#181818;stroke-width:0.5;" width="132.6934" x="1040.5" y="115"/><ellipse cx="1055.5" cy="131" fill="#ADD1B2" rx="11" ry="11" style="stroke:#181818;stroke-width:1;"/><path d="M1058.4688,136.6406 Q1057.8906,136.9375 1057.25,137.0781 Q1056.6094,137.2344 1055.9063,137.2344 Q1053.4063,137.2344 1052.0781,135.5938 Q1050.7656,133.9375 1050.7656,130.8125 Q1050.7656,127.6875 1052.0781,126.0313 Q1053.4063,124.375 1055.9063,124.375 Q1056.6094,124.375 1057.25,124.5313 Q1057.9063,124.6875 1058.4688,124.9844 L1058.4688,127.7031 Q1057.8438,127.125 1057.25,126.8594 Q1056.6563,126.5781 1056.0313,126.5781 Q1054.6875,126.5781 1054,127.6563 Q1053.3125,128.7188 1053.3125,130.8125 Q1053.3125,132.9063 1054,133.9844 Q1054.6875,135.0469 1056.0313,135.0469 Q1056.6563,135.0469 1057.25,134.7813 Q1057.8438,134.5 1058.4688,133.9219 L1058.4688,136.6406 Z " fill="#000000"/><text fill="#000000" font-family="sans-serif" font-size="14" lengthAdjust="spacing" textLength="100.6934" x="1069.5" y="135.8467">SpatialSample</text><line style="stroke:#181818;stroke-width:0.5;" x1="1041.5" x2="1172.1934" y1="147" y2="147"/><line style="stroke:#181818;stroke-width:0.5;" x1="1041.5" x2="1172.1934" y1="155" y2="155"/></g><!--class StatisticalSample--><g class="entity" data-qualified-name="StatisticalSample" data-source-line="4" id="ent0009"><rect fill="#F1F1F1" height="48" rx="2.5" ry="2.5" style="stroke:#181818;stroke-width:0.5;" width="153.666" x="1209" y="115"/><ellipse cx="1224" cy="131" fill="#ADD1B2" rx="11" ry="11" style="stroke:#181818;stroke-width:1;"/><path d="M1226.9688,136.6406 Q1226.3906,136.9375 1225.75,137.0781 Q1225.1094,137.2344 1224.4063,137.2344 Q1221.9063,137.2344 1220.5781,135.5938 Q1219.2656,133.9375 1219.2656,130.8125 Q1219.2656,127.6875 1220.5781,126.0313 Q1221.9063,124.375 1224.4063,124.375 Q1225.1094,124.375 1225.75,124.5313 Q1226.4063,124.6875 1226.9688,124.9844 L1226.9688,127.7031 Q1226.3438,127.125 1225.75,126.8594 Q1225.1563,126.5781 1224.5313,126.5781 Q1223.1875,126.5781 1222.5,127.6563 Q1221.8125,128.7188 1221.8125,130.8125 Q1221.8125,132.9063 1222.5,133.9844 Q1223.1875,135.0469 1224.5313,135.0469 Q1225.1563,135.0469 1225.75,134.7813 Q1226.3438,134.5 1226.9688,133.9219 L1226.9688,136.6406 Z " fill="#000000"/><text fill="#000000" font-family="sans-serif" font-size="14" lengthAdjust="spacing" textLength="121.666" x="1238" y="135.8467">StatisticalSample</text><line style="stroke:#181818;stroke-width:0.5;" x1="1210" x2="1361.666" y1="147" y2="147"/><line style="stroke:#181818;stroke-width:0.5;" x1="1210" x2="1361.666" y1="155" y2="155"/></g><!--class ObservableProperty--><g class="entity" data-qualified-name="ObservableProperty" data-source-line="5" id="ent0011"><rect fill="#F1F1F1" height="48" rx="2.5" ry="2.5" style="stroke:#181818;stroke-width:0.5;" width="171.6172" x="657" y="115"/><ellipse cx="672" cy="131" fill="#ADD1B2" rx="11" ry="11" style="stroke:#181818;stroke-width:1;"/><path d="M674.9688,136.6406 Q674.3906,136.9375 673.75,137.0781 Q673.1094,137.2344 672.4063,137.2344 Q669.9063,137.2344 668.5781,135.5938 Q667.2656,133.9375 667.2656,130.8125 Q667.2656,127.6875 668.5781,126.0313 Q669.9063,124.375 672.4063,124.375 Q673.1094,124.375 673.75,124.5313 Q674.4063,124.6875 674.9688,124.9844 L674.9688,127.7031 Q674.3438,127.125 673.75,126.8594 Q673.1563,126.5781 672.5313,126.5781 Q671.1875,126.5781 670.5,127.6563 Q669.8125,128.7188 669.8125,130.8125 Q669.8125,132.9063 670.5,133.9844 Q671.1875,135.0469 672.5313,135.0469 Q673.1563,135.0469 673.75,134.7813 Q674.3438,134.5 674.9688,133.9219 L674.9688,136.6406 Z " fill="#000000"/><text fill="#000000" font-family="sans-serif" font-size="14" lengthAdjust="spacing" textLength="139.6172" x="686" y="135.8467">ObservableProperty</text><line style="stroke:#181818;stroke-width:0.5;" x1="658" x2="827.6172" y1="147" y2="147"/><line style="stroke:#181818;stroke-width:0.5;" x1="658" x2="827.6172" y1="155" y2="155"/></g><!--class Procedure--><g class="entity" data-qualified-name="Procedure" data-source-line="6" id="ent0013"><rect fill="#F1F1F1" height="48" rx="2.5" ry="2.5" style="stroke:#181818;stroke-width:0.5;" width="103.2031" x="1640.5" y="7"/><ellipse cx="1655.5" cy="23" fill="#ADD1B2" rx="11" ry="11" style="stroke:#181818;stroke-width:1;"/><path d="M1658.4688,28.6406 Q1657.8906,28.9375 1657.25,29.0781 Q1656.6094,29.2344 1655.9063,29.2344 Q1653.4063,29.2344 1652.0781,27.5938 Q1650.7656,25.9375 1650.7656,22.8125 Q1650.7656,19.6875 1652.0781,18.0313 Q1653.4063,16.375 1655.9063,16.375 Q1656.6094,16.375 1657.25,16.5313 Q1657.9063,16.6875 1658.4688,16.9844 L1658.4688,19.7031 Q1657.8438,19.125 1657.25,18.8594 Q1656.6563,18.5781 1656.0313,18.5781 Q1654.6875,18.5781 1654,19.6563 Q1653.3125,20.7188 1653.3125,22.8125 Q1653.3125,24.9063 1654,25.9844 Q1654.6875,27.0469 1656.0313,27.0469 Q1656.6563,27.0469 1657.25,26.7813 Q1657.8438,26.5 1658.4688,25.9219 L1658.4688,28.6406 Z " fill="#000000"/><text fill="#000000" font-family="sans-serif" font-size="14" lengthAdjust="spacing" textLength="71.2031" x="1669.5" y="27.8467">Procedure</text><line style="stroke:#181818;stroke-width:0.5;" x1="1641.5" x2="1742.7031" y1="39" y2="39"/><line style="stroke:#181818;stroke-width:0.5;" x1="1641.5" x2="1742.7031" y1="47" y2="47"/></g><!--class ActuatingProcedure--><g class="entity" data-qualified-name="ActuatingProcedure" data-source-line="6" id="ent0014"><rect fill="#F1F1F1" height="48" rx="2.5" ry="2.5" style="stroke:#181818;stroke-width:0.5;" width="170.5576" x="1398.5" y="115"/><ellipse cx="1413.5" cy="131" fill="#ADD1B2" rx="11" ry="11" style="stroke:#181818;stroke-width:1;"/><path d="M1416.4688,136.6406 Q1415.8906,136.9375 1415.25,137.0781 Q1414.6094,137.2344 1413.9063,137.2344 Q1411.4063,137.2344 1410.0781,135.5938 Q1408.7656,133.9375 1408.7656,130.8125 Q1408.7656,127.6875 1410.0781,126.0313 Q1411.4063,124.375 1413.9063,124.375 Q1414.6094,124.375 1415.25,124.5313 Q1415.9063,124.6875 1416.4688,124.9844 L1416.4688,127.7031 Q1415.8438,127.125 1415.25,126.8594 Q1414.6563,126.5781 1414.0313,126.5781 Q1412.6875,126.5781 1412,127.6563 Q1411.3125,128.7188 1411.3125,130.8125 Q1411.3125,132.9063 1412,133.9844 Q1412.6875,135.0469 1414.0313,135.0469 Q1414.6563,135.0469 1415.25,134.7813 Q1415.8438,134.5 1416.4688,133.9219 L1416.4688,136.6406 Z " fill="#000000"/><text fill="#000000" font-family="sans-serif" font-size="14" lengthAdjust="spacing" textLength="138.5576" x="1427.5" y="135.8467">ActuatingProcedure</text><line style="stroke:#181818;stroke-width:0.5;" x1="1399.5" x2="1568.0576" y1="147" y2="147"/><line style="stroke:#181818;stroke-width:0.5;" x1="1399.5" x2="1568.0576" y1="155" y2="155"/></g><!--class ObservingProcedure--><g class="entity" data-qualified-name="ObservingProcedure" data-source-line="7" id="ent0016"><rect fill="#F1F1F1" height="48" rx="2.5" ry="2.5" style="stroke:#181818;stroke-width:0.5;" width="174.707" x="1604.5" y="115"/><ellipse cx="1619.5" cy="131" fill="#ADD1B2" rx="11" ry="11" style="stroke:#181818;stroke-width:1;"/><path d="M1622.4688,136.6406 Q1621.8906,136.9375 1621.25,137.0781 Q1620.6094,137.2344 1619.9063,137.2344 Q1617.4063,137.2344 1616.0781,135.5938 Q1614.7656,133.9375 1614.7656,130.8125 Q1614.7656,127.6875 1616.0781,126.0313 Q1617.4063,124.375 1619.9063,124.375 Q1620.6094,124.375 1621.25,124.5313 Q1621.9063,124.6875 1622.4688,124.9844 L1622.4688,127.7031 Q1621.8438,127.125 1621.25,126.8594 Q1620.6563,126.5781 1620.0313,126.5781 Q1618.6875,126.5781 1618,127.6563 Q1617.3125,128.7188 1617.3125,130.8125 Q1617.3125,132.9063 1618,133.9844 Q1618.6875,135.0469 1620.0313,135.0469 Q1620.6563,135.0469 1621.25,134.7813 Q1621.8438,134.5 1622.4688,133.9219 L1622.4688,136.6406 Z " fill="#000000"/><text fill="#000000" font-family="sans-serif" font-size="14" lengthAdjust="spacing" textLength="142.707" x="1633.5" y="135.8467">ObservingProcedure</text><line style="stroke:#181818;stroke-width:0.5;" x1="1605.5" x2="1778.207" y1="147" y2="147"/><line style="stroke:#181818;stroke-width:0.5;" x1="1605.5" x2="1778.207" y1="155" y2="155"/></g><!--class SamplingProcedure--><g class="entity" data-qualified-name="SamplingProcedure" data-source-line="8" id="ent0018"><rect fill="#F1F1F1" height="48" rx="2.5" ry="2.5" style="stroke:#181818;stroke-width:0.5;" width="168.7324" x="1814.5" y="115"/><ellipse cx="1829.5" cy="131" fill="#ADD1B2" rx="11" ry="11" style="stroke:#181818;stroke-width:1;"/><path d="M1832.4688,136.6406 Q1831.8906,136.9375 1831.25,137.0781 Q1830.6094,137.2344 1829.9063,137.2344 Q1827.4063,137.2344 1826.0781,135.5938 Q1824.7656,133.9375 1824.7656,130.8125 Q1824.7656,127.6875 1826.0781,126.0313 Q1827.4063,124.375 1829.9063,124.375 Q1830.6094,124.375 1831.25,124.5313 Q1831.9063,124.6875 1832.4688,124.9844 L1832.4688,127.7031 Q1831.8438,127.125 1831.25,126.8594 Q1830.6563,126.5781 1830.0313,126.5781 Q1828.6875,126.5781 1828,127.6563 Q1827.3125,128.7188 1827.3125,130.8125 Q1827.3125,132.9063 1828,133.9844 Q1828.6875,135.0469 1830.0313,135.0469 Q1830.6563,135.0469 1831.25,134.7813 Q1831.8438,134.5 1832.4688,133.9219 L1832.4688,136.6406 Z " fill="#000000"/><text fill="#000000" font-family="sans-serif" font-size="14" lengthAdjust="spacing" textLength="136.7324" x="1843.5" y="135.8467">SamplingProcedure</text><line style="stroke:#181818;stroke-width:0.5;" x1="1815.5" x2="1982.2324" y1="147" y2="147"/><line style="stroke:#181818;stroke-width:0.5;" x1="1815.5" x2="1982.2324" y1="155" y2="155"/></g><!--class Asset--><g class="entity" data-qualified-name="Asset" data-source-line="9" id="ent0020"><rect fill="#F1F1F1" height="48" rx="2.5" ry="2.5" style="stroke:#181818;stroke-width:0.5;" width="70.2676" x="2090" y="7"/><ellipse cx="2105" cy="23" fill="#ADD1B2" rx="11" ry="11" style="stroke:#181818;stroke-width:1;"/><path d="M2107.9688,28.6406 Q2107.3906,28.9375 2106.75,29.0781 Q2106.1094,29.2344 2105.4063,29.2344 Q2102.9063,29.2344 2101.5781,27.5938 Q2100.2656,25.9375 2100.2656,22.8125 Q2100.2656,19.6875 2101.5781,18.0313 Q2102.9063,16.375 2105.4063,16.375 Q2106.1094,16.375 2106.75,16.5313 Q2107.4063,16.6875 2107.9688,16.9844 L2107.9688,19.7031 Q2107.3438,19.125 2106.75,18.8594 Q2106.1563,18.5781 2105.5313,18.5781 Q2104.1875,18.5781 2103.5,19.6563 Q2102.8125,20.7188 2102.8125,22.8125 Q2102.8125,24.9063 2103.5,25.9844 Q2104.1875,27.0469 2105.5313,27.0469 Q2106.1563,27.0469 2106.75,26.7813 Q2107.3438,26.5 2107.9688,25.9219 L2107.9688,28.6406 Z " fill="#000000"/><text fill="#000000" font-family="sans-serif" font-size="14" lengthAdjust="spacing" textLength="38.2676" x="2119" y="27.8467">Asset</text><line style="stroke:#181818;stroke-width:0.5;" x1="2091" x2="2159.2676" y1="39" y2="39"/><line style="stroke:#181818;stroke-width:0.5;" x1="2091" x2="2159.2676" y1="47" y2="47"/></g><!--class Platform--><g class="entity" data-qualified-name="Platform" data-source-line="9" id="ent0021"><rect fill="#F1F1F1" height="48" rx="2.5" ry="2.5" style="stroke:#181818;stroke-width:0.5;" width="91.2881" x="2018.5" y="115"/><ellipse cx="2033.5" cy="131" fill="#ADD1B2" rx="11" ry="11" style="stroke:#181818;stroke-width:1;"/><path d="M2036.4688,136.6406 Q2035.8906,136.9375 2035.25,137.0781 Q2034.6094,137.2344 2033.9063,137.2344 Q2031.4063,137.2344 2030.0781,135.5938 Q2028.7656,133.9375 2028.7656,130.8125 Q2028.7656,127.6875 2030.0781,126.0313 Q2031.4063,124.375 2033.9063,124.375 Q2034.6094,124.375 2035.25,124.5313 Q2035.9063,124.6875 2036.4688,124.9844 L2036.4688,127.7031 Q2035.8438,127.125 2035.25,126.8594 Q2034.6563,126.5781 2034.0313,126.5781 Q2032.6875,126.5781 2032,127.6563 Q2031.3125,128.7188 2031.3125,130.8125 Q2031.3125,132.9063 2032,133.9844 Q2032.6875,135.0469 2034.0313,135.0469 Q2034.6563,135.0469 2035.25,134.7813 Q2035.8438,134.5 2036.4688,133.9219 L2036.4688,136.6406 Z " fill="#000000"/><text fill="#000000" font-family="sans-serif" font-size="14" lengthAdjust="spacing" textLength="59.2881" x="2047.5" y="135.8467">Platform</text><line style="stroke:#181818;stroke-width:0.5;" x1="2019.5" x2="2108.7881" y1="147" y2="147"/><line style="stroke:#181818;stroke-width:0.5;" x1="2019.5" x2="2108.7881" y1="155" y2="155"/></g><!--class System--><g class="entity" data-qualified-name="System" data-source-line="10" id="ent0023"><rect fill="#F1F1F1" height="48" rx="2.5" ry="2.5" style="stroke:#181818;stroke-width:0.5;" width="84.2061" x="2145" y="115"/><ellipse cx="2160" cy="131" fill="#ADD1B2" rx="11" ry="11" style="stroke:#181818;stroke-width:1;"/><path d="M2162.9688,136.6406 Q2162.3906,136.9375 2161.75,137.0781 Q2161.1094,137.2344 2160.4063,137.2344 Q2157.9063,137.2344 2156.5781,135.5938 Q2155.2656,133.9375 2155.2656,130.8125 Q2155.2656,127.6875 2156.5781,126.0313 Q2157.9063,124.375 2160.4063,124.375 Q2161.1094,124.375 2161.75,124.5313 Q2162.4063,124.6875 2162.9688,124.9844 L2162.9688,127.7031 Q2162.3438,127.125 2161.75,126.8594 Q2161.1563,126.5781 2160.5313,126.5781 Q2159.1875,126.5781 2158.5,127.6563 Q2157.8125,128.7188 2157.8125,130.8125 Q2157.8125,132.9063 2158.5,133.9844 Q2159.1875,135.0469 2160.5313,135.0469 Q2161.1563,135.0469 2161.75,134.7813 Q2162.3438,134.5 2162.9688,133.9219 L2162.9688,136.6406 Z " fill="#000000"/><text fill="#000000" font-family="sans-serif" font-size="14" lengthAdjust="spacing" textLength="52.2061" x="2174" y="135.8467">System</text><line style="stroke:#181818;stroke-width:0.5;" x1="2146" x2="2228.2061" y1="147" y2="147"/><line style="stroke:#181818;stroke-width:0.5;" x1="2146" x2="2228.2061" y1="155" y2="155"/></g><!--class Sampler--><g class="entity" data-qualified-name="Sampler" data-source-line="10" id="ent0024"><rect fill="#F1F1F1" height="48" rx="2.5" ry="2.5" style="stroke:#181818;stroke-width:0.5;" width="90.249" x="2016" y="223"/><ellipse cx="2031" cy="239" fill="#ADD1B2" rx="11" ry="11" style="stroke:#181818;stroke-width:1;"/><path d="M2033.9688,244.6406 Q2033.3906,244.9375 2032.75,245.0781 Q2032.1094,245.2344 2031.4063,245.2344 Q2028.9063,245.2344 2027.5781,243.5938 Q2026.2656,241.9375 2026.2656,238.8125 Q2026.2656,235.6875 2027.5781,234.0313 Q2028.9063,232.375 2031.4063,232.375 Q2032.1094,232.375 2032.75,232.5313 Q2033.4063,232.6875 2033.9688,232.9844 L2033.9688,235.7031 Q2033.3438,235.125 2032.75,234.8594 Q2032.1563,234.5781 2031.5313,234.5781 Q2030.1875,234.5781 2029.5,235.6563 Q2028.8125,236.7188 2028.8125,238.8125 Q2028.8125,240.9063 2029.5,241.9844 Q2030.1875,243.0469 2031.5313,243.0469 Q2032.1563,243.0469 2032.75,242.7813 Q2033.3438,242.5 2033.9688,241.9219 L2033.9688,244.6406 Z " fill="#000000"/><text fill="#000000" font-family="sans-serif" font-size="14" lengthAdjust="spacing" textLength="58.249" x="2045" y="243.8467">Sampler</text><line style="stroke:#181818;stroke-width:0.5;" x1="2017" x2="2105.249" y1="255" y2="255"/><line style="stroke:#181818;stroke-width:0.5;" x1="2017" x2="2105.249" y1="263" y2="263"/></g><!--class Actuator--><g class="entity" data-qualified-name="Actuator" data-source-line="11" id="ent0026"><rect fill="#F1F1F1" height="48" rx="2.5" ry="2.5" style="stroke:#181818;stroke-width:0.5;" width="92.0264" x="2141" y="223"/><ellipse cx="2156" cy="239" fill="#ADD1B2" rx="11" ry="11" style="stroke:#181818;stroke-width:1;"/><path d="M2158.9688,244.6406 Q2158.3906,244.9375 2157.75,245.0781 Q2157.1094,245.2344 2156.4063,245.2344 Q2153.9063,245.2344 2152.5781,243.5938 Q2151.2656,241.9375 2151.2656,238.8125 Q2151.2656,235.6875 2152.5781,234.0313 Q2153.9063,232.375 2156.4063,232.375 Q2157.1094,232.375 2157.75,232.5313 Q2158.4063,232.6875 2158.9688,232.9844 L2158.9688,235.7031 Q2158.3438,235.125 2157.75,234.8594 Q2157.1563,234.5781 2156.5313,234.5781 Q2155.1875,234.5781 2154.5,235.6563 Q2153.8125,236.7188 2153.8125,238.8125 Q2153.8125,240.9063 2154.5,241.9844 Q2155.1875,243.0469 2156.5313,243.0469 Q2157.1563,243.0469 2157.75,242.7813 Q2158.3438,242.5 2158.9688,241.9219 L2158.9688,244.6406 Z " fill="#000000"/><text fill="#000000" font-family="sans-serif" font-size="14" lengthAdjust="spacing" textLength="60.0264" x="2170" y="243.8467">Actuator</text><line style="stroke:#181818;stroke-width:0.5;" x1="2142" x2="2232.0264" y1="255" y2="255"/><line style="stroke:#181818;stroke-width:0.5;" x1="2142" x2="2232.0264" y1="263" y2="263"/></g><!--class Execution--><g class="entity" data-qualified-name="Execution" data-source-line="13" id="ent0029"><rect fill="#F1F1F1" height="48" rx="2.5" ry="2.5" style="stroke:#181818;stroke-width:0.5;" width="101.1318" x="2396.5" y="7"/><ellipse cx="2411.5" cy="23" fill="#ADD1B2" rx="11" ry="11" style="stroke:#181818;stroke-width:1;"/><path d="M2414.4688,28.6406 Q2413.8906,28.9375 2413.25,29.0781 Q2412.6094,29.2344 2411.9063,29.2344 Q2409.4063,29.2344 2408.0781,27.5938 Q2406.7656,25.9375 2406.7656,22.8125 Q2406.7656,19.6875 2408.0781,18.0313 Q2409.4063,16.375 2411.9063,16.375 Q2412.6094,16.375 2413.25,16.5313 Q2413.9063,16.6875 2414.4688,16.9844 L2414.4688,19.7031 Q2413.8438,19.125 2413.25,18.8594 Q2412.6563,18.5781 2412.0313,18.5781 Q2410.6875,18.5781 2410,19.6563 Q2409.3125,20.7188 2409.3125,22.8125 Q2409.3125,24.9063 2410,25.9844 Q2410.6875,27.0469 2412.0313,27.0469 Q2412.6563,27.0469 2413.25,26.7813 Q2413.8438,26.5 2414.4688,25.9219 L2414.4688,28.6406 Z " fill="#000000"/><text fill="#000000" font-family="sans-serif" font-size="14" lengthAdjust="spacing" textLength="69.1318" x="2425.5" y="27.8467">Execution</text><line style="stroke:#181818;stroke-width:0.5;" x1="2397.5" x2="2496.6318" y1="39" y2="39"/><line style="stroke:#181818;stroke-width:0.5;" x1="2397.5" x2="2496.6318" y1="47" y2="47"/></g><!--class Sampling--><g class="entity" data-qualified-name="Sampling" data-source-line="13" id="ent0030"><rect fill="#F1F1F1" height="48" rx="2.5" ry="2.5" style="stroke:#181818;stroke-width:0.5;" width="97.5293" x="2264" y="115"/><ellipse cx="2279" cy="131" fill="#ADD1B2" rx="11" ry="11" style="stroke:#181818;stroke-width:1;"/><path d="M2281.9688,136.6406 Q2281.3906,136.9375 2280.75,137.0781 Q2280.1094,137.2344 2279.4063,137.2344 Q2276.9063,137.2344 2275.5781,135.5938 Q2274.2656,133.9375 2274.2656,130.8125 Q2274.2656,127.6875 2275.5781,126.0313 Q2276.9063,124.375 2279.4063,124.375 Q2280.1094,124.375 2280.75,124.5313 Q2281.4063,124.6875 2281.9688,124.9844 L2281.9688,127.7031 Q2281.3438,127.125 2280.75,126.8594 Q2280.1563,126.5781 2279.5313,126.5781 Q2278.1875,126.5781 2277.5,127.6563 Q2276.8125,128.7188 2276.8125,130.8125 Q2276.8125,132.9063 2277.5,133.9844 Q2278.1875,135.0469 2279.5313,135.0469 Q2280.1563,135.0469 2280.75,134.7813 Q2281.3438,134.5 2281.9688,133.9219 L2281.9688,136.6406 Z " fill="#000000"/><text fill="#000000" font-family="sans-serif" font-size="14" lengthAdjust="spacing" textLength="65.5293" x="2293" y="135.8467">Sampling</text><line style="stroke:#181818;stroke-width:0.5;" x1="2265" x2="2360.5293" y1="147" y2="147"/><line style="stroke:#181818;stroke-width:0.5;" x1="2265" x2="2360.5293" y1="155" y2="155"/></g><!--class ExecutionCollection--><g class="entity" data-qualified-name="ExecutionCollection" data-source-line="14" id="ent0032"><rect fill="#F1F1F1" height="48" rx="2.5" ry="2.5" style="stroke:#181818;stroke-width:0.5;" width="170.3799" x="2884" y="7"/><ellipse cx="2899" cy="23" fill="#ADD1B2" rx="11" ry="11" style="stroke:#181818;stroke-width:1;"/><path d="M2901.9688,28.6406 Q2901.3906,28.9375 2900.75,29.0781 Q2900.1094,29.2344 2899.4063,29.2344 Q2896.9063,29.2344 2895.5781,27.5938 Q2894.2656,25.9375 2894.2656,22.8125 Q2894.2656,19.6875 2895.5781,18.0313 Q2896.9063,16.375 2899.4063,16.375 Q2900.1094,16.375 2900.75,16.5313 Q2901.4063,16.6875 2901.9688,16.9844 L2901.9688,19.7031 Q2901.3438,19.125 2900.75,18.8594 Q2900.1563,18.5781 2899.5313,18.5781 Q2898.1875,18.5781 2897.5,19.6563 Q2896.8125,20.7188 2896.8125,22.8125 Q2896.8125,24.9063 2897.5,25.9844 Q2898.1875,27.0469 2899.5313,27.0469 Q2900.1563,27.0469 2900.75,26.7813 Q2901.3438,26.5 2901.9688,25.9219 L2901.9688,28.6406 Z " fill="#000000"/><text fill="#000000" font-family="sans-serif" font-size="14" lengthAdjust="spacing" textLength="138.3799" x="2913" y="27.8467">ExecutionCollection</text><line style="stroke:#181818;stroke-width:0.5;" x1="2885" x2="3053.3799" y1="39" y2="39"/><line style="stroke:#181818;stroke-width:0.5;" x1="2885" x2="3053.3799" y1="47" y2="47"/></g><!--class SamplingCollection--><g class="entity" data-qualified-name="SamplingCollection" data-source-line="14" id="ent0033"><rect fill="#F1F1F1" height="48" rx="2.5" ry="2.5" style="stroke:#181818;stroke-width:0.5;" width="166.7773" x="2683.5" y="115"/><ellipse cx="2698.5" cy="131" fill="#ADD1B2" rx="11" ry="11" style="stroke:#181818;stroke-width:1;"/><path d="M2701.4688,136.6406 Q2700.8906,136.9375 2700.25,137.0781 Q2699.6094,137.2344 2698.9063,137.2344 Q2696.4063,137.2344 2695.0781,135.5938 Q2693.7656,133.9375 2693.7656,130.8125 Q2693.7656,127.6875 2695.0781,126.0313 Q2696.4063,124.375 2698.9063,124.375 Q2699.6094,124.375 2700.25,124.5313 Q2700.9063,124.6875 2701.4688,124.9844 L2701.4688,127.7031 Q2700.8438,127.125 2700.25,126.8594 Q2699.6563,126.5781 2699.0313,126.5781 Q2697.6875,126.5781 2697,127.6563 Q2696.3125,128.7188 2696.3125,130.8125 Q2696.3125,132.9063 2697,133.9844 Q2697.6875,135.0469 2699.0313,135.0469 Q2699.6563,135.0469 2700.25,134.7813 Q2700.8438,134.5 2701.4688,133.9219 L2701.4688,136.6406 Z " fill="#000000"/><text fill="#000000" font-family="sans-serif" font-size="14" lengthAdjust="spacing" textLength="134.7773" x="2712.5" y="135.8467">SamplingCollection</text><line style="stroke:#181818;stroke-width:0.5;" x1="2684.5" x2="2849.2773" y1="147" y2="147"/><line style="stroke:#181818;stroke-width:0.5;" x1="2684.5" x2="2849.2773" y1="155" y2="155"/></g><!--class Actuation--><g class="entity" data-qualified-name="Actuation" data-source-line="15" id="ent0035"><rect fill="#F1F1F1" height="48" rx="2.5" ry="2.5" style="stroke:#181818;stroke-width:0.5;" width="99.0332" x="2397.5" y="115"/><ellipse cx="2412.5" cy="131" fill="#ADD1B2" rx="11" ry="11" style="stroke:#181818;stroke-width:1;"/><path d="M2415.4688,136.6406 Q2414.8906,136.9375 2414.25,137.0781 Q2413.6094,137.2344 2412.9063,137.2344 Q2410.4063,137.2344 2409.0781,135.5938 Q2407.7656,133.9375 2407.7656,130.8125 Q2407.7656,127.6875 2409.0781,126.0313 Q2410.4063,124.375 2412.9063,124.375 Q2413.6094,124.375 2414.25,124.5313 Q2414.9063,124.6875 2415.4688,124.9844 L2415.4688,127.7031 Q2414.8438,127.125 2414.25,126.8594 Q2413.6563,126.5781 2413.0313,126.5781 Q2411.6875,126.5781 2411,127.6563 Q2410.3125,128.7188 2410.3125,130.8125 Q2410.3125,132.9063 2411,133.9844 Q2411.6875,135.0469 2413.0313,135.0469 Q2413.6563,135.0469 2414.25,134.7813 Q2414.8438,134.5 2415.4688,133.9219 L2415.4688,136.6406 Z " fill="#000000"/><text fill="#000000" font-family="sans-serif" font-size="14" lengthAdjust="spacing" textLength="67.0332" x="2426.5" y="135.8467">Actuation</text><line style="stroke:#181818;stroke-width:0.5;" x1="2398.5" x2="2495.5332" y1="147" y2="147"/><line style="stroke:#181818;stroke-width:0.5;" x1="2398.5" x2="2495.5332" y1="155" y2="155"/></g><!--class Sensor--><g class="entity" data-qualified-name="Sensor" data-source-line="16" id="ent0037"><rect fill="#F1F1F1" height="48" rx="2.5" ry="2.5" style="stroke:#181818;stroke-width:0.5;" width="79.9883" x="2268" y="223"/><ellipse cx="2283" cy="239" fill="#ADD1B2" rx="11" ry="11" style="stroke:#181818;stroke-width:1;"/><path d="M2285.9688,244.6406 Q2285.3906,244.9375 2284.75,245.0781 Q2284.1094,245.2344 2283.4063,245.2344 Q2280.9063,245.2344 2279.5781,243.5938 Q2278.2656,241.9375 2278.2656,238.8125 Q2278.2656,235.6875 2279.5781,234.0313 Q2280.9063,232.375 2283.4063,232.375 Q2284.1094,232.375 2284.75,232.5313 Q2285.4063,232.6875 2285.9688,232.9844 L2285.9688,235.7031 Q2285.3438,235.125 2284.75,234.8594 Q2284.1563,234.5781 2283.5313,234.5781 Q2282.1875,234.5781 2281.5,235.6563 Q2280.8125,236.7188 2280.8125,238.8125 Q2280.8125,240.9063 2281.5,241.9844 Q2282.1875,243.0469 2283.5313,243.0469 Q2284.1563,243.0469 2284.75,242.7813 Q2285.3438,242.5 2285.9688,241.9219 L2285.9688,244.6406 Z " fill="#000000"/><text fill="#000000" font-family="sans-serif" font-size="14" lengthAdjust="spacing" textLength="47.9883" x="2297" y="243.8467">Sensor</text><line style="stroke:#181818;stroke-width:0.5;" x1="2269" x2="2346.9883" y1="255" y2="255"/><line style="stroke:#181818;stroke-width:0.5;" x1="2269" x2="2346.9883" y1="263" y2="263"/></g><!--class ActuationCollection--><g class="entity" data-qualified-name="ActuationCollection" data-source-line="17" id="ent0039"><rect fill="#F1F1F1" height="48" rx="2.5" ry="2.5" style="stroke:#181818;stroke-width:0.5;" width="168.2813" x="2885" y="115"/><ellipse cx="2900" cy="131" fill="#ADD1B2" rx="11" ry="11" style="stroke:#181818;stroke-width:1;"/><path d="M2902.9688,136.6406 Q2902.3906,136.9375 2901.75,137.0781 Q2901.1094,137.2344 2900.4063,137.2344 Q2897.9063,137.2344 2896.5781,135.5938 Q2895.2656,133.9375 2895.2656,130.8125 Q2895.2656,127.6875 2896.5781,126.0313 Q2897.9063,124.375 2900.4063,124.375 Q2901.1094,124.375 2901.75,124.5313 Q2902.4063,124.6875 2902.9688,124.9844 L2902.9688,127.7031 Q2902.3438,127.125 2901.75,126.8594 Q2901.1563,126.5781 2900.5313,126.5781 Q2899.1875,126.5781 2898.5,127.6563 Q2897.8125,128.7188 2897.8125,130.8125 Q2897.8125,132.9063 2898.5,133.9844 Q2899.1875,135.0469 2900.5313,135.0469 Q2901.1563,135.0469 2901.75,134.7813 Q2902.3438,134.5 2902.9688,133.9219 L2902.9688,136.6406 Z " fill="#000000"/><text fill="#000000" font-family="sans-serif" font-size="14" lengthAdjust="spacing" textLength="136.2813" x="2914" y="135.8467">ActuationCollection</text><line style="stroke:#181818;stroke-width:0.5;" x1="2886" x2="3052.2813" y1="147" y2="147"/><line style="stroke:#181818;stroke-width:0.5;" x1="2886" x2="3052.2813" y1="155" y2="155"/></g><!--class ObservationCollection--><g class="entity" data-qualified-name="ObservationCollection" data-source-line="18" id="ent0041"><rect fill="#F1F1F1" height="48" rx="2.5" ry="2.5" style="stroke:#181818;stroke-width:0.5;" width="186.499" x="3088" y="115"/><ellipse cx="3103" cy="131" fill="#ADD1B2" rx="11" ry="11" style="stroke:#181818;stroke-width:1;"/><path d="M3105.9688,136.6406 Q3105.3906,136.9375 3104.75,137.0781 Q3104.1094,137.2344 3103.4063,137.2344 Q3100.9063,137.2344 3099.5781,135.5938 Q3098.2656,133.9375 3098.2656,130.8125 Q3098.2656,127.6875 3099.5781,126.0313 Q3100.9063,124.375 3103.4063,124.375 Q3104.1094,124.375 3104.75,124.5313 Q3105.4063,124.6875 3105.9688,124.9844 L3105.9688,127.7031 Q3105.3438,127.125 3104.75,126.8594 Q3104.1563,126.5781 3103.5313,126.5781 Q3102.1875,126.5781 3101.5,127.6563 Q3100.8125,128.7188 3100.8125,130.8125 Q3100.8125,132.9063 3101.5,133.9844 Q3102.1875,135.0469 3103.5313,135.0469 Q3104.1563,135.0469 3104.75,134.7813 Q3105.3438,134.5 3105.9688,133.9219 L3105.9688,136.6406 Z " fill="#000000"/><text fill="#000000" font-family="sans-serif" font-size="14" lengthAdjust="spacing" textLength="154.499" x="3117" y="135.8467">ObservationCollection</text><line style="stroke:#181818;stroke-width:0.5;" x1="3089" x2="3273.499" y1="147" y2="147"/><line style="stroke:#181818;stroke-width:0.5;" x1="3089" x2="3273.499" y1="155" y2="155"/></g><!--class Observation--><g class="entity" data-qualified-name="Observation" data-source-line="19" id="ent0043"><rect fill="#F1F1F1" height="48" rx="2.5" ry="2.5" style="stroke:#181818;stroke-width:0.5;" width="117.251" x="2531.5" y="115"/><ellipse cx="2546.5" cy="131" fill="#ADD1B2" rx="11" ry="11" style="stroke:#181818;stroke-width:1;"/><path d="M2549.4688,136.6406 Q2548.8906,136.9375 2548.25,137.0781 Q2547.6094,137.2344 2546.9063,137.2344 Q2544.4063,137.2344 2543.0781,135.5938 Q2541.7656,133.9375 2541.7656,130.8125 Q2541.7656,127.6875 2543.0781,126.0313 Q2544.4063,124.375 2546.9063,124.375 Q2547.6094,124.375 2548.25,124.5313 Q2548.9063,124.6875 2549.4688,124.9844 L2549.4688,127.7031 Q2548.8438,127.125 2548.25,126.8594 Q2547.6563,126.5781 2547.0313,126.5781 Q2545.6875,126.5781 2545,127.6563 Q2544.3125,128.7188 2544.3125,130.8125 Q2544.3125,132.9063 2545,133.9844 Q2545.6875,135.0469 2547.0313,135.0469 Q2547.6563,135.0469 2548.25,134.7813 Q2548.8438,134.5 2549.4688,133.9219 L2549.4688,136.6406 Z " fill="#000000"/><text fill="#000000" font-family="sans-serif" font-size="14" lengthAdjust="spacing" textLength="85.251" x="2560.5" y="135.8467">Observation</text><line style="stroke:#181818;stroke-width:0.5;" x1="2532.5" x2="2647.751" y1="147" y2="147"/><line style="stroke:#181818;stroke-width:0.5;" x1="2532.5" x2="2647.751" y1="155" y2="155"/></g><!--class FeatureOfInterest--><g class="entity" data-qualified-name="FeatureOfInterest" data-source-line="20" id="ent0045"><rect fill="#F1F1F1" height="48" rx="2.5" ry="2.5" style="stroke:#181818;stroke-width:0.5;" width="156.1816" x="7" y="7"/><ellipse cx="22" cy="23" fill="#ADD1B2" rx="11" ry="11" style="stroke:#181818;stroke-width:1;"/><path d="M24.9688,28.6406 Q24.3906,28.9375 23.75,29.0781 Q23.1094,29.2344 22.4063,29.2344 Q19.9063,29.2344 18.5781,27.5938 Q17.2656,25.9375 17.2656,22.8125 Q17.2656,19.6875 18.5781,18.0313 Q19.9063,16.375 22.4063,16.375 Q23.1094,16.375 23.75,16.5313 Q24.4063,16.6875 24.9688,16.9844 L24.9688,19.7031 Q24.3438,19.125 23.75,18.8594 Q23.1563,18.5781 22.5313,18.5781 Q21.1875,18.5781 20.5,19.6563 Q19.8125,20.7188 19.8125,22.8125 Q19.8125,24.9063 20.5,25.9844 Q21.1875,27.0469 22.5313,27.0469 Q23.1563,27.0469 23.75,26.7813 Q24.3438,26.5 24.9688,25.9219 L24.9688,28.6406 Z " fill="#000000"/><text fill="#000000" font-family="sans-serif" font-size="14" lengthAdjust="spacing" textLength="124.1816" x="36" y="27.8467">FeatureOfInterest</text><line style="stroke:#181818;stroke-width:0.5;" x1="8" x2="162.1816" y1="39" y2="39"/><line style="stroke:#181818;stroke-width:0.5;" x1="8" x2="162.1816" y1="47" y2="47"/></g><!--class Deployment--><g class="entity" data-qualified-name="Deployment" data-source-line="21" id="ent0046"><rect fill="#F1F1F1" height="48" rx="2.5" ry="2.5" style="stroke:#181818;stroke-width:0.5;" width="117.6338" x="198" y="7"/><ellipse cx="213" cy="23" fill="#ADD1B2" rx="11" ry="11" style="stroke:#181818;stroke-width:1;"/><path d="M215.9688,28.6406 Q215.3906,28.9375 214.75,29.0781 Q214.1094,29.2344 213.4063,29.2344 Q210.9063,29.2344 209.5781,27.5938 Q208.2656,25.9375 208.2656,22.8125 Q208.2656,19.6875 209.5781,18.0313 Q210.9063,16.375 213.4063,16.375 Q214.1094,16.375 214.75,16.5313 Q215.4063,16.6875 215.9688,16.9844 L215.9688,19.7031 Q215.3438,19.125 214.75,18.8594 Q214.1563,18.5781 213.5313,18.5781 Q212.1875,18.5781 211.5,19.6563 Q210.8125,20.7188 210.8125,22.8125 Q210.8125,24.9063 211.5,25.9844 Q212.1875,27.0469 213.5313,27.0469 Q214.1563,27.0469 214.75,26.7813 Q215.3438,26.5 215.9688,25.9219 L215.9688,28.6406 Z " fill="#000000"/><text fill="#000000" font-family="sans-serif" font-size="14" lengthAdjust="spacing" textLength="85.6338" x="227" y="27.8467">Deployment</text><line style="stroke:#181818;stroke-width:0.5;" x1="199" x2="314.6338" y1="39" y2="39"/><line style="stroke:#181818;stroke-width:0.5;" x1="199" x2="314.6338" y1="47" y2="47"/></g><!--class Stimulus--><g class="entity" data-qualified-name="Stimulus" data-source-line="23" id="ent0047"><rect fill="#F1F1F1" height="48" rx="2.5" ry="2.5" style="stroke:#181818;stroke-width:0.5;" width="92.833" x="351.5" y="7"/><ellipse cx="366.5" cy="23" fill="#ADD1B2" rx="11" ry="11" style="stroke:#181818;stroke-width:1;"/><path d="M369.4688,28.6406 Q368.8906,28.9375 368.25,29.0781 Q367.6094,29.2344 366.9063,29.2344 Q364.4063,29.2344 363.0781,27.5938 Q361.7656,25.9375 361.7656,22.8125 Q361.7656,19.6875 363.0781,18.0313 Q364.4063,16.375 366.9063,16.375 Q367.6094,16.375 368.25,16.5313 Q368.9063,16.6875 369.4688,16.9844 L369.4688,19.7031 Q368.8438,19.125 368.25,18.8594 Q367.6563,18.5781 367.0313,18.5781 Q365.6875,18.5781 365,19.6563 Q364.3125,20.7188 364.3125,22.8125 Q364.3125,24.9063 365,25.9844 Q365.6875,27.0469 367.0313,27.0469 Q367.6563,27.0469 368.25,26.7813 Q368.8438,26.5 369.4688,25.9219 L369.4688,28.6406 Z " fill="#000000"/><text fill="#000000" font-family="sans-serif" font-size="14" lengthAdjust="spacing" textLength="60.833" x="380.5" y="27.8467">Stimulus</text><line style="stroke:#181818;stroke-width:0.5;" x1="352.5" x2="443.333" y1="39" y2="39"/><line style="stroke:#181818;stroke-width:0.5;" x1="352.5" x2="443.333" y1="47" y2="47"/></g><!--class Input--><g class="entity" data-qualified-name="Input" data-source-line="24" id="ent0048"><rect fill="#F1F1F1" height="48" rx="2.5" ry="2.5" style="stroke:#181818;stroke-width:0.5;" width="68.251" x="51" y="115"/><ellipse cx="66" cy="131" fill="#ADD1B2" rx="11" ry="11" style="stroke:#181818;stroke-width:1;"/><path d="M68.9688,136.6406 Q68.3906,136.9375 67.75,137.0781 Q67.1094,137.2344 66.4063,137.2344 Q63.9063,137.2344 62.5781,135.5938 Q61.2656,133.9375 61.2656,130.8125 Q61.2656,127.6875 62.5781,126.0313 Q63.9063,124.375 66.4063,124.375 Q67.1094,124.375 67.75,124.5313 Q68.4063,124.6875 68.9688,124.9844 L68.9688,127.7031 Q68.3438,127.125 67.75,126.8594 Q67.1563,126.5781 66.5313,126.5781 Q65.1875,126.5781 64.5,127.6563 Q63.8125,128.7188 63.8125,130.8125 Q63.8125,132.9063 64.5,133.9844 Q65.1875,135.0469 66.5313,135.0469 Q67.1563,135.0469 67.75,134.7813 Q68.3438,134.5 68.9688,133.9219 L68.9688,136.6406 Z " fill="#000000"/><text fill="#000000" font-family="sans-serif" font-size="14" lengthAdjust="spacing" textLength="36.251" x="80" y="135.8467">Input</text><line style="stroke:#181818;stroke-width:0.5;" x1="52" x2="118.251" y1="147" y2="147"/><line style="stroke:#181818;stroke-width:0.5;" x1="52" x2="118.251" y1="155" y2="155"/></g><!--class SampleCollection--><g class="entity" data-qualified-name="SampleCollection" data-source-line="25" id="ent0049"><rect fill="#F1F1F1" height="48" rx="2.5" ry="2.5" style="stroke:#181818;stroke-width:0.5;" width="153.7412" x="154" y="115"/><ellipse cx="169" cy="131" fill="#ADD1B2" rx="11" ry="11" style="stroke:#181818;stroke-width:1;"/><path d="M171.9688,136.6406 Q171.3906,136.9375 170.75,137.0781 Q170.1094,137.2344 169.4063,137.2344 Q166.9063,137.2344 165.5781,135.5938 Q164.2656,133.9375 164.2656,130.8125 Q164.2656,127.6875 165.5781,126.0313 Q166.9063,124.375 169.4063,124.375 Q170.1094,124.375 170.75,124.5313 Q171.4063,124.6875 171.9688,124.9844 L171.9688,127.7031 Q171.3438,127.125 170.75,126.8594 Q170.1563,126.5781 169.5313,126.5781 Q168.1875,126.5781 167.5,127.6563 Q166.8125,128.7188 166.8125,130.8125 Q166.8125,132.9063 167.5,133.9844 Q168.1875,135.0469 169.5313,135.0469 Q170.1563,135.0469 170.75,134.7813 Q171.3438,134.5 171.9688,133.9219 L171.9688,136.6406 Z " fill="#000000"/><text fill="#000000" font-family="sans-serif" font-size="14" lengthAdjust="spacing" textLength="121.7412" x="183" y="135.8467">SampleCollection</text><line style="stroke:#181818;stroke-width:0.5;" x1="155" x2="306.7412" y1="147" y2="147"/><line style="stroke:#181818;stroke-width:0.5;" x1="155" x2="306.7412" y1="155" y2="155"/></g><!--class Result--><g class="entity" data-qualified-name="Result" data-source-line="27" id="ent0050"><rect fill="#F1F1F1" height="48" rx="2.5" ry="2.5" style="stroke:#181818;stroke-width:0.5;" width="75.8867" x="343" y="115"/><ellipse cx="358" cy="131" fill="#ADD1B2" rx="11" ry="11" style="stroke:#181818;stroke-width:1;"/><path d="M360.9688,136.6406 Q360.3906,136.9375 359.75,137.0781 Q359.1094,137.2344 358.4063,137.2344 Q355.9063,137.2344 354.5781,135.5938 Q353.2656,133.9375 353.2656,130.8125 Q353.2656,127.6875 354.5781,126.0313 Q355.9063,124.375 358.4063,124.375 Q359.1094,124.375 359.75,124.5313 Q360.4063,124.6875 360.9688,124.9844 L360.9688,127.7031 Q360.3438,127.125 359.75,126.8594 Q359.1563,126.5781 358.5313,126.5781 Q357.1875,126.5781 356.5,127.6563 Q355.8125,128.7188 355.8125,130.8125 Q355.8125,132.9063 356.5,133.9844 Q357.1875,135.0469 358.5313,135.0469 Q359.1563,135.0469 359.75,134.7813 Q360.3438,134.5 360.9688,133.9219 L360.9688,136.6406 Z " fill="#000000"/><text fill="#000000" font-family="sans-serif" font-size="14" lengthAdjust="spacing" textLength="43.8867" x="372" y="135.8467">Result</text><line style="stroke:#181818;stroke-width:0.5;" x1="344" x2="417.8867" y1="147" y2="147"/><line style="stroke:#181818;stroke-width:0.5;" x1="344" x2="417.8867" y1="155" y2="155"/></g><!--class Output--><g class="entity" data-qualified-name="Output" data-source-line="29" id="ent0051"><rect fill="#F1F1F1" height="48" rx="2.5" ry="2.5" style="stroke:#181818;stroke-width:0.5;" width="80.6309" x="44.5" y="223"/><ellipse cx="59.5" cy="239" fill="#ADD1B2" rx="11" ry="11" style="stroke:#181818;stroke-width:1;"/><path d="M62.4688,244.6406 Q61.8906,244.9375 61.25,245.0781 Q60.6094,245.2344 59.9063,245.2344 Q57.4063,245.2344 56.0781,243.5938 Q54.7656,241.9375 54.7656,238.8125 Q54.7656,235.6875 56.0781,234.0313 Q57.4063,232.375 59.9063,232.375 Q60.6094,232.375 61.25,232.5313 Q61.9063,232.6875 62.4688,232.9844 L62.4688,235.7031 Q61.8438,235.125 61.25,234.8594 Q60.6563,234.5781 60.0313,234.5781 Q58.6875,234.5781 58,235.6563 Q57.3125,236.7188 57.3125,238.8125 Q57.3125,240.9063 58,241.9844 Q58.6875,243.0469 60.0313,243.0469 Q60.6563,243.0469 61.25,242.7813 Q61.8438,242.5 62.4688,241.9219 L62.4688,244.6406 Z " fill="#000000"/><text fill="#000000" font-family="sans-serif" font-size="14" lengthAdjust="spacing" textLength="48.6309" x="73.5" y="243.8467">Output</text><line style="stroke:#181818;stroke-width:0.5;" x1="45.5" x2="124.1309" y1="255" y2="255"/><line style="stroke:#181818;stroke-width:0.5;" x1="45.5" x2="124.1309" y1="263" y2="263"/></g><!--reverse link Property to ActuatableProperty--><g class="link" data-entity-1="ent0001" data-entity-2="ent0002" data-link-type="extension" data-source-line="1" id="lnk3"><path codeLine="1" d="M605.3905,67.9716 C588.4005,85.6316 577.51,96.94 560.44,114.68" fill="none" id="Property-backto-ActuatableProperty" style="stroke:#181818;stroke-width:1;"/><polygon fill="none" points="617.87,55,601.0667,63.8118,609.7144,72.1314,617.87,55" style="stroke:#181818;stroke-width:1;stroke-linejoin:miter;stroke-miterlimit:10;"/></g><!--reverse link Sample to MaterialSample--><g class="link" data-entity-1="ent0004" data-entity-2="ent0005" data-link-type="extension" data-source-line="2" id="lnk6"><path codeLine="2" d="M1054.3567,64.4445 C1025.6067,82.1645 1001.35,97.11 972.55,114.86" fill="none" id="Sample-backto-MaterialSample" style="stroke:#181818;stroke-width:1;"/><polygon fill="none" points="1069.68,55,1051.2086,59.3367,1057.5049,69.5522,1069.68,55" style="stroke:#181818;stroke-width:1;stroke-linejoin:miter;stroke-miterlimit:10;"/></g><!--reverse link Sample to SpatialSample--><g class="link" data-entity-1="ent0004" data-entity-2="ent0007" data-link-type="extension" data-source-line="3" id="lnk8"><path codeLine="3" d="M1107,73 C1107,90.66 1107,96.94 1107,114.68" fill="none" id="Sample-backto-SpatialSample" style="stroke:#181818;stroke-width:1;"/><polygon fill="none" points="1107,55,1101,73,1113,73,1107,55" style="stroke:#181818;stroke-width:1;stroke-linejoin:miter;stroke-miterlimit:10;"/></g><!--reverse link Sample to StatisticalSample--><g class="link" data-entity-1="ent0004" data-entity-2="ent0009" data-link-type="extension" data-source-line="4" id="lnk10"><path codeLine="4" d="M1161.3276,64.1725 C1191.2476,81.8925 1216.95,97.11 1246.93,114.86" fill="none" id="Sample-backto-StatisticalSample" style="stroke:#181818;stroke-width:1;"/><polygon fill="none" points="1145.84,55,1158.2701,69.335,1164.3851,59.0099,1145.84,55" style="stroke:#181818;stroke-width:1;stroke-linejoin:miter;stroke-miterlimit:10;"/></g><!--reverse link Property to ObservableProperty--><g class="link" data-entity-1="ent0001" data-entity-2="ent0011" data-link-type="extension" data-source-line="5" id="lnk12"><path codeLine="5" d="M674.8939,67.9094 C692.0539,85.5694 703.1,96.94 720.34,114.68" fill="none" id="Property-backto-ObservableProperty" style="stroke:#181818;stroke-width:1;"/><polygon fill="none" points="662.35,55,670.5907,72.0906,679.197,63.7281,662.35,55" style="stroke:#181818;stroke-width:1;stroke-linejoin:miter;stroke-miterlimit:10;"/></g><!--reverse link Procedure to ActuatingProcedure--><g class="link" data-entity-1="ent0013" data-entity-2="ent0014" data-link-type="extension" data-source-line="6" id="lnk15"><path codeLine="6" d="M1630.8326,63.1732 C1596.0626,80.8932 1564.24,97.11 1529.4,114.86" fill="none" id="Procedure-backto-ActuatingProcedure" style="stroke:#181818;stroke-width:1;"/><polygon fill="none" points="1646.87,55,1628.1082,57.8274,1633.557,68.519,1646.87,55" style="stroke:#181818;stroke-width:1;stroke-linejoin:miter;stroke-miterlimit:10;"/></g><!--reverse link Procedure to ObservingProcedure--><g class="link" data-entity-1="ent0013" data-entity-2="ent0016" data-link-type="extension" data-source-line="7" id="lnk17"><path codeLine="7" d="M1692,73 C1692,90.66 1692,96.94 1692,114.68" fill="none" id="Procedure-backto-ObservingProcedure" style="stroke:#181818;stroke-width:1;"/><polygon fill="none" points="1692,55,1686,73,1698,73,1692,55" style="stroke:#181818;stroke-width:1;stroke-linejoin:miter;stroke-miterlimit:10;"/></g><!--reverse link Procedure to SamplingProcedure--><g class="link" data-entity-1="ent0013" data-entity-2="ent0018" data-link-type="extension" data-source-line="8" id="lnk19"><path codeLine="8" d="M1752.9411,63.205 C1787.5411,80.925 1819.15,97.11 1853.81,114.86" fill="none" id="Procedure-backto-SamplingProcedure" style="stroke:#181818;stroke-width:1;"/><polygon fill="none" points="1736.92,55,1750.2061,68.5454,1755.6762,57.8647,1736.92,55" style="stroke:#181818;stroke-width:1;stroke-linejoin:miter;stroke-miterlimit:10;"/></g><!--reverse link Asset to Platform--><g class="link" data-entity-1="ent0020" data-entity-2="ent0021" data-link-type="extension" data-source-line="9" id="lnk22"><path codeLine="9" d="M2102.7839,70.6022 C2092.6239,88.2622 2087.63,96.94 2077.42,114.68" fill="none" id="Asset-backto-Platform" style="stroke:#181818;stroke-width:1;"/><polygon fill="none" points="2111.76,55,2097.5831,67.6102,2107.9846,73.5943,2111.76,55" style="stroke:#181818;stroke-width:1;stroke-linejoin:miter;stroke-miterlimit:10;"/></g><!--reverse link System to Sampler--><g class="link" data-entity-1="ent0023" data-entity-2="ent0024" data-link-type="extension" data-source-line="10" id="lnk25"><path codeLine="10" d="M2145.8865,174.5884 C2124.8965,192.2484 2109.81,204.94 2088.72,222.68" fill="none" id="System-backto-Sampler" style="stroke:#181818;stroke-width:1;"/><polygon fill="none" points="2159.66,163,2142.0237,169.9972,2149.7493,179.1795,2159.66,163" style="stroke:#181818;stroke-width:1;stroke-linejoin:miter;stroke-miterlimit:10;"/></g><!--reverse link System to Actuator--><g class="link" data-entity-1="ent0023" data-entity-2="ent0026" data-link-type="extension" data-source-line="11" id="lnk27"><path codeLine="11" d="M2187,181 C2187,198.66 2187,204.94 2187,222.68" fill="none" id="System-backto-Actuator" style="stroke:#181818;stroke-width:1;"/><polygon fill="none" points="2187,163,2181,181,2193,181,2187,163" style="stroke:#181818;stroke-width:1;stroke-linejoin:miter;stroke-miterlimit:10;"/></g><!--reverse link Asset to System--><g class="link" data-entity-1="ent0020" data-entity-2="ent0023" data-link-type="extension" data-source-line="12" id="lnk28"><path codeLine="12" d="M2147.5383,70.5372 C2157.8683,88.1972 2162.98,96.94 2173.36,114.68" fill="none" id="Asset-backto-System" style="stroke:#181818;stroke-width:1;"/><polygon fill="none" points="2138.45,55,2142.3592,73.5666,2152.7173,67.5077,2138.45,55" style="stroke:#181818;stroke-width:1;stroke-linejoin:miter;stroke-miterlimit:10;"/></g><!--reverse link Execution to Sampling--><g class="link" data-entity-1="ent0029" data-entity-2="ent0030" data-link-type="extension" data-source-line="13" id="lnk31"><path codeLine="13" d="M2403.8041,66.1688 C2381.4841,83.8288 2364.91,96.94 2342.48,114.68" fill="none" id="Execution-backto-Sampling" style="stroke:#181818;stroke-width:1;"/><polygon fill="none" points="2417.92,55,2400.0812,61.4635,2407.527,70.8741,2417.92,55" style="stroke:#181818;stroke-width:1;stroke-linejoin:miter;stroke-miterlimit:10;"/></g><!--reverse link ExecutionCollection to SamplingCollection--><g class="link" data-entity-1="ent0032" data-entity-2="ent0033" data-link-type="extension" data-source-line="14" id="lnk34"><path codeLine="14" d="M2909.231,63.3636 C2875.461,81.0836 2844.93,97.11 2811.09,114.86" fill="none" id="ExecutionCollection-backto-SamplingCollection" style="stroke:#181818;stroke-width:1;"/><polygon fill="none" points="2925.17,55,2906.4432,58.0506,2912.0189,68.6766,2925.17,55" style="stroke:#181818;stroke-width:1;stroke-linejoin:miter;stroke-miterlimit:10;"/></g><!--reverse link Execution to Actuation--><g class="link" data-entity-1="ent0029" data-entity-2="ent0035" data-link-type="extension" data-source-line="15" id="lnk36"><path codeLine="15" d="M2447,73 C2447,90.66 2447,96.94 2447,114.68" fill="none" id="Execution-backto-Actuation" style="stroke:#181818;stroke-width:1;"/><polygon fill="none" points="2447,55,2441,73,2453,73,2447,55" style="stroke:#181818;stroke-width:1;stroke-linejoin:miter;stroke-miterlimit:10;"/></g><!--reverse link System to Sensor--><g class="link" data-entity-1="ent0023" data-entity-2="ent0037" data-link-type="extension" data-source-line="16" id="lnk38"><path codeLine="16" d="M2226.7968,174.864 C2246.9468,192.524 2261.13,204.94 2281.38,222.68" fill="none" id="System-backto-Sensor" style="stroke:#181818;stroke-width:1;"/><polygon fill="none" points="2213.26,163,2222.8421,179.3763,2230.7515,170.3518,2213.26,163" style="stroke:#181818;stroke-width:1;stroke-linejoin:miter;stroke-miterlimit:10;"/></g><!--reverse link ExecutionCollection to ActuationCollection--><g class="link" data-entity-1="ent0032" data-entity-2="ent0039" data-link-type="extension" data-source-line="17" id="lnk40"><path codeLine="17" d="M2969,73 C2969,90.66 2969,96.94 2969,114.68" fill="none" id="ExecutionCollection-backto-ActuationCollection" style="stroke:#181818;stroke-width:1;"/><polygon fill="none" points="2969,55,2963,73,2975,73,2969,55" style="stroke:#181818;stroke-width:1;stroke-linejoin:miter;stroke-miterlimit:10;"/></g><!--reverse link ExecutionCollection to ObservationCollection--><g class="link" data-entity-1="ent0032" data-entity-2="ent0041" data-link-type="extension" data-source-line="18" id="lnk42"><path codeLine="18" d="M3031.0997,63.0498 C3066.5397,80.7698 3099.22,97.11 3134.72,114.86" fill="none" id="ExecutionCollection-backto-ObservationCollection" style="stroke:#181818;stroke-width:1;"/><polygon fill="none" points="3015,55,3028.4164,68.4164,3033.783,57.6833,3015,55" style="stroke:#181818;stroke-width:1;stroke-linejoin:miter;stroke-miterlimit:10;"/></g><!--reverse link Execution to Observation--><g class="link" data-entity-1="ent0029" data-entity-2="ent0043" data-link-type="extension" data-source-line="19" id="lnk44"><path codeLine="19" d="M2492.4895,65.7202 C2516.3095,83.3802 2534.61,96.94 2558.54,114.68" fill="none" id="Execution-backto-Observation" style="stroke:#181818;stroke-width:1;"/><polygon fill="none" points="2478.03,55,2488.9161,70.54,2496.0629,60.9004,2478.03,55" style="stroke:#181818;stroke-width:1;stroke-linejoin:miter;stroke-miterlimit:10;"/></g><?plantuml-src VL9RQiCm4FptANo1tA0_eG_8Hx6fJw2eco9OFT2kGWqzV4LMA99JzyyxCpipNZH77o3oEZxz70xZKNDIhCu8Sy67HTc08FIxOeX6eM0TjGJ5EmndXjZeoivTvdGcYDSkCtze-4mHsbR6VLLygn2F_nItw4vm908MSaR55n_jiAp4O9iDY1qcJNnibuKVNhz19pRUzNbt_DaZWdvKtF6jH_dlJ7Izm55kiEjRj_uotehByVVa3w91eo8Qtq1nlk5qERdy8e2uu2yGqAyMt2wmiB494vNnv4AgrEtWJGs1wwkGyGCeOLsHsyim9MxCIiul?></g></svg>