<svg xmlns="http://www.w3.org/2000/svg" xmlns:xlink="http://www.w3.org/1999/xlink" contentStyleType="text/css" data-diagram-type="CLASS" height="286px" preserveAspectRatio="none" style="width:3245px;height:286px;background:#FFFFFF;" version="1.1" viewBox="0 0 3245 286" width="3245px" zoomAndPan="magnify"><?plantuml 1.2026.5?><defs/><g><!--class Property--><g class="entity" data-qualified-name="Property" data-source-line="1" id="ent0001"><rect fill="#F1F1F1" height="48" rx="2.5" ry="2.5" style="stroke:#181818;stroke-width:0.5;" width="91.7939" x="570" y="7"/><ellipse cx="585" cy="23" fill="#ADD1B2" rx="11" ry="11" style="stroke:#181818;stroke-width:1;"/><path d="M587.9688,28.6406 Q587.3906,28.9375 586.75,29.0781 Q586.1094,29.2344 585.4063,29.2344 Q582.9063,29.2344 581.5781,27.5938 Q580.2656,25.9375 580.2656,22.8125 Q580.2656,19.6875 581.5781,18.0313 Q582.9063,16.375 585.4063,16.375 Q586.1094,16.375 586.75,16.5313 Q587.4063,16.6875 587.9688,16.9844 L587.9688,19.7031 Q587.3438,19.125 586.75,18.8594 Q586.1563,18.5781 585.5313,18.5781 Q584.1875,18.5781 583.5,19.6563 Q582.8125,20.7188 582.8125,22.8125 Q582.8125,24.9063 583.5,25.9844 Q584.1875,27.0469 585.5313,27.0469 Q586.1563,27.0469 586.75,26.7813 Q587.3438,26.5 587.9688,25.9219 L587.9688,28.6406 Z " fill="#000000"/><text fill="#000000" font-family="sans-serif" font-size="14" lengthAdjust="spacing" textLength="59.7939" x="599" y="27.8467">Property</text><line style="stroke:#181818;stroke-width:0.5;" x1="571" x2="660.7939" y1="39" y2="39"/><line style="stroke:#181818;stroke-width:0.5;" x1="571" x2="660.7939" y1="47" y2="47"/></g><!--class ActuatableProperty--><g class="entity" data-qualified-name="ActuatableProperty" data-source-line="1" id="ent0002"><rect fill="#F1F1F1" height="48" rx="2.5" ry="2.5" style="stroke:#181818;stroke-width:0.5;" width="167.4678" x="410.5" y="115"/><ellipse cx="425.5" cy="131" fill="#ADD1B2" rx="11" ry="11" style="stroke:#181818;stroke-width:1;"/><path d="M428.4688,136.6406 Q427.8906,136.9375 427.25,137.0781 Q426.6094,137.2344 425.9063,137.2344 Q423.4063,137.2344 422.0781,135.5938 Q420.7656,133.9375 420.7656,130.8125 Q420.7656,127.6875 422.0781,126.0313 Q423.4063,124.375 425.9063,124.375 Q426.6094,124.375 427.25,124.5313 Q427.9063,124.6875 428.4688,124.9844 L428.4688,127.7031 Q427.8438,127.125 427.25,126.8594 Q426.6563,126.5781 426.0313,126.5781 Q424.6875,126.5781 424,127.6563 Q423.3125,128.7188 423.3125,130.8125 Q423.3125,132.9063 424,133.9844 Q424.6875,135.0469 426.0313,135.0469 Q426.6563,135.0469 427.25,134.7813 Q427.8438,134.5 428.4688,133.9219 L428.4688,136.6406 Z " fill="#000000"/><text fill="#000000" font-family="sans-serif" font-size="14" lengthAdjust="spacing" textLength="135.4678" x="439.5" y="135.8467">ActuatableProperty</text><line style="stroke:#181818;stroke-width:0.5;" x1="411.5" x2="576.9678" y1="147" y2="147"/><line style="stroke:#181818;stroke-width:0.5;" x1="411.5" x2="576.9678" y1="155" y2="155"/></g><!--class Sample--><g class="entity" data-qualified-name="Sample" data-source-line="2" id="ent0004"><rect fill="#F1F1F1" height="48" rx="2.5" ry="2.5" style="stroke:#181818;stroke-width:0.5;" width="84.4932" x="1021" y="7"/><ellipse cx="1036" cy="23" fill="#ADD1B2" rx="11" ry="11" style="stroke:#181818;stroke-width:1;"/><path d="M1038.9688,28.6406 Q1038.3906,28.9375 1037.75,29.0781 Q1037.1094,29.2344 1036.4063,29.2344 Q1033.9063,29.2344 1032.5781,27.5938 Q1031.2656,25.9375 1031.2656,22.8125 Q1031.2656,19.6875 1032.5781,18.0313 Q1033.9063,16.375 1036.4063,16.375 Q1037.1094,16.375 1037.75,16.5313 Q1038.4063,16.6875 1038.9688,16.9844 L1038.9688,19.7031 Q1038.3438,19.125 1037.75,18.8594 Q1037.1563,18.5781 1036.5313,18.5781 Q1035.1875,18.5781 1034.5,19.6563 Q1033.8125,20.7188 1033.8125,22.8125 Q1033.8125,24.9063 1034.5,25.9844 Q1035.1875,27.0469 1036.5313,27.0469 Q1037.1563,27.0469 1037.75,26.7813 Q1038.3438,26.5 1038.9688,25.9219 L1038.9688,28.6406 Z " fill="#000000"/><text fill="#000000" font-family="sans-serif" font-size="14" lengthAdjust="spacing" textLength="52.4932" x="1050" y="27.8467">Sample</text><line style="stroke:#181818;stroke-width:0.5;" x1="1022" x2="1104.4932" y1="39" y2="39"/><line style="stroke:#181818;stroke-width:0.5;" x1="1022" x2="1104.4932" y1="47" y2="47"/></g><!--class MaterialSample--><g class="entity" data-qualified-name="MaterialSample" data-source-line="2" id="ent0005"><rect fill="#F1F1F1" height="48" rx="2.5" ry="2.5" style="stroke:#181818;stroke-width:0.5;" width="141.3682" x="820.5" y="115"/><ellipse cx="835.5" cy="131" fill="#ADD1B2" rx="11" ry="11" style="stroke:#181818;stroke-width:1;"/><path d="M838.4688,136.6406 Q837.8906,136.9375 837.25,137.0781 Q836.6094,137.2344 835.9063,137.2344 Q833.4063,137.2344 832.0781,135.5938 Q830.7656,133.9375 830.7656,130.8125 Q830.7656,127.6875 832.0781,126.0313 Q833.4063,124.375 835.9063,124.375 Q836.6094,124.375 837.25,124.5313 Q837.9063,124.6875 838.4688,124.9844 L838.4688,127.7031 Q837.8438,127.125 837.25,126.8594 Q836.6563,126.5781 836.0313,126.5781 Q834.6875,126.5781 834,127.6563 Q833.3125,128.7188 833.3125,130.8125 Q833.3125,132.9063 834,133.9844 Q834.6875,135.0469 836.0313,135.0469 Q836.6563,135.0469 837.25,134.7813 Q837.8438,134.5 838.4688,133.9219 L838.4688,136.6406 Z " fill="#000000"/><text fill="#000000" font-family="sans-serif" font-size="14" lengthAdjust="spacing" textLength="109.3682" x="849.5" y="135.8467">MaterialSample</text><line style="stroke:#181818;stroke-width:0.5;" x1="821.5" x2="960.8682" y1="147" y2="147"/><line style="stroke:#181818;stroke-width:0.5;" x1="821.5" x2="960.8682" y1="155" y2="155"/></g><!--class SpatialSample--><g class="entity" data-qualified-name="SpatialSample" data-source-line="3" id="ent0007"><rect fill="#F1F1F1" height="48" rx="2.5" ry="2.5" style="stroke:#181818;stroke-width:0.5;" width="132.6934" x="996.5" y="115"/><ellipse cx="1011.5" cy="131" fill="#ADD1B2" rx="11" ry="11" style="stroke:#181818;stroke-width:1;"/><path d="M1014.4688,136.6406 Q1013.8906,136.9375 1013.25,137.0781 Q1012.6094,137.2344 1011.9063,137.2344 Q1009.4063,137.2344 1008.0781,135.5938 Q1006.7656,133.9375 1006.7656,130.8125 Q1006.7656,127.6875 1008.0781,126.0313 Q1009.4063,124.375 1011.9063,124.375 Q1012.6094,124.375 1013.25,124.5313 Q1013.9063,124.6875 1014.4688,124.9844 L1014.4688,127.7031 Q1013.8438,127.125 1013.25,126.8594 Q1012.6563,126.5781 1012.0313,126.5781 Q1010.6875,126.5781 1010,127.6563 Q1009.3125,128.7188 1009.3125,130.8125 Q1009.3125,132.9063 1010,133.9844 Q1010.6875,135.0469 1012.0313,135.0469 Q1012.6563,135.0469 1013.25,134.7813 Q1013.8438,134.5 1014.4688,133.9219 L1014.4688,136.6406 Z " fill="#000000"/><text fill="#000000" font-family="sans-serif" font-size="14" lengthAdjust="spacing" textLength="100.6934" x="1025.5" y="135.8467">SpatialSample</text><line style="stroke:#181818;stroke-width:0.5;" x1="997.5" x2="1128.1934" y1="147" y2="147"/><line style="stroke:#181818;stroke-width:0.5;" x1="997.5" x2="1128.1934" y1="155" y2="155"/></g><!--class StatisticalSample--><g class="entity" data-qualified-name="StatisticalSample" data-source-line="4" id="ent0009"><rect fill="#F1F1F1" height="48" rx="2.5" ry="2.5" style="stroke:#181818;stroke-width:0.5;" width="153.666" x="1165" y="115"/><ellipse cx="1180" cy="131" fill="#ADD1B2" rx="11" ry="11" style="stroke:#181818;stroke-width:1;"/><path d="M1182.9688,136.6406 Q1182.3906,136.9375 1181.75,137.0781 Q1181.1094,137.2344 1180.4063,137.2344 Q1177.9063,137.2344 1176.5781,135.5938 Q1175.2656,133.9375 1175.2656,130.8125 Q1175.2656,127.6875 1176.5781,126.0313 Q1177.9063,124.375 1180.4063,124.375 Q1181.1094,124.375 1181.75,124.5313 Q1182.4063,124.6875 1182.9688,124.9844 L1182.9688,127.7031 Q1182.3438,127.125 1181.75,126.8594 Q1181.1563,126.5781 1180.5313,126.5781 Q1179.1875,126.5781 1178.5,127.6563 Q1177.8125,128.7188 1177.8125,130.8125 Q1177.8125,132.9063 1178.5,133.9844 Q1179.1875,135.0469 1180.5313,135.0469 Q1181.1563,135.0469 1181.75,134.7813 Q1182.3438,134.5 1182.9688,133.9219 L1182.9688,136.6406 Z " fill="#000000"/><text fill="#000000" font-family="sans-serif" font-size="14" lengthAdjust="spacing" textLength="121.666" x="1194" y="135.8467">StatisticalSample</text><line style="stroke:#181818;stroke-width:0.5;" x1="1166" x2="1317.666" y1="147" y2="147"/><line style="stroke:#181818;stroke-width:0.5;" x1="1166" x2="1317.666" y1="155" y2="155"/></g><!--class ObservableProperty--><g class="entity" data-qualified-name="ObservableProperty" data-source-line="5" id="ent0011"><rect fill="#F1F1F1" height="48" rx="2.5" ry="2.5" style="stroke:#181818;stroke-width:0.5;" width="171.6172" x="613" y="115"/><ellipse cx="628" cy="131" fill="#ADD1B2" rx="11" ry="11" style="stroke:#181818;stroke-width:1;"/><path d="M630.9688,136.6406 Q630.3906,136.9375 629.75,137.0781 Q629.1094,137.2344 628.4063,137.2344 Q625.9063,137.2344 624.5781,135.5938 Q623.2656,133.9375 623.2656,130.8125 Q623.2656,127.6875 624.5781,126.0313 Q625.9063,124.375 628.4063,124.375 Q629.1094,124.375 629.75,124.5313 Q630.4063,124.6875 630.9688,124.9844 L630.9688,127.7031 Q630.3438,127.125 629.75,126.8594 Q629.1563,126.5781 628.5313,126.5781 Q627.1875,126.5781 626.5,127.6563 Q625.8125,128.7188 625.8125,130.8125 Q625.8125,132.9063 626.5,133.9844 Q627.1875,135.0469 628.5313,135.0469 Q629.1563,135.0469 629.75,134.7813 Q630.3438,134.5 630.9688,133.9219 L630.9688,136.6406 Z " fill="#000000"/><text fill="#000000" font-family="sans-serif" font-size="14" lengthAdjust="spacing" textLength="139.6172" x="642" y="135.8467">ObservableProperty</text><line style="stroke:#181818;stroke-width:0.5;" x1="614" x2="783.6172" y1="147" y2="147"/><line style="stroke:#181818;stroke-width:0.5;" x1="614" x2="783.6172" y1="155" y2="155"/></g><!--class Procedure--><g class="entity" data-qualified-name="Procedure" data-source-line="6" id="ent0013"><rect fill="#F1F1F1" height="48" rx="2.5" ry="2.5" style="stroke:#181818;stroke-width:0.5;" width="103.2031" x="1596.5" y="7"/><ellipse cx="1611.5" cy="23" fill="#ADD1B2" rx="11" ry="11" style="stroke:#181818;stroke-width:1;"/><path d="M1614.4688,28.6406 Q1613.8906,28.9375 1613.25,29.0781 Q1612.6094,29.2344 1611.9063,29.2344 Q1609.4063,29.2344 1608.0781,27.5938 Q1606.7656,25.9375 1606.7656,22.8125 Q1606.7656,19.6875 1608.0781,18.0313 Q1609.4063,16.375 1611.9063,16.375 Q1612.6094,16.375 1613.25,16.5313 Q1613.9063,16.6875 1614.4688,16.9844 L1614.4688,19.7031 Q1613.8438,19.125 1613.25,18.8594 Q1612.6563,18.5781 1612.0313,18.5781 Q1610.6875,18.5781 1610,19.6563 Q1609.3125,20.7188 1609.3125,22.8125 Q1609.3125,24.9063 1610,25.9844 Q1610.6875,27.0469 1612.0313,27.0469 Q1612.6563,27.0469 1613.25,26.7813 Q1613.8438,26.5 1614.4688,25.9219 L1614.4688,28.6406 Z " fill="#000000"/><text fill="#000000" font-family="sans-serif" font-size="14" lengthAdjust="spacing" textLength="71.2031" x="1625.5" y="27.8467">Procedure</text><line style="stroke:#181818;stroke-width:0.5;" x1="1597.5" x2="1698.7031" y1="39" y2="39"/><line style="stroke:#181818;stroke-width:0.5;" x1="1597.5" x2="1698.7031" y1="47" y2="47"/></g><!--class ActuatingProcedure--><g class="entity" data-qualified-name="ActuatingProcedure" data-source-line="6" id="ent0014"><rect fill="#F1F1F1" height="48" rx="2.5" ry="2.5" style="stroke:#181818;stroke-width:0.5;" width="170.5576" x="1354.5" y="115"/><ellipse cx="1369.5" cy="131" fill="#ADD1B2" rx="11" ry="11" style="stroke:#181818;stroke-width:1;"/><path d="M1372.4688,136.6406 Q1371.8906,136.9375 1371.25,137.0781 Q1370.6094,137.2344 1369.9063,137.2344 Q1367.4063,137.2344 1366.0781,135.5938 Q1364.7656,133.9375 1364.7656,130.8125 Q1364.7656,127.6875 1366.0781,126.0313 Q1367.4063,124.375 1369.9063,124.375 Q1370.6094,124.375 1371.25,124.5313 Q1371.9063,124.6875 1372.4688,124.9844 L1372.4688,127.7031 Q1371.8438,127.125 1371.25,126.8594 Q1370.6563,126.5781 1370.0313,126.5781 Q1368.6875,126.5781 1368,127.6563 Q1367.3125,128.7188 1367.3125,130.8125 Q1367.3125,132.9063 1368,133.9844 Q1368.6875,135.0469 1370.0313,135.0469 Q1370.6563,135.0469 1371.25,134.7813 Q1371.8438,134.5 1372.4688,133.9219 L1372.4688,136.6406 Z " fill="#000000"/><text fill="#000000" font-family="sans-serif" font-size="14" lengthAdjust="spacing" textLength="138.5576" x="1383.5" y="135.8467">ActuatingProcedure</text><line style="stroke:#181818;stroke-width:0.5;" x1="1355.5" x2="1524.0576" y1="147" y2="147"/><line style="stroke:#181818;stroke-width:0.5;" x1="1355.5" x2="1524.0576" y1="155" y2="155"/></g><!--class ObservingProcedure--><g class="entity" data-qualified-name="ObservingProcedure" data-source-line="7" id="ent0016"><rect fill="#F1F1F1" height="48" rx="2.5" ry="2.5" style="stroke:#181818;stroke-width:0.5;" width="174.707" x="1560.5" y="115"/><ellipse cx="1575.5" cy="131" fill="#ADD1B2" rx="11" ry="11" style="stroke:#181818;stroke-width:1;"/><path d="M1578.4688,136.6406 Q1577.8906,136.9375 1577.25,137.0781 Q1576.6094,137.2344 1575.9063,137.2344 Q1573.4063,137.2344 1572.0781,135.5938 Q1570.7656,133.9375 1570.7656,130.8125 Q1570.7656,127.6875 1572.0781,126.0313 Q1573.4063,124.375 1575.9063,124.375 Q1576.6094,124.375 1577.25,124.5313 Q1577.9063,124.6875 1578.4688,124.9844 L1578.4688,127.7031 Q1577.8438,127.125 1577.25,126.8594 Q1576.6563,126.5781 1576.0313,126.5781 Q1574.6875,126.5781 1574,127.6563 Q1573.3125,128.7188 1573.3125,130.8125 Q1573.3125,132.9063 1574,133.9844 Q1574.6875,135.0469 1576.0313,135.0469 Q1576.6563,135.0469 1577.25,134.7813 Q1577.8438,134.5 1578.4688,133.9219 L1578.4688,136.6406 Z " fill="#000000"/><text fill="#000000" font-family="sans-serif" font-size="14" lengthAdjust="spacing" textLength="142.707" x="1589.5" y="135.8467">ObservingProcedure</text><line style="stroke:#181818;stroke-width:0.5;" x1="1561.5" x2="1734.207" y1="147" y2="147"/><line style="stroke:#181818;stroke-width:0.5;" x1="1561.5" x2="1734.207" y1="155" y2="155"/></g><!--class SamplingProcedure--><g class="entity" data-qualified-name="SamplingProcedure" data-source-line="8" id="ent0018"><rect fill="#F1F1F1" height="48" rx="2.5" ry="2.5" style="stroke:#181818;stroke-width:0.5;" width="168.7324" x="1770.5" y="115"/><ellipse cx="1785.5" cy="131" fill="#ADD1B2" rx="11" ry="11" style="stroke:#181818;stroke-width:1;"/><path d="M1788.4688,136.6406 Q1787.8906,136.9375 1787.25,137.0781 Q1786.6094,137.2344 1785.9063,137.2344 Q1783.4063,137.2344 1782.0781,135.5938 Q1780.7656,133.9375 1780.7656,130.8125 Q1780.7656,127.6875 1782.0781,126.0313 Q1783.4063,124.375 1785.9063,124.375 Q1786.6094,124.375 1787.25,124.5313 Q1787.9063,124.6875 1788.4688,124.9844 L1788.4688,127.7031 Q1787.8438,127.125 1787.25,126.8594 Q1786.6563,126.5781 1786.0313,126.5781 Q1784.6875,126.5781 1784,127.6563 Q1783.3125,128.7188 1783.3125,130.8125 Q1783.3125,132.9063 1784,133.9844 Q1784.6875,135.0469 1786.0313,135.0469 Q1786.6563,135.0469 1787.25,134.7813 Q1787.8438,134.5 1788.4688,133.9219 L1788.4688,136.6406 Z " fill="#000000"/><text fill="#000000" font-family="sans-serif" font-size="14" lengthAdjust="spacing" textLength="136.7324" x="1799.5" y="135.8467">SamplingProcedure</text><line style="stroke:#181818;stroke-width:0.5;" x1="1771.5" x2="1938.2324" y1="147" y2="147"/><line style="stroke:#181818;stroke-width:0.5;" x1="1771.5" x2="1938.2324" y1="155" y2="155"/></g><!--class Asset--><g class="entity" data-qualified-name="Asset" data-source-line="9" id="ent0020"><rect fill="#F1F1F1" height="48" rx="2.5" ry="2.5" style="stroke:#181818;stroke-width:0.5;" width="70.2676" x="2046" y="7"/><ellipse cx="2061" cy="23" fill="#ADD1B2" rx="11" ry="11" style="stroke:#181818;stroke-width:1;"/><path d="M2063.9688,28.6406 Q2063.3906,28.9375 2062.75,29.0781 Q2062.1094,29.2344 2061.4063,29.2344 Q2058.9063,29.2344 2057.5781,27.5938 Q2056.2656,25.9375 2056.2656,22.8125 Q2056.2656,19.6875 2057.5781,18.0313 Q2058.9063,16.375 2061.4063,16.375 Q2062.1094,16.375 2062.75,16.5313 Q2063.4063,16.6875 2063.9688,16.9844 L2063.9688,19.7031 Q2063.3438,19.125 2062.75,18.8594 Q2062.1563,18.5781 2061.5313,18.5781 Q2060.1875,18.5781 2059.5,19.6563 Q2058.8125,20.7188 2058.8125,22.8125 Q2058.8125,24.9063 2059.5,25.9844 Q2060.1875,27.0469 2061.5313,27.0469 Q2062.1563,27.0469 2062.75,26.7813 Q2063.3438,26.5 2063.9688,25.9219 L2063.9688,28.6406 Z " fill="#000000"/><text fill="#000000" font-family="sans-serif" font-size="14" lengthAdjust="spacing" textLength="38.2676" x="2075" y="27.8467">Asset</text><line style="stroke:#181818;stroke-width:0.5;" x1="2047" x2="2115.2676" y1="39" y2="39"/><line style="stroke:#181818;stroke-width:0.5;" x1="2047" x2="2115.2676" y1="47" y2="47"/></g><!--class Platform--><g class="entity" data-qualified-name="Platform" data-source-line="9" id="ent0021"><rect fill="#F1F1F1" height="48" rx="2.5" ry="2.5" style="stroke:#181818;stroke-width:0.5;" width="91.2881" x="1974.5" y="115"/><ellipse cx="1989.5" cy="131" fill="#ADD1B2" rx="11" ry="11" style="stroke:#181818;stroke-width:1;"/><path d="M1992.4688,136.6406 Q1991.8906,136.9375 1991.25,137.0781 Q1990.6094,137.2344 1989.9063,137.2344 Q1987.4063,137.2344 1986.0781,135.5938 Q1984.7656,133.9375 1984.7656,130.8125 Q1984.7656,127.6875 1986.0781,126.0313 Q1987.4063,124.375 1989.9063,124.375 Q1990.6094,124.375 1991.25,124.5313 Q1991.9063,124.6875 1992.4688,124.9844 L1992.4688,127.7031 Q1991.8438,127.125 1991.25,126.8594 Q1990.6563,126.5781 1990.0313,126.5781 Q1988.6875,126.5781 1988,127.6563 Q1987.3125,128.7188 1987.3125,130.8125 Q1987.3125,132.9063 1988,133.9844 Q1988.6875,135.0469 1990.0313,135.0469 Q1990.6563,135.0469 1991.25,134.7813 Q1991.8438,134.5 1992.4688,133.9219 L1992.4688,136.6406 Z " fill="#000000"/><text fill="#000000" font-family="sans-serif" font-size="14" lengthAdjust="spacing" textLength="59.2881" x="2003.5" y="135.8467">Platform</text><line style="stroke:#181818;stroke-width:0.5;" x1="1975.5" x2="2064.7881" y1="147" y2="147"/><line style="stroke:#181818;stroke-width:0.5;" x1="1975.5" x2="2064.7881" y1="155" y2="155"/></g><!--class System--><g class="entity" data-qualified-name="System" data-source-line="10" id="ent0023"><rect fill="#F1F1F1" height="48" rx="2.5" ry="2.5" style="stroke:#181818;stroke-width:0.5;" width="84.2061" x="2101" y="115"/><ellipse cx="2116" cy="131" fill="#ADD1B2" rx="11" ry="11" style="stroke:#181818;stroke-width:1;"/><path d="M2118.9688,136.6406 Q2118.3906,136.9375 2117.75,137.0781 Q2117.1094,137.2344 2116.4063,137.2344 Q2113.9063,137.2344 2112.5781,135.5938 Q2111.2656,133.9375 2111.2656,130.8125 Q2111.2656,127.6875 2112.5781,126.0313 Q2113.9063,124.375 2116.4063,124.375 Q2117.1094,124.375 2117.75,124.5313 Q2118.4063,124.6875 2118.9688,124.9844 L2118.9688,127.7031 Q2118.3438,127.125 2117.75,126.8594 Q2117.1563,126.5781 2116.5313,126.5781 Q2115.1875,126.5781 2114.5,127.6563 Q2113.8125,128.7188 2113.8125,130.8125 Q2113.8125,132.9063 2114.5,133.9844 Q2115.1875,135.0469 2116.5313,135.0469 Q2117.1563,135.0469 2117.75,134.7813 Q2118.3438,134.5 2118.9688,133.9219 L2118.9688,136.6406 Z " fill="#000000"/><text fill="#000000" font-family="sans-serif" font-size="14" lengthAdjust="spacing" textLength="52.2061" x="2130" y="135.8467">System</text><line style="stroke:#181818;stroke-width:0.5;" x1="2102" x2="2184.2061" y1="147" y2="147"/><line style="stroke:#181818;stroke-width:0.5;" x1="2102" x2="2184.2061" y1="155" y2="155"/></g><!--class Sampler--><g class="entity" data-qualified-name="Sampler" data-source-line="10" id="ent0024"><rect fill="#F1F1F1" height="48" rx="2.5" ry="2.5" style="stroke:#181818;stroke-width:0.5;" width="90.249" x="1972" y="223"/><ellipse cx="1987" cy="239" fill="#ADD1B2" rx="11" ry="11" style="stroke:#181818;stroke-width:1;"/><path d="M1989.9688,244.6406 Q1989.3906,244.9375 1988.75,245.0781 Q1988.1094,245.2344 1987.4063,245.2344 Q1984.9063,245.2344 1983.5781,243.5938 Q1982.2656,241.9375 1982.2656,238.8125 Q1982.2656,235.6875 1983.5781,234.0313 Q1984.9063,232.375 1987.4063,232.375 Q1988.1094,232.375 1988.75,232.5313 Q1989.4063,232.6875 1989.9688,232.9844 L1989.9688,235.7031 Q1989.3438,235.125 1988.75,234.8594 Q1988.1563,234.5781 1987.5313,234.5781 Q1986.1875,234.5781 1985.5,235.6563 Q1984.8125,236.7188 1984.8125,238.8125 Q1984.8125,240.9063 1985.5,241.9844 Q1986.1875,243.0469 1987.5313,243.0469 Q1988.1563,243.0469 1988.75,242.7813 Q1989.3438,242.5 1989.9688,241.9219 L1989.9688,244.6406 Z " fill="#000000"/><text fill="#000000" font-family="sans-serif" font-size="14" lengthAdjust="spacing" textLength="58.249" x="2001" y="243.8467">Sampler</text><line style="stroke:#181818;stroke-width:0.5;" x1="1973" x2="2061.249" y1="255" y2="255"/><line style="stroke:#181818;stroke-width:0.5;" x1="1973" x2="2061.249" y1="263" y2="263"/></g><!--class Actuator--><g class="entity" data-qualified-name="Actuator" data-source-line="11" id="ent0026"><rect fill="#F1F1F1" height="48" rx="2.5" ry="2.5" style="stroke:#181818;stroke-width:0.5;" width="92.0264" x="2097" y="223"/><ellipse cx="2112" cy="239" fill="#ADD1B2" rx="11" ry="11" style="stroke:#181818;stroke-width:1;"/><path d="M2114.9688,244.6406 Q2114.3906,244.9375 2113.75,245.0781 Q2113.1094,245.2344 2112.4063,245.2344 Q2109.9063,245.2344 2108.5781,243.5938 Q2107.2656,241.9375 2107.2656,238.8125 Q2107.2656,235.6875 2108.5781,234.0313 Q2109.9063,232.375 2112.4063,232.375 Q2113.1094,232.375 2113.75,232.5313 Q2114.4063,232.6875 2114.9688,232.9844 L2114.9688,235.7031 Q2114.3438,235.125 2113.75,234.8594 Q2113.1563,234.5781 2112.5313,234.5781 Q2111.1875,234.5781 2110.5,235.6563 Q2109.8125,236.7188 2109.8125,238.8125 Q2109.8125,240.9063 2110.5,241.9844 Q2111.1875,243.0469 2112.5313,243.0469 Q2113.1563,243.0469 2113.75,242.7813 Q2114.3438,242.5 2114.9688,241.9219 L2114.9688,244.6406 Z " fill="#000000"/><text fill="#000000" font-family="sans-serif" font-size="14" lengthAdjust="spacing" textLength="60.0264" x="2126" y="243.8467">Actuator</text><line style="stroke:#181818;stroke-width:0.5;" x1="2098" x2="2188.0264" y1="255" y2="255"/><line style="stroke:#181818;stroke-width:0.5;" x1="2098" x2="2188.0264" y1="263" y2="263"/></g><!--class Execution--><g class="entity" data-qualified-name="Execution" data-source-line="13" id="ent0029"><rect fill="#F1F1F1" height="48" rx="2.5" ry="2.5" style="stroke:#181818;stroke-width:0.5;" width="101.1318" x="2352.5" y="7"/><ellipse cx="2367.5" cy="23" fill="#ADD1B2" rx="11" ry="11" style="stroke:#181818;stroke-width:1;"/><path d="M2370.4688,28.6406 Q2369.8906,28.9375 2369.25,29.0781 Q2368.6094,29.2344 2367.9063,29.2344 Q2365.4063,29.2344 2364.0781,27.5938 Q2362.7656,25.9375 2362.7656,22.8125 Q2362.7656,19.6875 2364.0781,18.0313 Q2365.4063,16.375 2367.9063,16.375 Q2368.6094,16.375 2369.25,16.5313 Q2369.9063,16.6875 2370.4688,16.9844 L2370.4688,19.7031 Q2369.8438,19.125 2369.25,18.8594 Q2368.6563,18.5781 2368.0313,18.5781 Q2366.6875,18.5781 2366,19.6563 Q2365.3125,20.7188 2365.3125,22.8125 Q2365.3125,24.9063 2366,25.9844 Q2366.6875,27.0469 2368.0313,27.0469 Q2368.6563,27.0469 2369.25,26.7813 Q2369.8438,26.5 2370.4688,25.9219 L2370.4688,28.6406 Z " fill="#000000"/><text fill="#000000" font-family="sans-serif" font-size="14" lengthAdjust="spacing" textLength="69.1318" x="2381.5" y="27.8467">Execution</text><line style="stroke:#181818;stroke-width:0.5;" x1="2353.5" x2="2452.6318" y1="39" y2="39"/><line style="stroke:#181818;stroke-width:0.5;" x1="2353.5" x2="2452.6318" y1="47" y2="47"/></g><!--class Sampling--><g class="entity" data-qualified-name="Sampling" data-source-line="13" id="ent0030"><rect fill="#F1F1F1" height="48" rx="2.5" ry="2.5" style="stroke:#181818;stroke-width:0.5;" width="97.5293" x="2220" y="115"/><ellipse cx="2235" cy="131" fill="#ADD1B2" rx="11" ry="11" style="stroke:#181818;stroke-width:1;"/><path d="M2237.9688,136.6406 Q2237.3906,136.9375 2236.75,137.0781 Q2236.1094,137.2344 2235.4063,137.2344 Q2232.9063,137.2344 2231.5781,135.5938 Q2230.2656,133.9375 2230.2656,130.8125 Q2230.2656,127.6875 2231.5781,126.0313 Q2232.9063,124.375 2235.4063,124.375 Q2236.1094,124.375 2236.75,124.5313 Q2237.4063,124.6875 2237.9688,124.9844 L2237.9688,127.7031 Q2237.3438,127.125 2236.75,126.8594 Q2236.1563,126.5781 2235.5313,126.5781 Q2234.1875,126.5781 2233.5,127.6563 Q2232.8125,128.7188 2232.8125,130.8125 Q2232.8125,132.9063 2233.5,133.9844 Q2234.1875,135.0469 2235.5313,135.0469 Q2236.1563,135.0469 2236.75,134.7813 Q2237.3438,134.5 2237.9688,133.9219 L2237.9688,136.6406 Z " fill="#000000"/><text fill="#000000" font-family="sans-serif" font-size="14" lengthAdjust="spacing" textLength="65.5293" x="2249" y="135.8467">Sampling</text><line style="stroke:#181818;stroke-width:0.5;" x1="2221" x2="2316.5293" y1="147" y2="147"/><line style="stroke:#181818;stroke-width:0.5;" x1="2221" x2="2316.5293" y1="155" y2="155"/></g><!--class ExecutionCollection--><g class="entity" data-qualified-name="ExecutionCollection" data-source-line="14" id="ent0032"><rect fill="#F1F1F1" height="48" rx="2.5" ry="2.5" style="stroke:#181818;stroke-width:0.5;" width="170.3799" x="2840" y="7"/><ellipse cx="2855" cy="23" fill="#ADD1B2" rx="11" ry="11" style="stroke:#181818;stroke-width:1;"/><path d="M2857.9688,28.6406 Q2857.3906,28.9375 2856.75,29.0781 Q2856.1094,29.2344 2855.4063,29.2344 Q2852.9063,29.2344 2851.5781,27.5938 Q2850.2656,25.9375 2850.2656,22.8125 Q2850.2656,19.6875 2851.5781,18.0313 Q2852.9063,16.375 2855.4063,16.375 Q2856.1094,16.375 2856.75,16.5313 Q2857.4063,16.6875 2857.9688,16.9844 L2857.9688,19.7031 Q2857.3438,19.125 2856.75,18.8594 Q2856.1563,18.5781 2855.5313,18.5781 Q2854.1875,18.5781 2853.5,19.6563 Q2852.8125,20.7188 2852.8125,22.8125 Q2852.8125,24.9063 2853.5,25.9844 Q2854.1875,27.0469 2855.5313,27.0469 Q2856.1563,27.0469 2856.75,26.7813 Q2857.3438,26.5 2857.9688,25.9219 L2857.9688,28.6406 Z " fill="#000000"/><text fill="#000000" font-family="sans-serif" font-size="14" lengthAdjust="spacing" textLength="138.3799" x="2869" y="27.8467">ExecutionCollection</text><line style="stroke:#181818;stroke-width:0.5;" x1="2841" x2="3009.3799" y1="39" y2="39"/><line style="stroke:#181818;stroke-width:0.5;" x1="2841" x2="3009.3799" y1="47" y2="47"/></g><!--class SamplingCollection--><g class="entity" data-qualified-name="SamplingCollection" data-source-line="14" id="ent0033"><rect fill="#F1F1F1" height="48" rx="2.5" ry="2.5" style="stroke:#181818;stroke-width:0.5;" width="166.7773" x="2639.5" y="115"/><ellipse cx="2654.5" cy="131" fill="#ADD1B2" rx="11" ry="11" style="stroke:#181818;stroke-width:1;"/><path d="M2657.4688,136.6406 Q2656.8906,136.9375 2656.25,137.0781 Q2655.6094,137.2344 2654.9063,137.2344 Q2652.4063,137.2344 2651.0781,135.5938 Q2649.7656,133.9375 2649.7656,130.8125 Q2649.7656,127.6875 2651.0781,126.0313 Q2652.4063,124.375 2654.9063,124.375 Q2655.6094,124.375 2656.25,124.5313 Q2656.9063,124.6875 2657.4688,124.9844 L2657.4688,127.7031 Q2656.8438,127.125 2656.25,126.8594 Q2655.6563,126.5781 2655.0313,126.5781 Q2653.6875,126.5781 2653,127.6563 Q2652.3125,128.7188 2652.3125,130.8125 Q2652.3125,132.9063 2653,133.9844 Q2653.6875,135.0469 2655.0313,135.0469 Q2655.6563,135.0469 2656.25,134.7813 Q2656.8438,134.5 2657.4688,133.9219 L2657.4688,136.6406 Z " fill="#000000"/><text fill="#000000" font-family="sans-serif" font-size="14" lengthAdjust="spacing" textLength="134.7773" x="2668.5" y="135.8467">SamplingCollection</text><line style="stroke:#181818;stroke-width:0.5;" x1="2640.5" x2="2805.2773" y1="147" y2="147"/><line style="stroke:#181818;stroke-width:0.5;" x1="2640.5" x2="2805.2773" y1="155" y2="155"/></g><!--class Actuation--><g class="entity" data-qualified-name="Actuation" data-source-line="15" id="ent0035"><rect fill="#F1F1F1" height="48" rx="2.5" ry="2.5" style="stroke:#181818;stroke-width:0.5;" width="99.0332" x="2353.5" y="115"/><ellipse cx="2368.5" cy="131" fill="#ADD1B2" rx="11" ry="11" style="stroke:#181818;stroke-width:1;"/><path d="M2371.4688,136.6406 Q2370.8906,136.9375 2370.25,137.0781 Q2369.6094,137.2344 2368.9063,137.2344 Q2366.4063,137.2344 2365.0781,135.5938 Q2363.7656,133.9375 2363.7656,130.8125 Q2363.7656,127.6875 2365.0781,126.0313 Q2366.4063,124.375 2368.9063,124.375 Q2369.6094,124.375 2370.25,124.5313 Q2370.9063,124.6875 2371.4688,124.9844 L2371.4688,127.7031 Q2370.8438,127.125 2370.25,126.8594 Q2369.6563,126.5781 2369.0313,126.5781 Q2367.6875,126.5781 2367,127.6563 Q2366.3125,128.7188 2366.3125,130.8125 Q2366.3125,132.9063 2367,133.9844 Q2367.6875,135.0469 2369.0313,135.0469 Q2369.6563,135.0469 2370.25,134.7813 Q2370.8438,134.5 2371.4688,133.9219 L2371.4688,136.6406 Z " fill="#000000"/><text fill="#000000" font-family="sans-serif" font-size="14" lengthAdjust="spacing" textLength="67.0332" x="2382.5" y="135.8467">Actuation</text><line style="stroke:#181818;stroke-width:0.5;" x1="2354.5" x2="2451.5332" y1="147" y2="147"/><line style="stroke:#181818;stroke-width:0.5;" x1="2354.5" x2="2451.5332" y1="155" y2="155"/></g><!--class Sensor--><g class="entity" data-qualified-name="Sensor" data-source-line="16" id="ent0037"><rect fill="#F1F1F1" height="48" rx="2.5" ry="2.5" style="stroke:#181818;stroke-width:0.5;" width="79.9883" x="2224" y="223"/><ellipse cx="2239" cy="239" fill="#ADD1B2" rx="11" ry="11" style="stroke:#181818;stroke-width:1;"/><path d="M2241.9688,244.6406 Q2241.3906,244.9375 2240.75,245.0781 Q2240.1094,245.2344 2239.4063,245.2344 Q2236.9063,245.2344 2235.5781,243.5938 Q2234.2656,241.9375 2234.2656,238.8125 Q2234.2656,235.6875 2235.5781,234.0313 Q2236.9063,232.375 2239.4063,232.375 Q2240.1094,232.375 2240.75,232.5313 Q2241.4063,232.6875 2241.9688,232.9844 L2241.9688,235.7031 Q2241.3438,235.125 2240.75,234.8594 Q2240.1563,234.5781 2239.5313,234.5781 Q2238.1875,234.5781 2237.5,235.6563 Q2236.8125,236.7188 2236.8125,238.8125 Q2236.8125,240.9063 2237.5,241.9844 Q2238.1875,243.0469 2239.5313,243.0469 Q2240.1563,243.0469 2240.75,242.7813 Q2241.3438,242.5 2241.9688,241.9219 L2241.9688,244.6406 Z " fill="#000000"/><text fill="#000000" font-family="sans-serif" font-size="14" lengthAdjust="spacing" textLength="47.9883" x="2253" y="243.8467">Sensor</text><line style="stroke:#181818;stroke-width:0.5;" x1="2225" x2="2302.9883" y1="255" y2="255"/><line style="stroke:#181818;stroke-width:0.5;" x1="2225" x2="2302.9883" y1="263" y2="263"/></g><!--class ActuationCollection--><g class="entity" data-qualified-name="ActuationCollection" data-source-line="17" id="ent0039"><rect fill="#F1F1F1" height="48" rx="2.5" ry="2.5" style="stroke:#181818;stroke-width:0.5;" width="168.2813" x="2841" y="115"/><ellipse cx="2856" cy="131" fill="#ADD1B2" rx="11" ry="11" style="stroke:#181818;stroke-width:1;"/><path d="M2858.9688,136.6406 Q2858.3906,136.9375 2857.75,137.0781 Q2857.1094,137.2344 2856.4063,137.2344 Q2853.9063,137.2344 2852.5781,135.5938 Q2851.2656,133.9375 2851.2656,130.8125 Q2851.2656,127.6875 2852.5781,126.0313 Q2853.9063,124.375 2856.4063,124.375 Q2857.1094,124.375 2857.75,124.5313 Q2858.4063,124.6875 2858.9688,124.9844 L2858.9688,127.7031 Q2858.3438,127.125 2857.75,126.8594 Q2857.1563,126.5781 2856.5313,126.5781 Q2855.1875,126.5781 2854.5,127.6563 Q2853.8125,128.7188 2853.8125,130.8125 Q2853.8125,132.9063 2854.5,133.9844 Q2855.1875,135.0469 2856.5313,135.0469 Q2857.1563,135.0469 2857.75,134.7813 Q2858.3438,134.5 2858.9688,133.9219 L2858.9688,136.6406 Z " fill="#000000"/><text fill="#000000" font-family="sans-serif" font-size="14" lengthAdjust="spacing" textLength="136.2813" x="2870" y="135.8467">ActuationCollection</text><line style="stroke:#181818;stroke-width:0.5;" x1="2842" x2="3008.2813" y1="147" y2="147"/><line style="stroke:#181818;stroke-width:0.5;" x1="2842" x2="3008.2813" y1="155" y2="155"/></g><!--class ObservationCollection--><g class="entity" data-qualified-name="ObservationCollection" data-source-line="18" id="ent0041"><rect fill="#F1F1F1" height="48" rx="2.5" ry="2.5" style="stroke:#181818;stroke-width:0.5;" width="186.499" x="3044" y="115"/><ellipse cx="3059" cy="131" fill="#ADD1B2" rx="11" ry="11" style="stroke:#181818;stroke-width:1;"/><path d="M3061.9688,136.6406 Q3061.3906,136.9375 3060.75,137.0781 Q3060.1094,137.2344 3059.4063,137.2344 Q3056.9063,137.2344 3055.5781,135.5938 Q3054.2656,133.9375 3054.2656,130.8125 Q3054.2656,127.6875 3055.5781,126.0313 Q3056.9063,124.375 3059.4063,124.375 Q3060.1094,124.375 3060.75,124.5313 Q3061.4063,124.6875 3061.9688,124.9844 L3061.9688,127.7031 Q3061.3438,127.125 3060.75,126.8594 Q3060.1563,126.5781 3059.5313,126.5781 Q3058.1875,126.5781 3057.5,127.6563 Q3056.8125,128.7188 3056.8125,130.8125 Q3056.8125,132.9063 3057.5,133.9844 Q3058.1875,135.0469 3059.5313,135.0469 Q3060.1563,135.0469 3060.75,134.7813 Q3061.3438,134.5 3061.9688,133.9219 L3061.9688,136.6406 Z " fill="#000000"/><text fill="#000000" font-family="sans-serif" font-size="14" lengthAdjust="spacing" textLength="154.499" x="3073" y="135.8467">ObservationCollection</text><line style="stroke:#181818;stroke-width:0.5;" x1="3045" x2="3229.499" y1="147" y2="147"/><line style="stroke:#181818;stroke-width:0.5;" x1="3045" x2="3229.499" y1="155" y2="155"/></g><!--class Observation--><g class="entity" data-qualified-name="Observation" data-source-line="19" id="ent0043"><rect fill="#F1F1F1" height="48" rx="2.5" ry="2.5" style="stroke:#181818;stroke-width:0.5;" width="117.251" x="2487.5" y="115"/><ellipse cx="2502.5" cy="131" fill="#ADD1B2" rx="11" ry="11" style="stroke:#181818;stroke-width:1;"/><path d="M2505.4688,136.6406 Q2504.8906,136.9375 2504.25,137.0781 Q2503.6094,137.2344 2502.9063,137.2344 Q2500.4063,137.2344 2499.0781,135.5938 Q2497.7656,133.9375 2497.7656,130.8125 Q2497.7656,127.6875 2499.0781,126.0313 Q2500.4063,124.375 2502.9063,124.375 Q2503.6094,124.375 2504.25,124.5313 Q2504.9063,124.6875 2505.4688,124.9844 L2505.4688,127.7031 Q2504.8438,127.125 2504.25,126.8594 Q2503.6563,126.5781 2503.0313,126.5781 Q2501.6875,126.5781 2501,127.6563 Q2500.3125,128.7188 2500.3125,130.8125 Q2500.3125,132.9063 2501,133.9844 Q2501.6875,135.0469 2503.0313,135.0469 Q2503.6563,135.0469 2504.25,134.7813 Q2504.8438,134.5 2505.4688,133.9219 L2505.4688,136.6406 Z " fill="#000000"/><text fill="#000000" font-family="sans-serif" font-size="14" lengthAdjust="spacing" textLength="85.251" x="2516.5" y="135.8467">Observation</text><line style="stroke:#181818;stroke-width:0.5;" x1="2488.5" x2="2603.751" y1="147" y2="147"/><line style="stroke:#181818;stroke-width:0.5;" x1="2488.5" x2="2603.751" y1="155" y2="155"/></g><!--class Deployment--><g class="entity" data-qualified-name="Deployment" data-source-line="20" id="ent0045"><rect fill="#F1F1F1" height="48" rx="2.5" ry="2.5" style="stroke:#181818;stroke-width:0.5;" width="117.6338" x="25" y="7"/><ellipse cx="40" cy="23" fill="#ADD1B2" rx="11" ry="11" style="stroke:#181818;stroke-width:1;"/><path d="M42.9688,28.6406 Q42.3906,28.9375 41.75,29.0781 Q41.1094,29.2344 40.4063,29.2344 Q37.9063,29.2344 36.5781,27.5938 Q35.2656,25.9375 35.2656,22.8125 Q35.2656,19.6875 36.5781,18.0313 Q37.9063,16.375 40.4063,16.375 Q41.1094,16.375 41.75,16.5313 Q42.4063,16.6875 42.9688,16.9844 L42.9688,19.7031 Q42.3438,19.125 41.75,18.8594 Q41.1563,18.5781 40.5313,18.5781 Q39.1875,18.5781 38.5,19.6563 Q37.8125,20.7188 37.8125,22.8125 Q37.8125,24.9063 38.5,25.9844 Q39.1875,27.0469 40.5313,27.0469 Q41.1563,27.0469 41.75,26.7813 Q42.3438,26.5 42.9688,25.9219 L42.9688,28.6406 Z " fill="#000000"/><text fill="#000000" font-family="sans-serif" font-size="14" lengthAdjust="spacing" textLength="85.6338" x="54" y="27.8467">Deployment</text><line style="stroke:#181818;stroke-width:0.5;" x1="26" x2="141.6338" y1="39" y2="39"/><line style="stroke:#181818;stroke-width:0.5;" x1="26" x2="141.6338" y1="47" y2="47"/></g><!--class FeatureOfInterest--><g class="entity" data-qualified-name="FeatureOfInterest" data-source-line="21" id="ent0046"><rect fill="#F1F1F1" height="48" rx="2.5" ry="2.5" style="stroke:#181818;stroke-width:0.5;" width="156.1816" x="178" y="7"/><ellipse cx="193" cy="23" fill="#ADD1B2" rx="11" ry="11" style="stroke:#181818;stroke-width:1;"/><path d="M195.9688,28.6406 Q195.3906,28.9375 194.75,29.0781 Q194.1094,29.2344 193.4063,29.2344 Q190.9063,29.2344 189.5781,27.5938 Q188.2656,25.9375 188.2656,22.8125 Q188.2656,19.6875 189.5781,18.0313 Q190.9063,16.375 193.4063,16.375 Q194.1094,16.375 194.75,16.5313 Q195.4063,16.6875 195.9688,16.9844 L195.9688,19.7031 Q195.3438,19.125 194.75,18.8594 Q194.1563,18.5781 193.5313,18.5781 Q192.1875,18.5781 191.5,19.6563 Q190.8125,20.7188 190.8125,22.8125 Q190.8125,24.9063 191.5,25.9844 Q192.1875,27.0469 193.5313,27.0469 Q194.1563,27.0469 194.75,26.7813 Q195.3438,26.5 195.9688,25.9219 L195.9688,28.6406 Z " fill="#000000"/><text fill="#000000" font-family="sans-serif" font-size="14" lengthAdjust="spacing" textLength="124.1816" x="207" y="27.8467">FeatureOfInterest</text><line style="stroke:#181818;stroke-width:0.5;" x1="179" x2="333.1816" y1="39" y2="39"/><line style="stroke:#181818;stroke-width:0.5;" x1="179" x2="333.1816" y1="47" y2="47"/></g><!--class Output--><g class="entity" data-qualified-name="Output" data-source-line="22" id="ent0047"><rect fill="#F1F1F1" height="48" rx="2.5" ry="2.5" style="stroke:#181818;stroke-width:0.5;" width="80.6309" x="369.5" y="7"/><ellipse cx="384.5" cy="23" fill="#ADD1B2" rx="11" ry="11" style="stroke:#181818;stroke-width:1;"/><path d="M387.4688,28.6406 Q386.8906,28.9375 386.25,29.0781 Q385.6094,29.2344 384.9063,29.2344 Q382.4063,29.2344 381.0781,27.5938 Q379.7656,25.9375 379.7656,22.8125 Q379.7656,19.6875 381.0781,18.0313 Q382.4063,16.375 384.9063,16.375 Q385.6094,16.375 386.25,16.5313 Q386.9063,16.6875 387.4688,16.9844 L387.4688,19.7031 Q386.8438,19.125 386.25,18.8594 Q385.6563,18.5781 385.0313,18.5781 Q383.6875,18.5781 383,19.6563 Q382.3125,20.7188 382.3125,22.8125 Q382.3125,24.9063 383,25.9844 Q383.6875,27.0469 385.0313,27.0469 Q385.6563,27.0469 386.25,26.7813 Q386.8438,26.5 387.4688,25.9219 L387.4688,28.6406 Z " fill="#000000"/><text fill="#000000" font-family="sans-serif" font-size="14" lengthAdjust="spacing" textLength="48.6309" x="398.5" y="27.8467">Output</text><line style="stroke:#181818;stroke-width:0.5;" x1="370.5" x2="449.1309" y1="39" y2="39"/><line style="stroke:#181818;stroke-width:0.5;" x1="370.5" x2="449.1309" y1="47" y2="47"/></g><!--class SampleCollection--><g class="entity" data-qualified-name="SampleCollection" data-source-line="24" id="ent0048"><rect fill="#F1F1F1" height="48" rx="2.5" ry="2.5" style="stroke:#181818;stroke-width:0.5;" width="153.7412" x="7" y="115"/><ellipse cx="22" cy="131" fill="#ADD1B2" rx="11" ry="11" style="stroke:#181818;stroke-width:1;"/><path d="M24.9688,136.6406 Q24.3906,136.9375 23.75,137.0781 Q23.1094,137.2344 22.4063,137.2344 Q19.9063,137.2344 18.5781,135.5938 Q17.2656,133.9375 17.2656,130.8125 Q17.2656,127.6875 18.5781,126.0313 Q19.9063,124.375 22.4063,124.375 Q23.1094,124.375 23.75,124.5313 Q24.4063,124.6875 24.9688,124.9844 L24.9688,127.7031 Q24.3438,127.125 23.75,126.8594 Q23.1563,126.5781 22.5313,126.5781 Q21.1875,126.5781 20.5,127.6563 Q19.8125,128.7188 19.8125,130.8125 Q19.8125,132.9063 20.5,133.9844 Q21.1875,135.0469 22.5313,135.0469 Q23.1563,135.0469 23.75,134.7813 Q24.3438,134.5 24.9688,133.9219 L24.9688,136.6406 Z " fill="#000000"/><text fill="#000000" font-family="sans-serif" font-size="14" lengthAdjust="spacing" textLength="121.7412" x="36" y="135.8467">SampleCollection</text><line style="stroke:#181818;stroke-width:0.5;" x1="8" x2="159.7412" y1="147" y2="147"/><line style="stroke:#181818;stroke-width:0.5;" x1="8" x2="159.7412" y1="155" y2="155"/></g><!--class Input--><g class="entity" data-qualified-name="Input" data-source-line="25" id="ent0049"><rect fill="#F1F1F1" height="48" rx="2.5" ry="2.5" style="stroke:#181818;stroke-width:0.5;" width="68.251" x="196" y="115"/><ellipse cx="211" cy="131" fill="#ADD1B2" rx="11" ry="11" style="stroke:#181818;stroke-width:1;"/><path d="M213.9688,136.6406 Q213.3906,136.9375 212.75,137.0781 Q212.1094,137.2344 211.4063,137.2344 Q208.9063,137.2344 207.5781,135.5938 Q206.2656,133.9375 206.2656,130.8125 Q206.2656,127.6875 207.5781,126.0313 Q208.9063,124.375 211.4063,124.375 Q212.1094,124.375 212.75,124.5313 Q213.4063,124.6875 213.9688,124.9844 L213.9688,127.7031 Q213.3438,127.125 212.75,126.8594 Q212.1563,126.5781 211.5313,126.5781 Q210.1875,126.5781 209.5,127.6563 Q208.8125,128.7188 208.8125,130.8125 Q208.8125,132.9063 209.5,133.9844 Q210.1875,135.0469 211.5313,135.0469 Q212.1563,135.0469 212.75,134.7813 Q213.3438,134.5 213.9688,133.9219 L213.9688,136.6406 Z " fill="#000000"/><text fill="#000000" font-family="sans-serif" font-size="14" lengthAdjust="spacing" textLength="36.251" x="225" y="135.8467">Input</text><line style="stroke:#181818;stroke-width:0.5;" x1="197" x2="263.251" y1="147" y2="147"/><line style="stroke:#181818;stroke-width:0.5;" x1="197" x2="263.251" y1="155" y2="155"/></g><!--class Result--><g class="entity" data-qualified-name="Result" data-source-line="26" id="ent0050"><rect fill="#F1F1F1" height="48" rx="2.5" ry="2.5" style="stroke:#181818;stroke-width:0.5;" width="75.8867" x="299" y="115"/><ellipse cx="314" cy="131" fill="#ADD1B2" rx="11" ry="11" style="stroke:#181818;stroke-width:1;"/><path d="M316.9688,136.6406 Q316.3906,136.9375 315.75,137.0781 Q315.1094,137.2344 314.4063,137.2344 Q311.9063,137.2344 310.5781,135.5938 Q309.2656,133.9375 309.2656,130.8125 Q309.2656,127.6875 310.5781,126.0313 Q311.9063,124.375 314.4063,124.375 Q315.1094,124.375 315.75,124.5313 Q316.4063,124.6875 316.9688,124.9844 L316.9688,127.7031 Q316.3438,127.125 315.75,126.8594 Q315.1563,126.5781 314.5313,126.5781 Q313.1875,126.5781 312.5,127.6563 Q311.8125,128.7188 311.8125,130.8125 Q311.8125,132.9063 312.5,133.9844 Q313.1875,135.0469 314.5313,135.0469 Q315.1563,135.0469 315.75,134.7813 Q316.3438,134.5 316.9688,133.9219 L316.9688,136.6406 Z " fill="#000000"/><text fill="#000000" font-family="sans-serif" font-size="14" lengthAdjust="spacing" textLength="43.8867" x="328" y="135.8467">Result</text><line style="stroke:#181818;stroke-width:0.5;" x1="300" x2="373.8867" y1="147" y2="147"/><line style="stroke:#181818;stroke-width:0.5;" x1="300" x2="373.8867" y1="155" y2="155"/></g><!--class Stimulus--><g class="entity" data-qualified-name="Stimulus" data-source-line="27" id="ent0051"><rect fill="#F1F1F1" height="48" rx="2.5" ry="2.5" style="stroke:#181818;stroke-width:0.5;" width="92.833" x="37.5" y="223"/><ellipse cx="52.5" cy="239" fill="#ADD1B2" rx="11" ry="11" style="stroke:#181818;stroke-width:1;"/><path d="M55.4688,244.6406 Q54.8906,244.9375 54.25,245.0781 Q53.6094,245.2344 52.9063,245.2344 Q50.4063,245.2344 49.0781,243.5938 Q47.7656,241.9375 47.7656,238.8125 Q47.7656,235.6875 49.0781,234.0313 Q50.4063,232.375 52.9063,232.375 Q53.6094,232.375 54.25,232.5313 Q54.9063,232.6875 55.4688,232.9844 L55.4688,235.7031 Q54.8438,235.125 54.25,234.8594 Q53.6563,234.5781 53.0313,234.5781 Q51.6875,234.5781 51,235.6563 Q50.3125,236.7188 50.3125,238.8125 Q50.3125,240.9063 51,241.9844 Q51.6875,243.0469 53.0313,243.0469 Q53.6563,243.0469 54.25,242.7813 Q54.8438,242.5 55.4688,241.9219 L55.4688,244.6406 Z " fill="#000000"/><text fill="#000000" font-family="sans-serif" font-size="14" lengthAdjust="spacing" textLength="60.833" x="66.5" y="243.8467">Stimulus</text><line style="stroke:#181818;stroke-width:0.5;" x1="38.5" x2="129.333" y1="255" y2="255"/><line style="stroke:#181818;stroke-width:0.5;" x1="38.5" x2="129.333" y1="263" y2="263"/></g><!--reverse link Property to ActuatableProperty--><g class="link" data-entity-1="ent0001" data-entity-2="ent0002" data-link-type="extension" data-source-line="1" id="lnk3"><path codeLine="1" d="M575.9411,66.8043 C555.6111,84.4643 541.26,96.94 520.84,114.68" fill="none" id="Property-backto-ActuatableProperty" style="stroke:#181818;stroke-width:1;"/><polygon fill="none" points="589.53,55,572.0063,62.2746,579.8758,71.3339,589.53,55" style="stroke:#181818;stroke-width:1;stroke-linejoin:miter;stroke-miterlimit:10;"/></g><!--reverse link Sample to MaterialSample--><g class="link" data-entity-1="ent0004" data-entity-2="ent0005" data-link-type="extension" data-source-line="2" id="lnk6"><path codeLine="2" d="M1010.3567,64.4445 C981.6067,82.1645 957.35,97.11 928.55,114.86" fill="none" id="Sample-backto-MaterialSample" style="stroke:#181818;stroke-width:1;"/><polygon fill="none" points="1025.68,55,1007.2086,59.3367,1013.5049,69.5522,1025.68,55" style="stroke:#181818;stroke-width:1;stroke-linejoin:miter;stroke-miterlimit:10;"/></g><!--reverse link Sample to SpatialSample--><g class="link" data-entity-1="ent0004" data-entity-2="ent0007" data-link-type="extension" data-source-line="3" id="lnk8"><path codeLine="3" d="M1063,73 C1063,90.66 1063,96.94 1063,114.68" fill="none" id="Sample-backto-SpatialSample" style="stroke:#181818;stroke-width:1;"/><polygon fill="none" points="1063,55,1057,73,1069,73,1063,55" style="stroke:#181818;stroke-width:1;stroke-linejoin:miter;stroke-miterlimit:10;"/></g><!--reverse link Sample to StatisticalSample--><g class="link" data-entity-1="ent0004" data-entity-2="ent0009" data-link-type="extension" data-source-line="4" id="lnk10"><path codeLine="4" d="M1117.3276,64.1725 C1147.2476,81.8925 1172.95,97.11 1202.93,114.86" fill="none" id="Sample-backto-StatisticalSample" style="stroke:#181818;stroke-width:1;"/><polygon fill="none" points="1101.84,55,1114.2701,69.335,1120.3851,59.0099,1101.84,55" style="stroke:#181818;stroke-width:1;stroke-linejoin:miter;stroke-miterlimit:10;"/></g><!--reverse link Property to ObservableProperty--><g class="link" data-entity-1="ent0001" data-entity-2="ent0011" data-link-type="extension" data-source-line="5" id="lnk12"><path codeLine="5" d="M645.1081,69.1715 C658.9381,86.8315 666.85,96.94 680.74,114.68" fill="none" id="Property-backto-ObservableProperty" style="stroke:#181818;stroke-width:1;"/><polygon fill="none" points="634.01,55,640.3842,72.8709,649.8319,65.4722,634.01,55" style="stroke:#181818;stroke-width:1;stroke-linejoin:miter;stroke-miterlimit:10;"/></g><!--reverse link Procedure to ActuatingProcedure--><g class="link" data-entity-1="ent0013" data-entity-2="ent0014" data-link-type="extension" data-source-line="6" id="lnk15"><path codeLine="6" d="M1586.8326,63.1732 C1552.0626,80.8932 1520.24,97.11 1485.4,114.86" fill="none" id="Procedure-backto-ActuatingProcedure" style="stroke:#181818;stroke-width:1;"/><polygon fill="none" points="1602.87,55,1584.1082,57.8274,1589.557,68.519,1602.87,55" style="stroke:#181818;stroke-width:1;stroke-linejoin:miter;stroke-miterlimit:10;"/></g><!--reverse link Procedure to ObservingProcedure--><g class="link" data-entity-1="ent0013" data-entity-2="ent0016" data-link-type="extension" data-source-line="7" id="lnk17"><path codeLine="7" d="M1648,73 C1648,90.66 1648,96.94 1648,114.68" fill="none" id="Procedure-backto-ObservingProcedure" style="stroke:#181818;stroke-width:1;"/><polygon fill="none" points="1648,55,1642,73,1654,73,1648,55" style="stroke:#181818;stroke-width:1;stroke-linejoin:miter;stroke-miterlimit:10;"/></g><!--reverse link Procedure to SamplingProcedure--><g class="link" data-entity-1="ent0013" data-entity-2="ent0018" data-link-type="extension" data-source-line="8" id="lnk19"><path codeLine="8" d="M1708.9411,63.205 C1743.5411,80.925 1775.15,97.11 1809.81,114.86" fill="none" id="Procedure-backto-SamplingProcedure" style="stroke:#181818;stroke-width:1;"/><polygon fill="none" points="1692.92,55,1706.2061,68.5454,1711.6762,57.8647,1692.92,55" style="stroke:#181818;stroke-width:1;stroke-linejoin:miter;stroke-miterlimit:10;"/></g><!--reverse link Asset to Platform--><g class="link" data-entity-1="ent0020" data-entity-2="ent0021" data-link-type="extension" data-source-line="9" id="lnk22"><path codeLine="9" d="M2058.7839,70.6022 C2048.6239,88.2622 2043.63,96.94 2033.42,114.68" fill="none" id="Asset-backto-Platform" style="stroke:#181818;stroke-width:1;"/><polygon fill="none" points="2067.76,55,2053.5831,67.6102,2063.9846,73.5943,2067.76,55" style="stroke:#181818;stroke-width:1;stroke-linejoin:miter;stroke-miterlimit:10;"/></g><!--reverse link System to Sampler--><g class="link" data-entity-1="ent0023" data-entity-2="ent0024" data-link-type="extension" data-source-line="10" id="lnk25"><path codeLine="10" d="M2101.8865,174.5884 C2080.8965,192.2484 2065.81,204.94 2044.72,222.68" fill="none" id="System-backto-Sampler" style="stroke:#181818;stroke-width:1;"/><polygon fill="none" points="2115.66,163,2098.0237,169.9972,2105.7493,179.1795,2115.66,163" style="stroke:#181818;stroke-width:1;stroke-linejoin:miter;stroke-miterlimit:10;"/></g><!--reverse link System to Actuator--><g class="link" data-entity-1="ent0023" data-entity-2="ent0026" data-link-type="extension" data-source-line="11" id="lnk27"><path codeLine="11" d="M2143,181 C2143,198.66 2143,204.94 2143,222.68" fill="none" id="System-backto-Actuator" style="stroke:#181818;stroke-width:1;"/><polygon fill="none" points="2143,163,2137,181,2149,181,2143,163" style="stroke:#181818;stroke-width:1;stroke-linejoin:miter;stroke-miterlimit:10;"/></g><!--reverse link Asset to System--><g class="link" data-entity-1="ent0020" data-entity-2="ent0023" data-link-type="extension" data-source-line="12" id="lnk28"><path codeLine="12" d="M2103.5383,70.5372 C2113.8683,88.1972 2118.98,96.94 2129.36,114.68" fill="none" id="Asset-backto-System" style="stroke:#181818;stroke-width:1;"/><polygon fill="none" points="2094.45,55,2098.3592,73.5666,2108.7173,67.5077,2094.45,55" style="stroke:#181818;stroke-width:1;stroke-linejoin:miter;stroke-miterlimit:10;"/></g><!--reverse link Execution to Sampling--><g class="link" data-entity-1="ent0029" data-entity-2="ent0030" data-link-type="extension" data-source-line="13" id="lnk31"><path codeLine="13" d="M2359.8041,66.1688 C2337.4841,83.8288 2320.91,96.94 2298.48,114.68" fill="none" id="Execution-backto-Sampling" style="stroke:#181818;stroke-width:1;"/><polygon fill="none" points="2373.92,55,2356.0812,61.4635,2363.527,70.8741,2373.92,55" style="stroke:#181818;stroke-width:1;stroke-linejoin:miter;stroke-miterlimit:10;"/></g><!--reverse link ExecutionCollection to SamplingCollection--><g class="link" data-entity-1="ent0032" data-entity-2="ent0033" data-link-type="extension" data-source-line="14" id="lnk34"><path codeLine="14" d="M2865.231,63.3636 C2831.461,81.0836 2800.93,97.11 2767.09,114.86" fill="none" id="ExecutionCollection-backto-SamplingCollection" style="stroke:#181818;stroke-width:1;"/><polygon fill="none" points="2881.17,55,2862.4432,58.0506,2868.0189,68.6766,2881.17,55" style="stroke:#181818;stroke-width:1;stroke-linejoin:miter;stroke-miterlimit:10;"/></g><!--reverse link Execution to Actuation--><g class="link" data-entity-1="ent0029" data-entity-2="ent0035" data-link-type="extension" data-source-line="15" id="lnk36"><path codeLine="15" d="M2403,73 C2403,90.66 2403,96.94 2403,114.68" fill="none" id="Execution-backto-Actuation" style="stroke:#181818;stroke-width:1;"/><polygon fill="none" points="2403,55,2397,73,2409,73,2403,55" style="stroke:#181818;stroke-width:1;stroke-linejoin:miter;stroke-miterlimit:10;"/></g><!--reverse link System to Sensor--><g class="link" data-entity-1="ent0023" data-entity-2="ent0037" data-link-type="extension" data-source-line="16" id="lnk38"><path codeLine="16" d="M2182.7968,174.864 C2202.9468,192.524 2217.13,204.94 2237.38,222.68" fill="none" id="System-backto-Sensor" style="stroke:#181818;stroke-width:1;"/><polygon fill="none" points="2169.26,163,2178.8421,179.3763,2186.7515,170.3518,2169.26,163" style="stroke:#181818;stroke-width:1;stroke-linejoin:miter;stroke-miterlimit:10;"/></g><!--reverse link ExecutionCollection to ActuationCollection--><g class="link" data-entity-1="ent0032" data-entity-2="ent0039" data-link-type="extension" data-source-line="17" id="lnk40"><path codeLine="17" d="M2925,73 C2925,90.66 2925,96.94 2925,114.68" fill="none" id="ExecutionCollection-backto-ActuationCollection" style="stroke:#181818;stroke-width:1;"/><polygon fill="none" points="2925,55,2919,73,2931,73,2925,55" style="stroke:#181818;stroke-width:1;stroke-linejoin:miter;stroke-miterlimit:10;"/></g><!--reverse link ExecutionCollection to ObservationCollection--><g class="link" data-entity-1="ent0032" data-entity-2="ent0041" data-link-type="extension" data-source-line="18" id="lnk42"><path codeLine="18" d="M2987.0997,63.0498 C3022.5397,80.7698 3055.22,97.11 3090.72,114.86" fill="none" id="ExecutionCollection-backto-ObservationCollection" style="stroke:#181818;stroke-width:1;"/><polygon fill="none" points="2971,55,2984.4164,68.4164,2989.783,57.6833,2971,55" style="stroke:#181818;stroke-width:1;stroke-linejoin:miter;stroke-miterlimit:10;"/></g><!--reverse link Execution to Observation--><g class="link" data-entity-1="ent0029" data-entity-2="ent0043" data-link-type="extension" data-source-line="19" id="lnk44"><path codeLine="19" d="M2448.4895,65.7202 C2472.3095,83.3802 2490.61,96.94 2514.54,114.68" fill="none" id="Execution-backto-Observation" style="stroke:#181818;stroke-width:1;"/><polygon fill="none" points="2434.03,55,2444.9161,70.54,2452.0629,60.9004,2434.03,55" style="stroke:#181818;stroke-width:1;stroke-linejoin:miter;stroke-miterlimit:10;"/></g><?plantuml-src VL99RiCm3Bpx5Vv0Vj1Bq0N8eR1Hlu1HcK80jK2aYXheuoj4yY8xxasS6N961FlWF0OPswVVqwazAuaWS2Ni2zuCO3nXfjz1C6YWZ5NKu44E64aCYrOpsrUUtPKnV5UUwQ7mCmPSfzBsQyQtYZpZFyNTkXAScL4osHF8pGNJ32CBcbK7XWhBILnODsU-UVr15KKxM_ij-BCZGhLNBFXsHlbt8gfSQ3abE9mxTpqQl1MNvH_9Tw964J2tB-Z9ZGQj5E0DGT9Ikzl5fXD1dl0kYezJKJPLYljwLwOPljX5_u4SQMuMRI95Vbpk0astz0S0?></g></svg>