<svg xmlns="http://www.w3.org/2000/svg" xmlns:xlink="http://www.w3.org/1999/xlink" contentStyleType="text/css" data-diagram-type="CLASS" height="286px" preserveAspectRatio="none" style="width:3265px;height:286px;background:#FFFFFF;" version="1.1" viewBox="0 0 3265 286" width="3265px" zoomAndPan="magnify"><?plantuml 1.2026.6?><defs/><g><!--class Property--><g class="entity" data-qualified-name="Property" data-source-line="1" id="ent0001"><rect fill="#F1F1F1" height="48" rx="2.5" ry="2.5" style="stroke:#181818;stroke-width:0.5;" width="91.7939" x="576" y="7"/><ellipse cx="591" cy="23" fill="#ADD1B2" rx="11" ry="11" style="stroke:#181818;stroke-width:1;"/><path d="M593.9688,28.6406 Q593.3906,28.9375 592.75,29.0781 Q592.1094,29.2344 591.4063,29.2344 Q588.9063,29.2344 587.5781,27.5938 Q586.2656,25.9375 586.2656,22.8125 Q586.2656,19.6875 587.5781,18.0313 Q588.9063,16.375 591.4063,16.375 Q592.1094,16.375 592.75,16.5313 Q593.4063,16.6875 593.9688,16.9844 L593.9688,19.7031 Q593.3438,19.125 592.75,18.8594 Q592.1563,18.5781 591.5313,18.5781 Q590.1875,18.5781 589.5,19.6563 Q588.8125,20.7188 588.8125,22.8125 Q588.8125,24.9063 589.5,25.9844 Q590.1875,27.0469 591.5313,27.0469 Q592.1563,27.0469 592.75,26.7813 Q593.3438,26.5 593.9688,25.9219 L593.9688,28.6406 Z " fill="#000000"/><text fill="#000000" font-family="sans-serif" font-size="14" lengthAdjust="spacing" textLength="59.7939" x="605" y="27.8467">Property</text><line style="stroke:#181818;stroke-width:0.5;" x1="577" x2="666.7939" y1="39" y2="39"/><line style="stroke:#181818;stroke-width:0.5;" x1="577" x2="666.7939" y1="47" y2="47"/></g><!--class ActuatableProperty--><g class="entity" data-qualified-name="ActuatableProperty" data-source-line="1" id="ent0002"><rect fill="#F1F1F1" height="48" rx="2.5" ry="2.5" style="stroke:#181818;stroke-width:0.5;" width="167.4678" x="430.5" y="115"/><ellipse cx="445.5" cy="131" fill="#ADD1B2" rx="11" ry="11" style="stroke:#181818;stroke-width:1;"/><path d="M448.4688,136.6406 Q447.8906,136.9375 447.25,137.0781 Q446.6094,137.2344 445.9063,137.2344 Q443.4063,137.2344 442.0781,135.5938 Q440.7656,133.9375 440.7656,130.8125 Q440.7656,127.6875 442.0781,126.0313 Q443.4063,124.375 445.9063,124.375 Q446.6094,124.375 447.25,124.5313 Q447.9063,124.6875 448.4688,124.9844 L448.4688,127.7031 Q447.8438,127.125 447.25,126.8594 Q446.6563,126.5781 446.0313,126.5781 Q444.6875,126.5781 444,127.6563 Q443.3125,128.7188 443.3125,130.8125 Q443.3125,132.9063 444,133.9844 Q444.6875,135.0469 446.0313,135.0469 Q446.6563,135.0469 447.25,134.7813 Q447.8438,134.5 448.4688,133.9219 L448.4688,136.6406 Z " fill="#000000"/><text fill="#000000" font-family="sans-serif" font-size="14" lengthAdjust="spacing" textLength="135.4678" x="459.5" y="135.8467">ActuatableProperty</text><line style="stroke:#181818;stroke-width:0.5;" x1="431.5" x2="596.9678" y1="147" y2="147"/><line style="stroke:#181818;stroke-width:0.5;" x1="431.5" x2="596.9678" y1="155" y2="155"/></g><!--class Sample--><g class="entity" data-qualified-name="Sample" data-source-line="2" id="ent0004"><rect fill="#F1F1F1" height="48" rx="2.5" ry="2.5" style="stroke:#181818;stroke-width:0.5;" width="84.4932" x="1041" y="7"/><ellipse cx="1056" cy="23" fill="#ADD1B2" rx="11" ry="11" style="stroke:#181818;stroke-width:1;"/><path d="M1058.9688,28.6406 Q1058.3906,28.9375 1057.75,29.0781 Q1057.1094,29.2344 1056.4063,29.2344 Q1053.9063,29.2344 1052.5781,27.5938 Q1051.2656,25.9375 1051.2656,22.8125 Q1051.2656,19.6875 1052.5781,18.0313 Q1053.9063,16.375 1056.4063,16.375 Q1057.1094,16.375 1057.75,16.5313 Q1058.4063,16.6875 1058.9688,16.9844 L1058.9688,19.7031 Q1058.3438,19.125 1057.75,18.8594 Q1057.1563,18.5781 1056.5313,18.5781 Q1055.1875,18.5781 1054.5,19.6563 Q1053.8125,20.7188 1053.8125,22.8125 Q1053.8125,24.9063 1054.5,25.9844 Q1055.1875,27.0469 1056.5313,27.0469 Q1057.1563,27.0469 1057.75,26.7813 Q1058.3438,26.5 1058.9688,25.9219 L1058.9688,28.6406 Z " fill="#000000"/><text fill="#000000" font-family="sans-serif" font-size="14" lengthAdjust="spacing" textLength="52.4932" x="1070" y="27.8467">Sample</text><line style="stroke:#181818;stroke-width:0.5;" x1="1042" x2="1124.4932" y1="39" y2="39"/><line style="stroke:#181818;stroke-width:0.5;" x1="1042" x2="1124.4932" y1="47" y2="47"/></g><!--class MaterialSample--><g class="entity" data-qualified-name="MaterialSample" data-source-line="2" id="ent0005"><rect fill="#F1F1F1" height="48" rx="2.5" ry="2.5" style="stroke:#181818;stroke-width:0.5;" width="141.3682" x="840.5" y="115"/><ellipse cx="855.5" cy="131" fill="#ADD1B2" rx="11" ry="11" style="stroke:#181818;stroke-width:1;"/><path d="M858.4688,136.6406 Q857.8906,136.9375 857.25,137.0781 Q856.6094,137.2344 855.9063,137.2344 Q853.4063,137.2344 852.0781,135.5938 Q850.7656,133.9375 850.7656,130.8125 Q850.7656,127.6875 852.0781,126.0313 Q853.4063,124.375 855.9063,124.375 Q856.6094,124.375 857.25,124.5313 Q857.9063,124.6875 858.4688,124.9844 L858.4688,127.7031 Q857.8438,127.125 857.25,126.8594 Q856.6563,126.5781 856.0313,126.5781 Q854.6875,126.5781 854,127.6563 Q853.3125,128.7188 853.3125,130.8125 Q853.3125,132.9063 854,133.9844 Q854.6875,135.0469 856.0313,135.0469 Q856.6563,135.0469 857.25,134.7813 Q857.8438,134.5 858.4688,133.9219 L858.4688,136.6406 Z " fill="#000000"/><text fill="#000000" font-family="sans-serif" font-size="14" lengthAdjust="spacing" textLength="109.3682" x="869.5" y="135.8467">MaterialSample</text><line style="stroke:#181818;stroke-width:0.5;" x1="841.5" x2="980.8682" y1="147" y2="147"/><line style="stroke:#181818;stroke-width:0.5;" x1="841.5" x2="980.8682" y1="155" y2="155"/></g><!--class SpatialSample--><g class="entity" data-qualified-name="SpatialSample" data-source-line="3" id="ent0007"><rect fill="#F1F1F1" height="48" rx="2.5" ry="2.5" style="stroke:#181818;stroke-width:0.5;" width="132.6934" x="1016.5" y="115"/><ellipse cx="1031.5" cy="131" fill="#ADD1B2" rx="11" ry="11" style="stroke:#181818;stroke-width:1;"/><path d="M1034.4688,136.6406 Q1033.8906,136.9375 1033.25,137.0781 Q1032.6094,137.2344 1031.9063,137.2344 Q1029.4063,137.2344 1028.0781,135.5938 Q1026.7656,133.9375 1026.7656,130.8125 Q1026.7656,127.6875 1028.0781,126.0313 Q1029.4063,124.375 1031.9063,124.375 Q1032.6094,124.375 1033.25,124.5313 Q1033.9063,124.6875 1034.4688,124.9844 L1034.4688,127.7031 Q1033.8438,127.125 1033.25,126.8594 Q1032.6563,126.5781 1032.0313,126.5781 Q1030.6875,126.5781 1030,127.6563 Q1029.3125,128.7188 1029.3125,130.8125 Q1029.3125,132.9063 1030,133.9844 Q1030.6875,135.0469 1032.0313,135.0469 Q1032.6563,135.0469 1033.25,134.7813 Q1033.8438,134.5 1034.4688,133.9219 L1034.4688,136.6406 Z " fill="#000000"/><text fill="#000000" font-family="sans-serif" font-size="14" lengthAdjust="spacing" textLength="100.6934" x="1045.5" y="135.8467">SpatialSample</text><line style="stroke:#181818;stroke-width:0.5;" x1="1017.5" x2="1148.1934" y1="147" y2="147"/><line style="stroke:#181818;stroke-width:0.5;" x1="1017.5" x2="1148.1934" y1="155" y2="155"/></g><!--class StatisticalSample--><g class="entity" data-qualified-name="StatisticalSample" data-source-line="4" id="ent0009"><rect fill="#F1F1F1" height="48" rx="2.5" ry="2.5" style="stroke:#181818;stroke-width:0.5;" width="153.666" x="1185" y="115"/><ellipse cx="1200" cy="131" fill="#ADD1B2" rx="11" ry="11" style="stroke:#181818;stroke-width:1;"/><path d="M1202.9688,136.6406 Q1202.3906,136.9375 1201.75,137.0781 Q1201.1094,137.2344 1200.4063,137.2344 Q1197.9063,137.2344 1196.5781,135.5938 Q1195.2656,133.9375 1195.2656,130.8125 Q1195.2656,127.6875 1196.5781,126.0313 Q1197.9063,124.375 1200.4063,124.375 Q1201.1094,124.375 1201.75,124.5313 Q1202.4063,124.6875 1202.9688,124.9844 L1202.9688,127.7031 Q1202.3438,127.125 1201.75,126.8594 Q1201.1563,126.5781 1200.5313,126.5781 Q1199.1875,126.5781 1198.5,127.6563 Q1197.8125,128.7188 1197.8125,130.8125 Q1197.8125,132.9063 1198.5,133.9844 Q1199.1875,135.0469 1200.5313,135.0469 Q1201.1563,135.0469 1201.75,134.7813 Q1202.3438,134.5 1202.9688,133.9219 L1202.9688,136.6406 Z " fill="#000000"/><text fill="#000000" font-family="sans-serif" font-size="14" lengthAdjust="spacing" textLength="121.666" x="1214" y="135.8467">StatisticalSample</text><line style="stroke:#181818;stroke-width:0.5;" x1="1186" x2="1337.666" y1="147" y2="147"/><line style="stroke:#181818;stroke-width:0.5;" x1="1186" x2="1337.666" y1="155" y2="155"/></g><!--class ObservableProperty--><g class="entity" data-qualified-name="ObservableProperty" data-source-line="5" id="ent0011"><rect fill="#F1F1F1" height="48" rx="2.5" ry="2.5" style="stroke:#181818;stroke-width:0.5;" width="171.6172" x="633" y="115"/><ellipse cx="648" cy="131" fill="#ADD1B2" rx="11" ry="11" style="stroke:#181818;stroke-width:1;"/><path d="M650.9688,136.6406 Q650.3906,136.9375 649.75,137.0781 Q649.1094,137.2344 648.4063,137.2344 Q645.9063,137.2344 644.5781,135.5938 Q643.2656,133.9375 643.2656,130.8125 Q643.2656,127.6875 644.5781,126.0313 Q645.9063,124.375 648.4063,124.375 Q649.1094,124.375 649.75,124.5313 Q650.4063,124.6875 650.9688,124.9844 L650.9688,127.7031 Q650.3438,127.125 649.75,126.8594 Q649.1563,126.5781 648.5313,126.5781 Q647.1875,126.5781 646.5,127.6563 Q645.8125,128.7188 645.8125,130.8125 Q645.8125,132.9063 646.5,133.9844 Q647.1875,135.0469 648.5313,135.0469 Q649.1563,135.0469 649.75,134.7813 Q650.3438,134.5 650.9688,133.9219 L650.9688,136.6406 Z " fill="#000000"/><text fill="#000000" font-family="sans-serif" font-size="14" lengthAdjust="spacing" textLength="139.6172" x="662" y="135.8467">ObservableProperty</text><line style="stroke:#181818;stroke-width:0.5;" x1="634" x2="803.6172" y1="147" y2="147"/><line style="stroke:#181818;stroke-width:0.5;" x1="634" x2="803.6172" y1="155" y2="155"/></g><!--class Procedure--><g class="entity" data-qualified-name="Procedure" data-source-line="6" id="ent0013"><rect fill="#F1F1F1" height="48" rx="2.5" ry="2.5" style="stroke:#181818;stroke-width:0.5;" width="103.2031" x="1616.5" y="7"/><ellipse cx="1631.5" cy="23" fill="#ADD1B2" rx="11" ry="11" style="stroke:#181818;stroke-width:1;"/><path d="M1634.4688,28.6406 Q1633.8906,28.9375 1633.25,29.0781 Q1632.6094,29.2344 1631.9063,29.2344 Q1629.4063,29.2344 1628.0781,27.5938 Q1626.7656,25.9375 1626.7656,22.8125 Q1626.7656,19.6875 1628.0781,18.0313 Q1629.4063,16.375 1631.9063,16.375 Q1632.6094,16.375 1633.25,16.5313 Q1633.9063,16.6875 1634.4688,16.9844 L1634.4688,19.7031 Q1633.8438,19.125 1633.25,18.8594 Q1632.6563,18.5781 1632.0313,18.5781 Q1630.6875,18.5781 1630,19.6563 Q1629.3125,20.7188 1629.3125,22.8125 Q1629.3125,24.9063 1630,25.9844 Q1630.6875,27.0469 1632.0313,27.0469 Q1632.6563,27.0469 1633.25,26.7813 Q1633.8438,26.5 1634.4688,25.9219 L1634.4688,28.6406 Z " fill="#000000"/><text fill="#000000" font-family="sans-serif" font-size="14" lengthAdjust="spacing" textLength="71.2031" x="1645.5" y="27.8467">Procedure</text><line style="stroke:#181818;stroke-width:0.5;" x1="1617.5" x2="1718.7031" y1="39" y2="39"/><line style="stroke:#181818;stroke-width:0.5;" x1="1617.5" x2="1718.7031" y1="47" y2="47"/></g><!--class ActuatingProcedure--><g class="entity" data-qualified-name="ActuatingProcedure" data-source-line="6" id="ent0014"><rect fill="#F1F1F1" height="48" rx="2.5" ry="2.5" style="stroke:#181818;stroke-width:0.5;" width="170.5576" x="1374.5" y="115"/><ellipse cx="1389.5" cy="131" fill="#ADD1B2" rx="11" ry="11" style="stroke:#181818;stroke-width:1;"/><path d="M1392.4688,136.6406 Q1391.8906,136.9375 1391.25,137.0781 Q1390.6094,137.2344 1389.9063,137.2344 Q1387.4063,137.2344 1386.0781,135.5938 Q1384.7656,133.9375 1384.7656,130.8125 Q1384.7656,127.6875 1386.0781,126.0313 Q1387.4063,124.375 1389.9063,124.375 Q1390.6094,124.375 1391.25,124.5313 Q1391.9063,124.6875 1392.4688,124.9844 L1392.4688,127.7031 Q1391.8438,127.125 1391.25,126.8594 Q1390.6563,126.5781 1390.0313,126.5781 Q1388.6875,126.5781 1388,127.6563 Q1387.3125,128.7188 1387.3125,130.8125 Q1387.3125,132.9063 1388,133.9844 Q1388.6875,135.0469 1390.0313,135.0469 Q1390.6563,135.0469 1391.25,134.7813 Q1391.8438,134.5 1392.4688,133.9219 L1392.4688,136.6406 Z " fill="#000000"/><text fill="#000000" font-family="sans-serif" font-size="14" lengthAdjust="spacing" textLength="138.5576" x="1403.5" y="135.8467">ActuatingProcedure</text><line style="stroke:#181818;stroke-width:0.5;" x1="1375.5" x2="1544.0576" y1="147" y2="147"/><line style="stroke:#181818;stroke-width:0.5;" x1="1375.5" x2="1544.0576" y1="155" y2="155"/></g><!--class ObservingProcedure--><g class="entity" data-qualified-name="ObservingProcedure" data-source-line="7" id="ent0016"><rect fill="#F1F1F1" height="48" rx="2.5" ry="2.5" style="stroke:#181818;stroke-width:0.5;" width="174.707" x="1580.5" y="115"/><ellipse cx="1595.5" cy="131" fill="#ADD1B2" rx="11" ry="11" style="stroke:#181818;stroke-width:1;"/><path d="M1598.4688,136.6406 Q1597.8906,136.9375 1597.25,137.0781 Q1596.6094,137.2344 1595.9063,137.2344 Q1593.4063,137.2344 1592.0781,135.5938 Q1590.7656,133.9375 1590.7656,130.8125 Q1590.7656,127.6875 1592.0781,126.0313 Q1593.4063,124.375 1595.9063,124.375 Q1596.6094,124.375 1597.25,124.5313 Q1597.9063,124.6875 1598.4688,124.9844 L1598.4688,127.7031 Q1597.8438,127.125 1597.25,126.8594 Q1596.6563,126.5781 1596.0313,126.5781 Q1594.6875,126.5781 1594,127.6563 Q1593.3125,128.7188 1593.3125,130.8125 Q1593.3125,132.9063 1594,133.9844 Q1594.6875,135.0469 1596.0313,135.0469 Q1596.6563,135.0469 1597.25,134.7813 Q1597.8438,134.5 1598.4688,133.9219 L1598.4688,136.6406 Z " fill="#000000"/><text fill="#000000" font-family="sans-serif" font-size="14" lengthAdjust="spacing" textLength="142.707" x="1609.5" y="135.8467">ObservingProcedure</text><line style="stroke:#181818;stroke-width:0.5;" x1="1581.5" x2="1754.207" y1="147" y2="147"/><line style="stroke:#181818;stroke-width:0.5;" x1="1581.5" x2="1754.207" y1="155" y2="155"/></g><!--class SamplingProcedure--><g class="entity" data-qualified-name="SamplingProcedure" data-source-line="8" id="ent0018"><rect fill="#F1F1F1" height="48" rx="2.5" ry="2.5" style="stroke:#181818;stroke-width:0.5;" width="168.7324" x="1790.5" y="115"/><ellipse cx="1805.5" cy="131" fill="#ADD1B2" rx="11" ry="11" style="stroke:#181818;stroke-width:1;"/><path d="M1808.4688,136.6406 Q1807.8906,136.9375 1807.25,137.0781 Q1806.6094,137.2344 1805.9063,137.2344 Q1803.4063,137.2344 1802.0781,135.5938 Q1800.7656,133.9375 1800.7656,130.8125 Q1800.7656,127.6875 1802.0781,126.0313 Q1803.4063,124.375 1805.9063,124.375 Q1806.6094,124.375 1807.25,124.5313 Q1807.9063,124.6875 1808.4688,124.9844 L1808.4688,127.7031 Q1807.8438,127.125 1807.25,126.8594 Q1806.6563,126.5781 1806.0313,126.5781 Q1804.6875,126.5781 1804,127.6563 Q1803.3125,128.7188 1803.3125,130.8125 Q1803.3125,132.9063 1804,133.9844 Q1804.6875,135.0469 1806.0313,135.0469 Q1806.6563,135.0469 1807.25,134.7813 Q1807.8438,134.5 1808.4688,133.9219 L1808.4688,136.6406 Z " fill="#000000"/><text fill="#000000" font-family="sans-serif" font-size="14" lengthAdjust="spacing" textLength="136.7324" x="1819.5" y="135.8467">SamplingProcedure</text><line style="stroke:#181818;stroke-width:0.5;" x1="1791.5" x2="1958.2324" y1="147" y2="147"/><line style="stroke:#181818;stroke-width:0.5;" x1="1791.5" x2="1958.2324" y1="155" y2="155"/></g><!--class Asset--><g class="entity" data-qualified-name="Asset" data-source-line="9" id="ent0020"><rect fill="#F1F1F1" height="48" rx="2.5" ry="2.5" style="stroke:#181818;stroke-width:0.5;" width="70.2676" x="2066" y="7"/><ellipse cx="2081" cy="23" fill="#ADD1B2" rx="11" ry="11" style="stroke:#181818;stroke-width:1;"/><path d="M2083.9688,28.6406 Q2083.3906,28.9375 2082.75,29.0781 Q2082.1094,29.2344 2081.4063,29.2344 Q2078.9063,29.2344 2077.5781,27.5938 Q2076.2656,25.9375 2076.2656,22.8125 Q2076.2656,19.6875 2077.5781,18.0313 Q2078.9063,16.375 2081.4063,16.375 Q2082.1094,16.375 2082.75,16.5313 Q2083.4063,16.6875 2083.9688,16.9844 L2083.9688,19.7031 Q2083.3438,19.125 2082.75,18.8594 Q2082.1563,18.5781 2081.5313,18.5781 Q2080.1875,18.5781 2079.5,19.6563 Q2078.8125,20.7188 2078.8125,22.8125 Q2078.8125,24.9063 2079.5,25.9844 Q2080.1875,27.0469 2081.5313,27.0469 Q2082.1563,27.0469 2082.75,26.7813 Q2083.3438,26.5 2083.9688,25.9219 L2083.9688,28.6406 Z " fill="#000000"/><text fill="#000000" font-family="sans-serif" font-size="14" lengthAdjust="spacing" textLength="38.2676" x="2095" y="27.8467">Asset</text><line style="stroke:#181818;stroke-width:0.5;" x1="2067" x2="2135.2676" y1="39" y2="39"/><line style="stroke:#181818;stroke-width:0.5;" x1="2067" x2="2135.2676" y1="47" y2="47"/></g><!--class Platform--><g class="entity" data-qualified-name="Platform" data-source-line="9" id="ent0021"><rect fill="#F1F1F1" height="48" rx="2.5" ry="2.5" style="stroke:#181818;stroke-width:0.5;" width="91.2881" x="1994.5" y="115"/><ellipse cx="2009.5" cy="131" fill="#ADD1B2" rx="11" ry="11" style="stroke:#181818;stroke-width:1;"/><path d="M2012.4688,136.6406 Q2011.8906,136.9375 2011.25,137.0781 Q2010.6094,137.2344 2009.9063,137.2344 Q2007.4063,137.2344 2006.0781,135.5938 Q2004.7656,133.9375 2004.7656,130.8125 Q2004.7656,127.6875 2006.0781,126.0313 Q2007.4063,124.375 2009.9063,124.375 Q2010.6094,124.375 2011.25,124.5313 Q2011.9063,124.6875 2012.4688,124.9844 L2012.4688,127.7031 Q2011.8438,127.125 2011.25,126.8594 Q2010.6563,126.5781 2010.0313,126.5781 Q2008.6875,126.5781 2008,127.6563 Q2007.3125,128.7188 2007.3125,130.8125 Q2007.3125,132.9063 2008,133.9844 Q2008.6875,135.0469 2010.0313,135.0469 Q2010.6563,135.0469 2011.25,134.7813 Q2011.8438,134.5 2012.4688,133.9219 L2012.4688,136.6406 Z " fill="#000000"/><text fill="#000000" font-family="sans-serif" font-size="14" lengthAdjust="spacing" textLength="59.2881" x="2023.5" y="135.8467">Platform</text><line style="stroke:#181818;stroke-width:0.5;" x1="1995.5" x2="2084.7881" y1="147" y2="147"/><line style="stroke:#181818;stroke-width:0.5;" x1="1995.5" x2="2084.7881" y1="155" y2="155"/></g><!--class System--><g class="entity" data-qualified-name="System" data-source-line="10" id="ent0023"><rect fill="#F1F1F1" height="48" rx="2.5" ry="2.5" style="stroke:#181818;stroke-width:0.5;" width="84.2061" x="2121" y="115"/><ellipse cx="2136" cy="131" fill="#ADD1B2" rx="11" ry="11" style="stroke:#181818;stroke-width:1;"/><path d="M2138.9688,136.6406 Q2138.3906,136.9375 2137.75,137.0781 Q2137.1094,137.2344 2136.4063,137.2344 Q2133.9063,137.2344 2132.5781,135.5938 Q2131.2656,133.9375 2131.2656,130.8125 Q2131.2656,127.6875 2132.5781,126.0313 Q2133.9063,124.375 2136.4063,124.375 Q2137.1094,124.375 2137.75,124.5313 Q2138.4063,124.6875 2138.9688,124.9844 L2138.9688,127.7031 Q2138.3438,127.125 2137.75,126.8594 Q2137.1563,126.5781 2136.5313,126.5781 Q2135.1875,126.5781 2134.5,127.6563 Q2133.8125,128.7188 2133.8125,130.8125 Q2133.8125,132.9063 2134.5,133.9844 Q2135.1875,135.0469 2136.5313,135.0469 Q2137.1563,135.0469 2137.75,134.7813 Q2138.3438,134.5 2138.9688,133.9219 L2138.9688,136.6406 Z " fill="#000000"/><text fill="#000000" font-family="sans-serif" font-size="14" lengthAdjust="spacing" textLength="52.2061" x="2150" y="135.8467">System</text><line style="stroke:#181818;stroke-width:0.5;" x1="2122" x2="2204.2061" y1="147" y2="147"/><line style="stroke:#181818;stroke-width:0.5;" x1="2122" x2="2204.2061" y1="155" y2="155"/></g><!--class Sampler--><g class="entity" data-qualified-name="Sampler" data-source-line="10" id="ent0024"><rect fill="#F1F1F1" height="48" rx="2.5" ry="2.5" style="stroke:#181818;stroke-width:0.5;" width="90.249" x="1992" y="223"/><ellipse cx="2007" cy="239" fill="#ADD1B2" rx="11" ry="11" style="stroke:#181818;stroke-width:1;"/><path d="M2009.9688,244.6406 Q2009.3906,244.9375 2008.75,245.0781 Q2008.1094,245.2344 2007.4063,245.2344 Q2004.9063,245.2344 2003.5781,243.5938 Q2002.2656,241.9375 2002.2656,238.8125 Q2002.2656,235.6875 2003.5781,234.0313 Q2004.9063,232.375 2007.4063,232.375 Q2008.1094,232.375 2008.75,232.5313 Q2009.4063,232.6875 2009.9688,232.9844 L2009.9688,235.7031 Q2009.3438,235.125 2008.75,234.8594 Q2008.1563,234.5781 2007.5313,234.5781 Q2006.1875,234.5781 2005.5,235.6563 Q2004.8125,236.7188 2004.8125,238.8125 Q2004.8125,240.9063 2005.5,241.9844 Q2006.1875,243.0469 2007.5313,243.0469 Q2008.1563,243.0469 2008.75,242.7813 Q2009.3438,242.5 2009.9688,241.9219 L2009.9688,244.6406 Z " fill="#000000"/><text fill="#000000" font-family="sans-serif" font-size="14" lengthAdjust="spacing" textLength="58.249" x="2021" y="243.8467">Sampler</text><line style="stroke:#181818;stroke-width:0.5;" x1="1993" x2="2081.249" y1="255" y2="255"/><line style="stroke:#181818;stroke-width:0.5;" x1="1993" x2="2081.249" y1="263" y2="263"/></g><!--class Actuator--><g class="entity" data-qualified-name="Actuator" data-source-line="11" id="ent0026"><rect fill="#F1F1F1" height="48" rx="2.5" ry="2.5" style="stroke:#181818;stroke-width:0.5;" width="92.0264" x="2117" y="223"/><ellipse cx="2132" cy="239" fill="#ADD1B2" rx="11" ry="11" style="stroke:#181818;stroke-width:1;"/><path d="M2134.9688,244.6406 Q2134.3906,244.9375 2133.75,245.0781 Q2133.1094,245.2344 2132.4063,245.2344 Q2129.9063,245.2344 2128.5781,243.5938 Q2127.2656,241.9375 2127.2656,238.8125 Q2127.2656,235.6875 2128.5781,234.0313 Q2129.9063,232.375 2132.4063,232.375 Q2133.1094,232.375 2133.75,232.5313 Q2134.4063,232.6875 2134.9688,232.9844 L2134.9688,235.7031 Q2134.3438,235.125 2133.75,234.8594 Q2133.1563,234.5781 2132.5313,234.5781 Q2131.1875,234.5781 2130.5,235.6563 Q2129.8125,236.7188 2129.8125,238.8125 Q2129.8125,240.9063 2130.5,241.9844 Q2131.1875,243.0469 2132.5313,243.0469 Q2133.1563,243.0469 2133.75,242.7813 Q2134.3438,242.5 2134.9688,241.9219 L2134.9688,244.6406 Z " fill="#000000"/><text fill="#000000" font-family="sans-serif" font-size="14" lengthAdjust="spacing" textLength="60.0264" x="2146" y="243.8467">Actuator</text><line style="stroke:#181818;stroke-width:0.5;" x1="2118" x2="2208.0264" y1="255" y2="255"/><line style="stroke:#181818;stroke-width:0.5;" x1="2118" x2="2208.0264" y1="263" y2="263"/></g><!--class Execution--><g class="entity" data-qualified-name="Execution" data-source-line="13" id="ent0029"><rect fill="#F1F1F1" height="48" rx="2.5" ry="2.5" style="stroke:#181818;stroke-width:0.5;" width="101.1318" x="2372.5" y="7"/><ellipse cx="2387.5" cy="23" fill="#ADD1B2" rx="11" ry="11" style="stroke:#181818;stroke-width:1;"/><path d="M2390.4688,28.6406 Q2389.8906,28.9375 2389.25,29.0781 Q2388.6094,29.2344 2387.9063,29.2344 Q2385.4063,29.2344 2384.0781,27.5938 Q2382.7656,25.9375 2382.7656,22.8125 Q2382.7656,19.6875 2384.0781,18.0313 Q2385.4063,16.375 2387.9063,16.375 Q2388.6094,16.375 2389.25,16.5313 Q2389.9063,16.6875 2390.4688,16.9844 L2390.4688,19.7031 Q2389.8438,19.125 2389.25,18.8594 Q2388.6563,18.5781 2388.0313,18.5781 Q2386.6875,18.5781 2386,19.6563 Q2385.3125,20.7188 2385.3125,22.8125 Q2385.3125,24.9063 2386,25.9844 Q2386.6875,27.0469 2388.0313,27.0469 Q2388.6563,27.0469 2389.25,26.7813 Q2389.8438,26.5 2390.4688,25.9219 L2390.4688,28.6406 Z " fill="#000000"/><text fill="#000000" font-family="sans-serif" font-size="14" lengthAdjust="spacing" textLength="69.1318" x="2401.5" y="27.8467">Execution</text><line style="stroke:#181818;stroke-width:0.5;" x1="2373.5" x2="2472.6318" y1="39" y2="39"/><line style="stroke:#181818;stroke-width:0.5;" x1="2373.5" x2="2472.6318" y1="47" y2="47"/></g><!--class Sampling--><g class="entity" data-qualified-name="Sampling" data-source-line="13" id="ent0030"><rect fill="#F1F1F1" height="48" rx="2.5" ry="2.5" style="stroke:#181818;stroke-width:0.5;" width="97.5293" x="2240" y="115"/><ellipse cx="2255" cy="131" fill="#ADD1B2" rx="11" ry="11" style="stroke:#181818;stroke-width:1;"/><path d="M2257.9688,136.6406 Q2257.3906,136.9375 2256.75,137.0781 Q2256.1094,137.2344 2255.4063,137.2344 Q2252.9063,137.2344 2251.5781,135.5938 Q2250.2656,133.9375 2250.2656,130.8125 Q2250.2656,127.6875 2251.5781,126.0313 Q2252.9063,124.375 2255.4063,124.375 Q2256.1094,124.375 2256.75,124.5313 Q2257.4063,124.6875 2257.9688,124.9844 L2257.9688,127.7031 Q2257.3438,127.125 2256.75,126.8594 Q2256.1563,126.5781 2255.5313,126.5781 Q2254.1875,126.5781 2253.5,127.6563 Q2252.8125,128.7188 2252.8125,130.8125 Q2252.8125,132.9063 2253.5,133.9844 Q2254.1875,135.0469 2255.5313,135.0469 Q2256.1563,135.0469 2256.75,134.7813 Q2257.3438,134.5 2257.9688,133.9219 L2257.9688,136.6406 Z " fill="#000000"/><text fill="#000000" font-family="sans-serif" font-size="14" lengthAdjust="spacing" textLength="65.5293" x="2269" y="135.8467">Sampling</text><line style="stroke:#181818;stroke-width:0.5;" x1="2241" x2="2336.5293" y1="147" y2="147"/><line style="stroke:#181818;stroke-width:0.5;" x1="2241" x2="2336.5293" y1="155" y2="155"/></g><!--class ExecutionCollection--><g class="entity" data-qualified-name="ExecutionCollection" data-source-line="14" id="ent0032"><rect fill="#F1F1F1" height="48" rx="2.5" ry="2.5" style="stroke:#181818;stroke-width:0.5;" width="170.3799" x="2860" y="7"/><ellipse cx="2875" cy="23" fill="#ADD1B2" rx="11" ry="11" style="stroke:#181818;stroke-width:1;"/><path d="M2877.9688,28.6406 Q2877.3906,28.9375 2876.75,29.0781 Q2876.1094,29.2344 2875.4063,29.2344 Q2872.9063,29.2344 2871.5781,27.5938 Q2870.2656,25.9375 2870.2656,22.8125 Q2870.2656,19.6875 2871.5781,18.0313 Q2872.9063,16.375 2875.4063,16.375 Q2876.1094,16.375 2876.75,16.5313 Q2877.4063,16.6875 2877.9688,16.9844 L2877.9688,19.7031 Q2877.3438,19.125 2876.75,18.8594 Q2876.1563,18.5781 2875.5313,18.5781 Q2874.1875,18.5781 2873.5,19.6563 Q2872.8125,20.7188 2872.8125,22.8125 Q2872.8125,24.9063 2873.5,25.9844 Q2874.1875,27.0469 2875.5313,27.0469 Q2876.1563,27.0469 2876.75,26.7813 Q2877.3438,26.5 2877.9688,25.9219 L2877.9688,28.6406 Z " fill="#000000"/><text fill="#000000" font-family="sans-serif" font-size="14" lengthAdjust="spacing" textLength="138.3799" x="2889" y="27.8467">ExecutionCollection</text><line style="stroke:#181818;stroke-width:0.5;" x1="2861" x2="3029.3799" y1="39" y2="39"/><line style="stroke:#181818;stroke-width:0.5;" x1="2861" x2="3029.3799" y1="47" y2="47"/></g><!--class SamplingCollection--><g class="entity" data-qualified-name="SamplingCollection" data-source-line="14" id="ent0033"><rect fill="#F1F1F1" height="48" rx="2.5" ry="2.5" style="stroke:#181818;stroke-width:0.5;" width="166.7773" x="2659.5" y="115"/><ellipse cx="2674.5" cy="131" fill="#ADD1B2" rx="11" ry="11" style="stroke:#181818;stroke-width:1;"/><path d="M2677.4688,136.6406 Q2676.8906,136.9375 2676.25,137.0781 Q2675.6094,137.2344 2674.9063,137.2344 Q2672.4063,137.2344 2671.0781,135.5938 Q2669.7656,133.9375 2669.7656,130.8125 Q2669.7656,127.6875 2671.0781,126.0313 Q2672.4063,124.375 2674.9063,124.375 Q2675.6094,124.375 2676.25,124.5313 Q2676.9063,124.6875 2677.4688,124.9844 L2677.4688,127.7031 Q2676.8438,127.125 2676.25,126.8594 Q2675.6563,126.5781 2675.0313,126.5781 Q2673.6875,126.5781 2673,127.6563 Q2672.3125,128.7188 2672.3125,130.8125 Q2672.3125,132.9063 2673,133.9844 Q2673.6875,135.0469 2675.0313,135.0469 Q2675.6563,135.0469 2676.25,134.7813 Q2676.8438,134.5 2677.4688,133.9219 L2677.4688,136.6406 Z " fill="#000000"/><text fill="#000000" font-family="sans-serif" font-size="14" lengthAdjust="spacing" textLength="134.7773" x="2688.5" y="135.8467">SamplingCollection</text><line style="stroke:#181818;stroke-width:0.5;" x1="2660.5" x2="2825.2773" y1="147" y2="147"/><line style="stroke:#181818;stroke-width:0.5;" x1="2660.5" x2="2825.2773" y1="155" y2="155"/></g><!--class Actuation--><g class="entity" data-qualified-name="Actuation" data-source-line="15" id="ent0035"><rect fill="#F1F1F1" height="48" rx="2.5" ry="2.5" style="stroke:#181818;stroke-width:0.5;" width="99.0332" x="2373.5" y="115"/><ellipse cx="2388.5" cy="131" fill="#ADD1B2" rx="11" ry="11" style="stroke:#181818;stroke-width:1;"/><path d="M2391.4688,136.6406 Q2390.8906,136.9375 2390.25,137.0781 Q2389.6094,137.2344 2388.9063,137.2344 Q2386.4063,137.2344 2385.0781,135.5938 Q2383.7656,133.9375 2383.7656,130.8125 Q2383.7656,127.6875 2385.0781,126.0313 Q2386.4063,124.375 2388.9063,124.375 Q2389.6094,124.375 2390.25,124.5313 Q2390.9063,124.6875 2391.4688,124.9844 L2391.4688,127.7031 Q2390.8438,127.125 2390.25,126.8594 Q2389.6563,126.5781 2389.0313,126.5781 Q2387.6875,126.5781 2387,127.6563 Q2386.3125,128.7188 2386.3125,130.8125 Q2386.3125,132.9063 2387,133.9844 Q2387.6875,135.0469 2389.0313,135.0469 Q2389.6563,135.0469 2390.25,134.7813 Q2390.8438,134.5 2391.4688,133.9219 L2391.4688,136.6406 Z " fill="#000000"/><text fill="#000000" font-family="sans-serif" font-size="14" lengthAdjust="spacing" textLength="67.0332" x="2402.5" y="135.8467">Actuation</text><line style="stroke:#181818;stroke-width:0.5;" x1="2374.5" x2="2471.5332" y1="147" y2="147"/><line style="stroke:#181818;stroke-width:0.5;" x1="2374.5" x2="2471.5332" y1="155" y2="155"/></g><!--class Sensor--><g class="entity" data-qualified-name="Sensor" data-source-line="16" id="ent0037"><rect fill="#F1F1F1" height="48" rx="2.5" ry="2.5" style="stroke:#181818;stroke-width:0.5;" width="79.9883" x="2244" y="223"/><ellipse cx="2259" cy="239" fill="#ADD1B2" rx="11" ry="11" style="stroke:#181818;stroke-width:1;"/><path d="M2261.9688,244.6406 Q2261.3906,244.9375 2260.75,245.0781 Q2260.1094,245.2344 2259.4063,245.2344 Q2256.9063,245.2344 2255.5781,243.5938 Q2254.2656,241.9375 2254.2656,238.8125 Q2254.2656,235.6875 2255.5781,234.0313 Q2256.9063,232.375 2259.4063,232.375 Q2260.1094,232.375 2260.75,232.5313 Q2261.4063,232.6875 2261.9688,232.9844 L2261.9688,235.7031 Q2261.3438,235.125 2260.75,234.8594 Q2260.1563,234.5781 2259.5313,234.5781 Q2258.1875,234.5781 2257.5,235.6563 Q2256.8125,236.7188 2256.8125,238.8125 Q2256.8125,240.9063 2257.5,241.9844 Q2258.1875,243.0469 2259.5313,243.0469 Q2260.1563,243.0469 2260.75,242.7813 Q2261.3438,242.5 2261.9688,241.9219 L2261.9688,244.6406 Z " fill="#000000"/><text fill="#000000" font-family="sans-serif" font-size="14" lengthAdjust="spacing" textLength="47.9883" x="2273" y="243.8467">Sensor</text><line style="stroke:#181818;stroke-width:0.5;" x1="2245" x2="2322.9883" y1="255" y2="255"/><line style="stroke:#181818;stroke-width:0.5;" x1="2245" x2="2322.9883" y1="263" y2="263"/></g><!--class ActuationCollection--><g class="entity" data-qualified-name="ActuationCollection" data-source-line="17" id="ent0039"><rect fill="#F1F1F1" height="48" rx="2.5" ry="2.5" style="stroke:#181818;stroke-width:0.5;" width="168.2813" x="2861" y="115"/><ellipse cx="2876" cy="131" fill="#ADD1B2" rx="11" ry="11" style="stroke:#181818;stroke-width:1;"/><path d="M2878.9688,136.6406 Q2878.3906,136.9375 2877.75,137.0781 Q2877.1094,137.2344 2876.4063,137.2344 Q2873.9063,137.2344 2872.5781,135.5938 Q2871.2656,133.9375 2871.2656,130.8125 Q2871.2656,127.6875 2872.5781,126.0313 Q2873.9063,124.375 2876.4063,124.375 Q2877.1094,124.375 2877.75,124.5313 Q2878.4063,124.6875 2878.9688,124.9844 L2878.9688,127.7031 Q2878.3438,127.125 2877.75,126.8594 Q2877.1563,126.5781 2876.5313,126.5781 Q2875.1875,126.5781 2874.5,127.6563 Q2873.8125,128.7188 2873.8125,130.8125 Q2873.8125,132.9063 2874.5,133.9844 Q2875.1875,135.0469 2876.5313,135.0469 Q2877.1563,135.0469 2877.75,134.7813 Q2878.3438,134.5 2878.9688,133.9219 L2878.9688,136.6406 Z " fill="#000000"/><text fill="#000000" font-family="sans-serif" font-size="14" lengthAdjust="spacing" textLength="136.2813" x="2890" y="135.8467">ActuationCollection</text><line style="stroke:#181818;stroke-width:0.5;" x1="2862" x2="3028.2813" y1="147" y2="147"/><line style="stroke:#181818;stroke-width:0.5;" x1="2862" x2="3028.2813" y1="155" y2="155"/></g><!--class ObservationCollection--><g class="entity" data-qualified-name="ObservationCollection" data-source-line="18" id="ent0041"><rect fill="#F1F1F1" height="48" rx="2.5" ry="2.5" style="stroke:#181818;stroke-width:0.5;" width="186.499" x="3064" y="115"/><ellipse cx="3079" cy="131" fill="#ADD1B2" rx="11" ry="11" style="stroke:#181818;stroke-width:1;"/><path d="M3081.9688,136.6406 Q3081.3906,136.9375 3080.75,137.0781 Q3080.1094,137.2344 3079.4063,137.2344 Q3076.9063,137.2344 3075.5781,135.5938 Q3074.2656,133.9375 3074.2656,130.8125 Q3074.2656,127.6875 3075.5781,126.0313 Q3076.9063,124.375 3079.4063,124.375 Q3080.1094,124.375 3080.75,124.5313 Q3081.4063,124.6875 3081.9688,124.9844 L3081.9688,127.7031 Q3081.3438,127.125 3080.75,126.8594 Q3080.1563,126.5781 3079.5313,126.5781 Q3078.1875,126.5781 3077.5,127.6563 Q3076.8125,128.7188 3076.8125,130.8125 Q3076.8125,132.9063 3077.5,133.9844 Q3078.1875,135.0469 3079.5313,135.0469 Q3080.1563,135.0469 3080.75,134.7813 Q3081.3438,134.5 3081.9688,133.9219 L3081.9688,136.6406 Z " fill="#000000"/><text fill="#000000" font-family="sans-serif" font-size="14" lengthAdjust="spacing" textLength="154.499" x="3093" y="135.8467">ObservationCollection</text><line style="stroke:#181818;stroke-width:0.5;" x1="3065" x2="3249.499" y1="147" y2="147"/><line style="stroke:#181818;stroke-width:0.5;" x1="3065" x2="3249.499" y1="155" y2="155"/></g><!--class Observation--><g class="entity" data-qualified-name="Observation" data-source-line="19" id="ent0043"><rect fill="#F1F1F1" height="48" rx="2.5" ry="2.5" style="stroke:#181818;stroke-width:0.5;" width="117.251" x="2507.5" y="115"/><ellipse cx="2522.5" cy="131" fill="#ADD1B2" rx="11" ry="11" style="stroke:#181818;stroke-width:1;"/><path d="M2525.4688,136.6406 Q2524.8906,136.9375 2524.25,137.0781 Q2523.6094,137.2344 2522.9063,137.2344 Q2520.4063,137.2344 2519.0781,135.5938 Q2517.7656,133.9375 2517.7656,130.8125 Q2517.7656,127.6875 2519.0781,126.0313 Q2520.4063,124.375 2522.9063,124.375 Q2523.6094,124.375 2524.25,124.5313 Q2524.9063,124.6875 2525.4688,124.9844 L2525.4688,127.7031 Q2524.8438,127.125 2524.25,126.8594 Q2523.6563,126.5781 2523.0313,126.5781 Q2521.6875,126.5781 2521,127.6563 Q2520.3125,128.7188 2520.3125,130.8125 Q2520.3125,132.9063 2521,133.9844 Q2521.6875,135.0469 2523.0313,135.0469 Q2523.6563,135.0469 2524.25,134.7813 Q2524.8438,134.5 2525.4688,133.9219 L2525.4688,136.6406 Z " fill="#000000"/><text fill="#000000" font-family="sans-serif" font-size="14" lengthAdjust="spacing" textLength="85.251" x="2536.5" y="135.8467">Observation</text><line style="stroke:#181818;stroke-width:0.5;" x1="2508.5" x2="2623.751" y1="147" y2="147"/><line style="stroke:#181818;stroke-width:0.5;" x1="2508.5" x2="2623.751" y1="155" y2="155"/></g><!--class Deployment--><g class="entity" data-qualified-name="Deployment" data-source-line="20" id="ent0045"><rect fill="#F1F1F1" height="48" rx="2.5" ry="2.5" style="stroke:#181818;stroke-width:0.5;" width="117.6338" x="26" y="7"/><ellipse cx="41" cy="23" fill="#ADD1B2" rx="11" ry="11" style="stroke:#181818;stroke-width:1;"/><path d="M43.9688,28.6406 Q43.3906,28.9375 42.75,29.0781 Q42.1094,29.2344 41.4063,29.2344 Q38.9063,29.2344 37.5781,27.5938 Q36.2656,25.9375 36.2656,22.8125 Q36.2656,19.6875 37.5781,18.0313 Q38.9063,16.375 41.4063,16.375 Q42.1094,16.375 42.75,16.5313 Q43.4063,16.6875 43.9688,16.9844 L43.9688,19.7031 Q43.3438,19.125 42.75,18.8594 Q42.1563,18.5781 41.5313,18.5781 Q40.1875,18.5781 39.5,19.6563 Q38.8125,20.7188 38.8125,22.8125 Q38.8125,24.9063 39.5,25.9844 Q40.1875,27.0469 41.5313,27.0469 Q42.1563,27.0469 42.75,26.7813 Q43.3438,26.5 43.9688,25.9219 L43.9688,28.6406 Z " fill="#000000"/><text fill="#000000" font-family="sans-serif" font-size="14" lengthAdjust="spacing" textLength="85.6338" x="55" y="27.8467">Deployment</text><line style="stroke:#181818;stroke-width:0.5;" x1="27" x2="142.6338" y1="39" y2="39"/><line style="stroke:#181818;stroke-width:0.5;" x1="27" x2="142.6338" y1="47" y2="47"/></g><!--class Result--><g class="entity" data-qualified-name="Result" data-source-line="23" id="ent0046"><rect fill="#F1F1F1" height="48" rx="2.5" ry="2.5" style="stroke:#181818;stroke-width:0.5;" width="75.8867" x="179" y="7"/><ellipse cx="194" cy="23" fill="#ADD1B2" rx="11" ry="11" style="stroke:#181818;stroke-width:1;"/><path d="M196.9688,28.6406 Q196.3906,28.9375 195.75,29.0781 Q195.1094,29.2344 194.4063,29.2344 Q191.9063,29.2344 190.5781,27.5938 Q189.2656,25.9375 189.2656,22.8125 Q189.2656,19.6875 190.5781,18.0313 Q191.9063,16.375 194.4063,16.375 Q195.1094,16.375 195.75,16.5313 Q196.4063,16.6875 196.9688,16.9844 L196.9688,19.7031 Q196.3438,19.125 195.75,18.8594 Q195.1563,18.5781 194.5313,18.5781 Q193.1875,18.5781 192.5,19.6563 Q191.8125,20.7188 191.8125,22.8125 Q191.8125,24.9063 192.5,25.9844 Q193.1875,27.0469 194.5313,27.0469 Q195.1563,27.0469 195.75,26.7813 Q196.3438,26.5 196.9688,25.9219 L196.9688,28.6406 Z " fill="#000000"/><text fill="#000000" font-family="sans-serif" font-size="14" lengthAdjust="spacing" textLength="43.8867" x="208" y="27.8467">Result</text><line style="stroke:#181818;stroke-width:0.5;" x1="180" x2="253.8867" y1="39" y2="39"/><line style="stroke:#181818;stroke-width:0.5;" x1="180" x2="253.8867" y1="47" y2="47"/></g><!--class SampleCollection--><g class="entity" data-qualified-name="SampleCollection" data-source-line="24" id="ent0047"><rect fill="#F1F1F1" height="48" rx="2.5" ry="2.5" style="stroke:#181818;stroke-width:0.5;" width="153.7412" x="290" y="7"/><ellipse cx="305" cy="23" fill="#ADD1B2" rx="11" ry="11" style="stroke:#181818;stroke-width:1;"/><path d="M307.9688,28.6406 Q307.3906,28.9375 306.75,29.0781 Q306.1094,29.2344 305.4063,29.2344 Q302.9063,29.2344 301.5781,27.5938 Q300.2656,25.9375 300.2656,22.8125 Q300.2656,19.6875 301.5781,18.0313 Q302.9063,16.375 305.4063,16.375 Q306.1094,16.375 306.75,16.5313 Q307.4063,16.6875 307.9688,16.9844 L307.9688,19.7031 Q307.3438,19.125 306.75,18.8594 Q306.1563,18.5781 305.5313,18.5781 Q304.1875,18.5781 303.5,19.6563 Q302.8125,20.7188 302.8125,22.8125 Q302.8125,24.9063 303.5,25.9844 Q304.1875,27.0469 305.5313,27.0469 Q306.1563,27.0469 306.75,26.7813 Q307.3438,26.5 307.9688,25.9219 L307.9688,28.6406 Z " fill="#000000"/><text fill="#000000" font-family="sans-serif" font-size="14" lengthAdjust="spacing" textLength="121.7412" x="319" y="27.8467">SampleCollection</text><line style="stroke:#181818;stroke-width:0.5;" x1="291" x2="442.7412" y1="39" y2="39"/><line style="stroke:#181818;stroke-width:0.5;" x1="291" x2="442.7412" y1="47" y2="47"/></g><!--class FeatureOfInterest--><g class="entity" data-qualified-name="FeatureOfInterest" data-source-line="25" id="ent0048"><rect fill="#F1F1F1" height="48" rx="2.5" ry="2.5" style="stroke:#181818;stroke-width:0.5;" width="156.1816" x="7" y="115"/><ellipse cx="22" cy="131" fill="#ADD1B2" rx="11" ry="11" style="stroke:#181818;stroke-width:1;"/><path d="M24.9688,136.6406 Q24.3906,136.9375 23.75,137.0781 Q23.1094,137.2344 22.4063,137.2344 Q19.9063,137.2344 18.5781,135.5938 Q17.2656,133.9375 17.2656,130.8125 Q17.2656,127.6875 18.5781,126.0313 Q19.9063,124.375 22.4063,124.375 Q23.1094,124.375 23.75,124.5313 Q24.4063,124.6875 24.9688,124.9844 L24.9688,127.7031 Q24.3438,127.125 23.75,126.8594 Q23.1563,126.5781 22.5313,126.5781 Q21.1875,126.5781 20.5,127.6563 Q19.8125,128.7188 19.8125,130.8125 Q19.8125,132.9063 20.5,133.9844 Q21.1875,135.0469 22.5313,135.0469 Q23.1563,135.0469 23.75,134.7813 Q24.3438,134.5 24.9688,133.9219 L24.9688,136.6406 Z " fill="#000000"/><text fill="#000000" font-family="sans-serif" font-size="14" lengthAdjust="spacing" textLength="124.1816" x="36" y="135.8467">FeatureOfInterest</text><line style="stroke:#181818;stroke-width:0.5;" x1="8" x2="162.1816" y1="147" y2="147"/><line style="stroke:#181818;stroke-width:0.5;" x1="8" x2="162.1816" y1="155" y2="155"/></g><!--class Stimulus--><g class="entity" data-qualified-name="Stimulus" data-source-line="26" id="ent0049"><rect fill="#F1F1F1" height="48" rx="2.5" ry="2.5" style="stroke:#181818;stroke-width:0.5;" width="92.833" x="198.5" y="115"/><ellipse cx="213.5" cy="131" fill="#ADD1B2" rx="11" ry="11" style="stroke:#181818;stroke-width:1;"/><path d="M216.4688,136.6406 Q215.8906,136.9375 215.25,137.0781 Q214.6094,137.2344 213.9063,137.2344 Q211.4063,137.2344 210.0781,135.5938 Q208.7656,133.9375 208.7656,130.8125 Q208.7656,127.6875 210.0781,126.0313 Q211.4063,124.375 213.9063,124.375 Q214.6094,124.375 215.25,124.5313 Q215.9063,124.6875 216.4688,124.9844 L216.4688,127.7031 Q215.8438,127.125 215.25,126.8594 Q214.6563,126.5781 214.0313,126.5781 Q212.6875,126.5781 212,127.6563 Q211.3125,128.7188 211.3125,130.8125 Q211.3125,132.9063 212,133.9844 Q212.6875,135.0469 214.0313,135.0469 Q214.6563,135.0469 215.25,134.7813 Q215.8438,134.5 216.4688,133.9219 L216.4688,136.6406 Z " fill="#000000"/><text fill="#000000" font-family="sans-serif" font-size="14" lengthAdjust="spacing" textLength="60.833" x="227.5" y="135.8467">Stimulus</text><line style="stroke:#181818;stroke-width:0.5;" x1="199.5" x2="290.333" y1="147" y2="147"/><line style="stroke:#181818;stroke-width:0.5;" x1="199.5" x2="290.333" y1="155" y2="155"/></g><!--class Input--><g class="entity" data-qualified-name="Input" data-source-line="28" id="ent0050"><rect fill="#F1F1F1" height="48" rx="2.5" ry="2.5" style="stroke:#181818;stroke-width:0.5;" width="68.251" x="327" y="115"/><ellipse cx="342" cy="131" fill="#ADD1B2" rx="11" ry="11" style="stroke:#181818;stroke-width:1;"/><path d="M344.9688,136.6406 Q344.3906,136.9375 343.75,137.0781 Q343.1094,137.2344 342.4063,137.2344 Q339.9063,137.2344 338.5781,135.5938 Q337.2656,133.9375 337.2656,130.8125 Q337.2656,127.6875 338.5781,126.0313 Q339.9063,124.375 342.4063,124.375 Q343.1094,124.375 343.75,124.5313 Q344.4063,124.6875 344.9688,124.9844 L344.9688,127.7031 Q344.3438,127.125 343.75,126.8594 Q343.1563,126.5781 342.5313,126.5781 Q341.1875,126.5781 340.5,127.6563 Q339.8125,128.7188 339.8125,130.8125 Q339.8125,132.9063 340.5,133.9844 Q341.1875,135.0469 342.5313,135.0469 Q343.1563,135.0469 343.75,134.7813 Q344.3438,134.5 344.9688,133.9219 L344.9688,136.6406 Z " fill="#000000"/><text fill="#000000" font-family="sans-serif" font-size="14" lengthAdjust="spacing" textLength="36.251" x="356" y="135.8467">Input</text><line style="stroke:#181818;stroke-width:0.5;" x1="328" x2="394.251" y1="147" y2="147"/><line style="stroke:#181818;stroke-width:0.5;" x1="328" x2="394.251" y1="155" y2="155"/></g><!--class Output--><g class="entity" data-qualified-name="Output" data-source-line="29" id="ent0051"><rect fill="#F1F1F1" height="48" rx="2.5" ry="2.5" style="stroke:#181818;stroke-width:0.5;" width="80.6309" x="44.5" y="223"/><ellipse cx="59.5" cy="239" fill="#ADD1B2" rx="11" ry="11" style="stroke:#181818;stroke-width:1;"/><path d="M62.4688,244.6406 Q61.8906,244.9375 61.25,245.0781 Q60.6094,245.2344 59.9063,245.2344 Q57.4063,245.2344 56.0781,243.5938 Q54.7656,241.9375 54.7656,238.8125 Q54.7656,235.6875 56.0781,234.0313 Q57.4063,232.375 59.9063,232.375 Q60.6094,232.375 61.25,232.5313 Q61.9063,232.6875 62.4688,232.9844 L62.4688,235.7031 Q61.8438,235.125 61.25,234.8594 Q60.6563,234.5781 60.0313,234.5781 Q58.6875,234.5781 58,235.6563 Q57.3125,236.7188 57.3125,238.8125 Q57.3125,240.9063 58,241.9844 Q58.6875,243.0469 60.0313,243.0469 Q60.6563,243.0469 61.25,242.7813 Q61.8438,242.5 62.4688,241.9219 L62.4688,244.6406 Z " fill="#000000"/><text fill="#000000" font-family="sans-serif" font-size="14" lengthAdjust="spacing" textLength="48.6309" x="73.5" y="243.8467">Output</text><line style="stroke:#181818;stroke-width:0.5;" x1="45.5" x2="124.1309" y1="255" y2="255"/><line style="stroke:#181818;stroke-width:0.5;" x1="45.5" x2="124.1309" y1="263" y2="263"/></g><!--reverse link Property to ActuatableProperty--><g class="link" data-entity-1="ent0001" data-entity-2="ent0002" data-link-type="extension" data-source-line="1" id="lnk3"><path codeLine="1" d="M585.7213,67.606 C567.7213,85.266 555.83,96.94 537.76,114.68" fill="none" id="Property-backto-ActuatableProperty" style="stroke:#181818;stroke-width:1;"/><polygon fill="none" points="598.57,55,581.5193,63.3231,589.9233,71.8889,598.57,55" style="stroke:#181818;stroke-width:1;stroke-linejoin:miter;stroke-miterlimit:10;"/></g><!--reverse link Sample to MaterialSample--><g class="link" data-entity-1="ent0004" data-entity-2="ent0005" data-link-type="extension" data-source-line="2" id="lnk6"><path codeLine="2" d="M1030.3567,64.4445 C1001.6067,82.1645 977.35,97.11 948.55,114.86" fill="none" id="Sample-backto-MaterialSample" style="stroke:#181818;stroke-width:1;"/><polygon fill="none" points="1045.68,55,1027.2086,59.3367,1033.5049,69.5522,1045.68,55" style="stroke:#181818;stroke-width:1;stroke-linejoin:miter;stroke-miterlimit:10;"/></g><!--reverse link Sample to SpatialSample--><g class="link" data-entity-1="ent0004" data-entity-2="ent0007" data-link-type="extension" data-source-line="3" id="lnk8"><path codeLine="3" d="M1083,73 C1083,90.66 1083,96.94 1083,114.68" fill="none" id="Sample-backto-SpatialSample" style="stroke:#181818;stroke-width:1;"/><polygon fill="none" points="1083,55,1077,73,1089,73,1083,55" style="stroke:#181818;stroke-width:1;stroke-linejoin:miter;stroke-miterlimit:10;"/></g><!--reverse link Sample to StatisticalSample--><g class="link" data-entity-1="ent0004" data-entity-2="ent0009" data-link-type="extension" data-source-line="4" id="lnk10"><path codeLine="4" d="M1137.3276,64.1725 C1167.2476,81.8925 1192.95,97.11 1222.93,114.86" fill="none" id="Sample-backto-StatisticalSample" style="stroke:#181818;stroke-width:1;"/><polygon fill="none" points="1121.84,55,1134.2701,69.335,1140.3851,59.0099,1121.84,55" style="stroke:#181818;stroke-width:1;stroke-linejoin:miter;stroke-miterlimit:10;"/></g><!--reverse link Property to ObservableProperty--><g class="link" data-entity-1="ent0001" data-entity-2="ent0011" data-link-type="extension" data-source-line="5" id="lnk12"><path codeLine="5" d="M655.2015,68.2794 C671.3615,85.9394 681.43,96.94 697.66,114.68" fill="none" id="Property-backto-ObservableProperty" style="stroke:#181818;stroke-width:1;"/><polygon fill="none" points="643.05,55,650.775,72.3299,659.6279,64.2289,643.05,55" style="stroke:#181818;stroke-width:1;stroke-linejoin:miter;stroke-miterlimit:10;"/></g><!--reverse link Procedure to ActuatingProcedure--><g class="link" data-entity-1="ent0013" data-entity-2="ent0014" data-link-type="extension" data-source-line="6" id="lnk15"><path codeLine="6" d="M1606.8326,63.1732 C1572.0626,80.8932 1540.24,97.11 1505.4,114.86" fill="none" id="Procedure-backto-ActuatingProcedure" style="stroke:#181818;stroke-width:1;"/><polygon fill="none" points="1622.87,55,1604.1082,57.8274,1609.557,68.519,1622.87,55" style="stroke:#181818;stroke-width:1;stroke-linejoin:miter;stroke-miterlimit:10;"/></g><!--reverse link Procedure to ObservingProcedure--><g class="link" data-entity-1="ent0013" data-entity-2="ent0016" data-link-type="extension" data-source-line="7" id="lnk17"><path codeLine="7" d="M1668,73 C1668,90.66 1668,96.94 1668,114.68" fill="none" id="Procedure-backto-ObservingProcedure" style="stroke:#181818;stroke-width:1;"/><polygon fill="none" points="1668,55,1662,73,1674,73,1668,55" style="stroke:#181818;stroke-width:1;stroke-linejoin:miter;stroke-miterlimit:10;"/></g><!--reverse link Procedure to SamplingProcedure--><g class="link" data-entity-1="ent0013" data-entity-2="ent0018" data-link-type="extension" data-source-line="8" id="lnk19"><path codeLine="8" d="M1728.9411,63.205 C1763.5411,80.925 1795.15,97.11 1829.81,114.86" fill="none" id="Procedure-backto-SamplingProcedure" style="stroke:#181818;stroke-width:1;"/><polygon fill="none" points="1712.92,55,1726.2061,68.5454,1731.6762,57.8647,1712.92,55" style="stroke:#181818;stroke-width:1;stroke-linejoin:miter;stroke-miterlimit:10;"/></g><!--reverse link Asset to Platform--><g class="link" data-entity-1="ent0020" data-entity-2="ent0021" data-link-type="extension" data-source-line="9" id="lnk22"><path codeLine="9" d="M2078.7839,70.6022 C2068.6239,88.2622 2063.63,96.94 2053.42,114.68" fill="none" id="Asset-backto-Platform" style="stroke:#181818;stroke-width:1;"/><polygon fill="none" points="2087.76,55,2073.5831,67.6102,2083.9846,73.5943,2087.76,55" style="stroke:#181818;stroke-width:1;stroke-linejoin:miter;stroke-miterlimit:10;"/></g><!--reverse link System to Sampler--><g class="link" data-entity-1="ent0023" data-entity-2="ent0024" data-link-type="extension" data-source-line="10" id="lnk25"><path codeLine="10" d="M2121.8865,174.5884 C2100.8965,192.2484 2085.81,204.94 2064.72,222.68" fill="none" id="System-backto-Sampler" style="stroke:#181818;stroke-width:1;"/><polygon fill="none" points="2135.66,163,2118.0237,169.9972,2125.7493,179.1795,2135.66,163" style="stroke:#181818;stroke-width:1;stroke-linejoin:miter;stroke-miterlimit:10;"/></g><!--reverse link System to Actuator--><g class="link" data-entity-1="ent0023" data-entity-2="ent0026" data-link-type="extension" data-source-line="11" id="lnk27"><path codeLine="11" d="M2163,181 C2163,198.66 2163,204.94 2163,222.68" fill="none" id="System-backto-Actuator" style="stroke:#181818;stroke-width:1;"/><polygon fill="none" points="2163,163,2157,181,2169,181,2163,163" style="stroke:#181818;stroke-width:1;stroke-linejoin:miter;stroke-miterlimit:10;"/></g><!--reverse link Asset to System--><g class="link" data-entity-1="ent0020" data-entity-2="ent0023" data-link-type="extension" data-source-line="12" id="lnk28"><path codeLine="12" d="M2123.5383,70.5372 C2133.8683,88.1972 2138.98,96.94 2149.36,114.68" fill="none" id="Asset-backto-System" style="stroke:#181818;stroke-width:1;"/><polygon fill="none" points="2114.45,55,2118.3592,73.5666,2128.7173,67.5077,2114.45,55" style="stroke:#181818;stroke-width:1;stroke-linejoin:miter;stroke-miterlimit:10;"/></g><!--reverse link Execution to Sampling--><g class="link" data-entity-1="ent0029" data-entity-2="ent0030" data-link-type="extension" data-source-line="13" id="lnk31"><path codeLine="13" d="M2379.8041,66.1688 C2357.4841,83.8288 2340.91,96.94 2318.48,114.68" fill="none" id="Execution-backto-Sampling" style="stroke:#181818;stroke-width:1;"/><polygon fill="none" points="2393.92,55,2376.0812,61.4635,2383.527,70.8741,2393.92,55" style="stroke:#181818;stroke-width:1;stroke-linejoin:miter;stroke-miterlimit:10;"/></g><!--reverse link ExecutionCollection to SamplingCollection--><g class="link" data-entity-1="ent0032" data-entity-2="ent0033" data-link-type="extension" data-source-line="14" id="lnk34"><path codeLine="14" d="M2885.231,63.3636 C2851.461,81.0836 2820.93,97.11 2787.09,114.86" fill="none" id="ExecutionCollection-backto-SamplingCollection" style="stroke:#181818;stroke-width:1;"/><polygon fill="none" points="2901.17,55,2882.4432,58.0506,2888.0189,68.6766,2901.17,55" style="stroke:#181818;stroke-width:1;stroke-linejoin:miter;stroke-miterlimit:10;"/></g><!--reverse link Execution to Actuation--><g class="link" data-entity-1="ent0029" data-entity-2="ent0035" data-link-type="extension" data-source-line="15" id="lnk36"><path codeLine="15" d="M2423,73 C2423,90.66 2423,96.94 2423,114.68" fill="none" id="Execution-backto-Actuation" style="stroke:#181818;stroke-width:1;"/><polygon fill="none" points="2423,55,2417,73,2429,73,2423,55" style="stroke:#181818;stroke-width:1;stroke-linejoin:miter;stroke-miterlimit:10;"/></g><!--reverse link System to Sensor--><g class="link" data-entity-1="ent0023" data-entity-2="ent0037" data-link-type="extension" data-source-line="16" id="lnk38"><path codeLine="16" d="M2202.7968,174.864 C2222.9468,192.524 2237.13,204.94 2257.38,222.68" fill="none" id="System-backto-Sensor" style="stroke:#181818;stroke-width:1;"/><polygon fill="none" points="2189.26,163,2198.8421,179.3763,2206.7515,170.3518,2189.26,163" style="stroke:#181818;stroke-width:1;stroke-linejoin:miter;stroke-miterlimit:10;"/></g><!--reverse link ExecutionCollection to ActuationCollection--><g class="link" data-entity-1="ent0032" data-entity-2="ent0039" data-link-type="extension" data-source-line="17" id="lnk40"><path codeLine="17" d="M2945,73 C2945,90.66 2945,96.94 2945,114.68" fill="none" id="ExecutionCollection-backto-ActuationCollection" style="stroke:#181818;stroke-width:1;"/><polygon fill="none" points="2945,55,2939,73,2951,73,2945,55" style="stroke:#181818;stroke-width:1;stroke-linejoin:miter;stroke-miterlimit:10;"/></g><!--reverse link ExecutionCollection to ObservationCollection--><g class="link" data-entity-1="ent0032" data-entity-2="ent0041" data-link-type="extension" data-source-line="18" id="lnk42"><path codeLine="18" d="M3007.0997,63.0498 C3042.5397,80.7698 3075.22,97.11 3110.72,114.86" fill="none" id="ExecutionCollection-backto-ObservationCollection" style="stroke:#181818;stroke-width:1;"/><polygon fill="none" points="2991,55,3004.4164,68.4164,3009.783,57.6833,2991,55" style="stroke:#181818;stroke-width:1;stroke-linejoin:miter;stroke-miterlimit:10;"/></g><!--reverse link Execution to Observation--><g class="link" data-entity-1="ent0029" data-entity-2="ent0043" data-link-type="extension" data-source-line="19" id="lnk44"><path codeLine="19" d="M2468.4895,65.7202 C2492.3095,83.3802 2510.61,96.94 2534.54,114.68" fill="none" id="Execution-backto-Observation" style="stroke:#181818;stroke-width:1;"/><polygon fill="none" points="2454.03,55,2464.9161,70.54,2472.0629,60.9004,2454.03,55" style="stroke:#181818;stroke-width:1;stroke-linejoin:miter;stroke-miterlimit:10;"/></g><?plantuml-src VL99RiCm3Bpx5Vv0Vf1Bq3P03e6D-WMAoWG2g0KY5TH07r-XT6JBYNiJPuQS4QK--W2HntR_izkr1yr9iReWz1FU3Ce61A7FYY4QXO9Lr10KRp2S6MAZ2zjNdjs58DuhptpGy9KYB5CPToluMY4p_bFyMLU20n6ma3qgllfecs4a1hleW5XXaiJ7PRFmpSStwCJ6kzflnjyy8kXdnOolPqptpaIL2npb19jpIzUhmMlnjFmj-PEeqQY8sdS8w4SBZhU0yfPIVW8bV72osOMVm4TGd1-ckvvS_cP0HSx69apqkZova1xABl5SoCv-0G00?></g></svg>