<svg xmlns="http://www.w3.org/2000/svg" xmlns:xlink="http://www.w3.org/1999/xlink" contentStyleType="text/css" data-diagram-type="CLASS" height="286px" preserveAspectRatio="none" style="width:3303px;height:286px;background:#FFFFFF;" version="1.1" viewBox="0 0 3303 286" width="3303px" zoomAndPan="magnify"><?plantuml 1.2026.5?><defs/><g><!--class Property--><g class="entity" data-qualified-name="Property" data-source-line="1" id="ent0001"><rect fill="#F1F1F1" height="48" rx="2.5" ry="2.5" style="stroke:#181818;stroke-width:0.5;" width="91.7939" x="608.5" y="7"/><ellipse cx="623.5" cy="23" fill="#ADD1B2" rx="11" ry="11" style="stroke:#181818;stroke-width:1;"/><path d="M626.4688,28.6406 Q625.8906,28.9375 625.25,29.0781 Q624.6094,29.2344 623.9063,29.2344 Q621.4063,29.2344 620.0781,27.5938 Q618.7656,25.9375 618.7656,22.8125 Q618.7656,19.6875 620.0781,18.0313 Q621.4063,16.375 623.9063,16.375 Q624.6094,16.375 625.25,16.5313 Q625.9063,16.6875 626.4688,16.9844 L626.4688,19.7031 Q625.8438,19.125 625.25,18.8594 Q624.6563,18.5781 624.0313,18.5781 Q622.6875,18.5781 622,19.6563 Q621.3125,20.7188 621.3125,22.8125 Q621.3125,24.9063 622,25.9844 Q622.6875,27.0469 624.0313,27.0469 Q624.6563,27.0469 625.25,26.7813 Q625.8438,26.5 626.4688,25.9219 L626.4688,28.6406 Z " fill="#000000"/><text fill="#000000" font-family="sans-serif" font-size="14" lengthAdjust="spacing" textLength="59.7939" x="637.5" y="27.8467">Property</text><line style="stroke:#181818;stroke-width:0.5;" x1="609.5" x2="699.2939" y1="39" y2="39"/><line style="stroke:#181818;stroke-width:0.5;" x1="609.5" x2="699.2939" y1="47" y2="47"/></g><!--class ActuatableProperty--><g class="entity" data-qualified-name="ActuatableProperty" data-source-line="1" id="ent0002"><rect fill="#F1F1F1" height="48" rx="2.5" ry="2.5" style="stroke:#181818;stroke-width:0.5;" width="167.4678" x="469" y="115"/><ellipse cx="484" cy="131" fill="#ADD1B2" rx="11" ry="11" style="stroke:#181818;stroke-width:1;"/><path d="M486.9688,136.6406 Q486.3906,136.9375 485.75,137.0781 Q485.1094,137.2344 484.4063,137.2344 Q481.9063,137.2344 480.5781,135.5938 Q479.2656,133.9375 479.2656,130.8125 Q479.2656,127.6875 480.5781,126.0313 Q481.9063,124.375 484.4063,124.375 Q485.1094,124.375 485.75,124.5313 Q486.4063,124.6875 486.9688,124.9844 L486.9688,127.7031 Q486.3438,127.125 485.75,126.8594 Q485.1563,126.5781 484.5313,126.5781 Q483.1875,126.5781 482.5,127.6563 Q481.8125,128.7188 481.8125,130.8125 Q481.8125,132.9063 482.5,133.9844 Q483.1875,135.0469 484.5313,135.0469 Q485.1563,135.0469 485.75,134.7813 Q486.3438,134.5 486.9688,133.9219 L486.9688,136.6406 Z " fill="#000000"/><text fill="#000000" font-family="sans-serif" font-size="14" lengthAdjust="spacing" textLength="135.4678" x="498" y="135.8467">ActuatableProperty</text><line style="stroke:#181818;stroke-width:0.5;" x1="470" x2="635.4678" y1="147" y2="147"/><line style="stroke:#181818;stroke-width:0.5;" x1="470" x2="635.4678" y1="155" y2="155"/></g><!--class Sample--><g class="entity" data-qualified-name="Sample" data-source-line="2" id="ent0004"><rect fill="#F1F1F1" height="48" rx="2.5" ry="2.5" style="stroke:#181818;stroke-width:0.5;" width="84.4932" x="1079.5" y="7"/><ellipse cx="1094.5" cy="23" fill="#ADD1B2" rx="11" ry="11" style="stroke:#181818;stroke-width:1;"/><path d="M1097.4688,28.6406 Q1096.8906,28.9375 1096.25,29.0781 Q1095.6094,29.2344 1094.9063,29.2344 Q1092.4063,29.2344 1091.0781,27.5938 Q1089.7656,25.9375 1089.7656,22.8125 Q1089.7656,19.6875 1091.0781,18.0313 Q1092.4063,16.375 1094.9063,16.375 Q1095.6094,16.375 1096.25,16.5313 Q1096.9063,16.6875 1097.4688,16.9844 L1097.4688,19.7031 Q1096.8438,19.125 1096.25,18.8594 Q1095.6563,18.5781 1095.0313,18.5781 Q1093.6875,18.5781 1093,19.6563 Q1092.3125,20.7188 1092.3125,22.8125 Q1092.3125,24.9063 1093,25.9844 Q1093.6875,27.0469 1095.0313,27.0469 Q1095.6563,27.0469 1096.25,26.7813 Q1096.8438,26.5 1097.4688,25.9219 L1097.4688,28.6406 Z " fill="#000000"/><text fill="#000000" font-family="sans-serif" font-size="14" lengthAdjust="spacing" textLength="52.4932" x="1108.5" y="27.8467">Sample</text><line style="stroke:#181818;stroke-width:0.5;" x1="1080.5" x2="1162.9932" y1="39" y2="39"/><line style="stroke:#181818;stroke-width:0.5;" x1="1080.5" x2="1162.9932" y1="47" y2="47"/></g><!--class MaterialSample--><g class="entity" data-qualified-name="MaterialSample" data-source-line="2" id="ent0005"><rect fill="#F1F1F1" height="48" rx="2.5" ry="2.5" style="stroke:#181818;stroke-width:0.5;" width="141.3682" x="879" y="115"/><ellipse cx="894" cy="131" fill="#ADD1B2" rx="11" ry="11" style="stroke:#181818;stroke-width:1;"/><path d="M896.9688,136.6406 Q896.3906,136.9375 895.75,137.0781 Q895.1094,137.2344 894.4063,137.2344 Q891.9063,137.2344 890.5781,135.5938 Q889.2656,133.9375 889.2656,130.8125 Q889.2656,127.6875 890.5781,126.0313 Q891.9063,124.375 894.4063,124.375 Q895.1094,124.375 895.75,124.5313 Q896.4063,124.6875 896.9688,124.9844 L896.9688,127.7031 Q896.3438,127.125 895.75,126.8594 Q895.1563,126.5781 894.5313,126.5781 Q893.1875,126.5781 892.5,127.6563 Q891.8125,128.7188 891.8125,130.8125 Q891.8125,132.9063 892.5,133.9844 Q893.1875,135.0469 894.5313,135.0469 Q895.1563,135.0469 895.75,134.7813 Q896.3438,134.5 896.9688,133.9219 L896.9688,136.6406 Z " fill="#000000"/><text fill="#000000" font-family="sans-serif" font-size="14" lengthAdjust="spacing" textLength="109.3682" x="908" y="135.8467">MaterialSample</text><line style="stroke:#181818;stroke-width:0.5;" x1="880" x2="1019.3682" y1="147" y2="147"/><line style="stroke:#181818;stroke-width:0.5;" x1="880" x2="1019.3682" y1="155" y2="155"/></g><!--class SpatialSample--><g class="entity" data-qualified-name="SpatialSample" data-source-line="3" id="ent0007"><rect fill="#F1F1F1" height="48" rx="2.5" ry="2.5" style="stroke:#181818;stroke-width:0.5;" width="132.6934" x="1055" y="115"/><ellipse cx="1070" cy="131" fill="#ADD1B2" rx="11" ry="11" style="stroke:#181818;stroke-width:1;"/><path d="M1072.9688,136.6406 Q1072.3906,136.9375 1071.75,137.0781 Q1071.1094,137.2344 1070.4063,137.2344 Q1067.9063,137.2344 1066.5781,135.5938 Q1065.2656,133.9375 1065.2656,130.8125 Q1065.2656,127.6875 1066.5781,126.0313 Q1067.9063,124.375 1070.4063,124.375 Q1071.1094,124.375 1071.75,124.5313 Q1072.4063,124.6875 1072.9688,124.9844 L1072.9688,127.7031 Q1072.3438,127.125 1071.75,126.8594 Q1071.1563,126.5781 1070.5313,126.5781 Q1069.1875,126.5781 1068.5,127.6563 Q1067.8125,128.7188 1067.8125,130.8125 Q1067.8125,132.9063 1068.5,133.9844 Q1069.1875,135.0469 1070.5313,135.0469 Q1071.1563,135.0469 1071.75,134.7813 Q1072.3438,134.5 1072.9688,133.9219 L1072.9688,136.6406 Z " fill="#000000"/><text fill="#000000" font-family="sans-serif" font-size="14" lengthAdjust="spacing" textLength="100.6934" x="1084" y="135.8467">SpatialSample</text><line style="stroke:#181818;stroke-width:0.5;" x1="1056" x2="1186.6934" y1="147" y2="147"/><line style="stroke:#181818;stroke-width:0.5;" x1="1056" x2="1186.6934" y1="155" y2="155"/></g><!--class StatisticalSample--><g class="entity" data-qualified-name="StatisticalSample" data-source-line="4" id="ent0009"><rect fill="#F1F1F1" height="48" rx="2.5" ry="2.5" style="stroke:#181818;stroke-width:0.5;" width="153.666" x="1223.5" y="115"/><ellipse cx="1238.5" cy="131" fill="#ADD1B2" rx="11" ry="11" style="stroke:#181818;stroke-width:1;"/><path d="M1241.4688,136.6406 Q1240.8906,136.9375 1240.25,137.0781 Q1239.6094,137.2344 1238.9063,137.2344 Q1236.4063,137.2344 1235.0781,135.5938 Q1233.7656,133.9375 1233.7656,130.8125 Q1233.7656,127.6875 1235.0781,126.0313 Q1236.4063,124.375 1238.9063,124.375 Q1239.6094,124.375 1240.25,124.5313 Q1240.9063,124.6875 1241.4688,124.9844 L1241.4688,127.7031 Q1240.8438,127.125 1240.25,126.8594 Q1239.6563,126.5781 1239.0313,126.5781 Q1237.6875,126.5781 1237,127.6563 Q1236.3125,128.7188 1236.3125,130.8125 Q1236.3125,132.9063 1237,133.9844 Q1237.6875,135.0469 1239.0313,135.0469 Q1239.6563,135.0469 1240.25,134.7813 Q1240.8438,134.5 1241.4688,133.9219 L1241.4688,136.6406 Z " fill="#000000"/><text fill="#000000" font-family="sans-serif" font-size="14" lengthAdjust="spacing" textLength="121.666" x="1252.5" y="135.8467">StatisticalSample</text><line style="stroke:#181818;stroke-width:0.5;" x1="1224.5" x2="1376.166" y1="147" y2="147"/><line style="stroke:#181818;stroke-width:0.5;" x1="1224.5" x2="1376.166" y1="155" y2="155"/></g><!--class ObservableProperty--><g class="entity" data-qualified-name="ObservableProperty" data-source-line="5" id="ent0011"><rect fill="#F1F1F1" height="48" rx="2.5" ry="2.5" style="stroke:#181818;stroke-width:0.5;" width="171.6172" x="671.5" y="115"/><ellipse cx="686.5" cy="131" fill="#ADD1B2" rx="11" ry="11" style="stroke:#181818;stroke-width:1;"/><path d="M689.4688,136.6406 Q688.8906,136.9375 688.25,137.0781 Q687.6094,137.2344 686.9063,137.2344 Q684.4063,137.2344 683.0781,135.5938 Q681.7656,133.9375 681.7656,130.8125 Q681.7656,127.6875 683.0781,126.0313 Q684.4063,124.375 686.9063,124.375 Q687.6094,124.375 688.25,124.5313 Q688.9063,124.6875 689.4688,124.9844 L689.4688,127.7031 Q688.8438,127.125 688.25,126.8594 Q687.6563,126.5781 687.0313,126.5781 Q685.6875,126.5781 685,127.6563 Q684.3125,128.7188 684.3125,130.8125 Q684.3125,132.9063 685,133.9844 Q685.6875,135.0469 687.0313,135.0469 Q687.6563,135.0469 688.25,134.7813 Q688.8438,134.5 689.4688,133.9219 L689.4688,136.6406 Z " fill="#000000"/><text fill="#000000" font-family="sans-serif" font-size="14" lengthAdjust="spacing" textLength="139.6172" x="700.5" y="135.8467">ObservableProperty</text><line style="stroke:#181818;stroke-width:0.5;" x1="672.5" x2="842.1172" y1="147" y2="147"/><line style="stroke:#181818;stroke-width:0.5;" x1="672.5" x2="842.1172" y1="155" y2="155"/></g><!--class Procedure--><g class="entity" data-qualified-name="Procedure" data-source-line="6" id="ent0013"><rect fill="#F1F1F1" height="48" rx="2.5" ry="2.5" style="stroke:#181818;stroke-width:0.5;" width="103.2031" x="1655" y="7"/><ellipse cx="1670" cy="23" fill="#ADD1B2" rx="11" ry="11" style="stroke:#181818;stroke-width:1;"/><path d="M1672.9688,28.6406 Q1672.3906,28.9375 1671.75,29.0781 Q1671.1094,29.2344 1670.4063,29.2344 Q1667.9063,29.2344 1666.5781,27.5938 Q1665.2656,25.9375 1665.2656,22.8125 Q1665.2656,19.6875 1666.5781,18.0313 Q1667.9063,16.375 1670.4063,16.375 Q1671.1094,16.375 1671.75,16.5313 Q1672.4063,16.6875 1672.9688,16.9844 L1672.9688,19.7031 Q1672.3438,19.125 1671.75,18.8594 Q1671.1563,18.5781 1670.5313,18.5781 Q1669.1875,18.5781 1668.5,19.6563 Q1667.8125,20.7188 1667.8125,22.8125 Q1667.8125,24.9063 1668.5,25.9844 Q1669.1875,27.0469 1670.5313,27.0469 Q1671.1563,27.0469 1671.75,26.7813 Q1672.3438,26.5 1672.9688,25.9219 L1672.9688,28.6406 Z " fill="#000000"/><text fill="#000000" font-family="sans-serif" font-size="14" lengthAdjust="spacing" textLength="71.2031" x="1684" y="27.8467">Procedure</text><line style="stroke:#181818;stroke-width:0.5;" x1="1656" x2="1757.2031" y1="39" y2="39"/><line style="stroke:#181818;stroke-width:0.5;" x1="1656" x2="1757.2031" y1="47" y2="47"/></g><!--class ActuatingProcedure--><g class="entity" data-qualified-name="ActuatingProcedure" data-source-line="6" id="ent0014"><rect fill="#F1F1F1" height="48" rx="2.5" ry="2.5" style="stroke:#181818;stroke-width:0.5;" width="170.5576" x="1413" y="115"/><ellipse cx="1428" cy="131" fill="#ADD1B2" rx="11" ry="11" style="stroke:#181818;stroke-width:1;"/><path d="M1430.9688,136.6406 Q1430.3906,136.9375 1429.75,137.0781 Q1429.1094,137.2344 1428.4063,137.2344 Q1425.9063,137.2344 1424.5781,135.5938 Q1423.2656,133.9375 1423.2656,130.8125 Q1423.2656,127.6875 1424.5781,126.0313 Q1425.9063,124.375 1428.4063,124.375 Q1429.1094,124.375 1429.75,124.5313 Q1430.4063,124.6875 1430.9688,124.9844 L1430.9688,127.7031 Q1430.3438,127.125 1429.75,126.8594 Q1429.1563,126.5781 1428.5313,126.5781 Q1427.1875,126.5781 1426.5,127.6563 Q1425.8125,128.7188 1425.8125,130.8125 Q1425.8125,132.9063 1426.5,133.9844 Q1427.1875,135.0469 1428.5313,135.0469 Q1429.1563,135.0469 1429.75,134.7813 Q1430.3438,134.5 1430.9688,133.9219 L1430.9688,136.6406 Z " fill="#000000"/><text fill="#000000" font-family="sans-serif" font-size="14" lengthAdjust="spacing" textLength="138.5576" x="1442" y="135.8467">ActuatingProcedure</text><line style="stroke:#181818;stroke-width:0.5;" x1="1414" x2="1582.5576" y1="147" y2="147"/><line style="stroke:#181818;stroke-width:0.5;" x1="1414" x2="1582.5576" y1="155" y2="155"/></g><!--class ObservingProcedure--><g class="entity" data-qualified-name="ObservingProcedure" data-source-line="7" id="ent0016"><rect fill="#F1F1F1" height="48" rx="2.5" ry="2.5" style="stroke:#181818;stroke-width:0.5;" width="174.707" x="1619" y="115"/><ellipse cx="1634" cy="131" fill="#ADD1B2" rx="11" ry="11" style="stroke:#181818;stroke-width:1;"/><path d="M1636.9688,136.6406 Q1636.3906,136.9375 1635.75,137.0781 Q1635.1094,137.2344 1634.4063,137.2344 Q1631.9063,137.2344 1630.5781,135.5938 Q1629.2656,133.9375 1629.2656,130.8125 Q1629.2656,127.6875 1630.5781,126.0313 Q1631.9063,124.375 1634.4063,124.375 Q1635.1094,124.375 1635.75,124.5313 Q1636.4063,124.6875 1636.9688,124.9844 L1636.9688,127.7031 Q1636.3438,127.125 1635.75,126.8594 Q1635.1563,126.5781 1634.5313,126.5781 Q1633.1875,126.5781 1632.5,127.6563 Q1631.8125,128.7188 1631.8125,130.8125 Q1631.8125,132.9063 1632.5,133.9844 Q1633.1875,135.0469 1634.5313,135.0469 Q1635.1563,135.0469 1635.75,134.7813 Q1636.3438,134.5 1636.9688,133.9219 L1636.9688,136.6406 Z " fill="#000000"/><text fill="#000000" font-family="sans-serif" font-size="14" lengthAdjust="spacing" textLength="142.707" x="1648" y="135.8467">ObservingProcedure</text><line style="stroke:#181818;stroke-width:0.5;" x1="1620" x2="1792.707" y1="147" y2="147"/><line style="stroke:#181818;stroke-width:0.5;" x1="1620" x2="1792.707" y1="155" y2="155"/></g><!--class SamplingProcedure--><g class="entity" data-qualified-name="SamplingProcedure" data-source-line="8" id="ent0018"><rect fill="#F1F1F1" height="48" rx="2.5" ry="2.5" style="stroke:#181818;stroke-width:0.5;" width="168.7324" x="1829" y="115"/><ellipse cx="1844" cy="131" fill="#ADD1B2" rx="11" ry="11" style="stroke:#181818;stroke-width:1;"/><path d="M1846.9688,136.6406 Q1846.3906,136.9375 1845.75,137.0781 Q1845.1094,137.2344 1844.4063,137.2344 Q1841.9063,137.2344 1840.5781,135.5938 Q1839.2656,133.9375 1839.2656,130.8125 Q1839.2656,127.6875 1840.5781,126.0313 Q1841.9063,124.375 1844.4063,124.375 Q1845.1094,124.375 1845.75,124.5313 Q1846.4063,124.6875 1846.9688,124.9844 L1846.9688,127.7031 Q1846.3438,127.125 1845.75,126.8594 Q1845.1563,126.5781 1844.5313,126.5781 Q1843.1875,126.5781 1842.5,127.6563 Q1841.8125,128.7188 1841.8125,130.8125 Q1841.8125,132.9063 1842.5,133.9844 Q1843.1875,135.0469 1844.5313,135.0469 Q1845.1563,135.0469 1845.75,134.7813 Q1846.3438,134.5 1846.9688,133.9219 L1846.9688,136.6406 Z " fill="#000000"/><text fill="#000000" font-family="sans-serif" font-size="14" lengthAdjust="spacing" textLength="136.7324" x="1858" y="135.8467">SamplingProcedure</text><line style="stroke:#181818;stroke-width:0.5;" x1="1830" x2="1996.7324" y1="147" y2="147"/><line style="stroke:#181818;stroke-width:0.5;" x1="1830" x2="1996.7324" y1="155" y2="155"/></g><!--class Asset--><g class="entity" data-qualified-name="Asset" data-source-line="9" id="ent0020"><rect fill="#F1F1F1" height="48" rx="2.5" ry="2.5" style="stroke:#181818;stroke-width:0.5;" width="70.2676" x="2104.5" y="7"/><ellipse cx="2119.5" cy="23" fill="#ADD1B2" rx="11" ry="11" style="stroke:#181818;stroke-width:1;"/><path d="M2122.4688,28.6406 Q2121.8906,28.9375 2121.25,29.0781 Q2120.6094,29.2344 2119.9063,29.2344 Q2117.4063,29.2344 2116.0781,27.5938 Q2114.7656,25.9375 2114.7656,22.8125 Q2114.7656,19.6875 2116.0781,18.0313 Q2117.4063,16.375 2119.9063,16.375 Q2120.6094,16.375 2121.25,16.5313 Q2121.9063,16.6875 2122.4688,16.9844 L2122.4688,19.7031 Q2121.8438,19.125 2121.25,18.8594 Q2120.6563,18.5781 2120.0313,18.5781 Q2118.6875,18.5781 2118,19.6563 Q2117.3125,20.7188 2117.3125,22.8125 Q2117.3125,24.9063 2118,25.9844 Q2118.6875,27.0469 2120.0313,27.0469 Q2120.6563,27.0469 2121.25,26.7813 Q2121.8438,26.5 2122.4688,25.9219 L2122.4688,28.6406 Z " fill="#000000"/><text fill="#000000" font-family="sans-serif" font-size="14" lengthAdjust="spacing" textLength="38.2676" x="2133.5" y="27.8467">Asset</text><line style="stroke:#181818;stroke-width:0.5;" x1="2105.5" x2="2173.7676" y1="39" y2="39"/><line style="stroke:#181818;stroke-width:0.5;" x1="2105.5" x2="2173.7676" y1="47" y2="47"/></g><!--class Platform--><g class="entity" data-qualified-name="Platform" data-source-line="9" id="ent0021"><rect fill="#F1F1F1" height="48" rx="2.5" ry="2.5" style="stroke:#181818;stroke-width:0.5;" width="91.2881" x="2033" y="115"/><ellipse cx="2048" cy="131" fill="#ADD1B2" rx="11" ry="11" style="stroke:#181818;stroke-width:1;"/><path d="M2050.9688,136.6406 Q2050.3906,136.9375 2049.75,137.0781 Q2049.1094,137.2344 2048.4063,137.2344 Q2045.9063,137.2344 2044.5781,135.5938 Q2043.2656,133.9375 2043.2656,130.8125 Q2043.2656,127.6875 2044.5781,126.0313 Q2045.9063,124.375 2048.4063,124.375 Q2049.1094,124.375 2049.75,124.5313 Q2050.4063,124.6875 2050.9688,124.9844 L2050.9688,127.7031 Q2050.3438,127.125 2049.75,126.8594 Q2049.1563,126.5781 2048.5313,126.5781 Q2047.1875,126.5781 2046.5,127.6563 Q2045.8125,128.7188 2045.8125,130.8125 Q2045.8125,132.9063 2046.5,133.9844 Q2047.1875,135.0469 2048.5313,135.0469 Q2049.1563,135.0469 2049.75,134.7813 Q2050.3438,134.5 2050.9688,133.9219 L2050.9688,136.6406 Z " fill="#000000"/><text fill="#000000" font-family="sans-serif" font-size="14" lengthAdjust="spacing" textLength="59.2881" x="2062" y="135.8467">Platform</text><line style="stroke:#181818;stroke-width:0.5;" x1="2034" x2="2123.2881" y1="147" y2="147"/><line style="stroke:#181818;stroke-width:0.5;" x1="2034" x2="2123.2881" y1="155" y2="155"/></g><!--class System--><g class="entity" data-qualified-name="System" data-source-line="10" id="ent0023"><rect fill="#F1F1F1" height="48" rx="2.5" ry="2.5" style="stroke:#181818;stroke-width:0.5;" width="84.2061" x="2159.5" y="115"/><ellipse cx="2174.5" cy="131" fill="#ADD1B2" rx="11" ry="11" style="stroke:#181818;stroke-width:1;"/><path d="M2177.4688,136.6406 Q2176.8906,136.9375 2176.25,137.0781 Q2175.6094,137.2344 2174.9063,137.2344 Q2172.4063,137.2344 2171.0781,135.5938 Q2169.7656,133.9375 2169.7656,130.8125 Q2169.7656,127.6875 2171.0781,126.0313 Q2172.4063,124.375 2174.9063,124.375 Q2175.6094,124.375 2176.25,124.5313 Q2176.9063,124.6875 2177.4688,124.9844 L2177.4688,127.7031 Q2176.8438,127.125 2176.25,126.8594 Q2175.6563,126.5781 2175.0313,126.5781 Q2173.6875,126.5781 2173,127.6563 Q2172.3125,128.7188 2172.3125,130.8125 Q2172.3125,132.9063 2173,133.9844 Q2173.6875,135.0469 2175.0313,135.0469 Q2175.6563,135.0469 2176.25,134.7813 Q2176.8438,134.5 2177.4688,133.9219 L2177.4688,136.6406 Z " fill="#000000"/><text fill="#000000" font-family="sans-serif" font-size="14" lengthAdjust="spacing" textLength="52.2061" x="2188.5" y="135.8467">System</text><line style="stroke:#181818;stroke-width:0.5;" x1="2160.5" x2="2242.7061" y1="147" y2="147"/><line style="stroke:#181818;stroke-width:0.5;" x1="2160.5" x2="2242.7061" y1="155" y2="155"/></g><!--class Sampler--><g class="entity" data-qualified-name="Sampler" data-source-line="10" id="ent0024"><rect fill="#F1F1F1" height="48" rx="2.5" ry="2.5" style="stroke:#181818;stroke-width:0.5;" width="90.249" x="2030.5" y="223"/><ellipse cx="2045.5" cy="239" fill="#ADD1B2" rx="11" ry="11" style="stroke:#181818;stroke-width:1;"/><path d="M2048.4688,244.6406 Q2047.8906,244.9375 2047.25,245.0781 Q2046.6094,245.2344 2045.9063,245.2344 Q2043.4063,245.2344 2042.0781,243.5938 Q2040.7656,241.9375 2040.7656,238.8125 Q2040.7656,235.6875 2042.0781,234.0313 Q2043.4063,232.375 2045.9063,232.375 Q2046.6094,232.375 2047.25,232.5313 Q2047.9063,232.6875 2048.4688,232.9844 L2048.4688,235.7031 Q2047.8438,235.125 2047.25,234.8594 Q2046.6563,234.5781 2046.0313,234.5781 Q2044.6875,234.5781 2044,235.6563 Q2043.3125,236.7188 2043.3125,238.8125 Q2043.3125,240.9063 2044,241.9844 Q2044.6875,243.0469 2046.0313,243.0469 Q2046.6563,243.0469 2047.25,242.7813 Q2047.8438,242.5 2048.4688,241.9219 L2048.4688,244.6406 Z " fill="#000000"/><text fill="#000000" font-family="sans-serif" font-size="14" lengthAdjust="spacing" textLength="58.249" x="2059.5" y="243.8467">Sampler</text><line style="stroke:#181818;stroke-width:0.5;" x1="2031.5" x2="2119.749" y1="255" y2="255"/><line style="stroke:#181818;stroke-width:0.5;" x1="2031.5" x2="2119.749" y1="263" y2="263"/></g><!--class Actuator--><g class="entity" data-qualified-name="Actuator" data-source-line="11" id="ent0026"><rect fill="#F1F1F1" height="48" rx="2.5" ry="2.5" style="stroke:#181818;stroke-width:0.5;" width="92.0264" x="2155.5" y="223"/><ellipse cx="2170.5" cy="239" fill="#ADD1B2" rx="11" ry="11" style="stroke:#181818;stroke-width:1;"/><path d="M2173.4688,244.6406 Q2172.8906,244.9375 2172.25,245.0781 Q2171.6094,245.2344 2170.9063,245.2344 Q2168.4063,245.2344 2167.0781,243.5938 Q2165.7656,241.9375 2165.7656,238.8125 Q2165.7656,235.6875 2167.0781,234.0313 Q2168.4063,232.375 2170.9063,232.375 Q2171.6094,232.375 2172.25,232.5313 Q2172.9063,232.6875 2173.4688,232.9844 L2173.4688,235.7031 Q2172.8438,235.125 2172.25,234.8594 Q2171.6563,234.5781 2171.0313,234.5781 Q2169.6875,234.5781 2169,235.6563 Q2168.3125,236.7188 2168.3125,238.8125 Q2168.3125,240.9063 2169,241.9844 Q2169.6875,243.0469 2171.0313,243.0469 Q2171.6563,243.0469 2172.25,242.7813 Q2172.8438,242.5 2173.4688,241.9219 L2173.4688,244.6406 Z " fill="#000000"/><text fill="#000000" font-family="sans-serif" font-size="14" lengthAdjust="spacing" textLength="60.0264" x="2184.5" y="243.8467">Actuator</text><line style="stroke:#181818;stroke-width:0.5;" x1="2156.5" x2="2246.5264" y1="255" y2="255"/><line style="stroke:#181818;stroke-width:0.5;" x1="2156.5" x2="2246.5264" y1="263" y2="263"/></g><!--class Execution--><g class="entity" data-qualified-name="Execution" data-source-line="13" id="ent0029"><rect fill="#F1F1F1" height="48" rx="2.5" ry="2.5" style="stroke:#181818;stroke-width:0.5;" width="101.1318" x="2411" y="7"/><ellipse cx="2426" cy="23" fill="#ADD1B2" rx="11" ry="11" style="stroke:#181818;stroke-width:1;"/><path d="M2428.9688,28.6406 Q2428.3906,28.9375 2427.75,29.0781 Q2427.1094,29.2344 2426.4063,29.2344 Q2423.9063,29.2344 2422.5781,27.5938 Q2421.2656,25.9375 2421.2656,22.8125 Q2421.2656,19.6875 2422.5781,18.0313 Q2423.9063,16.375 2426.4063,16.375 Q2427.1094,16.375 2427.75,16.5313 Q2428.4063,16.6875 2428.9688,16.9844 L2428.9688,19.7031 Q2428.3438,19.125 2427.75,18.8594 Q2427.1563,18.5781 2426.5313,18.5781 Q2425.1875,18.5781 2424.5,19.6563 Q2423.8125,20.7188 2423.8125,22.8125 Q2423.8125,24.9063 2424.5,25.9844 Q2425.1875,27.0469 2426.5313,27.0469 Q2427.1563,27.0469 2427.75,26.7813 Q2428.3438,26.5 2428.9688,25.9219 L2428.9688,28.6406 Z " fill="#000000"/><text fill="#000000" font-family="sans-serif" font-size="14" lengthAdjust="spacing" textLength="69.1318" x="2440" y="27.8467">Execution</text><line style="stroke:#181818;stroke-width:0.5;" x1="2412" x2="2511.1318" y1="39" y2="39"/><line style="stroke:#181818;stroke-width:0.5;" x1="2412" x2="2511.1318" y1="47" y2="47"/></g><!--class Sampling--><g class="entity" data-qualified-name="Sampling" data-source-line="13" id="ent0030"><rect fill="#F1F1F1" height="48" rx="2.5" ry="2.5" style="stroke:#181818;stroke-width:0.5;" width="97.5293" x="2278.5" y="115"/><ellipse cx="2293.5" cy="131" fill="#ADD1B2" rx="11" ry="11" style="stroke:#181818;stroke-width:1;"/><path d="M2296.4688,136.6406 Q2295.8906,136.9375 2295.25,137.0781 Q2294.6094,137.2344 2293.9063,137.2344 Q2291.4063,137.2344 2290.0781,135.5938 Q2288.7656,133.9375 2288.7656,130.8125 Q2288.7656,127.6875 2290.0781,126.0313 Q2291.4063,124.375 2293.9063,124.375 Q2294.6094,124.375 2295.25,124.5313 Q2295.9063,124.6875 2296.4688,124.9844 L2296.4688,127.7031 Q2295.8438,127.125 2295.25,126.8594 Q2294.6563,126.5781 2294.0313,126.5781 Q2292.6875,126.5781 2292,127.6563 Q2291.3125,128.7188 2291.3125,130.8125 Q2291.3125,132.9063 2292,133.9844 Q2292.6875,135.0469 2294.0313,135.0469 Q2294.6563,135.0469 2295.25,134.7813 Q2295.8438,134.5 2296.4688,133.9219 L2296.4688,136.6406 Z " fill="#000000"/><text fill="#000000" font-family="sans-serif" font-size="14" lengthAdjust="spacing" textLength="65.5293" x="2307.5" y="135.8467">Sampling</text><line style="stroke:#181818;stroke-width:0.5;" x1="2279.5" x2="2375.0293" y1="147" y2="147"/><line style="stroke:#181818;stroke-width:0.5;" x1="2279.5" x2="2375.0293" y1="155" y2="155"/></g><!--class ExecutionCollection--><g class="entity" data-qualified-name="ExecutionCollection" data-source-line="14" id="ent0032"><rect fill="#F1F1F1" height="48" rx="2.5" ry="2.5" style="stroke:#181818;stroke-width:0.5;" width="170.3799" x="2898.5" y="7"/><ellipse cx="2913.5" cy="23" fill="#ADD1B2" rx="11" ry="11" style="stroke:#181818;stroke-width:1;"/><path d="M2916.4688,28.6406 Q2915.8906,28.9375 2915.25,29.0781 Q2914.6094,29.2344 2913.9063,29.2344 Q2911.4063,29.2344 2910.0781,27.5938 Q2908.7656,25.9375 2908.7656,22.8125 Q2908.7656,19.6875 2910.0781,18.0313 Q2911.4063,16.375 2913.9063,16.375 Q2914.6094,16.375 2915.25,16.5313 Q2915.9063,16.6875 2916.4688,16.9844 L2916.4688,19.7031 Q2915.8438,19.125 2915.25,18.8594 Q2914.6563,18.5781 2914.0313,18.5781 Q2912.6875,18.5781 2912,19.6563 Q2911.3125,20.7188 2911.3125,22.8125 Q2911.3125,24.9063 2912,25.9844 Q2912.6875,27.0469 2914.0313,27.0469 Q2914.6563,27.0469 2915.25,26.7813 Q2915.8438,26.5 2916.4688,25.9219 L2916.4688,28.6406 Z " fill="#000000"/><text fill="#000000" font-family="sans-serif" font-size="14" lengthAdjust="spacing" textLength="138.3799" x="2927.5" y="27.8467">ExecutionCollection</text><line style="stroke:#181818;stroke-width:0.5;" x1="2899.5" x2="3067.8799" y1="39" y2="39"/><line style="stroke:#181818;stroke-width:0.5;" x1="2899.5" x2="3067.8799" y1="47" y2="47"/></g><!--class SamplingCollection--><g class="entity" data-qualified-name="SamplingCollection" data-source-line="14" id="ent0033"><rect fill="#F1F1F1" height="48" rx="2.5" ry="2.5" style="stroke:#181818;stroke-width:0.5;" width="166.7773" x="2698" y="115"/><ellipse cx="2713" cy="131" fill="#ADD1B2" rx="11" ry="11" style="stroke:#181818;stroke-width:1;"/><path d="M2715.9688,136.6406 Q2715.3906,136.9375 2714.75,137.0781 Q2714.1094,137.2344 2713.4063,137.2344 Q2710.9063,137.2344 2709.5781,135.5938 Q2708.2656,133.9375 2708.2656,130.8125 Q2708.2656,127.6875 2709.5781,126.0313 Q2710.9063,124.375 2713.4063,124.375 Q2714.1094,124.375 2714.75,124.5313 Q2715.4063,124.6875 2715.9688,124.9844 L2715.9688,127.7031 Q2715.3438,127.125 2714.75,126.8594 Q2714.1563,126.5781 2713.5313,126.5781 Q2712.1875,126.5781 2711.5,127.6563 Q2710.8125,128.7188 2710.8125,130.8125 Q2710.8125,132.9063 2711.5,133.9844 Q2712.1875,135.0469 2713.5313,135.0469 Q2714.1563,135.0469 2714.75,134.7813 Q2715.3438,134.5 2715.9688,133.9219 L2715.9688,136.6406 Z " fill="#000000"/><text fill="#000000" font-family="sans-serif" font-size="14" lengthAdjust="spacing" textLength="134.7773" x="2727" y="135.8467">SamplingCollection</text><line style="stroke:#181818;stroke-width:0.5;" x1="2699" x2="2863.7773" y1="147" y2="147"/><line style="stroke:#181818;stroke-width:0.5;" x1="2699" x2="2863.7773" y1="155" y2="155"/></g><!--class Actuation--><g class="entity" data-qualified-name="Actuation" data-source-line="15" id="ent0035"><rect fill="#F1F1F1" height="48" rx="2.5" ry="2.5" style="stroke:#181818;stroke-width:0.5;" width="99.0332" x="2412" y="115"/><ellipse cx="2427" cy="131" fill="#ADD1B2" rx="11" ry="11" style="stroke:#181818;stroke-width:1;"/><path d="M2429.9688,136.6406 Q2429.3906,136.9375 2428.75,137.0781 Q2428.1094,137.2344 2427.4063,137.2344 Q2424.9063,137.2344 2423.5781,135.5938 Q2422.2656,133.9375 2422.2656,130.8125 Q2422.2656,127.6875 2423.5781,126.0313 Q2424.9063,124.375 2427.4063,124.375 Q2428.1094,124.375 2428.75,124.5313 Q2429.4063,124.6875 2429.9688,124.9844 L2429.9688,127.7031 Q2429.3438,127.125 2428.75,126.8594 Q2428.1563,126.5781 2427.5313,126.5781 Q2426.1875,126.5781 2425.5,127.6563 Q2424.8125,128.7188 2424.8125,130.8125 Q2424.8125,132.9063 2425.5,133.9844 Q2426.1875,135.0469 2427.5313,135.0469 Q2428.1563,135.0469 2428.75,134.7813 Q2429.3438,134.5 2429.9688,133.9219 L2429.9688,136.6406 Z " fill="#000000"/><text fill="#000000" font-family="sans-serif" font-size="14" lengthAdjust="spacing" textLength="67.0332" x="2441" y="135.8467">Actuation</text><line style="stroke:#181818;stroke-width:0.5;" x1="2413" x2="2510.0332" y1="147" y2="147"/><line style="stroke:#181818;stroke-width:0.5;" x1="2413" x2="2510.0332" y1="155" y2="155"/></g><!--class Sensor--><g class="entity" data-qualified-name="Sensor" data-source-line="16" id="ent0037"><rect fill="#F1F1F1" height="48" rx="2.5" ry="2.5" style="stroke:#181818;stroke-width:0.5;" width="79.9883" x="2282.5" y="223"/><ellipse cx="2297.5" cy="239" fill="#ADD1B2" rx="11" ry="11" style="stroke:#181818;stroke-width:1;"/><path d="M2300.4688,244.6406 Q2299.8906,244.9375 2299.25,245.0781 Q2298.6094,245.2344 2297.9063,245.2344 Q2295.4063,245.2344 2294.0781,243.5938 Q2292.7656,241.9375 2292.7656,238.8125 Q2292.7656,235.6875 2294.0781,234.0313 Q2295.4063,232.375 2297.9063,232.375 Q2298.6094,232.375 2299.25,232.5313 Q2299.9063,232.6875 2300.4688,232.9844 L2300.4688,235.7031 Q2299.8438,235.125 2299.25,234.8594 Q2298.6563,234.5781 2298.0313,234.5781 Q2296.6875,234.5781 2296,235.6563 Q2295.3125,236.7188 2295.3125,238.8125 Q2295.3125,240.9063 2296,241.9844 Q2296.6875,243.0469 2298.0313,243.0469 Q2298.6563,243.0469 2299.25,242.7813 Q2299.8438,242.5 2300.4688,241.9219 L2300.4688,244.6406 Z " fill="#000000"/><text fill="#000000" font-family="sans-serif" font-size="14" lengthAdjust="spacing" textLength="47.9883" x="2311.5" y="243.8467">Sensor</text><line style="stroke:#181818;stroke-width:0.5;" x1="2283.5" x2="2361.4883" y1="255" y2="255"/><line style="stroke:#181818;stroke-width:0.5;" x1="2283.5" x2="2361.4883" y1="263" y2="263"/></g><!--class ActuationCollection--><g class="entity" data-qualified-name="ActuationCollection" data-source-line="17" id="ent0039"><rect fill="#F1F1F1" height="48" rx="2.5" ry="2.5" style="stroke:#181818;stroke-width:0.5;" width="168.2813" x="2899.5" y="115"/><ellipse cx="2914.5" cy="131" fill="#ADD1B2" rx="11" ry="11" style="stroke:#181818;stroke-width:1;"/><path d="M2917.4688,136.6406 Q2916.8906,136.9375 2916.25,137.0781 Q2915.6094,137.2344 2914.9063,137.2344 Q2912.4063,137.2344 2911.0781,135.5938 Q2909.7656,133.9375 2909.7656,130.8125 Q2909.7656,127.6875 2911.0781,126.0313 Q2912.4063,124.375 2914.9063,124.375 Q2915.6094,124.375 2916.25,124.5313 Q2916.9063,124.6875 2917.4688,124.9844 L2917.4688,127.7031 Q2916.8438,127.125 2916.25,126.8594 Q2915.6563,126.5781 2915.0313,126.5781 Q2913.6875,126.5781 2913,127.6563 Q2912.3125,128.7188 2912.3125,130.8125 Q2912.3125,132.9063 2913,133.9844 Q2913.6875,135.0469 2915.0313,135.0469 Q2915.6563,135.0469 2916.25,134.7813 Q2916.8438,134.5 2917.4688,133.9219 L2917.4688,136.6406 Z " fill="#000000"/><text fill="#000000" font-family="sans-serif" font-size="14" lengthAdjust="spacing" textLength="136.2813" x="2928.5" y="135.8467">ActuationCollection</text><line style="stroke:#181818;stroke-width:0.5;" x1="2900.5" x2="3066.7813" y1="147" y2="147"/><line style="stroke:#181818;stroke-width:0.5;" x1="2900.5" x2="3066.7813" y1="155" y2="155"/></g><!--class ObservationCollection--><g class="entity" data-qualified-name="ObservationCollection" data-source-line="18" id="ent0041"><rect fill="#F1F1F1" height="48" rx="2.5" ry="2.5" style="stroke:#181818;stroke-width:0.5;" width="186.499" x="3102.5" y="115"/><ellipse cx="3117.5" cy="131" fill="#ADD1B2" rx="11" ry="11" style="stroke:#181818;stroke-width:1;"/><path d="M3120.4688,136.6406 Q3119.8906,136.9375 3119.25,137.0781 Q3118.6094,137.2344 3117.9063,137.2344 Q3115.4063,137.2344 3114.0781,135.5938 Q3112.7656,133.9375 3112.7656,130.8125 Q3112.7656,127.6875 3114.0781,126.0313 Q3115.4063,124.375 3117.9063,124.375 Q3118.6094,124.375 3119.25,124.5313 Q3119.9063,124.6875 3120.4688,124.9844 L3120.4688,127.7031 Q3119.8438,127.125 3119.25,126.8594 Q3118.6563,126.5781 3118.0313,126.5781 Q3116.6875,126.5781 3116,127.6563 Q3115.3125,128.7188 3115.3125,130.8125 Q3115.3125,132.9063 3116,133.9844 Q3116.6875,135.0469 3118.0313,135.0469 Q3118.6563,135.0469 3119.25,134.7813 Q3119.8438,134.5 3120.4688,133.9219 L3120.4688,136.6406 Z " fill="#000000"/><text fill="#000000" font-family="sans-serif" font-size="14" lengthAdjust="spacing" textLength="154.499" x="3131.5" y="135.8467">ObservationCollection</text><line style="stroke:#181818;stroke-width:0.5;" x1="3103.5" x2="3287.999" y1="147" y2="147"/><line style="stroke:#181818;stroke-width:0.5;" x1="3103.5" x2="3287.999" y1="155" y2="155"/></g><!--class Observation--><g class="entity" data-qualified-name="Observation" data-source-line="19" id="ent0043"><rect fill="#F1F1F1" height="48" rx="2.5" ry="2.5" style="stroke:#181818;stroke-width:0.5;" width="117.251" x="2546" y="115"/><ellipse cx="2561" cy="131" fill="#ADD1B2" rx="11" ry="11" style="stroke:#181818;stroke-width:1;"/><path d="M2563.9688,136.6406 Q2563.3906,136.9375 2562.75,137.0781 Q2562.1094,137.2344 2561.4063,137.2344 Q2558.9063,137.2344 2557.5781,135.5938 Q2556.2656,133.9375 2556.2656,130.8125 Q2556.2656,127.6875 2557.5781,126.0313 Q2558.9063,124.375 2561.4063,124.375 Q2562.1094,124.375 2562.75,124.5313 Q2563.4063,124.6875 2563.9688,124.9844 L2563.9688,127.7031 Q2563.3438,127.125 2562.75,126.8594 Q2562.1563,126.5781 2561.5313,126.5781 Q2560.1875,126.5781 2559.5,127.6563 Q2558.8125,128.7188 2558.8125,130.8125 Q2558.8125,132.9063 2559.5,133.9844 Q2560.1875,135.0469 2561.5313,135.0469 Q2562.1563,135.0469 2562.75,134.7813 Q2563.3438,134.5 2563.9688,133.9219 L2563.9688,136.6406 Z " fill="#000000"/><text fill="#000000" font-family="sans-serif" font-size="14" lengthAdjust="spacing" textLength="85.251" x="2575" y="135.8467">Observation</text><line style="stroke:#181818;stroke-width:0.5;" x1="2547" x2="2662.251" y1="147" y2="147"/><line style="stroke:#181818;stroke-width:0.5;" x1="2547" x2="2662.251" y1="155" y2="155"/></g><!--class Stimulus--><g class="entity" data-qualified-name="Stimulus" data-source-line="21" id="ent0045"><rect fill="#F1F1F1" height="48" rx="2.5" ry="2.5" style="stroke:#181818;stroke-width:0.5;" width="92.833" x="7" y="7"/><ellipse cx="22" cy="23" fill="#ADD1B2" rx="11" ry="11" style="stroke:#181818;stroke-width:1;"/><path d="M24.9688,28.6406 Q24.3906,28.9375 23.75,29.0781 Q23.1094,29.2344 22.4063,29.2344 Q19.9063,29.2344 18.5781,27.5938 Q17.2656,25.9375 17.2656,22.8125 Q17.2656,19.6875 18.5781,18.0313 Q19.9063,16.375 22.4063,16.375 Q23.1094,16.375 23.75,16.5313 Q24.4063,16.6875 24.9688,16.9844 L24.9688,19.7031 Q24.3438,19.125 23.75,18.8594 Q23.1563,18.5781 22.5313,18.5781 Q21.1875,18.5781 20.5,19.6563 Q19.8125,20.7188 19.8125,22.8125 Q19.8125,24.9063 20.5,25.9844 Q21.1875,27.0469 22.5313,27.0469 Q23.1563,27.0469 23.75,26.7813 Q24.3438,26.5 24.9688,25.9219 L24.9688,28.6406 Z " fill="#000000"/><text fill="#000000" font-family="sans-serif" font-size="14" lengthAdjust="spacing" textLength="60.833" x="36" y="27.8467">Stimulus</text><line style="stroke:#181818;stroke-width:0.5;" x1="8" x2="98.833" y1="39" y2="39"/><line style="stroke:#181818;stroke-width:0.5;" x1="8" x2="98.833" y1="47" y2="47"/></g><!--class Input--><g class="entity" data-qualified-name="Input" data-source-line="23" id="ent0046"><rect fill="#F1F1F1" height="48" rx="2.5" ry="2.5" style="stroke:#181818;stroke-width:0.5;" width="68.251" x="135.5" y="7"/><ellipse cx="150.5" cy="23" fill="#ADD1B2" rx="11" ry="11" style="stroke:#181818;stroke-width:1;"/><path d="M153.4688,28.6406 Q152.8906,28.9375 152.25,29.0781 Q151.6094,29.2344 150.9063,29.2344 Q148.4063,29.2344 147.0781,27.5938 Q145.7656,25.9375 145.7656,22.8125 Q145.7656,19.6875 147.0781,18.0313 Q148.4063,16.375 150.9063,16.375 Q151.6094,16.375 152.25,16.5313 Q152.9063,16.6875 153.4688,16.9844 L153.4688,19.7031 Q152.8438,19.125 152.25,18.8594 Q151.6563,18.5781 151.0313,18.5781 Q149.6875,18.5781 149,19.6563 Q148.3125,20.7188 148.3125,22.8125 Q148.3125,24.9063 149,25.9844 Q149.6875,27.0469 151.0313,27.0469 Q151.6563,27.0469 152.25,26.7813 Q152.8438,26.5 153.4688,25.9219 L153.4688,28.6406 Z " fill="#000000"/><text fill="#000000" font-family="sans-serif" font-size="14" lengthAdjust="spacing" textLength="36.251" x="164.5" y="27.8467">Input</text><line style="stroke:#181818;stroke-width:0.5;" x1="136.5" x2="202.751" y1="39" y2="39"/><line style="stroke:#181818;stroke-width:0.5;" x1="136.5" x2="202.751" y1="47" y2="47"/></g><!--class FeatureOfInterest--><g class="entity" data-qualified-name="FeatureOfInterest" data-source-line="24" id="ent0047"><rect fill="#F1F1F1" height="48" rx="2.5" ry="2.5" style="stroke:#181818;stroke-width:0.5;" width="156.1816" x="238.5" y="7"/><ellipse cx="253.5" cy="23" fill="#ADD1B2" rx="11" ry="11" style="stroke:#181818;stroke-width:1;"/><path d="M256.4688,28.6406 Q255.8906,28.9375 255.25,29.0781 Q254.6094,29.2344 253.9063,29.2344 Q251.4063,29.2344 250.0781,27.5938 Q248.7656,25.9375 248.7656,22.8125 Q248.7656,19.6875 250.0781,18.0313 Q251.4063,16.375 253.9063,16.375 Q254.6094,16.375 255.25,16.5313 Q255.9063,16.6875 256.4688,16.9844 L256.4688,19.7031 Q255.8438,19.125 255.25,18.8594 Q254.6563,18.5781 254.0313,18.5781 Q252.6875,18.5781 252,19.6563 Q251.3125,20.7188 251.3125,22.8125 Q251.3125,24.9063 252,25.9844 Q252.6875,27.0469 254.0313,27.0469 Q254.6563,27.0469 255.25,26.7813 Q255.8438,26.5 256.4688,25.9219 L256.4688,28.6406 Z " fill="#000000"/><text fill="#000000" font-family="sans-serif" font-size="14" lengthAdjust="spacing" textLength="124.1816" x="267.5" y="27.8467">FeatureOfInterest</text><line style="stroke:#181818;stroke-width:0.5;" x1="239.5" x2="393.6816" y1="39" y2="39"/><line style="stroke:#181818;stroke-width:0.5;" x1="239.5" x2="393.6816" y1="47" y2="47"/></g><!--class Result--><g class="entity" data-qualified-name="Result" data-source-line="25" id="ent0048"><rect fill="#F1F1F1" height="48" rx="2.5" ry="2.5" style="stroke:#181818;stroke-width:0.5;" width="75.8867" x="15.5" y="115"/><ellipse cx="30.5" cy="131" fill="#ADD1B2" rx="11" ry="11" style="stroke:#181818;stroke-width:1;"/><path d="M33.4688,136.6406 Q32.8906,136.9375 32.25,137.0781 Q31.6094,137.2344 30.9063,137.2344 Q28.4063,137.2344 27.0781,135.5938 Q25.7656,133.9375 25.7656,130.8125 Q25.7656,127.6875 27.0781,126.0313 Q28.4063,124.375 30.9063,124.375 Q31.6094,124.375 32.25,124.5313 Q32.9063,124.6875 33.4688,124.9844 L33.4688,127.7031 Q32.8438,127.125 32.25,126.8594 Q31.6563,126.5781 31.0313,126.5781 Q29.6875,126.5781 29,127.6563 Q28.3125,128.7188 28.3125,130.8125 Q28.3125,132.9063 29,133.9844 Q29.6875,135.0469 31.0313,135.0469 Q31.6563,135.0469 32.25,134.7813 Q32.8438,134.5 33.4688,133.9219 L33.4688,136.6406 Z " fill="#000000"/><text fill="#000000" font-family="sans-serif" font-size="14" lengthAdjust="spacing" textLength="43.8867" x="44.5" y="135.8467">Result</text><line style="stroke:#181818;stroke-width:0.5;" x1="16.5" x2="90.3867" y1="147" y2="147"/><line style="stroke:#181818;stroke-width:0.5;" x1="16.5" x2="90.3867" y1="155" y2="155"/></g><!--class Deployment--><g class="entity" data-qualified-name="Deployment" data-source-line="26" id="ent0049"><rect fill="#F1F1F1" height="48" rx="2.5" ry="2.5" style="stroke:#181818;stroke-width:0.5;" width="117.6338" x="126.5" y="115"/><ellipse cx="141.5" cy="131" fill="#ADD1B2" rx="11" ry="11" style="stroke:#181818;stroke-width:1;"/><path d="M144.4688,136.6406 Q143.8906,136.9375 143.25,137.0781 Q142.6094,137.2344 141.9063,137.2344 Q139.4063,137.2344 138.0781,135.5938 Q136.7656,133.9375 136.7656,130.8125 Q136.7656,127.6875 138.0781,126.0313 Q139.4063,124.375 141.9063,124.375 Q142.6094,124.375 143.25,124.5313 Q143.9063,124.6875 144.4688,124.9844 L144.4688,127.7031 Q143.8438,127.125 143.25,126.8594 Q142.6563,126.5781 142.0313,126.5781 Q140.6875,126.5781 140,127.6563 Q139.3125,128.7188 139.3125,130.8125 Q139.3125,132.9063 140,133.9844 Q140.6875,135.0469 142.0313,135.0469 Q142.6563,135.0469 143.25,134.7813 Q143.8438,134.5 144.4688,133.9219 L144.4688,136.6406 Z " fill="#000000"/><text fill="#000000" font-family="sans-serif" font-size="14" lengthAdjust="spacing" textLength="85.6338" x="155.5" y="135.8467">Deployment</text><line style="stroke:#181818;stroke-width:0.5;" x1="127.5" x2="243.1338" y1="147" y2="147"/><line style="stroke:#181818;stroke-width:0.5;" x1="127.5" x2="243.1338" y1="155" y2="155"/></g><!--class SampleCollection--><g class="entity" data-qualified-name="SampleCollection" data-source-line="28" id="ent0050"><rect fill="#F1F1F1" height="48" rx="2.5" ry="2.5" style="stroke:#181818;stroke-width:0.5;" width="153.7412" x="279.5" y="115"/><ellipse cx="294.5" cy="131" fill="#ADD1B2" rx="11" ry="11" style="stroke:#181818;stroke-width:1;"/><path d="M297.4688,136.6406 Q296.8906,136.9375 296.25,137.0781 Q295.6094,137.2344 294.9063,137.2344 Q292.4063,137.2344 291.0781,135.5938 Q289.7656,133.9375 289.7656,130.8125 Q289.7656,127.6875 291.0781,126.0313 Q292.4063,124.375 294.9063,124.375 Q295.6094,124.375 296.25,124.5313 Q296.9063,124.6875 297.4688,124.9844 L297.4688,127.7031 Q296.8438,127.125 296.25,126.8594 Q295.6563,126.5781 295.0313,126.5781 Q293.6875,126.5781 293,127.6563 Q292.3125,128.7188 292.3125,130.8125 Q292.3125,132.9063 293,133.9844 Q293.6875,135.0469 295.0313,135.0469 Q295.6563,135.0469 296.25,134.7813 Q296.8438,134.5 297.4688,133.9219 L297.4688,136.6406 Z " fill="#000000"/><text fill="#000000" font-family="sans-serif" font-size="14" lengthAdjust="spacing" textLength="121.7412" x="308.5" y="135.8467">SampleCollection</text><line style="stroke:#181818;stroke-width:0.5;" x1="280.5" x2="432.2412" y1="147" y2="147"/><line style="stroke:#181818;stroke-width:0.5;" x1="280.5" x2="432.2412" y1="155" y2="155"/></g><!--class Output--><g class="entity" data-qualified-name="Output" data-source-line="29" id="ent0051"><rect fill="#F1F1F1" height="48" rx="2.5" ry="2.5" style="stroke:#181818;stroke-width:0.5;" width="80.6309" x="13" y="223"/><ellipse cx="28" cy="239" fill="#ADD1B2" rx="11" ry="11" style="stroke:#181818;stroke-width:1;"/><path d="M30.9688,244.6406 Q30.3906,244.9375 29.75,245.0781 Q29.1094,245.2344 28.4063,245.2344 Q25.9063,245.2344 24.5781,243.5938 Q23.2656,241.9375 23.2656,238.8125 Q23.2656,235.6875 24.5781,234.0313 Q25.9063,232.375 28.4063,232.375 Q29.1094,232.375 29.75,232.5313 Q30.4063,232.6875 30.9688,232.9844 L30.9688,235.7031 Q30.3438,235.125 29.75,234.8594 Q29.1563,234.5781 28.5313,234.5781 Q27.1875,234.5781 26.5,235.6563 Q25.8125,236.7188 25.8125,238.8125 Q25.8125,240.9063 26.5,241.9844 Q27.1875,243.0469 28.5313,243.0469 Q29.1563,243.0469 29.75,242.7813 Q30.3438,242.5 30.9688,241.9219 L30.9688,244.6406 Z " fill="#000000"/><text fill="#000000" font-family="sans-serif" font-size="14" lengthAdjust="spacing" textLength="48.6309" x="42" y="243.8467">Output</text><line style="stroke:#181818;stroke-width:0.5;" x1="14" x2="92.6309" y1="255" y2="255"/><line style="stroke:#181818;stroke-width:0.5;" x1="14" x2="92.6309" y1="263" y2="263"/></g><!--reverse link Property to ActuatableProperty--><g class="link" data-entity-1="ent0001" data-entity-2="ent0002" data-link-type="extension" data-source-line="1" id="lnk3"><path codeLine="1" d="M619.8905,67.9716 C602.9005,85.6316 592.01,96.94 574.94,114.68" fill="none" id="Property-backto-ActuatableProperty" style="stroke:#181818;stroke-width:1;"/><polygon fill="none" points="632.37,55,615.5667,63.8118,624.2144,72.1314,632.37,55" style="stroke:#181818;stroke-width:1;stroke-linejoin:miter;stroke-miterlimit:10;"/></g><!--reverse link Sample to MaterialSample--><g class="link" data-entity-1="ent0004" data-entity-2="ent0005" data-link-type="extension" data-source-line="2" id="lnk6"><path codeLine="2" d="M1068.8567,64.4445 C1040.1067,82.1645 1015.85,97.11 987.05,114.86" fill="none" id="Sample-backto-MaterialSample" style="stroke:#181818;stroke-width:1;"/><polygon fill="none" points="1084.18,55,1065.7086,59.3367,1072.0049,69.5522,1084.18,55" style="stroke:#181818;stroke-width:1;stroke-linejoin:miter;stroke-miterlimit:10;"/></g><!--reverse link Sample to SpatialSample--><g class="link" data-entity-1="ent0004" data-entity-2="ent0007" data-link-type="extension" data-source-line="3" id="lnk8"><path codeLine="3" d="M1121.5,73 C1121.5,90.66 1121.5,96.94 1121.5,114.68" fill="none" id="Sample-backto-SpatialSample" style="stroke:#181818;stroke-width:1;"/><polygon fill="none" points="1121.5,55,1115.5,73,1127.5,73,1121.5,55" style="stroke:#181818;stroke-width:1;stroke-linejoin:miter;stroke-miterlimit:10;"/></g><!--reverse link Sample to StatisticalSample--><g class="link" data-entity-1="ent0004" data-entity-2="ent0009" data-link-type="extension" data-source-line="4" id="lnk10"><path codeLine="4" d="M1175.8276,64.1725 C1205.7476,81.8925 1231.45,97.11 1261.43,114.86" fill="none" id="Sample-backto-StatisticalSample" style="stroke:#181818;stroke-width:1;"/><polygon fill="none" points="1160.34,55,1172.7701,69.335,1178.8851,59.0099,1160.34,55" style="stroke:#181818;stroke-width:1;stroke-linejoin:miter;stroke-miterlimit:10;"/></g><!--reverse link Property to ObservableProperty--><g class="link" data-entity-1="ent0001" data-entity-2="ent0011" data-link-type="extension" data-source-line="5" id="lnk12"><path codeLine="5" d="M689.3939,67.9094 C706.5539,85.5694 717.6,96.94 734.84,114.68" fill="none" id="Property-backto-ObservableProperty" style="stroke:#181818;stroke-width:1;"/><polygon fill="none" points="676.85,55,685.0907,72.0906,693.697,63.7281,676.85,55" style="stroke:#181818;stroke-width:1;stroke-linejoin:miter;stroke-miterlimit:10;"/></g><!--reverse link Procedure to ActuatingProcedure--><g class="link" data-entity-1="ent0013" data-entity-2="ent0014" data-link-type="extension" data-source-line="6" id="lnk15"><path codeLine="6" d="M1645.3326,63.1732 C1610.5626,80.8932 1578.74,97.11 1543.9,114.86" fill="none" id="Procedure-backto-ActuatingProcedure" style="stroke:#181818;stroke-width:1;"/><polygon fill="none" points="1661.37,55,1642.6082,57.8274,1648.057,68.519,1661.37,55" style="stroke:#181818;stroke-width:1;stroke-linejoin:miter;stroke-miterlimit:10;"/></g><!--reverse link Procedure to ObservingProcedure--><g class="link" data-entity-1="ent0013" data-entity-2="ent0016" data-link-type="extension" data-source-line="7" id="lnk17"><path codeLine="7" d="M1706.5,73 C1706.5,90.66 1706.5,96.94 1706.5,114.68" fill="none" id="Procedure-backto-ObservingProcedure" style="stroke:#181818;stroke-width:1;"/><polygon fill="none" points="1706.5,55,1700.5,73,1712.5,73,1706.5,55" style="stroke:#181818;stroke-width:1;stroke-linejoin:miter;stroke-miterlimit:10;"/></g><!--reverse link Procedure to SamplingProcedure--><g class="link" data-entity-1="ent0013" data-entity-2="ent0018" data-link-type="extension" data-source-line="8" id="lnk19"><path codeLine="8" d="M1767.4411,63.205 C1802.0411,80.925 1833.65,97.11 1868.31,114.86" fill="none" id="Procedure-backto-SamplingProcedure" style="stroke:#181818;stroke-width:1;"/><polygon fill="none" points="1751.42,55,1764.7061,68.5454,1770.1762,57.8647,1751.42,55" style="stroke:#181818;stroke-width:1;stroke-linejoin:miter;stroke-miterlimit:10;"/></g><!--reverse link Asset to Platform--><g class="link" data-entity-1="ent0020" data-entity-2="ent0021" data-link-type="extension" data-source-line="9" id="lnk22"><path codeLine="9" d="M2117.2839,70.6022 C2107.1239,88.2622 2102.13,96.94 2091.92,114.68" fill="none" id="Asset-backto-Platform" style="stroke:#181818;stroke-width:1;"/><polygon fill="none" points="2126.26,55,2112.0831,67.6102,2122.4846,73.5943,2126.26,55" style="stroke:#181818;stroke-width:1;stroke-linejoin:miter;stroke-miterlimit:10;"/></g><!--reverse link System to Sampler--><g class="link" data-entity-1="ent0023" data-entity-2="ent0024" data-link-type="extension" data-source-line="10" id="lnk25"><path codeLine="10" d="M2160.3865,174.5884 C2139.3965,192.2484 2124.31,204.94 2103.22,222.68" fill="none" id="System-backto-Sampler" style="stroke:#181818;stroke-width:1;"/><polygon fill="none" points="2174.16,163,2156.5237,169.9972,2164.2493,179.1795,2174.16,163" style="stroke:#181818;stroke-width:1;stroke-linejoin:miter;stroke-miterlimit:10;"/></g><!--reverse link System to Actuator--><g class="link" data-entity-1="ent0023" data-entity-2="ent0026" data-link-type="extension" data-source-line="11" id="lnk27"><path codeLine="11" d="M2201.5,181 C2201.5,198.66 2201.5,204.94 2201.5,222.68" fill="none" id="System-backto-Actuator" style="stroke:#181818;stroke-width:1;"/><polygon fill="none" points="2201.5,163,2195.5,181,2207.5,181,2201.5,163" style="stroke:#181818;stroke-width:1;stroke-linejoin:miter;stroke-miterlimit:10;"/></g><!--reverse link Asset to System--><g class="link" data-entity-1="ent0020" data-entity-2="ent0023" data-link-type="extension" data-source-line="12" id="lnk28"><path codeLine="12" d="M2162.0383,70.5372 C2172.3683,88.1972 2177.48,96.94 2187.86,114.68" fill="none" id="Asset-backto-System" style="stroke:#181818;stroke-width:1;"/><polygon fill="none" points="2152.95,55,2156.8592,73.5666,2167.2173,67.5077,2152.95,55" style="stroke:#181818;stroke-width:1;stroke-linejoin:miter;stroke-miterlimit:10;"/></g><!--reverse link Execution to Sampling--><g class="link" data-entity-1="ent0029" data-entity-2="ent0030" data-link-type="extension" data-source-line="13" id="lnk31"><path codeLine="13" d="M2418.3041,66.1688 C2395.9841,83.8288 2379.41,96.94 2356.98,114.68" fill="none" id="Execution-backto-Sampling" style="stroke:#181818;stroke-width:1;"/><polygon fill="none" points="2432.42,55,2414.5812,61.4635,2422.027,70.8741,2432.42,55" style="stroke:#181818;stroke-width:1;stroke-linejoin:miter;stroke-miterlimit:10;"/></g><!--reverse link ExecutionCollection to SamplingCollection--><g class="link" data-entity-1="ent0032" data-entity-2="ent0033" data-link-type="extension" data-source-line="14" id="lnk34"><path codeLine="14" d="M2923.731,63.3636 C2889.961,81.0836 2859.43,97.11 2825.59,114.86" fill="none" id="ExecutionCollection-backto-SamplingCollection" style="stroke:#181818;stroke-width:1;"/><polygon fill="none" points="2939.67,55,2920.9432,58.0506,2926.5189,68.6766,2939.67,55" style="stroke:#181818;stroke-width:1;stroke-linejoin:miter;stroke-miterlimit:10;"/></g><!--reverse link Execution to Actuation--><g class="link" data-entity-1="ent0029" data-entity-2="ent0035" data-link-type="extension" data-source-line="15" id="lnk36"><path codeLine="15" d="M2461.5,73 C2461.5,90.66 2461.5,96.94 2461.5,114.68" fill="none" id="Execution-backto-Actuation" style="stroke:#181818;stroke-width:1;"/><polygon fill="none" points="2461.5,55,2455.5,73,2467.5,73,2461.5,55" style="stroke:#181818;stroke-width:1;stroke-linejoin:miter;stroke-miterlimit:10;"/></g><!--reverse link System to Sensor--><g class="link" data-entity-1="ent0023" data-entity-2="ent0037" data-link-type="extension" data-source-line="16" id="lnk38"><path codeLine="16" d="M2241.2968,174.864 C2261.4468,192.524 2275.63,204.94 2295.88,222.68" fill="none" id="System-backto-Sensor" style="stroke:#181818;stroke-width:1;"/><polygon fill="none" points="2227.76,163,2237.3421,179.3763,2245.2515,170.3518,2227.76,163" style="stroke:#181818;stroke-width:1;stroke-linejoin:miter;stroke-miterlimit:10;"/></g><!--reverse link ExecutionCollection to ActuationCollection--><g class="link" data-entity-1="ent0032" data-entity-2="ent0039" data-link-type="extension" data-source-line="17" id="lnk40"><path codeLine="17" d="M2983.5,73 C2983.5,90.66 2983.5,96.94 2983.5,114.68" fill="none" id="ExecutionCollection-backto-ActuationCollection" style="stroke:#181818;stroke-width:1;"/><polygon fill="none" points="2983.5,55,2977.5,73,2989.5,73,2983.5,55" style="stroke:#181818;stroke-width:1;stroke-linejoin:miter;stroke-miterlimit:10;"/></g><!--reverse link ExecutionCollection to ObservationCollection--><g class="link" data-entity-1="ent0032" data-entity-2="ent0041" data-link-type="extension" data-source-line="18" id="lnk42"><path codeLine="18" d="M3045.5997,63.0498 C3081.0397,80.7698 3113.72,97.11 3149.22,114.86" fill="none" id="ExecutionCollection-backto-ObservationCollection" style="stroke:#181818;stroke-width:1;"/><polygon fill="none" points="3029.5,55,3042.9164,68.4164,3048.283,57.6833,3029.5,55" style="stroke:#181818;stroke-width:1;stroke-linejoin:miter;stroke-miterlimit:10;"/></g><!--reverse link Execution to Observation--><g class="link" data-entity-1="ent0029" data-entity-2="ent0043" data-link-type="extension" data-source-line="19" id="lnk44"><path codeLine="19" d="M2506.9895,65.7202 C2530.8095,83.3802 2549.11,96.94 2573.04,114.68" fill="none" id="Execution-backto-Observation" style="stroke:#181818;stroke-width:1;"/><polygon fill="none" points="2492.53,55,2503.4161,70.54,2510.5629,60.9004,2492.53,55" style="stroke:#181818;stroke-width:1;stroke-linejoin:miter;stroke-miterlimit:10;"/></g><?plantuml-src VL99RiCm3Bpx5Vv0Vj1Bq0N8eR1Hlu1HcK80jK2aYXheuokKtkJKlOapGyw8Kfz2n2HZ-_1zEhLd8na4heJzX3S3k4Yez2i89WkaM4KD4UI0aSAmMBEmVUNPNHdJP-LP3WRVSy9jAki_5dolq1d_ANwjAy6P6KN9da1k8Rbc65dGRJemLPWc2MdRh7pp_8KcYms-zblnnq24vbwnuliPqxqBKUL2poN1uTobww_1U_6q_2FvdQWn1Cpjyb9Q3c9TfinpgHlHuk9ZbkdyWY1bzTtjuij7GfxnD-HCS_64aSBeq1y2-ZARl0ftMLQhET8F?></g></svg>