<svg xmlns="http://www.w3.org/2000/svg" xmlns:xlink="http://www.w3.org/1999/xlink" contentStyleType="text/css" data-diagram-type="CLASS" height="286px" preserveAspectRatio="none" style="width:3165px;height:286px;background:#FFFFFF;" version="1.1" viewBox="0 0 3165 286" width="3165px" zoomAndPan="magnify"><?plantuml 1.2026.5?><defs/><g><!--class Property--><g class="entity" data-qualified-name="Property" data-source-line="1" id="ent0001"><rect fill="#F1F1F1" height="48" rx="2.5" ry="2.5" style="stroke:#181818;stroke-width:0.5;" width="91.7939" x="526" y="7"/><ellipse cx="541" cy="23" fill="#ADD1B2" rx="11" ry="11" style="stroke:#181818;stroke-width:1;"/><path d="M543.9688,28.6406 Q543.3906,28.9375 542.75,29.0781 Q542.1094,29.2344 541.4063,29.2344 Q538.9063,29.2344 537.5781,27.5938 Q536.2656,25.9375 536.2656,22.8125 Q536.2656,19.6875 537.5781,18.0313 Q538.9063,16.375 541.4063,16.375 Q542.1094,16.375 542.75,16.5313 Q543.4063,16.6875 543.9688,16.9844 L543.9688,19.7031 Q543.3438,19.125 542.75,18.8594 Q542.1563,18.5781 541.5313,18.5781 Q540.1875,18.5781 539.5,19.6563 Q538.8125,20.7188 538.8125,22.8125 Q538.8125,24.9063 539.5,25.9844 Q540.1875,27.0469 541.5313,27.0469 Q542.1563,27.0469 542.75,26.7813 Q543.3438,26.5 543.9688,25.9219 L543.9688,28.6406 Z " fill="#000000"/><text fill="#000000" font-family="sans-serif" font-size="14" lengthAdjust="spacing" textLength="59.7939" x="555" y="27.8467">Property</text><line style="stroke:#181818;stroke-width:0.5;" x1="527" x2="616.7939" y1="39" y2="39"/><line style="stroke:#181818;stroke-width:0.5;" x1="527" x2="616.7939" y1="47" y2="47"/></g><!--class ActuatableProperty--><g class="entity" data-qualified-name="ActuatableProperty" data-source-line="1" id="ent0002"><rect fill="#F1F1F1" height="48" rx="2.5" ry="2.5" style="stroke:#181818;stroke-width:0.5;" width="167.4678" x="330.5" y="115"/><ellipse cx="345.5" cy="131" fill="#ADD1B2" rx="11" ry="11" style="stroke:#181818;stroke-width:1;"/><path d="M348.4688,136.6406 Q347.8906,136.9375 347.25,137.0781 Q346.6094,137.2344 345.9063,137.2344 Q343.4063,137.2344 342.0781,135.5938 Q340.7656,133.9375 340.7656,130.8125 Q340.7656,127.6875 342.0781,126.0313 Q343.4063,124.375 345.9063,124.375 Q346.6094,124.375 347.25,124.5313 Q347.9063,124.6875 348.4688,124.9844 L348.4688,127.7031 Q347.8438,127.125 347.25,126.8594 Q346.6563,126.5781 346.0313,126.5781 Q344.6875,126.5781 344,127.6563 Q343.3125,128.7188 343.3125,130.8125 Q343.3125,132.9063 344,133.9844 Q344.6875,135.0469 346.0313,135.0469 Q346.6563,135.0469 347.25,134.7813 Q347.8438,134.5 348.4688,133.9219 L348.4688,136.6406 Z " fill="#000000"/><text fill="#000000" font-family="sans-serif" font-size="14" lengthAdjust="spacing" textLength="135.4678" x="359.5" y="135.8467">ActuatableProperty</text><line style="stroke:#181818;stroke-width:0.5;" x1="331.5" x2="496.9678" y1="147" y2="147"/><line style="stroke:#181818;stroke-width:0.5;" x1="331.5" x2="496.9678" y1="155" y2="155"/></g><!--class Sample--><g class="entity" data-qualified-name="Sample" data-source-line="2" id="ent0004"><rect fill="#F1F1F1" height="48" rx="2.5" ry="2.5" style="stroke:#181818;stroke-width:0.5;" width="84.4932" x="941" y="7"/><ellipse cx="956" cy="23" fill="#ADD1B2" rx="11" ry="11" style="stroke:#181818;stroke-width:1;"/><path d="M958.9688,28.6406 Q958.3906,28.9375 957.75,29.0781 Q957.1094,29.2344 956.4063,29.2344 Q953.9063,29.2344 952.5781,27.5938 Q951.2656,25.9375 951.2656,22.8125 Q951.2656,19.6875 952.5781,18.0313 Q953.9063,16.375 956.4063,16.375 Q957.1094,16.375 957.75,16.5313 Q958.4063,16.6875 958.9688,16.9844 L958.9688,19.7031 Q958.3438,19.125 957.75,18.8594 Q957.1563,18.5781 956.5313,18.5781 Q955.1875,18.5781 954.5,19.6563 Q953.8125,20.7188 953.8125,22.8125 Q953.8125,24.9063 954.5,25.9844 Q955.1875,27.0469 956.5313,27.0469 Q957.1563,27.0469 957.75,26.7813 Q958.3438,26.5 958.9688,25.9219 L958.9688,28.6406 Z " fill="#000000"/><text fill="#000000" font-family="sans-serif" font-size="14" lengthAdjust="spacing" textLength="52.4932" x="970" y="27.8467">Sample</text><line style="stroke:#181818;stroke-width:0.5;" x1="942" x2="1024.4932" y1="39" y2="39"/><line style="stroke:#181818;stroke-width:0.5;" x1="942" x2="1024.4932" y1="47" y2="47"/></g><!--class MaterialSample--><g class="entity" data-qualified-name="MaterialSample" data-source-line="2" id="ent0005"><rect fill="#F1F1F1" height="48" rx="2.5" ry="2.5" style="stroke:#181818;stroke-width:0.5;" width="141.3682" x="740.5" y="115"/><ellipse cx="755.5" cy="131" fill="#ADD1B2" rx="11" ry="11" style="stroke:#181818;stroke-width:1;"/><path d="M758.4688,136.6406 Q757.8906,136.9375 757.25,137.0781 Q756.6094,137.2344 755.9063,137.2344 Q753.4063,137.2344 752.0781,135.5938 Q750.7656,133.9375 750.7656,130.8125 Q750.7656,127.6875 752.0781,126.0313 Q753.4063,124.375 755.9063,124.375 Q756.6094,124.375 757.25,124.5313 Q757.9063,124.6875 758.4688,124.9844 L758.4688,127.7031 Q757.8438,127.125 757.25,126.8594 Q756.6563,126.5781 756.0313,126.5781 Q754.6875,126.5781 754,127.6563 Q753.3125,128.7188 753.3125,130.8125 Q753.3125,132.9063 754,133.9844 Q754.6875,135.0469 756.0313,135.0469 Q756.6563,135.0469 757.25,134.7813 Q757.8438,134.5 758.4688,133.9219 L758.4688,136.6406 Z " fill="#000000"/><text fill="#000000" font-family="sans-serif" font-size="14" lengthAdjust="spacing" textLength="109.3682" x="769.5" y="135.8467">MaterialSample</text><line style="stroke:#181818;stroke-width:0.5;" x1="741.5" x2="880.8682" y1="147" y2="147"/><line style="stroke:#181818;stroke-width:0.5;" x1="741.5" x2="880.8682" y1="155" y2="155"/></g><!--class ObservableProperty--><g class="entity" data-qualified-name="ObservableProperty" data-source-line="3" id="ent0007"><rect fill="#F1F1F1" height="48" rx="2.5" ry="2.5" style="stroke:#181818;stroke-width:0.5;" width="171.6172" x="533" y="115"/><ellipse cx="548" cy="131" fill="#ADD1B2" rx="11" ry="11" style="stroke:#181818;stroke-width:1;"/><path d="M550.9688,136.6406 Q550.3906,136.9375 549.75,137.0781 Q549.1094,137.2344 548.4063,137.2344 Q545.9063,137.2344 544.5781,135.5938 Q543.2656,133.9375 543.2656,130.8125 Q543.2656,127.6875 544.5781,126.0313 Q545.9063,124.375 548.4063,124.375 Q549.1094,124.375 549.75,124.5313 Q550.4063,124.6875 550.9688,124.9844 L550.9688,127.7031 Q550.3438,127.125 549.75,126.8594 Q549.1563,126.5781 548.5313,126.5781 Q547.1875,126.5781 546.5,127.6563 Q545.8125,128.7188 545.8125,130.8125 Q545.8125,132.9063 546.5,133.9844 Q547.1875,135.0469 548.5313,135.0469 Q549.1563,135.0469 549.75,134.7813 Q550.3438,134.5 550.9688,133.9219 L550.9688,136.6406 Z " fill="#000000"/><text fill="#000000" font-family="sans-serif" font-size="14" lengthAdjust="spacing" textLength="139.6172" x="562" y="135.8467">ObservableProperty</text><line style="stroke:#181818;stroke-width:0.5;" x1="534" x2="703.6172" y1="147" y2="147"/><line style="stroke:#181818;stroke-width:0.5;" x1="534" x2="703.6172" y1="155" y2="155"/></g><!--class SpatialSample--><g class="entity" data-qualified-name="SpatialSample" data-source-line="4" id="ent0009"><rect fill="#F1F1F1" height="48" rx="2.5" ry="2.5" style="stroke:#181818;stroke-width:0.5;" width="132.6934" x="916.5" y="115"/><ellipse cx="931.5" cy="131" fill="#ADD1B2" rx="11" ry="11" style="stroke:#181818;stroke-width:1;"/><path d="M934.4688,136.6406 Q933.8906,136.9375 933.25,137.0781 Q932.6094,137.2344 931.9063,137.2344 Q929.4063,137.2344 928.0781,135.5938 Q926.7656,133.9375 926.7656,130.8125 Q926.7656,127.6875 928.0781,126.0313 Q929.4063,124.375 931.9063,124.375 Q932.6094,124.375 933.25,124.5313 Q933.9063,124.6875 934.4688,124.9844 L934.4688,127.7031 Q933.8438,127.125 933.25,126.8594 Q932.6563,126.5781 932.0313,126.5781 Q930.6875,126.5781 930,127.6563 Q929.3125,128.7188 929.3125,130.8125 Q929.3125,132.9063 930,133.9844 Q930.6875,135.0469 932.0313,135.0469 Q932.6563,135.0469 933.25,134.7813 Q933.8438,134.5 934.4688,133.9219 L934.4688,136.6406 Z " fill="#000000"/><text fill="#000000" font-family="sans-serif" font-size="14" lengthAdjust="spacing" textLength="100.6934" x="945.5" y="135.8467">SpatialSample</text><line style="stroke:#181818;stroke-width:0.5;" x1="917.5" x2="1048.1934" y1="147" y2="147"/><line style="stroke:#181818;stroke-width:0.5;" x1="917.5" x2="1048.1934" y1="155" y2="155"/></g><!--class StatisticalSample--><g class="entity" data-qualified-name="StatisticalSample" data-source-line="5" id="ent0011"><rect fill="#F1F1F1" height="48" rx="2.5" ry="2.5" style="stroke:#181818;stroke-width:0.5;" width="153.666" x="1085" y="115"/><ellipse cx="1100" cy="131" fill="#ADD1B2" rx="11" ry="11" style="stroke:#181818;stroke-width:1;"/><path d="M1102.9688,136.6406 Q1102.3906,136.9375 1101.75,137.0781 Q1101.1094,137.2344 1100.4063,137.2344 Q1097.9063,137.2344 1096.5781,135.5938 Q1095.2656,133.9375 1095.2656,130.8125 Q1095.2656,127.6875 1096.5781,126.0313 Q1097.9063,124.375 1100.4063,124.375 Q1101.1094,124.375 1101.75,124.5313 Q1102.4063,124.6875 1102.9688,124.9844 L1102.9688,127.7031 Q1102.3438,127.125 1101.75,126.8594 Q1101.1563,126.5781 1100.5313,126.5781 Q1099.1875,126.5781 1098.5,127.6563 Q1097.8125,128.7188 1097.8125,130.8125 Q1097.8125,132.9063 1098.5,133.9844 Q1099.1875,135.0469 1100.5313,135.0469 Q1101.1563,135.0469 1101.75,134.7813 Q1102.3438,134.5 1102.9688,133.9219 L1102.9688,136.6406 Z " fill="#000000"/><text fill="#000000" font-family="sans-serif" font-size="14" lengthAdjust="spacing" textLength="121.666" x="1114" y="135.8467">StatisticalSample</text><line style="stroke:#181818;stroke-width:0.5;" x1="1086" x2="1237.666" y1="147" y2="147"/><line style="stroke:#181818;stroke-width:0.5;" x1="1086" x2="1237.666" y1="155" y2="155"/></g><!--class Procedure--><g class="entity" data-qualified-name="Procedure" data-source-line="6" id="ent0013"><rect fill="#F1F1F1" height="48" rx="2.5" ry="2.5" style="stroke:#181818;stroke-width:0.5;" width="103.2031" x="1516.5" y="7"/><ellipse cx="1531.5" cy="23" fill="#ADD1B2" rx="11" ry="11" style="stroke:#181818;stroke-width:1;"/><path d="M1534.4688,28.6406 Q1533.8906,28.9375 1533.25,29.0781 Q1532.6094,29.2344 1531.9063,29.2344 Q1529.4063,29.2344 1528.0781,27.5938 Q1526.7656,25.9375 1526.7656,22.8125 Q1526.7656,19.6875 1528.0781,18.0313 Q1529.4063,16.375 1531.9063,16.375 Q1532.6094,16.375 1533.25,16.5313 Q1533.9063,16.6875 1534.4688,16.9844 L1534.4688,19.7031 Q1533.8438,19.125 1533.25,18.8594 Q1532.6563,18.5781 1532.0313,18.5781 Q1530.6875,18.5781 1530,19.6563 Q1529.3125,20.7188 1529.3125,22.8125 Q1529.3125,24.9063 1530,25.9844 Q1530.6875,27.0469 1532.0313,27.0469 Q1532.6563,27.0469 1533.25,26.7813 Q1533.8438,26.5 1534.4688,25.9219 L1534.4688,28.6406 Z " fill="#000000"/><text fill="#000000" font-family="sans-serif" font-size="14" lengthAdjust="spacing" textLength="71.2031" x="1545.5" y="27.8467">Procedure</text><line style="stroke:#181818;stroke-width:0.5;" x1="1517.5" x2="1618.7031" y1="39" y2="39"/><line style="stroke:#181818;stroke-width:0.5;" x1="1517.5" x2="1618.7031" y1="47" y2="47"/></g><!--class ActuatingProcedure--><g class="entity" data-qualified-name="ActuatingProcedure" data-source-line="6" id="ent0014"><rect fill="#F1F1F1" height="48" rx="2.5" ry="2.5" style="stroke:#181818;stroke-width:0.5;" width="170.5576" x="1274.5" y="115"/><ellipse cx="1289.5" cy="131" fill="#ADD1B2" rx="11" ry="11" style="stroke:#181818;stroke-width:1;"/><path d="M1292.4688,136.6406 Q1291.8906,136.9375 1291.25,137.0781 Q1290.6094,137.2344 1289.9063,137.2344 Q1287.4063,137.2344 1286.0781,135.5938 Q1284.7656,133.9375 1284.7656,130.8125 Q1284.7656,127.6875 1286.0781,126.0313 Q1287.4063,124.375 1289.9063,124.375 Q1290.6094,124.375 1291.25,124.5313 Q1291.9063,124.6875 1292.4688,124.9844 L1292.4688,127.7031 Q1291.8438,127.125 1291.25,126.8594 Q1290.6563,126.5781 1290.0313,126.5781 Q1288.6875,126.5781 1288,127.6563 Q1287.3125,128.7188 1287.3125,130.8125 Q1287.3125,132.9063 1288,133.9844 Q1288.6875,135.0469 1290.0313,135.0469 Q1290.6563,135.0469 1291.25,134.7813 Q1291.8438,134.5 1292.4688,133.9219 L1292.4688,136.6406 Z " fill="#000000"/><text fill="#000000" font-family="sans-serif" font-size="14" lengthAdjust="spacing" textLength="138.5576" x="1303.5" y="135.8467">ActuatingProcedure</text><line style="stroke:#181818;stroke-width:0.5;" x1="1275.5" x2="1444.0576" y1="147" y2="147"/><line style="stroke:#181818;stroke-width:0.5;" x1="1275.5" x2="1444.0576" y1="155" y2="155"/></g><!--class ObservingProcedure--><g class="entity" data-qualified-name="ObservingProcedure" data-source-line="7" id="ent0016"><rect fill="#F1F1F1" height="48" rx="2.5" ry="2.5" style="stroke:#181818;stroke-width:0.5;" width="174.707" x="1480.5" y="115"/><ellipse cx="1495.5" cy="131" fill="#ADD1B2" rx="11" ry="11" style="stroke:#181818;stroke-width:1;"/><path d="M1498.4688,136.6406 Q1497.8906,136.9375 1497.25,137.0781 Q1496.6094,137.2344 1495.9063,137.2344 Q1493.4063,137.2344 1492.0781,135.5938 Q1490.7656,133.9375 1490.7656,130.8125 Q1490.7656,127.6875 1492.0781,126.0313 Q1493.4063,124.375 1495.9063,124.375 Q1496.6094,124.375 1497.25,124.5313 Q1497.9063,124.6875 1498.4688,124.9844 L1498.4688,127.7031 Q1497.8438,127.125 1497.25,126.8594 Q1496.6563,126.5781 1496.0313,126.5781 Q1494.6875,126.5781 1494,127.6563 Q1493.3125,128.7188 1493.3125,130.8125 Q1493.3125,132.9063 1494,133.9844 Q1494.6875,135.0469 1496.0313,135.0469 Q1496.6563,135.0469 1497.25,134.7813 Q1497.8438,134.5 1498.4688,133.9219 L1498.4688,136.6406 Z " fill="#000000"/><text fill="#000000" font-family="sans-serif" font-size="14" lengthAdjust="spacing" textLength="142.707" x="1509.5" y="135.8467">ObservingProcedure</text><line style="stroke:#181818;stroke-width:0.5;" x1="1481.5" x2="1654.207" y1="147" y2="147"/><line style="stroke:#181818;stroke-width:0.5;" x1="1481.5" x2="1654.207" y1="155" y2="155"/></g><!--class SamplingProcedure--><g class="entity" data-qualified-name="SamplingProcedure" data-source-line="8" id="ent0018"><rect fill="#F1F1F1" height="48" rx="2.5" ry="2.5" style="stroke:#181818;stroke-width:0.5;" width="168.7324" x="1690.5" y="115"/><ellipse cx="1705.5" cy="131" fill="#ADD1B2" rx="11" ry="11" style="stroke:#181818;stroke-width:1;"/><path d="M1708.4688,136.6406 Q1707.8906,136.9375 1707.25,137.0781 Q1706.6094,137.2344 1705.9063,137.2344 Q1703.4063,137.2344 1702.0781,135.5938 Q1700.7656,133.9375 1700.7656,130.8125 Q1700.7656,127.6875 1702.0781,126.0313 Q1703.4063,124.375 1705.9063,124.375 Q1706.6094,124.375 1707.25,124.5313 Q1707.9063,124.6875 1708.4688,124.9844 L1708.4688,127.7031 Q1707.8438,127.125 1707.25,126.8594 Q1706.6563,126.5781 1706.0313,126.5781 Q1704.6875,126.5781 1704,127.6563 Q1703.3125,128.7188 1703.3125,130.8125 Q1703.3125,132.9063 1704,133.9844 Q1704.6875,135.0469 1706.0313,135.0469 Q1706.6563,135.0469 1707.25,134.7813 Q1707.8438,134.5 1708.4688,133.9219 L1708.4688,136.6406 Z " fill="#000000"/><text fill="#000000" font-family="sans-serif" font-size="14" lengthAdjust="spacing" textLength="136.7324" x="1719.5" y="135.8467">SamplingProcedure</text><line style="stroke:#181818;stroke-width:0.5;" x1="1691.5" x2="1858.2324" y1="147" y2="147"/><line style="stroke:#181818;stroke-width:0.5;" x1="1691.5" x2="1858.2324" y1="155" y2="155"/></g><!--class Asset--><g class="entity" data-qualified-name="Asset" data-source-line="9" id="ent0020"><rect fill="#F1F1F1" height="48" rx="2.5" ry="2.5" style="stroke:#181818;stroke-width:0.5;" width="70.2676" x="1966" y="7"/><ellipse cx="1981" cy="23" fill="#ADD1B2" rx="11" ry="11" style="stroke:#181818;stroke-width:1;"/><path d="M1983.9688,28.6406 Q1983.3906,28.9375 1982.75,29.0781 Q1982.1094,29.2344 1981.4063,29.2344 Q1978.9063,29.2344 1977.5781,27.5938 Q1976.2656,25.9375 1976.2656,22.8125 Q1976.2656,19.6875 1977.5781,18.0313 Q1978.9063,16.375 1981.4063,16.375 Q1982.1094,16.375 1982.75,16.5313 Q1983.4063,16.6875 1983.9688,16.9844 L1983.9688,19.7031 Q1983.3438,19.125 1982.75,18.8594 Q1982.1563,18.5781 1981.5313,18.5781 Q1980.1875,18.5781 1979.5,19.6563 Q1978.8125,20.7188 1978.8125,22.8125 Q1978.8125,24.9063 1979.5,25.9844 Q1980.1875,27.0469 1981.5313,27.0469 Q1982.1563,27.0469 1982.75,26.7813 Q1983.3438,26.5 1983.9688,25.9219 L1983.9688,28.6406 Z " fill="#000000"/><text fill="#000000" font-family="sans-serif" font-size="14" lengthAdjust="spacing" textLength="38.2676" x="1995" y="27.8467">Asset</text><line style="stroke:#181818;stroke-width:0.5;" x1="1967" x2="2035.2676" y1="39" y2="39"/><line style="stroke:#181818;stroke-width:0.5;" x1="1967" x2="2035.2676" y1="47" y2="47"/></g><!--class Platform--><g class="entity" data-qualified-name="Platform" data-source-line="9" id="ent0021"><rect fill="#F1F1F1" height="48" rx="2.5" ry="2.5" style="stroke:#181818;stroke-width:0.5;" width="91.2881" x="1894.5" y="115"/><ellipse cx="1909.5" cy="131" fill="#ADD1B2" rx="11" ry="11" style="stroke:#181818;stroke-width:1;"/><path d="M1912.4688,136.6406 Q1911.8906,136.9375 1911.25,137.0781 Q1910.6094,137.2344 1909.9063,137.2344 Q1907.4063,137.2344 1906.0781,135.5938 Q1904.7656,133.9375 1904.7656,130.8125 Q1904.7656,127.6875 1906.0781,126.0313 Q1907.4063,124.375 1909.9063,124.375 Q1910.6094,124.375 1911.25,124.5313 Q1911.9063,124.6875 1912.4688,124.9844 L1912.4688,127.7031 Q1911.8438,127.125 1911.25,126.8594 Q1910.6563,126.5781 1910.0313,126.5781 Q1908.6875,126.5781 1908,127.6563 Q1907.3125,128.7188 1907.3125,130.8125 Q1907.3125,132.9063 1908,133.9844 Q1908.6875,135.0469 1910.0313,135.0469 Q1910.6563,135.0469 1911.25,134.7813 Q1911.8438,134.5 1912.4688,133.9219 L1912.4688,136.6406 Z " fill="#000000"/><text fill="#000000" font-family="sans-serif" font-size="14" lengthAdjust="spacing" textLength="59.2881" x="1923.5" y="135.8467">Platform</text><line style="stroke:#181818;stroke-width:0.5;" x1="1895.5" x2="1984.7881" y1="147" y2="147"/><line style="stroke:#181818;stroke-width:0.5;" x1="1895.5" x2="1984.7881" y1="155" y2="155"/></g><!--class System--><g class="entity" data-qualified-name="System" data-source-line="10" id="ent0023"><rect fill="#F1F1F1" height="48" rx="2.5" ry="2.5" style="stroke:#181818;stroke-width:0.5;" width="84.2061" x="2021" y="115"/><ellipse cx="2036" cy="131" fill="#ADD1B2" rx="11" ry="11" style="stroke:#181818;stroke-width:1;"/><path d="M2038.9688,136.6406 Q2038.3906,136.9375 2037.75,137.0781 Q2037.1094,137.2344 2036.4063,137.2344 Q2033.9063,137.2344 2032.5781,135.5938 Q2031.2656,133.9375 2031.2656,130.8125 Q2031.2656,127.6875 2032.5781,126.0313 Q2033.9063,124.375 2036.4063,124.375 Q2037.1094,124.375 2037.75,124.5313 Q2038.4063,124.6875 2038.9688,124.9844 L2038.9688,127.7031 Q2038.3438,127.125 2037.75,126.8594 Q2037.1563,126.5781 2036.5313,126.5781 Q2035.1875,126.5781 2034.5,127.6563 Q2033.8125,128.7188 2033.8125,130.8125 Q2033.8125,132.9063 2034.5,133.9844 Q2035.1875,135.0469 2036.5313,135.0469 Q2037.1563,135.0469 2037.75,134.7813 Q2038.3438,134.5 2038.9688,133.9219 L2038.9688,136.6406 Z " fill="#000000"/><text fill="#000000" font-family="sans-serif" font-size="14" lengthAdjust="spacing" textLength="52.2061" x="2050" y="135.8467">System</text><line style="stroke:#181818;stroke-width:0.5;" x1="2022" x2="2104.2061" y1="147" y2="147"/><line style="stroke:#181818;stroke-width:0.5;" x1="2022" x2="2104.2061" y1="155" y2="155"/></g><!--class Sampler--><g class="entity" data-qualified-name="Sampler" data-source-line="10" id="ent0024"><rect fill="#F1F1F1" height="48" rx="2.5" ry="2.5" style="stroke:#181818;stroke-width:0.5;" width="90.249" x="1892" y="223"/><ellipse cx="1907" cy="239" fill="#ADD1B2" rx="11" ry="11" style="stroke:#181818;stroke-width:1;"/><path d="M1909.9688,244.6406 Q1909.3906,244.9375 1908.75,245.0781 Q1908.1094,245.2344 1907.4063,245.2344 Q1904.9063,245.2344 1903.5781,243.5938 Q1902.2656,241.9375 1902.2656,238.8125 Q1902.2656,235.6875 1903.5781,234.0313 Q1904.9063,232.375 1907.4063,232.375 Q1908.1094,232.375 1908.75,232.5313 Q1909.4063,232.6875 1909.9688,232.9844 L1909.9688,235.7031 Q1909.3438,235.125 1908.75,234.8594 Q1908.1563,234.5781 1907.5313,234.5781 Q1906.1875,234.5781 1905.5,235.6563 Q1904.8125,236.7188 1904.8125,238.8125 Q1904.8125,240.9063 1905.5,241.9844 Q1906.1875,243.0469 1907.5313,243.0469 Q1908.1563,243.0469 1908.75,242.7813 Q1909.3438,242.5 1909.9688,241.9219 L1909.9688,244.6406 Z " fill="#000000"/><text fill="#000000" font-family="sans-serif" font-size="14" lengthAdjust="spacing" textLength="58.249" x="1921" y="243.8467">Sampler</text><line style="stroke:#181818;stroke-width:0.5;" x1="1893" x2="1981.249" y1="255" y2="255"/><line style="stroke:#181818;stroke-width:0.5;" x1="1893" x2="1981.249" y1="263" y2="263"/></g><!--class Actuator--><g class="entity" data-qualified-name="Actuator" data-source-line="11" id="ent0026"><rect fill="#F1F1F1" height="48" rx="2.5" ry="2.5" style="stroke:#181818;stroke-width:0.5;" width="92.0264" x="2017" y="223"/><ellipse cx="2032" cy="239" fill="#ADD1B2" rx="11" ry="11" style="stroke:#181818;stroke-width:1;"/><path d="M2034.9688,244.6406 Q2034.3906,244.9375 2033.75,245.0781 Q2033.1094,245.2344 2032.4063,245.2344 Q2029.9063,245.2344 2028.5781,243.5938 Q2027.2656,241.9375 2027.2656,238.8125 Q2027.2656,235.6875 2028.5781,234.0313 Q2029.9063,232.375 2032.4063,232.375 Q2033.1094,232.375 2033.75,232.5313 Q2034.4063,232.6875 2034.9688,232.9844 L2034.9688,235.7031 Q2034.3438,235.125 2033.75,234.8594 Q2033.1563,234.5781 2032.5313,234.5781 Q2031.1875,234.5781 2030.5,235.6563 Q2029.8125,236.7188 2029.8125,238.8125 Q2029.8125,240.9063 2030.5,241.9844 Q2031.1875,243.0469 2032.5313,243.0469 Q2033.1563,243.0469 2033.75,242.7813 Q2034.3438,242.5 2034.9688,241.9219 L2034.9688,244.6406 Z " fill="#000000"/><text fill="#000000" font-family="sans-serif" font-size="14" lengthAdjust="spacing" textLength="60.0264" x="2046" y="243.8467">Actuator</text><line style="stroke:#181818;stroke-width:0.5;" x1="2018" x2="2108.0264" y1="255" y2="255"/><line style="stroke:#181818;stroke-width:0.5;" x1="2018" x2="2108.0264" y1="263" y2="263"/></g><!--class ExecutionCollection--><g class="entity" data-qualified-name="ExecutionCollection" data-source-line="12" id="ent0028"><rect fill="#F1F1F1" height="48" rx="2.5" ry="2.5" style="stroke:#181818;stroke-width:0.5;" width="170.3799" x="2341" y="7"/><ellipse cx="2356" cy="23" fill="#ADD1B2" rx="11" ry="11" style="stroke:#181818;stroke-width:1;"/><path d="M2358.9688,28.6406 Q2358.3906,28.9375 2357.75,29.0781 Q2357.1094,29.2344 2356.4063,29.2344 Q2353.9063,29.2344 2352.5781,27.5938 Q2351.2656,25.9375 2351.2656,22.8125 Q2351.2656,19.6875 2352.5781,18.0313 Q2353.9063,16.375 2356.4063,16.375 Q2357.1094,16.375 2357.75,16.5313 Q2358.4063,16.6875 2358.9688,16.9844 L2358.9688,19.7031 Q2358.3438,19.125 2357.75,18.8594 Q2357.1563,18.5781 2356.5313,18.5781 Q2355.1875,18.5781 2354.5,19.6563 Q2353.8125,20.7188 2353.8125,22.8125 Q2353.8125,24.9063 2354.5,25.9844 Q2355.1875,27.0469 2356.5313,27.0469 Q2357.1563,27.0469 2357.75,26.7813 Q2358.3438,26.5 2358.9688,25.9219 L2358.9688,28.6406 Z " fill="#000000"/><text fill="#000000" font-family="sans-serif" font-size="14" lengthAdjust="spacing" textLength="138.3799" x="2370" y="27.8467">ExecutionCollection</text><line style="stroke:#181818;stroke-width:0.5;" x1="2342" x2="2510.3799" y1="39" y2="39"/><line style="stroke:#181818;stroke-width:0.5;" x1="2342" x2="2510.3799" y1="47" y2="47"/></g><!--class SamplingCollection--><g class="entity" data-qualified-name="SamplingCollection" data-source-line="12" id="ent0029"><rect fill="#F1F1F1" height="48" rx="2.5" ry="2.5" style="stroke:#181818;stroke-width:0.5;" width="166.7773" x="2140.5" y="115"/><ellipse cx="2155.5" cy="131" fill="#ADD1B2" rx="11" ry="11" style="stroke:#181818;stroke-width:1;"/><path d="M2158.4688,136.6406 Q2157.8906,136.9375 2157.25,137.0781 Q2156.6094,137.2344 2155.9063,137.2344 Q2153.4063,137.2344 2152.0781,135.5938 Q2150.7656,133.9375 2150.7656,130.8125 Q2150.7656,127.6875 2152.0781,126.0313 Q2153.4063,124.375 2155.9063,124.375 Q2156.6094,124.375 2157.25,124.5313 Q2157.9063,124.6875 2158.4688,124.9844 L2158.4688,127.7031 Q2157.8438,127.125 2157.25,126.8594 Q2156.6563,126.5781 2156.0313,126.5781 Q2154.6875,126.5781 2154,127.6563 Q2153.3125,128.7188 2153.3125,130.8125 Q2153.3125,132.9063 2154,133.9844 Q2154.6875,135.0469 2156.0313,135.0469 Q2156.6563,135.0469 2157.25,134.7813 Q2157.8438,134.5 2158.4688,133.9219 L2158.4688,136.6406 Z " fill="#000000"/><text fill="#000000" font-family="sans-serif" font-size="14" lengthAdjust="spacing" textLength="134.7773" x="2169.5" y="135.8467">SamplingCollection</text><line style="stroke:#181818;stroke-width:0.5;" x1="2141.5" x2="2306.2773" y1="147" y2="147"/><line style="stroke:#181818;stroke-width:0.5;" x1="2141.5" x2="2306.2773" y1="155" y2="155"/></g><!--class Sensor--><g class="entity" data-qualified-name="Sensor" data-source-line="14" id="ent0032"><rect fill="#F1F1F1" height="48" rx="2.5" ry="2.5" style="stroke:#181818;stroke-width:0.5;" width="79.9883" x="2144" y="223"/><ellipse cx="2159" cy="239" fill="#ADD1B2" rx="11" ry="11" style="stroke:#181818;stroke-width:1;"/><path d="M2161.9688,244.6406 Q2161.3906,244.9375 2160.75,245.0781 Q2160.1094,245.2344 2159.4063,245.2344 Q2156.9063,245.2344 2155.5781,243.5938 Q2154.2656,241.9375 2154.2656,238.8125 Q2154.2656,235.6875 2155.5781,234.0313 Q2156.9063,232.375 2159.4063,232.375 Q2160.1094,232.375 2160.75,232.5313 Q2161.4063,232.6875 2161.9688,232.9844 L2161.9688,235.7031 Q2161.3438,235.125 2160.75,234.8594 Q2160.1563,234.5781 2159.5313,234.5781 Q2158.1875,234.5781 2157.5,235.6563 Q2156.8125,236.7188 2156.8125,238.8125 Q2156.8125,240.9063 2157.5,241.9844 Q2158.1875,243.0469 2159.5313,243.0469 Q2160.1563,243.0469 2160.75,242.7813 Q2161.3438,242.5 2161.9688,241.9219 L2161.9688,244.6406 Z " fill="#000000"/><text fill="#000000" font-family="sans-serif" font-size="14" lengthAdjust="spacing" textLength="47.9883" x="2173" y="243.8467">Sensor</text><line style="stroke:#181818;stroke-width:0.5;" x1="2145" x2="2222.9883" y1="255" y2="255"/><line style="stroke:#181818;stroke-width:0.5;" x1="2145" x2="2222.9883" y1="263" y2="263"/></g><!--class Execution--><g class="entity" data-qualified-name="Execution" data-source-line="15" id="ent0034"><rect fill="#F1F1F1" height="48" rx="2.5" ry="2.5" style="stroke:#181818;stroke-width:0.5;" width="101.1318" x="2898.5" y="7"/><ellipse cx="2913.5" cy="23" fill="#ADD1B2" rx="11" ry="11" style="stroke:#181818;stroke-width:1;"/><path d="M2916.4688,28.6406 Q2915.8906,28.9375 2915.25,29.0781 Q2914.6094,29.2344 2913.9063,29.2344 Q2911.4063,29.2344 2910.0781,27.5938 Q2908.7656,25.9375 2908.7656,22.8125 Q2908.7656,19.6875 2910.0781,18.0313 Q2911.4063,16.375 2913.9063,16.375 Q2914.6094,16.375 2915.25,16.5313 Q2915.9063,16.6875 2916.4688,16.9844 L2916.4688,19.7031 Q2915.8438,19.125 2915.25,18.8594 Q2914.6563,18.5781 2914.0313,18.5781 Q2912.6875,18.5781 2912,19.6563 Q2911.3125,20.7188 2911.3125,22.8125 Q2911.3125,24.9063 2912,25.9844 Q2912.6875,27.0469 2914.0313,27.0469 Q2914.6563,27.0469 2915.25,26.7813 Q2915.8438,26.5 2916.4688,25.9219 L2916.4688,28.6406 Z " fill="#000000"/><text fill="#000000" font-family="sans-serif" font-size="14" lengthAdjust="spacing" textLength="69.1318" x="2927.5" y="27.8467">Execution</text><line style="stroke:#181818;stroke-width:0.5;" x1="2899.5" x2="2998.6318" y1="39" y2="39"/><line style="stroke:#181818;stroke-width:0.5;" x1="2899.5" x2="2998.6318" y1="47" y2="47"/></g><!--class Sampling--><g class="entity" data-qualified-name="Sampling" data-source-line="15" id="ent0035"><rect fill="#F1F1F1" height="48" rx="2.5" ry="2.5" style="stroke:#181818;stroke-width:0.5;" width="97.5293" x="2766" y="115"/><ellipse cx="2781" cy="131" fill="#ADD1B2" rx="11" ry="11" style="stroke:#181818;stroke-width:1;"/><path d="M2783.9688,136.6406 Q2783.3906,136.9375 2782.75,137.0781 Q2782.1094,137.2344 2781.4063,137.2344 Q2778.9063,137.2344 2777.5781,135.5938 Q2776.2656,133.9375 2776.2656,130.8125 Q2776.2656,127.6875 2777.5781,126.0313 Q2778.9063,124.375 2781.4063,124.375 Q2782.1094,124.375 2782.75,124.5313 Q2783.4063,124.6875 2783.9688,124.9844 L2783.9688,127.7031 Q2783.3438,127.125 2782.75,126.8594 Q2782.1563,126.5781 2781.5313,126.5781 Q2780.1875,126.5781 2779.5,127.6563 Q2778.8125,128.7188 2778.8125,130.8125 Q2778.8125,132.9063 2779.5,133.9844 Q2780.1875,135.0469 2781.5313,135.0469 Q2782.1563,135.0469 2782.75,134.7813 Q2783.3438,134.5 2783.9688,133.9219 L2783.9688,136.6406 Z " fill="#000000"/><text fill="#000000" font-family="sans-serif" font-size="14" lengthAdjust="spacing" textLength="65.5293" x="2795" y="135.8467">Sampling</text><line style="stroke:#181818;stroke-width:0.5;" x1="2767" x2="2862.5293" y1="147" y2="147"/><line style="stroke:#181818;stroke-width:0.5;" x1="2767" x2="2862.5293" y1="155" y2="155"/></g><!--class Actuation--><g class="entity" data-qualified-name="Actuation" data-source-line="16" id="ent0037"><rect fill="#F1F1F1" height="48" rx="2.5" ry="2.5" style="stroke:#181818;stroke-width:0.5;" width="99.0332" x="2899.5" y="115"/><ellipse cx="2914.5" cy="131" fill="#ADD1B2" rx="11" ry="11" style="stroke:#181818;stroke-width:1;"/><path d="M2917.4688,136.6406 Q2916.8906,136.9375 2916.25,137.0781 Q2915.6094,137.2344 2914.9063,137.2344 Q2912.4063,137.2344 2911.0781,135.5938 Q2909.7656,133.9375 2909.7656,130.8125 Q2909.7656,127.6875 2911.0781,126.0313 Q2912.4063,124.375 2914.9063,124.375 Q2915.6094,124.375 2916.25,124.5313 Q2916.9063,124.6875 2917.4688,124.9844 L2917.4688,127.7031 Q2916.8438,127.125 2916.25,126.8594 Q2915.6563,126.5781 2915.0313,126.5781 Q2913.6875,126.5781 2913,127.6563 Q2912.3125,128.7188 2912.3125,130.8125 Q2912.3125,132.9063 2913,133.9844 Q2913.6875,135.0469 2915.0313,135.0469 Q2915.6563,135.0469 2916.25,134.7813 Q2916.8438,134.5 2917.4688,133.9219 L2917.4688,136.6406 Z " fill="#000000"/><text fill="#000000" font-family="sans-serif" font-size="14" lengthAdjust="spacing" textLength="67.0332" x="2928.5" y="135.8467">Actuation</text><line style="stroke:#181818;stroke-width:0.5;" x1="2900.5" x2="2997.5332" y1="147" y2="147"/><line style="stroke:#181818;stroke-width:0.5;" x1="2900.5" x2="2997.5332" y1="155" y2="155"/></g><!--class ActuationCollection--><g class="entity" data-qualified-name="ActuationCollection" data-source-line="17" id="ent0039"><rect fill="#F1F1F1" height="48" rx="2.5" ry="2.5" style="stroke:#181818;stroke-width:0.5;" width="168.2813" x="2342" y="115"/><ellipse cx="2357" cy="131" fill="#ADD1B2" rx="11" ry="11" style="stroke:#181818;stroke-width:1;"/><path d="M2359.9688,136.6406 Q2359.3906,136.9375 2358.75,137.0781 Q2358.1094,137.2344 2357.4063,137.2344 Q2354.9063,137.2344 2353.5781,135.5938 Q2352.2656,133.9375 2352.2656,130.8125 Q2352.2656,127.6875 2353.5781,126.0313 Q2354.9063,124.375 2357.4063,124.375 Q2358.1094,124.375 2358.75,124.5313 Q2359.4063,124.6875 2359.9688,124.9844 L2359.9688,127.7031 Q2359.3438,127.125 2358.75,126.8594 Q2358.1563,126.5781 2357.5313,126.5781 Q2356.1875,126.5781 2355.5,127.6563 Q2354.8125,128.7188 2354.8125,130.8125 Q2354.8125,132.9063 2355.5,133.9844 Q2356.1875,135.0469 2357.5313,135.0469 Q2358.1563,135.0469 2358.75,134.7813 Q2359.3438,134.5 2359.9688,133.9219 L2359.9688,136.6406 Z " fill="#000000"/><text fill="#000000" font-family="sans-serif" font-size="14" lengthAdjust="spacing" textLength="136.2813" x="2371" y="135.8467">ActuationCollection</text><line style="stroke:#181818;stroke-width:0.5;" x1="2343" x2="2509.2813" y1="147" y2="147"/><line style="stroke:#181818;stroke-width:0.5;" x1="2343" x2="2509.2813" y1="155" y2="155"/></g><!--class ObservationCollection--><g class="entity" data-qualified-name="ObservationCollection" data-source-line="18" id="ent0041"><rect fill="#F1F1F1" height="48" rx="2.5" ry="2.5" style="stroke:#181818;stroke-width:0.5;" width="186.499" x="2545" y="115"/><ellipse cx="2560" cy="131" fill="#ADD1B2" rx="11" ry="11" style="stroke:#181818;stroke-width:1;"/><path d="M2562.9688,136.6406 Q2562.3906,136.9375 2561.75,137.0781 Q2561.1094,137.2344 2560.4063,137.2344 Q2557.9063,137.2344 2556.5781,135.5938 Q2555.2656,133.9375 2555.2656,130.8125 Q2555.2656,127.6875 2556.5781,126.0313 Q2557.9063,124.375 2560.4063,124.375 Q2561.1094,124.375 2561.75,124.5313 Q2562.4063,124.6875 2562.9688,124.9844 L2562.9688,127.7031 Q2562.3438,127.125 2561.75,126.8594 Q2561.1563,126.5781 2560.5313,126.5781 Q2559.1875,126.5781 2558.5,127.6563 Q2557.8125,128.7188 2557.8125,130.8125 Q2557.8125,132.9063 2558.5,133.9844 Q2559.1875,135.0469 2560.5313,135.0469 Q2561.1563,135.0469 2561.75,134.7813 Q2562.3438,134.5 2562.9688,133.9219 L2562.9688,136.6406 Z " fill="#000000"/><text fill="#000000" font-family="sans-serif" font-size="14" lengthAdjust="spacing" textLength="154.499" x="2574" y="135.8467">ObservationCollection</text><line style="stroke:#181818;stroke-width:0.5;" x1="2546" x2="2730.499" y1="147" y2="147"/><line style="stroke:#181818;stroke-width:0.5;" x1="2546" x2="2730.499" y1="155" y2="155"/></g><!--class Observation--><g class="entity" data-qualified-name="Observation" data-source-line="19" id="ent0043"><rect fill="#F1F1F1" height="48" rx="2.5" ry="2.5" style="stroke:#181818;stroke-width:0.5;" width="117.251" x="3033.5" y="115"/><ellipse cx="3048.5" cy="131" fill="#ADD1B2" rx="11" ry="11" style="stroke:#181818;stroke-width:1;"/><path d="M3051.4688,136.6406 Q3050.8906,136.9375 3050.25,137.0781 Q3049.6094,137.2344 3048.9063,137.2344 Q3046.4063,137.2344 3045.0781,135.5938 Q3043.7656,133.9375 3043.7656,130.8125 Q3043.7656,127.6875 3045.0781,126.0313 Q3046.4063,124.375 3048.9063,124.375 Q3049.6094,124.375 3050.25,124.5313 Q3050.9063,124.6875 3051.4688,124.9844 L3051.4688,127.7031 Q3050.8438,127.125 3050.25,126.8594 Q3049.6563,126.5781 3049.0313,126.5781 Q3047.6875,126.5781 3047,127.6563 Q3046.3125,128.7188 3046.3125,130.8125 Q3046.3125,132.9063 3047,133.9844 Q3047.6875,135.0469 3049.0313,135.0469 Q3049.6563,135.0469 3050.25,134.7813 Q3050.8438,134.5 3051.4688,133.9219 L3051.4688,136.6406 Z " fill="#000000"/><text fill="#000000" font-family="sans-serif" font-size="14" lengthAdjust="spacing" textLength="85.251" x="3062.5" y="135.8467">Observation</text><line style="stroke:#181818;stroke-width:0.5;" x1="3034.5" x2="3149.751" y1="147" y2="147"/><line style="stroke:#181818;stroke-width:0.5;" x1="3034.5" x2="3149.751" y1="155" y2="155"/></g><!--class Deployment--><g class="entity" data-qualified-name="Deployment" data-source-line="20" id="ent0045"><rect fill="#F1F1F1" height="48" rx="2.5" ry="2.5" style="stroke:#181818;stroke-width:0.5;" width="117.6338" x="7" y="7"/><ellipse cx="22" cy="23" fill="#ADD1B2" rx="11" ry="11" style="stroke:#181818;stroke-width:1;"/><path d="M24.9688,28.6406 Q24.3906,28.9375 23.75,29.0781 Q23.1094,29.2344 22.4063,29.2344 Q19.9063,29.2344 18.5781,27.5938 Q17.2656,25.9375 17.2656,22.8125 Q17.2656,19.6875 18.5781,18.0313 Q19.9063,16.375 22.4063,16.375 Q23.1094,16.375 23.75,16.5313 Q24.4063,16.6875 24.9688,16.9844 L24.9688,19.7031 Q24.3438,19.125 23.75,18.8594 Q23.1563,18.5781 22.5313,18.5781 Q21.1875,18.5781 20.5,19.6563 Q19.8125,20.7188 19.8125,22.8125 Q19.8125,24.9063 20.5,25.9844 Q21.1875,27.0469 22.5313,27.0469 Q23.1563,27.0469 23.75,26.7813 Q24.3438,26.5 24.9688,25.9219 L24.9688,28.6406 Z " fill="#000000"/><text fill="#000000" font-family="sans-serif" font-size="14" lengthAdjust="spacing" textLength="85.6338" x="36" y="27.8467">Deployment</text><line style="stroke:#181818;stroke-width:0.5;" x1="8" x2="123.6338" y1="39" y2="39"/><line style="stroke:#181818;stroke-width:0.5;" x1="8" x2="123.6338" y1="47" y2="47"/></g><!--class SampleCollection--><g class="entity" data-qualified-name="SampleCollection" data-source-line="21" id="ent0046"><rect fill="#F1F1F1" height="48" rx="2.5" ry="2.5" style="stroke:#181818;stroke-width:0.5;" width="153.7412" x="160" y="7"/><ellipse cx="175" cy="23" fill="#ADD1B2" rx="11" ry="11" style="stroke:#181818;stroke-width:1;"/><path d="M177.9688,28.6406 Q177.3906,28.9375 176.75,29.0781 Q176.1094,29.2344 175.4063,29.2344 Q172.9063,29.2344 171.5781,27.5938 Q170.2656,25.9375 170.2656,22.8125 Q170.2656,19.6875 171.5781,18.0313 Q172.9063,16.375 175.4063,16.375 Q176.1094,16.375 176.75,16.5313 Q177.4063,16.6875 177.9688,16.9844 L177.9688,19.7031 Q177.3438,19.125 176.75,18.8594 Q176.1563,18.5781 175.5313,18.5781 Q174.1875,18.5781 173.5,19.6563 Q172.8125,20.7188 172.8125,22.8125 Q172.8125,24.9063 173.5,25.9844 Q174.1875,27.0469 175.5313,27.0469 Q176.1563,27.0469 176.75,26.7813 Q177.3438,26.5 177.9688,25.9219 L177.9688,28.6406 Z " fill="#000000"/><text fill="#000000" font-family="sans-serif" font-size="14" lengthAdjust="spacing" textLength="121.7412" x="189" y="27.8467">SampleCollection</text><line style="stroke:#181818;stroke-width:0.5;" x1="161" x2="312.7412" y1="39" y2="39"/><line style="stroke:#181818;stroke-width:0.5;" x1="161" x2="312.7412" y1="47" y2="47"/></g><!--class Stimulus--><g class="entity" data-qualified-name="Stimulus" data-source-line="22" id="ent0047"><rect fill="#F1F1F1" height="48" rx="2.5" ry="2.5" style="stroke:#181818;stroke-width:0.5;" width="92.833" x="349.5" y="7"/><ellipse cx="364.5" cy="23" fill="#ADD1B2" rx="11" ry="11" style="stroke:#181818;stroke-width:1;"/><path d="M367.4688,28.6406 Q366.8906,28.9375 366.25,29.0781 Q365.6094,29.2344 364.9063,29.2344 Q362.4063,29.2344 361.0781,27.5938 Q359.7656,25.9375 359.7656,22.8125 Q359.7656,19.6875 361.0781,18.0313 Q362.4063,16.375 364.9063,16.375 Q365.6094,16.375 366.25,16.5313 Q366.9063,16.6875 367.4688,16.9844 L367.4688,19.7031 Q366.8438,19.125 366.25,18.8594 Q365.6563,18.5781 365.0313,18.5781 Q363.6875,18.5781 363,19.6563 Q362.3125,20.7188 362.3125,22.8125 Q362.3125,24.9063 363,25.9844 Q363.6875,27.0469 365.0313,27.0469 Q365.6563,27.0469 366.25,26.7813 Q366.8438,26.5 367.4688,25.9219 L367.4688,28.6406 Z " fill="#000000"/><text fill="#000000" font-family="sans-serif" font-size="14" lengthAdjust="spacing" textLength="60.833" x="378.5" y="27.8467">Stimulus</text><line style="stroke:#181818;stroke-width:0.5;" x1="350.5" x2="441.333" y1="39" y2="39"/><line style="stroke:#181818;stroke-width:0.5;" x1="350.5" x2="441.333" y1="47" y2="47"/></g><!--class Result--><g class="entity" data-qualified-name="Result" data-source-line="23" id="ent0048"><rect fill="#F1F1F1" height="48" rx="2.5" ry="2.5" style="stroke:#181818;stroke-width:0.5;" width="75.8867" x="28" y="115"/><ellipse cx="43" cy="131" fill="#ADD1B2" rx="11" ry="11" style="stroke:#181818;stroke-width:1;"/><path d="M45.9688,136.6406 Q45.3906,136.9375 44.75,137.0781 Q44.1094,137.2344 43.4063,137.2344 Q40.9063,137.2344 39.5781,135.5938 Q38.2656,133.9375 38.2656,130.8125 Q38.2656,127.6875 39.5781,126.0313 Q40.9063,124.375 43.4063,124.375 Q44.1094,124.375 44.75,124.5313 Q45.4063,124.6875 45.9688,124.9844 L45.9688,127.7031 Q45.3438,127.125 44.75,126.8594 Q44.1563,126.5781 43.5313,126.5781 Q42.1875,126.5781 41.5,127.6563 Q40.8125,128.7188 40.8125,130.8125 Q40.8125,132.9063 41.5,133.9844 Q42.1875,135.0469 43.5313,135.0469 Q44.1563,135.0469 44.75,134.7813 Q45.3438,134.5 45.9688,133.9219 L45.9688,136.6406 Z " fill="#000000"/><text fill="#000000" font-family="sans-serif" font-size="14" lengthAdjust="spacing" textLength="43.8867" x="57" y="135.8467">Result</text><line style="stroke:#181818;stroke-width:0.5;" x1="29" x2="102.8867" y1="147" y2="147"/><line style="stroke:#181818;stroke-width:0.5;" x1="29" x2="102.8867" y1="155" y2="155"/></g><!--class FeatureOfInterest--><g class="entity" data-qualified-name="FeatureOfInterest" data-source-line="24" id="ent0049"><rect fill="#F1F1F1" height="48" rx="2.5" ry="2.5" style="stroke:#181818;stroke-width:0.5;" width="156.1816" x="139" y="115"/><ellipse cx="154" cy="131" fill="#ADD1B2" rx="11" ry="11" style="stroke:#181818;stroke-width:1;"/><path d="M156.9688,136.6406 Q156.3906,136.9375 155.75,137.0781 Q155.1094,137.2344 154.4063,137.2344 Q151.9063,137.2344 150.5781,135.5938 Q149.2656,133.9375 149.2656,130.8125 Q149.2656,127.6875 150.5781,126.0313 Q151.9063,124.375 154.4063,124.375 Q155.1094,124.375 155.75,124.5313 Q156.4063,124.6875 156.9688,124.9844 L156.9688,127.7031 Q156.3438,127.125 155.75,126.8594 Q155.1563,126.5781 154.5313,126.5781 Q153.1875,126.5781 152.5,127.6563 Q151.8125,128.7188 151.8125,130.8125 Q151.8125,132.9063 152.5,133.9844 Q153.1875,135.0469 154.5313,135.0469 Q155.1563,135.0469 155.75,134.7813 Q156.3438,134.5 156.9688,133.9219 L156.9688,136.6406 Z " fill="#000000"/><text fill="#000000" font-family="sans-serif" font-size="14" lengthAdjust="spacing" textLength="124.1816" x="168" y="135.8467">FeatureOfInterest</text><line style="stroke:#181818;stroke-width:0.5;" x1="140" x2="294.1816" y1="147" y2="147"/><line style="stroke:#181818;stroke-width:0.5;" x1="140" x2="294.1816" y1="155" y2="155"/></g><!--reverse link Property to ActuatableProperty--><g class="link" data-entity-1="ent0001" data-entity-2="ent0002" data-link-type="extension" data-source-line="1" id="lnk3"><path codeLine="1" d="M522.7728,65.029 C496.3628,82.749 474.95,97.11 448.49,114.86" fill="none" id="Property-backto-ActuatableProperty" style="stroke:#181818;stroke-width:1;"/><polygon fill="none" points="537.72,55,519.4298,60.0466,526.1158,70.0114,537.72,55" style="stroke:#181818;stroke-width:1;stroke-linejoin:miter;stroke-miterlimit:10;"/></g><!--reverse link Sample to MaterialSample--><g class="link" data-entity-1="ent0004" data-entity-2="ent0005" data-link-type="extension" data-source-line="2" id="lnk6"><path codeLine="2" d="M930.3567,64.4445 C901.6067,82.1645 877.35,97.11 848.55,114.86" fill="none" id="Sample-backto-MaterialSample" style="stroke:#181818;stroke-width:1;"/><polygon fill="none" points="945.68,55,927.2086,59.3367,933.5049,69.5522,945.68,55" style="stroke:#181818;stroke-width:1;stroke-linejoin:miter;stroke-miterlimit:10;"/></g><!--reverse link Property to ObservableProperty--><g class="link" data-entity-1="ent0001" data-entity-2="ent0007" data-link-type="extension" data-source-line="3" id="lnk8"><path codeLine="3" d="M589.4958,71.4551 C597.3258,89.1151 600.79,96.94 608.66,114.68" fill="none" id="Property-backto-ObservableProperty" style="stroke:#181818;stroke-width:1;"/><polygon fill="none" points="582.2,55,584.0107,73.8871,594.9808,69.0232,582.2,55" style="stroke:#181818;stroke-width:1;stroke-linejoin:miter;stroke-miterlimit:10;"/></g><!--reverse link Sample to SpatialSample--><g class="link" data-entity-1="ent0004" data-entity-2="ent0009" data-link-type="extension" data-source-line="4" id="lnk10"><path codeLine="4" d="M983,73 C983,90.66 983,96.94 983,114.68" fill="none" id="Sample-backto-SpatialSample" style="stroke:#181818;stroke-width:1;"/><polygon fill="none" points="983,55,977,73,989,73,983,55" style="stroke:#181818;stroke-width:1;stroke-linejoin:miter;stroke-miterlimit:10;"/></g><!--reverse link Sample to StatisticalSample--><g class="link" data-entity-1="ent0004" data-entity-2="ent0011" data-link-type="extension" data-source-line="5" id="lnk12"><path codeLine="5" d="M1037.3276,64.1725 C1067.2476,81.8925 1092.95,97.11 1122.93,114.86" fill="none" id="Sample-backto-StatisticalSample" style="stroke:#181818;stroke-width:1;"/><polygon fill="none" points="1021.84,55,1034.2701,69.335,1040.3851,59.0099,1021.84,55" style="stroke:#181818;stroke-width:1;stroke-linejoin:miter;stroke-miterlimit:10;"/></g><!--reverse link Procedure to ActuatingProcedure--><g class="link" data-entity-1="ent0013" data-entity-2="ent0014" data-link-type="extension" data-source-line="6" id="lnk15"><path codeLine="6" d="M1506.8326,63.1732 C1472.0626,80.8932 1440.24,97.11 1405.4,114.86" fill="none" id="Procedure-backto-ActuatingProcedure" style="stroke:#181818;stroke-width:1;"/><polygon fill="none" points="1522.87,55,1504.1082,57.8274,1509.557,68.519,1522.87,55" style="stroke:#181818;stroke-width:1;stroke-linejoin:miter;stroke-miterlimit:10;"/></g><!--reverse link Procedure to ObservingProcedure--><g class="link" data-entity-1="ent0013" data-entity-2="ent0016" data-link-type="extension" data-source-line="7" id="lnk17"><path codeLine="7" d="M1568,73 C1568,90.66 1568,96.94 1568,114.68" fill="none" id="Procedure-backto-ObservingProcedure" style="stroke:#181818;stroke-width:1;"/><polygon fill="none" points="1568,55,1562,73,1574,73,1568,55" style="stroke:#181818;stroke-width:1;stroke-linejoin:miter;stroke-miterlimit:10;"/></g><!--reverse link Procedure to SamplingProcedure--><g class="link" data-entity-1="ent0013" data-entity-2="ent0018" data-link-type="extension" data-source-line="8" id="lnk19"><path codeLine="8" d="M1628.9411,63.205 C1663.5411,80.925 1695.15,97.11 1729.81,114.86" fill="none" id="Procedure-backto-SamplingProcedure" style="stroke:#181818;stroke-width:1;"/><polygon fill="none" points="1612.92,55,1626.2061,68.5454,1631.6762,57.8647,1612.92,55" style="stroke:#181818;stroke-width:1;stroke-linejoin:miter;stroke-miterlimit:10;"/></g><!--reverse link Asset to Platform--><g class="link" data-entity-1="ent0020" data-entity-2="ent0021" data-link-type="extension" data-source-line="9" id="lnk22"><path codeLine="9" d="M1978.7839,70.6022 C1968.6239,88.2622 1963.63,96.94 1953.42,114.68" fill="none" id="Asset-backto-Platform" style="stroke:#181818;stroke-width:1;"/><polygon fill="none" points="1987.76,55,1973.5831,67.6102,1983.9846,73.5943,1987.76,55" style="stroke:#181818;stroke-width:1;stroke-linejoin:miter;stroke-miterlimit:10;"/></g><!--reverse link System to Sampler--><g class="link" data-entity-1="ent0023" data-entity-2="ent0024" data-link-type="extension" data-source-line="10" id="lnk25"><path codeLine="10" d="M2021.8865,174.5884 C2000.8965,192.2484 1985.81,204.94 1964.72,222.68" fill="none" id="System-backto-Sampler" style="stroke:#181818;stroke-width:1;"/><polygon fill="none" points="2035.66,163,2018.0237,169.9972,2025.7493,179.1795,2035.66,163" style="stroke:#181818;stroke-width:1;stroke-linejoin:miter;stroke-miterlimit:10;"/></g><!--reverse link System to Actuator--><g class="link" data-entity-1="ent0023" data-entity-2="ent0026" data-link-type="extension" data-source-line="11" id="lnk27"><path codeLine="11" d="M2063,181 C2063,198.66 2063,204.94 2063,222.68" fill="none" id="System-backto-Actuator" style="stroke:#181818;stroke-width:1;"/><polygon fill="none" points="2063,163,2057,181,2069,181,2063,163" style="stroke:#181818;stroke-width:1;stroke-linejoin:miter;stroke-miterlimit:10;"/></g><!--reverse link ExecutionCollection to SamplingCollection--><g class="link" data-entity-1="ent0028" data-entity-2="ent0029" data-link-type="extension" data-source-line="12" id="lnk30"><path codeLine="12" d="M2366.231,63.3636 C2332.461,81.0836 2301.93,97.11 2268.09,114.86" fill="none" id="ExecutionCollection-backto-SamplingCollection" style="stroke:#181818;stroke-width:1;"/><polygon fill="none" points="2382.17,55,2363.4432,58.0506,2369.0189,68.6766,2382.17,55" style="stroke:#181818;stroke-width:1;stroke-linejoin:miter;stroke-miterlimit:10;"/></g><!--reverse link Asset to System--><g class="link" data-entity-1="ent0020" data-entity-2="ent0023" data-link-type="extension" data-source-line="13" id="lnk31"><path codeLine="13" d="M2023.5383,70.5372 C2033.8683,88.1972 2038.98,96.94 2049.36,114.68" fill="none" id="Asset-backto-System" style="stroke:#181818;stroke-width:1;"/><polygon fill="none" points="2014.45,55,2018.3592,73.5666,2028.7173,67.5077,2014.45,55" style="stroke:#181818;stroke-width:1;stroke-linejoin:miter;stroke-miterlimit:10;"/></g><!--reverse link System to Sensor--><g class="link" data-entity-1="ent0023" data-entity-2="ent0032" data-link-type="extension" data-source-line="14" id="lnk33"><path codeLine="14" d="M2102.7968,174.864 C2122.9468,192.524 2137.13,204.94 2157.38,222.68" fill="none" id="System-backto-Sensor" style="stroke:#181818;stroke-width:1;"/><polygon fill="none" points="2089.26,163,2098.8421,179.3763,2106.7515,170.3518,2089.26,163" style="stroke:#181818;stroke-width:1;stroke-linejoin:miter;stroke-miterlimit:10;"/></g><!--reverse link Execution to Sampling--><g class="link" data-entity-1="ent0034" data-entity-2="ent0035" data-link-type="extension" data-source-line="15" id="lnk36"><path codeLine="15" d="M2905.8041,66.1688 C2883.4841,83.8288 2866.91,96.94 2844.48,114.68" fill="none" id="Execution-backto-Sampling" style="stroke:#181818;stroke-width:1;"/><polygon fill="none" points="2919.92,55,2902.0812,61.4635,2909.527,70.8741,2919.92,55" style="stroke:#181818;stroke-width:1;stroke-linejoin:miter;stroke-miterlimit:10;"/></g><!--reverse link Execution to Actuation--><g class="link" data-entity-1="ent0034" data-entity-2="ent0037" data-link-type="extension" data-source-line="16" id="lnk38"><path codeLine="16" d="M2949,73 C2949,90.66 2949,96.94 2949,114.68" fill="none" id="Execution-backto-Actuation" style="stroke:#181818;stroke-width:1;"/><polygon fill="none" points="2949,55,2943,73,2955,73,2949,55" style="stroke:#181818;stroke-width:1;stroke-linejoin:miter;stroke-miterlimit:10;"/></g><!--reverse link ExecutionCollection to ActuationCollection--><g class="link" data-entity-1="ent0028" data-entity-2="ent0039" data-link-type="extension" data-source-line="17" id="lnk40"><path codeLine="17" d="M2426,73 C2426,90.66 2426,96.94 2426,114.68" fill="none" id="ExecutionCollection-backto-ActuationCollection" style="stroke:#181818;stroke-width:1;"/><polygon fill="none" points="2426,55,2420,73,2432,73,2426,55" style="stroke:#181818;stroke-width:1;stroke-linejoin:miter;stroke-miterlimit:10;"/></g><!--reverse link ExecutionCollection to ObservationCollection--><g class="link" data-entity-1="ent0028" data-entity-2="ent0041" data-link-type="extension" data-source-line="18" id="lnk42"><path codeLine="18" d="M2488.0997,63.0498 C2523.5397,80.7698 2556.22,97.11 2591.72,114.86" fill="none" id="ExecutionCollection-backto-ObservationCollection" style="stroke:#181818;stroke-width:1;"/><polygon fill="none" points="2472,55,2485.4164,68.4164,2490.783,57.6833,2472,55" style="stroke:#181818;stroke-width:1;stroke-linejoin:miter;stroke-miterlimit:10;"/></g><!--reverse link Execution to Observation--><g class="link" data-entity-1="ent0034" data-entity-2="ent0043" data-link-type="extension" data-source-line="19" id="lnk44"><path codeLine="19" d="M2994.4895,65.7202 C3018.3095,83.3802 3036.61,96.94 3060.54,114.68" fill="none" id="Execution-backto-Observation" style="stroke:#181818;stroke-width:1;"/><polygon fill="none" points="2980.03,55,2990.9161,70.54,2998.0629,60.9004,2980.03,55" style="stroke:#181818;stroke-width:1;stroke-linejoin:miter;stroke-miterlimit:10;"/></g><?plantuml-src VL9BRiCW4Drp2byWD-WcwaVgeefLds12Noga0IncY6gfXwzRQ0Aft1syUJyDZ2dEIBeCTv-xtR2tcadfo1WhRYRoCwECNqYH7771pDXf3qT1EczgfvdqAkqckav4dMsDBTvoGjlAXVSBViiesVynVfmxmbu4MeOZavvYycPQHE4R1LA7bIOncSSFsAmkXll83FjzwdEkU1jKlFeO16aDUvjRlAvYTTriSA4q5JR9zT6sw7z8nZA930-OEIuUGIjGbjLOL5YTpvobNbyXcNybJo1Tt-5mUWxhhuBe5m00?></g></svg>