<svg xmlns="http://www.w3.org/2000/svg" xmlns:xlink="http://www.w3.org/1999/xlink" contentStyleType="text/css" data-diagram-type="CLASS" height="286px" preserveAspectRatio="none" style="width:3142px;height:286px;background:#FFFFFF;" version="1.1" viewBox="0 0 3142 286" width="3142px" zoomAndPan="magnify"><?plantuml 1.2026.6?><defs/><g><!--class Property--><g class="entity" data-qualified-name="Property" data-source-line="1" id="ent0001"><rect fill="#F1F1F1" height="48" rx="2.5" ry="2.5" style="stroke:#181818;stroke-width:0.5;" width="91.7939" x="524" y="7"/><ellipse cx="539" cy="23" fill="#ADD1B2" rx="11" ry="11" style="stroke:#181818;stroke-width:1;"/><path d="M541.9688,28.6406 Q541.3906,28.9375 540.75,29.0781 Q540.1094,29.2344 539.4063,29.2344 Q536.9063,29.2344 535.5781,27.5938 Q534.2656,25.9375 534.2656,22.8125 Q534.2656,19.6875 535.5781,18.0313 Q536.9063,16.375 539.4063,16.375 Q540.1094,16.375 540.75,16.5313 Q541.4063,16.6875 541.9688,16.9844 L541.9688,19.7031 Q541.3438,19.125 540.75,18.8594 Q540.1563,18.5781 539.5313,18.5781 Q538.1875,18.5781 537.5,19.6563 Q536.8125,20.7188 536.8125,22.8125 Q536.8125,24.9063 537.5,25.9844 Q538.1875,27.0469 539.5313,27.0469 Q540.1563,27.0469 540.75,26.7813 Q541.3438,26.5 541.9688,25.9219 L541.9688,28.6406 Z " fill="#000000"/><text fill="#000000" font-family="sans-serif" font-size="14" lengthAdjust="spacing" textLength="59.7939" x="553" y="27.8467">Property</text><line style="stroke:#181818;stroke-width:0.5;" x1="525" x2="614.7939" y1="39" y2="39"/><line style="stroke:#181818;stroke-width:0.5;" x1="525" x2="614.7939" y1="47" y2="47"/></g><!--class ActuatableProperty--><g class="entity" data-qualified-name="ActuatableProperty" data-source-line="1" id="ent0002"><rect fill="#F1F1F1" height="48" rx="2.5" ry="2.5" style="stroke:#181818;stroke-width:0.5;" width="167.4678" x="307.5" y="115"/><ellipse cx="322.5" cy="131" fill="#ADD1B2" rx="11" ry="11" style="stroke:#181818;stroke-width:1;"/><path d="M325.4688,136.6406 Q324.8906,136.9375 324.25,137.0781 Q323.6094,137.2344 322.9063,137.2344 Q320.4063,137.2344 319.0781,135.5938 Q317.7656,133.9375 317.7656,130.8125 Q317.7656,127.6875 319.0781,126.0313 Q320.4063,124.375 322.9063,124.375 Q323.6094,124.375 324.25,124.5313 Q324.9063,124.6875 325.4688,124.9844 L325.4688,127.7031 Q324.8438,127.125 324.25,126.8594 Q323.6563,126.5781 323.0313,126.5781 Q321.6875,126.5781 321,127.6563 Q320.3125,128.7188 320.3125,130.8125 Q320.3125,132.9063 321,133.9844 Q321.6875,135.0469 323.0313,135.0469 Q323.6563,135.0469 324.25,134.7813 Q324.8438,134.5 325.4688,133.9219 L325.4688,136.6406 Z " fill="#000000"/><text fill="#000000" font-family="sans-serif" font-size="14" lengthAdjust="spacing" textLength="135.4678" x="336.5" y="135.8467">ActuatableProperty</text><line style="stroke:#181818;stroke-width:0.5;" x1="308.5" x2="473.9678" y1="147" y2="147"/><line style="stroke:#181818;stroke-width:0.5;" x1="308.5" x2="473.9678" y1="155" y2="155"/></g><!--class Sample--><g class="entity" data-qualified-name="Sample" data-source-line="2" id="ent0004"><rect fill="#F1F1F1" height="48" rx="2.5" ry="2.5" style="stroke:#181818;stroke-width:0.5;" width="84.4932" x="918" y="7"/><ellipse cx="933" cy="23" fill="#ADD1B2" rx="11" ry="11" style="stroke:#181818;stroke-width:1;"/><path d="M935.9688,28.6406 Q935.3906,28.9375 934.75,29.0781 Q934.1094,29.2344 933.4063,29.2344 Q930.9063,29.2344 929.5781,27.5938 Q928.2656,25.9375 928.2656,22.8125 Q928.2656,19.6875 929.5781,18.0313 Q930.9063,16.375 933.4063,16.375 Q934.1094,16.375 934.75,16.5313 Q935.4063,16.6875 935.9688,16.9844 L935.9688,19.7031 Q935.3438,19.125 934.75,18.8594 Q934.1563,18.5781 933.5313,18.5781 Q932.1875,18.5781 931.5,19.6563 Q930.8125,20.7188 930.8125,22.8125 Q930.8125,24.9063 931.5,25.9844 Q932.1875,27.0469 933.5313,27.0469 Q934.1563,27.0469 934.75,26.7813 Q935.3438,26.5 935.9688,25.9219 L935.9688,28.6406 Z " fill="#000000"/><text fill="#000000" font-family="sans-serif" font-size="14" lengthAdjust="spacing" textLength="52.4932" x="947" y="27.8467">Sample</text><line style="stroke:#181818;stroke-width:0.5;" x1="919" x2="1001.4932" y1="39" y2="39"/><line style="stroke:#181818;stroke-width:0.5;" x1="919" x2="1001.4932" y1="47" y2="47"/></g><!--class MaterialSample--><g class="entity" data-qualified-name="MaterialSample" data-source-line="2" id="ent0005"><rect fill="#F1F1F1" height="48" rx="2.5" ry="2.5" style="stroke:#181818;stroke-width:0.5;" width="141.3682" x="717.5" y="115"/><ellipse cx="732.5" cy="131" fill="#ADD1B2" rx="11" ry="11" style="stroke:#181818;stroke-width:1;"/><path d="M735.4688,136.6406 Q734.8906,136.9375 734.25,137.0781 Q733.6094,137.2344 732.9063,137.2344 Q730.4063,137.2344 729.0781,135.5938 Q727.7656,133.9375 727.7656,130.8125 Q727.7656,127.6875 729.0781,126.0313 Q730.4063,124.375 732.9063,124.375 Q733.6094,124.375 734.25,124.5313 Q734.9063,124.6875 735.4688,124.9844 L735.4688,127.7031 Q734.8438,127.125 734.25,126.8594 Q733.6563,126.5781 733.0313,126.5781 Q731.6875,126.5781 731,127.6563 Q730.3125,128.7188 730.3125,130.8125 Q730.3125,132.9063 731,133.9844 Q731.6875,135.0469 733.0313,135.0469 Q733.6563,135.0469 734.25,134.7813 Q734.8438,134.5 735.4688,133.9219 L735.4688,136.6406 Z " fill="#000000"/><text fill="#000000" font-family="sans-serif" font-size="14" lengthAdjust="spacing" textLength="109.3682" x="746.5" y="135.8467">MaterialSample</text><line style="stroke:#181818;stroke-width:0.5;" x1="718.5" x2="857.8682" y1="147" y2="147"/><line style="stroke:#181818;stroke-width:0.5;" x1="718.5" x2="857.8682" y1="155" y2="155"/></g><!--class ObservableProperty--><g class="entity" data-qualified-name="ObservableProperty" data-source-line="3" id="ent0007"><rect fill="#F1F1F1" height="48" rx="2.5" ry="2.5" style="stroke:#181818;stroke-width:0.5;" width="171.6172" x="510" y="115"/><ellipse cx="525" cy="131" fill="#ADD1B2" rx="11" ry="11" style="stroke:#181818;stroke-width:1;"/><path d="M527.9688,136.6406 Q527.3906,136.9375 526.75,137.0781 Q526.1094,137.2344 525.4063,137.2344 Q522.9063,137.2344 521.5781,135.5938 Q520.2656,133.9375 520.2656,130.8125 Q520.2656,127.6875 521.5781,126.0313 Q522.9063,124.375 525.4063,124.375 Q526.1094,124.375 526.75,124.5313 Q527.4063,124.6875 527.9688,124.9844 L527.9688,127.7031 Q527.3438,127.125 526.75,126.8594 Q526.1563,126.5781 525.5313,126.5781 Q524.1875,126.5781 523.5,127.6563 Q522.8125,128.7188 522.8125,130.8125 Q522.8125,132.9063 523.5,133.9844 Q524.1875,135.0469 525.5313,135.0469 Q526.1563,135.0469 526.75,134.7813 Q527.3438,134.5 527.9688,133.9219 L527.9688,136.6406 Z " fill="#000000"/><text fill="#000000" font-family="sans-serif" font-size="14" lengthAdjust="spacing" textLength="139.6172" x="539" y="135.8467">ObservableProperty</text><line style="stroke:#181818;stroke-width:0.5;" x1="511" x2="680.6172" y1="147" y2="147"/><line style="stroke:#181818;stroke-width:0.5;" x1="511" x2="680.6172" y1="155" y2="155"/></g><!--class SpatialSample--><g class="entity" data-qualified-name="SpatialSample" data-source-line="4" id="ent0009"><rect fill="#F1F1F1" height="48" rx="2.5" ry="2.5" style="stroke:#181818;stroke-width:0.5;" width="132.6934" x="893.5" y="115"/><ellipse cx="908.5" cy="131" fill="#ADD1B2" rx="11" ry="11" style="stroke:#181818;stroke-width:1;"/><path d="M911.4688,136.6406 Q910.8906,136.9375 910.25,137.0781 Q909.6094,137.2344 908.9063,137.2344 Q906.4063,137.2344 905.0781,135.5938 Q903.7656,133.9375 903.7656,130.8125 Q903.7656,127.6875 905.0781,126.0313 Q906.4063,124.375 908.9063,124.375 Q909.6094,124.375 910.25,124.5313 Q910.9063,124.6875 911.4688,124.9844 L911.4688,127.7031 Q910.8438,127.125 910.25,126.8594 Q909.6563,126.5781 909.0313,126.5781 Q907.6875,126.5781 907,127.6563 Q906.3125,128.7188 906.3125,130.8125 Q906.3125,132.9063 907,133.9844 Q907.6875,135.0469 909.0313,135.0469 Q909.6563,135.0469 910.25,134.7813 Q910.8438,134.5 911.4688,133.9219 L911.4688,136.6406 Z " fill="#000000"/><text fill="#000000" font-family="sans-serif" font-size="14" lengthAdjust="spacing" textLength="100.6934" x="922.5" y="135.8467">SpatialSample</text><line style="stroke:#181818;stroke-width:0.5;" x1="894.5" x2="1025.1934" y1="147" y2="147"/><line style="stroke:#181818;stroke-width:0.5;" x1="894.5" x2="1025.1934" y1="155" y2="155"/></g><!--class StatisticalSample--><g class="entity" data-qualified-name="StatisticalSample" data-source-line="5" id="ent0011"><rect fill="#F1F1F1" height="48" rx="2.5" ry="2.5" style="stroke:#181818;stroke-width:0.5;" width="153.666" x="1062" y="115"/><ellipse cx="1077" cy="131" fill="#ADD1B2" rx="11" ry="11" style="stroke:#181818;stroke-width:1;"/><path d="M1079.9688,136.6406 Q1079.3906,136.9375 1078.75,137.0781 Q1078.1094,137.2344 1077.4063,137.2344 Q1074.9063,137.2344 1073.5781,135.5938 Q1072.2656,133.9375 1072.2656,130.8125 Q1072.2656,127.6875 1073.5781,126.0313 Q1074.9063,124.375 1077.4063,124.375 Q1078.1094,124.375 1078.75,124.5313 Q1079.4063,124.6875 1079.9688,124.9844 L1079.9688,127.7031 Q1079.3438,127.125 1078.75,126.8594 Q1078.1563,126.5781 1077.5313,126.5781 Q1076.1875,126.5781 1075.5,127.6563 Q1074.8125,128.7188 1074.8125,130.8125 Q1074.8125,132.9063 1075.5,133.9844 Q1076.1875,135.0469 1077.5313,135.0469 Q1078.1563,135.0469 1078.75,134.7813 Q1079.3438,134.5 1079.9688,133.9219 L1079.9688,136.6406 Z " fill="#000000"/><text fill="#000000" font-family="sans-serif" font-size="14" lengthAdjust="spacing" textLength="121.666" x="1091" y="135.8467">StatisticalSample</text><line style="stroke:#181818;stroke-width:0.5;" x1="1063" x2="1214.666" y1="147" y2="147"/><line style="stroke:#181818;stroke-width:0.5;" x1="1063" x2="1214.666" y1="155" y2="155"/></g><!--class Procedure--><g class="entity" data-qualified-name="Procedure" data-source-line="6" id="ent0013"><rect fill="#F1F1F1" height="48" rx="2.5" ry="2.5" style="stroke:#181818;stroke-width:0.5;" width="103.2031" x="1493.5" y="7"/><ellipse cx="1508.5" cy="23" fill="#ADD1B2" rx="11" ry="11" style="stroke:#181818;stroke-width:1;"/><path d="M1511.4688,28.6406 Q1510.8906,28.9375 1510.25,29.0781 Q1509.6094,29.2344 1508.9063,29.2344 Q1506.4063,29.2344 1505.0781,27.5938 Q1503.7656,25.9375 1503.7656,22.8125 Q1503.7656,19.6875 1505.0781,18.0313 Q1506.4063,16.375 1508.9063,16.375 Q1509.6094,16.375 1510.25,16.5313 Q1510.9063,16.6875 1511.4688,16.9844 L1511.4688,19.7031 Q1510.8438,19.125 1510.25,18.8594 Q1509.6563,18.5781 1509.0313,18.5781 Q1507.6875,18.5781 1507,19.6563 Q1506.3125,20.7188 1506.3125,22.8125 Q1506.3125,24.9063 1507,25.9844 Q1507.6875,27.0469 1509.0313,27.0469 Q1509.6563,27.0469 1510.25,26.7813 Q1510.8438,26.5 1511.4688,25.9219 L1511.4688,28.6406 Z " fill="#000000"/><text fill="#000000" font-family="sans-serif" font-size="14" lengthAdjust="spacing" textLength="71.2031" x="1522.5" y="27.8467">Procedure</text><line style="stroke:#181818;stroke-width:0.5;" x1="1494.5" x2="1595.7031" y1="39" y2="39"/><line style="stroke:#181818;stroke-width:0.5;" x1="1494.5" x2="1595.7031" y1="47" y2="47"/></g><!--class ActuatingProcedure--><g class="entity" data-qualified-name="ActuatingProcedure" data-source-line="6" id="ent0014"><rect fill="#F1F1F1" height="48" rx="2.5" ry="2.5" style="stroke:#181818;stroke-width:0.5;" width="170.5576" x="1251.5" y="115"/><ellipse cx="1266.5" cy="131" fill="#ADD1B2" rx="11" ry="11" style="stroke:#181818;stroke-width:1;"/><path d="M1269.4688,136.6406 Q1268.8906,136.9375 1268.25,137.0781 Q1267.6094,137.2344 1266.9063,137.2344 Q1264.4063,137.2344 1263.0781,135.5938 Q1261.7656,133.9375 1261.7656,130.8125 Q1261.7656,127.6875 1263.0781,126.0313 Q1264.4063,124.375 1266.9063,124.375 Q1267.6094,124.375 1268.25,124.5313 Q1268.9063,124.6875 1269.4688,124.9844 L1269.4688,127.7031 Q1268.8438,127.125 1268.25,126.8594 Q1267.6563,126.5781 1267.0313,126.5781 Q1265.6875,126.5781 1265,127.6563 Q1264.3125,128.7188 1264.3125,130.8125 Q1264.3125,132.9063 1265,133.9844 Q1265.6875,135.0469 1267.0313,135.0469 Q1267.6563,135.0469 1268.25,134.7813 Q1268.8438,134.5 1269.4688,133.9219 L1269.4688,136.6406 Z " fill="#000000"/><text fill="#000000" font-family="sans-serif" font-size="14" lengthAdjust="spacing" textLength="138.5576" x="1280.5" y="135.8467">ActuatingProcedure</text><line style="stroke:#181818;stroke-width:0.5;" x1="1252.5" x2="1421.0576" y1="147" y2="147"/><line style="stroke:#181818;stroke-width:0.5;" x1="1252.5" x2="1421.0576" y1="155" y2="155"/></g><!--class ObservingProcedure--><g class="entity" data-qualified-name="ObservingProcedure" data-source-line="7" id="ent0016"><rect fill="#F1F1F1" height="48" rx="2.5" ry="2.5" style="stroke:#181818;stroke-width:0.5;" width="174.707" x="1457.5" y="115"/><ellipse cx="1472.5" cy="131" fill="#ADD1B2" rx="11" ry="11" style="stroke:#181818;stroke-width:1;"/><path d="M1475.4688,136.6406 Q1474.8906,136.9375 1474.25,137.0781 Q1473.6094,137.2344 1472.9063,137.2344 Q1470.4063,137.2344 1469.0781,135.5938 Q1467.7656,133.9375 1467.7656,130.8125 Q1467.7656,127.6875 1469.0781,126.0313 Q1470.4063,124.375 1472.9063,124.375 Q1473.6094,124.375 1474.25,124.5313 Q1474.9063,124.6875 1475.4688,124.9844 L1475.4688,127.7031 Q1474.8438,127.125 1474.25,126.8594 Q1473.6563,126.5781 1473.0313,126.5781 Q1471.6875,126.5781 1471,127.6563 Q1470.3125,128.7188 1470.3125,130.8125 Q1470.3125,132.9063 1471,133.9844 Q1471.6875,135.0469 1473.0313,135.0469 Q1473.6563,135.0469 1474.25,134.7813 Q1474.8438,134.5 1475.4688,133.9219 L1475.4688,136.6406 Z " fill="#000000"/><text fill="#000000" font-family="sans-serif" font-size="14" lengthAdjust="spacing" textLength="142.707" x="1486.5" y="135.8467">ObservingProcedure</text><line style="stroke:#181818;stroke-width:0.5;" x1="1458.5" x2="1631.207" y1="147" y2="147"/><line style="stroke:#181818;stroke-width:0.5;" x1="1458.5" x2="1631.207" y1="155" y2="155"/></g><!--class SamplingProcedure--><g class="entity" data-qualified-name="SamplingProcedure" data-source-line="8" id="ent0018"><rect fill="#F1F1F1" height="48" rx="2.5" ry="2.5" style="stroke:#181818;stroke-width:0.5;" width="168.7324" x="1667.5" y="115"/><ellipse cx="1682.5" cy="131" fill="#ADD1B2" rx="11" ry="11" style="stroke:#181818;stroke-width:1;"/><path d="M1685.4688,136.6406 Q1684.8906,136.9375 1684.25,137.0781 Q1683.6094,137.2344 1682.9063,137.2344 Q1680.4063,137.2344 1679.0781,135.5938 Q1677.7656,133.9375 1677.7656,130.8125 Q1677.7656,127.6875 1679.0781,126.0313 Q1680.4063,124.375 1682.9063,124.375 Q1683.6094,124.375 1684.25,124.5313 Q1684.9063,124.6875 1685.4688,124.9844 L1685.4688,127.7031 Q1684.8438,127.125 1684.25,126.8594 Q1683.6563,126.5781 1683.0313,126.5781 Q1681.6875,126.5781 1681,127.6563 Q1680.3125,128.7188 1680.3125,130.8125 Q1680.3125,132.9063 1681,133.9844 Q1681.6875,135.0469 1683.0313,135.0469 Q1683.6563,135.0469 1684.25,134.7813 Q1684.8438,134.5 1685.4688,133.9219 L1685.4688,136.6406 Z " fill="#000000"/><text fill="#000000" font-family="sans-serif" font-size="14" lengthAdjust="spacing" textLength="136.7324" x="1696.5" y="135.8467">SamplingProcedure</text><line style="stroke:#181818;stroke-width:0.5;" x1="1668.5" x2="1835.2324" y1="147" y2="147"/><line style="stroke:#181818;stroke-width:0.5;" x1="1668.5" x2="1835.2324" y1="155" y2="155"/></g><!--class Asset--><g class="entity" data-qualified-name="Asset" data-source-line="9" id="ent0020"><rect fill="#F1F1F1" height="48" rx="2.5" ry="2.5" style="stroke:#181818;stroke-width:0.5;" width="70.2676" x="1943" y="7"/><ellipse cx="1958" cy="23" fill="#ADD1B2" rx="11" ry="11" style="stroke:#181818;stroke-width:1;"/><path d="M1960.9688,28.6406 Q1960.3906,28.9375 1959.75,29.0781 Q1959.1094,29.2344 1958.4063,29.2344 Q1955.9063,29.2344 1954.5781,27.5938 Q1953.2656,25.9375 1953.2656,22.8125 Q1953.2656,19.6875 1954.5781,18.0313 Q1955.9063,16.375 1958.4063,16.375 Q1959.1094,16.375 1959.75,16.5313 Q1960.4063,16.6875 1960.9688,16.9844 L1960.9688,19.7031 Q1960.3438,19.125 1959.75,18.8594 Q1959.1563,18.5781 1958.5313,18.5781 Q1957.1875,18.5781 1956.5,19.6563 Q1955.8125,20.7188 1955.8125,22.8125 Q1955.8125,24.9063 1956.5,25.9844 Q1957.1875,27.0469 1958.5313,27.0469 Q1959.1563,27.0469 1959.75,26.7813 Q1960.3438,26.5 1960.9688,25.9219 L1960.9688,28.6406 Z " fill="#000000"/><text fill="#000000" font-family="sans-serif" font-size="14" lengthAdjust="spacing" textLength="38.2676" x="1972" y="27.8467">Asset</text><line style="stroke:#181818;stroke-width:0.5;" x1="1944" x2="2012.2676" y1="39" y2="39"/><line style="stroke:#181818;stroke-width:0.5;" x1="1944" x2="2012.2676" y1="47" y2="47"/></g><!--class Platform--><g class="entity" data-qualified-name="Platform" data-source-line="9" id="ent0021"><rect fill="#F1F1F1" height="48" rx="2.5" ry="2.5" style="stroke:#181818;stroke-width:0.5;" width="91.2881" x="1871.5" y="115"/><ellipse cx="1886.5" cy="131" fill="#ADD1B2" rx="11" ry="11" style="stroke:#181818;stroke-width:1;"/><path d="M1889.4688,136.6406 Q1888.8906,136.9375 1888.25,137.0781 Q1887.6094,137.2344 1886.9063,137.2344 Q1884.4063,137.2344 1883.0781,135.5938 Q1881.7656,133.9375 1881.7656,130.8125 Q1881.7656,127.6875 1883.0781,126.0313 Q1884.4063,124.375 1886.9063,124.375 Q1887.6094,124.375 1888.25,124.5313 Q1888.9063,124.6875 1889.4688,124.9844 L1889.4688,127.7031 Q1888.8438,127.125 1888.25,126.8594 Q1887.6563,126.5781 1887.0313,126.5781 Q1885.6875,126.5781 1885,127.6563 Q1884.3125,128.7188 1884.3125,130.8125 Q1884.3125,132.9063 1885,133.9844 Q1885.6875,135.0469 1887.0313,135.0469 Q1887.6563,135.0469 1888.25,134.7813 Q1888.8438,134.5 1889.4688,133.9219 L1889.4688,136.6406 Z " fill="#000000"/><text fill="#000000" font-family="sans-serif" font-size="14" lengthAdjust="spacing" textLength="59.2881" x="1900.5" y="135.8467">Platform</text><line style="stroke:#181818;stroke-width:0.5;" x1="1872.5" x2="1961.7881" y1="147" y2="147"/><line style="stroke:#181818;stroke-width:0.5;" x1="1872.5" x2="1961.7881" y1="155" y2="155"/></g><!--class System--><g class="entity" data-qualified-name="System" data-source-line="10" id="ent0023"><rect fill="#F1F1F1" height="48" rx="2.5" ry="2.5" style="stroke:#181818;stroke-width:0.5;" width="84.2061" x="1998" y="115"/><ellipse cx="2013" cy="131" fill="#ADD1B2" rx="11" ry="11" style="stroke:#181818;stroke-width:1;"/><path d="M2015.9688,136.6406 Q2015.3906,136.9375 2014.75,137.0781 Q2014.1094,137.2344 2013.4063,137.2344 Q2010.9063,137.2344 2009.5781,135.5938 Q2008.2656,133.9375 2008.2656,130.8125 Q2008.2656,127.6875 2009.5781,126.0313 Q2010.9063,124.375 2013.4063,124.375 Q2014.1094,124.375 2014.75,124.5313 Q2015.4063,124.6875 2015.9688,124.9844 L2015.9688,127.7031 Q2015.3438,127.125 2014.75,126.8594 Q2014.1563,126.5781 2013.5313,126.5781 Q2012.1875,126.5781 2011.5,127.6563 Q2010.8125,128.7188 2010.8125,130.8125 Q2010.8125,132.9063 2011.5,133.9844 Q2012.1875,135.0469 2013.5313,135.0469 Q2014.1563,135.0469 2014.75,134.7813 Q2015.3438,134.5 2015.9688,133.9219 L2015.9688,136.6406 Z " fill="#000000"/><text fill="#000000" font-family="sans-serif" font-size="14" lengthAdjust="spacing" textLength="52.2061" x="2027" y="135.8467">System</text><line style="stroke:#181818;stroke-width:0.5;" x1="1999" x2="2081.2061" y1="147" y2="147"/><line style="stroke:#181818;stroke-width:0.5;" x1="1999" x2="2081.2061" y1="155" y2="155"/></g><!--class Sampler--><g class="entity" data-qualified-name="Sampler" data-source-line="10" id="ent0024"><rect fill="#F1F1F1" height="48" rx="2.5" ry="2.5" style="stroke:#181818;stroke-width:0.5;" width="90.249" x="1869" y="223"/><ellipse cx="1884" cy="239" fill="#ADD1B2" rx="11" ry="11" style="stroke:#181818;stroke-width:1;"/><path d="M1886.9688,244.6406 Q1886.3906,244.9375 1885.75,245.0781 Q1885.1094,245.2344 1884.4063,245.2344 Q1881.9063,245.2344 1880.5781,243.5938 Q1879.2656,241.9375 1879.2656,238.8125 Q1879.2656,235.6875 1880.5781,234.0313 Q1881.9063,232.375 1884.4063,232.375 Q1885.1094,232.375 1885.75,232.5313 Q1886.4063,232.6875 1886.9688,232.9844 L1886.9688,235.7031 Q1886.3438,235.125 1885.75,234.8594 Q1885.1563,234.5781 1884.5313,234.5781 Q1883.1875,234.5781 1882.5,235.6563 Q1881.8125,236.7188 1881.8125,238.8125 Q1881.8125,240.9063 1882.5,241.9844 Q1883.1875,243.0469 1884.5313,243.0469 Q1885.1563,243.0469 1885.75,242.7813 Q1886.3438,242.5 1886.9688,241.9219 L1886.9688,244.6406 Z " fill="#000000"/><text fill="#000000" font-family="sans-serif" font-size="14" lengthAdjust="spacing" textLength="58.249" x="1898" y="243.8467">Sampler</text><line style="stroke:#181818;stroke-width:0.5;" x1="1870" x2="1958.249" y1="255" y2="255"/><line style="stroke:#181818;stroke-width:0.5;" x1="1870" x2="1958.249" y1="263" y2="263"/></g><!--class Actuator--><g class="entity" data-qualified-name="Actuator" data-source-line="11" id="ent0026"><rect fill="#F1F1F1" height="48" rx="2.5" ry="2.5" style="stroke:#181818;stroke-width:0.5;" width="92.0264" x="1994" y="223"/><ellipse cx="2009" cy="239" fill="#ADD1B2" rx="11" ry="11" style="stroke:#181818;stroke-width:1;"/><path d="M2011.9688,244.6406 Q2011.3906,244.9375 2010.75,245.0781 Q2010.1094,245.2344 2009.4063,245.2344 Q2006.9063,245.2344 2005.5781,243.5938 Q2004.2656,241.9375 2004.2656,238.8125 Q2004.2656,235.6875 2005.5781,234.0313 Q2006.9063,232.375 2009.4063,232.375 Q2010.1094,232.375 2010.75,232.5313 Q2011.4063,232.6875 2011.9688,232.9844 L2011.9688,235.7031 Q2011.3438,235.125 2010.75,234.8594 Q2010.1563,234.5781 2009.5313,234.5781 Q2008.1875,234.5781 2007.5,235.6563 Q2006.8125,236.7188 2006.8125,238.8125 Q2006.8125,240.9063 2007.5,241.9844 Q2008.1875,243.0469 2009.5313,243.0469 Q2010.1563,243.0469 2010.75,242.7813 Q2011.3438,242.5 2011.9688,241.9219 L2011.9688,244.6406 Z " fill="#000000"/><text fill="#000000" font-family="sans-serif" font-size="14" lengthAdjust="spacing" textLength="60.0264" x="2023" y="243.8467">Actuator</text><line style="stroke:#181818;stroke-width:0.5;" x1="1995" x2="2085.0264" y1="255" y2="255"/><line style="stroke:#181818;stroke-width:0.5;" x1="1995" x2="2085.0264" y1="263" y2="263"/></g><!--class ExecutionCollection--><g class="entity" data-qualified-name="ExecutionCollection" data-source-line="12" id="ent0028"><rect fill="#F1F1F1" height="48" rx="2.5" ry="2.5" style="stroke:#181818;stroke-width:0.5;" width="170.3799" x="2318" y="7"/><ellipse cx="2333" cy="23" fill="#ADD1B2" rx="11" ry="11" style="stroke:#181818;stroke-width:1;"/><path d="M2335.9688,28.6406 Q2335.3906,28.9375 2334.75,29.0781 Q2334.1094,29.2344 2333.4063,29.2344 Q2330.9063,29.2344 2329.5781,27.5938 Q2328.2656,25.9375 2328.2656,22.8125 Q2328.2656,19.6875 2329.5781,18.0313 Q2330.9063,16.375 2333.4063,16.375 Q2334.1094,16.375 2334.75,16.5313 Q2335.4063,16.6875 2335.9688,16.9844 L2335.9688,19.7031 Q2335.3438,19.125 2334.75,18.8594 Q2334.1563,18.5781 2333.5313,18.5781 Q2332.1875,18.5781 2331.5,19.6563 Q2330.8125,20.7188 2330.8125,22.8125 Q2330.8125,24.9063 2331.5,25.9844 Q2332.1875,27.0469 2333.5313,27.0469 Q2334.1563,27.0469 2334.75,26.7813 Q2335.3438,26.5 2335.9688,25.9219 L2335.9688,28.6406 Z " fill="#000000"/><text fill="#000000" font-family="sans-serif" font-size="14" lengthAdjust="spacing" textLength="138.3799" x="2347" y="27.8467">ExecutionCollection</text><line style="stroke:#181818;stroke-width:0.5;" x1="2319" x2="2487.3799" y1="39" y2="39"/><line style="stroke:#181818;stroke-width:0.5;" x1="2319" x2="2487.3799" y1="47" y2="47"/></g><!--class SamplingCollection--><g class="entity" data-qualified-name="SamplingCollection" data-source-line="12" id="ent0029"><rect fill="#F1F1F1" height="48" rx="2.5" ry="2.5" style="stroke:#181818;stroke-width:0.5;" width="166.7773" x="2117.5" y="115"/><ellipse cx="2132.5" cy="131" fill="#ADD1B2" rx="11" ry="11" style="stroke:#181818;stroke-width:1;"/><path d="M2135.4688,136.6406 Q2134.8906,136.9375 2134.25,137.0781 Q2133.6094,137.2344 2132.9063,137.2344 Q2130.4063,137.2344 2129.0781,135.5938 Q2127.7656,133.9375 2127.7656,130.8125 Q2127.7656,127.6875 2129.0781,126.0313 Q2130.4063,124.375 2132.9063,124.375 Q2133.6094,124.375 2134.25,124.5313 Q2134.9063,124.6875 2135.4688,124.9844 L2135.4688,127.7031 Q2134.8438,127.125 2134.25,126.8594 Q2133.6563,126.5781 2133.0313,126.5781 Q2131.6875,126.5781 2131,127.6563 Q2130.3125,128.7188 2130.3125,130.8125 Q2130.3125,132.9063 2131,133.9844 Q2131.6875,135.0469 2133.0313,135.0469 Q2133.6563,135.0469 2134.25,134.7813 Q2134.8438,134.5 2135.4688,133.9219 L2135.4688,136.6406 Z " fill="#000000"/><text fill="#000000" font-family="sans-serif" font-size="14" lengthAdjust="spacing" textLength="134.7773" x="2146.5" y="135.8467">SamplingCollection</text><line style="stroke:#181818;stroke-width:0.5;" x1="2118.5" x2="2283.2773" y1="147" y2="147"/><line style="stroke:#181818;stroke-width:0.5;" x1="2118.5" x2="2283.2773" y1="155" y2="155"/></g><!--class Sensor--><g class="entity" data-qualified-name="Sensor" data-source-line="14" id="ent0032"><rect fill="#F1F1F1" height="48" rx="2.5" ry="2.5" style="stroke:#181818;stroke-width:0.5;" width="79.9883" x="2121" y="223"/><ellipse cx="2136" cy="239" fill="#ADD1B2" rx="11" ry="11" style="stroke:#181818;stroke-width:1;"/><path d="M2138.9688,244.6406 Q2138.3906,244.9375 2137.75,245.0781 Q2137.1094,245.2344 2136.4063,245.2344 Q2133.9063,245.2344 2132.5781,243.5938 Q2131.2656,241.9375 2131.2656,238.8125 Q2131.2656,235.6875 2132.5781,234.0313 Q2133.9063,232.375 2136.4063,232.375 Q2137.1094,232.375 2137.75,232.5313 Q2138.4063,232.6875 2138.9688,232.9844 L2138.9688,235.7031 Q2138.3438,235.125 2137.75,234.8594 Q2137.1563,234.5781 2136.5313,234.5781 Q2135.1875,234.5781 2134.5,235.6563 Q2133.8125,236.7188 2133.8125,238.8125 Q2133.8125,240.9063 2134.5,241.9844 Q2135.1875,243.0469 2136.5313,243.0469 Q2137.1563,243.0469 2137.75,242.7813 Q2138.3438,242.5 2138.9688,241.9219 L2138.9688,244.6406 Z " fill="#000000"/><text fill="#000000" font-family="sans-serif" font-size="14" lengthAdjust="spacing" textLength="47.9883" x="2150" y="243.8467">Sensor</text><line style="stroke:#181818;stroke-width:0.5;" x1="2122" x2="2199.9883" y1="255" y2="255"/><line style="stroke:#181818;stroke-width:0.5;" x1="2122" x2="2199.9883" y1="263" y2="263"/></g><!--class Execution--><g class="entity" data-qualified-name="Execution" data-source-line="15" id="ent0034"><rect fill="#F1F1F1" height="48" rx="2.5" ry="2.5" style="stroke:#181818;stroke-width:0.5;" width="101.1318" x="2875.5" y="7"/><ellipse cx="2890.5" cy="23" fill="#ADD1B2" rx="11" ry="11" style="stroke:#181818;stroke-width:1;"/><path d="M2893.4688,28.6406 Q2892.8906,28.9375 2892.25,29.0781 Q2891.6094,29.2344 2890.9063,29.2344 Q2888.4063,29.2344 2887.0781,27.5938 Q2885.7656,25.9375 2885.7656,22.8125 Q2885.7656,19.6875 2887.0781,18.0313 Q2888.4063,16.375 2890.9063,16.375 Q2891.6094,16.375 2892.25,16.5313 Q2892.9063,16.6875 2893.4688,16.9844 L2893.4688,19.7031 Q2892.8438,19.125 2892.25,18.8594 Q2891.6563,18.5781 2891.0313,18.5781 Q2889.6875,18.5781 2889,19.6563 Q2888.3125,20.7188 2888.3125,22.8125 Q2888.3125,24.9063 2889,25.9844 Q2889.6875,27.0469 2891.0313,27.0469 Q2891.6563,27.0469 2892.25,26.7813 Q2892.8438,26.5 2893.4688,25.9219 L2893.4688,28.6406 Z " fill="#000000"/><text fill="#000000" font-family="sans-serif" font-size="14" lengthAdjust="spacing" textLength="69.1318" x="2904.5" y="27.8467">Execution</text><line style="stroke:#181818;stroke-width:0.5;" x1="2876.5" x2="2975.6318" y1="39" y2="39"/><line style="stroke:#181818;stroke-width:0.5;" x1="2876.5" x2="2975.6318" y1="47" y2="47"/></g><!--class Sampling--><g class="entity" data-qualified-name="Sampling" data-source-line="15" id="ent0035"><rect fill="#F1F1F1" height="48" rx="2.5" ry="2.5" style="stroke:#181818;stroke-width:0.5;" width="97.5293" x="2743" y="115"/><ellipse cx="2758" cy="131" fill="#ADD1B2" rx="11" ry="11" style="stroke:#181818;stroke-width:1;"/><path d="M2760.9688,136.6406 Q2760.3906,136.9375 2759.75,137.0781 Q2759.1094,137.2344 2758.4063,137.2344 Q2755.9063,137.2344 2754.5781,135.5938 Q2753.2656,133.9375 2753.2656,130.8125 Q2753.2656,127.6875 2754.5781,126.0313 Q2755.9063,124.375 2758.4063,124.375 Q2759.1094,124.375 2759.75,124.5313 Q2760.4063,124.6875 2760.9688,124.9844 L2760.9688,127.7031 Q2760.3438,127.125 2759.75,126.8594 Q2759.1563,126.5781 2758.5313,126.5781 Q2757.1875,126.5781 2756.5,127.6563 Q2755.8125,128.7188 2755.8125,130.8125 Q2755.8125,132.9063 2756.5,133.9844 Q2757.1875,135.0469 2758.5313,135.0469 Q2759.1563,135.0469 2759.75,134.7813 Q2760.3438,134.5 2760.9688,133.9219 L2760.9688,136.6406 Z " fill="#000000"/><text fill="#000000" font-family="sans-serif" font-size="14" lengthAdjust="spacing" textLength="65.5293" x="2772" y="135.8467">Sampling</text><line style="stroke:#181818;stroke-width:0.5;" x1="2744" x2="2839.5293" y1="147" y2="147"/><line style="stroke:#181818;stroke-width:0.5;" x1="2744" x2="2839.5293" y1="155" y2="155"/></g><!--class Actuation--><g class="entity" data-qualified-name="Actuation" data-source-line="16" id="ent0037"><rect fill="#F1F1F1" height="48" rx="2.5" ry="2.5" style="stroke:#181818;stroke-width:0.5;" width="99.0332" x="2876.5" y="115"/><ellipse cx="2891.5" cy="131" fill="#ADD1B2" rx="11" ry="11" style="stroke:#181818;stroke-width:1;"/><path d="M2894.4688,136.6406 Q2893.8906,136.9375 2893.25,137.0781 Q2892.6094,137.2344 2891.9063,137.2344 Q2889.4063,137.2344 2888.0781,135.5938 Q2886.7656,133.9375 2886.7656,130.8125 Q2886.7656,127.6875 2888.0781,126.0313 Q2889.4063,124.375 2891.9063,124.375 Q2892.6094,124.375 2893.25,124.5313 Q2893.9063,124.6875 2894.4688,124.9844 L2894.4688,127.7031 Q2893.8438,127.125 2893.25,126.8594 Q2892.6563,126.5781 2892.0313,126.5781 Q2890.6875,126.5781 2890,127.6563 Q2889.3125,128.7188 2889.3125,130.8125 Q2889.3125,132.9063 2890,133.9844 Q2890.6875,135.0469 2892.0313,135.0469 Q2892.6563,135.0469 2893.25,134.7813 Q2893.8438,134.5 2894.4688,133.9219 L2894.4688,136.6406 Z " fill="#000000"/><text fill="#000000" font-family="sans-serif" font-size="14" lengthAdjust="spacing" textLength="67.0332" x="2905.5" y="135.8467">Actuation</text><line style="stroke:#181818;stroke-width:0.5;" x1="2877.5" x2="2974.5332" y1="147" y2="147"/><line style="stroke:#181818;stroke-width:0.5;" x1="2877.5" x2="2974.5332" y1="155" y2="155"/></g><!--class ActuationCollection--><g class="entity" data-qualified-name="ActuationCollection" data-source-line="17" id="ent0039"><rect fill="#F1F1F1" height="48" rx="2.5" ry="2.5" style="stroke:#181818;stroke-width:0.5;" width="168.2813" x="2319" y="115"/><ellipse cx="2334" cy="131" fill="#ADD1B2" rx="11" ry="11" style="stroke:#181818;stroke-width:1;"/><path d="M2336.9688,136.6406 Q2336.3906,136.9375 2335.75,137.0781 Q2335.1094,137.2344 2334.4063,137.2344 Q2331.9063,137.2344 2330.5781,135.5938 Q2329.2656,133.9375 2329.2656,130.8125 Q2329.2656,127.6875 2330.5781,126.0313 Q2331.9063,124.375 2334.4063,124.375 Q2335.1094,124.375 2335.75,124.5313 Q2336.4063,124.6875 2336.9688,124.9844 L2336.9688,127.7031 Q2336.3438,127.125 2335.75,126.8594 Q2335.1563,126.5781 2334.5313,126.5781 Q2333.1875,126.5781 2332.5,127.6563 Q2331.8125,128.7188 2331.8125,130.8125 Q2331.8125,132.9063 2332.5,133.9844 Q2333.1875,135.0469 2334.5313,135.0469 Q2335.1563,135.0469 2335.75,134.7813 Q2336.3438,134.5 2336.9688,133.9219 L2336.9688,136.6406 Z " fill="#000000"/><text fill="#000000" font-family="sans-serif" font-size="14" lengthAdjust="spacing" textLength="136.2813" x="2348" y="135.8467">ActuationCollection</text><line style="stroke:#181818;stroke-width:0.5;" x1="2320" x2="2486.2813" y1="147" y2="147"/><line style="stroke:#181818;stroke-width:0.5;" x1="2320" x2="2486.2813" y1="155" y2="155"/></g><!--class ObservationCollection--><g class="entity" data-qualified-name="ObservationCollection" data-source-line="18" id="ent0041"><rect fill="#F1F1F1" height="48" rx="2.5" ry="2.5" style="stroke:#181818;stroke-width:0.5;" width="186.499" x="2522" y="115"/><ellipse cx="2537" cy="131" fill="#ADD1B2" rx="11" ry="11" style="stroke:#181818;stroke-width:1;"/><path d="M2539.9688,136.6406 Q2539.3906,136.9375 2538.75,137.0781 Q2538.1094,137.2344 2537.4063,137.2344 Q2534.9063,137.2344 2533.5781,135.5938 Q2532.2656,133.9375 2532.2656,130.8125 Q2532.2656,127.6875 2533.5781,126.0313 Q2534.9063,124.375 2537.4063,124.375 Q2538.1094,124.375 2538.75,124.5313 Q2539.4063,124.6875 2539.9688,124.9844 L2539.9688,127.7031 Q2539.3438,127.125 2538.75,126.8594 Q2538.1563,126.5781 2537.5313,126.5781 Q2536.1875,126.5781 2535.5,127.6563 Q2534.8125,128.7188 2534.8125,130.8125 Q2534.8125,132.9063 2535.5,133.9844 Q2536.1875,135.0469 2537.5313,135.0469 Q2538.1563,135.0469 2538.75,134.7813 Q2539.3438,134.5 2539.9688,133.9219 L2539.9688,136.6406 Z " fill="#000000"/><text fill="#000000" font-family="sans-serif" font-size="14" lengthAdjust="spacing" textLength="154.499" x="2551" y="135.8467">ObservationCollection</text><line style="stroke:#181818;stroke-width:0.5;" x1="2523" x2="2707.499" y1="147" y2="147"/><line style="stroke:#181818;stroke-width:0.5;" x1="2523" x2="2707.499" y1="155" y2="155"/></g><!--class Observation--><g class="entity" data-qualified-name="Observation" data-source-line="19" id="ent0043"><rect fill="#F1F1F1" height="48" rx="2.5" ry="2.5" style="stroke:#181818;stroke-width:0.5;" width="117.251" x="3010.5" y="115"/><ellipse cx="3025.5" cy="131" fill="#ADD1B2" rx="11" ry="11" style="stroke:#181818;stroke-width:1;"/><path d="M3028.4688,136.6406 Q3027.8906,136.9375 3027.25,137.0781 Q3026.6094,137.2344 3025.9063,137.2344 Q3023.4063,137.2344 3022.0781,135.5938 Q3020.7656,133.9375 3020.7656,130.8125 Q3020.7656,127.6875 3022.0781,126.0313 Q3023.4063,124.375 3025.9063,124.375 Q3026.6094,124.375 3027.25,124.5313 Q3027.9063,124.6875 3028.4688,124.9844 L3028.4688,127.7031 Q3027.8438,127.125 3027.25,126.8594 Q3026.6563,126.5781 3026.0313,126.5781 Q3024.6875,126.5781 3024,127.6563 Q3023.3125,128.7188 3023.3125,130.8125 Q3023.3125,132.9063 3024,133.9844 Q3024.6875,135.0469 3026.0313,135.0469 Q3026.6563,135.0469 3027.25,134.7813 Q3027.8438,134.5 3028.4688,133.9219 L3028.4688,136.6406 Z " fill="#000000"/><text fill="#000000" font-family="sans-serif" font-size="14" lengthAdjust="spacing" textLength="85.251" x="3039.5" y="135.8467">Observation</text><line style="stroke:#181818;stroke-width:0.5;" x1="3011.5" x2="3126.751" y1="147" y2="147"/><line style="stroke:#181818;stroke-width:0.5;" x1="3011.5" x2="3126.751" y1="155" y2="155"/></g><!--class FeatureOfInterest--><g class="entity" data-qualified-name="FeatureOfInterest" data-source-line="20" id="ent0045"><rect fill="#F1F1F1" height="48" rx="2.5" ry="2.5" style="stroke:#181818;stroke-width:0.5;" width="156.1816" x="7" y="7"/><ellipse cx="22" cy="23" fill="#ADD1B2" rx="11" ry="11" style="stroke:#181818;stroke-width:1;"/><path d="M24.9688,28.6406 Q24.3906,28.9375 23.75,29.0781 Q23.1094,29.2344 22.4063,29.2344 Q19.9063,29.2344 18.5781,27.5938 Q17.2656,25.9375 17.2656,22.8125 Q17.2656,19.6875 18.5781,18.0313 Q19.9063,16.375 22.4063,16.375 Q23.1094,16.375 23.75,16.5313 Q24.4063,16.6875 24.9688,16.9844 L24.9688,19.7031 Q24.3438,19.125 23.75,18.8594 Q23.1563,18.5781 22.5313,18.5781 Q21.1875,18.5781 20.5,19.6563 Q19.8125,20.7188 19.8125,22.8125 Q19.8125,24.9063 20.5,25.9844 Q21.1875,27.0469 22.5313,27.0469 Q23.1563,27.0469 23.75,26.7813 Q24.3438,26.5 24.9688,25.9219 L24.9688,28.6406 Z " fill="#000000"/><text fill="#000000" font-family="sans-serif" font-size="14" lengthAdjust="spacing" textLength="124.1816" x="36" y="27.8467">FeatureOfInterest</text><line style="stroke:#181818;stroke-width:0.5;" x1="8" x2="162.1816" y1="39" y2="39"/><line style="stroke:#181818;stroke-width:0.5;" x1="8" x2="162.1816" y1="47" y2="47"/></g><!--class Result--><g class="entity" data-qualified-name="Result" data-source-line="21" id="ent0046"><rect fill="#F1F1F1" height="48" rx="2.5" ry="2.5" style="stroke:#181818;stroke-width:0.5;" width="75.8867" x="198" y="7"/><ellipse cx="213" cy="23" fill="#ADD1B2" rx="11" ry="11" style="stroke:#181818;stroke-width:1;"/><path d="M215.9688,28.6406 Q215.3906,28.9375 214.75,29.0781 Q214.1094,29.2344 213.4063,29.2344 Q210.9063,29.2344 209.5781,27.5938 Q208.2656,25.9375 208.2656,22.8125 Q208.2656,19.6875 209.5781,18.0313 Q210.9063,16.375 213.4063,16.375 Q214.1094,16.375 214.75,16.5313 Q215.4063,16.6875 215.9688,16.9844 L215.9688,19.7031 Q215.3438,19.125 214.75,18.8594 Q214.1563,18.5781 213.5313,18.5781 Q212.1875,18.5781 211.5,19.6563 Q210.8125,20.7188 210.8125,22.8125 Q210.8125,24.9063 211.5,25.9844 Q212.1875,27.0469 213.5313,27.0469 Q214.1563,27.0469 214.75,26.7813 Q215.3438,26.5 215.9688,25.9219 L215.9688,28.6406 Z " fill="#000000"/><text fill="#000000" font-family="sans-serif" font-size="14" lengthAdjust="spacing" textLength="43.8867" x="227" y="27.8467">Result</text><line style="stroke:#181818;stroke-width:0.5;" x1="199" x2="272.8867" y1="39" y2="39"/><line style="stroke:#181818;stroke-width:0.5;" x1="199" x2="272.8867" y1="47" y2="47"/></g><!--class SampleCollection--><g class="entity" data-qualified-name="SampleCollection" data-source-line="22" id="ent0047"><rect fill="#F1F1F1" height="48" rx="2.5" ry="2.5" style="stroke:#181818;stroke-width:0.5;" width="153.7412" x="309" y="7"/><ellipse cx="324" cy="23" fill="#ADD1B2" rx="11" ry="11" style="stroke:#181818;stroke-width:1;"/><path d="M326.9688,28.6406 Q326.3906,28.9375 325.75,29.0781 Q325.1094,29.2344 324.4063,29.2344 Q321.9063,29.2344 320.5781,27.5938 Q319.2656,25.9375 319.2656,22.8125 Q319.2656,19.6875 320.5781,18.0313 Q321.9063,16.375 324.4063,16.375 Q325.1094,16.375 325.75,16.5313 Q326.4063,16.6875 326.9688,16.9844 L326.9688,19.7031 Q326.3438,19.125 325.75,18.8594 Q325.1563,18.5781 324.5313,18.5781 Q323.1875,18.5781 322.5,19.6563 Q321.8125,20.7188 321.8125,22.8125 Q321.8125,24.9063 322.5,25.9844 Q323.1875,27.0469 324.5313,27.0469 Q325.1563,27.0469 325.75,26.7813 Q326.3438,26.5 326.9688,25.9219 L326.9688,28.6406 Z " fill="#000000"/><text fill="#000000" font-family="sans-serif" font-size="14" lengthAdjust="spacing" textLength="121.7412" x="338" y="27.8467">SampleCollection</text><line style="stroke:#181818;stroke-width:0.5;" x1="310" x2="461.7412" y1="39" y2="39"/><line style="stroke:#181818;stroke-width:0.5;" x1="310" x2="461.7412" y1="47" y2="47"/></g><!--class Deployment--><g class="entity" data-qualified-name="Deployment" data-source-line="23" id="ent0048"><rect fill="#F1F1F1" height="48" rx="2.5" ry="2.5" style="stroke:#181818;stroke-width:0.5;" width="117.6338" x="26" y="115"/><ellipse cx="41" cy="131" fill="#ADD1B2" rx="11" ry="11" style="stroke:#181818;stroke-width:1;"/><path d="M43.9688,136.6406 Q43.3906,136.9375 42.75,137.0781 Q42.1094,137.2344 41.4063,137.2344 Q38.9063,137.2344 37.5781,135.5938 Q36.2656,133.9375 36.2656,130.8125 Q36.2656,127.6875 37.5781,126.0313 Q38.9063,124.375 41.4063,124.375 Q42.1094,124.375 42.75,124.5313 Q43.4063,124.6875 43.9688,124.9844 L43.9688,127.7031 Q43.3438,127.125 42.75,126.8594 Q42.1563,126.5781 41.5313,126.5781 Q40.1875,126.5781 39.5,127.6563 Q38.8125,128.7188 38.8125,130.8125 Q38.8125,132.9063 39.5,133.9844 Q40.1875,135.0469 41.5313,135.0469 Q42.1563,135.0469 42.75,134.7813 Q43.3438,134.5 43.9688,133.9219 L43.9688,136.6406 Z " fill="#000000"/><text fill="#000000" font-family="sans-serif" font-size="14" lengthAdjust="spacing" textLength="85.6338" x="55" y="135.8467">Deployment</text><line style="stroke:#181818;stroke-width:0.5;" x1="27" x2="142.6338" y1="147" y2="147"/><line style="stroke:#181818;stroke-width:0.5;" x1="27" x2="142.6338" y1="155" y2="155"/></g><!--class Stimulus--><g class="entity" data-qualified-name="Stimulus" data-source-line="24" id="ent0049"><rect fill="#F1F1F1" height="48" rx="2.5" ry="2.5" style="stroke:#181818;stroke-width:0.5;" width="92.833" x="179.5" y="115"/><ellipse cx="194.5" cy="131" fill="#ADD1B2" rx="11" ry="11" style="stroke:#181818;stroke-width:1;"/><path d="M197.4688,136.6406 Q196.8906,136.9375 196.25,137.0781 Q195.6094,137.2344 194.9063,137.2344 Q192.4063,137.2344 191.0781,135.5938 Q189.7656,133.9375 189.7656,130.8125 Q189.7656,127.6875 191.0781,126.0313 Q192.4063,124.375 194.9063,124.375 Q195.6094,124.375 196.25,124.5313 Q196.9063,124.6875 197.4688,124.9844 L197.4688,127.7031 Q196.8438,127.125 196.25,126.8594 Q195.6563,126.5781 195.0313,126.5781 Q193.6875,126.5781 193,127.6563 Q192.3125,128.7188 192.3125,130.8125 Q192.3125,132.9063 193,133.9844 Q193.6875,135.0469 195.0313,135.0469 Q195.6563,135.0469 196.25,134.7813 Q196.8438,134.5 197.4688,133.9219 L197.4688,136.6406 Z " fill="#000000"/><text fill="#000000" font-family="sans-serif" font-size="14" lengthAdjust="spacing" textLength="60.833" x="208.5" y="135.8467">Stimulus</text><line style="stroke:#181818;stroke-width:0.5;" x1="180.5" x2="271.333" y1="147" y2="147"/><line style="stroke:#181818;stroke-width:0.5;" x1="180.5" x2="271.333" y1="155" y2="155"/></g><!--reverse link Property to ActuatableProperty--><g class="link" data-entity-1="ent0001" data-entity-2="ent0002" data-link-type="extension" data-source-line="1" id="lnk3"><path codeLine="1" d="M515.6724,64.1725 C485.7524,81.8925 460.05,97.11 430.07,114.86" fill="none" id="Property-backto-ActuatableProperty" style="stroke:#181818;stroke-width:1;"/><polygon fill="none" points="531.16,55,512.6149,59.0099,518.7299,69.335,531.16,55" style="stroke:#181818;stroke-width:1;stroke-linejoin:miter;stroke-miterlimit:10;"/></g><!--reverse link Sample to MaterialSample--><g class="link" data-entity-1="ent0004" data-entity-2="ent0005" data-link-type="extension" data-source-line="2" id="lnk6"><path codeLine="2" d="M907.3567,64.4445 C878.6067,82.1645 854.35,97.11 825.55,114.86" fill="none" id="Sample-backto-MaterialSample" style="stroke:#181818;stroke-width:1;"/><polygon fill="none" points="922.68,55,904.2086,59.3367,910.5049,69.5522,922.68,55" style="stroke:#181818;stroke-width:1;stroke-linejoin:miter;stroke-miterlimit:10;"/></g><!--reverse link Property to ObservableProperty--><g class="link" data-entity-1="ent0001" data-entity-2="ent0007" data-link-type="extension" data-source-line="3" id="lnk8"><path codeLine="3" d="M579.9264,72.4822 C584.2564,90.1422 585.93,96.94 590.28,114.68" fill="none" id="Property-backto-ObservableProperty" style="stroke:#181818;stroke-width:1;"/><polygon fill="none" points="575.64,55,574.099,73.911,585.7538,71.0534,575.64,55" style="stroke:#181818;stroke-width:1;stroke-linejoin:miter;stroke-miterlimit:10;"/></g><!--reverse link Sample to SpatialSample--><g class="link" data-entity-1="ent0004" data-entity-2="ent0009" data-link-type="extension" data-source-line="4" id="lnk10"><path codeLine="4" d="M960,73 C960,90.66 960,96.94 960,114.68" fill="none" id="Sample-backto-SpatialSample" style="stroke:#181818;stroke-width:1;"/><polygon fill="none" points="960,55,954,73,966,73,960,55" style="stroke:#181818;stroke-width:1;stroke-linejoin:miter;stroke-miterlimit:10;"/></g><!--reverse link Sample to StatisticalSample--><g class="link" data-entity-1="ent0004" data-entity-2="ent0011" data-link-type="extension" data-source-line="5" id="lnk12"><path codeLine="5" d="M1014.3276,64.1725 C1044.2476,81.8925 1069.95,97.11 1099.93,114.86" fill="none" id="Sample-backto-StatisticalSample" style="stroke:#181818;stroke-width:1;"/><polygon fill="none" points="998.84,55,1011.2701,69.335,1017.3851,59.0099,998.84,55" style="stroke:#181818;stroke-width:1;stroke-linejoin:miter;stroke-miterlimit:10;"/></g><!--reverse link Procedure to ActuatingProcedure--><g class="link" data-entity-1="ent0013" data-entity-2="ent0014" data-link-type="extension" data-source-line="6" id="lnk15"><path codeLine="6" d="M1483.8326,63.1732 C1449.0626,80.8932 1417.24,97.11 1382.4,114.86" fill="none" id="Procedure-backto-ActuatingProcedure" style="stroke:#181818;stroke-width:1;"/><polygon fill="none" points="1499.87,55,1481.1082,57.8274,1486.557,68.519,1499.87,55" style="stroke:#181818;stroke-width:1;stroke-linejoin:miter;stroke-miterlimit:10;"/></g><!--reverse link Procedure to ObservingProcedure--><g class="link" data-entity-1="ent0013" data-entity-2="ent0016" data-link-type="extension" data-source-line="7" id="lnk17"><path codeLine="7" d="M1545,73 C1545,90.66 1545,96.94 1545,114.68" fill="none" id="Procedure-backto-ObservingProcedure" style="stroke:#181818;stroke-width:1;"/><polygon fill="none" points="1545,55,1539,73,1551,73,1545,55" style="stroke:#181818;stroke-width:1;stroke-linejoin:miter;stroke-miterlimit:10;"/></g><!--reverse link Procedure to SamplingProcedure--><g class="link" data-entity-1="ent0013" data-entity-2="ent0018" data-link-type="extension" data-source-line="8" id="lnk19"><path codeLine="8" d="M1605.9411,63.205 C1640.5411,80.925 1672.15,97.11 1706.81,114.86" fill="none" id="Procedure-backto-SamplingProcedure" style="stroke:#181818;stroke-width:1;"/><polygon fill="none" points="1589.92,55,1603.2061,68.5454,1608.6762,57.8647,1589.92,55" style="stroke:#181818;stroke-width:1;stroke-linejoin:miter;stroke-miterlimit:10;"/></g><!--reverse link Asset to Platform--><g class="link" data-entity-1="ent0020" data-entity-2="ent0021" data-link-type="extension" data-source-line="9" id="lnk22"><path codeLine="9" d="M1955.7839,70.6022 C1945.6239,88.2622 1940.63,96.94 1930.42,114.68" fill="none" id="Asset-backto-Platform" style="stroke:#181818;stroke-width:1;"/><polygon fill="none" points="1964.76,55,1950.5831,67.6102,1960.9846,73.5943,1964.76,55" style="stroke:#181818;stroke-width:1;stroke-linejoin:miter;stroke-miterlimit:10;"/></g><!--reverse link System to Sampler--><g class="link" data-entity-1="ent0023" data-entity-2="ent0024" data-link-type="extension" data-source-line="10" id="lnk25"><path codeLine="10" d="M1998.8865,174.5884 C1977.8965,192.2484 1962.81,204.94 1941.72,222.68" fill="none" id="System-backto-Sampler" style="stroke:#181818;stroke-width:1;"/><polygon fill="none" points="2012.66,163,1995.0237,169.9972,2002.7493,179.1795,2012.66,163" style="stroke:#181818;stroke-width:1;stroke-linejoin:miter;stroke-miterlimit:10;"/></g><!--reverse link System to Actuator--><g class="link" data-entity-1="ent0023" data-entity-2="ent0026" data-link-type="extension" data-source-line="11" id="lnk27"><path codeLine="11" d="M2040,181 C2040,198.66 2040,204.94 2040,222.68" fill="none" id="System-backto-Actuator" style="stroke:#181818;stroke-width:1;"/><polygon fill="none" points="2040,163,2034,181,2046,181,2040,163" style="stroke:#181818;stroke-width:1;stroke-linejoin:miter;stroke-miterlimit:10;"/></g><!--reverse link ExecutionCollection to SamplingCollection--><g class="link" data-entity-1="ent0028" data-entity-2="ent0029" data-link-type="extension" data-source-line="12" id="lnk30"><path codeLine="12" d="M2343.231,63.3636 C2309.461,81.0836 2278.93,97.11 2245.09,114.86" fill="none" id="ExecutionCollection-backto-SamplingCollection" style="stroke:#181818;stroke-width:1;"/><polygon fill="none" points="2359.17,55,2340.4432,58.0506,2346.0189,68.6766,2359.17,55" style="stroke:#181818;stroke-width:1;stroke-linejoin:miter;stroke-miterlimit:10;"/></g><!--reverse link Asset to System--><g class="link" data-entity-1="ent0020" data-entity-2="ent0023" data-link-type="extension" data-source-line="13" id="lnk31"><path codeLine="13" d="M2000.5383,70.5372 C2010.8683,88.1972 2015.98,96.94 2026.36,114.68" fill="none" id="Asset-backto-System" style="stroke:#181818;stroke-width:1;"/><polygon fill="none" points="1991.45,55,1995.3592,73.5666,2005.7173,67.5077,1991.45,55" style="stroke:#181818;stroke-width:1;stroke-linejoin:miter;stroke-miterlimit:10;"/></g><!--reverse link System to Sensor--><g class="link" data-entity-1="ent0023" data-entity-2="ent0032" data-link-type="extension" data-source-line="14" id="lnk33"><path codeLine="14" d="M2079.7968,174.864 C2099.9468,192.524 2114.13,204.94 2134.38,222.68" fill="none" id="System-backto-Sensor" style="stroke:#181818;stroke-width:1;"/><polygon fill="none" points="2066.26,163,2075.8421,179.3763,2083.7515,170.3518,2066.26,163" style="stroke:#181818;stroke-width:1;stroke-linejoin:miter;stroke-miterlimit:10;"/></g><!--reverse link Execution to Sampling--><g class="link" data-entity-1="ent0034" data-entity-2="ent0035" data-link-type="extension" data-source-line="15" id="lnk36"><path codeLine="15" d="M2882.8041,66.1688 C2860.4841,83.8288 2843.91,96.94 2821.48,114.68" fill="none" id="Execution-backto-Sampling" style="stroke:#181818;stroke-width:1;"/><polygon fill="none" points="2896.92,55,2879.0812,61.4635,2886.527,70.8741,2896.92,55" style="stroke:#181818;stroke-width:1;stroke-linejoin:miter;stroke-miterlimit:10;"/></g><!--reverse link Execution to Actuation--><g class="link" data-entity-1="ent0034" data-entity-2="ent0037" data-link-type="extension" data-source-line="16" id="lnk38"><path codeLine="16" d="M2926,73 C2926,90.66 2926,96.94 2926,114.68" fill="none" id="Execution-backto-Actuation" style="stroke:#181818;stroke-width:1;"/><polygon fill="none" points="2926,55,2920,73,2932,73,2926,55" style="stroke:#181818;stroke-width:1;stroke-linejoin:miter;stroke-miterlimit:10;"/></g><!--reverse link ExecutionCollection to ActuationCollection--><g class="link" data-entity-1="ent0028" data-entity-2="ent0039" data-link-type="extension" data-source-line="17" id="lnk40"><path codeLine="17" d="M2403,73 C2403,90.66 2403,96.94 2403,114.68" fill="none" id="ExecutionCollection-backto-ActuationCollection" style="stroke:#181818;stroke-width:1;"/><polygon fill="none" points="2403,55,2397,73,2409,73,2403,55" style="stroke:#181818;stroke-width:1;stroke-linejoin:miter;stroke-miterlimit:10;"/></g><!--reverse link ExecutionCollection to ObservationCollection--><g class="link" data-entity-1="ent0028" data-entity-2="ent0041" data-link-type="extension" data-source-line="18" id="lnk42"><path codeLine="18" d="M2465.0997,63.0498 C2500.5397,80.7698 2533.22,97.11 2568.72,114.86" fill="none" id="ExecutionCollection-backto-ObservationCollection" style="stroke:#181818;stroke-width:1;"/><polygon fill="none" points="2449,55,2462.4164,68.4164,2467.783,57.6833,2449,55" style="stroke:#181818;stroke-width:1;stroke-linejoin:miter;stroke-miterlimit:10;"/></g><!--reverse link Execution to Observation--><g class="link" data-entity-1="ent0034" data-entity-2="ent0043" data-link-type="extension" data-source-line="19" id="lnk44"><path codeLine="19" d="M2971.4895,65.7202 C2995.3095,83.3802 3013.61,96.94 3037.54,114.68" fill="none" id="Execution-backto-Observation" style="stroke:#181818;stroke-width:1;"/><polygon fill="none" points="2957.03,55,2967.9161,70.54,2975.0629,60.9004,2957.03,55" style="stroke:#181818;stroke-width:1;stroke-linejoin:miter;stroke-miterlimit:10;"/></g><?plantuml-src VL9RRiCW4Fpd5Bv0Rj2Vg0-f7rMi-WGRCgcG5h3O9Qgb7hvESHr8vVx1pEpCQA5FSKJIgNluskswlTLCIaT6l-1c83yo2lr6YkI82sRwPlPm5AJBvkmmajv66qPdHjJPsjZYb1FgLYvyhFYzecJ_f_XnRWHx4MWXUoOzn-JDC8d2LnD83LQQn6IUFs6pkXWU8pFizTJctF0wg7YrCGXI6xOsz_YoYjbriy4ggIfiYfT7svB_4HdB9DAzW7JUuU7y6kOV0T45VuTa_hsK1LQs1Nx2o77o2AjEdS-SvHi0?></g></svg>