<svg xmlns="http://www.w3.org/2000/svg" xmlns:xlink="http://www.w3.org/1999/xlink" contentStyleType="text/css" data-diagram-type="CLASS" height="286px" preserveAspectRatio="none" style="width:3232px;height:286px;background:#FFFFFF;" version="1.1" viewBox="0 0 3232 286" width="3232px" zoomAndPan="magnify"><?plantuml 1.2026.3?><defs/><g><!--class Property--><g class="entity" data-qualified-name="Property" data-source-line="1" id="ent0002"><rect fill="#F1F1F1" height="48" rx="2.5" ry="2.5" style="stroke:#181818;stroke-width:0.5;" width="91.7939" x="570.5" y="7"/><ellipse cx="585.5" cy="23" fill="#ADD1B2" rx="11" ry="11" style="stroke:#181818;stroke-width:1;"/><path d="M588.4688,28.6406 Q587.8906,28.9375 587.25,29.0781 Q586.6094,29.2344 585.9063,29.2344 Q583.4063,29.2344 582.0781,27.5938 Q580.7656,25.9375 580.7656,22.8125 Q580.7656,19.6875 582.0781,18.0313 Q583.4063,16.375 585.9063,16.375 Q586.6094,16.375 587.25,16.5313 Q587.9063,16.6875 588.4688,16.9844 L588.4688,19.7031 Q587.8438,19.125 587.25,18.8594 Q586.6563,18.5781 586.0313,18.5781 Q584.6875,18.5781 584,19.6563 Q583.3125,20.7188 583.3125,22.8125 Q583.3125,24.9063 584,25.9844 Q584.6875,27.0469 586.0313,27.0469 Q586.6563,27.0469 587.25,26.7813 Q587.8438,26.5 588.4688,25.9219 L588.4688,28.6406 Z " fill="#000000"/><text fill="#000000" font-family="sans-serif" font-size="14" lengthAdjust="spacing" textLength="59.7939" x="599.5" y="27.8467">Property</text><line style="stroke:#181818;stroke-width:0.5;" x1="571.5" x2="661.2939" y1="39" y2="39"/><line style="stroke:#181818;stroke-width:0.5;" x1="571.5" x2="661.2939" y1="47" y2="47"/></g><!--class ActuatableProperty--><g class="entity" data-qualified-name="ActuatableProperty" data-source-line="1" id="ent0003"><rect fill="#F1F1F1" height="48" rx="2.5" ry="2.5" style="stroke:#181818;stroke-width:0.5;" width="167.4678" x="398" y="115"/><ellipse cx="413" cy="131" fill="#ADD1B2" rx="11" ry="11" style="stroke:#181818;stroke-width:1;"/><path d="M415.9688,136.6406 Q415.3906,136.9375 414.75,137.0781 Q414.1094,137.2344 413.4063,137.2344 Q410.9063,137.2344 409.5781,135.5938 Q408.2656,133.9375 408.2656,130.8125 Q408.2656,127.6875 409.5781,126.0313 Q410.9063,124.375 413.4063,124.375 Q414.1094,124.375 414.75,124.5313 Q415.4063,124.6875 415.9688,124.9844 L415.9688,127.7031 Q415.3438,127.125 414.75,126.8594 Q414.1563,126.5781 413.5313,126.5781 Q412.1875,126.5781 411.5,127.6563 Q410.8125,128.7188 410.8125,130.8125 Q410.8125,132.9063 411.5,133.9844 Q412.1875,135.0469 413.5313,135.0469 Q414.1563,135.0469 414.75,134.7813 Q415.3438,134.5 415.9688,133.9219 L415.9688,136.6406 Z " fill="#000000"/><text fill="#000000" font-family="sans-serif" font-size="14" lengthAdjust="spacing" textLength="135.4678" x="427" y="135.8467">ActuatableProperty</text><line style="stroke:#181818;stroke-width:0.5;" x1="399" x2="564.4678" y1="147" y2="147"/><line style="stroke:#181818;stroke-width:0.5;" x1="399" x2="564.4678" y1="155" y2="155"/></g><!--class ObservableProperty--><g class="entity" data-qualified-name="ObservableProperty" data-source-line="2" id="ent0005"><rect fill="#F1F1F1" height="48" rx="2.5" ry="2.5" style="stroke:#181818;stroke-width:0.5;" width="171.6172" x="600.5" y="115"/><ellipse cx="615.5" cy="131" fill="#ADD1B2" rx="11" ry="11" style="stroke:#181818;stroke-width:1;"/><path d="M618.4688,136.6406 Q617.8906,136.9375 617.25,137.0781 Q616.6094,137.2344 615.9063,137.2344 Q613.4063,137.2344 612.0781,135.5938 Q610.7656,133.9375 610.7656,130.8125 Q610.7656,127.6875 612.0781,126.0313 Q613.4063,124.375 615.9063,124.375 Q616.6094,124.375 617.25,124.5313 Q617.9063,124.6875 618.4688,124.9844 L618.4688,127.7031 Q617.8438,127.125 617.25,126.8594 Q616.6563,126.5781 616.0313,126.5781 Q614.6875,126.5781 614,127.6563 Q613.3125,128.7188 613.3125,130.8125 Q613.3125,132.9063 614,133.9844 Q614.6875,135.0469 616.0313,135.0469 Q616.6563,135.0469 617.25,134.7813 Q617.8438,134.5 618.4688,133.9219 L618.4688,136.6406 Z " fill="#000000"/><text fill="#000000" font-family="sans-serif" font-size="14" lengthAdjust="spacing" textLength="139.6172" x="629.5" y="135.8467">ObservableProperty</text><line style="stroke:#181818;stroke-width:0.5;" x1="601.5" x2="771.1172" y1="147" y2="147"/><line style="stroke:#181818;stroke-width:0.5;" x1="601.5" x2="771.1172" y1="155" y2="155"/></g><!--class Sample--><g class="entity" data-qualified-name="Sample" data-source-line="3" id="ent0007"><rect fill="#F1F1F1" height="48" rx="2.5" ry="2.5" style="stroke:#181818;stroke-width:0.5;" width="84.4932" x="1008.5" y="7"/><ellipse cx="1023.5" cy="23" fill="#ADD1B2" rx="11" ry="11" style="stroke:#181818;stroke-width:1;"/><path d="M1026.4688,28.6406 Q1025.8906,28.9375 1025.25,29.0781 Q1024.6094,29.2344 1023.9063,29.2344 Q1021.4063,29.2344 1020.0781,27.5938 Q1018.7656,25.9375 1018.7656,22.8125 Q1018.7656,19.6875 1020.0781,18.0313 Q1021.4063,16.375 1023.9063,16.375 Q1024.6094,16.375 1025.25,16.5313 Q1025.9063,16.6875 1026.4688,16.9844 L1026.4688,19.7031 Q1025.8438,19.125 1025.25,18.8594 Q1024.6563,18.5781 1024.0313,18.5781 Q1022.6875,18.5781 1022,19.6563 Q1021.3125,20.7188 1021.3125,22.8125 Q1021.3125,24.9063 1022,25.9844 Q1022.6875,27.0469 1024.0313,27.0469 Q1024.6563,27.0469 1025.25,26.7813 Q1025.8438,26.5 1026.4688,25.9219 L1026.4688,28.6406 Z " fill="#000000"/><text fill="#000000" font-family="sans-serif" font-size="14" lengthAdjust="spacing" textLength="52.4932" x="1037.5" y="27.8467">Sample</text><line style="stroke:#181818;stroke-width:0.5;" x1="1009.5" x2="1091.9932" y1="39" y2="39"/><line style="stroke:#181818;stroke-width:0.5;" x1="1009.5" x2="1091.9932" y1="47" y2="47"/></g><!--class MaterialSample--><g class="entity" data-qualified-name="MaterialSample" data-source-line="3" id="ent0008"><rect fill="#F1F1F1" height="48" rx="2.5" ry="2.5" style="stroke:#181818;stroke-width:0.5;" width="141.3682" x="808" y="115"/><ellipse cx="823" cy="131" fill="#ADD1B2" rx="11" ry="11" style="stroke:#181818;stroke-width:1;"/><path d="M825.9688,136.6406 Q825.3906,136.9375 824.75,137.0781 Q824.1094,137.2344 823.4063,137.2344 Q820.9063,137.2344 819.5781,135.5938 Q818.2656,133.9375 818.2656,130.8125 Q818.2656,127.6875 819.5781,126.0313 Q820.9063,124.375 823.4063,124.375 Q824.1094,124.375 824.75,124.5313 Q825.4063,124.6875 825.9688,124.9844 L825.9688,127.7031 Q825.3438,127.125 824.75,126.8594 Q824.1563,126.5781 823.5313,126.5781 Q822.1875,126.5781 821.5,127.6563 Q820.8125,128.7188 820.8125,130.8125 Q820.8125,132.9063 821.5,133.9844 Q822.1875,135.0469 823.5313,135.0469 Q824.1563,135.0469 824.75,134.7813 Q825.3438,134.5 825.9688,133.9219 L825.9688,136.6406 Z " fill="#000000"/><text fill="#000000" font-family="sans-serif" font-size="14" lengthAdjust="spacing" textLength="109.3682" x="837" y="135.8467">MaterialSample</text><line style="stroke:#181818;stroke-width:0.5;" x1="809" x2="948.3682" y1="147" y2="147"/><line style="stroke:#181818;stroke-width:0.5;" x1="809" x2="948.3682" y1="155" y2="155"/></g><!--class SpatialSample--><g class="entity" data-qualified-name="SpatialSample" data-source-line="4" id="ent0010"><rect fill="#F1F1F1" height="48" rx="2.5" ry="2.5" style="stroke:#181818;stroke-width:0.5;" width="132.6934" x="984" y="115"/><ellipse cx="999" cy="131" fill="#ADD1B2" rx="11" ry="11" style="stroke:#181818;stroke-width:1;"/><path d="M1001.9688,136.6406 Q1001.3906,136.9375 1000.75,137.0781 Q1000.1094,137.2344 999.4063,137.2344 Q996.9063,137.2344 995.5781,135.5938 Q994.2656,133.9375 994.2656,130.8125 Q994.2656,127.6875 995.5781,126.0313 Q996.9063,124.375 999.4063,124.375 Q1000.1094,124.375 1000.75,124.5313 Q1001.4063,124.6875 1001.9688,124.9844 L1001.9688,127.7031 Q1001.3438,127.125 1000.75,126.8594 Q1000.1563,126.5781 999.5313,126.5781 Q998.1875,126.5781 997.5,127.6563 Q996.8125,128.7188 996.8125,130.8125 Q996.8125,132.9063 997.5,133.9844 Q998.1875,135.0469 999.5313,135.0469 Q1000.1563,135.0469 1000.75,134.7813 Q1001.3438,134.5 1001.9688,133.9219 L1001.9688,136.6406 Z " fill="#000000"/><text fill="#000000" font-family="sans-serif" font-size="14" lengthAdjust="spacing" textLength="100.6934" x="1013" y="135.8467">SpatialSample</text><line style="stroke:#181818;stroke-width:0.5;" x1="985" x2="1115.6934" y1="147" y2="147"/><line style="stroke:#181818;stroke-width:0.5;" x1="985" x2="1115.6934" y1="155" y2="155"/></g><!--class StatisticalSample--><g class="entity" data-qualified-name="StatisticalSample" data-source-line="5" id="ent0012"><rect fill="#F1F1F1" height="48" rx="2.5" ry="2.5" style="stroke:#181818;stroke-width:0.5;" width="153.666" x="1152.5" y="115"/><ellipse cx="1167.5" cy="131" fill="#ADD1B2" rx="11" ry="11" style="stroke:#181818;stroke-width:1;"/><path d="M1170.4688,136.6406 Q1169.8906,136.9375 1169.25,137.0781 Q1168.6094,137.2344 1167.9063,137.2344 Q1165.4063,137.2344 1164.0781,135.5938 Q1162.7656,133.9375 1162.7656,130.8125 Q1162.7656,127.6875 1164.0781,126.0313 Q1165.4063,124.375 1167.9063,124.375 Q1168.6094,124.375 1169.25,124.5313 Q1169.9063,124.6875 1170.4688,124.9844 L1170.4688,127.7031 Q1169.8438,127.125 1169.25,126.8594 Q1168.6563,126.5781 1168.0313,126.5781 Q1166.6875,126.5781 1166,127.6563 Q1165.3125,128.7188 1165.3125,130.8125 Q1165.3125,132.9063 1166,133.9844 Q1166.6875,135.0469 1168.0313,135.0469 Q1168.6563,135.0469 1169.25,134.7813 Q1169.8438,134.5 1170.4688,133.9219 L1170.4688,136.6406 Z " fill="#000000"/><text fill="#000000" font-family="sans-serif" font-size="14" lengthAdjust="spacing" textLength="121.666" x="1181.5" y="135.8467">StatisticalSample</text><line style="stroke:#181818;stroke-width:0.5;" x1="1153.5" x2="1305.166" y1="147" y2="147"/><line style="stroke:#181818;stroke-width:0.5;" x1="1153.5" x2="1305.166" y1="155" y2="155"/></g><!--class Procedure--><g class="entity" data-qualified-name="Procedure" data-source-line="6" id="ent0014"><rect fill="#F1F1F1" height="48" rx="2.5" ry="2.5" style="stroke:#181818;stroke-width:0.5;" width="103.2031" x="1584" y="7"/><ellipse cx="1599" cy="23" fill="#ADD1B2" rx="11" ry="11" style="stroke:#181818;stroke-width:1;"/><path d="M1601.9688,28.6406 Q1601.3906,28.9375 1600.75,29.0781 Q1600.1094,29.2344 1599.4063,29.2344 Q1596.9063,29.2344 1595.5781,27.5938 Q1594.2656,25.9375 1594.2656,22.8125 Q1594.2656,19.6875 1595.5781,18.0313 Q1596.9063,16.375 1599.4063,16.375 Q1600.1094,16.375 1600.75,16.5313 Q1601.4063,16.6875 1601.9688,16.9844 L1601.9688,19.7031 Q1601.3438,19.125 1600.75,18.8594 Q1600.1563,18.5781 1599.5313,18.5781 Q1598.1875,18.5781 1597.5,19.6563 Q1596.8125,20.7188 1596.8125,22.8125 Q1596.8125,24.9063 1597.5,25.9844 Q1598.1875,27.0469 1599.5313,27.0469 Q1600.1563,27.0469 1600.75,26.7813 Q1601.3438,26.5 1601.9688,25.9219 L1601.9688,28.6406 Z " fill="#000000"/><text fill="#000000" font-family="sans-serif" font-size="14" lengthAdjust="spacing" textLength="71.2031" x="1613" y="27.8467">Procedure</text><line style="stroke:#181818;stroke-width:0.5;" x1="1585" x2="1686.2031" y1="39" y2="39"/><line style="stroke:#181818;stroke-width:0.5;" x1="1585" x2="1686.2031" y1="47" y2="47"/></g><!--class ActuatingProcedure--><g class="entity" data-qualified-name="ActuatingProcedure" data-source-line="6" id="ent0015"><rect fill="#F1F1F1" height="48" rx="2.5" ry="2.5" style="stroke:#181818;stroke-width:0.5;" width="170.5576" x="1342" y="115"/><ellipse cx="1357" cy="131" fill="#ADD1B2" rx="11" ry="11" style="stroke:#181818;stroke-width:1;"/><path d="M1359.9688,136.6406 Q1359.3906,136.9375 1358.75,137.0781 Q1358.1094,137.2344 1357.4063,137.2344 Q1354.9063,137.2344 1353.5781,135.5938 Q1352.2656,133.9375 1352.2656,130.8125 Q1352.2656,127.6875 1353.5781,126.0313 Q1354.9063,124.375 1357.4063,124.375 Q1358.1094,124.375 1358.75,124.5313 Q1359.4063,124.6875 1359.9688,124.9844 L1359.9688,127.7031 Q1359.3438,127.125 1358.75,126.8594 Q1358.1563,126.5781 1357.5313,126.5781 Q1356.1875,126.5781 1355.5,127.6563 Q1354.8125,128.7188 1354.8125,130.8125 Q1354.8125,132.9063 1355.5,133.9844 Q1356.1875,135.0469 1357.5313,135.0469 Q1358.1563,135.0469 1358.75,134.7813 Q1359.3438,134.5 1359.9688,133.9219 L1359.9688,136.6406 Z " fill="#000000"/><text fill="#000000" font-family="sans-serif" font-size="14" lengthAdjust="spacing" textLength="138.5576" x="1371" y="135.8467">ActuatingProcedure</text><line style="stroke:#181818;stroke-width:0.5;" x1="1343" x2="1511.5576" y1="147" y2="147"/><line style="stroke:#181818;stroke-width:0.5;" x1="1343" x2="1511.5576" y1="155" y2="155"/></g><!--class ObservingProcedure--><g class="entity" data-qualified-name="ObservingProcedure" data-source-line="7" id="ent0017"><rect fill="#F1F1F1" height="48" rx="2.5" ry="2.5" style="stroke:#181818;stroke-width:0.5;" width="174.707" x="1548" y="115"/><ellipse cx="1563" cy="131" fill="#ADD1B2" rx="11" ry="11" style="stroke:#181818;stroke-width:1;"/><path d="M1565.9688,136.6406 Q1565.3906,136.9375 1564.75,137.0781 Q1564.1094,137.2344 1563.4063,137.2344 Q1560.9063,137.2344 1559.5781,135.5938 Q1558.2656,133.9375 1558.2656,130.8125 Q1558.2656,127.6875 1559.5781,126.0313 Q1560.9063,124.375 1563.4063,124.375 Q1564.1094,124.375 1564.75,124.5313 Q1565.4063,124.6875 1565.9688,124.9844 L1565.9688,127.7031 Q1565.3438,127.125 1564.75,126.8594 Q1564.1563,126.5781 1563.5313,126.5781 Q1562.1875,126.5781 1561.5,127.6563 Q1560.8125,128.7188 1560.8125,130.8125 Q1560.8125,132.9063 1561.5,133.9844 Q1562.1875,135.0469 1563.5313,135.0469 Q1564.1563,135.0469 1564.75,134.7813 Q1565.3438,134.5 1565.9688,133.9219 L1565.9688,136.6406 Z " fill="#000000"/><text fill="#000000" font-family="sans-serif" font-size="14" lengthAdjust="spacing" textLength="142.707" x="1577" y="135.8467">ObservingProcedure</text><line style="stroke:#181818;stroke-width:0.5;" x1="1549" x2="1721.707" y1="147" y2="147"/><line style="stroke:#181818;stroke-width:0.5;" x1="1549" x2="1721.707" y1="155" y2="155"/></g><!--class SamplingProcedure--><g class="entity" data-qualified-name="SamplingProcedure" data-source-line="8" id="ent0019"><rect fill="#F1F1F1" height="48" rx="2.5" ry="2.5" style="stroke:#181818;stroke-width:0.5;" width="168.7324" x="1758" y="115"/><ellipse cx="1773" cy="131" fill="#ADD1B2" rx="11" ry="11" style="stroke:#181818;stroke-width:1;"/><path d="M1775.9688,136.6406 Q1775.3906,136.9375 1774.75,137.0781 Q1774.1094,137.2344 1773.4063,137.2344 Q1770.9063,137.2344 1769.5781,135.5938 Q1768.2656,133.9375 1768.2656,130.8125 Q1768.2656,127.6875 1769.5781,126.0313 Q1770.9063,124.375 1773.4063,124.375 Q1774.1094,124.375 1774.75,124.5313 Q1775.4063,124.6875 1775.9688,124.9844 L1775.9688,127.7031 Q1775.3438,127.125 1774.75,126.8594 Q1774.1563,126.5781 1773.5313,126.5781 Q1772.1875,126.5781 1771.5,127.6563 Q1770.8125,128.7188 1770.8125,130.8125 Q1770.8125,132.9063 1771.5,133.9844 Q1772.1875,135.0469 1773.5313,135.0469 Q1774.1563,135.0469 1774.75,134.7813 Q1775.3438,134.5 1775.9688,133.9219 L1775.9688,136.6406 Z " fill="#000000"/><text fill="#000000" font-family="sans-serif" font-size="14" lengthAdjust="spacing" textLength="136.7324" x="1787" y="135.8467">SamplingProcedure</text><line style="stroke:#181818;stroke-width:0.5;" x1="1759" x2="1925.7324" y1="147" y2="147"/><line style="stroke:#181818;stroke-width:0.5;" x1="1759" x2="1925.7324" y1="155" y2="155"/></g><!--class Asset--><g class="entity" data-qualified-name="Asset" data-source-line="9" id="ent0021"><rect fill="#F1F1F1" height="48" rx="2.5" ry="2.5" style="stroke:#181818;stroke-width:0.5;" width="70.2676" x="2033.5" y="7"/><ellipse cx="2048.5" cy="23" fill="#ADD1B2" rx="11" ry="11" style="stroke:#181818;stroke-width:1;"/><path d="M2051.4688,28.6406 Q2050.8906,28.9375 2050.25,29.0781 Q2049.6094,29.2344 2048.9063,29.2344 Q2046.4063,29.2344 2045.0781,27.5938 Q2043.7656,25.9375 2043.7656,22.8125 Q2043.7656,19.6875 2045.0781,18.0313 Q2046.4063,16.375 2048.9063,16.375 Q2049.6094,16.375 2050.25,16.5313 Q2050.9063,16.6875 2051.4688,16.9844 L2051.4688,19.7031 Q2050.8438,19.125 2050.25,18.8594 Q2049.6563,18.5781 2049.0313,18.5781 Q2047.6875,18.5781 2047,19.6563 Q2046.3125,20.7188 2046.3125,22.8125 Q2046.3125,24.9063 2047,25.9844 Q2047.6875,27.0469 2049.0313,27.0469 Q2049.6563,27.0469 2050.25,26.7813 Q2050.8438,26.5 2051.4688,25.9219 L2051.4688,28.6406 Z " fill="#000000"/><text fill="#000000" font-family="sans-serif" font-size="14" lengthAdjust="spacing" textLength="38.2676" x="2062.5" y="27.8467">Asset</text><line style="stroke:#181818;stroke-width:0.5;" x1="2034.5" x2="2102.7676" y1="39" y2="39"/><line style="stroke:#181818;stroke-width:0.5;" x1="2034.5" x2="2102.7676" y1="47" y2="47"/></g><!--class Platform--><g class="entity" data-qualified-name="Platform" data-source-line="9" id="ent0022"><rect fill="#F1F1F1" height="48" rx="2.5" ry="2.5" style="stroke:#181818;stroke-width:0.5;" width="91.2881" x="1962" y="115"/><ellipse cx="1977" cy="131" fill="#ADD1B2" rx="11" ry="11" style="stroke:#181818;stroke-width:1;"/><path d="M1979.9688,136.6406 Q1979.3906,136.9375 1978.75,137.0781 Q1978.1094,137.2344 1977.4063,137.2344 Q1974.9063,137.2344 1973.5781,135.5938 Q1972.2656,133.9375 1972.2656,130.8125 Q1972.2656,127.6875 1973.5781,126.0313 Q1974.9063,124.375 1977.4063,124.375 Q1978.1094,124.375 1978.75,124.5313 Q1979.4063,124.6875 1979.9688,124.9844 L1979.9688,127.7031 Q1979.3438,127.125 1978.75,126.8594 Q1978.1563,126.5781 1977.5313,126.5781 Q1976.1875,126.5781 1975.5,127.6563 Q1974.8125,128.7188 1974.8125,130.8125 Q1974.8125,132.9063 1975.5,133.9844 Q1976.1875,135.0469 1977.5313,135.0469 Q1978.1563,135.0469 1978.75,134.7813 Q1979.3438,134.5 1979.9688,133.9219 L1979.9688,136.6406 Z " fill="#000000"/><text fill="#000000" font-family="sans-serif" font-size="14" lengthAdjust="spacing" textLength="59.2881" x="1991" y="135.8467">Platform</text><line style="stroke:#181818;stroke-width:0.5;" x1="1963" x2="2052.2881" y1="147" y2="147"/><line style="stroke:#181818;stroke-width:0.5;" x1="1963" x2="2052.2881" y1="155" y2="155"/></g><!--class System--><g class="entity" data-qualified-name="System" data-source-line="10" id="ent0024"><rect fill="#F1F1F1" height="48" rx="2.5" ry="2.5" style="stroke:#181818;stroke-width:0.5;" width="84.2061" x="2088.5" y="115"/><ellipse cx="2103.5" cy="131" fill="#ADD1B2" rx="11" ry="11" style="stroke:#181818;stroke-width:1;"/><path d="M2106.4688,136.6406 Q2105.8906,136.9375 2105.25,137.0781 Q2104.6094,137.2344 2103.9063,137.2344 Q2101.4063,137.2344 2100.0781,135.5938 Q2098.7656,133.9375 2098.7656,130.8125 Q2098.7656,127.6875 2100.0781,126.0313 Q2101.4063,124.375 2103.9063,124.375 Q2104.6094,124.375 2105.25,124.5313 Q2105.9063,124.6875 2106.4688,124.9844 L2106.4688,127.7031 Q2105.8438,127.125 2105.25,126.8594 Q2104.6563,126.5781 2104.0313,126.5781 Q2102.6875,126.5781 2102,127.6563 Q2101.3125,128.7188 2101.3125,130.8125 Q2101.3125,132.9063 2102,133.9844 Q2102.6875,135.0469 2104.0313,135.0469 Q2104.6563,135.0469 2105.25,134.7813 Q2105.8438,134.5 2106.4688,133.9219 L2106.4688,136.6406 Z " fill="#000000"/><text fill="#000000" font-family="sans-serif" font-size="14" lengthAdjust="spacing" textLength="52.2061" x="2117.5" y="135.8467">System</text><line style="stroke:#181818;stroke-width:0.5;" x1="2089.5" x2="2171.7061" y1="147" y2="147"/><line style="stroke:#181818;stroke-width:0.5;" x1="2089.5" x2="2171.7061" y1="155" y2="155"/></g><!--class Sampler--><g class="entity" data-qualified-name="Sampler" data-source-line="11" id="ent0026"><rect fill="#F1F1F1" height="48" rx="2.5" ry="2.5" style="stroke:#181818;stroke-width:0.5;" width="90.249" x="1959.5" y="223"/><ellipse cx="1974.5" cy="239" fill="#ADD1B2" rx="11" ry="11" style="stroke:#181818;stroke-width:1;"/><path d="M1977.4688,244.6406 Q1976.8906,244.9375 1976.25,245.0781 Q1975.6094,245.2344 1974.9063,245.2344 Q1972.4063,245.2344 1971.0781,243.5938 Q1969.7656,241.9375 1969.7656,238.8125 Q1969.7656,235.6875 1971.0781,234.0313 Q1972.4063,232.375 1974.9063,232.375 Q1975.6094,232.375 1976.25,232.5313 Q1976.9063,232.6875 1977.4688,232.9844 L1977.4688,235.7031 Q1976.8438,235.125 1976.25,234.8594 Q1975.6563,234.5781 1975.0313,234.5781 Q1973.6875,234.5781 1973,235.6563 Q1972.3125,236.7188 1972.3125,238.8125 Q1972.3125,240.9063 1973,241.9844 Q1973.6875,243.0469 1975.0313,243.0469 Q1975.6563,243.0469 1976.25,242.7813 Q1976.8438,242.5 1977.4688,241.9219 L1977.4688,244.6406 Z " fill="#000000"/><text fill="#000000" font-family="sans-serif" font-size="14" lengthAdjust="spacing" textLength="58.249" x="1988.5" y="243.8467">Sampler</text><line style="stroke:#181818;stroke-width:0.5;" x1="1960.5" x2="2048.749" y1="255" y2="255"/><line style="stroke:#181818;stroke-width:0.5;" x1="1960.5" x2="2048.749" y1="263" y2="263"/></g><!--class Actuator--><g class="entity" data-qualified-name="Actuator" data-source-line="12" id="ent0028"><rect fill="#F1F1F1" height="48" rx="2.5" ry="2.5" style="stroke:#181818;stroke-width:0.5;" width="92.0264" x="2084.5" y="223"/><ellipse cx="2099.5" cy="239" fill="#ADD1B2" rx="11" ry="11" style="stroke:#181818;stroke-width:1;"/><path d="M2102.4688,244.6406 Q2101.8906,244.9375 2101.25,245.0781 Q2100.6094,245.2344 2099.9063,245.2344 Q2097.4063,245.2344 2096.0781,243.5938 Q2094.7656,241.9375 2094.7656,238.8125 Q2094.7656,235.6875 2096.0781,234.0313 Q2097.4063,232.375 2099.9063,232.375 Q2100.6094,232.375 2101.25,232.5313 Q2101.9063,232.6875 2102.4688,232.9844 L2102.4688,235.7031 Q2101.8438,235.125 2101.25,234.8594 Q2100.6563,234.5781 2100.0313,234.5781 Q2098.6875,234.5781 2098,235.6563 Q2097.3125,236.7188 2097.3125,238.8125 Q2097.3125,240.9063 2098,241.9844 Q2098.6875,243.0469 2100.0313,243.0469 Q2100.6563,243.0469 2101.25,242.7813 Q2101.8438,242.5 2102.4688,241.9219 L2102.4688,244.6406 Z " fill="#000000"/><text fill="#000000" font-family="sans-serif" font-size="14" lengthAdjust="spacing" textLength="60.0264" x="2113.5" y="243.8467">Actuator</text><line style="stroke:#181818;stroke-width:0.5;" x1="2085.5" x2="2175.5264" y1="255" y2="255"/><line style="stroke:#181818;stroke-width:0.5;" x1="2085.5" x2="2175.5264" y1="263" y2="263"/></g><!--class Sensor--><g class="entity" data-qualified-name="Sensor" data-source-line="13" id="ent0030"><rect fill="#F1F1F1" height="48" rx="2.5" ry="2.5" style="stroke:#181818;stroke-width:0.5;" width="79.9883" x="2211.5" y="223"/><ellipse cx="2226.5" cy="239" fill="#ADD1B2" rx="11" ry="11" style="stroke:#181818;stroke-width:1;"/><path d="M2229.4688,244.6406 Q2228.8906,244.9375 2228.25,245.0781 Q2227.6094,245.2344 2226.9063,245.2344 Q2224.4063,245.2344 2223.0781,243.5938 Q2221.7656,241.9375 2221.7656,238.8125 Q2221.7656,235.6875 2223.0781,234.0313 Q2224.4063,232.375 2226.9063,232.375 Q2227.6094,232.375 2228.25,232.5313 Q2228.9063,232.6875 2229.4688,232.9844 L2229.4688,235.7031 Q2228.8438,235.125 2228.25,234.8594 Q2227.6563,234.5781 2227.0313,234.5781 Q2225.6875,234.5781 2225,235.6563 Q2224.3125,236.7188 2224.3125,238.8125 Q2224.3125,240.9063 2225,241.9844 Q2225.6875,243.0469 2227.0313,243.0469 Q2227.6563,243.0469 2228.25,242.7813 Q2228.8438,242.5 2229.4688,241.9219 L2229.4688,244.6406 Z " fill="#000000"/><text fill="#000000" font-family="sans-serif" font-size="14" lengthAdjust="spacing" textLength="47.9883" x="2240.5" y="243.8467">Sensor</text><line style="stroke:#181818;stroke-width:0.5;" x1="2212.5" x2="2290.4883" y1="255" y2="255"/><line style="stroke:#181818;stroke-width:0.5;" x1="2212.5" x2="2290.4883" y1="263" y2="263"/></g><!--class Execution--><g class="entity" data-qualified-name="Execution" data-source-line="14" id="ent0032"><rect fill="#F1F1F1" height="48" rx="2.5" ry="2.5" style="stroke:#181818;stroke-width:0.5;" width="101.1318" x="2340" y="7"/><ellipse cx="2355" cy="23" fill="#ADD1B2" rx="11" ry="11" style="stroke:#181818;stroke-width:1;"/><path d="M2357.9688,28.6406 Q2357.3906,28.9375 2356.75,29.0781 Q2356.1094,29.2344 2355.4063,29.2344 Q2352.9063,29.2344 2351.5781,27.5938 Q2350.2656,25.9375 2350.2656,22.8125 Q2350.2656,19.6875 2351.5781,18.0313 Q2352.9063,16.375 2355.4063,16.375 Q2356.1094,16.375 2356.75,16.5313 Q2357.4063,16.6875 2357.9688,16.9844 L2357.9688,19.7031 Q2357.3438,19.125 2356.75,18.8594 Q2356.1563,18.5781 2355.5313,18.5781 Q2354.1875,18.5781 2353.5,19.6563 Q2352.8125,20.7188 2352.8125,22.8125 Q2352.8125,24.9063 2353.5,25.9844 Q2354.1875,27.0469 2355.5313,27.0469 Q2356.1563,27.0469 2356.75,26.7813 Q2357.3438,26.5 2357.9688,25.9219 L2357.9688,28.6406 Z " fill="#000000"/><text fill="#000000" font-family="sans-serif" font-size="14" lengthAdjust="spacing" textLength="69.1318" x="2369" y="27.8467">Execution</text><line style="stroke:#181818;stroke-width:0.5;" x1="2341" x2="2440.1318" y1="39" y2="39"/><line style="stroke:#181818;stroke-width:0.5;" x1="2341" x2="2440.1318" y1="47" y2="47"/></g><!--class Sampling--><g class="entity" data-qualified-name="Sampling" data-source-line="14" id="ent0033"><rect fill="#F1F1F1" height="48" rx="2.5" ry="2.5" style="stroke:#181818;stroke-width:0.5;" width="97.5293" x="2207.5" y="115"/><ellipse cx="2222.5" cy="131" fill="#ADD1B2" rx="11" ry="11" style="stroke:#181818;stroke-width:1;"/><path d="M2225.4688,136.6406 Q2224.8906,136.9375 2224.25,137.0781 Q2223.6094,137.2344 2222.9063,137.2344 Q2220.4063,137.2344 2219.0781,135.5938 Q2217.7656,133.9375 2217.7656,130.8125 Q2217.7656,127.6875 2219.0781,126.0313 Q2220.4063,124.375 2222.9063,124.375 Q2223.6094,124.375 2224.25,124.5313 Q2224.9063,124.6875 2225.4688,124.9844 L2225.4688,127.7031 Q2224.8438,127.125 2224.25,126.8594 Q2223.6563,126.5781 2223.0313,126.5781 Q2221.6875,126.5781 2221,127.6563 Q2220.3125,128.7188 2220.3125,130.8125 Q2220.3125,132.9063 2221,133.9844 Q2221.6875,135.0469 2223.0313,135.0469 Q2223.6563,135.0469 2224.25,134.7813 Q2224.8438,134.5 2225.4688,133.9219 L2225.4688,136.6406 Z " fill="#000000"/><text fill="#000000" font-family="sans-serif" font-size="14" lengthAdjust="spacing" textLength="65.5293" x="2236.5" y="135.8467">Sampling</text><line style="stroke:#181818;stroke-width:0.5;" x1="2208.5" x2="2304.0293" y1="147" y2="147"/><line style="stroke:#181818;stroke-width:0.5;" x1="2208.5" x2="2304.0293" y1="155" y2="155"/></g><!--class Actuation--><g class="entity" data-qualified-name="Actuation" data-source-line="15" id="ent0035"><rect fill="#F1F1F1" height="48" rx="2.5" ry="2.5" style="stroke:#181818;stroke-width:0.5;" width="99.0332" x="2341" y="115"/><ellipse cx="2356" cy="131" fill="#ADD1B2" rx="11" ry="11" style="stroke:#181818;stroke-width:1;"/><path d="M2358.9688,136.6406 Q2358.3906,136.9375 2357.75,137.0781 Q2357.1094,137.2344 2356.4063,137.2344 Q2353.9063,137.2344 2352.5781,135.5938 Q2351.2656,133.9375 2351.2656,130.8125 Q2351.2656,127.6875 2352.5781,126.0313 Q2353.9063,124.375 2356.4063,124.375 Q2357.1094,124.375 2357.75,124.5313 Q2358.4063,124.6875 2358.9688,124.9844 L2358.9688,127.7031 Q2358.3438,127.125 2357.75,126.8594 Q2357.1563,126.5781 2356.5313,126.5781 Q2355.1875,126.5781 2354.5,127.6563 Q2353.8125,128.7188 2353.8125,130.8125 Q2353.8125,132.9063 2354.5,133.9844 Q2355.1875,135.0469 2356.5313,135.0469 Q2357.1563,135.0469 2357.75,134.7813 Q2358.3438,134.5 2358.9688,133.9219 L2358.9688,136.6406 Z " fill="#000000"/><text fill="#000000" font-family="sans-serif" font-size="14" lengthAdjust="spacing" textLength="67.0332" x="2370" y="135.8467">Actuation</text><line style="stroke:#181818;stroke-width:0.5;" x1="2342" x2="2439.0332" y1="147" y2="147"/><line style="stroke:#181818;stroke-width:0.5;" x1="2342" x2="2439.0332" y1="155" y2="155"/></g><!--class Observation--><g class="entity" data-qualified-name="Observation" data-source-line="16" id="ent0037"><rect fill="#F1F1F1" height="48" rx="2.5" ry="2.5" style="stroke:#181818;stroke-width:0.5;" width="117.251" x="2475" y="115"/><ellipse cx="2490" cy="131" fill="#ADD1B2" rx="11" ry="11" style="stroke:#181818;stroke-width:1;"/><path d="M2492.9688,136.6406 Q2492.3906,136.9375 2491.75,137.0781 Q2491.1094,137.2344 2490.4063,137.2344 Q2487.9063,137.2344 2486.5781,135.5938 Q2485.2656,133.9375 2485.2656,130.8125 Q2485.2656,127.6875 2486.5781,126.0313 Q2487.9063,124.375 2490.4063,124.375 Q2491.1094,124.375 2491.75,124.5313 Q2492.4063,124.6875 2492.9688,124.9844 L2492.9688,127.7031 Q2492.3438,127.125 2491.75,126.8594 Q2491.1563,126.5781 2490.5313,126.5781 Q2489.1875,126.5781 2488.5,127.6563 Q2487.8125,128.7188 2487.8125,130.8125 Q2487.8125,132.9063 2488.5,133.9844 Q2489.1875,135.0469 2490.5313,135.0469 Q2491.1563,135.0469 2491.75,134.7813 Q2492.3438,134.5 2492.9688,133.9219 L2492.9688,136.6406 Z " fill="#000000"/><text fill="#000000" font-family="sans-serif" font-size="14" lengthAdjust="spacing" textLength="85.251" x="2504" y="135.8467">Observation</text><line style="stroke:#181818;stroke-width:0.5;" x1="2476" x2="2591.251" y1="147" y2="147"/><line style="stroke:#181818;stroke-width:0.5;" x1="2476" x2="2591.251" y1="155" y2="155"/></g><!--class ExecutionCollection--><g class="entity" data-qualified-name="ExecutionCollection" data-source-line="17" id="ent0039"><rect fill="#F1F1F1" height="48" rx="2.5" ry="2.5" style="stroke:#181818;stroke-width:0.5;" width="170.3799" x="2827.5" y="7"/><ellipse cx="2842.5" cy="23" fill="#ADD1B2" rx="11" ry="11" style="stroke:#181818;stroke-width:1;"/><path d="M2845.4688,28.6406 Q2844.8906,28.9375 2844.25,29.0781 Q2843.6094,29.2344 2842.9063,29.2344 Q2840.4063,29.2344 2839.0781,27.5938 Q2837.7656,25.9375 2837.7656,22.8125 Q2837.7656,19.6875 2839.0781,18.0313 Q2840.4063,16.375 2842.9063,16.375 Q2843.6094,16.375 2844.25,16.5313 Q2844.9063,16.6875 2845.4688,16.9844 L2845.4688,19.7031 Q2844.8438,19.125 2844.25,18.8594 Q2843.6563,18.5781 2843.0313,18.5781 Q2841.6875,18.5781 2841,19.6563 Q2840.3125,20.7188 2840.3125,22.8125 Q2840.3125,24.9063 2841,25.9844 Q2841.6875,27.0469 2843.0313,27.0469 Q2843.6563,27.0469 2844.25,26.7813 Q2844.8438,26.5 2845.4688,25.9219 L2845.4688,28.6406 Z " fill="#000000"/><text fill="#000000" font-family="sans-serif" font-size="14" lengthAdjust="spacing" textLength="138.3799" x="2856.5" y="27.8467">ExecutionCollection</text><line style="stroke:#181818;stroke-width:0.5;" x1="2828.5" x2="2996.8799" y1="39" y2="39"/><line style="stroke:#181818;stroke-width:0.5;" x1="2828.5" x2="2996.8799" y1="47" y2="47"/></g><!--class SamplingCollection--><g class="entity" data-qualified-name="SamplingCollection" data-source-line="17" id="ent0040"><rect fill="#F1F1F1" height="48" rx="2.5" ry="2.5" style="stroke:#181818;stroke-width:0.5;" width="166.7773" x="2627" y="115"/><ellipse cx="2642" cy="131" fill="#ADD1B2" rx="11" ry="11" style="stroke:#181818;stroke-width:1;"/><path d="M2644.9688,136.6406 Q2644.3906,136.9375 2643.75,137.0781 Q2643.1094,137.2344 2642.4063,137.2344 Q2639.9063,137.2344 2638.5781,135.5938 Q2637.2656,133.9375 2637.2656,130.8125 Q2637.2656,127.6875 2638.5781,126.0313 Q2639.9063,124.375 2642.4063,124.375 Q2643.1094,124.375 2643.75,124.5313 Q2644.4063,124.6875 2644.9688,124.9844 L2644.9688,127.7031 Q2644.3438,127.125 2643.75,126.8594 Q2643.1563,126.5781 2642.5313,126.5781 Q2641.1875,126.5781 2640.5,127.6563 Q2639.8125,128.7188 2639.8125,130.8125 Q2639.8125,132.9063 2640.5,133.9844 Q2641.1875,135.0469 2642.5313,135.0469 Q2643.1563,135.0469 2643.75,134.7813 Q2644.3438,134.5 2644.9688,133.9219 L2644.9688,136.6406 Z " fill="#000000"/><text fill="#000000" font-family="sans-serif" font-size="14" lengthAdjust="spacing" textLength="134.7773" x="2656" y="135.8467">SamplingCollection</text><line style="stroke:#181818;stroke-width:0.5;" x1="2628" x2="2792.7773" y1="147" y2="147"/><line style="stroke:#181818;stroke-width:0.5;" x1="2628" x2="2792.7773" y1="155" y2="155"/></g><!--class ActuationCollection--><g class="entity" data-qualified-name="ActuationCollection" data-source-line="18" id="ent0042"><rect fill="#F1F1F1" height="48" rx="2.5" ry="2.5" style="stroke:#181818;stroke-width:0.5;" width="168.2813" x="2828.5" y="115"/><ellipse cx="2843.5" cy="131" fill="#ADD1B2" rx="11" ry="11" style="stroke:#181818;stroke-width:1;"/><path d="M2846.4688,136.6406 Q2845.8906,136.9375 2845.25,137.0781 Q2844.6094,137.2344 2843.9063,137.2344 Q2841.4063,137.2344 2840.0781,135.5938 Q2838.7656,133.9375 2838.7656,130.8125 Q2838.7656,127.6875 2840.0781,126.0313 Q2841.4063,124.375 2843.9063,124.375 Q2844.6094,124.375 2845.25,124.5313 Q2845.9063,124.6875 2846.4688,124.9844 L2846.4688,127.7031 Q2845.8438,127.125 2845.25,126.8594 Q2844.6563,126.5781 2844.0313,126.5781 Q2842.6875,126.5781 2842,127.6563 Q2841.3125,128.7188 2841.3125,130.8125 Q2841.3125,132.9063 2842,133.9844 Q2842.6875,135.0469 2844.0313,135.0469 Q2844.6563,135.0469 2845.25,134.7813 Q2845.8438,134.5 2846.4688,133.9219 L2846.4688,136.6406 Z " fill="#000000"/><text fill="#000000" font-family="sans-serif" font-size="14" lengthAdjust="spacing" textLength="136.2813" x="2857.5" y="135.8467">ActuationCollection</text><line style="stroke:#181818;stroke-width:0.5;" x1="2829.5" x2="2995.7813" y1="147" y2="147"/><line style="stroke:#181818;stroke-width:0.5;" x1="2829.5" x2="2995.7813" y1="155" y2="155"/></g><!--class ObservationCollection--><g class="entity" data-qualified-name="ObservationCollection" data-source-line="19" id="ent0044"><rect fill="#F1F1F1" height="48" rx="2.5" ry="2.5" style="stroke:#181818;stroke-width:0.5;" width="186.499" x="3031.5" y="115"/><ellipse cx="3046.5" cy="131" fill="#ADD1B2" rx="11" ry="11" style="stroke:#181818;stroke-width:1;"/><path d="M3049.4688,136.6406 Q3048.8906,136.9375 3048.25,137.0781 Q3047.6094,137.2344 3046.9063,137.2344 Q3044.4063,137.2344 3043.0781,135.5938 Q3041.7656,133.9375 3041.7656,130.8125 Q3041.7656,127.6875 3043.0781,126.0313 Q3044.4063,124.375 3046.9063,124.375 Q3047.6094,124.375 3048.25,124.5313 Q3048.9063,124.6875 3049.4688,124.9844 L3049.4688,127.7031 Q3048.8438,127.125 3048.25,126.8594 Q3047.6563,126.5781 3047.0313,126.5781 Q3045.6875,126.5781 3045,127.6563 Q3044.3125,128.7188 3044.3125,130.8125 Q3044.3125,132.9063 3045,133.9844 Q3045.6875,135.0469 3047.0313,135.0469 Q3047.6563,135.0469 3048.25,134.7813 Q3048.8438,134.5 3049.4688,133.9219 L3049.4688,136.6406 Z " fill="#000000"/><text fill="#000000" font-family="sans-serif" font-size="14" lengthAdjust="spacing" textLength="154.499" x="3060.5" y="135.8467">ObservationCollection</text><line style="stroke:#181818;stroke-width:0.5;" x1="3032.5" x2="3216.999" y1="147" y2="147"/><line style="stroke:#181818;stroke-width:0.5;" x1="3032.5" x2="3216.999" y1="155" y2="155"/></g><!--class Result--><g class="entity" data-qualified-name="Result" data-source-line="20" id="ent0046"><rect fill="#F1F1F1" height="48" rx="2.5" ry="2.5" style="stroke:#181818;stroke-width:0.5;" width="75.8867" x="9.5" y="7"/><ellipse cx="24.5" cy="23" fill="#ADD1B2" rx="11" ry="11" style="stroke:#181818;stroke-width:1;"/><path d="M27.4688,28.6406 Q26.8906,28.9375 26.25,29.0781 Q25.6094,29.2344 24.9063,29.2344 Q22.4063,29.2344 21.0781,27.5938 Q19.7656,25.9375 19.7656,22.8125 Q19.7656,19.6875 21.0781,18.0313 Q22.4063,16.375 24.9063,16.375 Q25.6094,16.375 26.25,16.5313 Q26.9063,16.6875 27.4688,16.9844 L27.4688,19.7031 Q26.8438,19.125 26.25,18.8594 Q25.6563,18.5781 25.0313,18.5781 Q23.6875,18.5781 23,19.6563 Q22.3125,20.7188 22.3125,22.8125 Q22.3125,24.9063 23,25.9844 Q23.6875,27.0469 25.0313,27.0469 Q25.6563,27.0469 26.25,26.7813 Q26.8438,26.5 27.4688,25.9219 L27.4688,28.6406 Z " fill="#000000"/><text fill="#000000" font-family="sans-serif" font-size="14" lengthAdjust="spacing" textLength="43.8867" x="38.5" y="27.8467">Result</text><line style="stroke:#181818;stroke-width:0.5;" x1="10.5" x2="84.3867" y1="39" y2="39"/><line style="stroke:#181818;stroke-width:0.5;" x1="10.5" x2="84.3867" y1="47" y2="47"/></g><!--class SampleCollection--><g class="entity" data-qualified-name="SampleCollection" data-source-line="21" id="ent0047"><rect fill="#F1F1F1" height="48" rx="2.5" ry="2.5" style="stroke:#181818;stroke-width:0.5;" width="153.7412" x="120.5" y="7"/><ellipse cx="135.5" cy="23" fill="#ADD1B2" rx="11" ry="11" style="stroke:#181818;stroke-width:1;"/><path d="M138.4688,28.6406 Q137.8906,28.9375 137.25,29.0781 Q136.6094,29.2344 135.9063,29.2344 Q133.4063,29.2344 132.0781,27.5938 Q130.7656,25.9375 130.7656,22.8125 Q130.7656,19.6875 132.0781,18.0313 Q133.4063,16.375 135.9063,16.375 Q136.6094,16.375 137.25,16.5313 Q137.9063,16.6875 138.4688,16.9844 L138.4688,19.7031 Q137.8438,19.125 137.25,18.8594 Q136.6563,18.5781 136.0313,18.5781 Q134.6875,18.5781 134,19.6563 Q133.3125,20.7188 133.3125,22.8125 Q133.3125,24.9063 134,25.9844 Q134.6875,27.0469 136.0313,27.0469 Q136.6563,27.0469 137.25,26.7813 Q137.8438,26.5 138.4688,25.9219 L138.4688,28.6406 Z " fill="#000000"/><text fill="#000000" font-family="sans-serif" font-size="14" lengthAdjust="spacing" textLength="121.7412" x="149.5" y="27.8467">SampleCollection</text><line style="stroke:#181818;stroke-width:0.5;" x1="121.5" x2="273.2412" y1="39" y2="39"/><line style="stroke:#181818;stroke-width:0.5;" x1="121.5" x2="273.2412" y1="47" y2="47"/></g><!--class FeatureOfInterest--><g class="entity" data-qualified-name="FeatureOfInterest" data-source-line="22" id="ent0048"><rect fill="#F1F1F1" height="48" rx="2.5" ry="2.5" style="stroke:#181818;stroke-width:0.5;" width="156.1816" x="309.5" y="7"/><ellipse cx="324.5" cy="23" fill="#ADD1B2" rx="11" ry="11" style="stroke:#181818;stroke-width:1;"/><path d="M327.4688,28.6406 Q326.8906,28.9375 326.25,29.0781 Q325.6094,29.2344 324.9063,29.2344 Q322.4063,29.2344 321.0781,27.5938 Q319.7656,25.9375 319.7656,22.8125 Q319.7656,19.6875 321.0781,18.0313 Q322.4063,16.375 324.9063,16.375 Q325.6094,16.375 326.25,16.5313 Q326.9063,16.6875 327.4688,16.9844 L327.4688,19.7031 Q326.8438,19.125 326.25,18.8594 Q325.6563,18.5781 325.0313,18.5781 Q323.6875,18.5781 323,19.6563 Q322.3125,20.7188 322.3125,22.8125 Q322.3125,24.9063 323,25.9844 Q323.6875,27.0469 325.0313,27.0469 Q325.6563,27.0469 326.25,26.7813 Q326.8438,26.5 327.4688,25.9219 L327.4688,28.6406 Z " fill="#000000"/><text fill="#000000" font-family="sans-serif" font-size="14" lengthAdjust="spacing" textLength="124.1816" x="338.5" y="27.8467">FeatureOfInterest</text><line style="stroke:#181818;stroke-width:0.5;" x1="310.5" x2="464.6816" y1="39" y2="39"/><line style="stroke:#181818;stroke-width:0.5;" x1="310.5" x2="464.6816" y1="47" y2="47"/></g><!--class Input--><g class="entity" data-qualified-name="Input" data-source-line="23" id="ent0049"><rect fill="#F1F1F1" height="48" rx="2.5" ry="2.5" style="stroke:#181818;stroke-width:0.5;" width="68.251" x="13.5" y="115"/><ellipse cx="28.5" cy="131" fill="#ADD1B2" rx="11" ry="11" style="stroke:#181818;stroke-width:1;"/><path d="M31.4688,136.6406 Q30.8906,136.9375 30.25,137.0781 Q29.6094,137.2344 28.9063,137.2344 Q26.4063,137.2344 25.0781,135.5938 Q23.7656,133.9375 23.7656,130.8125 Q23.7656,127.6875 25.0781,126.0313 Q26.4063,124.375 28.9063,124.375 Q29.6094,124.375 30.25,124.5313 Q30.9063,124.6875 31.4688,124.9844 L31.4688,127.7031 Q30.8438,127.125 30.25,126.8594 Q29.6563,126.5781 29.0313,126.5781 Q27.6875,126.5781 27,127.6563 Q26.3125,128.7188 26.3125,130.8125 Q26.3125,132.9063 27,133.9844 Q27.6875,135.0469 29.0313,135.0469 Q29.6563,135.0469 30.25,134.7813 Q30.8438,134.5 31.4688,133.9219 L31.4688,136.6406 Z " fill="#000000"/><text fill="#000000" font-family="sans-serif" font-size="14" lengthAdjust="spacing" textLength="36.251" x="42.5" y="135.8467">Input</text><line style="stroke:#181818;stroke-width:0.5;" x1="14.5" x2="80.751" y1="147" y2="147"/><line style="stroke:#181818;stroke-width:0.5;" x1="14.5" x2="80.751" y1="155" y2="155"/></g><!--class Deployment--><g class="entity" data-qualified-name="Deployment" data-source-line="24" id="ent0050"><rect fill="#F1F1F1" height="48" rx="2.5" ry="2.5" style="stroke:#181818;stroke-width:0.5;" width="117.6338" x="116.5" y="115"/><ellipse cx="131.5" cy="131" fill="#ADD1B2" rx="11" ry="11" style="stroke:#181818;stroke-width:1;"/><path d="M134.4688,136.6406 Q133.8906,136.9375 133.25,137.0781 Q132.6094,137.2344 131.9063,137.2344 Q129.4063,137.2344 128.0781,135.5938 Q126.7656,133.9375 126.7656,130.8125 Q126.7656,127.6875 128.0781,126.0313 Q129.4063,124.375 131.9063,124.375 Q132.6094,124.375 133.25,124.5313 Q133.9063,124.6875 134.4688,124.9844 L134.4688,127.7031 Q133.8438,127.125 133.25,126.8594 Q132.6563,126.5781 132.0313,126.5781 Q130.6875,126.5781 130,127.6563 Q129.3125,128.7188 129.3125,130.8125 Q129.3125,132.9063 130,133.9844 Q130.6875,135.0469 132.0313,135.0469 Q132.6563,135.0469 133.25,134.7813 Q133.8438,134.5 134.4688,133.9219 L134.4688,136.6406 Z " fill="#000000"/><text fill="#000000" font-family="sans-serif" font-size="14" lengthAdjust="spacing" textLength="85.6338" x="145.5" y="135.8467">Deployment</text><line style="stroke:#181818;stroke-width:0.5;" x1="117.5" x2="233.1338" y1="147" y2="147"/><line style="stroke:#181818;stroke-width:0.5;" x1="117.5" x2="233.1338" y1="155" y2="155"/></g><!--class Stimulus--><g class="entity" data-qualified-name="Stimulus" data-source-line="25" id="ent0051"><rect fill="#F1F1F1" height="48" rx="2.5" ry="2.5" style="stroke:#181818;stroke-width:0.5;" width="92.833" x="270" y="115"/><ellipse cx="285" cy="131" fill="#ADD1B2" rx="11" ry="11" style="stroke:#181818;stroke-width:1;"/><path d="M287.9688,136.6406 Q287.3906,136.9375 286.75,137.0781 Q286.1094,137.2344 285.4063,137.2344 Q282.9063,137.2344 281.5781,135.5938 Q280.2656,133.9375 280.2656,130.8125 Q280.2656,127.6875 281.5781,126.0313 Q282.9063,124.375 285.4063,124.375 Q286.1094,124.375 286.75,124.5313 Q287.4063,124.6875 287.9688,124.9844 L287.9688,127.7031 Q287.3438,127.125 286.75,126.8594 Q286.1563,126.5781 285.5313,126.5781 Q284.1875,126.5781 283.5,127.6563 Q282.8125,128.7188 282.8125,130.8125 Q282.8125,132.9063 283.5,133.9844 Q284.1875,135.0469 285.5313,135.0469 Q286.1563,135.0469 286.75,134.7813 Q287.3438,134.5 287.9688,133.9219 L287.9688,136.6406 Z " fill="#000000"/><text fill="#000000" font-family="sans-serif" font-size="14" lengthAdjust="spacing" textLength="60.833" x="299" y="135.8467">Stimulus</text><line style="stroke:#181818;stroke-width:0.5;" x1="271" x2="361.833" y1="147" y2="147"/><line style="stroke:#181818;stroke-width:0.5;" x1="271" x2="361.833" y1="155" y2="155"/></g><!--class Output--><g class="entity" data-qualified-name="Output" data-source-line="26" id="ent0052"><rect fill="#F1F1F1" height="48" rx="2.5" ry="2.5" style="stroke:#181818;stroke-width:0.5;" width="80.6309" x="7" y="223"/><ellipse cx="22" cy="239" fill="#ADD1B2" rx="11" ry="11" style="stroke:#181818;stroke-width:1;"/><path d="M24.9688,244.6406 Q24.3906,244.9375 23.75,245.0781 Q23.1094,245.2344 22.4063,245.2344 Q19.9063,245.2344 18.5781,243.5938 Q17.2656,241.9375 17.2656,238.8125 Q17.2656,235.6875 18.5781,234.0313 Q19.9063,232.375 22.4063,232.375 Q23.1094,232.375 23.75,232.5313 Q24.4063,232.6875 24.9688,232.9844 L24.9688,235.7031 Q24.3438,235.125 23.75,234.8594 Q23.1563,234.5781 22.5313,234.5781 Q21.1875,234.5781 20.5,235.6563 Q19.8125,236.7188 19.8125,238.8125 Q19.8125,240.9063 20.5,241.9844 Q21.1875,243.0469 22.5313,243.0469 Q23.1563,243.0469 23.75,242.7813 Q24.3438,242.5 24.9688,241.9219 L24.9688,244.6406 Z " fill="#000000"/><text fill="#000000" font-family="sans-serif" font-size="14" lengthAdjust="spacing" textLength="48.6309" x="36" y="243.8467">Output</text><line style="stroke:#181818;stroke-width:0.5;" x1="8" x2="86.6309" y1="255" y2="255"/><line style="stroke:#181818;stroke-width:0.5;" x1="8" x2="86.6309" y1="263" y2="263"/></g><!--reverse link Property to ActuatableProperty--><g class="link" data-entity-1="ent0002" data-entity-2="ent0003" data-link-type="extension" data-source-line="1" id="lnk4"><path codeLine="1" d="M573.053,66.1166 C550.563,83.7766 533.79,96.94 511.2,114.68" fill="none" id="Property-backto-ActuatableProperty" style="stroke:#181818;stroke-width:1;"/><polygon fill="none" points="587.21,55,569.3475,61.3976,576.7585,70.8356,587.21,55" style="stroke:#181818;stroke-width:1;"/></g><!--reverse link Property to ObservableProperty--><g class="link" data-entity-1="ent0002" data-entity-2="ent0005" data-link-type="extension" data-source-line="2" id="lnk6"><path codeLine="2" d="M641.6078,70.0212 C653.2678,87.6812 659.39,96.94 671.1,114.68" fill="none" id="Property-backto-ObservableProperty" style="stroke:#181818;stroke-width:1;"/><polygon fill="none" points="631.69,55,636.6007,73.3272,646.6148,66.7153,631.69,55" style="stroke:#181818;stroke-width:1;"/></g><!--reverse link Sample to MaterialSample--><g class="link" data-entity-1="ent0007" data-entity-2="ent0008" data-link-type="extension" data-source-line="3" id="lnk9"><path codeLine="3" d="M997.8567,64.4445 C969.1067,82.1645 944.85,97.11 916.05,114.86" fill="none" id="Sample-backto-MaterialSample" style="stroke:#181818;stroke-width:1;"/><polygon fill="none" points="1013.18,55,994.7086,59.3367,1001.0049,69.5522,1013.18,55" style="stroke:#181818;stroke-width:1;"/></g><!--reverse link Sample to SpatialSample--><g class="link" data-entity-1="ent0007" data-entity-2="ent0010" data-link-type="extension" data-source-line="4" id="lnk11"><path codeLine="4" d="M1050.5,73 C1050.5,90.66 1050.5,96.94 1050.5,114.68" fill="none" id="Sample-backto-SpatialSample" style="stroke:#181818;stroke-width:1;"/><polygon fill="none" points="1050.5,55,1044.5,73,1056.5,73,1050.5,55" style="stroke:#181818;stroke-width:1;"/></g><!--reverse link Sample to StatisticalSample--><g class="link" data-entity-1="ent0007" data-entity-2="ent0012" data-link-type="extension" data-source-line="5" id="lnk13"><path codeLine="5" d="M1104.8276,64.1725 C1134.7476,81.8925 1160.45,97.11 1190.43,114.86" fill="none" id="Sample-backto-StatisticalSample" style="stroke:#181818;stroke-width:1;"/><polygon fill="none" points="1089.34,55,1101.7701,69.335,1107.8851,59.0099,1089.34,55" style="stroke:#181818;stroke-width:1;"/></g><!--reverse link Procedure to ActuatingProcedure--><g class="link" data-entity-1="ent0014" data-entity-2="ent0015" data-link-type="extension" data-source-line="6" id="lnk16"><path codeLine="6" d="M1574.3326,63.1732 C1539.5626,80.8932 1507.74,97.11 1472.9,114.86" fill="none" id="Procedure-backto-ActuatingProcedure" style="stroke:#181818;stroke-width:1;"/><polygon fill="none" points="1590.37,55,1571.6082,57.8274,1577.057,68.519,1590.37,55" style="stroke:#181818;stroke-width:1;"/></g><!--reverse link Procedure to ObservingProcedure--><g class="link" data-entity-1="ent0014" data-entity-2="ent0017" data-link-type="extension" data-source-line="7" id="lnk18"><path codeLine="7" d="M1635.5,73 C1635.5,90.66 1635.5,96.94 1635.5,114.68" fill="none" id="Procedure-backto-ObservingProcedure" style="stroke:#181818;stroke-width:1;"/><polygon fill="none" points="1635.5,55,1629.5,73,1641.5,73,1635.5,55" style="stroke:#181818;stroke-width:1;"/></g><!--reverse link Procedure to SamplingProcedure--><g class="link" data-entity-1="ent0014" data-entity-2="ent0019" data-link-type="extension" data-source-line="8" id="lnk20"><path codeLine="8" d="M1696.4411,63.205 C1731.0411,80.925 1762.65,97.11 1797.31,114.86" fill="none" id="Procedure-backto-SamplingProcedure" style="stroke:#181818;stroke-width:1;"/><polygon fill="none" points="1680.42,55,1693.7061,68.5454,1699.1762,57.8647,1680.42,55" style="stroke:#181818;stroke-width:1;"/></g><!--reverse link Asset to Platform--><g class="link" data-entity-1="ent0021" data-entity-2="ent0022" data-link-type="extension" data-source-line="9" id="lnk23"><path codeLine="9" d="M2046.2839,70.6022 C2036.1239,88.2622 2031.13,96.94 2020.92,114.68" fill="none" id="Asset-backto-Platform" style="stroke:#181818;stroke-width:1;"/><polygon fill="none" points="2055.26,55,2041.0831,67.6102,2051.4846,73.5943,2055.26,55" style="stroke:#181818;stroke-width:1;"/></g><!--reverse link Asset to System--><g class="link" data-entity-1="ent0021" data-entity-2="ent0024" data-link-type="extension" data-source-line="10" id="lnk25"><path codeLine="10" d="M2091.0383,70.5372 C2101.3683,88.1972 2106.48,96.94 2116.86,114.68" fill="none" id="Asset-backto-System" style="stroke:#181818;stroke-width:1;"/><polygon fill="none" points="2081.95,55,2085.8592,73.5666,2096.2173,67.5077,2081.95,55" style="stroke:#181818;stroke-width:1;"/></g><!--reverse link System to Sampler--><g class="link" data-entity-1="ent0024" data-entity-2="ent0026" data-link-type="extension" data-source-line="11" id="lnk27"><path codeLine="11" d="M2089.3865,174.5884 C2068.3965,192.2484 2053.31,204.94 2032.22,222.68" fill="none" id="System-backto-Sampler" style="stroke:#181818;stroke-width:1;"/><polygon fill="none" points="2103.16,163,2085.5237,169.9972,2093.2493,179.1795,2103.16,163" style="stroke:#181818;stroke-width:1;"/></g><!--reverse link System to Actuator--><g class="link" data-entity-1="ent0024" data-entity-2="ent0028" data-link-type="extension" data-source-line="12" id="lnk29"><path codeLine="12" d="M2130.5,181 C2130.5,198.66 2130.5,204.94 2130.5,222.68" fill="none" id="System-backto-Actuator" style="stroke:#181818;stroke-width:1;"/><polygon fill="none" points="2130.5,163,2124.5,181,2136.5,181,2130.5,163" style="stroke:#181818;stroke-width:1;"/></g><!--reverse link System to Sensor--><g class="link" data-entity-1="ent0024" data-entity-2="ent0030" data-link-type="extension" data-source-line="13" id="lnk31"><path codeLine="13" d="M2170.2968,174.864 C2190.4468,192.524 2204.63,204.94 2224.88,222.68" fill="none" id="System-backto-Sensor" style="stroke:#181818;stroke-width:1;"/><polygon fill="none" points="2156.76,163,2166.3421,179.3763,2174.2515,170.3518,2156.76,163" style="stroke:#181818;stroke-width:1;"/></g><!--reverse link Execution to Sampling--><g class="link" data-entity-1="ent0032" data-entity-2="ent0033" data-link-type="extension" data-source-line="14" id="lnk34"><path codeLine="14" d="M2347.3041,66.1688 C2324.9841,83.8288 2308.41,96.94 2285.98,114.68" fill="none" id="Execution-backto-Sampling" style="stroke:#181818;stroke-width:1;"/><polygon fill="none" points="2361.42,55,2343.5812,61.4635,2351.027,70.8741,2361.42,55" style="stroke:#181818;stroke-width:1;"/></g><!--reverse link Execution to Actuation--><g class="link" data-entity-1="ent0032" data-entity-2="ent0035" data-link-type="extension" data-source-line="15" id="lnk36"><path codeLine="15" d="M2390.5,73 C2390.5,90.66 2390.5,96.94 2390.5,114.68" fill="none" id="Execution-backto-Actuation" style="stroke:#181818;stroke-width:1;"/><polygon fill="none" points="2390.5,55,2384.5,73,2396.5,73,2390.5,55" style="stroke:#181818;stroke-width:1;"/></g><!--reverse link Execution to Observation--><g class="link" data-entity-1="ent0032" data-entity-2="ent0037" data-link-type="extension" data-source-line="16" id="lnk38"><path codeLine="16" d="M2435.9895,65.7202 C2459.8095,83.3802 2478.11,96.94 2502.04,114.68" fill="none" id="Execution-backto-Observation" style="stroke:#181818;stroke-width:1;"/><polygon fill="none" points="2421.53,55,2432.4161,70.54,2439.5629,60.9004,2421.53,55" style="stroke:#181818;stroke-width:1;"/></g><!--reverse link ExecutionCollection to SamplingCollection--><g class="link" data-entity-1="ent0039" data-entity-2="ent0040" data-link-type="extension" data-source-line="17" id="lnk41"><path codeLine="17" d="M2852.731,63.3636 C2818.961,81.0836 2788.43,97.11 2754.59,114.86" fill="none" id="ExecutionCollection-backto-SamplingCollection" style="stroke:#181818;stroke-width:1;"/><polygon fill="none" points="2868.67,55,2849.9432,58.0506,2855.5189,68.6766,2868.67,55" style="stroke:#181818;stroke-width:1;"/></g><!--reverse link ExecutionCollection to ActuationCollection--><g class="link" data-entity-1="ent0039" data-entity-2="ent0042" data-link-type="extension" data-source-line="18" id="lnk43"><path codeLine="18" d="M2912.5,73 C2912.5,90.66 2912.5,96.94 2912.5,114.68" fill="none" id="ExecutionCollection-backto-ActuationCollection" style="stroke:#181818;stroke-width:1;"/><polygon fill="none" points="2912.5,55,2906.5,73,2918.5,73,2912.5,55" style="stroke:#181818;stroke-width:1;"/></g><!--reverse link ExecutionCollection to ObservationCollection--><g class="link" data-entity-1="ent0039" data-entity-2="ent0044" data-link-type="extension" data-source-line="19" id="lnk45"><path codeLine="19" d="M2974.5997,63.0498 C3010.0397,80.7698 3042.72,97.11 3078.22,114.86" fill="none" id="ExecutionCollection-backto-ObservationCollection" style="stroke:#181818;stroke-width:1;"/><polygon fill="none" points="2958.5,55,2971.9164,68.4164,2977.283,57.6833,2958.5,55" style="stroke:#181818;stroke-width:1;"/></g><?plantuml-src ZP9RQiCm44N_imfl83leJ-W3yb5iwXKewaqHZ1veHg66BhwYKbp98QLVjiuzN8q7Jz47H5c6Xw_zVZXeIKhKYJ1LlfiwOJmnugKJPcK3eSIlIX2DeiAwQ0vAxYII4nQZrpHtQxodY7OgupvMlZNAM7yPFysTS626b70Y9MSVRSlcXGLsLnvD1sB7oco-XpCSP_Jy2Pt4UDUFiENryxpR1dNPVVJeYQ1lMt_vVNUzwJzoStkZQrBCmniuaTH3MSkDym8bUS_Z-UZoJm6-waSNqlNz2O7yOk7MBZ4sKU9w79Da-Hi0?></g></svg>