<svg xmlns="http://www.w3.org/2000/svg" xmlns:xlink="http://www.w3.org/1999/xlink" contentStyleType="text/css" data-diagram-type="CLASS" height="286px" preserveAspectRatio="none" style="width:3276px;height:286px;background:#FFFFFF;" version="1.1" viewBox="0 0 3276 286" width="3276px" zoomAndPan="magnify"><?plantuml 1.2026.3?><defs/><g><!--class Property--><g class="entity" data-qualified-name="Property" data-source-line="1" id="ent0002"><rect fill="#F1F1F1" height="48" rx="2.5" ry="2.5" style="stroke:#181818;stroke-width:0.5;" width="91.7939" x="581" y="7"/><ellipse cx="596" cy="23" fill="#ADD1B2" rx="11" ry="11" style="stroke:#181818;stroke-width:1;"/><path d="M598.9688,28.6406 Q598.3906,28.9375 597.75,29.0781 Q597.1094,29.2344 596.4063,29.2344 Q593.9063,29.2344 592.5781,27.5938 Q591.2656,25.9375 591.2656,22.8125 Q591.2656,19.6875 592.5781,18.0313 Q593.9063,16.375 596.4063,16.375 Q597.1094,16.375 597.75,16.5313 Q598.4063,16.6875 598.9688,16.9844 L598.9688,19.7031 Q598.3438,19.125 597.75,18.8594 Q597.1563,18.5781 596.5313,18.5781 Q595.1875,18.5781 594.5,19.6563 Q593.8125,20.7188 593.8125,22.8125 Q593.8125,24.9063 594.5,25.9844 Q595.1875,27.0469 596.5313,27.0469 Q597.1563,27.0469 597.75,26.7813 Q598.3438,26.5 598.9688,25.9219 L598.9688,28.6406 Z " fill="#000000"/><text fill="#000000" font-family="sans-serif" font-size="14" lengthAdjust="spacing" textLength="59.7939" x="610" y="27.8467">Property</text><line style="stroke:#181818;stroke-width:0.5;" x1="582" x2="671.7939" y1="39" y2="39"/><line style="stroke:#181818;stroke-width:0.5;" x1="582" x2="671.7939" y1="47" y2="47"/></g><!--class ActuatableProperty--><g class="entity" data-qualified-name="ActuatableProperty" data-source-line="1" id="ent0003"><rect fill="#F1F1F1" height="48" rx="2.5" ry="2.5" style="stroke:#181818;stroke-width:0.5;" width="167.4678" x="441.5" y="115"/><ellipse cx="456.5" cy="131" fill="#ADD1B2" rx="11" ry="11" style="stroke:#181818;stroke-width:1;"/><path d="M459.4688,136.6406 Q458.8906,136.9375 458.25,137.0781 Q457.6094,137.2344 456.9063,137.2344 Q454.4063,137.2344 453.0781,135.5938 Q451.7656,133.9375 451.7656,130.8125 Q451.7656,127.6875 453.0781,126.0313 Q454.4063,124.375 456.9063,124.375 Q457.6094,124.375 458.25,124.5313 Q458.9063,124.6875 459.4688,124.9844 L459.4688,127.7031 Q458.8438,127.125 458.25,126.8594 Q457.6563,126.5781 457.0313,126.5781 Q455.6875,126.5781 455,127.6563 Q454.3125,128.7188 454.3125,130.8125 Q454.3125,132.9063 455,133.9844 Q455.6875,135.0469 457.0313,135.0469 Q457.6563,135.0469 458.25,134.7813 Q458.8438,134.5 459.4688,133.9219 L459.4688,136.6406 Z " fill="#000000"/><text fill="#000000" font-family="sans-serif" font-size="14" lengthAdjust="spacing" textLength="135.4678" x="470.5" y="135.8467">ActuatableProperty</text><line style="stroke:#181818;stroke-width:0.5;" x1="442.5" x2="607.9678" y1="147" y2="147"/><line style="stroke:#181818;stroke-width:0.5;" x1="442.5" x2="607.9678" y1="155" y2="155"/></g><!--class Sample--><g class="entity" data-qualified-name="Sample" data-source-line="2" id="ent0005"><rect fill="#F1F1F1" height="48" rx="2.5" ry="2.5" style="stroke:#181818;stroke-width:0.5;" width="84.4932" x="1052" y="7"/><ellipse cx="1067" cy="23" fill="#ADD1B2" rx="11" ry="11" style="stroke:#181818;stroke-width:1;"/><path d="M1069.9688,28.6406 Q1069.3906,28.9375 1068.75,29.0781 Q1068.1094,29.2344 1067.4063,29.2344 Q1064.9063,29.2344 1063.5781,27.5938 Q1062.2656,25.9375 1062.2656,22.8125 Q1062.2656,19.6875 1063.5781,18.0313 Q1064.9063,16.375 1067.4063,16.375 Q1068.1094,16.375 1068.75,16.5313 Q1069.4063,16.6875 1069.9688,16.9844 L1069.9688,19.7031 Q1069.3438,19.125 1068.75,18.8594 Q1068.1563,18.5781 1067.5313,18.5781 Q1066.1875,18.5781 1065.5,19.6563 Q1064.8125,20.7188 1064.8125,22.8125 Q1064.8125,24.9063 1065.5,25.9844 Q1066.1875,27.0469 1067.5313,27.0469 Q1068.1563,27.0469 1068.75,26.7813 Q1069.3438,26.5 1069.9688,25.9219 L1069.9688,28.6406 Z " fill="#000000"/><text fill="#000000" font-family="sans-serif" font-size="14" lengthAdjust="spacing" textLength="52.4932" x="1081" y="27.8467">Sample</text><line style="stroke:#181818;stroke-width:0.5;" x1="1053" x2="1135.4932" y1="39" y2="39"/><line style="stroke:#181818;stroke-width:0.5;" x1="1053" x2="1135.4932" y1="47" y2="47"/></g><!--class MaterialSample--><g class="entity" data-qualified-name="MaterialSample" data-source-line="2" id="ent0006"><rect fill="#F1F1F1" height="48" rx="2.5" ry="2.5" style="stroke:#181818;stroke-width:0.5;" width="141.3682" x="851.5" y="115"/><ellipse cx="866.5" cy="131" fill="#ADD1B2" rx="11" ry="11" style="stroke:#181818;stroke-width:1;"/><path d="M869.4688,136.6406 Q868.8906,136.9375 868.25,137.0781 Q867.6094,137.2344 866.9063,137.2344 Q864.4063,137.2344 863.0781,135.5938 Q861.7656,133.9375 861.7656,130.8125 Q861.7656,127.6875 863.0781,126.0313 Q864.4063,124.375 866.9063,124.375 Q867.6094,124.375 868.25,124.5313 Q868.9063,124.6875 869.4688,124.9844 L869.4688,127.7031 Q868.8438,127.125 868.25,126.8594 Q867.6563,126.5781 867.0313,126.5781 Q865.6875,126.5781 865,127.6563 Q864.3125,128.7188 864.3125,130.8125 Q864.3125,132.9063 865,133.9844 Q865.6875,135.0469 867.0313,135.0469 Q867.6563,135.0469 868.25,134.7813 Q868.8438,134.5 869.4688,133.9219 L869.4688,136.6406 Z " fill="#000000"/><text fill="#000000" font-family="sans-serif" font-size="14" lengthAdjust="spacing" textLength="109.3682" x="880.5" y="135.8467">MaterialSample</text><line style="stroke:#181818;stroke-width:0.5;" x1="852.5" x2="991.8682" y1="147" y2="147"/><line style="stroke:#181818;stroke-width:0.5;" x1="852.5" x2="991.8682" y1="155" y2="155"/></g><!--class SpatialSample--><g class="entity" data-qualified-name="SpatialSample" data-source-line="3" id="ent0008"><rect fill="#F1F1F1" height="48" rx="2.5" ry="2.5" style="stroke:#181818;stroke-width:0.5;" width="132.6934" x="1027.5" y="115"/><ellipse cx="1042.5" cy="131" fill="#ADD1B2" rx="11" ry="11" style="stroke:#181818;stroke-width:1;"/><path d="M1045.4688,136.6406 Q1044.8906,136.9375 1044.25,137.0781 Q1043.6094,137.2344 1042.9063,137.2344 Q1040.4063,137.2344 1039.0781,135.5938 Q1037.7656,133.9375 1037.7656,130.8125 Q1037.7656,127.6875 1039.0781,126.0313 Q1040.4063,124.375 1042.9063,124.375 Q1043.6094,124.375 1044.25,124.5313 Q1044.9063,124.6875 1045.4688,124.9844 L1045.4688,127.7031 Q1044.8438,127.125 1044.25,126.8594 Q1043.6563,126.5781 1043.0313,126.5781 Q1041.6875,126.5781 1041,127.6563 Q1040.3125,128.7188 1040.3125,130.8125 Q1040.3125,132.9063 1041,133.9844 Q1041.6875,135.0469 1043.0313,135.0469 Q1043.6563,135.0469 1044.25,134.7813 Q1044.8438,134.5 1045.4688,133.9219 L1045.4688,136.6406 Z " fill="#000000"/><text fill="#000000" font-family="sans-serif" font-size="14" lengthAdjust="spacing" textLength="100.6934" x="1056.5" y="135.8467">SpatialSample</text><line style="stroke:#181818;stroke-width:0.5;" x1="1028.5" x2="1159.1934" y1="147" y2="147"/><line style="stroke:#181818;stroke-width:0.5;" x1="1028.5" x2="1159.1934" y1="155" y2="155"/></g><!--class StatisticalSample--><g class="entity" data-qualified-name="StatisticalSample" data-source-line="4" id="ent0010"><rect fill="#F1F1F1" height="48" rx="2.5" ry="2.5" style="stroke:#181818;stroke-width:0.5;" width="153.666" x="1196" y="115"/><ellipse cx="1211" cy="131" fill="#ADD1B2" rx="11" ry="11" style="stroke:#181818;stroke-width:1;"/><path d="M1213.9688,136.6406 Q1213.3906,136.9375 1212.75,137.0781 Q1212.1094,137.2344 1211.4063,137.2344 Q1208.9063,137.2344 1207.5781,135.5938 Q1206.2656,133.9375 1206.2656,130.8125 Q1206.2656,127.6875 1207.5781,126.0313 Q1208.9063,124.375 1211.4063,124.375 Q1212.1094,124.375 1212.75,124.5313 Q1213.4063,124.6875 1213.9688,124.9844 L1213.9688,127.7031 Q1213.3438,127.125 1212.75,126.8594 Q1212.1563,126.5781 1211.5313,126.5781 Q1210.1875,126.5781 1209.5,127.6563 Q1208.8125,128.7188 1208.8125,130.8125 Q1208.8125,132.9063 1209.5,133.9844 Q1210.1875,135.0469 1211.5313,135.0469 Q1212.1563,135.0469 1212.75,134.7813 Q1213.3438,134.5 1213.9688,133.9219 L1213.9688,136.6406 Z " fill="#000000"/><text fill="#000000" font-family="sans-serif" font-size="14" lengthAdjust="spacing" textLength="121.666" x="1225" y="135.8467">StatisticalSample</text><line style="stroke:#181818;stroke-width:0.5;" x1="1197" x2="1348.666" y1="147" y2="147"/><line style="stroke:#181818;stroke-width:0.5;" x1="1197" x2="1348.666" y1="155" y2="155"/></g><!--class ObservableProperty--><g class="entity" data-qualified-name="ObservableProperty" data-source-line="5" id="ent0012"><rect fill="#F1F1F1" height="48" rx="2.5" ry="2.5" style="stroke:#181818;stroke-width:0.5;" width="171.6172" x="644" y="115"/><ellipse cx="659" cy="131" fill="#ADD1B2" rx="11" ry="11" style="stroke:#181818;stroke-width:1;"/><path d="M661.9688,136.6406 Q661.3906,136.9375 660.75,137.0781 Q660.1094,137.2344 659.4063,137.2344 Q656.9063,137.2344 655.5781,135.5938 Q654.2656,133.9375 654.2656,130.8125 Q654.2656,127.6875 655.5781,126.0313 Q656.9063,124.375 659.4063,124.375 Q660.1094,124.375 660.75,124.5313 Q661.4063,124.6875 661.9688,124.9844 L661.9688,127.7031 Q661.3438,127.125 660.75,126.8594 Q660.1563,126.5781 659.5313,126.5781 Q658.1875,126.5781 657.5,127.6563 Q656.8125,128.7188 656.8125,130.8125 Q656.8125,132.9063 657.5,133.9844 Q658.1875,135.0469 659.5313,135.0469 Q660.1563,135.0469 660.75,134.7813 Q661.3438,134.5 661.9688,133.9219 L661.9688,136.6406 Z " fill="#000000"/><text fill="#000000" font-family="sans-serif" font-size="14" lengthAdjust="spacing" textLength="139.6172" x="673" y="135.8467">ObservableProperty</text><line style="stroke:#181818;stroke-width:0.5;" x1="645" x2="814.6172" y1="147" y2="147"/><line style="stroke:#181818;stroke-width:0.5;" x1="645" x2="814.6172" y1="155" y2="155"/></g><!--class Procedure--><g class="entity" data-qualified-name="Procedure" data-source-line="6" id="ent0014"><rect fill="#F1F1F1" height="48" rx="2.5" ry="2.5" style="stroke:#181818;stroke-width:0.5;" width="103.2031" x="1627.5" y="7"/><ellipse cx="1642.5" cy="23" fill="#ADD1B2" rx="11" ry="11" style="stroke:#181818;stroke-width:1;"/><path d="M1645.4688,28.6406 Q1644.8906,28.9375 1644.25,29.0781 Q1643.6094,29.2344 1642.9063,29.2344 Q1640.4063,29.2344 1639.0781,27.5938 Q1637.7656,25.9375 1637.7656,22.8125 Q1637.7656,19.6875 1639.0781,18.0313 Q1640.4063,16.375 1642.9063,16.375 Q1643.6094,16.375 1644.25,16.5313 Q1644.9063,16.6875 1645.4688,16.9844 L1645.4688,19.7031 Q1644.8438,19.125 1644.25,18.8594 Q1643.6563,18.5781 1643.0313,18.5781 Q1641.6875,18.5781 1641,19.6563 Q1640.3125,20.7188 1640.3125,22.8125 Q1640.3125,24.9063 1641,25.9844 Q1641.6875,27.0469 1643.0313,27.0469 Q1643.6563,27.0469 1644.25,26.7813 Q1644.8438,26.5 1645.4688,25.9219 L1645.4688,28.6406 Z " fill="#000000"/><text fill="#000000" font-family="sans-serif" font-size="14" lengthAdjust="spacing" textLength="71.2031" x="1656.5" y="27.8467">Procedure</text><line style="stroke:#181818;stroke-width:0.5;" x1="1628.5" x2="1729.7031" y1="39" y2="39"/><line style="stroke:#181818;stroke-width:0.5;" x1="1628.5" x2="1729.7031" y1="47" y2="47"/></g><!--class ActuatingProcedure--><g class="entity" data-qualified-name="ActuatingProcedure" data-source-line="6" id="ent0015"><rect fill="#F1F1F1" height="48" rx="2.5" ry="2.5" style="stroke:#181818;stroke-width:0.5;" width="170.5576" x="1385.5" y="115"/><ellipse cx="1400.5" cy="131" fill="#ADD1B2" rx="11" ry="11" style="stroke:#181818;stroke-width:1;"/><path d="M1403.4688,136.6406 Q1402.8906,136.9375 1402.25,137.0781 Q1401.6094,137.2344 1400.9063,137.2344 Q1398.4063,137.2344 1397.0781,135.5938 Q1395.7656,133.9375 1395.7656,130.8125 Q1395.7656,127.6875 1397.0781,126.0313 Q1398.4063,124.375 1400.9063,124.375 Q1401.6094,124.375 1402.25,124.5313 Q1402.9063,124.6875 1403.4688,124.9844 L1403.4688,127.7031 Q1402.8438,127.125 1402.25,126.8594 Q1401.6563,126.5781 1401.0313,126.5781 Q1399.6875,126.5781 1399,127.6563 Q1398.3125,128.7188 1398.3125,130.8125 Q1398.3125,132.9063 1399,133.9844 Q1399.6875,135.0469 1401.0313,135.0469 Q1401.6563,135.0469 1402.25,134.7813 Q1402.8438,134.5 1403.4688,133.9219 L1403.4688,136.6406 Z " fill="#000000"/><text fill="#000000" font-family="sans-serif" font-size="14" lengthAdjust="spacing" textLength="138.5576" x="1414.5" y="135.8467">ActuatingProcedure</text><line style="stroke:#181818;stroke-width:0.5;" x1="1386.5" x2="1555.0576" y1="147" y2="147"/><line style="stroke:#181818;stroke-width:0.5;" x1="1386.5" x2="1555.0576" y1="155" y2="155"/></g><!--class ObservingProcedure--><g class="entity" data-qualified-name="ObservingProcedure" data-source-line="7" id="ent0017"><rect fill="#F1F1F1" height="48" rx="2.5" ry="2.5" style="stroke:#181818;stroke-width:0.5;" width="174.707" x="1591.5" y="115"/><ellipse cx="1606.5" cy="131" fill="#ADD1B2" rx="11" ry="11" style="stroke:#181818;stroke-width:1;"/><path d="M1609.4688,136.6406 Q1608.8906,136.9375 1608.25,137.0781 Q1607.6094,137.2344 1606.9063,137.2344 Q1604.4063,137.2344 1603.0781,135.5938 Q1601.7656,133.9375 1601.7656,130.8125 Q1601.7656,127.6875 1603.0781,126.0313 Q1604.4063,124.375 1606.9063,124.375 Q1607.6094,124.375 1608.25,124.5313 Q1608.9063,124.6875 1609.4688,124.9844 L1609.4688,127.7031 Q1608.8438,127.125 1608.25,126.8594 Q1607.6563,126.5781 1607.0313,126.5781 Q1605.6875,126.5781 1605,127.6563 Q1604.3125,128.7188 1604.3125,130.8125 Q1604.3125,132.9063 1605,133.9844 Q1605.6875,135.0469 1607.0313,135.0469 Q1607.6563,135.0469 1608.25,134.7813 Q1608.8438,134.5 1609.4688,133.9219 L1609.4688,136.6406 Z " fill="#000000"/><text fill="#000000" font-family="sans-serif" font-size="14" lengthAdjust="spacing" textLength="142.707" x="1620.5" y="135.8467">ObservingProcedure</text><line style="stroke:#181818;stroke-width:0.5;" x1="1592.5" x2="1765.207" y1="147" y2="147"/><line style="stroke:#181818;stroke-width:0.5;" x1="1592.5" x2="1765.207" y1="155" y2="155"/></g><!--class SamplingProcedure--><g class="entity" data-qualified-name="SamplingProcedure" data-source-line="8" id="ent0019"><rect fill="#F1F1F1" height="48" rx="2.5" ry="2.5" style="stroke:#181818;stroke-width:0.5;" width="168.7324" x="1801.5" y="115"/><ellipse cx="1816.5" cy="131" fill="#ADD1B2" rx="11" ry="11" style="stroke:#181818;stroke-width:1;"/><path d="M1819.4688,136.6406 Q1818.8906,136.9375 1818.25,137.0781 Q1817.6094,137.2344 1816.9063,137.2344 Q1814.4063,137.2344 1813.0781,135.5938 Q1811.7656,133.9375 1811.7656,130.8125 Q1811.7656,127.6875 1813.0781,126.0313 Q1814.4063,124.375 1816.9063,124.375 Q1817.6094,124.375 1818.25,124.5313 Q1818.9063,124.6875 1819.4688,124.9844 L1819.4688,127.7031 Q1818.8438,127.125 1818.25,126.8594 Q1817.6563,126.5781 1817.0313,126.5781 Q1815.6875,126.5781 1815,127.6563 Q1814.3125,128.7188 1814.3125,130.8125 Q1814.3125,132.9063 1815,133.9844 Q1815.6875,135.0469 1817.0313,135.0469 Q1817.6563,135.0469 1818.25,134.7813 Q1818.8438,134.5 1819.4688,133.9219 L1819.4688,136.6406 Z " fill="#000000"/><text fill="#000000" font-family="sans-serif" font-size="14" lengthAdjust="spacing" textLength="136.7324" x="1830.5" y="135.8467">SamplingProcedure</text><line style="stroke:#181818;stroke-width:0.5;" x1="1802.5" x2="1969.2324" y1="147" y2="147"/><line style="stroke:#181818;stroke-width:0.5;" x1="1802.5" x2="1969.2324" y1="155" y2="155"/></g><!--class Asset--><g class="entity" data-qualified-name="Asset" data-source-line="9" id="ent0021"><rect fill="#F1F1F1" height="48" rx="2.5" ry="2.5" style="stroke:#181818;stroke-width:0.5;" width="70.2676" x="2077" y="7"/><ellipse cx="2092" cy="23" fill="#ADD1B2" rx="11" ry="11" style="stroke:#181818;stroke-width:1;"/><path d="M2094.9688,28.6406 Q2094.3906,28.9375 2093.75,29.0781 Q2093.1094,29.2344 2092.4063,29.2344 Q2089.9063,29.2344 2088.5781,27.5938 Q2087.2656,25.9375 2087.2656,22.8125 Q2087.2656,19.6875 2088.5781,18.0313 Q2089.9063,16.375 2092.4063,16.375 Q2093.1094,16.375 2093.75,16.5313 Q2094.4063,16.6875 2094.9688,16.9844 L2094.9688,19.7031 Q2094.3438,19.125 2093.75,18.8594 Q2093.1563,18.5781 2092.5313,18.5781 Q2091.1875,18.5781 2090.5,19.6563 Q2089.8125,20.7188 2089.8125,22.8125 Q2089.8125,24.9063 2090.5,25.9844 Q2091.1875,27.0469 2092.5313,27.0469 Q2093.1563,27.0469 2093.75,26.7813 Q2094.3438,26.5 2094.9688,25.9219 L2094.9688,28.6406 Z " fill="#000000"/><text fill="#000000" font-family="sans-serif" font-size="14" lengthAdjust="spacing" textLength="38.2676" x="2106" y="27.8467">Asset</text><line style="stroke:#181818;stroke-width:0.5;" x1="2078" x2="2146.2676" y1="39" y2="39"/><line style="stroke:#181818;stroke-width:0.5;" x1="2078" x2="2146.2676" y1="47" y2="47"/></g><!--class Platform--><g class="entity" data-qualified-name="Platform" data-source-line="9" id="ent0022"><rect fill="#F1F1F1" height="48" rx="2.5" ry="2.5" style="stroke:#181818;stroke-width:0.5;" width="91.2881" x="2005.5" y="115"/><ellipse cx="2020.5" cy="131" fill="#ADD1B2" rx="11" ry="11" style="stroke:#181818;stroke-width:1;"/><path d="M2023.4688,136.6406 Q2022.8906,136.9375 2022.25,137.0781 Q2021.6094,137.2344 2020.9063,137.2344 Q2018.4063,137.2344 2017.0781,135.5938 Q2015.7656,133.9375 2015.7656,130.8125 Q2015.7656,127.6875 2017.0781,126.0313 Q2018.4063,124.375 2020.9063,124.375 Q2021.6094,124.375 2022.25,124.5313 Q2022.9063,124.6875 2023.4688,124.9844 L2023.4688,127.7031 Q2022.8438,127.125 2022.25,126.8594 Q2021.6563,126.5781 2021.0313,126.5781 Q2019.6875,126.5781 2019,127.6563 Q2018.3125,128.7188 2018.3125,130.8125 Q2018.3125,132.9063 2019,133.9844 Q2019.6875,135.0469 2021.0313,135.0469 Q2021.6563,135.0469 2022.25,134.7813 Q2022.8438,134.5 2023.4688,133.9219 L2023.4688,136.6406 Z " fill="#000000"/><text fill="#000000" font-family="sans-serif" font-size="14" lengthAdjust="spacing" textLength="59.2881" x="2034.5" y="135.8467">Platform</text><line style="stroke:#181818;stroke-width:0.5;" x1="2006.5" x2="2095.7881" y1="147" y2="147"/><line style="stroke:#181818;stroke-width:0.5;" x1="2006.5" x2="2095.7881" y1="155" y2="155"/></g><!--class System--><g class="entity" data-qualified-name="System" data-source-line="10" id="ent0024"><rect fill="#F1F1F1" height="48" rx="2.5" ry="2.5" style="stroke:#181818;stroke-width:0.5;" width="84.2061" x="2132" y="115"/><ellipse cx="2147" cy="131" fill="#ADD1B2" rx="11" ry="11" style="stroke:#181818;stroke-width:1;"/><path d="M2149.9688,136.6406 Q2149.3906,136.9375 2148.75,137.0781 Q2148.1094,137.2344 2147.4063,137.2344 Q2144.9063,137.2344 2143.5781,135.5938 Q2142.2656,133.9375 2142.2656,130.8125 Q2142.2656,127.6875 2143.5781,126.0313 Q2144.9063,124.375 2147.4063,124.375 Q2148.1094,124.375 2148.75,124.5313 Q2149.4063,124.6875 2149.9688,124.9844 L2149.9688,127.7031 Q2149.3438,127.125 2148.75,126.8594 Q2148.1563,126.5781 2147.5313,126.5781 Q2146.1875,126.5781 2145.5,127.6563 Q2144.8125,128.7188 2144.8125,130.8125 Q2144.8125,132.9063 2145.5,133.9844 Q2146.1875,135.0469 2147.5313,135.0469 Q2148.1563,135.0469 2148.75,134.7813 Q2149.3438,134.5 2149.9688,133.9219 L2149.9688,136.6406 Z " fill="#000000"/><text fill="#000000" font-family="sans-serif" font-size="14" lengthAdjust="spacing" textLength="52.2061" x="2161" y="135.8467">System</text><line style="stroke:#181818;stroke-width:0.5;" x1="2133" x2="2215.2061" y1="147" y2="147"/><line style="stroke:#181818;stroke-width:0.5;" x1="2133" x2="2215.2061" y1="155" y2="155"/></g><!--class Sampler--><g class="entity" data-qualified-name="Sampler" data-source-line="10" id="ent0025"><rect fill="#F1F1F1" height="48" rx="2.5" ry="2.5" style="stroke:#181818;stroke-width:0.5;" width="90.249" x="2003" y="223"/><ellipse cx="2018" cy="239" fill="#ADD1B2" rx="11" ry="11" style="stroke:#181818;stroke-width:1;"/><path d="M2020.9688,244.6406 Q2020.3906,244.9375 2019.75,245.0781 Q2019.1094,245.2344 2018.4063,245.2344 Q2015.9063,245.2344 2014.5781,243.5938 Q2013.2656,241.9375 2013.2656,238.8125 Q2013.2656,235.6875 2014.5781,234.0313 Q2015.9063,232.375 2018.4063,232.375 Q2019.1094,232.375 2019.75,232.5313 Q2020.4063,232.6875 2020.9688,232.9844 L2020.9688,235.7031 Q2020.3438,235.125 2019.75,234.8594 Q2019.1563,234.5781 2018.5313,234.5781 Q2017.1875,234.5781 2016.5,235.6563 Q2015.8125,236.7188 2015.8125,238.8125 Q2015.8125,240.9063 2016.5,241.9844 Q2017.1875,243.0469 2018.5313,243.0469 Q2019.1563,243.0469 2019.75,242.7813 Q2020.3438,242.5 2020.9688,241.9219 L2020.9688,244.6406 Z " fill="#000000"/><text fill="#000000" font-family="sans-serif" font-size="14" lengthAdjust="spacing" textLength="58.249" x="2032" y="243.8467">Sampler</text><line style="stroke:#181818;stroke-width:0.5;" x1="2004" x2="2092.249" y1="255" y2="255"/><line style="stroke:#181818;stroke-width:0.5;" x1="2004" x2="2092.249" y1="263" y2="263"/></g><!--class Actuator--><g class="entity" data-qualified-name="Actuator" data-source-line="11" id="ent0027"><rect fill="#F1F1F1" height="48" rx="2.5" ry="2.5" style="stroke:#181818;stroke-width:0.5;" width="92.0264" x="2128" y="223"/><ellipse cx="2143" cy="239" fill="#ADD1B2" rx="11" ry="11" style="stroke:#181818;stroke-width:1;"/><path d="M2145.9688,244.6406 Q2145.3906,244.9375 2144.75,245.0781 Q2144.1094,245.2344 2143.4063,245.2344 Q2140.9063,245.2344 2139.5781,243.5938 Q2138.2656,241.9375 2138.2656,238.8125 Q2138.2656,235.6875 2139.5781,234.0313 Q2140.9063,232.375 2143.4063,232.375 Q2144.1094,232.375 2144.75,232.5313 Q2145.4063,232.6875 2145.9688,232.9844 L2145.9688,235.7031 Q2145.3438,235.125 2144.75,234.8594 Q2144.1563,234.5781 2143.5313,234.5781 Q2142.1875,234.5781 2141.5,235.6563 Q2140.8125,236.7188 2140.8125,238.8125 Q2140.8125,240.9063 2141.5,241.9844 Q2142.1875,243.0469 2143.5313,243.0469 Q2144.1563,243.0469 2144.75,242.7813 Q2145.3438,242.5 2145.9688,241.9219 L2145.9688,244.6406 Z " fill="#000000"/><text fill="#000000" font-family="sans-serif" font-size="14" lengthAdjust="spacing" textLength="60.0264" x="2157" y="243.8467">Actuator</text><line style="stroke:#181818;stroke-width:0.5;" x1="2129" x2="2219.0264" y1="255" y2="255"/><line style="stroke:#181818;stroke-width:0.5;" x1="2129" x2="2219.0264" y1="263" y2="263"/></g><!--class Execution--><g class="entity" data-qualified-name="Execution" data-source-line="13" id="ent0030"><rect fill="#F1F1F1" height="48" rx="2.5" ry="2.5" style="stroke:#181818;stroke-width:0.5;" width="101.1318" x="2383.5" y="7"/><ellipse cx="2398.5" cy="23" fill="#ADD1B2" rx="11" ry="11" style="stroke:#181818;stroke-width:1;"/><path d="M2401.4688,28.6406 Q2400.8906,28.9375 2400.25,29.0781 Q2399.6094,29.2344 2398.9063,29.2344 Q2396.4063,29.2344 2395.0781,27.5938 Q2393.7656,25.9375 2393.7656,22.8125 Q2393.7656,19.6875 2395.0781,18.0313 Q2396.4063,16.375 2398.9063,16.375 Q2399.6094,16.375 2400.25,16.5313 Q2400.9063,16.6875 2401.4688,16.9844 L2401.4688,19.7031 Q2400.8438,19.125 2400.25,18.8594 Q2399.6563,18.5781 2399.0313,18.5781 Q2397.6875,18.5781 2397,19.6563 Q2396.3125,20.7188 2396.3125,22.8125 Q2396.3125,24.9063 2397,25.9844 Q2397.6875,27.0469 2399.0313,27.0469 Q2399.6563,27.0469 2400.25,26.7813 Q2400.8438,26.5 2401.4688,25.9219 L2401.4688,28.6406 Z " fill="#000000"/><text fill="#000000" font-family="sans-serif" font-size="14" lengthAdjust="spacing" textLength="69.1318" x="2412.5" y="27.8467">Execution</text><line style="stroke:#181818;stroke-width:0.5;" x1="2384.5" x2="2483.6318" y1="39" y2="39"/><line style="stroke:#181818;stroke-width:0.5;" x1="2384.5" x2="2483.6318" y1="47" y2="47"/></g><!--class Sampling--><g class="entity" data-qualified-name="Sampling" data-source-line="13" id="ent0031"><rect fill="#F1F1F1" height="48" rx="2.5" ry="2.5" style="stroke:#181818;stroke-width:0.5;" width="97.5293" x="2251" y="115"/><ellipse cx="2266" cy="131" fill="#ADD1B2" rx="11" ry="11" style="stroke:#181818;stroke-width:1;"/><path d="M2268.9688,136.6406 Q2268.3906,136.9375 2267.75,137.0781 Q2267.1094,137.2344 2266.4063,137.2344 Q2263.9063,137.2344 2262.5781,135.5938 Q2261.2656,133.9375 2261.2656,130.8125 Q2261.2656,127.6875 2262.5781,126.0313 Q2263.9063,124.375 2266.4063,124.375 Q2267.1094,124.375 2267.75,124.5313 Q2268.4063,124.6875 2268.9688,124.9844 L2268.9688,127.7031 Q2268.3438,127.125 2267.75,126.8594 Q2267.1563,126.5781 2266.5313,126.5781 Q2265.1875,126.5781 2264.5,127.6563 Q2263.8125,128.7188 2263.8125,130.8125 Q2263.8125,132.9063 2264.5,133.9844 Q2265.1875,135.0469 2266.5313,135.0469 Q2267.1563,135.0469 2267.75,134.7813 Q2268.3438,134.5 2268.9688,133.9219 L2268.9688,136.6406 Z " fill="#000000"/><text fill="#000000" font-family="sans-serif" font-size="14" lengthAdjust="spacing" textLength="65.5293" x="2280" y="135.8467">Sampling</text><line style="stroke:#181818;stroke-width:0.5;" x1="2252" x2="2347.5293" y1="147" y2="147"/><line style="stroke:#181818;stroke-width:0.5;" x1="2252" x2="2347.5293" y1="155" y2="155"/></g><!--class ExecutionCollection--><g class="entity" data-qualified-name="ExecutionCollection" data-source-line="14" id="ent0033"><rect fill="#F1F1F1" height="48" rx="2.5" ry="2.5" style="stroke:#181818;stroke-width:0.5;" width="170.3799" x="2871" y="7"/><ellipse cx="2886" cy="23" fill="#ADD1B2" rx="11" ry="11" style="stroke:#181818;stroke-width:1;"/><path d="M2888.9688,28.6406 Q2888.3906,28.9375 2887.75,29.0781 Q2887.1094,29.2344 2886.4063,29.2344 Q2883.9063,29.2344 2882.5781,27.5938 Q2881.2656,25.9375 2881.2656,22.8125 Q2881.2656,19.6875 2882.5781,18.0313 Q2883.9063,16.375 2886.4063,16.375 Q2887.1094,16.375 2887.75,16.5313 Q2888.4063,16.6875 2888.9688,16.9844 L2888.9688,19.7031 Q2888.3438,19.125 2887.75,18.8594 Q2887.1563,18.5781 2886.5313,18.5781 Q2885.1875,18.5781 2884.5,19.6563 Q2883.8125,20.7188 2883.8125,22.8125 Q2883.8125,24.9063 2884.5,25.9844 Q2885.1875,27.0469 2886.5313,27.0469 Q2887.1563,27.0469 2887.75,26.7813 Q2888.3438,26.5 2888.9688,25.9219 L2888.9688,28.6406 Z " fill="#000000"/><text fill="#000000" font-family="sans-serif" font-size="14" lengthAdjust="spacing" textLength="138.3799" x="2900" y="27.8467">ExecutionCollection</text><line style="stroke:#181818;stroke-width:0.5;" x1="2872" x2="3040.3799" y1="39" y2="39"/><line style="stroke:#181818;stroke-width:0.5;" x1="2872" x2="3040.3799" y1="47" y2="47"/></g><!--class SamplingCollection--><g class="entity" data-qualified-name="SamplingCollection" data-source-line="14" id="ent0034"><rect fill="#F1F1F1" height="48" rx="2.5" ry="2.5" style="stroke:#181818;stroke-width:0.5;" width="166.7773" x="2670.5" y="115"/><ellipse cx="2685.5" cy="131" fill="#ADD1B2" rx="11" ry="11" style="stroke:#181818;stroke-width:1;"/><path d="M2688.4688,136.6406 Q2687.8906,136.9375 2687.25,137.0781 Q2686.6094,137.2344 2685.9063,137.2344 Q2683.4063,137.2344 2682.0781,135.5938 Q2680.7656,133.9375 2680.7656,130.8125 Q2680.7656,127.6875 2682.0781,126.0313 Q2683.4063,124.375 2685.9063,124.375 Q2686.6094,124.375 2687.25,124.5313 Q2687.9063,124.6875 2688.4688,124.9844 L2688.4688,127.7031 Q2687.8438,127.125 2687.25,126.8594 Q2686.6563,126.5781 2686.0313,126.5781 Q2684.6875,126.5781 2684,127.6563 Q2683.3125,128.7188 2683.3125,130.8125 Q2683.3125,132.9063 2684,133.9844 Q2684.6875,135.0469 2686.0313,135.0469 Q2686.6563,135.0469 2687.25,134.7813 Q2687.8438,134.5 2688.4688,133.9219 L2688.4688,136.6406 Z " fill="#000000"/><text fill="#000000" font-family="sans-serif" font-size="14" lengthAdjust="spacing" textLength="134.7773" x="2699.5" y="135.8467">SamplingCollection</text><line style="stroke:#181818;stroke-width:0.5;" x1="2671.5" x2="2836.2773" y1="147" y2="147"/><line style="stroke:#181818;stroke-width:0.5;" x1="2671.5" x2="2836.2773" y1="155" y2="155"/></g><!--class Actuation--><g class="entity" data-qualified-name="Actuation" data-source-line="15" id="ent0036"><rect fill="#F1F1F1" height="48" rx="2.5" ry="2.5" style="stroke:#181818;stroke-width:0.5;" width="99.0332" x="2384.5" y="115"/><ellipse cx="2399.5" cy="131" fill="#ADD1B2" rx="11" ry="11" style="stroke:#181818;stroke-width:1;"/><path d="M2402.4688,136.6406 Q2401.8906,136.9375 2401.25,137.0781 Q2400.6094,137.2344 2399.9063,137.2344 Q2397.4063,137.2344 2396.0781,135.5938 Q2394.7656,133.9375 2394.7656,130.8125 Q2394.7656,127.6875 2396.0781,126.0313 Q2397.4063,124.375 2399.9063,124.375 Q2400.6094,124.375 2401.25,124.5313 Q2401.9063,124.6875 2402.4688,124.9844 L2402.4688,127.7031 Q2401.8438,127.125 2401.25,126.8594 Q2400.6563,126.5781 2400.0313,126.5781 Q2398.6875,126.5781 2398,127.6563 Q2397.3125,128.7188 2397.3125,130.8125 Q2397.3125,132.9063 2398,133.9844 Q2398.6875,135.0469 2400.0313,135.0469 Q2400.6563,135.0469 2401.25,134.7813 Q2401.8438,134.5 2402.4688,133.9219 L2402.4688,136.6406 Z " fill="#000000"/><text fill="#000000" font-family="sans-serif" font-size="14" lengthAdjust="spacing" textLength="67.0332" x="2413.5" y="135.8467">Actuation</text><line style="stroke:#181818;stroke-width:0.5;" x1="2385.5" x2="2482.5332" y1="147" y2="147"/><line style="stroke:#181818;stroke-width:0.5;" x1="2385.5" x2="2482.5332" y1="155" y2="155"/></g><!--class Sensor--><g class="entity" data-qualified-name="Sensor" data-source-line="16" id="ent0038"><rect fill="#F1F1F1" height="48" rx="2.5" ry="2.5" style="stroke:#181818;stroke-width:0.5;" width="79.9883" x="2255" y="223"/><ellipse cx="2270" cy="239" fill="#ADD1B2" rx="11" ry="11" style="stroke:#181818;stroke-width:1;"/><path d="M2272.9688,244.6406 Q2272.3906,244.9375 2271.75,245.0781 Q2271.1094,245.2344 2270.4063,245.2344 Q2267.9063,245.2344 2266.5781,243.5938 Q2265.2656,241.9375 2265.2656,238.8125 Q2265.2656,235.6875 2266.5781,234.0313 Q2267.9063,232.375 2270.4063,232.375 Q2271.1094,232.375 2271.75,232.5313 Q2272.4063,232.6875 2272.9688,232.9844 L2272.9688,235.7031 Q2272.3438,235.125 2271.75,234.8594 Q2271.1563,234.5781 2270.5313,234.5781 Q2269.1875,234.5781 2268.5,235.6563 Q2267.8125,236.7188 2267.8125,238.8125 Q2267.8125,240.9063 2268.5,241.9844 Q2269.1875,243.0469 2270.5313,243.0469 Q2271.1563,243.0469 2271.75,242.7813 Q2272.3438,242.5 2272.9688,241.9219 L2272.9688,244.6406 Z " fill="#000000"/><text fill="#000000" font-family="sans-serif" font-size="14" lengthAdjust="spacing" textLength="47.9883" x="2284" y="243.8467">Sensor</text><line style="stroke:#181818;stroke-width:0.5;" x1="2256" x2="2333.9883" y1="255" y2="255"/><line style="stroke:#181818;stroke-width:0.5;" x1="2256" x2="2333.9883" y1="263" y2="263"/></g><!--class ActuationCollection--><g class="entity" data-qualified-name="ActuationCollection" data-source-line="17" id="ent0040"><rect fill="#F1F1F1" height="48" rx="2.5" ry="2.5" style="stroke:#181818;stroke-width:0.5;" width="168.2813" x="2872" y="115"/><ellipse cx="2887" cy="131" fill="#ADD1B2" rx="11" ry="11" style="stroke:#181818;stroke-width:1;"/><path d="M2889.9688,136.6406 Q2889.3906,136.9375 2888.75,137.0781 Q2888.1094,137.2344 2887.4063,137.2344 Q2884.9063,137.2344 2883.5781,135.5938 Q2882.2656,133.9375 2882.2656,130.8125 Q2882.2656,127.6875 2883.5781,126.0313 Q2884.9063,124.375 2887.4063,124.375 Q2888.1094,124.375 2888.75,124.5313 Q2889.4063,124.6875 2889.9688,124.9844 L2889.9688,127.7031 Q2889.3438,127.125 2888.75,126.8594 Q2888.1563,126.5781 2887.5313,126.5781 Q2886.1875,126.5781 2885.5,127.6563 Q2884.8125,128.7188 2884.8125,130.8125 Q2884.8125,132.9063 2885.5,133.9844 Q2886.1875,135.0469 2887.5313,135.0469 Q2888.1563,135.0469 2888.75,134.7813 Q2889.3438,134.5 2889.9688,133.9219 L2889.9688,136.6406 Z " fill="#000000"/><text fill="#000000" font-family="sans-serif" font-size="14" lengthAdjust="spacing" textLength="136.2813" x="2901" y="135.8467">ActuationCollection</text><line style="stroke:#181818;stroke-width:0.5;" x1="2873" x2="3039.2813" y1="147" y2="147"/><line style="stroke:#181818;stroke-width:0.5;" x1="2873" x2="3039.2813" y1="155" y2="155"/></g><!--class ObservationCollection--><g class="entity" data-qualified-name="ObservationCollection" data-source-line="18" id="ent0042"><rect fill="#F1F1F1" height="48" rx="2.5" ry="2.5" style="stroke:#181818;stroke-width:0.5;" width="186.499" x="3075" y="115"/><ellipse cx="3090" cy="131" fill="#ADD1B2" rx="11" ry="11" style="stroke:#181818;stroke-width:1;"/><path d="M3092.9688,136.6406 Q3092.3906,136.9375 3091.75,137.0781 Q3091.1094,137.2344 3090.4063,137.2344 Q3087.9063,137.2344 3086.5781,135.5938 Q3085.2656,133.9375 3085.2656,130.8125 Q3085.2656,127.6875 3086.5781,126.0313 Q3087.9063,124.375 3090.4063,124.375 Q3091.1094,124.375 3091.75,124.5313 Q3092.4063,124.6875 3092.9688,124.9844 L3092.9688,127.7031 Q3092.3438,127.125 3091.75,126.8594 Q3091.1563,126.5781 3090.5313,126.5781 Q3089.1875,126.5781 3088.5,127.6563 Q3087.8125,128.7188 3087.8125,130.8125 Q3087.8125,132.9063 3088.5,133.9844 Q3089.1875,135.0469 3090.5313,135.0469 Q3091.1563,135.0469 3091.75,134.7813 Q3092.3438,134.5 3092.9688,133.9219 L3092.9688,136.6406 Z " fill="#000000"/><text fill="#000000" font-family="sans-serif" font-size="14" lengthAdjust="spacing" textLength="154.499" x="3104" y="135.8467">ObservationCollection</text><line style="stroke:#181818;stroke-width:0.5;" x1="3076" x2="3260.499" y1="147" y2="147"/><line style="stroke:#181818;stroke-width:0.5;" x1="3076" x2="3260.499" y1="155" y2="155"/></g><!--class Observation--><g class="entity" data-qualified-name="Observation" data-source-line="19" id="ent0044"><rect fill="#F1F1F1" height="48" rx="2.5" ry="2.5" style="stroke:#181818;stroke-width:0.5;" width="117.251" x="2518.5" y="115"/><ellipse cx="2533.5" cy="131" fill="#ADD1B2" rx="11" ry="11" style="stroke:#181818;stroke-width:1;"/><path d="M2536.4688,136.6406 Q2535.8906,136.9375 2535.25,137.0781 Q2534.6094,137.2344 2533.9063,137.2344 Q2531.4063,137.2344 2530.0781,135.5938 Q2528.7656,133.9375 2528.7656,130.8125 Q2528.7656,127.6875 2530.0781,126.0313 Q2531.4063,124.375 2533.9063,124.375 Q2534.6094,124.375 2535.25,124.5313 Q2535.9063,124.6875 2536.4688,124.9844 L2536.4688,127.7031 Q2535.8438,127.125 2535.25,126.8594 Q2534.6563,126.5781 2534.0313,126.5781 Q2532.6875,126.5781 2532,127.6563 Q2531.3125,128.7188 2531.3125,130.8125 Q2531.3125,132.9063 2532,133.9844 Q2532.6875,135.0469 2534.0313,135.0469 Q2534.6563,135.0469 2535.25,134.7813 Q2535.8438,134.5 2536.4688,133.9219 L2536.4688,136.6406 Z " fill="#000000"/><text fill="#000000" font-family="sans-serif" font-size="14" lengthAdjust="spacing" textLength="85.251" x="2547.5" y="135.8467">Observation</text><line style="stroke:#181818;stroke-width:0.5;" x1="2519.5" x2="2634.751" y1="147" y2="147"/><line style="stroke:#181818;stroke-width:0.5;" x1="2519.5" x2="2634.751" y1="155" y2="155"/></g><!--class Input--><g class="entity" data-qualified-name="Input" data-source-line="21" id="ent0046"><rect fill="#F1F1F1" height="48" rx="2.5" ry="2.5" style="stroke:#181818;stroke-width:0.5;" width="68.251" x="51" y="7"/><ellipse cx="66" cy="23" fill="#ADD1B2" rx="11" ry="11" style="stroke:#181818;stroke-width:1;"/><path d="M68.9688,28.6406 Q68.3906,28.9375 67.75,29.0781 Q67.1094,29.2344 66.4063,29.2344 Q63.9063,29.2344 62.5781,27.5938 Q61.2656,25.9375 61.2656,22.8125 Q61.2656,19.6875 62.5781,18.0313 Q63.9063,16.375 66.4063,16.375 Q67.1094,16.375 67.75,16.5313 Q68.4063,16.6875 68.9688,16.9844 L68.9688,19.7031 Q68.3438,19.125 67.75,18.8594 Q67.1563,18.5781 66.5313,18.5781 Q65.1875,18.5781 64.5,19.6563 Q63.8125,20.7188 63.8125,22.8125 Q63.8125,24.9063 64.5,25.9844 Q65.1875,27.0469 66.5313,27.0469 Q67.1563,27.0469 67.75,26.7813 Q68.3438,26.5 68.9688,25.9219 L68.9688,28.6406 Z " fill="#000000"/><text fill="#000000" font-family="sans-serif" font-size="14" lengthAdjust="spacing" textLength="36.251" x="80" y="27.8467">Input</text><line style="stroke:#181818;stroke-width:0.5;" x1="52" x2="118.251" y1="39" y2="39"/><line style="stroke:#181818;stroke-width:0.5;" x1="52" x2="118.251" y1="47" y2="47"/></g><!--class Deployment--><g class="entity" data-qualified-name="Deployment" data-source-line="22" id="ent0047"><rect fill="#F1F1F1" height="48" rx="2.5" ry="2.5" style="stroke:#181818;stroke-width:0.5;" width="117.6338" x="154" y="7"/><ellipse cx="169" cy="23" fill="#ADD1B2" rx="11" ry="11" style="stroke:#181818;stroke-width:1;"/><path d="M171.9688,28.6406 Q171.3906,28.9375 170.75,29.0781 Q170.1094,29.2344 169.4063,29.2344 Q166.9063,29.2344 165.5781,27.5938 Q164.2656,25.9375 164.2656,22.8125 Q164.2656,19.6875 165.5781,18.0313 Q166.9063,16.375 169.4063,16.375 Q170.1094,16.375 170.75,16.5313 Q171.4063,16.6875 171.9688,16.9844 L171.9688,19.7031 Q171.3438,19.125 170.75,18.8594 Q170.1563,18.5781 169.5313,18.5781 Q168.1875,18.5781 167.5,19.6563 Q166.8125,20.7188 166.8125,22.8125 Q166.8125,24.9063 167.5,25.9844 Q168.1875,27.0469 169.5313,27.0469 Q170.1563,27.0469 170.75,26.7813 Q171.3438,26.5 171.9688,25.9219 L171.9688,28.6406 Z " fill="#000000"/><text fill="#000000" font-family="sans-serif" font-size="14" lengthAdjust="spacing" textLength="85.6338" x="183" y="27.8467">Deployment</text><line style="stroke:#181818;stroke-width:0.5;" x1="155" x2="270.6338" y1="39" y2="39"/><line style="stroke:#181818;stroke-width:0.5;" x1="155" x2="270.6338" y1="47" y2="47"/></g><!--class Result--><g class="entity" data-qualified-name="Result" data-source-line="23" id="ent0048"><rect fill="#F1F1F1" height="48" rx="2.5" ry="2.5" style="stroke:#181818;stroke-width:0.5;" width="75.8867" x="307" y="7"/><ellipse cx="322" cy="23" fill="#ADD1B2" rx="11" ry="11" style="stroke:#181818;stroke-width:1;"/><path d="M324.9688,28.6406 Q324.3906,28.9375 323.75,29.0781 Q323.1094,29.2344 322.4063,29.2344 Q319.9063,29.2344 318.5781,27.5938 Q317.2656,25.9375 317.2656,22.8125 Q317.2656,19.6875 318.5781,18.0313 Q319.9063,16.375 322.4063,16.375 Q323.1094,16.375 323.75,16.5313 Q324.4063,16.6875 324.9688,16.9844 L324.9688,19.7031 Q324.3438,19.125 323.75,18.8594 Q323.1563,18.5781 322.5313,18.5781 Q321.1875,18.5781 320.5,19.6563 Q319.8125,20.7188 319.8125,22.8125 Q319.8125,24.9063 320.5,25.9844 Q321.1875,27.0469 322.5313,27.0469 Q323.1563,27.0469 323.75,26.7813 Q324.3438,26.5 324.9688,25.9219 L324.9688,28.6406 Z " fill="#000000"/><text fill="#000000" font-family="sans-serif" font-size="14" lengthAdjust="spacing" textLength="43.8867" x="336" y="27.8467">Result</text><line style="stroke:#181818;stroke-width:0.5;" x1="308" x2="381.8867" y1="39" y2="39"/><line style="stroke:#181818;stroke-width:0.5;" x1="308" x2="381.8867" y1="47" y2="47"/></g><!--class SampleCollection--><g class="entity" data-qualified-name="SampleCollection" data-source-line="25" id="ent0049"><rect fill="#F1F1F1" height="48" rx="2.5" ry="2.5" style="stroke:#181818;stroke-width:0.5;" width="153.7412" x="8" y="115"/><ellipse cx="23" cy="131" fill="#ADD1B2" rx="11" ry="11" style="stroke:#181818;stroke-width:1;"/><path d="M25.9688,136.6406 Q25.3906,136.9375 24.75,137.0781 Q24.1094,137.2344 23.4063,137.2344 Q20.9063,137.2344 19.5781,135.5938 Q18.2656,133.9375 18.2656,130.8125 Q18.2656,127.6875 19.5781,126.0313 Q20.9063,124.375 23.4063,124.375 Q24.1094,124.375 24.75,124.5313 Q25.4063,124.6875 25.9688,124.9844 L25.9688,127.7031 Q25.3438,127.125 24.75,126.8594 Q24.1563,126.5781 23.5313,126.5781 Q22.1875,126.5781 21.5,127.6563 Q20.8125,128.7188 20.8125,130.8125 Q20.8125,132.9063 21.5,133.9844 Q22.1875,135.0469 23.5313,135.0469 Q24.1563,135.0469 24.75,134.7813 Q25.3438,134.5 25.9688,133.9219 L25.9688,136.6406 Z " fill="#000000"/><text fill="#000000" font-family="sans-serif" font-size="14" lengthAdjust="spacing" textLength="121.7412" x="37" y="135.8467">SampleCollection</text><line style="stroke:#181818;stroke-width:0.5;" x1="9" x2="160.7412" y1="147" y2="147"/><line style="stroke:#181818;stroke-width:0.5;" x1="9" x2="160.7412" y1="155" y2="155"/></g><!--class Output--><g class="entity" data-qualified-name="Output" data-source-line="26" id="ent0050"><rect fill="#F1F1F1" height="48" rx="2.5" ry="2.5" style="stroke:#181818;stroke-width:0.5;" width="80.6309" x="197.5" y="115"/><ellipse cx="212.5" cy="131" fill="#ADD1B2" rx="11" ry="11" style="stroke:#181818;stroke-width:1;"/><path d="M215.4688,136.6406 Q214.8906,136.9375 214.25,137.0781 Q213.6094,137.2344 212.9063,137.2344 Q210.4063,137.2344 209.0781,135.5938 Q207.7656,133.9375 207.7656,130.8125 Q207.7656,127.6875 209.0781,126.0313 Q210.4063,124.375 212.9063,124.375 Q213.6094,124.375 214.25,124.5313 Q214.9063,124.6875 215.4688,124.9844 L215.4688,127.7031 Q214.8438,127.125 214.25,126.8594 Q213.6563,126.5781 213.0313,126.5781 Q211.6875,126.5781 211,127.6563 Q210.3125,128.7188 210.3125,130.8125 Q210.3125,132.9063 211,133.9844 Q211.6875,135.0469 213.0313,135.0469 Q213.6563,135.0469 214.25,134.7813 Q214.8438,134.5 215.4688,133.9219 L215.4688,136.6406 Z " fill="#000000"/><text fill="#000000" font-family="sans-serif" font-size="14" lengthAdjust="spacing" textLength="48.6309" x="226.5" y="135.8467">Output</text><line style="stroke:#181818;stroke-width:0.5;" x1="198.5" x2="277.1309" y1="147" y2="147"/><line style="stroke:#181818;stroke-width:0.5;" x1="198.5" x2="277.1309" y1="155" y2="155"/></g><!--class Stimulus--><g class="entity" data-qualified-name="Stimulus" data-source-line="27" id="ent0051"><rect fill="#F1F1F1" height="48" rx="2.5" ry="2.5" style="stroke:#181818;stroke-width:0.5;" width="92.833" x="313.5" y="115"/><ellipse cx="328.5" cy="131" fill="#ADD1B2" rx="11" ry="11" style="stroke:#181818;stroke-width:1;"/><path d="M331.4688,136.6406 Q330.8906,136.9375 330.25,137.0781 Q329.6094,137.2344 328.9063,137.2344 Q326.4063,137.2344 325.0781,135.5938 Q323.7656,133.9375 323.7656,130.8125 Q323.7656,127.6875 325.0781,126.0313 Q326.4063,124.375 328.9063,124.375 Q329.6094,124.375 330.25,124.5313 Q330.9063,124.6875 331.4688,124.9844 L331.4688,127.7031 Q330.8438,127.125 330.25,126.8594 Q329.6563,126.5781 329.0313,126.5781 Q327.6875,126.5781 327,127.6563 Q326.3125,128.7188 326.3125,130.8125 Q326.3125,132.9063 327,133.9844 Q327.6875,135.0469 329.0313,135.0469 Q329.6563,135.0469 330.25,134.7813 Q330.8438,134.5 331.4688,133.9219 L331.4688,136.6406 Z " fill="#000000"/><text fill="#000000" font-family="sans-serif" font-size="14" lengthAdjust="spacing" textLength="60.833" x="342.5" y="135.8467">Stimulus</text><line style="stroke:#181818;stroke-width:0.5;" x1="314.5" x2="405.333" y1="147" y2="147"/><line style="stroke:#181818;stroke-width:0.5;" x1="314.5" x2="405.333" y1="155" y2="155"/></g><!--class FeatureOfInterest--><g class="entity" data-qualified-name="FeatureOfInterest" data-source-line="30" id="ent0052"><rect fill="#F1F1F1" height="48" rx="2.5" ry="2.5" style="stroke:#181818;stroke-width:0.5;" width="156.1816" x="7" y="223"/><ellipse cx="22" cy="239" fill="#ADD1B2" rx="11" ry="11" style="stroke:#181818;stroke-width:1;"/><path d="M24.9688,244.6406 Q24.3906,244.9375 23.75,245.0781 Q23.1094,245.2344 22.4063,245.2344 Q19.9063,245.2344 18.5781,243.5938 Q17.2656,241.9375 17.2656,238.8125 Q17.2656,235.6875 18.5781,234.0313 Q19.9063,232.375 22.4063,232.375 Q23.1094,232.375 23.75,232.5313 Q24.4063,232.6875 24.9688,232.9844 L24.9688,235.7031 Q24.3438,235.125 23.75,234.8594 Q23.1563,234.5781 22.5313,234.5781 Q21.1875,234.5781 20.5,235.6563 Q19.8125,236.7188 19.8125,238.8125 Q19.8125,240.9063 20.5,241.9844 Q21.1875,243.0469 22.5313,243.0469 Q23.1563,243.0469 23.75,242.7813 Q24.3438,242.5 24.9688,241.9219 L24.9688,244.6406 Z " fill="#000000"/><text fill="#000000" font-family="sans-serif" font-size="14" lengthAdjust="spacing" textLength="124.1816" x="36" y="243.8467">FeatureOfInterest</text><line style="stroke:#181818;stroke-width:0.5;" x1="8" x2="162.1816" y1="255" y2="255"/><line style="stroke:#181818;stroke-width:0.5;" x1="8" x2="162.1816" y1="263" y2="263"/></g><!--reverse link Property to ActuatableProperty--><g class="link" data-entity-1="ent0002" data-entity-2="ent0003" data-link-type="extension" data-source-line="1" id="lnk4"><path codeLine="1" d="M592.3905,67.9716 C575.4005,85.6316 564.51,96.94 547.44,114.68" fill="none" id="Property-backto-ActuatableProperty" style="stroke:#181818;stroke-width:1;"/><polygon fill="none" points="604.87,55,588.0667,63.8118,596.7144,72.1314,604.87,55" style="stroke:#181818;stroke-width:1;"/></g><!--reverse link Sample to MaterialSample--><g class="link" data-entity-1="ent0005" data-entity-2="ent0006" data-link-type="extension" data-source-line="2" id="lnk7"><path codeLine="2" d="M1041.3567,64.4445 C1012.6067,82.1645 988.35,97.11 959.55,114.86" fill="none" id="Sample-backto-MaterialSample" style="stroke:#181818;stroke-width:1;"/><polygon fill="none" points="1056.68,55,1038.2086,59.3367,1044.5049,69.5522,1056.68,55" style="stroke:#181818;stroke-width:1;"/></g><!--reverse link Sample to SpatialSample--><g class="link" data-entity-1="ent0005" data-entity-2="ent0008" data-link-type="extension" data-source-line="3" id="lnk9"><path codeLine="3" d="M1094,73 C1094,90.66 1094,96.94 1094,114.68" fill="none" id="Sample-backto-SpatialSample" style="stroke:#181818;stroke-width:1;"/><polygon fill="none" points="1094,55,1088,73,1100,73,1094,55" style="stroke:#181818;stroke-width:1;"/></g><!--reverse link Sample to StatisticalSample--><g class="link" data-entity-1="ent0005" data-entity-2="ent0010" data-link-type="extension" data-source-line="4" id="lnk11"><path codeLine="4" d="M1148.3276,64.1725 C1178.2476,81.8925 1203.95,97.11 1233.93,114.86" fill="none" id="Sample-backto-StatisticalSample" style="stroke:#181818;stroke-width:1;"/><polygon fill="none" points="1132.84,55,1145.2701,69.335,1151.3851,59.0099,1132.84,55" style="stroke:#181818;stroke-width:1;"/></g><!--reverse link Property to ObservableProperty--><g class="link" data-entity-1="ent0002" data-entity-2="ent0012" data-link-type="extension" data-source-line="5" id="lnk13"><path codeLine="5" d="M661.8939,67.9094 C679.0539,85.5694 690.1,96.94 707.34,114.68" fill="none" id="Property-backto-ObservableProperty" style="stroke:#181818;stroke-width:1;"/><polygon fill="none" points="649.35,55,657.5907,72.0906,666.197,63.7281,649.35,55" style="stroke:#181818;stroke-width:1;"/></g><!--reverse link Procedure to ActuatingProcedure--><g class="link" data-entity-1="ent0014" data-entity-2="ent0015" data-link-type="extension" data-source-line="6" id="lnk16"><path codeLine="6" d="M1617.8326,63.1732 C1583.0626,80.8932 1551.24,97.11 1516.4,114.86" fill="none" id="Procedure-backto-ActuatingProcedure" style="stroke:#181818;stroke-width:1;"/><polygon fill="none" points="1633.87,55,1615.1082,57.8274,1620.557,68.519,1633.87,55" style="stroke:#181818;stroke-width:1;"/></g><!--reverse link Procedure to ObservingProcedure--><g class="link" data-entity-1="ent0014" data-entity-2="ent0017" data-link-type="extension" data-source-line="7" id="lnk18"><path codeLine="7" d="M1679,73 C1679,90.66 1679,96.94 1679,114.68" fill="none" id="Procedure-backto-ObservingProcedure" style="stroke:#181818;stroke-width:1;"/><polygon fill="none" points="1679,55,1673,73,1685,73,1679,55" style="stroke:#181818;stroke-width:1;"/></g><!--reverse link Procedure to SamplingProcedure--><g class="link" data-entity-1="ent0014" data-entity-2="ent0019" data-link-type="extension" data-source-line="8" id="lnk20"><path codeLine="8" d="M1739.9411,63.205 C1774.5411,80.925 1806.15,97.11 1840.81,114.86" fill="none" id="Procedure-backto-SamplingProcedure" style="stroke:#181818;stroke-width:1;"/><polygon fill="none" points="1723.92,55,1737.2061,68.5454,1742.6762,57.8647,1723.92,55" style="stroke:#181818;stroke-width:1;"/></g><!--reverse link Asset to Platform--><g class="link" data-entity-1="ent0021" data-entity-2="ent0022" data-link-type="extension" data-source-line="9" id="lnk23"><path codeLine="9" d="M2089.7839,70.6022 C2079.6239,88.2622 2074.63,96.94 2064.42,114.68" fill="none" id="Asset-backto-Platform" style="stroke:#181818;stroke-width:1;"/><polygon fill="none" points="2098.76,55,2084.5831,67.6102,2094.9846,73.5943,2098.76,55" style="stroke:#181818;stroke-width:1;"/></g><!--reverse link System to Sampler--><g class="link" data-entity-1="ent0024" data-entity-2="ent0025" data-link-type="extension" data-source-line="10" id="lnk26"><path codeLine="10" d="M2132.8865,174.5884 C2111.8965,192.2484 2096.81,204.94 2075.72,222.68" fill="none" id="System-backto-Sampler" style="stroke:#181818;stroke-width:1;"/><polygon fill="none" points="2146.66,163,2129.0237,169.9972,2136.7493,179.1795,2146.66,163" style="stroke:#181818;stroke-width:1;"/></g><!--reverse link System to Actuator--><g class="link" data-entity-1="ent0024" data-entity-2="ent0027" data-link-type="extension" data-source-line="11" id="lnk28"><path codeLine="11" d="M2174,181 C2174,198.66 2174,204.94 2174,222.68" fill="none" id="System-backto-Actuator" style="stroke:#181818;stroke-width:1;"/><polygon fill="none" points="2174,163,2168,181,2180,181,2174,163" style="stroke:#181818;stroke-width:1;"/></g><!--reverse link Asset to System--><g class="link" data-entity-1="ent0021" data-entity-2="ent0024" data-link-type="extension" data-source-line="12" id="lnk29"><path codeLine="12" d="M2134.5383,70.5372 C2144.8683,88.1972 2149.98,96.94 2160.36,114.68" fill="none" id="Asset-backto-System" style="stroke:#181818;stroke-width:1;"/><polygon fill="none" points="2125.45,55,2129.3592,73.5666,2139.7173,67.5077,2125.45,55" style="stroke:#181818;stroke-width:1;"/></g><!--reverse link Execution to Sampling--><g class="link" data-entity-1="ent0030" data-entity-2="ent0031" data-link-type="extension" data-source-line="13" id="lnk32"><path codeLine="13" d="M2390.8041,66.1688 C2368.4841,83.8288 2351.91,96.94 2329.48,114.68" fill="none" id="Execution-backto-Sampling" style="stroke:#181818;stroke-width:1;"/><polygon fill="none" points="2404.92,55,2387.0812,61.4635,2394.527,70.8741,2404.92,55" style="stroke:#181818;stroke-width:1;"/></g><!--reverse link ExecutionCollection to SamplingCollection--><g class="link" data-entity-1="ent0033" data-entity-2="ent0034" data-link-type="extension" data-source-line="14" id="lnk35"><path codeLine="14" d="M2896.231,63.3636 C2862.461,81.0836 2831.93,97.11 2798.09,114.86" fill="none" id="ExecutionCollection-backto-SamplingCollection" style="stroke:#181818;stroke-width:1;"/><polygon fill="none" points="2912.17,55,2893.4432,58.0506,2899.0189,68.6766,2912.17,55" style="stroke:#181818;stroke-width:1;"/></g><!--reverse link Execution to Actuation--><g class="link" data-entity-1="ent0030" data-entity-2="ent0036" data-link-type="extension" data-source-line="15" id="lnk37"><path codeLine="15" d="M2434,73 C2434,90.66 2434,96.94 2434,114.68" fill="none" id="Execution-backto-Actuation" style="stroke:#181818;stroke-width:1;"/><polygon fill="none" points="2434,55,2428,73,2440,73,2434,55" style="stroke:#181818;stroke-width:1;"/></g><!--reverse link System to Sensor--><g class="link" data-entity-1="ent0024" data-entity-2="ent0038" data-link-type="extension" data-source-line="16" id="lnk39"><path codeLine="16" d="M2213.7968,174.864 C2233.9468,192.524 2248.13,204.94 2268.38,222.68" fill="none" id="System-backto-Sensor" style="stroke:#181818;stroke-width:1;"/><polygon fill="none" points="2200.26,163,2209.8421,179.3763,2217.7515,170.3518,2200.26,163" style="stroke:#181818;stroke-width:1;"/></g><!--reverse link ExecutionCollection to ActuationCollection--><g class="link" data-entity-1="ent0033" data-entity-2="ent0040" data-link-type="extension" data-source-line="17" id="lnk41"><path codeLine="17" d="M2956,73 C2956,90.66 2956,96.94 2956,114.68" fill="none" id="ExecutionCollection-backto-ActuationCollection" style="stroke:#181818;stroke-width:1;"/><polygon fill="none" points="2956,55,2950,73,2962,73,2956,55" style="stroke:#181818;stroke-width:1;"/></g><!--reverse link ExecutionCollection to ObservationCollection--><g class="link" data-entity-1="ent0033" data-entity-2="ent0042" data-link-type="extension" data-source-line="18" id="lnk43"><path codeLine="18" d="M3018.0997,63.0498 C3053.5397,80.7698 3086.22,97.11 3121.72,114.86" fill="none" id="ExecutionCollection-backto-ObservationCollection" style="stroke:#181818;stroke-width:1;"/><polygon fill="none" points="3002,55,3015.4164,68.4164,3020.783,57.6833,3002,55" style="stroke:#181818;stroke-width:1;"/></g><!--reverse link Execution to Observation--><g class="link" data-entity-1="ent0030" data-entity-2="ent0044" data-link-type="extension" data-source-line="19" id="lnk45"><path codeLine="19" d="M2479.4895,65.7202 C2503.3095,83.3802 2521.61,96.94 2545.54,114.68" fill="none" id="Execution-backto-Observation" style="stroke:#181818;stroke-width:1;"/><polygon fill="none" points="2465.03,55,2475.9161,70.54,2483.0629,60.9004,2465.03,55" style="stroke:#181818;stroke-width:1;"/></g><?plantuml-src VL99RiCm3Bpx5Vb0Vj1Bq0N8eR1Hlu1Hc480jK2aYXheuoD4yY8xxasS6SwGahhWF0OP3Yz_n-FXf2I2m8MmAtZJW_64cVu4mQ21CbPHlGVPOIGnB5fDR5TbjXV6y5DbfeF2Qmoud4hRxmbVAxB7Vuf7T2KuCQDaiYEGcmkcwGSMD8iE31MM9t5XsPpvvlqNLHJjR9qtuw-E2DLMCUDhZx9t8ggvq7AQODTtwdfcl1QNoz-JRqID8c0UTyx5sVeevVo6djnWq8x05tAaiPWUkBWyRdYHc-4socpOYpQH8ZylDt4V298UjxsTRVggo787?></g></svg>