<svg xmlns="http://www.w3.org/2000/svg" xmlns:xlink="http://www.w3.org/1999/xlink" contentStyleType="text/css" data-diagram-type="CLASS" height="286px" preserveAspectRatio="none" style="width:3215px;height:286px;background:#FFFFFF;" version="1.1" viewBox="0 0 3215 286" width="3215px" zoomAndPan="magnify"><?plantuml 1.2026.6?><defs/><g><!--class Property--><g class="entity" data-qualified-name="Property" data-source-line="1" id="ent0001"><rect fill="#F1F1F1" height="48" rx="2.5" ry="2.5" style="stroke:#181818;stroke-width:0.5;" width="91.7939" x="564" y="7"/><ellipse cx="579" cy="23" fill="#ADD1B2" rx="11" ry="11" style="stroke:#181818;stroke-width:1;"/><path d="M581.9688,28.6406 Q581.3906,28.9375 580.75,29.0781 Q580.1094,29.2344 579.4063,29.2344 Q576.9063,29.2344 575.5781,27.5938 Q574.2656,25.9375 574.2656,22.8125 Q574.2656,19.6875 575.5781,18.0313 Q576.9063,16.375 579.4063,16.375 Q580.1094,16.375 580.75,16.5313 Q581.4063,16.6875 581.9688,16.9844 L581.9688,19.7031 Q581.3438,19.125 580.75,18.8594 Q580.1563,18.5781 579.5313,18.5781 Q578.1875,18.5781 577.5,19.6563 Q576.8125,20.7188 576.8125,22.8125 Q576.8125,24.9063 577.5,25.9844 Q578.1875,27.0469 579.5313,27.0469 Q580.1563,27.0469 580.75,26.7813 Q581.3438,26.5 581.9688,25.9219 L581.9688,28.6406 Z " fill="#000000"/><text fill="#000000" font-family="sans-serif" font-size="14" lengthAdjust="spacing" textLength="59.7939" x="593" y="27.8467">Property</text><line style="stroke:#181818;stroke-width:0.5;" x1="565" x2="654.7939" y1="39" y2="39"/><line style="stroke:#181818;stroke-width:0.5;" x1="565" x2="654.7939" y1="47" y2="47"/></g><!--class ActuatableProperty--><g class="entity" data-qualified-name="ActuatableProperty" data-source-line="1" id="ent0002"><rect fill="#F1F1F1" height="48" rx="2.5" ry="2.5" style="stroke:#181818;stroke-width:0.5;" width="167.4678" x="380.5" y="115"/><ellipse cx="395.5" cy="131" fill="#ADD1B2" rx="11" ry="11" style="stroke:#181818;stroke-width:1;"/><path d="M398.4688,136.6406 Q397.8906,136.9375 397.25,137.0781 Q396.6094,137.2344 395.9063,137.2344 Q393.4063,137.2344 392.0781,135.5938 Q390.7656,133.9375 390.7656,130.8125 Q390.7656,127.6875 392.0781,126.0313 Q393.4063,124.375 395.9063,124.375 Q396.6094,124.375 397.25,124.5313 Q397.9063,124.6875 398.4688,124.9844 L398.4688,127.7031 Q397.8438,127.125 397.25,126.8594 Q396.6563,126.5781 396.0313,126.5781 Q394.6875,126.5781 394,127.6563 Q393.3125,128.7188 393.3125,130.8125 Q393.3125,132.9063 394,133.9844 Q394.6875,135.0469 396.0313,135.0469 Q396.6563,135.0469 397.25,134.7813 Q397.8438,134.5 398.4688,133.9219 L398.4688,136.6406 Z " fill="#000000"/><text fill="#000000" font-family="sans-serif" font-size="14" lengthAdjust="spacing" textLength="135.4678" x="409.5" y="135.8467">ActuatableProperty</text><line style="stroke:#181818;stroke-width:0.5;" x1="381.5" x2="546.9678" y1="147" y2="147"/><line style="stroke:#181818;stroke-width:0.5;" x1="381.5" x2="546.9678" y1="155" y2="155"/></g><!--class Sample--><g class="entity" data-qualified-name="Sample" data-source-line="2" id="ent0004"><rect fill="#F1F1F1" height="48" rx="2.5" ry="2.5" style="stroke:#181818;stroke-width:0.5;" width="84.4932" x="991" y="7"/><ellipse cx="1006" cy="23" fill="#ADD1B2" rx="11" ry="11" style="stroke:#181818;stroke-width:1;"/><path d="M1008.9688,28.6406 Q1008.3906,28.9375 1007.75,29.0781 Q1007.1094,29.2344 1006.4063,29.2344 Q1003.9063,29.2344 1002.5781,27.5938 Q1001.2656,25.9375 1001.2656,22.8125 Q1001.2656,19.6875 1002.5781,18.0313 Q1003.9063,16.375 1006.4063,16.375 Q1007.1094,16.375 1007.75,16.5313 Q1008.4063,16.6875 1008.9688,16.9844 L1008.9688,19.7031 Q1008.3438,19.125 1007.75,18.8594 Q1007.1563,18.5781 1006.5313,18.5781 Q1005.1875,18.5781 1004.5,19.6563 Q1003.8125,20.7188 1003.8125,22.8125 Q1003.8125,24.9063 1004.5,25.9844 Q1005.1875,27.0469 1006.5313,27.0469 Q1007.1563,27.0469 1007.75,26.7813 Q1008.3438,26.5 1008.9688,25.9219 L1008.9688,28.6406 Z " fill="#000000"/><text fill="#000000" font-family="sans-serif" font-size="14" lengthAdjust="spacing" textLength="52.4932" x="1020" y="27.8467">Sample</text><line style="stroke:#181818;stroke-width:0.5;" x1="992" x2="1074.4932" y1="39" y2="39"/><line style="stroke:#181818;stroke-width:0.5;" x1="992" x2="1074.4932" y1="47" y2="47"/></g><!--class MaterialSample--><g class="entity" data-qualified-name="MaterialSample" data-source-line="2" id="ent0005"><rect fill="#F1F1F1" height="48" rx="2.5" ry="2.5" style="stroke:#181818;stroke-width:0.5;" width="141.3682" x="790.5" y="115"/><ellipse cx="805.5" cy="131" fill="#ADD1B2" rx="11" ry="11" style="stroke:#181818;stroke-width:1;"/><path d="M808.4688,136.6406 Q807.8906,136.9375 807.25,137.0781 Q806.6094,137.2344 805.9063,137.2344 Q803.4063,137.2344 802.0781,135.5938 Q800.7656,133.9375 800.7656,130.8125 Q800.7656,127.6875 802.0781,126.0313 Q803.4063,124.375 805.9063,124.375 Q806.6094,124.375 807.25,124.5313 Q807.9063,124.6875 808.4688,124.9844 L808.4688,127.7031 Q807.8438,127.125 807.25,126.8594 Q806.6563,126.5781 806.0313,126.5781 Q804.6875,126.5781 804,127.6563 Q803.3125,128.7188 803.3125,130.8125 Q803.3125,132.9063 804,133.9844 Q804.6875,135.0469 806.0313,135.0469 Q806.6563,135.0469 807.25,134.7813 Q807.8438,134.5 808.4688,133.9219 L808.4688,136.6406 Z " fill="#000000"/><text fill="#000000" font-family="sans-serif" font-size="14" lengthAdjust="spacing" textLength="109.3682" x="819.5" y="135.8467">MaterialSample</text><line style="stroke:#181818;stroke-width:0.5;" x1="791.5" x2="930.8682" y1="147" y2="147"/><line style="stroke:#181818;stroke-width:0.5;" x1="791.5" x2="930.8682" y1="155" y2="155"/></g><!--class SpatialSample--><g class="entity" data-qualified-name="SpatialSample" data-source-line="3" id="ent0007"><rect fill="#F1F1F1" height="48" rx="2.5" ry="2.5" style="stroke:#181818;stroke-width:0.5;" width="132.6934" x="966.5" y="115"/><ellipse cx="981.5" cy="131" fill="#ADD1B2" rx="11" ry="11" style="stroke:#181818;stroke-width:1;"/><path d="M984.4688,136.6406 Q983.8906,136.9375 983.25,137.0781 Q982.6094,137.2344 981.9063,137.2344 Q979.4063,137.2344 978.0781,135.5938 Q976.7656,133.9375 976.7656,130.8125 Q976.7656,127.6875 978.0781,126.0313 Q979.4063,124.375 981.9063,124.375 Q982.6094,124.375 983.25,124.5313 Q983.9063,124.6875 984.4688,124.9844 L984.4688,127.7031 Q983.8438,127.125 983.25,126.8594 Q982.6563,126.5781 982.0313,126.5781 Q980.6875,126.5781 980,127.6563 Q979.3125,128.7188 979.3125,130.8125 Q979.3125,132.9063 980,133.9844 Q980.6875,135.0469 982.0313,135.0469 Q982.6563,135.0469 983.25,134.7813 Q983.8438,134.5 984.4688,133.9219 L984.4688,136.6406 Z " fill="#000000"/><text fill="#000000" font-family="sans-serif" font-size="14" lengthAdjust="spacing" textLength="100.6934" x="995.5" y="135.8467">SpatialSample</text><line style="stroke:#181818;stroke-width:0.5;" x1="967.5" x2="1098.1934" y1="147" y2="147"/><line style="stroke:#181818;stroke-width:0.5;" x1="967.5" x2="1098.1934" y1="155" y2="155"/></g><!--class StatisticalSample--><g class="entity" data-qualified-name="StatisticalSample" data-source-line="4" id="ent0009"><rect fill="#F1F1F1" height="48" rx="2.5" ry="2.5" style="stroke:#181818;stroke-width:0.5;" width="153.666" x="1135" y="115"/><ellipse cx="1150" cy="131" fill="#ADD1B2" rx="11" ry="11" style="stroke:#181818;stroke-width:1;"/><path d="M1152.9688,136.6406 Q1152.3906,136.9375 1151.75,137.0781 Q1151.1094,137.2344 1150.4063,137.2344 Q1147.9063,137.2344 1146.5781,135.5938 Q1145.2656,133.9375 1145.2656,130.8125 Q1145.2656,127.6875 1146.5781,126.0313 Q1147.9063,124.375 1150.4063,124.375 Q1151.1094,124.375 1151.75,124.5313 Q1152.4063,124.6875 1152.9688,124.9844 L1152.9688,127.7031 Q1152.3438,127.125 1151.75,126.8594 Q1151.1563,126.5781 1150.5313,126.5781 Q1149.1875,126.5781 1148.5,127.6563 Q1147.8125,128.7188 1147.8125,130.8125 Q1147.8125,132.9063 1148.5,133.9844 Q1149.1875,135.0469 1150.5313,135.0469 Q1151.1563,135.0469 1151.75,134.7813 Q1152.3438,134.5 1152.9688,133.9219 L1152.9688,136.6406 Z " fill="#000000"/><text fill="#000000" font-family="sans-serif" font-size="14" lengthAdjust="spacing" textLength="121.666" x="1164" y="135.8467">StatisticalSample</text><line style="stroke:#181818;stroke-width:0.5;" x1="1136" x2="1287.666" y1="147" y2="147"/><line style="stroke:#181818;stroke-width:0.5;" x1="1136" x2="1287.666" y1="155" y2="155"/></g><!--class ObservableProperty--><g class="entity" data-qualified-name="ObservableProperty" data-source-line="5" id="ent0011"><rect fill="#F1F1F1" height="48" rx="2.5" ry="2.5" style="stroke:#181818;stroke-width:0.5;" width="171.6172" x="583" y="115"/><ellipse cx="598" cy="131" fill="#ADD1B2" rx="11" ry="11" style="stroke:#181818;stroke-width:1;"/><path d="M600.9688,136.6406 Q600.3906,136.9375 599.75,137.0781 Q599.1094,137.2344 598.4063,137.2344 Q595.9063,137.2344 594.5781,135.5938 Q593.2656,133.9375 593.2656,130.8125 Q593.2656,127.6875 594.5781,126.0313 Q595.9063,124.375 598.4063,124.375 Q599.1094,124.375 599.75,124.5313 Q600.4063,124.6875 600.9688,124.9844 L600.9688,127.7031 Q600.3438,127.125 599.75,126.8594 Q599.1563,126.5781 598.5313,126.5781 Q597.1875,126.5781 596.5,127.6563 Q595.8125,128.7188 595.8125,130.8125 Q595.8125,132.9063 596.5,133.9844 Q597.1875,135.0469 598.5313,135.0469 Q599.1563,135.0469 599.75,134.7813 Q600.3438,134.5 600.9688,133.9219 L600.9688,136.6406 Z " fill="#000000"/><text fill="#000000" font-family="sans-serif" font-size="14" lengthAdjust="spacing" textLength="139.6172" x="612" y="135.8467">ObservableProperty</text><line style="stroke:#181818;stroke-width:0.5;" x1="584" x2="753.6172" y1="147" y2="147"/><line style="stroke:#181818;stroke-width:0.5;" x1="584" x2="753.6172" y1="155" y2="155"/></g><!--class Procedure--><g class="entity" data-qualified-name="Procedure" data-source-line="6" id="ent0013"><rect fill="#F1F1F1" height="48" rx="2.5" ry="2.5" style="stroke:#181818;stroke-width:0.5;" width="103.2031" x="1566.5" y="7"/><ellipse cx="1581.5" cy="23" fill="#ADD1B2" rx="11" ry="11" style="stroke:#181818;stroke-width:1;"/><path d="M1584.4688,28.6406 Q1583.8906,28.9375 1583.25,29.0781 Q1582.6094,29.2344 1581.9063,29.2344 Q1579.4063,29.2344 1578.0781,27.5938 Q1576.7656,25.9375 1576.7656,22.8125 Q1576.7656,19.6875 1578.0781,18.0313 Q1579.4063,16.375 1581.9063,16.375 Q1582.6094,16.375 1583.25,16.5313 Q1583.9063,16.6875 1584.4688,16.9844 L1584.4688,19.7031 Q1583.8438,19.125 1583.25,18.8594 Q1582.6563,18.5781 1582.0313,18.5781 Q1580.6875,18.5781 1580,19.6563 Q1579.3125,20.7188 1579.3125,22.8125 Q1579.3125,24.9063 1580,25.9844 Q1580.6875,27.0469 1582.0313,27.0469 Q1582.6563,27.0469 1583.25,26.7813 Q1583.8438,26.5 1584.4688,25.9219 L1584.4688,28.6406 Z " fill="#000000"/><text fill="#000000" font-family="sans-serif" font-size="14" lengthAdjust="spacing" textLength="71.2031" x="1595.5" y="27.8467">Procedure</text><line style="stroke:#181818;stroke-width:0.5;" x1="1567.5" x2="1668.7031" y1="39" y2="39"/><line style="stroke:#181818;stroke-width:0.5;" x1="1567.5" x2="1668.7031" y1="47" y2="47"/></g><!--class ActuatingProcedure--><g class="entity" data-qualified-name="ActuatingProcedure" data-source-line="6" id="ent0014"><rect fill="#F1F1F1" height="48" rx="2.5" ry="2.5" style="stroke:#181818;stroke-width:0.5;" width="170.5576" x="1324.5" y="115"/><ellipse cx="1339.5" cy="131" fill="#ADD1B2" rx="11" ry="11" style="stroke:#181818;stroke-width:1;"/><path d="M1342.4688,136.6406 Q1341.8906,136.9375 1341.25,137.0781 Q1340.6094,137.2344 1339.9063,137.2344 Q1337.4063,137.2344 1336.0781,135.5938 Q1334.7656,133.9375 1334.7656,130.8125 Q1334.7656,127.6875 1336.0781,126.0313 Q1337.4063,124.375 1339.9063,124.375 Q1340.6094,124.375 1341.25,124.5313 Q1341.9063,124.6875 1342.4688,124.9844 L1342.4688,127.7031 Q1341.8438,127.125 1341.25,126.8594 Q1340.6563,126.5781 1340.0313,126.5781 Q1338.6875,126.5781 1338,127.6563 Q1337.3125,128.7188 1337.3125,130.8125 Q1337.3125,132.9063 1338,133.9844 Q1338.6875,135.0469 1340.0313,135.0469 Q1340.6563,135.0469 1341.25,134.7813 Q1341.8438,134.5 1342.4688,133.9219 L1342.4688,136.6406 Z " fill="#000000"/><text fill="#000000" font-family="sans-serif" font-size="14" lengthAdjust="spacing" textLength="138.5576" x="1353.5" y="135.8467">ActuatingProcedure</text><line style="stroke:#181818;stroke-width:0.5;" x1="1325.5" x2="1494.0576" y1="147" y2="147"/><line style="stroke:#181818;stroke-width:0.5;" x1="1325.5" x2="1494.0576" y1="155" y2="155"/></g><!--class ObservingProcedure--><g class="entity" data-qualified-name="ObservingProcedure" data-source-line="7" id="ent0016"><rect fill="#F1F1F1" height="48" rx="2.5" ry="2.5" style="stroke:#181818;stroke-width:0.5;" width="174.707" x="1530.5" y="115"/><ellipse cx="1545.5" cy="131" fill="#ADD1B2" rx="11" ry="11" style="stroke:#181818;stroke-width:1;"/><path d="M1548.4688,136.6406 Q1547.8906,136.9375 1547.25,137.0781 Q1546.6094,137.2344 1545.9063,137.2344 Q1543.4063,137.2344 1542.0781,135.5938 Q1540.7656,133.9375 1540.7656,130.8125 Q1540.7656,127.6875 1542.0781,126.0313 Q1543.4063,124.375 1545.9063,124.375 Q1546.6094,124.375 1547.25,124.5313 Q1547.9063,124.6875 1548.4688,124.9844 L1548.4688,127.7031 Q1547.8438,127.125 1547.25,126.8594 Q1546.6563,126.5781 1546.0313,126.5781 Q1544.6875,126.5781 1544,127.6563 Q1543.3125,128.7188 1543.3125,130.8125 Q1543.3125,132.9063 1544,133.9844 Q1544.6875,135.0469 1546.0313,135.0469 Q1546.6563,135.0469 1547.25,134.7813 Q1547.8438,134.5 1548.4688,133.9219 L1548.4688,136.6406 Z " fill="#000000"/><text fill="#000000" font-family="sans-serif" font-size="14" lengthAdjust="spacing" textLength="142.707" x="1559.5" y="135.8467">ObservingProcedure</text><line style="stroke:#181818;stroke-width:0.5;" x1="1531.5" x2="1704.207" y1="147" y2="147"/><line style="stroke:#181818;stroke-width:0.5;" x1="1531.5" x2="1704.207" y1="155" y2="155"/></g><!--class SamplingProcedure--><g class="entity" data-qualified-name="SamplingProcedure" data-source-line="8" id="ent0018"><rect fill="#F1F1F1" height="48" rx="2.5" ry="2.5" style="stroke:#181818;stroke-width:0.5;" width="168.7324" x="1740.5" y="115"/><ellipse cx="1755.5" cy="131" fill="#ADD1B2" rx="11" ry="11" style="stroke:#181818;stroke-width:1;"/><path d="M1758.4688,136.6406 Q1757.8906,136.9375 1757.25,137.0781 Q1756.6094,137.2344 1755.9063,137.2344 Q1753.4063,137.2344 1752.0781,135.5938 Q1750.7656,133.9375 1750.7656,130.8125 Q1750.7656,127.6875 1752.0781,126.0313 Q1753.4063,124.375 1755.9063,124.375 Q1756.6094,124.375 1757.25,124.5313 Q1757.9063,124.6875 1758.4688,124.9844 L1758.4688,127.7031 Q1757.8438,127.125 1757.25,126.8594 Q1756.6563,126.5781 1756.0313,126.5781 Q1754.6875,126.5781 1754,127.6563 Q1753.3125,128.7188 1753.3125,130.8125 Q1753.3125,132.9063 1754,133.9844 Q1754.6875,135.0469 1756.0313,135.0469 Q1756.6563,135.0469 1757.25,134.7813 Q1757.8438,134.5 1758.4688,133.9219 L1758.4688,136.6406 Z " fill="#000000"/><text fill="#000000" font-family="sans-serif" font-size="14" lengthAdjust="spacing" textLength="136.7324" x="1769.5" y="135.8467">SamplingProcedure</text><line style="stroke:#181818;stroke-width:0.5;" x1="1741.5" x2="1908.2324" y1="147" y2="147"/><line style="stroke:#181818;stroke-width:0.5;" x1="1741.5" x2="1908.2324" y1="155" y2="155"/></g><!--class Asset--><g class="entity" data-qualified-name="Asset" data-source-line="9" id="ent0020"><rect fill="#F1F1F1" height="48" rx="2.5" ry="2.5" style="stroke:#181818;stroke-width:0.5;" width="70.2676" x="2016" y="7"/><ellipse cx="2031" cy="23" fill="#ADD1B2" rx="11" ry="11" style="stroke:#181818;stroke-width:1;"/><path d="M2033.9688,28.6406 Q2033.3906,28.9375 2032.75,29.0781 Q2032.1094,29.2344 2031.4063,29.2344 Q2028.9063,29.2344 2027.5781,27.5938 Q2026.2656,25.9375 2026.2656,22.8125 Q2026.2656,19.6875 2027.5781,18.0313 Q2028.9063,16.375 2031.4063,16.375 Q2032.1094,16.375 2032.75,16.5313 Q2033.4063,16.6875 2033.9688,16.9844 L2033.9688,19.7031 Q2033.3438,19.125 2032.75,18.8594 Q2032.1563,18.5781 2031.5313,18.5781 Q2030.1875,18.5781 2029.5,19.6563 Q2028.8125,20.7188 2028.8125,22.8125 Q2028.8125,24.9063 2029.5,25.9844 Q2030.1875,27.0469 2031.5313,27.0469 Q2032.1563,27.0469 2032.75,26.7813 Q2033.3438,26.5 2033.9688,25.9219 L2033.9688,28.6406 Z " fill="#000000"/><text fill="#000000" font-family="sans-serif" font-size="14" lengthAdjust="spacing" textLength="38.2676" x="2045" y="27.8467">Asset</text><line style="stroke:#181818;stroke-width:0.5;" x1="2017" x2="2085.2676" y1="39" y2="39"/><line style="stroke:#181818;stroke-width:0.5;" x1="2017" x2="2085.2676" y1="47" y2="47"/></g><!--class Platform--><g class="entity" data-qualified-name="Platform" data-source-line="9" id="ent0021"><rect fill="#F1F1F1" height="48" rx="2.5" ry="2.5" style="stroke:#181818;stroke-width:0.5;" width="91.2881" x="1944.5" y="115"/><ellipse cx="1959.5" cy="131" fill="#ADD1B2" rx="11" ry="11" style="stroke:#181818;stroke-width:1;"/><path d="M1962.4688,136.6406 Q1961.8906,136.9375 1961.25,137.0781 Q1960.6094,137.2344 1959.9063,137.2344 Q1957.4063,137.2344 1956.0781,135.5938 Q1954.7656,133.9375 1954.7656,130.8125 Q1954.7656,127.6875 1956.0781,126.0313 Q1957.4063,124.375 1959.9063,124.375 Q1960.6094,124.375 1961.25,124.5313 Q1961.9063,124.6875 1962.4688,124.9844 L1962.4688,127.7031 Q1961.8438,127.125 1961.25,126.8594 Q1960.6563,126.5781 1960.0313,126.5781 Q1958.6875,126.5781 1958,127.6563 Q1957.3125,128.7188 1957.3125,130.8125 Q1957.3125,132.9063 1958,133.9844 Q1958.6875,135.0469 1960.0313,135.0469 Q1960.6563,135.0469 1961.25,134.7813 Q1961.8438,134.5 1962.4688,133.9219 L1962.4688,136.6406 Z " fill="#000000"/><text fill="#000000" font-family="sans-serif" font-size="14" lengthAdjust="spacing" textLength="59.2881" x="1973.5" y="135.8467">Platform</text><line style="stroke:#181818;stroke-width:0.5;" x1="1945.5" x2="2034.7881" y1="147" y2="147"/><line style="stroke:#181818;stroke-width:0.5;" x1="1945.5" x2="2034.7881" y1="155" y2="155"/></g><!--class System--><g class="entity" data-qualified-name="System" data-source-line="10" id="ent0023"><rect fill="#F1F1F1" height="48" rx="2.5" ry="2.5" style="stroke:#181818;stroke-width:0.5;" width="84.2061" x="2071" y="115"/><ellipse cx="2086" cy="131" fill="#ADD1B2" rx="11" ry="11" style="stroke:#181818;stroke-width:1;"/><path d="M2088.9688,136.6406 Q2088.3906,136.9375 2087.75,137.0781 Q2087.1094,137.2344 2086.4063,137.2344 Q2083.9063,137.2344 2082.5781,135.5938 Q2081.2656,133.9375 2081.2656,130.8125 Q2081.2656,127.6875 2082.5781,126.0313 Q2083.9063,124.375 2086.4063,124.375 Q2087.1094,124.375 2087.75,124.5313 Q2088.4063,124.6875 2088.9688,124.9844 L2088.9688,127.7031 Q2088.3438,127.125 2087.75,126.8594 Q2087.1563,126.5781 2086.5313,126.5781 Q2085.1875,126.5781 2084.5,127.6563 Q2083.8125,128.7188 2083.8125,130.8125 Q2083.8125,132.9063 2084.5,133.9844 Q2085.1875,135.0469 2086.5313,135.0469 Q2087.1563,135.0469 2087.75,134.7813 Q2088.3438,134.5 2088.9688,133.9219 L2088.9688,136.6406 Z " fill="#000000"/><text fill="#000000" font-family="sans-serif" font-size="14" lengthAdjust="spacing" textLength="52.2061" x="2100" y="135.8467">System</text><line style="stroke:#181818;stroke-width:0.5;" x1="2072" x2="2154.2061" y1="147" y2="147"/><line style="stroke:#181818;stroke-width:0.5;" x1="2072" x2="2154.2061" y1="155" y2="155"/></g><!--class Sampler--><g class="entity" data-qualified-name="Sampler" data-source-line="10" id="ent0024"><rect fill="#F1F1F1" height="48" rx="2.5" ry="2.5" style="stroke:#181818;stroke-width:0.5;" width="90.249" x="1942" y="223"/><ellipse cx="1957" cy="239" fill="#ADD1B2" rx="11" ry="11" style="stroke:#181818;stroke-width:1;"/><path d="M1959.9688,244.6406 Q1959.3906,244.9375 1958.75,245.0781 Q1958.1094,245.2344 1957.4063,245.2344 Q1954.9063,245.2344 1953.5781,243.5938 Q1952.2656,241.9375 1952.2656,238.8125 Q1952.2656,235.6875 1953.5781,234.0313 Q1954.9063,232.375 1957.4063,232.375 Q1958.1094,232.375 1958.75,232.5313 Q1959.4063,232.6875 1959.9688,232.9844 L1959.9688,235.7031 Q1959.3438,235.125 1958.75,234.8594 Q1958.1563,234.5781 1957.5313,234.5781 Q1956.1875,234.5781 1955.5,235.6563 Q1954.8125,236.7188 1954.8125,238.8125 Q1954.8125,240.9063 1955.5,241.9844 Q1956.1875,243.0469 1957.5313,243.0469 Q1958.1563,243.0469 1958.75,242.7813 Q1959.3438,242.5 1959.9688,241.9219 L1959.9688,244.6406 Z " fill="#000000"/><text fill="#000000" font-family="sans-serif" font-size="14" lengthAdjust="spacing" textLength="58.249" x="1971" y="243.8467">Sampler</text><line style="stroke:#181818;stroke-width:0.5;" x1="1943" x2="2031.249" y1="255" y2="255"/><line style="stroke:#181818;stroke-width:0.5;" x1="1943" x2="2031.249" y1="263" y2="263"/></g><!--class Actuator--><g class="entity" data-qualified-name="Actuator" data-source-line="11" id="ent0026"><rect fill="#F1F1F1" height="48" rx="2.5" ry="2.5" style="stroke:#181818;stroke-width:0.5;" width="92.0264" x="2067" y="223"/><ellipse cx="2082" cy="239" fill="#ADD1B2" rx="11" ry="11" style="stroke:#181818;stroke-width:1;"/><path d="M2084.9688,244.6406 Q2084.3906,244.9375 2083.75,245.0781 Q2083.1094,245.2344 2082.4063,245.2344 Q2079.9063,245.2344 2078.5781,243.5938 Q2077.2656,241.9375 2077.2656,238.8125 Q2077.2656,235.6875 2078.5781,234.0313 Q2079.9063,232.375 2082.4063,232.375 Q2083.1094,232.375 2083.75,232.5313 Q2084.4063,232.6875 2084.9688,232.9844 L2084.9688,235.7031 Q2084.3438,235.125 2083.75,234.8594 Q2083.1563,234.5781 2082.5313,234.5781 Q2081.1875,234.5781 2080.5,235.6563 Q2079.8125,236.7188 2079.8125,238.8125 Q2079.8125,240.9063 2080.5,241.9844 Q2081.1875,243.0469 2082.5313,243.0469 Q2083.1563,243.0469 2083.75,242.7813 Q2084.3438,242.5 2084.9688,241.9219 L2084.9688,244.6406 Z " fill="#000000"/><text fill="#000000" font-family="sans-serif" font-size="14" lengthAdjust="spacing" textLength="60.0264" x="2096" y="243.8467">Actuator</text><line style="stroke:#181818;stroke-width:0.5;" x1="2068" x2="2158.0264" y1="255" y2="255"/><line style="stroke:#181818;stroke-width:0.5;" x1="2068" x2="2158.0264" y1="263" y2="263"/></g><!--class Execution--><g class="entity" data-qualified-name="Execution" data-source-line="13" id="ent0029"><rect fill="#F1F1F1" height="48" rx="2.5" ry="2.5" style="stroke:#181818;stroke-width:0.5;" width="101.1318" x="2322.5" y="7"/><ellipse cx="2337.5" cy="23" fill="#ADD1B2" rx="11" ry="11" style="stroke:#181818;stroke-width:1;"/><path d="M2340.4688,28.6406 Q2339.8906,28.9375 2339.25,29.0781 Q2338.6094,29.2344 2337.9063,29.2344 Q2335.4063,29.2344 2334.0781,27.5938 Q2332.7656,25.9375 2332.7656,22.8125 Q2332.7656,19.6875 2334.0781,18.0313 Q2335.4063,16.375 2337.9063,16.375 Q2338.6094,16.375 2339.25,16.5313 Q2339.9063,16.6875 2340.4688,16.9844 L2340.4688,19.7031 Q2339.8438,19.125 2339.25,18.8594 Q2338.6563,18.5781 2338.0313,18.5781 Q2336.6875,18.5781 2336,19.6563 Q2335.3125,20.7188 2335.3125,22.8125 Q2335.3125,24.9063 2336,25.9844 Q2336.6875,27.0469 2338.0313,27.0469 Q2338.6563,27.0469 2339.25,26.7813 Q2339.8438,26.5 2340.4688,25.9219 L2340.4688,28.6406 Z " fill="#000000"/><text fill="#000000" font-family="sans-serif" font-size="14" lengthAdjust="spacing" textLength="69.1318" x="2351.5" y="27.8467">Execution</text><line style="stroke:#181818;stroke-width:0.5;" x1="2323.5" x2="2422.6318" y1="39" y2="39"/><line style="stroke:#181818;stroke-width:0.5;" x1="2323.5" x2="2422.6318" y1="47" y2="47"/></g><!--class Sampling--><g class="entity" data-qualified-name="Sampling" data-source-line="13" id="ent0030"><rect fill="#F1F1F1" height="48" rx="2.5" ry="2.5" style="stroke:#181818;stroke-width:0.5;" width="97.5293" x="2190" y="115"/><ellipse cx="2205" cy="131" fill="#ADD1B2" rx="11" ry="11" style="stroke:#181818;stroke-width:1;"/><path d="M2207.9688,136.6406 Q2207.3906,136.9375 2206.75,137.0781 Q2206.1094,137.2344 2205.4063,137.2344 Q2202.9063,137.2344 2201.5781,135.5938 Q2200.2656,133.9375 2200.2656,130.8125 Q2200.2656,127.6875 2201.5781,126.0313 Q2202.9063,124.375 2205.4063,124.375 Q2206.1094,124.375 2206.75,124.5313 Q2207.4063,124.6875 2207.9688,124.9844 L2207.9688,127.7031 Q2207.3438,127.125 2206.75,126.8594 Q2206.1563,126.5781 2205.5313,126.5781 Q2204.1875,126.5781 2203.5,127.6563 Q2202.8125,128.7188 2202.8125,130.8125 Q2202.8125,132.9063 2203.5,133.9844 Q2204.1875,135.0469 2205.5313,135.0469 Q2206.1563,135.0469 2206.75,134.7813 Q2207.3438,134.5 2207.9688,133.9219 L2207.9688,136.6406 Z " fill="#000000"/><text fill="#000000" font-family="sans-serif" font-size="14" lengthAdjust="spacing" textLength="65.5293" x="2219" y="135.8467">Sampling</text><line style="stroke:#181818;stroke-width:0.5;" x1="2191" x2="2286.5293" y1="147" y2="147"/><line style="stroke:#181818;stroke-width:0.5;" x1="2191" x2="2286.5293" y1="155" y2="155"/></g><!--class ExecutionCollection--><g class="entity" data-qualified-name="ExecutionCollection" data-source-line="14" id="ent0032"><rect fill="#F1F1F1" height="48" rx="2.5" ry="2.5" style="stroke:#181818;stroke-width:0.5;" width="170.3799" x="2810" y="7"/><ellipse cx="2825" cy="23" fill="#ADD1B2" rx="11" ry="11" style="stroke:#181818;stroke-width:1;"/><path d="M2827.9688,28.6406 Q2827.3906,28.9375 2826.75,29.0781 Q2826.1094,29.2344 2825.4063,29.2344 Q2822.9063,29.2344 2821.5781,27.5938 Q2820.2656,25.9375 2820.2656,22.8125 Q2820.2656,19.6875 2821.5781,18.0313 Q2822.9063,16.375 2825.4063,16.375 Q2826.1094,16.375 2826.75,16.5313 Q2827.4063,16.6875 2827.9688,16.9844 L2827.9688,19.7031 Q2827.3438,19.125 2826.75,18.8594 Q2826.1563,18.5781 2825.5313,18.5781 Q2824.1875,18.5781 2823.5,19.6563 Q2822.8125,20.7188 2822.8125,22.8125 Q2822.8125,24.9063 2823.5,25.9844 Q2824.1875,27.0469 2825.5313,27.0469 Q2826.1563,27.0469 2826.75,26.7813 Q2827.3438,26.5 2827.9688,25.9219 L2827.9688,28.6406 Z " fill="#000000"/><text fill="#000000" font-family="sans-serif" font-size="14" lengthAdjust="spacing" textLength="138.3799" x="2839" y="27.8467">ExecutionCollection</text><line style="stroke:#181818;stroke-width:0.5;" x1="2811" x2="2979.3799" y1="39" y2="39"/><line style="stroke:#181818;stroke-width:0.5;" x1="2811" x2="2979.3799" y1="47" y2="47"/></g><!--class SamplingCollection--><g class="entity" data-qualified-name="SamplingCollection" data-source-line="14" id="ent0033"><rect fill="#F1F1F1" height="48" rx="2.5" ry="2.5" style="stroke:#181818;stroke-width:0.5;" width="166.7773" x="2609.5" y="115"/><ellipse cx="2624.5" cy="131" fill="#ADD1B2" rx="11" ry="11" style="stroke:#181818;stroke-width:1;"/><path d="M2627.4688,136.6406 Q2626.8906,136.9375 2626.25,137.0781 Q2625.6094,137.2344 2624.9063,137.2344 Q2622.4063,137.2344 2621.0781,135.5938 Q2619.7656,133.9375 2619.7656,130.8125 Q2619.7656,127.6875 2621.0781,126.0313 Q2622.4063,124.375 2624.9063,124.375 Q2625.6094,124.375 2626.25,124.5313 Q2626.9063,124.6875 2627.4688,124.9844 L2627.4688,127.7031 Q2626.8438,127.125 2626.25,126.8594 Q2625.6563,126.5781 2625.0313,126.5781 Q2623.6875,126.5781 2623,127.6563 Q2622.3125,128.7188 2622.3125,130.8125 Q2622.3125,132.9063 2623,133.9844 Q2623.6875,135.0469 2625.0313,135.0469 Q2625.6563,135.0469 2626.25,134.7813 Q2626.8438,134.5 2627.4688,133.9219 L2627.4688,136.6406 Z " fill="#000000"/><text fill="#000000" font-family="sans-serif" font-size="14" lengthAdjust="spacing" textLength="134.7773" x="2638.5" y="135.8467">SamplingCollection</text><line style="stroke:#181818;stroke-width:0.5;" x1="2610.5" x2="2775.2773" y1="147" y2="147"/><line style="stroke:#181818;stroke-width:0.5;" x1="2610.5" x2="2775.2773" y1="155" y2="155"/></g><!--class Actuation--><g class="entity" data-qualified-name="Actuation" data-source-line="15" id="ent0035"><rect fill="#F1F1F1" height="48" rx="2.5" ry="2.5" style="stroke:#181818;stroke-width:0.5;" width="99.0332" x="2323.5" y="115"/><ellipse cx="2338.5" cy="131" fill="#ADD1B2" rx="11" ry="11" style="stroke:#181818;stroke-width:1;"/><path d="M2341.4688,136.6406 Q2340.8906,136.9375 2340.25,137.0781 Q2339.6094,137.2344 2338.9063,137.2344 Q2336.4063,137.2344 2335.0781,135.5938 Q2333.7656,133.9375 2333.7656,130.8125 Q2333.7656,127.6875 2335.0781,126.0313 Q2336.4063,124.375 2338.9063,124.375 Q2339.6094,124.375 2340.25,124.5313 Q2340.9063,124.6875 2341.4688,124.9844 L2341.4688,127.7031 Q2340.8438,127.125 2340.25,126.8594 Q2339.6563,126.5781 2339.0313,126.5781 Q2337.6875,126.5781 2337,127.6563 Q2336.3125,128.7188 2336.3125,130.8125 Q2336.3125,132.9063 2337,133.9844 Q2337.6875,135.0469 2339.0313,135.0469 Q2339.6563,135.0469 2340.25,134.7813 Q2340.8438,134.5 2341.4688,133.9219 L2341.4688,136.6406 Z " fill="#000000"/><text fill="#000000" font-family="sans-serif" font-size="14" lengthAdjust="spacing" textLength="67.0332" x="2352.5" y="135.8467">Actuation</text><line style="stroke:#181818;stroke-width:0.5;" x1="2324.5" x2="2421.5332" y1="147" y2="147"/><line style="stroke:#181818;stroke-width:0.5;" x1="2324.5" x2="2421.5332" y1="155" y2="155"/></g><!--class Sensor--><g class="entity" data-qualified-name="Sensor" data-source-line="16" id="ent0037"><rect fill="#F1F1F1" height="48" rx="2.5" ry="2.5" style="stroke:#181818;stroke-width:0.5;" width="79.9883" x="2194" y="223"/><ellipse cx="2209" cy="239" fill="#ADD1B2" rx="11" ry="11" style="stroke:#181818;stroke-width:1;"/><path d="M2211.9688,244.6406 Q2211.3906,244.9375 2210.75,245.0781 Q2210.1094,245.2344 2209.4063,245.2344 Q2206.9063,245.2344 2205.5781,243.5938 Q2204.2656,241.9375 2204.2656,238.8125 Q2204.2656,235.6875 2205.5781,234.0313 Q2206.9063,232.375 2209.4063,232.375 Q2210.1094,232.375 2210.75,232.5313 Q2211.4063,232.6875 2211.9688,232.9844 L2211.9688,235.7031 Q2211.3438,235.125 2210.75,234.8594 Q2210.1563,234.5781 2209.5313,234.5781 Q2208.1875,234.5781 2207.5,235.6563 Q2206.8125,236.7188 2206.8125,238.8125 Q2206.8125,240.9063 2207.5,241.9844 Q2208.1875,243.0469 2209.5313,243.0469 Q2210.1563,243.0469 2210.75,242.7813 Q2211.3438,242.5 2211.9688,241.9219 L2211.9688,244.6406 Z " fill="#000000"/><text fill="#000000" font-family="sans-serif" font-size="14" lengthAdjust="spacing" textLength="47.9883" x="2223" y="243.8467">Sensor</text><line style="stroke:#181818;stroke-width:0.5;" x1="2195" x2="2272.9883" y1="255" y2="255"/><line style="stroke:#181818;stroke-width:0.5;" x1="2195" x2="2272.9883" y1="263" y2="263"/></g><!--class ActuationCollection--><g class="entity" data-qualified-name="ActuationCollection" data-source-line="17" id="ent0039"><rect fill="#F1F1F1" height="48" rx="2.5" ry="2.5" style="stroke:#181818;stroke-width:0.5;" width="168.2813" x="2811" y="115"/><ellipse cx="2826" cy="131" fill="#ADD1B2" rx="11" ry="11" style="stroke:#181818;stroke-width:1;"/><path d="M2828.9688,136.6406 Q2828.3906,136.9375 2827.75,137.0781 Q2827.1094,137.2344 2826.4063,137.2344 Q2823.9063,137.2344 2822.5781,135.5938 Q2821.2656,133.9375 2821.2656,130.8125 Q2821.2656,127.6875 2822.5781,126.0313 Q2823.9063,124.375 2826.4063,124.375 Q2827.1094,124.375 2827.75,124.5313 Q2828.4063,124.6875 2828.9688,124.9844 L2828.9688,127.7031 Q2828.3438,127.125 2827.75,126.8594 Q2827.1563,126.5781 2826.5313,126.5781 Q2825.1875,126.5781 2824.5,127.6563 Q2823.8125,128.7188 2823.8125,130.8125 Q2823.8125,132.9063 2824.5,133.9844 Q2825.1875,135.0469 2826.5313,135.0469 Q2827.1563,135.0469 2827.75,134.7813 Q2828.3438,134.5 2828.9688,133.9219 L2828.9688,136.6406 Z " fill="#000000"/><text fill="#000000" font-family="sans-serif" font-size="14" lengthAdjust="spacing" textLength="136.2813" x="2840" y="135.8467">ActuationCollection</text><line style="stroke:#181818;stroke-width:0.5;" x1="2812" x2="2978.2813" y1="147" y2="147"/><line style="stroke:#181818;stroke-width:0.5;" x1="2812" x2="2978.2813" y1="155" y2="155"/></g><!--class ObservationCollection--><g class="entity" data-qualified-name="ObservationCollection" data-source-line="18" id="ent0041"><rect fill="#F1F1F1" height="48" rx="2.5" ry="2.5" style="stroke:#181818;stroke-width:0.5;" width="186.499" x="3014" y="115"/><ellipse cx="3029" cy="131" fill="#ADD1B2" rx="11" ry="11" style="stroke:#181818;stroke-width:1;"/><path d="M3031.9688,136.6406 Q3031.3906,136.9375 3030.75,137.0781 Q3030.1094,137.2344 3029.4063,137.2344 Q3026.9063,137.2344 3025.5781,135.5938 Q3024.2656,133.9375 3024.2656,130.8125 Q3024.2656,127.6875 3025.5781,126.0313 Q3026.9063,124.375 3029.4063,124.375 Q3030.1094,124.375 3030.75,124.5313 Q3031.4063,124.6875 3031.9688,124.9844 L3031.9688,127.7031 Q3031.3438,127.125 3030.75,126.8594 Q3030.1563,126.5781 3029.5313,126.5781 Q3028.1875,126.5781 3027.5,127.6563 Q3026.8125,128.7188 3026.8125,130.8125 Q3026.8125,132.9063 3027.5,133.9844 Q3028.1875,135.0469 3029.5313,135.0469 Q3030.1563,135.0469 3030.75,134.7813 Q3031.3438,134.5 3031.9688,133.9219 L3031.9688,136.6406 Z " fill="#000000"/><text fill="#000000" font-family="sans-serif" font-size="14" lengthAdjust="spacing" textLength="154.499" x="3043" y="135.8467">ObservationCollection</text><line style="stroke:#181818;stroke-width:0.5;" x1="3015" x2="3199.499" y1="147" y2="147"/><line style="stroke:#181818;stroke-width:0.5;" x1="3015" x2="3199.499" y1="155" y2="155"/></g><!--class Observation--><g class="entity" data-qualified-name="Observation" data-source-line="19" id="ent0043"><rect fill="#F1F1F1" height="48" rx="2.5" ry="2.5" style="stroke:#181818;stroke-width:0.5;" width="117.251" x="2457.5" y="115"/><ellipse cx="2472.5" cy="131" fill="#ADD1B2" rx="11" ry="11" style="stroke:#181818;stroke-width:1;"/><path d="M2475.4688,136.6406 Q2474.8906,136.9375 2474.25,137.0781 Q2473.6094,137.2344 2472.9063,137.2344 Q2470.4063,137.2344 2469.0781,135.5938 Q2467.7656,133.9375 2467.7656,130.8125 Q2467.7656,127.6875 2469.0781,126.0313 Q2470.4063,124.375 2472.9063,124.375 Q2473.6094,124.375 2474.25,124.5313 Q2474.9063,124.6875 2475.4688,124.9844 L2475.4688,127.7031 Q2474.8438,127.125 2474.25,126.8594 Q2473.6563,126.5781 2473.0313,126.5781 Q2471.6875,126.5781 2471,127.6563 Q2470.3125,128.7188 2470.3125,130.8125 Q2470.3125,132.9063 2471,133.9844 Q2471.6875,135.0469 2473.0313,135.0469 Q2473.6563,135.0469 2474.25,134.7813 Q2474.8438,134.5 2475.4688,133.9219 L2475.4688,136.6406 Z " fill="#000000"/><text fill="#000000" font-family="sans-serif" font-size="14" lengthAdjust="spacing" textLength="85.251" x="2486.5" y="135.8467">Observation</text><line style="stroke:#181818;stroke-width:0.5;" x1="2458.5" x2="2573.751" y1="147" y2="147"/><line style="stroke:#181818;stroke-width:0.5;" x1="2458.5" x2="2573.751" y1="155" y2="155"/></g><!--class Output--><g class="entity" data-qualified-name="Output" data-source-line="20" id="ent0045"><rect fill="#F1F1F1" height="48" rx="2.5" ry="2.5" style="stroke:#181818;stroke-width:0.5;" width="80.6309" x="43.5" y="7"/><ellipse cx="58.5" cy="23" fill="#ADD1B2" rx="11" ry="11" style="stroke:#181818;stroke-width:1;"/><path d="M61.4688,28.6406 Q60.8906,28.9375 60.25,29.0781 Q59.6094,29.2344 58.9063,29.2344 Q56.4063,29.2344 55.0781,27.5938 Q53.7656,25.9375 53.7656,22.8125 Q53.7656,19.6875 55.0781,18.0313 Q56.4063,16.375 58.9063,16.375 Q59.6094,16.375 60.25,16.5313 Q60.9063,16.6875 61.4688,16.9844 L61.4688,19.7031 Q60.8438,19.125 60.25,18.8594 Q59.6563,18.5781 59.0313,18.5781 Q57.6875,18.5781 57,19.6563 Q56.3125,20.7188 56.3125,22.8125 Q56.3125,24.9063 57,25.9844 Q57.6875,27.0469 59.0313,27.0469 Q59.6563,27.0469 60.25,26.7813 Q60.8438,26.5 61.4688,25.9219 L61.4688,28.6406 Z " fill="#000000"/><text fill="#000000" font-family="sans-serif" font-size="14" lengthAdjust="spacing" textLength="48.6309" x="72.5" y="27.8467">Output</text><line style="stroke:#181818;stroke-width:0.5;" x1="44.5" x2="123.1309" y1="39" y2="39"/><line style="stroke:#181818;stroke-width:0.5;" x1="44.5" x2="123.1309" y1="47" y2="47"/></g><!--class FeatureOfInterest--><g class="entity" data-qualified-name="FeatureOfInterest" data-source-line="22" id="ent0046"><rect fill="#F1F1F1" height="48" rx="2.5" ry="2.5" style="stroke:#181818;stroke-width:0.5;" width="156.1816" x="160" y="7"/><ellipse cx="175" cy="23" fill="#ADD1B2" rx="11" ry="11" style="stroke:#181818;stroke-width:1;"/><path d="M177.9688,28.6406 Q177.3906,28.9375 176.75,29.0781 Q176.1094,29.2344 175.4063,29.2344 Q172.9063,29.2344 171.5781,27.5938 Q170.2656,25.9375 170.2656,22.8125 Q170.2656,19.6875 171.5781,18.0313 Q172.9063,16.375 175.4063,16.375 Q176.1094,16.375 176.75,16.5313 Q177.4063,16.6875 177.9688,16.9844 L177.9688,19.7031 Q177.3438,19.125 176.75,18.8594 Q176.1563,18.5781 175.5313,18.5781 Q174.1875,18.5781 173.5,19.6563 Q172.8125,20.7188 172.8125,22.8125 Q172.8125,24.9063 173.5,25.9844 Q174.1875,27.0469 175.5313,27.0469 Q176.1563,27.0469 176.75,26.7813 Q177.3438,26.5 177.9688,25.9219 L177.9688,28.6406 Z " fill="#000000"/><text fill="#000000" font-family="sans-serif" font-size="14" lengthAdjust="spacing" textLength="124.1816" x="189" y="27.8467">FeatureOfInterest</text><line style="stroke:#181818;stroke-width:0.5;" x1="161" x2="315.1816" y1="39" y2="39"/><line style="stroke:#181818;stroke-width:0.5;" x1="161" x2="315.1816" y1="47" y2="47"/></g><!--class Deployment--><g class="entity" data-qualified-name="Deployment" data-source-line="23" id="ent0047"><rect fill="#F1F1F1" height="48" rx="2.5" ry="2.5" style="stroke:#181818;stroke-width:0.5;" width="117.6338" x="351" y="7"/><ellipse cx="366" cy="23" fill="#ADD1B2" rx="11" ry="11" style="stroke:#181818;stroke-width:1;"/><path d="M368.9688,28.6406 Q368.3906,28.9375 367.75,29.0781 Q367.1094,29.2344 366.4063,29.2344 Q363.9063,29.2344 362.5781,27.5938 Q361.2656,25.9375 361.2656,22.8125 Q361.2656,19.6875 362.5781,18.0313 Q363.9063,16.375 366.4063,16.375 Q367.1094,16.375 367.75,16.5313 Q368.4063,16.6875 368.9688,16.9844 L368.9688,19.7031 Q368.3438,19.125 367.75,18.8594 Q367.1563,18.5781 366.5313,18.5781 Q365.1875,18.5781 364.5,19.6563 Q363.8125,20.7188 363.8125,22.8125 Q363.8125,24.9063 364.5,25.9844 Q365.1875,27.0469 366.5313,27.0469 Q367.1563,27.0469 367.75,26.7813 Q368.3438,26.5 368.9688,25.9219 L368.9688,28.6406 Z " fill="#000000"/><text fill="#000000" font-family="sans-serif" font-size="14" lengthAdjust="spacing" textLength="85.6338" x="380" y="27.8467">Deployment</text><line style="stroke:#181818;stroke-width:0.5;" x1="352" x2="467.6338" y1="39" y2="39"/><line style="stroke:#181818;stroke-width:0.5;" x1="352" x2="467.6338" y1="47" y2="47"/></g><!--class Stimulus--><g class="entity" data-qualified-name="Stimulus" data-source-line="26" id="ent0048"><rect fill="#F1F1F1" height="48" rx="2.5" ry="2.5" style="stroke:#181818;stroke-width:0.5;" width="92.833" x="37.5" y="115"/><ellipse cx="52.5" cy="131" fill="#ADD1B2" rx="11" ry="11" style="stroke:#181818;stroke-width:1;"/><path d="M55.4688,136.6406 Q54.8906,136.9375 54.25,137.0781 Q53.6094,137.2344 52.9063,137.2344 Q50.4063,137.2344 49.0781,135.5938 Q47.7656,133.9375 47.7656,130.8125 Q47.7656,127.6875 49.0781,126.0313 Q50.4063,124.375 52.9063,124.375 Q53.6094,124.375 54.25,124.5313 Q54.9063,124.6875 55.4688,124.9844 L55.4688,127.7031 Q54.8438,127.125 54.25,126.8594 Q53.6563,126.5781 53.0313,126.5781 Q51.6875,126.5781 51,127.6563 Q50.3125,128.7188 50.3125,130.8125 Q50.3125,132.9063 51,133.9844 Q51.6875,135.0469 53.0313,135.0469 Q53.6563,135.0469 54.25,134.7813 Q54.8438,134.5 55.4688,133.9219 L55.4688,136.6406 Z " fill="#000000"/><text fill="#000000" font-family="sans-serif" font-size="14" lengthAdjust="spacing" textLength="60.833" x="66.5" y="135.8467">Stimulus</text><line style="stroke:#181818;stroke-width:0.5;" x1="38.5" x2="129.333" y1="147" y2="147"/><line style="stroke:#181818;stroke-width:0.5;" x1="38.5" x2="129.333" y1="155" y2="155"/></g><!--class Input--><g class="entity" data-qualified-name="Input" data-source-line="27" id="ent0049"><rect fill="#F1F1F1" height="48" rx="2.5" ry="2.5" style="stroke:#181818;stroke-width:0.5;" width="68.251" x="166" y="115"/><ellipse cx="181" cy="131" fill="#ADD1B2" rx="11" ry="11" style="stroke:#181818;stroke-width:1;"/><path d="M183.9688,136.6406 Q183.3906,136.9375 182.75,137.0781 Q182.1094,137.2344 181.4063,137.2344 Q178.9063,137.2344 177.5781,135.5938 Q176.2656,133.9375 176.2656,130.8125 Q176.2656,127.6875 177.5781,126.0313 Q178.9063,124.375 181.4063,124.375 Q182.1094,124.375 182.75,124.5313 Q183.4063,124.6875 183.9688,124.9844 L183.9688,127.7031 Q183.3438,127.125 182.75,126.8594 Q182.1563,126.5781 181.5313,126.5781 Q180.1875,126.5781 179.5,127.6563 Q178.8125,128.7188 178.8125,130.8125 Q178.8125,132.9063 179.5,133.9844 Q180.1875,135.0469 181.5313,135.0469 Q182.1563,135.0469 182.75,134.7813 Q183.3438,134.5 183.9688,133.9219 L183.9688,136.6406 Z " fill="#000000"/><text fill="#000000" font-family="sans-serif" font-size="14" lengthAdjust="spacing" textLength="36.251" x="195" y="135.8467">Input</text><line style="stroke:#181818;stroke-width:0.5;" x1="167" x2="233.251" y1="147" y2="147"/><line style="stroke:#181818;stroke-width:0.5;" x1="167" x2="233.251" y1="155" y2="155"/></g><!--class Result--><g class="entity" data-qualified-name="Result" data-source-line="29" id="ent0050"><rect fill="#F1F1F1" height="48" rx="2.5" ry="2.5" style="stroke:#181818;stroke-width:0.5;" width="75.8867" x="269" y="115"/><ellipse cx="284" cy="131" fill="#ADD1B2" rx="11" ry="11" style="stroke:#181818;stroke-width:1;"/><path d="M286.9688,136.6406 Q286.3906,136.9375 285.75,137.0781 Q285.1094,137.2344 284.4063,137.2344 Q281.9063,137.2344 280.5781,135.5938 Q279.2656,133.9375 279.2656,130.8125 Q279.2656,127.6875 280.5781,126.0313 Q281.9063,124.375 284.4063,124.375 Q285.1094,124.375 285.75,124.5313 Q286.4063,124.6875 286.9688,124.9844 L286.9688,127.7031 Q286.3438,127.125 285.75,126.8594 Q285.1563,126.5781 284.5313,126.5781 Q283.1875,126.5781 282.5,127.6563 Q281.8125,128.7188 281.8125,130.8125 Q281.8125,132.9063 282.5,133.9844 Q283.1875,135.0469 284.5313,135.0469 Q285.1563,135.0469 285.75,134.7813 Q286.3438,134.5 286.9688,133.9219 L286.9688,136.6406 Z " fill="#000000"/><text fill="#000000" font-family="sans-serif" font-size="14" lengthAdjust="spacing" textLength="43.8867" x="298" y="135.8467">Result</text><line style="stroke:#181818;stroke-width:0.5;" x1="270" x2="343.8867" y1="147" y2="147"/><line style="stroke:#181818;stroke-width:0.5;" x1="270" x2="343.8867" y1="155" y2="155"/></g><!--class SampleCollection--><g class="entity" data-qualified-name="SampleCollection" data-source-line="30" id="ent0051"><rect fill="#F1F1F1" height="48" rx="2.5" ry="2.5" style="stroke:#181818;stroke-width:0.5;" width="153.7412" x="7" y="223"/><ellipse cx="22" cy="239" fill="#ADD1B2" rx="11" ry="11" style="stroke:#181818;stroke-width:1;"/><path d="M24.9688,244.6406 Q24.3906,244.9375 23.75,245.0781 Q23.1094,245.2344 22.4063,245.2344 Q19.9063,245.2344 18.5781,243.5938 Q17.2656,241.9375 17.2656,238.8125 Q17.2656,235.6875 18.5781,234.0313 Q19.9063,232.375 22.4063,232.375 Q23.1094,232.375 23.75,232.5313 Q24.4063,232.6875 24.9688,232.9844 L24.9688,235.7031 Q24.3438,235.125 23.75,234.8594 Q23.1563,234.5781 22.5313,234.5781 Q21.1875,234.5781 20.5,235.6563 Q19.8125,236.7188 19.8125,238.8125 Q19.8125,240.9063 20.5,241.9844 Q21.1875,243.0469 22.5313,243.0469 Q23.1563,243.0469 23.75,242.7813 Q24.3438,242.5 24.9688,241.9219 L24.9688,244.6406 Z " fill="#000000"/><text fill="#000000" font-family="sans-serif" font-size="14" lengthAdjust="spacing" textLength="121.7412" x="36" y="243.8467">SampleCollection</text><line style="stroke:#181818;stroke-width:0.5;" x1="8" x2="159.7412" y1="255" y2="255"/><line style="stroke:#181818;stroke-width:0.5;" x1="8" x2="159.7412" y1="263" y2="263"/></g><!--reverse link Property to ActuatableProperty--><g class="link" data-entity-1="ent0001" data-entity-2="ent0002" data-link-type="extension" data-source-line="1" id="lnk3"><path codeLine="1" d="M563.7535,65.5743 C539.3435,83.2943 520.32,97.11 495.87,114.86" fill="none" id="Property-backto-ActuatableProperty" style="stroke:#181818;stroke-width:1;"/><polygon fill="none" points="578.32,55,560.2287,60.7188,567.2782,70.4298,578.32,55" style="stroke:#181818;stroke-width:1;stroke-linejoin:miter;stroke-miterlimit:10;"/></g><!--reverse link Sample to MaterialSample--><g class="link" data-entity-1="ent0004" data-entity-2="ent0005" data-link-type="extension" data-source-line="2" id="lnk6"><path codeLine="2" d="M980.3567,64.4445 C951.6067,82.1645 927.35,97.11 898.55,114.86" fill="none" id="Sample-backto-MaterialSample" style="stroke:#181818;stroke-width:1;"/><polygon fill="none" points="995.68,55,977.2086,59.3367,983.5049,69.5522,995.68,55" style="stroke:#181818;stroke-width:1;stroke-linejoin:miter;stroke-miterlimit:10;"/></g><!--reverse link Sample to SpatialSample--><g class="link" data-entity-1="ent0004" data-entity-2="ent0007" data-link-type="extension" data-source-line="3" id="lnk8"><path codeLine="3" d="M1033,73 C1033,90.66 1033,96.94 1033,114.68" fill="none" id="Sample-backto-SpatialSample" style="stroke:#181818;stroke-width:1;"/><polygon fill="none" points="1033,55,1027,73,1039,73,1033,55" style="stroke:#181818;stroke-width:1;stroke-linejoin:miter;stroke-miterlimit:10;"/></g><!--reverse link Sample to StatisticalSample--><g class="link" data-entity-1="ent0004" data-entity-2="ent0009" data-link-type="extension" data-source-line="4" id="lnk10"><path codeLine="4" d="M1087.3276,64.1725 C1117.2476,81.8925 1142.95,97.11 1172.93,114.86" fill="none" id="Sample-backto-StatisticalSample" style="stroke:#181818;stroke-width:1;"/><polygon fill="none" points="1071.84,55,1084.2701,69.335,1090.3851,59.0099,1071.84,55" style="stroke:#181818;stroke-width:1;stroke-linejoin:miter;stroke-miterlimit:10;"/></g><!--reverse link Property to ObservableProperty--><g class="link" data-entity-1="ent0001" data-entity-2="ent0011" data-link-type="extension" data-source-line="5" id="lnk12"><path codeLine="5" d="M631.5544,70.7277 C641.3844,88.3877 646.15,96.94 656.02,114.68" fill="none" id="Property-backto-ObservableProperty" style="stroke:#181818;stroke-width:1;"/><polygon fill="none" points="622.8,55,626.3119,73.6458,636.797,67.8095,622.8,55" style="stroke:#181818;stroke-width:1;stroke-linejoin:miter;stroke-miterlimit:10;"/></g><!--reverse link Procedure to ActuatingProcedure--><g class="link" data-entity-1="ent0013" data-entity-2="ent0014" data-link-type="extension" data-source-line="6" id="lnk15"><path codeLine="6" d="M1556.8326,63.1732 C1522.0626,80.8932 1490.24,97.11 1455.4,114.86" fill="none" id="Procedure-backto-ActuatingProcedure" style="stroke:#181818;stroke-width:1;"/><polygon fill="none" points="1572.87,55,1554.1082,57.8274,1559.557,68.519,1572.87,55" style="stroke:#181818;stroke-width:1;stroke-linejoin:miter;stroke-miterlimit:10;"/></g><!--reverse link Procedure to ObservingProcedure--><g class="link" data-entity-1="ent0013" data-entity-2="ent0016" data-link-type="extension" data-source-line="7" id="lnk17"><path codeLine="7" d="M1618,73 C1618,90.66 1618,96.94 1618,114.68" fill="none" id="Procedure-backto-ObservingProcedure" style="stroke:#181818;stroke-width:1;"/><polygon fill="none" points="1618,55,1612,73,1624,73,1618,55" style="stroke:#181818;stroke-width:1;stroke-linejoin:miter;stroke-miterlimit:10;"/></g><!--reverse link Procedure to SamplingProcedure--><g class="link" data-entity-1="ent0013" data-entity-2="ent0018" data-link-type="extension" data-source-line="8" id="lnk19"><path codeLine="8" d="M1678.9411,63.205 C1713.5411,80.925 1745.15,97.11 1779.81,114.86" fill="none" id="Procedure-backto-SamplingProcedure" style="stroke:#181818;stroke-width:1;"/><polygon fill="none" points="1662.92,55,1676.2061,68.5454,1681.6762,57.8647,1662.92,55" style="stroke:#181818;stroke-width:1;stroke-linejoin:miter;stroke-miterlimit:10;"/></g><!--reverse link Asset to Platform--><g class="link" data-entity-1="ent0020" data-entity-2="ent0021" data-link-type="extension" data-source-line="9" id="lnk22"><path codeLine="9" d="M2028.7839,70.6022 C2018.6239,88.2622 2013.63,96.94 2003.42,114.68" fill="none" id="Asset-backto-Platform" style="stroke:#181818;stroke-width:1;"/><polygon fill="none" points="2037.76,55,2023.5831,67.6102,2033.9846,73.5943,2037.76,55" style="stroke:#181818;stroke-width:1;stroke-linejoin:miter;stroke-miterlimit:10;"/></g><!--reverse link System to Sampler--><g class="link" data-entity-1="ent0023" data-entity-2="ent0024" data-link-type="extension" data-source-line="10" id="lnk25"><path codeLine="10" d="M2071.8865,174.5884 C2050.8965,192.2484 2035.81,204.94 2014.72,222.68" fill="none" id="System-backto-Sampler" style="stroke:#181818;stroke-width:1;"/><polygon fill="none" points="2085.66,163,2068.0237,169.9972,2075.7493,179.1795,2085.66,163" style="stroke:#181818;stroke-width:1;stroke-linejoin:miter;stroke-miterlimit:10;"/></g><!--reverse link System to Actuator--><g class="link" data-entity-1="ent0023" data-entity-2="ent0026" data-link-type="extension" data-source-line="11" id="lnk27"><path codeLine="11" d="M2113,181 C2113,198.66 2113,204.94 2113,222.68" fill="none" id="System-backto-Actuator" style="stroke:#181818;stroke-width:1;"/><polygon fill="none" points="2113,163,2107,181,2119,181,2113,163" style="stroke:#181818;stroke-width:1;stroke-linejoin:miter;stroke-miterlimit:10;"/></g><!--reverse link Asset to System--><g class="link" data-entity-1="ent0020" data-entity-2="ent0023" data-link-type="extension" data-source-line="12" id="lnk28"><path codeLine="12" d="M2073.5383,70.5372 C2083.8683,88.1972 2088.98,96.94 2099.36,114.68" fill="none" id="Asset-backto-System" style="stroke:#181818;stroke-width:1;"/><polygon fill="none" points="2064.45,55,2068.3592,73.5666,2078.7173,67.5077,2064.45,55" style="stroke:#181818;stroke-width:1;stroke-linejoin:miter;stroke-miterlimit:10;"/></g><!--reverse link Execution to Sampling--><g class="link" data-entity-1="ent0029" data-entity-2="ent0030" data-link-type="extension" data-source-line="13" id="lnk31"><path codeLine="13" d="M2329.8041,66.1688 C2307.4841,83.8288 2290.91,96.94 2268.48,114.68" fill="none" id="Execution-backto-Sampling" style="stroke:#181818;stroke-width:1;"/><polygon fill="none" points="2343.92,55,2326.0812,61.4635,2333.527,70.8741,2343.92,55" style="stroke:#181818;stroke-width:1;stroke-linejoin:miter;stroke-miterlimit:10;"/></g><!--reverse link ExecutionCollection to SamplingCollection--><g class="link" data-entity-1="ent0032" data-entity-2="ent0033" data-link-type="extension" data-source-line="14" id="lnk34"><path codeLine="14" d="M2835.231,63.3636 C2801.461,81.0836 2770.93,97.11 2737.09,114.86" fill="none" id="ExecutionCollection-backto-SamplingCollection" style="stroke:#181818;stroke-width:1;"/><polygon fill="none" points="2851.17,55,2832.4432,58.0506,2838.0189,68.6766,2851.17,55" style="stroke:#181818;stroke-width:1;stroke-linejoin:miter;stroke-miterlimit:10;"/></g><!--reverse link Execution to Actuation--><g class="link" data-entity-1="ent0029" data-entity-2="ent0035" data-link-type="extension" data-source-line="15" id="lnk36"><path codeLine="15" d="M2373,73 C2373,90.66 2373,96.94 2373,114.68" fill="none" id="Execution-backto-Actuation" style="stroke:#181818;stroke-width:1;"/><polygon fill="none" points="2373,55,2367,73,2379,73,2373,55" style="stroke:#181818;stroke-width:1;stroke-linejoin:miter;stroke-miterlimit:10;"/></g><!--reverse link System to Sensor--><g class="link" data-entity-1="ent0023" data-entity-2="ent0037" data-link-type="extension" data-source-line="16" id="lnk38"><path codeLine="16" d="M2152.7968,174.864 C2172.9468,192.524 2187.13,204.94 2207.38,222.68" fill="none" id="System-backto-Sensor" style="stroke:#181818;stroke-width:1;"/><polygon fill="none" points="2139.26,163,2148.8421,179.3763,2156.7515,170.3518,2139.26,163" style="stroke:#181818;stroke-width:1;stroke-linejoin:miter;stroke-miterlimit:10;"/></g><!--reverse link ExecutionCollection to ActuationCollection--><g class="link" data-entity-1="ent0032" data-entity-2="ent0039" data-link-type="extension" data-source-line="17" id="lnk40"><path codeLine="17" d="M2895,73 C2895,90.66 2895,96.94 2895,114.68" fill="none" id="ExecutionCollection-backto-ActuationCollection" style="stroke:#181818;stroke-width:1;"/><polygon fill="none" points="2895,55,2889,73,2901,73,2895,55" style="stroke:#181818;stroke-width:1;stroke-linejoin:miter;stroke-miterlimit:10;"/></g><!--reverse link ExecutionCollection to ObservationCollection--><g class="link" data-entity-1="ent0032" data-entity-2="ent0041" data-link-type="extension" data-source-line="18" id="lnk42"><path codeLine="18" d="M2957.0997,63.0498 C2992.5397,80.7698 3025.22,97.11 3060.72,114.86" fill="none" id="ExecutionCollection-backto-ObservationCollection" style="stroke:#181818;stroke-width:1;"/><polygon fill="none" points="2941,55,2954.4164,68.4164,2959.783,57.6833,2941,55" style="stroke:#181818;stroke-width:1;stroke-linejoin:miter;stroke-miterlimit:10;"/></g><!--reverse link Execution to Observation--><g class="link" data-entity-1="ent0029" data-entity-2="ent0043" data-link-type="extension" data-source-line="19" id="lnk44"><path codeLine="19" d="M2418.4895,65.7202 C2442.3095,83.3802 2460.61,96.94 2484.54,114.68" fill="none" id="Execution-backto-Observation" style="stroke:#181818;stroke-width:1;"/><polygon fill="none" points="2404.03,55,2414.9161,70.54,2422.0629,60.9004,2404.03,55" style="stroke:#181818;stroke-width:1;stroke-linejoin:miter;stroke-miterlimit:10;"/></g><?plantuml-src VL99RiCm3Bpx5Vv0Vj1Bq0N8eR1Hlu1Hc480jK2aYXheuoD4gcmvTM_Yp726eZG6vp78t3_z70xzKKa4WJFXMF1k0kC9C_qEWa43PQoX9W-omqXYMBIgxDXa3cV6yDLafeF2ImoudahRpufl5TdZFyKzkX4ScL4oEHB8rGNJJJCBcbK7XWRBaxYmRivyz_gDAefsjirRy6T7XEfHiU1RZtBlH3HpeUKqmQvlxVhBU2ikoz-JFuWwHS3S3r5yb5AK1UJY3K7ITeVhoQQ_WlmhUa5FRZPeTu7w-iLLj8aKkPGdkmfigG_aI9Mxlzfobni0?></g></svg>