<svg xmlns="http://www.w3.org/2000/svg" xmlns:xlink="http://www.w3.org/1999/xlink" contentStyleType="text/css" data-diagram-type="CLASS" height="286px" preserveAspectRatio="none" style="width:3264px;height:286px;background:#FFFFFF;" version="1.1" viewBox="0 0 3264 286" width="3264px" zoomAndPan="magnify"><?plantuml 1.2026.6?><defs/><g><!--class Property--><g class="entity" data-qualified-name="Property" data-source-line="1" id="ent0001"><rect fill="#F1F1F1" height="48" rx="2.5" ry="2.5" style="stroke:#181818;stroke-width:0.5;" width="91.7939" x="570.5" y="7"/><ellipse cx="585.5" cy="23" fill="#ADD1B2" rx="11" ry="11" style="stroke:#181818;stroke-width:1;"/><path d="M588.4688,28.6406 Q587.8906,28.9375 587.25,29.0781 Q586.6094,29.2344 585.9063,29.2344 Q583.4063,29.2344 582.0781,27.5938 Q580.7656,25.9375 580.7656,22.8125 Q580.7656,19.6875 582.0781,18.0313 Q583.4063,16.375 585.9063,16.375 Q586.6094,16.375 587.25,16.5313 Q587.9063,16.6875 588.4688,16.9844 L588.4688,19.7031 Q587.8438,19.125 587.25,18.8594 Q586.6563,18.5781 586.0313,18.5781 Q584.6875,18.5781 584,19.6563 Q583.3125,20.7188 583.3125,22.8125 Q583.3125,24.9063 584,25.9844 Q584.6875,27.0469 586.0313,27.0469 Q586.6563,27.0469 587.25,26.7813 Q587.8438,26.5 588.4688,25.9219 L588.4688,28.6406 Z " fill="#000000"/><text fill="#000000" font-family="sans-serif" font-size="14" lengthAdjust="spacing" textLength="59.7939" x="599.5" y="27.8467">Property</text><line style="stroke:#181818;stroke-width:0.5;" x1="571.5" x2="661.2939" y1="39" y2="39"/><line style="stroke:#181818;stroke-width:0.5;" x1="571.5" x2="661.2939" y1="47" y2="47"/></g><!--class ActuatableProperty--><g class="entity" data-qualified-name="ActuatableProperty" data-source-line="1" id="ent0002"><rect fill="#F1F1F1" height="48" rx="2.5" ry="2.5" style="stroke:#181818;stroke-width:0.5;" width="167.4678" x="430" y="115"/><ellipse cx="445" cy="131" fill="#ADD1B2" rx="11" ry="11" style="stroke:#181818;stroke-width:1;"/><path d="M447.9688,136.6406 Q447.3906,136.9375 446.75,137.0781 Q446.1094,137.2344 445.4063,137.2344 Q442.9063,137.2344 441.5781,135.5938 Q440.2656,133.9375 440.2656,130.8125 Q440.2656,127.6875 441.5781,126.0313 Q442.9063,124.375 445.4063,124.375 Q446.1094,124.375 446.75,124.5313 Q447.4063,124.6875 447.9688,124.9844 L447.9688,127.7031 Q447.3438,127.125 446.75,126.8594 Q446.1563,126.5781 445.5313,126.5781 Q444.1875,126.5781 443.5,127.6563 Q442.8125,128.7188 442.8125,130.8125 Q442.8125,132.9063 443.5,133.9844 Q444.1875,135.0469 445.5313,135.0469 Q446.1563,135.0469 446.75,134.7813 Q447.3438,134.5 447.9688,133.9219 L447.9688,136.6406 Z " fill="#000000"/><text fill="#000000" font-family="sans-serif" font-size="14" lengthAdjust="spacing" textLength="135.4678" x="459" y="135.8467">ActuatableProperty</text><line style="stroke:#181818;stroke-width:0.5;" x1="431" x2="596.4678" y1="147" y2="147"/><line style="stroke:#181818;stroke-width:0.5;" x1="431" x2="596.4678" y1="155" y2="155"/></g><!--class Sample--><g class="entity" data-qualified-name="Sample" data-source-line="2" id="ent0004"><rect fill="#F1F1F1" height="48" rx="2.5" ry="2.5" style="stroke:#181818;stroke-width:0.5;" width="84.4932" x="1040.5" y="7"/><ellipse cx="1055.5" cy="23" fill="#ADD1B2" rx="11" ry="11" style="stroke:#181818;stroke-width:1;"/><path d="M1058.4688,28.6406 Q1057.8906,28.9375 1057.25,29.0781 Q1056.6094,29.2344 1055.9063,29.2344 Q1053.4063,29.2344 1052.0781,27.5938 Q1050.7656,25.9375 1050.7656,22.8125 Q1050.7656,19.6875 1052.0781,18.0313 Q1053.4063,16.375 1055.9063,16.375 Q1056.6094,16.375 1057.25,16.5313 Q1057.9063,16.6875 1058.4688,16.9844 L1058.4688,19.7031 Q1057.8438,19.125 1057.25,18.8594 Q1056.6563,18.5781 1056.0313,18.5781 Q1054.6875,18.5781 1054,19.6563 Q1053.3125,20.7188 1053.3125,22.8125 Q1053.3125,24.9063 1054,25.9844 Q1054.6875,27.0469 1056.0313,27.0469 Q1056.6563,27.0469 1057.25,26.7813 Q1057.8438,26.5 1058.4688,25.9219 L1058.4688,28.6406 Z " fill="#000000"/><text fill="#000000" font-family="sans-serif" font-size="14" lengthAdjust="spacing" textLength="52.4932" x="1069.5" y="27.8467">Sample</text><line style="stroke:#181818;stroke-width:0.5;" x1="1041.5" x2="1123.9932" y1="39" y2="39"/><line style="stroke:#181818;stroke-width:0.5;" x1="1041.5" x2="1123.9932" y1="47" y2="47"/></g><!--class MaterialSample--><g class="entity" data-qualified-name="MaterialSample" data-source-line="2" id="ent0005"><rect fill="#F1F1F1" height="48" rx="2.5" ry="2.5" style="stroke:#181818;stroke-width:0.5;" width="141.3682" x="840" y="115"/><ellipse cx="855" cy="131" fill="#ADD1B2" rx="11" ry="11" style="stroke:#181818;stroke-width:1;"/><path d="M857.9688,136.6406 Q857.3906,136.9375 856.75,137.0781 Q856.1094,137.2344 855.4063,137.2344 Q852.9063,137.2344 851.5781,135.5938 Q850.2656,133.9375 850.2656,130.8125 Q850.2656,127.6875 851.5781,126.0313 Q852.9063,124.375 855.4063,124.375 Q856.1094,124.375 856.75,124.5313 Q857.4063,124.6875 857.9688,124.9844 L857.9688,127.7031 Q857.3438,127.125 856.75,126.8594 Q856.1563,126.5781 855.5313,126.5781 Q854.1875,126.5781 853.5,127.6563 Q852.8125,128.7188 852.8125,130.8125 Q852.8125,132.9063 853.5,133.9844 Q854.1875,135.0469 855.5313,135.0469 Q856.1563,135.0469 856.75,134.7813 Q857.3438,134.5 857.9688,133.9219 L857.9688,136.6406 Z " fill="#000000"/><text fill="#000000" font-family="sans-serif" font-size="14" lengthAdjust="spacing" textLength="109.3682" x="869" y="135.8467">MaterialSample</text><line style="stroke:#181818;stroke-width:0.5;" x1="841" x2="980.3682" y1="147" y2="147"/><line style="stroke:#181818;stroke-width:0.5;" x1="841" x2="980.3682" y1="155" y2="155"/></g><!--class SpatialSample--><g class="entity" data-qualified-name="SpatialSample" data-source-line="3" id="ent0007"><rect fill="#F1F1F1" height="48" rx="2.5" ry="2.5" style="stroke:#181818;stroke-width:0.5;" width="132.6934" x="1016" y="115"/><ellipse cx="1031" cy="131" fill="#ADD1B2" rx="11" ry="11" style="stroke:#181818;stroke-width:1;"/><path d="M1033.9688,136.6406 Q1033.3906,136.9375 1032.75,137.0781 Q1032.1094,137.2344 1031.4063,137.2344 Q1028.9063,137.2344 1027.5781,135.5938 Q1026.2656,133.9375 1026.2656,130.8125 Q1026.2656,127.6875 1027.5781,126.0313 Q1028.9063,124.375 1031.4063,124.375 Q1032.1094,124.375 1032.75,124.5313 Q1033.4063,124.6875 1033.9688,124.9844 L1033.9688,127.7031 Q1033.3438,127.125 1032.75,126.8594 Q1032.1563,126.5781 1031.5313,126.5781 Q1030.1875,126.5781 1029.5,127.6563 Q1028.8125,128.7188 1028.8125,130.8125 Q1028.8125,132.9063 1029.5,133.9844 Q1030.1875,135.0469 1031.5313,135.0469 Q1032.1563,135.0469 1032.75,134.7813 Q1033.3438,134.5 1033.9688,133.9219 L1033.9688,136.6406 Z " fill="#000000"/><text fill="#000000" font-family="sans-serif" font-size="14" lengthAdjust="spacing" textLength="100.6934" x="1045" y="135.8467">SpatialSample</text><line style="stroke:#181818;stroke-width:0.5;" x1="1017" x2="1147.6934" y1="147" y2="147"/><line style="stroke:#181818;stroke-width:0.5;" x1="1017" x2="1147.6934" y1="155" y2="155"/></g><!--class StatisticalSample--><g class="entity" data-qualified-name="StatisticalSample" data-source-line="4" id="ent0009"><rect fill="#F1F1F1" height="48" rx="2.5" ry="2.5" style="stroke:#181818;stroke-width:0.5;" width="153.666" x="1184.5" y="115"/><ellipse cx="1199.5" cy="131" fill="#ADD1B2" rx="11" ry="11" style="stroke:#181818;stroke-width:1;"/><path d="M1202.4688,136.6406 Q1201.8906,136.9375 1201.25,137.0781 Q1200.6094,137.2344 1199.9063,137.2344 Q1197.4063,137.2344 1196.0781,135.5938 Q1194.7656,133.9375 1194.7656,130.8125 Q1194.7656,127.6875 1196.0781,126.0313 Q1197.4063,124.375 1199.9063,124.375 Q1200.6094,124.375 1201.25,124.5313 Q1201.9063,124.6875 1202.4688,124.9844 L1202.4688,127.7031 Q1201.8438,127.125 1201.25,126.8594 Q1200.6563,126.5781 1200.0313,126.5781 Q1198.6875,126.5781 1198,127.6563 Q1197.3125,128.7188 1197.3125,130.8125 Q1197.3125,132.9063 1198,133.9844 Q1198.6875,135.0469 1200.0313,135.0469 Q1200.6563,135.0469 1201.25,134.7813 Q1201.8438,134.5 1202.4688,133.9219 L1202.4688,136.6406 Z " fill="#000000"/><text fill="#000000" font-family="sans-serif" font-size="14" lengthAdjust="spacing" textLength="121.666" x="1213.5" y="135.8467">StatisticalSample</text><line style="stroke:#181818;stroke-width:0.5;" x1="1185.5" x2="1337.166" y1="147" y2="147"/><line style="stroke:#181818;stroke-width:0.5;" x1="1185.5" x2="1337.166" y1="155" y2="155"/></g><!--class ObservableProperty--><g class="entity" data-qualified-name="ObservableProperty" data-source-line="5" id="ent0011"><rect fill="#F1F1F1" height="48" rx="2.5" ry="2.5" style="stroke:#181818;stroke-width:0.5;" width="171.6172" x="632.5" y="115"/><ellipse cx="647.5" cy="131" fill="#ADD1B2" rx="11" ry="11" style="stroke:#181818;stroke-width:1;"/><path d="M650.4688,136.6406 Q649.8906,136.9375 649.25,137.0781 Q648.6094,137.2344 647.9063,137.2344 Q645.4063,137.2344 644.0781,135.5938 Q642.7656,133.9375 642.7656,130.8125 Q642.7656,127.6875 644.0781,126.0313 Q645.4063,124.375 647.9063,124.375 Q648.6094,124.375 649.25,124.5313 Q649.9063,124.6875 650.4688,124.9844 L650.4688,127.7031 Q649.8438,127.125 649.25,126.8594 Q648.6563,126.5781 648.0313,126.5781 Q646.6875,126.5781 646,127.6563 Q645.3125,128.7188 645.3125,130.8125 Q645.3125,132.9063 646,133.9844 Q646.6875,135.0469 648.0313,135.0469 Q648.6563,135.0469 649.25,134.7813 Q649.8438,134.5 650.4688,133.9219 L650.4688,136.6406 Z " fill="#000000"/><text fill="#000000" font-family="sans-serif" font-size="14" lengthAdjust="spacing" textLength="139.6172" x="661.5" y="135.8467">ObservableProperty</text><line style="stroke:#181818;stroke-width:0.5;" x1="633.5" x2="803.1172" y1="147" y2="147"/><line style="stroke:#181818;stroke-width:0.5;" x1="633.5" x2="803.1172" y1="155" y2="155"/></g><!--class Procedure--><g class="entity" data-qualified-name="Procedure" data-source-line="6" id="ent0013"><rect fill="#F1F1F1" height="48" rx="2.5" ry="2.5" style="stroke:#181818;stroke-width:0.5;" width="103.2031" x="1616" y="7"/><ellipse cx="1631" cy="23" fill="#ADD1B2" rx="11" ry="11" style="stroke:#181818;stroke-width:1;"/><path d="M1633.9688,28.6406 Q1633.3906,28.9375 1632.75,29.0781 Q1632.1094,29.2344 1631.4063,29.2344 Q1628.9063,29.2344 1627.5781,27.5938 Q1626.2656,25.9375 1626.2656,22.8125 Q1626.2656,19.6875 1627.5781,18.0313 Q1628.9063,16.375 1631.4063,16.375 Q1632.1094,16.375 1632.75,16.5313 Q1633.4063,16.6875 1633.9688,16.9844 L1633.9688,19.7031 Q1633.3438,19.125 1632.75,18.8594 Q1632.1563,18.5781 1631.5313,18.5781 Q1630.1875,18.5781 1629.5,19.6563 Q1628.8125,20.7188 1628.8125,22.8125 Q1628.8125,24.9063 1629.5,25.9844 Q1630.1875,27.0469 1631.5313,27.0469 Q1632.1563,27.0469 1632.75,26.7813 Q1633.3438,26.5 1633.9688,25.9219 L1633.9688,28.6406 Z " fill="#000000"/><text fill="#000000" font-family="sans-serif" font-size="14" lengthAdjust="spacing" textLength="71.2031" x="1645" y="27.8467">Procedure</text><line style="stroke:#181818;stroke-width:0.5;" x1="1617" x2="1718.2031" y1="39" y2="39"/><line style="stroke:#181818;stroke-width:0.5;" x1="1617" x2="1718.2031" y1="47" y2="47"/></g><!--class ActuatingProcedure--><g class="entity" data-qualified-name="ActuatingProcedure" data-source-line="6" id="ent0014"><rect fill="#F1F1F1" height="48" rx="2.5" ry="2.5" style="stroke:#181818;stroke-width:0.5;" width="170.5576" x="1374" y="115"/><ellipse cx="1389" cy="131" fill="#ADD1B2" rx="11" ry="11" style="stroke:#181818;stroke-width:1;"/><path d="M1391.9688,136.6406 Q1391.3906,136.9375 1390.75,137.0781 Q1390.1094,137.2344 1389.4063,137.2344 Q1386.9063,137.2344 1385.5781,135.5938 Q1384.2656,133.9375 1384.2656,130.8125 Q1384.2656,127.6875 1385.5781,126.0313 Q1386.9063,124.375 1389.4063,124.375 Q1390.1094,124.375 1390.75,124.5313 Q1391.4063,124.6875 1391.9688,124.9844 L1391.9688,127.7031 Q1391.3438,127.125 1390.75,126.8594 Q1390.1563,126.5781 1389.5313,126.5781 Q1388.1875,126.5781 1387.5,127.6563 Q1386.8125,128.7188 1386.8125,130.8125 Q1386.8125,132.9063 1387.5,133.9844 Q1388.1875,135.0469 1389.5313,135.0469 Q1390.1563,135.0469 1390.75,134.7813 Q1391.3438,134.5 1391.9688,133.9219 L1391.9688,136.6406 Z " fill="#000000"/><text fill="#000000" font-family="sans-serif" font-size="14" lengthAdjust="spacing" textLength="138.5576" x="1403" y="135.8467">ActuatingProcedure</text><line style="stroke:#181818;stroke-width:0.5;" x1="1375" x2="1543.5576" y1="147" y2="147"/><line style="stroke:#181818;stroke-width:0.5;" x1="1375" x2="1543.5576" y1="155" y2="155"/></g><!--class ObservingProcedure--><g class="entity" data-qualified-name="ObservingProcedure" data-source-line="7" id="ent0016"><rect fill="#F1F1F1" height="48" rx="2.5" ry="2.5" style="stroke:#181818;stroke-width:0.5;" width="174.707" x="1580" y="115"/><ellipse cx="1595" cy="131" fill="#ADD1B2" rx="11" ry="11" style="stroke:#181818;stroke-width:1;"/><path d="M1597.9688,136.6406 Q1597.3906,136.9375 1596.75,137.0781 Q1596.1094,137.2344 1595.4063,137.2344 Q1592.9063,137.2344 1591.5781,135.5938 Q1590.2656,133.9375 1590.2656,130.8125 Q1590.2656,127.6875 1591.5781,126.0313 Q1592.9063,124.375 1595.4063,124.375 Q1596.1094,124.375 1596.75,124.5313 Q1597.4063,124.6875 1597.9688,124.9844 L1597.9688,127.7031 Q1597.3438,127.125 1596.75,126.8594 Q1596.1563,126.5781 1595.5313,126.5781 Q1594.1875,126.5781 1593.5,127.6563 Q1592.8125,128.7188 1592.8125,130.8125 Q1592.8125,132.9063 1593.5,133.9844 Q1594.1875,135.0469 1595.5313,135.0469 Q1596.1563,135.0469 1596.75,134.7813 Q1597.3438,134.5 1597.9688,133.9219 L1597.9688,136.6406 Z " fill="#000000"/><text fill="#000000" font-family="sans-serif" font-size="14" lengthAdjust="spacing" textLength="142.707" x="1609" y="135.8467">ObservingProcedure</text><line style="stroke:#181818;stroke-width:0.5;" x1="1581" x2="1753.707" y1="147" y2="147"/><line style="stroke:#181818;stroke-width:0.5;" x1="1581" x2="1753.707" y1="155" y2="155"/></g><!--class SamplingProcedure--><g class="entity" data-qualified-name="SamplingProcedure" data-source-line="8" id="ent0018"><rect fill="#F1F1F1" height="48" rx="2.5" ry="2.5" style="stroke:#181818;stroke-width:0.5;" width="168.7324" x="1790" y="115"/><ellipse cx="1805" cy="131" fill="#ADD1B2" rx="11" ry="11" style="stroke:#181818;stroke-width:1;"/><path d="M1807.9688,136.6406 Q1807.3906,136.9375 1806.75,137.0781 Q1806.1094,137.2344 1805.4063,137.2344 Q1802.9063,137.2344 1801.5781,135.5938 Q1800.2656,133.9375 1800.2656,130.8125 Q1800.2656,127.6875 1801.5781,126.0313 Q1802.9063,124.375 1805.4063,124.375 Q1806.1094,124.375 1806.75,124.5313 Q1807.4063,124.6875 1807.9688,124.9844 L1807.9688,127.7031 Q1807.3438,127.125 1806.75,126.8594 Q1806.1563,126.5781 1805.5313,126.5781 Q1804.1875,126.5781 1803.5,127.6563 Q1802.8125,128.7188 1802.8125,130.8125 Q1802.8125,132.9063 1803.5,133.9844 Q1804.1875,135.0469 1805.5313,135.0469 Q1806.1563,135.0469 1806.75,134.7813 Q1807.3438,134.5 1807.9688,133.9219 L1807.9688,136.6406 Z " fill="#000000"/><text fill="#000000" font-family="sans-serif" font-size="14" lengthAdjust="spacing" textLength="136.7324" x="1819" y="135.8467">SamplingProcedure</text><line style="stroke:#181818;stroke-width:0.5;" x1="1791" x2="1957.7324" y1="147" y2="147"/><line style="stroke:#181818;stroke-width:0.5;" x1="1791" x2="1957.7324" y1="155" y2="155"/></g><!--class Asset--><g class="entity" data-qualified-name="Asset" data-source-line="9" id="ent0020"><rect fill="#F1F1F1" height="48" rx="2.5" ry="2.5" style="stroke:#181818;stroke-width:0.5;" width="70.2676" x="2065.5" y="7"/><ellipse cx="2080.5" cy="23" fill="#ADD1B2" rx="11" ry="11" style="stroke:#181818;stroke-width:1;"/><path d="M2083.4688,28.6406 Q2082.8906,28.9375 2082.25,29.0781 Q2081.6094,29.2344 2080.9063,29.2344 Q2078.4063,29.2344 2077.0781,27.5938 Q2075.7656,25.9375 2075.7656,22.8125 Q2075.7656,19.6875 2077.0781,18.0313 Q2078.4063,16.375 2080.9063,16.375 Q2081.6094,16.375 2082.25,16.5313 Q2082.9063,16.6875 2083.4688,16.9844 L2083.4688,19.7031 Q2082.8438,19.125 2082.25,18.8594 Q2081.6563,18.5781 2081.0313,18.5781 Q2079.6875,18.5781 2079,19.6563 Q2078.3125,20.7188 2078.3125,22.8125 Q2078.3125,24.9063 2079,25.9844 Q2079.6875,27.0469 2081.0313,27.0469 Q2081.6563,27.0469 2082.25,26.7813 Q2082.8438,26.5 2083.4688,25.9219 L2083.4688,28.6406 Z " fill="#000000"/><text fill="#000000" font-family="sans-serif" font-size="14" lengthAdjust="spacing" textLength="38.2676" x="2094.5" y="27.8467">Asset</text><line style="stroke:#181818;stroke-width:0.5;" x1="2066.5" x2="2134.7676" y1="39" y2="39"/><line style="stroke:#181818;stroke-width:0.5;" x1="2066.5" x2="2134.7676" y1="47" y2="47"/></g><!--class Platform--><g class="entity" data-qualified-name="Platform" data-source-line="9" id="ent0021"><rect fill="#F1F1F1" height="48" rx="2.5" ry="2.5" style="stroke:#181818;stroke-width:0.5;" width="91.2881" x="1994" y="115"/><ellipse cx="2009" cy="131" fill="#ADD1B2" rx="11" ry="11" style="stroke:#181818;stroke-width:1;"/><path d="M2011.9688,136.6406 Q2011.3906,136.9375 2010.75,137.0781 Q2010.1094,137.2344 2009.4063,137.2344 Q2006.9063,137.2344 2005.5781,135.5938 Q2004.2656,133.9375 2004.2656,130.8125 Q2004.2656,127.6875 2005.5781,126.0313 Q2006.9063,124.375 2009.4063,124.375 Q2010.1094,124.375 2010.75,124.5313 Q2011.4063,124.6875 2011.9688,124.9844 L2011.9688,127.7031 Q2011.3438,127.125 2010.75,126.8594 Q2010.1563,126.5781 2009.5313,126.5781 Q2008.1875,126.5781 2007.5,127.6563 Q2006.8125,128.7188 2006.8125,130.8125 Q2006.8125,132.9063 2007.5,133.9844 Q2008.1875,135.0469 2009.5313,135.0469 Q2010.1563,135.0469 2010.75,134.7813 Q2011.3438,134.5 2011.9688,133.9219 L2011.9688,136.6406 Z " fill="#000000"/><text fill="#000000" font-family="sans-serif" font-size="14" lengthAdjust="spacing" textLength="59.2881" x="2023" y="135.8467">Platform</text><line style="stroke:#181818;stroke-width:0.5;" x1="1995" x2="2084.2881" y1="147" y2="147"/><line style="stroke:#181818;stroke-width:0.5;" x1="1995" x2="2084.2881" y1="155" y2="155"/></g><!--class System--><g class="entity" data-qualified-name="System" data-source-line="10" id="ent0023"><rect fill="#F1F1F1" height="48" rx="2.5" ry="2.5" style="stroke:#181818;stroke-width:0.5;" width="84.2061" x="2120.5" y="115"/><ellipse cx="2135.5" cy="131" fill="#ADD1B2" rx="11" ry="11" style="stroke:#181818;stroke-width:1;"/><path d="M2138.4688,136.6406 Q2137.8906,136.9375 2137.25,137.0781 Q2136.6094,137.2344 2135.9063,137.2344 Q2133.4063,137.2344 2132.0781,135.5938 Q2130.7656,133.9375 2130.7656,130.8125 Q2130.7656,127.6875 2132.0781,126.0313 Q2133.4063,124.375 2135.9063,124.375 Q2136.6094,124.375 2137.25,124.5313 Q2137.9063,124.6875 2138.4688,124.9844 L2138.4688,127.7031 Q2137.8438,127.125 2137.25,126.8594 Q2136.6563,126.5781 2136.0313,126.5781 Q2134.6875,126.5781 2134,127.6563 Q2133.3125,128.7188 2133.3125,130.8125 Q2133.3125,132.9063 2134,133.9844 Q2134.6875,135.0469 2136.0313,135.0469 Q2136.6563,135.0469 2137.25,134.7813 Q2137.8438,134.5 2138.4688,133.9219 L2138.4688,136.6406 Z " fill="#000000"/><text fill="#000000" font-family="sans-serif" font-size="14" lengthAdjust="spacing" textLength="52.2061" x="2149.5" y="135.8467">System</text><line style="stroke:#181818;stroke-width:0.5;" x1="2121.5" x2="2203.7061" y1="147" y2="147"/><line style="stroke:#181818;stroke-width:0.5;" x1="2121.5" x2="2203.7061" y1="155" y2="155"/></g><!--class Sampler--><g class="entity" data-qualified-name="Sampler" data-source-line="10" id="ent0024"><rect fill="#F1F1F1" height="48" rx="2.5" ry="2.5" style="stroke:#181818;stroke-width:0.5;" width="90.249" x="1991.5" y="223"/><ellipse cx="2006.5" cy="239" fill="#ADD1B2" rx="11" ry="11" style="stroke:#181818;stroke-width:1;"/><path d="M2009.4688,244.6406 Q2008.8906,244.9375 2008.25,245.0781 Q2007.6094,245.2344 2006.9063,245.2344 Q2004.4063,245.2344 2003.0781,243.5938 Q2001.7656,241.9375 2001.7656,238.8125 Q2001.7656,235.6875 2003.0781,234.0313 Q2004.4063,232.375 2006.9063,232.375 Q2007.6094,232.375 2008.25,232.5313 Q2008.9063,232.6875 2009.4688,232.9844 L2009.4688,235.7031 Q2008.8438,235.125 2008.25,234.8594 Q2007.6563,234.5781 2007.0313,234.5781 Q2005.6875,234.5781 2005,235.6563 Q2004.3125,236.7188 2004.3125,238.8125 Q2004.3125,240.9063 2005,241.9844 Q2005.6875,243.0469 2007.0313,243.0469 Q2007.6563,243.0469 2008.25,242.7813 Q2008.8438,242.5 2009.4688,241.9219 L2009.4688,244.6406 Z " fill="#000000"/><text fill="#000000" font-family="sans-serif" font-size="14" lengthAdjust="spacing" textLength="58.249" x="2020.5" y="243.8467">Sampler</text><line style="stroke:#181818;stroke-width:0.5;" x1="1992.5" x2="2080.749" y1="255" y2="255"/><line style="stroke:#181818;stroke-width:0.5;" x1="1992.5" x2="2080.749" y1="263" y2="263"/></g><!--class Actuator--><g class="entity" data-qualified-name="Actuator" data-source-line="11" id="ent0026"><rect fill="#F1F1F1" height="48" rx="2.5" ry="2.5" style="stroke:#181818;stroke-width:0.5;" width="92.0264" x="2116.5" y="223"/><ellipse cx="2131.5" cy="239" fill="#ADD1B2" rx="11" ry="11" style="stroke:#181818;stroke-width:1;"/><path d="M2134.4688,244.6406 Q2133.8906,244.9375 2133.25,245.0781 Q2132.6094,245.2344 2131.9063,245.2344 Q2129.4063,245.2344 2128.0781,243.5938 Q2126.7656,241.9375 2126.7656,238.8125 Q2126.7656,235.6875 2128.0781,234.0313 Q2129.4063,232.375 2131.9063,232.375 Q2132.6094,232.375 2133.25,232.5313 Q2133.9063,232.6875 2134.4688,232.9844 L2134.4688,235.7031 Q2133.8438,235.125 2133.25,234.8594 Q2132.6563,234.5781 2132.0313,234.5781 Q2130.6875,234.5781 2130,235.6563 Q2129.3125,236.7188 2129.3125,238.8125 Q2129.3125,240.9063 2130,241.9844 Q2130.6875,243.0469 2132.0313,243.0469 Q2132.6563,243.0469 2133.25,242.7813 Q2133.8438,242.5 2134.4688,241.9219 L2134.4688,244.6406 Z " fill="#000000"/><text fill="#000000" font-family="sans-serif" font-size="14" lengthAdjust="spacing" textLength="60.0264" x="2145.5" y="243.8467">Actuator</text><line style="stroke:#181818;stroke-width:0.5;" x1="2117.5" x2="2207.5264" y1="255" y2="255"/><line style="stroke:#181818;stroke-width:0.5;" x1="2117.5" x2="2207.5264" y1="263" y2="263"/></g><!--class Execution--><g class="entity" data-qualified-name="Execution" data-source-line="13" id="ent0029"><rect fill="#F1F1F1" height="48" rx="2.5" ry="2.5" style="stroke:#181818;stroke-width:0.5;" width="101.1318" x="2372" y="7"/><ellipse cx="2387" cy="23" fill="#ADD1B2" rx="11" ry="11" style="stroke:#181818;stroke-width:1;"/><path d="M2389.9688,28.6406 Q2389.3906,28.9375 2388.75,29.0781 Q2388.1094,29.2344 2387.4063,29.2344 Q2384.9063,29.2344 2383.5781,27.5938 Q2382.2656,25.9375 2382.2656,22.8125 Q2382.2656,19.6875 2383.5781,18.0313 Q2384.9063,16.375 2387.4063,16.375 Q2388.1094,16.375 2388.75,16.5313 Q2389.4063,16.6875 2389.9688,16.9844 L2389.9688,19.7031 Q2389.3438,19.125 2388.75,18.8594 Q2388.1563,18.5781 2387.5313,18.5781 Q2386.1875,18.5781 2385.5,19.6563 Q2384.8125,20.7188 2384.8125,22.8125 Q2384.8125,24.9063 2385.5,25.9844 Q2386.1875,27.0469 2387.5313,27.0469 Q2388.1563,27.0469 2388.75,26.7813 Q2389.3438,26.5 2389.9688,25.9219 L2389.9688,28.6406 Z " fill="#000000"/><text fill="#000000" font-family="sans-serif" font-size="14" lengthAdjust="spacing" textLength="69.1318" x="2401" y="27.8467">Execution</text><line style="stroke:#181818;stroke-width:0.5;" x1="2373" x2="2472.1318" y1="39" y2="39"/><line style="stroke:#181818;stroke-width:0.5;" x1="2373" x2="2472.1318" y1="47" y2="47"/></g><!--class Sampling--><g class="entity" data-qualified-name="Sampling" data-source-line="13" id="ent0030"><rect fill="#F1F1F1" height="48" rx="2.5" ry="2.5" style="stroke:#181818;stroke-width:0.5;" width="97.5293" x="2239.5" y="115"/><ellipse cx="2254.5" cy="131" fill="#ADD1B2" rx="11" ry="11" style="stroke:#181818;stroke-width:1;"/><path d="M2257.4688,136.6406 Q2256.8906,136.9375 2256.25,137.0781 Q2255.6094,137.2344 2254.9063,137.2344 Q2252.4063,137.2344 2251.0781,135.5938 Q2249.7656,133.9375 2249.7656,130.8125 Q2249.7656,127.6875 2251.0781,126.0313 Q2252.4063,124.375 2254.9063,124.375 Q2255.6094,124.375 2256.25,124.5313 Q2256.9063,124.6875 2257.4688,124.9844 L2257.4688,127.7031 Q2256.8438,127.125 2256.25,126.8594 Q2255.6563,126.5781 2255.0313,126.5781 Q2253.6875,126.5781 2253,127.6563 Q2252.3125,128.7188 2252.3125,130.8125 Q2252.3125,132.9063 2253,133.9844 Q2253.6875,135.0469 2255.0313,135.0469 Q2255.6563,135.0469 2256.25,134.7813 Q2256.8438,134.5 2257.4688,133.9219 L2257.4688,136.6406 Z " fill="#000000"/><text fill="#000000" font-family="sans-serif" font-size="14" lengthAdjust="spacing" textLength="65.5293" x="2268.5" y="135.8467">Sampling</text><line style="stroke:#181818;stroke-width:0.5;" x1="2240.5" x2="2336.0293" y1="147" y2="147"/><line style="stroke:#181818;stroke-width:0.5;" x1="2240.5" x2="2336.0293" y1="155" y2="155"/></g><!--class ExecutionCollection--><g class="entity" data-qualified-name="ExecutionCollection" data-source-line="14" id="ent0032"><rect fill="#F1F1F1" height="48" rx="2.5" ry="2.5" style="stroke:#181818;stroke-width:0.5;" width="170.3799" x="2859.5" y="7"/><ellipse cx="2874.5" cy="23" fill="#ADD1B2" rx="11" ry="11" style="stroke:#181818;stroke-width:1;"/><path d="M2877.4688,28.6406 Q2876.8906,28.9375 2876.25,29.0781 Q2875.6094,29.2344 2874.9063,29.2344 Q2872.4063,29.2344 2871.0781,27.5938 Q2869.7656,25.9375 2869.7656,22.8125 Q2869.7656,19.6875 2871.0781,18.0313 Q2872.4063,16.375 2874.9063,16.375 Q2875.6094,16.375 2876.25,16.5313 Q2876.9063,16.6875 2877.4688,16.9844 L2877.4688,19.7031 Q2876.8438,19.125 2876.25,18.8594 Q2875.6563,18.5781 2875.0313,18.5781 Q2873.6875,18.5781 2873,19.6563 Q2872.3125,20.7188 2872.3125,22.8125 Q2872.3125,24.9063 2873,25.9844 Q2873.6875,27.0469 2875.0313,27.0469 Q2875.6563,27.0469 2876.25,26.7813 Q2876.8438,26.5 2877.4688,25.9219 L2877.4688,28.6406 Z " fill="#000000"/><text fill="#000000" font-family="sans-serif" font-size="14" lengthAdjust="spacing" textLength="138.3799" x="2888.5" y="27.8467">ExecutionCollection</text><line style="stroke:#181818;stroke-width:0.5;" x1="2860.5" x2="3028.8799" y1="39" y2="39"/><line style="stroke:#181818;stroke-width:0.5;" x1="2860.5" x2="3028.8799" y1="47" y2="47"/></g><!--class SamplingCollection--><g class="entity" data-qualified-name="SamplingCollection" data-source-line="14" id="ent0033"><rect fill="#F1F1F1" height="48" rx="2.5" ry="2.5" style="stroke:#181818;stroke-width:0.5;" width="166.7773" x="2659" y="115"/><ellipse cx="2674" cy="131" fill="#ADD1B2" rx="11" ry="11" style="stroke:#181818;stroke-width:1;"/><path d="M2676.9688,136.6406 Q2676.3906,136.9375 2675.75,137.0781 Q2675.1094,137.2344 2674.4063,137.2344 Q2671.9063,137.2344 2670.5781,135.5938 Q2669.2656,133.9375 2669.2656,130.8125 Q2669.2656,127.6875 2670.5781,126.0313 Q2671.9063,124.375 2674.4063,124.375 Q2675.1094,124.375 2675.75,124.5313 Q2676.4063,124.6875 2676.9688,124.9844 L2676.9688,127.7031 Q2676.3438,127.125 2675.75,126.8594 Q2675.1563,126.5781 2674.5313,126.5781 Q2673.1875,126.5781 2672.5,127.6563 Q2671.8125,128.7188 2671.8125,130.8125 Q2671.8125,132.9063 2672.5,133.9844 Q2673.1875,135.0469 2674.5313,135.0469 Q2675.1563,135.0469 2675.75,134.7813 Q2676.3438,134.5 2676.9688,133.9219 L2676.9688,136.6406 Z " fill="#000000"/><text fill="#000000" font-family="sans-serif" font-size="14" lengthAdjust="spacing" textLength="134.7773" x="2688" y="135.8467">SamplingCollection</text><line style="stroke:#181818;stroke-width:0.5;" x1="2660" x2="2824.7773" y1="147" y2="147"/><line style="stroke:#181818;stroke-width:0.5;" x1="2660" x2="2824.7773" y1="155" y2="155"/></g><!--class Actuation--><g class="entity" data-qualified-name="Actuation" data-source-line="15" id="ent0035"><rect fill="#F1F1F1" height="48" rx="2.5" ry="2.5" style="stroke:#181818;stroke-width:0.5;" width="99.0332" x="2373" y="115"/><ellipse cx="2388" cy="131" fill="#ADD1B2" rx="11" ry="11" style="stroke:#181818;stroke-width:1;"/><path d="M2390.9688,136.6406 Q2390.3906,136.9375 2389.75,137.0781 Q2389.1094,137.2344 2388.4063,137.2344 Q2385.9063,137.2344 2384.5781,135.5938 Q2383.2656,133.9375 2383.2656,130.8125 Q2383.2656,127.6875 2384.5781,126.0313 Q2385.9063,124.375 2388.4063,124.375 Q2389.1094,124.375 2389.75,124.5313 Q2390.4063,124.6875 2390.9688,124.9844 L2390.9688,127.7031 Q2390.3438,127.125 2389.75,126.8594 Q2389.1563,126.5781 2388.5313,126.5781 Q2387.1875,126.5781 2386.5,127.6563 Q2385.8125,128.7188 2385.8125,130.8125 Q2385.8125,132.9063 2386.5,133.9844 Q2387.1875,135.0469 2388.5313,135.0469 Q2389.1563,135.0469 2389.75,134.7813 Q2390.3438,134.5 2390.9688,133.9219 L2390.9688,136.6406 Z " fill="#000000"/><text fill="#000000" font-family="sans-serif" font-size="14" lengthAdjust="spacing" textLength="67.0332" x="2402" y="135.8467">Actuation</text><line style="stroke:#181818;stroke-width:0.5;" x1="2374" x2="2471.0332" y1="147" y2="147"/><line style="stroke:#181818;stroke-width:0.5;" x1="2374" x2="2471.0332" y1="155" y2="155"/></g><!--class Sensor--><g class="entity" data-qualified-name="Sensor" data-source-line="16" id="ent0037"><rect fill="#F1F1F1" height="48" rx="2.5" ry="2.5" style="stroke:#181818;stroke-width:0.5;" width="79.9883" x="2243.5" y="223"/><ellipse cx="2258.5" cy="239" fill="#ADD1B2" rx="11" ry="11" style="stroke:#181818;stroke-width:1;"/><path d="M2261.4688,244.6406 Q2260.8906,244.9375 2260.25,245.0781 Q2259.6094,245.2344 2258.9063,245.2344 Q2256.4063,245.2344 2255.0781,243.5938 Q2253.7656,241.9375 2253.7656,238.8125 Q2253.7656,235.6875 2255.0781,234.0313 Q2256.4063,232.375 2258.9063,232.375 Q2259.6094,232.375 2260.25,232.5313 Q2260.9063,232.6875 2261.4688,232.9844 L2261.4688,235.7031 Q2260.8438,235.125 2260.25,234.8594 Q2259.6563,234.5781 2259.0313,234.5781 Q2257.6875,234.5781 2257,235.6563 Q2256.3125,236.7188 2256.3125,238.8125 Q2256.3125,240.9063 2257,241.9844 Q2257.6875,243.0469 2259.0313,243.0469 Q2259.6563,243.0469 2260.25,242.7813 Q2260.8438,242.5 2261.4688,241.9219 L2261.4688,244.6406 Z " fill="#000000"/><text fill="#000000" font-family="sans-serif" font-size="14" lengthAdjust="spacing" textLength="47.9883" x="2272.5" y="243.8467">Sensor</text><line style="stroke:#181818;stroke-width:0.5;" x1="2244.5" x2="2322.4883" y1="255" y2="255"/><line style="stroke:#181818;stroke-width:0.5;" x1="2244.5" x2="2322.4883" y1="263" y2="263"/></g><!--class ActuationCollection--><g class="entity" data-qualified-name="ActuationCollection" data-source-line="17" id="ent0039"><rect fill="#F1F1F1" height="48" rx="2.5" ry="2.5" style="stroke:#181818;stroke-width:0.5;" width="168.2813" x="2860.5" y="115"/><ellipse cx="2875.5" cy="131" fill="#ADD1B2" rx="11" ry="11" style="stroke:#181818;stroke-width:1;"/><path d="M2878.4688,136.6406 Q2877.8906,136.9375 2877.25,137.0781 Q2876.6094,137.2344 2875.9063,137.2344 Q2873.4063,137.2344 2872.0781,135.5938 Q2870.7656,133.9375 2870.7656,130.8125 Q2870.7656,127.6875 2872.0781,126.0313 Q2873.4063,124.375 2875.9063,124.375 Q2876.6094,124.375 2877.25,124.5313 Q2877.9063,124.6875 2878.4688,124.9844 L2878.4688,127.7031 Q2877.8438,127.125 2877.25,126.8594 Q2876.6563,126.5781 2876.0313,126.5781 Q2874.6875,126.5781 2874,127.6563 Q2873.3125,128.7188 2873.3125,130.8125 Q2873.3125,132.9063 2874,133.9844 Q2874.6875,135.0469 2876.0313,135.0469 Q2876.6563,135.0469 2877.25,134.7813 Q2877.8438,134.5 2878.4688,133.9219 L2878.4688,136.6406 Z " fill="#000000"/><text fill="#000000" font-family="sans-serif" font-size="14" lengthAdjust="spacing" textLength="136.2813" x="2889.5" y="135.8467">ActuationCollection</text><line style="stroke:#181818;stroke-width:0.5;" x1="2861.5" x2="3027.7813" y1="147" y2="147"/><line style="stroke:#181818;stroke-width:0.5;" x1="2861.5" x2="3027.7813" y1="155" y2="155"/></g><!--class ObservationCollection--><g class="entity" data-qualified-name="ObservationCollection" data-source-line="18" id="ent0041"><rect fill="#F1F1F1" height="48" rx="2.5" ry="2.5" style="stroke:#181818;stroke-width:0.5;" width="186.499" x="3063.5" y="115"/><ellipse cx="3078.5" cy="131" fill="#ADD1B2" rx="11" ry="11" style="stroke:#181818;stroke-width:1;"/><path d="M3081.4688,136.6406 Q3080.8906,136.9375 3080.25,137.0781 Q3079.6094,137.2344 3078.9063,137.2344 Q3076.4063,137.2344 3075.0781,135.5938 Q3073.7656,133.9375 3073.7656,130.8125 Q3073.7656,127.6875 3075.0781,126.0313 Q3076.4063,124.375 3078.9063,124.375 Q3079.6094,124.375 3080.25,124.5313 Q3080.9063,124.6875 3081.4688,124.9844 L3081.4688,127.7031 Q3080.8438,127.125 3080.25,126.8594 Q3079.6563,126.5781 3079.0313,126.5781 Q3077.6875,126.5781 3077,127.6563 Q3076.3125,128.7188 3076.3125,130.8125 Q3076.3125,132.9063 3077,133.9844 Q3077.6875,135.0469 3079.0313,135.0469 Q3079.6563,135.0469 3080.25,134.7813 Q3080.8438,134.5 3081.4688,133.9219 L3081.4688,136.6406 Z " fill="#000000"/><text fill="#000000" font-family="sans-serif" font-size="14" lengthAdjust="spacing" textLength="154.499" x="3092.5" y="135.8467">ObservationCollection</text><line style="stroke:#181818;stroke-width:0.5;" x1="3064.5" x2="3248.999" y1="147" y2="147"/><line style="stroke:#181818;stroke-width:0.5;" x1="3064.5" x2="3248.999" y1="155" y2="155"/></g><!--class Observation--><g class="entity" data-qualified-name="Observation" data-source-line="19" id="ent0043"><rect fill="#F1F1F1" height="48" rx="2.5" ry="2.5" style="stroke:#181818;stroke-width:0.5;" width="117.251" x="2507" y="115"/><ellipse cx="2522" cy="131" fill="#ADD1B2" rx="11" ry="11" style="stroke:#181818;stroke-width:1;"/><path d="M2524.9688,136.6406 Q2524.3906,136.9375 2523.75,137.0781 Q2523.1094,137.2344 2522.4063,137.2344 Q2519.9063,137.2344 2518.5781,135.5938 Q2517.2656,133.9375 2517.2656,130.8125 Q2517.2656,127.6875 2518.5781,126.0313 Q2519.9063,124.375 2522.4063,124.375 Q2523.1094,124.375 2523.75,124.5313 Q2524.4063,124.6875 2524.9688,124.9844 L2524.9688,127.7031 Q2524.3438,127.125 2523.75,126.8594 Q2523.1563,126.5781 2522.5313,126.5781 Q2521.1875,126.5781 2520.5,127.6563 Q2519.8125,128.7188 2519.8125,130.8125 Q2519.8125,132.9063 2520.5,133.9844 Q2521.1875,135.0469 2522.5313,135.0469 Q2523.1563,135.0469 2523.75,134.7813 Q2524.3438,134.5 2524.9688,133.9219 L2524.9688,136.6406 Z " fill="#000000"/><text fill="#000000" font-family="sans-serif" font-size="14" lengthAdjust="spacing" textLength="85.251" x="2536" y="135.8467">Observation</text><line style="stroke:#181818;stroke-width:0.5;" x1="2508" x2="2623.251" y1="147" y2="147"/><line style="stroke:#181818;stroke-width:0.5;" x1="2508" x2="2623.251" y1="155" y2="155"/></g><!--class Result--><g class="entity" data-qualified-name="Result" data-source-line="20" id="ent0045"><rect fill="#F1F1F1" height="48" rx="2.5" ry="2.5" style="stroke:#181818;stroke-width:0.5;" width="75.8867" x="15.5" y="7"/><ellipse cx="30.5" cy="23" fill="#ADD1B2" rx="11" ry="11" style="stroke:#181818;stroke-width:1;"/><path d="M33.4688,28.6406 Q32.8906,28.9375 32.25,29.0781 Q31.6094,29.2344 30.9063,29.2344 Q28.4063,29.2344 27.0781,27.5938 Q25.7656,25.9375 25.7656,22.8125 Q25.7656,19.6875 27.0781,18.0313 Q28.4063,16.375 30.9063,16.375 Q31.6094,16.375 32.25,16.5313 Q32.9063,16.6875 33.4688,16.9844 L33.4688,19.7031 Q32.8438,19.125 32.25,18.8594 Q31.6563,18.5781 31.0313,18.5781 Q29.6875,18.5781 29,19.6563 Q28.3125,20.7188 28.3125,22.8125 Q28.3125,24.9063 29,25.9844 Q29.6875,27.0469 31.0313,27.0469 Q31.6563,27.0469 32.25,26.7813 Q32.8438,26.5 33.4688,25.9219 L33.4688,28.6406 Z " fill="#000000"/><text fill="#000000" font-family="sans-serif" font-size="14" lengthAdjust="spacing" textLength="43.8867" x="44.5" y="27.8467">Result</text><line style="stroke:#181818;stroke-width:0.5;" x1="16.5" x2="90.3867" y1="39" y2="39"/><line style="stroke:#181818;stroke-width:0.5;" x1="16.5" x2="90.3867" y1="47" y2="47"/></g><!--class SampleCollection--><g class="entity" data-qualified-name="SampleCollection" data-source-line="21" id="ent0046"><rect fill="#F1F1F1" height="48" rx="2.5" ry="2.5" style="stroke:#181818;stroke-width:0.5;" width="153.7412" x="126.5" y="7"/><ellipse cx="141.5" cy="23" fill="#ADD1B2" rx="11" ry="11" style="stroke:#181818;stroke-width:1;"/><path d="M144.4688,28.6406 Q143.8906,28.9375 143.25,29.0781 Q142.6094,29.2344 141.9063,29.2344 Q139.4063,29.2344 138.0781,27.5938 Q136.7656,25.9375 136.7656,22.8125 Q136.7656,19.6875 138.0781,18.0313 Q139.4063,16.375 141.9063,16.375 Q142.6094,16.375 143.25,16.5313 Q143.9063,16.6875 144.4688,16.9844 L144.4688,19.7031 Q143.8438,19.125 143.25,18.8594 Q142.6563,18.5781 142.0313,18.5781 Q140.6875,18.5781 140,19.6563 Q139.3125,20.7188 139.3125,22.8125 Q139.3125,24.9063 140,25.9844 Q140.6875,27.0469 142.0313,27.0469 Q142.6563,27.0469 143.25,26.7813 Q143.8438,26.5 144.4688,25.9219 L144.4688,28.6406 Z " fill="#000000"/><text fill="#000000" font-family="sans-serif" font-size="14" lengthAdjust="spacing" textLength="121.7412" x="155.5" y="27.8467">SampleCollection</text><line style="stroke:#181818;stroke-width:0.5;" x1="127.5" x2="279.2412" y1="39" y2="39"/><line style="stroke:#181818;stroke-width:0.5;" x1="127.5" x2="279.2412" y1="47" y2="47"/></g><!--class Deployment--><g class="entity" data-qualified-name="Deployment" data-source-line="22" id="ent0047"><rect fill="#F1F1F1" height="48" rx="2.5" ry="2.5" style="stroke:#181818;stroke-width:0.5;" width="117.6338" x="315.5" y="7"/><ellipse cx="330.5" cy="23" fill="#ADD1B2" rx="11" ry="11" style="stroke:#181818;stroke-width:1;"/><path d="M333.4688,28.6406 Q332.8906,28.9375 332.25,29.0781 Q331.6094,29.2344 330.9063,29.2344 Q328.4063,29.2344 327.0781,27.5938 Q325.7656,25.9375 325.7656,22.8125 Q325.7656,19.6875 327.0781,18.0313 Q328.4063,16.375 330.9063,16.375 Q331.6094,16.375 332.25,16.5313 Q332.9063,16.6875 333.4688,16.9844 L333.4688,19.7031 Q332.8438,19.125 332.25,18.8594 Q331.6563,18.5781 331.0313,18.5781 Q329.6875,18.5781 329,19.6563 Q328.3125,20.7188 328.3125,22.8125 Q328.3125,24.9063 329,25.9844 Q329.6875,27.0469 331.0313,27.0469 Q331.6563,27.0469 332.25,26.7813 Q332.8438,26.5 333.4688,25.9219 L333.4688,28.6406 Z " fill="#000000"/><text fill="#000000" font-family="sans-serif" font-size="14" lengthAdjust="spacing" textLength="85.6338" x="344.5" y="27.8467">Deployment</text><line style="stroke:#181818;stroke-width:0.5;" x1="316.5" x2="432.1338" y1="39" y2="39"/><line style="stroke:#181818;stroke-width:0.5;" x1="316.5" x2="432.1338" y1="47" y2="47"/></g><!--class Stimulus--><g class="entity" data-qualified-name="Stimulus" data-source-line="25" id="ent0048"><rect fill="#F1F1F1" height="48" rx="2.5" ry="2.5" style="stroke:#181818;stroke-width:0.5;" width="92.833" x="7" y="115"/><ellipse cx="22" cy="131" fill="#ADD1B2" rx="11" ry="11" style="stroke:#181818;stroke-width:1;"/><path d="M24.9688,136.6406 Q24.3906,136.9375 23.75,137.0781 Q23.1094,137.2344 22.4063,137.2344 Q19.9063,137.2344 18.5781,135.5938 Q17.2656,133.9375 17.2656,130.8125 Q17.2656,127.6875 18.5781,126.0313 Q19.9063,124.375 22.4063,124.375 Q23.1094,124.375 23.75,124.5313 Q24.4063,124.6875 24.9688,124.9844 L24.9688,127.7031 Q24.3438,127.125 23.75,126.8594 Q23.1563,126.5781 22.5313,126.5781 Q21.1875,126.5781 20.5,127.6563 Q19.8125,128.7188 19.8125,130.8125 Q19.8125,132.9063 20.5,133.9844 Q21.1875,135.0469 22.5313,135.0469 Q23.1563,135.0469 23.75,134.7813 Q24.3438,134.5 24.9688,133.9219 L24.9688,136.6406 Z " fill="#000000"/><text fill="#000000" font-family="sans-serif" font-size="14" lengthAdjust="spacing" textLength="60.833" x="36" y="135.8467">Stimulus</text><line style="stroke:#181818;stroke-width:0.5;" x1="8" x2="98.833" y1="147" y2="147"/><line style="stroke:#181818;stroke-width:0.5;" x1="8" x2="98.833" y1="155" y2="155"/></g><!--class Input--><g class="entity" data-qualified-name="Input" data-source-line="26" id="ent0049"><rect fill="#F1F1F1" height="48" rx="2.5" ry="2.5" style="stroke:#181818;stroke-width:0.5;" width="68.251" x="135.5" y="115"/><ellipse cx="150.5" cy="131" fill="#ADD1B2" rx="11" ry="11" style="stroke:#181818;stroke-width:1;"/><path d="M153.4688,136.6406 Q152.8906,136.9375 152.25,137.0781 Q151.6094,137.2344 150.9063,137.2344 Q148.4063,137.2344 147.0781,135.5938 Q145.7656,133.9375 145.7656,130.8125 Q145.7656,127.6875 147.0781,126.0313 Q148.4063,124.375 150.9063,124.375 Q151.6094,124.375 152.25,124.5313 Q152.9063,124.6875 153.4688,124.9844 L153.4688,127.7031 Q152.8438,127.125 152.25,126.8594 Q151.6563,126.5781 151.0313,126.5781 Q149.6875,126.5781 149,127.6563 Q148.3125,128.7188 148.3125,130.8125 Q148.3125,132.9063 149,133.9844 Q149.6875,135.0469 151.0313,135.0469 Q151.6563,135.0469 152.25,134.7813 Q152.8438,134.5 153.4688,133.9219 L153.4688,136.6406 Z " fill="#000000"/><text fill="#000000" font-family="sans-serif" font-size="14" lengthAdjust="spacing" textLength="36.251" x="164.5" y="135.8467">Input</text><line style="stroke:#181818;stroke-width:0.5;" x1="136.5" x2="202.751" y1="147" y2="147"/><line style="stroke:#181818;stroke-width:0.5;" x1="136.5" x2="202.751" y1="155" y2="155"/></g><!--class FeatureOfInterest--><g class="entity" data-qualified-name="FeatureOfInterest" data-source-line="27" id="ent0050"><rect fill="#F1F1F1" height="48" rx="2.5" ry="2.5" style="stroke:#181818;stroke-width:0.5;" width="156.1816" x="238.5" y="115"/><ellipse cx="253.5" cy="131" fill="#ADD1B2" rx="11" ry="11" style="stroke:#181818;stroke-width:1;"/><path d="M256.4688,136.6406 Q255.8906,136.9375 255.25,137.0781 Q254.6094,137.2344 253.9063,137.2344 Q251.4063,137.2344 250.0781,135.5938 Q248.7656,133.9375 248.7656,130.8125 Q248.7656,127.6875 250.0781,126.0313 Q251.4063,124.375 253.9063,124.375 Q254.6094,124.375 255.25,124.5313 Q255.9063,124.6875 256.4688,124.9844 L256.4688,127.7031 Q255.8438,127.125 255.25,126.8594 Q254.6563,126.5781 254.0313,126.5781 Q252.6875,126.5781 252,127.6563 Q251.3125,128.7188 251.3125,130.8125 Q251.3125,132.9063 252,133.9844 Q252.6875,135.0469 254.0313,135.0469 Q254.6563,135.0469 255.25,134.7813 Q255.8438,134.5 256.4688,133.9219 L256.4688,136.6406 Z " fill="#000000"/><text fill="#000000" font-family="sans-serif" font-size="14" lengthAdjust="spacing" textLength="124.1816" x="267.5" y="135.8467">FeatureOfInterest</text><line style="stroke:#181818;stroke-width:0.5;" x1="239.5" x2="393.6816" y1="147" y2="147"/><line style="stroke:#181818;stroke-width:0.5;" x1="239.5" x2="393.6816" y1="155" y2="155"/></g><!--class Output--><g class="entity" data-qualified-name="Output" data-source-line="29" id="ent0051"><rect fill="#F1F1F1" height="48" rx="2.5" ry="2.5" style="stroke:#181818;stroke-width:0.5;" width="80.6309" x="13" y="223"/><ellipse cx="28" cy="239" fill="#ADD1B2" rx="11" ry="11" style="stroke:#181818;stroke-width:1;"/><path d="M30.9688,244.6406 Q30.3906,244.9375 29.75,245.0781 Q29.1094,245.2344 28.4063,245.2344 Q25.9063,245.2344 24.5781,243.5938 Q23.2656,241.9375 23.2656,238.8125 Q23.2656,235.6875 24.5781,234.0313 Q25.9063,232.375 28.4063,232.375 Q29.1094,232.375 29.75,232.5313 Q30.4063,232.6875 30.9688,232.9844 L30.9688,235.7031 Q30.3438,235.125 29.75,234.8594 Q29.1563,234.5781 28.5313,234.5781 Q27.1875,234.5781 26.5,235.6563 Q25.8125,236.7188 25.8125,238.8125 Q25.8125,240.9063 26.5,241.9844 Q27.1875,243.0469 28.5313,243.0469 Q29.1563,243.0469 29.75,242.7813 Q30.3438,242.5 30.9688,241.9219 L30.9688,244.6406 Z " fill="#000000"/><text fill="#000000" font-family="sans-serif" font-size="14" lengthAdjust="spacing" textLength="48.6309" x="42" y="243.8467">Output</text><line style="stroke:#181818;stroke-width:0.5;" x1="14" x2="92.6309" y1="255" y2="255"/><line style="stroke:#181818;stroke-width:0.5;" x1="14" x2="92.6309" y1="263" y2="263"/></g><!--reverse link Property to ActuatableProperty--><g class="link" data-entity-1="ent0001" data-entity-2="ent0002" data-link-type="extension" data-source-line="1" id="lnk3"><path codeLine="1" d="M581.6061,67.9094 C564.4461,85.5694 553.4,96.94 536.16,114.68" fill="none" id="Property-backto-ActuatableProperty" style="stroke:#181818;stroke-width:1;"/><polygon fill="none" points="594.15,55,577.303,63.7281,585.9093,72.0906,594.15,55" style="stroke:#181818;stroke-width:1;stroke-linejoin:miter;stroke-miterlimit:10;"/></g><!--reverse link Sample to MaterialSample--><g class="link" data-entity-1="ent0004" data-entity-2="ent0005" data-link-type="extension" data-source-line="2" id="lnk6"><path codeLine="2" d="M1029.8567,64.4445 C1001.1067,82.1645 976.85,97.11 948.05,114.86" fill="none" id="Sample-backto-MaterialSample" style="stroke:#181818;stroke-width:1;"/><polygon fill="none" points="1045.18,55,1026.7086,59.3367,1033.0049,69.5522,1045.18,55" style="stroke:#181818;stroke-width:1;stroke-linejoin:miter;stroke-miterlimit:10;"/></g><!--reverse link Sample to SpatialSample--><g class="link" data-entity-1="ent0004" data-entity-2="ent0007" data-link-type="extension" data-source-line="3" id="lnk8"><path codeLine="3" d="M1082.5,73 C1082.5,90.66 1082.5,96.94 1082.5,114.68" fill="none" id="Sample-backto-SpatialSample" style="stroke:#181818;stroke-width:1;"/><polygon fill="none" points="1082.5,55,1076.5,73,1088.5,73,1082.5,55" style="stroke:#181818;stroke-width:1;stroke-linejoin:miter;stroke-miterlimit:10;"/></g><!--reverse link Sample to StatisticalSample--><g class="link" data-entity-1="ent0004" data-entity-2="ent0009" data-link-type="extension" data-source-line="4" id="lnk10"><path codeLine="4" d="M1136.8276,64.1725 C1166.7476,81.8925 1192.45,97.11 1222.43,114.86" fill="none" id="Sample-backto-StatisticalSample" style="stroke:#181818;stroke-width:1;"/><polygon fill="none" points="1121.34,55,1133.7701,69.335,1139.8851,59.0099,1121.34,55" style="stroke:#181818;stroke-width:1;stroke-linejoin:miter;stroke-miterlimit:10;"/></g><!--reverse link Property to ObservableProperty--><g class="link" data-entity-1="ent0001" data-entity-2="ent0011" data-link-type="extension" data-source-line="5" id="lnk12"><path codeLine="5" d="M651.1095,67.9716 C668.0995,85.6316 678.99,96.94 696.06,114.68" fill="none" id="Property-backto-ObservableProperty" style="stroke:#181818;stroke-width:1;"/><polygon fill="none" points="638.63,55,646.7856,72.1314,655.4333,63.8118,638.63,55" style="stroke:#181818;stroke-width:1;stroke-linejoin:miter;stroke-miterlimit:10;"/></g><!--reverse link Procedure to ActuatingProcedure--><g class="link" data-entity-1="ent0013" data-entity-2="ent0014" data-link-type="extension" data-source-line="6" id="lnk15"><path codeLine="6" d="M1606.3326,63.1732 C1571.5626,80.8932 1539.74,97.11 1504.9,114.86" fill="none" id="Procedure-backto-ActuatingProcedure" style="stroke:#181818;stroke-width:1;"/><polygon fill="none" points="1622.37,55,1603.6082,57.8274,1609.057,68.519,1622.37,55" style="stroke:#181818;stroke-width:1;stroke-linejoin:miter;stroke-miterlimit:10;"/></g><!--reverse link Procedure to ObservingProcedure--><g class="link" data-entity-1="ent0013" data-entity-2="ent0016" data-link-type="extension" data-source-line="7" id="lnk17"><path codeLine="7" d="M1667.5,73 C1667.5,90.66 1667.5,96.94 1667.5,114.68" fill="none" id="Procedure-backto-ObservingProcedure" style="stroke:#181818;stroke-width:1;"/><polygon fill="none" points="1667.5,55,1661.5,73,1673.5,73,1667.5,55" style="stroke:#181818;stroke-width:1;stroke-linejoin:miter;stroke-miterlimit:10;"/></g><!--reverse link Procedure to SamplingProcedure--><g class="link" data-entity-1="ent0013" data-entity-2="ent0018" data-link-type="extension" data-source-line="8" id="lnk19"><path codeLine="8" d="M1728.4411,63.205 C1763.0411,80.925 1794.65,97.11 1829.31,114.86" fill="none" id="Procedure-backto-SamplingProcedure" style="stroke:#181818;stroke-width:1;"/><polygon fill="none" points="1712.42,55,1725.7061,68.5454,1731.1762,57.8647,1712.42,55" style="stroke:#181818;stroke-width:1;stroke-linejoin:miter;stroke-miterlimit:10;"/></g><!--reverse link Asset to Platform--><g class="link" data-entity-1="ent0020" data-entity-2="ent0021" data-link-type="extension" data-source-line="9" id="lnk22"><path codeLine="9" d="M2078.2839,70.6022 C2068.1239,88.2622 2063.13,96.94 2052.92,114.68" fill="none" id="Asset-backto-Platform" style="stroke:#181818;stroke-width:1;"/><polygon fill="none" points="2087.26,55,2073.0831,67.6102,2083.4846,73.5943,2087.26,55" style="stroke:#181818;stroke-width:1;stroke-linejoin:miter;stroke-miterlimit:10;"/></g><!--reverse link System to Sampler--><g class="link" data-entity-1="ent0023" data-entity-2="ent0024" data-link-type="extension" data-source-line="10" id="lnk25"><path codeLine="10" d="M2121.3865,174.5884 C2100.3965,192.2484 2085.31,204.94 2064.22,222.68" fill="none" id="System-backto-Sampler" style="stroke:#181818;stroke-width:1;"/><polygon fill="none" points="2135.16,163,2117.5237,169.9972,2125.2493,179.1795,2135.16,163" style="stroke:#181818;stroke-width:1;stroke-linejoin:miter;stroke-miterlimit:10;"/></g><!--reverse link System to Actuator--><g class="link" data-entity-1="ent0023" data-entity-2="ent0026" data-link-type="extension" data-source-line="11" id="lnk27"><path codeLine="11" d="M2162.5,181 C2162.5,198.66 2162.5,204.94 2162.5,222.68" fill="none" id="System-backto-Actuator" style="stroke:#181818;stroke-width:1;"/><polygon fill="none" points="2162.5,163,2156.5,181,2168.5,181,2162.5,163" style="stroke:#181818;stroke-width:1;stroke-linejoin:miter;stroke-miterlimit:10;"/></g><!--reverse link Asset to System--><g class="link" data-entity-1="ent0020" data-entity-2="ent0023" data-link-type="extension" data-source-line="12" id="lnk28"><path codeLine="12" d="M2123.0383,70.5372 C2133.3683,88.1972 2138.48,96.94 2148.86,114.68" fill="none" id="Asset-backto-System" style="stroke:#181818;stroke-width:1;"/><polygon fill="none" points="2113.95,55,2117.8592,73.5666,2128.2173,67.5077,2113.95,55" style="stroke:#181818;stroke-width:1;stroke-linejoin:miter;stroke-miterlimit:10;"/></g><!--reverse link Execution to Sampling--><g class="link" data-entity-1="ent0029" data-entity-2="ent0030" data-link-type="extension" data-source-line="13" id="lnk31"><path codeLine="13" d="M2379.3041,66.1688 C2356.9841,83.8288 2340.41,96.94 2317.98,114.68" fill="none" id="Execution-backto-Sampling" style="stroke:#181818;stroke-width:1;"/><polygon fill="none" points="2393.42,55,2375.5812,61.4635,2383.027,70.8741,2393.42,55" style="stroke:#181818;stroke-width:1;stroke-linejoin:miter;stroke-miterlimit:10;"/></g><!--reverse link ExecutionCollection to SamplingCollection--><g class="link" data-entity-1="ent0032" data-entity-2="ent0033" data-link-type="extension" data-source-line="14" id="lnk34"><path codeLine="14" d="M2884.731,63.3636 C2850.961,81.0836 2820.43,97.11 2786.59,114.86" fill="none" id="ExecutionCollection-backto-SamplingCollection" style="stroke:#181818;stroke-width:1;"/><polygon fill="none" points="2900.67,55,2881.9432,58.0506,2887.5189,68.6766,2900.67,55" style="stroke:#181818;stroke-width:1;stroke-linejoin:miter;stroke-miterlimit:10;"/></g><!--reverse link Execution to Actuation--><g class="link" data-entity-1="ent0029" data-entity-2="ent0035" data-link-type="extension" data-source-line="15" id="lnk36"><path codeLine="15" d="M2422.5,73 C2422.5,90.66 2422.5,96.94 2422.5,114.68" fill="none" id="Execution-backto-Actuation" style="stroke:#181818;stroke-width:1;"/><polygon fill="none" points="2422.5,55,2416.5,73,2428.5,73,2422.5,55" style="stroke:#181818;stroke-width:1;stroke-linejoin:miter;stroke-miterlimit:10;"/></g><!--reverse link System to Sensor--><g class="link" data-entity-1="ent0023" data-entity-2="ent0037" data-link-type="extension" data-source-line="16" id="lnk38"><path codeLine="16" d="M2202.2968,174.864 C2222.4468,192.524 2236.63,204.94 2256.88,222.68" fill="none" id="System-backto-Sensor" style="stroke:#181818;stroke-width:1;"/><polygon fill="none" points="2188.76,163,2198.3421,179.3763,2206.2515,170.3518,2188.76,163" style="stroke:#181818;stroke-width:1;stroke-linejoin:miter;stroke-miterlimit:10;"/></g><!--reverse link ExecutionCollection to ActuationCollection--><g class="link" data-entity-1="ent0032" data-entity-2="ent0039" data-link-type="extension" data-source-line="17" id="lnk40"><path codeLine="17" d="M2944.5,73 C2944.5,90.66 2944.5,96.94 2944.5,114.68" fill="none" id="ExecutionCollection-backto-ActuationCollection" style="stroke:#181818;stroke-width:1;"/><polygon fill="none" points="2944.5,55,2938.5,73,2950.5,73,2944.5,55" style="stroke:#181818;stroke-width:1;stroke-linejoin:miter;stroke-miterlimit:10;"/></g><!--reverse link ExecutionCollection to ObservationCollection--><g class="link" data-entity-1="ent0032" data-entity-2="ent0041" data-link-type="extension" data-source-line="18" id="lnk42"><path codeLine="18" d="M3006.5997,63.0498 C3042.0397,80.7698 3074.72,97.11 3110.22,114.86" fill="none" id="ExecutionCollection-backto-ObservationCollection" style="stroke:#181818;stroke-width:1;"/><polygon fill="none" points="2990.5,55,3003.9164,68.4164,3009.283,57.6833,2990.5,55" style="stroke:#181818;stroke-width:1;stroke-linejoin:miter;stroke-miterlimit:10;"/></g><!--reverse link Execution to Observation--><g class="link" data-entity-1="ent0029" data-entity-2="ent0043" data-link-type="extension" data-source-line="19" id="lnk44"><path codeLine="19" d="M2467.9895,65.7202 C2491.8095,83.3802 2510.11,96.94 2534.04,114.68" fill="none" id="Execution-backto-Observation" style="stroke:#181818;stroke-width:1;"/><polygon fill="none" points="2453.53,55,2464.4161,70.54,2471.5629,60.9004,2453.53,55" style="stroke:#181818;stroke-width:1;stroke-linejoin:miter;stroke-miterlimit:10;"/></g><?plantuml-src VL9BRiGW3Dtd5Bd0tA2RKJ_IBAf4pGaOwgcGp4VOL8tKmnVLX8HCqnr-Fnl367s0o7F_y7qwzMVDIR6w8em5xoPb0uBGhueX6eM2DTGK51ymd1bYeoixDZs7Aq7yR7hcWuRt564xbN4V5Tyh9EC_nM_hHd0c0XPoHCKt7sqtpSHWDmw83IQJ-BWr2zyzVu5ERBnh-wtueqS4VQzOyNr6kNScchd0KPxWCBUw_WhUYyloZ-HteawZ8khVW19oAMHH6xl0Jn3GpnRSeglFUy1FR6p2HAMyk90MwWKKvpSRRXUNVo1GjSZkfHWIhuubx0S0?></g></svg>