<svg xmlns="http://www.w3.org/2000/svg" xmlns:xlink="http://www.w3.org/1999/xlink" contentStyleType="text/css" data-diagram-type="CLASS" height="286px" preserveAspectRatio="none" style="width:3259px;height:286px;background:#FFFFFF;" version="1.1" viewBox="0 0 3259 286" width="3259px" zoomAndPan="magnify"><?plantuml 1.2026.5?><defs/><g><!--class Property--><g class="entity" data-qualified-name="Property" data-source-line="1" id="ent0001"><rect fill="#F1F1F1" height="48" rx="2.5" ry="2.5" style="stroke:#181818;stroke-width:0.5;" width="91.7939" x="570" y="7"/><ellipse cx="585" cy="23" fill="#ADD1B2" rx="11" ry="11" style="stroke:#181818;stroke-width:1;"/><path d="M587.9688,28.6406 Q587.3906,28.9375 586.75,29.0781 Q586.1094,29.2344 585.4063,29.2344 Q582.9063,29.2344 581.5781,27.5938 Q580.2656,25.9375 580.2656,22.8125 Q580.2656,19.6875 581.5781,18.0313 Q582.9063,16.375 585.4063,16.375 Q586.1094,16.375 586.75,16.5313 Q587.4063,16.6875 587.9688,16.9844 L587.9688,19.7031 Q587.3438,19.125 586.75,18.8594 Q586.1563,18.5781 585.5313,18.5781 Q584.1875,18.5781 583.5,19.6563 Q582.8125,20.7188 582.8125,22.8125 Q582.8125,24.9063 583.5,25.9844 Q584.1875,27.0469 585.5313,27.0469 Q586.1563,27.0469 586.75,26.7813 Q587.3438,26.5 587.9688,25.9219 L587.9688,28.6406 Z " fill="#000000"/><text fill="#000000" font-family="sans-serif" font-size="14" lengthAdjust="spacing" textLength="59.7939" x="599" y="27.8467">Property</text><line style="stroke:#181818;stroke-width:0.5;" x1="571" x2="660.7939" y1="39" y2="39"/><line style="stroke:#181818;stroke-width:0.5;" x1="571" x2="660.7939" y1="47" y2="47"/></g><!--class ActuatableProperty--><g class="entity" data-qualified-name="ActuatableProperty" data-source-line="1" id="ent0002"><rect fill="#F1F1F1" height="48" rx="2.5" ry="2.5" style="stroke:#181818;stroke-width:0.5;" width="167.4678" x="424.5" y="115"/><ellipse cx="439.5" cy="131" fill="#ADD1B2" rx="11" ry="11" style="stroke:#181818;stroke-width:1;"/><path d="M442.4688,136.6406 Q441.8906,136.9375 441.25,137.0781 Q440.6094,137.2344 439.9063,137.2344 Q437.4063,137.2344 436.0781,135.5938 Q434.7656,133.9375 434.7656,130.8125 Q434.7656,127.6875 436.0781,126.0313 Q437.4063,124.375 439.9063,124.375 Q440.6094,124.375 441.25,124.5313 Q441.9063,124.6875 442.4688,124.9844 L442.4688,127.7031 Q441.8438,127.125 441.25,126.8594 Q440.6563,126.5781 440.0313,126.5781 Q438.6875,126.5781 438,127.6563 Q437.3125,128.7188 437.3125,130.8125 Q437.3125,132.9063 438,133.9844 Q438.6875,135.0469 440.0313,135.0469 Q440.6563,135.0469 441.25,134.7813 Q441.8438,134.5 442.4688,133.9219 L442.4688,136.6406 Z " fill="#000000"/><text fill="#000000" font-family="sans-serif" font-size="14" lengthAdjust="spacing" textLength="135.4678" x="453.5" y="135.8467">ActuatableProperty</text><line style="stroke:#181818;stroke-width:0.5;" x1="425.5" x2="590.9678" y1="147" y2="147"/><line style="stroke:#181818;stroke-width:0.5;" x1="425.5" x2="590.9678" y1="155" y2="155"/></g><!--class Sample--><g class="entity" data-qualified-name="Sample" data-source-line="2" id="ent0004"><rect fill="#F1F1F1" height="48" rx="2.5" ry="2.5" style="stroke:#181818;stroke-width:0.5;" width="84.4932" x="1035" y="7"/><ellipse cx="1050" cy="23" fill="#ADD1B2" rx="11" ry="11" style="stroke:#181818;stroke-width:1;"/><path d="M1052.9688,28.6406 Q1052.3906,28.9375 1051.75,29.0781 Q1051.1094,29.2344 1050.4063,29.2344 Q1047.9063,29.2344 1046.5781,27.5938 Q1045.2656,25.9375 1045.2656,22.8125 Q1045.2656,19.6875 1046.5781,18.0313 Q1047.9063,16.375 1050.4063,16.375 Q1051.1094,16.375 1051.75,16.5313 Q1052.4063,16.6875 1052.9688,16.9844 L1052.9688,19.7031 Q1052.3438,19.125 1051.75,18.8594 Q1051.1563,18.5781 1050.5313,18.5781 Q1049.1875,18.5781 1048.5,19.6563 Q1047.8125,20.7188 1047.8125,22.8125 Q1047.8125,24.9063 1048.5,25.9844 Q1049.1875,27.0469 1050.5313,27.0469 Q1051.1563,27.0469 1051.75,26.7813 Q1052.3438,26.5 1052.9688,25.9219 L1052.9688,28.6406 Z " fill="#000000"/><text fill="#000000" font-family="sans-serif" font-size="14" lengthAdjust="spacing" textLength="52.4932" x="1064" y="27.8467">Sample</text><line style="stroke:#181818;stroke-width:0.5;" x1="1036" x2="1118.4932" y1="39" y2="39"/><line style="stroke:#181818;stroke-width:0.5;" x1="1036" x2="1118.4932" y1="47" y2="47"/></g><!--class MaterialSample--><g class="entity" data-qualified-name="MaterialSample" data-source-line="2" id="ent0005"><rect fill="#F1F1F1" height="48" rx="2.5" ry="2.5" style="stroke:#181818;stroke-width:0.5;" width="141.3682" x="834.5" y="115"/><ellipse cx="849.5" cy="131" fill="#ADD1B2" rx="11" ry="11" style="stroke:#181818;stroke-width:1;"/><path d="M852.4688,136.6406 Q851.8906,136.9375 851.25,137.0781 Q850.6094,137.2344 849.9063,137.2344 Q847.4063,137.2344 846.0781,135.5938 Q844.7656,133.9375 844.7656,130.8125 Q844.7656,127.6875 846.0781,126.0313 Q847.4063,124.375 849.9063,124.375 Q850.6094,124.375 851.25,124.5313 Q851.9063,124.6875 852.4688,124.9844 L852.4688,127.7031 Q851.8438,127.125 851.25,126.8594 Q850.6563,126.5781 850.0313,126.5781 Q848.6875,126.5781 848,127.6563 Q847.3125,128.7188 847.3125,130.8125 Q847.3125,132.9063 848,133.9844 Q848.6875,135.0469 850.0313,135.0469 Q850.6563,135.0469 851.25,134.7813 Q851.8438,134.5 852.4688,133.9219 L852.4688,136.6406 Z " fill="#000000"/><text fill="#000000" font-family="sans-serif" font-size="14" lengthAdjust="spacing" textLength="109.3682" x="863.5" y="135.8467">MaterialSample</text><line style="stroke:#181818;stroke-width:0.5;" x1="835.5" x2="974.8682" y1="147" y2="147"/><line style="stroke:#181818;stroke-width:0.5;" x1="835.5" x2="974.8682" y1="155" y2="155"/></g><!--class SpatialSample--><g class="entity" data-qualified-name="SpatialSample" data-source-line="3" id="ent0007"><rect fill="#F1F1F1" height="48" rx="2.5" ry="2.5" style="stroke:#181818;stroke-width:0.5;" width="132.6934" x="1010.5" y="115"/><ellipse cx="1025.5" cy="131" fill="#ADD1B2" rx="11" ry="11" style="stroke:#181818;stroke-width:1;"/><path d="M1028.4688,136.6406 Q1027.8906,136.9375 1027.25,137.0781 Q1026.6094,137.2344 1025.9063,137.2344 Q1023.4063,137.2344 1022.0781,135.5938 Q1020.7656,133.9375 1020.7656,130.8125 Q1020.7656,127.6875 1022.0781,126.0313 Q1023.4063,124.375 1025.9063,124.375 Q1026.6094,124.375 1027.25,124.5313 Q1027.9063,124.6875 1028.4688,124.9844 L1028.4688,127.7031 Q1027.8438,127.125 1027.25,126.8594 Q1026.6563,126.5781 1026.0313,126.5781 Q1024.6875,126.5781 1024,127.6563 Q1023.3125,128.7188 1023.3125,130.8125 Q1023.3125,132.9063 1024,133.9844 Q1024.6875,135.0469 1026.0313,135.0469 Q1026.6563,135.0469 1027.25,134.7813 Q1027.8438,134.5 1028.4688,133.9219 L1028.4688,136.6406 Z " fill="#000000"/><text fill="#000000" font-family="sans-serif" font-size="14" lengthAdjust="spacing" textLength="100.6934" x="1039.5" y="135.8467">SpatialSample</text><line style="stroke:#181818;stroke-width:0.5;" x1="1011.5" x2="1142.1934" y1="147" y2="147"/><line style="stroke:#181818;stroke-width:0.5;" x1="1011.5" x2="1142.1934" y1="155" y2="155"/></g><!--class StatisticalSample--><g class="entity" data-qualified-name="StatisticalSample" data-source-line="4" id="ent0009"><rect fill="#F1F1F1" height="48" rx="2.5" ry="2.5" style="stroke:#181818;stroke-width:0.5;" width="153.666" x="1179" y="115"/><ellipse cx="1194" cy="131" fill="#ADD1B2" rx="11" ry="11" style="stroke:#181818;stroke-width:1;"/><path d="M1196.9688,136.6406 Q1196.3906,136.9375 1195.75,137.0781 Q1195.1094,137.2344 1194.4063,137.2344 Q1191.9063,137.2344 1190.5781,135.5938 Q1189.2656,133.9375 1189.2656,130.8125 Q1189.2656,127.6875 1190.5781,126.0313 Q1191.9063,124.375 1194.4063,124.375 Q1195.1094,124.375 1195.75,124.5313 Q1196.4063,124.6875 1196.9688,124.9844 L1196.9688,127.7031 Q1196.3438,127.125 1195.75,126.8594 Q1195.1563,126.5781 1194.5313,126.5781 Q1193.1875,126.5781 1192.5,127.6563 Q1191.8125,128.7188 1191.8125,130.8125 Q1191.8125,132.9063 1192.5,133.9844 Q1193.1875,135.0469 1194.5313,135.0469 Q1195.1563,135.0469 1195.75,134.7813 Q1196.3438,134.5 1196.9688,133.9219 L1196.9688,136.6406 Z " fill="#000000"/><text fill="#000000" font-family="sans-serif" font-size="14" lengthAdjust="spacing" textLength="121.666" x="1208" y="135.8467">StatisticalSample</text><line style="stroke:#181818;stroke-width:0.5;" x1="1180" x2="1331.666" y1="147" y2="147"/><line style="stroke:#181818;stroke-width:0.5;" x1="1180" x2="1331.666" y1="155" y2="155"/></g><!--class ObservableProperty--><g class="entity" data-qualified-name="ObservableProperty" data-source-line="5" id="ent0011"><rect fill="#F1F1F1" height="48" rx="2.5" ry="2.5" style="stroke:#181818;stroke-width:0.5;" width="171.6172" x="627" y="115"/><ellipse cx="642" cy="131" fill="#ADD1B2" rx="11" ry="11" style="stroke:#181818;stroke-width:1;"/><path d="M644.9688,136.6406 Q644.3906,136.9375 643.75,137.0781 Q643.1094,137.2344 642.4063,137.2344 Q639.9063,137.2344 638.5781,135.5938 Q637.2656,133.9375 637.2656,130.8125 Q637.2656,127.6875 638.5781,126.0313 Q639.9063,124.375 642.4063,124.375 Q643.1094,124.375 643.75,124.5313 Q644.4063,124.6875 644.9688,124.9844 L644.9688,127.7031 Q644.3438,127.125 643.75,126.8594 Q643.1563,126.5781 642.5313,126.5781 Q641.1875,126.5781 640.5,127.6563 Q639.8125,128.7188 639.8125,130.8125 Q639.8125,132.9063 640.5,133.9844 Q641.1875,135.0469 642.5313,135.0469 Q643.1563,135.0469 643.75,134.7813 Q644.3438,134.5 644.9688,133.9219 L644.9688,136.6406 Z " fill="#000000"/><text fill="#000000" font-family="sans-serif" font-size="14" lengthAdjust="spacing" textLength="139.6172" x="656" y="135.8467">ObservableProperty</text><line style="stroke:#181818;stroke-width:0.5;" x1="628" x2="797.6172" y1="147" y2="147"/><line style="stroke:#181818;stroke-width:0.5;" x1="628" x2="797.6172" y1="155" y2="155"/></g><!--class Procedure--><g class="entity" data-qualified-name="Procedure" data-source-line="6" id="ent0013"><rect fill="#F1F1F1" height="48" rx="2.5" ry="2.5" style="stroke:#181818;stroke-width:0.5;" width="103.2031" x="1610.5" y="7"/><ellipse cx="1625.5" cy="23" fill="#ADD1B2" rx="11" ry="11" style="stroke:#181818;stroke-width:1;"/><path d="M1628.4688,28.6406 Q1627.8906,28.9375 1627.25,29.0781 Q1626.6094,29.2344 1625.9063,29.2344 Q1623.4063,29.2344 1622.0781,27.5938 Q1620.7656,25.9375 1620.7656,22.8125 Q1620.7656,19.6875 1622.0781,18.0313 Q1623.4063,16.375 1625.9063,16.375 Q1626.6094,16.375 1627.25,16.5313 Q1627.9063,16.6875 1628.4688,16.9844 L1628.4688,19.7031 Q1627.8438,19.125 1627.25,18.8594 Q1626.6563,18.5781 1626.0313,18.5781 Q1624.6875,18.5781 1624,19.6563 Q1623.3125,20.7188 1623.3125,22.8125 Q1623.3125,24.9063 1624,25.9844 Q1624.6875,27.0469 1626.0313,27.0469 Q1626.6563,27.0469 1627.25,26.7813 Q1627.8438,26.5 1628.4688,25.9219 L1628.4688,28.6406 Z " fill="#000000"/><text fill="#000000" font-family="sans-serif" font-size="14" lengthAdjust="spacing" textLength="71.2031" x="1639.5" y="27.8467">Procedure</text><line style="stroke:#181818;stroke-width:0.5;" x1="1611.5" x2="1712.7031" y1="39" y2="39"/><line style="stroke:#181818;stroke-width:0.5;" x1="1611.5" x2="1712.7031" y1="47" y2="47"/></g><!--class ActuatingProcedure--><g class="entity" data-qualified-name="ActuatingProcedure" data-source-line="6" id="ent0014"><rect fill="#F1F1F1" height="48" rx="2.5" ry="2.5" style="stroke:#181818;stroke-width:0.5;" width="170.5576" x="1368.5" y="115"/><ellipse cx="1383.5" cy="131" fill="#ADD1B2" rx="11" ry="11" style="stroke:#181818;stroke-width:1;"/><path d="M1386.4688,136.6406 Q1385.8906,136.9375 1385.25,137.0781 Q1384.6094,137.2344 1383.9063,137.2344 Q1381.4063,137.2344 1380.0781,135.5938 Q1378.7656,133.9375 1378.7656,130.8125 Q1378.7656,127.6875 1380.0781,126.0313 Q1381.4063,124.375 1383.9063,124.375 Q1384.6094,124.375 1385.25,124.5313 Q1385.9063,124.6875 1386.4688,124.9844 L1386.4688,127.7031 Q1385.8438,127.125 1385.25,126.8594 Q1384.6563,126.5781 1384.0313,126.5781 Q1382.6875,126.5781 1382,127.6563 Q1381.3125,128.7188 1381.3125,130.8125 Q1381.3125,132.9063 1382,133.9844 Q1382.6875,135.0469 1384.0313,135.0469 Q1384.6563,135.0469 1385.25,134.7813 Q1385.8438,134.5 1386.4688,133.9219 L1386.4688,136.6406 Z " fill="#000000"/><text fill="#000000" font-family="sans-serif" font-size="14" lengthAdjust="spacing" textLength="138.5576" x="1397.5" y="135.8467">ActuatingProcedure</text><line style="stroke:#181818;stroke-width:0.5;" x1="1369.5" x2="1538.0576" y1="147" y2="147"/><line style="stroke:#181818;stroke-width:0.5;" x1="1369.5" x2="1538.0576" y1="155" y2="155"/></g><!--class ObservingProcedure--><g class="entity" data-qualified-name="ObservingProcedure" data-source-line="7" id="ent0016"><rect fill="#F1F1F1" height="48" rx="2.5" ry="2.5" style="stroke:#181818;stroke-width:0.5;" width="174.707" x="1574.5" y="115"/><ellipse cx="1589.5" cy="131" fill="#ADD1B2" rx="11" ry="11" style="stroke:#181818;stroke-width:1;"/><path d="M1592.4688,136.6406 Q1591.8906,136.9375 1591.25,137.0781 Q1590.6094,137.2344 1589.9063,137.2344 Q1587.4063,137.2344 1586.0781,135.5938 Q1584.7656,133.9375 1584.7656,130.8125 Q1584.7656,127.6875 1586.0781,126.0313 Q1587.4063,124.375 1589.9063,124.375 Q1590.6094,124.375 1591.25,124.5313 Q1591.9063,124.6875 1592.4688,124.9844 L1592.4688,127.7031 Q1591.8438,127.125 1591.25,126.8594 Q1590.6563,126.5781 1590.0313,126.5781 Q1588.6875,126.5781 1588,127.6563 Q1587.3125,128.7188 1587.3125,130.8125 Q1587.3125,132.9063 1588,133.9844 Q1588.6875,135.0469 1590.0313,135.0469 Q1590.6563,135.0469 1591.25,134.7813 Q1591.8438,134.5 1592.4688,133.9219 L1592.4688,136.6406 Z " fill="#000000"/><text fill="#000000" font-family="sans-serif" font-size="14" lengthAdjust="spacing" textLength="142.707" x="1603.5" y="135.8467">ObservingProcedure</text><line style="stroke:#181818;stroke-width:0.5;" x1="1575.5" x2="1748.207" y1="147" y2="147"/><line style="stroke:#181818;stroke-width:0.5;" x1="1575.5" x2="1748.207" y1="155" y2="155"/></g><!--class SamplingProcedure--><g class="entity" data-qualified-name="SamplingProcedure" data-source-line="8" id="ent0018"><rect fill="#F1F1F1" height="48" rx="2.5" ry="2.5" style="stroke:#181818;stroke-width:0.5;" width="168.7324" x="1784.5" y="115"/><ellipse cx="1799.5" cy="131" fill="#ADD1B2" rx="11" ry="11" style="stroke:#181818;stroke-width:1;"/><path d="M1802.4688,136.6406 Q1801.8906,136.9375 1801.25,137.0781 Q1800.6094,137.2344 1799.9063,137.2344 Q1797.4063,137.2344 1796.0781,135.5938 Q1794.7656,133.9375 1794.7656,130.8125 Q1794.7656,127.6875 1796.0781,126.0313 Q1797.4063,124.375 1799.9063,124.375 Q1800.6094,124.375 1801.25,124.5313 Q1801.9063,124.6875 1802.4688,124.9844 L1802.4688,127.7031 Q1801.8438,127.125 1801.25,126.8594 Q1800.6563,126.5781 1800.0313,126.5781 Q1798.6875,126.5781 1798,127.6563 Q1797.3125,128.7188 1797.3125,130.8125 Q1797.3125,132.9063 1798,133.9844 Q1798.6875,135.0469 1800.0313,135.0469 Q1800.6563,135.0469 1801.25,134.7813 Q1801.8438,134.5 1802.4688,133.9219 L1802.4688,136.6406 Z " fill="#000000"/><text fill="#000000" font-family="sans-serif" font-size="14" lengthAdjust="spacing" textLength="136.7324" x="1813.5" y="135.8467">SamplingProcedure</text><line style="stroke:#181818;stroke-width:0.5;" x1="1785.5" x2="1952.2324" y1="147" y2="147"/><line style="stroke:#181818;stroke-width:0.5;" x1="1785.5" x2="1952.2324" y1="155" y2="155"/></g><!--class Asset--><g class="entity" data-qualified-name="Asset" data-source-line="9" id="ent0020"><rect fill="#F1F1F1" height="48" rx="2.5" ry="2.5" style="stroke:#181818;stroke-width:0.5;" width="70.2676" x="2060" y="7"/><ellipse cx="2075" cy="23" fill="#ADD1B2" rx="11" ry="11" style="stroke:#181818;stroke-width:1;"/><path d="M2077.9688,28.6406 Q2077.3906,28.9375 2076.75,29.0781 Q2076.1094,29.2344 2075.4063,29.2344 Q2072.9063,29.2344 2071.5781,27.5938 Q2070.2656,25.9375 2070.2656,22.8125 Q2070.2656,19.6875 2071.5781,18.0313 Q2072.9063,16.375 2075.4063,16.375 Q2076.1094,16.375 2076.75,16.5313 Q2077.4063,16.6875 2077.9688,16.9844 L2077.9688,19.7031 Q2077.3438,19.125 2076.75,18.8594 Q2076.1563,18.5781 2075.5313,18.5781 Q2074.1875,18.5781 2073.5,19.6563 Q2072.8125,20.7188 2072.8125,22.8125 Q2072.8125,24.9063 2073.5,25.9844 Q2074.1875,27.0469 2075.5313,27.0469 Q2076.1563,27.0469 2076.75,26.7813 Q2077.3438,26.5 2077.9688,25.9219 L2077.9688,28.6406 Z " fill="#000000"/><text fill="#000000" font-family="sans-serif" font-size="14" lengthAdjust="spacing" textLength="38.2676" x="2089" y="27.8467">Asset</text><line style="stroke:#181818;stroke-width:0.5;" x1="2061" x2="2129.2676" y1="39" y2="39"/><line style="stroke:#181818;stroke-width:0.5;" x1="2061" x2="2129.2676" y1="47" y2="47"/></g><!--class Platform--><g class="entity" data-qualified-name="Platform" data-source-line="9" id="ent0021"><rect fill="#F1F1F1" height="48" rx="2.5" ry="2.5" style="stroke:#181818;stroke-width:0.5;" width="91.2881" x="1988.5" y="115"/><ellipse cx="2003.5" cy="131" fill="#ADD1B2" rx="11" ry="11" style="stroke:#181818;stroke-width:1;"/><path d="M2006.4688,136.6406 Q2005.8906,136.9375 2005.25,137.0781 Q2004.6094,137.2344 2003.9063,137.2344 Q2001.4063,137.2344 2000.0781,135.5938 Q1998.7656,133.9375 1998.7656,130.8125 Q1998.7656,127.6875 2000.0781,126.0313 Q2001.4063,124.375 2003.9063,124.375 Q2004.6094,124.375 2005.25,124.5313 Q2005.9063,124.6875 2006.4688,124.9844 L2006.4688,127.7031 Q2005.8438,127.125 2005.25,126.8594 Q2004.6563,126.5781 2004.0313,126.5781 Q2002.6875,126.5781 2002,127.6563 Q2001.3125,128.7188 2001.3125,130.8125 Q2001.3125,132.9063 2002,133.9844 Q2002.6875,135.0469 2004.0313,135.0469 Q2004.6563,135.0469 2005.25,134.7813 Q2005.8438,134.5 2006.4688,133.9219 L2006.4688,136.6406 Z " fill="#000000"/><text fill="#000000" font-family="sans-serif" font-size="14" lengthAdjust="spacing" textLength="59.2881" x="2017.5" y="135.8467">Platform</text><line style="stroke:#181818;stroke-width:0.5;" x1="1989.5" x2="2078.7881" y1="147" y2="147"/><line style="stroke:#181818;stroke-width:0.5;" x1="1989.5" x2="2078.7881" y1="155" y2="155"/></g><!--class System--><g class="entity" data-qualified-name="System" data-source-line="10" id="ent0023"><rect fill="#F1F1F1" height="48" rx="2.5" ry="2.5" style="stroke:#181818;stroke-width:0.5;" width="84.2061" x="2115" y="115"/><ellipse cx="2130" cy="131" fill="#ADD1B2" rx="11" ry="11" style="stroke:#181818;stroke-width:1;"/><path d="M2132.9688,136.6406 Q2132.3906,136.9375 2131.75,137.0781 Q2131.1094,137.2344 2130.4063,137.2344 Q2127.9063,137.2344 2126.5781,135.5938 Q2125.2656,133.9375 2125.2656,130.8125 Q2125.2656,127.6875 2126.5781,126.0313 Q2127.9063,124.375 2130.4063,124.375 Q2131.1094,124.375 2131.75,124.5313 Q2132.4063,124.6875 2132.9688,124.9844 L2132.9688,127.7031 Q2132.3438,127.125 2131.75,126.8594 Q2131.1563,126.5781 2130.5313,126.5781 Q2129.1875,126.5781 2128.5,127.6563 Q2127.8125,128.7188 2127.8125,130.8125 Q2127.8125,132.9063 2128.5,133.9844 Q2129.1875,135.0469 2130.5313,135.0469 Q2131.1563,135.0469 2131.75,134.7813 Q2132.3438,134.5 2132.9688,133.9219 L2132.9688,136.6406 Z " fill="#000000"/><text fill="#000000" font-family="sans-serif" font-size="14" lengthAdjust="spacing" textLength="52.2061" x="2144" y="135.8467">System</text><line style="stroke:#181818;stroke-width:0.5;" x1="2116" x2="2198.2061" y1="147" y2="147"/><line style="stroke:#181818;stroke-width:0.5;" x1="2116" x2="2198.2061" y1="155" y2="155"/></g><!--class Sampler--><g class="entity" data-qualified-name="Sampler" data-source-line="10" id="ent0024"><rect fill="#F1F1F1" height="48" rx="2.5" ry="2.5" style="stroke:#181818;stroke-width:0.5;" width="90.249" x="1986" y="223"/><ellipse cx="2001" cy="239" fill="#ADD1B2" rx="11" ry="11" style="stroke:#181818;stroke-width:1;"/><path d="M2003.9688,244.6406 Q2003.3906,244.9375 2002.75,245.0781 Q2002.1094,245.2344 2001.4063,245.2344 Q1998.9063,245.2344 1997.5781,243.5938 Q1996.2656,241.9375 1996.2656,238.8125 Q1996.2656,235.6875 1997.5781,234.0313 Q1998.9063,232.375 2001.4063,232.375 Q2002.1094,232.375 2002.75,232.5313 Q2003.4063,232.6875 2003.9688,232.9844 L2003.9688,235.7031 Q2003.3438,235.125 2002.75,234.8594 Q2002.1563,234.5781 2001.5313,234.5781 Q2000.1875,234.5781 1999.5,235.6563 Q1998.8125,236.7188 1998.8125,238.8125 Q1998.8125,240.9063 1999.5,241.9844 Q2000.1875,243.0469 2001.5313,243.0469 Q2002.1563,243.0469 2002.75,242.7813 Q2003.3438,242.5 2003.9688,241.9219 L2003.9688,244.6406 Z " fill="#000000"/><text fill="#000000" font-family="sans-serif" font-size="14" lengthAdjust="spacing" textLength="58.249" x="2015" y="243.8467">Sampler</text><line style="stroke:#181818;stroke-width:0.5;" x1="1987" x2="2075.249" y1="255" y2="255"/><line style="stroke:#181818;stroke-width:0.5;" x1="1987" x2="2075.249" y1="263" y2="263"/></g><!--class Actuator--><g class="entity" data-qualified-name="Actuator" data-source-line="11" id="ent0026"><rect fill="#F1F1F1" height="48" rx="2.5" ry="2.5" style="stroke:#181818;stroke-width:0.5;" width="92.0264" x="2111" y="223"/><ellipse cx="2126" cy="239" fill="#ADD1B2" rx="11" ry="11" style="stroke:#181818;stroke-width:1;"/><path d="M2128.9688,244.6406 Q2128.3906,244.9375 2127.75,245.0781 Q2127.1094,245.2344 2126.4063,245.2344 Q2123.9063,245.2344 2122.5781,243.5938 Q2121.2656,241.9375 2121.2656,238.8125 Q2121.2656,235.6875 2122.5781,234.0313 Q2123.9063,232.375 2126.4063,232.375 Q2127.1094,232.375 2127.75,232.5313 Q2128.4063,232.6875 2128.9688,232.9844 L2128.9688,235.7031 Q2128.3438,235.125 2127.75,234.8594 Q2127.1563,234.5781 2126.5313,234.5781 Q2125.1875,234.5781 2124.5,235.6563 Q2123.8125,236.7188 2123.8125,238.8125 Q2123.8125,240.9063 2124.5,241.9844 Q2125.1875,243.0469 2126.5313,243.0469 Q2127.1563,243.0469 2127.75,242.7813 Q2128.3438,242.5 2128.9688,241.9219 L2128.9688,244.6406 Z " fill="#000000"/><text fill="#000000" font-family="sans-serif" font-size="14" lengthAdjust="spacing" textLength="60.0264" x="2140" y="243.8467">Actuator</text><line style="stroke:#181818;stroke-width:0.5;" x1="2112" x2="2202.0264" y1="255" y2="255"/><line style="stroke:#181818;stroke-width:0.5;" x1="2112" x2="2202.0264" y1="263" y2="263"/></g><!--class Execution--><g class="entity" data-qualified-name="Execution" data-source-line="13" id="ent0029"><rect fill="#F1F1F1" height="48" rx="2.5" ry="2.5" style="stroke:#181818;stroke-width:0.5;" width="101.1318" x="2366.5" y="7"/><ellipse cx="2381.5" cy="23" fill="#ADD1B2" rx="11" ry="11" style="stroke:#181818;stroke-width:1;"/><path d="M2384.4688,28.6406 Q2383.8906,28.9375 2383.25,29.0781 Q2382.6094,29.2344 2381.9063,29.2344 Q2379.4063,29.2344 2378.0781,27.5938 Q2376.7656,25.9375 2376.7656,22.8125 Q2376.7656,19.6875 2378.0781,18.0313 Q2379.4063,16.375 2381.9063,16.375 Q2382.6094,16.375 2383.25,16.5313 Q2383.9063,16.6875 2384.4688,16.9844 L2384.4688,19.7031 Q2383.8438,19.125 2383.25,18.8594 Q2382.6563,18.5781 2382.0313,18.5781 Q2380.6875,18.5781 2380,19.6563 Q2379.3125,20.7188 2379.3125,22.8125 Q2379.3125,24.9063 2380,25.9844 Q2380.6875,27.0469 2382.0313,27.0469 Q2382.6563,27.0469 2383.25,26.7813 Q2383.8438,26.5 2384.4688,25.9219 L2384.4688,28.6406 Z " fill="#000000"/><text fill="#000000" font-family="sans-serif" font-size="14" lengthAdjust="spacing" textLength="69.1318" x="2395.5" y="27.8467">Execution</text><line style="stroke:#181818;stroke-width:0.5;" x1="2367.5" x2="2466.6318" y1="39" y2="39"/><line style="stroke:#181818;stroke-width:0.5;" x1="2367.5" x2="2466.6318" y1="47" y2="47"/></g><!--class Sampling--><g class="entity" data-qualified-name="Sampling" data-source-line="13" id="ent0030"><rect fill="#F1F1F1" height="48" rx="2.5" ry="2.5" style="stroke:#181818;stroke-width:0.5;" width="97.5293" x="2234" y="115"/><ellipse cx="2249" cy="131" fill="#ADD1B2" rx="11" ry="11" style="stroke:#181818;stroke-width:1;"/><path d="M2251.9688,136.6406 Q2251.3906,136.9375 2250.75,137.0781 Q2250.1094,137.2344 2249.4063,137.2344 Q2246.9063,137.2344 2245.5781,135.5938 Q2244.2656,133.9375 2244.2656,130.8125 Q2244.2656,127.6875 2245.5781,126.0313 Q2246.9063,124.375 2249.4063,124.375 Q2250.1094,124.375 2250.75,124.5313 Q2251.4063,124.6875 2251.9688,124.9844 L2251.9688,127.7031 Q2251.3438,127.125 2250.75,126.8594 Q2250.1563,126.5781 2249.5313,126.5781 Q2248.1875,126.5781 2247.5,127.6563 Q2246.8125,128.7188 2246.8125,130.8125 Q2246.8125,132.9063 2247.5,133.9844 Q2248.1875,135.0469 2249.5313,135.0469 Q2250.1563,135.0469 2250.75,134.7813 Q2251.3438,134.5 2251.9688,133.9219 L2251.9688,136.6406 Z " fill="#000000"/><text fill="#000000" font-family="sans-serif" font-size="14" lengthAdjust="spacing" textLength="65.5293" x="2263" y="135.8467">Sampling</text><line style="stroke:#181818;stroke-width:0.5;" x1="2235" x2="2330.5293" y1="147" y2="147"/><line style="stroke:#181818;stroke-width:0.5;" x1="2235" x2="2330.5293" y1="155" y2="155"/></g><!--class ExecutionCollection--><g class="entity" data-qualified-name="ExecutionCollection" data-source-line="14" id="ent0032"><rect fill="#F1F1F1" height="48" rx="2.5" ry="2.5" style="stroke:#181818;stroke-width:0.5;" width="170.3799" x="2854" y="7"/><ellipse cx="2869" cy="23" fill="#ADD1B2" rx="11" ry="11" style="stroke:#181818;stroke-width:1;"/><path d="M2871.9688,28.6406 Q2871.3906,28.9375 2870.75,29.0781 Q2870.1094,29.2344 2869.4063,29.2344 Q2866.9063,29.2344 2865.5781,27.5938 Q2864.2656,25.9375 2864.2656,22.8125 Q2864.2656,19.6875 2865.5781,18.0313 Q2866.9063,16.375 2869.4063,16.375 Q2870.1094,16.375 2870.75,16.5313 Q2871.4063,16.6875 2871.9688,16.9844 L2871.9688,19.7031 Q2871.3438,19.125 2870.75,18.8594 Q2870.1563,18.5781 2869.5313,18.5781 Q2868.1875,18.5781 2867.5,19.6563 Q2866.8125,20.7188 2866.8125,22.8125 Q2866.8125,24.9063 2867.5,25.9844 Q2868.1875,27.0469 2869.5313,27.0469 Q2870.1563,27.0469 2870.75,26.7813 Q2871.3438,26.5 2871.9688,25.9219 L2871.9688,28.6406 Z " fill="#000000"/><text fill="#000000" font-family="sans-serif" font-size="14" lengthAdjust="spacing" textLength="138.3799" x="2883" y="27.8467">ExecutionCollection</text><line style="stroke:#181818;stroke-width:0.5;" x1="2855" x2="3023.3799" y1="39" y2="39"/><line style="stroke:#181818;stroke-width:0.5;" x1="2855" x2="3023.3799" y1="47" y2="47"/></g><!--class SamplingCollection--><g class="entity" data-qualified-name="SamplingCollection" data-source-line="14" id="ent0033"><rect fill="#F1F1F1" height="48" rx="2.5" ry="2.5" style="stroke:#181818;stroke-width:0.5;" width="166.7773" x="2653.5" y="115"/><ellipse cx="2668.5" cy="131" fill="#ADD1B2" rx="11" ry="11" style="stroke:#181818;stroke-width:1;"/><path d="M2671.4688,136.6406 Q2670.8906,136.9375 2670.25,137.0781 Q2669.6094,137.2344 2668.9063,137.2344 Q2666.4063,137.2344 2665.0781,135.5938 Q2663.7656,133.9375 2663.7656,130.8125 Q2663.7656,127.6875 2665.0781,126.0313 Q2666.4063,124.375 2668.9063,124.375 Q2669.6094,124.375 2670.25,124.5313 Q2670.9063,124.6875 2671.4688,124.9844 L2671.4688,127.7031 Q2670.8438,127.125 2670.25,126.8594 Q2669.6563,126.5781 2669.0313,126.5781 Q2667.6875,126.5781 2667,127.6563 Q2666.3125,128.7188 2666.3125,130.8125 Q2666.3125,132.9063 2667,133.9844 Q2667.6875,135.0469 2669.0313,135.0469 Q2669.6563,135.0469 2670.25,134.7813 Q2670.8438,134.5 2671.4688,133.9219 L2671.4688,136.6406 Z " fill="#000000"/><text fill="#000000" font-family="sans-serif" font-size="14" lengthAdjust="spacing" textLength="134.7773" x="2682.5" y="135.8467">SamplingCollection</text><line style="stroke:#181818;stroke-width:0.5;" x1="2654.5" x2="2819.2773" y1="147" y2="147"/><line style="stroke:#181818;stroke-width:0.5;" x1="2654.5" x2="2819.2773" y1="155" y2="155"/></g><!--class Actuation--><g class="entity" data-qualified-name="Actuation" data-source-line="15" id="ent0035"><rect fill="#F1F1F1" height="48" rx="2.5" ry="2.5" style="stroke:#181818;stroke-width:0.5;" width="99.0332" x="2367.5" y="115"/><ellipse cx="2382.5" cy="131" fill="#ADD1B2" rx="11" ry="11" style="stroke:#181818;stroke-width:1;"/><path d="M2385.4688,136.6406 Q2384.8906,136.9375 2384.25,137.0781 Q2383.6094,137.2344 2382.9063,137.2344 Q2380.4063,137.2344 2379.0781,135.5938 Q2377.7656,133.9375 2377.7656,130.8125 Q2377.7656,127.6875 2379.0781,126.0313 Q2380.4063,124.375 2382.9063,124.375 Q2383.6094,124.375 2384.25,124.5313 Q2384.9063,124.6875 2385.4688,124.9844 L2385.4688,127.7031 Q2384.8438,127.125 2384.25,126.8594 Q2383.6563,126.5781 2383.0313,126.5781 Q2381.6875,126.5781 2381,127.6563 Q2380.3125,128.7188 2380.3125,130.8125 Q2380.3125,132.9063 2381,133.9844 Q2381.6875,135.0469 2383.0313,135.0469 Q2383.6563,135.0469 2384.25,134.7813 Q2384.8438,134.5 2385.4688,133.9219 L2385.4688,136.6406 Z " fill="#000000"/><text fill="#000000" font-family="sans-serif" font-size="14" lengthAdjust="spacing" textLength="67.0332" x="2396.5" y="135.8467">Actuation</text><line style="stroke:#181818;stroke-width:0.5;" x1="2368.5" x2="2465.5332" y1="147" y2="147"/><line style="stroke:#181818;stroke-width:0.5;" x1="2368.5" x2="2465.5332" y1="155" y2="155"/></g><!--class Sensor--><g class="entity" data-qualified-name="Sensor" data-source-line="16" id="ent0037"><rect fill="#F1F1F1" height="48" rx="2.5" ry="2.5" style="stroke:#181818;stroke-width:0.5;" width="79.9883" x="2238" y="223"/><ellipse cx="2253" cy="239" fill="#ADD1B2" rx="11" ry="11" style="stroke:#181818;stroke-width:1;"/><path d="M2255.9688,244.6406 Q2255.3906,244.9375 2254.75,245.0781 Q2254.1094,245.2344 2253.4063,245.2344 Q2250.9063,245.2344 2249.5781,243.5938 Q2248.2656,241.9375 2248.2656,238.8125 Q2248.2656,235.6875 2249.5781,234.0313 Q2250.9063,232.375 2253.4063,232.375 Q2254.1094,232.375 2254.75,232.5313 Q2255.4063,232.6875 2255.9688,232.9844 L2255.9688,235.7031 Q2255.3438,235.125 2254.75,234.8594 Q2254.1563,234.5781 2253.5313,234.5781 Q2252.1875,234.5781 2251.5,235.6563 Q2250.8125,236.7188 2250.8125,238.8125 Q2250.8125,240.9063 2251.5,241.9844 Q2252.1875,243.0469 2253.5313,243.0469 Q2254.1563,243.0469 2254.75,242.7813 Q2255.3438,242.5 2255.9688,241.9219 L2255.9688,244.6406 Z " fill="#000000"/><text fill="#000000" font-family="sans-serif" font-size="14" lengthAdjust="spacing" textLength="47.9883" x="2267" y="243.8467">Sensor</text><line style="stroke:#181818;stroke-width:0.5;" x1="2239" x2="2316.9883" y1="255" y2="255"/><line style="stroke:#181818;stroke-width:0.5;" x1="2239" x2="2316.9883" y1="263" y2="263"/></g><!--class ActuationCollection--><g class="entity" data-qualified-name="ActuationCollection" data-source-line="17" id="ent0039"><rect fill="#F1F1F1" height="48" rx="2.5" ry="2.5" style="stroke:#181818;stroke-width:0.5;" width="168.2813" x="2855" y="115"/><ellipse cx="2870" cy="131" fill="#ADD1B2" rx="11" ry="11" style="stroke:#181818;stroke-width:1;"/><path d="M2872.9688,136.6406 Q2872.3906,136.9375 2871.75,137.0781 Q2871.1094,137.2344 2870.4063,137.2344 Q2867.9063,137.2344 2866.5781,135.5938 Q2865.2656,133.9375 2865.2656,130.8125 Q2865.2656,127.6875 2866.5781,126.0313 Q2867.9063,124.375 2870.4063,124.375 Q2871.1094,124.375 2871.75,124.5313 Q2872.4063,124.6875 2872.9688,124.9844 L2872.9688,127.7031 Q2872.3438,127.125 2871.75,126.8594 Q2871.1563,126.5781 2870.5313,126.5781 Q2869.1875,126.5781 2868.5,127.6563 Q2867.8125,128.7188 2867.8125,130.8125 Q2867.8125,132.9063 2868.5,133.9844 Q2869.1875,135.0469 2870.5313,135.0469 Q2871.1563,135.0469 2871.75,134.7813 Q2872.3438,134.5 2872.9688,133.9219 L2872.9688,136.6406 Z " fill="#000000"/><text fill="#000000" font-family="sans-serif" font-size="14" lengthAdjust="spacing" textLength="136.2813" x="2884" y="135.8467">ActuationCollection</text><line style="stroke:#181818;stroke-width:0.5;" x1="2856" x2="3022.2813" y1="147" y2="147"/><line style="stroke:#181818;stroke-width:0.5;" x1="2856" x2="3022.2813" y1="155" y2="155"/></g><!--class ObservationCollection--><g class="entity" data-qualified-name="ObservationCollection" data-source-line="18" id="ent0041"><rect fill="#F1F1F1" height="48" rx="2.5" ry="2.5" style="stroke:#181818;stroke-width:0.5;" width="186.499" x="3058" y="115"/><ellipse cx="3073" cy="131" fill="#ADD1B2" rx="11" ry="11" style="stroke:#181818;stroke-width:1;"/><path d="M3075.9688,136.6406 Q3075.3906,136.9375 3074.75,137.0781 Q3074.1094,137.2344 3073.4063,137.2344 Q3070.9063,137.2344 3069.5781,135.5938 Q3068.2656,133.9375 3068.2656,130.8125 Q3068.2656,127.6875 3069.5781,126.0313 Q3070.9063,124.375 3073.4063,124.375 Q3074.1094,124.375 3074.75,124.5313 Q3075.4063,124.6875 3075.9688,124.9844 L3075.9688,127.7031 Q3075.3438,127.125 3074.75,126.8594 Q3074.1563,126.5781 3073.5313,126.5781 Q3072.1875,126.5781 3071.5,127.6563 Q3070.8125,128.7188 3070.8125,130.8125 Q3070.8125,132.9063 3071.5,133.9844 Q3072.1875,135.0469 3073.5313,135.0469 Q3074.1563,135.0469 3074.75,134.7813 Q3075.3438,134.5 3075.9688,133.9219 L3075.9688,136.6406 Z " fill="#000000"/><text fill="#000000" font-family="sans-serif" font-size="14" lengthAdjust="spacing" textLength="154.499" x="3087" y="135.8467">ObservationCollection</text><line style="stroke:#181818;stroke-width:0.5;" x1="3059" x2="3243.499" y1="147" y2="147"/><line style="stroke:#181818;stroke-width:0.5;" x1="3059" x2="3243.499" y1="155" y2="155"/></g><!--class Observation--><g class="entity" data-qualified-name="Observation" data-source-line="19" id="ent0043"><rect fill="#F1F1F1" height="48" rx="2.5" ry="2.5" style="stroke:#181818;stroke-width:0.5;" width="117.251" x="2501.5" y="115"/><ellipse cx="2516.5" cy="131" fill="#ADD1B2" rx="11" ry="11" style="stroke:#181818;stroke-width:1;"/><path d="M2519.4688,136.6406 Q2518.8906,136.9375 2518.25,137.0781 Q2517.6094,137.2344 2516.9063,137.2344 Q2514.4063,137.2344 2513.0781,135.5938 Q2511.7656,133.9375 2511.7656,130.8125 Q2511.7656,127.6875 2513.0781,126.0313 Q2514.4063,124.375 2516.9063,124.375 Q2517.6094,124.375 2518.25,124.5313 Q2518.9063,124.6875 2519.4688,124.9844 L2519.4688,127.7031 Q2518.8438,127.125 2518.25,126.8594 Q2517.6563,126.5781 2517.0313,126.5781 Q2515.6875,126.5781 2515,127.6563 Q2514.3125,128.7188 2514.3125,130.8125 Q2514.3125,132.9063 2515,133.9844 Q2515.6875,135.0469 2517.0313,135.0469 Q2517.6563,135.0469 2518.25,134.7813 Q2518.8438,134.5 2519.4688,133.9219 L2519.4688,136.6406 Z " fill="#000000"/><text fill="#000000" font-family="sans-serif" font-size="14" lengthAdjust="spacing" textLength="85.251" x="2530.5" y="135.8467">Observation</text><line style="stroke:#181818;stroke-width:0.5;" x1="2502.5" x2="2617.751" y1="147" y2="147"/><line style="stroke:#181818;stroke-width:0.5;" x1="2502.5" x2="2617.751" y1="155" y2="155"/></g><!--class Input--><g class="entity" data-qualified-name="Input" data-source-line="22" id="ent0045"><rect fill="#F1F1F1" height="48" rx="2.5" ry="2.5" style="stroke:#181818;stroke-width:0.5;" width="68.251" x="50" y="7"/><ellipse cx="65" cy="23" fill="#ADD1B2" rx="11" ry="11" style="stroke:#181818;stroke-width:1;"/><path d="M67.9688,28.6406 Q67.3906,28.9375 66.75,29.0781 Q66.1094,29.2344 65.4063,29.2344 Q62.9063,29.2344 61.5781,27.5938 Q60.2656,25.9375 60.2656,22.8125 Q60.2656,19.6875 61.5781,18.0313 Q62.9063,16.375 65.4063,16.375 Q66.1094,16.375 66.75,16.5313 Q67.4063,16.6875 67.9688,16.9844 L67.9688,19.7031 Q67.3438,19.125 66.75,18.8594 Q66.1563,18.5781 65.5313,18.5781 Q64.1875,18.5781 63.5,19.6563 Q62.8125,20.7188 62.8125,22.8125 Q62.8125,24.9063 63.5,25.9844 Q64.1875,27.0469 65.5313,27.0469 Q66.1563,27.0469 66.75,26.7813 Q67.3438,26.5 67.9688,25.9219 L67.9688,28.6406 Z " fill="#000000"/><text fill="#000000" font-family="sans-serif" font-size="14" lengthAdjust="spacing" textLength="36.251" x="79" y="27.8467">Input</text><line style="stroke:#181818;stroke-width:0.5;" x1="51" x2="117.251" y1="39" y2="39"/><line style="stroke:#181818;stroke-width:0.5;" x1="51" x2="117.251" y1="47" y2="47"/></g><!--class FeatureOfInterest--><g class="entity" data-qualified-name="FeatureOfInterest" data-source-line="23" id="ent0046"><rect fill="#F1F1F1" height="48" rx="2.5" ry="2.5" style="stroke:#181818;stroke-width:0.5;" width="156.1816" x="153" y="7"/><ellipse cx="168" cy="23" fill="#ADD1B2" rx="11" ry="11" style="stroke:#181818;stroke-width:1;"/><path d="M170.9688,28.6406 Q170.3906,28.9375 169.75,29.0781 Q169.1094,29.2344 168.4063,29.2344 Q165.9063,29.2344 164.5781,27.5938 Q163.2656,25.9375 163.2656,22.8125 Q163.2656,19.6875 164.5781,18.0313 Q165.9063,16.375 168.4063,16.375 Q169.1094,16.375 169.75,16.5313 Q170.4063,16.6875 170.9688,16.9844 L170.9688,19.7031 Q170.3438,19.125 169.75,18.8594 Q169.1563,18.5781 168.5313,18.5781 Q167.1875,18.5781 166.5,19.6563 Q165.8125,20.7188 165.8125,22.8125 Q165.8125,24.9063 166.5,25.9844 Q167.1875,27.0469 168.5313,27.0469 Q169.1563,27.0469 169.75,26.7813 Q170.3438,26.5 170.9688,25.9219 L170.9688,28.6406 Z " fill="#000000"/><text fill="#000000" font-family="sans-serif" font-size="14" lengthAdjust="spacing" textLength="124.1816" x="182" y="27.8467">FeatureOfInterest</text><line style="stroke:#181818;stroke-width:0.5;" x1="154" x2="308.1816" y1="39" y2="39"/><line style="stroke:#181818;stroke-width:0.5;" x1="154" x2="308.1816" y1="47" y2="47"/></g><!--class Stimulus--><g class="entity" data-qualified-name="Stimulus" data-source-line="24" id="ent0047"><rect fill="#F1F1F1" height="48" rx="2.5" ry="2.5" style="stroke:#181818;stroke-width:0.5;" width="92.833" x="344.5" y="7"/><ellipse cx="359.5" cy="23" fill="#ADD1B2" rx="11" ry="11" style="stroke:#181818;stroke-width:1;"/><path d="M362.4688,28.6406 Q361.8906,28.9375 361.25,29.0781 Q360.6094,29.2344 359.9063,29.2344 Q357.4063,29.2344 356.0781,27.5938 Q354.7656,25.9375 354.7656,22.8125 Q354.7656,19.6875 356.0781,18.0313 Q357.4063,16.375 359.9063,16.375 Q360.6094,16.375 361.25,16.5313 Q361.9063,16.6875 362.4688,16.9844 L362.4688,19.7031 Q361.8438,19.125 361.25,18.8594 Q360.6563,18.5781 360.0313,18.5781 Q358.6875,18.5781 358,19.6563 Q357.3125,20.7188 357.3125,22.8125 Q357.3125,24.9063 358,25.9844 Q358.6875,27.0469 360.0313,27.0469 Q360.6563,27.0469 361.25,26.7813 Q361.8438,26.5 362.4688,25.9219 L362.4688,28.6406 Z " fill="#000000"/><text fill="#000000" font-family="sans-serif" font-size="14" lengthAdjust="spacing" textLength="60.833" x="373.5" y="27.8467">Stimulus</text><line style="stroke:#181818;stroke-width:0.5;" x1="345.5" x2="436.333" y1="39" y2="39"/><line style="stroke:#181818;stroke-width:0.5;" x1="345.5" x2="436.333" y1="47" y2="47"/></g><!--class Output--><g class="entity" data-qualified-name="Output" data-source-line="25" id="ent0048"><rect fill="#F1F1F1" height="48" rx="2.5" ry="2.5" style="stroke:#181818;stroke-width:0.5;" width="80.6309" x="43.5" y="115"/><ellipse cx="58.5" cy="131" fill="#ADD1B2" rx="11" ry="11" style="stroke:#181818;stroke-width:1;"/><path d="M61.4688,136.6406 Q60.8906,136.9375 60.25,137.0781 Q59.6094,137.2344 58.9063,137.2344 Q56.4063,137.2344 55.0781,135.5938 Q53.7656,133.9375 53.7656,130.8125 Q53.7656,127.6875 55.0781,126.0313 Q56.4063,124.375 58.9063,124.375 Q59.6094,124.375 60.25,124.5313 Q60.9063,124.6875 61.4688,124.9844 L61.4688,127.7031 Q60.8438,127.125 60.25,126.8594 Q59.6563,126.5781 59.0313,126.5781 Q57.6875,126.5781 57,127.6563 Q56.3125,128.7188 56.3125,130.8125 Q56.3125,132.9063 57,133.9844 Q57.6875,135.0469 59.0313,135.0469 Q59.6563,135.0469 60.25,134.7813 Q60.8438,134.5 61.4688,133.9219 L61.4688,136.6406 Z " fill="#000000"/><text fill="#000000" font-family="sans-serif" font-size="14" lengthAdjust="spacing" textLength="48.6309" x="72.5" y="135.8467">Output</text><line style="stroke:#181818;stroke-width:0.5;" x1="44.5" x2="123.1309" y1="147" y2="147"/><line style="stroke:#181818;stroke-width:0.5;" x1="44.5" x2="123.1309" y1="155" y2="155"/></g><!--class Deployment--><g class="entity" data-qualified-name="Deployment" data-source-line="27" id="ent0049"><rect fill="#F1F1F1" height="48" rx="2.5" ry="2.5" style="stroke:#181818;stroke-width:0.5;" width="117.6338" x="160" y="115"/><ellipse cx="175" cy="131" fill="#ADD1B2" rx="11" ry="11" style="stroke:#181818;stroke-width:1;"/><path d="M177.9688,136.6406 Q177.3906,136.9375 176.75,137.0781 Q176.1094,137.2344 175.4063,137.2344 Q172.9063,137.2344 171.5781,135.5938 Q170.2656,133.9375 170.2656,130.8125 Q170.2656,127.6875 171.5781,126.0313 Q172.9063,124.375 175.4063,124.375 Q176.1094,124.375 176.75,124.5313 Q177.4063,124.6875 177.9688,124.9844 L177.9688,127.7031 Q177.3438,127.125 176.75,126.8594 Q176.1563,126.5781 175.5313,126.5781 Q174.1875,126.5781 173.5,127.6563 Q172.8125,128.7188 172.8125,130.8125 Q172.8125,132.9063 173.5,133.9844 Q174.1875,135.0469 175.5313,135.0469 Q176.1563,135.0469 176.75,134.7813 Q177.3438,134.5 177.9688,133.9219 L177.9688,136.6406 Z " fill="#000000"/><text fill="#000000" font-family="sans-serif" font-size="14" lengthAdjust="spacing" textLength="85.6338" x="189" y="135.8467">Deployment</text><line style="stroke:#181818;stroke-width:0.5;" x1="161" x2="276.6338" y1="147" y2="147"/><line style="stroke:#181818;stroke-width:0.5;" x1="161" x2="276.6338" y1="155" y2="155"/></g><!--class Result--><g class="entity" data-qualified-name="Result" data-source-line="28" id="ent0050"><rect fill="#F1F1F1" height="48" rx="2.5" ry="2.5" style="stroke:#181818;stroke-width:0.5;" width="75.8867" x="313" y="115"/><ellipse cx="328" cy="131" fill="#ADD1B2" rx="11" ry="11" style="stroke:#181818;stroke-width:1;"/><path d="M330.9688,136.6406 Q330.3906,136.9375 329.75,137.0781 Q329.1094,137.2344 328.4063,137.2344 Q325.9063,137.2344 324.5781,135.5938 Q323.2656,133.9375 323.2656,130.8125 Q323.2656,127.6875 324.5781,126.0313 Q325.9063,124.375 328.4063,124.375 Q329.1094,124.375 329.75,124.5313 Q330.4063,124.6875 330.9688,124.9844 L330.9688,127.7031 Q330.3438,127.125 329.75,126.8594 Q329.1563,126.5781 328.5313,126.5781 Q327.1875,126.5781 326.5,127.6563 Q325.8125,128.7188 325.8125,130.8125 Q325.8125,132.9063 326.5,133.9844 Q327.1875,135.0469 328.5313,135.0469 Q329.1563,135.0469 329.75,134.7813 Q330.3438,134.5 330.9688,133.9219 L330.9688,136.6406 Z " fill="#000000"/><text fill="#000000" font-family="sans-serif" font-size="14" lengthAdjust="spacing" textLength="43.8867" x="342" y="135.8467">Result</text><line style="stroke:#181818;stroke-width:0.5;" x1="314" x2="387.8867" y1="147" y2="147"/><line style="stroke:#181818;stroke-width:0.5;" x1="314" x2="387.8867" y1="155" y2="155"/></g><!--class SampleCollection--><g class="entity" data-qualified-name="SampleCollection" data-source-line="30" id="ent0051"><rect fill="#F1F1F1" height="48" rx="2.5" ry="2.5" style="stroke:#181818;stroke-width:0.5;" width="153.7412" x="7" y="223"/><ellipse cx="22" cy="239" fill="#ADD1B2" rx="11" ry="11" style="stroke:#181818;stroke-width:1;"/><path d="M24.9688,244.6406 Q24.3906,244.9375 23.75,245.0781 Q23.1094,245.2344 22.4063,245.2344 Q19.9063,245.2344 18.5781,243.5938 Q17.2656,241.9375 17.2656,238.8125 Q17.2656,235.6875 18.5781,234.0313 Q19.9063,232.375 22.4063,232.375 Q23.1094,232.375 23.75,232.5313 Q24.4063,232.6875 24.9688,232.9844 L24.9688,235.7031 Q24.3438,235.125 23.75,234.8594 Q23.1563,234.5781 22.5313,234.5781 Q21.1875,234.5781 20.5,235.6563 Q19.8125,236.7188 19.8125,238.8125 Q19.8125,240.9063 20.5,241.9844 Q21.1875,243.0469 22.5313,243.0469 Q23.1563,243.0469 23.75,242.7813 Q24.3438,242.5 24.9688,241.9219 L24.9688,244.6406 Z " fill="#000000"/><text fill="#000000" font-family="sans-serif" font-size="14" lengthAdjust="spacing" textLength="121.7412" x="36" y="243.8467">SampleCollection</text><line style="stroke:#181818;stroke-width:0.5;" x1="8" x2="159.7412" y1="255" y2="255"/><line style="stroke:#181818;stroke-width:0.5;" x1="8" x2="159.7412" y1="263" y2="263"/></g><!--reverse link Property to ActuatableProperty--><g class="link" data-entity-1="ent0001" data-entity-2="ent0002" data-link-type="extension" data-source-line="1" id="lnk3"><path codeLine="1" d="M579.7213,67.606 C561.7213,85.266 549.83,96.94 531.76,114.68" fill="none" id="Property-backto-ActuatableProperty" style="stroke:#181818;stroke-width:1;"/><polygon fill="none" points="592.57,55,575.5193,63.3231,583.9233,71.8889,592.57,55" style="stroke:#181818;stroke-width:1;stroke-linejoin:miter;stroke-miterlimit:10;"/></g><!--reverse link Sample to MaterialSample--><g class="link" data-entity-1="ent0004" data-entity-2="ent0005" data-link-type="extension" data-source-line="2" id="lnk6"><path codeLine="2" d="M1024.3567,64.4445 C995.6067,82.1645 971.35,97.11 942.55,114.86" fill="none" id="Sample-backto-MaterialSample" style="stroke:#181818;stroke-width:1;"/><polygon fill="none" points="1039.68,55,1021.2086,59.3367,1027.5049,69.5522,1039.68,55" style="stroke:#181818;stroke-width:1;stroke-linejoin:miter;stroke-miterlimit:10;"/></g><!--reverse link Sample to SpatialSample--><g class="link" data-entity-1="ent0004" data-entity-2="ent0007" data-link-type="extension" data-source-line="3" id="lnk8"><path codeLine="3" d="M1077,73 C1077,90.66 1077,96.94 1077,114.68" fill="none" id="Sample-backto-SpatialSample" style="stroke:#181818;stroke-width:1;"/><polygon fill="none" points="1077,55,1071,73,1083,73,1077,55" style="stroke:#181818;stroke-width:1;stroke-linejoin:miter;stroke-miterlimit:10;"/></g><!--reverse link Sample to StatisticalSample--><g class="link" data-entity-1="ent0004" data-entity-2="ent0009" data-link-type="extension" data-source-line="4" id="lnk10"><path codeLine="4" d="M1131.3276,64.1725 C1161.2476,81.8925 1186.95,97.11 1216.93,114.86" fill="none" id="Sample-backto-StatisticalSample" style="stroke:#181818;stroke-width:1;"/><polygon fill="none" points="1115.84,55,1128.2701,69.335,1134.3851,59.0099,1115.84,55" style="stroke:#181818;stroke-width:1;stroke-linejoin:miter;stroke-miterlimit:10;"/></g><!--reverse link Property to ObservableProperty--><g class="link" data-entity-1="ent0001" data-entity-2="ent0011" data-link-type="extension" data-source-line="5" id="lnk12"><path codeLine="5" d="M649.2015,68.2794 C665.3615,85.9394 675.43,96.94 691.66,114.68" fill="none" id="Property-backto-ObservableProperty" style="stroke:#181818;stroke-width:1;"/><polygon fill="none" points="637.05,55,644.775,72.3299,653.6279,64.2289,637.05,55" style="stroke:#181818;stroke-width:1;stroke-linejoin:miter;stroke-miterlimit:10;"/></g><!--reverse link Procedure to ActuatingProcedure--><g class="link" data-entity-1="ent0013" data-entity-2="ent0014" data-link-type="extension" data-source-line="6" id="lnk15"><path codeLine="6" d="M1600.8326,63.1732 C1566.0626,80.8932 1534.24,97.11 1499.4,114.86" fill="none" id="Procedure-backto-ActuatingProcedure" style="stroke:#181818;stroke-width:1;"/><polygon fill="none" points="1616.87,55,1598.1082,57.8274,1603.557,68.519,1616.87,55" style="stroke:#181818;stroke-width:1;stroke-linejoin:miter;stroke-miterlimit:10;"/></g><!--reverse link Procedure to ObservingProcedure--><g class="link" data-entity-1="ent0013" data-entity-2="ent0016" data-link-type="extension" data-source-line="7" id="lnk17"><path codeLine="7" d="M1662,73 C1662,90.66 1662,96.94 1662,114.68" fill="none" id="Procedure-backto-ObservingProcedure" style="stroke:#181818;stroke-width:1;"/><polygon fill="none" points="1662,55,1656,73,1668,73,1662,55" style="stroke:#181818;stroke-width:1;stroke-linejoin:miter;stroke-miterlimit:10;"/></g><!--reverse link Procedure to SamplingProcedure--><g class="link" data-entity-1="ent0013" data-entity-2="ent0018" data-link-type="extension" data-source-line="8" id="lnk19"><path codeLine="8" d="M1722.9411,63.205 C1757.5411,80.925 1789.15,97.11 1823.81,114.86" fill="none" id="Procedure-backto-SamplingProcedure" style="stroke:#181818;stroke-width:1;"/><polygon fill="none" points="1706.92,55,1720.2061,68.5454,1725.6762,57.8647,1706.92,55" style="stroke:#181818;stroke-width:1;stroke-linejoin:miter;stroke-miterlimit:10;"/></g><!--reverse link Asset to Platform--><g class="link" data-entity-1="ent0020" data-entity-2="ent0021" data-link-type="extension" data-source-line="9" id="lnk22"><path codeLine="9" d="M2072.7839,70.6022 C2062.6239,88.2622 2057.63,96.94 2047.42,114.68" fill="none" id="Asset-backto-Platform" style="stroke:#181818;stroke-width:1;"/><polygon fill="none" points="2081.76,55,2067.5831,67.6102,2077.9846,73.5943,2081.76,55" style="stroke:#181818;stroke-width:1;stroke-linejoin:miter;stroke-miterlimit:10;"/></g><!--reverse link System to Sampler--><g class="link" data-entity-1="ent0023" data-entity-2="ent0024" data-link-type="extension" data-source-line="10" id="lnk25"><path codeLine="10" d="M2115.8865,174.5884 C2094.8965,192.2484 2079.81,204.94 2058.72,222.68" fill="none" id="System-backto-Sampler" style="stroke:#181818;stroke-width:1;"/><polygon fill="none" points="2129.66,163,2112.0237,169.9972,2119.7493,179.1795,2129.66,163" style="stroke:#181818;stroke-width:1;stroke-linejoin:miter;stroke-miterlimit:10;"/></g><!--reverse link System to Actuator--><g class="link" data-entity-1="ent0023" data-entity-2="ent0026" data-link-type="extension" data-source-line="11" id="lnk27"><path codeLine="11" d="M2157,181 C2157,198.66 2157,204.94 2157,222.68" fill="none" id="System-backto-Actuator" style="stroke:#181818;stroke-width:1;"/><polygon fill="none" points="2157,163,2151,181,2163,181,2157,163" style="stroke:#181818;stroke-width:1;stroke-linejoin:miter;stroke-miterlimit:10;"/></g><!--reverse link Asset to System--><g class="link" data-entity-1="ent0020" data-entity-2="ent0023" data-link-type="extension" data-source-line="12" id="lnk28"><path codeLine="12" d="M2117.5383,70.5372 C2127.8683,88.1972 2132.98,96.94 2143.36,114.68" fill="none" id="Asset-backto-System" style="stroke:#181818;stroke-width:1;"/><polygon fill="none" points="2108.45,55,2112.3592,73.5666,2122.7173,67.5077,2108.45,55" style="stroke:#181818;stroke-width:1;stroke-linejoin:miter;stroke-miterlimit:10;"/></g><!--reverse link Execution to Sampling--><g class="link" data-entity-1="ent0029" data-entity-2="ent0030" data-link-type="extension" data-source-line="13" id="lnk31"><path codeLine="13" d="M2373.8041,66.1688 C2351.4841,83.8288 2334.91,96.94 2312.48,114.68" fill="none" id="Execution-backto-Sampling" style="stroke:#181818;stroke-width:1;"/><polygon fill="none" points="2387.92,55,2370.0812,61.4635,2377.527,70.8741,2387.92,55" style="stroke:#181818;stroke-width:1;stroke-linejoin:miter;stroke-miterlimit:10;"/></g><!--reverse link ExecutionCollection to SamplingCollection--><g class="link" data-entity-1="ent0032" data-entity-2="ent0033" data-link-type="extension" data-source-line="14" id="lnk34"><path codeLine="14" d="M2879.231,63.3636 C2845.461,81.0836 2814.93,97.11 2781.09,114.86" fill="none" id="ExecutionCollection-backto-SamplingCollection" style="stroke:#181818;stroke-width:1;"/><polygon fill="none" points="2895.17,55,2876.4432,58.0506,2882.0189,68.6766,2895.17,55" style="stroke:#181818;stroke-width:1;stroke-linejoin:miter;stroke-miterlimit:10;"/></g><!--reverse link Execution to Actuation--><g class="link" data-entity-1="ent0029" data-entity-2="ent0035" data-link-type="extension" data-source-line="15" id="lnk36"><path codeLine="15" d="M2417,73 C2417,90.66 2417,96.94 2417,114.68" fill="none" id="Execution-backto-Actuation" style="stroke:#181818;stroke-width:1;"/><polygon fill="none" points="2417,55,2411,73,2423,73,2417,55" style="stroke:#181818;stroke-width:1;stroke-linejoin:miter;stroke-miterlimit:10;"/></g><!--reverse link System to Sensor--><g class="link" data-entity-1="ent0023" data-entity-2="ent0037" data-link-type="extension" data-source-line="16" id="lnk38"><path codeLine="16" d="M2196.7968,174.864 C2216.9468,192.524 2231.13,204.94 2251.38,222.68" fill="none" id="System-backto-Sensor" style="stroke:#181818;stroke-width:1;"/><polygon fill="none" points="2183.26,163,2192.8421,179.3763,2200.7515,170.3518,2183.26,163" style="stroke:#181818;stroke-width:1;stroke-linejoin:miter;stroke-miterlimit:10;"/></g><!--reverse link ExecutionCollection to ActuationCollection--><g class="link" data-entity-1="ent0032" data-entity-2="ent0039" data-link-type="extension" data-source-line="17" id="lnk40"><path codeLine="17" d="M2939,73 C2939,90.66 2939,96.94 2939,114.68" fill="none" id="ExecutionCollection-backto-ActuationCollection" style="stroke:#181818;stroke-width:1;"/><polygon fill="none" points="2939,55,2933,73,2945,73,2939,55" style="stroke:#181818;stroke-width:1;stroke-linejoin:miter;stroke-miterlimit:10;"/></g><!--reverse link ExecutionCollection to ObservationCollection--><g class="link" data-entity-1="ent0032" data-entity-2="ent0041" data-link-type="extension" data-source-line="18" id="lnk42"><path codeLine="18" d="M3001.0997,63.0498 C3036.5397,80.7698 3069.22,97.11 3104.72,114.86" fill="none" id="ExecutionCollection-backto-ObservationCollection" style="stroke:#181818;stroke-width:1;"/><polygon fill="none" points="2985,55,2998.4164,68.4164,3003.783,57.6833,2985,55" style="stroke:#181818;stroke-width:1;stroke-linejoin:miter;stroke-miterlimit:10;"/></g><!--reverse link Execution to Observation--><g class="link" data-entity-1="ent0029" data-entity-2="ent0043" data-link-type="extension" data-source-line="19" id="lnk44"><path codeLine="19" d="M2462.4895,65.7202 C2486.3095,83.3802 2504.61,96.94 2528.54,114.68" fill="none" id="Execution-backto-Observation" style="stroke:#181818;stroke-width:1;"/><polygon fill="none" points="2448.03,55,2458.9161,70.54,2466.0629,60.9004,2448.03,55" style="stroke:#181818;stroke-width:1;stroke-linejoin:miter;stroke-miterlimit:10;"/></g><?plantuml-src VP99RiCm34NtFaKka1jq4xGDa4LWepw1eZ2506g0I1KrqCD72EL1JjoT-D_d9AcBFa3aOVVsjz_l3fgJOdL1w8hUzCe61C5dnH2DGj4gr0V56uGp8JPwebtLixqGn9-gPpvekAO8owcC-vxqjKDg_ETujAuC1o9WWHqgllbectuW1hl8W5XfCecFosJXpUSlwCJ6kxhVhBzxHD3FZbbVroXxPr3D1Oxo19jrfwnNXTVcSlbRzYTJer4HZJjBC3sRX2SN4fVp4HJdksvl9vT_3j2ezsnimaGbR1FFEIls0G7zOC6D_0ie8MzHURLvbpi0?></g></svg>