<svg xmlns="http://www.w3.org/2000/svg" xmlns:xlink="http://www.w3.org/1999/xlink" contentStyleType="text/css" data-diagram-type="CLASS" height="286px" preserveAspectRatio="none" style="width:3216px;height:286px;background:#FFFFFF;" version="1.1" viewBox="0 0 3216 286" width="3216px" zoomAndPan="magnify"><?plantuml 1.2026.6?><defs/><g><!--class Property--><g class="entity" data-qualified-name="Property" data-source-line="1" id="ent0001"><rect fill="#F1F1F1" height="48" rx="2.5" ry="2.5" style="stroke:#181818;stroke-width:0.5;" width="91.7939" x="546" y="7"/><ellipse cx="561" cy="23" fill="#ADD1B2" rx="11" ry="11" style="stroke:#181818;stroke-width:1;"/><path d="M563.9688,28.6406 Q563.3906,28.9375 562.75,29.0781 Q562.1094,29.2344 561.4063,29.2344 Q558.9063,29.2344 557.5781,27.5938 Q556.2656,25.9375 556.2656,22.8125 Q556.2656,19.6875 557.5781,18.0313 Q558.9063,16.375 561.4063,16.375 Q562.1094,16.375 562.75,16.5313 Q563.4063,16.6875 563.9688,16.9844 L563.9688,19.7031 Q563.3438,19.125 562.75,18.8594 Q562.1563,18.5781 561.5313,18.5781 Q560.1875,18.5781 559.5,19.6563 Q558.8125,20.7188 558.8125,22.8125 Q558.8125,24.9063 559.5,25.9844 Q560.1875,27.0469 561.5313,27.0469 Q562.1563,27.0469 562.75,26.7813 Q563.3438,26.5 563.9688,25.9219 L563.9688,28.6406 Z " fill="#000000"/><text fill="#000000" font-family="sans-serif" font-size="14" lengthAdjust="spacing" textLength="59.7939" x="575" y="27.8467">Property</text><line style="stroke:#181818;stroke-width:0.5;" x1="547" x2="636.7939" y1="39" y2="39"/><line style="stroke:#181818;stroke-width:0.5;" x1="547" x2="636.7939" y1="47" y2="47"/></g><!--class ActuatableProperty--><g class="entity" data-qualified-name="ActuatableProperty" data-source-line="1" id="ent0002"><rect fill="#F1F1F1" height="48" rx="2.5" ry="2.5" style="stroke:#181818;stroke-width:0.5;" width="167.4678" x="381.5" y="115"/><ellipse cx="396.5" cy="131" fill="#ADD1B2" rx="11" ry="11" style="stroke:#181818;stroke-width:1;"/><path d="M399.4688,136.6406 Q398.8906,136.9375 398.25,137.0781 Q397.6094,137.2344 396.9063,137.2344 Q394.4063,137.2344 393.0781,135.5938 Q391.7656,133.9375 391.7656,130.8125 Q391.7656,127.6875 393.0781,126.0313 Q394.4063,124.375 396.9063,124.375 Q397.6094,124.375 398.25,124.5313 Q398.9063,124.6875 399.4688,124.9844 L399.4688,127.7031 Q398.8438,127.125 398.25,126.8594 Q397.6563,126.5781 397.0313,126.5781 Q395.6875,126.5781 395,127.6563 Q394.3125,128.7188 394.3125,130.8125 Q394.3125,132.9063 395,133.9844 Q395.6875,135.0469 397.0313,135.0469 Q397.6563,135.0469 398.25,134.7813 Q398.8438,134.5 399.4688,133.9219 L399.4688,136.6406 Z " fill="#000000"/><text fill="#000000" font-family="sans-serif" font-size="14" lengthAdjust="spacing" textLength="135.4678" x="410.5" y="135.8467">ActuatableProperty</text><line style="stroke:#181818;stroke-width:0.5;" x1="382.5" x2="547.9678" y1="147" y2="147"/><line style="stroke:#181818;stroke-width:0.5;" x1="382.5" x2="547.9678" y1="155" y2="155"/></g><!--class Sample--><g class="entity" data-qualified-name="Sample" data-source-line="2" id="ent0004"><rect fill="#F1F1F1" height="48" rx="2.5" ry="2.5" style="stroke:#181818;stroke-width:0.5;" width="84.4932" x="992" y="7"/><ellipse cx="1007" cy="23" fill="#ADD1B2" rx="11" ry="11" style="stroke:#181818;stroke-width:1;"/><path d="M1009.9688,28.6406 Q1009.3906,28.9375 1008.75,29.0781 Q1008.1094,29.2344 1007.4063,29.2344 Q1004.9063,29.2344 1003.5781,27.5938 Q1002.2656,25.9375 1002.2656,22.8125 Q1002.2656,19.6875 1003.5781,18.0313 Q1004.9063,16.375 1007.4063,16.375 Q1008.1094,16.375 1008.75,16.5313 Q1009.4063,16.6875 1009.9688,16.9844 L1009.9688,19.7031 Q1009.3438,19.125 1008.75,18.8594 Q1008.1563,18.5781 1007.5313,18.5781 Q1006.1875,18.5781 1005.5,19.6563 Q1004.8125,20.7188 1004.8125,22.8125 Q1004.8125,24.9063 1005.5,25.9844 Q1006.1875,27.0469 1007.5313,27.0469 Q1008.1563,27.0469 1008.75,26.7813 Q1009.3438,26.5 1009.9688,25.9219 L1009.9688,28.6406 Z " fill="#000000"/><text fill="#000000" font-family="sans-serif" font-size="14" lengthAdjust="spacing" textLength="52.4932" x="1021" y="27.8467">Sample</text><line style="stroke:#181818;stroke-width:0.5;" x1="993" x2="1075.4932" y1="39" y2="39"/><line style="stroke:#181818;stroke-width:0.5;" x1="993" x2="1075.4932" y1="47" y2="47"/></g><!--class MaterialSample--><g class="entity" data-qualified-name="MaterialSample" data-source-line="2" id="ent0005"><rect fill="#F1F1F1" height="48" rx="2.5" ry="2.5" style="stroke:#181818;stroke-width:0.5;" width="141.3682" x="791.5" y="115"/><ellipse cx="806.5" cy="131" fill="#ADD1B2" rx="11" ry="11" style="stroke:#181818;stroke-width:1;"/><path d="M809.4688,136.6406 Q808.8906,136.9375 808.25,137.0781 Q807.6094,137.2344 806.9063,137.2344 Q804.4063,137.2344 803.0781,135.5938 Q801.7656,133.9375 801.7656,130.8125 Q801.7656,127.6875 803.0781,126.0313 Q804.4063,124.375 806.9063,124.375 Q807.6094,124.375 808.25,124.5313 Q808.9063,124.6875 809.4688,124.9844 L809.4688,127.7031 Q808.8438,127.125 808.25,126.8594 Q807.6563,126.5781 807.0313,126.5781 Q805.6875,126.5781 805,127.6563 Q804.3125,128.7188 804.3125,130.8125 Q804.3125,132.9063 805,133.9844 Q805.6875,135.0469 807.0313,135.0469 Q807.6563,135.0469 808.25,134.7813 Q808.8438,134.5 809.4688,133.9219 L809.4688,136.6406 Z " fill="#000000"/><text fill="#000000" font-family="sans-serif" font-size="14" lengthAdjust="spacing" textLength="109.3682" x="820.5" y="135.8467">MaterialSample</text><line style="stroke:#181818;stroke-width:0.5;" x1="792.5" x2="931.8682" y1="147" y2="147"/><line style="stroke:#181818;stroke-width:0.5;" x1="792.5" x2="931.8682" y1="155" y2="155"/></g><!--class SpatialSample--><g class="entity" data-qualified-name="SpatialSample" data-source-line="3" id="ent0007"><rect fill="#F1F1F1" height="48" rx="2.5" ry="2.5" style="stroke:#181818;stroke-width:0.5;" width="132.6934" x="967.5" y="115"/><ellipse cx="982.5" cy="131" fill="#ADD1B2" rx="11" ry="11" style="stroke:#181818;stroke-width:1;"/><path d="M985.4688,136.6406 Q984.8906,136.9375 984.25,137.0781 Q983.6094,137.2344 982.9063,137.2344 Q980.4063,137.2344 979.0781,135.5938 Q977.7656,133.9375 977.7656,130.8125 Q977.7656,127.6875 979.0781,126.0313 Q980.4063,124.375 982.9063,124.375 Q983.6094,124.375 984.25,124.5313 Q984.9063,124.6875 985.4688,124.9844 L985.4688,127.7031 Q984.8438,127.125 984.25,126.8594 Q983.6563,126.5781 983.0313,126.5781 Q981.6875,126.5781 981,127.6563 Q980.3125,128.7188 980.3125,130.8125 Q980.3125,132.9063 981,133.9844 Q981.6875,135.0469 983.0313,135.0469 Q983.6563,135.0469 984.25,134.7813 Q984.8438,134.5 985.4688,133.9219 L985.4688,136.6406 Z " fill="#000000"/><text fill="#000000" font-family="sans-serif" font-size="14" lengthAdjust="spacing" textLength="100.6934" x="996.5" y="135.8467">SpatialSample</text><line style="stroke:#181818;stroke-width:0.5;" x1="968.5" x2="1099.1934" y1="147" y2="147"/><line style="stroke:#181818;stroke-width:0.5;" x1="968.5" x2="1099.1934" y1="155" y2="155"/></g><!--class StatisticalSample--><g class="entity" data-qualified-name="StatisticalSample" data-source-line="4" id="ent0009"><rect fill="#F1F1F1" height="48" rx="2.5" ry="2.5" style="stroke:#181818;stroke-width:0.5;" width="153.666" x="1136" y="115"/><ellipse cx="1151" cy="131" fill="#ADD1B2" rx="11" ry="11" style="stroke:#181818;stroke-width:1;"/><path d="M1153.9688,136.6406 Q1153.3906,136.9375 1152.75,137.0781 Q1152.1094,137.2344 1151.4063,137.2344 Q1148.9063,137.2344 1147.5781,135.5938 Q1146.2656,133.9375 1146.2656,130.8125 Q1146.2656,127.6875 1147.5781,126.0313 Q1148.9063,124.375 1151.4063,124.375 Q1152.1094,124.375 1152.75,124.5313 Q1153.4063,124.6875 1153.9688,124.9844 L1153.9688,127.7031 Q1153.3438,127.125 1152.75,126.8594 Q1152.1563,126.5781 1151.5313,126.5781 Q1150.1875,126.5781 1149.5,127.6563 Q1148.8125,128.7188 1148.8125,130.8125 Q1148.8125,132.9063 1149.5,133.9844 Q1150.1875,135.0469 1151.5313,135.0469 Q1152.1563,135.0469 1152.75,134.7813 Q1153.3438,134.5 1153.9688,133.9219 L1153.9688,136.6406 Z " fill="#000000"/><text fill="#000000" font-family="sans-serif" font-size="14" lengthAdjust="spacing" textLength="121.666" x="1165" y="135.8467">StatisticalSample</text><line style="stroke:#181818;stroke-width:0.5;" x1="1137" x2="1288.666" y1="147" y2="147"/><line style="stroke:#181818;stroke-width:0.5;" x1="1137" x2="1288.666" y1="155" y2="155"/></g><!--class ObservableProperty--><g class="entity" data-qualified-name="ObservableProperty" data-source-line="5" id="ent0011"><rect fill="#F1F1F1" height="48" rx="2.5" ry="2.5" style="stroke:#181818;stroke-width:0.5;" width="171.6172" x="584" y="115"/><ellipse cx="599" cy="131" fill="#ADD1B2" rx="11" ry="11" style="stroke:#181818;stroke-width:1;"/><path d="M601.9688,136.6406 Q601.3906,136.9375 600.75,137.0781 Q600.1094,137.2344 599.4063,137.2344 Q596.9063,137.2344 595.5781,135.5938 Q594.2656,133.9375 594.2656,130.8125 Q594.2656,127.6875 595.5781,126.0313 Q596.9063,124.375 599.4063,124.375 Q600.1094,124.375 600.75,124.5313 Q601.4063,124.6875 601.9688,124.9844 L601.9688,127.7031 Q601.3438,127.125 600.75,126.8594 Q600.1563,126.5781 599.5313,126.5781 Q598.1875,126.5781 597.5,127.6563 Q596.8125,128.7188 596.8125,130.8125 Q596.8125,132.9063 597.5,133.9844 Q598.1875,135.0469 599.5313,135.0469 Q600.1563,135.0469 600.75,134.7813 Q601.3438,134.5 601.9688,133.9219 L601.9688,136.6406 Z " fill="#000000"/><text fill="#000000" font-family="sans-serif" font-size="14" lengthAdjust="spacing" textLength="139.6172" x="613" y="135.8467">ObservableProperty</text><line style="stroke:#181818;stroke-width:0.5;" x1="585" x2="754.6172" y1="147" y2="147"/><line style="stroke:#181818;stroke-width:0.5;" x1="585" x2="754.6172" y1="155" y2="155"/></g><!--class Procedure--><g class="entity" data-qualified-name="Procedure" data-source-line="6" id="ent0013"><rect fill="#F1F1F1" height="48" rx="2.5" ry="2.5" style="stroke:#181818;stroke-width:0.5;" width="103.2031" x="1567.5" y="7"/><ellipse cx="1582.5" cy="23" fill="#ADD1B2" rx="11" ry="11" style="stroke:#181818;stroke-width:1;"/><path d="M1585.4688,28.6406 Q1584.8906,28.9375 1584.25,29.0781 Q1583.6094,29.2344 1582.9063,29.2344 Q1580.4063,29.2344 1579.0781,27.5938 Q1577.7656,25.9375 1577.7656,22.8125 Q1577.7656,19.6875 1579.0781,18.0313 Q1580.4063,16.375 1582.9063,16.375 Q1583.6094,16.375 1584.25,16.5313 Q1584.9063,16.6875 1585.4688,16.9844 L1585.4688,19.7031 Q1584.8438,19.125 1584.25,18.8594 Q1583.6563,18.5781 1583.0313,18.5781 Q1581.6875,18.5781 1581,19.6563 Q1580.3125,20.7188 1580.3125,22.8125 Q1580.3125,24.9063 1581,25.9844 Q1581.6875,27.0469 1583.0313,27.0469 Q1583.6563,27.0469 1584.25,26.7813 Q1584.8438,26.5 1585.4688,25.9219 L1585.4688,28.6406 Z " fill="#000000"/><text fill="#000000" font-family="sans-serif" font-size="14" lengthAdjust="spacing" textLength="71.2031" x="1596.5" y="27.8467">Procedure</text><line style="stroke:#181818;stroke-width:0.5;" x1="1568.5" x2="1669.7031" y1="39" y2="39"/><line style="stroke:#181818;stroke-width:0.5;" x1="1568.5" x2="1669.7031" y1="47" y2="47"/></g><!--class ActuatingProcedure--><g class="entity" data-qualified-name="ActuatingProcedure" data-source-line="6" id="ent0014"><rect fill="#F1F1F1" height="48" rx="2.5" ry="2.5" style="stroke:#181818;stroke-width:0.5;" width="170.5576" x="1325.5" y="115"/><ellipse cx="1340.5" cy="131" fill="#ADD1B2" rx="11" ry="11" style="stroke:#181818;stroke-width:1;"/><path d="M1343.4688,136.6406 Q1342.8906,136.9375 1342.25,137.0781 Q1341.6094,137.2344 1340.9063,137.2344 Q1338.4063,137.2344 1337.0781,135.5938 Q1335.7656,133.9375 1335.7656,130.8125 Q1335.7656,127.6875 1337.0781,126.0313 Q1338.4063,124.375 1340.9063,124.375 Q1341.6094,124.375 1342.25,124.5313 Q1342.9063,124.6875 1343.4688,124.9844 L1343.4688,127.7031 Q1342.8438,127.125 1342.25,126.8594 Q1341.6563,126.5781 1341.0313,126.5781 Q1339.6875,126.5781 1339,127.6563 Q1338.3125,128.7188 1338.3125,130.8125 Q1338.3125,132.9063 1339,133.9844 Q1339.6875,135.0469 1341.0313,135.0469 Q1341.6563,135.0469 1342.25,134.7813 Q1342.8438,134.5 1343.4688,133.9219 L1343.4688,136.6406 Z " fill="#000000"/><text fill="#000000" font-family="sans-serif" font-size="14" lengthAdjust="spacing" textLength="138.5576" x="1354.5" y="135.8467">ActuatingProcedure</text><line style="stroke:#181818;stroke-width:0.5;" x1="1326.5" x2="1495.0576" y1="147" y2="147"/><line style="stroke:#181818;stroke-width:0.5;" x1="1326.5" x2="1495.0576" y1="155" y2="155"/></g><!--class ObservingProcedure--><g class="entity" data-qualified-name="ObservingProcedure" data-source-line="7" id="ent0016"><rect fill="#F1F1F1" height="48" rx="2.5" ry="2.5" style="stroke:#181818;stroke-width:0.5;" width="174.707" x="1531.5" y="115"/><ellipse cx="1546.5" cy="131" fill="#ADD1B2" rx="11" ry="11" style="stroke:#181818;stroke-width:1;"/><path d="M1549.4688,136.6406 Q1548.8906,136.9375 1548.25,137.0781 Q1547.6094,137.2344 1546.9063,137.2344 Q1544.4063,137.2344 1543.0781,135.5938 Q1541.7656,133.9375 1541.7656,130.8125 Q1541.7656,127.6875 1543.0781,126.0313 Q1544.4063,124.375 1546.9063,124.375 Q1547.6094,124.375 1548.25,124.5313 Q1548.9063,124.6875 1549.4688,124.9844 L1549.4688,127.7031 Q1548.8438,127.125 1548.25,126.8594 Q1547.6563,126.5781 1547.0313,126.5781 Q1545.6875,126.5781 1545,127.6563 Q1544.3125,128.7188 1544.3125,130.8125 Q1544.3125,132.9063 1545,133.9844 Q1545.6875,135.0469 1547.0313,135.0469 Q1547.6563,135.0469 1548.25,134.7813 Q1548.8438,134.5 1549.4688,133.9219 L1549.4688,136.6406 Z " fill="#000000"/><text fill="#000000" font-family="sans-serif" font-size="14" lengthAdjust="spacing" textLength="142.707" x="1560.5" y="135.8467">ObservingProcedure</text><line style="stroke:#181818;stroke-width:0.5;" x1="1532.5" x2="1705.207" y1="147" y2="147"/><line style="stroke:#181818;stroke-width:0.5;" x1="1532.5" x2="1705.207" y1="155" y2="155"/></g><!--class SamplingProcedure--><g class="entity" data-qualified-name="SamplingProcedure" data-source-line="8" id="ent0018"><rect fill="#F1F1F1" height="48" rx="2.5" ry="2.5" style="stroke:#181818;stroke-width:0.5;" width="168.7324" x="1741.5" y="115"/><ellipse cx="1756.5" cy="131" fill="#ADD1B2" rx="11" ry="11" style="stroke:#181818;stroke-width:1;"/><path d="M1759.4688,136.6406 Q1758.8906,136.9375 1758.25,137.0781 Q1757.6094,137.2344 1756.9063,137.2344 Q1754.4063,137.2344 1753.0781,135.5938 Q1751.7656,133.9375 1751.7656,130.8125 Q1751.7656,127.6875 1753.0781,126.0313 Q1754.4063,124.375 1756.9063,124.375 Q1757.6094,124.375 1758.25,124.5313 Q1758.9063,124.6875 1759.4688,124.9844 L1759.4688,127.7031 Q1758.8438,127.125 1758.25,126.8594 Q1757.6563,126.5781 1757.0313,126.5781 Q1755.6875,126.5781 1755,127.6563 Q1754.3125,128.7188 1754.3125,130.8125 Q1754.3125,132.9063 1755,133.9844 Q1755.6875,135.0469 1757.0313,135.0469 Q1757.6563,135.0469 1758.25,134.7813 Q1758.8438,134.5 1759.4688,133.9219 L1759.4688,136.6406 Z " fill="#000000"/><text fill="#000000" font-family="sans-serif" font-size="14" lengthAdjust="spacing" textLength="136.7324" x="1770.5" y="135.8467">SamplingProcedure</text><line style="stroke:#181818;stroke-width:0.5;" x1="1742.5" x2="1909.2324" y1="147" y2="147"/><line style="stroke:#181818;stroke-width:0.5;" x1="1742.5" x2="1909.2324" y1="155" y2="155"/></g><!--class Asset--><g class="entity" data-qualified-name="Asset" data-source-line="9" id="ent0020"><rect fill="#F1F1F1" height="48" rx="2.5" ry="2.5" style="stroke:#181818;stroke-width:0.5;" width="70.2676" x="2017" y="7"/><ellipse cx="2032" cy="23" fill="#ADD1B2" rx="11" ry="11" style="stroke:#181818;stroke-width:1;"/><path d="M2034.9688,28.6406 Q2034.3906,28.9375 2033.75,29.0781 Q2033.1094,29.2344 2032.4063,29.2344 Q2029.9063,29.2344 2028.5781,27.5938 Q2027.2656,25.9375 2027.2656,22.8125 Q2027.2656,19.6875 2028.5781,18.0313 Q2029.9063,16.375 2032.4063,16.375 Q2033.1094,16.375 2033.75,16.5313 Q2034.4063,16.6875 2034.9688,16.9844 L2034.9688,19.7031 Q2034.3438,19.125 2033.75,18.8594 Q2033.1563,18.5781 2032.5313,18.5781 Q2031.1875,18.5781 2030.5,19.6563 Q2029.8125,20.7188 2029.8125,22.8125 Q2029.8125,24.9063 2030.5,25.9844 Q2031.1875,27.0469 2032.5313,27.0469 Q2033.1563,27.0469 2033.75,26.7813 Q2034.3438,26.5 2034.9688,25.9219 L2034.9688,28.6406 Z " fill="#000000"/><text fill="#000000" font-family="sans-serif" font-size="14" lengthAdjust="spacing" textLength="38.2676" x="2046" y="27.8467">Asset</text><line style="stroke:#181818;stroke-width:0.5;" x1="2018" x2="2086.2676" y1="39" y2="39"/><line style="stroke:#181818;stroke-width:0.5;" x1="2018" x2="2086.2676" y1="47" y2="47"/></g><!--class Platform--><g class="entity" data-qualified-name="Platform" data-source-line="9" id="ent0021"><rect fill="#F1F1F1" height="48" rx="2.5" ry="2.5" style="stroke:#181818;stroke-width:0.5;" width="91.2881" x="1945.5" y="115"/><ellipse cx="1960.5" cy="131" fill="#ADD1B2" rx="11" ry="11" style="stroke:#181818;stroke-width:1;"/><path d="M1963.4688,136.6406 Q1962.8906,136.9375 1962.25,137.0781 Q1961.6094,137.2344 1960.9063,137.2344 Q1958.4063,137.2344 1957.0781,135.5938 Q1955.7656,133.9375 1955.7656,130.8125 Q1955.7656,127.6875 1957.0781,126.0313 Q1958.4063,124.375 1960.9063,124.375 Q1961.6094,124.375 1962.25,124.5313 Q1962.9063,124.6875 1963.4688,124.9844 L1963.4688,127.7031 Q1962.8438,127.125 1962.25,126.8594 Q1961.6563,126.5781 1961.0313,126.5781 Q1959.6875,126.5781 1959,127.6563 Q1958.3125,128.7188 1958.3125,130.8125 Q1958.3125,132.9063 1959,133.9844 Q1959.6875,135.0469 1961.0313,135.0469 Q1961.6563,135.0469 1962.25,134.7813 Q1962.8438,134.5 1963.4688,133.9219 L1963.4688,136.6406 Z " fill="#000000"/><text fill="#000000" font-family="sans-serif" font-size="14" lengthAdjust="spacing" textLength="59.2881" x="1974.5" y="135.8467">Platform</text><line style="stroke:#181818;stroke-width:0.5;" x1="1946.5" x2="2035.7881" y1="147" y2="147"/><line style="stroke:#181818;stroke-width:0.5;" x1="1946.5" x2="2035.7881" y1="155" y2="155"/></g><!--class System--><g class="entity" data-qualified-name="System" data-source-line="10" id="ent0023"><rect fill="#F1F1F1" height="48" rx="2.5" ry="2.5" style="stroke:#181818;stroke-width:0.5;" width="84.2061" x="2072" y="115"/><ellipse cx="2087" cy="131" fill="#ADD1B2" rx="11" ry="11" style="stroke:#181818;stroke-width:1;"/><path d="M2089.9688,136.6406 Q2089.3906,136.9375 2088.75,137.0781 Q2088.1094,137.2344 2087.4063,137.2344 Q2084.9063,137.2344 2083.5781,135.5938 Q2082.2656,133.9375 2082.2656,130.8125 Q2082.2656,127.6875 2083.5781,126.0313 Q2084.9063,124.375 2087.4063,124.375 Q2088.1094,124.375 2088.75,124.5313 Q2089.4063,124.6875 2089.9688,124.9844 L2089.9688,127.7031 Q2089.3438,127.125 2088.75,126.8594 Q2088.1563,126.5781 2087.5313,126.5781 Q2086.1875,126.5781 2085.5,127.6563 Q2084.8125,128.7188 2084.8125,130.8125 Q2084.8125,132.9063 2085.5,133.9844 Q2086.1875,135.0469 2087.5313,135.0469 Q2088.1563,135.0469 2088.75,134.7813 Q2089.3438,134.5 2089.9688,133.9219 L2089.9688,136.6406 Z " fill="#000000"/><text fill="#000000" font-family="sans-serif" font-size="14" lengthAdjust="spacing" textLength="52.2061" x="2101" y="135.8467">System</text><line style="stroke:#181818;stroke-width:0.5;" x1="2073" x2="2155.2061" y1="147" y2="147"/><line style="stroke:#181818;stroke-width:0.5;" x1="2073" x2="2155.2061" y1="155" y2="155"/></g><!--class Sampler--><g class="entity" data-qualified-name="Sampler" data-source-line="10" id="ent0024"><rect fill="#F1F1F1" height="48" rx="2.5" ry="2.5" style="stroke:#181818;stroke-width:0.5;" width="90.249" x="1943" y="223"/><ellipse cx="1958" cy="239" fill="#ADD1B2" rx="11" ry="11" style="stroke:#181818;stroke-width:1;"/><path d="M1960.9688,244.6406 Q1960.3906,244.9375 1959.75,245.0781 Q1959.1094,245.2344 1958.4063,245.2344 Q1955.9063,245.2344 1954.5781,243.5938 Q1953.2656,241.9375 1953.2656,238.8125 Q1953.2656,235.6875 1954.5781,234.0313 Q1955.9063,232.375 1958.4063,232.375 Q1959.1094,232.375 1959.75,232.5313 Q1960.4063,232.6875 1960.9688,232.9844 L1960.9688,235.7031 Q1960.3438,235.125 1959.75,234.8594 Q1959.1563,234.5781 1958.5313,234.5781 Q1957.1875,234.5781 1956.5,235.6563 Q1955.8125,236.7188 1955.8125,238.8125 Q1955.8125,240.9063 1956.5,241.9844 Q1957.1875,243.0469 1958.5313,243.0469 Q1959.1563,243.0469 1959.75,242.7813 Q1960.3438,242.5 1960.9688,241.9219 L1960.9688,244.6406 Z " fill="#000000"/><text fill="#000000" font-family="sans-serif" font-size="14" lengthAdjust="spacing" textLength="58.249" x="1972" y="243.8467">Sampler</text><line style="stroke:#181818;stroke-width:0.5;" x1="1944" x2="2032.249" y1="255" y2="255"/><line style="stroke:#181818;stroke-width:0.5;" x1="1944" x2="2032.249" y1="263" y2="263"/></g><!--class Actuator--><g class="entity" data-qualified-name="Actuator" data-source-line="11" id="ent0026"><rect fill="#F1F1F1" height="48" rx="2.5" ry="2.5" style="stroke:#181818;stroke-width:0.5;" width="92.0264" x="2068" y="223"/><ellipse cx="2083" cy="239" fill="#ADD1B2" rx="11" ry="11" style="stroke:#181818;stroke-width:1;"/><path d="M2085.9688,244.6406 Q2085.3906,244.9375 2084.75,245.0781 Q2084.1094,245.2344 2083.4063,245.2344 Q2080.9063,245.2344 2079.5781,243.5938 Q2078.2656,241.9375 2078.2656,238.8125 Q2078.2656,235.6875 2079.5781,234.0313 Q2080.9063,232.375 2083.4063,232.375 Q2084.1094,232.375 2084.75,232.5313 Q2085.4063,232.6875 2085.9688,232.9844 L2085.9688,235.7031 Q2085.3438,235.125 2084.75,234.8594 Q2084.1563,234.5781 2083.5313,234.5781 Q2082.1875,234.5781 2081.5,235.6563 Q2080.8125,236.7188 2080.8125,238.8125 Q2080.8125,240.9063 2081.5,241.9844 Q2082.1875,243.0469 2083.5313,243.0469 Q2084.1563,243.0469 2084.75,242.7813 Q2085.3438,242.5 2085.9688,241.9219 L2085.9688,244.6406 Z " fill="#000000"/><text fill="#000000" font-family="sans-serif" font-size="14" lengthAdjust="spacing" textLength="60.0264" x="2097" y="243.8467">Actuator</text><line style="stroke:#181818;stroke-width:0.5;" x1="2069" x2="2159.0264" y1="255" y2="255"/><line style="stroke:#181818;stroke-width:0.5;" x1="2069" x2="2159.0264" y1="263" y2="263"/></g><!--class Execution--><g class="entity" data-qualified-name="Execution" data-source-line="13" id="ent0029"><rect fill="#F1F1F1" height="48" rx="2.5" ry="2.5" style="stroke:#181818;stroke-width:0.5;" width="101.1318" x="2323.5" y="7"/><ellipse cx="2338.5" cy="23" fill="#ADD1B2" rx="11" ry="11" style="stroke:#181818;stroke-width:1;"/><path d="M2341.4688,28.6406 Q2340.8906,28.9375 2340.25,29.0781 Q2339.6094,29.2344 2338.9063,29.2344 Q2336.4063,29.2344 2335.0781,27.5938 Q2333.7656,25.9375 2333.7656,22.8125 Q2333.7656,19.6875 2335.0781,18.0313 Q2336.4063,16.375 2338.9063,16.375 Q2339.6094,16.375 2340.25,16.5313 Q2340.9063,16.6875 2341.4688,16.9844 L2341.4688,19.7031 Q2340.8438,19.125 2340.25,18.8594 Q2339.6563,18.5781 2339.0313,18.5781 Q2337.6875,18.5781 2337,19.6563 Q2336.3125,20.7188 2336.3125,22.8125 Q2336.3125,24.9063 2337,25.9844 Q2337.6875,27.0469 2339.0313,27.0469 Q2339.6563,27.0469 2340.25,26.7813 Q2340.8438,26.5 2341.4688,25.9219 L2341.4688,28.6406 Z " fill="#000000"/><text fill="#000000" font-family="sans-serif" font-size="14" lengthAdjust="spacing" textLength="69.1318" x="2352.5" y="27.8467">Execution</text><line style="stroke:#181818;stroke-width:0.5;" x1="2324.5" x2="2423.6318" y1="39" y2="39"/><line style="stroke:#181818;stroke-width:0.5;" x1="2324.5" x2="2423.6318" y1="47" y2="47"/></g><!--class Sampling--><g class="entity" data-qualified-name="Sampling" data-source-line="13" id="ent0030"><rect fill="#F1F1F1" height="48" rx="2.5" ry="2.5" style="stroke:#181818;stroke-width:0.5;" width="97.5293" x="2191" y="115"/><ellipse cx="2206" cy="131" fill="#ADD1B2" rx="11" ry="11" style="stroke:#181818;stroke-width:1;"/><path d="M2208.9688,136.6406 Q2208.3906,136.9375 2207.75,137.0781 Q2207.1094,137.2344 2206.4063,137.2344 Q2203.9063,137.2344 2202.5781,135.5938 Q2201.2656,133.9375 2201.2656,130.8125 Q2201.2656,127.6875 2202.5781,126.0313 Q2203.9063,124.375 2206.4063,124.375 Q2207.1094,124.375 2207.75,124.5313 Q2208.4063,124.6875 2208.9688,124.9844 L2208.9688,127.7031 Q2208.3438,127.125 2207.75,126.8594 Q2207.1563,126.5781 2206.5313,126.5781 Q2205.1875,126.5781 2204.5,127.6563 Q2203.8125,128.7188 2203.8125,130.8125 Q2203.8125,132.9063 2204.5,133.9844 Q2205.1875,135.0469 2206.5313,135.0469 Q2207.1563,135.0469 2207.75,134.7813 Q2208.3438,134.5 2208.9688,133.9219 L2208.9688,136.6406 Z " fill="#000000"/><text fill="#000000" font-family="sans-serif" font-size="14" lengthAdjust="spacing" textLength="65.5293" x="2220" y="135.8467">Sampling</text><line style="stroke:#181818;stroke-width:0.5;" x1="2192" x2="2287.5293" y1="147" y2="147"/><line style="stroke:#181818;stroke-width:0.5;" x1="2192" x2="2287.5293" y1="155" y2="155"/></g><!--class ExecutionCollection--><g class="entity" data-qualified-name="ExecutionCollection" data-source-line="14" id="ent0032"><rect fill="#F1F1F1" height="48" rx="2.5" ry="2.5" style="stroke:#181818;stroke-width:0.5;" width="170.3799" x="2811" y="7"/><ellipse cx="2826" cy="23" fill="#ADD1B2" rx="11" ry="11" style="stroke:#181818;stroke-width:1;"/><path d="M2828.9688,28.6406 Q2828.3906,28.9375 2827.75,29.0781 Q2827.1094,29.2344 2826.4063,29.2344 Q2823.9063,29.2344 2822.5781,27.5938 Q2821.2656,25.9375 2821.2656,22.8125 Q2821.2656,19.6875 2822.5781,18.0313 Q2823.9063,16.375 2826.4063,16.375 Q2827.1094,16.375 2827.75,16.5313 Q2828.4063,16.6875 2828.9688,16.9844 L2828.9688,19.7031 Q2828.3438,19.125 2827.75,18.8594 Q2827.1563,18.5781 2826.5313,18.5781 Q2825.1875,18.5781 2824.5,19.6563 Q2823.8125,20.7188 2823.8125,22.8125 Q2823.8125,24.9063 2824.5,25.9844 Q2825.1875,27.0469 2826.5313,27.0469 Q2827.1563,27.0469 2827.75,26.7813 Q2828.3438,26.5 2828.9688,25.9219 L2828.9688,28.6406 Z " fill="#000000"/><text fill="#000000" font-family="sans-serif" font-size="14" lengthAdjust="spacing" textLength="138.3799" x="2840" y="27.8467">ExecutionCollection</text><line style="stroke:#181818;stroke-width:0.5;" x1="2812" x2="2980.3799" y1="39" y2="39"/><line style="stroke:#181818;stroke-width:0.5;" x1="2812" x2="2980.3799" y1="47" y2="47"/></g><!--class SamplingCollection--><g class="entity" data-qualified-name="SamplingCollection" data-source-line="14" id="ent0033"><rect fill="#F1F1F1" height="48" rx="2.5" ry="2.5" style="stroke:#181818;stroke-width:0.5;" width="166.7773" x="2610.5" y="115"/><ellipse cx="2625.5" cy="131" fill="#ADD1B2" rx="11" ry="11" style="stroke:#181818;stroke-width:1;"/><path d="M2628.4688,136.6406 Q2627.8906,136.9375 2627.25,137.0781 Q2626.6094,137.2344 2625.9063,137.2344 Q2623.4063,137.2344 2622.0781,135.5938 Q2620.7656,133.9375 2620.7656,130.8125 Q2620.7656,127.6875 2622.0781,126.0313 Q2623.4063,124.375 2625.9063,124.375 Q2626.6094,124.375 2627.25,124.5313 Q2627.9063,124.6875 2628.4688,124.9844 L2628.4688,127.7031 Q2627.8438,127.125 2627.25,126.8594 Q2626.6563,126.5781 2626.0313,126.5781 Q2624.6875,126.5781 2624,127.6563 Q2623.3125,128.7188 2623.3125,130.8125 Q2623.3125,132.9063 2624,133.9844 Q2624.6875,135.0469 2626.0313,135.0469 Q2626.6563,135.0469 2627.25,134.7813 Q2627.8438,134.5 2628.4688,133.9219 L2628.4688,136.6406 Z " fill="#000000"/><text fill="#000000" font-family="sans-serif" font-size="14" lengthAdjust="spacing" textLength="134.7773" x="2639.5" y="135.8467">SamplingCollection</text><line style="stroke:#181818;stroke-width:0.5;" x1="2611.5" x2="2776.2773" y1="147" y2="147"/><line style="stroke:#181818;stroke-width:0.5;" x1="2611.5" x2="2776.2773" y1="155" y2="155"/></g><!--class Actuation--><g class="entity" data-qualified-name="Actuation" data-source-line="15" id="ent0035"><rect fill="#F1F1F1" height="48" rx="2.5" ry="2.5" style="stroke:#181818;stroke-width:0.5;" width="99.0332" x="2324.5" y="115"/><ellipse cx="2339.5" cy="131" fill="#ADD1B2" rx="11" ry="11" style="stroke:#181818;stroke-width:1;"/><path d="M2342.4688,136.6406 Q2341.8906,136.9375 2341.25,137.0781 Q2340.6094,137.2344 2339.9063,137.2344 Q2337.4063,137.2344 2336.0781,135.5938 Q2334.7656,133.9375 2334.7656,130.8125 Q2334.7656,127.6875 2336.0781,126.0313 Q2337.4063,124.375 2339.9063,124.375 Q2340.6094,124.375 2341.25,124.5313 Q2341.9063,124.6875 2342.4688,124.9844 L2342.4688,127.7031 Q2341.8438,127.125 2341.25,126.8594 Q2340.6563,126.5781 2340.0313,126.5781 Q2338.6875,126.5781 2338,127.6563 Q2337.3125,128.7188 2337.3125,130.8125 Q2337.3125,132.9063 2338,133.9844 Q2338.6875,135.0469 2340.0313,135.0469 Q2340.6563,135.0469 2341.25,134.7813 Q2341.8438,134.5 2342.4688,133.9219 L2342.4688,136.6406 Z " fill="#000000"/><text fill="#000000" font-family="sans-serif" font-size="14" lengthAdjust="spacing" textLength="67.0332" x="2353.5" y="135.8467">Actuation</text><line style="stroke:#181818;stroke-width:0.5;" x1="2325.5" x2="2422.5332" y1="147" y2="147"/><line style="stroke:#181818;stroke-width:0.5;" x1="2325.5" x2="2422.5332" y1="155" y2="155"/></g><!--class Sensor--><g class="entity" data-qualified-name="Sensor" data-source-line="16" id="ent0037"><rect fill="#F1F1F1" height="48" rx="2.5" ry="2.5" style="stroke:#181818;stroke-width:0.5;" width="79.9883" x="2195" y="223"/><ellipse cx="2210" cy="239" fill="#ADD1B2" rx="11" ry="11" style="stroke:#181818;stroke-width:1;"/><path d="M2212.9688,244.6406 Q2212.3906,244.9375 2211.75,245.0781 Q2211.1094,245.2344 2210.4063,245.2344 Q2207.9063,245.2344 2206.5781,243.5938 Q2205.2656,241.9375 2205.2656,238.8125 Q2205.2656,235.6875 2206.5781,234.0313 Q2207.9063,232.375 2210.4063,232.375 Q2211.1094,232.375 2211.75,232.5313 Q2212.4063,232.6875 2212.9688,232.9844 L2212.9688,235.7031 Q2212.3438,235.125 2211.75,234.8594 Q2211.1563,234.5781 2210.5313,234.5781 Q2209.1875,234.5781 2208.5,235.6563 Q2207.8125,236.7188 2207.8125,238.8125 Q2207.8125,240.9063 2208.5,241.9844 Q2209.1875,243.0469 2210.5313,243.0469 Q2211.1563,243.0469 2211.75,242.7813 Q2212.3438,242.5 2212.9688,241.9219 L2212.9688,244.6406 Z " fill="#000000"/><text fill="#000000" font-family="sans-serif" font-size="14" lengthAdjust="spacing" textLength="47.9883" x="2224" y="243.8467">Sensor</text><line style="stroke:#181818;stroke-width:0.5;" x1="2196" x2="2273.9883" y1="255" y2="255"/><line style="stroke:#181818;stroke-width:0.5;" x1="2196" x2="2273.9883" y1="263" y2="263"/></g><!--class ActuationCollection--><g class="entity" data-qualified-name="ActuationCollection" data-source-line="17" id="ent0039"><rect fill="#F1F1F1" height="48" rx="2.5" ry="2.5" style="stroke:#181818;stroke-width:0.5;" width="168.2813" x="2812" y="115"/><ellipse cx="2827" cy="131" fill="#ADD1B2" rx="11" ry="11" style="stroke:#181818;stroke-width:1;"/><path d="M2829.9688,136.6406 Q2829.3906,136.9375 2828.75,137.0781 Q2828.1094,137.2344 2827.4063,137.2344 Q2824.9063,137.2344 2823.5781,135.5938 Q2822.2656,133.9375 2822.2656,130.8125 Q2822.2656,127.6875 2823.5781,126.0313 Q2824.9063,124.375 2827.4063,124.375 Q2828.1094,124.375 2828.75,124.5313 Q2829.4063,124.6875 2829.9688,124.9844 L2829.9688,127.7031 Q2829.3438,127.125 2828.75,126.8594 Q2828.1563,126.5781 2827.5313,126.5781 Q2826.1875,126.5781 2825.5,127.6563 Q2824.8125,128.7188 2824.8125,130.8125 Q2824.8125,132.9063 2825.5,133.9844 Q2826.1875,135.0469 2827.5313,135.0469 Q2828.1563,135.0469 2828.75,134.7813 Q2829.3438,134.5 2829.9688,133.9219 L2829.9688,136.6406 Z " fill="#000000"/><text fill="#000000" font-family="sans-serif" font-size="14" lengthAdjust="spacing" textLength="136.2813" x="2841" y="135.8467">ActuationCollection</text><line style="stroke:#181818;stroke-width:0.5;" x1="2813" x2="2979.2813" y1="147" y2="147"/><line style="stroke:#181818;stroke-width:0.5;" x1="2813" x2="2979.2813" y1="155" y2="155"/></g><!--class ObservationCollection--><g class="entity" data-qualified-name="ObservationCollection" data-source-line="18" id="ent0041"><rect fill="#F1F1F1" height="48" rx="2.5" ry="2.5" style="stroke:#181818;stroke-width:0.5;" width="186.499" x="3015" y="115"/><ellipse cx="3030" cy="131" fill="#ADD1B2" rx="11" ry="11" style="stroke:#181818;stroke-width:1;"/><path d="M3032.9688,136.6406 Q3032.3906,136.9375 3031.75,137.0781 Q3031.1094,137.2344 3030.4063,137.2344 Q3027.9063,137.2344 3026.5781,135.5938 Q3025.2656,133.9375 3025.2656,130.8125 Q3025.2656,127.6875 3026.5781,126.0313 Q3027.9063,124.375 3030.4063,124.375 Q3031.1094,124.375 3031.75,124.5313 Q3032.4063,124.6875 3032.9688,124.9844 L3032.9688,127.7031 Q3032.3438,127.125 3031.75,126.8594 Q3031.1563,126.5781 3030.5313,126.5781 Q3029.1875,126.5781 3028.5,127.6563 Q3027.8125,128.7188 3027.8125,130.8125 Q3027.8125,132.9063 3028.5,133.9844 Q3029.1875,135.0469 3030.5313,135.0469 Q3031.1563,135.0469 3031.75,134.7813 Q3032.3438,134.5 3032.9688,133.9219 L3032.9688,136.6406 Z " fill="#000000"/><text fill="#000000" font-family="sans-serif" font-size="14" lengthAdjust="spacing" textLength="154.499" x="3044" y="135.8467">ObservationCollection</text><line style="stroke:#181818;stroke-width:0.5;" x1="3016" x2="3200.499" y1="147" y2="147"/><line style="stroke:#181818;stroke-width:0.5;" x1="3016" x2="3200.499" y1="155" y2="155"/></g><!--class Observation--><g class="entity" data-qualified-name="Observation" data-source-line="19" id="ent0043"><rect fill="#F1F1F1" height="48" rx="2.5" ry="2.5" style="stroke:#181818;stroke-width:0.5;" width="117.251" x="2458.5" y="115"/><ellipse cx="2473.5" cy="131" fill="#ADD1B2" rx="11" ry="11" style="stroke:#181818;stroke-width:1;"/><path d="M2476.4688,136.6406 Q2475.8906,136.9375 2475.25,137.0781 Q2474.6094,137.2344 2473.9063,137.2344 Q2471.4063,137.2344 2470.0781,135.5938 Q2468.7656,133.9375 2468.7656,130.8125 Q2468.7656,127.6875 2470.0781,126.0313 Q2471.4063,124.375 2473.9063,124.375 Q2474.6094,124.375 2475.25,124.5313 Q2475.9063,124.6875 2476.4688,124.9844 L2476.4688,127.7031 Q2475.8438,127.125 2475.25,126.8594 Q2474.6563,126.5781 2474.0313,126.5781 Q2472.6875,126.5781 2472,127.6563 Q2471.3125,128.7188 2471.3125,130.8125 Q2471.3125,132.9063 2472,133.9844 Q2472.6875,135.0469 2474.0313,135.0469 Q2474.6563,135.0469 2475.25,134.7813 Q2475.8438,134.5 2476.4688,133.9219 L2476.4688,136.6406 Z " fill="#000000"/><text fill="#000000" font-family="sans-serif" font-size="14" lengthAdjust="spacing" textLength="85.251" x="2487.5" y="135.8467">Observation</text><line style="stroke:#181818;stroke-width:0.5;" x1="2459.5" x2="2574.751" y1="147" y2="147"/><line style="stroke:#181818;stroke-width:0.5;" x1="2459.5" x2="2574.751" y1="155" y2="155"/></g><!--class SampleCollection--><g class="entity" data-qualified-name="SampleCollection" data-source-line="20" id="ent0045"><rect fill="#F1F1F1" height="48" rx="2.5" ry="2.5" style="stroke:#181818;stroke-width:0.5;" width="153.7412" x="8" y="7"/><ellipse cx="23" cy="23" fill="#ADD1B2" rx="11" ry="11" style="stroke:#181818;stroke-width:1;"/><path d="M25.9688,28.6406 Q25.3906,28.9375 24.75,29.0781 Q24.1094,29.2344 23.4063,29.2344 Q20.9063,29.2344 19.5781,27.5938 Q18.2656,25.9375 18.2656,22.8125 Q18.2656,19.6875 19.5781,18.0313 Q20.9063,16.375 23.4063,16.375 Q24.1094,16.375 24.75,16.5313 Q25.4063,16.6875 25.9688,16.9844 L25.9688,19.7031 Q25.3438,19.125 24.75,18.8594 Q24.1563,18.5781 23.5313,18.5781 Q22.1875,18.5781 21.5,19.6563 Q20.8125,20.7188 20.8125,22.8125 Q20.8125,24.9063 21.5,25.9844 Q22.1875,27.0469 23.5313,27.0469 Q24.1563,27.0469 24.75,26.7813 Q25.3438,26.5 25.9688,25.9219 L25.9688,28.6406 Z " fill="#000000"/><text fill="#000000" font-family="sans-serif" font-size="14" lengthAdjust="spacing" textLength="121.7412" x="37" y="27.8467">SampleCollection</text><line style="stroke:#181818;stroke-width:0.5;" x1="9" x2="160.7412" y1="39" y2="39"/><line style="stroke:#181818;stroke-width:0.5;" x1="9" x2="160.7412" y1="47" y2="47"/></g><!--class Deployment--><g class="entity" data-qualified-name="Deployment" data-source-line="22" id="ent0046"><rect fill="#F1F1F1" height="48" rx="2.5" ry="2.5" style="stroke:#181818;stroke-width:0.5;" width="117.6338" x="197" y="7"/><ellipse cx="212" cy="23" fill="#ADD1B2" rx="11" ry="11" style="stroke:#181818;stroke-width:1;"/><path d="M214.9688,28.6406 Q214.3906,28.9375 213.75,29.0781 Q213.1094,29.2344 212.4063,29.2344 Q209.9063,29.2344 208.5781,27.5938 Q207.2656,25.9375 207.2656,22.8125 Q207.2656,19.6875 208.5781,18.0313 Q209.9063,16.375 212.4063,16.375 Q213.1094,16.375 213.75,16.5313 Q214.4063,16.6875 214.9688,16.9844 L214.9688,19.7031 Q214.3438,19.125 213.75,18.8594 Q213.1563,18.5781 212.5313,18.5781 Q211.1875,18.5781 210.5,19.6563 Q209.8125,20.7188 209.8125,22.8125 Q209.8125,24.9063 210.5,25.9844 Q211.1875,27.0469 212.5313,27.0469 Q213.1563,27.0469 213.75,26.7813 Q214.3438,26.5 214.9688,25.9219 L214.9688,28.6406 Z " fill="#000000"/><text fill="#000000" font-family="sans-serif" font-size="14" lengthAdjust="spacing" textLength="85.6338" x="226" y="27.8467">Deployment</text><line style="stroke:#181818;stroke-width:0.5;" x1="198" x2="313.6338" y1="39" y2="39"/><line style="stroke:#181818;stroke-width:0.5;" x1="198" x2="313.6338" y1="47" y2="47"/></g><!--class Output--><g class="entity" data-qualified-name="Output" data-source-line="25" id="ent0047"><rect fill="#F1F1F1" height="48" rx="2.5" ry="2.5" style="stroke:#181818;stroke-width:0.5;" width="80.6309" x="350.5" y="7"/><ellipse cx="365.5" cy="23" fill="#ADD1B2" rx="11" ry="11" style="stroke:#181818;stroke-width:1;"/><path d="M368.4688,28.6406 Q367.8906,28.9375 367.25,29.0781 Q366.6094,29.2344 365.9063,29.2344 Q363.4063,29.2344 362.0781,27.5938 Q360.7656,25.9375 360.7656,22.8125 Q360.7656,19.6875 362.0781,18.0313 Q363.4063,16.375 365.9063,16.375 Q366.6094,16.375 367.25,16.5313 Q367.9063,16.6875 368.4688,16.9844 L368.4688,19.7031 Q367.8438,19.125 367.25,18.8594 Q366.6563,18.5781 366.0313,18.5781 Q364.6875,18.5781 364,19.6563 Q363.3125,20.7188 363.3125,22.8125 Q363.3125,24.9063 364,25.9844 Q364.6875,27.0469 366.0313,27.0469 Q366.6563,27.0469 367.25,26.7813 Q367.8438,26.5 368.4688,25.9219 L368.4688,28.6406 Z " fill="#000000"/><text fill="#000000" font-family="sans-serif" font-size="14" lengthAdjust="spacing" textLength="48.6309" x="379.5" y="27.8467">Output</text><line style="stroke:#181818;stroke-width:0.5;" x1="351.5" x2="430.1309" y1="39" y2="39"/><line style="stroke:#181818;stroke-width:0.5;" x1="351.5" x2="430.1309" y1="47" y2="47"/></g><!--class Stimulus--><g class="entity" data-qualified-name="Stimulus" data-source-line="26" id="ent0048"><rect fill="#F1F1F1" height="48" rx="2.5" ry="2.5" style="stroke:#181818;stroke-width:0.5;" width="92.833" x="38.5" y="115"/><ellipse cx="53.5" cy="131" fill="#ADD1B2" rx="11" ry="11" style="stroke:#181818;stroke-width:1;"/><path d="M56.4688,136.6406 Q55.8906,136.9375 55.25,137.0781 Q54.6094,137.2344 53.9063,137.2344 Q51.4063,137.2344 50.0781,135.5938 Q48.7656,133.9375 48.7656,130.8125 Q48.7656,127.6875 50.0781,126.0313 Q51.4063,124.375 53.9063,124.375 Q54.6094,124.375 55.25,124.5313 Q55.9063,124.6875 56.4688,124.9844 L56.4688,127.7031 Q55.8438,127.125 55.25,126.8594 Q54.6563,126.5781 54.0313,126.5781 Q52.6875,126.5781 52,127.6563 Q51.3125,128.7188 51.3125,130.8125 Q51.3125,132.9063 52,133.9844 Q52.6875,135.0469 54.0313,135.0469 Q54.6563,135.0469 55.25,134.7813 Q55.8438,134.5 56.4688,133.9219 L56.4688,136.6406 Z " fill="#000000"/><text fill="#000000" font-family="sans-serif" font-size="14" lengthAdjust="spacing" textLength="60.833" x="67.5" y="135.8467">Stimulus</text><line style="stroke:#181818;stroke-width:0.5;" x1="39.5" x2="130.333" y1="147" y2="147"/><line style="stroke:#181818;stroke-width:0.5;" x1="39.5" x2="130.333" y1="155" y2="155"/></g><!--class Input--><g class="entity" data-qualified-name="Input" data-source-line="27" id="ent0049"><rect fill="#F1F1F1" height="48" rx="2.5" ry="2.5" style="stroke:#181818;stroke-width:0.5;" width="68.251" x="167" y="115"/><ellipse cx="182" cy="131" fill="#ADD1B2" rx="11" ry="11" style="stroke:#181818;stroke-width:1;"/><path d="M184.9688,136.6406 Q184.3906,136.9375 183.75,137.0781 Q183.1094,137.2344 182.4063,137.2344 Q179.9063,137.2344 178.5781,135.5938 Q177.2656,133.9375 177.2656,130.8125 Q177.2656,127.6875 178.5781,126.0313 Q179.9063,124.375 182.4063,124.375 Q183.1094,124.375 183.75,124.5313 Q184.4063,124.6875 184.9688,124.9844 L184.9688,127.7031 Q184.3438,127.125 183.75,126.8594 Q183.1563,126.5781 182.5313,126.5781 Q181.1875,126.5781 180.5,127.6563 Q179.8125,128.7188 179.8125,130.8125 Q179.8125,132.9063 180.5,133.9844 Q181.1875,135.0469 182.5313,135.0469 Q183.1563,135.0469 183.75,134.7813 Q184.3438,134.5 184.9688,133.9219 L184.9688,136.6406 Z " fill="#000000"/><text fill="#000000" font-family="sans-serif" font-size="14" lengthAdjust="spacing" textLength="36.251" x="196" y="135.8467">Input</text><line style="stroke:#181818;stroke-width:0.5;" x1="168" x2="234.251" y1="147" y2="147"/><line style="stroke:#181818;stroke-width:0.5;" x1="168" x2="234.251" y1="155" y2="155"/></g><!--class Result--><g class="entity" data-qualified-name="Result" data-source-line="28" id="ent0050"><rect fill="#F1F1F1" height="48" rx="2.5" ry="2.5" style="stroke:#181818;stroke-width:0.5;" width="75.8867" x="270" y="115"/><ellipse cx="285" cy="131" fill="#ADD1B2" rx="11" ry="11" style="stroke:#181818;stroke-width:1;"/><path d="M287.9688,136.6406 Q287.3906,136.9375 286.75,137.0781 Q286.1094,137.2344 285.4063,137.2344 Q282.9063,137.2344 281.5781,135.5938 Q280.2656,133.9375 280.2656,130.8125 Q280.2656,127.6875 281.5781,126.0313 Q282.9063,124.375 285.4063,124.375 Q286.1094,124.375 286.75,124.5313 Q287.4063,124.6875 287.9688,124.9844 L287.9688,127.7031 Q287.3438,127.125 286.75,126.8594 Q286.1563,126.5781 285.5313,126.5781 Q284.1875,126.5781 283.5,127.6563 Q282.8125,128.7188 282.8125,130.8125 Q282.8125,132.9063 283.5,133.9844 Q284.1875,135.0469 285.5313,135.0469 Q286.1563,135.0469 286.75,134.7813 Q287.3438,134.5 287.9688,133.9219 L287.9688,136.6406 Z " fill="#000000"/><text fill="#000000" font-family="sans-serif" font-size="14" lengthAdjust="spacing" textLength="43.8867" x="299" y="135.8467">Result</text><line style="stroke:#181818;stroke-width:0.5;" x1="271" x2="344.8867" y1="147" y2="147"/><line style="stroke:#181818;stroke-width:0.5;" x1="271" x2="344.8867" y1="155" y2="155"/></g><!--class FeatureOfInterest--><g class="entity" data-qualified-name="FeatureOfInterest" data-source-line="30" id="ent0051"><rect fill="#F1F1F1" height="48" rx="2.5" ry="2.5" style="stroke:#181818;stroke-width:0.5;" width="156.1816" x="7" y="223"/><ellipse cx="22" cy="239" fill="#ADD1B2" rx="11" ry="11" style="stroke:#181818;stroke-width:1;"/><path d="M24.9688,244.6406 Q24.3906,244.9375 23.75,245.0781 Q23.1094,245.2344 22.4063,245.2344 Q19.9063,245.2344 18.5781,243.5938 Q17.2656,241.9375 17.2656,238.8125 Q17.2656,235.6875 18.5781,234.0313 Q19.9063,232.375 22.4063,232.375 Q23.1094,232.375 23.75,232.5313 Q24.4063,232.6875 24.9688,232.9844 L24.9688,235.7031 Q24.3438,235.125 23.75,234.8594 Q23.1563,234.5781 22.5313,234.5781 Q21.1875,234.5781 20.5,235.6563 Q19.8125,236.7188 19.8125,238.8125 Q19.8125,240.9063 20.5,241.9844 Q21.1875,243.0469 22.5313,243.0469 Q23.1563,243.0469 23.75,242.7813 Q24.3438,242.5 24.9688,241.9219 L24.9688,244.6406 Z " fill="#000000"/><text fill="#000000" font-family="sans-serif" font-size="14" lengthAdjust="spacing" textLength="124.1816" x="36" y="243.8467">FeatureOfInterest</text><line style="stroke:#181818;stroke-width:0.5;" x1="8" x2="162.1816" y1="255" y2="255"/><line style="stroke:#181818;stroke-width:0.5;" x1="8" x2="162.1816" y1="263" y2="263"/></g><!--reverse link Property to ActuatableProperty--><g class="link" data-entity-1="ent0001" data-entity-2="ent0002" data-link-type="extension" data-source-line="1" id="lnk3"><path codeLine="1" d="M550.6233,66.5368 C529.4733,84.1968 514.19,96.94 492.94,114.68" fill="none" id="Property-backto-ActuatableProperty" style="stroke:#181818;stroke-width:1;"/><polygon fill="none" points="564.44,55,546.7777,61.9312,554.4689,71.1424,564.44,55" style="stroke:#181818;stroke-width:1;stroke-linejoin:miter;stroke-miterlimit:10;"/></g><!--reverse link Sample to MaterialSample--><g class="link" data-entity-1="ent0004" data-entity-2="ent0005" data-link-type="extension" data-source-line="2" id="lnk6"><path codeLine="2" d="M981.3567,64.4445 C952.6067,82.1645 928.35,97.11 899.55,114.86" fill="none" id="Sample-backto-MaterialSample" style="stroke:#181818;stroke-width:1;"/><polygon fill="none" points="996.68,55,978.2086,59.3367,984.5049,69.5522,996.68,55" style="stroke:#181818;stroke-width:1;stroke-linejoin:miter;stroke-miterlimit:10;"/></g><!--reverse link Sample to SpatialSample--><g class="link" data-entity-1="ent0004" data-entity-2="ent0007" data-link-type="extension" data-source-line="3" id="lnk8"><path codeLine="3" d="M1034,73 C1034,90.66 1034,96.94 1034,114.68" fill="none" id="Sample-backto-SpatialSample" style="stroke:#181818;stroke-width:1;"/><polygon fill="none" points="1034,55,1028,73,1040,73,1034,55" style="stroke:#181818;stroke-width:1;stroke-linejoin:miter;stroke-miterlimit:10;"/></g><!--reverse link Sample to StatisticalSample--><g class="link" data-entity-1="ent0004" data-entity-2="ent0009" data-link-type="extension" data-source-line="4" id="lnk10"><path codeLine="4" d="M1088.3276,64.1725 C1118.2476,81.8925 1143.95,97.11 1173.93,114.86" fill="none" id="Sample-backto-StatisticalSample" style="stroke:#181818;stroke-width:1;"/><polygon fill="none" points="1072.84,55,1085.2701,69.335,1091.3851,59.0099,1072.84,55" style="stroke:#181818;stroke-width:1;stroke-linejoin:miter;stroke-miterlimit:10;"/></g><!--reverse link Property to ObservableProperty--><g class="link" data-entity-1="ent0001" data-entity-2="ent0011" data-link-type="extension" data-source-line="5" id="lnk12"><path codeLine="5" d="M619.5909,69.496 C632.5909,87.156 639.79,96.94 652.84,114.68" fill="none" id="Property-backto-ObservableProperty" style="stroke:#181818;stroke-width:1;"/><polygon fill="none" points="608.92,55,614.7589,73.0529,624.4228,65.939,608.92,55" style="stroke:#181818;stroke-width:1;stroke-linejoin:miter;stroke-miterlimit:10;"/></g><!--reverse link Procedure to ActuatingProcedure--><g class="link" data-entity-1="ent0013" data-entity-2="ent0014" data-link-type="extension" data-source-line="6" id="lnk15"><path codeLine="6" d="M1557.8326,63.1732 C1523.0626,80.8932 1491.24,97.11 1456.4,114.86" fill="none" id="Procedure-backto-ActuatingProcedure" style="stroke:#181818;stroke-width:1;"/><polygon fill="none" points="1573.87,55,1555.1082,57.8274,1560.557,68.519,1573.87,55" style="stroke:#181818;stroke-width:1;stroke-linejoin:miter;stroke-miterlimit:10;"/></g><!--reverse link Procedure to ObservingProcedure--><g class="link" data-entity-1="ent0013" data-entity-2="ent0016" data-link-type="extension" data-source-line="7" id="lnk17"><path codeLine="7" d="M1619,73 C1619,90.66 1619,96.94 1619,114.68" fill="none" id="Procedure-backto-ObservingProcedure" style="stroke:#181818;stroke-width:1;"/><polygon fill="none" points="1619,55,1613,73,1625,73,1619,55" style="stroke:#181818;stroke-width:1;stroke-linejoin:miter;stroke-miterlimit:10;"/></g><!--reverse link Procedure to SamplingProcedure--><g class="link" data-entity-1="ent0013" data-entity-2="ent0018" data-link-type="extension" data-source-line="8" id="lnk19"><path codeLine="8" d="M1679.9411,63.205 C1714.5411,80.925 1746.15,97.11 1780.81,114.86" fill="none" id="Procedure-backto-SamplingProcedure" style="stroke:#181818;stroke-width:1;"/><polygon fill="none" points="1663.92,55,1677.2061,68.5454,1682.6762,57.8647,1663.92,55" style="stroke:#181818;stroke-width:1;stroke-linejoin:miter;stroke-miterlimit:10;"/></g><!--reverse link Asset to Platform--><g class="link" data-entity-1="ent0020" data-entity-2="ent0021" data-link-type="extension" data-source-line="9" id="lnk22"><path codeLine="9" d="M2029.7839,70.6022 C2019.6239,88.2622 2014.63,96.94 2004.42,114.68" fill="none" id="Asset-backto-Platform" style="stroke:#181818;stroke-width:1;"/><polygon fill="none" points="2038.76,55,2024.5831,67.6102,2034.9846,73.5943,2038.76,55" style="stroke:#181818;stroke-width:1;stroke-linejoin:miter;stroke-miterlimit:10;"/></g><!--reverse link System to Sampler--><g class="link" data-entity-1="ent0023" data-entity-2="ent0024" data-link-type="extension" data-source-line="10" id="lnk25"><path codeLine="10" d="M2072.8865,174.5884 C2051.8965,192.2484 2036.81,204.94 2015.72,222.68" fill="none" id="System-backto-Sampler" style="stroke:#181818;stroke-width:1;"/><polygon fill="none" points="2086.66,163,2069.0237,169.9972,2076.7493,179.1795,2086.66,163" style="stroke:#181818;stroke-width:1;stroke-linejoin:miter;stroke-miterlimit:10;"/></g><!--reverse link System to Actuator--><g class="link" data-entity-1="ent0023" data-entity-2="ent0026" data-link-type="extension" data-source-line="11" id="lnk27"><path codeLine="11" d="M2114,181 C2114,198.66 2114,204.94 2114,222.68" fill="none" id="System-backto-Actuator" style="stroke:#181818;stroke-width:1;"/><polygon fill="none" points="2114,163,2108,181,2120,181,2114,163" style="stroke:#181818;stroke-width:1;stroke-linejoin:miter;stroke-miterlimit:10;"/></g><!--reverse link Asset to System--><g class="link" data-entity-1="ent0020" data-entity-2="ent0023" data-link-type="extension" data-source-line="12" id="lnk28"><path codeLine="12" d="M2074.5383,70.5372 C2084.8683,88.1972 2089.98,96.94 2100.36,114.68" fill="none" id="Asset-backto-System" style="stroke:#181818;stroke-width:1;"/><polygon fill="none" points="2065.45,55,2069.3592,73.5666,2079.7173,67.5077,2065.45,55" style="stroke:#181818;stroke-width:1;stroke-linejoin:miter;stroke-miterlimit:10;"/></g><!--reverse link Execution to Sampling--><g class="link" data-entity-1="ent0029" data-entity-2="ent0030" data-link-type="extension" data-source-line="13" id="lnk31"><path codeLine="13" d="M2330.8041,66.1688 C2308.4841,83.8288 2291.91,96.94 2269.48,114.68" fill="none" id="Execution-backto-Sampling" style="stroke:#181818;stroke-width:1;"/><polygon fill="none" points="2344.92,55,2327.0812,61.4635,2334.527,70.8741,2344.92,55" style="stroke:#181818;stroke-width:1;stroke-linejoin:miter;stroke-miterlimit:10;"/></g><!--reverse link ExecutionCollection to SamplingCollection--><g class="link" data-entity-1="ent0032" data-entity-2="ent0033" data-link-type="extension" data-source-line="14" id="lnk34"><path codeLine="14" d="M2836.231,63.3636 C2802.461,81.0836 2771.93,97.11 2738.09,114.86" fill="none" id="ExecutionCollection-backto-SamplingCollection" style="stroke:#181818;stroke-width:1;"/><polygon fill="none" points="2852.17,55,2833.4432,58.0506,2839.0189,68.6766,2852.17,55" style="stroke:#181818;stroke-width:1;stroke-linejoin:miter;stroke-miterlimit:10;"/></g><!--reverse link Execution to Actuation--><g class="link" data-entity-1="ent0029" data-entity-2="ent0035" data-link-type="extension" data-source-line="15" id="lnk36"><path codeLine="15" d="M2374,73 C2374,90.66 2374,96.94 2374,114.68" fill="none" id="Execution-backto-Actuation" style="stroke:#181818;stroke-width:1;"/><polygon fill="none" points="2374,55,2368,73,2380,73,2374,55" style="stroke:#181818;stroke-width:1;stroke-linejoin:miter;stroke-miterlimit:10;"/></g><!--reverse link System to Sensor--><g class="link" data-entity-1="ent0023" data-entity-2="ent0037" data-link-type="extension" data-source-line="16" id="lnk38"><path codeLine="16" d="M2153.7968,174.864 C2173.9468,192.524 2188.13,204.94 2208.38,222.68" fill="none" id="System-backto-Sensor" style="stroke:#181818;stroke-width:1;"/><polygon fill="none" points="2140.26,163,2149.8421,179.3763,2157.7515,170.3518,2140.26,163" style="stroke:#181818;stroke-width:1;stroke-linejoin:miter;stroke-miterlimit:10;"/></g><!--reverse link ExecutionCollection to ActuationCollection--><g class="link" data-entity-1="ent0032" data-entity-2="ent0039" data-link-type="extension" data-source-line="17" id="lnk40"><path codeLine="17" d="M2896,73 C2896,90.66 2896,96.94 2896,114.68" fill="none" id="ExecutionCollection-backto-ActuationCollection" style="stroke:#181818;stroke-width:1;"/><polygon fill="none" points="2896,55,2890,73,2902,73,2896,55" style="stroke:#181818;stroke-width:1;stroke-linejoin:miter;stroke-miterlimit:10;"/></g><!--reverse link ExecutionCollection to ObservationCollection--><g class="link" data-entity-1="ent0032" data-entity-2="ent0041" data-link-type="extension" data-source-line="18" id="lnk42"><path codeLine="18" d="M2958.0997,63.0498 C2993.5397,80.7698 3026.22,97.11 3061.72,114.86" fill="none" id="ExecutionCollection-backto-ObservationCollection" style="stroke:#181818;stroke-width:1;"/><polygon fill="none" points="2942,55,2955.4164,68.4164,2960.783,57.6833,2942,55" style="stroke:#181818;stroke-width:1;stroke-linejoin:miter;stroke-miterlimit:10;"/></g><!--reverse link Execution to Observation--><g class="link" data-entity-1="ent0029" data-entity-2="ent0043" data-link-type="extension" data-source-line="19" id="lnk44"><path codeLine="19" d="M2419.4895,65.7202 C2443.3095,83.3802 2461.61,96.94 2485.54,114.68" fill="none" id="Execution-backto-Observation" style="stroke:#181818;stroke-width:1;"/><polygon fill="none" points="2405.03,55,2415.9161,70.54,2423.0629,60.9004,2405.03,55" style="stroke:#181818;stroke-width:1;stroke-linejoin:miter;stroke-miterlimit:10;"/></g><?plantuml-src VP9BRiCW48RtFaKka1jq4xMfb4Lagpx1X4ugfE4XPeXYgOSlAjGsJkYE-Rz_7WmCmNaCCkrUllVxtK59184BuL3qRWJZ2JC-Ws3GG5chqEX16aGIOT5gfaFLixymXblLCnqKViQ0wwcq_PhrhIFN-C_nsxeo79XHCXm8vEg2wSQ91Sqg0qEbvKbSM2TdtXtlgA9eP-j-Y_xgY50zEXPzMwFSEu5gBhIS9cZMdREU5TwQo_9RzWTJfmYOosvM6KNEgyZ16tfoaq4hHPYVjy7xA3x-1QDe4obo2KzsGH_8aHg-TmH9ZzjVJpPzLMJv0G00?></g></svg>