<svg xmlns="http://www.w3.org/2000/svg" xmlns:xlink="http://www.w3.org/1999/xlink" contentStyleType="text/css" data-diagram-type="CLASS" height="286px" preserveAspectRatio="none" style="width:3141px;height:286px;background:#FFFFFF;" version="1.1" viewBox="0 0 3141 286" width="3141px" zoomAndPan="magnify"><?plantuml 1.2026.6?><defs/><g><!--class Property--><g class="entity" data-qualified-name="Property" data-source-line="1" id="ent0001"><rect fill="#F1F1F1" height="48" rx="2.5" ry="2.5" style="stroke:#181818;stroke-width:0.5;" width="91.7939" x="524" y="7"/><ellipse cx="539" cy="23" fill="#ADD1B2" rx="11" ry="11" style="stroke:#181818;stroke-width:1;"/><path d="M541.9688,28.6406 Q541.3906,28.9375 540.75,29.0781 Q540.1094,29.2344 539.4063,29.2344 Q536.9063,29.2344 535.5781,27.5938 Q534.2656,25.9375 534.2656,22.8125 Q534.2656,19.6875 535.5781,18.0313 Q536.9063,16.375 539.4063,16.375 Q540.1094,16.375 540.75,16.5313 Q541.4063,16.6875 541.9688,16.9844 L541.9688,19.7031 Q541.3438,19.125 540.75,18.8594 Q540.1563,18.5781 539.5313,18.5781 Q538.1875,18.5781 537.5,19.6563 Q536.8125,20.7188 536.8125,22.8125 Q536.8125,24.9063 537.5,25.9844 Q538.1875,27.0469 539.5313,27.0469 Q540.1563,27.0469 540.75,26.7813 Q541.3438,26.5 541.9688,25.9219 L541.9688,28.6406 Z " fill="#000000"/><text fill="#000000" font-family="sans-serif" font-size="14" lengthAdjust="spacing" textLength="59.7939" x="553" y="27.8467">Property</text><line style="stroke:#181818;stroke-width:0.5;" x1="525" x2="614.7939" y1="39" y2="39"/><line style="stroke:#181818;stroke-width:0.5;" x1="525" x2="614.7939" y1="47" y2="47"/></g><!--class ActuatableProperty--><g class="entity" data-qualified-name="ActuatableProperty" data-source-line="1" id="ent0002"><rect fill="#F1F1F1" height="48" rx="2.5" ry="2.5" style="stroke:#181818;stroke-width:0.5;" width="167.4678" x="306.5" y="115"/><ellipse cx="321.5" cy="131" fill="#ADD1B2" rx="11" ry="11" style="stroke:#181818;stroke-width:1;"/><path d="M324.4688,136.6406 Q323.8906,136.9375 323.25,137.0781 Q322.6094,137.2344 321.9063,137.2344 Q319.4063,137.2344 318.0781,135.5938 Q316.7656,133.9375 316.7656,130.8125 Q316.7656,127.6875 318.0781,126.0313 Q319.4063,124.375 321.9063,124.375 Q322.6094,124.375 323.25,124.5313 Q323.9063,124.6875 324.4688,124.9844 L324.4688,127.7031 Q323.8438,127.125 323.25,126.8594 Q322.6563,126.5781 322.0313,126.5781 Q320.6875,126.5781 320,127.6563 Q319.3125,128.7188 319.3125,130.8125 Q319.3125,132.9063 320,133.9844 Q320.6875,135.0469 322.0313,135.0469 Q322.6563,135.0469 323.25,134.7813 Q323.8438,134.5 324.4688,133.9219 L324.4688,136.6406 Z " fill="#000000"/><text fill="#000000" font-family="sans-serif" font-size="14" lengthAdjust="spacing" textLength="135.4678" x="335.5" y="135.8467">ActuatableProperty</text><line style="stroke:#181818;stroke-width:0.5;" x1="307.5" x2="472.9678" y1="147" y2="147"/><line style="stroke:#181818;stroke-width:0.5;" x1="307.5" x2="472.9678" y1="155" y2="155"/></g><!--class Sample--><g class="entity" data-qualified-name="Sample" data-source-line="2" id="ent0004"><rect fill="#F1F1F1" height="48" rx="2.5" ry="2.5" style="stroke:#181818;stroke-width:0.5;" width="84.4932" x="917" y="7"/><ellipse cx="932" cy="23" fill="#ADD1B2" rx="11" ry="11" style="stroke:#181818;stroke-width:1;"/><path d="M934.9688,28.6406 Q934.3906,28.9375 933.75,29.0781 Q933.1094,29.2344 932.4063,29.2344 Q929.9063,29.2344 928.5781,27.5938 Q927.2656,25.9375 927.2656,22.8125 Q927.2656,19.6875 928.5781,18.0313 Q929.9063,16.375 932.4063,16.375 Q933.1094,16.375 933.75,16.5313 Q934.4063,16.6875 934.9688,16.9844 L934.9688,19.7031 Q934.3438,19.125 933.75,18.8594 Q933.1563,18.5781 932.5313,18.5781 Q931.1875,18.5781 930.5,19.6563 Q929.8125,20.7188 929.8125,22.8125 Q929.8125,24.9063 930.5,25.9844 Q931.1875,27.0469 932.5313,27.0469 Q933.1563,27.0469 933.75,26.7813 Q934.3438,26.5 934.9688,25.9219 L934.9688,28.6406 Z " fill="#000000"/><text fill="#000000" font-family="sans-serif" font-size="14" lengthAdjust="spacing" textLength="52.4932" x="946" y="27.8467">Sample</text><line style="stroke:#181818;stroke-width:0.5;" x1="918" x2="1000.4932" y1="39" y2="39"/><line style="stroke:#181818;stroke-width:0.5;" x1="918" x2="1000.4932" y1="47" y2="47"/></g><!--class MaterialSample--><g class="entity" data-qualified-name="MaterialSample" data-source-line="2" id="ent0005"><rect fill="#F1F1F1" height="48" rx="2.5" ry="2.5" style="stroke:#181818;stroke-width:0.5;" width="141.3682" x="716.5" y="115"/><ellipse cx="731.5" cy="131" fill="#ADD1B2" rx="11" ry="11" style="stroke:#181818;stroke-width:1;"/><path d="M734.4688,136.6406 Q733.8906,136.9375 733.25,137.0781 Q732.6094,137.2344 731.9063,137.2344 Q729.4063,137.2344 728.0781,135.5938 Q726.7656,133.9375 726.7656,130.8125 Q726.7656,127.6875 728.0781,126.0313 Q729.4063,124.375 731.9063,124.375 Q732.6094,124.375 733.25,124.5313 Q733.9063,124.6875 734.4688,124.9844 L734.4688,127.7031 Q733.8438,127.125 733.25,126.8594 Q732.6563,126.5781 732.0313,126.5781 Q730.6875,126.5781 730,127.6563 Q729.3125,128.7188 729.3125,130.8125 Q729.3125,132.9063 730,133.9844 Q730.6875,135.0469 732.0313,135.0469 Q732.6563,135.0469 733.25,134.7813 Q733.8438,134.5 734.4688,133.9219 L734.4688,136.6406 Z " fill="#000000"/><text fill="#000000" font-family="sans-serif" font-size="14" lengthAdjust="spacing" textLength="109.3682" x="745.5" y="135.8467">MaterialSample</text><line style="stroke:#181818;stroke-width:0.5;" x1="717.5" x2="856.8682" y1="147" y2="147"/><line style="stroke:#181818;stroke-width:0.5;" x1="717.5" x2="856.8682" y1="155" y2="155"/></g><!--class ObservableProperty--><g class="entity" data-qualified-name="ObservableProperty" data-source-line="3" id="ent0007"><rect fill="#F1F1F1" height="48" rx="2.5" ry="2.5" style="stroke:#181818;stroke-width:0.5;" width="171.6172" x="509" y="115"/><ellipse cx="524" cy="131" fill="#ADD1B2" rx="11" ry="11" style="stroke:#181818;stroke-width:1;"/><path d="M526.9688,136.6406 Q526.3906,136.9375 525.75,137.0781 Q525.1094,137.2344 524.4063,137.2344 Q521.9063,137.2344 520.5781,135.5938 Q519.2656,133.9375 519.2656,130.8125 Q519.2656,127.6875 520.5781,126.0313 Q521.9063,124.375 524.4063,124.375 Q525.1094,124.375 525.75,124.5313 Q526.4063,124.6875 526.9688,124.9844 L526.9688,127.7031 Q526.3438,127.125 525.75,126.8594 Q525.1563,126.5781 524.5313,126.5781 Q523.1875,126.5781 522.5,127.6563 Q521.8125,128.7188 521.8125,130.8125 Q521.8125,132.9063 522.5,133.9844 Q523.1875,135.0469 524.5313,135.0469 Q525.1563,135.0469 525.75,134.7813 Q526.3438,134.5 526.9688,133.9219 L526.9688,136.6406 Z " fill="#000000"/><text fill="#000000" font-family="sans-serif" font-size="14" lengthAdjust="spacing" textLength="139.6172" x="538" y="135.8467">ObservableProperty</text><line style="stroke:#181818;stroke-width:0.5;" x1="510" x2="679.6172" y1="147" y2="147"/><line style="stroke:#181818;stroke-width:0.5;" x1="510" x2="679.6172" y1="155" y2="155"/></g><!--class SpatialSample--><g class="entity" data-qualified-name="SpatialSample" data-source-line="4" id="ent0009"><rect fill="#F1F1F1" height="48" rx="2.5" ry="2.5" style="stroke:#181818;stroke-width:0.5;" width="132.6934" x="892.5" y="115"/><ellipse cx="907.5" cy="131" fill="#ADD1B2" rx="11" ry="11" style="stroke:#181818;stroke-width:1;"/><path d="M910.4688,136.6406 Q909.8906,136.9375 909.25,137.0781 Q908.6094,137.2344 907.9063,137.2344 Q905.4063,137.2344 904.0781,135.5938 Q902.7656,133.9375 902.7656,130.8125 Q902.7656,127.6875 904.0781,126.0313 Q905.4063,124.375 907.9063,124.375 Q908.6094,124.375 909.25,124.5313 Q909.9063,124.6875 910.4688,124.9844 L910.4688,127.7031 Q909.8438,127.125 909.25,126.8594 Q908.6563,126.5781 908.0313,126.5781 Q906.6875,126.5781 906,127.6563 Q905.3125,128.7188 905.3125,130.8125 Q905.3125,132.9063 906,133.9844 Q906.6875,135.0469 908.0313,135.0469 Q908.6563,135.0469 909.25,134.7813 Q909.8438,134.5 910.4688,133.9219 L910.4688,136.6406 Z " fill="#000000"/><text fill="#000000" font-family="sans-serif" font-size="14" lengthAdjust="spacing" textLength="100.6934" x="921.5" y="135.8467">SpatialSample</text><line style="stroke:#181818;stroke-width:0.5;" x1="893.5" x2="1024.1934" y1="147" y2="147"/><line style="stroke:#181818;stroke-width:0.5;" x1="893.5" x2="1024.1934" y1="155" y2="155"/></g><!--class StatisticalSample--><g class="entity" data-qualified-name="StatisticalSample" data-source-line="5" id="ent0011"><rect fill="#F1F1F1" height="48" rx="2.5" ry="2.5" style="stroke:#181818;stroke-width:0.5;" width="153.666" x="1061" y="115"/><ellipse cx="1076" cy="131" fill="#ADD1B2" rx="11" ry="11" style="stroke:#181818;stroke-width:1;"/><path d="M1078.9688,136.6406 Q1078.3906,136.9375 1077.75,137.0781 Q1077.1094,137.2344 1076.4063,137.2344 Q1073.9063,137.2344 1072.5781,135.5938 Q1071.2656,133.9375 1071.2656,130.8125 Q1071.2656,127.6875 1072.5781,126.0313 Q1073.9063,124.375 1076.4063,124.375 Q1077.1094,124.375 1077.75,124.5313 Q1078.4063,124.6875 1078.9688,124.9844 L1078.9688,127.7031 Q1078.3438,127.125 1077.75,126.8594 Q1077.1563,126.5781 1076.5313,126.5781 Q1075.1875,126.5781 1074.5,127.6563 Q1073.8125,128.7188 1073.8125,130.8125 Q1073.8125,132.9063 1074.5,133.9844 Q1075.1875,135.0469 1076.5313,135.0469 Q1077.1563,135.0469 1077.75,134.7813 Q1078.3438,134.5 1078.9688,133.9219 L1078.9688,136.6406 Z " fill="#000000"/><text fill="#000000" font-family="sans-serif" font-size="14" lengthAdjust="spacing" textLength="121.666" x="1090" y="135.8467">StatisticalSample</text><line style="stroke:#181818;stroke-width:0.5;" x1="1062" x2="1213.666" y1="147" y2="147"/><line style="stroke:#181818;stroke-width:0.5;" x1="1062" x2="1213.666" y1="155" y2="155"/></g><!--class Procedure--><g class="entity" data-qualified-name="Procedure" data-source-line="6" id="ent0013"><rect fill="#F1F1F1" height="48" rx="2.5" ry="2.5" style="stroke:#181818;stroke-width:0.5;" width="103.2031" x="1492.5" y="7"/><ellipse cx="1507.5" cy="23" fill="#ADD1B2" rx="11" ry="11" style="stroke:#181818;stroke-width:1;"/><path d="M1510.4688,28.6406 Q1509.8906,28.9375 1509.25,29.0781 Q1508.6094,29.2344 1507.9063,29.2344 Q1505.4063,29.2344 1504.0781,27.5938 Q1502.7656,25.9375 1502.7656,22.8125 Q1502.7656,19.6875 1504.0781,18.0313 Q1505.4063,16.375 1507.9063,16.375 Q1508.6094,16.375 1509.25,16.5313 Q1509.9063,16.6875 1510.4688,16.9844 L1510.4688,19.7031 Q1509.8438,19.125 1509.25,18.8594 Q1508.6563,18.5781 1508.0313,18.5781 Q1506.6875,18.5781 1506,19.6563 Q1505.3125,20.7188 1505.3125,22.8125 Q1505.3125,24.9063 1506,25.9844 Q1506.6875,27.0469 1508.0313,27.0469 Q1508.6563,27.0469 1509.25,26.7813 Q1509.8438,26.5 1510.4688,25.9219 L1510.4688,28.6406 Z " fill="#000000"/><text fill="#000000" font-family="sans-serif" font-size="14" lengthAdjust="spacing" textLength="71.2031" x="1521.5" y="27.8467">Procedure</text><line style="stroke:#181818;stroke-width:0.5;" x1="1493.5" x2="1594.7031" y1="39" y2="39"/><line style="stroke:#181818;stroke-width:0.5;" x1="1493.5" x2="1594.7031" y1="47" y2="47"/></g><!--class ActuatingProcedure--><g class="entity" data-qualified-name="ActuatingProcedure" data-source-line="6" id="ent0014"><rect fill="#F1F1F1" height="48" rx="2.5" ry="2.5" style="stroke:#181818;stroke-width:0.5;" width="170.5576" x="1250.5" y="115"/><ellipse cx="1265.5" cy="131" fill="#ADD1B2" rx="11" ry="11" style="stroke:#181818;stroke-width:1;"/><path d="M1268.4688,136.6406 Q1267.8906,136.9375 1267.25,137.0781 Q1266.6094,137.2344 1265.9063,137.2344 Q1263.4063,137.2344 1262.0781,135.5938 Q1260.7656,133.9375 1260.7656,130.8125 Q1260.7656,127.6875 1262.0781,126.0313 Q1263.4063,124.375 1265.9063,124.375 Q1266.6094,124.375 1267.25,124.5313 Q1267.9063,124.6875 1268.4688,124.9844 L1268.4688,127.7031 Q1267.8438,127.125 1267.25,126.8594 Q1266.6563,126.5781 1266.0313,126.5781 Q1264.6875,126.5781 1264,127.6563 Q1263.3125,128.7188 1263.3125,130.8125 Q1263.3125,132.9063 1264,133.9844 Q1264.6875,135.0469 1266.0313,135.0469 Q1266.6563,135.0469 1267.25,134.7813 Q1267.8438,134.5 1268.4688,133.9219 L1268.4688,136.6406 Z " fill="#000000"/><text fill="#000000" font-family="sans-serif" font-size="14" lengthAdjust="spacing" textLength="138.5576" x="1279.5" y="135.8467">ActuatingProcedure</text><line style="stroke:#181818;stroke-width:0.5;" x1="1251.5" x2="1420.0576" y1="147" y2="147"/><line style="stroke:#181818;stroke-width:0.5;" x1="1251.5" x2="1420.0576" y1="155" y2="155"/></g><!--class ObservingProcedure--><g class="entity" data-qualified-name="ObservingProcedure" data-source-line="7" id="ent0016"><rect fill="#F1F1F1" height="48" rx="2.5" ry="2.5" style="stroke:#181818;stroke-width:0.5;" width="174.707" x="1456.5" y="115"/><ellipse cx="1471.5" cy="131" fill="#ADD1B2" rx="11" ry="11" style="stroke:#181818;stroke-width:1;"/><path d="M1474.4688,136.6406 Q1473.8906,136.9375 1473.25,137.0781 Q1472.6094,137.2344 1471.9063,137.2344 Q1469.4063,137.2344 1468.0781,135.5938 Q1466.7656,133.9375 1466.7656,130.8125 Q1466.7656,127.6875 1468.0781,126.0313 Q1469.4063,124.375 1471.9063,124.375 Q1472.6094,124.375 1473.25,124.5313 Q1473.9063,124.6875 1474.4688,124.9844 L1474.4688,127.7031 Q1473.8438,127.125 1473.25,126.8594 Q1472.6563,126.5781 1472.0313,126.5781 Q1470.6875,126.5781 1470,127.6563 Q1469.3125,128.7188 1469.3125,130.8125 Q1469.3125,132.9063 1470,133.9844 Q1470.6875,135.0469 1472.0313,135.0469 Q1472.6563,135.0469 1473.25,134.7813 Q1473.8438,134.5 1474.4688,133.9219 L1474.4688,136.6406 Z " fill="#000000"/><text fill="#000000" font-family="sans-serif" font-size="14" lengthAdjust="spacing" textLength="142.707" x="1485.5" y="135.8467">ObservingProcedure</text><line style="stroke:#181818;stroke-width:0.5;" x1="1457.5" x2="1630.207" y1="147" y2="147"/><line style="stroke:#181818;stroke-width:0.5;" x1="1457.5" x2="1630.207" y1="155" y2="155"/></g><!--class SamplingProcedure--><g class="entity" data-qualified-name="SamplingProcedure" data-source-line="8" id="ent0018"><rect fill="#F1F1F1" height="48" rx="2.5" ry="2.5" style="stroke:#181818;stroke-width:0.5;" width="168.7324" x="1666.5" y="115"/><ellipse cx="1681.5" cy="131" fill="#ADD1B2" rx="11" ry="11" style="stroke:#181818;stroke-width:1;"/><path d="M1684.4688,136.6406 Q1683.8906,136.9375 1683.25,137.0781 Q1682.6094,137.2344 1681.9063,137.2344 Q1679.4063,137.2344 1678.0781,135.5938 Q1676.7656,133.9375 1676.7656,130.8125 Q1676.7656,127.6875 1678.0781,126.0313 Q1679.4063,124.375 1681.9063,124.375 Q1682.6094,124.375 1683.25,124.5313 Q1683.9063,124.6875 1684.4688,124.9844 L1684.4688,127.7031 Q1683.8438,127.125 1683.25,126.8594 Q1682.6563,126.5781 1682.0313,126.5781 Q1680.6875,126.5781 1680,127.6563 Q1679.3125,128.7188 1679.3125,130.8125 Q1679.3125,132.9063 1680,133.9844 Q1680.6875,135.0469 1682.0313,135.0469 Q1682.6563,135.0469 1683.25,134.7813 Q1683.8438,134.5 1684.4688,133.9219 L1684.4688,136.6406 Z " fill="#000000"/><text fill="#000000" font-family="sans-serif" font-size="14" lengthAdjust="spacing" textLength="136.7324" x="1695.5" y="135.8467">SamplingProcedure</text><line style="stroke:#181818;stroke-width:0.5;" x1="1667.5" x2="1834.2324" y1="147" y2="147"/><line style="stroke:#181818;stroke-width:0.5;" x1="1667.5" x2="1834.2324" y1="155" y2="155"/></g><!--class Asset--><g class="entity" data-qualified-name="Asset" data-source-line="9" id="ent0020"><rect fill="#F1F1F1" height="48" rx="2.5" ry="2.5" style="stroke:#181818;stroke-width:0.5;" width="70.2676" x="1942" y="7"/><ellipse cx="1957" cy="23" fill="#ADD1B2" rx="11" ry="11" style="stroke:#181818;stroke-width:1;"/><path d="M1959.9688,28.6406 Q1959.3906,28.9375 1958.75,29.0781 Q1958.1094,29.2344 1957.4063,29.2344 Q1954.9063,29.2344 1953.5781,27.5938 Q1952.2656,25.9375 1952.2656,22.8125 Q1952.2656,19.6875 1953.5781,18.0313 Q1954.9063,16.375 1957.4063,16.375 Q1958.1094,16.375 1958.75,16.5313 Q1959.4063,16.6875 1959.9688,16.9844 L1959.9688,19.7031 Q1959.3438,19.125 1958.75,18.8594 Q1958.1563,18.5781 1957.5313,18.5781 Q1956.1875,18.5781 1955.5,19.6563 Q1954.8125,20.7188 1954.8125,22.8125 Q1954.8125,24.9063 1955.5,25.9844 Q1956.1875,27.0469 1957.5313,27.0469 Q1958.1563,27.0469 1958.75,26.7813 Q1959.3438,26.5 1959.9688,25.9219 L1959.9688,28.6406 Z " fill="#000000"/><text fill="#000000" font-family="sans-serif" font-size="14" lengthAdjust="spacing" textLength="38.2676" x="1971" y="27.8467">Asset</text><line style="stroke:#181818;stroke-width:0.5;" x1="1943" x2="2011.2676" y1="39" y2="39"/><line style="stroke:#181818;stroke-width:0.5;" x1="1943" x2="2011.2676" y1="47" y2="47"/></g><!--class Platform--><g class="entity" data-qualified-name="Platform" data-source-line="9" id="ent0021"><rect fill="#F1F1F1" height="48" rx="2.5" ry="2.5" style="stroke:#181818;stroke-width:0.5;" width="91.2881" x="1870.5" y="115"/><ellipse cx="1885.5" cy="131" fill="#ADD1B2" rx="11" ry="11" style="stroke:#181818;stroke-width:1;"/><path d="M1888.4688,136.6406 Q1887.8906,136.9375 1887.25,137.0781 Q1886.6094,137.2344 1885.9063,137.2344 Q1883.4063,137.2344 1882.0781,135.5938 Q1880.7656,133.9375 1880.7656,130.8125 Q1880.7656,127.6875 1882.0781,126.0313 Q1883.4063,124.375 1885.9063,124.375 Q1886.6094,124.375 1887.25,124.5313 Q1887.9063,124.6875 1888.4688,124.9844 L1888.4688,127.7031 Q1887.8438,127.125 1887.25,126.8594 Q1886.6563,126.5781 1886.0313,126.5781 Q1884.6875,126.5781 1884,127.6563 Q1883.3125,128.7188 1883.3125,130.8125 Q1883.3125,132.9063 1884,133.9844 Q1884.6875,135.0469 1886.0313,135.0469 Q1886.6563,135.0469 1887.25,134.7813 Q1887.8438,134.5 1888.4688,133.9219 L1888.4688,136.6406 Z " fill="#000000"/><text fill="#000000" font-family="sans-serif" font-size="14" lengthAdjust="spacing" textLength="59.2881" x="1899.5" y="135.8467">Platform</text><line style="stroke:#181818;stroke-width:0.5;" x1="1871.5" x2="1960.7881" y1="147" y2="147"/><line style="stroke:#181818;stroke-width:0.5;" x1="1871.5" x2="1960.7881" y1="155" y2="155"/></g><!--class System--><g class="entity" data-qualified-name="System" data-source-line="10" id="ent0023"><rect fill="#F1F1F1" height="48" rx="2.5" ry="2.5" style="stroke:#181818;stroke-width:0.5;" width="84.2061" x="1997" y="115"/><ellipse cx="2012" cy="131" fill="#ADD1B2" rx="11" ry="11" style="stroke:#181818;stroke-width:1;"/><path d="M2014.9688,136.6406 Q2014.3906,136.9375 2013.75,137.0781 Q2013.1094,137.2344 2012.4063,137.2344 Q2009.9063,137.2344 2008.5781,135.5938 Q2007.2656,133.9375 2007.2656,130.8125 Q2007.2656,127.6875 2008.5781,126.0313 Q2009.9063,124.375 2012.4063,124.375 Q2013.1094,124.375 2013.75,124.5313 Q2014.4063,124.6875 2014.9688,124.9844 L2014.9688,127.7031 Q2014.3438,127.125 2013.75,126.8594 Q2013.1563,126.5781 2012.5313,126.5781 Q2011.1875,126.5781 2010.5,127.6563 Q2009.8125,128.7188 2009.8125,130.8125 Q2009.8125,132.9063 2010.5,133.9844 Q2011.1875,135.0469 2012.5313,135.0469 Q2013.1563,135.0469 2013.75,134.7813 Q2014.3438,134.5 2014.9688,133.9219 L2014.9688,136.6406 Z " fill="#000000"/><text fill="#000000" font-family="sans-serif" font-size="14" lengthAdjust="spacing" textLength="52.2061" x="2026" y="135.8467">System</text><line style="stroke:#181818;stroke-width:0.5;" x1="1998" x2="2080.2061" y1="147" y2="147"/><line style="stroke:#181818;stroke-width:0.5;" x1="1998" x2="2080.2061" y1="155" y2="155"/></g><!--class Sampler--><g class="entity" data-qualified-name="Sampler" data-source-line="10" id="ent0024"><rect fill="#F1F1F1" height="48" rx="2.5" ry="2.5" style="stroke:#181818;stroke-width:0.5;" width="90.249" x="1868" y="223"/><ellipse cx="1883" cy="239" fill="#ADD1B2" rx="11" ry="11" style="stroke:#181818;stroke-width:1;"/><path d="M1885.9688,244.6406 Q1885.3906,244.9375 1884.75,245.0781 Q1884.1094,245.2344 1883.4063,245.2344 Q1880.9063,245.2344 1879.5781,243.5938 Q1878.2656,241.9375 1878.2656,238.8125 Q1878.2656,235.6875 1879.5781,234.0313 Q1880.9063,232.375 1883.4063,232.375 Q1884.1094,232.375 1884.75,232.5313 Q1885.4063,232.6875 1885.9688,232.9844 L1885.9688,235.7031 Q1885.3438,235.125 1884.75,234.8594 Q1884.1563,234.5781 1883.5313,234.5781 Q1882.1875,234.5781 1881.5,235.6563 Q1880.8125,236.7188 1880.8125,238.8125 Q1880.8125,240.9063 1881.5,241.9844 Q1882.1875,243.0469 1883.5313,243.0469 Q1884.1563,243.0469 1884.75,242.7813 Q1885.3438,242.5 1885.9688,241.9219 L1885.9688,244.6406 Z " fill="#000000"/><text fill="#000000" font-family="sans-serif" font-size="14" lengthAdjust="spacing" textLength="58.249" x="1897" y="243.8467">Sampler</text><line style="stroke:#181818;stroke-width:0.5;" x1="1869" x2="1957.249" y1="255" y2="255"/><line style="stroke:#181818;stroke-width:0.5;" x1="1869" x2="1957.249" y1="263" y2="263"/></g><!--class Actuator--><g class="entity" data-qualified-name="Actuator" data-source-line="11" id="ent0026"><rect fill="#F1F1F1" height="48" rx="2.5" ry="2.5" style="stroke:#181818;stroke-width:0.5;" width="92.0264" x="1993" y="223"/><ellipse cx="2008" cy="239" fill="#ADD1B2" rx="11" ry="11" style="stroke:#181818;stroke-width:1;"/><path d="M2010.9688,244.6406 Q2010.3906,244.9375 2009.75,245.0781 Q2009.1094,245.2344 2008.4063,245.2344 Q2005.9063,245.2344 2004.5781,243.5938 Q2003.2656,241.9375 2003.2656,238.8125 Q2003.2656,235.6875 2004.5781,234.0313 Q2005.9063,232.375 2008.4063,232.375 Q2009.1094,232.375 2009.75,232.5313 Q2010.4063,232.6875 2010.9688,232.9844 L2010.9688,235.7031 Q2010.3438,235.125 2009.75,234.8594 Q2009.1563,234.5781 2008.5313,234.5781 Q2007.1875,234.5781 2006.5,235.6563 Q2005.8125,236.7188 2005.8125,238.8125 Q2005.8125,240.9063 2006.5,241.9844 Q2007.1875,243.0469 2008.5313,243.0469 Q2009.1563,243.0469 2009.75,242.7813 Q2010.3438,242.5 2010.9688,241.9219 L2010.9688,244.6406 Z " fill="#000000"/><text fill="#000000" font-family="sans-serif" font-size="14" lengthAdjust="spacing" textLength="60.0264" x="2022" y="243.8467">Actuator</text><line style="stroke:#181818;stroke-width:0.5;" x1="1994" x2="2084.0264" y1="255" y2="255"/><line style="stroke:#181818;stroke-width:0.5;" x1="1994" x2="2084.0264" y1="263" y2="263"/></g><!--class ExecutionCollection--><g class="entity" data-qualified-name="ExecutionCollection" data-source-line="12" id="ent0028"><rect fill="#F1F1F1" height="48" rx="2.5" ry="2.5" style="stroke:#181818;stroke-width:0.5;" width="170.3799" x="2317" y="7"/><ellipse cx="2332" cy="23" fill="#ADD1B2" rx="11" ry="11" style="stroke:#181818;stroke-width:1;"/><path d="M2334.9688,28.6406 Q2334.3906,28.9375 2333.75,29.0781 Q2333.1094,29.2344 2332.4063,29.2344 Q2329.9063,29.2344 2328.5781,27.5938 Q2327.2656,25.9375 2327.2656,22.8125 Q2327.2656,19.6875 2328.5781,18.0313 Q2329.9063,16.375 2332.4063,16.375 Q2333.1094,16.375 2333.75,16.5313 Q2334.4063,16.6875 2334.9688,16.9844 L2334.9688,19.7031 Q2334.3438,19.125 2333.75,18.8594 Q2333.1563,18.5781 2332.5313,18.5781 Q2331.1875,18.5781 2330.5,19.6563 Q2329.8125,20.7188 2329.8125,22.8125 Q2329.8125,24.9063 2330.5,25.9844 Q2331.1875,27.0469 2332.5313,27.0469 Q2333.1563,27.0469 2333.75,26.7813 Q2334.3438,26.5 2334.9688,25.9219 L2334.9688,28.6406 Z " fill="#000000"/><text fill="#000000" font-family="sans-serif" font-size="14" lengthAdjust="spacing" textLength="138.3799" x="2346" y="27.8467">ExecutionCollection</text><line style="stroke:#181818;stroke-width:0.5;" x1="2318" x2="2486.3799" y1="39" y2="39"/><line style="stroke:#181818;stroke-width:0.5;" x1="2318" x2="2486.3799" y1="47" y2="47"/></g><!--class SamplingCollection--><g class="entity" data-qualified-name="SamplingCollection" data-source-line="12" id="ent0029"><rect fill="#F1F1F1" height="48" rx="2.5" ry="2.5" style="stroke:#181818;stroke-width:0.5;" width="166.7773" x="2116.5" y="115"/><ellipse cx="2131.5" cy="131" fill="#ADD1B2" rx="11" ry="11" style="stroke:#181818;stroke-width:1;"/><path d="M2134.4688,136.6406 Q2133.8906,136.9375 2133.25,137.0781 Q2132.6094,137.2344 2131.9063,137.2344 Q2129.4063,137.2344 2128.0781,135.5938 Q2126.7656,133.9375 2126.7656,130.8125 Q2126.7656,127.6875 2128.0781,126.0313 Q2129.4063,124.375 2131.9063,124.375 Q2132.6094,124.375 2133.25,124.5313 Q2133.9063,124.6875 2134.4688,124.9844 L2134.4688,127.7031 Q2133.8438,127.125 2133.25,126.8594 Q2132.6563,126.5781 2132.0313,126.5781 Q2130.6875,126.5781 2130,127.6563 Q2129.3125,128.7188 2129.3125,130.8125 Q2129.3125,132.9063 2130,133.9844 Q2130.6875,135.0469 2132.0313,135.0469 Q2132.6563,135.0469 2133.25,134.7813 Q2133.8438,134.5 2134.4688,133.9219 L2134.4688,136.6406 Z " fill="#000000"/><text fill="#000000" font-family="sans-serif" font-size="14" lengthAdjust="spacing" textLength="134.7773" x="2145.5" y="135.8467">SamplingCollection</text><line style="stroke:#181818;stroke-width:0.5;" x1="2117.5" x2="2282.2773" y1="147" y2="147"/><line style="stroke:#181818;stroke-width:0.5;" x1="2117.5" x2="2282.2773" y1="155" y2="155"/></g><!--class Sensor--><g class="entity" data-qualified-name="Sensor" data-source-line="14" id="ent0032"><rect fill="#F1F1F1" height="48" rx="2.5" ry="2.5" style="stroke:#181818;stroke-width:0.5;" width="79.9883" x="2120" y="223"/><ellipse cx="2135" cy="239" fill="#ADD1B2" rx="11" ry="11" style="stroke:#181818;stroke-width:1;"/><path d="M2137.9688,244.6406 Q2137.3906,244.9375 2136.75,245.0781 Q2136.1094,245.2344 2135.4063,245.2344 Q2132.9063,245.2344 2131.5781,243.5938 Q2130.2656,241.9375 2130.2656,238.8125 Q2130.2656,235.6875 2131.5781,234.0313 Q2132.9063,232.375 2135.4063,232.375 Q2136.1094,232.375 2136.75,232.5313 Q2137.4063,232.6875 2137.9688,232.9844 L2137.9688,235.7031 Q2137.3438,235.125 2136.75,234.8594 Q2136.1563,234.5781 2135.5313,234.5781 Q2134.1875,234.5781 2133.5,235.6563 Q2132.8125,236.7188 2132.8125,238.8125 Q2132.8125,240.9063 2133.5,241.9844 Q2134.1875,243.0469 2135.5313,243.0469 Q2136.1563,243.0469 2136.75,242.7813 Q2137.3438,242.5 2137.9688,241.9219 L2137.9688,244.6406 Z " fill="#000000"/><text fill="#000000" font-family="sans-serif" font-size="14" lengthAdjust="spacing" textLength="47.9883" x="2149" y="243.8467">Sensor</text><line style="stroke:#181818;stroke-width:0.5;" x1="2121" x2="2198.9883" y1="255" y2="255"/><line style="stroke:#181818;stroke-width:0.5;" x1="2121" x2="2198.9883" y1="263" y2="263"/></g><!--class Execution--><g class="entity" data-qualified-name="Execution" data-source-line="15" id="ent0034"><rect fill="#F1F1F1" height="48" rx="2.5" ry="2.5" style="stroke:#181818;stroke-width:0.5;" width="101.1318" x="2874.5" y="7"/><ellipse cx="2889.5" cy="23" fill="#ADD1B2" rx="11" ry="11" style="stroke:#181818;stroke-width:1;"/><path d="M2892.4688,28.6406 Q2891.8906,28.9375 2891.25,29.0781 Q2890.6094,29.2344 2889.9063,29.2344 Q2887.4063,29.2344 2886.0781,27.5938 Q2884.7656,25.9375 2884.7656,22.8125 Q2884.7656,19.6875 2886.0781,18.0313 Q2887.4063,16.375 2889.9063,16.375 Q2890.6094,16.375 2891.25,16.5313 Q2891.9063,16.6875 2892.4688,16.9844 L2892.4688,19.7031 Q2891.8438,19.125 2891.25,18.8594 Q2890.6563,18.5781 2890.0313,18.5781 Q2888.6875,18.5781 2888,19.6563 Q2887.3125,20.7188 2887.3125,22.8125 Q2887.3125,24.9063 2888,25.9844 Q2888.6875,27.0469 2890.0313,27.0469 Q2890.6563,27.0469 2891.25,26.7813 Q2891.8438,26.5 2892.4688,25.9219 L2892.4688,28.6406 Z " fill="#000000"/><text fill="#000000" font-family="sans-serif" font-size="14" lengthAdjust="spacing" textLength="69.1318" x="2903.5" y="27.8467">Execution</text><line style="stroke:#181818;stroke-width:0.5;" x1="2875.5" x2="2974.6318" y1="39" y2="39"/><line style="stroke:#181818;stroke-width:0.5;" x1="2875.5" x2="2974.6318" y1="47" y2="47"/></g><!--class Sampling--><g class="entity" data-qualified-name="Sampling" data-source-line="15" id="ent0035"><rect fill="#F1F1F1" height="48" rx="2.5" ry="2.5" style="stroke:#181818;stroke-width:0.5;" width="97.5293" x="2742" y="115"/><ellipse cx="2757" cy="131" fill="#ADD1B2" rx="11" ry="11" style="stroke:#181818;stroke-width:1;"/><path d="M2759.9688,136.6406 Q2759.3906,136.9375 2758.75,137.0781 Q2758.1094,137.2344 2757.4063,137.2344 Q2754.9063,137.2344 2753.5781,135.5938 Q2752.2656,133.9375 2752.2656,130.8125 Q2752.2656,127.6875 2753.5781,126.0313 Q2754.9063,124.375 2757.4063,124.375 Q2758.1094,124.375 2758.75,124.5313 Q2759.4063,124.6875 2759.9688,124.9844 L2759.9688,127.7031 Q2759.3438,127.125 2758.75,126.8594 Q2758.1563,126.5781 2757.5313,126.5781 Q2756.1875,126.5781 2755.5,127.6563 Q2754.8125,128.7188 2754.8125,130.8125 Q2754.8125,132.9063 2755.5,133.9844 Q2756.1875,135.0469 2757.5313,135.0469 Q2758.1563,135.0469 2758.75,134.7813 Q2759.3438,134.5 2759.9688,133.9219 L2759.9688,136.6406 Z " fill="#000000"/><text fill="#000000" font-family="sans-serif" font-size="14" lengthAdjust="spacing" textLength="65.5293" x="2771" y="135.8467">Sampling</text><line style="stroke:#181818;stroke-width:0.5;" x1="2743" x2="2838.5293" y1="147" y2="147"/><line style="stroke:#181818;stroke-width:0.5;" x1="2743" x2="2838.5293" y1="155" y2="155"/></g><!--class Actuation--><g class="entity" data-qualified-name="Actuation" data-source-line="16" id="ent0037"><rect fill="#F1F1F1" height="48" rx="2.5" ry="2.5" style="stroke:#181818;stroke-width:0.5;" width="99.0332" x="2875.5" y="115"/><ellipse cx="2890.5" cy="131" fill="#ADD1B2" rx="11" ry="11" style="stroke:#181818;stroke-width:1;"/><path d="M2893.4688,136.6406 Q2892.8906,136.9375 2892.25,137.0781 Q2891.6094,137.2344 2890.9063,137.2344 Q2888.4063,137.2344 2887.0781,135.5938 Q2885.7656,133.9375 2885.7656,130.8125 Q2885.7656,127.6875 2887.0781,126.0313 Q2888.4063,124.375 2890.9063,124.375 Q2891.6094,124.375 2892.25,124.5313 Q2892.9063,124.6875 2893.4688,124.9844 L2893.4688,127.7031 Q2892.8438,127.125 2892.25,126.8594 Q2891.6563,126.5781 2891.0313,126.5781 Q2889.6875,126.5781 2889,127.6563 Q2888.3125,128.7188 2888.3125,130.8125 Q2888.3125,132.9063 2889,133.9844 Q2889.6875,135.0469 2891.0313,135.0469 Q2891.6563,135.0469 2892.25,134.7813 Q2892.8438,134.5 2893.4688,133.9219 L2893.4688,136.6406 Z " fill="#000000"/><text fill="#000000" font-family="sans-serif" font-size="14" lengthAdjust="spacing" textLength="67.0332" x="2904.5" y="135.8467">Actuation</text><line style="stroke:#181818;stroke-width:0.5;" x1="2876.5" x2="2973.5332" y1="147" y2="147"/><line style="stroke:#181818;stroke-width:0.5;" x1="2876.5" x2="2973.5332" y1="155" y2="155"/></g><!--class ActuationCollection--><g class="entity" data-qualified-name="ActuationCollection" data-source-line="17" id="ent0039"><rect fill="#F1F1F1" height="48" rx="2.5" ry="2.5" style="stroke:#181818;stroke-width:0.5;" width="168.2813" x="2318" y="115"/><ellipse cx="2333" cy="131" fill="#ADD1B2" rx="11" ry="11" style="stroke:#181818;stroke-width:1;"/><path d="M2335.9688,136.6406 Q2335.3906,136.9375 2334.75,137.0781 Q2334.1094,137.2344 2333.4063,137.2344 Q2330.9063,137.2344 2329.5781,135.5938 Q2328.2656,133.9375 2328.2656,130.8125 Q2328.2656,127.6875 2329.5781,126.0313 Q2330.9063,124.375 2333.4063,124.375 Q2334.1094,124.375 2334.75,124.5313 Q2335.4063,124.6875 2335.9688,124.9844 L2335.9688,127.7031 Q2335.3438,127.125 2334.75,126.8594 Q2334.1563,126.5781 2333.5313,126.5781 Q2332.1875,126.5781 2331.5,127.6563 Q2330.8125,128.7188 2330.8125,130.8125 Q2330.8125,132.9063 2331.5,133.9844 Q2332.1875,135.0469 2333.5313,135.0469 Q2334.1563,135.0469 2334.75,134.7813 Q2335.3438,134.5 2335.9688,133.9219 L2335.9688,136.6406 Z " fill="#000000"/><text fill="#000000" font-family="sans-serif" font-size="14" lengthAdjust="spacing" textLength="136.2813" x="2347" y="135.8467">ActuationCollection</text><line style="stroke:#181818;stroke-width:0.5;" x1="2319" x2="2485.2813" y1="147" y2="147"/><line style="stroke:#181818;stroke-width:0.5;" x1="2319" x2="2485.2813" y1="155" y2="155"/></g><!--class ObservationCollection--><g class="entity" data-qualified-name="ObservationCollection" data-source-line="18" id="ent0041"><rect fill="#F1F1F1" height="48" rx="2.5" ry="2.5" style="stroke:#181818;stroke-width:0.5;" width="186.499" x="2521" y="115"/><ellipse cx="2536" cy="131" fill="#ADD1B2" rx="11" ry="11" style="stroke:#181818;stroke-width:1;"/><path d="M2538.9688,136.6406 Q2538.3906,136.9375 2537.75,137.0781 Q2537.1094,137.2344 2536.4063,137.2344 Q2533.9063,137.2344 2532.5781,135.5938 Q2531.2656,133.9375 2531.2656,130.8125 Q2531.2656,127.6875 2532.5781,126.0313 Q2533.9063,124.375 2536.4063,124.375 Q2537.1094,124.375 2537.75,124.5313 Q2538.4063,124.6875 2538.9688,124.9844 L2538.9688,127.7031 Q2538.3438,127.125 2537.75,126.8594 Q2537.1563,126.5781 2536.5313,126.5781 Q2535.1875,126.5781 2534.5,127.6563 Q2533.8125,128.7188 2533.8125,130.8125 Q2533.8125,132.9063 2534.5,133.9844 Q2535.1875,135.0469 2536.5313,135.0469 Q2537.1563,135.0469 2537.75,134.7813 Q2538.3438,134.5 2538.9688,133.9219 L2538.9688,136.6406 Z " fill="#000000"/><text fill="#000000" font-family="sans-serif" font-size="14" lengthAdjust="spacing" textLength="154.499" x="2550" y="135.8467">ObservationCollection</text><line style="stroke:#181818;stroke-width:0.5;" x1="2522" x2="2706.499" y1="147" y2="147"/><line style="stroke:#181818;stroke-width:0.5;" x1="2522" x2="2706.499" y1="155" y2="155"/></g><!--class Observation--><g class="entity" data-qualified-name="Observation" data-source-line="19" id="ent0043"><rect fill="#F1F1F1" height="48" rx="2.5" ry="2.5" style="stroke:#181818;stroke-width:0.5;" width="117.251" x="3009.5" y="115"/><ellipse cx="3024.5" cy="131" fill="#ADD1B2" rx="11" ry="11" style="stroke:#181818;stroke-width:1;"/><path d="M3027.4688,136.6406 Q3026.8906,136.9375 3026.25,137.0781 Q3025.6094,137.2344 3024.9063,137.2344 Q3022.4063,137.2344 3021.0781,135.5938 Q3019.7656,133.9375 3019.7656,130.8125 Q3019.7656,127.6875 3021.0781,126.0313 Q3022.4063,124.375 3024.9063,124.375 Q3025.6094,124.375 3026.25,124.5313 Q3026.9063,124.6875 3027.4688,124.9844 L3027.4688,127.7031 Q3026.8438,127.125 3026.25,126.8594 Q3025.6563,126.5781 3025.0313,126.5781 Q3023.6875,126.5781 3023,127.6563 Q3022.3125,128.7188 3022.3125,130.8125 Q3022.3125,132.9063 3023,133.9844 Q3023.6875,135.0469 3025.0313,135.0469 Q3025.6563,135.0469 3026.25,134.7813 Q3026.8438,134.5 3027.4688,133.9219 L3027.4688,136.6406 Z " fill="#000000"/><text fill="#000000" font-family="sans-serif" font-size="14" lengthAdjust="spacing" textLength="85.251" x="3038.5" y="135.8467">Observation</text><line style="stroke:#181818;stroke-width:0.5;" x1="3010.5" x2="3125.751" y1="147" y2="147"/><line style="stroke:#181818;stroke-width:0.5;" x1="3010.5" x2="3125.751" y1="155" y2="155"/></g><!--class SampleCollection--><g class="entity" data-qualified-name="SampleCollection" data-source-line="20" id="ent0045"><rect fill="#F1F1F1" height="48" rx="2.5" ry="2.5" style="stroke:#181818;stroke-width:0.5;" width="153.7412" x="7" y="7"/><ellipse cx="22" cy="23" fill="#ADD1B2" rx="11" ry="11" style="stroke:#181818;stroke-width:1;"/><path d="M24.9688,28.6406 Q24.3906,28.9375 23.75,29.0781 Q23.1094,29.2344 22.4063,29.2344 Q19.9063,29.2344 18.5781,27.5938 Q17.2656,25.9375 17.2656,22.8125 Q17.2656,19.6875 18.5781,18.0313 Q19.9063,16.375 22.4063,16.375 Q23.1094,16.375 23.75,16.5313 Q24.4063,16.6875 24.9688,16.9844 L24.9688,19.7031 Q24.3438,19.125 23.75,18.8594 Q23.1563,18.5781 22.5313,18.5781 Q21.1875,18.5781 20.5,19.6563 Q19.8125,20.7188 19.8125,22.8125 Q19.8125,24.9063 20.5,25.9844 Q21.1875,27.0469 22.5313,27.0469 Q23.1563,27.0469 23.75,26.7813 Q24.3438,26.5 24.9688,25.9219 L24.9688,28.6406 Z " fill="#000000"/><text fill="#000000" font-family="sans-serif" font-size="14" lengthAdjust="spacing" textLength="121.7412" x="36" y="27.8467">SampleCollection</text><line style="stroke:#181818;stroke-width:0.5;" x1="8" x2="159.7412" y1="39" y2="39"/><line style="stroke:#181818;stroke-width:0.5;" x1="8" x2="159.7412" y1="47" y2="47"/></g><!--class Result--><g class="entity" data-qualified-name="Result" data-source-line="21" id="ent0046"><rect fill="#F1F1F1" height="48" rx="2.5" ry="2.5" style="stroke:#181818;stroke-width:0.5;" width="75.8867" x="196" y="7"/><ellipse cx="211" cy="23" fill="#ADD1B2" rx="11" ry="11" style="stroke:#181818;stroke-width:1;"/><path d="M213.9688,28.6406 Q213.3906,28.9375 212.75,29.0781 Q212.1094,29.2344 211.4063,29.2344 Q208.9063,29.2344 207.5781,27.5938 Q206.2656,25.9375 206.2656,22.8125 Q206.2656,19.6875 207.5781,18.0313 Q208.9063,16.375 211.4063,16.375 Q212.1094,16.375 212.75,16.5313 Q213.4063,16.6875 213.9688,16.9844 L213.9688,19.7031 Q213.3438,19.125 212.75,18.8594 Q212.1563,18.5781 211.5313,18.5781 Q210.1875,18.5781 209.5,19.6563 Q208.8125,20.7188 208.8125,22.8125 Q208.8125,24.9063 209.5,25.9844 Q210.1875,27.0469 211.5313,27.0469 Q212.1563,27.0469 212.75,26.7813 Q213.3438,26.5 213.9688,25.9219 L213.9688,28.6406 Z " fill="#000000"/><text fill="#000000" font-family="sans-serif" font-size="14" lengthAdjust="spacing" textLength="43.8867" x="225" y="27.8467">Result</text><line style="stroke:#181818;stroke-width:0.5;" x1="197" x2="270.8867" y1="39" y2="39"/><line style="stroke:#181818;stroke-width:0.5;" x1="197" x2="270.8867" y1="47" y2="47"/></g><!--class FeatureOfInterest--><g class="entity" data-qualified-name="FeatureOfInterest" data-source-line="22" id="ent0047"><rect fill="#F1F1F1" height="48" rx="2.5" ry="2.5" style="stroke:#181818;stroke-width:0.5;" width="156.1816" x="307" y="7"/><ellipse cx="322" cy="23" fill="#ADD1B2" rx="11" ry="11" style="stroke:#181818;stroke-width:1;"/><path d="M324.9688,28.6406 Q324.3906,28.9375 323.75,29.0781 Q323.1094,29.2344 322.4063,29.2344 Q319.9063,29.2344 318.5781,27.5938 Q317.2656,25.9375 317.2656,22.8125 Q317.2656,19.6875 318.5781,18.0313 Q319.9063,16.375 322.4063,16.375 Q323.1094,16.375 323.75,16.5313 Q324.4063,16.6875 324.9688,16.9844 L324.9688,19.7031 Q324.3438,19.125 323.75,18.8594 Q323.1563,18.5781 322.5313,18.5781 Q321.1875,18.5781 320.5,19.6563 Q319.8125,20.7188 319.8125,22.8125 Q319.8125,24.9063 320.5,25.9844 Q321.1875,27.0469 322.5313,27.0469 Q323.1563,27.0469 323.75,26.7813 Q324.3438,26.5 324.9688,25.9219 L324.9688,28.6406 Z " fill="#000000"/><text fill="#000000" font-family="sans-serif" font-size="14" lengthAdjust="spacing" textLength="124.1816" x="336" y="27.8467">FeatureOfInterest</text><line style="stroke:#181818;stroke-width:0.5;" x1="308" x2="462.1816" y1="39" y2="39"/><line style="stroke:#181818;stroke-width:0.5;" x1="308" x2="462.1816" y1="47" y2="47"/></g><!--class Deployment--><g class="entity" data-qualified-name="Deployment" data-source-line="23" id="ent0048"><rect fill="#F1F1F1" height="48" rx="2.5" ry="2.5" style="stroke:#181818;stroke-width:0.5;" width="117.6338" x="25" y="115"/><ellipse cx="40" cy="131" fill="#ADD1B2" rx="11" ry="11" style="stroke:#181818;stroke-width:1;"/><path d="M42.9688,136.6406 Q42.3906,136.9375 41.75,137.0781 Q41.1094,137.2344 40.4063,137.2344 Q37.9063,137.2344 36.5781,135.5938 Q35.2656,133.9375 35.2656,130.8125 Q35.2656,127.6875 36.5781,126.0313 Q37.9063,124.375 40.4063,124.375 Q41.1094,124.375 41.75,124.5313 Q42.4063,124.6875 42.9688,124.9844 L42.9688,127.7031 Q42.3438,127.125 41.75,126.8594 Q41.1563,126.5781 40.5313,126.5781 Q39.1875,126.5781 38.5,127.6563 Q37.8125,128.7188 37.8125,130.8125 Q37.8125,132.9063 38.5,133.9844 Q39.1875,135.0469 40.5313,135.0469 Q41.1563,135.0469 41.75,134.7813 Q42.3438,134.5 42.9688,133.9219 L42.9688,136.6406 Z " fill="#000000"/><text fill="#000000" font-family="sans-serif" font-size="14" lengthAdjust="spacing" textLength="85.6338" x="54" y="135.8467">Deployment</text><line style="stroke:#181818;stroke-width:0.5;" x1="26" x2="141.6338" y1="147" y2="147"/><line style="stroke:#181818;stroke-width:0.5;" x1="26" x2="141.6338" y1="155" y2="155"/></g><!--class Stimulus--><g class="entity" data-qualified-name="Stimulus" data-source-line="24" id="ent0049"><rect fill="#F1F1F1" height="48" rx="2.5" ry="2.5" style="stroke:#181818;stroke-width:0.5;" width="92.833" x="178.5" y="115"/><ellipse cx="193.5" cy="131" fill="#ADD1B2" rx="11" ry="11" style="stroke:#181818;stroke-width:1;"/><path d="M196.4688,136.6406 Q195.8906,136.9375 195.25,137.0781 Q194.6094,137.2344 193.9063,137.2344 Q191.4063,137.2344 190.0781,135.5938 Q188.7656,133.9375 188.7656,130.8125 Q188.7656,127.6875 190.0781,126.0313 Q191.4063,124.375 193.9063,124.375 Q194.6094,124.375 195.25,124.5313 Q195.9063,124.6875 196.4688,124.9844 L196.4688,127.7031 Q195.8438,127.125 195.25,126.8594 Q194.6563,126.5781 194.0313,126.5781 Q192.6875,126.5781 192,127.6563 Q191.3125,128.7188 191.3125,130.8125 Q191.3125,132.9063 192,133.9844 Q192.6875,135.0469 194.0313,135.0469 Q194.6563,135.0469 195.25,134.7813 Q195.8438,134.5 196.4688,133.9219 L196.4688,136.6406 Z " fill="#000000"/><text fill="#000000" font-family="sans-serif" font-size="14" lengthAdjust="spacing" textLength="60.833" x="207.5" y="135.8467">Stimulus</text><line style="stroke:#181818;stroke-width:0.5;" x1="179.5" x2="270.333" y1="147" y2="147"/><line style="stroke:#181818;stroke-width:0.5;" x1="179.5" x2="270.333" y1="155" y2="155"/></g><!--reverse link Property to ActuatableProperty--><g class="link" data-entity-1="ent0001" data-entity-2="ent0002" data-link-type="extension" data-source-line="1" id="lnk3"><path codeLine="1" d="M515.4297,64.134 C485.3397,81.854 459.44,97.11 429.29,114.86" fill="none" id="Property-backto-ActuatableProperty" style="stroke:#181818;stroke-width:1;"/><polygon fill="none" points="530.94,55,512.385,58.9639,518.4744,69.3041,530.94,55" style="stroke:#181818;stroke-width:1;stroke-linejoin:miter;stroke-miterlimit:10;"/></g><!--reverse link Sample to MaterialSample--><g class="link" data-entity-1="ent0004" data-entity-2="ent0005" data-link-type="extension" data-source-line="2" id="lnk6"><path codeLine="2" d="M906.3567,64.4445 C877.6067,82.1645 853.35,97.11 824.55,114.86" fill="none" id="Sample-backto-MaterialSample" style="stroke:#181818;stroke-width:1;"/><polygon fill="none" points="921.68,55,903.2086,59.3367,909.5049,69.5522,921.68,55" style="stroke:#181818;stroke-width:1;stroke-linejoin:miter;stroke-miterlimit:10;"/></g><!--reverse link Property to ObservableProperty--><g class="link" data-entity-1="ent0001" data-entity-2="ent0007" data-link-type="extension" data-source-line="3" id="lnk8"><path codeLine="3" d="M579.5565,72.5183 C583.7265,90.1783 585.32,96.94 589.5,114.68" fill="none" id="Property-backto-ObservableProperty" style="stroke:#181818;stroke-width:1;"/><polygon fill="none" points="575.42,55,573.7171,73.8971,585.3959,71.1394,575.42,55" style="stroke:#181818;stroke-width:1;stroke-linejoin:miter;stroke-miterlimit:10;"/></g><!--reverse link Sample to SpatialSample--><g class="link" data-entity-1="ent0004" data-entity-2="ent0009" data-link-type="extension" data-source-line="4" id="lnk10"><path codeLine="4" d="M959,73 C959,90.66 959,96.94 959,114.68" fill="none" id="Sample-backto-SpatialSample" style="stroke:#181818;stroke-width:1;"/><polygon fill="none" points="959,55,953,73,965,73,959,55" style="stroke:#181818;stroke-width:1;stroke-linejoin:miter;stroke-miterlimit:10;"/></g><!--reverse link Sample to StatisticalSample--><g class="link" data-entity-1="ent0004" data-entity-2="ent0011" data-link-type="extension" data-source-line="5" id="lnk12"><path codeLine="5" d="M1013.3276,64.1725 C1043.2476,81.8925 1068.95,97.11 1098.93,114.86" fill="none" id="Sample-backto-StatisticalSample" style="stroke:#181818;stroke-width:1;"/><polygon fill="none" points="997.84,55,1010.2701,69.335,1016.3851,59.0099,997.84,55" style="stroke:#181818;stroke-width:1;stroke-linejoin:miter;stroke-miterlimit:10;"/></g><!--reverse link Procedure to ActuatingProcedure--><g class="link" data-entity-1="ent0013" data-entity-2="ent0014" data-link-type="extension" data-source-line="6" id="lnk15"><path codeLine="6" d="M1482.8326,63.1732 C1448.0626,80.8932 1416.24,97.11 1381.4,114.86" fill="none" id="Procedure-backto-ActuatingProcedure" style="stroke:#181818;stroke-width:1;"/><polygon fill="none" points="1498.87,55,1480.1082,57.8274,1485.557,68.519,1498.87,55" style="stroke:#181818;stroke-width:1;stroke-linejoin:miter;stroke-miterlimit:10;"/></g><!--reverse link Procedure to ObservingProcedure--><g class="link" data-entity-1="ent0013" data-entity-2="ent0016" data-link-type="extension" data-source-line="7" id="lnk17"><path codeLine="7" d="M1544,73 C1544,90.66 1544,96.94 1544,114.68" fill="none" id="Procedure-backto-ObservingProcedure" style="stroke:#181818;stroke-width:1;"/><polygon fill="none" points="1544,55,1538,73,1550,73,1544,55" style="stroke:#181818;stroke-width:1;stroke-linejoin:miter;stroke-miterlimit:10;"/></g><!--reverse link Procedure to SamplingProcedure--><g class="link" data-entity-1="ent0013" data-entity-2="ent0018" data-link-type="extension" data-source-line="8" id="lnk19"><path codeLine="8" d="M1604.9411,63.205 C1639.5411,80.925 1671.15,97.11 1705.81,114.86" fill="none" id="Procedure-backto-SamplingProcedure" style="stroke:#181818;stroke-width:1;"/><polygon fill="none" points="1588.92,55,1602.2061,68.5454,1607.6762,57.8647,1588.92,55" style="stroke:#181818;stroke-width:1;stroke-linejoin:miter;stroke-miterlimit:10;"/></g><!--reverse link Asset to Platform--><g class="link" data-entity-1="ent0020" data-entity-2="ent0021" data-link-type="extension" data-source-line="9" id="lnk22"><path codeLine="9" d="M1954.7839,70.6022 C1944.6239,88.2622 1939.63,96.94 1929.42,114.68" fill="none" id="Asset-backto-Platform" style="stroke:#181818;stroke-width:1;"/><polygon fill="none" points="1963.76,55,1949.5831,67.6102,1959.9846,73.5943,1963.76,55" style="stroke:#181818;stroke-width:1;stroke-linejoin:miter;stroke-miterlimit:10;"/></g><!--reverse link System to Sampler--><g class="link" data-entity-1="ent0023" data-entity-2="ent0024" data-link-type="extension" data-source-line="10" id="lnk25"><path codeLine="10" d="M1997.8865,174.5884 C1976.8965,192.2484 1961.81,204.94 1940.72,222.68" fill="none" id="System-backto-Sampler" style="stroke:#181818;stroke-width:1;"/><polygon fill="none" points="2011.66,163,1994.0237,169.9972,2001.7493,179.1795,2011.66,163" style="stroke:#181818;stroke-width:1;stroke-linejoin:miter;stroke-miterlimit:10;"/></g><!--reverse link System to Actuator--><g class="link" data-entity-1="ent0023" data-entity-2="ent0026" data-link-type="extension" data-source-line="11" id="lnk27"><path codeLine="11" d="M2039,181 C2039,198.66 2039,204.94 2039,222.68" fill="none" id="System-backto-Actuator" style="stroke:#181818;stroke-width:1;"/><polygon fill="none" points="2039,163,2033,181,2045,181,2039,163" style="stroke:#181818;stroke-width:1;stroke-linejoin:miter;stroke-miterlimit:10;"/></g><!--reverse link ExecutionCollection to SamplingCollection--><g class="link" data-entity-1="ent0028" data-entity-2="ent0029" data-link-type="extension" data-source-line="12" id="lnk30"><path codeLine="12" d="M2342.231,63.3636 C2308.461,81.0836 2277.93,97.11 2244.09,114.86" fill="none" id="ExecutionCollection-backto-SamplingCollection" style="stroke:#181818;stroke-width:1;"/><polygon fill="none" points="2358.17,55,2339.4432,58.0506,2345.0189,68.6766,2358.17,55" style="stroke:#181818;stroke-width:1;stroke-linejoin:miter;stroke-miterlimit:10;"/></g><!--reverse link Asset to System--><g class="link" data-entity-1="ent0020" data-entity-2="ent0023" data-link-type="extension" data-source-line="13" id="lnk31"><path codeLine="13" d="M1999.5383,70.5372 C2009.8683,88.1972 2014.98,96.94 2025.36,114.68" fill="none" id="Asset-backto-System" style="stroke:#181818;stroke-width:1;"/><polygon fill="none" points="1990.45,55,1994.3592,73.5666,2004.7173,67.5077,1990.45,55" style="stroke:#181818;stroke-width:1;stroke-linejoin:miter;stroke-miterlimit:10;"/></g><!--reverse link System to Sensor--><g class="link" data-entity-1="ent0023" data-entity-2="ent0032" data-link-type="extension" data-source-line="14" id="lnk33"><path codeLine="14" d="M2078.7968,174.864 C2098.9468,192.524 2113.13,204.94 2133.38,222.68" fill="none" id="System-backto-Sensor" style="stroke:#181818;stroke-width:1;"/><polygon fill="none" points="2065.26,163,2074.8421,179.3763,2082.7515,170.3518,2065.26,163" style="stroke:#181818;stroke-width:1;stroke-linejoin:miter;stroke-miterlimit:10;"/></g><!--reverse link Execution to Sampling--><g class="link" data-entity-1="ent0034" data-entity-2="ent0035" data-link-type="extension" data-source-line="15" id="lnk36"><path codeLine="15" d="M2881.8041,66.1688 C2859.4841,83.8288 2842.91,96.94 2820.48,114.68" fill="none" id="Execution-backto-Sampling" style="stroke:#181818;stroke-width:1;"/><polygon fill="none" points="2895.92,55,2878.0812,61.4635,2885.527,70.8741,2895.92,55" style="stroke:#181818;stroke-width:1;stroke-linejoin:miter;stroke-miterlimit:10;"/></g><!--reverse link Execution to Actuation--><g class="link" data-entity-1="ent0034" data-entity-2="ent0037" data-link-type="extension" data-source-line="16" id="lnk38"><path codeLine="16" d="M2925,73 C2925,90.66 2925,96.94 2925,114.68" fill="none" id="Execution-backto-Actuation" style="stroke:#181818;stroke-width:1;"/><polygon fill="none" points="2925,55,2919,73,2931,73,2925,55" style="stroke:#181818;stroke-width:1;stroke-linejoin:miter;stroke-miterlimit:10;"/></g><!--reverse link ExecutionCollection to ActuationCollection--><g class="link" data-entity-1="ent0028" data-entity-2="ent0039" data-link-type="extension" data-source-line="17" id="lnk40"><path codeLine="17" d="M2402,73 C2402,90.66 2402,96.94 2402,114.68" fill="none" id="ExecutionCollection-backto-ActuationCollection" style="stroke:#181818;stroke-width:1;"/><polygon fill="none" points="2402,55,2396,73,2408,73,2402,55" style="stroke:#181818;stroke-width:1;stroke-linejoin:miter;stroke-miterlimit:10;"/></g><!--reverse link ExecutionCollection to ObservationCollection--><g class="link" data-entity-1="ent0028" data-entity-2="ent0041" data-link-type="extension" data-source-line="18" id="lnk42"><path codeLine="18" d="M2464.0997,63.0498 C2499.5397,80.7698 2532.22,97.11 2567.72,114.86" fill="none" id="ExecutionCollection-backto-ObservationCollection" style="stroke:#181818;stroke-width:1;"/><polygon fill="none" points="2448,55,2461.4164,68.4164,2466.783,57.6833,2448,55" style="stroke:#181818;stroke-width:1;stroke-linejoin:miter;stroke-miterlimit:10;"/></g><!--reverse link Execution to Observation--><g class="link" data-entity-1="ent0034" data-entity-2="ent0043" data-link-type="extension" data-source-line="19" id="lnk44"><path codeLine="19" d="M2970.4895,65.7202 C2994.3095,83.3802 3012.61,96.94 3036.54,114.68" fill="none" id="Execution-backto-Observation" style="stroke:#181818;stroke-width:1;"/><polygon fill="none" points="2956.03,55,2966.9161,70.54,2974.0629,60.9004,2956.03,55" style="stroke:#181818;stroke-width:1;stroke-linejoin:miter;stroke-miterlimit:10;"/></g><?plantuml-src VP9DRWCX38Ntd28No0swYVeZTL5br3c1Gryg90CZRAgErCDdKaW2gQOx-FpUisKOKfoGTDuy_6otcvtLJ4e7nb2v6SbFZ59-8qLon8MPeVFk3uBqjUeT9zARjQleKX5rjWss-CW9xLGkV5xvlQBq_a_nczm9TYBGKXoOz1YJD-Ci2jyua3fM9ed9F7_3PdKnF4PcsFEfxtFZRQEIrRT1a3QmZxddTHLBwke4LqapmgguFjgQ_8_8M2QHkfl6KV0x9BFMomj8bptlZwzX-JMG2t_2n77s21SmglEPivm0?></g></svg>