<svg xmlns="http://www.w3.org/2000/svg" xmlns:xlink="http://www.w3.org/1999/xlink" contentStyleType="text/css" data-diagram-type="CLASS" height="286px" preserveAspectRatio="none" style="width:3290px;height:286px;background:#FFFFFF;" version="1.1" viewBox="0 0 3290 286" width="3290px" zoomAndPan="magnify"><?plantuml 1.2026.6?><defs/><g><!--class Property--><g class="entity" data-qualified-name="Property" data-source-line="1" id="ent0001"><rect fill="#F1F1F1" height="48" rx="2.5" ry="2.5" style="stroke:#181818;stroke-width:0.5;" width="91.7939" x="595" y="7"/><ellipse cx="610" cy="23" fill="#ADD1B2" rx="11" ry="11" style="stroke:#181818;stroke-width:1;"/><path d="M612.9688,28.6406 Q612.3906,28.9375 611.75,29.0781 Q611.1094,29.2344 610.4063,29.2344 Q607.9063,29.2344 606.5781,27.5938 Q605.2656,25.9375 605.2656,22.8125 Q605.2656,19.6875 606.5781,18.0313 Q607.9063,16.375 610.4063,16.375 Q611.1094,16.375 611.75,16.5313 Q612.4063,16.6875 612.9688,16.9844 L612.9688,19.7031 Q612.3438,19.125 611.75,18.8594 Q611.1563,18.5781 610.5313,18.5781 Q609.1875,18.5781 608.5,19.6563 Q607.8125,20.7188 607.8125,22.8125 Q607.8125,24.9063 608.5,25.9844 Q609.1875,27.0469 610.5313,27.0469 Q611.1563,27.0469 611.75,26.7813 Q612.3438,26.5 612.9688,25.9219 L612.9688,28.6406 Z " fill="#000000"/><text fill="#000000" font-family="sans-serif" font-size="14" lengthAdjust="spacing" textLength="59.7939" x="624" y="27.8467">Property</text><line style="stroke:#181818;stroke-width:0.5;" x1="596" x2="685.7939" y1="39" y2="39"/><line style="stroke:#181818;stroke-width:0.5;" x1="596" x2="685.7939" y1="47" y2="47"/></g><!--class ActuatableProperty--><g class="entity" data-qualified-name="ActuatableProperty" data-source-line="1" id="ent0002"><rect fill="#F1F1F1" height="48" rx="2.5" ry="2.5" style="stroke:#181818;stroke-width:0.5;" width="167.4678" x="455.5" y="115"/><ellipse cx="470.5" cy="131" fill="#ADD1B2" rx="11" ry="11" style="stroke:#181818;stroke-width:1;"/><path d="M473.4688,136.6406 Q472.8906,136.9375 472.25,137.0781 Q471.6094,137.2344 470.9063,137.2344 Q468.4063,137.2344 467.0781,135.5938 Q465.7656,133.9375 465.7656,130.8125 Q465.7656,127.6875 467.0781,126.0313 Q468.4063,124.375 470.9063,124.375 Q471.6094,124.375 472.25,124.5313 Q472.9063,124.6875 473.4688,124.9844 L473.4688,127.7031 Q472.8438,127.125 472.25,126.8594 Q471.6563,126.5781 471.0313,126.5781 Q469.6875,126.5781 469,127.6563 Q468.3125,128.7188 468.3125,130.8125 Q468.3125,132.9063 469,133.9844 Q469.6875,135.0469 471.0313,135.0469 Q471.6563,135.0469 472.25,134.7813 Q472.8438,134.5 473.4688,133.9219 L473.4688,136.6406 Z " fill="#000000"/><text fill="#000000" font-family="sans-serif" font-size="14" lengthAdjust="spacing" textLength="135.4678" x="484.5" y="135.8467">ActuatableProperty</text><line style="stroke:#181818;stroke-width:0.5;" x1="456.5" x2="621.9678" y1="147" y2="147"/><line style="stroke:#181818;stroke-width:0.5;" x1="456.5" x2="621.9678" y1="155" y2="155"/></g><!--class Sample--><g class="entity" data-qualified-name="Sample" data-source-line="2" id="ent0004"><rect fill="#F1F1F1" height="48" rx="2.5" ry="2.5" style="stroke:#181818;stroke-width:0.5;" width="84.4932" x="1066" y="7"/><ellipse cx="1081" cy="23" fill="#ADD1B2" rx="11" ry="11" style="stroke:#181818;stroke-width:1;"/><path d="M1083.9688,28.6406 Q1083.3906,28.9375 1082.75,29.0781 Q1082.1094,29.2344 1081.4063,29.2344 Q1078.9063,29.2344 1077.5781,27.5938 Q1076.2656,25.9375 1076.2656,22.8125 Q1076.2656,19.6875 1077.5781,18.0313 Q1078.9063,16.375 1081.4063,16.375 Q1082.1094,16.375 1082.75,16.5313 Q1083.4063,16.6875 1083.9688,16.9844 L1083.9688,19.7031 Q1083.3438,19.125 1082.75,18.8594 Q1082.1563,18.5781 1081.5313,18.5781 Q1080.1875,18.5781 1079.5,19.6563 Q1078.8125,20.7188 1078.8125,22.8125 Q1078.8125,24.9063 1079.5,25.9844 Q1080.1875,27.0469 1081.5313,27.0469 Q1082.1563,27.0469 1082.75,26.7813 Q1083.3438,26.5 1083.9688,25.9219 L1083.9688,28.6406 Z " fill="#000000"/><text fill="#000000" font-family="sans-serif" font-size="14" lengthAdjust="spacing" textLength="52.4932" x="1095" y="27.8467">Sample</text><line style="stroke:#181818;stroke-width:0.5;" x1="1067" x2="1149.4932" y1="39" y2="39"/><line style="stroke:#181818;stroke-width:0.5;" x1="1067" x2="1149.4932" y1="47" y2="47"/></g><!--class MaterialSample--><g class="entity" data-qualified-name="MaterialSample" data-source-line="2" id="ent0005"><rect fill="#F1F1F1" height="48" rx="2.5" ry="2.5" style="stroke:#181818;stroke-width:0.5;" width="141.3682" x="865.5" y="115"/><ellipse cx="880.5" cy="131" fill="#ADD1B2" rx="11" ry="11" style="stroke:#181818;stroke-width:1;"/><path d="M883.4688,136.6406 Q882.8906,136.9375 882.25,137.0781 Q881.6094,137.2344 880.9063,137.2344 Q878.4063,137.2344 877.0781,135.5938 Q875.7656,133.9375 875.7656,130.8125 Q875.7656,127.6875 877.0781,126.0313 Q878.4063,124.375 880.9063,124.375 Q881.6094,124.375 882.25,124.5313 Q882.9063,124.6875 883.4688,124.9844 L883.4688,127.7031 Q882.8438,127.125 882.25,126.8594 Q881.6563,126.5781 881.0313,126.5781 Q879.6875,126.5781 879,127.6563 Q878.3125,128.7188 878.3125,130.8125 Q878.3125,132.9063 879,133.9844 Q879.6875,135.0469 881.0313,135.0469 Q881.6563,135.0469 882.25,134.7813 Q882.8438,134.5 883.4688,133.9219 L883.4688,136.6406 Z " fill="#000000"/><text fill="#000000" font-family="sans-serif" font-size="14" lengthAdjust="spacing" textLength="109.3682" x="894.5" y="135.8467">MaterialSample</text><line style="stroke:#181818;stroke-width:0.5;" x1="866.5" x2="1005.8682" y1="147" y2="147"/><line style="stroke:#181818;stroke-width:0.5;" x1="866.5" x2="1005.8682" y1="155" y2="155"/></g><!--class SpatialSample--><g class="entity" data-qualified-name="SpatialSample" data-source-line="3" id="ent0007"><rect fill="#F1F1F1" height="48" rx="2.5" ry="2.5" style="stroke:#181818;stroke-width:0.5;" width="132.6934" x="1041.5" y="115"/><ellipse cx="1056.5" cy="131" fill="#ADD1B2" rx="11" ry="11" style="stroke:#181818;stroke-width:1;"/><path d="M1059.4688,136.6406 Q1058.8906,136.9375 1058.25,137.0781 Q1057.6094,137.2344 1056.9063,137.2344 Q1054.4063,137.2344 1053.0781,135.5938 Q1051.7656,133.9375 1051.7656,130.8125 Q1051.7656,127.6875 1053.0781,126.0313 Q1054.4063,124.375 1056.9063,124.375 Q1057.6094,124.375 1058.25,124.5313 Q1058.9063,124.6875 1059.4688,124.9844 L1059.4688,127.7031 Q1058.8438,127.125 1058.25,126.8594 Q1057.6563,126.5781 1057.0313,126.5781 Q1055.6875,126.5781 1055,127.6563 Q1054.3125,128.7188 1054.3125,130.8125 Q1054.3125,132.9063 1055,133.9844 Q1055.6875,135.0469 1057.0313,135.0469 Q1057.6563,135.0469 1058.25,134.7813 Q1058.8438,134.5 1059.4688,133.9219 L1059.4688,136.6406 Z " fill="#000000"/><text fill="#000000" font-family="sans-serif" font-size="14" lengthAdjust="spacing" textLength="100.6934" x="1070.5" y="135.8467">SpatialSample</text><line style="stroke:#181818;stroke-width:0.5;" x1="1042.5" x2="1173.1934" y1="147" y2="147"/><line style="stroke:#181818;stroke-width:0.5;" x1="1042.5" x2="1173.1934" y1="155" y2="155"/></g><!--class StatisticalSample--><g class="entity" data-qualified-name="StatisticalSample" data-source-line="4" id="ent0009"><rect fill="#F1F1F1" height="48" rx="2.5" ry="2.5" style="stroke:#181818;stroke-width:0.5;" width="153.666" x="1210" y="115"/><ellipse cx="1225" cy="131" fill="#ADD1B2" rx="11" ry="11" style="stroke:#181818;stroke-width:1;"/><path d="M1227.9688,136.6406 Q1227.3906,136.9375 1226.75,137.0781 Q1226.1094,137.2344 1225.4063,137.2344 Q1222.9063,137.2344 1221.5781,135.5938 Q1220.2656,133.9375 1220.2656,130.8125 Q1220.2656,127.6875 1221.5781,126.0313 Q1222.9063,124.375 1225.4063,124.375 Q1226.1094,124.375 1226.75,124.5313 Q1227.4063,124.6875 1227.9688,124.9844 L1227.9688,127.7031 Q1227.3438,127.125 1226.75,126.8594 Q1226.1563,126.5781 1225.5313,126.5781 Q1224.1875,126.5781 1223.5,127.6563 Q1222.8125,128.7188 1222.8125,130.8125 Q1222.8125,132.9063 1223.5,133.9844 Q1224.1875,135.0469 1225.5313,135.0469 Q1226.1563,135.0469 1226.75,134.7813 Q1227.3438,134.5 1227.9688,133.9219 L1227.9688,136.6406 Z " fill="#000000"/><text fill="#000000" font-family="sans-serif" font-size="14" lengthAdjust="spacing" textLength="121.666" x="1239" y="135.8467">StatisticalSample</text><line style="stroke:#181818;stroke-width:0.5;" x1="1211" x2="1362.666" y1="147" y2="147"/><line style="stroke:#181818;stroke-width:0.5;" x1="1211" x2="1362.666" y1="155" y2="155"/></g><!--class ObservableProperty--><g class="entity" data-qualified-name="ObservableProperty" data-source-line="5" id="ent0011"><rect fill="#F1F1F1" height="48" rx="2.5" ry="2.5" style="stroke:#181818;stroke-width:0.5;" width="171.6172" x="658" y="115"/><ellipse cx="673" cy="131" fill="#ADD1B2" rx="11" ry="11" style="stroke:#181818;stroke-width:1;"/><path d="M675.9688,136.6406 Q675.3906,136.9375 674.75,137.0781 Q674.1094,137.2344 673.4063,137.2344 Q670.9063,137.2344 669.5781,135.5938 Q668.2656,133.9375 668.2656,130.8125 Q668.2656,127.6875 669.5781,126.0313 Q670.9063,124.375 673.4063,124.375 Q674.1094,124.375 674.75,124.5313 Q675.4063,124.6875 675.9688,124.9844 L675.9688,127.7031 Q675.3438,127.125 674.75,126.8594 Q674.1563,126.5781 673.5313,126.5781 Q672.1875,126.5781 671.5,127.6563 Q670.8125,128.7188 670.8125,130.8125 Q670.8125,132.9063 671.5,133.9844 Q672.1875,135.0469 673.5313,135.0469 Q674.1563,135.0469 674.75,134.7813 Q675.3438,134.5 675.9688,133.9219 L675.9688,136.6406 Z " fill="#000000"/><text fill="#000000" font-family="sans-serif" font-size="14" lengthAdjust="spacing" textLength="139.6172" x="687" y="135.8467">ObservableProperty</text><line style="stroke:#181818;stroke-width:0.5;" x1="659" x2="828.6172" y1="147" y2="147"/><line style="stroke:#181818;stroke-width:0.5;" x1="659" x2="828.6172" y1="155" y2="155"/></g><!--class Procedure--><g class="entity" data-qualified-name="Procedure" data-source-line="6" id="ent0013"><rect fill="#F1F1F1" height="48" rx="2.5" ry="2.5" style="stroke:#181818;stroke-width:0.5;" width="103.2031" x="1641.5" y="7"/><ellipse cx="1656.5" cy="23" fill="#ADD1B2" rx="11" ry="11" style="stroke:#181818;stroke-width:1;"/><path d="M1659.4688,28.6406 Q1658.8906,28.9375 1658.25,29.0781 Q1657.6094,29.2344 1656.9063,29.2344 Q1654.4063,29.2344 1653.0781,27.5938 Q1651.7656,25.9375 1651.7656,22.8125 Q1651.7656,19.6875 1653.0781,18.0313 Q1654.4063,16.375 1656.9063,16.375 Q1657.6094,16.375 1658.25,16.5313 Q1658.9063,16.6875 1659.4688,16.9844 L1659.4688,19.7031 Q1658.8438,19.125 1658.25,18.8594 Q1657.6563,18.5781 1657.0313,18.5781 Q1655.6875,18.5781 1655,19.6563 Q1654.3125,20.7188 1654.3125,22.8125 Q1654.3125,24.9063 1655,25.9844 Q1655.6875,27.0469 1657.0313,27.0469 Q1657.6563,27.0469 1658.25,26.7813 Q1658.8438,26.5 1659.4688,25.9219 L1659.4688,28.6406 Z " fill="#000000"/><text fill="#000000" font-family="sans-serif" font-size="14" lengthAdjust="spacing" textLength="71.2031" x="1670.5" y="27.8467">Procedure</text><line style="stroke:#181818;stroke-width:0.5;" x1="1642.5" x2="1743.7031" y1="39" y2="39"/><line style="stroke:#181818;stroke-width:0.5;" x1="1642.5" x2="1743.7031" y1="47" y2="47"/></g><!--class ActuatingProcedure--><g class="entity" data-qualified-name="ActuatingProcedure" data-source-line="6" id="ent0014"><rect fill="#F1F1F1" height="48" rx="2.5" ry="2.5" style="stroke:#181818;stroke-width:0.5;" width="170.5576" x="1399.5" y="115"/><ellipse cx="1414.5" cy="131" fill="#ADD1B2" rx="11" ry="11" style="stroke:#181818;stroke-width:1;"/><path d="M1417.4688,136.6406 Q1416.8906,136.9375 1416.25,137.0781 Q1415.6094,137.2344 1414.9063,137.2344 Q1412.4063,137.2344 1411.0781,135.5938 Q1409.7656,133.9375 1409.7656,130.8125 Q1409.7656,127.6875 1411.0781,126.0313 Q1412.4063,124.375 1414.9063,124.375 Q1415.6094,124.375 1416.25,124.5313 Q1416.9063,124.6875 1417.4688,124.9844 L1417.4688,127.7031 Q1416.8438,127.125 1416.25,126.8594 Q1415.6563,126.5781 1415.0313,126.5781 Q1413.6875,126.5781 1413,127.6563 Q1412.3125,128.7188 1412.3125,130.8125 Q1412.3125,132.9063 1413,133.9844 Q1413.6875,135.0469 1415.0313,135.0469 Q1415.6563,135.0469 1416.25,134.7813 Q1416.8438,134.5 1417.4688,133.9219 L1417.4688,136.6406 Z " fill="#000000"/><text fill="#000000" font-family="sans-serif" font-size="14" lengthAdjust="spacing" textLength="138.5576" x="1428.5" y="135.8467">ActuatingProcedure</text><line style="stroke:#181818;stroke-width:0.5;" x1="1400.5" x2="1569.0576" y1="147" y2="147"/><line style="stroke:#181818;stroke-width:0.5;" x1="1400.5" x2="1569.0576" y1="155" y2="155"/></g><!--class ObservingProcedure--><g class="entity" data-qualified-name="ObservingProcedure" data-source-line="7" id="ent0016"><rect fill="#F1F1F1" height="48" rx="2.5" ry="2.5" style="stroke:#181818;stroke-width:0.5;" width="174.707" x="1605.5" y="115"/><ellipse cx="1620.5" cy="131" fill="#ADD1B2" rx="11" ry="11" style="stroke:#181818;stroke-width:1;"/><path d="M1623.4688,136.6406 Q1622.8906,136.9375 1622.25,137.0781 Q1621.6094,137.2344 1620.9063,137.2344 Q1618.4063,137.2344 1617.0781,135.5938 Q1615.7656,133.9375 1615.7656,130.8125 Q1615.7656,127.6875 1617.0781,126.0313 Q1618.4063,124.375 1620.9063,124.375 Q1621.6094,124.375 1622.25,124.5313 Q1622.9063,124.6875 1623.4688,124.9844 L1623.4688,127.7031 Q1622.8438,127.125 1622.25,126.8594 Q1621.6563,126.5781 1621.0313,126.5781 Q1619.6875,126.5781 1619,127.6563 Q1618.3125,128.7188 1618.3125,130.8125 Q1618.3125,132.9063 1619,133.9844 Q1619.6875,135.0469 1621.0313,135.0469 Q1621.6563,135.0469 1622.25,134.7813 Q1622.8438,134.5 1623.4688,133.9219 L1623.4688,136.6406 Z " fill="#000000"/><text fill="#000000" font-family="sans-serif" font-size="14" lengthAdjust="spacing" textLength="142.707" x="1634.5" y="135.8467">ObservingProcedure</text><line style="stroke:#181818;stroke-width:0.5;" x1="1606.5" x2="1779.207" y1="147" y2="147"/><line style="stroke:#181818;stroke-width:0.5;" x1="1606.5" x2="1779.207" y1="155" y2="155"/></g><!--class SamplingProcedure--><g class="entity" data-qualified-name="SamplingProcedure" data-source-line="8" id="ent0018"><rect fill="#F1F1F1" height="48" rx="2.5" ry="2.5" style="stroke:#181818;stroke-width:0.5;" width="168.7324" x="1815.5" y="115"/><ellipse cx="1830.5" cy="131" fill="#ADD1B2" rx="11" ry="11" style="stroke:#181818;stroke-width:1;"/><path d="M1833.4688,136.6406 Q1832.8906,136.9375 1832.25,137.0781 Q1831.6094,137.2344 1830.9063,137.2344 Q1828.4063,137.2344 1827.0781,135.5938 Q1825.7656,133.9375 1825.7656,130.8125 Q1825.7656,127.6875 1827.0781,126.0313 Q1828.4063,124.375 1830.9063,124.375 Q1831.6094,124.375 1832.25,124.5313 Q1832.9063,124.6875 1833.4688,124.9844 L1833.4688,127.7031 Q1832.8438,127.125 1832.25,126.8594 Q1831.6563,126.5781 1831.0313,126.5781 Q1829.6875,126.5781 1829,127.6563 Q1828.3125,128.7188 1828.3125,130.8125 Q1828.3125,132.9063 1829,133.9844 Q1829.6875,135.0469 1831.0313,135.0469 Q1831.6563,135.0469 1832.25,134.7813 Q1832.8438,134.5 1833.4688,133.9219 L1833.4688,136.6406 Z " fill="#000000"/><text fill="#000000" font-family="sans-serif" font-size="14" lengthAdjust="spacing" textLength="136.7324" x="1844.5" y="135.8467">SamplingProcedure</text><line style="stroke:#181818;stroke-width:0.5;" x1="1816.5" x2="1983.2324" y1="147" y2="147"/><line style="stroke:#181818;stroke-width:0.5;" x1="1816.5" x2="1983.2324" y1="155" y2="155"/></g><!--class Asset--><g class="entity" data-qualified-name="Asset" data-source-line="9" id="ent0020"><rect fill="#F1F1F1" height="48" rx="2.5" ry="2.5" style="stroke:#181818;stroke-width:0.5;" width="70.2676" x="2091" y="7"/><ellipse cx="2106" cy="23" fill="#ADD1B2" rx="11" ry="11" style="stroke:#181818;stroke-width:1;"/><path d="M2108.9688,28.6406 Q2108.3906,28.9375 2107.75,29.0781 Q2107.1094,29.2344 2106.4063,29.2344 Q2103.9063,29.2344 2102.5781,27.5938 Q2101.2656,25.9375 2101.2656,22.8125 Q2101.2656,19.6875 2102.5781,18.0313 Q2103.9063,16.375 2106.4063,16.375 Q2107.1094,16.375 2107.75,16.5313 Q2108.4063,16.6875 2108.9688,16.9844 L2108.9688,19.7031 Q2108.3438,19.125 2107.75,18.8594 Q2107.1563,18.5781 2106.5313,18.5781 Q2105.1875,18.5781 2104.5,19.6563 Q2103.8125,20.7188 2103.8125,22.8125 Q2103.8125,24.9063 2104.5,25.9844 Q2105.1875,27.0469 2106.5313,27.0469 Q2107.1563,27.0469 2107.75,26.7813 Q2108.3438,26.5 2108.9688,25.9219 L2108.9688,28.6406 Z " fill="#000000"/><text fill="#000000" font-family="sans-serif" font-size="14" lengthAdjust="spacing" textLength="38.2676" x="2120" y="27.8467">Asset</text><line style="stroke:#181818;stroke-width:0.5;" x1="2092" x2="2160.2676" y1="39" y2="39"/><line style="stroke:#181818;stroke-width:0.5;" x1="2092" x2="2160.2676" y1="47" y2="47"/></g><!--class Platform--><g class="entity" data-qualified-name="Platform" data-source-line="9" id="ent0021"><rect fill="#F1F1F1" height="48" rx="2.5" ry="2.5" style="stroke:#181818;stroke-width:0.5;" width="91.2881" x="2019.5" y="115"/><ellipse cx="2034.5" cy="131" fill="#ADD1B2" rx="11" ry="11" style="stroke:#181818;stroke-width:1;"/><path d="M2037.4688,136.6406 Q2036.8906,136.9375 2036.25,137.0781 Q2035.6094,137.2344 2034.9063,137.2344 Q2032.4063,137.2344 2031.0781,135.5938 Q2029.7656,133.9375 2029.7656,130.8125 Q2029.7656,127.6875 2031.0781,126.0313 Q2032.4063,124.375 2034.9063,124.375 Q2035.6094,124.375 2036.25,124.5313 Q2036.9063,124.6875 2037.4688,124.9844 L2037.4688,127.7031 Q2036.8438,127.125 2036.25,126.8594 Q2035.6563,126.5781 2035.0313,126.5781 Q2033.6875,126.5781 2033,127.6563 Q2032.3125,128.7188 2032.3125,130.8125 Q2032.3125,132.9063 2033,133.9844 Q2033.6875,135.0469 2035.0313,135.0469 Q2035.6563,135.0469 2036.25,134.7813 Q2036.8438,134.5 2037.4688,133.9219 L2037.4688,136.6406 Z " fill="#000000"/><text fill="#000000" font-family="sans-serif" font-size="14" lengthAdjust="spacing" textLength="59.2881" x="2048.5" y="135.8467">Platform</text><line style="stroke:#181818;stroke-width:0.5;" x1="2020.5" x2="2109.7881" y1="147" y2="147"/><line style="stroke:#181818;stroke-width:0.5;" x1="2020.5" x2="2109.7881" y1="155" y2="155"/></g><!--class System--><g class="entity" data-qualified-name="System" data-source-line="10" id="ent0023"><rect fill="#F1F1F1" height="48" rx="2.5" ry="2.5" style="stroke:#181818;stroke-width:0.5;" width="84.2061" x="2146" y="115"/><ellipse cx="2161" cy="131" fill="#ADD1B2" rx="11" ry="11" style="stroke:#181818;stroke-width:1;"/><path d="M2163.9688,136.6406 Q2163.3906,136.9375 2162.75,137.0781 Q2162.1094,137.2344 2161.4063,137.2344 Q2158.9063,137.2344 2157.5781,135.5938 Q2156.2656,133.9375 2156.2656,130.8125 Q2156.2656,127.6875 2157.5781,126.0313 Q2158.9063,124.375 2161.4063,124.375 Q2162.1094,124.375 2162.75,124.5313 Q2163.4063,124.6875 2163.9688,124.9844 L2163.9688,127.7031 Q2163.3438,127.125 2162.75,126.8594 Q2162.1563,126.5781 2161.5313,126.5781 Q2160.1875,126.5781 2159.5,127.6563 Q2158.8125,128.7188 2158.8125,130.8125 Q2158.8125,132.9063 2159.5,133.9844 Q2160.1875,135.0469 2161.5313,135.0469 Q2162.1563,135.0469 2162.75,134.7813 Q2163.3438,134.5 2163.9688,133.9219 L2163.9688,136.6406 Z " fill="#000000"/><text fill="#000000" font-family="sans-serif" font-size="14" lengthAdjust="spacing" textLength="52.2061" x="2175" y="135.8467">System</text><line style="stroke:#181818;stroke-width:0.5;" x1="2147" x2="2229.2061" y1="147" y2="147"/><line style="stroke:#181818;stroke-width:0.5;" x1="2147" x2="2229.2061" y1="155" y2="155"/></g><!--class Sampler--><g class="entity" data-qualified-name="Sampler" data-source-line="10" id="ent0024"><rect fill="#F1F1F1" height="48" rx="2.5" ry="2.5" style="stroke:#181818;stroke-width:0.5;" width="90.249" x="2017" y="223"/><ellipse cx="2032" cy="239" fill="#ADD1B2" rx="11" ry="11" style="stroke:#181818;stroke-width:1;"/><path d="M2034.9688,244.6406 Q2034.3906,244.9375 2033.75,245.0781 Q2033.1094,245.2344 2032.4063,245.2344 Q2029.9063,245.2344 2028.5781,243.5938 Q2027.2656,241.9375 2027.2656,238.8125 Q2027.2656,235.6875 2028.5781,234.0313 Q2029.9063,232.375 2032.4063,232.375 Q2033.1094,232.375 2033.75,232.5313 Q2034.4063,232.6875 2034.9688,232.9844 L2034.9688,235.7031 Q2034.3438,235.125 2033.75,234.8594 Q2033.1563,234.5781 2032.5313,234.5781 Q2031.1875,234.5781 2030.5,235.6563 Q2029.8125,236.7188 2029.8125,238.8125 Q2029.8125,240.9063 2030.5,241.9844 Q2031.1875,243.0469 2032.5313,243.0469 Q2033.1563,243.0469 2033.75,242.7813 Q2034.3438,242.5 2034.9688,241.9219 L2034.9688,244.6406 Z " fill="#000000"/><text fill="#000000" font-family="sans-serif" font-size="14" lengthAdjust="spacing" textLength="58.249" x="2046" y="243.8467">Sampler</text><line style="stroke:#181818;stroke-width:0.5;" x1="2018" x2="2106.249" y1="255" y2="255"/><line style="stroke:#181818;stroke-width:0.5;" x1="2018" x2="2106.249" y1="263" y2="263"/></g><!--class Actuator--><g class="entity" data-qualified-name="Actuator" data-source-line="11" id="ent0026"><rect fill="#F1F1F1" height="48" rx="2.5" ry="2.5" style="stroke:#181818;stroke-width:0.5;" width="92.0264" x="2142" y="223"/><ellipse cx="2157" cy="239" fill="#ADD1B2" rx="11" ry="11" style="stroke:#181818;stroke-width:1;"/><path d="M2159.9688,244.6406 Q2159.3906,244.9375 2158.75,245.0781 Q2158.1094,245.2344 2157.4063,245.2344 Q2154.9063,245.2344 2153.5781,243.5938 Q2152.2656,241.9375 2152.2656,238.8125 Q2152.2656,235.6875 2153.5781,234.0313 Q2154.9063,232.375 2157.4063,232.375 Q2158.1094,232.375 2158.75,232.5313 Q2159.4063,232.6875 2159.9688,232.9844 L2159.9688,235.7031 Q2159.3438,235.125 2158.75,234.8594 Q2158.1563,234.5781 2157.5313,234.5781 Q2156.1875,234.5781 2155.5,235.6563 Q2154.8125,236.7188 2154.8125,238.8125 Q2154.8125,240.9063 2155.5,241.9844 Q2156.1875,243.0469 2157.5313,243.0469 Q2158.1563,243.0469 2158.75,242.7813 Q2159.3438,242.5 2159.9688,241.9219 L2159.9688,244.6406 Z " fill="#000000"/><text fill="#000000" font-family="sans-serif" font-size="14" lengthAdjust="spacing" textLength="60.0264" x="2171" y="243.8467">Actuator</text><line style="stroke:#181818;stroke-width:0.5;" x1="2143" x2="2233.0264" y1="255" y2="255"/><line style="stroke:#181818;stroke-width:0.5;" x1="2143" x2="2233.0264" y1="263" y2="263"/></g><!--class Execution--><g class="entity" data-qualified-name="Execution" data-source-line="13" id="ent0029"><rect fill="#F1F1F1" height="48" rx="2.5" ry="2.5" style="stroke:#181818;stroke-width:0.5;" width="101.1318" x="2397.5" y="7"/><ellipse cx="2412.5" cy="23" fill="#ADD1B2" rx="11" ry="11" style="stroke:#181818;stroke-width:1;"/><path d="M2415.4688,28.6406 Q2414.8906,28.9375 2414.25,29.0781 Q2413.6094,29.2344 2412.9063,29.2344 Q2410.4063,29.2344 2409.0781,27.5938 Q2407.7656,25.9375 2407.7656,22.8125 Q2407.7656,19.6875 2409.0781,18.0313 Q2410.4063,16.375 2412.9063,16.375 Q2413.6094,16.375 2414.25,16.5313 Q2414.9063,16.6875 2415.4688,16.9844 L2415.4688,19.7031 Q2414.8438,19.125 2414.25,18.8594 Q2413.6563,18.5781 2413.0313,18.5781 Q2411.6875,18.5781 2411,19.6563 Q2410.3125,20.7188 2410.3125,22.8125 Q2410.3125,24.9063 2411,25.9844 Q2411.6875,27.0469 2413.0313,27.0469 Q2413.6563,27.0469 2414.25,26.7813 Q2414.8438,26.5 2415.4688,25.9219 L2415.4688,28.6406 Z " fill="#000000"/><text fill="#000000" font-family="sans-serif" font-size="14" lengthAdjust="spacing" textLength="69.1318" x="2426.5" y="27.8467">Execution</text><line style="stroke:#181818;stroke-width:0.5;" x1="2398.5" x2="2497.6318" y1="39" y2="39"/><line style="stroke:#181818;stroke-width:0.5;" x1="2398.5" x2="2497.6318" y1="47" y2="47"/></g><!--class Sampling--><g class="entity" data-qualified-name="Sampling" data-source-line="13" id="ent0030"><rect fill="#F1F1F1" height="48" rx="2.5" ry="2.5" style="stroke:#181818;stroke-width:0.5;" width="97.5293" x="2265" y="115"/><ellipse cx="2280" cy="131" fill="#ADD1B2" rx="11" ry="11" style="stroke:#181818;stroke-width:1;"/><path d="M2282.9688,136.6406 Q2282.3906,136.9375 2281.75,137.0781 Q2281.1094,137.2344 2280.4063,137.2344 Q2277.9063,137.2344 2276.5781,135.5938 Q2275.2656,133.9375 2275.2656,130.8125 Q2275.2656,127.6875 2276.5781,126.0313 Q2277.9063,124.375 2280.4063,124.375 Q2281.1094,124.375 2281.75,124.5313 Q2282.4063,124.6875 2282.9688,124.9844 L2282.9688,127.7031 Q2282.3438,127.125 2281.75,126.8594 Q2281.1563,126.5781 2280.5313,126.5781 Q2279.1875,126.5781 2278.5,127.6563 Q2277.8125,128.7188 2277.8125,130.8125 Q2277.8125,132.9063 2278.5,133.9844 Q2279.1875,135.0469 2280.5313,135.0469 Q2281.1563,135.0469 2281.75,134.7813 Q2282.3438,134.5 2282.9688,133.9219 L2282.9688,136.6406 Z " fill="#000000"/><text fill="#000000" font-family="sans-serif" font-size="14" lengthAdjust="spacing" textLength="65.5293" x="2294" y="135.8467">Sampling</text><line style="stroke:#181818;stroke-width:0.5;" x1="2266" x2="2361.5293" y1="147" y2="147"/><line style="stroke:#181818;stroke-width:0.5;" x1="2266" x2="2361.5293" y1="155" y2="155"/></g><!--class ExecutionCollection--><g class="entity" data-qualified-name="ExecutionCollection" data-source-line="14" id="ent0032"><rect fill="#F1F1F1" height="48" rx="2.5" ry="2.5" style="stroke:#181818;stroke-width:0.5;" width="170.3799" x="2885" y="7"/><ellipse cx="2900" cy="23" fill="#ADD1B2" rx="11" ry="11" style="stroke:#181818;stroke-width:1;"/><path d="M2902.9688,28.6406 Q2902.3906,28.9375 2901.75,29.0781 Q2901.1094,29.2344 2900.4063,29.2344 Q2897.9063,29.2344 2896.5781,27.5938 Q2895.2656,25.9375 2895.2656,22.8125 Q2895.2656,19.6875 2896.5781,18.0313 Q2897.9063,16.375 2900.4063,16.375 Q2901.1094,16.375 2901.75,16.5313 Q2902.4063,16.6875 2902.9688,16.9844 L2902.9688,19.7031 Q2902.3438,19.125 2901.75,18.8594 Q2901.1563,18.5781 2900.5313,18.5781 Q2899.1875,18.5781 2898.5,19.6563 Q2897.8125,20.7188 2897.8125,22.8125 Q2897.8125,24.9063 2898.5,25.9844 Q2899.1875,27.0469 2900.5313,27.0469 Q2901.1563,27.0469 2901.75,26.7813 Q2902.3438,26.5 2902.9688,25.9219 L2902.9688,28.6406 Z " fill="#000000"/><text fill="#000000" font-family="sans-serif" font-size="14" lengthAdjust="spacing" textLength="138.3799" x="2914" y="27.8467">ExecutionCollection</text><line style="stroke:#181818;stroke-width:0.5;" x1="2886" x2="3054.3799" y1="39" y2="39"/><line style="stroke:#181818;stroke-width:0.5;" x1="2886" x2="3054.3799" y1="47" y2="47"/></g><!--class SamplingCollection--><g class="entity" data-qualified-name="SamplingCollection" data-source-line="14" id="ent0033"><rect fill="#F1F1F1" height="48" rx="2.5" ry="2.5" style="stroke:#181818;stroke-width:0.5;" width="166.7773" x="2684.5" y="115"/><ellipse cx="2699.5" cy="131" fill="#ADD1B2" rx="11" ry="11" style="stroke:#181818;stroke-width:1;"/><path d="M2702.4688,136.6406 Q2701.8906,136.9375 2701.25,137.0781 Q2700.6094,137.2344 2699.9063,137.2344 Q2697.4063,137.2344 2696.0781,135.5938 Q2694.7656,133.9375 2694.7656,130.8125 Q2694.7656,127.6875 2696.0781,126.0313 Q2697.4063,124.375 2699.9063,124.375 Q2700.6094,124.375 2701.25,124.5313 Q2701.9063,124.6875 2702.4688,124.9844 L2702.4688,127.7031 Q2701.8438,127.125 2701.25,126.8594 Q2700.6563,126.5781 2700.0313,126.5781 Q2698.6875,126.5781 2698,127.6563 Q2697.3125,128.7188 2697.3125,130.8125 Q2697.3125,132.9063 2698,133.9844 Q2698.6875,135.0469 2700.0313,135.0469 Q2700.6563,135.0469 2701.25,134.7813 Q2701.8438,134.5 2702.4688,133.9219 L2702.4688,136.6406 Z " fill="#000000"/><text fill="#000000" font-family="sans-serif" font-size="14" lengthAdjust="spacing" textLength="134.7773" x="2713.5" y="135.8467">SamplingCollection</text><line style="stroke:#181818;stroke-width:0.5;" x1="2685.5" x2="2850.2773" y1="147" y2="147"/><line style="stroke:#181818;stroke-width:0.5;" x1="2685.5" x2="2850.2773" y1="155" y2="155"/></g><!--class Actuation--><g class="entity" data-qualified-name="Actuation" data-source-line="15" id="ent0035"><rect fill="#F1F1F1" height="48" rx="2.5" ry="2.5" style="stroke:#181818;stroke-width:0.5;" width="99.0332" x="2398.5" y="115"/><ellipse cx="2413.5" cy="131" fill="#ADD1B2" rx="11" ry="11" style="stroke:#181818;stroke-width:1;"/><path d="M2416.4688,136.6406 Q2415.8906,136.9375 2415.25,137.0781 Q2414.6094,137.2344 2413.9063,137.2344 Q2411.4063,137.2344 2410.0781,135.5938 Q2408.7656,133.9375 2408.7656,130.8125 Q2408.7656,127.6875 2410.0781,126.0313 Q2411.4063,124.375 2413.9063,124.375 Q2414.6094,124.375 2415.25,124.5313 Q2415.9063,124.6875 2416.4688,124.9844 L2416.4688,127.7031 Q2415.8438,127.125 2415.25,126.8594 Q2414.6563,126.5781 2414.0313,126.5781 Q2412.6875,126.5781 2412,127.6563 Q2411.3125,128.7188 2411.3125,130.8125 Q2411.3125,132.9063 2412,133.9844 Q2412.6875,135.0469 2414.0313,135.0469 Q2414.6563,135.0469 2415.25,134.7813 Q2415.8438,134.5 2416.4688,133.9219 L2416.4688,136.6406 Z " fill="#000000"/><text fill="#000000" font-family="sans-serif" font-size="14" lengthAdjust="spacing" textLength="67.0332" x="2427.5" y="135.8467">Actuation</text><line style="stroke:#181818;stroke-width:0.5;" x1="2399.5" x2="2496.5332" y1="147" y2="147"/><line style="stroke:#181818;stroke-width:0.5;" x1="2399.5" x2="2496.5332" y1="155" y2="155"/></g><!--class Sensor--><g class="entity" data-qualified-name="Sensor" data-source-line="16" id="ent0037"><rect fill="#F1F1F1" height="48" rx="2.5" ry="2.5" style="stroke:#181818;stroke-width:0.5;" width="79.9883" x="2269" y="223"/><ellipse cx="2284" cy="239" fill="#ADD1B2" rx="11" ry="11" style="stroke:#181818;stroke-width:1;"/><path d="M2286.9688,244.6406 Q2286.3906,244.9375 2285.75,245.0781 Q2285.1094,245.2344 2284.4063,245.2344 Q2281.9063,245.2344 2280.5781,243.5938 Q2279.2656,241.9375 2279.2656,238.8125 Q2279.2656,235.6875 2280.5781,234.0313 Q2281.9063,232.375 2284.4063,232.375 Q2285.1094,232.375 2285.75,232.5313 Q2286.4063,232.6875 2286.9688,232.9844 L2286.9688,235.7031 Q2286.3438,235.125 2285.75,234.8594 Q2285.1563,234.5781 2284.5313,234.5781 Q2283.1875,234.5781 2282.5,235.6563 Q2281.8125,236.7188 2281.8125,238.8125 Q2281.8125,240.9063 2282.5,241.9844 Q2283.1875,243.0469 2284.5313,243.0469 Q2285.1563,243.0469 2285.75,242.7813 Q2286.3438,242.5 2286.9688,241.9219 L2286.9688,244.6406 Z " fill="#000000"/><text fill="#000000" font-family="sans-serif" font-size="14" lengthAdjust="spacing" textLength="47.9883" x="2298" y="243.8467">Sensor</text><line style="stroke:#181818;stroke-width:0.5;" x1="2270" x2="2347.9883" y1="255" y2="255"/><line style="stroke:#181818;stroke-width:0.5;" x1="2270" x2="2347.9883" y1="263" y2="263"/></g><!--class ActuationCollection--><g class="entity" data-qualified-name="ActuationCollection" data-source-line="17" id="ent0039"><rect fill="#F1F1F1" height="48" rx="2.5" ry="2.5" style="stroke:#181818;stroke-width:0.5;" width="168.2813" x="2886" y="115"/><ellipse cx="2901" cy="131" fill="#ADD1B2" rx="11" ry="11" style="stroke:#181818;stroke-width:1;"/><path d="M2903.9688,136.6406 Q2903.3906,136.9375 2902.75,137.0781 Q2902.1094,137.2344 2901.4063,137.2344 Q2898.9063,137.2344 2897.5781,135.5938 Q2896.2656,133.9375 2896.2656,130.8125 Q2896.2656,127.6875 2897.5781,126.0313 Q2898.9063,124.375 2901.4063,124.375 Q2902.1094,124.375 2902.75,124.5313 Q2903.4063,124.6875 2903.9688,124.9844 L2903.9688,127.7031 Q2903.3438,127.125 2902.75,126.8594 Q2902.1563,126.5781 2901.5313,126.5781 Q2900.1875,126.5781 2899.5,127.6563 Q2898.8125,128.7188 2898.8125,130.8125 Q2898.8125,132.9063 2899.5,133.9844 Q2900.1875,135.0469 2901.5313,135.0469 Q2902.1563,135.0469 2902.75,134.7813 Q2903.3438,134.5 2903.9688,133.9219 L2903.9688,136.6406 Z " fill="#000000"/><text fill="#000000" font-family="sans-serif" font-size="14" lengthAdjust="spacing" textLength="136.2813" x="2915" y="135.8467">ActuationCollection</text><line style="stroke:#181818;stroke-width:0.5;" x1="2887" x2="3053.2813" y1="147" y2="147"/><line style="stroke:#181818;stroke-width:0.5;" x1="2887" x2="3053.2813" y1="155" y2="155"/></g><!--class ObservationCollection--><g class="entity" data-qualified-name="ObservationCollection" data-source-line="18" id="ent0041"><rect fill="#F1F1F1" height="48" rx="2.5" ry="2.5" style="stroke:#181818;stroke-width:0.5;" width="186.499" x="3089" y="115"/><ellipse cx="3104" cy="131" fill="#ADD1B2" rx="11" ry="11" style="stroke:#181818;stroke-width:1;"/><path d="M3106.9688,136.6406 Q3106.3906,136.9375 3105.75,137.0781 Q3105.1094,137.2344 3104.4063,137.2344 Q3101.9063,137.2344 3100.5781,135.5938 Q3099.2656,133.9375 3099.2656,130.8125 Q3099.2656,127.6875 3100.5781,126.0313 Q3101.9063,124.375 3104.4063,124.375 Q3105.1094,124.375 3105.75,124.5313 Q3106.4063,124.6875 3106.9688,124.9844 L3106.9688,127.7031 Q3106.3438,127.125 3105.75,126.8594 Q3105.1563,126.5781 3104.5313,126.5781 Q3103.1875,126.5781 3102.5,127.6563 Q3101.8125,128.7188 3101.8125,130.8125 Q3101.8125,132.9063 3102.5,133.9844 Q3103.1875,135.0469 3104.5313,135.0469 Q3105.1563,135.0469 3105.75,134.7813 Q3106.3438,134.5 3106.9688,133.9219 L3106.9688,136.6406 Z " fill="#000000"/><text fill="#000000" font-family="sans-serif" font-size="14" lengthAdjust="spacing" textLength="154.499" x="3118" y="135.8467">ObservationCollection</text><line style="stroke:#181818;stroke-width:0.5;" x1="3090" x2="3274.499" y1="147" y2="147"/><line style="stroke:#181818;stroke-width:0.5;" x1="3090" x2="3274.499" y1="155" y2="155"/></g><!--class Observation--><g class="entity" data-qualified-name="Observation" data-source-line="19" id="ent0043"><rect fill="#F1F1F1" height="48" rx="2.5" ry="2.5" style="stroke:#181818;stroke-width:0.5;" width="117.251" x="2532.5" y="115"/><ellipse cx="2547.5" cy="131" fill="#ADD1B2" rx="11" ry="11" style="stroke:#181818;stroke-width:1;"/><path d="M2550.4688,136.6406 Q2549.8906,136.9375 2549.25,137.0781 Q2548.6094,137.2344 2547.9063,137.2344 Q2545.4063,137.2344 2544.0781,135.5938 Q2542.7656,133.9375 2542.7656,130.8125 Q2542.7656,127.6875 2544.0781,126.0313 Q2545.4063,124.375 2547.9063,124.375 Q2548.6094,124.375 2549.25,124.5313 Q2549.9063,124.6875 2550.4688,124.9844 L2550.4688,127.7031 Q2549.8438,127.125 2549.25,126.8594 Q2548.6563,126.5781 2548.0313,126.5781 Q2546.6875,126.5781 2546,127.6563 Q2545.3125,128.7188 2545.3125,130.8125 Q2545.3125,132.9063 2546,133.9844 Q2546.6875,135.0469 2548.0313,135.0469 Q2548.6563,135.0469 2549.25,134.7813 Q2549.8438,134.5 2550.4688,133.9219 L2550.4688,136.6406 Z " fill="#000000"/><text fill="#000000" font-family="sans-serif" font-size="14" lengthAdjust="spacing" textLength="85.251" x="2561.5" y="135.8467">Observation</text><line style="stroke:#181818;stroke-width:0.5;" x1="2533.5" x2="2648.751" y1="147" y2="147"/><line style="stroke:#181818;stroke-width:0.5;" x1="2533.5" x2="2648.751" y1="155" y2="155"/></g><!--class Deployment--><g class="entity" data-qualified-name="Deployment" data-source-line="20" id="ent0045"><rect fill="#F1F1F1" height="48" rx="2.5" ry="2.5" style="stroke:#181818;stroke-width:0.5;" width="117.6338" x="7" y="7"/><ellipse cx="22" cy="23" fill="#ADD1B2" rx="11" ry="11" style="stroke:#181818;stroke-width:1;"/><path d="M24.9688,28.6406 Q24.3906,28.9375 23.75,29.0781 Q23.1094,29.2344 22.4063,29.2344 Q19.9063,29.2344 18.5781,27.5938 Q17.2656,25.9375 17.2656,22.8125 Q17.2656,19.6875 18.5781,18.0313 Q19.9063,16.375 22.4063,16.375 Q23.1094,16.375 23.75,16.5313 Q24.4063,16.6875 24.9688,16.9844 L24.9688,19.7031 Q24.3438,19.125 23.75,18.8594 Q23.1563,18.5781 22.5313,18.5781 Q21.1875,18.5781 20.5,19.6563 Q19.8125,20.7188 19.8125,22.8125 Q19.8125,24.9063 20.5,25.9844 Q21.1875,27.0469 22.5313,27.0469 Q23.1563,27.0469 23.75,26.7813 Q24.3438,26.5 24.9688,25.9219 L24.9688,28.6406 Z " fill="#000000"/><text fill="#000000" font-family="sans-serif" font-size="14" lengthAdjust="spacing" textLength="85.6338" x="36" y="27.8467">Deployment</text><line style="stroke:#181818;stroke-width:0.5;" x1="8" x2="123.6338" y1="39" y2="39"/><line style="stroke:#181818;stroke-width:0.5;" x1="8" x2="123.6338" y1="47" y2="47"/></g><!--class Result--><g class="entity" data-qualified-name="Result" data-source-line="21" id="ent0046"><rect fill="#F1F1F1" height="48" rx="2.5" ry="2.5" style="stroke:#181818;stroke-width:0.5;" width="75.8867" x="160" y="7"/><ellipse cx="175" cy="23" fill="#ADD1B2" rx="11" ry="11" style="stroke:#181818;stroke-width:1;"/><path d="M177.9688,28.6406 Q177.3906,28.9375 176.75,29.0781 Q176.1094,29.2344 175.4063,29.2344 Q172.9063,29.2344 171.5781,27.5938 Q170.2656,25.9375 170.2656,22.8125 Q170.2656,19.6875 171.5781,18.0313 Q172.9063,16.375 175.4063,16.375 Q176.1094,16.375 176.75,16.5313 Q177.4063,16.6875 177.9688,16.9844 L177.9688,19.7031 Q177.3438,19.125 176.75,18.8594 Q176.1563,18.5781 175.5313,18.5781 Q174.1875,18.5781 173.5,19.6563 Q172.8125,20.7188 172.8125,22.8125 Q172.8125,24.9063 173.5,25.9844 Q174.1875,27.0469 175.5313,27.0469 Q176.1563,27.0469 176.75,26.7813 Q177.3438,26.5 177.9688,25.9219 L177.9688,28.6406 Z " fill="#000000"/><text fill="#000000" font-family="sans-serif" font-size="14" lengthAdjust="spacing" textLength="43.8867" x="189" y="27.8467">Result</text><line style="stroke:#181818;stroke-width:0.5;" x1="161" x2="234.8867" y1="39" y2="39"/><line style="stroke:#181818;stroke-width:0.5;" x1="161" x2="234.8867" y1="47" y2="47"/></g><!--class SampleCollection--><g class="entity" data-qualified-name="SampleCollection" data-source-line="23" id="ent0047"><rect fill="#F1F1F1" height="48" rx="2.5" ry="2.5" style="stroke:#181818;stroke-width:0.5;" width="153.7412" x="271" y="7"/><ellipse cx="286" cy="23" fill="#ADD1B2" rx="11" ry="11" style="stroke:#181818;stroke-width:1;"/><path d="M288.9688,28.6406 Q288.3906,28.9375 287.75,29.0781 Q287.1094,29.2344 286.4063,29.2344 Q283.9063,29.2344 282.5781,27.5938 Q281.2656,25.9375 281.2656,22.8125 Q281.2656,19.6875 282.5781,18.0313 Q283.9063,16.375 286.4063,16.375 Q287.1094,16.375 287.75,16.5313 Q288.4063,16.6875 288.9688,16.9844 L288.9688,19.7031 Q288.3438,19.125 287.75,18.8594 Q287.1563,18.5781 286.5313,18.5781 Q285.1875,18.5781 284.5,19.6563 Q283.8125,20.7188 283.8125,22.8125 Q283.8125,24.9063 284.5,25.9844 Q285.1875,27.0469 286.5313,27.0469 Q287.1563,27.0469 287.75,26.7813 Q288.3438,26.5 288.9688,25.9219 L288.9688,28.6406 Z " fill="#000000"/><text fill="#000000" font-family="sans-serif" font-size="14" lengthAdjust="spacing" textLength="121.7412" x="300" y="27.8467">SampleCollection</text><line style="stroke:#181818;stroke-width:0.5;" x1="272" x2="423.7412" y1="39" y2="39"/><line style="stroke:#181818;stroke-width:0.5;" x1="272" x2="423.7412" y1="47" y2="47"/></g><!--class Stimulus--><g class="entity" data-qualified-name="Stimulus" data-source-line="24" id="ent0048"><rect fill="#F1F1F1" height="48" rx="2.5" ry="2.5" style="stroke:#181818;stroke-width:0.5;" width="92.833" x="19.5" y="115"/><ellipse cx="34.5" cy="131" fill="#ADD1B2" rx="11" ry="11" style="stroke:#181818;stroke-width:1;"/><path d="M37.4688,136.6406 Q36.8906,136.9375 36.25,137.0781 Q35.6094,137.2344 34.9063,137.2344 Q32.4063,137.2344 31.0781,135.5938 Q29.7656,133.9375 29.7656,130.8125 Q29.7656,127.6875 31.0781,126.0313 Q32.4063,124.375 34.9063,124.375 Q35.6094,124.375 36.25,124.5313 Q36.9063,124.6875 37.4688,124.9844 L37.4688,127.7031 Q36.8438,127.125 36.25,126.8594 Q35.6563,126.5781 35.0313,126.5781 Q33.6875,126.5781 33,127.6563 Q32.3125,128.7188 32.3125,130.8125 Q32.3125,132.9063 33,133.9844 Q33.6875,135.0469 35.0313,135.0469 Q35.6563,135.0469 36.25,134.7813 Q36.8438,134.5 37.4688,133.9219 L37.4688,136.6406 Z " fill="#000000"/><text fill="#000000" font-family="sans-serif" font-size="14" lengthAdjust="spacing" textLength="60.833" x="48.5" y="135.8467">Stimulus</text><line style="stroke:#181818;stroke-width:0.5;" x1="20.5" x2="111.333" y1="147" y2="147"/><line style="stroke:#181818;stroke-width:0.5;" x1="20.5" x2="111.333" y1="155" y2="155"/></g><!--class FeatureOfInterest--><g class="entity" data-qualified-name="FeatureOfInterest" data-source-line="26" id="ent0049"><rect fill="#F1F1F1" height="48" rx="2.5" ry="2.5" style="stroke:#181818;stroke-width:0.5;" width="156.1816" x="148" y="115"/><ellipse cx="163" cy="131" fill="#ADD1B2" rx="11" ry="11" style="stroke:#181818;stroke-width:1;"/><path d="M165.9688,136.6406 Q165.3906,136.9375 164.75,137.0781 Q164.1094,137.2344 163.4063,137.2344 Q160.9063,137.2344 159.5781,135.5938 Q158.2656,133.9375 158.2656,130.8125 Q158.2656,127.6875 159.5781,126.0313 Q160.9063,124.375 163.4063,124.375 Q164.1094,124.375 164.75,124.5313 Q165.4063,124.6875 165.9688,124.9844 L165.9688,127.7031 Q165.3438,127.125 164.75,126.8594 Q164.1563,126.5781 163.5313,126.5781 Q162.1875,126.5781 161.5,127.6563 Q160.8125,128.7188 160.8125,130.8125 Q160.8125,132.9063 161.5,133.9844 Q162.1875,135.0469 163.5313,135.0469 Q164.1563,135.0469 164.75,134.7813 Q165.3438,134.5 165.9688,133.9219 L165.9688,136.6406 Z " fill="#000000"/><text fill="#000000" font-family="sans-serif" font-size="14" lengthAdjust="spacing" textLength="124.1816" x="177" y="135.8467">FeatureOfInterest</text><line style="stroke:#181818;stroke-width:0.5;" x1="149" x2="303.1816" y1="147" y2="147"/><line style="stroke:#181818;stroke-width:0.5;" x1="149" x2="303.1816" y1="155" y2="155"/></g><!--class Output--><g class="entity" data-qualified-name="Output" data-source-line="27" id="ent0050"><rect fill="#F1F1F1" height="48" rx="2.5" ry="2.5" style="stroke:#181818;stroke-width:0.5;" width="80.6309" x="339.5" y="115"/><ellipse cx="354.5" cy="131" fill="#ADD1B2" rx="11" ry="11" style="stroke:#181818;stroke-width:1;"/><path d="M357.4688,136.6406 Q356.8906,136.9375 356.25,137.0781 Q355.6094,137.2344 354.9063,137.2344 Q352.4063,137.2344 351.0781,135.5938 Q349.7656,133.9375 349.7656,130.8125 Q349.7656,127.6875 351.0781,126.0313 Q352.4063,124.375 354.9063,124.375 Q355.6094,124.375 356.25,124.5313 Q356.9063,124.6875 357.4688,124.9844 L357.4688,127.7031 Q356.8438,127.125 356.25,126.8594 Q355.6563,126.5781 355.0313,126.5781 Q353.6875,126.5781 353,127.6563 Q352.3125,128.7188 352.3125,130.8125 Q352.3125,132.9063 353,133.9844 Q353.6875,135.0469 355.0313,135.0469 Q355.6563,135.0469 356.25,134.7813 Q356.8438,134.5 357.4688,133.9219 L357.4688,136.6406 Z " fill="#000000"/><text fill="#000000" font-family="sans-serif" font-size="14" lengthAdjust="spacing" textLength="48.6309" x="368.5" y="135.8467">Output</text><line style="stroke:#181818;stroke-width:0.5;" x1="340.5" x2="419.1309" y1="147" y2="147"/><line style="stroke:#181818;stroke-width:0.5;" x1="340.5" x2="419.1309" y1="155" y2="155"/></g><!--class Input--><g class="entity" data-qualified-name="Input" data-source-line="30" id="ent0051"><rect fill="#F1F1F1" height="48" rx="2.5" ry="2.5" style="stroke:#181818;stroke-width:0.5;" width="68.251" x="32" y="223"/><ellipse cx="47" cy="239" fill="#ADD1B2" rx="11" ry="11" style="stroke:#181818;stroke-width:1;"/><path d="M49.9688,244.6406 Q49.3906,244.9375 48.75,245.0781 Q48.1094,245.2344 47.4063,245.2344 Q44.9063,245.2344 43.5781,243.5938 Q42.2656,241.9375 42.2656,238.8125 Q42.2656,235.6875 43.5781,234.0313 Q44.9063,232.375 47.4063,232.375 Q48.1094,232.375 48.75,232.5313 Q49.4063,232.6875 49.9688,232.9844 L49.9688,235.7031 Q49.3438,235.125 48.75,234.8594 Q48.1563,234.5781 47.5313,234.5781 Q46.1875,234.5781 45.5,235.6563 Q44.8125,236.7188 44.8125,238.8125 Q44.8125,240.9063 45.5,241.9844 Q46.1875,243.0469 47.5313,243.0469 Q48.1563,243.0469 48.75,242.7813 Q49.3438,242.5 49.9688,241.9219 L49.9688,244.6406 Z " fill="#000000"/><text fill="#000000" font-family="sans-serif" font-size="14" lengthAdjust="spacing" textLength="36.251" x="61" y="243.8467">Input</text><line style="stroke:#181818;stroke-width:0.5;" x1="33" x2="99.251" y1="255" y2="255"/><line style="stroke:#181818;stroke-width:0.5;" x1="33" x2="99.251" y1="263" y2="263"/></g><!--reverse link Property to ActuatableProperty--><g class="link" data-entity-1="ent0001" data-entity-2="ent0002" data-link-type="extension" data-source-line="1" id="lnk3"><path codeLine="1" d="M606.3905,67.9716 C589.4005,85.6316 578.51,96.94 561.44,114.68" fill="none" id="Property-backto-ActuatableProperty" style="stroke:#181818;stroke-width:1;"/><polygon fill="none" points="618.87,55,602.0667,63.8118,610.7144,72.1314,618.87,55" style="stroke:#181818;stroke-width:1;stroke-linejoin:miter;stroke-miterlimit:10;"/></g><!--reverse link Sample to MaterialSample--><g class="link" data-entity-1="ent0004" data-entity-2="ent0005" data-link-type="extension" data-source-line="2" id="lnk6"><path codeLine="2" d="M1055.3567,64.4445 C1026.6067,82.1645 1002.35,97.11 973.55,114.86" fill="none" id="Sample-backto-MaterialSample" style="stroke:#181818;stroke-width:1;"/><polygon fill="none" points="1070.68,55,1052.2086,59.3367,1058.5049,69.5522,1070.68,55" style="stroke:#181818;stroke-width:1;stroke-linejoin:miter;stroke-miterlimit:10;"/></g><!--reverse link Sample to SpatialSample--><g class="link" data-entity-1="ent0004" data-entity-2="ent0007" data-link-type="extension" data-source-line="3" id="lnk8"><path codeLine="3" d="M1108,73 C1108,90.66 1108,96.94 1108,114.68" fill="none" id="Sample-backto-SpatialSample" style="stroke:#181818;stroke-width:1;"/><polygon fill="none" points="1108,55,1102,73,1114,73,1108,55" style="stroke:#181818;stroke-width:1;stroke-linejoin:miter;stroke-miterlimit:10;"/></g><!--reverse link Sample to StatisticalSample--><g class="link" data-entity-1="ent0004" data-entity-2="ent0009" data-link-type="extension" data-source-line="4" id="lnk10"><path codeLine="4" d="M1162.3276,64.1725 C1192.2476,81.8925 1217.95,97.11 1247.93,114.86" fill="none" id="Sample-backto-StatisticalSample" style="stroke:#181818;stroke-width:1;"/><polygon fill="none" points="1146.84,55,1159.2701,69.335,1165.3851,59.0099,1146.84,55" style="stroke:#181818;stroke-width:1;stroke-linejoin:miter;stroke-miterlimit:10;"/></g><!--reverse link Property to ObservableProperty--><g class="link" data-entity-1="ent0001" data-entity-2="ent0011" data-link-type="extension" data-source-line="5" id="lnk12"><path codeLine="5" d="M675.8939,67.9094 C693.0539,85.5694 704.1,96.94 721.34,114.68" fill="none" id="Property-backto-ObservableProperty" style="stroke:#181818;stroke-width:1;"/><polygon fill="none" points="663.35,55,671.5907,72.0906,680.197,63.7281,663.35,55" style="stroke:#181818;stroke-width:1;stroke-linejoin:miter;stroke-miterlimit:10;"/></g><!--reverse link Procedure to ActuatingProcedure--><g class="link" data-entity-1="ent0013" data-entity-2="ent0014" data-link-type="extension" data-source-line="6" id="lnk15"><path codeLine="6" d="M1631.8326,63.1732 C1597.0626,80.8932 1565.24,97.11 1530.4,114.86" fill="none" id="Procedure-backto-ActuatingProcedure" style="stroke:#181818;stroke-width:1;"/><polygon fill="none" points="1647.87,55,1629.1082,57.8274,1634.557,68.519,1647.87,55" style="stroke:#181818;stroke-width:1;stroke-linejoin:miter;stroke-miterlimit:10;"/></g><!--reverse link Procedure to ObservingProcedure--><g class="link" data-entity-1="ent0013" data-entity-2="ent0016" data-link-type="extension" data-source-line="7" id="lnk17"><path codeLine="7" d="M1693,73 C1693,90.66 1693,96.94 1693,114.68" fill="none" id="Procedure-backto-ObservingProcedure" style="stroke:#181818;stroke-width:1;"/><polygon fill="none" points="1693,55,1687,73,1699,73,1693,55" style="stroke:#181818;stroke-width:1;stroke-linejoin:miter;stroke-miterlimit:10;"/></g><!--reverse link Procedure to SamplingProcedure--><g class="link" data-entity-1="ent0013" data-entity-2="ent0018" data-link-type="extension" data-source-line="8" id="lnk19"><path codeLine="8" d="M1753.9411,63.205 C1788.5411,80.925 1820.15,97.11 1854.81,114.86" fill="none" id="Procedure-backto-SamplingProcedure" style="stroke:#181818;stroke-width:1;"/><polygon fill="none" points="1737.92,55,1751.2061,68.5454,1756.6762,57.8647,1737.92,55" style="stroke:#181818;stroke-width:1;stroke-linejoin:miter;stroke-miterlimit:10;"/></g><!--reverse link Asset to Platform--><g class="link" data-entity-1="ent0020" data-entity-2="ent0021" data-link-type="extension" data-source-line="9" id="lnk22"><path codeLine="9" d="M2103.7839,70.6022 C2093.6239,88.2622 2088.63,96.94 2078.42,114.68" fill="none" id="Asset-backto-Platform" style="stroke:#181818;stroke-width:1;"/><polygon fill="none" points="2112.76,55,2098.5831,67.6102,2108.9846,73.5943,2112.76,55" style="stroke:#181818;stroke-width:1;stroke-linejoin:miter;stroke-miterlimit:10;"/></g><!--reverse link System to Sampler--><g class="link" data-entity-1="ent0023" data-entity-2="ent0024" data-link-type="extension" data-source-line="10" id="lnk25"><path codeLine="10" d="M2146.8865,174.5884 C2125.8965,192.2484 2110.81,204.94 2089.72,222.68" fill="none" id="System-backto-Sampler" style="stroke:#181818;stroke-width:1;"/><polygon fill="none" points="2160.66,163,2143.0237,169.9972,2150.7493,179.1795,2160.66,163" style="stroke:#181818;stroke-width:1;stroke-linejoin:miter;stroke-miterlimit:10;"/></g><!--reverse link System to Actuator--><g class="link" data-entity-1="ent0023" data-entity-2="ent0026" data-link-type="extension" data-source-line="11" id="lnk27"><path codeLine="11" d="M2188,181 C2188,198.66 2188,204.94 2188,222.68" fill="none" id="System-backto-Actuator" style="stroke:#181818;stroke-width:1;"/><polygon fill="none" points="2188,163,2182,181,2194,181,2188,163" style="stroke:#181818;stroke-width:1;stroke-linejoin:miter;stroke-miterlimit:10;"/></g><!--reverse link Asset to System--><g class="link" data-entity-1="ent0020" data-entity-2="ent0023" data-link-type="extension" data-source-line="12" id="lnk28"><path codeLine="12" d="M2148.5383,70.5372 C2158.8683,88.1972 2163.98,96.94 2174.36,114.68" fill="none" id="Asset-backto-System" style="stroke:#181818;stroke-width:1;"/><polygon fill="none" points="2139.45,55,2143.3592,73.5666,2153.7173,67.5077,2139.45,55" style="stroke:#181818;stroke-width:1;stroke-linejoin:miter;stroke-miterlimit:10;"/></g><!--reverse link Execution to Sampling--><g class="link" data-entity-1="ent0029" data-entity-2="ent0030" data-link-type="extension" data-source-line="13" id="lnk31"><path codeLine="13" d="M2404.8041,66.1688 C2382.4841,83.8288 2365.91,96.94 2343.48,114.68" fill="none" id="Execution-backto-Sampling" style="stroke:#181818;stroke-width:1;"/><polygon fill="none" points="2418.92,55,2401.0812,61.4635,2408.527,70.8741,2418.92,55" style="stroke:#181818;stroke-width:1;stroke-linejoin:miter;stroke-miterlimit:10;"/></g><!--reverse link ExecutionCollection to SamplingCollection--><g class="link" data-entity-1="ent0032" data-entity-2="ent0033" data-link-type="extension" data-source-line="14" id="lnk34"><path codeLine="14" d="M2910.231,63.3636 C2876.461,81.0836 2845.93,97.11 2812.09,114.86" fill="none" id="ExecutionCollection-backto-SamplingCollection" style="stroke:#181818;stroke-width:1;"/><polygon fill="none" points="2926.17,55,2907.4432,58.0506,2913.0189,68.6766,2926.17,55" style="stroke:#181818;stroke-width:1;stroke-linejoin:miter;stroke-miterlimit:10;"/></g><!--reverse link Execution to Actuation--><g class="link" data-entity-1="ent0029" data-entity-2="ent0035" data-link-type="extension" data-source-line="15" id="lnk36"><path codeLine="15" d="M2448,73 C2448,90.66 2448,96.94 2448,114.68" fill="none" id="Execution-backto-Actuation" style="stroke:#181818;stroke-width:1;"/><polygon fill="none" points="2448,55,2442,73,2454,73,2448,55" style="stroke:#181818;stroke-width:1;stroke-linejoin:miter;stroke-miterlimit:10;"/></g><!--reverse link System to Sensor--><g class="link" data-entity-1="ent0023" data-entity-2="ent0037" data-link-type="extension" data-source-line="16" id="lnk38"><path codeLine="16" d="M2227.7968,174.864 C2247.9468,192.524 2262.13,204.94 2282.38,222.68" fill="none" id="System-backto-Sensor" style="stroke:#181818;stroke-width:1;"/><polygon fill="none" points="2214.26,163,2223.8421,179.3763,2231.7515,170.3518,2214.26,163" style="stroke:#181818;stroke-width:1;stroke-linejoin:miter;stroke-miterlimit:10;"/></g><!--reverse link ExecutionCollection to ActuationCollection--><g class="link" data-entity-1="ent0032" data-entity-2="ent0039" data-link-type="extension" data-source-line="17" id="lnk40"><path codeLine="17" d="M2970,73 C2970,90.66 2970,96.94 2970,114.68" fill="none" id="ExecutionCollection-backto-ActuationCollection" style="stroke:#181818;stroke-width:1;"/><polygon fill="none" points="2970,55,2964,73,2976,73,2970,55" style="stroke:#181818;stroke-width:1;stroke-linejoin:miter;stroke-miterlimit:10;"/></g><!--reverse link ExecutionCollection to ObservationCollection--><g class="link" data-entity-1="ent0032" data-entity-2="ent0041" data-link-type="extension" data-source-line="18" id="lnk42"><path codeLine="18" d="M3032.0997,63.0498 C3067.5397,80.7698 3100.22,97.11 3135.72,114.86" fill="none" id="ExecutionCollection-backto-ObservationCollection" style="stroke:#181818;stroke-width:1;"/><polygon fill="none" points="3016,55,3029.4164,68.4164,3034.783,57.6833,3016,55" style="stroke:#181818;stroke-width:1;stroke-linejoin:miter;stroke-miterlimit:10;"/></g><!--reverse link Execution to Observation--><g class="link" data-entity-1="ent0029" data-entity-2="ent0043" data-link-type="extension" data-source-line="19" id="lnk44"><path codeLine="19" d="M2493.4895,65.7202 C2517.3095,83.3802 2535.61,96.94 2559.54,114.68" fill="none" id="Execution-backto-Observation" style="stroke:#181818;stroke-width:1;"/><polygon fill="none" points="2479.03,55,2489.9161,70.54,2497.0629,60.9004,2479.03,55" style="stroke:#181818;stroke-width:1;stroke-linejoin:miter;stroke-miterlimit:10;"/></g><?plantuml-src VL99RiCm3Bpx5Vv0Vj1Bq0N8eR1Hlq1Hc480jK2aWXheuok4icFPSM_Yp70uejH77o3osBxy7WxjKNDIhCu8VS6RGTc08FIdOeX6eM0LDGJ5EmndXjZecUshcTsP8DwgcVcWuP8YB5CPzptZQuLu_AUuZwu4Ho9W8NjKVFNHDiD837RH0R7298cFosRXc_SVq8cDT_My1_xg4K5l5GzyxL7kdOag5pZA2NPzvwvdncjnMVwUV2DgD2gYzWq2-j62um9y0IMSYlaTfPH5BkmBpCOcJ3ILiaOfFa1nVgFkUdBvnm5DpbtYaFYvmIRJoMNj7m00?></g></svg>