<svg xmlns="http://www.w3.org/2000/svg" xmlns:xlink="http://www.w3.org/1999/xlink" contentStyleType="text/css" data-diagram-type="CLASS" height="286px" preserveAspectRatio="none" style="width:3234px;height:286px;background:#FFFFFF;" version="1.1" viewBox="0 0 3234 286" width="3234px" zoomAndPan="magnify"><?plantuml 1.2026.6?><defs/><g><!--class Property--><g class="entity" data-qualified-name="Property" data-source-line="1" id="ent0001"><rect fill="#F1F1F1" height="48" rx="2.5" ry="2.5" style="stroke:#181818;stroke-width:0.5;" width="91.7939" x="540" y="7"/><ellipse cx="555" cy="23" fill="#ADD1B2" rx="11" ry="11" style="stroke:#181818;stroke-width:1;"/><path d="M557.9688,28.6406 Q557.3906,28.9375 556.75,29.0781 Q556.1094,29.2344 555.4063,29.2344 Q552.9063,29.2344 551.5781,27.5938 Q550.2656,25.9375 550.2656,22.8125 Q550.2656,19.6875 551.5781,18.0313 Q552.9063,16.375 555.4063,16.375 Q556.1094,16.375 556.75,16.5313 Q557.4063,16.6875 557.9688,16.9844 L557.9688,19.7031 Q557.3438,19.125 556.75,18.8594 Q556.1563,18.5781 555.5313,18.5781 Q554.1875,18.5781 553.5,19.6563 Q552.8125,20.7188 552.8125,22.8125 Q552.8125,24.9063 553.5,25.9844 Q554.1875,27.0469 555.5313,27.0469 Q556.1563,27.0469 556.75,26.7813 Q557.3438,26.5 557.9688,25.9219 L557.9688,28.6406 Z " fill="#000000"/><text fill="#000000" font-family="sans-serif" font-size="14" lengthAdjust="spacing" textLength="59.7939" x="569" y="27.8467">Property</text><line style="stroke:#181818;stroke-width:0.5;" x1="541" x2="630.7939" y1="39" y2="39"/><line style="stroke:#181818;stroke-width:0.5;" x1="541" x2="630.7939" y1="47" y2="47"/></g><!--class ActuatableProperty--><g class="entity" data-qualified-name="ActuatableProperty" data-source-line="1" id="ent0002"><rect fill="#F1F1F1" height="48" rx="2.5" ry="2.5" style="stroke:#181818;stroke-width:0.5;" width="167.4678" x="399.5" y="115"/><ellipse cx="414.5" cy="131" fill="#ADD1B2" rx="11" ry="11" style="stroke:#181818;stroke-width:1;"/><path d="M417.4688,136.6406 Q416.8906,136.9375 416.25,137.0781 Q415.6094,137.2344 414.9063,137.2344 Q412.4063,137.2344 411.0781,135.5938 Q409.7656,133.9375 409.7656,130.8125 Q409.7656,127.6875 411.0781,126.0313 Q412.4063,124.375 414.9063,124.375 Q415.6094,124.375 416.25,124.5313 Q416.9063,124.6875 417.4688,124.9844 L417.4688,127.7031 Q416.8438,127.125 416.25,126.8594 Q415.6563,126.5781 415.0313,126.5781 Q413.6875,126.5781 413,127.6563 Q412.3125,128.7188 412.3125,130.8125 Q412.3125,132.9063 413,133.9844 Q413.6875,135.0469 415.0313,135.0469 Q415.6563,135.0469 416.25,134.7813 Q416.8438,134.5 417.4688,133.9219 L417.4688,136.6406 Z " fill="#000000"/><text fill="#000000" font-family="sans-serif" font-size="14" lengthAdjust="spacing" textLength="135.4678" x="428.5" y="135.8467">ActuatableProperty</text><line style="stroke:#181818;stroke-width:0.5;" x1="400.5" x2="565.9678" y1="147" y2="147"/><line style="stroke:#181818;stroke-width:0.5;" x1="400.5" x2="565.9678" y1="155" y2="155"/></g><!--class Sample--><g class="entity" data-qualified-name="Sample" data-source-line="2" id="ent0004"><rect fill="#F1F1F1" height="48" rx="2.5" ry="2.5" style="stroke:#181818;stroke-width:0.5;" width="84.4932" x="1010" y="7"/><ellipse cx="1025" cy="23" fill="#ADD1B2" rx="11" ry="11" style="stroke:#181818;stroke-width:1;"/><path d="M1027.9688,28.6406 Q1027.3906,28.9375 1026.75,29.0781 Q1026.1094,29.2344 1025.4063,29.2344 Q1022.9063,29.2344 1021.5781,27.5938 Q1020.2656,25.9375 1020.2656,22.8125 Q1020.2656,19.6875 1021.5781,18.0313 Q1022.9063,16.375 1025.4063,16.375 Q1026.1094,16.375 1026.75,16.5313 Q1027.4063,16.6875 1027.9688,16.9844 L1027.9688,19.7031 Q1027.3438,19.125 1026.75,18.8594 Q1026.1563,18.5781 1025.5313,18.5781 Q1024.1875,18.5781 1023.5,19.6563 Q1022.8125,20.7188 1022.8125,22.8125 Q1022.8125,24.9063 1023.5,25.9844 Q1024.1875,27.0469 1025.5313,27.0469 Q1026.1563,27.0469 1026.75,26.7813 Q1027.3438,26.5 1027.9688,25.9219 L1027.9688,28.6406 Z " fill="#000000"/><text fill="#000000" font-family="sans-serif" font-size="14" lengthAdjust="spacing" textLength="52.4932" x="1039" y="27.8467">Sample</text><line style="stroke:#181818;stroke-width:0.5;" x1="1011" x2="1093.4932" y1="39" y2="39"/><line style="stroke:#181818;stroke-width:0.5;" x1="1011" x2="1093.4932" y1="47" y2="47"/></g><!--class MaterialSample--><g class="entity" data-qualified-name="MaterialSample" data-source-line="2" id="ent0005"><rect fill="#F1F1F1" height="48" rx="2.5" ry="2.5" style="stroke:#181818;stroke-width:0.5;" width="141.3682" x="809.5" y="115"/><ellipse cx="824.5" cy="131" fill="#ADD1B2" rx="11" ry="11" style="stroke:#181818;stroke-width:1;"/><path d="M827.4688,136.6406 Q826.8906,136.9375 826.25,137.0781 Q825.6094,137.2344 824.9063,137.2344 Q822.4063,137.2344 821.0781,135.5938 Q819.7656,133.9375 819.7656,130.8125 Q819.7656,127.6875 821.0781,126.0313 Q822.4063,124.375 824.9063,124.375 Q825.6094,124.375 826.25,124.5313 Q826.9063,124.6875 827.4688,124.9844 L827.4688,127.7031 Q826.8438,127.125 826.25,126.8594 Q825.6563,126.5781 825.0313,126.5781 Q823.6875,126.5781 823,127.6563 Q822.3125,128.7188 822.3125,130.8125 Q822.3125,132.9063 823,133.9844 Q823.6875,135.0469 825.0313,135.0469 Q825.6563,135.0469 826.25,134.7813 Q826.8438,134.5 827.4688,133.9219 L827.4688,136.6406 Z " fill="#000000"/><text fill="#000000" font-family="sans-serif" font-size="14" lengthAdjust="spacing" textLength="109.3682" x="838.5" y="135.8467">MaterialSample</text><line style="stroke:#181818;stroke-width:0.5;" x1="810.5" x2="949.8682" y1="147" y2="147"/><line style="stroke:#181818;stroke-width:0.5;" x1="810.5" x2="949.8682" y1="155" y2="155"/></g><!--class ObservableProperty--><g class="entity" data-qualified-name="ObservableProperty" data-source-line="3" id="ent0007"><rect fill="#F1F1F1" height="48" rx="2.5" ry="2.5" style="stroke:#181818;stroke-width:0.5;" width="171.6172" x="602" y="115"/><ellipse cx="617" cy="131" fill="#ADD1B2" rx="11" ry="11" style="stroke:#181818;stroke-width:1;"/><path d="M619.9688,136.6406 Q619.3906,136.9375 618.75,137.0781 Q618.1094,137.2344 617.4063,137.2344 Q614.9063,137.2344 613.5781,135.5938 Q612.2656,133.9375 612.2656,130.8125 Q612.2656,127.6875 613.5781,126.0313 Q614.9063,124.375 617.4063,124.375 Q618.1094,124.375 618.75,124.5313 Q619.4063,124.6875 619.9688,124.9844 L619.9688,127.7031 Q619.3438,127.125 618.75,126.8594 Q618.1563,126.5781 617.5313,126.5781 Q616.1875,126.5781 615.5,127.6563 Q614.8125,128.7188 614.8125,130.8125 Q614.8125,132.9063 615.5,133.9844 Q616.1875,135.0469 617.5313,135.0469 Q618.1563,135.0469 618.75,134.7813 Q619.3438,134.5 619.9688,133.9219 L619.9688,136.6406 Z " fill="#000000"/><text fill="#000000" font-family="sans-serif" font-size="14" lengthAdjust="spacing" textLength="139.6172" x="631" y="135.8467">ObservableProperty</text><line style="stroke:#181818;stroke-width:0.5;" x1="603" x2="772.6172" y1="147" y2="147"/><line style="stroke:#181818;stroke-width:0.5;" x1="603" x2="772.6172" y1="155" y2="155"/></g><!--class SpatialSample--><g class="entity" data-qualified-name="SpatialSample" data-source-line="4" id="ent0009"><rect fill="#F1F1F1" height="48" rx="2.5" ry="2.5" style="stroke:#181818;stroke-width:0.5;" width="132.6934" x="985.5" y="115"/><ellipse cx="1000.5" cy="131" fill="#ADD1B2" rx="11" ry="11" style="stroke:#181818;stroke-width:1;"/><path d="M1003.4688,136.6406 Q1002.8906,136.9375 1002.25,137.0781 Q1001.6094,137.2344 1000.9063,137.2344 Q998.4063,137.2344 997.0781,135.5938 Q995.7656,133.9375 995.7656,130.8125 Q995.7656,127.6875 997.0781,126.0313 Q998.4063,124.375 1000.9063,124.375 Q1001.6094,124.375 1002.25,124.5313 Q1002.9063,124.6875 1003.4688,124.9844 L1003.4688,127.7031 Q1002.8438,127.125 1002.25,126.8594 Q1001.6563,126.5781 1001.0313,126.5781 Q999.6875,126.5781 999,127.6563 Q998.3125,128.7188 998.3125,130.8125 Q998.3125,132.9063 999,133.9844 Q999.6875,135.0469 1001.0313,135.0469 Q1001.6563,135.0469 1002.25,134.7813 Q1002.8438,134.5 1003.4688,133.9219 L1003.4688,136.6406 Z " fill="#000000"/><text fill="#000000" font-family="sans-serif" font-size="14" lengthAdjust="spacing" textLength="100.6934" x="1014.5" y="135.8467">SpatialSample</text><line style="stroke:#181818;stroke-width:0.5;" x1="986.5" x2="1117.1934" y1="147" y2="147"/><line style="stroke:#181818;stroke-width:0.5;" x1="986.5" x2="1117.1934" y1="155" y2="155"/></g><!--class StatisticalSample--><g class="entity" data-qualified-name="StatisticalSample" data-source-line="5" id="ent0011"><rect fill="#F1F1F1" height="48" rx="2.5" ry="2.5" style="stroke:#181818;stroke-width:0.5;" width="153.666" x="1154" y="115"/><ellipse cx="1169" cy="131" fill="#ADD1B2" rx="11" ry="11" style="stroke:#181818;stroke-width:1;"/><path d="M1171.9688,136.6406 Q1171.3906,136.9375 1170.75,137.0781 Q1170.1094,137.2344 1169.4063,137.2344 Q1166.9063,137.2344 1165.5781,135.5938 Q1164.2656,133.9375 1164.2656,130.8125 Q1164.2656,127.6875 1165.5781,126.0313 Q1166.9063,124.375 1169.4063,124.375 Q1170.1094,124.375 1170.75,124.5313 Q1171.4063,124.6875 1171.9688,124.9844 L1171.9688,127.7031 Q1171.3438,127.125 1170.75,126.8594 Q1170.1563,126.5781 1169.5313,126.5781 Q1168.1875,126.5781 1167.5,127.6563 Q1166.8125,128.7188 1166.8125,130.8125 Q1166.8125,132.9063 1167.5,133.9844 Q1168.1875,135.0469 1169.5313,135.0469 Q1170.1563,135.0469 1170.75,134.7813 Q1171.3438,134.5 1171.9688,133.9219 L1171.9688,136.6406 Z " fill="#000000"/><text fill="#000000" font-family="sans-serif" font-size="14" lengthAdjust="spacing" textLength="121.666" x="1183" y="135.8467">StatisticalSample</text><line style="stroke:#181818;stroke-width:0.5;" x1="1155" x2="1306.666" y1="147" y2="147"/><line style="stroke:#181818;stroke-width:0.5;" x1="1155" x2="1306.666" y1="155" y2="155"/></g><!--class Procedure--><g class="entity" data-qualified-name="Procedure" data-source-line="6" id="ent0013"><rect fill="#F1F1F1" height="48" rx="2.5" ry="2.5" style="stroke:#181818;stroke-width:0.5;" width="103.2031" x="1585.5" y="7"/><ellipse cx="1600.5" cy="23" fill="#ADD1B2" rx="11" ry="11" style="stroke:#181818;stroke-width:1;"/><path d="M1603.4688,28.6406 Q1602.8906,28.9375 1602.25,29.0781 Q1601.6094,29.2344 1600.9063,29.2344 Q1598.4063,29.2344 1597.0781,27.5938 Q1595.7656,25.9375 1595.7656,22.8125 Q1595.7656,19.6875 1597.0781,18.0313 Q1598.4063,16.375 1600.9063,16.375 Q1601.6094,16.375 1602.25,16.5313 Q1602.9063,16.6875 1603.4688,16.9844 L1603.4688,19.7031 Q1602.8438,19.125 1602.25,18.8594 Q1601.6563,18.5781 1601.0313,18.5781 Q1599.6875,18.5781 1599,19.6563 Q1598.3125,20.7188 1598.3125,22.8125 Q1598.3125,24.9063 1599,25.9844 Q1599.6875,27.0469 1601.0313,27.0469 Q1601.6563,27.0469 1602.25,26.7813 Q1602.8438,26.5 1603.4688,25.9219 L1603.4688,28.6406 Z " fill="#000000"/><text fill="#000000" font-family="sans-serif" font-size="14" lengthAdjust="spacing" textLength="71.2031" x="1614.5" y="27.8467">Procedure</text><line style="stroke:#181818;stroke-width:0.5;" x1="1586.5" x2="1687.7031" y1="39" y2="39"/><line style="stroke:#181818;stroke-width:0.5;" x1="1586.5" x2="1687.7031" y1="47" y2="47"/></g><!--class ActuatingProcedure--><g class="entity" data-qualified-name="ActuatingProcedure" data-source-line="6" id="ent0014"><rect fill="#F1F1F1" height="48" rx="2.5" ry="2.5" style="stroke:#181818;stroke-width:0.5;" width="170.5576" x="1343.5" y="115"/><ellipse cx="1358.5" cy="131" fill="#ADD1B2" rx="11" ry="11" style="stroke:#181818;stroke-width:1;"/><path d="M1361.4688,136.6406 Q1360.8906,136.9375 1360.25,137.0781 Q1359.6094,137.2344 1358.9063,137.2344 Q1356.4063,137.2344 1355.0781,135.5938 Q1353.7656,133.9375 1353.7656,130.8125 Q1353.7656,127.6875 1355.0781,126.0313 Q1356.4063,124.375 1358.9063,124.375 Q1359.6094,124.375 1360.25,124.5313 Q1360.9063,124.6875 1361.4688,124.9844 L1361.4688,127.7031 Q1360.8438,127.125 1360.25,126.8594 Q1359.6563,126.5781 1359.0313,126.5781 Q1357.6875,126.5781 1357,127.6563 Q1356.3125,128.7188 1356.3125,130.8125 Q1356.3125,132.9063 1357,133.9844 Q1357.6875,135.0469 1359.0313,135.0469 Q1359.6563,135.0469 1360.25,134.7813 Q1360.8438,134.5 1361.4688,133.9219 L1361.4688,136.6406 Z " fill="#000000"/><text fill="#000000" font-family="sans-serif" font-size="14" lengthAdjust="spacing" textLength="138.5576" x="1372.5" y="135.8467">ActuatingProcedure</text><line style="stroke:#181818;stroke-width:0.5;" x1="1344.5" x2="1513.0576" y1="147" y2="147"/><line style="stroke:#181818;stroke-width:0.5;" x1="1344.5" x2="1513.0576" y1="155" y2="155"/></g><!--class ObservingProcedure--><g class="entity" data-qualified-name="ObservingProcedure" data-source-line="7" id="ent0016"><rect fill="#F1F1F1" height="48" rx="2.5" ry="2.5" style="stroke:#181818;stroke-width:0.5;" width="174.707" x="1549.5" y="115"/><ellipse cx="1564.5" cy="131" fill="#ADD1B2" rx="11" ry="11" style="stroke:#181818;stroke-width:1;"/><path d="M1567.4688,136.6406 Q1566.8906,136.9375 1566.25,137.0781 Q1565.6094,137.2344 1564.9063,137.2344 Q1562.4063,137.2344 1561.0781,135.5938 Q1559.7656,133.9375 1559.7656,130.8125 Q1559.7656,127.6875 1561.0781,126.0313 Q1562.4063,124.375 1564.9063,124.375 Q1565.6094,124.375 1566.25,124.5313 Q1566.9063,124.6875 1567.4688,124.9844 L1567.4688,127.7031 Q1566.8438,127.125 1566.25,126.8594 Q1565.6563,126.5781 1565.0313,126.5781 Q1563.6875,126.5781 1563,127.6563 Q1562.3125,128.7188 1562.3125,130.8125 Q1562.3125,132.9063 1563,133.9844 Q1563.6875,135.0469 1565.0313,135.0469 Q1565.6563,135.0469 1566.25,134.7813 Q1566.8438,134.5 1567.4688,133.9219 L1567.4688,136.6406 Z " fill="#000000"/><text fill="#000000" font-family="sans-serif" font-size="14" lengthAdjust="spacing" textLength="142.707" x="1578.5" y="135.8467">ObservingProcedure</text><line style="stroke:#181818;stroke-width:0.5;" x1="1550.5" x2="1723.207" y1="147" y2="147"/><line style="stroke:#181818;stroke-width:0.5;" x1="1550.5" x2="1723.207" y1="155" y2="155"/></g><!--class SamplingProcedure--><g class="entity" data-qualified-name="SamplingProcedure" data-source-line="8" id="ent0018"><rect fill="#F1F1F1" height="48" rx="2.5" ry="2.5" style="stroke:#181818;stroke-width:0.5;" width="168.7324" x="1759.5" y="115"/><ellipse cx="1774.5" cy="131" fill="#ADD1B2" rx="11" ry="11" style="stroke:#181818;stroke-width:1;"/><path d="M1777.4688,136.6406 Q1776.8906,136.9375 1776.25,137.0781 Q1775.6094,137.2344 1774.9063,137.2344 Q1772.4063,137.2344 1771.0781,135.5938 Q1769.7656,133.9375 1769.7656,130.8125 Q1769.7656,127.6875 1771.0781,126.0313 Q1772.4063,124.375 1774.9063,124.375 Q1775.6094,124.375 1776.25,124.5313 Q1776.9063,124.6875 1777.4688,124.9844 L1777.4688,127.7031 Q1776.8438,127.125 1776.25,126.8594 Q1775.6563,126.5781 1775.0313,126.5781 Q1773.6875,126.5781 1773,127.6563 Q1772.3125,128.7188 1772.3125,130.8125 Q1772.3125,132.9063 1773,133.9844 Q1773.6875,135.0469 1775.0313,135.0469 Q1775.6563,135.0469 1776.25,134.7813 Q1776.8438,134.5 1777.4688,133.9219 L1777.4688,136.6406 Z " fill="#000000"/><text fill="#000000" font-family="sans-serif" font-size="14" lengthAdjust="spacing" textLength="136.7324" x="1788.5" y="135.8467">SamplingProcedure</text><line style="stroke:#181818;stroke-width:0.5;" x1="1760.5" x2="1927.2324" y1="147" y2="147"/><line style="stroke:#181818;stroke-width:0.5;" x1="1760.5" x2="1927.2324" y1="155" y2="155"/></g><!--class Asset--><g class="entity" data-qualified-name="Asset" data-source-line="9" id="ent0020"><rect fill="#F1F1F1" height="48" rx="2.5" ry="2.5" style="stroke:#181818;stroke-width:0.5;" width="70.2676" x="2035" y="7"/><ellipse cx="2050" cy="23" fill="#ADD1B2" rx="11" ry="11" style="stroke:#181818;stroke-width:1;"/><path d="M2052.9688,28.6406 Q2052.3906,28.9375 2051.75,29.0781 Q2051.1094,29.2344 2050.4063,29.2344 Q2047.9063,29.2344 2046.5781,27.5938 Q2045.2656,25.9375 2045.2656,22.8125 Q2045.2656,19.6875 2046.5781,18.0313 Q2047.9063,16.375 2050.4063,16.375 Q2051.1094,16.375 2051.75,16.5313 Q2052.4063,16.6875 2052.9688,16.9844 L2052.9688,19.7031 Q2052.3438,19.125 2051.75,18.8594 Q2051.1563,18.5781 2050.5313,18.5781 Q2049.1875,18.5781 2048.5,19.6563 Q2047.8125,20.7188 2047.8125,22.8125 Q2047.8125,24.9063 2048.5,25.9844 Q2049.1875,27.0469 2050.5313,27.0469 Q2051.1563,27.0469 2051.75,26.7813 Q2052.3438,26.5 2052.9688,25.9219 L2052.9688,28.6406 Z " fill="#000000"/><text fill="#000000" font-family="sans-serif" font-size="14" lengthAdjust="spacing" textLength="38.2676" x="2064" y="27.8467">Asset</text><line style="stroke:#181818;stroke-width:0.5;" x1="2036" x2="2104.2676" y1="39" y2="39"/><line style="stroke:#181818;stroke-width:0.5;" x1="2036" x2="2104.2676" y1="47" y2="47"/></g><!--class Platform--><g class="entity" data-qualified-name="Platform" data-source-line="9" id="ent0021"><rect fill="#F1F1F1" height="48" rx="2.5" ry="2.5" style="stroke:#181818;stroke-width:0.5;" width="91.2881" x="1963.5" y="115"/><ellipse cx="1978.5" cy="131" fill="#ADD1B2" rx="11" ry="11" style="stroke:#181818;stroke-width:1;"/><path d="M1981.4688,136.6406 Q1980.8906,136.9375 1980.25,137.0781 Q1979.6094,137.2344 1978.9063,137.2344 Q1976.4063,137.2344 1975.0781,135.5938 Q1973.7656,133.9375 1973.7656,130.8125 Q1973.7656,127.6875 1975.0781,126.0313 Q1976.4063,124.375 1978.9063,124.375 Q1979.6094,124.375 1980.25,124.5313 Q1980.9063,124.6875 1981.4688,124.9844 L1981.4688,127.7031 Q1980.8438,127.125 1980.25,126.8594 Q1979.6563,126.5781 1979.0313,126.5781 Q1977.6875,126.5781 1977,127.6563 Q1976.3125,128.7188 1976.3125,130.8125 Q1976.3125,132.9063 1977,133.9844 Q1977.6875,135.0469 1979.0313,135.0469 Q1979.6563,135.0469 1980.25,134.7813 Q1980.8438,134.5 1981.4688,133.9219 L1981.4688,136.6406 Z " fill="#000000"/><text fill="#000000" font-family="sans-serif" font-size="14" lengthAdjust="spacing" textLength="59.2881" x="1992.5" y="135.8467">Platform</text><line style="stroke:#181818;stroke-width:0.5;" x1="1964.5" x2="2053.7881" y1="147" y2="147"/><line style="stroke:#181818;stroke-width:0.5;" x1="1964.5" x2="2053.7881" y1="155" y2="155"/></g><!--class System--><g class="entity" data-qualified-name="System" data-source-line="10" id="ent0023"><rect fill="#F1F1F1" height="48" rx="2.5" ry="2.5" style="stroke:#181818;stroke-width:0.5;" width="84.2061" x="2090" y="115"/><ellipse cx="2105" cy="131" fill="#ADD1B2" rx="11" ry="11" style="stroke:#181818;stroke-width:1;"/><path d="M2107.9688,136.6406 Q2107.3906,136.9375 2106.75,137.0781 Q2106.1094,137.2344 2105.4063,137.2344 Q2102.9063,137.2344 2101.5781,135.5938 Q2100.2656,133.9375 2100.2656,130.8125 Q2100.2656,127.6875 2101.5781,126.0313 Q2102.9063,124.375 2105.4063,124.375 Q2106.1094,124.375 2106.75,124.5313 Q2107.4063,124.6875 2107.9688,124.9844 L2107.9688,127.7031 Q2107.3438,127.125 2106.75,126.8594 Q2106.1563,126.5781 2105.5313,126.5781 Q2104.1875,126.5781 2103.5,127.6563 Q2102.8125,128.7188 2102.8125,130.8125 Q2102.8125,132.9063 2103.5,133.9844 Q2104.1875,135.0469 2105.5313,135.0469 Q2106.1563,135.0469 2106.75,134.7813 Q2107.3438,134.5 2107.9688,133.9219 L2107.9688,136.6406 Z " fill="#000000"/><text fill="#000000" font-family="sans-serif" font-size="14" lengthAdjust="spacing" textLength="52.2061" x="2119" y="135.8467">System</text><line style="stroke:#181818;stroke-width:0.5;" x1="2091" x2="2173.2061" y1="147" y2="147"/><line style="stroke:#181818;stroke-width:0.5;" x1="2091" x2="2173.2061" y1="155" y2="155"/></g><!--class Sampler--><g class="entity" data-qualified-name="Sampler" data-source-line="10" id="ent0024"><rect fill="#F1F1F1" height="48" rx="2.5" ry="2.5" style="stroke:#181818;stroke-width:0.5;" width="90.249" x="1961" y="223"/><ellipse cx="1976" cy="239" fill="#ADD1B2" rx="11" ry="11" style="stroke:#181818;stroke-width:1;"/><path d="M1978.9688,244.6406 Q1978.3906,244.9375 1977.75,245.0781 Q1977.1094,245.2344 1976.4063,245.2344 Q1973.9063,245.2344 1972.5781,243.5938 Q1971.2656,241.9375 1971.2656,238.8125 Q1971.2656,235.6875 1972.5781,234.0313 Q1973.9063,232.375 1976.4063,232.375 Q1977.1094,232.375 1977.75,232.5313 Q1978.4063,232.6875 1978.9688,232.9844 L1978.9688,235.7031 Q1978.3438,235.125 1977.75,234.8594 Q1977.1563,234.5781 1976.5313,234.5781 Q1975.1875,234.5781 1974.5,235.6563 Q1973.8125,236.7188 1973.8125,238.8125 Q1973.8125,240.9063 1974.5,241.9844 Q1975.1875,243.0469 1976.5313,243.0469 Q1977.1563,243.0469 1977.75,242.7813 Q1978.3438,242.5 1978.9688,241.9219 L1978.9688,244.6406 Z " fill="#000000"/><text fill="#000000" font-family="sans-serif" font-size="14" lengthAdjust="spacing" textLength="58.249" x="1990" y="243.8467">Sampler</text><line style="stroke:#181818;stroke-width:0.5;" x1="1962" x2="2050.249" y1="255" y2="255"/><line style="stroke:#181818;stroke-width:0.5;" x1="1962" x2="2050.249" y1="263" y2="263"/></g><!--class Actuator--><g class="entity" data-qualified-name="Actuator" data-source-line="11" id="ent0026"><rect fill="#F1F1F1" height="48" rx="2.5" ry="2.5" style="stroke:#181818;stroke-width:0.5;" width="92.0264" x="2086" y="223"/><ellipse cx="2101" cy="239" fill="#ADD1B2" rx="11" ry="11" style="stroke:#181818;stroke-width:1;"/><path d="M2103.9688,244.6406 Q2103.3906,244.9375 2102.75,245.0781 Q2102.1094,245.2344 2101.4063,245.2344 Q2098.9063,245.2344 2097.5781,243.5938 Q2096.2656,241.9375 2096.2656,238.8125 Q2096.2656,235.6875 2097.5781,234.0313 Q2098.9063,232.375 2101.4063,232.375 Q2102.1094,232.375 2102.75,232.5313 Q2103.4063,232.6875 2103.9688,232.9844 L2103.9688,235.7031 Q2103.3438,235.125 2102.75,234.8594 Q2102.1563,234.5781 2101.5313,234.5781 Q2100.1875,234.5781 2099.5,235.6563 Q2098.8125,236.7188 2098.8125,238.8125 Q2098.8125,240.9063 2099.5,241.9844 Q2100.1875,243.0469 2101.5313,243.0469 Q2102.1563,243.0469 2102.75,242.7813 Q2103.3438,242.5 2103.9688,241.9219 L2103.9688,244.6406 Z " fill="#000000"/><text fill="#000000" font-family="sans-serif" font-size="14" lengthAdjust="spacing" textLength="60.0264" x="2115" y="243.8467">Actuator</text><line style="stroke:#181818;stroke-width:0.5;" x1="2087" x2="2177.0264" y1="255" y2="255"/><line style="stroke:#181818;stroke-width:0.5;" x1="2087" x2="2177.0264" y1="263" y2="263"/></g><!--class ExecutionCollection--><g class="entity" data-qualified-name="ExecutionCollection" data-source-line="12" id="ent0028"><rect fill="#F1F1F1" height="48" rx="2.5" ry="2.5" style="stroke:#181818;stroke-width:0.5;" width="170.3799" x="2410" y="7"/><ellipse cx="2425" cy="23" fill="#ADD1B2" rx="11" ry="11" style="stroke:#181818;stroke-width:1;"/><path d="M2427.9688,28.6406 Q2427.3906,28.9375 2426.75,29.0781 Q2426.1094,29.2344 2425.4063,29.2344 Q2422.9063,29.2344 2421.5781,27.5938 Q2420.2656,25.9375 2420.2656,22.8125 Q2420.2656,19.6875 2421.5781,18.0313 Q2422.9063,16.375 2425.4063,16.375 Q2426.1094,16.375 2426.75,16.5313 Q2427.4063,16.6875 2427.9688,16.9844 L2427.9688,19.7031 Q2427.3438,19.125 2426.75,18.8594 Q2426.1563,18.5781 2425.5313,18.5781 Q2424.1875,18.5781 2423.5,19.6563 Q2422.8125,20.7188 2422.8125,22.8125 Q2422.8125,24.9063 2423.5,25.9844 Q2424.1875,27.0469 2425.5313,27.0469 Q2426.1563,27.0469 2426.75,26.7813 Q2427.3438,26.5 2427.9688,25.9219 L2427.9688,28.6406 Z " fill="#000000"/><text fill="#000000" font-family="sans-serif" font-size="14" lengthAdjust="spacing" textLength="138.3799" x="2439" y="27.8467">ExecutionCollection</text><line style="stroke:#181818;stroke-width:0.5;" x1="2411" x2="2579.3799" y1="39" y2="39"/><line style="stroke:#181818;stroke-width:0.5;" x1="2411" x2="2579.3799" y1="47" y2="47"/></g><!--class SamplingCollection--><g class="entity" data-qualified-name="SamplingCollection" data-source-line="12" id="ent0029"><rect fill="#F1F1F1" height="48" rx="2.5" ry="2.5" style="stroke:#181818;stroke-width:0.5;" width="166.7773" x="2209.5" y="115"/><ellipse cx="2224.5" cy="131" fill="#ADD1B2" rx="11" ry="11" style="stroke:#181818;stroke-width:1;"/><path d="M2227.4688,136.6406 Q2226.8906,136.9375 2226.25,137.0781 Q2225.6094,137.2344 2224.9063,137.2344 Q2222.4063,137.2344 2221.0781,135.5938 Q2219.7656,133.9375 2219.7656,130.8125 Q2219.7656,127.6875 2221.0781,126.0313 Q2222.4063,124.375 2224.9063,124.375 Q2225.6094,124.375 2226.25,124.5313 Q2226.9063,124.6875 2227.4688,124.9844 L2227.4688,127.7031 Q2226.8438,127.125 2226.25,126.8594 Q2225.6563,126.5781 2225.0313,126.5781 Q2223.6875,126.5781 2223,127.6563 Q2222.3125,128.7188 2222.3125,130.8125 Q2222.3125,132.9063 2223,133.9844 Q2223.6875,135.0469 2225.0313,135.0469 Q2225.6563,135.0469 2226.25,134.7813 Q2226.8438,134.5 2227.4688,133.9219 L2227.4688,136.6406 Z " fill="#000000"/><text fill="#000000" font-family="sans-serif" font-size="14" lengthAdjust="spacing" textLength="134.7773" x="2238.5" y="135.8467">SamplingCollection</text><line style="stroke:#181818;stroke-width:0.5;" x1="2210.5" x2="2375.2773" y1="147" y2="147"/><line style="stroke:#181818;stroke-width:0.5;" x1="2210.5" x2="2375.2773" y1="155" y2="155"/></g><!--class Sensor--><g class="entity" data-qualified-name="Sensor" data-source-line="14" id="ent0032"><rect fill="#F1F1F1" height="48" rx="2.5" ry="2.5" style="stroke:#181818;stroke-width:0.5;" width="79.9883" x="2213" y="223"/><ellipse cx="2228" cy="239" fill="#ADD1B2" rx="11" ry="11" style="stroke:#181818;stroke-width:1;"/><path d="M2230.9688,244.6406 Q2230.3906,244.9375 2229.75,245.0781 Q2229.1094,245.2344 2228.4063,245.2344 Q2225.9063,245.2344 2224.5781,243.5938 Q2223.2656,241.9375 2223.2656,238.8125 Q2223.2656,235.6875 2224.5781,234.0313 Q2225.9063,232.375 2228.4063,232.375 Q2229.1094,232.375 2229.75,232.5313 Q2230.4063,232.6875 2230.9688,232.9844 L2230.9688,235.7031 Q2230.3438,235.125 2229.75,234.8594 Q2229.1563,234.5781 2228.5313,234.5781 Q2227.1875,234.5781 2226.5,235.6563 Q2225.8125,236.7188 2225.8125,238.8125 Q2225.8125,240.9063 2226.5,241.9844 Q2227.1875,243.0469 2228.5313,243.0469 Q2229.1563,243.0469 2229.75,242.7813 Q2230.3438,242.5 2230.9688,241.9219 L2230.9688,244.6406 Z " fill="#000000"/><text fill="#000000" font-family="sans-serif" font-size="14" lengthAdjust="spacing" textLength="47.9883" x="2242" y="243.8467">Sensor</text><line style="stroke:#181818;stroke-width:0.5;" x1="2214" x2="2291.9883" y1="255" y2="255"/><line style="stroke:#181818;stroke-width:0.5;" x1="2214" x2="2291.9883" y1="263" y2="263"/></g><!--class Execution--><g class="entity" data-qualified-name="Execution" data-source-line="15" id="ent0034"><rect fill="#F1F1F1" height="48" rx="2.5" ry="2.5" style="stroke:#181818;stroke-width:0.5;" width="101.1318" x="2967.5" y="7"/><ellipse cx="2982.5" cy="23" fill="#ADD1B2" rx="11" ry="11" style="stroke:#181818;stroke-width:1;"/><path d="M2985.4688,28.6406 Q2984.8906,28.9375 2984.25,29.0781 Q2983.6094,29.2344 2982.9063,29.2344 Q2980.4063,29.2344 2979.0781,27.5938 Q2977.7656,25.9375 2977.7656,22.8125 Q2977.7656,19.6875 2979.0781,18.0313 Q2980.4063,16.375 2982.9063,16.375 Q2983.6094,16.375 2984.25,16.5313 Q2984.9063,16.6875 2985.4688,16.9844 L2985.4688,19.7031 Q2984.8438,19.125 2984.25,18.8594 Q2983.6563,18.5781 2983.0313,18.5781 Q2981.6875,18.5781 2981,19.6563 Q2980.3125,20.7188 2980.3125,22.8125 Q2980.3125,24.9063 2981,25.9844 Q2981.6875,27.0469 2983.0313,27.0469 Q2983.6563,27.0469 2984.25,26.7813 Q2984.8438,26.5 2985.4688,25.9219 L2985.4688,28.6406 Z " fill="#000000"/><text fill="#000000" font-family="sans-serif" font-size="14" lengthAdjust="spacing" textLength="69.1318" x="2996.5" y="27.8467">Execution</text><line style="stroke:#181818;stroke-width:0.5;" x1="2968.5" x2="3067.6318" y1="39" y2="39"/><line style="stroke:#181818;stroke-width:0.5;" x1="2968.5" x2="3067.6318" y1="47" y2="47"/></g><!--class Sampling--><g class="entity" data-qualified-name="Sampling" data-source-line="15" id="ent0035"><rect fill="#F1F1F1" height="48" rx="2.5" ry="2.5" style="stroke:#181818;stroke-width:0.5;" width="97.5293" x="2835" y="115"/><ellipse cx="2850" cy="131" fill="#ADD1B2" rx="11" ry="11" style="stroke:#181818;stroke-width:1;"/><path d="M2852.9688,136.6406 Q2852.3906,136.9375 2851.75,137.0781 Q2851.1094,137.2344 2850.4063,137.2344 Q2847.9063,137.2344 2846.5781,135.5938 Q2845.2656,133.9375 2845.2656,130.8125 Q2845.2656,127.6875 2846.5781,126.0313 Q2847.9063,124.375 2850.4063,124.375 Q2851.1094,124.375 2851.75,124.5313 Q2852.4063,124.6875 2852.9688,124.9844 L2852.9688,127.7031 Q2852.3438,127.125 2851.75,126.8594 Q2851.1563,126.5781 2850.5313,126.5781 Q2849.1875,126.5781 2848.5,127.6563 Q2847.8125,128.7188 2847.8125,130.8125 Q2847.8125,132.9063 2848.5,133.9844 Q2849.1875,135.0469 2850.5313,135.0469 Q2851.1563,135.0469 2851.75,134.7813 Q2852.3438,134.5 2852.9688,133.9219 L2852.9688,136.6406 Z " fill="#000000"/><text fill="#000000" font-family="sans-serif" font-size="14" lengthAdjust="spacing" textLength="65.5293" x="2864" y="135.8467">Sampling</text><line style="stroke:#181818;stroke-width:0.5;" x1="2836" x2="2931.5293" y1="147" y2="147"/><line style="stroke:#181818;stroke-width:0.5;" x1="2836" x2="2931.5293" y1="155" y2="155"/></g><!--class Actuation--><g class="entity" data-qualified-name="Actuation" data-source-line="16" id="ent0037"><rect fill="#F1F1F1" height="48" rx="2.5" ry="2.5" style="stroke:#181818;stroke-width:0.5;" width="99.0332" x="2968.5" y="115"/><ellipse cx="2983.5" cy="131" fill="#ADD1B2" rx="11" ry="11" style="stroke:#181818;stroke-width:1;"/><path d="M2986.4688,136.6406 Q2985.8906,136.9375 2985.25,137.0781 Q2984.6094,137.2344 2983.9063,137.2344 Q2981.4063,137.2344 2980.0781,135.5938 Q2978.7656,133.9375 2978.7656,130.8125 Q2978.7656,127.6875 2980.0781,126.0313 Q2981.4063,124.375 2983.9063,124.375 Q2984.6094,124.375 2985.25,124.5313 Q2985.9063,124.6875 2986.4688,124.9844 L2986.4688,127.7031 Q2985.8438,127.125 2985.25,126.8594 Q2984.6563,126.5781 2984.0313,126.5781 Q2982.6875,126.5781 2982,127.6563 Q2981.3125,128.7188 2981.3125,130.8125 Q2981.3125,132.9063 2982,133.9844 Q2982.6875,135.0469 2984.0313,135.0469 Q2984.6563,135.0469 2985.25,134.7813 Q2985.8438,134.5 2986.4688,133.9219 L2986.4688,136.6406 Z " fill="#000000"/><text fill="#000000" font-family="sans-serif" font-size="14" lengthAdjust="spacing" textLength="67.0332" x="2997.5" y="135.8467">Actuation</text><line style="stroke:#181818;stroke-width:0.5;" x1="2969.5" x2="3066.5332" y1="147" y2="147"/><line style="stroke:#181818;stroke-width:0.5;" x1="2969.5" x2="3066.5332" y1="155" y2="155"/></g><!--class ActuationCollection--><g class="entity" data-qualified-name="ActuationCollection" data-source-line="17" id="ent0039"><rect fill="#F1F1F1" height="48" rx="2.5" ry="2.5" style="stroke:#181818;stroke-width:0.5;" width="168.2813" x="2411" y="115"/><ellipse cx="2426" cy="131" fill="#ADD1B2" rx="11" ry="11" style="stroke:#181818;stroke-width:1;"/><path d="M2428.9688,136.6406 Q2428.3906,136.9375 2427.75,137.0781 Q2427.1094,137.2344 2426.4063,137.2344 Q2423.9063,137.2344 2422.5781,135.5938 Q2421.2656,133.9375 2421.2656,130.8125 Q2421.2656,127.6875 2422.5781,126.0313 Q2423.9063,124.375 2426.4063,124.375 Q2427.1094,124.375 2427.75,124.5313 Q2428.4063,124.6875 2428.9688,124.9844 L2428.9688,127.7031 Q2428.3438,127.125 2427.75,126.8594 Q2427.1563,126.5781 2426.5313,126.5781 Q2425.1875,126.5781 2424.5,127.6563 Q2423.8125,128.7188 2423.8125,130.8125 Q2423.8125,132.9063 2424.5,133.9844 Q2425.1875,135.0469 2426.5313,135.0469 Q2427.1563,135.0469 2427.75,134.7813 Q2428.3438,134.5 2428.9688,133.9219 L2428.9688,136.6406 Z " fill="#000000"/><text fill="#000000" font-family="sans-serif" font-size="14" lengthAdjust="spacing" textLength="136.2813" x="2440" y="135.8467">ActuationCollection</text><line style="stroke:#181818;stroke-width:0.5;" x1="2412" x2="2578.2813" y1="147" y2="147"/><line style="stroke:#181818;stroke-width:0.5;" x1="2412" x2="2578.2813" y1="155" y2="155"/></g><!--class ObservationCollection--><g class="entity" data-qualified-name="ObservationCollection" data-source-line="18" id="ent0041"><rect fill="#F1F1F1" height="48" rx="2.5" ry="2.5" style="stroke:#181818;stroke-width:0.5;" width="186.499" x="2614" y="115"/><ellipse cx="2629" cy="131" fill="#ADD1B2" rx="11" ry="11" style="stroke:#181818;stroke-width:1;"/><path d="M2631.9688,136.6406 Q2631.3906,136.9375 2630.75,137.0781 Q2630.1094,137.2344 2629.4063,137.2344 Q2626.9063,137.2344 2625.5781,135.5938 Q2624.2656,133.9375 2624.2656,130.8125 Q2624.2656,127.6875 2625.5781,126.0313 Q2626.9063,124.375 2629.4063,124.375 Q2630.1094,124.375 2630.75,124.5313 Q2631.4063,124.6875 2631.9688,124.9844 L2631.9688,127.7031 Q2631.3438,127.125 2630.75,126.8594 Q2630.1563,126.5781 2629.5313,126.5781 Q2628.1875,126.5781 2627.5,127.6563 Q2626.8125,128.7188 2626.8125,130.8125 Q2626.8125,132.9063 2627.5,133.9844 Q2628.1875,135.0469 2629.5313,135.0469 Q2630.1563,135.0469 2630.75,134.7813 Q2631.3438,134.5 2631.9688,133.9219 L2631.9688,136.6406 Z " fill="#000000"/><text fill="#000000" font-family="sans-serif" font-size="14" lengthAdjust="spacing" textLength="154.499" x="2643" y="135.8467">ObservationCollection</text><line style="stroke:#181818;stroke-width:0.5;" x1="2615" x2="2799.499" y1="147" y2="147"/><line style="stroke:#181818;stroke-width:0.5;" x1="2615" x2="2799.499" y1="155" y2="155"/></g><!--class Observation--><g class="entity" data-qualified-name="Observation" data-source-line="19" id="ent0043"><rect fill="#F1F1F1" height="48" rx="2.5" ry="2.5" style="stroke:#181818;stroke-width:0.5;" width="117.251" x="3102.5" y="115"/><ellipse cx="3117.5" cy="131" fill="#ADD1B2" rx="11" ry="11" style="stroke:#181818;stroke-width:1;"/><path d="M3120.4688,136.6406 Q3119.8906,136.9375 3119.25,137.0781 Q3118.6094,137.2344 3117.9063,137.2344 Q3115.4063,137.2344 3114.0781,135.5938 Q3112.7656,133.9375 3112.7656,130.8125 Q3112.7656,127.6875 3114.0781,126.0313 Q3115.4063,124.375 3117.9063,124.375 Q3118.6094,124.375 3119.25,124.5313 Q3119.9063,124.6875 3120.4688,124.9844 L3120.4688,127.7031 Q3119.8438,127.125 3119.25,126.8594 Q3118.6563,126.5781 3118.0313,126.5781 Q3116.6875,126.5781 3116,127.6563 Q3115.3125,128.7188 3115.3125,130.8125 Q3115.3125,132.9063 3116,133.9844 Q3116.6875,135.0469 3118.0313,135.0469 Q3118.6563,135.0469 3119.25,134.7813 Q3119.8438,134.5 3120.4688,133.9219 L3120.4688,136.6406 Z " fill="#000000"/><text fill="#000000" font-family="sans-serif" font-size="14" lengthAdjust="spacing" textLength="85.251" x="3131.5" y="135.8467">Observation</text><line style="stroke:#181818;stroke-width:0.5;" x1="3103.5" x2="3218.751" y1="147" y2="147"/><line style="stroke:#181818;stroke-width:0.5;" x1="3103.5" x2="3218.751" y1="155" y2="155"/></g><!--class Deployment--><g class="entity" data-qualified-name="Deployment" data-source-line="20" id="ent0045"><rect fill="#F1F1F1" height="48" rx="2.5" ry="2.5" style="stroke:#181818;stroke-width:0.5;" width="117.6338" x="7" y="7"/><ellipse cx="22" cy="23" fill="#ADD1B2" rx="11" ry="11" style="stroke:#181818;stroke-width:1;"/><path d="M24.9688,28.6406 Q24.3906,28.9375 23.75,29.0781 Q23.1094,29.2344 22.4063,29.2344 Q19.9063,29.2344 18.5781,27.5938 Q17.2656,25.9375 17.2656,22.8125 Q17.2656,19.6875 18.5781,18.0313 Q19.9063,16.375 22.4063,16.375 Q23.1094,16.375 23.75,16.5313 Q24.4063,16.6875 24.9688,16.9844 L24.9688,19.7031 Q24.3438,19.125 23.75,18.8594 Q23.1563,18.5781 22.5313,18.5781 Q21.1875,18.5781 20.5,19.6563 Q19.8125,20.7188 19.8125,22.8125 Q19.8125,24.9063 20.5,25.9844 Q21.1875,27.0469 22.5313,27.0469 Q23.1563,27.0469 23.75,26.7813 Q24.3438,26.5 24.9688,25.9219 L24.9688,28.6406 Z " fill="#000000"/><text fill="#000000" font-family="sans-serif" font-size="14" lengthAdjust="spacing" textLength="85.6338" x="36" y="27.8467">Deployment</text><line style="stroke:#181818;stroke-width:0.5;" x1="8" x2="123.6338" y1="39" y2="39"/><line style="stroke:#181818;stroke-width:0.5;" x1="8" x2="123.6338" y1="47" y2="47"/></g><!--class FeatureOfInterest--><g class="entity" data-qualified-name="FeatureOfInterest" data-source-line="21" id="ent0046"><rect fill="#F1F1F1" height="48" rx="2.5" ry="2.5" style="stroke:#181818;stroke-width:0.5;" width="156.1816" x="160" y="7"/><ellipse cx="175" cy="23" fill="#ADD1B2" rx="11" ry="11" style="stroke:#181818;stroke-width:1;"/><path d="M177.9688,28.6406 Q177.3906,28.9375 176.75,29.0781 Q176.1094,29.2344 175.4063,29.2344 Q172.9063,29.2344 171.5781,27.5938 Q170.2656,25.9375 170.2656,22.8125 Q170.2656,19.6875 171.5781,18.0313 Q172.9063,16.375 175.4063,16.375 Q176.1094,16.375 176.75,16.5313 Q177.4063,16.6875 177.9688,16.9844 L177.9688,19.7031 Q177.3438,19.125 176.75,18.8594 Q176.1563,18.5781 175.5313,18.5781 Q174.1875,18.5781 173.5,19.6563 Q172.8125,20.7188 172.8125,22.8125 Q172.8125,24.9063 173.5,25.9844 Q174.1875,27.0469 175.5313,27.0469 Q176.1563,27.0469 176.75,26.7813 Q177.3438,26.5 177.9688,25.9219 L177.9688,28.6406 Z " fill="#000000"/><text fill="#000000" font-family="sans-serif" font-size="14" lengthAdjust="spacing" textLength="124.1816" x="189" y="27.8467">FeatureOfInterest</text><line style="stroke:#181818;stroke-width:0.5;" x1="161" x2="315.1816" y1="39" y2="39"/><line style="stroke:#181818;stroke-width:0.5;" x1="161" x2="315.1816" y1="47" y2="47"/></g><!--class SampleCollection--><g class="entity" data-qualified-name="SampleCollection" data-source-line="22" id="ent0047"><rect fill="#F1F1F1" height="48" rx="2.5" ry="2.5" style="stroke:#181818;stroke-width:0.5;" width="153.7412" x="351" y="7"/><ellipse cx="366" cy="23" fill="#ADD1B2" rx="11" ry="11" style="stroke:#181818;stroke-width:1;"/><path d="M368.9688,28.6406 Q368.3906,28.9375 367.75,29.0781 Q367.1094,29.2344 366.4063,29.2344 Q363.9063,29.2344 362.5781,27.5938 Q361.2656,25.9375 361.2656,22.8125 Q361.2656,19.6875 362.5781,18.0313 Q363.9063,16.375 366.4063,16.375 Q367.1094,16.375 367.75,16.5313 Q368.4063,16.6875 368.9688,16.9844 L368.9688,19.7031 Q368.3438,19.125 367.75,18.8594 Q367.1563,18.5781 366.5313,18.5781 Q365.1875,18.5781 364.5,19.6563 Q363.8125,20.7188 363.8125,22.8125 Q363.8125,24.9063 364.5,25.9844 Q365.1875,27.0469 366.5313,27.0469 Q367.1563,27.0469 367.75,26.7813 Q368.3438,26.5 368.9688,25.9219 L368.9688,28.6406 Z " fill="#000000"/><text fill="#000000" font-family="sans-serif" font-size="14" lengthAdjust="spacing" textLength="121.7412" x="380" y="27.8467">SampleCollection</text><line style="stroke:#181818;stroke-width:0.5;" x1="352" x2="503.7412" y1="39" y2="39"/><line style="stroke:#181818;stroke-width:0.5;" x1="352" x2="503.7412" y1="47" y2="47"/></g><!--class Result--><g class="entity" data-qualified-name="Result" data-source-line="23" id="ent0048"><rect fill="#F1F1F1" height="48" rx="2.5" ry="2.5" style="stroke:#181818;stroke-width:0.5;" width="75.8867" x="28" y="115"/><ellipse cx="43" cy="131" fill="#ADD1B2" rx="11" ry="11" style="stroke:#181818;stroke-width:1;"/><path d="M45.9688,136.6406 Q45.3906,136.9375 44.75,137.0781 Q44.1094,137.2344 43.4063,137.2344 Q40.9063,137.2344 39.5781,135.5938 Q38.2656,133.9375 38.2656,130.8125 Q38.2656,127.6875 39.5781,126.0313 Q40.9063,124.375 43.4063,124.375 Q44.1094,124.375 44.75,124.5313 Q45.4063,124.6875 45.9688,124.9844 L45.9688,127.7031 Q45.3438,127.125 44.75,126.8594 Q44.1563,126.5781 43.5313,126.5781 Q42.1875,126.5781 41.5,127.6563 Q40.8125,128.7188 40.8125,130.8125 Q40.8125,132.9063 41.5,133.9844 Q42.1875,135.0469 43.5313,135.0469 Q44.1563,135.0469 44.75,134.7813 Q45.3438,134.5 45.9688,133.9219 L45.9688,136.6406 Z " fill="#000000"/><text fill="#000000" font-family="sans-serif" font-size="14" lengthAdjust="spacing" textLength="43.8867" x="57" y="135.8467">Result</text><line style="stroke:#181818;stroke-width:0.5;" x1="29" x2="102.8867" y1="147" y2="147"/><line style="stroke:#181818;stroke-width:0.5;" x1="29" x2="102.8867" y1="155" y2="155"/></g><!--class Stimulus--><g class="entity" data-qualified-name="Stimulus" data-source-line="24" id="ent0049"><rect fill="#F1F1F1" height="48" rx="2.5" ry="2.5" style="stroke:#181818;stroke-width:0.5;" width="92.833" x="139.5" y="115"/><ellipse cx="154.5" cy="131" fill="#ADD1B2" rx="11" ry="11" style="stroke:#181818;stroke-width:1;"/><path d="M157.4688,136.6406 Q156.8906,136.9375 156.25,137.0781 Q155.6094,137.2344 154.9063,137.2344 Q152.4063,137.2344 151.0781,135.5938 Q149.7656,133.9375 149.7656,130.8125 Q149.7656,127.6875 151.0781,126.0313 Q152.4063,124.375 154.9063,124.375 Q155.6094,124.375 156.25,124.5313 Q156.9063,124.6875 157.4688,124.9844 L157.4688,127.7031 Q156.8438,127.125 156.25,126.8594 Q155.6563,126.5781 155.0313,126.5781 Q153.6875,126.5781 153,127.6563 Q152.3125,128.7188 152.3125,130.8125 Q152.3125,132.9063 153,133.9844 Q153.6875,135.0469 155.0313,135.0469 Q155.6563,135.0469 156.25,134.7813 Q156.8438,134.5 157.4688,133.9219 L157.4688,136.6406 Z " fill="#000000"/><text fill="#000000" font-family="sans-serif" font-size="14" lengthAdjust="spacing" textLength="60.833" x="168.5" y="135.8467">Stimulus</text><line style="stroke:#181818;stroke-width:0.5;" x1="140.5" x2="231.333" y1="147" y2="147"/><line style="stroke:#181818;stroke-width:0.5;" x1="140.5" x2="231.333" y1="155" y2="155"/></g><!--reverse link Property to ActuatableProperty--><g class="link" data-entity-1="ent0001" data-entity-2="ent0002" data-link-type="extension" data-source-line="1" id="lnk3"><path codeLine="1" d="M551.1061,67.9094 C533.9461,85.5694 522.9,96.94 505.66,114.68" fill="none" id="Property-backto-ActuatableProperty" style="stroke:#181818;stroke-width:1;"/><polygon fill="none" points="563.65,55,546.803,63.7281,555.4093,72.0906,563.65,55" style="stroke:#181818;stroke-width:1;stroke-linejoin:miter;stroke-miterlimit:10;"/></g><!--reverse link Sample to MaterialSample--><g class="link" data-entity-1="ent0004" data-entity-2="ent0005" data-link-type="extension" data-source-line="2" id="lnk6"><path codeLine="2" d="M999.3567,64.4445 C970.6067,82.1645 946.35,97.11 917.55,114.86" fill="none" id="Sample-backto-MaterialSample" style="stroke:#181818;stroke-width:1;"/><polygon fill="none" points="1014.68,55,996.2086,59.3367,1002.5049,69.5522,1014.68,55" style="stroke:#181818;stroke-width:1;stroke-linejoin:miter;stroke-miterlimit:10;"/></g><!--reverse link Property to ObservableProperty--><g class="link" data-entity-1="ent0001" data-entity-2="ent0007" data-link-type="extension" data-source-line="3" id="lnk8"><path codeLine="3" d="M620.6095,67.9716 C637.5995,85.6316 648.49,96.94 665.56,114.68" fill="none" id="Property-backto-ObservableProperty" style="stroke:#181818;stroke-width:1;"/><polygon fill="none" points="608.13,55,616.2856,72.1314,624.9333,63.8118,608.13,55" style="stroke:#181818;stroke-width:1;stroke-linejoin:miter;stroke-miterlimit:10;"/></g><!--reverse link Sample to SpatialSample--><g class="link" data-entity-1="ent0004" data-entity-2="ent0009" data-link-type="extension" data-source-line="4" id="lnk10"><path codeLine="4" d="M1052,73 C1052,90.66 1052,96.94 1052,114.68" fill="none" id="Sample-backto-SpatialSample" style="stroke:#181818;stroke-width:1;"/><polygon fill="none" points="1052,55,1046,73,1058,73,1052,55" style="stroke:#181818;stroke-width:1;stroke-linejoin:miter;stroke-miterlimit:10;"/></g><!--reverse link Sample to StatisticalSample--><g class="link" data-entity-1="ent0004" data-entity-2="ent0011" data-link-type="extension" data-source-line="5" id="lnk12"><path codeLine="5" d="M1106.3276,64.1725 C1136.2476,81.8925 1161.95,97.11 1191.93,114.86" fill="none" id="Sample-backto-StatisticalSample" style="stroke:#181818;stroke-width:1;"/><polygon fill="none" points="1090.84,55,1103.2701,69.335,1109.3851,59.0099,1090.84,55" style="stroke:#181818;stroke-width:1;stroke-linejoin:miter;stroke-miterlimit:10;"/></g><!--reverse link Procedure to ActuatingProcedure--><g class="link" data-entity-1="ent0013" data-entity-2="ent0014" data-link-type="extension" data-source-line="6" id="lnk15"><path codeLine="6" d="M1575.8326,63.1732 C1541.0626,80.8932 1509.24,97.11 1474.4,114.86" fill="none" id="Procedure-backto-ActuatingProcedure" style="stroke:#181818;stroke-width:1;"/><polygon fill="none" points="1591.87,55,1573.1082,57.8274,1578.557,68.519,1591.87,55" style="stroke:#181818;stroke-width:1;stroke-linejoin:miter;stroke-miterlimit:10;"/></g><!--reverse link Procedure to ObservingProcedure--><g class="link" data-entity-1="ent0013" data-entity-2="ent0016" data-link-type="extension" data-source-line="7" id="lnk17"><path codeLine="7" d="M1637,73 C1637,90.66 1637,96.94 1637,114.68" fill="none" id="Procedure-backto-ObservingProcedure" style="stroke:#181818;stroke-width:1;"/><polygon fill="none" points="1637,55,1631,73,1643,73,1637,55" style="stroke:#181818;stroke-width:1;stroke-linejoin:miter;stroke-miterlimit:10;"/></g><!--reverse link Procedure to SamplingProcedure--><g class="link" data-entity-1="ent0013" data-entity-2="ent0018" data-link-type="extension" data-source-line="8" id="lnk19"><path codeLine="8" d="M1697.9411,63.205 C1732.5411,80.925 1764.15,97.11 1798.81,114.86" fill="none" id="Procedure-backto-SamplingProcedure" style="stroke:#181818;stroke-width:1;"/><polygon fill="none" points="1681.92,55,1695.2061,68.5454,1700.6762,57.8647,1681.92,55" style="stroke:#181818;stroke-width:1;stroke-linejoin:miter;stroke-miterlimit:10;"/></g><!--reverse link Asset to Platform--><g class="link" data-entity-1="ent0020" data-entity-2="ent0021" data-link-type="extension" data-source-line="9" id="lnk22"><path codeLine="9" d="M2047.7839,70.6022 C2037.6239,88.2622 2032.63,96.94 2022.42,114.68" fill="none" id="Asset-backto-Platform" style="stroke:#181818;stroke-width:1;"/><polygon fill="none" points="2056.76,55,2042.5831,67.6102,2052.9846,73.5943,2056.76,55" style="stroke:#181818;stroke-width:1;stroke-linejoin:miter;stroke-miterlimit:10;"/></g><!--reverse link System to Sampler--><g class="link" data-entity-1="ent0023" data-entity-2="ent0024" data-link-type="extension" data-source-line="10" id="lnk25"><path codeLine="10" d="M2090.8865,174.5884 C2069.8965,192.2484 2054.81,204.94 2033.72,222.68" fill="none" id="System-backto-Sampler" style="stroke:#181818;stroke-width:1;"/><polygon fill="none" points="2104.66,163,2087.0237,169.9972,2094.7493,179.1795,2104.66,163" style="stroke:#181818;stroke-width:1;stroke-linejoin:miter;stroke-miterlimit:10;"/></g><!--reverse link System to Actuator--><g class="link" data-entity-1="ent0023" data-entity-2="ent0026" data-link-type="extension" data-source-line="11" id="lnk27"><path codeLine="11" d="M2132,181 C2132,198.66 2132,204.94 2132,222.68" fill="none" id="System-backto-Actuator" style="stroke:#181818;stroke-width:1;"/><polygon fill="none" points="2132,163,2126,181,2138,181,2132,163" style="stroke:#181818;stroke-width:1;stroke-linejoin:miter;stroke-miterlimit:10;"/></g><!--reverse link ExecutionCollection to SamplingCollection--><g class="link" data-entity-1="ent0028" data-entity-2="ent0029" data-link-type="extension" data-source-line="12" id="lnk30"><path codeLine="12" d="M2435.231,63.3636 C2401.461,81.0836 2370.93,97.11 2337.09,114.86" fill="none" id="ExecutionCollection-backto-SamplingCollection" style="stroke:#181818;stroke-width:1;"/><polygon fill="none" points="2451.17,55,2432.4432,58.0506,2438.0189,68.6766,2451.17,55" style="stroke:#181818;stroke-width:1;stroke-linejoin:miter;stroke-miterlimit:10;"/></g><!--reverse link Asset to System--><g class="link" data-entity-1="ent0020" data-entity-2="ent0023" data-link-type="extension" data-source-line="13" id="lnk31"><path codeLine="13" d="M2092.5383,70.5372 C2102.8683,88.1972 2107.98,96.94 2118.36,114.68" fill="none" id="Asset-backto-System" style="stroke:#181818;stroke-width:1;"/><polygon fill="none" points="2083.45,55,2087.3592,73.5666,2097.7173,67.5077,2083.45,55" style="stroke:#181818;stroke-width:1;stroke-linejoin:miter;stroke-miterlimit:10;"/></g><!--reverse link System to Sensor--><g class="link" data-entity-1="ent0023" data-entity-2="ent0032" data-link-type="extension" data-source-line="14" id="lnk33"><path codeLine="14" d="M2171.7968,174.864 C2191.9468,192.524 2206.13,204.94 2226.38,222.68" fill="none" id="System-backto-Sensor" style="stroke:#181818;stroke-width:1;"/><polygon fill="none" points="2158.26,163,2167.8421,179.3763,2175.7515,170.3518,2158.26,163" style="stroke:#181818;stroke-width:1;stroke-linejoin:miter;stroke-miterlimit:10;"/></g><!--reverse link Execution to Sampling--><g class="link" data-entity-1="ent0034" data-entity-2="ent0035" data-link-type="extension" data-source-line="15" id="lnk36"><path codeLine="15" d="M2974.8041,66.1688 C2952.4841,83.8288 2935.91,96.94 2913.48,114.68" fill="none" id="Execution-backto-Sampling" style="stroke:#181818;stroke-width:1;"/><polygon fill="none" points="2988.92,55,2971.0812,61.4635,2978.527,70.8741,2988.92,55" style="stroke:#181818;stroke-width:1;stroke-linejoin:miter;stroke-miterlimit:10;"/></g><!--reverse link Execution to Actuation--><g class="link" data-entity-1="ent0034" data-entity-2="ent0037" data-link-type="extension" data-source-line="16" id="lnk38"><path codeLine="16" d="M3018,73 C3018,90.66 3018,96.94 3018,114.68" fill="none" id="Execution-backto-Actuation" style="stroke:#181818;stroke-width:1;"/><polygon fill="none" points="3018,55,3012,73,3024,73,3018,55" style="stroke:#181818;stroke-width:1;stroke-linejoin:miter;stroke-miterlimit:10;"/></g><!--reverse link ExecutionCollection to ActuationCollection--><g class="link" data-entity-1="ent0028" data-entity-2="ent0039" data-link-type="extension" data-source-line="17" id="lnk40"><path codeLine="17" d="M2495,73 C2495,90.66 2495,96.94 2495,114.68" fill="none" id="ExecutionCollection-backto-ActuationCollection" style="stroke:#181818;stroke-width:1;"/><polygon fill="none" points="2495,55,2489,73,2501,73,2495,55" style="stroke:#181818;stroke-width:1;stroke-linejoin:miter;stroke-miterlimit:10;"/></g><!--reverse link ExecutionCollection to ObservationCollection--><g class="link" data-entity-1="ent0028" data-entity-2="ent0041" data-link-type="extension" data-source-line="18" id="lnk42"><path codeLine="18" d="M2557.0997,63.0498 C2592.5397,80.7698 2625.22,97.11 2660.72,114.86" fill="none" id="ExecutionCollection-backto-ObservationCollection" style="stroke:#181818;stroke-width:1;"/><polygon fill="none" points="2541,55,2554.4164,68.4164,2559.783,57.6833,2541,55" style="stroke:#181818;stroke-width:1;stroke-linejoin:miter;stroke-miterlimit:10;"/></g><!--reverse link Execution to Observation--><g class="link" data-entity-1="ent0034" data-entity-2="ent0043" data-link-type="extension" data-source-line="19" id="lnk44"><path codeLine="19" d="M3063.4895,65.7202 C3087.3095,83.3802 3105.61,96.94 3129.54,114.68" fill="none" id="Execution-backto-Observation" style="stroke:#181818;stroke-width:1;"/><polygon fill="none" points="3049.03,55,3059.9161,70.54,3067.0629,60.9004,3049.03,55" style="stroke:#181818;stroke-width:1;stroke-linejoin:miter;stroke-miterlimit:10;"/></g><?plantuml-src VP9TQiCm48JVTGfV83VeI-WFzA74r2VOA9CYM4b6kmerzF1rAjUHKjmtyytipB9od-A8f5FtyBNRTNkhcPIEZ7xXPY0_CehyHehaY0ipVJDxE0hIPNDs64bleusYioBgR1riSSe9zLOkVApytb6w_tFy93U6lGYqY3sJdcFoPfX4uQi9f8QLJM8opv-mMLqCZv4PzlhLzjnuNLIosXe4gGFRc7k-d69EtTnWjLGhR9gNHzko_p4PooJIFM7aE7a4NS0BIEUZ7iwlOVv58B-y7B6ABlWTaddrgFEPitm3?></g></svg>