<svg xmlns="http://www.w3.org/2000/svg" xmlns:xlink="http://www.w3.org/1999/xlink" contentStyleType="text/css" data-diagram-type="CLASS" height="286px" preserveAspectRatio="none" style="width:3249px;height:286px;background:#FFFFFF;" version="1.1" viewBox="0 0 3249 286" width="3249px" zoomAndPan="magnify"><?plantuml 1.2026.5?><defs/><g><!--class Property--><g class="entity" data-qualified-name="Property" data-source-line="1" id="ent0001"><rect fill="#F1F1F1" height="48" rx="2.5" ry="2.5" style="stroke:#181818;stroke-width:0.5;" width="91.7939" x="554" y="7"/><ellipse cx="569" cy="23" fill="#ADD1B2" rx="11" ry="11" style="stroke:#181818;stroke-width:1;"/><path d="M571.9688,28.6406 Q571.3906,28.9375 570.75,29.0781 Q570.1094,29.2344 569.4063,29.2344 Q566.9063,29.2344 565.5781,27.5938 Q564.2656,25.9375 564.2656,22.8125 Q564.2656,19.6875 565.5781,18.0313 Q566.9063,16.375 569.4063,16.375 Q570.1094,16.375 570.75,16.5313 Q571.4063,16.6875 571.9688,16.9844 L571.9688,19.7031 Q571.3438,19.125 570.75,18.8594 Q570.1563,18.5781 569.5313,18.5781 Q568.1875,18.5781 567.5,19.6563 Q566.8125,20.7188 566.8125,22.8125 Q566.8125,24.9063 567.5,25.9844 Q568.1875,27.0469 569.5313,27.0469 Q570.1563,27.0469 570.75,26.7813 Q571.3438,26.5 571.9688,25.9219 L571.9688,28.6406 Z " fill="#000000"/><text fill="#000000" font-family="sans-serif" font-size="14" lengthAdjust="spacing" textLength="59.7939" x="583" y="27.8467">Property</text><line style="stroke:#181818;stroke-width:0.5;" x1="555" x2="644.7939" y1="39" y2="39"/><line style="stroke:#181818;stroke-width:0.5;" x1="555" x2="644.7939" y1="47" y2="47"/></g><!--class ActuatableProperty--><g class="entity" data-qualified-name="ActuatableProperty" data-source-line="1" id="ent0002"><rect fill="#F1F1F1" height="48" rx="2.5" ry="2.5" style="stroke:#181818;stroke-width:0.5;" width="167.4678" x="414.5" y="115"/><ellipse cx="429.5" cy="131" fill="#ADD1B2" rx="11" ry="11" style="stroke:#181818;stroke-width:1;"/><path d="M432.4688,136.6406 Q431.8906,136.9375 431.25,137.0781 Q430.6094,137.2344 429.9063,137.2344 Q427.4063,137.2344 426.0781,135.5938 Q424.7656,133.9375 424.7656,130.8125 Q424.7656,127.6875 426.0781,126.0313 Q427.4063,124.375 429.9063,124.375 Q430.6094,124.375 431.25,124.5313 Q431.9063,124.6875 432.4688,124.9844 L432.4688,127.7031 Q431.8438,127.125 431.25,126.8594 Q430.6563,126.5781 430.0313,126.5781 Q428.6875,126.5781 428,127.6563 Q427.3125,128.7188 427.3125,130.8125 Q427.3125,132.9063 428,133.9844 Q428.6875,135.0469 430.0313,135.0469 Q430.6563,135.0469 431.25,134.7813 Q431.8438,134.5 432.4688,133.9219 L432.4688,136.6406 Z " fill="#000000"/><text fill="#000000" font-family="sans-serif" font-size="14" lengthAdjust="spacing" textLength="135.4678" x="443.5" y="135.8467">ActuatableProperty</text><line style="stroke:#181818;stroke-width:0.5;" x1="415.5" x2="580.9678" y1="147" y2="147"/><line style="stroke:#181818;stroke-width:0.5;" x1="415.5" x2="580.9678" y1="155" y2="155"/></g><!--class Sample--><g class="entity" data-qualified-name="Sample" data-source-line="2" id="ent0004"><rect fill="#F1F1F1" height="48" rx="2.5" ry="2.5" style="stroke:#181818;stroke-width:0.5;" width="84.4932" x="1025" y="7"/><ellipse cx="1040" cy="23" fill="#ADD1B2" rx="11" ry="11" style="stroke:#181818;stroke-width:1;"/><path d="M1042.9688,28.6406 Q1042.3906,28.9375 1041.75,29.0781 Q1041.1094,29.2344 1040.4063,29.2344 Q1037.9063,29.2344 1036.5781,27.5938 Q1035.2656,25.9375 1035.2656,22.8125 Q1035.2656,19.6875 1036.5781,18.0313 Q1037.9063,16.375 1040.4063,16.375 Q1041.1094,16.375 1041.75,16.5313 Q1042.4063,16.6875 1042.9688,16.9844 L1042.9688,19.7031 Q1042.3438,19.125 1041.75,18.8594 Q1041.1563,18.5781 1040.5313,18.5781 Q1039.1875,18.5781 1038.5,19.6563 Q1037.8125,20.7188 1037.8125,22.8125 Q1037.8125,24.9063 1038.5,25.9844 Q1039.1875,27.0469 1040.5313,27.0469 Q1041.1563,27.0469 1041.75,26.7813 Q1042.3438,26.5 1042.9688,25.9219 L1042.9688,28.6406 Z " fill="#000000"/><text fill="#000000" font-family="sans-serif" font-size="14" lengthAdjust="spacing" textLength="52.4932" x="1054" y="27.8467">Sample</text><line style="stroke:#181818;stroke-width:0.5;" x1="1026" x2="1108.4932" y1="39" y2="39"/><line style="stroke:#181818;stroke-width:0.5;" x1="1026" x2="1108.4932" y1="47" y2="47"/></g><!--class MaterialSample--><g class="entity" data-qualified-name="MaterialSample" data-source-line="2" id="ent0005"><rect fill="#F1F1F1" height="48" rx="2.5" ry="2.5" style="stroke:#181818;stroke-width:0.5;" width="141.3682" x="824.5" y="115"/><ellipse cx="839.5" cy="131" fill="#ADD1B2" rx="11" ry="11" style="stroke:#181818;stroke-width:1;"/><path d="M842.4688,136.6406 Q841.8906,136.9375 841.25,137.0781 Q840.6094,137.2344 839.9063,137.2344 Q837.4063,137.2344 836.0781,135.5938 Q834.7656,133.9375 834.7656,130.8125 Q834.7656,127.6875 836.0781,126.0313 Q837.4063,124.375 839.9063,124.375 Q840.6094,124.375 841.25,124.5313 Q841.9063,124.6875 842.4688,124.9844 L842.4688,127.7031 Q841.8438,127.125 841.25,126.8594 Q840.6563,126.5781 840.0313,126.5781 Q838.6875,126.5781 838,127.6563 Q837.3125,128.7188 837.3125,130.8125 Q837.3125,132.9063 838,133.9844 Q838.6875,135.0469 840.0313,135.0469 Q840.6563,135.0469 841.25,134.7813 Q841.8438,134.5 842.4688,133.9219 L842.4688,136.6406 Z " fill="#000000"/><text fill="#000000" font-family="sans-serif" font-size="14" lengthAdjust="spacing" textLength="109.3682" x="853.5" y="135.8467">MaterialSample</text><line style="stroke:#181818;stroke-width:0.5;" x1="825.5" x2="964.8682" y1="147" y2="147"/><line style="stroke:#181818;stroke-width:0.5;" x1="825.5" x2="964.8682" y1="155" y2="155"/></g><!--class SpatialSample--><g class="entity" data-qualified-name="SpatialSample" data-source-line="3" id="ent0007"><rect fill="#F1F1F1" height="48" rx="2.5" ry="2.5" style="stroke:#181818;stroke-width:0.5;" width="132.6934" x="1000.5" y="115"/><ellipse cx="1015.5" cy="131" fill="#ADD1B2" rx="11" ry="11" style="stroke:#181818;stroke-width:1;"/><path d="M1018.4688,136.6406 Q1017.8906,136.9375 1017.25,137.0781 Q1016.6094,137.2344 1015.9063,137.2344 Q1013.4063,137.2344 1012.0781,135.5938 Q1010.7656,133.9375 1010.7656,130.8125 Q1010.7656,127.6875 1012.0781,126.0313 Q1013.4063,124.375 1015.9063,124.375 Q1016.6094,124.375 1017.25,124.5313 Q1017.9063,124.6875 1018.4688,124.9844 L1018.4688,127.7031 Q1017.8438,127.125 1017.25,126.8594 Q1016.6563,126.5781 1016.0313,126.5781 Q1014.6875,126.5781 1014,127.6563 Q1013.3125,128.7188 1013.3125,130.8125 Q1013.3125,132.9063 1014,133.9844 Q1014.6875,135.0469 1016.0313,135.0469 Q1016.6563,135.0469 1017.25,134.7813 Q1017.8438,134.5 1018.4688,133.9219 L1018.4688,136.6406 Z " fill="#000000"/><text fill="#000000" font-family="sans-serif" font-size="14" lengthAdjust="spacing" textLength="100.6934" x="1029.5" y="135.8467">SpatialSample</text><line style="stroke:#181818;stroke-width:0.5;" x1="1001.5" x2="1132.1934" y1="147" y2="147"/><line style="stroke:#181818;stroke-width:0.5;" x1="1001.5" x2="1132.1934" y1="155" y2="155"/></g><!--class StatisticalSample--><g class="entity" data-qualified-name="StatisticalSample" data-source-line="4" id="ent0009"><rect fill="#F1F1F1" height="48" rx="2.5" ry="2.5" style="stroke:#181818;stroke-width:0.5;" width="153.666" x="1169" y="115"/><ellipse cx="1184" cy="131" fill="#ADD1B2" rx="11" ry="11" style="stroke:#181818;stroke-width:1;"/><path d="M1186.9688,136.6406 Q1186.3906,136.9375 1185.75,137.0781 Q1185.1094,137.2344 1184.4063,137.2344 Q1181.9063,137.2344 1180.5781,135.5938 Q1179.2656,133.9375 1179.2656,130.8125 Q1179.2656,127.6875 1180.5781,126.0313 Q1181.9063,124.375 1184.4063,124.375 Q1185.1094,124.375 1185.75,124.5313 Q1186.4063,124.6875 1186.9688,124.9844 L1186.9688,127.7031 Q1186.3438,127.125 1185.75,126.8594 Q1185.1563,126.5781 1184.5313,126.5781 Q1183.1875,126.5781 1182.5,127.6563 Q1181.8125,128.7188 1181.8125,130.8125 Q1181.8125,132.9063 1182.5,133.9844 Q1183.1875,135.0469 1184.5313,135.0469 Q1185.1563,135.0469 1185.75,134.7813 Q1186.3438,134.5 1186.9688,133.9219 L1186.9688,136.6406 Z " fill="#000000"/><text fill="#000000" font-family="sans-serif" font-size="14" lengthAdjust="spacing" textLength="121.666" x="1198" y="135.8467">StatisticalSample</text><line style="stroke:#181818;stroke-width:0.5;" x1="1170" x2="1321.666" y1="147" y2="147"/><line style="stroke:#181818;stroke-width:0.5;" x1="1170" x2="1321.666" y1="155" y2="155"/></g><!--class ObservableProperty--><g class="entity" data-qualified-name="ObservableProperty" data-source-line="5" id="ent0011"><rect fill="#F1F1F1" height="48" rx="2.5" ry="2.5" style="stroke:#181818;stroke-width:0.5;" width="171.6172" x="617" y="115"/><ellipse cx="632" cy="131" fill="#ADD1B2" rx="11" ry="11" style="stroke:#181818;stroke-width:1;"/><path d="M634.9688,136.6406 Q634.3906,136.9375 633.75,137.0781 Q633.1094,137.2344 632.4063,137.2344 Q629.9063,137.2344 628.5781,135.5938 Q627.2656,133.9375 627.2656,130.8125 Q627.2656,127.6875 628.5781,126.0313 Q629.9063,124.375 632.4063,124.375 Q633.1094,124.375 633.75,124.5313 Q634.4063,124.6875 634.9688,124.9844 L634.9688,127.7031 Q634.3438,127.125 633.75,126.8594 Q633.1563,126.5781 632.5313,126.5781 Q631.1875,126.5781 630.5,127.6563 Q629.8125,128.7188 629.8125,130.8125 Q629.8125,132.9063 630.5,133.9844 Q631.1875,135.0469 632.5313,135.0469 Q633.1563,135.0469 633.75,134.7813 Q634.3438,134.5 634.9688,133.9219 L634.9688,136.6406 Z " fill="#000000"/><text fill="#000000" font-family="sans-serif" font-size="14" lengthAdjust="spacing" textLength="139.6172" x="646" y="135.8467">ObservableProperty</text><line style="stroke:#181818;stroke-width:0.5;" x1="618" x2="787.6172" y1="147" y2="147"/><line style="stroke:#181818;stroke-width:0.5;" x1="618" x2="787.6172" y1="155" y2="155"/></g><!--class Procedure--><g class="entity" data-qualified-name="Procedure" data-source-line="6" id="ent0013"><rect fill="#F1F1F1" height="48" rx="2.5" ry="2.5" style="stroke:#181818;stroke-width:0.5;" width="103.2031" x="1600.5" y="7"/><ellipse cx="1615.5" cy="23" fill="#ADD1B2" rx="11" ry="11" style="stroke:#181818;stroke-width:1;"/><path d="M1618.4688,28.6406 Q1617.8906,28.9375 1617.25,29.0781 Q1616.6094,29.2344 1615.9063,29.2344 Q1613.4063,29.2344 1612.0781,27.5938 Q1610.7656,25.9375 1610.7656,22.8125 Q1610.7656,19.6875 1612.0781,18.0313 Q1613.4063,16.375 1615.9063,16.375 Q1616.6094,16.375 1617.25,16.5313 Q1617.9063,16.6875 1618.4688,16.9844 L1618.4688,19.7031 Q1617.8438,19.125 1617.25,18.8594 Q1616.6563,18.5781 1616.0313,18.5781 Q1614.6875,18.5781 1614,19.6563 Q1613.3125,20.7188 1613.3125,22.8125 Q1613.3125,24.9063 1614,25.9844 Q1614.6875,27.0469 1616.0313,27.0469 Q1616.6563,27.0469 1617.25,26.7813 Q1617.8438,26.5 1618.4688,25.9219 L1618.4688,28.6406 Z " fill="#000000"/><text fill="#000000" font-family="sans-serif" font-size="14" lengthAdjust="spacing" textLength="71.2031" x="1629.5" y="27.8467">Procedure</text><line style="stroke:#181818;stroke-width:0.5;" x1="1601.5" x2="1702.7031" y1="39" y2="39"/><line style="stroke:#181818;stroke-width:0.5;" x1="1601.5" x2="1702.7031" y1="47" y2="47"/></g><!--class ActuatingProcedure--><g class="entity" data-qualified-name="ActuatingProcedure" data-source-line="6" id="ent0014"><rect fill="#F1F1F1" height="48" rx="2.5" ry="2.5" style="stroke:#181818;stroke-width:0.5;" width="170.5576" x="1358.5" y="115"/><ellipse cx="1373.5" cy="131" fill="#ADD1B2" rx="11" ry="11" style="stroke:#181818;stroke-width:1;"/><path d="M1376.4688,136.6406 Q1375.8906,136.9375 1375.25,137.0781 Q1374.6094,137.2344 1373.9063,137.2344 Q1371.4063,137.2344 1370.0781,135.5938 Q1368.7656,133.9375 1368.7656,130.8125 Q1368.7656,127.6875 1370.0781,126.0313 Q1371.4063,124.375 1373.9063,124.375 Q1374.6094,124.375 1375.25,124.5313 Q1375.9063,124.6875 1376.4688,124.9844 L1376.4688,127.7031 Q1375.8438,127.125 1375.25,126.8594 Q1374.6563,126.5781 1374.0313,126.5781 Q1372.6875,126.5781 1372,127.6563 Q1371.3125,128.7188 1371.3125,130.8125 Q1371.3125,132.9063 1372,133.9844 Q1372.6875,135.0469 1374.0313,135.0469 Q1374.6563,135.0469 1375.25,134.7813 Q1375.8438,134.5 1376.4688,133.9219 L1376.4688,136.6406 Z " fill="#000000"/><text fill="#000000" font-family="sans-serif" font-size="14" lengthAdjust="spacing" textLength="138.5576" x="1387.5" y="135.8467">ActuatingProcedure</text><line style="stroke:#181818;stroke-width:0.5;" x1="1359.5" x2="1528.0576" y1="147" y2="147"/><line style="stroke:#181818;stroke-width:0.5;" x1="1359.5" x2="1528.0576" y1="155" y2="155"/></g><!--class ObservingProcedure--><g class="entity" data-qualified-name="ObservingProcedure" data-source-line="7" id="ent0016"><rect fill="#F1F1F1" height="48" rx="2.5" ry="2.5" style="stroke:#181818;stroke-width:0.5;" width="174.707" x="1564.5" y="115"/><ellipse cx="1579.5" cy="131" fill="#ADD1B2" rx="11" ry="11" style="stroke:#181818;stroke-width:1;"/><path d="M1582.4688,136.6406 Q1581.8906,136.9375 1581.25,137.0781 Q1580.6094,137.2344 1579.9063,137.2344 Q1577.4063,137.2344 1576.0781,135.5938 Q1574.7656,133.9375 1574.7656,130.8125 Q1574.7656,127.6875 1576.0781,126.0313 Q1577.4063,124.375 1579.9063,124.375 Q1580.6094,124.375 1581.25,124.5313 Q1581.9063,124.6875 1582.4688,124.9844 L1582.4688,127.7031 Q1581.8438,127.125 1581.25,126.8594 Q1580.6563,126.5781 1580.0313,126.5781 Q1578.6875,126.5781 1578,127.6563 Q1577.3125,128.7188 1577.3125,130.8125 Q1577.3125,132.9063 1578,133.9844 Q1578.6875,135.0469 1580.0313,135.0469 Q1580.6563,135.0469 1581.25,134.7813 Q1581.8438,134.5 1582.4688,133.9219 L1582.4688,136.6406 Z " fill="#000000"/><text fill="#000000" font-family="sans-serif" font-size="14" lengthAdjust="spacing" textLength="142.707" x="1593.5" y="135.8467">ObservingProcedure</text><line style="stroke:#181818;stroke-width:0.5;" x1="1565.5" x2="1738.207" y1="147" y2="147"/><line style="stroke:#181818;stroke-width:0.5;" x1="1565.5" x2="1738.207" y1="155" y2="155"/></g><!--class SamplingProcedure--><g class="entity" data-qualified-name="SamplingProcedure" data-source-line="8" id="ent0018"><rect fill="#F1F1F1" height="48" rx="2.5" ry="2.5" style="stroke:#181818;stroke-width:0.5;" width="168.7324" x="1774.5" y="115"/><ellipse cx="1789.5" cy="131" fill="#ADD1B2" rx="11" ry="11" style="stroke:#181818;stroke-width:1;"/><path d="M1792.4688,136.6406 Q1791.8906,136.9375 1791.25,137.0781 Q1790.6094,137.2344 1789.9063,137.2344 Q1787.4063,137.2344 1786.0781,135.5938 Q1784.7656,133.9375 1784.7656,130.8125 Q1784.7656,127.6875 1786.0781,126.0313 Q1787.4063,124.375 1789.9063,124.375 Q1790.6094,124.375 1791.25,124.5313 Q1791.9063,124.6875 1792.4688,124.9844 L1792.4688,127.7031 Q1791.8438,127.125 1791.25,126.8594 Q1790.6563,126.5781 1790.0313,126.5781 Q1788.6875,126.5781 1788,127.6563 Q1787.3125,128.7188 1787.3125,130.8125 Q1787.3125,132.9063 1788,133.9844 Q1788.6875,135.0469 1790.0313,135.0469 Q1790.6563,135.0469 1791.25,134.7813 Q1791.8438,134.5 1792.4688,133.9219 L1792.4688,136.6406 Z " fill="#000000"/><text fill="#000000" font-family="sans-serif" font-size="14" lengthAdjust="spacing" textLength="136.7324" x="1803.5" y="135.8467">SamplingProcedure</text><line style="stroke:#181818;stroke-width:0.5;" x1="1775.5" x2="1942.2324" y1="147" y2="147"/><line style="stroke:#181818;stroke-width:0.5;" x1="1775.5" x2="1942.2324" y1="155" y2="155"/></g><!--class Asset--><g class="entity" data-qualified-name="Asset" data-source-line="9" id="ent0020"><rect fill="#F1F1F1" height="48" rx="2.5" ry="2.5" style="stroke:#181818;stroke-width:0.5;" width="70.2676" x="2050" y="7"/><ellipse cx="2065" cy="23" fill="#ADD1B2" rx="11" ry="11" style="stroke:#181818;stroke-width:1;"/><path d="M2067.9688,28.6406 Q2067.3906,28.9375 2066.75,29.0781 Q2066.1094,29.2344 2065.4063,29.2344 Q2062.9063,29.2344 2061.5781,27.5938 Q2060.2656,25.9375 2060.2656,22.8125 Q2060.2656,19.6875 2061.5781,18.0313 Q2062.9063,16.375 2065.4063,16.375 Q2066.1094,16.375 2066.75,16.5313 Q2067.4063,16.6875 2067.9688,16.9844 L2067.9688,19.7031 Q2067.3438,19.125 2066.75,18.8594 Q2066.1563,18.5781 2065.5313,18.5781 Q2064.1875,18.5781 2063.5,19.6563 Q2062.8125,20.7188 2062.8125,22.8125 Q2062.8125,24.9063 2063.5,25.9844 Q2064.1875,27.0469 2065.5313,27.0469 Q2066.1563,27.0469 2066.75,26.7813 Q2067.3438,26.5 2067.9688,25.9219 L2067.9688,28.6406 Z " fill="#000000"/><text fill="#000000" font-family="sans-serif" font-size="14" lengthAdjust="spacing" textLength="38.2676" x="2079" y="27.8467">Asset</text><line style="stroke:#181818;stroke-width:0.5;" x1="2051" x2="2119.2676" y1="39" y2="39"/><line style="stroke:#181818;stroke-width:0.5;" x1="2051" x2="2119.2676" y1="47" y2="47"/></g><!--class Platform--><g class="entity" data-qualified-name="Platform" data-source-line="9" id="ent0021"><rect fill="#F1F1F1" height="48" rx="2.5" ry="2.5" style="stroke:#181818;stroke-width:0.5;" width="91.2881" x="1978.5" y="115"/><ellipse cx="1993.5" cy="131" fill="#ADD1B2" rx="11" ry="11" style="stroke:#181818;stroke-width:1;"/><path d="M1996.4688,136.6406 Q1995.8906,136.9375 1995.25,137.0781 Q1994.6094,137.2344 1993.9063,137.2344 Q1991.4063,137.2344 1990.0781,135.5938 Q1988.7656,133.9375 1988.7656,130.8125 Q1988.7656,127.6875 1990.0781,126.0313 Q1991.4063,124.375 1993.9063,124.375 Q1994.6094,124.375 1995.25,124.5313 Q1995.9063,124.6875 1996.4688,124.9844 L1996.4688,127.7031 Q1995.8438,127.125 1995.25,126.8594 Q1994.6563,126.5781 1994.0313,126.5781 Q1992.6875,126.5781 1992,127.6563 Q1991.3125,128.7188 1991.3125,130.8125 Q1991.3125,132.9063 1992,133.9844 Q1992.6875,135.0469 1994.0313,135.0469 Q1994.6563,135.0469 1995.25,134.7813 Q1995.8438,134.5 1996.4688,133.9219 L1996.4688,136.6406 Z " fill="#000000"/><text fill="#000000" font-family="sans-serif" font-size="14" lengthAdjust="spacing" textLength="59.2881" x="2007.5" y="135.8467">Platform</text><line style="stroke:#181818;stroke-width:0.5;" x1="1979.5" x2="2068.7881" y1="147" y2="147"/><line style="stroke:#181818;stroke-width:0.5;" x1="1979.5" x2="2068.7881" y1="155" y2="155"/></g><!--class System--><g class="entity" data-qualified-name="System" data-source-line="10" id="ent0023"><rect fill="#F1F1F1" height="48" rx="2.5" ry="2.5" style="stroke:#181818;stroke-width:0.5;" width="84.2061" x="2105" y="115"/><ellipse cx="2120" cy="131" fill="#ADD1B2" rx="11" ry="11" style="stroke:#181818;stroke-width:1;"/><path d="M2122.9688,136.6406 Q2122.3906,136.9375 2121.75,137.0781 Q2121.1094,137.2344 2120.4063,137.2344 Q2117.9063,137.2344 2116.5781,135.5938 Q2115.2656,133.9375 2115.2656,130.8125 Q2115.2656,127.6875 2116.5781,126.0313 Q2117.9063,124.375 2120.4063,124.375 Q2121.1094,124.375 2121.75,124.5313 Q2122.4063,124.6875 2122.9688,124.9844 L2122.9688,127.7031 Q2122.3438,127.125 2121.75,126.8594 Q2121.1563,126.5781 2120.5313,126.5781 Q2119.1875,126.5781 2118.5,127.6563 Q2117.8125,128.7188 2117.8125,130.8125 Q2117.8125,132.9063 2118.5,133.9844 Q2119.1875,135.0469 2120.5313,135.0469 Q2121.1563,135.0469 2121.75,134.7813 Q2122.3438,134.5 2122.9688,133.9219 L2122.9688,136.6406 Z " fill="#000000"/><text fill="#000000" font-family="sans-serif" font-size="14" lengthAdjust="spacing" textLength="52.2061" x="2134" y="135.8467">System</text><line style="stroke:#181818;stroke-width:0.5;" x1="2106" x2="2188.2061" y1="147" y2="147"/><line style="stroke:#181818;stroke-width:0.5;" x1="2106" x2="2188.2061" y1="155" y2="155"/></g><!--class Sampler--><g class="entity" data-qualified-name="Sampler" data-source-line="10" id="ent0024"><rect fill="#F1F1F1" height="48" rx="2.5" ry="2.5" style="stroke:#181818;stroke-width:0.5;" width="90.249" x="1976" y="223"/><ellipse cx="1991" cy="239" fill="#ADD1B2" rx="11" ry="11" style="stroke:#181818;stroke-width:1;"/><path d="M1993.9688,244.6406 Q1993.3906,244.9375 1992.75,245.0781 Q1992.1094,245.2344 1991.4063,245.2344 Q1988.9063,245.2344 1987.5781,243.5938 Q1986.2656,241.9375 1986.2656,238.8125 Q1986.2656,235.6875 1987.5781,234.0313 Q1988.9063,232.375 1991.4063,232.375 Q1992.1094,232.375 1992.75,232.5313 Q1993.4063,232.6875 1993.9688,232.9844 L1993.9688,235.7031 Q1993.3438,235.125 1992.75,234.8594 Q1992.1563,234.5781 1991.5313,234.5781 Q1990.1875,234.5781 1989.5,235.6563 Q1988.8125,236.7188 1988.8125,238.8125 Q1988.8125,240.9063 1989.5,241.9844 Q1990.1875,243.0469 1991.5313,243.0469 Q1992.1563,243.0469 1992.75,242.7813 Q1993.3438,242.5 1993.9688,241.9219 L1993.9688,244.6406 Z " fill="#000000"/><text fill="#000000" font-family="sans-serif" font-size="14" lengthAdjust="spacing" textLength="58.249" x="2005" y="243.8467">Sampler</text><line style="stroke:#181818;stroke-width:0.5;" x1="1977" x2="2065.249" y1="255" y2="255"/><line style="stroke:#181818;stroke-width:0.5;" x1="1977" x2="2065.249" y1="263" y2="263"/></g><!--class Actuator--><g class="entity" data-qualified-name="Actuator" data-source-line="11" id="ent0026"><rect fill="#F1F1F1" height="48" rx="2.5" ry="2.5" style="stroke:#181818;stroke-width:0.5;" width="92.0264" x="2101" y="223"/><ellipse cx="2116" cy="239" fill="#ADD1B2" rx="11" ry="11" style="stroke:#181818;stroke-width:1;"/><path d="M2118.9688,244.6406 Q2118.3906,244.9375 2117.75,245.0781 Q2117.1094,245.2344 2116.4063,245.2344 Q2113.9063,245.2344 2112.5781,243.5938 Q2111.2656,241.9375 2111.2656,238.8125 Q2111.2656,235.6875 2112.5781,234.0313 Q2113.9063,232.375 2116.4063,232.375 Q2117.1094,232.375 2117.75,232.5313 Q2118.4063,232.6875 2118.9688,232.9844 L2118.9688,235.7031 Q2118.3438,235.125 2117.75,234.8594 Q2117.1563,234.5781 2116.5313,234.5781 Q2115.1875,234.5781 2114.5,235.6563 Q2113.8125,236.7188 2113.8125,238.8125 Q2113.8125,240.9063 2114.5,241.9844 Q2115.1875,243.0469 2116.5313,243.0469 Q2117.1563,243.0469 2117.75,242.7813 Q2118.3438,242.5 2118.9688,241.9219 L2118.9688,244.6406 Z " fill="#000000"/><text fill="#000000" font-family="sans-serif" font-size="14" lengthAdjust="spacing" textLength="60.0264" x="2130" y="243.8467">Actuator</text><line style="stroke:#181818;stroke-width:0.5;" x1="2102" x2="2192.0264" y1="255" y2="255"/><line style="stroke:#181818;stroke-width:0.5;" x1="2102" x2="2192.0264" y1="263" y2="263"/></g><!--class Execution--><g class="entity" data-qualified-name="Execution" data-source-line="13" id="ent0029"><rect fill="#F1F1F1" height="48" rx="2.5" ry="2.5" style="stroke:#181818;stroke-width:0.5;" width="101.1318" x="2356.5" y="7"/><ellipse cx="2371.5" cy="23" fill="#ADD1B2" rx="11" ry="11" style="stroke:#181818;stroke-width:1;"/><path d="M2374.4688,28.6406 Q2373.8906,28.9375 2373.25,29.0781 Q2372.6094,29.2344 2371.9063,29.2344 Q2369.4063,29.2344 2368.0781,27.5938 Q2366.7656,25.9375 2366.7656,22.8125 Q2366.7656,19.6875 2368.0781,18.0313 Q2369.4063,16.375 2371.9063,16.375 Q2372.6094,16.375 2373.25,16.5313 Q2373.9063,16.6875 2374.4688,16.9844 L2374.4688,19.7031 Q2373.8438,19.125 2373.25,18.8594 Q2372.6563,18.5781 2372.0313,18.5781 Q2370.6875,18.5781 2370,19.6563 Q2369.3125,20.7188 2369.3125,22.8125 Q2369.3125,24.9063 2370,25.9844 Q2370.6875,27.0469 2372.0313,27.0469 Q2372.6563,27.0469 2373.25,26.7813 Q2373.8438,26.5 2374.4688,25.9219 L2374.4688,28.6406 Z " fill="#000000"/><text fill="#000000" font-family="sans-serif" font-size="14" lengthAdjust="spacing" textLength="69.1318" x="2385.5" y="27.8467">Execution</text><line style="stroke:#181818;stroke-width:0.5;" x1="2357.5" x2="2456.6318" y1="39" y2="39"/><line style="stroke:#181818;stroke-width:0.5;" x1="2357.5" x2="2456.6318" y1="47" y2="47"/></g><!--class Sampling--><g class="entity" data-qualified-name="Sampling" data-source-line="13" id="ent0030"><rect fill="#F1F1F1" height="48" rx="2.5" ry="2.5" style="stroke:#181818;stroke-width:0.5;" width="97.5293" x="2224" y="115"/><ellipse cx="2239" cy="131" fill="#ADD1B2" rx="11" ry="11" style="stroke:#181818;stroke-width:1;"/><path d="M2241.9688,136.6406 Q2241.3906,136.9375 2240.75,137.0781 Q2240.1094,137.2344 2239.4063,137.2344 Q2236.9063,137.2344 2235.5781,135.5938 Q2234.2656,133.9375 2234.2656,130.8125 Q2234.2656,127.6875 2235.5781,126.0313 Q2236.9063,124.375 2239.4063,124.375 Q2240.1094,124.375 2240.75,124.5313 Q2241.4063,124.6875 2241.9688,124.9844 L2241.9688,127.7031 Q2241.3438,127.125 2240.75,126.8594 Q2240.1563,126.5781 2239.5313,126.5781 Q2238.1875,126.5781 2237.5,127.6563 Q2236.8125,128.7188 2236.8125,130.8125 Q2236.8125,132.9063 2237.5,133.9844 Q2238.1875,135.0469 2239.5313,135.0469 Q2240.1563,135.0469 2240.75,134.7813 Q2241.3438,134.5 2241.9688,133.9219 L2241.9688,136.6406 Z " fill="#000000"/><text fill="#000000" font-family="sans-serif" font-size="14" lengthAdjust="spacing" textLength="65.5293" x="2253" y="135.8467">Sampling</text><line style="stroke:#181818;stroke-width:0.5;" x1="2225" x2="2320.5293" y1="147" y2="147"/><line style="stroke:#181818;stroke-width:0.5;" x1="2225" x2="2320.5293" y1="155" y2="155"/></g><!--class ExecutionCollection--><g class="entity" data-qualified-name="ExecutionCollection" data-source-line="14" id="ent0032"><rect fill="#F1F1F1" height="48" rx="2.5" ry="2.5" style="stroke:#181818;stroke-width:0.5;" width="170.3799" x="2844" y="7"/><ellipse cx="2859" cy="23" fill="#ADD1B2" rx="11" ry="11" style="stroke:#181818;stroke-width:1;"/><path d="M2861.9688,28.6406 Q2861.3906,28.9375 2860.75,29.0781 Q2860.1094,29.2344 2859.4063,29.2344 Q2856.9063,29.2344 2855.5781,27.5938 Q2854.2656,25.9375 2854.2656,22.8125 Q2854.2656,19.6875 2855.5781,18.0313 Q2856.9063,16.375 2859.4063,16.375 Q2860.1094,16.375 2860.75,16.5313 Q2861.4063,16.6875 2861.9688,16.9844 L2861.9688,19.7031 Q2861.3438,19.125 2860.75,18.8594 Q2860.1563,18.5781 2859.5313,18.5781 Q2858.1875,18.5781 2857.5,19.6563 Q2856.8125,20.7188 2856.8125,22.8125 Q2856.8125,24.9063 2857.5,25.9844 Q2858.1875,27.0469 2859.5313,27.0469 Q2860.1563,27.0469 2860.75,26.7813 Q2861.3438,26.5 2861.9688,25.9219 L2861.9688,28.6406 Z " fill="#000000"/><text fill="#000000" font-family="sans-serif" font-size="14" lengthAdjust="spacing" textLength="138.3799" x="2873" y="27.8467">ExecutionCollection</text><line style="stroke:#181818;stroke-width:0.5;" x1="2845" x2="3013.3799" y1="39" y2="39"/><line style="stroke:#181818;stroke-width:0.5;" x1="2845" x2="3013.3799" y1="47" y2="47"/></g><!--class SamplingCollection--><g class="entity" data-qualified-name="SamplingCollection" data-source-line="14" id="ent0033"><rect fill="#F1F1F1" height="48" rx="2.5" ry="2.5" style="stroke:#181818;stroke-width:0.5;" width="166.7773" x="2643.5" y="115"/><ellipse cx="2658.5" cy="131" fill="#ADD1B2" rx="11" ry="11" style="stroke:#181818;stroke-width:1;"/><path d="M2661.4688,136.6406 Q2660.8906,136.9375 2660.25,137.0781 Q2659.6094,137.2344 2658.9063,137.2344 Q2656.4063,137.2344 2655.0781,135.5938 Q2653.7656,133.9375 2653.7656,130.8125 Q2653.7656,127.6875 2655.0781,126.0313 Q2656.4063,124.375 2658.9063,124.375 Q2659.6094,124.375 2660.25,124.5313 Q2660.9063,124.6875 2661.4688,124.9844 L2661.4688,127.7031 Q2660.8438,127.125 2660.25,126.8594 Q2659.6563,126.5781 2659.0313,126.5781 Q2657.6875,126.5781 2657,127.6563 Q2656.3125,128.7188 2656.3125,130.8125 Q2656.3125,132.9063 2657,133.9844 Q2657.6875,135.0469 2659.0313,135.0469 Q2659.6563,135.0469 2660.25,134.7813 Q2660.8438,134.5 2661.4688,133.9219 L2661.4688,136.6406 Z " fill="#000000"/><text fill="#000000" font-family="sans-serif" font-size="14" lengthAdjust="spacing" textLength="134.7773" x="2672.5" y="135.8467">SamplingCollection</text><line style="stroke:#181818;stroke-width:0.5;" x1="2644.5" x2="2809.2773" y1="147" y2="147"/><line style="stroke:#181818;stroke-width:0.5;" x1="2644.5" x2="2809.2773" y1="155" y2="155"/></g><!--class Actuation--><g class="entity" data-qualified-name="Actuation" data-source-line="15" id="ent0035"><rect fill="#F1F1F1" height="48" rx="2.5" ry="2.5" style="stroke:#181818;stroke-width:0.5;" width="99.0332" x="2357.5" y="115"/><ellipse cx="2372.5" cy="131" fill="#ADD1B2" rx="11" ry="11" style="stroke:#181818;stroke-width:1;"/><path d="M2375.4688,136.6406 Q2374.8906,136.9375 2374.25,137.0781 Q2373.6094,137.2344 2372.9063,137.2344 Q2370.4063,137.2344 2369.0781,135.5938 Q2367.7656,133.9375 2367.7656,130.8125 Q2367.7656,127.6875 2369.0781,126.0313 Q2370.4063,124.375 2372.9063,124.375 Q2373.6094,124.375 2374.25,124.5313 Q2374.9063,124.6875 2375.4688,124.9844 L2375.4688,127.7031 Q2374.8438,127.125 2374.25,126.8594 Q2373.6563,126.5781 2373.0313,126.5781 Q2371.6875,126.5781 2371,127.6563 Q2370.3125,128.7188 2370.3125,130.8125 Q2370.3125,132.9063 2371,133.9844 Q2371.6875,135.0469 2373.0313,135.0469 Q2373.6563,135.0469 2374.25,134.7813 Q2374.8438,134.5 2375.4688,133.9219 L2375.4688,136.6406 Z " fill="#000000"/><text fill="#000000" font-family="sans-serif" font-size="14" lengthAdjust="spacing" textLength="67.0332" x="2386.5" y="135.8467">Actuation</text><line style="stroke:#181818;stroke-width:0.5;" x1="2358.5" x2="2455.5332" y1="147" y2="147"/><line style="stroke:#181818;stroke-width:0.5;" x1="2358.5" x2="2455.5332" y1="155" y2="155"/></g><!--class Sensor--><g class="entity" data-qualified-name="Sensor" data-source-line="16" id="ent0037"><rect fill="#F1F1F1" height="48" rx="2.5" ry="2.5" style="stroke:#181818;stroke-width:0.5;" width="79.9883" x="2228" y="223"/><ellipse cx="2243" cy="239" fill="#ADD1B2" rx="11" ry="11" style="stroke:#181818;stroke-width:1;"/><path d="M2245.9688,244.6406 Q2245.3906,244.9375 2244.75,245.0781 Q2244.1094,245.2344 2243.4063,245.2344 Q2240.9063,245.2344 2239.5781,243.5938 Q2238.2656,241.9375 2238.2656,238.8125 Q2238.2656,235.6875 2239.5781,234.0313 Q2240.9063,232.375 2243.4063,232.375 Q2244.1094,232.375 2244.75,232.5313 Q2245.4063,232.6875 2245.9688,232.9844 L2245.9688,235.7031 Q2245.3438,235.125 2244.75,234.8594 Q2244.1563,234.5781 2243.5313,234.5781 Q2242.1875,234.5781 2241.5,235.6563 Q2240.8125,236.7188 2240.8125,238.8125 Q2240.8125,240.9063 2241.5,241.9844 Q2242.1875,243.0469 2243.5313,243.0469 Q2244.1563,243.0469 2244.75,242.7813 Q2245.3438,242.5 2245.9688,241.9219 L2245.9688,244.6406 Z " fill="#000000"/><text fill="#000000" font-family="sans-serif" font-size="14" lengthAdjust="spacing" textLength="47.9883" x="2257" y="243.8467">Sensor</text><line style="stroke:#181818;stroke-width:0.5;" x1="2229" x2="2306.9883" y1="255" y2="255"/><line style="stroke:#181818;stroke-width:0.5;" x1="2229" x2="2306.9883" y1="263" y2="263"/></g><!--class ActuationCollection--><g class="entity" data-qualified-name="ActuationCollection" data-source-line="17" id="ent0039"><rect fill="#F1F1F1" height="48" rx="2.5" ry="2.5" style="stroke:#181818;stroke-width:0.5;" width="168.2813" x="2845" y="115"/><ellipse cx="2860" cy="131" fill="#ADD1B2" rx="11" ry="11" style="stroke:#181818;stroke-width:1;"/><path d="M2862.9688,136.6406 Q2862.3906,136.9375 2861.75,137.0781 Q2861.1094,137.2344 2860.4063,137.2344 Q2857.9063,137.2344 2856.5781,135.5938 Q2855.2656,133.9375 2855.2656,130.8125 Q2855.2656,127.6875 2856.5781,126.0313 Q2857.9063,124.375 2860.4063,124.375 Q2861.1094,124.375 2861.75,124.5313 Q2862.4063,124.6875 2862.9688,124.9844 L2862.9688,127.7031 Q2862.3438,127.125 2861.75,126.8594 Q2861.1563,126.5781 2860.5313,126.5781 Q2859.1875,126.5781 2858.5,127.6563 Q2857.8125,128.7188 2857.8125,130.8125 Q2857.8125,132.9063 2858.5,133.9844 Q2859.1875,135.0469 2860.5313,135.0469 Q2861.1563,135.0469 2861.75,134.7813 Q2862.3438,134.5 2862.9688,133.9219 L2862.9688,136.6406 Z " fill="#000000"/><text fill="#000000" font-family="sans-serif" font-size="14" lengthAdjust="spacing" textLength="136.2813" x="2874" y="135.8467">ActuationCollection</text><line style="stroke:#181818;stroke-width:0.5;" x1="2846" x2="3012.2813" y1="147" y2="147"/><line style="stroke:#181818;stroke-width:0.5;" x1="2846" x2="3012.2813" y1="155" y2="155"/></g><!--class ObservationCollection--><g class="entity" data-qualified-name="ObservationCollection" data-source-line="18" id="ent0041"><rect fill="#F1F1F1" height="48" rx="2.5" ry="2.5" style="stroke:#181818;stroke-width:0.5;" width="186.499" x="3048" y="115"/><ellipse cx="3063" cy="131" fill="#ADD1B2" rx="11" ry="11" style="stroke:#181818;stroke-width:1;"/><path d="M3065.9688,136.6406 Q3065.3906,136.9375 3064.75,137.0781 Q3064.1094,137.2344 3063.4063,137.2344 Q3060.9063,137.2344 3059.5781,135.5938 Q3058.2656,133.9375 3058.2656,130.8125 Q3058.2656,127.6875 3059.5781,126.0313 Q3060.9063,124.375 3063.4063,124.375 Q3064.1094,124.375 3064.75,124.5313 Q3065.4063,124.6875 3065.9688,124.9844 L3065.9688,127.7031 Q3065.3438,127.125 3064.75,126.8594 Q3064.1563,126.5781 3063.5313,126.5781 Q3062.1875,126.5781 3061.5,127.6563 Q3060.8125,128.7188 3060.8125,130.8125 Q3060.8125,132.9063 3061.5,133.9844 Q3062.1875,135.0469 3063.5313,135.0469 Q3064.1563,135.0469 3064.75,134.7813 Q3065.3438,134.5 3065.9688,133.9219 L3065.9688,136.6406 Z " fill="#000000"/><text fill="#000000" font-family="sans-serif" font-size="14" lengthAdjust="spacing" textLength="154.499" x="3077" y="135.8467">ObservationCollection</text><line style="stroke:#181818;stroke-width:0.5;" x1="3049" x2="3233.499" y1="147" y2="147"/><line style="stroke:#181818;stroke-width:0.5;" x1="3049" x2="3233.499" y1="155" y2="155"/></g><!--class Observation--><g class="entity" data-qualified-name="Observation" data-source-line="19" id="ent0043"><rect fill="#F1F1F1" height="48" rx="2.5" ry="2.5" style="stroke:#181818;stroke-width:0.5;" width="117.251" x="2491.5" y="115"/><ellipse cx="2506.5" cy="131" fill="#ADD1B2" rx="11" ry="11" style="stroke:#181818;stroke-width:1;"/><path d="M2509.4688,136.6406 Q2508.8906,136.9375 2508.25,137.0781 Q2507.6094,137.2344 2506.9063,137.2344 Q2504.4063,137.2344 2503.0781,135.5938 Q2501.7656,133.9375 2501.7656,130.8125 Q2501.7656,127.6875 2503.0781,126.0313 Q2504.4063,124.375 2506.9063,124.375 Q2507.6094,124.375 2508.25,124.5313 Q2508.9063,124.6875 2509.4688,124.9844 L2509.4688,127.7031 Q2508.8438,127.125 2508.25,126.8594 Q2507.6563,126.5781 2507.0313,126.5781 Q2505.6875,126.5781 2505,127.6563 Q2504.3125,128.7188 2504.3125,130.8125 Q2504.3125,132.9063 2505,133.9844 Q2505.6875,135.0469 2507.0313,135.0469 Q2507.6563,135.0469 2508.25,134.7813 Q2508.8438,134.5 2509.4688,133.9219 L2509.4688,136.6406 Z " fill="#000000"/><text fill="#000000" font-family="sans-serif" font-size="14" lengthAdjust="spacing" textLength="85.251" x="2520.5" y="135.8467">Observation</text><line style="stroke:#181818;stroke-width:0.5;" x1="2492.5" x2="2607.751" y1="147" y2="147"/><line style="stroke:#181818;stroke-width:0.5;" x1="2492.5" x2="2607.751" y1="155" y2="155"/></g><!--class SampleCollection--><g class="entity" data-qualified-name="SampleCollection" data-source-line="21" id="ent0045"><rect fill="#F1F1F1" height="48" rx="2.5" ry="2.5" style="stroke:#181818;stroke-width:0.5;" width="153.7412" x="8" y="7"/><ellipse cx="23" cy="23" fill="#ADD1B2" rx="11" ry="11" style="stroke:#181818;stroke-width:1;"/><path d="M25.9688,28.6406 Q25.3906,28.9375 24.75,29.0781 Q24.1094,29.2344 23.4063,29.2344 Q20.9063,29.2344 19.5781,27.5938 Q18.2656,25.9375 18.2656,22.8125 Q18.2656,19.6875 19.5781,18.0313 Q20.9063,16.375 23.4063,16.375 Q24.1094,16.375 24.75,16.5313 Q25.4063,16.6875 25.9688,16.9844 L25.9688,19.7031 Q25.3438,19.125 24.75,18.8594 Q24.1563,18.5781 23.5313,18.5781 Q22.1875,18.5781 21.5,19.6563 Q20.8125,20.7188 20.8125,22.8125 Q20.8125,24.9063 21.5,25.9844 Q22.1875,27.0469 23.5313,27.0469 Q24.1563,27.0469 24.75,26.7813 Q25.3438,26.5 25.9688,25.9219 L25.9688,28.6406 Z " fill="#000000"/><text fill="#000000" font-family="sans-serif" font-size="14" lengthAdjust="spacing" textLength="121.7412" x="37" y="27.8467">SampleCollection</text><line style="stroke:#181818;stroke-width:0.5;" x1="9" x2="160.7412" y1="39" y2="39"/><line style="stroke:#181818;stroke-width:0.5;" x1="9" x2="160.7412" y1="47" y2="47"/></g><!--class Output--><g class="entity" data-qualified-name="Output" data-source-line="22" id="ent0046"><rect fill="#F1F1F1" height="48" rx="2.5" ry="2.5" style="stroke:#181818;stroke-width:0.5;" width="80.6309" x="197.5" y="7"/><ellipse cx="212.5" cy="23" fill="#ADD1B2" rx="11" ry="11" style="stroke:#181818;stroke-width:1;"/><path d="M215.4688,28.6406 Q214.8906,28.9375 214.25,29.0781 Q213.6094,29.2344 212.9063,29.2344 Q210.4063,29.2344 209.0781,27.5938 Q207.7656,25.9375 207.7656,22.8125 Q207.7656,19.6875 209.0781,18.0313 Q210.4063,16.375 212.9063,16.375 Q213.6094,16.375 214.25,16.5313 Q214.9063,16.6875 215.4688,16.9844 L215.4688,19.7031 Q214.8438,19.125 214.25,18.8594 Q213.6563,18.5781 213.0313,18.5781 Q211.6875,18.5781 211,19.6563 Q210.3125,20.7188 210.3125,22.8125 Q210.3125,24.9063 211,25.9844 Q211.6875,27.0469 213.0313,27.0469 Q213.6563,27.0469 214.25,26.7813 Q214.8438,26.5 215.4688,25.9219 L215.4688,28.6406 Z " fill="#000000"/><text fill="#000000" font-family="sans-serif" font-size="14" lengthAdjust="spacing" textLength="48.6309" x="226.5" y="27.8467">Output</text><line style="stroke:#181818;stroke-width:0.5;" x1="198.5" x2="277.1309" y1="39" y2="39"/><line style="stroke:#181818;stroke-width:0.5;" x1="198.5" x2="277.1309" y1="47" y2="47"/></g><!--class Stimulus--><g class="entity" data-qualified-name="Stimulus" data-source-line="24" id="ent0047"><rect fill="#F1F1F1" height="48" rx="2.5" ry="2.5" style="stroke:#181818;stroke-width:0.5;" width="92.833" x="313.5" y="7"/><ellipse cx="328.5" cy="23" fill="#ADD1B2" rx="11" ry="11" style="stroke:#181818;stroke-width:1;"/><path d="M331.4688,28.6406 Q330.8906,28.9375 330.25,29.0781 Q329.6094,29.2344 328.9063,29.2344 Q326.4063,29.2344 325.0781,27.5938 Q323.7656,25.9375 323.7656,22.8125 Q323.7656,19.6875 325.0781,18.0313 Q326.4063,16.375 328.9063,16.375 Q329.6094,16.375 330.25,16.5313 Q330.9063,16.6875 331.4688,16.9844 L331.4688,19.7031 Q330.8438,19.125 330.25,18.8594 Q329.6563,18.5781 329.0313,18.5781 Q327.6875,18.5781 327,19.6563 Q326.3125,20.7188 326.3125,22.8125 Q326.3125,24.9063 327,25.9844 Q327.6875,27.0469 329.0313,27.0469 Q329.6563,27.0469 330.25,26.7813 Q330.8438,26.5 331.4688,25.9219 L331.4688,28.6406 Z " fill="#000000"/><text fill="#000000" font-family="sans-serif" font-size="14" lengthAdjust="spacing" textLength="60.833" x="342.5" y="27.8467">Stimulus</text><line style="stroke:#181818;stroke-width:0.5;" x1="314.5" x2="405.333" y1="39" y2="39"/><line style="stroke:#181818;stroke-width:0.5;" x1="314.5" x2="405.333" y1="47" y2="47"/></g><!--class Result--><g class="entity" data-qualified-name="Result" data-source-line="26" id="ent0048"><rect fill="#F1F1F1" height="48" rx="2.5" ry="2.5" style="stroke:#181818;stroke-width:0.5;" width="75.8867" x="47" y="115"/><ellipse cx="62" cy="131" fill="#ADD1B2" rx="11" ry="11" style="stroke:#181818;stroke-width:1;"/><path d="M64.9688,136.6406 Q64.3906,136.9375 63.75,137.0781 Q63.1094,137.2344 62.4063,137.2344 Q59.9063,137.2344 58.5781,135.5938 Q57.2656,133.9375 57.2656,130.8125 Q57.2656,127.6875 58.5781,126.0313 Q59.9063,124.375 62.4063,124.375 Q63.1094,124.375 63.75,124.5313 Q64.4063,124.6875 64.9688,124.9844 L64.9688,127.7031 Q64.3438,127.125 63.75,126.8594 Q63.1563,126.5781 62.5313,126.5781 Q61.1875,126.5781 60.5,127.6563 Q59.8125,128.7188 59.8125,130.8125 Q59.8125,132.9063 60.5,133.9844 Q61.1875,135.0469 62.5313,135.0469 Q63.1563,135.0469 63.75,134.7813 Q64.3438,134.5 64.9688,133.9219 L64.9688,136.6406 Z " fill="#000000"/><text fill="#000000" font-family="sans-serif" font-size="14" lengthAdjust="spacing" textLength="43.8867" x="76" y="135.8467">Result</text><line style="stroke:#181818;stroke-width:0.5;" x1="48" x2="121.8867" y1="147" y2="147"/><line style="stroke:#181818;stroke-width:0.5;" x1="48" x2="121.8867" y1="155" y2="155"/></g><!--class Input--><g class="entity" data-qualified-name="Input" data-source-line="27" id="ent0049"><rect fill="#F1F1F1" height="48" rx="2.5" ry="2.5" style="stroke:#181818;stroke-width:0.5;" width="68.251" x="158" y="115"/><ellipse cx="173" cy="131" fill="#ADD1B2" rx="11" ry="11" style="stroke:#181818;stroke-width:1;"/><path d="M175.9688,136.6406 Q175.3906,136.9375 174.75,137.0781 Q174.1094,137.2344 173.4063,137.2344 Q170.9063,137.2344 169.5781,135.5938 Q168.2656,133.9375 168.2656,130.8125 Q168.2656,127.6875 169.5781,126.0313 Q170.9063,124.375 173.4063,124.375 Q174.1094,124.375 174.75,124.5313 Q175.4063,124.6875 175.9688,124.9844 L175.9688,127.7031 Q175.3438,127.125 174.75,126.8594 Q174.1563,126.5781 173.5313,126.5781 Q172.1875,126.5781 171.5,127.6563 Q170.8125,128.7188 170.8125,130.8125 Q170.8125,132.9063 171.5,133.9844 Q172.1875,135.0469 173.5313,135.0469 Q174.1563,135.0469 174.75,134.7813 Q175.3438,134.5 175.9688,133.9219 L175.9688,136.6406 Z " fill="#000000"/><text fill="#000000" font-family="sans-serif" font-size="14" lengthAdjust="spacing" textLength="36.251" x="187" y="135.8467">Input</text><line style="stroke:#181818;stroke-width:0.5;" x1="159" x2="225.251" y1="147" y2="147"/><line style="stroke:#181818;stroke-width:0.5;" x1="159" x2="225.251" y1="155" y2="155"/></g><!--class Deployment--><g class="entity" data-qualified-name="Deployment" data-source-line="28" id="ent0050"><rect fill="#F1F1F1" height="48" rx="2.5" ry="2.5" style="stroke:#181818;stroke-width:0.5;" width="117.6338" x="261" y="115"/><ellipse cx="276" cy="131" fill="#ADD1B2" rx="11" ry="11" style="stroke:#181818;stroke-width:1;"/><path d="M278.9688,136.6406 Q278.3906,136.9375 277.75,137.0781 Q277.1094,137.2344 276.4063,137.2344 Q273.9063,137.2344 272.5781,135.5938 Q271.2656,133.9375 271.2656,130.8125 Q271.2656,127.6875 272.5781,126.0313 Q273.9063,124.375 276.4063,124.375 Q277.1094,124.375 277.75,124.5313 Q278.4063,124.6875 278.9688,124.9844 L278.9688,127.7031 Q278.3438,127.125 277.75,126.8594 Q277.1563,126.5781 276.5313,126.5781 Q275.1875,126.5781 274.5,127.6563 Q273.8125,128.7188 273.8125,130.8125 Q273.8125,132.9063 274.5,133.9844 Q275.1875,135.0469 276.5313,135.0469 Q277.1563,135.0469 277.75,134.7813 Q278.3438,134.5 278.9688,133.9219 L278.9688,136.6406 Z " fill="#000000"/><text fill="#000000" font-family="sans-serif" font-size="14" lengthAdjust="spacing" textLength="85.6338" x="290" y="135.8467">Deployment</text><line style="stroke:#181818;stroke-width:0.5;" x1="262" x2="377.6338" y1="147" y2="147"/><line style="stroke:#181818;stroke-width:0.5;" x1="262" x2="377.6338" y1="155" y2="155"/></g><!--class FeatureOfInterest--><g class="entity" data-qualified-name="FeatureOfInterest" data-source-line="30" id="ent0051"><rect fill="#F1F1F1" height="48" rx="2.5" ry="2.5" style="stroke:#181818;stroke-width:0.5;" width="156.1816" x="7" y="223"/><ellipse cx="22" cy="239" fill="#ADD1B2" rx="11" ry="11" style="stroke:#181818;stroke-width:1;"/><path d="M24.9688,244.6406 Q24.3906,244.9375 23.75,245.0781 Q23.1094,245.2344 22.4063,245.2344 Q19.9063,245.2344 18.5781,243.5938 Q17.2656,241.9375 17.2656,238.8125 Q17.2656,235.6875 18.5781,234.0313 Q19.9063,232.375 22.4063,232.375 Q23.1094,232.375 23.75,232.5313 Q24.4063,232.6875 24.9688,232.9844 L24.9688,235.7031 Q24.3438,235.125 23.75,234.8594 Q23.1563,234.5781 22.5313,234.5781 Q21.1875,234.5781 20.5,235.6563 Q19.8125,236.7188 19.8125,238.8125 Q19.8125,240.9063 20.5,241.9844 Q21.1875,243.0469 22.5313,243.0469 Q23.1563,243.0469 23.75,242.7813 Q24.3438,242.5 24.9688,241.9219 L24.9688,244.6406 Z " fill="#000000"/><text fill="#000000" font-family="sans-serif" font-size="14" lengthAdjust="spacing" textLength="124.1816" x="36" y="243.8467">FeatureOfInterest</text><line style="stroke:#181818;stroke-width:0.5;" x1="8" x2="162.1816" y1="255" y2="255"/><line style="stroke:#181818;stroke-width:0.5;" x1="8" x2="162.1816" y1="263" y2="263"/></g><!--reverse link Property to ActuatableProperty--><g class="link" data-entity-1="ent0001" data-entity-2="ent0002" data-link-type="extension" data-source-line="1" id="lnk3"><path codeLine="1" d="M565.3905,67.9716 C548.4005,85.6316 537.51,96.94 520.44,114.68" fill="none" id="Property-backto-ActuatableProperty" style="stroke:#181818;stroke-width:1;"/><polygon fill="none" points="577.87,55,561.0667,63.8118,569.7144,72.1314,577.87,55" style="stroke:#181818;stroke-width:1;stroke-linejoin:miter;stroke-miterlimit:10;"/></g><!--reverse link Sample to MaterialSample--><g class="link" data-entity-1="ent0004" data-entity-2="ent0005" data-link-type="extension" data-source-line="2" id="lnk6"><path codeLine="2" d="M1014.3567,64.4445 C985.6067,82.1645 961.35,97.11 932.55,114.86" fill="none" id="Sample-backto-MaterialSample" style="stroke:#181818;stroke-width:1;"/><polygon fill="none" points="1029.68,55,1011.2086,59.3367,1017.5049,69.5522,1029.68,55" style="stroke:#181818;stroke-width:1;stroke-linejoin:miter;stroke-miterlimit:10;"/></g><!--reverse link Sample to SpatialSample--><g class="link" data-entity-1="ent0004" data-entity-2="ent0007" data-link-type="extension" data-source-line="3" id="lnk8"><path codeLine="3" d="M1067,73 C1067,90.66 1067,96.94 1067,114.68" fill="none" id="Sample-backto-SpatialSample" style="stroke:#181818;stroke-width:1;"/><polygon fill="none" points="1067,55,1061,73,1073,73,1067,55" style="stroke:#181818;stroke-width:1;stroke-linejoin:miter;stroke-miterlimit:10;"/></g><!--reverse link Sample to StatisticalSample--><g class="link" data-entity-1="ent0004" data-entity-2="ent0009" data-link-type="extension" data-source-line="4" id="lnk10"><path codeLine="4" d="M1121.3276,64.1725 C1151.2476,81.8925 1176.95,97.11 1206.93,114.86" fill="none" id="Sample-backto-StatisticalSample" style="stroke:#181818;stroke-width:1;"/><polygon fill="none" points="1105.84,55,1118.2701,69.335,1124.3851,59.0099,1105.84,55" style="stroke:#181818;stroke-width:1;stroke-linejoin:miter;stroke-miterlimit:10;"/></g><!--reverse link Property to ObservableProperty--><g class="link" data-entity-1="ent0001" data-entity-2="ent0011" data-link-type="extension" data-source-line="5" id="lnk12"><path codeLine="5" d="M634.8939,67.9094 C652.0539,85.5694 663.1,96.94 680.34,114.68" fill="none" id="Property-backto-ObservableProperty" style="stroke:#181818;stroke-width:1;"/><polygon fill="none" points="622.35,55,630.5907,72.0906,639.197,63.7281,622.35,55" style="stroke:#181818;stroke-width:1;stroke-linejoin:miter;stroke-miterlimit:10;"/></g><!--reverse link Procedure to ActuatingProcedure--><g class="link" data-entity-1="ent0013" data-entity-2="ent0014" data-link-type="extension" data-source-line="6" id="lnk15"><path codeLine="6" d="M1590.8326,63.1732 C1556.0626,80.8932 1524.24,97.11 1489.4,114.86" fill="none" id="Procedure-backto-ActuatingProcedure" style="stroke:#181818;stroke-width:1;"/><polygon fill="none" points="1606.87,55,1588.1082,57.8274,1593.557,68.519,1606.87,55" style="stroke:#181818;stroke-width:1;stroke-linejoin:miter;stroke-miterlimit:10;"/></g><!--reverse link Procedure to ObservingProcedure--><g class="link" data-entity-1="ent0013" data-entity-2="ent0016" data-link-type="extension" data-source-line="7" id="lnk17"><path codeLine="7" d="M1652,73 C1652,90.66 1652,96.94 1652,114.68" fill="none" id="Procedure-backto-ObservingProcedure" style="stroke:#181818;stroke-width:1;"/><polygon fill="none" points="1652,55,1646,73,1658,73,1652,55" style="stroke:#181818;stroke-width:1;stroke-linejoin:miter;stroke-miterlimit:10;"/></g><!--reverse link Procedure to SamplingProcedure--><g class="link" data-entity-1="ent0013" data-entity-2="ent0018" data-link-type="extension" data-source-line="8" id="lnk19"><path codeLine="8" d="M1712.9411,63.205 C1747.5411,80.925 1779.15,97.11 1813.81,114.86" fill="none" id="Procedure-backto-SamplingProcedure" style="stroke:#181818;stroke-width:1;"/><polygon fill="none" points="1696.92,55,1710.2061,68.5454,1715.6762,57.8647,1696.92,55" style="stroke:#181818;stroke-width:1;stroke-linejoin:miter;stroke-miterlimit:10;"/></g><!--reverse link Asset to Platform--><g class="link" data-entity-1="ent0020" data-entity-2="ent0021" data-link-type="extension" data-source-line="9" id="lnk22"><path codeLine="9" d="M2062.7839,70.6022 C2052.6239,88.2622 2047.63,96.94 2037.42,114.68" fill="none" id="Asset-backto-Platform" style="stroke:#181818;stroke-width:1;"/><polygon fill="none" points="2071.76,55,2057.5831,67.6102,2067.9846,73.5943,2071.76,55" style="stroke:#181818;stroke-width:1;stroke-linejoin:miter;stroke-miterlimit:10;"/></g><!--reverse link System to Sampler--><g class="link" data-entity-1="ent0023" data-entity-2="ent0024" data-link-type="extension" data-source-line="10" id="lnk25"><path codeLine="10" d="M2105.8865,174.5884 C2084.8965,192.2484 2069.81,204.94 2048.72,222.68" fill="none" id="System-backto-Sampler" style="stroke:#181818;stroke-width:1;"/><polygon fill="none" points="2119.66,163,2102.0237,169.9972,2109.7493,179.1795,2119.66,163" style="stroke:#181818;stroke-width:1;stroke-linejoin:miter;stroke-miterlimit:10;"/></g><!--reverse link System to Actuator--><g class="link" data-entity-1="ent0023" data-entity-2="ent0026" data-link-type="extension" data-source-line="11" id="lnk27"><path codeLine="11" d="M2147,181 C2147,198.66 2147,204.94 2147,222.68" fill="none" id="System-backto-Actuator" style="stroke:#181818;stroke-width:1;"/><polygon fill="none" points="2147,163,2141,181,2153,181,2147,163" style="stroke:#181818;stroke-width:1;stroke-linejoin:miter;stroke-miterlimit:10;"/></g><!--reverse link Asset to System--><g class="link" data-entity-1="ent0020" data-entity-2="ent0023" data-link-type="extension" data-source-line="12" id="lnk28"><path codeLine="12" d="M2107.5383,70.5372 C2117.8683,88.1972 2122.98,96.94 2133.36,114.68" fill="none" id="Asset-backto-System" style="stroke:#181818;stroke-width:1;"/><polygon fill="none" points="2098.45,55,2102.3592,73.5666,2112.7173,67.5077,2098.45,55" style="stroke:#181818;stroke-width:1;stroke-linejoin:miter;stroke-miterlimit:10;"/></g><!--reverse link Execution to Sampling--><g class="link" data-entity-1="ent0029" data-entity-2="ent0030" data-link-type="extension" data-source-line="13" id="lnk31"><path codeLine="13" d="M2363.8041,66.1688 C2341.4841,83.8288 2324.91,96.94 2302.48,114.68" fill="none" id="Execution-backto-Sampling" style="stroke:#181818;stroke-width:1;"/><polygon fill="none" points="2377.92,55,2360.0812,61.4635,2367.527,70.8741,2377.92,55" style="stroke:#181818;stroke-width:1;stroke-linejoin:miter;stroke-miterlimit:10;"/></g><!--reverse link ExecutionCollection to SamplingCollection--><g class="link" data-entity-1="ent0032" data-entity-2="ent0033" data-link-type="extension" data-source-line="14" id="lnk34"><path codeLine="14" d="M2869.231,63.3636 C2835.461,81.0836 2804.93,97.11 2771.09,114.86" fill="none" id="ExecutionCollection-backto-SamplingCollection" style="stroke:#181818;stroke-width:1;"/><polygon fill="none" points="2885.17,55,2866.4432,58.0506,2872.0189,68.6766,2885.17,55" style="stroke:#181818;stroke-width:1;stroke-linejoin:miter;stroke-miterlimit:10;"/></g><!--reverse link Execution to Actuation--><g class="link" data-entity-1="ent0029" data-entity-2="ent0035" data-link-type="extension" data-source-line="15" id="lnk36"><path codeLine="15" d="M2407,73 C2407,90.66 2407,96.94 2407,114.68" fill="none" id="Execution-backto-Actuation" style="stroke:#181818;stroke-width:1;"/><polygon fill="none" points="2407,55,2401,73,2413,73,2407,55" style="stroke:#181818;stroke-width:1;stroke-linejoin:miter;stroke-miterlimit:10;"/></g><!--reverse link System to Sensor--><g class="link" data-entity-1="ent0023" data-entity-2="ent0037" data-link-type="extension" data-source-line="16" id="lnk38"><path codeLine="16" d="M2186.7968,174.864 C2206.9468,192.524 2221.13,204.94 2241.38,222.68" fill="none" id="System-backto-Sensor" style="stroke:#181818;stroke-width:1;"/><polygon fill="none" points="2173.26,163,2182.8421,179.3763,2190.7515,170.3518,2173.26,163" style="stroke:#181818;stroke-width:1;stroke-linejoin:miter;stroke-miterlimit:10;"/></g><!--reverse link ExecutionCollection to ActuationCollection--><g class="link" data-entity-1="ent0032" data-entity-2="ent0039" data-link-type="extension" data-source-line="17" id="lnk40"><path codeLine="17" d="M2929,73 C2929,90.66 2929,96.94 2929,114.68" fill="none" id="ExecutionCollection-backto-ActuationCollection" style="stroke:#181818;stroke-width:1;"/><polygon fill="none" points="2929,55,2923,73,2935,73,2929,55" style="stroke:#181818;stroke-width:1;stroke-linejoin:miter;stroke-miterlimit:10;"/></g><!--reverse link ExecutionCollection to ObservationCollection--><g class="link" data-entity-1="ent0032" data-entity-2="ent0041" data-link-type="extension" data-source-line="18" id="lnk42"><path codeLine="18" d="M2991.0997,63.0498 C3026.5397,80.7698 3059.22,97.11 3094.72,114.86" fill="none" id="ExecutionCollection-backto-ObservationCollection" style="stroke:#181818;stroke-width:1;"/><polygon fill="none" points="2975,55,2988.4164,68.4164,2993.783,57.6833,2975,55" style="stroke:#181818;stroke-width:1;stroke-linejoin:miter;stroke-miterlimit:10;"/></g><!--reverse link Execution to Observation--><g class="link" data-entity-1="ent0029" data-entity-2="ent0043" data-link-type="extension" data-source-line="19" id="lnk44"><path codeLine="19" d="M2452.4895,65.7202 C2476.3095,83.3802 2494.61,96.94 2518.54,114.68" fill="none" id="Execution-backto-Observation" style="stroke:#181818;stroke-width:1;"/><polygon fill="none" points="2438.03,55,2448.9161,70.54,2456.0629,60.9004,2438.03,55" style="stroke:#181818;stroke-width:1;stroke-linejoin:miter;stroke-miterlimit:10;"/></g><?plantuml-src VL99RiCm3Bpx5Vv0Vj1Bq0N8eR1Hlu1HcK80jK2aWXheuokKZcqvSM_Yp726ejId4379s3xz70xjqKW6WJDXF-7D02uIAlqEWia2ALPHGmJPOQGmBDRCR5zbTcV6TAqooy7WPqwudihwhndVAjJZFyLVT2KuCgCesHF89IJN32CBkbK7fWhJIK9QDolVl7wZoMA3h_CM_3aGeRbNBFZMOxft8Qgvq7EPODTtxdfal1LFoz-JtuaQGy3SpY-bfQvgPQ1mboLckMbqJLCXrcNA_BZyGCvqwplvnUC58uNHeTy5tX2aF6vtEVdoLP7b5m00?></g></svg>