<svg xmlns="http://www.w3.org/2000/svg" xmlns:xlink="http://www.w3.org/1999/xlink" contentStyleType="text/css" data-diagram-type="CLASS" height="286px" preserveAspectRatio="none" style="width:3314px;height:286px;background:#FFFFFF;" version="1.1" viewBox="0 0 3314 286" width="3314px" zoomAndPan="magnify"><?plantuml 1.2026.6?><defs/><g><!--class Property--><g class="entity" data-qualified-name="Property" data-source-line="1" id="ent0001"><rect fill="#F1F1F1" height="48" rx="2.5" ry="2.5" style="stroke:#181818;stroke-width:0.5;" width="91.7939" x="619" y="7"/><ellipse cx="634" cy="23" fill="#ADD1B2" rx="11" ry="11" style="stroke:#181818;stroke-width:1;"/><path d="M636.9688,28.6406 Q636.3906,28.9375 635.75,29.0781 Q635.1094,29.2344 634.4063,29.2344 Q631.9063,29.2344 630.5781,27.5938 Q629.2656,25.9375 629.2656,22.8125 Q629.2656,19.6875 630.5781,18.0313 Q631.9063,16.375 634.4063,16.375 Q635.1094,16.375 635.75,16.5313 Q636.4063,16.6875 636.9688,16.9844 L636.9688,19.7031 Q636.3438,19.125 635.75,18.8594 Q635.1563,18.5781 634.5313,18.5781 Q633.1875,18.5781 632.5,19.6563 Q631.8125,20.7188 631.8125,22.8125 Q631.8125,24.9063 632.5,25.9844 Q633.1875,27.0469 634.5313,27.0469 Q635.1563,27.0469 635.75,26.7813 Q636.3438,26.5 636.9688,25.9219 L636.9688,28.6406 Z " fill="#000000"/><text fill="#000000" font-family="sans-serif" font-size="14" lengthAdjust="spacing" textLength="59.7939" x="648" y="27.8467">Property</text><line style="stroke:#181818;stroke-width:0.5;" x1="620" x2="709.7939" y1="39" y2="39"/><line style="stroke:#181818;stroke-width:0.5;" x1="620" x2="709.7939" y1="47" y2="47"/></g><!--class ActuatableProperty--><g class="entity" data-qualified-name="ActuatableProperty" data-source-line="1" id="ent0002"><rect fill="#F1F1F1" height="48" rx="2.5" ry="2.5" style="stroke:#181818;stroke-width:0.5;" width="167.4678" x="479.5" y="115"/><ellipse cx="494.5" cy="131" fill="#ADD1B2" rx="11" ry="11" style="stroke:#181818;stroke-width:1;"/><path d="M497.4688,136.6406 Q496.8906,136.9375 496.25,137.0781 Q495.6094,137.2344 494.9063,137.2344 Q492.4063,137.2344 491.0781,135.5938 Q489.7656,133.9375 489.7656,130.8125 Q489.7656,127.6875 491.0781,126.0313 Q492.4063,124.375 494.9063,124.375 Q495.6094,124.375 496.25,124.5313 Q496.9063,124.6875 497.4688,124.9844 L497.4688,127.7031 Q496.8438,127.125 496.25,126.8594 Q495.6563,126.5781 495.0313,126.5781 Q493.6875,126.5781 493,127.6563 Q492.3125,128.7188 492.3125,130.8125 Q492.3125,132.9063 493,133.9844 Q493.6875,135.0469 495.0313,135.0469 Q495.6563,135.0469 496.25,134.7813 Q496.8438,134.5 497.4688,133.9219 L497.4688,136.6406 Z " fill="#000000"/><text fill="#000000" font-family="sans-serif" font-size="14" lengthAdjust="spacing" textLength="135.4678" x="508.5" y="135.8467">ActuatableProperty</text><line style="stroke:#181818;stroke-width:0.5;" x1="480.5" x2="645.9678" y1="147" y2="147"/><line style="stroke:#181818;stroke-width:0.5;" x1="480.5" x2="645.9678" y1="155" y2="155"/></g><!--class Sample--><g class="entity" data-qualified-name="Sample" data-source-line="2" id="ent0004"><rect fill="#F1F1F1" height="48" rx="2.5" ry="2.5" style="stroke:#181818;stroke-width:0.5;" width="84.4932" x="1090" y="7"/><ellipse cx="1105" cy="23" fill="#ADD1B2" rx="11" ry="11" style="stroke:#181818;stroke-width:1;"/><path d="M1107.9688,28.6406 Q1107.3906,28.9375 1106.75,29.0781 Q1106.1094,29.2344 1105.4063,29.2344 Q1102.9063,29.2344 1101.5781,27.5938 Q1100.2656,25.9375 1100.2656,22.8125 Q1100.2656,19.6875 1101.5781,18.0313 Q1102.9063,16.375 1105.4063,16.375 Q1106.1094,16.375 1106.75,16.5313 Q1107.4063,16.6875 1107.9688,16.9844 L1107.9688,19.7031 Q1107.3438,19.125 1106.75,18.8594 Q1106.1563,18.5781 1105.5313,18.5781 Q1104.1875,18.5781 1103.5,19.6563 Q1102.8125,20.7188 1102.8125,22.8125 Q1102.8125,24.9063 1103.5,25.9844 Q1104.1875,27.0469 1105.5313,27.0469 Q1106.1563,27.0469 1106.75,26.7813 Q1107.3438,26.5 1107.9688,25.9219 L1107.9688,28.6406 Z " fill="#000000"/><text fill="#000000" font-family="sans-serif" font-size="14" lengthAdjust="spacing" textLength="52.4932" x="1119" y="27.8467">Sample</text><line style="stroke:#181818;stroke-width:0.5;" x1="1091" x2="1173.4932" y1="39" y2="39"/><line style="stroke:#181818;stroke-width:0.5;" x1="1091" x2="1173.4932" y1="47" y2="47"/></g><!--class MaterialSample--><g class="entity" data-qualified-name="MaterialSample" data-source-line="2" id="ent0005"><rect fill="#F1F1F1" height="48" rx="2.5" ry="2.5" style="stroke:#181818;stroke-width:0.5;" width="141.3682" x="889.5" y="115"/><ellipse cx="904.5" cy="131" fill="#ADD1B2" rx="11" ry="11" style="stroke:#181818;stroke-width:1;"/><path d="M907.4688,136.6406 Q906.8906,136.9375 906.25,137.0781 Q905.6094,137.2344 904.9063,137.2344 Q902.4063,137.2344 901.0781,135.5938 Q899.7656,133.9375 899.7656,130.8125 Q899.7656,127.6875 901.0781,126.0313 Q902.4063,124.375 904.9063,124.375 Q905.6094,124.375 906.25,124.5313 Q906.9063,124.6875 907.4688,124.9844 L907.4688,127.7031 Q906.8438,127.125 906.25,126.8594 Q905.6563,126.5781 905.0313,126.5781 Q903.6875,126.5781 903,127.6563 Q902.3125,128.7188 902.3125,130.8125 Q902.3125,132.9063 903,133.9844 Q903.6875,135.0469 905.0313,135.0469 Q905.6563,135.0469 906.25,134.7813 Q906.8438,134.5 907.4688,133.9219 L907.4688,136.6406 Z " fill="#000000"/><text fill="#000000" font-family="sans-serif" font-size="14" lengthAdjust="spacing" textLength="109.3682" x="918.5" y="135.8467">MaterialSample</text><line style="stroke:#181818;stroke-width:0.5;" x1="890.5" x2="1029.8682" y1="147" y2="147"/><line style="stroke:#181818;stroke-width:0.5;" x1="890.5" x2="1029.8682" y1="155" y2="155"/></g><!--class SpatialSample--><g class="entity" data-qualified-name="SpatialSample" data-source-line="3" id="ent0007"><rect fill="#F1F1F1" height="48" rx="2.5" ry="2.5" style="stroke:#181818;stroke-width:0.5;" width="132.6934" x="1065.5" y="115"/><ellipse cx="1080.5" cy="131" fill="#ADD1B2" rx="11" ry="11" style="stroke:#181818;stroke-width:1;"/><path d="M1083.4688,136.6406 Q1082.8906,136.9375 1082.25,137.0781 Q1081.6094,137.2344 1080.9063,137.2344 Q1078.4063,137.2344 1077.0781,135.5938 Q1075.7656,133.9375 1075.7656,130.8125 Q1075.7656,127.6875 1077.0781,126.0313 Q1078.4063,124.375 1080.9063,124.375 Q1081.6094,124.375 1082.25,124.5313 Q1082.9063,124.6875 1083.4688,124.9844 L1083.4688,127.7031 Q1082.8438,127.125 1082.25,126.8594 Q1081.6563,126.5781 1081.0313,126.5781 Q1079.6875,126.5781 1079,127.6563 Q1078.3125,128.7188 1078.3125,130.8125 Q1078.3125,132.9063 1079,133.9844 Q1079.6875,135.0469 1081.0313,135.0469 Q1081.6563,135.0469 1082.25,134.7813 Q1082.8438,134.5 1083.4688,133.9219 L1083.4688,136.6406 Z " fill="#000000"/><text fill="#000000" font-family="sans-serif" font-size="14" lengthAdjust="spacing" textLength="100.6934" x="1094.5" y="135.8467">SpatialSample</text><line style="stroke:#181818;stroke-width:0.5;" x1="1066.5" x2="1197.1934" y1="147" y2="147"/><line style="stroke:#181818;stroke-width:0.5;" x1="1066.5" x2="1197.1934" y1="155" y2="155"/></g><!--class StatisticalSample--><g class="entity" data-qualified-name="StatisticalSample" data-source-line="4" id="ent0009"><rect fill="#F1F1F1" height="48" rx="2.5" ry="2.5" style="stroke:#181818;stroke-width:0.5;" width="153.666" x="1234" y="115"/><ellipse cx="1249" cy="131" fill="#ADD1B2" rx="11" ry="11" style="stroke:#181818;stroke-width:1;"/><path d="M1251.9688,136.6406 Q1251.3906,136.9375 1250.75,137.0781 Q1250.1094,137.2344 1249.4063,137.2344 Q1246.9063,137.2344 1245.5781,135.5938 Q1244.2656,133.9375 1244.2656,130.8125 Q1244.2656,127.6875 1245.5781,126.0313 Q1246.9063,124.375 1249.4063,124.375 Q1250.1094,124.375 1250.75,124.5313 Q1251.4063,124.6875 1251.9688,124.9844 L1251.9688,127.7031 Q1251.3438,127.125 1250.75,126.8594 Q1250.1563,126.5781 1249.5313,126.5781 Q1248.1875,126.5781 1247.5,127.6563 Q1246.8125,128.7188 1246.8125,130.8125 Q1246.8125,132.9063 1247.5,133.9844 Q1248.1875,135.0469 1249.5313,135.0469 Q1250.1563,135.0469 1250.75,134.7813 Q1251.3438,134.5 1251.9688,133.9219 L1251.9688,136.6406 Z " fill="#000000"/><text fill="#000000" font-family="sans-serif" font-size="14" lengthAdjust="spacing" textLength="121.666" x="1263" y="135.8467">StatisticalSample</text><line style="stroke:#181818;stroke-width:0.5;" x1="1235" x2="1386.666" y1="147" y2="147"/><line style="stroke:#181818;stroke-width:0.5;" x1="1235" x2="1386.666" y1="155" y2="155"/></g><!--class ObservableProperty--><g class="entity" data-qualified-name="ObservableProperty" data-source-line="5" id="ent0011"><rect fill="#F1F1F1" height="48" rx="2.5" ry="2.5" style="stroke:#181818;stroke-width:0.5;" width="171.6172" x="682" y="115"/><ellipse cx="697" cy="131" fill="#ADD1B2" rx="11" ry="11" style="stroke:#181818;stroke-width:1;"/><path d="M699.9688,136.6406 Q699.3906,136.9375 698.75,137.0781 Q698.1094,137.2344 697.4063,137.2344 Q694.9063,137.2344 693.5781,135.5938 Q692.2656,133.9375 692.2656,130.8125 Q692.2656,127.6875 693.5781,126.0313 Q694.9063,124.375 697.4063,124.375 Q698.1094,124.375 698.75,124.5313 Q699.4063,124.6875 699.9688,124.9844 L699.9688,127.7031 Q699.3438,127.125 698.75,126.8594 Q698.1563,126.5781 697.5313,126.5781 Q696.1875,126.5781 695.5,127.6563 Q694.8125,128.7188 694.8125,130.8125 Q694.8125,132.9063 695.5,133.9844 Q696.1875,135.0469 697.5313,135.0469 Q698.1563,135.0469 698.75,134.7813 Q699.3438,134.5 699.9688,133.9219 L699.9688,136.6406 Z " fill="#000000"/><text fill="#000000" font-family="sans-serif" font-size="14" lengthAdjust="spacing" textLength="139.6172" x="711" y="135.8467">ObservableProperty</text><line style="stroke:#181818;stroke-width:0.5;" x1="683" x2="852.6172" y1="147" y2="147"/><line style="stroke:#181818;stroke-width:0.5;" x1="683" x2="852.6172" y1="155" y2="155"/></g><!--class Procedure--><g class="entity" data-qualified-name="Procedure" data-source-line="6" id="ent0013"><rect fill="#F1F1F1" height="48" rx="2.5" ry="2.5" style="stroke:#181818;stroke-width:0.5;" width="103.2031" x="1665.5" y="7"/><ellipse cx="1680.5" cy="23" fill="#ADD1B2" rx="11" ry="11" style="stroke:#181818;stroke-width:1;"/><path d="M1683.4688,28.6406 Q1682.8906,28.9375 1682.25,29.0781 Q1681.6094,29.2344 1680.9063,29.2344 Q1678.4063,29.2344 1677.0781,27.5938 Q1675.7656,25.9375 1675.7656,22.8125 Q1675.7656,19.6875 1677.0781,18.0313 Q1678.4063,16.375 1680.9063,16.375 Q1681.6094,16.375 1682.25,16.5313 Q1682.9063,16.6875 1683.4688,16.9844 L1683.4688,19.7031 Q1682.8438,19.125 1682.25,18.8594 Q1681.6563,18.5781 1681.0313,18.5781 Q1679.6875,18.5781 1679,19.6563 Q1678.3125,20.7188 1678.3125,22.8125 Q1678.3125,24.9063 1679,25.9844 Q1679.6875,27.0469 1681.0313,27.0469 Q1681.6563,27.0469 1682.25,26.7813 Q1682.8438,26.5 1683.4688,25.9219 L1683.4688,28.6406 Z " fill="#000000"/><text fill="#000000" font-family="sans-serif" font-size="14" lengthAdjust="spacing" textLength="71.2031" x="1694.5" y="27.8467">Procedure</text><line style="stroke:#181818;stroke-width:0.5;" x1="1666.5" x2="1767.7031" y1="39" y2="39"/><line style="stroke:#181818;stroke-width:0.5;" x1="1666.5" x2="1767.7031" y1="47" y2="47"/></g><!--class ActuatingProcedure--><g class="entity" data-qualified-name="ActuatingProcedure" data-source-line="6" id="ent0014"><rect fill="#F1F1F1" height="48" rx="2.5" ry="2.5" style="stroke:#181818;stroke-width:0.5;" width="170.5576" x="1423.5" y="115"/><ellipse cx="1438.5" cy="131" fill="#ADD1B2" rx="11" ry="11" style="stroke:#181818;stroke-width:1;"/><path d="M1441.4688,136.6406 Q1440.8906,136.9375 1440.25,137.0781 Q1439.6094,137.2344 1438.9063,137.2344 Q1436.4063,137.2344 1435.0781,135.5938 Q1433.7656,133.9375 1433.7656,130.8125 Q1433.7656,127.6875 1435.0781,126.0313 Q1436.4063,124.375 1438.9063,124.375 Q1439.6094,124.375 1440.25,124.5313 Q1440.9063,124.6875 1441.4688,124.9844 L1441.4688,127.7031 Q1440.8438,127.125 1440.25,126.8594 Q1439.6563,126.5781 1439.0313,126.5781 Q1437.6875,126.5781 1437,127.6563 Q1436.3125,128.7188 1436.3125,130.8125 Q1436.3125,132.9063 1437,133.9844 Q1437.6875,135.0469 1439.0313,135.0469 Q1439.6563,135.0469 1440.25,134.7813 Q1440.8438,134.5 1441.4688,133.9219 L1441.4688,136.6406 Z " fill="#000000"/><text fill="#000000" font-family="sans-serif" font-size="14" lengthAdjust="spacing" textLength="138.5576" x="1452.5" y="135.8467">ActuatingProcedure</text><line style="stroke:#181818;stroke-width:0.5;" x1="1424.5" x2="1593.0576" y1="147" y2="147"/><line style="stroke:#181818;stroke-width:0.5;" x1="1424.5" x2="1593.0576" y1="155" y2="155"/></g><!--class ObservingProcedure--><g class="entity" data-qualified-name="ObservingProcedure" data-source-line="7" id="ent0016"><rect fill="#F1F1F1" height="48" rx="2.5" ry="2.5" style="stroke:#181818;stroke-width:0.5;" width="174.707" x="1629.5" y="115"/><ellipse cx="1644.5" cy="131" fill="#ADD1B2" rx="11" ry="11" style="stroke:#181818;stroke-width:1;"/><path d="M1647.4688,136.6406 Q1646.8906,136.9375 1646.25,137.0781 Q1645.6094,137.2344 1644.9063,137.2344 Q1642.4063,137.2344 1641.0781,135.5938 Q1639.7656,133.9375 1639.7656,130.8125 Q1639.7656,127.6875 1641.0781,126.0313 Q1642.4063,124.375 1644.9063,124.375 Q1645.6094,124.375 1646.25,124.5313 Q1646.9063,124.6875 1647.4688,124.9844 L1647.4688,127.7031 Q1646.8438,127.125 1646.25,126.8594 Q1645.6563,126.5781 1645.0313,126.5781 Q1643.6875,126.5781 1643,127.6563 Q1642.3125,128.7188 1642.3125,130.8125 Q1642.3125,132.9063 1643,133.9844 Q1643.6875,135.0469 1645.0313,135.0469 Q1645.6563,135.0469 1646.25,134.7813 Q1646.8438,134.5 1647.4688,133.9219 L1647.4688,136.6406 Z " fill="#000000"/><text fill="#000000" font-family="sans-serif" font-size="14" lengthAdjust="spacing" textLength="142.707" x="1658.5" y="135.8467">ObservingProcedure</text><line style="stroke:#181818;stroke-width:0.5;" x1="1630.5" x2="1803.207" y1="147" y2="147"/><line style="stroke:#181818;stroke-width:0.5;" x1="1630.5" x2="1803.207" y1="155" y2="155"/></g><!--class SamplingProcedure--><g class="entity" data-qualified-name="SamplingProcedure" data-source-line="8" id="ent0018"><rect fill="#F1F1F1" height="48" rx="2.5" ry="2.5" style="stroke:#181818;stroke-width:0.5;" width="168.7324" x="1839.5" y="115"/><ellipse cx="1854.5" cy="131" fill="#ADD1B2" rx="11" ry="11" style="stroke:#181818;stroke-width:1;"/><path d="M1857.4688,136.6406 Q1856.8906,136.9375 1856.25,137.0781 Q1855.6094,137.2344 1854.9063,137.2344 Q1852.4063,137.2344 1851.0781,135.5938 Q1849.7656,133.9375 1849.7656,130.8125 Q1849.7656,127.6875 1851.0781,126.0313 Q1852.4063,124.375 1854.9063,124.375 Q1855.6094,124.375 1856.25,124.5313 Q1856.9063,124.6875 1857.4688,124.9844 L1857.4688,127.7031 Q1856.8438,127.125 1856.25,126.8594 Q1855.6563,126.5781 1855.0313,126.5781 Q1853.6875,126.5781 1853,127.6563 Q1852.3125,128.7188 1852.3125,130.8125 Q1852.3125,132.9063 1853,133.9844 Q1853.6875,135.0469 1855.0313,135.0469 Q1855.6563,135.0469 1856.25,134.7813 Q1856.8438,134.5 1857.4688,133.9219 L1857.4688,136.6406 Z " fill="#000000"/><text fill="#000000" font-family="sans-serif" font-size="14" lengthAdjust="spacing" textLength="136.7324" x="1868.5" y="135.8467">SamplingProcedure</text><line style="stroke:#181818;stroke-width:0.5;" x1="1840.5" x2="2007.2324" y1="147" y2="147"/><line style="stroke:#181818;stroke-width:0.5;" x1="1840.5" x2="2007.2324" y1="155" y2="155"/></g><!--class Asset--><g class="entity" data-qualified-name="Asset" data-source-line="9" id="ent0020"><rect fill="#F1F1F1" height="48" rx="2.5" ry="2.5" style="stroke:#181818;stroke-width:0.5;" width="70.2676" x="2115" y="7"/><ellipse cx="2130" cy="23" fill="#ADD1B2" rx="11" ry="11" style="stroke:#181818;stroke-width:1;"/><path d="M2132.9688,28.6406 Q2132.3906,28.9375 2131.75,29.0781 Q2131.1094,29.2344 2130.4063,29.2344 Q2127.9063,29.2344 2126.5781,27.5938 Q2125.2656,25.9375 2125.2656,22.8125 Q2125.2656,19.6875 2126.5781,18.0313 Q2127.9063,16.375 2130.4063,16.375 Q2131.1094,16.375 2131.75,16.5313 Q2132.4063,16.6875 2132.9688,16.9844 L2132.9688,19.7031 Q2132.3438,19.125 2131.75,18.8594 Q2131.1563,18.5781 2130.5313,18.5781 Q2129.1875,18.5781 2128.5,19.6563 Q2127.8125,20.7188 2127.8125,22.8125 Q2127.8125,24.9063 2128.5,25.9844 Q2129.1875,27.0469 2130.5313,27.0469 Q2131.1563,27.0469 2131.75,26.7813 Q2132.3438,26.5 2132.9688,25.9219 L2132.9688,28.6406 Z " fill="#000000"/><text fill="#000000" font-family="sans-serif" font-size="14" lengthAdjust="spacing" textLength="38.2676" x="2144" y="27.8467">Asset</text><line style="stroke:#181818;stroke-width:0.5;" x1="2116" x2="2184.2676" y1="39" y2="39"/><line style="stroke:#181818;stroke-width:0.5;" x1="2116" x2="2184.2676" y1="47" y2="47"/></g><!--class Platform--><g class="entity" data-qualified-name="Platform" data-source-line="9" id="ent0021"><rect fill="#F1F1F1" height="48" rx="2.5" ry="2.5" style="stroke:#181818;stroke-width:0.5;" width="91.2881" x="2043.5" y="115"/><ellipse cx="2058.5" cy="131" fill="#ADD1B2" rx="11" ry="11" style="stroke:#181818;stroke-width:1;"/><path d="M2061.4688,136.6406 Q2060.8906,136.9375 2060.25,137.0781 Q2059.6094,137.2344 2058.9063,137.2344 Q2056.4063,137.2344 2055.0781,135.5938 Q2053.7656,133.9375 2053.7656,130.8125 Q2053.7656,127.6875 2055.0781,126.0313 Q2056.4063,124.375 2058.9063,124.375 Q2059.6094,124.375 2060.25,124.5313 Q2060.9063,124.6875 2061.4688,124.9844 L2061.4688,127.7031 Q2060.8438,127.125 2060.25,126.8594 Q2059.6563,126.5781 2059.0313,126.5781 Q2057.6875,126.5781 2057,127.6563 Q2056.3125,128.7188 2056.3125,130.8125 Q2056.3125,132.9063 2057,133.9844 Q2057.6875,135.0469 2059.0313,135.0469 Q2059.6563,135.0469 2060.25,134.7813 Q2060.8438,134.5 2061.4688,133.9219 L2061.4688,136.6406 Z " fill="#000000"/><text fill="#000000" font-family="sans-serif" font-size="14" lengthAdjust="spacing" textLength="59.2881" x="2072.5" y="135.8467">Platform</text><line style="stroke:#181818;stroke-width:0.5;" x1="2044.5" x2="2133.7881" y1="147" y2="147"/><line style="stroke:#181818;stroke-width:0.5;" x1="2044.5" x2="2133.7881" y1="155" y2="155"/></g><!--class System--><g class="entity" data-qualified-name="System" data-source-line="10" id="ent0023"><rect fill="#F1F1F1" height="48" rx="2.5" ry="2.5" style="stroke:#181818;stroke-width:0.5;" width="84.2061" x="2170" y="115"/><ellipse cx="2185" cy="131" fill="#ADD1B2" rx="11" ry="11" style="stroke:#181818;stroke-width:1;"/><path d="M2187.9688,136.6406 Q2187.3906,136.9375 2186.75,137.0781 Q2186.1094,137.2344 2185.4063,137.2344 Q2182.9063,137.2344 2181.5781,135.5938 Q2180.2656,133.9375 2180.2656,130.8125 Q2180.2656,127.6875 2181.5781,126.0313 Q2182.9063,124.375 2185.4063,124.375 Q2186.1094,124.375 2186.75,124.5313 Q2187.4063,124.6875 2187.9688,124.9844 L2187.9688,127.7031 Q2187.3438,127.125 2186.75,126.8594 Q2186.1563,126.5781 2185.5313,126.5781 Q2184.1875,126.5781 2183.5,127.6563 Q2182.8125,128.7188 2182.8125,130.8125 Q2182.8125,132.9063 2183.5,133.9844 Q2184.1875,135.0469 2185.5313,135.0469 Q2186.1563,135.0469 2186.75,134.7813 Q2187.3438,134.5 2187.9688,133.9219 L2187.9688,136.6406 Z " fill="#000000"/><text fill="#000000" font-family="sans-serif" font-size="14" lengthAdjust="spacing" textLength="52.2061" x="2199" y="135.8467">System</text><line style="stroke:#181818;stroke-width:0.5;" x1="2171" x2="2253.2061" y1="147" y2="147"/><line style="stroke:#181818;stroke-width:0.5;" x1="2171" x2="2253.2061" y1="155" y2="155"/></g><!--class Sampler--><g class="entity" data-qualified-name="Sampler" data-source-line="10" id="ent0024"><rect fill="#F1F1F1" height="48" rx="2.5" ry="2.5" style="stroke:#181818;stroke-width:0.5;" width="90.249" x="2041" y="223"/><ellipse cx="2056" cy="239" fill="#ADD1B2" rx="11" ry="11" style="stroke:#181818;stroke-width:1;"/><path d="M2058.9688,244.6406 Q2058.3906,244.9375 2057.75,245.0781 Q2057.1094,245.2344 2056.4063,245.2344 Q2053.9063,245.2344 2052.5781,243.5938 Q2051.2656,241.9375 2051.2656,238.8125 Q2051.2656,235.6875 2052.5781,234.0313 Q2053.9063,232.375 2056.4063,232.375 Q2057.1094,232.375 2057.75,232.5313 Q2058.4063,232.6875 2058.9688,232.9844 L2058.9688,235.7031 Q2058.3438,235.125 2057.75,234.8594 Q2057.1563,234.5781 2056.5313,234.5781 Q2055.1875,234.5781 2054.5,235.6563 Q2053.8125,236.7188 2053.8125,238.8125 Q2053.8125,240.9063 2054.5,241.9844 Q2055.1875,243.0469 2056.5313,243.0469 Q2057.1563,243.0469 2057.75,242.7813 Q2058.3438,242.5 2058.9688,241.9219 L2058.9688,244.6406 Z " fill="#000000"/><text fill="#000000" font-family="sans-serif" font-size="14" lengthAdjust="spacing" textLength="58.249" x="2070" y="243.8467">Sampler</text><line style="stroke:#181818;stroke-width:0.5;" x1="2042" x2="2130.249" y1="255" y2="255"/><line style="stroke:#181818;stroke-width:0.5;" x1="2042" x2="2130.249" y1="263" y2="263"/></g><!--class Actuator--><g class="entity" data-qualified-name="Actuator" data-source-line="11" id="ent0026"><rect fill="#F1F1F1" height="48" rx="2.5" ry="2.5" style="stroke:#181818;stroke-width:0.5;" width="92.0264" x="2166" y="223"/><ellipse cx="2181" cy="239" fill="#ADD1B2" rx="11" ry="11" style="stroke:#181818;stroke-width:1;"/><path d="M2183.9688,244.6406 Q2183.3906,244.9375 2182.75,245.0781 Q2182.1094,245.2344 2181.4063,245.2344 Q2178.9063,245.2344 2177.5781,243.5938 Q2176.2656,241.9375 2176.2656,238.8125 Q2176.2656,235.6875 2177.5781,234.0313 Q2178.9063,232.375 2181.4063,232.375 Q2182.1094,232.375 2182.75,232.5313 Q2183.4063,232.6875 2183.9688,232.9844 L2183.9688,235.7031 Q2183.3438,235.125 2182.75,234.8594 Q2182.1563,234.5781 2181.5313,234.5781 Q2180.1875,234.5781 2179.5,235.6563 Q2178.8125,236.7188 2178.8125,238.8125 Q2178.8125,240.9063 2179.5,241.9844 Q2180.1875,243.0469 2181.5313,243.0469 Q2182.1563,243.0469 2182.75,242.7813 Q2183.3438,242.5 2183.9688,241.9219 L2183.9688,244.6406 Z " fill="#000000"/><text fill="#000000" font-family="sans-serif" font-size="14" lengthAdjust="spacing" textLength="60.0264" x="2195" y="243.8467">Actuator</text><line style="stroke:#181818;stroke-width:0.5;" x1="2167" x2="2257.0264" y1="255" y2="255"/><line style="stroke:#181818;stroke-width:0.5;" x1="2167" x2="2257.0264" y1="263" y2="263"/></g><!--class Execution--><g class="entity" data-qualified-name="Execution" data-source-line="13" id="ent0029"><rect fill="#F1F1F1" height="48" rx="2.5" ry="2.5" style="stroke:#181818;stroke-width:0.5;" width="101.1318" x="2421.5" y="7"/><ellipse cx="2436.5" cy="23" fill="#ADD1B2" rx="11" ry="11" style="stroke:#181818;stroke-width:1;"/><path d="M2439.4688,28.6406 Q2438.8906,28.9375 2438.25,29.0781 Q2437.6094,29.2344 2436.9063,29.2344 Q2434.4063,29.2344 2433.0781,27.5938 Q2431.7656,25.9375 2431.7656,22.8125 Q2431.7656,19.6875 2433.0781,18.0313 Q2434.4063,16.375 2436.9063,16.375 Q2437.6094,16.375 2438.25,16.5313 Q2438.9063,16.6875 2439.4688,16.9844 L2439.4688,19.7031 Q2438.8438,19.125 2438.25,18.8594 Q2437.6563,18.5781 2437.0313,18.5781 Q2435.6875,18.5781 2435,19.6563 Q2434.3125,20.7188 2434.3125,22.8125 Q2434.3125,24.9063 2435,25.9844 Q2435.6875,27.0469 2437.0313,27.0469 Q2437.6563,27.0469 2438.25,26.7813 Q2438.8438,26.5 2439.4688,25.9219 L2439.4688,28.6406 Z " fill="#000000"/><text fill="#000000" font-family="sans-serif" font-size="14" lengthAdjust="spacing" textLength="69.1318" x="2450.5" y="27.8467">Execution</text><line style="stroke:#181818;stroke-width:0.5;" x1="2422.5" x2="2521.6318" y1="39" y2="39"/><line style="stroke:#181818;stroke-width:0.5;" x1="2422.5" x2="2521.6318" y1="47" y2="47"/></g><!--class Sampling--><g class="entity" data-qualified-name="Sampling" data-source-line="13" id="ent0030"><rect fill="#F1F1F1" height="48" rx="2.5" ry="2.5" style="stroke:#181818;stroke-width:0.5;" width="97.5293" x="2289" y="115"/><ellipse cx="2304" cy="131" fill="#ADD1B2" rx="11" ry="11" style="stroke:#181818;stroke-width:1;"/><path d="M2306.9688,136.6406 Q2306.3906,136.9375 2305.75,137.0781 Q2305.1094,137.2344 2304.4063,137.2344 Q2301.9063,137.2344 2300.5781,135.5938 Q2299.2656,133.9375 2299.2656,130.8125 Q2299.2656,127.6875 2300.5781,126.0313 Q2301.9063,124.375 2304.4063,124.375 Q2305.1094,124.375 2305.75,124.5313 Q2306.4063,124.6875 2306.9688,124.9844 L2306.9688,127.7031 Q2306.3438,127.125 2305.75,126.8594 Q2305.1563,126.5781 2304.5313,126.5781 Q2303.1875,126.5781 2302.5,127.6563 Q2301.8125,128.7188 2301.8125,130.8125 Q2301.8125,132.9063 2302.5,133.9844 Q2303.1875,135.0469 2304.5313,135.0469 Q2305.1563,135.0469 2305.75,134.7813 Q2306.3438,134.5 2306.9688,133.9219 L2306.9688,136.6406 Z " fill="#000000"/><text fill="#000000" font-family="sans-serif" font-size="14" lengthAdjust="spacing" textLength="65.5293" x="2318" y="135.8467">Sampling</text><line style="stroke:#181818;stroke-width:0.5;" x1="2290" x2="2385.5293" y1="147" y2="147"/><line style="stroke:#181818;stroke-width:0.5;" x1="2290" x2="2385.5293" y1="155" y2="155"/></g><!--class ExecutionCollection--><g class="entity" data-qualified-name="ExecutionCollection" data-source-line="14" id="ent0032"><rect fill="#F1F1F1" height="48" rx="2.5" ry="2.5" style="stroke:#181818;stroke-width:0.5;" width="170.3799" x="2909" y="7"/><ellipse cx="2924" cy="23" fill="#ADD1B2" rx="11" ry="11" style="stroke:#181818;stroke-width:1;"/><path d="M2926.9688,28.6406 Q2926.3906,28.9375 2925.75,29.0781 Q2925.1094,29.2344 2924.4063,29.2344 Q2921.9063,29.2344 2920.5781,27.5938 Q2919.2656,25.9375 2919.2656,22.8125 Q2919.2656,19.6875 2920.5781,18.0313 Q2921.9063,16.375 2924.4063,16.375 Q2925.1094,16.375 2925.75,16.5313 Q2926.4063,16.6875 2926.9688,16.9844 L2926.9688,19.7031 Q2926.3438,19.125 2925.75,18.8594 Q2925.1563,18.5781 2924.5313,18.5781 Q2923.1875,18.5781 2922.5,19.6563 Q2921.8125,20.7188 2921.8125,22.8125 Q2921.8125,24.9063 2922.5,25.9844 Q2923.1875,27.0469 2924.5313,27.0469 Q2925.1563,27.0469 2925.75,26.7813 Q2926.3438,26.5 2926.9688,25.9219 L2926.9688,28.6406 Z " fill="#000000"/><text fill="#000000" font-family="sans-serif" font-size="14" lengthAdjust="spacing" textLength="138.3799" x="2938" y="27.8467">ExecutionCollection</text><line style="stroke:#181818;stroke-width:0.5;" x1="2910" x2="3078.3799" y1="39" y2="39"/><line style="stroke:#181818;stroke-width:0.5;" x1="2910" x2="3078.3799" y1="47" y2="47"/></g><!--class SamplingCollection--><g class="entity" data-qualified-name="SamplingCollection" data-source-line="14" id="ent0033"><rect fill="#F1F1F1" height="48" rx="2.5" ry="2.5" style="stroke:#181818;stroke-width:0.5;" width="166.7773" x="2708.5" y="115"/><ellipse cx="2723.5" cy="131" fill="#ADD1B2" rx="11" ry="11" style="stroke:#181818;stroke-width:1;"/><path d="M2726.4688,136.6406 Q2725.8906,136.9375 2725.25,137.0781 Q2724.6094,137.2344 2723.9063,137.2344 Q2721.4063,137.2344 2720.0781,135.5938 Q2718.7656,133.9375 2718.7656,130.8125 Q2718.7656,127.6875 2720.0781,126.0313 Q2721.4063,124.375 2723.9063,124.375 Q2724.6094,124.375 2725.25,124.5313 Q2725.9063,124.6875 2726.4688,124.9844 L2726.4688,127.7031 Q2725.8438,127.125 2725.25,126.8594 Q2724.6563,126.5781 2724.0313,126.5781 Q2722.6875,126.5781 2722,127.6563 Q2721.3125,128.7188 2721.3125,130.8125 Q2721.3125,132.9063 2722,133.9844 Q2722.6875,135.0469 2724.0313,135.0469 Q2724.6563,135.0469 2725.25,134.7813 Q2725.8438,134.5 2726.4688,133.9219 L2726.4688,136.6406 Z " fill="#000000"/><text fill="#000000" font-family="sans-serif" font-size="14" lengthAdjust="spacing" textLength="134.7773" x="2737.5" y="135.8467">SamplingCollection</text><line style="stroke:#181818;stroke-width:0.5;" x1="2709.5" x2="2874.2773" y1="147" y2="147"/><line style="stroke:#181818;stroke-width:0.5;" x1="2709.5" x2="2874.2773" y1="155" y2="155"/></g><!--class Actuation--><g class="entity" data-qualified-name="Actuation" data-source-line="15" id="ent0035"><rect fill="#F1F1F1" height="48" rx="2.5" ry="2.5" style="stroke:#181818;stroke-width:0.5;" width="99.0332" x="2422.5" y="115"/><ellipse cx="2437.5" cy="131" fill="#ADD1B2" rx="11" ry="11" style="stroke:#181818;stroke-width:1;"/><path d="M2440.4688,136.6406 Q2439.8906,136.9375 2439.25,137.0781 Q2438.6094,137.2344 2437.9063,137.2344 Q2435.4063,137.2344 2434.0781,135.5938 Q2432.7656,133.9375 2432.7656,130.8125 Q2432.7656,127.6875 2434.0781,126.0313 Q2435.4063,124.375 2437.9063,124.375 Q2438.6094,124.375 2439.25,124.5313 Q2439.9063,124.6875 2440.4688,124.9844 L2440.4688,127.7031 Q2439.8438,127.125 2439.25,126.8594 Q2438.6563,126.5781 2438.0313,126.5781 Q2436.6875,126.5781 2436,127.6563 Q2435.3125,128.7188 2435.3125,130.8125 Q2435.3125,132.9063 2436,133.9844 Q2436.6875,135.0469 2438.0313,135.0469 Q2438.6563,135.0469 2439.25,134.7813 Q2439.8438,134.5 2440.4688,133.9219 L2440.4688,136.6406 Z " fill="#000000"/><text fill="#000000" font-family="sans-serif" font-size="14" lengthAdjust="spacing" textLength="67.0332" x="2451.5" y="135.8467">Actuation</text><line style="stroke:#181818;stroke-width:0.5;" x1="2423.5" x2="2520.5332" y1="147" y2="147"/><line style="stroke:#181818;stroke-width:0.5;" x1="2423.5" x2="2520.5332" y1="155" y2="155"/></g><!--class Sensor--><g class="entity" data-qualified-name="Sensor" data-source-line="16" id="ent0037"><rect fill="#F1F1F1" height="48" rx="2.5" ry="2.5" style="stroke:#181818;stroke-width:0.5;" width="79.9883" x="2293" y="223"/><ellipse cx="2308" cy="239" fill="#ADD1B2" rx="11" ry="11" style="stroke:#181818;stroke-width:1;"/><path d="M2310.9688,244.6406 Q2310.3906,244.9375 2309.75,245.0781 Q2309.1094,245.2344 2308.4063,245.2344 Q2305.9063,245.2344 2304.5781,243.5938 Q2303.2656,241.9375 2303.2656,238.8125 Q2303.2656,235.6875 2304.5781,234.0313 Q2305.9063,232.375 2308.4063,232.375 Q2309.1094,232.375 2309.75,232.5313 Q2310.4063,232.6875 2310.9688,232.9844 L2310.9688,235.7031 Q2310.3438,235.125 2309.75,234.8594 Q2309.1563,234.5781 2308.5313,234.5781 Q2307.1875,234.5781 2306.5,235.6563 Q2305.8125,236.7188 2305.8125,238.8125 Q2305.8125,240.9063 2306.5,241.9844 Q2307.1875,243.0469 2308.5313,243.0469 Q2309.1563,243.0469 2309.75,242.7813 Q2310.3438,242.5 2310.9688,241.9219 L2310.9688,244.6406 Z " fill="#000000"/><text fill="#000000" font-family="sans-serif" font-size="14" lengthAdjust="spacing" textLength="47.9883" x="2322" y="243.8467">Sensor</text><line style="stroke:#181818;stroke-width:0.5;" x1="2294" x2="2371.9883" y1="255" y2="255"/><line style="stroke:#181818;stroke-width:0.5;" x1="2294" x2="2371.9883" y1="263" y2="263"/></g><!--class ActuationCollection--><g class="entity" data-qualified-name="ActuationCollection" data-source-line="17" id="ent0039"><rect fill="#F1F1F1" height="48" rx="2.5" ry="2.5" style="stroke:#181818;stroke-width:0.5;" width="168.2813" x="2910" y="115"/><ellipse cx="2925" cy="131" fill="#ADD1B2" rx="11" ry="11" style="stroke:#181818;stroke-width:1;"/><path d="M2927.9688,136.6406 Q2927.3906,136.9375 2926.75,137.0781 Q2926.1094,137.2344 2925.4063,137.2344 Q2922.9063,137.2344 2921.5781,135.5938 Q2920.2656,133.9375 2920.2656,130.8125 Q2920.2656,127.6875 2921.5781,126.0313 Q2922.9063,124.375 2925.4063,124.375 Q2926.1094,124.375 2926.75,124.5313 Q2927.4063,124.6875 2927.9688,124.9844 L2927.9688,127.7031 Q2927.3438,127.125 2926.75,126.8594 Q2926.1563,126.5781 2925.5313,126.5781 Q2924.1875,126.5781 2923.5,127.6563 Q2922.8125,128.7188 2922.8125,130.8125 Q2922.8125,132.9063 2923.5,133.9844 Q2924.1875,135.0469 2925.5313,135.0469 Q2926.1563,135.0469 2926.75,134.7813 Q2927.3438,134.5 2927.9688,133.9219 L2927.9688,136.6406 Z " fill="#000000"/><text fill="#000000" font-family="sans-serif" font-size="14" lengthAdjust="spacing" textLength="136.2813" x="2939" y="135.8467">ActuationCollection</text><line style="stroke:#181818;stroke-width:0.5;" x1="2911" x2="3077.2813" y1="147" y2="147"/><line style="stroke:#181818;stroke-width:0.5;" x1="2911" x2="3077.2813" y1="155" y2="155"/></g><!--class ObservationCollection--><g class="entity" data-qualified-name="ObservationCollection" data-source-line="18" id="ent0041"><rect fill="#F1F1F1" height="48" rx="2.5" ry="2.5" style="stroke:#181818;stroke-width:0.5;" width="186.499" x="3113" y="115"/><ellipse cx="3128" cy="131" fill="#ADD1B2" rx="11" ry="11" style="stroke:#181818;stroke-width:1;"/><path d="M3130.9688,136.6406 Q3130.3906,136.9375 3129.75,137.0781 Q3129.1094,137.2344 3128.4063,137.2344 Q3125.9063,137.2344 3124.5781,135.5938 Q3123.2656,133.9375 3123.2656,130.8125 Q3123.2656,127.6875 3124.5781,126.0313 Q3125.9063,124.375 3128.4063,124.375 Q3129.1094,124.375 3129.75,124.5313 Q3130.4063,124.6875 3130.9688,124.9844 L3130.9688,127.7031 Q3130.3438,127.125 3129.75,126.8594 Q3129.1563,126.5781 3128.5313,126.5781 Q3127.1875,126.5781 3126.5,127.6563 Q3125.8125,128.7188 3125.8125,130.8125 Q3125.8125,132.9063 3126.5,133.9844 Q3127.1875,135.0469 3128.5313,135.0469 Q3129.1563,135.0469 3129.75,134.7813 Q3130.3438,134.5 3130.9688,133.9219 L3130.9688,136.6406 Z " fill="#000000"/><text fill="#000000" font-family="sans-serif" font-size="14" lengthAdjust="spacing" textLength="154.499" x="3142" y="135.8467">ObservationCollection</text><line style="stroke:#181818;stroke-width:0.5;" x1="3114" x2="3298.499" y1="147" y2="147"/><line style="stroke:#181818;stroke-width:0.5;" x1="3114" x2="3298.499" y1="155" y2="155"/></g><!--class Observation--><g class="entity" data-qualified-name="Observation" data-source-line="19" id="ent0043"><rect fill="#F1F1F1" height="48" rx="2.5" ry="2.5" style="stroke:#181818;stroke-width:0.5;" width="117.251" x="2556.5" y="115"/><ellipse cx="2571.5" cy="131" fill="#ADD1B2" rx="11" ry="11" style="stroke:#181818;stroke-width:1;"/><path d="M2574.4688,136.6406 Q2573.8906,136.9375 2573.25,137.0781 Q2572.6094,137.2344 2571.9063,137.2344 Q2569.4063,137.2344 2568.0781,135.5938 Q2566.7656,133.9375 2566.7656,130.8125 Q2566.7656,127.6875 2568.0781,126.0313 Q2569.4063,124.375 2571.9063,124.375 Q2572.6094,124.375 2573.25,124.5313 Q2573.9063,124.6875 2574.4688,124.9844 L2574.4688,127.7031 Q2573.8438,127.125 2573.25,126.8594 Q2572.6563,126.5781 2572.0313,126.5781 Q2570.6875,126.5781 2570,127.6563 Q2569.3125,128.7188 2569.3125,130.8125 Q2569.3125,132.9063 2570,133.9844 Q2570.6875,135.0469 2572.0313,135.0469 Q2572.6563,135.0469 2573.25,134.7813 Q2573.8438,134.5 2574.4688,133.9219 L2574.4688,136.6406 Z " fill="#000000"/><text fill="#000000" font-family="sans-serif" font-size="14" lengthAdjust="spacing" textLength="85.251" x="2585.5" y="135.8467">Observation</text><line style="stroke:#181818;stroke-width:0.5;" x1="2557.5" x2="2672.751" y1="147" y2="147"/><line style="stroke:#181818;stroke-width:0.5;" x1="2557.5" x2="2672.751" y1="155" y2="155"/></g><!--class Deployment--><g class="entity" data-qualified-name="Deployment" data-source-line="20" id="ent0045"><rect fill="#F1F1F1" height="48" rx="2.5" ry="2.5" style="stroke:#181818;stroke-width:0.5;" width="117.6338" x="25" y="7"/><ellipse cx="40" cy="23" fill="#ADD1B2" rx="11" ry="11" style="stroke:#181818;stroke-width:1;"/><path d="M42.9688,28.6406 Q42.3906,28.9375 41.75,29.0781 Q41.1094,29.2344 40.4063,29.2344 Q37.9063,29.2344 36.5781,27.5938 Q35.2656,25.9375 35.2656,22.8125 Q35.2656,19.6875 36.5781,18.0313 Q37.9063,16.375 40.4063,16.375 Q41.1094,16.375 41.75,16.5313 Q42.4063,16.6875 42.9688,16.9844 L42.9688,19.7031 Q42.3438,19.125 41.75,18.8594 Q41.1563,18.5781 40.5313,18.5781 Q39.1875,18.5781 38.5,19.6563 Q37.8125,20.7188 37.8125,22.8125 Q37.8125,24.9063 38.5,25.9844 Q39.1875,27.0469 40.5313,27.0469 Q41.1563,27.0469 41.75,26.7813 Q42.3438,26.5 42.9688,25.9219 L42.9688,28.6406 Z " fill="#000000"/><text fill="#000000" font-family="sans-serif" font-size="14" lengthAdjust="spacing" textLength="85.6338" x="54" y="27.8467">Deployment</text><line style="stroke:#181818;stroke-width:0.5;" x1="26" x2="141.6338" y1="39" y2="39"/><line style="stroke:#181818;stroke-width:0.5;" x1="26" x2="141.6338" y1="47" y2="47"/></g><!--class Result--><g class="entity" data-qualified-name="Result" data-source-line="22" id="ent0046"><rect fill="#F1F1F1" height="48" rx="2.5" ry="2.5" style="stroke:#181818;stroke-width:0.5;" width="75.8867" x="178" y="7"/><ellipse cx="193" cy="23" fill="#ADD1B2" rx="11" ry="11" style="stroke:#181818;stroke-width:1;"/><path d="M195.9688,28.6406 Q195.3906,28.9375 194.75,29.0781 Q194.1094,29.2344 193.4063,29.2344 Q190.9063,29.2344 189.5781,27.5938 Q188.2656,25.9375 188.2656,22.8125 Q188.2656,19.6875 189.5781,18.0313 Q190.9063,16.375 193.4063,16.375 Q194.1094,16.375 194.75,16.5313 Q195.4063,16.6875 195.9688,16.9844 L195.9688,19.7031 Q195.3438,19.125 194.75,18.8594 Q194.1563,18.5781 193.5313,18.5781 Q192.1875,18.5781 191.5,19.6563 Q190.8125,20.7188 190.8125,22.8125 Q190.8125,24.9063 191.5,25.9844 Q192.1875,27.0469 193.5313,27.0469 Q194.1563,27.0469 194.75,26.7813 Q195.3438,26.5 195.9688,25.9219 L195.9688,28.6406 Z " fill="#000000"/><text fill="#000000" font-family="sans-serif" font-size="14" lengthAdjust="spacing" textLength="43.8867" x="207" y="27.8467">Result</text><line style="stroke:#181818;stroke-width:0.5;" x1="179" x2="252.8867" y1="39" y2="39"/><line style="stroke:#181818;stroke-width:0.5;" x1="179" x2="252.8867" y1="47" y2="47"/></g><!--class Input--><g class="entity" data-qualified-name="Input" data-source-line="24" id="ent0047"><rect fill="#F1F1F1" height="48" rx="2.5" ry="2.5" style="stroke:#181818;stroke-width:0.5;" width="68.251" x="289" y="7"/><ellipse cx="304" cy="23" fill="#ADD1B2" rx="11" ry="11" style="stroke:#181818;stroke-width:1;"/><path d="M306.9688,28.6406 Q306.3906,28.9375 305.75,29.0781 Q305.1094,29.2344 304.4063,29.2344 Q301.9063,29.2344 300.5781,27.5938 Q299.2656,25.9375 299.2656,22.8125 Q299.2656,19.6875 300.5781,18.0313 Q301.9063,16.375 304.4063,16.375 Q305.1094,16.375 305.75,16.5313 Q306.4063,16.6875 306.9688,16.9844 L306.9688,19.7031 Q306.3438,19.125 305.75,18.8594 Q305.1563,18.5781 304.5313,18.5781 Q303.1875,18.5781 302.5,19.6563 Q301.8125,20.7188 301.8125,22.8125 Q301.8125,24.9063 302.5,25.9844 Q303.1875,27.0469 304.5313,27.0469 Q305.1563,27.0469 305.75,26.7813 Q306.3438,26.5 306.9688,25.9219 L306.9688,28.6406 Z " fill="#000000"/><text fill="#000000" font-family="sans-serif" font-size="14" lengthAdjust="spacing" textLength="36.251" x="318" y="27.8467">Input</text><line style="stroke:#181818;stroke-width:0.5;" x1="290" x2="356.251" y1="39" y2="39"/><line style="stroke:#181818;stroke-width:0.5;" x1="290" x2="356.251" y1="47" y2="47"/></g><!--class Output--><g class="entity" data-qualified-name="Output" data-source-line="25" id="ent0048"><rect fill="#F1F1F1" height="48" rx="2.5" ry="2.5" style="stroke:#181818;stroke-width:0.5;" width="80.6309" x="43.5" y="115"/><ellipse cx="58.5" cy="131" fill="#ADD1B2" rx="11" ry="11" style="stroke:#181818;stroke-width:1;"/><path d="M61.4688,136.6406 Q60.8906,136.9375 60.25,137.0781 Q59.6094,137.2344 58.9063,137.2344 Q56.4063,137.2344 55.0781,135.5938 Q53.7656,133.9375 53.7656,130.8125 Q53.7656,127.6875 55.0781,126.0313 Q56.4063,124.375 58.9063,124.375 Q59.6094,124.375 60.25,124.5313 Q60.9063,124.6875 61.4688,124.9844 L61.4688,127.7031 Q60.8438,127.125 60.25,126.8594 Q59.6563,126.5781 59.0313,126.5781 Q57.6875,126.5781 57,127.6563 Q56.3125,128.7188 56.3125,130.8125 Q56.3125,132.9063 57,133.9844 Q57.6875,135.0469 59.0313,135.0469 Q59.6563,135.0469 60.25,134.7813 Q60.8438,134.5 61.4688,133.9219 L61.4688,136.6406 Z " fill="#000000"/><text fill="#000000" font-family="sans-serif" font-size="14" lengthAdjust="spacing" textLength="48.6309" x="72.5" y="135.8467">Output</text><line style="stroke:#181818;stroke-width:0.5;" x1="44.5" x2="123.1309" y1="147" y2="147"/><line style="stroke:#181818;stroke-width:0.5;" x1="44.5" x2="123.1309" y1="155" y2="155"/></g><!--class Stimulus--><g class="entity" data-qualified-name="Stimulus" data-source-line="26" id="ent0049"><rect fill="#F1F1F1" height="48" rx="2.5" ry="2.5" style="stroke:#181818;stroke-width:0.5;" width="92.833" x="159.5" y="115"/><ellipse cx="174.5" cy="131" fill="#ADD1B2" rx="11" ry="11" style="stroke:#181818;stroke-width:1;"/><path d="M177.4688,136.6406 Q176.8906,136.9375 176.25,137.0781 Q175.6094,137.2344 174.9063,137.2344 Q172.4063,137.2344 171.0781,135.5938 Q169.7656,133.9375 169.7656,130.8125 Q169.7656,127.6875 171.0781,126.0313 Q172.4063,124.375 174.9063,124.375 Q175.6094,124.375 176.25,124.5313 Q176.9063,124.6875 177.4688,124.9844 L177.4688,127.7031 Q176.8438,127.125 176.25,126.8594 Q175.6563,126.5781 175.0313,126.5781 Q173.6875,126.5781 173,127.6563 Q172.3125,128.7188 172.3125,130.8125 Q172.3125,132.9063 173,133.9844 Q173.6875,135.0469 175.0313,135.0469 Q175.6563,135.0469 176.25,134.7813 Q176.8438,134.5 177.4688,133.9219 L177.4688,136.6406 Z " fill="#000000"/><text fill="#000000" font-family="sans-serif" font-size="14" lengthAdjust="spacing" textLength="60.833" x="188.5" y="135.8467">Stimulus</text><line style="stroke:#181818;stroke-width:0.5;" x1="160.5" x2="251.333" y1="147" y2="147"/><line style="stroke:#181818;stroke-width:0.5;" x1="160.5" x2="251.333" y1="155" y2="155"/></g><!--class FeatureOfInterest--><g class="entity" data-qualified-name="FeatureOfInterest" data-source-line="27" id="ent0050"><rect fill="#F1F1F1" height="48" rx="2.5" ry="2.5" style="stroke:#181818;stroke-width:0.5;" width="156.1816" x="288" y="115"/><ellipse cx="303" cy="131" fill="#ADD1B2" rx="11" ry="11" style="stroke:#181818;stroke-width:1;"/><path d="M305.9688,136.6406 Q305.3906,136.9375 304.75,137.0781 Q304.1094,137.2344 303.4063,137.2344 Q300.9063,137.2344 299.5781,135.5938 Q298.2656,133.9375 298.2656,130.8125 Q298.2656,127.6875 299.5781,126.0313 Q300.9063,124.375 303.4063,124.375 Q304.1094,124.375 304.75,124.5313 Q305.4063,124.6875 305.9688,124.9844 L305.9688,127.7031 Q305.3438,127.125 304.75,126.8594 Q304.1563,126.5781 303.5313,126.5781 Q302.1875,126.5781 301.5,127.6563 Q300.8125,128.7188 300.8125,130.8125 Q300.8125,132.9063 301.5,133.9844 Q302.1875,135.0469 303.5313,135.0469 Q304.1563,135.0469 304.75,134.7813 Q305.3438,134.5 305.9688,133.9219 L305.9688,136.6406 Z " fill="#000000"/><text fill="#000000" font-family="sans-serif" font-size="14" lengthAdjust="spacing" textLength="124.1816" x="317" y="135.8467">FeatureOfInterest</text><line style="stroke:#181818;stroke-width:0.5;" x1="289" x2="443.1816" y1="147" y2="147"/><line style="stroke:#181818;stroke-width:0.5;" x1="289" x2="443.1816" y1="155" y2="155"/></g><!--class SampleCollection--><g class="entity" data-qualified-name="SampleCollection" data-source-line="30" id="ent0051"><rect fill="#F1F1F1" height="48" rx="2.5" ry="2.5" style="stroke:#181818;stroke-width:0.5;" width="153.7412" x="7" y="223"/><ellipse cx="22" cy="239" fill="#ADD1B2" rx="11" ry="11" style="stroke:#181818;stroke-width:1;"/><path d="M24.9688,244.6406 Q24.3906,244.9375 23.75,245.0781 Q23.1094,245.2344 22.4063,245.2344 Q19.9063,245.2344 18.5781,243.5938 Q17.2656,241.9375 17.2656,238.8125 Q17.2656,235.6875 18.5781,234.0313 Q19.9063,232.375 22.4063,232.375 Q23.1094,232.375 23.75,232.5313 Q24.4063,232.6875 24.9688,232.9844 L24.9688,235.7031 Q24.3438,235.125 23.75,234.8594 Q23.1563,234.5781 22.5313,234.5781 Q21.1875,234.5781 20.5,235.6563 Q19.8125,236.7188 19.8125,238.8125 Q19.8125,240.9063 20.5,241.9844 Q21.1875,243.0469 22.5313,243.0469 Q23.1563,243.0469 23.75,242.7813 Q24.3438,242.5 24.9688,241.9219 L24.9688,244.6406 Z " fill="#000000"/><text fill="#000000" font-family="sans-serif" font-size="14" lengthAdjust="spacing" textLength="121.7412" x="36" y="243.8467">SampleCollection</text><line style="stroke:#181818;stroke-width:0.5;" x1="8" x2="159.7412" y1="255" y2="255"/><line style="stroke:#181818;stroke-width:0.5;" x1="8" x2="159.7412" y1="263" y2="263"/></g><!--reverse link Property to ActuatableProperty--><g class="link" data-entity-1="ent0001" data-entity-2="ent0002" data-link-type="extension" data-source-line="1" id="lnk3"><path codeLine="1" d="M630.3905,67.9716 C613.4005,85.6316 602.51,96.94 585.44,114.68" fill="none" id="Property-backto-ActuatableProperty" style="stroke:#181818;stroke-width:1;"/><polygon fill="none" points="642.87,55,626.0667,63.8118,634.7144,72.1314,642.87,55" style="stroke:#181818;stroke-width:1;stroke-linejoin:miter;stroke-miterlimit:10;"/></g><!--reverse link Sample to MaterialSample--><g class="link" data-entity-1="ent0004" data-entity-2="ent0005" data-link-type="extension" data-source-line="2" id="lnk6"><path codeLine="2" d="M1079.3567,64.4445 C1050.6067,82.1645 1026.35,97.11 997.55,114.86" fill="none" id="Sample-backto-MaterialSample" style="stroke:#181818;stroke-width:1;"/><polygon fill="none" points="1094.68,55,1076.2086,59.3367,1082.5049,69.5522,1094.68,55" style="stroke:#181818;stroke-width:1;stroke-linejoin:miter;stroke-miterlimit:10;"/></g><!--reverse link Sample to SpatialSample--><g class="link" data-entity-1="ent0004" data-entity-2="ent0007" data-link-type="extension" data-source-line="3" id="lnk8"><path codeLine="3" d="M1132,73 C1132,90.66 1132,96.94 1132,114.68" fill="none" id="Sample-backto-SpatialSample" style="stroke:#181818;stroke-width:1;"/><polygon fill="none" points="1132,55,1126,73,1138,73,1132,55" style="stroke:#181818;stroke-width:1;stroke-linejoin:miter;stroke-miterlimit:10;"/></g><!--reverse link Sample to StatisticalSample--><g class="link" data-entity-1="ent0004" data-entity-2="ent0009" data-link-type="extension" data-source-line="4" id="lnk10"><path codeLine="4" d="M1186.3276,64.1725 C1216.2476,81.8925 1241.95,97.11 1271.93,114.86" fill="none" id="Sample-backto-StatisticalSample" style="stroke:#181818;stroke-width:1;"/><polygon fill="none" points="1170.84,55,1183.2701,69.335,1189.3851,59.0099,1170.84,55" style="stroke:#181818;stroke-width:1;stroke-linejoin:miter;stroke-miterlimit:10;"/></g><!--reverse link Property to ObservableProperty--><g class="link" data-entity-1="ent0001" data-entity-2="ent0011" data-link-type="extension" data-source-line="5" id="lnk12"><path codeLine="5" d="M699.8939,67.9094 C717.0539,85.5694 728.1,96.94 745.34,114.68" fill="none" id="Property-backto-ObservableProperty" style="stroke:#181818;stroke-width:1;"/><polygon fill="none" points="687.35,55,695.5907,72.0906,704.197,63.7281,687.35,55" style="stroke:#181818;stroke-width:1;stroke-linejoin:miter;stroke-miterlimit:10;"/></g><!--reverse link Procedure to ActuatingProcedure--><g class="link" data-entity-1="ent0013" data-entity-2="ent0014" data-link-type="extension" data-source-line="6" id="lnk15"><path codeLine="6" d="M1655.8326,63.1732 C1621.0626,80.8932 1589.24,97.11 1554.4,114.86" fill="none" id="Procedure-backto-ActuatingProcedure" style="stroke:#181818;stroke-width:1;"/><polygon fill="none" points="1671.87,55,1653.1082,57.8274,1658.557,68.519,1671.87,55" style="stroke:#181818;stroke-width:1;stroke-linejoin:miter;stroke-miterlimit:10;"/></g><!--reverse link Procedure to ObservingProcedure--><g class="link" data-entity-1="ent0013" data-entity-2="ent0016" data-link-type="extension" data-source-line="7" id="lnk17"><path codeLine="7" d="M1717,73 C1717,90.66 1717,96.94 1717,114.68" fill="none" id="Procedure-backto-ObservingProcedure" style="stroke:#181818;stroke-width:1;"/><polygon fill="none" points="1717,55,1711,73,1723,73,1717,55" style="stroke:#181818;stroke-width:1;stroke-linejoin:miter;stroke-miterlimit:10;"/></g><!--reverse link Procedure to SamplingProcedure--><g class="link" data-entity-1="ent0013" data-entity-2="ent0018" data-link-type="extension" data-source-line="8" id="lnk19"><path codeLine="8" d="M1777.9411,63.205 C1812.5411,80.925 1844.15,97.11 1878.81,114.86" fill="none" id="Procedure-backto-SamplingProcedure" style="stroke:#181818;stroke-width:1;"/><polygon fill="none" points="1761.92,55,1775.2061,68.5454,1780.6762,57.8647,1761.92,55" style="stroke:#181818;stroke-width:1;stroke-linejoin:miter;stroke-miterlimit:10;"/></g><!--reverse link Asset to Platform--><g class="link" data-entity-1="ent0020" data-entity-2="ent0021" data-link-type="extension" data-source-line="9" id="lnk22"><path codeLine="9" d="M2127.7839,70.6022 C2117.6239,88.2622 2112.63,96.94 2102.42,114.68" fill="none" id="Asset-backto-Platform" style="stroke:#181818;stroke-width:1;"/><polygon fill="none" points="2136.76,55,2122.5831,67.6102,2132.9846,73.5943,2136.76,55" style="stroke:#181818;stroke-width:1;stroke-linejoin:miter;stroke-miterlimit:10;"/></g><!--reverse link System to Sampler--><g class="link" data-entity-1="ent0023" data-entity-2="ent0024" data-link-type="extension" data-source-line="10" id="lnk25"><path codeLine="10" d="M2170.8865,174.5884 C2149.8965,192.2484 2134.81,204.94 2113.72,222.68" fill="none" id="System-backto-Sampler" style="stroke:#181818;stroke-width:1;"/><polygon fill="none" points="2184.66,163,2167.0237,169.9972,2174.7493,179.1795,2184.66,163" style="stroke:#181818;stroke-width:1;stroke-linejoin:miter;stroke-miterlimit:10;"/></g><!--reverse link System to Actuator--><g class="link" data-entity-1="ent0023" data-entity-2="ent0026" data-link-type="extension" data-source-line="11" id="lnk27"><path codeLine="11" d="M2212,181 C2212,198.66 2212,204.94 2212,222.68" fill="none" id="System-backto-Actuator" style="stroke:#181818;stroke-width:1;"/><polygon fill="none" points="2212,163,2206,181,2218,181,2212,163" style="stroke:#181818;stroke-width:1;stroke-linejoin:miter;stroke-miterlimit:10;"/></g><!--reverse link Asset to System--><g class="link" data-entity-1="ent0020" data-entity-2="ent0023" data-link-type="extension" data-source-line="12" id="lnk28"><path codeLine="12" d="M2172.5383,70.5372 C2182.8683,88.1972 2187.98,96.94 2198.36,114.68" fill="none" id="Asset-backto-System" style="stroke:#181818;stroke-width:1;"/><polygon fill="none" points="2163.45,55,2167.3592,73.5666,2177.7173,67.5077,2163.45,55" style="stroke:#181818;stroke-width:1;stroke-linejoin:miter;stroke-miterlimit:10;"/></g><!--reverse link Execution to Sampling--><g class="link" data-entity-1="ent0029" data-entity-2="ent0030" data-link-type="extension" data-source-line="13" id="lnk31"><path codeLine="13" d="M2428.8041,66.1688 C2406.4841,83.8288 2389.91,96.94 2367.48,114.68" fill="none" id="Execution-backto-Sampling" style="stroke:#181818;stroke-width:1;"/><polygon fill="none" points="2442.92,55,2425.0812,61.4635,2432.527,70.8741,2442.92,55" style="stroke:#181818;stroke-width:1;stroke-linejoin:miter;stroke-miterlimit:10;"/></g><!--reverse link ExecutionCollection to SamplingCollection--><g class="link" data-entity-1="ent0032" data-entity-2="ent0033" data-link-type="extension" data-source-line="14" id="lnk34"><path codeLine="14" d="M2934.231,63.3636 C2900.461,81.0836 2869.93,97.11 2836.09,114.86" fill="none" id="ExecutionCollection-backto-SamplingCollection" style="stroke:#181818;stroke-width:1;"/><polygon fill="none" points="2950.17,55,2931.4432,58.0506,2937.0189,68.6766,2950.17,55" style="stroke:#181818;stroke-width:1;stroke-linejoin:miter;stroke-miterlimit:10;"/></g><!--reverse link Execution to Actuation--><g class="link" data-entity-1="ent0029" data-entity-2="ent0035" data-link-type="extension" data-source-line="15" id="lnk36"><path codeLine="15" d="M2472,73 C2472,90.66 2472,96.94 2472,114.68" fill="none" id="Execution-backto-Actuation" style="stroke:#181818;stroke-width:1;"/><polygon fill="none" points="2472,55,2466,73,2478,73,2472,55" style="stroke:#181818;stroke-width:1;stroke-linejoin:miter;stroke-miterlimit:10;"/></g><!--reverse link System to Sensor--><g class="link" data-entity-1="ent0023" data-entity-2="ent0037" data-link-type="extension" data-source-line="16" id="lnk38"><path codeLine="16" d="M2251.7968,174.864 C2271.9468,192.524 2286.13,204.94 2306.38,222.68" fill="none" id="System-backto-Sensor" style="stroke:#181818;stroke-width:1;"/><polygon fill="none" points="2238.26,163,2247.8421,179.3763,2255.7515,170.3518,2238.26,163" style="stroke:#181818;stroke-width:1;stroke-linejoin:miter;stroke-miterlimit:10;"/></g><!--reverse link ExecutionCollection to ActuationCollection--><g class="link" data-entity-1="ent0032" data-entity-2="ent0039" data-link-type="extension" data-source-line="17" id="lnk40"><path codeLine="17" d="M2994,73 C2994,90.66 2994,96.94 2994,114.68" fill="none" id="ExecutionCollection-backto-ActuationCollection" style="stroke:#181818;stroke-width:1;"/><polygon fill="none" points="2994,55,2988,73,3000,73,2994,55" style="stroke:#181818;stroke-width:1;stroke-linejoin:miter;stroke-miterlimit:10;"/></g><!--reverse link ExecutionCollection to ObservationCollection--><g class="link" data-entity-1="ent0032" data-entity-2="ent0041" data-link-type="extension" data-source-line="18" id="lnk42"><path codeLine="18" d="M3056.0997,63.0498 C3091.5397,80.7698 3124.22,97.11 3159.72,114.86" fill="none" id="ExecutionCollection-backto-ObservationCollection" style="stroke:#181818;stroke-width:1;"/><polygon fill="none" points="3040,55,3053.4164,68.4164,3058.783,57.6833,3040,55" style="stroke:#181818;stroke-width:1;stroke-linejoin:miter;stroke-miterlimit:10;"/></g><!--reverse link Execution to Observation--><g class="link" data-entity-1="ent0029" data-entity-2="ent0043" data-link-type="extension" data-source-line="19" id="lnk44"><path codeLine="19" d="M2517.4895,65.7202 C2541.3095,83.3802 2559.61,96.94 2583.54,114.68" fill="none" id="Execution-backto-Observation" style="stroke:#181818;stroke-width:1;"/><polygon fill="none" points="2503.03,55,2513.9161,70.54,2521.0629,60.9004,2503.03,55" style="stroke:#181818;stroke-width:1;stroke-linejoin:miter;stroke-miterlimit:10;"/></g><?plantuml-src VP99RiCm34NtFeKla1jq4tG0iYXir2TGLAOGG0qGgQ86UlW8eIfRJjoT-F_Z855Zz04Yp_tJx-7G7pKdnUgCC1QzcvGD26A_AuPe58hMM5DGlEDmTeYDhkxOz1pE1F6xwPaF6ZvJXFLKndrLVKj8ZV-8M-i6E181YpcYuekFjfjcOh2h38YD9fFuk4uMltlz0PtOUDVsM_HdZmZwdbZqROroxsmqSu6ZFC5ktPhrgF0MBe-_Xzz1dKP5rBz0G3zRS5o4kZe9Fu0IyXvySY7zdOV4Ip2niGaJbV0D5ETD3PUJo_yEg6BouWzpP6lBNQu0?></g></svg>