<svg xmlns="http://www.w3.org/2000/svg" xmlns:xlink="http://www.w3.org/1999/xlink" contentStyleType="text/css" data-diagram-type="CLASS" height="286px" preserveAspectRatio="none" style="width:3300px;height:286px;background:#FFFFFF;" version="1.1" viewBox="0 0 3300 286" width="3300px" zoomAndPan="magnify"><?plantuml 1.2026.3?><defs/><g><!--class Property--><g class="entity" data-qualified-name="Property" data-source-line="1" id="ent0002"><rect fill="#F1F1F1" height="48" rx="2.5" ry="2.5" style="stroke:#181818;stroke-width:0.5;" width="91.7939" x="605" y="7"/><ellipse cx="620" cy="23" fill="#ADD1B2" rx="11" ry="11" style="stroke:#181818;stroke-width:1;"/><path d="M622.9688,28.6406 Q622.3906,28.9375 621.75,29.0781 Q621.1094,29.2344 620.4063,29.2344 Q617.9063,29.2344 616.5781,27.5938 Q615.2656,25.9375 615.2656,22.8125 Q615.2656,19.6875 616.5781,18.0313 Q617.9063,16.375 620.4063,16.375 Q621.1094,16.375 621.75,16.5313 Q622.4063,16.6875 622.9688,16.9844 L622.9688,19.7031 Q622.3438,19.125 621.75,18.8594 Q621.1563,18.5781 620.5313,18.5781 Q619.1875,18.5781 618.5,19.6563 Q617.8125,20.7188 617.8125,22.8125 Q617.8125,24.9063 618.5,25.9844 Q619.1875,27.0469 620.5313,27.0469 Q621.1563,27.0469 621.75,26.7813 Q622.3438,26.5 622.9688,25.9219 L622.9688,28.6406 Z " fill="#000000"/><text fill="#000000" font-family="sans-serif" font-size="14" lengthAdjust="spacing" textLength="59.7939" x="634" y="27.8467">Property</text><line style="stroke:#181818;stroke-width:0.5;" x1="606" x2="695.7939" y1="39" y2="39"/><line style="stroke:#181818;stroke-width:0.5;" x1="606" x2="695.7939" y1="47" y2="47"/></g><!--class ActuatableProperty--><g class="entity" data-qualified-name="ActuatableProperty" data-source-line="1" id="ent0003"><rect fill="#F1F1F1" height="48" rx="2.5" ry="2.5" style="stroke:#181818;stroke-width:0.5;" width="167.4678" x="465.5" y="115"/><ellipse cx="480.5" cy="131" fill="#ADD1B2" rx="11" ry="11" style="stroke:#181818;stroke-width:1;"/><path d="M483.4688,136.6406 Q482.8906,136.9375 482.25,137.0781 Q481.6094,137.2344 480.9063,137.2344 Q478.4063,137.2344 477.0781,135.5938 Q475.7656,133.9375 475.7656,130.8125 Q475.7656,127.6875 477.0781,126.0313 Q478.4063,124.375 480.9063,124.375 Q481.6094,124.375 482.25,124.5313 Q482.9063,124.6875 483.4688,124.9844 L483.4688,127.7031 Q482.8438,127.125 482.25,126.8594 Q481.6563,126.5781 481.0313,126.5781 Q479.6875,126.5781 479,127.6563 Q478.3125,128.7188 478.3125,130.8125 Q478.3125,132.9063 479,133.9844 Q479.6875,135.0469 481.0313,135.0469 Q481.6563,135.0469 482.25,134.7813 Q482.8438,134.5 483.4688,133.9219 L483.4688,136.6406 Z " fill="#000000"/><text fill="#000000" font-family="sans-serif" font-size="14" lengthAdjust="spacing" textLength="135.4678" x="494.5" y="135.8467">ActuatableProperty</text><line style="stroke:#181818;stroke-width:0.5;" x1="466.5" x2="631.9678" y1="147" y2="147"/><line style="stroke:#181818;stroke-width:0.5;" x1="466.5" x2="631.9678" y1="155" y2="155"/></g><!--class Sample--><g class="entity" data-qualified-name="Sample" data-source-line="2" id="ent0005"><rect fill="#F1F1F1" height="48" rx="2.5" ry="2.5" style="stroke:#181818;stroke-width:0.5;" width="84.4932" x="1076" y="7"/><ellipse cx="1091" cy="23" fill="#ADD1B2" rx="11" ry="11" style="stroke:#181818;stroke-width:1;"/><path d="M1093.9688,28.6406 Q1093.3906,28.9375 1092.75,29.0781 Q1092.1094,29.2344 1091.4063,29.2344 Q1088.9063,29.2344 1087.5781,27.5938 Q1086.2656,25.9375 1086.2656,22.8125 Q1086.2656,19.6875 1087.5781,18.0313 Q1088.9063,16.375 1091.4063,16.375 Q1092.1094,16.375 1092.75,16.5313 Q1093.4063,16.6875 1093.9688,16.9844 L1093.9688,19.7031 Q1093.3438,19.125 1092.75,18.8594 Q1092.1563,18.5781 1091.5313,18.5781 Q1090.1875,18.5781 1089.5,19.6563 Q1088.8125,20.7188 1088.8125,22.8125 Q1088.8125,24.9063 1089.5,25.9844 Q1090.1875,27.0469 1091.5313,27.0469 Q1092.1563,27.0469 1092.75,26.7813 Q1093.3438,26.5 1093.9688,25.9219 L1093.9688,28.6406 Z " fill="#000000"/><text fill="#000000" font-family="sans-serif" font-size="14" lengthAdjust="spacing" textLength="52.4932" x="1105" y="27.8467">Sample</text><line style="stroke:#181818;stroke-width:0.5;" x1="1077" x2="1159.4932" y1="39" y2="39"/><line style="stroke:#181818;stroke-width:0.5;" x1="1077" x2="1159.4932" y1="47" y2="47"/></g><!--class MaterialSample--><g class="entity" data-qualified-name="MaterialSample" data-source-line="2" id="ent0006"><rect fill="#F1F1F1" height="48" rx="2.5" ry="2.5" style="stroke:#181818;stroke-width:0.5;" width="141.3682" x="875.5" y="115"/><ellipse cx="890.5" cy="131" fill="#ADD1B2" rx="11" ry="11" style="stroke:#181818;stroke-width:1;"/><path d="M893.4688,136.6406 Q892.8906,136.9375 892.25,137.0781 Q891.6094,137.2344 890.9063,137.2344 Q888.4063,137.2344 887.0781,135.5938 Q885.7656,133.9375 885.7656,130.8125 Q885.7656,127.6875 887.0781,126.0313 Q888.4063,124.375 890.9063,124.375 Q891.6094,124.375 892.25,124.5313 Q892.9063,124.6875 893.4688,124.9844 L893.4688,127.7031 Q892.8438,127.125 892.25,126.8594 Q891.6563,126.5781 891.0313,126.5781 Q889.6875,126.5781 889,127.6563 Q888.3125,128.7188 888.3125,130.8125 Q888.3125,132.9063 889,133.9844 Q889.6875,135.0469 891.0313,135.0469 Q891.6563,135.0469 892.25,134.7813 Q892.8438,134.5 893.4688,133.9219 L893.4688,136.6406 Z " fill="#000000"/><text fill="#000000" font-family="sans-serif" font-size="14" lengthAdjust="spacing" textLength="109.3682" x="904.5" y="135.8467">MaterialSample</text><line style="stroke:#181818;stroke-width:0.5;" x1="876.5" x2="1015.8682" y1="147" y2="147"/><line style="stroke:#181818;stroke-width:0.5;" x1="876.5" x2="1015.8682" y1="155" y2="155"/></g><!--class SpatialSample--><g class="entity" data-qualified-name="SpatialSample" data-source-line="3" id="ent0008"><rect fill="#F1F1F1" height="48" rx="2.5" ry="2.5" style="stroke:#181818;stroke-width:0.5;" width="132.6934" x="1051.5" y="115"/><ellipse cx="1066.5" cy="131" fill="#ADD1B2" rx="11" ry="11" style="stroke:#181818;stroke-width:1;"/><path d="M1069.4688,136.6406 Q1068.8906,136.9375 1068.25,137.0781 Q1067.6094,137.2344 1066.9063,137.2344 Q1064.4063,137.2344 1063.0781,135.5938 Q1061.7656,133.9375 1061.7656,130.8125 Q1061.7656,127.6875 1063.0781,126.0313 Q1064.4063,124.375 1066.9063,124.375 Q1067.6094,124.375 1068.25,124.5313 Q1068.9063,124.6875 1069.4688,124.9844 L1069.4688,127.7031 Q1068.8438,127.125 1068.25,126.8594 Q1067.6563,126.5781 1067.0313,126.5781 Q1065.6875,126.5781 1065,127.6563 Q1064.3125,128.7188 1064.3125,130.8125 Q1064.3125,132.9063 1065,133.9844 Q1065.6875,135.0469 1067.0313,135.0469 Q1067.6563,135.0469 1068.25,134.7813 Q1068.8438,134.5 1069.4688,133.9219 L1069.4688,136.6406 Z " fill="#000000"/><text fill="#000000" font-family="sans-serif" font-size="14" lengthAdjust="spacing" textLength="100.6934" x="1080.5" y="135.8467">SpatialSample</text><line style="stroke:#181818;stroke-width:0.5;" x1="1052.5" x2="1183.1934" y1="147" y2="147"/><line style="stroke:#181818;stroke-width:0.5;" x1="1052.5" x2="1183.1934" y1="155" y2="155"/></g><!--class StatisticalSample--><g class="entity" data-qualified-name="StatisticalSample" data-source-line="4" id="ent0010"><rect fill="#F1F1F1" height="48" rx="2.5" ry="2.5" style="stroke:#181818;stroke-width:0.5;" width="153.666" x="1220" y="115"/><ellipse cx="1235" cy="131" fill="#ADD1B2" rx="11" ry="11" style="stroke:#181818;stroke-width:1;"/><path d="M1237.9688,136.6406 Q1237.3906,136.9375 1236.75,137.0781 Q1236.1094,137.2344 1235.4063,137.2344 Q1232.9063,137.2344 1231.5781,135.5938 Q1230.2656,133.9375 1230.2656,130.8125 Q1230.2656,127.6875 1231.5781,126.0313 Q1232.9063,124.375 1235.4063,124.375 Q1236.1094,124.375 1236.75,124.5313 Q1237.4063,124.6875 1237.9688,124.9844 L1237.9688,127.7031 Q1237.3438,127.125 1236.75,126.8594 Q1236.1563,126.5781 1235.5313,126.5781 Q1234.1875,126.5781 1233.5,127.6563 Q1232.8125,128.7188 1232.8125,130.8125 Q1232.8125,132.9063 1233.5,133.9844 Q1234.1875,135.0469 1235.5313,135.0469 Q1236.1563,135.0469 1236.75,134.7813 Q1237.3438,134.5 1237.9688,133.9219 L1237.9688,136.6406 Z " fill="#000000"/><text fill="#000000" font-family="sans-serif" font-size="14" lengthAdjust="spacing" textLength="121.666" x="1249" y="135.8467">StatisticalSample</text><line style="stroke:#181818;stroke-width:0.5;" x1="1221" x2="1372.666" y1="147" y2="147"/><line style="stroke:#181818;stroke-width:0.5;" x1="1221" x2="1372.666" y1="155" y2="155"/></g><!--class ObservableProperty--><g class="entity" data-qualified-name="ObservableProperty" data-source-line="5" id="ent0012"><rect fill="#F1F1F1" height="48" rx="2.5" ry="2.5" style="stroke:#181818;stroke-width:0.5;" width="171.6172" x="668" y="115"/><ellipse cx="683" cy="131" fill="#ADD1B2" rx="11" ry="11" style="stroke:#181818;stroke-width:1;"/><path d="M685.9688,136.6406 Q685.3906,136.9375 684.75,137.0781 Q684.1094,137.2344 683.4063,137.2344 Q680.9063,137.2344 679.5781,135.5938 Q678.2656,133.9375 678.2656,130.8125 Q678.2656,127.6875 679.5781,126.0313 Q680.9063,124.375 683.4063,124.375 Q684.1094,124.375 684.75,124.5313 Q685.4063,124.6875 685.9688,124.9844 L685.9688,127.7031 Q685.3438,127.125 684.75,126.8594 Q684.1563,126.5781 683.5313,126.5781 Q682.1875,126.5781 681.5,127.6563 Q680.8125,128.7188 680.8125,130.8125 Q680.8125,132.9063 681.5,133.9844 Q682.1875,135.0469 683.5313,135.0469 Q684.1563,135.0469 684.75,134.7813 Q685.3438,134.5 685.9688,133.9219 L685.9688,136.6406 Z " fill="#000000"/><text fill="#000000" font-family="sans-serif" font-size="14" lengthAdjust="spacing" textLength="139.6172" x="697" y="135.8467">ObservableProperty</text><line style="stroke:#181818;stroke-width:0.5;" x1="669" x2="838.6172" y1="147" y2="147"/><line style="stroke:#181818;stroke-width:0.5;" x1="669" x2="838.6172" y1="155" y2="155"/></g><!--class Procedure--><g class="entity" data-qualified-name="Procedure" data-source-line="6" id="ent0014"><rect fill="#F1F1F1" height="48" rx="2.5" ry="2.5" style="stroke:#181818;stroke-width:0.5;" width="103.2031" x="1651.5" y="7"/><ellipse cx="1666.5" cy="23" fill="#ADD1B2" rx="11" ry="11" style="stroke:#181818;stroke-width:1;"/><path d="M1669.4688,28.6406 Q1668.8906,28.9375 1668.25,29.0781 Q1667.6094,29.2344 1666.9063,29.2344 Q1664.4063,29.2344 1663.0781,27.5938 Q1661.7656,25.9375 1661.7656,22.8125 Q1661.7656,19.6875 1663.0781,18.0313 Q1664.4063,16.375 1666.9063,16.375 Q1667.6094,16.375 1668.25,16.5313 Q1668.9063,16.6875 1669.4688,16.9844 L1669.4688,19.7031 Q1668.8438,19.125 1668.25,18.8594 Q1667.6563,18.5781 1667.0313,18.5781 Q1665.6875,18.5781 1665,19.6563 Q1664.3125,20.7188 1664.3125,22.8125 Q1664.3125,24.9063 1665,25.9844 Q1665.6875,27.0469 1667.0313,27.0469 Q1667.6563,27.0469 1668.25,26.7813 Q1668.8438,26.5 1669.4688,25.9219 L1669.4688,28.6406 Z " fill="#000000"/><text fill="#000000" font-family="sans-serif" font-size="14" lengthAdjust="spacing" textLength="71.2031" x="1680.5" y="27.8467">Procedure</text><line style="stroke:#181818;stroke-width:0.5;" x1="1652.5" x2="1753.7031" y1="39" y2="39"/><line style="stroke:#181818;stroke-width:0.5;" x1="1652.5" x2="1753.7031" y1="47" y2="47"/></g><!--class ActuatingProcedure--><g class="entity" data-qualified-name="ActuatingProcedure" data-source-line="6" id="ent0015"><rect fill="#F1F1F1" height="48" rx="2.5" ry="2.5" style="stroke:#181818;stroke-width:0.5;" width="170.5576" x="1409.5" y="115"/><ellipse cx="1424.5" cy="131" fill="#ADD1B2" rx="11" ry="11" style="stroke:#181818;stroke-width:1;"/><path d="M1427.4688,136.6406 Q1426.8906,136.9375 1426.25,137.0781 Q1425.6094,137.2344 1424.9063,137.2344 Q1422.4063,137.2344 1421.0781,135.5938 Q1419.7656,133.9375 1419.7656,130.8125 Q1419.7656,127.6875 1421.0781,126.0313 Q1422.4063,124.375 1424.9063,124.375 Q1425.6094,124.375 1426.25,124.5313 Q1426.9063,124.6875 1427.4688,124.9844 L1427.4688,127.7031 Q1426.8438,127.125 1426.25,126.8594 Q1425.6563,126.5781 1425.0313,126.5781 Q1423.6875,126.5781 1423,127.6563 Q1422.3125,128.7188 1422.3125,130.8125 Q1422.3125,132.9063 1423,133.9844 Q1423.6875,135.0469 1425.0313,135.0469 Q1425.6563,135.0469 1426.25,134.7813 Q1426.8438,134.5 1427.4688,133.9219 L1427.4688,136.6406 Z " fill="#000000"/><text fill="#000000" font-family="sans-serif" font-size="14" lengthAdjust="spacing" textLength="138.5576" x="1438.5" y="135.8467">ActuatingProcedure</text><line style="stroke:#181818;stroke-width:0.5;" x1="1410.5" x2="1579.0576" y1="147" y2="147"/><line style="stroke:#181818;stroke-width:0.5;" x1="1410.5" x2="1579.0576" y1="155" y2="155"/></g><!--class ObservingProcedure--><g class="entity" data-qualified-name="ObservingProcedure" data-source-line="7" id="ent0017"><rect fill="#F1F1F1" height="48" rx="2.5" ry="2.5" style="stroke:#181818;stroke-width:0.5;" width="174.707" x="1615.5" y="115"/><ellipse cx="1630.5" cy="131" fill="#ADD1B2" rx="11" ry="11" style="stroke:#181818;stroke-width:1;"/><path d="M1633.4688,136.6406 Q1632.8906,136.9375 1632.25,137.0781 Q1631.6094,137.2344 1630.9063,137.2344 Q1628.4063,137.2344 1627.0781,135.5938 Q1625.7656,133.9375 1625.7656,130.8125 Q1625.7656,127.6875 1627.0781,126.0313 Q1628.4063,124.375 1630.9063,124.375 Q1631.6094,124.375 1632.25,124.5313 Q1632.9063,124.6875 1633.4688,124.9844 L1633.4688,127.7031 Q1632.8438,127.125 1632.25,126.8594 Q1631.6563,126.5781 1631.0313,126.5781 Q1629.6875,126.5781 1629,127.6563 Q1628.3125,128.7188 1628.3125,130.8125 Q1628.3125,132.9063 1629,133.9844 Q1629.6875,135.0469 1631.0313,135.0469 Q1631.6563,135.0469 1632.25,134.7813 Q1632.8438,134.5 1633.4688,133.9219 L1633.4688,136.6406 Z " fill="#000000"/><text fill="#000000" font-family="sans-serif" font-size="14" lengthAdjust="spacing" textLength="142.707" x="1644.5" y="135.8467">ObservingProcedure</text><line style="stroke:#181818;stroke-width:0.5;" x1="1616.5" x2="1789.207" y1="147" y2="147"/><line style="stroke:#181818;stroke-width:0.5;" x1="1616.5" x2="1789.207" y1="155" y2="155"/></g><!--class SamplingProcedure--><g class="entity" data-qualified-name="SamplingProcedure" data-source-line="8" id="ent0019"><rect fill="#F1F1F1" height="48" rx="2.5" ry="2.5" style="stroke:#181818;stroke-width:0.5;" width="168.7324" x="1825.5" y="115"/><ellipse cx="1840.5" cy="131" fill="#ADD1B2" rx="11" ry="11" style="stroke:#181818;stroke-width:1;"/><path d="M1843.4688,136.6406 Q1842.8906,136.9375 1842.25,137.0781 Q1841.6094,137.2344 1840.9063,137.2344 Q1838.4063,137.2344 1837.0781,135.5938 Q1835.7656,133.9375 1835.7656,130.8125 Q1835.7656,127.6875 1837.0781,126.0313 Q1838.4063,124.375 1840.9063,124.375 Q1841.6094,124.375 1842.25,124.5313 Q1842.9063,124.6875 1843.4688,124.9844 L1843.4688,127.7031 Q1842.8438,127.125 1842.25,126.8594 Q1841.6563,126.5781 1841.0313,126.5781 Q1839.6875,126.5781 1839,127.6563 Q1838.3125,128.7188 1838.3125,130.8125 Q1838.3125,132.9063 1839,133.9844 Q1839.6875,135.0469 1841.0313,135.0469 Q1841.6563,135.0469 1842.25,134.7813 Q1842.8438,134.5 1843.4688,133.9219 L1843.4688,136.6406 Z " fill="#000000"/><text fill="#000000" font-family="sans-serif" font-size="14" lengthAdjust="spacing" textLength="136.7324" x="1854.5" y="135.8467">SamplingProcedure</text><line style="stroke:#181818;stroke-width:0.5;" x1="1826.5" x2="1993.2324" y1="147" y2="147"/><line style="stroke:#181818;stroke-width:0.5;" x1="1826.5" x2="1993.2324" y1="155" y2="155"/></g><!--class Asset--><g class="entity" data-qualified-name="Asset" data-source-line="9" id="ent0021"><rect fill="#F1F1F1" height="48" rx="2.5" ry="2.5" style="stroke:#181818;stroke-width:0.5;" width="70.2676" x="2101" y="7"/><ellipse cx="2116" cy="23" fill="#ADD1B2" rx="11" ry="11" style="stroke:#181818;stroke-width:1;"/><path d="M2118.9688,28.6406 Q2118.3906,28.9375 2117.75,29.0781 Q2117.1094,29.2344 2116.4063,29.2344 Q2113.9063,29.2344 2112.5781,27.5938 Q2111.2656,25.9375 2111.2656,22.8125 Q2111.2656,19.6875 2112.5781,18.0313 Q2113.9063,16.375 2116.4063,16.375 Q2117.1094,16.375 2117.75,16.5313 Q2118.4063,16.6875 2118.9688,16.9844 L2118.9688,19.7031 Q2118.3438,19.125 2117.75,18.8594 Q2117.1563,18.5781 2116.5313,18.5781 Q2115.1875,18.5781 2114.5,19.6563 Q2113.8125,20.7188 2113.8125,22.8125 Q2113.8125,24.9063 2114.5,25.9844 Q2115.1875,27.0469 2116.5313,27.0469 Q2117.1563,27.0469 2117.75,26.7813 Q2118.3438,26.5 2118.9688,25.9219 L2118.9688,28.6406 Z " fill="#000000"/><text fill="#000000" font-family="sans-serif" font-size="14" lengthAdjust="spacing" textLength="38.2676" x="2130" y="27.8467">Asset</text><line style="stroke:#181818;stroke-width:0.5;" x1="2102" x2="2170.2676" y1="39" y2="39"/><line style="stroke:#181818;stroke-width:0.5;" x1="2102" x2="2170.2676" y1="47" y2="47"/></g><!--class Platform--><g class="entity" data-qualified-name="Platform" data-source-line="9" id="ent0022"><rect fill="#F1F1F1" height="48" rx="2.5" ry="2.5" style="stroke:#181818;stroke-width:0.5;" width="91.2881" x="2029.5" y="115"/><ellipse cx="2044.5" cy="131" fill="#ADD1B2" rx="11" ry="11" style="stroke:#181818;stroke-width:1;"/><path d="M2047.4688,136.6406 Q2046.8906,136.9375 2046.25,137.0781 Q2045.6094,137.2344 2044.9063,137.2344 Q2042.4063,137.2344 2041.0781,135.5938 Q2039.7656,133.9375 2039.7656,130.8125 Q2039.7656,127.6875 2041.0781,126.0313 Q2042.4063,124.375 2044.9063,124.375 Q2045.6094,124.375 2046.25,124.5313 Q2046.9063,124.6875 2047.4688,124.9844 L2047.4688,127.7031 Q2046.8438,127.125 2046.25,126.8594 Q2045.6563,126.5781 2045.0313,126.5781 Q2043.6875,126.5781 2043,127.6563 Q2042.3125,128.7188 2042.3125,130.8125 Q2042.3125,132.9063 2043,133.9844 Q2043.6875,135.0469 2045.0313,135.0469 Q2045.6563,135.0469 2046.25,134.7813 Q2046.8438,134.5 2047.4688,133.9219 L2047.4688,136.6406 Z " fill="#000000"/><text fill="#000000" font-family="sans-serif" font-size="14" lengthAdjust="spacing" textLength="59.2881" x="2058.5" y="135.8467">Platform</text><line style="stroke:#181818;stroke-width:0.5;" x1="2030.5" x2="2119.7881" y1="147" y2="147"/><line style="stroke:#181818;stroke-width:0.5;" x1="2030.5" x2="2119.7881" y1="155" y2="155"/></g><!--class System--><g class="entity" data-qualified-name="System" data-source-line="10" id="ent0024"><rect fill="#F1F1F1" height="48" rx="2.5" ry="2.5" style="stroke:#181818;stroke-width:0.5;" width="84.2061" x="2156" y="115"/><ellipse cx="2171" cy="131" fill="#ADD1B2" rx="11" ry="11" style="stroke:#181818;stroke-width:1;"/><path d="M2173.9688,136.6406 Q2173.3906,136.9375 2172.75,137.0781 Q2172.1094,137.2344 2171.4063,137.2344 Q2168.9063,137.2344 2167.5781,135.5938 Q2166.2656,133.9375 2166.2656,130.8125 Q2166.2656,127.6875 2167.5781,126.0313 Q2168.9063,124.375 2171.4063,124.375 Q2172.1094,124.375 2172.75,124.5313 Q2173.4063,124.6875 2173.9688,124.9844 L2173.9688,127.7031 Q2173.3438,127.125 2172.75,126.8594 Q2172.1563,126.5781 2171.5313,126.5781 Q2170.1875,126.5781 2169.5,127.6563 Q2168.8125,128.7188 2168.8125,130.8125 Q2168.8125,132.9063 2169.5,133.9844 Q2170.1875,135.0469 2171.5313,135.0469 Q2172.1563,135.0469 2172.75,134.7813 Q2173.3438,134.5 2173.9688,133.9219 L2173.9688,136.6406 Z " fill="#000000"/><text fill="#000000" font-family="sans-serif" font-size="14" lengthAdjust="spacing" textLength="52.2061" x="2185" y="135.8467">System</text><line style="stroke:#181818;stroke-width:0.5;" x1="2157" x2="2239.2061" y1="147" y2="147"/><line style="stroke:#181818;stroke-width:0.5;" x1="2157" x2="2239.2061" y1="155" y2="155"/></g><!--class Sampler--><g class="entity" data-qualified-name="Sampler" data-source-line="10" id="ent0025"><rect fill="#F1F1F1" height="48" rx="2.5" ry="2.5" style="stroke:#181818;stroke-width:0.5;" width="90.249" x="2027" y="223"/><ellipse cx="2042" cy="239" fill="#ADD1B2" rx="11" ry="11" style="stroke:#181818;stroke-width:1;"/><path d="M2044.9688,244.6406 Q2044.3906,244.9375 2043.75,245.0781 Q2043.1094,245.2344 2042.4063,245.2344 Q2039.9063,245.2344 2038.5781,243.5938 Q2037.2656,241.9375 2037.2656,238.8125 Q2037.2656,235.6875 2038.5781,234.0313 Q2039.9063,232.375 2042.4063,232.375 Q2043.1094,232.375 2043.75,232.5313 Q2044.4063,232.6875 2044.9688,232.9844 L2044.9688,235.7031 Q2044.3438,235.125 2043.75,234.8594 Q2043.1563,234.5781 2042.5313,234.5781 Q2041.1875,234.5781 2040.5,235.6563 Q2039.8125,236.7188 2039.8125,238.8125 Q2039.8125,240.9063 2040.5,241.9844 Q2041.1875,243.0469 2042.5313,243.0469 Q2043.1563,243.0469 2043.75,242.7813 Q2044.3438,242.5 2044.9688,241.9219 L2044.9688,244.6406 Z " fill="#000000"/><text fill="#000000" font-family="sans-serif" font-size="14" lengthAdjust="spacing" textLength="58.249" x="2056" y="243.8467">Sampler</text><line style="stroke:#181818;stroke-width:0.5;" x1="2028" x2="2116.249" y1="255" y2="255"/><line style="stroke:#181818;stroke-width:0.5;" x1="2028" x2="2116.249" y1="263" y2="263"/></g><!--class Actuator--><g class="entity" data-qualified-name="Actuator" data-source-line="11" id="ent0027"><rect fill="#F1F1F1" height="48" rx="2.5" ry="2.5" style="stroke:#181818;stroke-width:0.5;" width="92.0264" x="2152" y="223"/><ellipse cx="2167" cy="239" fill="#ADD1B2" rx="11" ry="11" style="stroke:#181818;stroke-width:1;"/><path d="M2169.9688,244.6406 Q2169.3906,244.9375 2168.75,245.0781 Q2168.1094,245.2344 2167.4063,245.2344 Q2164.9063,245.2344 2163.5781,243.5938 Q2162.2656,241.9375 2162.2656,238.8125 Q2162.2656,235.6875 2163.5781,234.0313 Q2164.9063,232.375 2167.4063,232.375 Q2168.1094,232.375 2168.75,232.5313 Q2169.4063,232.6875 2169.9688,232.9844 L2169.9688,235.7031 Q2169.3438,235.125 2168.75,234.8594 Q2168.1563,234.5781 2167.5313,234.5781 Q2166.1875,234.5781 2165.5,235.6563 Q2164.8125,236.7188 2164.8125,238.8125 Q2164.8125,240.9063 2165.5,241.9844 Q2166.1875,243.0469 2167.5313,243.0469 Q2168.1563,243.0469 2168.75,242.7813 Q2169.3438,242.5 2169.9688,241.9219 L2169.9688,244.6406 Z " fill="#000000"/><text fill="#000000" font-family="sans-serif" font-size="14" lengthAdjust="spacing" textLength="60.0264" x="2181" y="243.8467">Actuator</text><line style="stroke:#181818;stroke-width:0.5;" x1="2153" x2="2243.0264" y1="255" y2="255"/><line style="stroke:#181818;stroke-width:0.5;" x1="2153" x2="2243.0264" y1="263" y2="263"/></g><!--class Execution--><g class="entity" data-qualified-name="Execution" data-source-line="13" id="ent0030"><rect fill="#F1F1F1" height="48" rx="2.5" ry="2.5" style="stroke:#181818;stroke-width:0.5;" width="101.1318" x="2407.5" y="7"/><ellipse cx="2422.5" cy="23" fill="#ADD1B2" rx="11" ry="11" style="stroke:#181818;stroke-width:1;"/><path d="M2425.4688,28.6406 Q2424.8906,28.9375 2424.25,29.0781 Q2423.6094,29.2344 2422.9063,29.2344 Q2420.4063,29.2344 2419.0781,27.5938 Q2417.7656,25.9375 2417.7656,22.8125 Q2417.7656,19.6875 2419.0781,18.0313 Q2420.4063,16.375 2422.9063,16.375 Q2423.6094,16.375 2424.25,16.5313 Q2424.9063,16.6875 2425.4688,16.9844 L2425.4688,19.7031 Q2424.8438,19.125 2424.25,18.8594 Q2423.6563,18.5781 2423.0313,18.5781 Q2421.6875,18.5781 2421,19.6563 Q2420.3125,20.7188 2420.3125,22.8125 Q2420.3125,24.9063 2421,25.9844 Q2421.6875,27.0469 2423.0313,27.0469 Q2423.6563,27.0469 2424.25,26.7813 Q2424.8438,26.5 2425.4688,25.9219 L2425.4688,28.6406 Z " fill="#000000"/><text fill="#000000" font-family="sans-serif" font-size="14" lengthAdjust="spacing" textLength="69.1318" x="2436.5" y="27.8467">Execution</text><line style="stroke:#181818;stroke-width:0.5;" x1="2408.5" x2="2507.6318" y1="39" y2="39"/><line style="stroke:#181818;stroke-width:0.5;" x1="2408.5" x2="2507.6318" y1="47" y2="47"/></g><!--class Sampling--><g class="entity" data-qualified-name="Sampling" data-source-line="13" id="ent0031"><rect fill="#F1F1F1" height="48" rx="2.5" ry="2.5" style="stroke:#181818;stroke-width:0.5;" width="97.5293" x="2275" y="115"/><ellipse cx="2290" cy="131" fill="#ADD1B2" rx="11" ry="11" style="stroke:#181818;stroke-width:1;"/><path d="M2292.9688,136.6406 Q2292.3906,136.9375 2291.75,137.0781 Q2291.1094,137.2344 2290.4063,137.2344 Q2287.9063,137.2344 2286.5781,135.5938 Q2285.2656,133.9375 2285.2656,130.8125 Q2285.2656,127.6875 2286.5781,126.0313 Q2287.9063,124.375 2290.4063,124.375 Q2291.1094,124.375 2291.75,124.5313 Q2292.4063,124.6875 2292.9688,124.9844 L2292.9688,127.7031 Q2292.3438,127.125 2291.75,126.8594 Q2291.1563,126.5781 2290.5313,126.5781 Q2289.1875,126.5781 2288.5,127.6563 Q2287.8125,128.7188 2287.8125,130.8125 Q2287.8125,132.9063 2288.5,133.9844 Q2289.1875,135.0469 2290.5313,135.0469 Q2291.1563,135.0469 2291.75,134.7813 Q2292.3438,134.5 2292.9688,133.9219 L2292.9688,136.6406 Z " fill="#000000"/><text fill="#000000" font-family="sans-serif" font-size="14" lengthAdjust="spacing" textLength="65.5293" x="2304" y="135.8467">Sampling</text><line style="stroke:#181818;stroke-width:0.5;" x1="2276" x2="2371.5293" y1="147" y2="147"/><line style="stroke:#181818;stroke-width:0.5;" x1="2276" x2="2371.5293" y1="155" y2="155"/></g><!--class ExecutionCollection--><g class="entity" data-qualified-name="ExecutionCollection" data-source-line="14" id="ent0033"><rect fill="#F1F1F1" height="48" rx="2.5" ry="2.5" style="stroke:#181818;stroke-width:0.5;" width="170.3799" x="2895" y="7"/><ellipse cx="2910" cy="23" fill="#ADD1B2" rx="11" ry="11" style="stroke:#181818;stroke-width:1;"/><path d="M2912.9688,28.6406 Q2912.3906,28.9375 2911.75,29.0781 Q2911.1094,29.2344 2910.4063,29.2344 Q2907.9063,29.2344 2906.5781,27.5938 Q2905.2656,25.9375 2905.2656,22.8125 Q2905.2656,19.6875 2906.5781,18.0313 Q2907.9063,16.375 2910.4063,16.375 Q2911.1094,16.375 2911.75,16.5313 Q2912.4063,16.6875 2912.9688,16.9844 L2912.9688,19.7031 Q2912.3438,19.125 2911.75,18.8594 Q2911.1563,18.5781 2910.5313,18.5781 Q2909.1875,18.5781 2908.5,19.6563 Q2907.8125,20.7188 2907.8125,22.8125 Q2907.8125,24.9063 2908.5,25.9844 Q2909.1875,27.0469 2910.5313,27.0469 Q2911.1563,27.0469 2911.75,26.7813 Q2912.3438,26.5 2912.9688,25.9219 L2912.9688,28.6406 Z " fill="#000000"/><text fill="#000000" font-family="sans-serif" font-size="14" lengthAdjust="spacing" textLength="138.3799" x="2924" y="27.8467">ExecutionCollection</text><line style="stroke:#181818;stroke-width:0.5;" x1="2896" x2="3064.3799" y1="39" y2="39"/><line style="stroke:#181818;stroke-width:0.5;" x1="2896" x2="3064.3799" y1="47" y2="47"/></g><!--class SamplingCollection--><g class="entity" data-qualified-name="SamplingCollection" data-source-line="14" id="ent0034"><rect fill="#F1F1F1" height="48" rx="2.5" ry="2.5" style="stroke:#181818;stroke-width:0.5;" width="166.7773" x="2694.5" y="115"/><ellipse cx="2709.5" cy="131" fill="#ADD1B2" rx="11" ry="11" style="stroke:#181818;stroke-width:1;"/><path d="M2712.4688,136.6406 Q2711.8906,136.9375 2711.25,137.0781 Q2710.6094,137.2344 2709.9063,137.2344 Q2707.4063,137.2344 2706.0781,135.5938 Q2704.7656,133.9375 2704.7656,130.8125 Q2704.7656,127.6875 2706.0781,126.0313 Q2707.4063,124.375 2709.9063,124.375 Q2710.6094,124.375 2711.25,124.5313 Q2711.9063,124.6875 2712.4688,124.9844 L2712.4688,127.7031 Q2711.8438,127.125 2711.25,126.8594 Q2710.6563,126.5781 2710.0313,126.5781 Q2708.6875,126.5781 2708,127.6563 Q2707.3125,128.7188 2707.3125,130.8125 Q2707.3125,132.9063 2708,133.9844 Q2708.6875,135.0469 2710.0313,135.0469 Q2710.6563,135.0469 2711.25,134.7813 Q2711.8438,134.5 2712.4688,133.9219 L2712.4688,136.6406 Z " fill="#000000"/><text fill="#000000" font-family="sans-serif" font-size="14" lengthAdjust="spacing" textLength="134.7773" x="2723.5" y="135.8467">SamplingCollection</text><line style="stroke:#181818;stroke-width:0.5;" x1="2695.5" x2="2860.2773" y1="147" y2="147"/><line style="stroke:#181818;stroke-width:0.5;" x1="2695.5" x2="2860.2773" y1="155" y2="155"/></g><!--class Actuation--><g class="entity" data-qualified-name="Actuation" data-source-line="15" id="ent0036"><rect fill="#F1F1F1" height="48" rx="2.5" ry="2.5" style="stroke:#181818;stroke-width:0.5;" width="99.0332" x="2408.5" y="115"/><ellipse cx="2423.5" cy="131" fill="#ADD1B2" rx="11" ry="11" style="stroke:#181818;stroke-width:1;"/><path d="M2426.4688,136.6406 Q2425.8906,136.9375 2425.25,137.0781 Q2424.6094,137.2344 2423.9063,137.2344 Q2421.4063,137.2344 2420.0781,135.5938 Q2418.7656,133.9375 2418.7656,130.8125 Q2418.7656,127.6875 2420.0781,126.0313 Q2421.4063,124.375 2423.9063,124.375 Q2424.6094,124.375 2425.25,124.5313 Q2425.9063,124.6875 2426.4688,124.9844 L2426.4688,127.7031 Q2425.8438,127.125 2425.25,126.8594 Q2424.6563,126.5781 2424.0313,126.5781 Q2422.6875,126.5781 2422,127.6563 Q2421.3125,128.7188 2421.3125,130.8125 Q2421.3125,132.9063 2422,133.9844 Q2422.6875,135.0469 2424.0313,135.0469 Q2424.6563,135.0469 2425.25,134.7813 Q2425.8438,134.5 2426.4688,133.9219 L2426.4688,136.6406 Z " fill="#000000"/><text fill="#000000" font-family="sans-serif" font-size="14" lengthAdjust="spacing" textLength="67.0332" x="2437.5" y="135.8467">Actuation</text><line style="stroke:#181818;stroke-width:0.5;" x1="2409.5" x2="2506.5332" y1="147" y2="147"/><line style="stroke:#181818;stroke-width:0.5;" x1="2409.5" x2="2506.5332" y1="155" y2="155"/></g><!--class Sensor--><g class="entity" data-qualified-name="Sensor" data-source-line="16" id="ent0038"><rect fill="#F1F1F1" height="48" rx="2.5" ry="2.5" style="stroke:#181818;stroke-width:0.5;" width="79.9883" x="2279" y="223"/><ellipse cx="2294" cy="239" fill="#ADD1B2" rx="11" ry="11" style="stroke:#181818;stroke-width:1;"/><path d="M2296.9688,244.6406 Q2296.3906,244.9375 2295.75,245.0781 Q2295.1094,245.2344 2294.4063,245.2344 Q2291.9063,245.2344 2290.5781,243.5938 Q2289.2656,241.9375 2289.2656,238.8125 Q2289.2656,235.6875 2290.5781,234.0313 Q2291.9063,232.375 2294.4063,232.375 Q2295.1094,232.375 2295.75,232.5313 Q2296.4063,232.6875 2296.9688,232.9844 L2296.9688,235.7031 Q2296.3438,235.125 2295.75,234.8594 Q2295.1563,234.5781 2294.5313,234.5781 Q2293.1875,234.5781 2292.5,235.6563 Q2291.8125,236.7188 2291.8125,238.8125 Q2291.8125,240.9063 2292.5,241.9844 Q2293.1875,243.0469 2294.5313,243.0469 Q2295.1563,243.0469 2295.75,242.7813 Q2296.3438,242.5 2296.9688,241.9219 L2296.9688,244.6406 Z " fill="#000000"/><text fill="#000000" font-family="sans-serif" font-size="14" lengthAdjust="spacing" textLength="47.9883" x="2308" y="243.8467">Sensor</text><line style="stroke:#181818;stroke-width:0.5;" x1="2280" x2="2357.9883" y1="255" y2="255"/><line style="stroke:#181818;stroke-width:0.5;" x1="2280" x2="2357.9883" y1="263" y2="263"/></g><!--class ActuationCollection--><g class="entity" data-qualified-name="ActuationCollection" data-source-line="17" id="ent0040"><rect fill="#F1F1F1" height="48" rx="2.5" ry="2.5" style="stroke:#181818;stroke-width:0.5;" width="168.2813" x="2896" y="115"/><ellipse cx="2911" cy="131" fill="#ADD1B2" rx="11" ry="11" style="stroke:#181818;stroke-width:1;"/><path d="M2913.9688,136.6406 Q2913.3906,136.9375 2912.75,137.0781 Q2912.1094,137.2344 2911.4063,137.2344 Q2908.9063,137.2344 2907.5781,135.5938 Q2906.2656,133.9375 2906.2656,130.8125 Q2906.2656,127.6875 2907.5781,126.0313 Q2908.9063,124.375 2911.4063,124.375 Q2912.1094,124.375 2912.75,124.5313 Q2913.4063,124.6875 2913.9688,124.9844 L2913.9688,127.7031 Q2913.3438,127.125 2912.75,126.8594 Q2912.1563,126.5781 2911.5313,126.5781 Q2910.1875,126.5781 2909.5,127.6563 Q2908.8125,128.7188 2908.8125,130.8125 Q2908.8125,132.9063 2909.5,133.9844 Q2910.1875,135.0469 2911.5313,135.0469 Q2912.1563,135.0469 2912.75,134.7813 Q2913.3438,134.5 2913.9688,133.9219 L2913.9688,136.6406 Z " fill="#000000"/><text fill="#000000" font-family="sans-serif" font-size="14" lengthAdjust="spacing" textLength="136.2813" x="2925" y="135.8467">ActuationCollection</text><line style="stroke:#181818;stroke-width:0.5;" x1="2897" x2="3063.2813" y1="147" y2="147"/><line style="stroke:#181818;stroke-width:0.5;" x1="2897" x2="3063.2813" y1="155" y2="155"/></g><!--class ObservationCollection--><g class="entity" data-qualified-name="ObservationCollection" data-source-line="18" id="ent0042"><rect fill="#F1F1F1" height="48" rx="2.5" ry="2.5" style="stroke:#181818;stroke-width:0.5;" width="186.499" x="3099" y="115"/><ellipse cx="3114" cy="131" fill="#ADD1B2" rx="11" ry="11" style="stroke:#181818;stroke-width:1;"/><path d="M3116.9688,136.6406 Q3116.3906,136.9375 3115.75,137.0781 Q3115.1094,137.2344 3114.4063,137.2344 Q3111.9063,137.2344 3110.5781,135.5938 Q3109.2656,133.9375 3109.2656,130.8125 Q3109.2656,127.6875 3110.5781,126.0313 Q3111.9063,124.375 3114.4063,124.375 Q3115.1094,124.375 3115.75,124.5313 Q3116.4063,124.6875 3116.9688,124.9844 L3116.9688,127.7031 Q3116.3438,127.125 3115.75,126.8594 Q3115.1563,126.5781 3114.5313,126.5781 Q3113.1875,126.5781 3112.5,127.6563 Q3111.8125,128.7188 3111.8125,130.8125 Q3111.8125,132.9063 3112.5,133.9844 Q3113.1875,135.0469 3114.5313,135.0469 Q3115.1563,135.0469 3115.75,134.7813 Q3116.3438,134.5 3116.9688,133.9219 L3116.9688,136.6406 Z " fill="#000000"/><text fill="#000000" font-family="sans-serif" font-size="14" lengthAdjust="spacing" textLength="154.499" x="3128" y="135.8467">ObservationCollection</text><line style="stroke:#181818;stroke-width:0.5;" x1="3100" x2="3284.499" y1="147" y2="147"/><line style="stroke:#181818;stroke-width:0.5;" x1="3100" x2="3284.499" y1="155" y2="155"/></g><!--class Observation--><g class="entity" data-qualified-name="Observation" data-source-line="19" id="ent0044"><rect fill="#F1F1F1" height="48" rx="2.5" ry="2.5" style="stroke:#181818;stroke-width:0.5;" width="117.251" x="2542.5" y="115"/><ellipse cx="2557.5" cy="131" fill="#ADD1B2" rx="11" ry="11" style="stroke:#181818;stroke-width:1;"/><path d="M2560.4688,136.6406 Q2559.8906,136.9375 2559.25,137.0781 Q2558.6094,137.2344 2557.9063,137.2344 Q2555.4063,137.2344 2554.0781,135.5938 Q2552.7656,133.9375 2552.7656,130.8125 Q2552.7656,127.6875 2554.0781,126.0313 Q2555.4063,124.375 2557.9063,124.375 Q2558.6094,124.375 2559.25,124.5313 Q2559.9063,124.6875 2560.4688,124.9844 L2560.4688,127.7031 Q2559.8438,127.125 2559.25,126.8594 Q2558.6563,126.5781 2558.0313,126.5781 Q2556.6875,126.5781 2556,127.6563 Q2555.3125,128.7188 2555.3125,130.8125 Q2555.3125,132.9063 2556,133.9844 Q2556.6875,135.0469 2558.0313,135.0469 Q2558.6563,135.0469 2559.25,134.7813 Q2559.8438,134.5 2560.4688,133.9219 L2560.4688,136.6406 Z " fill="#000000"/><text fill="#000000" font-family="sans-serif" font-size="14" lengthAdjust="spacing" textLength="85.251" x="2571.5" y="135.8467">Observation</text><line style="stroke:#181818;stroke-width:0.5;" x1="2543.5" x2="2658.751" y1="147" y2="147"/><line style="stroke:#181818;stroke-width:0.5;" x1="2543.5" x2="2658.751" y1="155" y2="155"/></g><!--class Stimulus--><g class="entity" data-qualified-name="Stimulus" data-source-line="20" id="ent0046"><rect fill="#F1F1F1" height="48" rx="2.5" ry="2.5" style="stroke:#181818;stroke-width:0.5;" width="92.833" x="37.5" y="7"/><ellipse cx="52.5" cy="23" fill="#ADD1B2" rx="11" ry="11" style="stroke:#181818;stroke-width:1;"/><path d="M55.4688,28.6406 Q54.8906,28.9375 54.25,29.0781 Q53.6094,29.2344 52.9063,29.2344 Q50.4063,29.2344 49.0781,27.5938 Q47.7656,25.9375 47.7656,22.8125 Q47.7656,19.6875 49.0781,18.0313 Q50.4063,16.375 52.9063,16.375 Q53.6094,16.375 54.25,16.5313 Q54.9063,16.6875 55.4688,16.9844 L55.4688,19.7031 Q54.8438,19.125 54.25,18.8594 Q53.6563,18.5781 53.0313,18.5781 Q51.6875,18.5781 51,19.6563 Q50.3125,20.7188 50.3125,22.8125 Q50.3125,24.9063 51,25.9844 Q51.6875,27.0469 53.0313,27.0469 Q53.6563,27.0469 54.25,26.7813 Q54.8438,26.5 55.4688,25.9219 L55.4688,28.6406 Z " fill="#000000"/><text fill="#000000" font-family="sans-serif" font-size="14" lengthAdjust="spacing" textLength="60.833" x="66.5" y="27.8467">Stimulus</text><line style="stroke:#181818;stroke-width:0.5;" x1="38.5" x2="129.333" y1="39" y2="39"/><line style="stroke:#181818;stroke-width:0.5;" x1="38.5" x2="129.333" y1="47" y2="47"/></g><!--class Result--><g class="entity" data-qualified-name="Result" data-source-line="22" id="ent0047"><rect fill="#F1F1F1" height="48" rx="2.5" ry="2.5" style="stroke:#181818;stroke-width:0.5;" width="75.8867" x="166" y="7"/><ellipse cx="181" cy="23" fill="#ADD1B2" rx="11" ry="11" style="stroke:#181818;stroke-width:1;"/><path d="M183.9688,28.6406 Q183.3906,28.9375 182.75,29.0781 Q182.1094,29.2344 181.4063,29.2344 Q178.9063,29.2344 177.5781,27.5938 Q176.2656,25.9375 176.2656,22.8125 Q176.2656,19.6875 177.5781,18.0313 Q178.9063,16.375 181.4063,16.375 Q182.1094,16.375 182.75,16.5313 Q183.4063,16.6875 183.9688,16.9844 L183.9688,19.7031 Q183.3438,19.125 182.75,18.8594 Q182.1563,18.5781 181.5313,18.5781 Q180.1875,18.5781 179.5,19.6563 Q178.8125,20.7188 178.8125,22.8125 Q178.8125,24.9063 179.5,25.9844 Q180.1875,27.0469 181.5313,27.0469 Q182.1563,27.0469 182.75,26.7813 Q183.3438,26.5 183.9688,25.9219 L183.9688,28.6406 Z " fill="#000000"/><text fill="#000000" font-family="sans-serif" font-size="14" lengthAdjust="spacing" textLength="43.8867" x="195" y="27.8467">Result</text><line style="stroke:#181818;stroke-width:0.5;" x1="167" x2="240.8867" y1="39" y2="39"/><line style="stroke:#181818;stroke-width:0.5;" x1="167" x2="240.8867" y1="47" y2="47"/></g><!--class FeatureOfInterest--><g class="entity" data-qualified-name="FeatureOfInterest" data-source-line="23" id="ent0048"><rect fill="#F1F1F1" height="48" rx="2.5" ry="2.5" style="stroke:#181818;stroke-width:0.5;" width="156.1816" x="277" y="7"/><ellipse cx="292" cy="23" fill="#ADD1B2" rx="11" ry="11" style="stroke:#181818;stroke-width:1;"/><path d="M294.9688,28.6406 Q294.3906,28.9375 293.75,29.0781 Q293.1094,29.2344 292.4063,29.2344 Q289.9063,29.2344 288.5781,27.5938 Q287.2656,25.9375 287.2656,22.8125 Q287.2656,19.6875 288.5781,18.0313 Q289.9063,16.375 292.4063,16.375 Q293.1094,16.375 293.75,16.5313 Q294.4063,16.6875 294.9688,16.9844 L294.9688,19.7031 Q294.3438,19.125 293.75,18.8594 Q293.1563,18.5781 292.5313,18.5781 Q291.1875,18.5781 290.5,19.6563 Q289.8125,20.7188 289.8125,22.8125 Q289.8125,24.9063 290.5,25.9844 Q291.1875,27.0469 292.5313,27.0469 Q293.1563,27.0469 293.75,26.7813 Q294.3438,26.5 294.9688,25.9219 L294.9688,28.6406 Z " fill="#000000"/><text fill="#000000" font-family="sans-serif" font-size="14" lengthAdjust="spacing" textLength="124.1816" x="306" y="27.8467">FeatureOfInterest</text><line style="stroke:#181818;stroke-width:0.5;" x1="278" x2="432.1816" y1="39" y2="39"/><line style="stroke:#181818;stroke-width:0.5;" x1="278" x2="432.1816" y1="47" y2="47"/></g><!--class SampleCollection--><g class="entity" data-qualified-name="SampleCollection" data-source-line="24" id="ent0049"><rect fill="#F1F1F1" height="48" rx="2.5" ry="2.5" style="stroke:#181818;stroke-width:0.5;" width="153.7412" x="7" y="115"/><ellipse cx="22" cy="131" fill="#ADD1B2" rx="11" ry="11" style="stroke:#181818;stroke-width:1;"/><path d="M24.9688,136.6406 Q24.3906,136.9375 23.75,137.0781 Q23.1094,137.2344 22.4063,137.2344 Q19.9063,137.2344 18.5781,135.5938 Q17.2656,133.9375 17.2656,130.8125 Q17.2656,127.6875 18.5781,126.0313 Q19.9063,124.375 22.4063,124.375 Q23.1094,124.375 23.75,124.5313 Q24.4063,124.6875 24.9688,124.9844 L24.9688,127.7031 Q24.3438,127.125 23.75,126.8594 Q23.1563,126.5781 22.5313,126.5781 Q21.1875,126.5781 20.5,127.6563 Q19.8125,128.7188 19.8125,130.8125 Q19.8125,132.9063 20.5,133.9844 Q21.1875,135.0469 22.5313,135.0469 Q23.1563,135.0469 23.75,134.7813 Q24.3438,134.5 24.9688,133.9219 L24.9688,136.6406 Z " fill="#000000"/><text fill="#000000" font-family="sans-serif" font-size="14" lengthAdjust="spacing" textLength="121.7412" x="36" y="135.8467">SampleCollection</text><line style="stroke:#181818;stroke-width:0.5;" x1="8" x2="159.7412" y1="147" y2="147"/><line style="stroke:#181818;stroke-width:0.5;" x1="8" x2="159.7412" y1="155" y2="155"/></g><!--class Deployment--><g class="entity" data-qualified-name="Deployment" data-source-line="25" id="ent0050"><rect fill="#F1F1F1" height="48" rx="2.5" ry="2.5" style="stroke:#181818;stroke-width:0.5;" width="117.6338" x="196" y="115"/><ellipse cx="211" cy="131" fill="#ADD1B2" rx="11" ry="11" style="stroke:#181818;stroke-width:1;"/><path d="M213.9688,136.6406 Q213.3906,136.9375 212.75,137.0781 Q212.1094,137.2344 211.4063,137.2344 Q208.9063,137.2344 207.5781,135.5938 Q206.2656,133.9375 206.2656,130.8125 Q206.2656,127.6875 207.5781,126.0313 Q208.9063,124.375 211.4063,124.375 Q212.1094,124.375 212.75,124.5313 Q213.4063,124.6875 213.9688,124.9844 L213.9688,127.7031 Q213.3438,127.125 212.75,126.8594 Q212.1563,126.5781 211.5313,126.5781 Q210.1875,126.5781 209.5,127.6563 Q208.8125,128.7188 208.8125,130.8125 Q208.8125,132.9063 209.5,133.9844 Q210.1875,135.0469 211.5313,135.0469 Q212.1563,135.0469 212.75,134.7813 Q213.3438,134.5 213.9688,133.9219 L213.9688,136.6406 Z " fill="#000000"/><text fill="#000000" font-family="sans-serif" font-size="14" lengthAdjust="spacing" textLength="85.6338" x="225" y="135.8467">Deployment</text><line style="stroke:#181818;stroke-width:0.5;" x1="197" x2="312.6338" y1="147" y2="147"/><line style="stroke:#181818;stroke-width:0.5;" x1="197" x2="312.6338" y1="155" y2="155"/></g><!--class Output--><g class="entity" data-qualified-name="Output" data-source-line="26" id="ent0051"><rect fill="#F1F1F1" height="48" rx="2.5" ry="2.5" style="stroke:#181818;stroke-width:0.5;" width="80.6309" x="349.5" y="115"/><ellipse cx="364.5" cy="131" fill="#ADD1B2" rx="11" ry="11" style="stroke:#181818;stroke-width:1;"/><path d="M367.4688,136.6406 Q366.8906,136.9375 366.25,137.0781 Q365.6094,137.2344 364.9063,137.2344 Q362.4063,137.2344 361.0781,135.5938 Q359.7656,133.9375 359.7656,130.8125 Q359.7656,127.6875 361.0781,126.0313 Q362.4063,124.375 364.9063,124.375 Q365.6094,124.375 366.25,124.5313 Q366.9063,124.6875 367.4688,124.9844 L367.4688,127.7031 Q366.8438,127.125 366.25,126.8594 Q365.6563,126.5781 365.0313,126.5781 Q363.6875,126.5781 363,127.6563 Q362.3125,128.7188 362.3125,130.8125 Q362.3125,132.9063 363,133.9844 Q363.6875,135.0469 365.0313,135.0469 Q365.6563,135.0469 366.25,134.7813 Q366.8438,134.5 367.4688,133.9219 L367.4688,136.6406 Z " fill="#000000"/><text fill="#000000" font-family="sans-serif" font-size="14" lengthAdjust="spacing" textLength="48.6309" x="378.5" y="135.8467">Output</text><line style="stroke:#181818;stroke-width:0.5;" x1="350.5" x2="429.1309" y1="147" y2="147"/><line style="stroke:#181818;stroke-width:0.5;" x1="350.5" x2="429.1309" y1="155" y2="155"/></g><!--class Input--><g class="entity" data-qualified-name="Input" data-source-line="30" id="ent0052"><rect fill="#F1F1F1" height="48" rx="2.5" ry="2.5" style="stroke:#181818;stroke-width:0.5;" width="68.251" x="50" y="223"/><ellipse cx="65" cy="239" fill="#ADD1B2" rx="11" ry="11" style="stroke:#181818;stroke-width:1;"/><path d="M67.9688,244.6406 Q67.3906,244.9375 66.75,245.0781 Q66.1094,245.2344 65.4063,245.2344 Q62.9063,245.2344 61.5781,243.5938 Q60.2656,241.9375 60.2656,238.8125 Q60.2656,235.6875 61.5781,234.0313 Q62.9063,232.375 65.4063,232.375 Q66.1094,232.375 66.75,232.5313 Q67.4063,232.6875 67.9688,232.9844 L67.9688,235.7031 Q67.3438,235.125 66.75,234.8594 Q66.1563,234.5781 65.5313,234.5781 Q64.1875,234.5781 63.5,235.6563 Q62.8125,236.7188 62.8125,238.8125 Q62.8125,240.9063 63.5,241.9844 Q64.1875,243.0469 65.5313,243.0469 Q66.1563,243.0469 66.75,242.7813 Q67.3438,242.5 67.9688,241.9219 L67.9688,244.6406 Z " fill="#000000"/><text fill="#000000" font-family="sans-serif" font-size="14" lengthAdjust="spacing" textLength="36.251" x="79" y="243.8467">Input</text><line style="stroke:#181818;stroke-width:0.5;" x1="51" x2="117.251" y1="255" y2="255"/><line style="stroke:#181818;stroke-width:0.5;" x1="51" x2="117.251" y1="263" y2="263"/></g><!--reverse link Property to ActuatableProperty--><g class="link" data-entity-1="ent0002" data-entity-2="ent0003" data-link-type="extension" data-source-line="1" id="lnk4"><path codeLine="1" d="M616.3905,67.9716 C599.4005,85.6316 588.51,96.94 571.44,114.68" fill="none" id="Property-backto-ActuatableProperty" style="stroke:#181818;stroke-width:1;"/><polygon fill="none" points="628.87,55,612.0667,63.8118,620.7144,72.1314,628.87,55" style="stroke:#181818;stroke-width:1;"/></g><!--reverse link Sample to MaterialSample--><g class="link" data-entity-1="ent0005" data-entity-2="ent0006" data-link-type="extension" data-source-line="2" id="lnk7"><path codeLine="2" d="M1065.3567,64.4445 C1036.6067,82.1645 1012.35,97.11 983.55,114.86" fill="none" id="Sample-backto-MaterialSample" style="stroke:#181818;stroke-width:1;"/><polygon fill="none" points="1080.68,55,1062.2086,59.3367,1068.5049,69.5522,1080.68,55" style="stroke:#181818;stroke-width:1;"/></g><!--reverse link Sample to SpatialSample--><g class="link" data-entity-1="ent0005" data-entity-2="ent0008" data-link-type="extension" data-source-line="3" id="lnk9"><path codeLine="3" d="M1118,73 C1118,90.66 1118,96.94 1118,114.68" fill="none" id="Sample-backto-SpatialSample" style="stroke:#181818;stroke-width:1;"/><polygon fill="none" points="1118,55,1112,73,1124,73,1118,55" style="stroke:#181818;stroke-width:1;"/></g><!--reverse link Sample to StatisticalSample--><g class="link" data-entity-1="ent0005" data-entity-2="ent0010" data-link-type="extension" data-source-line="4" id="lnk11"><path codeLine="4" d="M1172.3276,64.1725 C1202.2476,81.8925 1227.95,97.11 1257.93,114.86" fill="none" id="Sample-backto-StatisticalSample" style="stroke:#181818;stroke-width:1;"/><polygon fill="none" points="1156.84,55,1169.2701,69.335,1175.3851,59.0099,1156.84,55" style="stroke:#181818;stroke-width:1;"/></g><!--reverse link Property to ObservableProperty--><g class="link" data-entity-1="ent0002" data-entity-2="ent0012" data-link-type="extension" data-source-line="5" id="lnk13"><path codeLine="5" d="M685.8939,67.9094 C703.0539,85.5694 714.1,96.94 731.34,114.68" fill="none" id="Property-backto-ObservableProperty" style="stroke:#181818;stroke-width:1;"/><polygon fill="none" points="673.35,55,681.5907,72.0906,690.197,63.7281,673.35,55" style="stroke:#181818;stroke-width:1;"/></g><!--reverse link Procedure to ActuatingProcedure--><g class="link" data-entity-1="ent0014" data-entity-2="ent0015" data-link-type="extension" data-source-line="6" id="lnk16"><path codeLine="6" d="M1641.8326,63.1732 C1607.0626,80.8932 1575.24,97.11 1540.4,114.86" fill="none" id="Procedure-backto-ActuatingProcedure" style="stroke:#181818;stroke-width:1;"/><polygon fill="none" points="1657.87,55,1639.1082,57.8274,1644.557,68.519,1657.87,55" style="stroke:#181818;stroke-width:1;"/></g><!--reverse link Procedure to ObservingProcedure--><g class="link" data-entity-1="ent0014" data-entity-2="ent0017" data-link-type="extension" data-source-line="7" id="lnk18"><path codeLine="7" d="M1703,73 C1703,90.66 1703,96.94 1703,114.68" fill="none" id="Procedure-backto-ObservingProcedure" style="stroke:#181818;stroke-width:1;"/><polygon fill="none" points="1703,55,1697,73,1709,73,1703,55" style="stroke:#181818;stroke-width:1;"/></g><!--reverse link Procedure to SamplingProcedure--><g class="link" data-entity-1="ent0014" data-entity-2="ent0019" data-link-type="extension" data-source-line="8" id="lnk20"><path codeLine="8" d="M1763.9411,63.205 C1798.5411,80.925 1830.15,97.11 1864.81,114.86" fill="none" id="Procedure-backto-SamplingProcedure" style="stroke:#181818;stroke-width:1;"/><polygon fill="none" points="1747.92,55,1761.2061,68.5454,1766.6762,57.8647,1747.92,55" style="stroke:#181818;stroke-width:1;"/></g><!--reverse link Asset to Platform--><g class="link" data-entity-1="ent0021" data-entity-2="ent0022" data-link-type="extension" data-source-line="9" id="lnk23"><path codeLine="9" d="M2113.7839,70.6022 C2103.6239,88.2622 2098.63,96.94 2088.42,114.68" fill="none" id="Asset-backto-Platform" style="stroke:#181818;stroke-width:1;"/><polygon fill="none" points="2122.76,55,2108.5831,67.6102,2118.9846,73.5943,2122.76,55" style="stroke:#181818;stroke-width:1;"/></g><!--reverse link System to Sampler--><g class="link" data-entity-1="ent0024" data-entity-2="ent0025" data-link-type="extension" data-source-line="10" id="lnk26"><path codeLine="10" d="M2156.8865,174.5884 C2135.8965,192.2484 2120.81,204.94 2099.72,222.68" fill="none" id="System-backto-Sampler" style="stroke:#181818;stroke-width:1;"/><polygon fill="none" points="2170.66,163,2153.0237,169.9972,2160.7493,179.1795,2170.66,163" style="stroke:#181818;stroke-width:1;"/></g><!--reverse link System to Actuator--><g class="link" data-entity-1="ent0024" data-entity-2="ent0027" data-link-type="extension" data-source-line="11" id="lnk28"><path codeLine="11" d="M2198,181 C2198,198.66 2198,204.94 2198,222.68" fill="none" id="System-backto-Actuator" style="stroke:#181818;stroke-width:1;"/><polygon fill="none" points="2198,163,2192,181,2204,181,2198,163" style="stroke:#181818;stroke-width:1;"/></g><!--reverse link Asset to System--><g class="link" data-entity-1="ent0021" data-entity-2="ent0024" data-link-type="extension" data-source-line="12" id="lnk29"><path codeLine="12" d="M2158.5383,70.5372 C2168.8683,88.1972 2173.98,96.94 2184.36,114.68" fill="none" id="Asset-backto-System" style="stroke:#181818;stroke-width:1;"/><polygon fill="none" points="2149.45,55,2153.3592,73.5666,2163.7173,67.5077,2149.45,55" style="stroke:#181818;stroke-width:1;"/></g><!--reverse link Execution to Sampling--><g class="link" data-entity-1="ent0030" data-entity-2="ent0031" data-link-type="extension" data-source-line="13" id="lnk32"><path codeLine="13" d="M2414.8041,66.1688 C2392.4841,83.8288 2375.91,96.94 2353.48,114.68" fill="none" id="Execution-backto-Sampling" style="stroke:#181818;stroke-width:1;"/><polygon fill="none" points="2428.92,55,2411.0812,61.4635,2418.527,70.8741,2428.92,55" style="stroke:#181818;stroke-width:1;"/></g><!--reverse link ExecutionCollection to SamplingCollection--><g class="link" data-entity-1="ent0033" data-entity-2="ent0034" data-link-type="extension" data-source-line="14" id="lnk35"><path codeLine="14" d="M2920.231,63.3636 C2886.461,81.0836 2855.93,97.11 2822.09,114.86" fill="none" id="ExecutionCollection-backto-SamplingCollection" style="stroke:#181818;stroke-width:1;"/><polygon fill="none" points="2936.17,55,2917.4432,58.0506,2923.0189,68.6766,2936.17,55" style="stroke:#181818;stroke-width:1;"/></g><!--reverse link Execution to Actuation--><g class="link" data-entity-1="ent0030" data-entity-2="ent0036" data-link-type="extension" data-source-line="15" id="lnk37"><path codeLine="15" d="M2458,73 C2458,90.66 2458,96.94 2458,114.68" fill="none" id="Execution-backto-Actuation" style="stroke:#181818;stroke-width:1;"/><polygon fill="none" points="2458,55,2452,73,2464,73,2458,55" style="stroke:#181818;stroke-width:1;"/></g><!--reverse link System to Sensor--><g class="link" data-entity-1="ent0024" data-entity-2="ent0038" data-link-type="extension" data-source-line="16" id="lnk39"><path codeLine="16" d="M2237.7968,174.864 C2257.9468,192.524 2272.13,204.94 2292.38,222.68" fill="none" id="System-backto-Sensor" style="stroke:#181818;stroke-width:1;"/><polygon fill="none" points="2224.26,163,2233.8421,179.3763,2241.7515,170.3518,2224.26,163" style="stroke:#181818;stroke-width:1;"/></g><!--reverse link ExecutionCollection to ActuationCollection--><g class="link" data-entity-1="ent0033" data-entity-2="ent0040" data-link-type="extension" data-source-line="17" id="lnk41"><path codeLine="17" d="M2980,73 C2980,90.66 2980,96.94 2980,114.68" fill="none" id="ExecutionCollection-backto-ActuationCollection" style="stroke:#181818;stroke-width:1;"/><polygon fill="none" points="2980,55,2974,73,2986,73,2980,55" style="stroke:#181818;stroke-width:1;"/></g><!--reverse link ExecutionCollection to ObservationCollection--><g class="link" data-entity-1="ent0033" data-entity-2="ent0042" data-link-type="extension" data-source-line="18" id="lnk43"><path codeLine="18" d="M3042.0997,63.0498 C3077.5397,80.7698 3110.22,97.11 3145.72,114.86" fill="none" id="ExecutionCollection-backto-ObservationCollection" style="stroke:#181818;stroke-width:1;"/><polygon fill="none" points="3026,55,3039.4164,68.4164,3044.783,57.6833,3026,55" style="stroke:#181818;stroke-width:1;"/></g><!--reverse link Execution to Observation--><g class="link" data-entity-1="ent0030" data-entity-2="ent0044" data-link-type="extension" data-source-line="19" id="lnk45"><path codeLine="19" d="M2503.4895,65.7202 C2527.3095,83.3802 2545.61,96.94 2569.54,114.68" fill="none" id="Execution-backto-Observation" style="stroke:#181818;stroke-width:1;"/><polygon fill="none" points="2489.03,55,2499.9161,70.54,2507.0629,60.9004,2489.03,55" style="stroke:#181818;stroke-width:1;"/></g><?plantuml-src VL99RiCm3Bpx5Vb0Vj1Bq0N8eR1Hlu1Hc480jK2aWXheuok4jcCvSM_Yp90pejIb4379i7lvtUzt1oCP14w4tOWtFRX8gFGd22OBf5X5zH5aWv72i5WpirtbsPuOqxNoB0U3vvnmcShwxnbVAtJ6VugRTIKuCACesH789IJNz0CBkaK7fWhJ924jcvLltd_GPB71rtvt_3KGeNbKtF7rZF7UXQXoeUUIO7FktFLiy5eyBdzB_Y1g305pULFhCcMUIbs15b_8cMGiFX2aBBkz77tvEiWJhijTM2hyXf72uD1FkZPBpBB5pX_cQQgZBwr_?></g></svg>