<svg xmlns="http://www.w3.org/2000/svg" xmlns:xlink="http://www.w3.org/1999/xlink" contentStyleType="text/css" data-diagram-type="CLASS" height="286px" preserveAspectRatio="none" style="width:3311px;height:286px;background:#FFFFFF;" version="1.1" viewBox="0 0 3311 286" width="3311px" zoomAndPan="magnify"><?plantuml 1.2026.6?><defs/><g><!--class Property--><g class="entity" data-qualified-name="Property" data-source-line="1" id="ent0001"><rect fill="#F1F1F1" height="48" rx="2.5" ry="2.5" style="stroke:#181818;stroke-width:0.5;" width="91.7939" x="616" y="7"/><ellipse cx="631" cy="23" fill="#ADD1B2" rx="11" ry="11" style="stroke:#181818;stroke-width:1;"/><path d="M633.9688,28.6406 Q633.3906,28.9375 632.75,29.0781 Q632.1094,29.2344 631.4063,29.2344 Q628.9063,29.2344 627.5781,27.5938 Q626.2656,25.9375 626.2656,22.8125 Q626.2656,19.6875 627.5781,18.0313 Q628.9063,16.375 631.4063,16.375 Q632.1094,16.375 632.75,16.5313 Q633.4063,16.6875 633.9688,16.9844 L633.9688,19.7031 Q633.3438,19.125 632.75,18.8594 Q632.1563,18.5781 631.5313,18.5781 Q630.1875,18.5781 629.5,19.6563 Q628.8125,20.7188 628.8125,22.8125 Q628.8125,24.9063 629.5,25.9844 Q630.1875,27.0469 631.5313,27.0469 Q632.1563,27.0469 632.75,26.7813 Q633.3438,26.5 633.9688,25.9219 L633.9688,28.6406 Z " fill="#000000"/><text fill="#000000" font-family="sans-serif" font-size="14" lengthAdjust="spacing" textLength="59.7939" x="645" y="27.8467">Property</text><line style="stroke:#181818;stroke-width:0.5;" x1="617" x2="706.7939" y1="39" y2="39"/><line style="stroke:#181818;stroke-width:0.5;" x1="617" x2="706.7939" y1="47" y2="47"/></g><!--class ActuatableProperty--><g class="entity" data-qualified-name="ActuatableProperty" data-source-line="1" id="ent0002"><rect fill="#F1F1F1" height="48" rx="2.5" ry="2.5" style="stroke:#181818;stroke-width:0.5;" width="167.4678" x="476.5" y="115"/><ellipse cx="491.5" cy="131" fill="#ADD1B2" rx="11" ry="11" style="stroke:#181818;stroke-width:1;"/><path d="M494.4688,136.6406 Q493.8906,136.9375 493.25,137.0781 Q492.6094,137.2344 491.9063,137.2344 Q489.4063,137.2344 488.0781,135.5938 Q486.7656,133.9375 486.7656,130.8125 Q486.7656,127.6875 488.0781,126.0313 Q489.4063,124.375 491.9063,124.375 Q492.6094,124.375 493.25,124.5313 Q493.9063,124.6875 494.4688,124.9844 L494.4688,127.7031 Q493.8438,127.125 493.25,126.8594 Q492.6563,126.5781 492.0313,126.5781 Q490.6875,126.5781 490,127.6563 Q489.3125,128.7188 489.3125,130.8125 Q489.3125,132.9063 490,133.9844 Q490.6875,135.0469 492.0313,135.0469 Q492.6563,135.0469 493.25,134.7813 Q493.8438,134.5 494.4688,133.9219 L494.4688,136.6406 Z " fill="#000000"/><text fill="#000000" font-family="sans-serif" font-size="14" lengthAdjust="spacing" textLength="135.4678" x="505.5" y="135.8467">ActuatableProperty</text><line style="stroke:#181818;stroke-width:0.5;" x1="477.5" x2="642.9678" y1="147" y2="147"/><line style="stroke:#181818;stroke-width:0.5;" x1="477.5" x2="642.9678" y1="155" y2="155"/></g><!--class Sample--><g class="entity" data-qualified-name="Sample" data-source-line="2" id="ent0004"><rect fill="#F1F1F1" height="48" rx="2.5" ry="2.5" style="stroke:#181818;stroke-width:0.5;" width="84.4932" x="1087" y="7"/><ellipse cx="1102" cy="23" fill="#ADD1B2" rx="11" ry="11" style="stroke:#181818;stroke-width:1;"/><path d="M1104.9688,28.6406 Q1104.3906,28.9375 1103.75,29.0781 Q1103.1094,29.2344 1102.4063,29.2344 Q1099.9063,29.2344 1098.5781,27.5938 Q1097.2656,25.9375 1097.2656,22.8125 Q1097.2656,19.6875 1098.5781,18.0313 Q1099.9063,16.375 1102.4063,16.375 Q1103.1094,16.375 1103.75,16.5313 Q1104.4063,16.6875 1104.9688,16.9844 L1104.9688,19.7031 Q1104.3438,19.125 1103.75,18.8594 Q1103.1563,18.5781 1102.5313,18.5781 Q1101.1875,18.5781 1100.5,19.6563 Q1099.8125,20.7188 1099.8125,22.8125 Q1099.8125,24.9063 1100.5,25.9844 Q1101.1875,27.0469 1102.5313,27.0469 Q1103.1563,27.0469 1103.75,26.7813 Q1104.3438,26.5 1104.9688,25.9219 L1104.9688,28.6406 Z " fill="#000000"/><text fill="#000000" font-family="sans-serif" font-size="14" lengthAdjust="spacing" textLength="52.4932" x="1116" y="27.8467">Sample</text><line style="stroke:#181818;stroke-width:0.5;" x1="1088" x2="1170.4932" y1="39" y2="39"/><line style="stroke:#181818;stroke-width:0.5;" x1="1088" x2="1170.4932" y1="47" y2="47"/></g><!--class MaterialSample--><g class="entity" data-qualified-name="MaterialSample" data-source-line="2" id="ent0005"><rect fill="#F1F1F1" height="48" rx="2.5" ry="2.5" style="stroke:#181818;stroke-width:0.5;" width="141.3682" x="886.5" y="115"/><ellipse cx="901.5" cy="131" fill="#ADD1B2" rx="11" ry="11" style="stroke:#181818;stroke-width:1;"/><path d="M904.4688,136.6406 Q903.8906,136.9375 903.25,137.0781 Q902.6094,137.2344 901.9063,137.2344 Q899.4063,137.2344 898.0781,135.5938 Q896.7656,133.9375 896.7656,130.8125 Q896.7656,127.6875 898.0781,126.0313 Q899.4063,124.375 901.9063,124.375 Q902.6094,124.375 903.25,124.5313 Q903.9063,124.6875 904.4688,124.9844 L904.4688,127.7031 Q903.8438,127.125 903.25,126.8594 Q902.6563,126.5781 902.0313,126.5781 Q900.6875,126.5781 900,127.6563 Q899.3125,128.7188 899.3125,130.8125 Q899.3125,132.9063 900,133.9844 Q900.6875,135.0469 902.0313,135.0469 Q902.6563,135.0469 903.25,134.7813 Q903.8438,134.5 904.4688,133.9219 L904.4688,136.6406 Z " fill="#000000"/><text fill="#000000" font-family="sans-serif" font-size="14" lengthAdjust="spacing" textLength="109.3682" x="915.5" y="135.8467">MaterialSample</text><line style="stroke:#181818;stroke-width:0.5;" x1="887.5" x2="1026.8682" y1="147" y2="147"/><line style="stroke:#181818;stroke-width:0.5;" x1="887.5" x2="1026.8682" y1="155" y2="155"/></g><!--class SpatialSample--><g class="entity" data-qualified-name="SpatialSample" data-source-line="3" id="ent0007"><rect fill="#F1F1F1" height="48" rx="2.5" ry="2.5" style="stroke:#181818;stroke-width:0.5;" width="132.6934" x="1062.5" y="115"/><ellipse cx="1077.5" cy="131" fill="#ADD1B2" rx="11" ry="11" style="stroke:#181818;stroke-width:1;"/><path d="M1080.4688,136.6406 Q1079.8906,136.9375 1079.25,137.0781 Q1078.6094,137.2344 1077.9063,137.2344 Q1075.4063,137.2344 1074.0781,135.5938 Q1072.7656,133.9375 1072.7656,130.8125 Q1072.7656,127.6875 1074.0781,126.0313 Q1075.4063,124.375 1077.9063,124.375 Q1078.6094,124.375 1079.25,124.5313 Q1079.9063,124.6875 1080.4688,124.9844 L1080.4688,127.7031 Q1079.8438,127.125 1079.25,126.8594 Q1078.6563,126.5781 1078.0313,126.5781 Q1076.6875,126.5781 1076,127.6563 Q1075.3125,128.7188 1075.3125,130.8125 Q1075.3125,132.9063 1076,133.9844 Q1076.6875,135.0469 1078.0313,135.0469 Q1078.6563,135.0469 1079.25,134.7813 Q1079.8438,134.5 1080.4688,133.9219 L1080.4688,136.6406 Z " fill="#000000"/><text fill="#000000" font-family="sans-serif" font-size="14" lengthAdjust="spacing" textLength="100.6934" x="1091.5" y="135.8467">SpatialSample</text><line style="stroke:#181818;stroke-width:0.5;" x1="1063.5" x2="1194.1934" y1="147" y2="147"/><line style="stroke:#181818;stroke-width:0.5;" x1="1063.5" x2="1194.1934" y1="155" y2="155"/></g><!--class StatisticalSample--><g class="entity" data-qualified-name="StatisticalSample" data-source-line="4" id="ent0009"><rect fill="#F1F1F1" height="48" rx="2.5" ry="2.5" style="stroke:#181818;stroke-width:0.5;" width="153.666" x="1231" y="115"/><ellipse cx="1246" cy="131" fill="#ADD1B2" rx="11" ry="11" style="stroke:#181818;stroke-width:1;"/><path d="M1248.9688,136.6406 Q1248.3906,136.9375 1247.75,137.0781 Q1247.1094,137.2344 1246.4063,137.2344 Q1243.9063,137.2344 1242.5781,135.5938 Q1241.2656,133.9375 1241.2656,130.8125 Q1241.2656,127.6875 1242.5781,126.0313 Q1243.9063,124.375 1246.4063,124.375 Q1247.1094,124.375 1247.75,124.5313 Q1248.4063,124.6875 1248.9688,124.9844 L1248.9688,127.7031 Q1248.3438,127.125 1247.75,126.8594 Q1247.1563,126.5781 1246.5313,126.5781 Q1245.1875,126.5781 1244.5,127.6563 Q1243.8125,128.7188 1243.8125,130.8125 Q1243.8125,132.9063 1244.5,133.9844 Q1245.1875,135.0469 1246.5313,135.0469 Q1247.1563,135.0469 1247.75,134.7813 Q1248.3438,134.5 1248.9688,133.9219 L1248.9688,136.6406 Z " fill="#000000"/><text fill="#000000" font-family="sans-serif" font-size="14" lengthAdjust="spacing" textLength="121.666" x="1260" y="135.8467">StatisticalSample</text><line style="stroke:#181818;stroke-width:0.5;" x1="1232" x2="1383.666" y1="147" y2="147"/><line style="stroke:#181818;stroke-width:0.5;" x1="1232" x2="1383.666" y1="155" y2="155"/></g><!--class ObservableProperty--><g class="entity" data-qualified-name="ObservableProperty" data-source-line="5" id="ent0011"><rect fill="#F1F1F1" height="48" rx="2.5" ry="2.5" style="stroke:#181818;stroke-width:0.5;" width="171.6172" x="679" y="115"/><ellipse cx="694" cy="131" fill="#ADD1B2" rx="11" ry="11" style="stroke:#181818;stroke-width:1;"/><path d="M696.9688,136.6406 Q696.3906,136.9375 695.75,137.0781 Q695.1094,137.2344 694.4063,137.2344 Q691.9063,137.2344 690.5781,135.5938 Q689.2656,133.9375 689.2656,130.8125 Q689.2656,127.6875 690.5781,126.0313 Q691.9063,124.375 694.4063,124.375 Q695.1094,124.375 695.75,124.5313 Q696.4063,124.6875 696.9688,124.9844 L696.9688,127.7031 Q696.3438,127.125 695.75,126.8594 Q695.1563,126.5781 694.5313,126.5781 Q693.1875,126.5781 692.5,127.6563 Q691.8125,128.7188 691.8125,130.8125 Q691.8125,132.9063 692.5,133.9844 Q693.1875,135.0469 694.5313,135.0469 Q695.1563,135.0469 695.75,134.7813 Q696.3438,134.5 696.9688,133.9219 L696.9688,136.6406 Z " fill="#000000"/><text fill="#000000" font-family="sans-serif" font-size="14" lengthAdjust="spacing" textLength="139.6172" x="708" y="135.8467">ObservableProperty</text><line style="stroke:#181818;stroke-width:0.5;" x1="680" x2="849.6172" y1="147" y2="147"/><line style="stroke:#181818;stroke-width:0.5;" x1="680" x2="849.6172" y1="155" y2="155"/></g><!--class Procedure--><g class="entity" data-qualified-name="Procedure" data-source-line="6" id="ent0013"><rect fill="#F1F1F1" height="48" rx="2.5" ry="2.5" style="stroke:#181818;stroke-width:0.5;" width="103.2031" x="1662.5" y="7"/><ellipse cx="1677.5" cy="23" fill="#ADD1B2" rx="11" ry="11" style="stroke:#181818;stroke-width:1;"/><path d="M1680.4688,28.6406 Q1679.8906,28.9375 1679.25,29.0781 Q1678.6094,29.2344 1677.9063,29.2344 Q1675.4063,29.2344 1674.0781,27.5938 Q1672.7656,25.9375 1672.7656,22.8125 Q1672.7656,19.6875 1674.0781,18.0313 Q1675.4063,16.375 1677.9063,16.375 Q1678.6094,16.375 1679.25,16.5313 Q1679.9063,16.6875 1680.4688,16.9844 L1680.4688,19.7031 Q1679.8438,19.125 1679.25,18.8594 Q1678.6563,18.5781 1678.0313,18.5781 Q1676.6875,18.5781 1676,19.6563 Q1675.3125,20.7188 1675.3125,22.8125 Q1675.3125,24.9063 1676,25.9844 Q1676.6875,27.0469 1678.0313,27.0469 Q1678.6563,27.0469 1679.25,26.7813 Q1679.8438,26.5 1680.4688,25.9219 L1680.4688,28.6406 Z " fill="#000000"/><text fill="#000000" font-family="sans-serif" font-size="14" lengthAdjust="spacing" textLength="71.2031" x="1691.5" y="27.8467">Procedure</text><line style="stroke:#181818;stroke-width:0.5;" x1="1663.5" x2="1764.7031" y1="39" y2="39"/><line style="stroke:#181818;stroke-width:0.5;" x1="1663.5" x2="1764.7031" y1="47" y2="47"/></g><!--class ActuatingProcedure--><g class="entity" data-qualified-name="ActuatingProcedure" data-source-line="6" id="ent0014"><rect fill="#F1F1F1" height="48" rx="2.5" ry="2.5" style="stroke:#181818;stroke-width:0.5;" width="170.5576" x="1420.5" y="115"/><ellipse cx="1435.5" cy="131" fill="#ADD1B2" rx="11" ry="11" style="stroke:#181818;stroke-width:1;"/><path d="M1438.4688,136.6406 Q1437.8906,136.9375 1437.25,137.0781 Q1436.6094,137.2344 1435.9063,137.2344 Q1433.4063,137.2344 1432.0781,135.5938 Q1430.7656,133.9375 1430.7656,130.8125 Q1430.7656,127.6875 1432.0781,126.0313 Q1433.4063,124.375 1435.9063,124.375 Q1436.6094,124.375 1437.25,124.5313 Q1437.9063,124.6875 1438.4688,124.9844 L1438.4688,127.7031 Q1437.8438,127.125 1437.25,126.8594 Q1436.6563,126.5781 1436.0313,126.5781 Q1434.6875,126.5781 1434,127.6563 Q1433.3125,128.7188 1433.3125,130.8125 Q1433.3125,132.9063 1434,133.9844 Q1434.6875,135.0469 1436.0313,135.0469 Q1436.6563,135.0469 1437.25,134.7813 Q1437.8438,134.5 1438.4688,133.9219 L1438.4688,136.6406 Z " fill="#000000"/><text fill="#000000" font-family="sans-serif" font-size="14" lengthAdjust="spacing" textLength="138.5576" x="1449.5" y="135.8467">ActuatingProcedure</text><line style="stroke:#181818;stroke-width:0.5;" x1="1421.5" x2="1590.0576" y1="147" y2="147"/><line style="stroke:#181818;stroke-width:0.5;" x1="1421.5" x2="1590.0576" y1="155" y2="155"/></g><!--class ObservingProcedure--><g class="entity" data-qualified-name="ObservingProcedure" data-source-line="7" id="ent0016"><rect fill="#F1F1F1" height="48" rx="2.5" ry="2.5" style="stroke:#181818;stroke-width:0.5;" width="174.707" x="1626.5" y="115"/><ellipse cx="1641.5" cy="131" fill="#ADD1B2" rx="11" ry="11" style="stroke:#181818;stroke-width:1;"/><path d="M1644.4688,136.6406 Q1643.8906,136.9375 1643.25,137.0781 Q1642.6094,137.2344 1641.9063,137.2344 Q1639.4063,137.2344 1638.0781,135.5938 Q1636.7656,133.9375 1636.7656,130.8125 Q1636.7656,127.6875 1638.0781,126.0313 Q1639.4063,124.375 1641.9063,124.375 Q1642.6094,124.375 1643.25,124.5313 Q1643.9063,124.6875 1644.4688,124.9844 L1644.4688,127.7031 Q1643.8438,127.125 1643.25,126.8594 Q1642.6563,126.5781 1642.0313,126.5781 Q1640.6875,126.5781 1640,127.6563 Q1639.3125,128.7188 1639.3125,130.8125 Q1639.3125,132.9063 1640,133.9844 Q1640.6875,135.0469 1642.0313,135.0469 Q1642.6563,135.0469 1643.25,134.7813 Q1643.8438,134.5 1644.4688,133.9219 L1644.4688,136.6406 Z " fill="#000000"/><text fill="#000000" font-family="sans-serif" font-size="14" lengthAdjust="spacing" textLength="142.707" x="1655.5" y="135.8467">ObservingProcedure</text><line style="stroke:#181818;stroke-width:0.5;" x1="1627.5" x2="1800.207" y1="147" y2="147"/><line style="stroke:#181818;stroke-width:0.5;" x1="1627.5" x2="1800.207" y1="155" y2="155"/></g><!--class SamplingProcedure--><g class="entity" data-qualified-name="SamplingProcedure" data-source-line="8" id="ent0018"><rect fill="#F1F1F1" height="48" rx="2.5" ry="2.5" style="stroke:#181818;stroke-width:0.5;" width="168.7324" x="1836.5" y="115"/><ellipse cx="1851.5" cy="131" fill="#ADD1B2" rx="11" ry="11" style="stroke:#181818;stroke-width:1;"/><path d="M1854.4688,136.6406 Q1853.8906,136.9375 1853.25,137.0781 Q1852.6094,137.2344 1851.9063,137.2344 Q1849.4063,137.2344 1848.0781,135.5938 Q1846.7656,133.9375 1846.7656,130.8125 Q1846.7656,127.6875 1848.0781,126.0313 Q1849.4063,124.375 1851.9063,124.375 Q1852.6094,124.375 1853.25,124.5313 Q1853.9063,124.6875 1854.4688,124.9844 L1854.4688,127.7031 Q1853.8438,127.125 1853.25,126.8594 Q1852.6563,126.5781 1852.0313,126.5781 Q1850.6875,126.5781 1850,127.6563 Q1849.3125,128.7188 1849.3125,130.8125 Q1849.3125,132.9063 1850,133.9844 Q1850.6875,135.0469 1852.0313,135.0469 Q1852.6563,135.0469 1853.25,134.7813 Q1853.8438,134.5 1854.4688,133.9219 L1854.4688,136.6406 Z " fill="#000000"/><text fill="#000000" font-family="sans-serif" font-size="14" lengthAdjust="spacing" textLength="136.7324" x="1865.5" y="135.8467">SamplingProcedure</text><line style="stroke:#181818;stroke-width:0.5;" x1="1837.5" x2="2004.2324" y1="147" y2="147"/><line style="stroke:#181818;stroke-width:0.5;" x1="1837.5" x2="2004.2324" y1="155" y2="155"/></g><!--class Asset--><g class="entity" data-qualified-name="Asset" data-source-line="9" id="ent0020"><rect fill="#F1F1F1" height="48" rx="2.5" ry="2.5" style="stroke:#181818;stroke-width:0.5;" width="70.2676" x="2112" y="7"/><ellipse cx="2127" cy="23" fill="#ADD1B2" rx="11" ry="11" style="stroke:#181818;stroke-width:1;"/><path d="M2129.9688,28.6406 Q2129.3906,28.9375 2128.75,29.0781 Q2128.1094,29.2344 2127.4063,29.2344 Q2124.9063,29.2344 2123.5781,27.5938 Q2122.2656,25.9375 2122.2656,22.8125 Q2122.2656,19.6875 2123.5781,18.0313 Q2124.9063,16.375 2127.4063,16.375 Q2128.1094,16.375 2128.75,16.5313 Q2129.4063,16.6875 2129.9688,16.9844 L2129.9688,19.7031 Q2129.3438,19.125 2128.75,18.8594 Q2128.1563,18.5781 2127.5313,18.5781 Q2126.1875,18.5781 2125.5,19.6563 Q2124.8125,20.7188 2124.8125,22.8125 Q2124.8125,24.9063 2125.5,25.9844 Q2126.1875,27.0469 2127.5313,27.0469 Q2128.1563,27.0469 2128.75,26.7813 Q2129.3438,26.5 2129.9688,25.9219 L2129.9688,28.6406 Z " fill="#000000"/><text fill="#000000" font-family="sans-serif" font-size="14" lengthAdjust="spacing" textLength="38.2676" x="2141" y="27.8467">Asset</text><line style="stroke:#181818;stroke-width:0.5;" x1="2113" x2="2181.2676" y1="39" y2="39"/><line style="stroke:#181818;stroke-width:0.5;" x1="2113" x2="2181.2676" y1="47" y2="47"/></g><!--class Platform--><g class="entity" data-qualified-name="Platform" data-source-line="9" id="ent0021"><rect fill="#F1F1F1" height="48" rx="2.5" ry="2.5" style="stroke:#181818;stroke-width:0.5;" width="91.2881" x="2040.5" y="115"/><ellipse cx="2055.5" cy="131" fill="#ADD1B2" rx="11" ry="11" style="stroke:#181818;stroke-width:1;"/><path d="M2058.4688,136.6406 Q2057.8906,136.9375 2057.25,137.0781 Q2056.6094,137.2344 2055.9063,137.2344 Q2053.4063,137.2344 2052.0781,135.5938 Q2050.7656,133.9375 2050.7656,130.8125 Q2050.7656,127.6875 2052.0781,126.0313 Q2053.4063,124.375 2055.9063,124.375 Q2056.6094,124.375 2057.25,124.5313 Q2057.9063,124.6875 2058.4688,124.9844 L2058.4688,127.7031 Q2057.8438,127.125 2057.25,126.8594 Q2056.6563,126.5781 2056.0313,126.5781 Q2054.6875,126.5781 2054,127.6563 Q2053.3125,128.7188 2053.3125,130.8125 Q2053.3125,132.9063 2054,133.9844 Q2054.6875,135.0469 2056.0313,135.0469 Q2056.6563,135.0469 2057.25,134.7813 Q2057.8438,134.5 2058.4688,133.9219 L2058.4688,136.6406 Z " fill="#000000"/><text fill="#000000" font-family="sans-serif" font-size="14" lengthAdjust="spacing" textLength="59.2881" x="2069.5" y="135.8467">Platform</text><line style="stroke:#181818;stroke-width:0.5;" x1="2041.5" x2="2130.7881" y1="147" y2="147"/><line style="stroke:#181818;stroke-width:0.5;" x1="2041.5" x2="2130.7881" y1="155" y2="155"/></g><!--class System--><g class="entity" data-qualified-name="System" data-source-line="10" id="ent0023"><rect fill="#F1F1F1" height="48" rx="2.5" ry="2.5" style="stroke:#181818;stroke-width:0.5;" width="84.2061" x="2167" y="115"/><ellipse cx="2182" cy="131" fill="#ADD1B2" rx="11" ry="11" style="stroke:#181818;stroke-width:1;"/><path d="M2184.9688,136.6406 Q2184.3906,136.9375 2183.75,137.0781 Q2183.1094,137.2344 2182.4063,137.2344 Q2179.9063,137.2344 2178.5781,135.5938 Q2177.2656,133.9375 2177.2656,130.8125 Q2177.2656,127.6875 2178.5781,126.0313 Q2179.9063,124.375 2182.4063,124.375 Q2183.1094,124.375 2183.75,124.5313 Q2184.4063,124.6875 2184.9688,124.9844 L2184.9688,127.7031 Q2184.3438,127.125 2183.75,126.8594 Q2183.1563,126.5781 2182.5313,126.5781 Q2181.1875,126.5781 2180.5,127.6563 Q2179.8125,128.7188 2179.8125,130.8125 Q2179.8125,132.9063 2180.5,133.9844 Q2181.1875,135.0469 2182.5313,135.0469 Q2183.1563,135.0469 2183.75,134.7813 Q2184.3438,134.5 2184.9688,133.9219 L2184.9688,136.6406 Z " fill="#000000"/><text fill="#000000" font-family="sans-serif" font-size="14" lengthAdjust="spacing" textLength="52.2061" x="2196" y="135.8467">System</text><line style="stroke:#181818;stroke-width:0.5;" x1="2168" x2="2250.2061" y1="147" y2="147"/><line style="stroke:#181818;stroke-width:0.5;" x1="2168" x2="2250.2061" y1="155" y2="155"/></g><!--class Sampler--><g class="entity" data-qualified-name="Sampler" data-source-line="10" id="ent0024"><rect fill="#F1F1F1" height="48" rx="2.5" ry="2.5" style="stroke:#181818;stroke-width:0.5;" width="90.249" x="2038" y="223"/><ellipse cx="2053" cy="239" fill="#ADD1B2" rx="11" ry="11" style="stroke:#181818;stroke-width:1;"/><path d="M2055.9688,244.6406 Q2055.3906,244.9375 2054.75,245.0781 Q2054.1094,245.2344 2053.4063,245.2344 Q2050.9063,245.2344 2049.5781,243.5938 Q2048.2656,241.9375 2048.2656,238.8125 Q2048.2656,235.6875 2049.5781,234.0313 Q2050.9063,232.375 2053.4063,232.375 Q2054.1094,232.375 2054.75,232.5313 Q2055.4063,232.6875 2055.9688,232.9844 L2055.9688,235.7031 Q2055.3438,235.125 2054.75,234.8594 Q2054.1563,234.5781 2053.5313,234.5781 Q2052.1875,234.5781 2051.5,235.6563 Q2050.8125,236.7188 2050.8125,238.8125 Q2050.8125,240.9063 2051.5,241.9844 Q2052.1875,243.0469 2053.5313,243.0469 Q2054.1563,243.0469 2054.75,242.7813 Q2055.3438,242.5 2055.9688,241.9219 L2055.9688,244.6406 Z " fill="#000000"/><text fill="#000000" font-family="sans-serif" font-size="14" lengthAdjust="spacing" textLength="58.249" x="2067" y="243.8467">Sampler</text><line style="stroke:#181818;stroke-width:0.5;" x1="2039" x2="2127.249" y1="255" y2="255"/><line style="stroke:#181818;stroke-width:0.5;" x1="2039" x2="2127.249" y1="263" y2="263"/></g><!--class Actuator--><g class="entity" data-qualified-name="Actuator" data-source-line="11" id="ent0026"><rect fill="#F1F1F1" height="48" rx="2.5" ry="2.5" style="stroke:#181818;stroke-width:0.5;" width="92.0264" x="2163" y="223"/><ellipse cx="2178" cy="239" fill="#ADD1B2" rx="11" ry="11" style="stroke:#181818;stroke-width:1;"/><path d="M2180.9688,244.6406 Q2180.3906,244.9375 2179.75,245.0781 Q2179.1094,245.2344 2178.4063,245.2344 Q2175.9063,245.2344 2174.5781,243.5938 Q2173.2656,241.9375 2173.2656,238.8125 Q2173.2656,235.6875 2174.5781,234.0313 Q2175.9063,232.375 2178.4063,232.375 Q2179.1094,232.375 2179.75,232.5313 Q2180.4063,232.6875 2180.9688,232.9844 L2180.9688,235.7031 Q2180.3438,235.125 2179.75,234.8594 Q2179.1563,234.5781 2178.5313,234.5781 Q2177.1875,234.5781 2176.5,235.6563 Q2175.8125,236.7188 2175.8125,238.8125 Q2175.8125,240.9063 2176.5,241.9844 Q2177.1875,243.0469 2178.5313,243.0469 Q2179.1563,243.0469 2179.75,242.7813 Q2180.3438,242.5 2180.9688,241.9219 L2180.9688,244.6406 Z " fill="#000000"/><text fill="#000000" font-family="sans-serif" font-size="14" lengthAdjust="spacing" textLength="60.0264" x="2192" y="243.8467">Actuator</text><line style="stroke:#181818;stroke-width:0.5;" x1="2164" x2="2254.0264" y1="255" y2="255"/><line style="stroke:#181818;stroke-width:0.5;" x1="2164" x2="2254.0264" y1="263" y2="263"/></g><!--class Execution--><g class="entity" data-qualified-name="Execution" data-source-line="13" id="ent0029"><rect fill="#F1F1F1" height="48" rx="2.5" ry="2.5" style="stroke:#181818;stroke-width:0.5;" width="101.1318" x="2418.5" y="7"/><ellipse cx="2433.5" cy="23" fill="#ADD1B2" rx="11" ry="11" style="stroke:#181818;stroke-width:1;"/><path d="M2436.4688,28.6406 Q2435.8906,28.9375 2435.25,29.0781 Q2434.6094,29.2344 2433.9063,29.2344 Q2431.4063,29.2344 2430.0781,27.5938 Q2428.7656,25.9375 2428.7656,22.8125 Q2428.7656,19.6875 2430.0781,18.0313 Q2431.4063,16.375 2433.9063,16.375 Q2434.6094,16.375 2435.25,16.5313 Q2435.9063,16.6875 2436.4688,16.9844 L2436.4688,19.7031 Q2435.8438,19.125 2435.25,18.8594 Q2434.6563,18.5781 2434.0313,18.5781 Q2432.6875,18.5781 2432,19.6563 Q2431.3125,20.7188 2431.3125,22.8125 Q2431.3125,24.9063 2432,25.9844 Q2432.6875,27.0469 2434.0313,27.0469 Q2434.6563,27.0469 2435.25,26.7813 Q2435.8438,26.5 2436.4688,25.9219 L2436.4688,28.6406 Z " fill="#000000"/><text fill="#000000" font-family="sans-serif" font-size="14" lengthAdjust="spacing" textLength="69.1318" x="2447.5" y="27.8467">Execution</text><line style="stroke:#181818;stroke-width:0.5;" x1="2419.5" x2="2518.6318" y1="39" y2="39"/><line style="stroke:#181818;stroke-width:0.5;" x1="2419.5" x2="2518.6318" y1="47" y2="47"/></g><!--class Sampling--><g class="entity" data-qualified-name="Sampling" data-source-line="13" id="ent0030"><rect fill="#F1F1F1" height="48" rx="2.5" ry="2.5" style="stroke:#181818;stroke-width:0.5;" width="97.5293" x="2286" y="115"/><ellipse cx="2301" cy="131" fill="#ADD1B2" rx="11" ry="11" style="stroke:#181818;stroke-width:1;"/><path d="M2303.9688,136.6406 Q2303.3906,136.9375 2302.75,137.0781 Q2302.1094,137.2344 2301.4063,137.2344 Q2298.9063,137.2344 2297.5781,135.5938 Q2296.2656,133.9375 2296.2656,130.8125 Q2296.2656,127.6875 2297.5781,126.0313 Q2298.9063,124.375 2301.4063,124.375 Q2302.1094,124.375 2302.75,124.5313 Q2303.4063,124.6875 2303.9688,124.9844 L2303.9688,127.7031 Q2303.3438,127.125 2302.75,126.8594 Q2302.1563,126.5781 2301.5313,126.5781 Q2300.1875,126.5781 2299.5,127.6563 Q2298.8125,128.7188 2298.8125,130.8125 Q2298.8125,132.9063 2299.5,133.9844 Q2300.1875,135.0469 2301.5313,135.0469 Q2302.1563,135.0469 2302.75,134.7813 Q2303.3438,134.5 2303.9688,133.9219 L2303.9688,136.6406 Z " fill="#000000"/><text fill="#000000" font-family="sans-serif" font-size="14" lengthAdjust="spacing" textLength="65.5293" x="2315" y="135.8467">Sampling</text><line style="stroke:#181818;stroke-width:0.5;" x1="2287" x2="2382.5293" y1="147" y2="147"/><line style="stroke:#181818;stroke-width:0.5;" x1="2287" x2="2382.5293" y1="155" y2="155"/></g><!--class ExecutionCollection--><g class="entity" data-qualified-name="ExecutionCollection" data-source-line="14" id="ent0032"><rect fill="#F1F1F1" height="48" rx="2.5" ry="2.5" style="stroke:#181818;stroke-width:0.5;" width="170.3799" x="2906" y="7"/><ellipse cx="2921" cy="23" fill="#ADD1B2" rx="11" ry="11" style="stroke:#181818;stroke-width:1;"/><path d="M2923.9688,28.6406 Q2923.3906,28.9375 2922.75,29.0781 Q2922.1094,29.2344 2921.4063,29.2344 Q2918.9063,29.2344 2917.5781,27.5938 Q2916.2656,25.9375 2916.2656,22.8125 Q2916.2656,19.6875 2917.5781,18.0313 Q2918.9063,16.375 2921.4063,16.375 Q2922.1094,16.375 2922.75,16.5313 Q2923.4063,16.6875 2923.9688,16.9844 L2923.9688,19.7031 Q2923.3438,19.125 2922.75,18.8594 Q2922.1563,18.5781 2921.5313,18.5781 Q2920.1875,18.5781 2919.5,19.6563 Q2918.8125,20.7188 2918.8125,22.8125 Q2918.8125,24.9063 2919.5,25.9844 Q2920.1875,27.0469 2921.5313,27.0469 Q2922.1563,27.0469 2922.75,26.7813 Q2923.3438,26.5 2923.9688,25.9219 L2923.9688,28.6406 Z " fill="#000000"/><text fill="#000000" font-family="sans-serif" font-size="14" lengthAdjust="spacing" textLength="138.3799" x="2935" y="27.8467">ExecutionCollection</text><line style="stroke:#181818;stroke-width:0.5;" x1="2907" x2="3075.3799" y1="39" y2="39"/><line style="stroke:#181818;stroke-width:0.5;" x1="2907" x2="3075.3799" y1="47" y2="47"/></g><!--class SamplingCollection--><g class="entity" data-qualified-name="SamplingCollection" data-source-line="14" id="ent0033"><rect fill="#F1F1F1" height="48" rx="2.5" ry="2.5" style="stroke:#181818;stroke-width:0.5;" width="166.7773" x="2705.5" y="115"/><ellipse cx="2720.5" cy="131" fill="#ADD1B2" rx="11" ry="11" style="stroke:#181818;stroke-width:1;"/><path d="M2723.4688,136.6406 Q2722.8906,136.9375 2722.25,137.0781 Q2721.6094,137.2344 2720.9063,137.2344 Q2718.4063,137.2344 2717.0781,135.5938 Q2715.7656,133.9375 2715.7656,130.8125 Q2715.7656,127.6875 2717.0781,126.0313 Q2718.4063,124.375 2720.9063,124.375 Q2721.6094,124.375 2722.25,124.5313 Q2722.9063,124.6875 2723.4688,124.9844 L2723.4688,127.7031 Q2722.8438,127.125 2722.25,126.8594 Q2721.6563,126.5781 2721.0313,126.5781 Q2719.6875,126.5781 2719,127.6563 Q2718.3125,128.7188 2718.3125,130.8125 Q2718.3125,132.9063 2719,133.9844 Q2719.6875,135.0469 2721.0313,135.0469 Q2721.6563,135.0469 2722.25,134.7813 Q2722.8438,134.5 2723.4688,133.9219 L2723.4688,136.6406 Z " fill="#000000"/><text fill="#000000" font-family="sans-serif" font-size="14" lengthAdjust="spacing" textLength="134.7773" x="2734.5" y="135.8467">SamplingCollection</text><line style="stroke:#181818;stroke-width:0.5;" x1="2706.5" x2="2871.2773" y1="147" y2="147"/><line style="stroke:#181818;stroke-width:0.5;" x1="2706.5" x2="2871.2773" y1="155" y2="155"/></g><!--class Actuation--><g class="entity" data-qualified-name="Actuation" data-source-line="15" id="ent0035"><rect fill="#F1F1F1" height="48" rx="2.5" ry="2.5" style="stroke:#181818;stroke-width:0.5;" width="99.0332" x="2419.5" y="115"/><ellipse cx="2434.5" cy="131" fill="#ADD1B2" rx="11" ry="11" style="stroke:#181818;stroke-width:1;"/><path d="M2437.4688,136.6406 Q2436.8906,136.9375 2436.25,137.0781 Q2435.6094,137.2344 2434.9063,137.2344 Q2432.4063,137.2344 2431.0781,135.5938 Q2429.7656,133.9375 2429.7656,130.8125 Q2429.7656,127.6875 2431.0781,126.0313 Q2432.4063,124.375 2434.9063,124.375 Q2435.6094,124.375 2436.25,124.5313 Q2436.9063,124.6875 2437.4688,124.9844 L2437.4688,127.7031 Q2436.8438,127.125 2436.25,126.8594 Q2435.6563,126.5781 2435.0313,126.5781 Q2433.6875,126.5781 2433,127.6563 Q2432.3125,128.7188 2432.3125,130.8125 Q2432.3125,132.9063 2433,133.9844 Q2433.6875,135.0469 2435.0313,135.0469 Q2435.6563,135.0469 2436.25,134.7813 Q2436.8438,134.5 2437.4688,133.9219 L2437.4688,136.6406 Z " fill="#000000"/><text fill="#000000" font-family="sans-serif" font-size="14" lengthAdjust="spacing" textLength="67.0332" x="2448.5" y="135.8467">Actuation</text><line style="stroke:#181818;stroke-width:0.5;" x1="2420.5" x2="2517.5332" y1="147" y2="147"/><line style="stroke:#181818;stroke-width:0.5;" x1="2420.5" x2="2517.5332" y1="155" y2="155"/></g><!--class Sensor--><g class="entity" data-qualified-name="Sensor" data-source-line="16" id="ent0037"><rect fill="#F1F1F1" height="48" rx="2.5" ry="2.5" style="stroke:#181818;stroke-width:0.5;" width="79.9883" x="2290" y="223"/><ellipse cx="2305" cy="239" fill="#ADD1B2" rx="11" ry="11" style="stroke:#181818;stroke-width:1;"/><path d="M2307.9688,244.6406 Q2307.3906,244.9375 2306.75,245.0781 Q2306.1094,245.2344 2305.4063,245.2344 Q2302.9063,245.2344 2301.5781,243.5938 Q2300.2656,241.9375 2300.2656,238.8125 Q2300.2656,235.6875 2301.5781,234.0313 Q2302.9063,232.375 2305.4063,232.375 Q2306.1094,232.375 2306.75,232.5313 Q2307.4063,232.6875 2307.9688,232.9844 L2307.9688,235.7031 Q2307.3438,235.125 2306.75,234.8594 Q2306.1563,234.5781 2305.5313,234.5781 Q2304.1875,234.5781 2303.5,235.6563 Q2302.8125,236.7188 2302.8125,238.8125 Q2302.8125,240.9063 2303.5,241.9844 Q2304.1875,243.0469 2305.5313,243.0469 Q2306.1563,243.0469 2306.75,242.7813 Q2307.3438,242.5 2307.9688,241.9219 L2307.9688,244.6406 Z " fill="#000000"/><text fill="#000000" font-family="sans-serif" font-size="14" lengthAdjust="spacing" textLength="47.9883" x="2319" y="243.8467">Sensor</text><line style="stroke:#181818;stroke-width:0.5;" x1="2291" x2="2368.9883" y1="255" y2="255"/><line style="stroke:#181818;stroke-width:0.5;" x1="2291" x2="2368.9883" y1="263" y2="263"/></g><!--class ActuationCollection--><g class="entity" data-qualified-name="ActuationCollection" data-source-line="17" id="ent0039"><rect fill="#F1F1F1" height="48" rx="2.5" ry="2.5" style="stroke:#181818;stroke-width:0.5;" width="168.2813" x="2907" y="115"/><ellipse cx="2922" cy="131" fill="#ADD1B2" rx="11" ry="11" style="stroke:#181818;stroke-width:1;"/><path d="M2924.9688,136.6406 Q2924.3906,136.9375 2923.75,137.0781 Q2923.1094,137.2344 2922.4063,137.2344 Q2919.9063,137.2344 2918.5781,135.5938 Q2917.2656,133.9375 2917.2656,130.8125 Q2917.2656,127.6875 2918.5781,126.0313 Q2919.9063,124.375 2922.4063,124.375 Q2923.1094,124.375 2923.75,124.5313 Q2924.4063,124.6875 2924.9688,124.9844 L2924.9688,127.7031 Q2924.3438,127.125 2923.75,126.8594 Q2923.1563,126.5781 2922.5313,126.5781 Q2921.1875,126.5781 2920.5,127.6563 Q2919.8125,128.7188 2919.8125,130.8125 Q2919.8125,132.9063 2920.5,133.9844 Q2921.1875,135.0469 2922.5313,135.0469 Q2923.1563,135.0469 2923.75,134.7813 Q2924.3438,134.5 2924.9688,133.9219 L2924.9688,136.6406 Z " fill="#000000"/><text fill="#000000" font-family="sans-serif" font-size="14" lengthAdjust="spacing" textLength="136.2813" x="2936" y="135.8467">ActuationCollection</text><line style="stroke:#181818;stroke-width:0.5;" x1="2908" x2="3074.2813" y1="147" y2="147"/><line style="stroke:#181818;stroke-width:0.5;" x1="2908" x2="3074.2813" y1="155" y2="155"/></g><!--class ObservationCollection--><g class="entity" data-qualified-name="ObservationCollection" data-source-line="18" id="ent0041"><rect fill="#F1F1F1" height="48" rx="2.5" ry="2.5" style="stroke:#181818;stroke-width:0.5;" width="186.499" x="3110" y="115"/><ellipse cx="3125" cy="131" fill="#ADD1B2" rx="11" ry="11" style="stroke:#181818;stroke-width:1;"/><path d="M3127.9688,136.6406 Q3127.3906,136.9375 3126.75,137.0781 Q3126.1094,137.2344 3125.4063,137.2344 Q3122.9063,137.2344 3121.5781,135.5938 Q3120.2656,133.9375 3120.2656,130.8125 Q3120.2656,127.6875 3121.5781,126.0313 Q3122.9063,124.375 3125.4063,124.375 Q3126.1094,124.375 3126.75,124.5313 Q3127.4063,124.6875 3127.9688,124.9844 L3127.9688,127.7031 Q3127.3438,127.125 3126.75,126.8594 Q3126.1563,126.5781 3125.5313,126.5781 Q3124.1875,126.5781 3123.5,127.6563 Q3122.8125,128.7188 3122.8125,130.8125 Q3122.8125,132.9063 3123.5,133.9844 Q3124.1875,135.0469 3125.5313,135.0469 Q3126.1563,135.0469 3126.75,134.7813 Q3127.3438,134.5 3127.9688,133.9219 L3127.9688,136.6406 Z " fill="#000000"/><text fill="#000000" font-family="sans-serif" font-size="14" lengthAdjust="spacing" textLength="154.499" x="3139" y="135.8467">ObservationCollection</text><line style="stroke:#181818;stroke-width:0.5;" x1="3111" x2="3295.499" y1="147" y2="147"/><line style="stroke:#181818;stroke-width:0.5;" x1="3111" x2="3295.499" y1="155" y2="155"/></g><!--class Observation--><g class="entity" data-qualified-name="Observation" data-source-line="19" id="ent0043"><rect fill="#F1F1F1" height="48" rx="2.5" ry="2.5" style="stroke:#181818;stroke-width:0.5;" width="117.251" x="2553.5" y="115"/><ellipse cx="2568.5" cy="131" fill="#ADD1B2" rx="11" ry="11" style="stroke:#181818;stroke-width:1;"/><path d="M2571.4688,136.6406 Q2570.8906,136.9375 2570.25,137.0781 Q2569.6094,137.2344 2568.9063,137.2344 Q2566.4063,137.2344 2565.0781,135.5938 Q2563.7656,133.9375 2563.7656,130.8125 Q2563.7656,127.6875 2565.0781,126.0313 Q2566.4063,124.375 2568.9063,124.375 Q2569.6094,124.375 2570.25,124.5313 Q2570.9063,124.6875 2571.4688,124.9844 L2571.4688,127.7031 Q2570.8438,127.125 2570.25,126.8594 Q2569.6563,126.5781 2569.0313,126.5781 Q2567.6875,126.5781 2567,127.6563 Q2566.3125,128.7188 2566.3125,130.8125 Q2566.3125,132.9063 2567,133.9844 Q2567.6875,135.0469 2569.0313,135.0469 Q2569.6563,135.0469 2570.25,134.7813 Q2570.8438,134.5 2571.4688,133.9219 L2571.4688,136.6406 Z " fill="#000000"/><text fill="#000000" font-family="sans-serif" font-size="14" lengthAdjust="spacing" textLength="85.251" x="2582.5" y="135.8467">Observation</text><line style="stroke:#181818;stroke-width:0.5;" x1="2554.5" x2="2669.751" y1="147" y2="147"/><line style="stroke:#181818;stroke-width:0.5;" x1="2554.5" x2="2669.751" y1="155" y2="155"/></g><!--class SampleCollection--><g class="entity" data-qualified-name="SampleCollection" data-source-line="20" id="ent0045"><rect fill="#F1F1F1" height="48" rx="2.5" ry="2.5" style="stroke:#181818;stroke-width:0.5;" width="153.7412" x="7" y="7"/><ellipse cx="22" cy="23" fill="#ADD1B2" rx="11" ry="11" style="stroke:#181818;stroke-width:1;"/><path d="M24.9688,28.6406 Q24.3906,28.9375 23.75,29.0781 Q23.1094,29.2344 22.4063,29.2344 Q19.9063,29.2344 18.5781,27.5938 Q17.2656,25.9375 17.2656,22.8125 Q17.2656,19.6875 18.5781,18.0313 Q19.9063,16.375 22.4063,16.375 Q23.1094,16.375 23.75,16.5313 Q24.4063,16.6875 24.9688,16.9844 L24.9688,19.7031 Q24.3438,19.125 23.75,18.8594 Q23.1563,18.5781 22.5313,18.5781 Q21.1875,18.5781 20.5,19.6563 Q19.8125,20.7188 19.8125,22.8125 Q19.8125,24.9063 20.5,25.9844 Q21.1875,27.0469 22.5313,27.0469 Q23.1563,27.0469 23.75,26.7813 Q24.3438,26.5 24.9688,25.9219 L24.9688,28.6406 Z " fill="#000000"/><text fill="#000000" font-family="sans-serif" font-size="14" lengthAdjust="spacing" textLength="121.7412" x="36" y="27.8467">SampleCollection</text><line style="stroke:#181818;stroke-width:0.5;" x1="8" x2="159.7412" y1="39" y2="39"/><line style="stroke:#181818;stroke-width:0.5;" x1="8" x2="159.7412" y1="47" y2="47"/></g><!--class Input--><g class="entity" data-qualified-name="Input" data-source-line="21" id="ent0046"><rect fill="#F1F1F1" height="48" rx="2.5" ry="2.5" style="stroke:#181818;stroke-width:0.5;" width="68.251" x="196" y="7"/><ellipse cx="211" cy="23" fill="#ADD1B2" rx="11" ry="11" style="stroke:#181818;stroke-width:1;"/><path d="M213.9688,28.6406 Q213.3906,28.9375 212.75,29.0781 Q212.1094,29.2344 211.4063,29.2344 Q208.9063,29.2344 207.5781,27.5938 Q206.2656,25.9375 206.2656,22.8125 Q206.2656,19.6875 207.5781,18.0313 Q208.9063,16.375 211.4063,16.375 Q212.1094,16.375 212.75,16.5313 Q213.4063,16.6875 213.9688,16.9844 L213.9688,19.7031 Q213.3438,19.125 212.75,18.8594 Q212.1563,18.5781 211.5313,18.5781 Q210.1875,18.5781 209.5,19.6563 Q208.8125,20.7188 208.8125,22.8125 Q208.8125,24.9063 209.5,25.9844 Q210.1875,27.0469 211.5313,27.0469 Q212.1563,27.0469 212.75,26.7813 Q213.3438,26.5 213.9688,25.9219 L213.9688,28.6406 Z " fill="#000000"/><text fill="#000000" font-family="sans-serif" font-size="14" lengthAdjust="spacing" textLength="36.251" x="225" y="27.8467">Input</text><line style="stroke:#181818;stroke-width:0.5;" x1="197" x2="263.251" y1="39" y2="39"/><line style="stroke:#181818;stroke-width:0.5;" x1="197" x2="263.251" y1="47" y2="47"/></g><!--class Output--><g class="entity" data-qualified-name="Output" data-source-line="23" id="ent0047"><rect fill="#F1F1F1" height="48" rx="2.5" ry="2.5" style="stroke:#181818;stroke-width:0.5;" width="80.6309" x="299.5" y="7"/><ellipse cx="314.5" cy="23" fill="#ADD1B2" rx="11" ry="11" style="stroke:#181818;stroke-width:1;"/><path d="M317.4688,28.6406 Q316.8906,28.9375 316.25,29.0781 Q315.6094,29.2344 314.9063,29.2344 Q312.4063,29.2344 311.0781,27.5938 Q309.7656,25.9375 309.7656,22.8125 Q309.7656,19.6875 311.0781,18.0313 Q312.4063,16.375 314.9063,16.375 Q315.6094,16.375 316.25,16.5313 Q316.9063,16.6875 317.4688,16.9844 L317.4688,19.7031 Q316.8438,19.125 316.25,18.8594 Q315.6563,18.5781 315.0313,18.5781 Q313.6875,18.5781 313,19.6563 Q312.3125,20.7188 312.3125,22.8125 Q312.3125,24.9063 313,25.9844 Q313.6875,27.0469 315.0313,27.0469 Q315.6563,27.0469 316.25,26.7813 Q316.8438,26.5 317.4688,25.9219 L317.4688,28.6406 Z " fill="#000000"/><text fill="#000000" font-family="sans-serif" font-size="14" lengthAdjust="spacing" textLength="48.6309" x="328.5" y="27.8467">Output</text><line style="stroke:#181818;stroke-width:0.5;" x1="300.5" x2="379.1309" y1="39" y2="39"/><line style="stroke:#181818;stroke-width:0.5;" x1="300.5" x2="379.1309" y1="47" y2="47"/></g><!--class Result--><g class="entity" data-qualified-name="Result" data-source-line="24" id="ent0048"><rect fill="#F1F1F1" height="48" rx="2.5" ry="2.5" style="stroke:#181818;stroke-width:0.5;" width="75.8867" x="46" y="115"/><ellipse cx="61" cy="131" fill="#ADD1B2" rx="11" ry="11" style="stroke:#181818;stroke-width:1;"/><path d="M63.9688,136.6406 Q63.3906,136.9375 62.75,137.0781 Q62.1094,137.2344 61.4063,137.2344 Q58.9063,137.2344 57.5781,135.5938 Q56.2656,133.9375 56.2656,130.8125 Q56.2656,127.6875 57.5781,126.0313 Q58.9063,124.375 61.4063,124.375 Q62.1094,124.375 62.75,124.5313 Q63.4063,124.6875 63.9688,124.9844 L63.9688,127.7031 Q63.3438,127.125 62.75,126.8594 Q62.1563,126.5781 61.5313,126.5781 Q60.1875,126.5781 59.5,127.6563 Q58.8125,128.7188 58.8125,130.8125 Q58.8125,132.9063 59.5,133.9844 Q60.1875,135.0469 61.5313,135.0469 Q62.1563,135.0469 62.75,134.7813 Q63.3438,134.5 63.9688,133.9219 L63.9688,136.6406 Z " fill="#000000"/><text fill="#000000" font-family="sans-serif" font-size="14" lengthAdjust="spacing" textLength="43.8867" x="75" y="135.8467">Result</text><line style="stroke:#181818;stroke-width:0.5;" x1="47" x2="120.8867" y1="147" y2="147"/><line style="stroke:#181818;stroke-width:0.5;" x1="47" x2="120.8867" y1="155" y2="155"/></g><!--class FeatureOfInterest--><g class="entity" data-qualified-name="FeatureOfInterest" data-source-line="25" id="ent0049"><rect fill="#F1F1F1" height="48" rx="2.5" ry="2.5" style="stroke:#181818;stroke-width:0.5;" width="156.1816" x="157" y="115"/><ellipse cx="172" cy="131" fill="#ADD1B2" rx="11" ry="11" style="stroke:#181818;stroke-width:1;"/><path d="M174.9688,136.6406 Q174.3906,136.9375 173.75,137.0781 Q173.1094,137.2344 172.4063,137.2344 Q169.9063,137.2344 168.5781,135.5938 Q167.2656,133.9375 167.2656,130.8125 Q167.2656,127.6875 168.5781,126.0313 Q169.9063,124.375 172.4063,124.375 Q173.1094,124.375 173.75,124.5313 Q174.4063,124.6875 174.9688,124.9844 L174.9688,127.7031 Q174.3438,127.125 173.75,126.8594 Q173.1563,126.5781 172.5313,126.5781 Q171.1875,126.5781 170.5,127.6563 Q169.8125,128.7188 169.8125,130.8125 Q169.8125,132.9063 170.5,133.9844 Q171.1875,135.0469 172.5313,135.0469 Q173.1563,135.0469 173.75,134.7813 Q174.3438,134.5 174.9688,133.9219 L174.9688,136.6406 Z " fill="#000000"/><text fill="#000000" font-family="sans-serif" font-size="14" lengthAdjust="spacing" textLength="124.1816" x="186" y="135.8467">FeatureOfInterest</text><line style="stroke:#181818;stroke-width:0.5;" x1="158" x2="312.1816" y1="147" y2="147"/><line style="stroke:#181818;stroke-width:0.5;" x1="158" x2="312.1816" y1="155" y2="155"/></g><!--class Stimulus--><g class="entity" data-qualified-name="Stimulus" data-source-line="26" id="ent0050"><rect fill="#F1F1F1" height="48" rx="2.5" ry="2.5" style="stroke:#181818;stroke-width:0.5;" width="92.833" x="348.5" y="115"/><ellipse cx="363.5" cy="131" fill="#ADD1B2" rx="11" ry="11" style="stroke:#181818;stroke-width:1;"/><path d="M366.4688,136.6406 Q365.8906,136.9375 365.25,137.0781 Q364.6094,137.2344 363.9063,137.2344 Q361.4063,137.2344 360.0781,135.5938 Q358.7656,133.9375 358.7656,130.8125 Q358.7656,127.6875 360.0781,126.0313 Q361.4063,124.375 363.9063,124.375 Q364.6094,124.375 365.25,124.5313 Q365.9063,124.6875 366.4688,124.9844 L366.4688,127.7031 Q365.8438,127.125 365.25,126.8594 Q364.6563,126.5781 364.0313,126.5781 Q362.6875,126.5781 362,127.6563 Q361.3125,128.7188 361.3125,130.8125 Q361.3125,132.9063 362,133.9844 Q362.6875,135.0469 364.0313,135.0469 Q364.6563,135.0469 365.25,134.7813 Q365.8438,134.5 366.4688,133.9219 L366.4688,136.6406 Z " fill="#000000"/><text fill="#000000" font-family="sans-serif" font-size="14" lengthAdjust="spacing" textLength="60.833" x="377.5" y="135.8467">Stimulus</text><line style="stroke:#181818;stroke-width:0.5;" x1="349.5" x2="440.333" y1="147" y2="147"/><line style="stroke:#181818;stroke-width:0.5;" x1="349.5" x2="440.333" y1="155" y2="155"/></g><!--class Deployment--><g class="entity" data-qualified-name="Deployment" data-source-line="28" id="ent0051"><rect fill="#F1F1F1" height="48" rx="2.5" ry="2.5" style="stroke:#181818;stroke-width:0.5;" width="117.6338" x="25" y="223"/><ellipse cx="40" cy="239" fill="#ADD1B2" rx="11" ry="11" style="stroke:#181818;stroke-width:1;"/><path d="M42.9688,244.6406 Q42.3906,244.9375 41.75,245.0781 Q41.1094,245.2344 40.4063,245.2344 Q37.9063,245.2344 36.5781,243.5938 Q35.2656,241.9375 35.2656,238.8125 Q35.2656,235.6875 36.5781,234.0313 Q37.9063,232.375 40.4063,232.375 Q41.1094,232.375 41.75,232.5313 Q42.4063,232.6875 42.9688,232.9844 L42.9688,235.7031 Q42.3438,235.125 41.75,234.8594 Q41.1563,234.5781 40.5313,234.5781 Q39.1875,234.5781 38.5,235.6563 Q37.8125,236.7188 37.8125,238.8125 Q37.8125,240.9063 38.5,241.9844 Q39.1875,243.0469 40.5313,243.0469 Q41.1563,243.0469 41.75,242.7813 Q42.3438,242.5 42.9688,241.9219 L42.9688,244.6406 Z " fill="#000000"/><text fill="#000000" font-family="sans-serif" font-size="14" lengthAdjust="spacing" textLength="85.6338" x="54" y="243.8467">Deployment</text><line style="stroke:#181818;stroke-width:0.5;" x1="26" x2="141.6338" y1="255" y2="255"/><line style="stroke:#181818;stroke-width:0.5;" x1="26" x2="141.6338" y1="263" y2="263"/></g><!--reverse link Property to ActuatableProperty--><g class="link" data-entity-1="ent0001" data-entity-2="ent0002" data-link-type="extension" data-source-line="1" id="lnk3"><path codeLine="1" d="M627.3905,67.9716 C610.4005,85.6316 599.51,96.94 582.44,114.68" fill="none" id="Property-backto-ActuatableProperty" style="stroke:#181818;stroke-width:1;"/><polygon fill="none" points="639.87,55,623.0667,63.8118,631.7144,72.1314,639.87,55" style="stroke:#181818;stroke-width:1;stroke-linejoin:miter;stroke-miterlimit:10;"/></g><!--reverse link Sample to MaterialSample--><g class="link" data-entity-1="ent0004" data-entity-2="ent0005" data-link-type="extension" data-source-line="2" id="lnk6"><path codeLine="2" d="M1076.3567,64.4445 C1047.6067,82.1645 1023.35,97.11 994.55,114.86" fill="none" id="Sample-backto-MaterialSample" style="stroke:#181818;stroke-width:1;"/><polygon fill="none" points="1091.68,55,1073.2086,59.3367,1079.5049,69.5522,1091.68,55" style="stroke:#181818;stroke-width:1;stroke-linejoin:miter;stroke-miterlimit:10;"/></g><!--reverse link Sample to SpatialSample--><g class="link" data-entity-1="ent0004" data-entity-2="ent0007" data-link-type="extension" data-source-line="3" id="lnk8"><path codeLine="3" d="M1129,73 C1129,90.66 1129,96.94 1129,114.68" fill="none" id="Sample-backto-SpatialSample" style="stroke:#181818;stroke-width:1;"/><polygon fill="none" points="1129,55,1123,73,1135,73,1129,55" style="stroke:#181818;stroke-width:1;stroke-linejoin:miter;stroke-miterlimit:10;"/></g><!--reverse link Sample to StatisticalSample--><g class="link" data-entity-1="ent0004" data-entity-2="ent0009" data-link-type="extension" data-source-line="4" id="lnk10"><path codeLine="4" d="M1183.3276,64.1725 C1213.2476,81.8925 1238.95,97.11 1268.93,114.86" fill="none" id="Sample-backto-StatisticalSample" style="stroke:#181818;stroke-width:1;"/><polygon fill="none" points="1167.84,55,1180.2701,69.335,1186.3851,59.0099,1167.84,55" style="stroke:#181818;stroke-width:1;stroke-linejoin:miter;stroke-miterlimit:10;"/></g><!--reverse link Property to ObservableProperty--><g class="link" data-entity-1="ent0001" data-entity-2="ent0011" data-link-type="extension" data-source-line="5" id="lnk12"><path codeLine="5" d="M696.8939,67.9094 C714.0539,85.5694 725.1,96.94 742.34,114.68" fill="none" id="Property-backto-ObservableProperty" style="stroke:#181818;stroke-width:1;"/><polygon fill="none" points="684.35,55,692.5907,72.0906,701.197,63.7281,684.35,55" style="stroke:#181818;stroke-width:1;stroke-linejoin:miter;stroke-miterlimit:10;"/></g><!--reverse link Procedure to ActuatingProcedure--><g class="link" data-entity-1="ent0013" data-entity-2="ent0014" data-link-type="extension" data-source-line="6" id="lnk15"><path codeLine="6" d="M1652.8326,63.1732 C1618.0626,80.8932 1586.24,97.11 1551.4,114.86" fill="none" id="Procedure-backto-ActuatingProcedure" style="stroke:#181818;stroke-width:1;"/><polygon fill="none" points="1668.87,55,1650.1082,57.8274,1655.557,68.519,1668.87,55" style="stroke:#181818;stroke-width:1;stroke-linejoin:miter;stroke-miterlimit:10;"/></g><!--reverse link Procedure to ObservingProcedure--><g class="link" data-entity-1="ent0013" data-entity-2="ent0016" data-link-type="extension" data-source-line="7" id="lnk17"><path codeLine="7" d="M1714,73 C1714,90.66 1714,96.94 1714,114.68" fill="none" id="Procedure-backto-ObservingProcedure" style="stroke:#181818;stroke-width:1;"/><polygon fill="none" points="1714,55,1708,73,1720,73,1714,55" style="stroke:#181818;stroke-width:1;stroke-linejoin:miter;stroke-miterlimit:10;"/></g><!--reverse link Procedure to SamplingProcedure--><g class="link" data-entity-1="ent0013" data-entity-2="ent0018" data-link-type="extension" data-source-line="8" id="lnk19"><path codeLine="8" d="M1774.9411,63.205 C1809.5411,80.925 1841.15,97.11 1875.81,114.86" fill="none" id="Procedure-backto-SamplingProcedure" style="stroke:#181818;stroke-width:1;"/><polygon fill="none" points="1758.92,55,1772.2061,68.5454,1777.6762,57.8647,1758.92,55" style="stroke:#181818;stroke-width:1;stroke-linejoin:miter;stroke-miterlimit:10;"/></g><!--reverse link Asset to Platform--><g class="link" data-entity-1="ent0020" data-entity-2="ent0021" data-link-type="extension" data-source-line="9" id="lnk22"><path codeLine="9" d="M2124.7839,70.6022 C2114.6239,88.2622 2109.63,96.94 2099.42,114.68" fill="none" id="Asset-backto-Platform" style="stroke:#181818;stroke-width:1;"/><polygon fill="none" points="2133.76,55,2119.5831,67.6102,2129.9846,73.5943,2133.76,55" style="stroke:#181818;stroke-width:1;stroke-linejoin:miter;stroke-miterlimit:10;"/></g><!--reverse link System to Sampler--><g class="link" data-entity-1="ent0023" data-entity-2="ent0024" data-link-type="extension" data-source-line="10" id="lnk25"><path codeLine="10" d="M2167.8865,174.5884 C2146.8965,192.2484 2131.81,204.94 2110.72,222.68" fill="none" id="System-backto-Sampler" style="stroke:#181818;stroke-width:1;"/><polygon fill="none" points="2181.66,163,2164.0237,169.9972,2171.7493,179.1795,2181.66,163" style="stroke:#181818;stroke-width:1;stroke-linejoin:miter;stroke-miterlimit:10;"/></g><!--reverse link System to Actuator--><g class="link" data-entity-1="ent0023" data-entity-2="ent0026" data-link-type="extension" data-source-line="11" id="lnk27"><path codeLine="11" d="M2209,181 C2209,198.66 2209,204.94 2209,222.68" fill="none" id="System-backto-Actuator" style="stroke:#181818;stroke-width:1;"/><polygon fill="none" points="2209,163,2203,181,2215,181,2209,163" style="stroke:#181818;stroke-width:1;stroke-linejoin:miter;stroke-miterlimit:10;"/></g><!--reverse link Asset to System--><g class="link" data-entity-1="ent0020" data-entity-2="ent0023" data-link-type="extension" data-source-line="12" id="lnk28"><path codeLine="12" d="M2169.5383,70.5372 C2179.8683,88.1972 2184.98,96.94 2195.36,114.68" fill="none" id="Asset-backto-System" style="stroke:#181818;stroke-width:1;"/><polygon fill="none" points="2160.45,55,2164.3592,73.5666,2174.7173,67.5077,2160.45,55" style="stroke:#181818;stroke-width:1;stroke-linejoin:miter;stroke-miterlimit:10;"/></g><!--reverse link Execution to Sampling--><g class="link" data-entity-1="ent0029" data-entity-2="ent0030" data-link-type="extension" data-source-line="13" id="lnk31"><path codeLine="13" d="M2425.8041,66.1688 C2403.4841,83.8288 2386.91,96.94 2364.48,114.68" fill="none" id="Execution-backto-Sampling" style="stroke:#181818;stroke-width:1;"/><polygon fill="none" points="2439.92,55,2422.0812,61.4635,2429.527,70.8741,2439.92,55" style="stroke:#181818;stroke-width:1;stroke-linejoin:miter;stroke-miterlimit:10;"/></g><!--reverse link ExecutionCollection to SamplingCollection--><g class="link" data-entity-1="ent0032" data-entity-2="ent0033" data-link-type="extension" data-source-line="14" id="lnk34"><path codeLine="14" d="M2931.231,63.3636 C2897.461,81.0836 2866.93,97.11 2833.09,114.86" fill="none" id="ExecutionCollection-backto-SamplingCollection" style="stroke:#181818;stroke-width:1;"/><polygon fill="none" points="2947.17,55,2928.4432,58.0506,2934.0189,68.6766,2947.17,55" style="stroke:#181818;stroke-width:1;stroke-linejoin:miter;stroke-miterlimit:10;"/></g><!--reverse link Execution to Actuation--><g class="link" data-entity-1="ent0029" data-entity-2="ent0035" data-link-type="extension" data-source-line="15" id="lnk36"><path codeLine="15" d="M2469,73 C2469,90.66 2469,96.94 2469,114.68" fill="none" id="Execution-backto-Actuation" style="stroke:#181818;stroke-width:1;"/><polygon fill="none" points="2469,55,2463,73,2475,73,2469,55" style="stroke:#181818;stroke-width:1;stroke-linejoin:miter;stroke-miterlimit:10;"/></g><!--reverse link System to Sensor--><g class="link" data-entity-1="ent0023" data-entity-2="ent0037" data-link-type="extension" data-source-line="16" id="lnk38"><path codeLine="16" d="M2248.7968,174.864 C2268.9468,192.524 2283.13,204.94 2303.38,222.68" fill="none" id="System-backto-Sensor" style="stroke:#181818;stroke-width:1;"/><polygon fill="none" points="2235.26,163,2244.8421,179.3763,2252.7515,170.3518,2235.26,163" style="stroke:#181818;stroke-width:1;stroke-linejoin:miter;stroke-miterlimit:10;"/></g><!--reverse link ExecutionCollection to ActuationCollection--><g class="link" data-entity-1="ent0032" data-entity-2="ent0039" data-link-type="extension" data-source-line="17" id="lnk40"><path codeLine="17" d="M2991,73 C2991,90.66 2991,96.94 2991,114.68" fill="none" id="ExecutionCollection-backto-ActuationCollection" style="stroke:#181818;stroke-width:1;"/><polygon fill="none" points="2991,55,2985,73,2997,73,2991,55" style="stroke:#181818;stroke-width:1;stroke-linejoin:miter;stroke-miterlimit:10;"/></g><!--reverse link ExecutionCollection to ObservationCollection--><g class="link" data-entity-1="ent0032" data-entity-2="ent0041" data-link-type="extension" data-source-line="18" id="lnk42"><path codeLine="18" d="M3053.0997,63.0498 C3088.5397,80.7698 3121.22,97.11 3156.72,114.86" fill="none" id="ExecutionCollection-backto-ObservationCollection" style="stroke:#181818;stroke-width:1;"/><polygon fill="none" points="3037,55,3050.4164,68.4164,3055.783,57.6833,3037,55" style="stroke:#181818;stroke-width:1;stroke-linejoin:miter;stroke-miterlimit:10;"/></g><!--reverse link Execution to Observation--><g class="link" data-entity-1="ent0029" data-entity-2="ent0043" data-link-type="extension" data-source-line="19" id="lnk44"><path codeLine="19" d="M2514.4895,65.7202 C2538.3095,83.3802 2556.61,96.94 2580.54,114.68" fill="none" id="Execution-backto-Observation" style="stroke:#181818;stroke-width:1;"/><polygon fill="none" points="2500.03,55,2510.9161,70.54,2518.0629,60.9004,2500.03,55" style="stroke:#181818;stroke-width:1;stroke-linejoin:miter;stroke-miterlimit:10;"/></g><?plantuml-src VP99RiCm34NtFaKka1ja4xGDa4LWepu1epA106g0I0KrqCDNg6pPSkBknFy-1r7gWlCOPDWTVlRxtL59184hOJVgJG_64sPy0S6WWR9MeTw3R119X4MhGhkgPtjb38-gPpee_8e1brDfUo_wsf5h_EVuQrqPZime6NO4SdF1DFt0WcQHWQ7IyYGkB9CpRpw-KKNHpjRzPltD4Q5wTipwkiPuxmIgkT1occ2pRibwLNXj7fU_PNyoDOg0UTpD8YFBP-kZJ9QybXoqKMRoYHnf2au8abwZlPrj-bl89LsqYHJvTVYEdjnWq4xsydNM_1S0?></g></svg>