<svg xmlns="http://www.w3.org/2000/svg" xmlns:xlink="http://www.w3.org/1999/xlink" contentStyleType="text/css" data-diagram-type="CLASS" height="286px" preserveAspectRatio="none" style="width:3192px;height:286px;background:#FFFFFF;" version="1.1" viewBox="0 0 3192 286" width="3192px" zoomAndPan="magnify"><?plantuml 1.2026.6?><defs/><g><!--class Property--><g class="entity" data-qualified-name="Property" data-source-line="1" id="ent0001"><rect fill="#F1F1F1" height="48" rx="2.5" ry="2.5" style="stroke:#181818;stroke-width:0.5;" width="91.7939" x="530" y="7"/><ellipse cx="545" cy="23" fill="#ADD1B2" rx="11" ry="11" style="stroke:#181818;stroke-width:1;"/><path d="M547.9688,28.6406 Q547.3906,28.9375 546.75,29.0781 Q546.1094,29.2344 545.4063,29.2344 Q542.9063,29.2344 541.5781,27.5938 Q540.2656,25.9375 540.2656,22.8125 Q540.2656,19.6875 541.5781,18.0313 Q542.9063,16.375 545.4063,16.375 Q546.1094,16.375 546.75,16.5313 Q547.4063,16.6875 547.9688,16.9844 L547.9688,19.7031 Q547.3438,19.125 546.75,18.8594 Q546.1563,18.5781 545.5313,18.5781 Q544.1875,18.5781 543.5,19.6563 Q542.8125,20.7188 542.8125,22.8125 Q542.8125,24.9063 543.5,25.9844 Q544.1875,27.0469 545.5313,27.0469 Q546.1563,27.0469 546.75,26.7813 Q547.3438,26.5 547.9688,25.9219 L547.9688,28.6406 Z " fill="#000000"/><text fill="#000000" font-family="sans-serif" font-size="14" lengthAdjust="spacing" textLength="59.7939" x="559" y="27.8467">Property</text><line style="stroke:#181818;stroke-width:0.5;" x1="531" x2="620.7939" y1="39" y2="39"/><line style="stroke:#181818;stroke-width:0.5;" x1="531" x2="620.7939" y1="47" y2="47"/></g><!--class ActuatableProperty--><g class="entity" data-qualified-name="ActuatableProperty" data-source-line="1" id="ent0002"><rect fill="#F1F1F1" height="48" rx="2.5" ry="2.5" style="stroke:#181818;stroke-width:0.5;" width="167.4678" x="357.5" y="115"/><ellipse cx="372.5" cy="131" fill="#ADD1B2" rx="11" ry="11" style="stroke:#181818;stroke-width:1;"/><path d="M375.4688,136.6406 Q374.8906,136.9375 374.25,137.0781 Q373.6094,137.2344 372.9063,137.2344 Q370.4063,137.2344 369.0781,135.5938 Q367.7656,133.9375 367.7656,130.8125 Q367.7656,127.6875 369.0781,126.0313 Q370.4063,124.375 372.9063,124.375 Q373.6094,124.375 374.25,124.5313 Q374.9063,124.6875 375.4688,124.9844 L375.4688,127.7031 Q374.8438,127.125 374.25,126.8594 Q373.6563,126.5781 373.0313,126.5781 Q371.6875,126.5781 371,127.6563 Q370.3125,128.7188 370.3125,130.8125 Q370.3125,132.9063 371,133.9844 Q371.6875,135.0469 373.0313,135.0469 Q373.6563,135.0469 374.25,134.7813 Q374.8438,134.5 375.4688,133.9219 L375.4688,136.6406 Z " fill="#000000"/><text fill="#000000" font-family="sans-serif" font-size="14" lengthAdjust="spacing" textLength="135.4678" x="386.5" y="135.8467">ActuatableProperty</text><line style="stroke:#181818;stroke-width:0.5;" x1="358.5" x2="523.9678" y1="147" y2="147"/><line style="stroke:#181818;stroke-width:0.5;" x1="358.5" x2="523.9678" y1="155" y2="155"/></g><!--class Sample--><g class="entity" data-qualified-name="Sample" data-source-line="2" id="ent0004"><rect fill="#F1F1F1" height="48" rx="2.5" ry="2.5" style="stroke:#181818;stroke-width:0.5;" width="84.4932" x="968" y="7"/><ellipse cx="983" cy="23" fill="#ADD1B2" rx="11" ry="11" style="stroke:#181818;stroke-width:1;"/><path d="M985.9688,28.6406 Q985.3906,28.9375 984.75,29.0781 Q984.1094,29.2344 983.4063,29.2344 Q980.9063,29.2344 979.5781,27.5938 Q978.2656,25.9375 978.2656,22.8125 Q978.2656,19.6875 979.5781,18.0313 Q980.9063,16.375 983.4063,16.375 Q984.1094,16.375 984.75,16.5313 Q985.4063,16.6875 985.9688,16.9844 L985.9688,19.7031 Q985.3438,19.125 984.75,18.8594 Q984.1563,18.5781 983.5313,18.5781 Q982.1875,18.5781 981.5,19.6563 Q980.8125,20.7188 980.8125,22.8125 Q980.8125,24.9063 981.5,25.9844 Q982.1875,27.0469 983.5313,27.0469 Q984.1563,27.0469 984.75,26.7813 Q985.3438,26.5 985.9688,25.9219 L985.9688,28.6406 Z " fill="#000000"/><text fill="#000000" font-family="sans-serif" font-size="14" lengthAdjust="spacing" textLength="52.4932" x="997" y="27.8467">Sample</text><line style="stroke:#181818;stroke-width:0.5;" x1="969" x2="1051.4932" y1="39" y2="39"/><line style="stroke:#181818;stroke-width:0.5;" x1="969" x2="1051.4932" y1="47" y2="47"/></g><!--class MaterialSample--><g class="entity" data-qualified-name="MaterialSample" data-source-line="2" id="ent0005"><rect fill="#F1F1F1" height="48" rx="2.5" ry="2.5" style="stroke:#181818;stroke-width:0.5;" width="141.3682" x="767.5" y="115"/><ellipse cx="782.5" cy="131" fill="#ADD1B2" rx="11" ry="11" style="stroke:#181818;stroke-width:1;"/><path d="M785.4688,136.6406 Q784.8906,136.9375 784.25,137.0781 Q783.6094,137.2344 782.9063,137.2344 Q780.4063,137.2344 779.0781,135.5938 Q777.7656,133.9375 777.7656,130.8125 Q777.7656,127.6875 779.0781,126.0313 Q780.4063,124.375 782.9063,124.375 Q783.6094,124.375 784.25,124.5313 Q784.9063,124.6875 785.4688,124.9844 L785.4688,127.7031 Q784.8438,127.125 784.25,126.8594 Q783.6563,126.5781 783.0313,126.5781 Q781.6875,126.5781 781,127.6563 Q780.3125,128.7188 780.3125,130.8125 Q780.3125,132.9063 781,133.9844 Q781.6875,135.0469 783.0313,135.0469 Q783.6563,135.0469 784.25,134.7813 Q784.8438,134.5 785.4688,133.9219 L785.4688,136.6406 Z " fill="#000000"/><text fill="#000000" font-family="sans-serif" font-size="14" lengthAdjust="spacing" textLength="109.3682" x="796.5" y="135.8467">MaterialSample</text><line style="stroke:#181818;stroke-width:0.5;" x1="768.5" x2="907.8682" y1="147" y2="147"/><line style="stroke:#181818;stroke-width:0.5;" x1="768.5" x2="907.8682" y1="155" y2="155"/></g><!--class ObservableProperty--><g class="entity" data-qualified-name="ObservableProperty" data-source-line="3" id="ent0007"><rect fill="#F1F1F1" height="48" rx="2.5" ry="2.5" style="stroke:#181818;stroke-width:0.5;" width="171.6172" x="560" y="115"/><ellipse cx="575" cy="131" fill="#ADD1B2" rx="11" ry="11" style="stroke:#181818;stroke-width:1;"/><path d="M577.9688,136.6406 Q577.3906,136.9375 576.75,137.0781 Q576.1094,137.2344 575.4063,137.2344 Q572.9063,137.2344 571.5781,135.5938 Q570.2656,133.9375 570.2656,130.8125 Q570.2656,127.6875 571.5781,126.0313 Q572.9063,124.375 575.4063,124.375 Q576.1094,124.375 576.75,124.5313 Q577.4063,124.6875 577.9688,124.9844 L577.9688,127.7031 Q577.3438,127.125 576.75,126.8594 Q576.1563,126.5781 575.5313,126.5781 Q574.1875,126.5781 573.5,127.6563 Q572.8125,128.7188 572.8125,130.8125 Q572.8125,132.9063 573.5,133.9844 Q574.1875,135.0469 575.5313,135.0469 Q576.1563,135.0469 576.75,134.7813 Q577.3438,134.5 577.9688,133.9219 L577.9688,136.6406 Z " fill="#000000"/><text fill="#000000" font-family="sans-serif" font-size="14" lengthAdjust="spacing" textLength="139.6172" x="589" y="135.8467">ObservableProperty</text><line style="stroke:#181818;stroke-width:0.5;" x1="561" x2="730.6172" y1="147" y2="147"/><line style="stroke:#181818;stroke-width:0.5;" x1="561" x2="730.6172" y1="155" y2="155"/></g><!--class SpatialSample--><g class="entity" data-qualified-name="SpatialSample" data-source-line="4" id="ent0009"><rect fill="#F1F1F1" height="48" rx="2.5" ry="2.5" style="stroke:#181818;stroke-width:0.5;" width="132.6934" x="943.5" y="115"/><ellipse cx="958.5" cy="131" fill="#ADD1B2" rx="11" ry="11" style="stroke:#181818;stroke-width:1;"/><path d="M961.4688,136.6406 Q960.8906,136.9375 960.25,137.0781 Q959.6094,137.2344 958.9063,137.2344 Q956.4063,137.2344 955.0781,135.5938 Q953.7656,133.9375 953.7656,130.8125 Q953.7656,127.6875 955.0781,126.0313 Q956.4063,124.375 958.9063,124.375 Q959.6094,124.375 960.25,124.5313 Q960.9063,124.6875 961.4688,124.9844 L961.4688,127.7031 Q960.8438,127.125 960.25,126.8594 Q959.6563,126.5781 959.0313,126.5781 Q957.6875,126.5781 957,127.6563 Q956.3125,128.7188 956.3125,130.8125 Q956.3125,132.9063 957,133.9844 Q957.6875,135.0469 959.0313,135.0469 Q959.6563,135.0469 960.25,134.7813 Q960.8438,134.5 961.4688,133.9219 L961.4688,136.6406 Z " fill="#000000"/><text fill="#000000" font-family="sans-serif" font-size="14" lengthAdjust="spacing" textLength="100.6934" x="972.5" y="135.8467">SpatialSample</text><line style="stroke:#181818;stroke-width:0.5;" x1="944.5" x2="1075.1934" y1="147" y2="147"/><line style="stroke:#181818;stroke-width:0.5;" x1="944.5" x2="1075.1934" y1="155" y2="155"/></g><!--class StatisticalSample--><g class="entity" data-qualified-name="StatisticalSample" data-source-line="5" id="ent0011"><rect fill="#F1F1F1" height="48" rx="2.5" ry="2.5" style="stroke:#181818;stroke-width:0.5;" width="153.666" x="1112" y="115"/><ellipse cx="1127" cy="131" fill="#ADD1B2" rx="11" ry="11" style="stroke:#181818;stroke-width:1;"/><path d="M1129.9688,136.6406 Q1129.3906,136.9375 1128.75,137.0781 Q1128.1094,137.2344 1127.4063,137.2344 Q1124.9063,137.2344 1123.5781,135.5938 Q1122.2656,133.9375 1122.2656,130.8125 Q1122.2656,127.6875 1123.5781,126.0313 Q1124.9063,124.375 1127.4063,124.375 Q1128.1094,124.375 1128.75,124.5313 Q1129.4063,124.6875 1129.9688,124.9844 L1129.9688,127.7031 Q1129.3438,127.125 1128.75,126.8594 Q1128.1563,126.5781 1127.5313,126.5781 Q1126.1875,126.5781 1125.5,127.6563 Q1124.8125,128.7188 1124.8125,130.8125 Q1124.8125,132.9063 1125.5,133.9844 Q1126.1875,135.0469 1127.5313,135.0469 Q1128.1563,135.0469 1128.75,134.7813 Q1129.3438,134.5 1129.9688,133.9219 L1129.9688,136.6406 Z " fill="#000000"/><text fill="#000000" font-family="sans-serif" font-size="14" lengthAdjust="spacing" textLength="121.666" x="1141" y="135.8467">StatisticalSample</text><line style="stroke:#181818;stroke-width:0.5;" x1="1113" x2="1264.666" y1="147" y2="147"/><line style="stroke:#181818;stroke-width:0.5;" x1="1113" x2="1264.666" y1="155" y2="155"/></g><!--class Procedure--><g class="entity" data-qualified-name="Procedure" data-source-line="6" id="ent0013"><rect fill="#F1F1F1" height="48" rx="2.5" ry="2.5" style="stroke:#181818;stroke-width:0.5;" width="103.2031" x="1543.5" y="7"/><ellipse cx="1558.5" cy="23" fill="#ADD1B2" rx="11" ry="11" style="stroke:#181818;stroke-width:1;"/><path d="M1561.4688,28.6406 Q1560.8906,28.9375 1560.25,29.0781 Q1559.6094,29.2344 1558.9063,29.2344 Q1556.4063,29.2344 1555.0781,27.5938 Q1553.7656,25.9375 1553.7656,22.8125 Q1553.7656,19.6875 1555.0781,18.0313 Q1556.4063,16.375 1558.9063,16.375 Q1559.6094,16.375 1560.25,16.5313 Q1560.9063,16.6875 1561.4688,16.9844 L1561.4688,19.7031 Q1560.8438,19.125 1560.25,18.8594 Q1559.6563,18.5781 1559.0313,18.5781 Q1557.6875,18.5781 1557,19.6563 Q1556.3125,20.7188 1556.3125,22.8125 Q1556.3125,24.9063 1557,25.9844 Q1557.6875,27.0469 1559.0313,27.0469 Q1559.6563,27.0469 1560.25,26.7813 Q1560.8438,26.5 1561.4688,25.9219 L1561.4688,28.6406 Z " fill="#000000"/><text fill="#000000" font-family="sans-serif" font-size="14" lengthAdjust="spacing" textLength="71.2031" x="1572.5" y="27.8467">Procedure</text><line style="stroke:#181818;stroke-width:0.5;" x1="1544.5" x2="1645.7031" y1="39" y2="39"/><line style="stroke:#181818;stroke-width:0.5;" x1="1544.5" x2="1645.7031" y1="47" y2="47"/></g><!--class ActuatingProcedure--><g class="entity" data-qualified-name="ActuatingProcedure" data-source-line="6" id="ent0014"><rect fill="#F1F1F1" height="48" rx="2.5" ry="2.5" style="stroke:#181818;stroke-width:0.5;" width="170.5576" x="1301.5" y="115"/><ellipse cx="1316.5" cy="131" fill="#ADD1B2" rx="11" ry="11" style="stroke:#181818;stroke-width:1;"/><path d="M1319.4688,136.6406 Q1318.8906,136.9375 1318.25,137.0781 Q1317.6094,137.2344 1316.9063,137.2344 Q1314.4063,137.2344 1313.0781,135.5938 Q1311.7656,133.9375 1311.7656,130.8125 Q1311.7656,127.6875 1313.0781,126.0313 Q1314.4063,124.375 1316.9063,124.375 Q1317.6094,124.375 1318.25,124.5313 Q1318.9063,124.6875 1319.4688,124.9844 L1319.4688,127.7031 Q1318.8438,127.125 1318.25,126.8594 Q1317.6563,126.5781 1317.0313,126.5781 Q1315.6875,126.5781 1315,127.6563 Q1314.3125,128.7188 1314.3125,130.8125 Q1314.3125,132.9063 1315,133.9844 Q1315.6875,135.0469 1317.0313,135.0469 Q1317.6563,135.0469 1318.25,134.7813 Q1318.8438,134.5 1319.4688,133.9219 L1319.4688,136.6406 Z " fill="#000000"/><text fill="#000000" font-family="sans-serif" font-size="14" lengthAdjust="spacing" textLength="138.5576" x="1330.5" y="135.8467">ActuatingProcedure</text><line style="stroke:#181818;stroke-width:0.5;" x1="1302.5" x2="1471.0576" y1="147" y2="147"/><line style="stroke:#181818;stroke-width:0.5;" x1="1302.5" x2="1471.0576" y1="155" y2="155"/></g><!--class ObservingProcedure--><g class="entity" data-qualified-name="ObservingProcedure" data-source-line="7" id="ent0016"><rect fill="#F1F1F1" height="48" rx="2.5" ry="2.5" style="stroke:#181818;stroke-width:0.5;" width="174.707" x="1507.5" y="115"/><ellipse cx="1522.5" cy="131" fill="#ADD1B2" rx="11" ry="11" style="stroke:#181818;stroke-width:1;"/><path d="M1525.4688,136.6406 Q1524.8906,136.9375 1524.25,137.0781 Q1523.6094,137.2344 1522.9063,137.2344 Q1520.4063,137.2344 1519.0781,135.5938 Q1517.7656,133.9375 1517.7656,130.8125 Q1517.7656,127.6875 1519.0781,126.0313 Q1520.4063,124.375 1522.9063,124.375 Q1523.6094,124.375 1524.25,124.5313 Q1524.9063,124.6875 1525.4688,124.9844 L1525.4688,127.7031 Q1524.8438,127.125 1524.25,126.8594 Q1523.6563,126.5781 1523.0313,126.5781 Q1521.6875,126.5781 1521,127.6563 Q1520.3125,128.7188 1520.3125,130.8125 Q1520.3125,132.9063 1521,133.9844 Q1521.6875,135.0469 1523.0313,135.0469 Q1523.6563,135.0469 1524.25,134.7813 Q1524.8438,134.5 1525.4688,133.9219 L1525.4688,136.6406 Z " fill="#000000"/><text fill="#000000" font-family="sans-serif" font-size="14" lengthAdjust="spacing" textLength="142.707" x="1536.5" y="135.8467">ObservingProcedure</text><line style="stroke:#181818;stroke-width:0.5;" x1="1508.5" x2="1681.207" y1="147" y2="147"/><line style="stroke:#181818;stroke-width:0.5;" x1="1508.5" x2="1681.207" y1="155" y2="155"/></g><!--class SamplingProcedure--><g class="entity" data-qualified-name="SamplingProcedure" data-source-line="8" id="ent0018"><rect fill="#F1F1F1" height="48" rx="2.5" ry="2.5" style="stroke:#181818;stroke-width:0.5;" width="168.7324" x="1717.5" y="115"/><ellipse cx="1732.5" cy="131" fill="#ADD1B2" rx="11" ry="11" style="stroke:#181818;stroke-width:1;"/><path d="M1735.4688,136.6406 Q1734.8906,136.9375 1734.25,137.0781 Q1733.6094,137.2344 1732.9063,137.2344 Q1730.4063,137.2344 1729.0781,135.5938 Q1727.7656,133.9375 1727.7656,130.8125 Q1727.7656,127.6875 1729.0781,126.0313 Q1730.4063,124.375 1732.9063,124.375 Q1733.6094,124.375 1734.25,124.5313 Q1734.9063,124.6875 1735.4688,124.9844 L1735.4688,127.7031 Q1734.8438,127.125 1734.25,126.8594 Q1733.6563,126.5781 1733.0313,126.5781 Q1731.6875,126.5781 1731,127.6563 Q1730.3125,128.7188 1730.3125,130.8125 Q1730.3125,132.9063 1731,133.9844 Q1731.6875,135.0469 1733.0313,135.0469 Q1733.6563,135.0469 1734.25,134.7813 Q1734.8438,134.5 1735.4688,133.9219 L1735.4688,136.6406 Z " fill="#000000"/><text fill="#000000" font-family="sans-serif" font-size="14" lengthAdjust="spacing" textLength="136.7324" x="1746.5" y="135.8467">SamplingProcedure</text><line style="stroke:#181818;stroke-width:0.5;" x1="1718.5" x2="1885.2324" y1="147" y2="147"/><line style="stroke:#181818;stroke-width:0.5;" x1="1718.5" x2="1885.2324" y1="155" y2="155"/></g><!--class Asset--><g class="entity" data-qualified-name="Asset" data-source-line="9" id="ent0020"><rect fill="#F1F1F1" height="48" rx="2.5" ry="2.5" style="stroke:#181818;stroke-width:0.5;" width="70.2676" x="1993" y="7"/><ellipse cx="2008" cy="23" fill="#ADD1B2" rx="11" ry="11" style="stroke:#181818;stroke-width:1;"/><path d="M2010.9688,28.6406 Q2010.3906,28.9375 2009.75,29.0781 Q2009.1094,29.2344 2008.4063,29.2344 Q2005.9063,29.2344 2004.5781,27.5938 Q2003.2656,25.9375 2003.2656,22.8125 Q2003.2656,19.6875 2004.5781,18.0313 Q2005.9063,16.375 2008.4063,16.375 Q2009.1094,16.375 2009.75,16.5313 Q2010.4063,16.6875 2010.9688,16.9844 L2010.9688,19.7031 Q2010.3438,19.125 2009.75,18.8594 Q2009.1563,18.5781 2008.5313,18.5781 Q2007.1875,18.5781 2006.5,19.6563 Q2005.8125,20.7188 2005.8125,22.8125 Q2005.8125,24.9063 2006.5,25.9844 Q2007.1875,27.0469 2008.5313,27.0469 Q2009.1563,27.0469 2009.75,26.7813 Q2010.3438,26.5 2010.9688,25.9219 L2010.9688,28.6406 Z " fill="#000000"/><text fill="#000000" font-family="sans-serif" font-size="14" lengthAdjust="spacing" textLength="38.2676" x="2022" y="27.8467">Asset</text><line style="stroke:#181818;stroke-width:0.5;" x1="1994" x2="2062.2676" y1="39" y2="39"/><line style="stroke:#181818;stroke-width:0.5;" x1="1994" x2="2062.2676" y1="47" y2="47"/></g><!--class Platform--><g class="entity" data-qualified-name="Platform" data-source-line="9" id="ent0021"><rect fill="#F1F1F1" height="48" rx="2.5" ry="2.5" style="stroke:#181818;stroke-width:0.5;" width="91.2881" x="1921.5" y="115"/><ellipse cx="1936.5" cy="131" fill="#ADD1B2" rx="11" ry="11" style="stroke:#181818;stroke-width:1;"/><path d="M1939.4688,136.6406 Q1938.8906,136.9375 1938.25,137.0781 Q1937.6094,137.2344 1936.9063,137.2344 Q1934.4063,137.2344 1933.0781,135.5938 Q1931.7656,133.9375 1931.7656,130.8125 Q1931.7656,127.6875 1933.0781,126.0313 Q1934.4063,124.375 1936.9063,124.375 Q1937.6094,124.375 1938.25,124.5313 Q1938.9063,124.6875 1939.4688,124.9844 L1939.4688,127.7031 Q1938.8438,127.125 1938.25,126.8594 Q1937.6563,126.5781 1937.0313,126.5781 Q1935.6875,126.5781 1935,127.6563 Q1934.3125,128.7188 1934.3125,130.8125 Q1934.3125,132.9063 1935,133.9844 Q1935.6875,135.0469 1937.0313,135.0469 Q1937.6563,135.0469 1938.25,134.7813 Q1938.8438,134.5 1939.4688,133.9219 L1939.4688,136.6406 Z " fill="#000000"/><text fill="#000000" font-family="sans-serif" font-size="14" lengthAdjust="spacing" textLength="59.2881" x="1950.5" y="135.8467">Platform</text><line style="stroke:#181818;stroke-width:0.5;" x1="1922.5" x2="2011.7881" y1="147" y2="147"/><line style="stroke:#181818;stroke-width:0.5;" x1="1922.5" x2="2011.7881" y1="155" y2="155"/></g><!--class System--><g class="entity" data-qualified-name="System" data-source-line="10" id="ent0023"><rect fill="#F1F1F1" height="48" rx="2.5" ry="2.5" style="stroke:#181818;stroke-width:0.5;" width="84.2061" x="2048" y="115"/><ellipse cx="2063" cy="131" fill="#ADD1B2" rx="11" ry="11" style="stroke:#181818;stroke-width:1;"/><path d="M2065.9688,136.6406 Q2065.3906,136.9375 2064.75,137.0781 Q2064.1094,137.2344 2063.4063,137.2344 Q2060.9063,137.2344 2059.5781,135.5938 Q2058.2656,133.9375 2058.2656,130.8125 Q2058.2656,127.6875 2059.5781,126.0313 Q2060.9063,124.375 2063.4063,124.375 Q2064.1094,124.375 2064.75,124.5313 Q2065.4063,124.6875 2065.9688,124.9844 L2065.9688,127.7031 Q2065.3438,127.125 2064.75,126.8594 Q2064.1563,126.5781 2063.5313,126.5781 Q2062.1875,126.5781 2061.5,127.6563 Q2060.8125,128.7188 2060.8125,130.8125 Q2060.8125,132.9063 2061.5,133.9844 Q2062.1875,135.0469 2063.5313,135.0469 Q2064.1563,135.0469 2064.75,134.7813 Q2065.3438,134.5 2065.9688,133.9219 L2065.9688,136.6406 Z " fill="#000000"/><text fill="#000000" font-family="sans-serif" font-size="14" lengthAdjust="spacing" textLength="52.2061" x="2077" y="135.8467">System</text><line style="stroke:#181818;stroke-width:0.5;" x1="2049" x2="2131.2061" y1="147" y2="147"/><line style="stroke:#181818;stroke-width:0.5;" x1="2049" x2="2131.2061" y1="155" y2="155"/></g><!--class Sampler--><g class="entity" data-qualified-name="Sampler" data-source-line="10" id="ent0024"><rect fill="#F1F1F1" height="48" rx="2.5" ry="2.5" style="stroke:#181818;stroke-width:0.5;" width="90.249" x="1919" y="223"/><ellipse cx="1934" cy="239" fill="#ADD1B2" rx="11" ry="11" style="stroke:#181818;stroke-width:1;"/><path d="M1936.9688,244.6406 Q1936.3906,244.9375 1935.75,245.0781 Q1935.1094,245.2344 1934.4063,245.2344 Q1931.9063,245.2344 1930.5781,243.5938 Q1929.2656,241.9375 1929.2656,238.8125 Q1929.2656,235.6875 1930.5781,234.0313 Q1931.9063,232.375 1934.4063,232.375 Q1935.1094,232.375 1935.75,232.5313 Q1936.4063,232.6875 1936.9688,232.9844 L1936.9688,235.7031 Q1936.3438,235.125 1935.75,234.8594 Q1935.1563,234.5781 1934.5313,234.5781 Q1933.1875,234.5781 1932.5,235.6563 Q1931.8125,236.7188 1931.8125,238.8125 Q1931.8125,240.9063 1932.5,241.9844 Q1933.1875,243.0469 1934.5313,243.0469 Q1935.1563,243.0469 1935.75,242.7813 Q1936.3438,242.5 1936.9688,241.9219 L1936.9688,244.6406 Z " fill="#000000"/><text fill="#000000" font-family="sans-serif" font-size="14" lengthAdjust="spacing" textLength="58.249" x="1948" y="243.8467">Sampler</text><line style="stroke:#181818;stroke-width:0.5;" x1="1920" x2="2008.249" y1="255" y2="255"/><line style="stroke:#181818;stroke-width:0.5;" x1="1920" x2="2008.249" y1="263" y2="263"/></g><!--class Actuator--><g class="entity" data-qualified-name="Actuator" data-source-line="11" id="ent0026"><rect fill="#F1F1F1" height="48" rx="2.5" ry="2.5" style="stroke:#181818;stroke-width:0.5;" width="92.0264" x="2044" y="223"/><ellipse cx="2059" cy="239" fill="#ADD1B2" rx="11" ry="11" style="stroke:#181818;stroke-width:1;"/><path d="M2061.9688,244.6406 Q2061.3906,244.9375 2060.75,245.0781 Q2060.1094,245.2344 2059.4063,245.2344 Q2056.9063,245.2344 2055.5781,243.5938 Q2054.2656,241.9375 2054.2656,238.8125 Q2054.2656,235.6875 2055.5781,234.0313 Q2056.9063,232.375 2059.4063,232.375 Q2060.1094,232.375 2060.75,232.5313 Q2061.4063,232.6875 2061.9688,232.9844 L2061.9688,235.7031 Q2061.3438,235.125 2060.75,234.8594 Q2060.1563,234.5781 2059.5313,234.5781 Q2058.1875,234.5781 2057.5,235.6563 Q2056.8125,236.7188 2056.8125,238.8125 Q2056.8125,240.9063 2057.5,241.9844 Q2058.1875,243.0469 2059.5313,243.0469 Q2060.1563,243.0469 2060.75,242.7813 Q2061.3438,242.5 2061.9688,241.9219 L2061.9688,244.6406 Z " fill="#000000"/><text fill="#000000" font-family="sans-serif" font-size="14" lengthAdjust="spacing" textLength="60.0264" x="2073" y="243.8467">Actuator</text><line style="stroke:#181818;stroke-width:0.5;" x1="2045" x2="2135.0264" y1="255" y2="255"/><line style="stroke:#181818;stroke-width:0.5;" x1="2045" x2="2135.0264" y1="263" y2="263"/></g><!--class ExecutionCollection--><g class="entity" data-qualified-name="ExecutionCollection" data-source-line="12" id="ent0028"><rect fill="#F1F1F1" height="48" rx="2.5" ry="2.5" style="stroke:#181818;stroke-width:0.5;" width="170.3799" x="2368" y="7"/><ellipse cx="2383" cy="23" fill="#ADD1B2" rx="11" ry="11" style="stroke:#181818;stroke-width:1;"/><path d="M2385.9688,28.6406 Q2385.3906,28.9375 2384.75,29.0781 Q2384.1094,29.2344 2383.4063,29.2344 Q2380.9063,29.2344 2379.5781,27.5938 Q2378.2656,25.9375 2378.2656,22.8125 Q2378.2656,19.6875 2379.5781,18.0313 Q2380.9063,16.375 2383.4063,16.375 Q2384.1094,16.375 2384.75,16.5313 Q2385.4063,16.6875 2385.9688,16.9844 L2385.9688,19.7031 Q2385.3438,19.125 2384.75,18.8594 Q2384.1563,18.5781 2383.5313,18.5781 Q2382.1875,18.5781 2381.5,19.6563 Q2380.8125,20.7188 2380.8125,22.8125 Q2380.8125,24.9063 2381.5,25.9844 Q2382.1875,27.0469 2383.5313,27.0469 Q2384.1563,27.0469 2384.75,26.7813 Q2385.3438,26.5 2385.9688,25.9219 L2385.9688,28.6406 Z " fill="#000000"/><text fill="#000000" font-family="sans-serif" font-size="14" lengthAdjust="spacing" textLength="138.3799" x="2397" y="27.8467">ExecutionCollection</text><line style="stroke:#181818;stroke-width:0.5;" x1="2369" x2="2537.3799" y1="39" y2="39"/><line style="stroke:#181818;stroke-width:0.5;" x1="2369" x2="2537.3799" y1="47" y2="47"/></g><!--class SamplingCollection--><g class="entity" data-qualified-name="SamplingCollection" data-source-line="12" id="ent0029"><rect fill="#F1F1F1" height="48" rx="2.5" ry="2.5" style="stroke:#181818;stroke-width:0.5;" width="166.7773" x="2167.5" y="115"/><ellipse cx="2182.5" cy="131" fill="#ADD1B2" rx="11" ry="11" style="stroke:#181818;stroke-width:1;"/><path d="M2185.4688,136.6406 Q2184.8906,136.9375 2184.25,137.0781 Q2183.6094,137.2344 2182.9063,137.2344 Q2180.4063,137.2344 2179.0781,135.5938 Q2177.7656,133.9375 2177.7656,130.8125 Q2177.7656,127.6875 2179.0781,126.0313 Q2180.4063,124.375 2182.9063,124.375 Q2183.6094,124.375 2184.25,124.5313 Q2184.9063,124.6875 2185.4688,124.9844 L2185.4688,127.7031 Q2184.8438,127.125 2184.25,126.8594 Q2183.6563,126.5781 2183.0313,126.5781 Q2181.6875,126.5781 2181,127.6563 Q2180.3125,128.7188 2180.3125,130.8125 Q2180.3125,132.9063 2181,133.9844 Q2181.6875,135.0469 2183.0313,135.0469 Q2183.6563,135.0469 2184.25,134.7813 Q2184.8438,134.5 2185.4688,133.9219 L2185.4688,136.6406 Z " fill="#000000"/><text fill="#000000" font-family="sans-serif" font-size="14" lengthAdjust="spacing" textLength="134.7773" x="2196.5" y="135.8467">SamplingCollection</text><line style="stroke:#181818;stroke-width:0.5;" x1="2168.5" x2="2333.2773" y1="147" y2="147"/><line style="stroke:#181818;stroke-width:0.5;" x1="2168.5" x2="2333.2773" y1="155" y2="155"/></g><!--class Sensor--><g class="entity" data-qualified-name="Sensor" data-source-line="14" id="ent0032"><rect fill="#F1F1F1" height="48" rx="2.5" ry="2.5" style="stroke:#181818;stroke-width:0.5;" width="79.9883" x="2171" y="223"/><ellipse cx="2186" cy="239" fill="#ADD1B2" rx="11" ry="11" style="stroke:#181818;stroke-width:1;"/><path d="M2188.9688,244.6406 Q2188.3906,244.9375 2187.75,245.0781 Q2187.1094,245.2344 2186.4063,245.2344 Q2183.9063,245.2344 2182.5781,243.5938 Q2181.2656,241.9375 2181.2656,238.8125 Q2181.2656,235.6875 2182.5781,234.0313 Q2183.9063,232.375 2186.4063,232.375 Q2187.1094,232.375 2187.75,232.5313 Q2188.4063,232.6875 2188.9688,232.9844 L2188.9688,235.7031 Q2188.3438,235.125 2187.75,234.8594 Q2187.1563,234.5781 2186.5313,234.5781 Q2185.1875,234.5781 2184.5,235.6563 Q2183.8125,236.7188 2183.8125,238.8125 Q2183.8125,240.9063 2184.5,241.9844 Q2185.1875,243.0469 2186.5313,243.0469 Q2187.1563,243.0469 2187.75,242.7813 Q2188.3438,242.5 2188.9688,241.9219 L2188.9688,244.6406 Z " fill="#000000"/><text fill="#000000" font-family="sans-serif" font-size="14" lengthAdjust="spacing" textLength="47.9883" x="2200" y="243.8467">Sensor</text><line style="stroke:#181818;stroke-width:0.5;" x1="2172" x2="2249.9883" y1="255" y2="255"/><line style="stroke:#181818;stroke-width:0.5;" x1="2172" x2="2249.9883" y1="263" y2="263"/></g><!--class Execution--><g class="entity" data-qualified-name="Execution" data-source-line="15" id="ent0034"><rect fill="#F1F1F1" height="48" rx="2.5" ry="2.5" style="stroke:#181818;stroke-width:0.5;" width="101.1318" x="2925.5" y="7"/><ellipse cx="2940.5" cy="23" fill="#ADD1B2" rx="11" ry="11" style="stroke:#181818;stroke-width:1;"/><path d="M2943.4688,28.6406 Q2942.8906,28.9375 2942.25,29.0781 Q2941.6094,29.2344 2940.9063,29.2344 Q2938.4063,29.2344 2937.0781,27.5938 Q2935.7656,25.9375 2935.7656,22.8125 Q2935.7656,19.6875 2937.0781,18.0313 Q2938.4063,16.375 2940.9063,16.375 Q2941.6094,16.375 2942.25,16.5313 Q2942.9063,16.6875 2943.4688,16.9844 L2943.4688,19.7031 Q2942.8438,19.125 2942.25,18.8594 Q2941.6563,18.5781 2941.0313,18.5781 Q2939.6875,18.5781 2939,19.6563 Q2938.3125,20.7188 2938.3125,22.8125 Q2938.3125,24.9063 2939,25.9844 Q2939.6875,27.0469 2941.0313,27.0469 Q2941.6563,27.0469 2942.25,26.7813 Q2942.8438,26.5 2943.4688,25.9219 L2943.4688,28.6406 Z " fill="#000000"/><text fill="#000000" font-family="sans-serif" font-size="14" lengthAdjust="spacing" textLength="69.1318" x="2954.5" y="27.8467">Execution</text><line style="stroke:#181818;stroke-width:0.5;" x1="2926.5" x2="3025.6318" y1="39" y2="39"/><line style="stroke:#181818;stroke-width:0.5;" x1="2926.5" x2="3025.6318" y1="47" y2="47"/></g><!--class Sampling--><g class="entity" data-qualified-name="Sampling" data-source-line="15" id="ent0035"><rect fill="#F1F1F1" height="48" rx="2.5" ry="2.5" style="stroke:#181818;stroke-width:0.5;" width="97.5293" x="2793" y="115"/><ellipse cx="2808" cy="131" fill="#ADD1B2" rx="11" ry="11" style="stroke:#181818;stroke-width:1;"/><path d="M2810.9688,136.6406 Q2810.3906,136.9375 2809.75,137.0781 Q2809.1094,137.2344 2808.4063,137.2344 Q2805.9063,137.2344 2804.5781,135.5938 Q2803.2656,133.9375 2803.2656,130.8125 Q2803.2656,127.6875 2804.5781,126.0313 Q2805.9063,124.375 2808.4063,124.375 Q2809.1094,124.375 2809.75,124.5313 Q2810.4063,124.6875 2810.9688,124.9844 L2810.9688,127.7031 Q2810.3438,127.125 2809.75,126.8594 Q2809.1563,126.5781 2808.5313,126.5781 Q2807.1875,126.5781 2806.5,127.6563 Q2805.8125,128.7188 2805.8125,130.8125 Q2805.8125,132.9063 2806.5,133.9844 Q2807.1875,135.0469 2808.5313,135.0469 Q2809.1563,135.0469 2809.75,134.7813 Q2810.3438,134.5 2810.9688,133.9219 L2810.9688,136.6406 Z " fill="#000000"/><text fill="#000000" font-family="sans-serif" font-size="14" lengthAdjust="spacing" textLength="65.5293" x="2822" y="135.8467">Sampling</text><line style="stroke:#181818;stroke-width:0.5;" x1="2794" x2="2889.5293" y1="147" y2="147"/><line style="stroke:#181818;stroke-width:0.5;" x1="2794" x2="2889.5293" y1="155" y2="155"/></g><!--class Actuation--><g class="entity" data-qualified-name="Actuation" data-source-line="16" id="ent0037"><rect fill="#F1F1F1" height="48" rx="2.5" ry="2.5" style="stroke:#181818;stroke-width:0.5;" width="99.0332" x="2926.5" y="115"/><ellipse cx="2941.5" cy="131" fill="#ADD1B2" rx="11" ry="11" style="stroke:#181818;stroke-width:1;"/><path d="M2944.4688,136.6406 Q2943.8906,136.9375 2943.25,137.0781 Q2942.6094,137.2344 2941.9063,137.2344 Q2939.4063,137.2344 2938.0781,135.5938 Q2936.7656,133.9375 2936.7656,130.8125 Q2936.7656,127.6875 2938.0781,126.0313 Q2939.4063,124.375 2941.9063,124.375 Q2942.6094,124.375 2943.25,124.5313 Q2943.9063,124.6875 2944.4688,124.9844 L2944.4688,127.7031 Q2943.8438,127.125 2943.25,126.8594 Q2942.6563,126.5781 2942.0313,126.5781 Q2940.6875,126.5781 2940,127.6563 Q2939.3125,128.7188 2939.3125,130.8125 Q2939.3125,132.9063 2940,133.9844 Q2940.6875,135.0469 2942.0313,135.0469 Q2942.6563,135.0469 2943.25,134.7813 Q2943.8438,134.5 2944.4688,133.9219 L2944.4688,136.6406 Z " fill="#000000"/><text fill="#000000" font-family="sans-serif" font-size="14" lengthAdjust="spacing" textLength="67.0332" x="2955.5" y="135.8467">Actuation</text><line style="stroke:#181818;stroke-width:0.5;" x1="2927.5" x2="3024.5332" y1="147" y2="147"/><line style="stroke:#181818;stroke-width:0.5;" x1="2927.5" x2="3024.5332" y1="155" y2="155"/></g><!--class ActuationCollection--><g class="entity" data-qualified-name="ActuationCollection" data-source-line="17" id="ent0039"><rect fill="#F1F1F1" height="48" rx="2.5" ry="2.5" style="stroke:#181818;stroke-width:0.5;" width="168.2813" x="2369" y="115"/><ellipse cx="2384" cy="131" fill="#ADD1B2" rx="11" ry="11" style="stroke:#181818;stroke-width:1;"/><path d="M2386.9688,136.6406 Q2386.3906,136.9375 2385.75,137.0781 Q2385.1094,137.2344 2384.4063,137.2344 Q2381.9063,137.2344 2380.5781,135.5938 Q2379.2656,133.9375 2379.2656,130.8125 Q2379.2656,127.6875 2380.5781,126.0313 Q2381.9063,124.375 2384.4063,124.375 Q2385.1094,124.375 2385.75,124.5313 Q2386.4063,124.6875 2386.9688,124.9844 L2386.9688,127.7031 Q2386.3438,127.125 2385.75,126.8594 Q2385.1563,126.5781 2384.5313,126.5781 Q2383.1875,126.5781 2382.5,127.6563 Q2381.8125,128.7188 2381.8125,130.8125 Q2381.8125,132.9063 2382.5,133.9844 Q2383.1875,135.0469 2384.5313,135.0469 Q2385.1563,135.0469 2385.75,134.7813 Q2386.3438,134.5 2386.9688,133.9219 L2386.9688,136.6406 Z " fill="#000000"/><text fill="#000000" font-family="sans-serif" font-size="14" lengthAdjust="spacing" textLength="136.2813" x="2398" y="135.8467">ActuationCollection</text><line style="stroke:#181818;stroke-width:0.5;" x1="2370" x2="2536.2813" y1="147" y2="147"/><line style="stroke:#181818;stroke-width:0.5;" x1="2370" x2="2536.2813" y1="155" y2="155"/></g><!--class ObservationCollection--><g class="entity" data-qualified-name="ObservationCollection" data-source-line="18" id="ent0041"><rect fill="#F1F1F1" height="48" rx="2.5" ry="2.5" style="stroke:#181818;stroke-width:0.5;" width="186.499" x="2572" y="115"/><ellipse cx="2587" cy="131" fill="#ADD1B2" rx="11" ry="11" style="stroke:#181818;stroke-width:1;"/><path d="M2589.9688,136.6406 Q2589.3906,136.9375 2588.75,137.0781 Q2588.1094,137.2344 2587.4063,137.2344 Q2584.9063,137.2344 2583.5781,135.5938 Q2582.2656,133.9375 2582.2656,130.8125 Q2582.2656,127.6875 2583.5781,126.0313 Q2584.9063,124.375 2587.4063,124.375 Q2588.1094,124.375 2588.75,124.5313 Q2589.4063,124.6875 2589.9688,124.9844 L2589.9688,127.7031 Q2589.3438,127.125 2588.75,126.8594 Q2588.1563,126.5781 2587.5313,126.5781 Q2586.1875,126.5781 2585.5,127.6563 Q2584.8125,128.7188 2584.8125,130.8125 Q2584.8125,132.9063 2585.5,133.9844 Q2586.1875,135.0469 2587.5313,135.0469 Q2588.1563,135.0469 2588.75,134.7813 Q2589.3438,134.5 2589.9688,133.9219 L2589.9688,136.6406 Z " fill="#000000"/><text fill="#000000" font-family="sans-serif" font-size="14" lengthAdjust="spacing" textLength="154.499" x="2601" y="135.8467">ObservationCollection</text><line style="stroke:#181818;stroke-width:0.5;" x1="2573" x2="2757.499" y1="147" y2="147"/><line style="stroke:#181818;stroke-width:0.5;" x1="2573" x2="2757.499" y1="155" y2="155"/></g><!--class Observation--><g class="entity" data-qualified-name="Observation" data-source-line="19" id="ent0043"><rect fill="#F1F1F1" height="48" rx="2.5" ry="2.5" style="stroke:#181818;stroke-width:0.5;" width="117.251" x="3060.5" y="115"/><ellipse cx="3075.5" cy="131" fill="#ADD1B2" rx="11" ry="11" style="stroke:#181818;stroke-width:1;"/><path d="M3078.4688,136.6406 Q3077.8906,136.9375 3077.25,137.0781 Q3076.6094,137.2344 3075.9063,137.2344 Q3073.4063,137.2344 3072.0781,135.5938 Q3070.7656,133.9375 3070.7656,130.8125 Q3070.7656,127.6875 3072.0781,126.0313 Q3073.4063,124.375 3075.9063,124.375 Q3076.6094,124.375 3077.25,124.5313 Q3077.9063,124.6875 3078.4688,124.9844 L3078.4688,127.7031 Q3077.8438,127.125 3077.25,126.8594 Q3076.6563,126.5781 3076.0313,126.5781 Q3074.6875,126.5781 3074,127.6563 Q3073.3125,128.7188 3073.3125,130.8125 Q3073.3125,132.9063 3074,133.9844 Q3074.6875,135.0469 3076.0313,135.0469 Q3076.6563,135.0469 3077.25,134.7813 Q3077.8438,134.5 3078.4688,133.9219 L3078.4688,136.6406 Z " fill="#000000"/><text fill="#000000" font-family="sans-serif" font-size="14" lengthAdjust="spacing" textLength="85.251" x="3089.5" y="135.8467">Observation</text><line style="stroke:#181818;stroke-width:0.5;" x1="3061.5" x2="3176.751" y1="147" y2="147"/><line style="stroke:#181818;stroke-width:0.5;" x1="3061.5" x2="3176.751" y1="155" y2="155"/></g><!--class SampleCollection--><g class="entity" data-qualified-name="SampleCollection" data-source-line="20" id="ent0045"><rect fill="#F1F1F1" height="48" rx="2.5" ry="2.5" style="stroke:#181818;stroke-width:0.5;" width="153.7412" x="7" y="7"/><ellipse cx="22" cy="23" fill="#ADD1B2" rx="11" ry="11" style="stroke:#181818;stroke-width:1;"/><path d="M24.9688,28.6406 Q24.3906,28.9375 23.75,29.0781 Q23.1094,29.2344 22.4063,29.2344 Q19.9063,29.2344 18.5781,27.5938 Q17.2656,25.9375 17.2656,22.8125 Q17.2656,19.6875 18.5781,18.0313 Q19.9063,16.375 22.4063,16.375 Q23.1094,16.375 23.75,16.5313 Q24.4063,16.6875 24.9688,16.9844 L24.9688,19.7031 Q24.3438,19.125 23.75,18.8594 Q23.1563,18.5781 22.5313,18.5781 Q21.1875,18.5781 20.5,19.6563 Q19.8125,20.7188 19.8125,22.8125 Q19.8125,24.9063 20.5,25.9844 Q21.1875,27.0469 22.5313,27.0469 Q23.1563,27.0469 23.75,26.7813 Q24.3438,26.5 24.9688,25.9219 L24.9688,28.6406 Z " fill="#000000"/><text fill="#000000" font-family="sans-serif" font-size="14" lengthAdjust="spacing" textLength="121.7412" x="36" y="27.8467">SampleCollection</text><line style="stroke:#181818;stroke-width:0.5;" x1="8" x2="159.7412" y1="39" y2="39"/><line style="stroke:#181818;stroke-width:0.5;" x1="8" x2="159.7412" y1="47" y2="47"/></g><!--class Deployment--><g class="entity" data-qualified-name="Deployment" data-source-line="21" id="ent0046"><rect fill="#F1F1F1" height="48" rx="2.5" ry="2.5" style="stroke:#181818;stroke-width:0.5;" width="117.6338" x="196" y="7"/><ellipse cx="211" cy="23" fill="#ADD1B2" rx="11" ry="11" style="stroke:#181818;stroke-width:1;"/><path d="M213.9688,28.6406 Q213.3906,28.9375 212.75,29.0781 Q212.1094,29.2344 211.4063,29.2344 Q208.9063,29.2344 207.5781,27.5938 Q206.2656,25.9375 206.2656,22.8125 Q206.2656,19.6875 207.5781,18.0313 Q208.9063,16.375 211.4063,16.375 Q212.1094,16.375 212.75,16.5313 Q213.4063,16.6875 213.9688,16.9844 L213.9688,19.7031 Q213.3438,19.125 212.75,18.8594 Q212.1563,18.5781 211.5313,18.5781 Q210.1875,18.5781 209.5,19.6563 Q208.8125,20.7188 208.8125,22.8125 Q208.8125,24.9063 209.5,25.9844 Q210.1875,27.0469 211.5313,27.0469 Q212.1563,27.0469 212.75,26.7813 Q213.3438,26.5 213.9688,25.9219 L213.9688,28.6406 Z " fill="#000000"/><text fill="#000000" font-family="sans-serif" font-size="14" lengthAdjust="spacing" textLength="85.6338" x="225" y="27.8467">Deployment</text><line style="stroke:#181818;stroke-width:0.5;" x1="197" x2="312.6338" y1="39" y2="39"/><line style="stroke:#181818;stroke-width:0.5;" x1="197" x2="312.6338" y1="47" y2="47"/></g><!--class Result--><g class="entity" data-qualified-name="Result" data-source-line="22" id="ent0047"><rect fill="#F1F1F1" height="48" rx="2.5" ry="2.5" style="stroke:#181818;stroke-width:0.5;" width="75.8867" x="349" y="7"/><ellipse cx="364" cy="23" fill="#ADD1B2" rx="11" ry="11" style="stroke:#181818;stroke-width:1;"/><path d="M366.9688,28.6406 Q366.3906,28.9375 365.75,29.0781 Q365.1094,29.2344 364.4063,29.2344 Q361.9063,29.2344 360.5781,27.5938 Q359.2656,25.9375 359.2656,22.8125 Q359.2656,19.6875 360.5781,18.0313 Q361.9063,16.375 364.4063,16.375 Q365.1094,16.375 365.75,16.5313 Q366.4063,16.6875 366.9688,16.9844 L366.9688,19.7031 Q366.3438,19.125 365.75,18.8594 Q365.1563,18.5781 364.5313,18.5781 Q363.1875,18.5781 362.5,19.6563 Q361.8125,20.7188 361.8125,22.8125 Q361.8125,24.9063 362.5,25.9844 Q363.1875,27.0469 364.5313,27.0469 Q365.1563,27.0469 365.75,26.7813 Q366.3438,26.5 366.9688,25.9219 L366.9688,28.6406 Z " fill="#000000"/><text fill="#000000" font-family="sans-serif" font-size="14" lengthAdjust="spacing" textLength="43.8867" x="378" y="27.8467">Result</text><line style="stroke:#181818;stroke-width:0.5;" x1="350" x2="423.8867" y1="39" y2="39"/><line style="stroke:#181818;stroke-width:0.5;" x1="350" x2="423.8867" y1="47" y2="47"/></g><!--class Stimulus--><g class="entity" data-qualified-name="Stimulus" data-source-line="23" id="ent0048"><rect fill="#F1F1F1" height="48" rx="2.5" ry="2.5" style="stroke:#181818;stroke-width:0.5;" width="92.833" x="37.5" y="115"/><ellipse cx="52.5" cy="131" fill="#ADD1B2" rx="11" ry="11" style="stroke:#181818;stroke-width:1;"/><path d="M55.4688,136.6406 Q54.8906,136.9375 54.25,137.0781 Q53.6094,137.2344 52.9063,137.2344 Q50.4063,137.2344 49.0781,135.5938 Q47.7656,133.9375 47.7656,130.8125 Q47.7656,127.6875 49.0781,126.0313 Q50.4063,124.375 52.9063,124.375 Q53.6094,124.375 54.25,124.5313 Q54.9063,124.6875 55.4688,124.9844 L55.4688,127.7031 Q54.8438,127.125 54.25,126.8594 Q53.6563,126.5781 53.0313,126.5781 Q51.6875,126.5781 51,127.6563 Q50.3125,128.7188 50.3125,130.8125 Q50.3125,132.9063 51,133.9844 Q51.6875,135.0469 53.0313,135.0469 Q53.6563,135.0469 54.25,134.7813 Q54.8438,134.5 55.4688,133.9219 L55.4688,136.6406 Z " fill="#000000"/><text fill="#000000" font-family="sans-serif" font-size="14" lengthAdjust="spacing" textLength="60.833" x="66.5" y="135.8467">Stimulus</text><line style="stroke:#181818;stroke-width:0.5;" x1="38.5" x2="129.333" y1="147" y2="147"/><line style="stroke:#181818;stroke-width:0.5;" x1="38.5" x2="129.333" y1="155" y2="155"/></g><!--class FeatureOfInterest--><g class="entity" data-qualified-name="FeatureOfInterest" data-source-line="24" id="ent0049"><rect fill="#F1F1F1" height="48" rx="2.5" ry="2.5" style="stroke:#181818;stroke-width:0.5;" width="156.1816" x="166" y="115"/><ellipse cx="181" cy="131" fill="#ADD1B2" rx="11" ry="11" style="stroke:#181818;stroke-width:1;"/><path d="M183.9688,136.6406 Q183.3906,136.9375 182.75,137.0781 Q182.1094,137.2344 181.4063,137.2344 Q178.9063,137.2344 177.5781,135.5938 Q176.2656,133.9375 176.2656,130.8125 Q176.2656,127.6875 177.5781,126.0313 Q178.9063,124.375 181.4063,124.375 Q182.1094,124.375 182.75,124.5313 Q183.4063,124.6875 183.9688,124.9844 L183.9688,127.7031 Q183.3438,127.125 182.75,126.8594 Q182.1563,126.5781 181.5313,126.5781 Q180.1875,126.5781 179.5,127.6563 Q178.8125,128.7188 178.8125,130.8125 Q178.8125,132.9063 179.5,133.9844 Q180.1875,135.0469 181.5313,135.0469 Q182.1563,135.0469 182.75,134.7813 Q183.3438,134.5 183.9688,133.9219 L183.9688,136.6406 Z " fill="#000000"/><text fill="#000000" font-family="sans-serif" font-size="14" lengthAdjust="spacing" textLength="124.1816" x="195" y="135.8467">FeatureOfInterest</text><line style="stroke:#181818;stroke-width:0.5;" x1="167" x2="321.1816" y1="147" y2="147"/><line style="stroke:#181818;stroke-width:0.5;" x1="167" x2="321.1816" y1="155" y2="155"/></g><!--reverse link Property to ActuatableProperty--><g class="link" data-entity-1="ent0001" data-entity-2="ent0002" data-link-type="extension" data-source-line="1" id="lnk3"><path codeLine="1" d="M532.553,66.1166 C510.063,83.7766 493.29,96.94 470.7,114.68" fill="none" id="Property-backto-ActuatableProperty" style="stroke:#181818;stroke-width:1;"/><polygon fill="none" points="546.71,55,528.8475,61.3976,536.2585,70.8356,546.71,55" style="stroke:#181818;stroke-width:1;stroke-linejoin:miter;stroke-miterlimit:10;"/></g><!--reverse link Sample to MaterialSample--><g class="link" data-entity-1="ent0004" data-entity-2="ent0005" data-link-type="extension" data-source-line="2" id="lnk6"><path codeLine="2" d="M957.3567,64.4445 C928.6067,82.1645 904.35,97.11 875.55,114.86" fill="none" id="Sample-backto-MaterialSample" style="stroke:#181818;stroke-width:1;"/><polygon fill="none" points="972.68,55,954.2086,59.3367,960.5049,69.5522,972.68,55" style="stroke:#181818;stroke-width:1;stroke-linejoin:miter;stroke-miterlimit:10;"/></g><!--reverse link Property to ObservableProperty--><g class="link" data-entity-1="ent0001" data-entity-2="ent0007" data-link-type="extension" data-source-line="3" id="lnk8"><path codeLine="3" d="M601.1078,70.0212 C612.7678,87.6812 618.89,96.94 630.6,114.68" fill="none" id="Property-backto-ObservableProperty" style="stroke:#181818;stroke-width:1;"/><polygon fill="none" points="591.19,55,596.1007,73.3272,606.1148,66.7153,591.19,55" style="stroke:#181818;stroke-width:1;stroke-linejoin:miter;stroke-miterlimit:10;"/></g><!--reverse link Sample to SpatialSample--><g class="link" data-entity-1="ent0004" data-entity-2="ent0009" data-link-type="extension" data-source-line="4" id="lnk10"><path codeLine="4" d="M1010,73 C1010,90.66 1010,96.94 1010,114.68" fill="none" id="Sample-backto-SpatialSample" style="stroke:#181818;stroke-width:1;"/><polygon fill="none" points="1010,55,1004,73,1016,73,1010,55" style="stroke:#181818;stroke-width:1;stroke-linejoin:miter;stroke-miterlimit:10;"/></g><!--reverse link Sample to StatisticalSample--><g class="link" data-entity-1="ent0004" data-entity-2="ent0011" data-link-type="extension" data-source-line="5" id="lnk12"><path codeLine="5" d="M1064.3276,64.1725 C1094.2476,81.8925 1119.95,97.11 1149.93,114.86" fill="none" id="Sample-backto-StatisticalSample" style="stroke:#181818;stroke-width:1;"/><polygon fill="none" points="1048.84,55,1061.2701,69.335,1067.3851,59.0099,1048.84,55" style="stroke:#181818;stroke-width:1;stroke-linejoin:miter;stroke-miterlimit:10;"/></g><!--reverse link Procedure to ActuatingProcedure--><g class="link" data-entity-1="ent0013" data-entity-2="ent0014" data-link-type="extension" data-source-line="6" id="lnk15"><path codeLine="6" d="M1533.8326,63.1732 C1499.0626,80.8932 1467.24,97.11 1432.4,114.86" fill="none" id="Procedure-backto-ActuatingProcedure" style="stroke:#181818;stroke-width:1;"/><polygon fill="none" points="1549.87,55,1531.1082,57.8274,1536.557,68.519,1549.87,55" style="stroke:#181818;stroke-width:1;stroke-linejoin:miter;stroke-miterlimit:10;"/></g><!--reverse link Procedure to ObservingProcedure--><g class="link" data-entity-1="ent0013" data-entity-2="ent0016" data-link-type="extension" data-source-line="7" id="lnk17"><path codeLine="7" d="M1595,73 C1595,90.66 1595,96.94 1595,114.68" fill="none" id="Procedure-backto-ObservingProcedure" style="stroke:#181818;stroke-width:1;"/><polygon fill="none" points="1595,55,1589,73,1601,73,1595,55" style="stroke:#181818;stroke-width:1;stroke-linejoin:miter;stroke-miterlimit:10;"/></g><!--reverse link Procedure to SamplingProcedure--><g class="link" data-entity-1="ent0013" data-entity-2="ent0018" data-link-type="extension" data-source-line="8" id="lnk19"><path codeLine="8" d="M1655.9411,63.205 C1690.5411,80.925 1722.15,97.11 1756.81,114.86" fill="none" id="Procedure-backto-SamplingProcedure" style="stroke:#181818;stroke-width:1;"/><polygon fill="none" points="1639.92,55,1653.2061,68.5454,1658.6762,57.8647,1639.92,55" style="stroke:#181818;stroke-width:1;stroke-linejoin:miter;stroke-miterlimit:10;"/></g><!--reverse link Asset to Platform--><g class="link" data-entity-1="ent0020" data-entity-2="ent0021" data-link-type="extension" data-source-line="9" id="lnk22"><path codeLine="9" d="M2005.7839,70.6022 C1995.6239,88.2622 1990.63,96.94 1980.42,114.68" fill="none" id="Asset-backto-Platform" style="stroke:#181818;stroke-width:1;"/><polygon fill="none" points="2014.76,55,2000.5831,67.6102,2010.9846,73.5943,2014.76,55" style="stroke:#181818;stroke-width:1;stroke-linejoin:miter;stroke-miterlimit:10;"/></g><!--reverse link System to Sampler--><g class="link" data-entity-1="ent0023" data-entity-2="ent0024" data-link-type="extension" data-source-line="10" id="lnk25"><path codeLine="10" d="M2048.8865,174.5884 C2027.8965,192.2484 2012.81,204.94 1991.72,222.68" fill="none" id="System-backto-Sampler" style="stroke:#181818;stroke-width:1;"/><polygon fill="none" points="2062.66,163,2045.0237,169.9972,2052.7493,179.1795,2062.66,163" style="stroke:#181818;stroke-width:1;stroke-linejoin:miter;stroke-miterlimit:10;"/></g><!--reverse link System to Actuator--><g class="link" data-entity-1="ent0023" data-entity-2="ent0026" data-link-type="extension" data-source-line="11" id="lnk27"><path codeLine="11" d="M2090,181 C2090,198.66 2090,204.94 2090,222.68" fill="none" id="System-backto-Actuator" style="stroke:#181818;stroke-width:1;"/><polygon fill="none" points="2090,163,2084,181,2096,181,2090,163" style="stroke:#181818;stroke-width:1;stroke-linejoin:miter;stroke-miterlimit:10;"/></g><!--reverse link ExecutionCollection to SamplingCollection--><g class="link" data-entity-1="ent0028" data-entity-2="ent0029" data-link-type="extension" data-source-line="12" id="lnk30"><path codeLine="12" d="M2393.231,63.3636 C2359.461,81.0836 2328.93,97.11 2295.09,114.86" fill="none" id="ExecutionCollection-backto-SamplingCollection" style="stroke:#181818;stroke-width:1;"/><polygon fill="none" points="2409.17,55,2390.4432,58.0506,2396.0189,68.6766,2409.17,55" style="stroke:#181818;stroke-width:1;stroke-linejoin:miter;stroke-miterlimit:10;"/></g><!--reverse link Asset to System--><g class="link" data-entity-1="ent0020" data-entity-2="ent0023" data-link-type="extension" data-source-line="13" id="lnk31"><path codeLine="13" d="M2050.5383,70.5372 C2060.8683,88.1972 2065.98,96.94 2076.36,114.68" fill="none" id="Asset-backto-System" style="stroke:#181818;stroke-width:1;"/><polygon fill="none" points="2041.45,55,2045.3592,73.5666,2055.7173,67.5077,2041.45,55" style="stroke:#181818;stroke-width:1;stroke-linejoin:miter;stroke-miterlimit:10;"/></g><!--reverse link System to Sensor--><g class="link" data-entity-1="ent0023" data-entity-2="ent0032" data-link-type="extension" data-source-line="14" id="lnk33"><path codeLine="14" d="M2129.7968,174.864 C2149.9468,192.524 2164.13,204.94 2184.38,222.68" fill="none" id="System-backto-Sensor" style="stroke:#181818;stroke-width:1;"/><polygon fill="none" points="2116.26,163,2125.8421,179.3763,2133.7515,170.3518,2116.26,163" style="stroke:#181818;stroke-width:1;stroke-linejoin:miter;stroke-miterlimit:10;"/></g><!--reverse link Execution to Sampling--><g class="link" data-entity-1="ent0034" data-entity-2="ent0035" data-link-type="extension" data-source-line="15" id="lnk36"><path codeLine="15" d="M2932.8041,66.1688 C2910.4841,83.8288 2893.91,96.94 2871.48,114.68" fill="none" id="Execution-backto-Sampling" style="stroke:#181818;stroke-width:1;"/><polygon fill="none" points="2946.92,55,2929.0812,61.4635,2936.527,70.8741,2946.92,55" style="stroke:#181818;stroke-width:1;stroke-linejoin:miter;stroke-miterlimit:10;"/></g><!--reverse link Execution to Actuation--><g class="link" data-entity-1="ent0034" data-entity-2="ent0037" data-link-type="extension" data-source-line="16" id="lnk38"><path codeLine="16" d="M2976,73 C2976,90.66 2976,96.94 2976,114.68" fill="none" id="Execution-backto-Actuation" style="stroke:#181818;stroke-width:1;"/><polygon fill="none" points="2976,55,2970,73,2982,73,2976,55" style="stroke:#181818;stroke-width:1;stroke-linejoin:miter;stroke-miterlimit:10;"/></g><!--reverse link ExecutionCollection to ActuationCollection--><g class="link" data-entity-1="ent0028" data-entity-2="ent0039" data-link-type="extension" data-source-line="17" id="lnk40"><path codeLine="17" d="M2453,73 C2453,90.66 2453,96.94 2453,114.68" fill="none" id="ExecutionCollection-backto-ActuationCollection" style="stroke:#181818;stroke-width:1;"/><polygon fill="none" points="2453,55,2447,73,2459,73,2453,55" style="stroke:#181818;stroke-width:1;stroke-linejoin:miter;stroke-miterlimit:10;"/></g><!--reverse link ExecutionCollection to ObservationCollection--><g class="link" data-entity-1="ent0028" data-entity-2="ent0041" data-link-type="extension" data-source-line="18" id="lnk42"><path codeLine="18" d="M2515.0997,63.0498 C2550.5397,80.7698 2583.22,97.11 2618.72,114.86" fill="none" id="ExecutionCollection-backto-ObservationCollection" style="stroke:#181818;stroke-width:1;"/><polygon fill="none" points="2499,55,2512.4164,68.4164,2517.783,57.6833,2499,55" style="stroke:#181818;stroke-width:1;stroke-linejoin:miter;stroke-miterlimit:10;"/></g><!--reverse link Execution to Observation--><g class="link" data-entity-1="ent0034" data-entity-2="ent0043" data-link-type="extension" data-source-line="19" id="lnk44"><path codeLine="19" d="M3021.4895,65.7202 C3045.3095,83.3802 3063.61,96.94 3087.54,114.68" fill="none" id="Execution-backto-Observation" style="stroke:#181818;stroke-width:1;"/><polygon fill="none" points="3007.03,55,3017.9161,70.54,3025.0629,60.9004,3007.03,55" style="stroke:#181818;stroke-width:1;stroke-linejoin:miter;stroke-miterlimit:10;"/></g><?plantuml-src VL9BRWCX3DrpYbmWD-WcwaVgeigeSmA7l5H81aROH1sfX--aq0HIJNVu-Nqico752KddpSFNThlPMSsaT60C5JSZ-ObHsc-aI8wuO6RejFk389rNjUD4UfDs7LqweiwsnXR7dD1EvSB75RzdbEp_63_E7M4d0YtDWKbFCNappgBmZGAfmyeaCPddJzYiBeR7o0nxUVKvDxmDAbvz38AqXhtDFLvNiRYkJd2bD2EiaklHrkX_ICOoYTJTD8e2Fs7YE7i4hS0x9FDlCQhpcRFKyWMaontsfzUm_2g8VWC0?></g></svg>