<svg xmlns="http://www.w3.org/2000/svg" xmlns:xlink="http://www.w3.org/1999/xlink" contentStyleType="text/css" data-diagram-type="CLASS" height="286px" preserveAspectRatio="none" style="width:3251px;height:286px;background:#FFFFFF;" version="1.1" viewBox="0 0 3251 286" width="3251px" zoomAndPan="magnify"><?plantuml 1.2026.5?><defs/><g><!--class Property--><g class="entity" data-qualified-name="Property" data-source-line="1" id="ent0001"><rect fill="#F1F1F1" height="48" rx="2.5" ry="2.5" style="stroke:#181818;stroke-width:0.5;" width="91.7939" x="579" y="7"/><ellipse cx="594" cy="23" fill="#ADD1B2" rx="11" ry="11" style="stroke:#181818;stroke-width:1;"/><path d="M596.9688,28.6406 Q596.3906,28.9375 595.75,29.0781 Q595.1094,29.2344 594.4063,29.2344 Q591.9063,29.2344 590.5781,27.5938 Q589.2656,25.9375 589.2656,22.8125 Q589.2656,19.6875 590.5781,18.0313 Q591.9063,16.375 594.4063,16.375 Q595.1094,16.375 595.75,16.5313 Q596.4063,16.6875 596.9688,16.9844 L596.9688,19.7031 Q596.3438,19.125 595.75,18.8594 Q595.1563,18.5781 594.5313,18.5781 Q593.1875,18.5781 592.5,19.6563 Q591.8125,20.7188 591.8125,22.8125 Q591.8125,24.9063 592.5,25.9844 Q593.1875,27.0469 594.5313,27.0469 Q595.1563,27.0469 595.75,26.7813 Q596.3438,26.5 596.9688,25.9219 L596.9688,28.6406 Z " fill="#000000"/><text fill="#000000" font-family="sans-serif" font-size="14" lengthAdjust="spacing" textLength="59.7939" x="608" y="27.8467">Property</text><line style="stroke:#181818;stroke-width:0.5;" x1="580" x2="669.7939" y1="39" y2="39"/><line style="stroke:#181818;stroke-width:0.5;" x1="580" x2="669.7939" y1="47" y2="47"/></g><!--class ActuatableProperty--><g class="entity" data-qualified-name="ActuatableProperty" data-source-line="1" id="ent0002"><rect fill="#F1F1F1" height="48" rx="2.5" ry="2.5" style="stroke:#181818;stroke-width:0.5;" width="167.4678" x="416.5" y="115"/><ellipse cx="431.5" cy="131" fill="#ADD1B2" rx="11" ry="11" style="stroke:#181818;stroke-width:1;"/><path d="M434.4688,136.6406 Q433.8906,136.9375 433.25,137.0781 Q432.6094,137.2344 431.9063,137.2344 Q429.4063,137.2344 428.0781,135.5938 Q426.7656,133.9375 426.7656,130.8125 Q426.7656,127.6875 428.0781,126.0313 Q429.4063,124.375 431.9063,124.375 Q432.6094,124.375 433.25,124.5313 Q433.9063,124.6875 434.4688,124.9844 L434.4688,127.7031 Q433.8438,127.125 433.25,126.8594 Q432.6563,126.5781 432.0313,126.5781 Q430.6875,126.5781 430,127.6563 Q429.3125,128.7188 429.3125,130.8125 Q429.3125,132.9063 430,133.9844 Q430.6875,135.0469 432.0313,135.0469 Q432.6563,135.0469 433.25,134.7813 Q433.8438,134.5 434.4688,133.9219 L434.4688,136.6406 Z " fill="#000000"/><text fill="#000000" font-family="sans-serif" font-size="14" lengthAdjust="spacing" textLength="135.4678" x="445.5" y="135.8467">ActuatableProperty</text><line style="stroke:#181818;stroke-width:0.5;" x1="417.5" x2="582.9678" y1="147" y2="147"/><line style="stroke:#181818;stroke-width:0.5;" x1="417.5" x2="582.9678" y1="155" y2="155"/></g><!--class Sample--><g class="entity" data-qualified-name="Sample" data-source-line="2" id="ent0004"><rect fill="#F1F1F1" height="48" rx="2.5" ry="2.5" style="stroke:#181818;stroke-width:0.5;" width="84.4932" x="1027" y="7"/><ellipse cx="1042" cy="23" fill="#ADD1B2" rx="11" ry="11" style="stroke:#181818;stroke-width:1;"/><path d="M1044.9688,28.6406 Q1044.3906,28.9375 1043.75,29.0781 Q1043.1094,29.2344 1042.4063,29.2344 Q1039.9063,29.2344 1038.5781,27.5938 Q1037.2656,25.9375 1037.2656,22.8125 Q1037.2656,19.6875 1038.5781,18.0313 Q1039.9063,16.375 1042.4063,16.375 Q1043.1094,16.375 1043.75,16.5313 Q1044.4063,16.6875 1044.9688,16.9844 L1044.9688,19.7031 Q1044.3438,19.125 1043.75,18.8594 Q1043.1563,18.5781 1042.5313,18.5781 Q1041.1875,18.5781 1040.5,19.6563 Q1039.8125,20.7188 1039.8125,22.8125 Q1039.8125,24.9063 1040.5,25.9844 Q1041.1875,27.0469 1042.5313,27.0469 Q1043.1563,27.0469 1043.75,26.7813 Q1044.3438,26.5 1044.9688,25.9219 L1044.9688,28.6406 Z " fill="#000000"/><text fill="#000000" font-family="sans-serif" font-size="14" lengthAdjust="spacing" textLength="52.4932" x="1056" y="27.8467">Sample</text><line style="stroke:#181818;stroke-width:0.5;" x1="1028" x2="1110.4932" y1="39" y2="39"/><line style="stroke:#181818;stroke-width:0.5;" x1="1028" x2="1110.4932" y1="47" y2="47"/></g><!--class MaterialSample--><g class="entity" data-qualified-name="MaterialSample" data-source-line="2" id="ent0005"><rect fill="#F1F1F1" height="48" rx="2.5" ry="2.5" style="stroke:#181818;stroke-width:0.5;" width="141.3682" x="826.5" y="115"/><ellipse cx="841.5" cy="131" fill="#ADD1B2" rx="11" ry="11" style="stroke:#181818;stroke-width:1;"/><path d="M844.4688,136.6406 Q843.8906,136.9375 843.25,137.0781 Q842.6094,137.2344 841.9063,137.2344 Q839.4063,137.2344 838.0781,135.5938 Q836.7656,133.9375 836.7656,130.8125 Q836.7656,127.6875 838.0781,126.0313 Q839.4063,124.375 841.9063,124.375 Q842.6094,124.375 843.25,124.5313 Q843.9063,124.6875 844.4688,124.9844 L844.4688,127.7031 Q843.8438,127.125 843.25,126.8594 Q842.6563,126.5781 842.0313,126.5781 Q840.6875,126.5781 840,127.6563 Q839.3125,128.7188 839.3125,130.8125 Q839.3125,132.9063 840,133.9844 Q840.6875,135.0469 842.0313,135.0469 Q842.6563,135.0469 843.25,134.7813 Q843.8438,134.5 844.4688,133.9219 L844.4688,136.6406 Z " fill="#000000"/><text fill="#000000" font-family="sans-serif" font-size="14" lengthAdjust="spacing" textLength="109.3682" x="855.5" y="135.8467">MaterialSample</text><line style="stroke:#181818;stroke-width:0.5;" x1="827.5" x2="966.8682" y1="147" y2="147"/><line style="stroke:#181818;stroke-width:0.5;" x1="827.5" x2="966.8682" y1="155" y2="155"/></g><!--class SpatialSample--><g class="entity" data-qualified-name="SpatialSample" data-source-line="3" id="ent0007"><rect fill="#F1F1F1" height="48" rx="2.5" ry="2.5" style="stroke:#181818;stroke-width:0.5;" width="132.6934" x="1002.5" y="115"/><ellipse cx="1017.5" cy="131" fill="#ADD1B2" rx="11" ry="11" style="stroke:#181818;stroke-width:1;"/><path d="M1020.4688,136.6406 Q1019.8906,136.9375 1019.25,137.0781 Q1018.6094,137.2344 1017.9063,137.2344 Q1015.4063,137.2344 1014.0781,135.5938 Q1012.7656,133.9375 1012.7656,130.8125 Q1012.7656,127.6875 1014.0781,126.0313 Q1015.4063,124.375 1017.9063,124.375 Q1018.6094,124.375 1019.25,124.5313 Q1019.9063,124.6875 1020.4688,124.9844 L1020.4688,127.7031 Q1019.8438,127.125 1019.25,126.8594 Q1018.6563,126.5781 1018.0313,126.5781 Q1016.6875,126.5781 1016,127.6563 Q1015.3125,128.7188 1015.3125,130.8125 Q1015.3125,132.9063 1016,133.9844 Q1016.6875,135.0469 1018.0313,135.0469 Q1018.6563,135.0469 1019.25,134.7813 Q1019.8438,134.5 1020.4688,133.9219 L1020.4688,136.6406 Z " fill="#000000"/><text fill="#000000" font-family="sans-serif" font-size="14" lengthAdjust="spacing" textLength="100.6934" x="1031.5" y="135.8467">SpatialSample</text><line style="stroke:#181818;stroke-width:0.5;" x1="1003.5" x2="1134.1934" y1="147" y2="147"/><line style="stroke:#181818;stroke-width:0.5;" x1="1003.5" x2="1134.1934" y1="155" y2="155"/></g><!--class StatisticalSample--><g class="entity" data-qualified-name="StatisticalSample" data-source-line="4" id="ent0009"><rect fill="#F1F1F1" height="48" rx="2.5" ry="2.5" style="stroke:#181818;stroke-width:0.5;" width="153.666" x="1171" y="115"/><ellipse cx="1186" cy="131" fill="#ADD1B2" rx="11" ry="11" style="stroke:#181818;stroke-width:1;"/><path d="M1188.9688,136.6406 Q1188.3906,136.9375 1187.75,137.0781 Q1187.1094,137.2344 1186.4063,137.2344 Q1183.9063,137.2344 1182.5781,135.5938 Q1181.2656,133.9375 1181.2656,130.8125 Q1181.2656,127.6875 1182.5781,126.0313 Q1183.9063,124.375 1186.4063,124.375 Q1187.1094,124.375 1187.75,124.5313 Q1188.4063,124.6875 1188.9688,124.9844 L1188.9688,127.7031 Q1188.3438,127.125 1187.75,126.8594 Q1187.1563,126.5781 1186.5313,126.5781 Q1185.1875,126.5781 1184.5,127.6563 Q1183.8125,128.7188 1183.8125,130.8125 Q1183.8125,132.9063 1184.5,133.9844 Q1185.1875,135.0469 1186.5313,135.0469 Q1187.1563,135.0469 1187.75,134.7813 Q1188.3438,134.5 1188.9688,133.9219 L1188.9688,136.6406 Z " fill="#000000"/><text fill="#000000" font-family="sans-serif" font-size="14" lengthAdjust="spacing" textLength="121.666" x="1200" y="135.8467">StatisticalSample</text><line style="stroke:#181818;stroke-width:0.5;" x1="1172" x2="1323.666" y1="147" y2="147"/><line style="stroke:#181818;stroke-width:0.5;" x1="1172" x2="1323.666" y1="155" y2="155"/></g><!--class ObservableProperty--><g class="entity" data-qualified-name="ObservableProperty" data-source-line="5" id="ent0011"><rect fill="#F1F1F1" height="48" rx="2.5" ry="2.5" style="stroke:#181818;stroke-width:0.5;" width="171.6172" x="619" y="115"/><ellipse cx="634" cy="131" fill="#ADD1B2" rx="11" ry="11" style="stroke:#181818;stroke-width:1;"/><path d="M636.9688,136.6406 Q636.3906,136.9375 635.75,137.0781 Q635.1094,137.2344 634.4063,137.2344 Q631.9063,137.2344 630.5781,135.5938 Q629.2656,133.9375 629.2656,130.8125 Q629.2656,127.6875 630.5781,126.0313 Q631.9063,124.375 634.4063,124.375 Q635.1094,124.375 635.75,124.5313 Q636.4063,124.6875 636.9688,124.9844 L636.9688,127.7031 Q636.3438,127.125 635.75,126.8594 Q635.1563,126.5781 634.5313,126.5781 Q633.1875,126.5781 632.5,127.6563 Q631.8125,128.7188 631.8125,130.8125 Q631.8125,132.9063 632.5,133.9844 Q633.1875,135.0469 634.5313,135.0469 Q635.1563,135.0469 635.75,134.7813 Q636.3438,134.5 636.9688,133.9219 L636.9688,136.6406 Z " fill="#000000"/><text fill="#000000" font-family="sans-serif" font-size="14" lengthAdjust="spacing" textLength="139.6172" x="648" y="135.8467">ObservableProperty</text><line style="stroke:#181818;stroke-width:0.5;" x1="620" x2="789.6172" y1="147" y2="147"/><line style="stroke:#181818;stroke-width:0.5;" x1="620" x2="789.6172" y1="155" y2="155"/></g><!--class Procedure--><g class="entity" data-qualified-name="Procedure" data-source-line="6" id="ent0013"><rect fill="#F1F1F1" height="48" rx="2.5" ry="2.5" style="stroke:#181818;stroke-width:0.5;" width="103.2031" x="1602.5" y="7"/><ellipse cx="1617.5" cy="23" fill="#ADD1B2" rx="11" ry="11" style="stroke:#181818;stroke-width:1;"/><path d="M1620.4688,28.6406 Q1619.8906,28.9375 1619.25,29.0781 Q1618.6094,29.2344 1617.9063,29.2344 Q1615.4063,29.2344 1614.0781,27.5938 Q1612.7656,25.9375 1612.7656,22.8125 Q1612.7656,19.6875 1614.0781,18.0313 Q1615.4063,16.375 1617.9063,16.375 Q1618.6094,16.375 1619.25,16.5313 Q1619.9063,16.6875 1620.4688,16.9844 L1620.4688,19.7031 Q1619.8438,19.125 1619.25,18.8594 Q1618.6563,18.5781 1618.0313,18.5781 Q1616.6875,18.5781 1616,19.6563 Q1615.3125,20.7188 1615.3125,22.8125 Q1615.3125,24.9063 1616,25.9844 Q1616.6875,27.0469 1618.0313,27.0469 Q1618.6563,27.0469 1619.25,26.7813 Q1619.8438,26.5 1620.4688,25.9219 L1620.4688,28.6406 Z " fill="#000000"/><text fill="#000000" font-family="sans-serif" font-size="14" lengthAdjust="spacing" textLength="71.2031" x="1631.5" y="27.8467">Procedure</text><line style="stroke:#181818;stroke-width:0.5;" x1="1603.5" x2="1704.7031" y1="39" y2="39"/><line style="stroke:#181818;stroke-width:0.5;" x1="1603.5" x2="1704.7031" y1="47" y2="47"/></g><!--class ActuatingProcedure--><g class="entity" data-qualified-name="ActuatingProcedure" data-source-line="6" id="ent0014"><rect fill="#F1F1F1" height="48" rx="2.5" ry="2.5" style="stroke:#181818;stroke-width:0.5;" width="170.5576" x="1360.5" y="115"/><ellipse cx="1375.5" cy="131" fill="#ADD1B2" rx="11" ry="11" style="stroke:#181818;stroke-width:1;"/><path d="M1378.4688,136.6406 Q1377.8906,136.9375 1377.25,137.0781 Q1376.6094,137.2344 1375.9063,137.2344 Q1373.4063,137.2344 1372.0781,135.5938 Q1370.7656,133.9375 1370.7656,130.8125 Q1370.7656,127.6875 1372.0781,126.0313 Q1373.4063,124.375 1375.9063,124.375 Q1376.6094,124.375 1377.25,124.5313 Q1377.9063,124.6875 1378.4688,124.9844 L1378.4688,127.7031 Q1377.8438,127.125 1377.25,126.8594 Q1376.6563,126.5781 1376.0313,126.5781 Q1374.6875,126.5781 1374,127.6563 Q1373.3125,128.7188 1373.3125,130.8125 Q1373.3125,132.9063 1374,133.9844 Q1374.6875,135.0469 1376.0313,135.0469 Q1376.6563,135.0469 1377.25,134.7813 Q1377.8438,134.5 1378.4688,133.9219 L1378.4688,136.6406 Z " fill="#000000"/><text fill="#000000" font-family="sans-serif" font-size="14" lengthAdjust="spacing" textLength="138.5576" x="1389.5" y="135.8467">ActuatingProcedure</text><line style="stroke:#181818;stroke-width:0.5;" x1="1361.5" x2="1530.0576" y1="147" y2="147"/><line style="stroke:#181818;stroke-width:0.5;" x1="1361.5" x2="1530.0576" y1="155" y2="155"/></g><!--class ObservingProcedure--><g class="entity" data-qualified-name="ObservingProcedure" data-source-line="7" id="ent0016"><rect fill="#F1F1F1" height="48" rx="2.5" ry="2.5" style="stroke:#181818;stroke-width:0.5;" width="174.707" x="1566.5" y="115"/><ellipse cx="1581.5" cy="131" fill="#ADD1B2" rx="11" ry="11" style="stroke:#181818;stroke-width:1;"/><path d="M1584.4688,136.6406 Q1583.8906,136.9375 1583.25,137.0781 Q1582.6094,137.2344 1581.9063,137.2344 Q1579.4063,137.2344 1578.0781,135.5938 Q1576.7656,133.9375 1576.7656,130.8125 Q1576.7656,127.6875 1578.0781,126.0313 Q1579.4063,124.375 1581.9063,124.375 Q1582.6094,124.375 1583.25,124.5313 Q1583.9063,124.6875 1584.4688,124.9844 L1584.4688,127.7031 Q1583.8438,127.125 1583.25,126.8594 Q1582.6563,126.5781 1582.0313,126.5781 Q1580.6875,126.5781 1580,127.6563 Q1579.3125,128.7188 1579.3125,130.8125 Q1579.3125,132.9063 1580,133.9844 Q1580.6875,135.0469 1582.0313,135.0469 Q1582.6563,135.0469 1583.25,134.7813 Q1583.8438,134.5 1584.4688,133.9219 L1584.4688,136.6406 Z " fill="#000000"/><text fill="#000000" font-family="sans-serif" font-size="14" lengthAdjust="spacing" textLength="142.707" x="1595.5" y="135.8467">ObservingProcedure</text><line style="stroke:#181818;stroke-width:0.5;" x1="1567.5" x2="1740.207" y1="147" y2="147"/><line style="stroke:#181818;stroke-width:0.5;" x1="1567.5" x2="1740.207" y1="155" y2="155"/></g><!--class SamplingProcedure--><g class="entity" data-qualified-name="SamplingProcedure" data-source-line="8" id="ent0018"><rect fill="#F1F1F1" height="48" rx="2.5" ry="2.5" style="stroke:#181818;stroke-width:0.5;" width="168.7324" x="1776.5" y="115"/><ellipse cx="1791.5" cy="131" fill="#ADD1B2" rx="11" ry="11" style="stroke:#181818;stroke-width:1;"/><path d="M1794.4688,136.6406 Q1793.8906,136.9375 1793.25,137.0781 Q1792.6094,137.2344 1791.9063,137.2344 Q1789.4063,137.2344 1788.0781,135.5938 Q1786.7656,133.9375 1786.7656,130.8125 Q1786.7656,127.6875 1788.0781,126.0313 Q1789.4063,124.375 1791.9063,124.375 Q1792.6094,124.375 1793.25,124.5313 Q1793.9063,124.6875 1794.4688,124.9844 L1794.4688,127.7031 Q1793.8438,127.125 1793.25,126.8594 Q1792.6563,126.5781 1792.0313,126.5781 Q1790.6875,126.5781 1790,127.6563 Q1789.3125,128.7188 1789.3125,130.8125 Q1789.3125,132.9063 1790,133.9844 Q1790.6875,135.0469 1792.0313,135.0469 Q1792.6563,135.0469 1793.25,134.7813 Q1793.8438,134.5 1794.4688,133.9219 L1794.4688,136.6406 Z " fill="#000000"/><text fill="#000000" font-family="sans-serif" font-size="14" lengthAdjust="spacing" textLength="136.7324" x="1805.5" y="135.8467">SamplingProcedure</text><line style="stroke:#181818;stroke-width:0.5;" x1="1777.5" x2="1944.2324" y1="147" y2="147"/><line style="stroke:#181818;stroke-width:0.5;" x1="1777.5" x2="1944.2324" y1="155" y2="155"/></g><!--class Asset--><g class="entity" data-qualified-name="Asset" data-source-line="9" id="ent0020"><rect fill="#F1F1F1" height="48" rx="2.5" ry="2.5" style="stroke:#181818;stroke-width:0.5;" width="70.2676" x="2052" y="7"/><ellipse cx="2067" cy="23" fill="#ADD1B2" rx="11" ry="11" style="stroke:#181818;stroke-width:1;"/><path d="M2069.9688,28.6406 Q2069.3906,28.9375 2068.75,29.0781 Q2068.1094,29.2344 2067.4063,29.2344 Q2064.9063,29.2344 2063.5781,27.5938 Q2062.2656,25.9375 2062.2656,22.8125 Q2062.2656,19.6875 2063.5781,18.0313 Q2064.9063,16.375 2067.4063,16.375 Q2068.1094,16.375 2068.75,16.5313 Q2069.4063,16.6875 2069.9688,16.9844 L2069.9688,19.7031 Q2069.3438,19.125 2068.75,18.8594 Q2068.1563,18.5781 2067.5313,18.5781 Q2066.1875,18.5781 2065.5,19.6563 Q2064.8125,20.7188 2064.8125,22.8125 Q2064.8125,24.9063 2065.5,25.9844 Q2066.1875,27.0469 2067.5313,27.0469 Q2068.1563,27.0469 2068.75,26.7813 Q2069.3438,26.5 2069.9688,25.9219 L2069.9688,28.6406 Z " fill="#000000"/><text fill="#000000" font-family="sans-serif" font-size="14" lengthAdjust="spacing" textLength="38.2676" x="2081" y="27.8467">Asset</text><line style="stroke:#181818;stroke-width:0.5;" x1="2053" x2="2121.2676" y1="39" y2="39"/><line style="stroke:#181818;stroke-width:0.5;" x1="2053" x2="2121.2676" y1="47" y2="47"/></g><!--class Platform--><g class="entity" data-qualified-name="Platform" data-source-line="9" id="ent0021"><rect fill="#F1F1F1" height="48" rx="2.5" ry="2.5" style="stroke:#181818;stroke-width:0.5;" width="91.2881" x="1980.5" y="115"/><ellipse cx="1995.5" cy="131" fill="#ADD1B2" rx="11" ry="11" style="stroke:#181818;stroke-width:1;"/><path d="M1998.4688,136.6406 Q1997.8906,136.9375 1997.25,137.0781 Q1996.6094,137.2344 1995.9063,137.2344 Q1993.4063,137.2344 1992.0781,135.5938 Q1990.7656,133.9375 1990.7656,130.8125 Q1990.7656,127.6875 1992.0781,126.0313 Q1993.4063,124.375 1995.9063,124.375 Q1996.6094,124.375 1997.25,124.5313 Q1997.9063,124.6875 1998.4688,124.9844 L1998.4688,127.7031 Q1997.8438,127.125 1997.25,126.8594 Q1996.6563,126.5781 1996.0313,126.5781 Q1994.6875,126.5781 1994,127.6563 Q1993.3125,128.7188 1993.3125,130.8125 Q1993.3125,132.9063 1994,133.9844 Q1994.6875,135.0469 1996.0313,135.0469 Q1996.6563,135.0469 1997.25,134.7813 Q1997.8438,134.5 1998.4688,133.9219 L1998.4688,136.6406 Z " fill="#000000"/><text fill="#000000" font-family="sans-serif" font-size="14" lengthAdjust="spacing" textLength="59.2881" x="2009.5" y="135.8467">Platform</text><line style="stroke:#181818;stroke-width:0.5;" x1="1981.5" x2="2070.7881" y1="147" y2="147"/><line style="stroke:#181818;stroke-width:0.5;" x1="1981.5" x2="2070.7881" y1="155" y2="155"/></g><!--class System--><g class="entity" data-qualified-name="System" data-source-line="10" id="ent0023"><rect fill="#F1F1F1" height="48" rx="2.5" ry="2.5" style="stroke:#181818;stroke-width:0.5;" width="84.2061" x="2107" y="115"/><ellipse cx="2122" cy="131" fill="#ADD1B2" rx="11" ry="11" style="stroke:#181818;stroke-width:1;"/><path d="M2124.9688,136.6406 Q2124.3906,136.9375 2123.75,137.0781 Q2123.1094,137.2344 2122.4063,137.2344 Q2119.9063,137.2344 2118.5781,135.5938 Q2117.2656,133.9375 2117.2656,130.8125 Q2117.2656,127.6875 2118.5781,126.0313 Q2119.9063,124.375 2122.4063,124.375 Q2123.1094,124.375 2123.75,124.5313 Q2124.4063,124.6875 2124.9688,124.9844 L2124.9688,127.7031 Q2124.3438,127.125 2123.75,126.8594 Q2123.1563,126.5781 2122.5313,126.5781 Q2121.1875,126.5781 2120.5,127.6563 Q2119.8125,128.7188 2119.8125,130.8125 Q2119.8125,132.9063 2120.5,133.9844 Q2121.1875,135.0469 2122.5313,135.0469 Q2123.1563,135.0469 2123.75,134.7813 Q2124.3438,134.5 2124.9688,133.9219 L2124.9688,136.6406 Z " fill="#000000"/><text fill="#000000" font-family="sans-serif" font-size="14" lengthAdjust="spacing" textLength="52.2061" x="2136" y="135.8467">System</text><line style="stroke:#181818;stroke-width:0.5;" x1="2108" x2="2190.2061" y1="147" y2="147"/><line style="stroke:#181818;stroke-width:0.5;" x1="2108" x2="2190.2061" y1="155" y2="155"/></g><!--class Sampler--><g class="entity" data-qualified-name="Sampler" data-source-line="10" id="ent0024"><rect fill="#F1F1F1" height="48" rx="2.5" ry="2.5" style="stroke:#181818;stroke-width:0.5;" width="90.249" x="1978" y="223"/><ellipse cx="1993" cy="239" fill="#ADD1B2" rx="11" ry="11" style="stroke:#181818;stroke-width:1;"/><path d="M1995.9688,244.6406 Q1995.3906,244.9375 1994.75,245.0781 Q1994.1094,245.2344 1993.4063,245.2344 Q1990.9063,245.2344 1989.5781,243.5938 Q1988.2656,241.9375 1988.2656,238.8125 Q1988.2656,235.6875 1989.5781,234.0313 Q1990.9063,232.375 1993.4063,232.375 Q1994.1094,232.375 1994.75,232.5313 Q1995.4063,232.6875 1995.9688,232.9844 L1995.9688,235.7031 Q1995.3438,235.125 1994.75,234.8594 Q1994.1563,234.5781 1993.5313,234.5781 Q1992.1875,234.5781 1991.5,235.6563 Q1990.8125,236.7188 1990.8125,238.8125 Q1990.8125,240.9063 1991.5,241.9844 Q1992.1875,243.0469 1993.5313,243.0469 Q1994.1563,243.0469 1994.75,242.7813 Q1995.3438,242.5 1995.9688,241.9219 L1995.9688,244.6406 Z " fill="#000000"/><text fill="#000000" font-family="sans-serif" font-size="14" lengthAdjust="spacing" textLength="58.249" x="2007" y="243.8467">Sampler</text><line style="stroke:#181818;stroke-width:0.5;" x1="1979" x2="2067.249" y1="255" y2="255"/><line style="stroke:#181818;stroke-width:0.5;" x1="1979" x2="2067.249" y1="263" y2="263"/></g><!--class Actuator--><g class="entity" data-qualified-name="Actuator" data-source-line="11" id="ent0026"><rect fill="#F1F1F1" height="48" rx="2.5" ry="2.5" style="stroke:#181818;stroke-width:0.5;" width="92.0264" x="2103" y="223"/><ellipse cx="2118" cy="239" fill="#ADD1B2" rx="11" ry="11" style="stroke:#181818;stroke-width:1;"/><path d="M2120.9688,244.6406 Q2120.3906,244.9375 2119.75,245.0781 Q2119.1094,245.2344 2118.4063,245.2344 Q2115.9063,245.2344 2114.5781,243.5938 Q2113.2656,241.9375 2113.2656,238.8125 Q2113.2656,235.6875 2114.5781,234.0313 Q2115.9063,232.375 2118.4063,232.375 Q2119.1094,232.375 2119.75,232.5313 Q2120.4063,232.6875 2120.9688,232.9844 L2120.9688,235.7031 Q2120.3438,235.125 2119.75,234.8594 Q2119.1563,234.5781 2118.5313,234.5781 Q2117.1875,234.5781 2116.5,235.6563 Q2115.8125,236.7188 2115.8125,238.8125 Q2115.8125,240.9063 2116.5,241.9844 Q2117.1875,243.0469 2118.5313,243.0469 Q2119.1563,243.0469 2119.75,242.7813 Q2120.3438,242.5 2120.9688,241.9219 L2120.9688,244.6406 Z " fill="#000000"/><text fill="#000000" font-family="sans-serif" font-size="14" lengthAdjust="spacing" textLength="60.0264" x="2132" y="243.8467">Actuator</text><line style="stroke:#181818;stroke-width:0.5;" x1="2104" x2="2194.0264" y1="255" y2="255"/><line style="stroke:#181818;stroke-width:0.5;" x1="2104" x2="2194.0264" y1="263" y2="263"/></g><!--class Execution--><g class="entity" data-qualified-name="Execution" data-source-line="13" id="ent0029"><rect fill="#F1F1F1" height="48" rx="2.5" ry="2.5" style="stroke:#181818;stroke-width:0.5;" width="101.1318" x="2358.5" y="7"/><ellipse cx="2373.5" cy="23" fill="#ADD1B2" rx="11" ry="11" style="stroke:#181818;stroke-width:1;"/><path d="M2376.4688,28.6406 Q2375.8906,28.9375 2375.25,29.0781 Q2374.6094,29.2344 2373.9063,29.2344 Q2371.4063,29.2344 2370.0781,27.5938 Q2368.7656,25.9375 2368.7656,22.8125 Q2368.7656,19.6875 2370.0781,18.0313 Q2371.4063,16.375 2373.9063,16.375 Q2374.6094,16.375 2375.25,16.5313 Q2375.9063,16.6875 2376.4688,16.9844 L2376.4688,19.7031 Q2375.8438,19.125 2375.25,18.8594 Q2374.6563,18.5781 2374.0313,18.5781 Q2372.6875,18.5781 2372,19.6563 Q2371.3125,20.7188 2371.3125,22.8125 Q2371.3125,24.9063 2372,25.9844 Q2372.6875,27.0469 2374.0313,27.0469 Q2374.6563,27.0469 2375.25,26.7813 Q2375.8438,26.5 2376.4688,25.9219 L2376.4688,28.6406 Z " fill="#000000"/><text fill="#000000" font-family="sans-serif" font-size="14" lengthAdjust="spacing" textLength="69.1318" x="2387.5" y="27.8467">Execution</text><line style="stroke:#181818;stroke-width:0.5;" x1="2359.5" x2="2458.6318" y1="39" y2="39"/><line style="stroke:#181818;stroke-width:0.5;" x1="2359.5" x2="2458.6318" y1="47" y2="47"/></g><!--class Sampling--><g class="entity" data-qualified-name="Sampling" data-source-line="13" id="ent0030"><rect fill="#F1F1F1" height="48" rx="2.5" ry="2.5" style="stroke:#181818;stroke-width:0.5;" width="97.5293" x="2226" y="115"/><ellipse cx="2241" cy="131" fill="#ADD1B2" rx="11" ry="11" style="stroke:#181818;stroke-width:1;"/><path d="M2243.9688,136.6406 Q2243.3906,136.9375 2242.75,137.0781 Q2242.1094,137.2344 2241.4063,137.2344 Q2238.9063,137.2344 2237.5781,135.5938 Q2236.2656,133.9375 2236.2656,130.8125 Q2236.2656,127.6875 2237.5781,126.0313 Q2238.9063,124.375 2241.4063,124.375 Q2242.1094,124.375 2242.75,124.5313 Q2243.4063,124.6875 2243.9688,124.9844 L2243.9688,127.7031 Q2243.3438,127.125 2242.75,126.8594 Q2242.1563,126.5781 2241.5313,126.5781 Q2240.1875,126.5781 2239.5,127.6563 Q2238.8125,128.7188 2238.8125,130.8125 Q2238.8125,132.9063 2239.5,133.9844 Q2240.1875,135.0469 2241.5313,135.0469 Q2242.1563,135.0469 2242.75,134.7813 Q2243.3438,134.5 2243.9688,133.9219 L2243.9688,136.6406 Z " fill="#000000"/><text fill="#000000" font-family="sans-serif" font-size="14" lengthAdjust="spacing" textLength="65.5293" x="2255" y="135.8467">Sampling</text><line style="stroke:#181818;stroke-width:0.5;" x1="2227" x2="2322.5293" y1="147" y2="147"/><line style="stroke:#181818;stroke-width:0.5;" x1="2227" x2="2322.5293" y1="155" y2="155"/></g><!--class ExecutionCollection--><g class="entity" data-qualified-name="ExecutionCollection" data-source-line="14" id="ent0032"><rect fill="#F1F1F1" height="48" rx="2.5" ry="2.5" style="stroke:#181818;stroke-width:0.5;" width="170.3799" x="2846" y="7"/><ellipse cx="2861" cy="23" fill="#ADD1B2" rx="11" ry="11" style="stroke:#181818;stroke-width:1;"/><path d="M2863.9688,28.6406 Q2863.3906,28.9375 2862.75,29.0781 Q2862.1094,29.2344 2861.4063,29.2344 Q2858.9063,29.2344 2857.5781,27.5938 Q2856.2656,25.9375 2856.2656,22.8125 Q2856.2656,19.6875 2857.5781,18.0313 Q2858.9063,16.375 2861.4063,16.375 Q2862.1094,16.375 2862.75,16.5313 Q2863.4063,16.6875 2863.9688,16.9844 L2863.9688,19.7031 Q2863.3438,19.125 2862.75,18.8594 Q2862.1563,18.5781 2861.5313,18.5781 Q2860.1875,18.5781 2859.5,19.6563 Q2858.8125,20.7188 2858.8125,22.8125 Q2858.8125,24.9063 2859.5,25.9844 Q2860.1875,27.0469 2861.5313,27.0469 Q2862.1563,27.0469 2862.75,26.7813 Q2863.3438,26.5 2863.9688,25.9219 L2863.9688,28.6406 Z " fill="#000000"/><text fill="#000000" font-family="sans-serif" font-size="14" lengthAdjust="spacing" textLength="138.3799" x="2875" y="27.8467">ExecutionCollection</text><line style="stroke:#181818;stroke-width:0.5;" x1="2847" x2="3015.3799" y1="39" y2="39"/><line style="stroke:#181818;stroke-width:0.5;" x1="2847" x2="3015.3799" y1="47" y2="47"/></g><!--class SamplingCollection--><g class="entity" data-qualified-name="SamplingCollection" data-source-line="14" id="ent0033"><rect fill="#F1F1F1" height="48" rx="2.5" ry="2.5" style="stroke:#181818;stroke-width:0.5;" width="166.7773" x="2645.5" y="115"/><ellipse cx="2660.5" cy="131" fill="#ADD1B2" rx="11" ry="11" style="stroke:#181818;stroke-width:1;"/><path d="M2663.4688,136.6406 Q2662.8906,136.9375 2662.25,137.0781 Q2661.6094,137.2344 2660.9063,137.2344 Q2658.4063,137.2344 2657.0781,135.5938 Q2655.7656,133.9375 2655.7656,130.8125 Q2655.7656,127.6875 2657.0781,126.0313 Q2658.4063,124.375 2660.9063,124.375 Q2661.6094,124.375 2662.25,124.5313 Q2662.9063,124.6875 2663.4688,124.9844 L2663.4688,127.7031 Q2662.8438,127.125 2662.25,126.8594 Q2661.6563,126.5781 2661.0313,126.5781 Q2659.6875,126.5781 2659,127.6563 Q2658.3125,128.7188 2658.3125,130.8125 Q2658.3125,132.9063 2659,133.9844 Q2659.6875,135.0469 2661.0313,135.0469 Q2661.6563,135.0469 2662.25,134.7813 Q2662.8438,134.5 2663.4688,133.9219 L2663.4688,136.6406 Z " fill="#000000"/><text fill="#000000" font-family="sans-serif" font-size="14" lengthAdjust="spacing" textLength="134.7773" x="2674.5" y="135.8467">SamplingCollection</text><line style="stroke:#181818;stroke-width:0.5;" x1="2646.5" x2="2811.2773" y1="147" y2="147"/><line style="stroke:#181818;stroke-width:0.5;" x1="2646.5" x2="2811.2773" y1="155" y2="155"/></g><!--class Actuation--><g class="entity" data-qualified-name="Actuation" data-source-line="15" id="ent0035"><rect fill="#F1F1F1" height="48" rx="2.5" ry="2.5" style="stroke:#181818;stroke-width:0.5;" width="99.0332" x="2359.5" y="115"/><ellipse cx="2374.5" cy="131" fill="#ADD1B2" rx="11" ry="11" style="stroke:#181818;stroke-width:1;"/><path d="M2377.4688,136.6406 Q2376.8906,136.9375 2376.25,137.0781 Q2375.6094,137.2344 2374.9063,137.2344 Q2372.4063,137.2344 2371.0781,135.5938 Q2369.7656,133.9375 2369.7656,130.8125 Q2369.7656,127.6875 2371.0781,126.0313 Q2372.4063,124.375 2374.9063,124.375 Q2375.6094,124.375 2376.25,124.5313 Q2376.9063,124.6875 2377.4688,124.9844 L2377.4688,127.7031 Q2376.8438,127.125 2376.25,126.8594 Q2375.6563,126.5781 2375.0313,126.5781 Q2373.6875,126.5781 2373,127.6563 Q2372.3125,128.7188 2372.3125,130.8125 Q2372.3125,132.9063 2373,133.9844 Q2373.6875,135.0469 2375.0313,135.0469 Q2375.6563,135.0469 2376.25,134.7813 Q2376.8438,134.5 2377.4688,133.9219 L2377.4688,136.6406 Z " fill="#000000"/><text fill="#000000" font-family="sans-serif" font-size="14" lengthAdjust="spacing" textLength="67.0332" x="2388.5" y="135.8467">Actuation</text><line style="stroke:#181818;stroke-width:0.5;" x1="2360.5" x2="2457.5332" y1="147" y2="147"/><line style="stroke:#181818;stroke-width:0.5;" x1="2360.5" x2="2457.5332" y1="155" y2="155"/></g><!--class Sensor--><g class="entity" data-qualified-name="Sensor" data-source-line="16" id="ent0037"><rect fill="#F1F1F1" height="48" rx="2.5" ry="2.5" style="stroke:#181818;stroke-width:0.5;" width="79.9883" x="2230" y="223"/><ellipse cx="2245" cy="239" fill="#ADD1B2" rx="11" ry="11" style="stroke:#181818;stroke-width:1;"/><path d="M2247.9688,244.6406 Q2247.3906,244.9375 2246.75,245.0781 Q2246.1094,245.2344 2245.4063,245.2344 Q2242.9063,245.2344 2241.5781,243.5938 Q2240.2656,241.9375 2240.2656,238.8125 Q2240.2656,235.6875 2241.5781,234.0313 Q2242.9063,232.375 2245.4063,232.375 Q2246.1094,232.375 2246.75,232.5313 Q2247.4063,232.6875 2247.9688,232.9844 L2247.9688,235.7031 Q2247.3438,235.125 2246.75,234.8594 Q2246.1563,234.5781 2245.5313,234.5781 Q2244.1875,234.5781 2243.5,235.6563 Q2242.8125,236.7188 2242.8125,238.8125 Q2242.8125,240.9063 2243.5,241.9844 Q2244.1875,243.0469 2245.5313,243.0469 Q2246.1563,243.0469 2246.75,242.7813 Q2247.3438,242.5 2247.9688,241.9219 L2247.9688,244.6406 Z " fill="#000000"/><text fill="#000000" font-family="sans-serif" font-size="14" lengthAdjust="spacing" textLength="47.9883" x="2259" y="243.8467">Sensor</text><line style="stroke:#181818;stroke-width:0.5;" x1="2231" x2="2308.9883" y1="255" y2="255"/><line style="stroke:#181818;stroke-width:0.5;" x1="2231" x2="2308.9883" y1="263" y2="263"/></g><!--class ActuationCollection--><g class="entity" data-qualified-name="ActuationCollection" data-source-line="17" id="ent0039"><rect fill="#F1F1F1" height="48" rx="2.5" ry="2.5" style="stroke:#181818;stroke-width:0.5;" width="168.2813" x="2847" y="115"/><ellipse cx="2862" cy="131" fill="#ADD1B2" rx="11" ry="11" style="stroke:#181818;stroke-width:1;"/><path d="M2864.9688,136.6406 Q2864.3906,136.9375 2863.75,137.0781 Q2863.1094,137.2344 2862.4063,137.2344 Q2859.9063,137.2344 2858.5781,135.5938 Q2857.2656,133.9375 2857.2656,130.8125 Q2857.2656,127.6875 2858.5781,126.0313 Q2859.9063,124.375 2862.4063,124.375 Q2863.1094,124.375 2863.75,124.5313 Q2864.4063,124.6875 2864.9688,124.9844 L2864.9688,127.7031 Q2864.3438,127.125 2863.75,126.8594 Q2863.1563,126.5781 2862.5313,126.5781 Q2861.1875,126.5781 2860.5,127.6563 Q2859.8125,128.7188 2859.8125,130.8125 Q2859.8125,132.9063 2860.5,133.9844 Q2861.1875,135.0469 2862.5313,135.0469 Q2863.1563,135.0469 2863.75,134.7813 Q2864.3438,134.5 2864.9688,133.9219 L2864.9688,136.6406 Z " fill="#000000"/><text fill="#000000" font-family="sans-serif" font-size="14" lengthAdjust="spacing" textLength="136.2813" x="2876" y="135.8467">ActuationCollection</text><line style="stroke:#181818;stroke-width:0.5;" x1="2848" x2="3014.2813" y1="147" y2="147"/><line style="stroke:#181818;stroke-width:0.5;" x1="2848" x2="3014.2813" y1="155" y2="155"/></g><!--class ObservationCollection--><g class="entity" data-qualified-name="ObservationCollection" data-source-line="18" id="ent0041"><rect fill="#F1F1F1" height="48" rx="2.5" ry="2.5" style="stroke:#181818;stroke-width:0.5;" width="186.499" x="3050" y="115"/><ellipse cx="3065" cy="131" fill="#ADD1B2" rx="11" ry="11" style="stroke:#181818;stroke-width:1;"/><path d="M3067.9688,136.6406 Q3067.3906,136.9375 3066.75,137.0781 Q3066.1094,137.2344 3065.4063,137.2344 Q3062.9063,137.2344 3061.5781,135.5938 Q3060.2656,133.9375 3060.2656,130.8125 Q3060.2656,127.6875 3061.5781,126.0313 Q3062.9063,124.375 3065.4063,124.375 Q3066.1094,124.375 3066.75,124.5313 Q3067.4063,124.6875 3067.9688,124.9844 L3067.9688,127.7031 Q3067.3438,127.125 3066.75,126.8594 Q3066.1563,126.5781 3065.5313,126.5781 Q3064.1875,126.5781 3063.5,127.6563 Q3062.8125,128.7188 3062.8125,130.8125 Q3062.8125,132.9063 3063.5,133.9844 Q3064.1875,135.0469 3065.5313,135.0469 Q3066.1563,135.0469 3066.75,134.7813 Q3067.3438,134.5 3067.9688,133.9219 L3067.9688,136.6406 Z " fill="#000000"/><text fill="#000000" font-family="sans-serif" font-size="14" lengthAdjust="spacing" textLength="154.499" x="3079" y="135.8467">ObservationCollection</text><line style="stroke:#181818;stroke-width:0.5;" x1="3051" x2="3235.499" y1="147" y2="147"/><line style="stroke:#181818;stroke-width:0.5;" x1="3051" x2="3235.499" y1="155" y2="155"/></g><!--class Observation--><g class="entity" data-qualified-name="Observation" data-source-line="19" id="ent0043"><rect fill="#F1F1F1" height="48" rx="2.5" ry="2.5" style="stroke:#181818;stroke-width:0.5;" width="117.251" x="2493.5" y="115"/><ellipse cx="2508.5" cy="131" fill="#ADD1B2" rx="11" ry="11" style="stroke:#181818;stroke-width:1;"/><path d="M2511.4688,136.6406 Q2510.8906,136.9375 2510.25,137.0781 Q2509.6094,137.2344 2508.9063,137.2344 Q2506.4063,137.2344 2505.0781,135.5938 Q2503.7656,133.9375 2503.7656,130.8125 Q2503.7656,127.6875 2505.0781,126.0313 Q2506.4063,124.375 2508.9063,124.375 Q2509.6094,124.375 2510.25,124.5313 Q2510.9063,124.6875 2511.4688,124.9844 L2511.4688,127.7031 Q2510.8438,127.125 2510.25,126.8594 Q2509.6563,126.5781 2509.0313,126.5781 Q2507.6875,126.5781 2507,127.6563 Q2506.3125,128.7188 2506.3125,130.8125 Q2506.3125,132.9063 2507,133.9844 Q2507.6875,135.0469 2509.0313,135.0469 Q2509.6563,135.0469 2510.25,134.7813 Q2510.8438,134.5 2511.4688,133.9219 L2511.4688,136.6406 Z " fill="#000000"/><text fill="#000000" font-family="sans-serif" font-size="14" lengthAdjust="spacing" textLength="85.251" x="2522.5" y="135.8467">Observation</text><line style="stroke:#181818;stroke-width:0.5;" x1="2494.5" x2="2609.751" y1="147" y2="147"/><line style="stroke:#181818;stroke-width:0.5;" x1="2494.5" x2="2609.751" y1="155" y2="155"/></g><!--class Deployment--><g class="entity" data-qualified-name="Deployment" data-source-line="20" id="ent0045"><rect fill="#F1F1F1" height="48" rx="2.5" ry="2.5" style="stroke:#181818;stroke-width:0.5;" width="117.6338" x="25" y="7"/><ellipse cx="40" cy="23" fill="#ADD1B2" rx="11" ry="11" style="stroke:#181818;stroke-width:1;"/><path d="M42.9688,28.6406 Q42.3906,28.9375 41.75,29.0781 Q41.1094,29.2344 40.4063,29.2344 Q37.9063,29.2344 36.5781,27.5938 Q35.2656,25.9375 35.2656,22.8125 Q35.2656,19.6875 36.5781,18.0313 Q37.9063,16.375 40.4063,16.375 Q41.1094,16.375 41.75,16.5313 Q42.4063,16.6875 42.9688,16.9844 L42.9688,19.7031 Q42.3438,19.125 41.75,18.8594 Q41.1563,18.5781 40.5313,18.5781 Q39.1875,18.5781 38.5,19.6563 Q37.8125,20.7188 37.8125,22.8125 Q37.8125,24.9063 38.5,25.9844 Q39.1875,27.0469 40.5313,27.0469 Q41.1563,27.0469 41.75,26.7813 Q42.3438,26.5 42.9688,25.9219 L42.9688,28.6406 Z " fill="#000000"/><text fill="#000000" font-family="sans-serif" font-size="14" lengthAdjust="spacing" textLength="85.6338" x="54" y="27.8467">Deployment</text><line style="stroke:#181818;stroke-width:0.5;" x1="26" x2="141.6338" y1="39" y2="39"/><line style="stroke:#181818;stroke-width:0.5;" x1="26" x2="141.6338" y1="47" y2="47"/></g><!--class Stimulus--><g class="entity" data-qualified-name="Stimulus" data-source-line="21" id="ent0046"><rect fill="#F1F1F1" height="48" rx="2.5" ry="2.5" style="stroke:#181818;stroke-width:0.5;" width="92.833" x="178.5" y="7"/><ellipse cx="193.5" cy="23" fill="#ADD1B2" rx="11" ry="11" style="stroke:#181818;stroke-width:1;"/><path d="M196.4688,28.6406 Q195.8906,28.9375 195.25,29.0781 Q194.6094,29.2344 193.9063,29.2344 Q191.4063,29.2344 190.0781,27.5938 Q188.7656,25.9375 188.7656,22.8125 Q188.7656,19.6875 190.0781,18.0313 Q191.4063,16.375 193.9063,16.375 Q194.6094,16.375 195.25,16.5313 Q195.9063,16.6875 196.4688,16.9844 L196.4688,19.7031 Q195.8438,19.125 195.25,18.8594 Q194.6563,18.5781 194.0313,18.5781 Q192.6875,18.5781 192,19.6563 Q191.3125,20.7188 191.3125,22.8125 Q191.3125,24.9063 192,25.9844 Q192.6875,27.0469 194.0313,27.0469 Q194.6563,27.0469 195.25,26.7813 Q195.8438,26.5 196.4688,25.9219 L196.4688,28.6406 Z " fill="#000000"/><text fill="#000000" font-family="sans-serif" font-size="14" lengthAdjust="spacing" textLength="60.833" x="207.5" y="27.8467">Stimulus</text><line style="stroke:#181818;stroke-width:0.5;" x1="179.5" x2="270.333" y1="39" y2="39"/><line style="stroke:#181818;stroke-width:0.5;" x1="179.5" x2="270.333" y1="47" y2="47"/></g><!--class FeatureOfInterest--><g class="entity" data-qualified-name="FeatureOfInterest" data-source-line="23" id="ent0047"><rect fill="#F1F1F1" height="48" rx="2.5" ry="2.5" style="stroke:#181818;stroke-width:0.5;" width="156.1816" x="307" y="7"/><ellipse cx="322" cy="23" fill="#ADD1B2" rx="11" ry="11" style="stroke:#181818;stroke-width:1;"/><path d="M324.9688,28.6406 Q324.3906,28.9375 323.75,29.0781 Q323.1094,29.2344 322.4063,29.2344 Q319.9063,29.2344 318.5781,27.5938 Q317.2656,25.9375 317.2656,22.8125 Q317.2656,19.6875 318.5781,18.0313 Q319.9063,16.375 322.4063,16.375 Q323.1094,16.375 323.75,16.5313 Q324.4063,16.6875 324.9688,16.9844 L324.9688,19.7031 Q324.3438,19.125 323.75,18.8594 Q323.1563,18.5781 322.5313,18.5781 Q321.1875,18.5781 320.5,19.6563 Q319.8125,20.7188 319.8125,22.8125 Q319.8125,24.9063 320.5,25.9844 Q321.1875,27.0469 322.5313,27.0469 Q323.1563,27.0469 323.75,26.7813 Q324.3438,26.5 324.9688,25.9219 L324.9688,28.6406 Z " fill="#000000"/><text fill="#000000" font-family="sans-serif" font-size="14" lengthAdjust="spacing" textLength="124.1816" x="336" y="27.8467">FeatureOfInterest</text><line style="stroke:#181818;stroke-width:0.5;" x1="308" x2="462.1816" y1="39" y2="39"/><line style="stroke:#181818;stroke-width:0.5;" x1="308" x2="462.1816" y1="47" y2="47"/></g><!--class SampleCollection--><g class="entity" data-qualified-name="SampleCollection" data-source-line="24" id="ent0048"><rect fill="#F1F1F1" height="48" rx="2.5" ry="2.5" style="stroke:#181818;stroke-width:0.5;" width="153.7412" x="7" y="115"/><ellipse cx="22" cy="131" fill="#ADD1B2" rx="11" ry="11" style="stroke:#181818;stroke-width:1;"/><path d="M24.9688,136.6406 Q24.3906,136.9375 23.75,137.0781 Q23.1094,137.2344 22.4063,137.2344 Q19.9063,137.2344 18.5781,135.5938 Q17.2656,133.9375 17.2656,130.8125 Q17.2656,127.6875 18.5781,126.0313 Q19.9063,124.375 22.4063,124.375 Q23.1094,124.375 23.75,124.5313 Q24.4063,124.6875 24.9688,124.9844 L24.9688,127.7031 Q24.3438,127.125 23.75,126.8594 Q23.1563,126.5781 22.5313,126.5781 Q21.1875,126.5781 20.5,127.6563 Q19.8125,128.7188 19.8125,130.8125 Q19.8125,132.9063 20.5,133.9844 Q21.1875,135.0469 22.5313,135.0469 Q23.1563,135.0469 23.75,134.7813 Q24.3438,134.5 24.9688,133.9219 L24.9688,136.6406 Z " fill="#000000"/><text fill="#000000" font-family="sans-serif" font-size="14" lengthAdjust="spacing" textLength="121.7412" x="36" y="135.8467">SampleCollection</text><line style="stroke:#181818;stroke-width:0.5;" x1="8" x2="159.7412" y1="147" y2="147"/><line style="stroke:#181818;stroke-width:0.5;" x1="8" x2="159.7412" y1="155" y2="155"/></g><!--class Output--><g class="entity" data-qualified-name="Output" data-source-line="26" id="ent0049"><rect fill="#F1F1F1" height="48" rx="2.5" ry="2.5" style="stroke:#181818;stroke-width:0.5;" width="80.6309" x="196.5" y="115"/><ellipse cx="211.5" cy="131" fill="#ADD1B2" rx="11" ry="11" style="stroke:#181818;stroke-width:1;"/><path d="M214.4688,136.6406 Q213.8906,136.9375 213.25,137.0781 Q212.6094,137.2344 211.9063,137.2344 Q209.4063,137.2344 208.0781,135.5938 Q206.7656,133.9375 206.7656,130.8125 Q206.7656,127.6875 208.0781,126.0313 Q209.4063,124.375 211.9063,124.375 Q212.6094,124.375 213.25,124.5313 Q213.9063,124.6875 214.4688,124.9844 L214.4688,127.7031 Q213.8438,127.125 213.25,126.8594 Q212.6563,126.5781 212.0313,126.5781 Q210.6875,126.5781 210,127.6563 Q209.3125,128.7188 209.3125,130.8125 Q209.3125,132.9063 210,133.9844 Q210.6875,135.0469 212.0313,135.0469 Q212.6563,135.0469 213.25,134.7813 Q213.8438,134.5 214.4688,133.9219 L214.4688,136.6406 Z " fill="#000000"/><text fill="#000000" font-family="sans-serif" font-size="14" lengthAdjust="spacing" textLength="48.6309" x="225.5" y="135.8467">Output</text><line style="stroke:#181818;stroke-width:0.5;" x1="197.5" x2="276.1309" y1="147" y2="147"/><line style="stroke:#181818;stroke-width:0.5;" x1="197.5" x2="276.1309" y1="155" y2="155"/></g><!--class Input--><g class="entity" data-qualified-name="Input" data-source-line="28" id="ent0050"><rect fill="#F1F1F1" height="48" rx="2.5" ry="2.5" style="stroke:#181818;stroke-width:0.5;" width="68.251" x="313" y="115"/><ellipse cx="328" cy="131" fill="#ADD1B2" rx="11" ry="11" style="stroke:#181818;stroke-width:1;"/><path d="M330.9688,136.6406 Q330.3906,136.9375 329.75,137.0781 Q329.1094,137.2344 328.4063,137.2344 Q325.9063,137.2344 324.5781,135.5938 Q323.2656,133.9375 323.2656,130.8125 Q323.2656,127.6875 324.5781,126.0313 Q325.9063,124.375 328.4063,124.375 Q329.1094,124.375 329.75,124.5313 Q330.4063,124.6875 330.9688,124.9844 L330.9688,127.7031 Q330.3438,127.125 329.75,126.8594 Q329.1563,126.5781 328.5313,126.5781 Q327.1875,126.5781 326.5,127.6563 Q325.8125,128.7188 325.8125,130.8125 Q325.8125,132.9063 326.5,133.9844 Q327.1875,135.0469 328.5313,135.0469 Q329.1563,135.0469 329.75,134.7813 Q330.3438,134.5 330.9688,133.9219 L330.9688,136.6406 Z " fill="#000000"/><text fill="#000000" font-family="sans-serif" font-size="14" lengthAdjust="spacing" textLength="36.251" x="342" y="135.8467">Input</text><line style="stroke:#181818;stroke-width:0.5;" x1="314" x2="380.251" y1="147" y2="147"/><line style="stroke:#181818;stroke-width:0.5;" x1="314" x2="380.251" y1="155" y2="155"/></g><!--class Result--><g class="entity" data-qualified-name="Result" data-source-line="30" id="ent0051"><rect fill="#F1F1F1" height="48" rx="2.5" ry="2.5" style="stroke:#181818;stroke-width:0.5;" width="75.8867" x="46" y="223"/><ellipse cx="61" cy="239" fill="#ADD1B2" rx="11" ry="11" style="stroke:#181818;stroke-width:1;"/><path d="M63.9688,244.6406 Q63.3906,244.9375 62.75,245.0781 Q62.1094,245.2344 61.4063,245.2344 Q58.9063,245.2344 57.5781,243.5938 Q56.2656,241.9375 56.2656,238.8125 Q56.2656,235.6875 57.5781,234.0313 Q58.9063,232.375 61.4063,232.375 Q62.1094,232.375 62.75,232.5313 Q63.4063,232.6875 63.9688,232.9844 L63.9688,235.7031 Q63.3438,235.125 62.75,234.8594 Q62.1563,234.5781 61.5313,234.5781 Q60.1875,234.5781 59.5,235.6563 Q58.8125,236.7188 58.8125,238.8125 Q58.8125,240.9063 59.5,241.9844 Q60.1875,243.0469 61.5313,243.0469 Q62.1563,243.0469 62.75,242.7813 Q63.3438,242.5 63.9688,241.9219 L63.9688,244.6406 Z " fill="#000000"/><text fill="#000000" font-family="sans-serif" font-size="14" lengthAdjust="spacing" textLength="43.8867" x="75" y="243.8467">Result</text><line style="stroke:#181818;stroke-width:0.5;" x1="47" x2="120.8867" y1="255" y2="255"/><line style="stroke:#181818;stroke-width:0.5;" x1="47" x2="120.8867" y1="263" y2="263"/></g><!--reverse link Property to ActuatableProperty--><g class="link" data-entity-1="ent0001" data-entity-2="ent0002" data-link-type="extension" data-source-line="1" id="lnk3"><path codeLine="1" d="M584.1503,66.6403 C563.3203,84.3003 548.42,96.94 527.5,114.68" fill="none" id="Property-backto-ActuatableProperty" style="stroke:#181818;stroke-width:1;"/><polygon fill="none" points="597.88,55,580.2702,62.0637,588.0304,71.2168,597.88,55" style="stroke:#181818;stroke-width:1;stroke-linejoin:miter;stroke-miterlimit:10;"/></g><!--reverse link Sample to MaterialSample--><g class="link" data-entity-1="ent0004" data-entity-2="ent0005" data-link-type="extension" data-source-line="2" id="lnk6"><path codeLine="2" d="M1016.3567,64.4445 C987.6067,82.1645 963.35,97.11 934.55,114.86" fill="none" id="Sample-backto-MaterialSample" style="stroke:#181818;stroke-width:1;"/><polygon fill="none" points="1031.68,55,1013.2086,59.3367,1019.5049,69.5522,1031.68,55" style="stroke:#181818;stroke-width:1;stroke-linejoin:miter;stroke-miterlimit:10;"/></g><!--reverse link Sample to SpatialSample--><g class="link" data-entity-1="ent0004" data-entity-2="ent0007" data-link-type="extension" data-source-line="3" id="lnk8"><path codeLine="3" d="M1069,73 C1069,90.66 1069,96.94 1069,114.68" fill="none" id="Sample-backto-SpatialSample" style="stroke:#181818;stroke-width:1;"/><polygon fill="none" points="1069,55,1063,73,1075,73,1069,55" style="stroke:#181818;stroke-width:1;stroke-linejoin:miter;stroke-miterlimit:10;"/></g><!--reverse link Sample to StatisticalSample--><g class="link" data-entity-1="ent0004" data-entity-2="ent0009" data-link-type="extension" data-source-line="4" id="lnk10"><path codeLine="4" d="M1123.3276,64.1725 C1153.2476,81.8925 1178.95,97.11 1208.93,114.86" fill="none" id="Sample-backto-StatisticalSample" style="stroke:#181818;stroke-width:1;"/><polygon fill="none" points="1107.84,55,1120.2701,69.335,1126.3851,59.0099,1107.84,55" style="stroke:#181818;stroke-width:1;stroke-linejoin:miter;stroke-miterlimit:10;"/></g><!--reverse link Property to ObservableProperty--><g class="link" data-entity-1="ent0001" data-entity-2="ent0011" data-link-type="extension" data-source-line="5" id="lnk12"><path codeLine="5" d="M653.2042,69.3667 C666.5342,87.0267 674.01,96.94 687.4,114.68" fill="none" id="Property-backto-ObservableProperty" style="stroke:#181818;stroke-width:1;"/><polygon fill="none" points="642.36,55,648.4153,72.9815,657.9931,65.752,642.36,55" style="stroke:#181818;stroke-width:1;stroke-linejoin:miter;stroke-miterlimit:10;"/></g><!--reverse link Procedure to ActuatingProcedure--><g class="link" data-entity-1="ent0013" data-entity-2="ent0014" data-link-type="extension" data-source-line="6" id="lnk15"><path codeLine="6" d="M1592.8326,63.1732 C1558.0626,80.8932 1526.24,97.11 1491.4,114.86" fill="none" id="Procedure-backto-ActuatingProcedure" style="stroke:#181818;stroke-width:1;"/><polygon fill="none" points="1608.87,55,1590.1082,57.8274,1595.557,68.519,1608.87,55" style="stroke:#181818;stroke-width:1;stroke-linejoin:miter;stroke-miterlimit:10;"/></g><!--reverse link Procedure to ObservingProcedure--><g class="link" data-entity-1="ent0013" data-entity-2="ent0016" data-link-type="extension" data-source-line="7" id="lnk17"><path codeLine="7" d="M1654,73 C1654,90.66 1654,96.94 1654,114.68" fill="none" id="Procedure-backto-ObservingProcedure" style="stroke:#181818;stroke-width:1;"/><polygon fill="none" points="1654,55,1648,73,1660,73,1654,55" style="stroke:#181818;stroke-width:1;stroke-linejoin:miter;stroke-miterlimit:10;"/></g><!--reverse link Procedure to SamplingProcedure--><g class="link" data-entity-1="ent0013" data-entity-2="ent0018" data-link-type="extension" data-source-line="8" id="lnk19"><path codeLine="8" d="M1714.9411,63.205 C1749.5411,80.925 1781.15,97.11 1815.81,114.86" fill="none" id="Procedure-backto-SamplingProcedure" style="stroke:#181818;stroke-width:1;"/><polygon fill="none" points="1698.92,55,1712.2061,68.5454,1717.6762,57.8647,1698.92,55" style="stroke:#181818;stroke-width:1;stroke-linejoin:miter;stroke-miterlimit:10;"/></g><!--reverse link Asset to Platform--><g class="link" data-entity-1="ent0020" data-entity-2="ent0021" data-link-type="extension" data-source-line="9" id="lnk22"><path codeLine="9" d="M2064.7839,70.6022 C2054.6239,88.2622 2049.63,96.94 2039.42,114.68" fill="none" id="Asset-backto-Platform" style="stroke:#181818;stroke-width:1;"/><polygon fill="none" points="2073.76,55,2059.5831,67.6102,2069.9846,73.5943,2073.76,55" style="stroke:#181818;stroke-width:1;stroke-linejoin:miter;stroke-miterlimit:10;"/></g><!--reverse link System to Sampler--><g class="link" data-entity-1="ent0023" data-entity-2="ent0024" data-link-type="extension" data-source-line="10" id="lnk25"><path codeLine="10" d="M2107.8865,174.5884 C2086.8965,192.2484 2071.81,204.94 2050.72,222.68" fill="none" id="System-backto-Sampler" style="stroke:#181818;stroke-width:1;"/><polygon fill="none" points="2121.66,163,2104.0237,169.9972,2111.7493,179.1795,2121.66,163" style="stroke:#181818;stroke-width:1;stroke-linejoin:miter;stroke-miterlimit:10;"/></g><!--reverse link System to Actuator--><g class="link" data-entity-1="ent0023" data-entity-2="ent0026" data-link-type="extension" data-source-line="11" id="lnk27"><path codeLine="11" d="M2149,181 C2149,198.66 2149,204.94 2149,222.68" fill="none" id="System-backto-Actuator" style="stroke:#181818;stroke-width:1;"/><polygon fill="none" points="2149,163,2143,181,2155,181,2149,163" style="stroke:#181818;stroke-width:1;stroke-linejoin:miter;stroke-miterlimit:10;"/></g><!--reverse link Asset to System--><g class="link" data-entity-1="ent0020" data-entity-2="ent0023" data-link-type="extension" data-source-line="12" id="lnk28"><path codeLine="12" d="M2109.5383,70.5372 C2119.8683,88.1972 2124.98,96.94 2135.36,114.68" fill="none" id="Asset-backto-System" style="stroke:#181818;stroke-width:1;"/><polygon fill="none" points="2100.45,55,2104.3592,73.5666,2114.7173,67.5077,2100.45,55" style="stroke:#181818;stroke-width:1;stroke-linejoin:miter;stroke-miterlimit:10;"/></g><!--reverse link Execution to Sampling--><g class="link" data-entity-1="ent0029" data-entity-2="ent0030" data-link-type="extension" data-source-line="13" id="lnk31"><path codeLine="13" d="M2365.8041,66.1688 C2343.4841,83.8288 2326.91,96.94 2304.48,114.68" fill="none" id="Execution-backto-Sampling" style="stroke:#181818;stroke-width:1;"/><polygon fill="none" points="2379.92,55,2362.0812,61.4635,2369.527,70.8741,2379.92,55" style="stroke:#181818;stroke-width:1;stroke-linejoin:miter;stroke-miterlimit:10;"/></g><!--reverse link ExecutionCollection to SamplingCollection--><g class="link" data-entity-1="ent0032" data-entity-2="ent0033" data-link-type="extension" data-source-line="14" id="lnk34"><path codeLine="14" d="M2871.231,63.3636 C2837.461,81.0836 2806.93,97.11 2773.09,114.86" fill="none" id="ExecutionCollection-backto-SamplingCollection" style="stroke:#181818;stroke-width:1;"/><polygon fill="none" points="2887.17,55,2868.4432,58.0506,2874.0189,68.6766,2887.17,55" style="stroke:#181818;stroke-width:1;stroke-linejoin:miter;stroke-miterlimit:10;"/></g><!--reverse link Execution to Actuation--><g class="link" data-entity-1="ent0029" data-entity-2="ent0035" data-link-type="extension" data-source-line="15" id="lnk36"><path codeLine="15" d="M2409,73 C2409,90.66 2409,96.94 2409,114.68" fill="none" id="Execution-backto-Actuation" style="stroke:#181818;stroke-width:1;"/><polygon fill="none" points="2409,55,2403,73,2415,73,2409,55" style="stroke:#181818;stroke-width:1;stroke-linejoin:miter;stroke-miterlimit:10;"/></g><!--reverse link System to Sensor--><g class="link" data-entity-1="ent0023" data-entity-2="ent0037" data-link-type="extension" data-source-line="16" id="lnk38"><path codeLine="16" d="M2188.7968,174.864 C2208.9468,192.524 2223.13,204.94 2243.38,222.68" fill="none" id="System-backto-Sensor" style="stroke:#181818;stroke-width:1;"/><polygon fill="none" points="2175.26,163,2184.8421,179.3763,2192.7515,170.3518,2175.26,163" style="stroke:#181818;stroke-width:1;stroke-linejoin:miter;stroke-miterlimit:10;"/></g><!--reverse link ExecutionCollection to ActuationCollection--><g class="link" data-entity-1="ent0032" data-entity-2="ent0039" data-link-type="extension" data-source-line="17" id="lnk40"><path codeLine="17" d="M2931,73 C2931,90.66 2931,96.94 2931,114.68" fill="none" id="ExecutionCollection-backto-ActuationCollection" style="stroke:#181818;stroke-width:1;"/><polygon fill="none" points="2931,55,2925,73,2937,73,2931,55" style="stroke:#181818;stroke-width:1;stroke-linejoin:miter;stroke-miterlimit:10;"/></g><!--reverse link ExecutionCollection to ObservationCollection--><g class="link" data-entity-1="ent0032" data-entity-2="ent0041" data-link-type="extension" data-source-line="18" id="lnk42"><path codeLine="18" d="M2993.0997,63.0498 C3028.5397,80.7698 3061.22,97.11 3096.72,114.86" fill="none" id="ExecutionCollection-backto-ObservationCollection" style="stroke:#181818;stroke-width:1;"/><polygon fill="none" points="2977,55,2990.4164,68.4164,2995.783,57.6833,2977,55" style="stroke:#181818;stroke-width:1;stroke-linejoin:miter;stroke-miterlimit:10;"/></g><!--reverse link Execution to Observation--><g class="link" data-entity-1="ent0029" data-entity-2="ent0043" data-link-type="extension" data-source-line="19" id="lnk44"><path codeLine="19" d="M2454.4895,65.7202 C2478.3095,83.3802 2496.61,96.94 2520.54,114.68" fill="none" id="Execution-backto-Observation" style="stroke:#181818;stroke-width:1;"/><polygon fill="none" points="2440.03,55,2450.9161,70.54,2458.0629,60.9004,2440.03,55" style="stroke:#181818;stroke-width:1;stroke-linejoin:miter;stroke-miterlimit:10;"/></g><?plantuml-src VL9BQiCm4Dtx5Bv0Rj1Dw0UoA3Rr2HHbKWIZ3vfHgQ67ZyYeikNKtKdlC-zfq1XzWCXp__HpEFH7pKcnEYEC1UycPGE2qE-A8Hg5WZNK51JlC9mPOgChEpQPmvaWVZMP-Q3XaYAiMndtMV6jGcRyfxX7Du8Z4R2G8og--cYxQIO6kt90R31fukFQB7pt-WqwiV6kpLlmPuy8-b6nuDiPvTsPQ7g1eznWTsvr_JLuAoxBtvC_Y3gDYgX_WO1-jk2u01CRcp3H7ly6YlFIX-l9vIy4L7tt9Q-Y2omxbSkGEAHVG_qZSZsvXTfq-01Ao3S0?></g></svg>