<svg xmlns="http://www.w3.org/2000/svg" xmlns:xlink="http://www.w3.org/1999/xlink" contentStyleType="text/css" data-diagram-type="CLASS" height="286px" preserveAspectRatio="none" style="width:3235px;height:286px;background:#FFFFFF;" version="1.1" viewBox="0 0 3235 286" width="3235px" zoomAndPan="magnify"><?plantuml 1.2026.6?><defs/><g><!--class Property--><g class="entity" data-qualified-name="Property" data-source-line="1" id="ent0001"><rect fill="#F1F1F1" height="48" rx="2.5" ry="2.5" style="stroke:#181818;stroke-width:0.5;" width="91.7939" x="557" y="7"/><ellipse cx="572" cy="23" fill="#ADD1B2" rx="11" ry="11" style="stroke:#181818;stroke-width:1;"/><path d="M574.9688,28.6406 Q574.3906,28.9375 573.75,29.0781 Q573.1094,29.2344 572.4063,29.2344 Q569.9063,29.2344 568.5781,27.5938 Q567.2656,25.9375 567.2656,22.8125 Q567.2656,19.6875 568.5781,18.0313 Q569.9063,16.375 572.4063,16.375 Q573.1094,16.375 573.75,16.5313 Q574.4063,16.6875 574.9688,16.9844 L574.9688,19.7031 Q574.3438,19.125 573.75,18.8594 Q573.1563,18.5781 572.5313,18.5781 Q571.1875,18.5781 570.5,19.6563 Q569.8125,20.7188 569.8125,22.8125 Q569.8125,24.9063 570.5,25.9844 Q571.1875,27.0469 572.5313,27.0469 Q573.1563,27.0469 573.75,26.7813 Q574.3438,26.5 574.9688,25.9219 L574.9688,28.6406 Z " fill="#000000"/><text fill="#000000" font-family="sans-serif" font-size="14" lengthAdjust="spacing" textLength="59.7939" x="586" y="27.8467">Property</text><line style="stroke:#181818;stroke-width:0.5;" x1="558" x2="647.7939" y1="39" y2="39"/><line style="stroke:#181818;stroke-width:0.5;" x1="558" x2="647.7939" y1="47" y2="47"/></g><!--class ActuatableProperty--><g class="entity" data-qualified-name="ActuatableProperty" data-source-line="1" id="ent0002"><rect fill="#F1F1F1" height="48" rx="2.5" ry="2.5" style="stroke:#181818;stroke-width:0.5;" width="167.4678" x="400.5" y="115"/><ellipse cx="415.5" cy="131" fill="#ADD1B2" rx="11" ry="11" style="stroke:#181818;stroke-width:1;"/><path d="M418.4688,136.6406 Q417.8906,136.9375 417.25,137.0781 Q416.6094,137.2344 415.9063,137.2344 Q413.4063,137.2344 412.0781,135.5938 Q410.7656,133.9375 410.7656,130.8125 Q410.7656,127.6875 412.0781,126.0313 Q413.4063,124.375 415.9063,124.375 Q416.6094,124.375 417.25,124.5313 Q417.9063,124.6875 418.4688,124.9844 L418.4688,127.7031 Q417.8438,127.125 417.25,126.8594 Q416.6563,126.5781 416.0313,126.5781 Q414.6875,126.5781 414,127.6563 Q413.3125,128.7188 413.3125,130.8125 Q413.3125,132.9063 414,133.9844 Q414.6875,135.0469 416.0313,135.0469 Q416.6563,135.0469 417.25,134.7813 Q417.8438,134.5 418.4688,133.9219 L418.4688,136.6406 Z " fill="#000000"/><text fill="#000000" font-family="sans-serif" font-size="14" lengthAdjust="spacing" textLength="135.4678" x="429.5" y="135.8467">ActuatableProperty</text><line style="stroke:#181818;stroke-width:0.5;" x1="401.5" x2="566.9678" y1="147" y2="147"/><line style="stroke:#181818;stroke-width:0.5;" x1="401.5" x2="566.9678" y1="155" y2="155"/></g><!--class Sample--><g class="entity" data-qualified-name="Sample" data-source-line="2" id="ent0004"><rect fill="#F1F1F1" height="48" rx="2.5" ry="2.5" style="stroke:#181818;stroke-width:0.5;" width="84.4932" x="1011" y="7"/><ellipse cx="1026" cy="23" fill="#ADD1B2" rx="11" ry="11" style="stroke:#181818;stroke-width:1;"/><path d="M1028.9688,28.6406 Q1028.3906,28.9375 1027.75,29.0781 Q1027.1094,29.2344 1026.4063,29.2344 Q1023.9063,29.2344 1022.5781,27.5938 Q1021.2656,25.9375 1021.2656,22.8125 Q1021.2656,19.6875 1022.5781,18.0313 Q1023.9063,16.375 1026.4063,16.375 Q1027.1094,16.375 1027.75,16.5313 Q1028.4063,16.6875 1028.9688,16.9844 L1028.9688,19.7031 Q1028.3438,19.125 1027.75,18.8594 Q1027.1563,18.5781 1026.5313,18.5781 Q1025.1875,18.5781 1024.5,19.6563 Q1023.8125,20.7188 1023.8125,22.8125 Q1023.8125,24.9063 1024.5,25.9844 Q1025.1875,27.0469 1026.5313,27.0469 Q1027.1563,27.0469 1027.75,26.7813 Q1028.3438,26.5 1028.9688,25.9219 L1028.9688,28.6406 Z " fill="#000000"/><text fill="#000000" font-family="sans-serif" font-size="14" lengthAdjust="spacing" textLength="52.4932" x="1040" y="27.8467">Sample</text><line style="stroke:#181818;stroke-width:0.5;" x1="1012" x2="1094.4932" y1="39" y2="39"/><line style="stroke:#181818;stroke-width:0.5;" x1="1012" x2="1094.4932" y1="47" y2="47"/></g><!--class MaterialSample--><g class="entity" data-qualified-name="MaterialSample" data-source-line="2" id="ent0005"><rect fill="#F1F1F1" height="48" rx="2.5" ry="2.5" style="stroke:#181818;stroke-width:0.5;" width="141.3682" x="810.5" y="115"/><ellipse cx="825.5" cy="131" fill="#ADD1B2" rx="11" ry="11" style="stroke:#181818;stroke-width:1;"/><path d="M828.4688,136.6406 Q827.8906,136.9375 827.25,137.0781 Q826.6094,137.2344 825.9063,137.2344 Q823.4063,137.2344 822.0781,135.5938 Q820.7656,133.9375 820.7656,130.8125 Q820.7656,127.6875 822.0781,126.0313 Q823.4063,124.375 825.9063,124.375 Q826.6094,124.375 827.25,124.5313 Q827.9063,124.6875 828.4688,124.9844 L828.4688,127.7031 Q827.8438,127.125 827.25,126.8594 Q826.6563,126.5781 826.0313,126.5781 Q824.6875,126.5781 824,127.6563 Q823.3125,128.7188 823.3125,130.8125 Q823.3125,132.9063 824,133.9844 Q824.6875,135.0469 826.0313,135.0469 Q826.6563,135.0469 827.25,134.7813 Q827.8438,134.5 828.4688,133.9219 L828.4688,136.6406 Z " fill="#000000"/><text fill="#000000" font-family="sans-serif" font-size="14" lengthAdjust="spacing" textLength="109.3682" x="839.5" y="135.8467">MaterialSample</text><line style="stroke:#181818;stroke-width:0.5;" x1="811.5" x2="950.8682" y1="147" y2="147"/><line style="stroke:#181818;stroke-width:0.5;" x1="811.5" x2="950.8682" y1="155" y2="155"/></g><!--class SpatialSample--><g class="entity" data-qualified-name="SpatialSample" data-source-line="3" id="ent0007"><rect fill="#F1F1F1" height="48" rx="2.5" ry="2.5" style="stroke:#181818;stroke-width:0.5;" width="132.6934" x="986.5" y="115"/><ellipse cx="1001.5" cy="131" fill="#ADD1B2" rx="11" ry="11" style="stroke:#181818;stroke-width:1;"/><path d="M1004.4688,136.6406 Q1003.8906,136.9375 1003.25,137.0781 Q1002.6094,137.2344 1001.9063,137.2344 Q999.4063,137.2344 998.0781,135.5938 Q996.7656,133.9375 996.7656,130.8125 Q996.7656,127.6875 998.0781,126.0313 Q999.4063,124.375 1001.9063,124.375 Q1002.6094,124.375 1003.25,124.5313 Q1003.9063,124.6875 1004.4688,124.9844 L1004.4688,127.7031 Q1003.8438,127.125 1003.25,126.8594 Q1002.6563,126.5781 1002.0313,126.5781 Q1000.6875,126.5781 1000,127.6563 Q999.3125,128.7188 999.3125,130.8125 Q999.3125,132.9063 1000,133.9844 Q1000.6875,135.0469 1002.0313,135.0469 Q1002.6563,135.0469 1003.25,134.7813 Q1003.8438,134.5 1004.4688,133.9219 L1004.4688,136.6406 Z " fill="#000000"/><text fill="#000000" font-family="sans-serif" font-size="14" lengthAdjust="spacing" textLength="100.6934" x="1015.5" y="135.8467">SpatialSample</text><line style="stroke:#181818;stroke-width:0.5;" x1="987.5" x2="1118.1934" y1="147" y2="147"/><line style="stroke:#181818;stroke-width:0.5;" x1="987.5" x2="1118.1934" y1="155" y2="155"/></g><!--class StatisticalSample--><g class="entity" data-qualified-name="StatisticalSample" data-source-line="4" id="ent0009"><rect fill="#F1F1F1" height="48" rx="2.5" ry="2.5" style="stroke:#181818;stroke-width:0.5;" width="153.666" x="1155" y="115"/><ellipse cx="1170" cy="131" fill="#ADD1B2" rx="11" ry="11" style="stroke:#181818;stroke-width:1;"/><path d="M1172.9688,136.6406 Q1172.3906,136.9375 1171.75,137.0781 Q1171.1094,137.2344 1170.4063,137.2344 Q1167.9063,137.2344 1166.5781,135.5938 Q1165.2656,133.9375 1165.2656,130.8125 Q1165.2656,127.6875 1166.5781,126.0313 Q1167.9063,124.375 1170.4063,124.375 Q1171.1094,124.375 1171.75,124.5313 Q1172.4063,124.6875 1172.9688,124.9844 L1172.9688,127.7031 Q1172.3438,127.125 1171.75,126.8594 Q1171.1563,126.5781 1170.5313,126.5781 Q1169.1875,126.5781 1168.5,127.6563 Q1167.8125,128.7188 1167.8125,130.8125 Q1167.8125,132.9063 1168.5,133.9844 Q1169.1875,135.0469 1170.5313,135.0469 Q1171.1563,135.0469 1171.75,134.7813 Q1172.3438,134.5 1172.9688,133.9219 L1172.9688,136.6406 Z " fill="#000000"/><text fill="#000000" font-family="sans-serif" font-size="14" lengthAdjust="spacing" textLength="121.666" x="1184" y="135.8467">StatisticalSample</text><line style="stroke:#181818;stroke-width:0.5;" x1="1156" x2="1307.666" y1="147" y2="147"/><line style="stroke:#181818;stroke-width:0.5;" x1="1156" x2="1307.666" y1="155" y2="155"/></g><!--class ObservableProperty--><g class="entity" data-qualified-name="ObservableProperty" data-source-line="5" id="ent0011"><rect fill="#F1F1F1" height="48" rx="2.5" ry="2.5" style="stroke:#181818;stroke-width:0.5;" width="171.6172" x="603" y="115"/><ellipse cx="618" cy="131" fill="#ADD1B2" rx="11" ry="11" style="stroke:#181818;stroke-width:1;"/><path d="M620.9688,136.6406 Q620.3906,136.9375 619.75,137.0781 Q619.1094,137.2344 618.4063,137.2344 Q615.9063,137.2344 614.5781,135.5938 Q613.2656,133.9375 613.2656,130.8125 Q613.2656,127.6875 614.5781,126.0313 Q615.9063,124.375 618.4063,124.375 Q619.1094,124.375 619.75,124.5313 Q620.4063,124.6875 620.9688,124.9844 L620.9688,127.7031 Q620.3438,127.125 619.75,126.8594 Q619.1563,126.5781 618.5313,126.5781 Q617.1875,126.5781 616.5,127.6563 Q615.8125,128.7188 615.8125,130.8125 Q615.8125,132.9063 616.5,133.9844 Q617.1875,135.0469 618.5313,135.0469 Q619.1563,135.0469 619.75,134.7813 Q620.3438,134.5 620.9688,133.9219 L620.9688,136.6406 Z " fill="#000000"/><text fill="#000000" font-family="sans-serif" font-size="14" lengthAdjust="spacing" textLength="139.6172" x="632" y="135.8467">ObservableProperty</text><line style="stroke:#181818;stroke-width:0.5;" x1="604" x2="773.6172" y1="147" y2="147"/><line style="stroke:#181818;stroke-width:0.5;" x1="604" x2="773.6172" y1="155" y2="155"/></g><!--class Procedure--><g class="entity" data-qualified-name="Procedure" data-source-line="6" id="ent0013"><rect fill="#F1F1F1" height="48" rx="2.5" ry="2.5" style="stroke:#181818;stroke-width:0.5;" width="103.2031" x="1586.5" y="7"/><ellipse cx="1601.5" cy="23" fill="#ADD1B2" rx="11" ry="11" style="stroke:#181818;stroke-width:1;"/><path d="M1604.4688,28.6406 Q1603.8906,28.9375 1603.25,29.0781 Q1602.6094,29.2344 1601.9063,29.2344 Q1599.4063,29.2344 1598.0781,27.5938 Q1596.7656,25.9375 1596.7656,22.8125 Q1596.7656,19.6875 1598.0781,18.0313 Q1599.4063,16.375 1601.9063,16.375 Q1602.6094,16.375 1603.25,16.5313 Q1603.9063,16.6875 1604.4688,16.9844 L1604.4688,19.7031 Q1603.8438,19.125 1603.25,18.8594 Q1602.6563,18.5781 1602.0313,18.5781 Q1600.6875,18.5781 1600,19.6563 Q1599.3125,20.7188 1599.3125,22.8125 Q1599.3125,24.9063 1600,25.9844 Q1600.6875,27.0469 1602.0313,27.0469 Q1602.6563,27.0469 1603.25,26.7813 Q1603.8438,26.5 1604.4688,25.9219 L1604.4688,28.6406 Z " fill="#000000"/><text fill="#000000" font-family="sans-serif" font-size="14" lengthAdjust="spacing" textLength="71.2031" x="1615.5" y="27.8467">Procedure</text><line style="stroke:#181818;stroke-width:0.5;" x1="1587.5" x2="1688.7031" y1="39" y2="39"/><line style="stroke:#181818;stroke-width:0.5;" x1="1587.5" x2="1688.7031" y1="47" y2="47"/></g><!--class ActuatingProcedure--><g class="entity" data-qualified-name="ActuatingProcedure" data-source-line="6" id="ent0014"><rect fill="#F1F1F1" height="48" rx="2.5" ry="2.5" style="stroke:#181818;stroke-width:0.5;" width="170.5576" x="1344.5" y="115"/><ellipse cx="1359.5" cy="131" fill="#ADD1B2" rx="11" ry="11" style="stroke:#181818;stroke-width:1;"/><path d="M1362.4688,136.6406 Q1361.8906,136.9375 1361.25,137.0781 Q1360.6094,137.2344 1359.9063,137.2344 Q1357.4063,137.2344 1356.0781,135.5938 Q1354.7656,133.9375 1354.7656,130.8125 Q1354.7656,127.6875 1356.0781,126.0313 Q1357.4063,124.375 1359.9063,124.375 Q1360.6094,124.375 1361.25,124.5313 Q1361.9063,124.6875 1362.4688,124.9844 L1362.4688,127.7031 Q1361.8438,127.125 1361.25,126.8594 Q1360.6563,126.5781 1360.0313,126.5781 Q1358.6875,126.5781 1358,127.6563 Q1357.3125,128.7188 1357.3125,130.8125 Q1357.3125,132.9063 1358,133.9844 Q1358.6875,135.0469 1360.0313,135.0469 Q1360.6563,135.0469 1361.25,134.7813 Q1361.8438,134.5 1362.4688,133.9219 L1362.4688,136.6406 Z " fill="#000000"/><text fill="#000000" font-family="sans-serif" font-size="14" lengthAdjust="spacing" textLength="138.5576" x="1373.5" y="135.8467">ActuatingProcedure</text><line style="stroke:#181818;stroke-width:0.5;" x1="1345.5" x2="1514.0576" y1="147" y2="147"/><line style="stroke:#181818;stroke-width:0.5;" x1="1345.5" x2="1514.0576" y1="155" y2="155"/></g><!--class ObservingProcedure--><g class="entity" data-qualified-name="ObservingProcedure" data-source-line="7" id="ent0016"><rect fill="#F1F1F1" height="48" rx="2.5" ry="2.5" style="stroke:#181818;stroke-width:0.5;" width="174.707" x="1550.5" y="115"/><ellipse cx="1565.5" cy="131" fill="#ADD1B2" rx="11" ry="11" style="stroke:#181818;stroke-width:1;"/><path d="M1568.4688,136.6406 Q1567.8906,136.9375 1567.25,137.0781 Q1566.6094,137.2344 1565.9063,137.2344 Q1563.4063,137.2344 1562.0781,135.5938 Q1560.7656,133.9375 1560.7656,130.8125 Q1560.7656,127.6875 1562.0781,126.0313 Q1563.4063,124.375 1565.9063,124.375 Q1566.6094,124.375 1567.25,124.5313 Q1567.9063,124.6875 1568.4688,124.9844 L1568.4688,127.7031 Q1567.8438,127.125 1567.25,126.8594 Q1566.6563,126.5781 1566.0313,126.5781 Q1564.6875,126.5781 1564,127.6563 Q1563.3125,128.7188 1563.3125,130.8125 Q1563.3125,132.9063 1564,133.9844 Q1564.6875,135.0469 1566.0313,135.0469 Q1566.6563,135.0469 1567.25,134.7813 Q1567.8438,134.5 1568.4688,133.9219 L1568.4688,136.6406 Z " fill="#000000"/><text fill="#000000" font-family="sans-serif" font-size="14" lengthAdjust="spacing" textLength="142.707" x="1579.5" y="135.8467">ObservingProcedure</text><line style="stroke:#181818;stroke-width:0.5;" x1="1551.5" x2="1724.207" y1="147" y2="147"/><line style="stroke:#181818;stroke-width:0.5;" x1="1551.5" x2="1724.207" y1="155" y2="155"/></g><!--class SamplingProcedure--><g class="entity" data-qualified-name="SamplingProcedure" data-source-line="8" id="ent0018"><rect fill="#F1F1F1" height="48" rx="2.5" ry="2.5" style="stroke:#181818;stroke-width:0.5;" width="168.7324" x="1760.5" y="115"/><ellipse cx="1775.5" cy="131" fill="#ADD1B2" rx="11" ry="11" style="stroke:#181818;stroke-width:1;"/><path d="M1778.4688,136.6406 Q1777.8906,136.9375 1777.25,137.0781 Q1776.6094,137.2344 1775.9063,137.2344 Q1773.4063,137.2344 1772.0781,135.5938 Q1770.7656,133.9375 1770.7656,130.8125 Q1770.7656,127.6875 1772.0781,126.0313 Q1773.4063,124.375 1775.9063,124.375 Q1776.6094,124.375 1777.25,124.5313 Q1777.9063,124.6875 1778.4688,124.9844 L1778.4688,127.7031 Q1777.8438,127.125 1777.25,126.8594 Q1776.6563,126.5781 1776.0313,126.5781 Q1774.6875,126.5781 1774,127.6563 Q1773.3125,128.7188 1773.3125,130.8125 Q1773.3125,132.9063 1774,133.9844 Q1774.6875,135.0469 1776.0313,135.0469 Q1776.6563,135.0469 1777.25,134.7813 Q1777.8438,134.5 1778.4688,133.9219 L1778.4688,136.6406 Z " fill="#000000"/><text fill="#000000" font-family="sans-serif" font-size="14" lengthAdjust="spacing" textLength="136.7324" x="1789.5" y="135.8467">SamplingProcedure</text><line style="stroke:#181818;stroke-width:0.5;" x1="1761.5" x2="1928.2324" y1="147" y2="147"/><line style="stroke:#181818;stroke-width:0.5;" x1="1761.5" x2="1928.2324" y1="155" y2="155"/></g><!--class Asset--><g class="entity" data-qualified-name="Asset" data-source-line="9" id="ent0020"><rect fill="#F1F1F1" height="48" rx="2.5" ry="2.5" style="stroke:#181818;stroke-width:0.5;" width="70.2676" x="2036" y="7"/><ellipse cx="2051" cy="23" fill="#ADD1B2" rx="11" ry="11" style="stroke:#181818;stroke-width:1;"/><path d="M2053.9688,28.6406 Q2053.3906,28.9375 2052.75,29.0781 Q2052.1094,29.2344 2051.4063,29.2344 Q2048.9063,29.2344 2047.5781,27.5938 Q2046.2656,25.9375 2046.2656,22.8125 Q2046.2656,19.6875 2047.5781,18.0313 Q2048.9063,16.375 2051.4063,16.375 Q2052.1094,16.375 2052.75,16.5313 Q2053.4063,16.6875 2053.9688,16.9844 L2053.9688,19.7031 Q2053.3438,19.125 2052.75,18.8594 Q2052.1563,18.5781 2051.5313,18.5781 Q2050.1875,18.5781 2049.5,19.6563 Q2048.8125,20.7188 2048.8125,22.8125 Q2048.8125,24.9063 2049.5,25.9844 Q2050.1875,27.0469 2051.5313,27.0469 Q2052.1563,27.0469 2052.75,26.7813 Q2053.3438,26.5 2053.9688,25.9219 L2053.9688,28.6406 Z " fill="#000000"/><text fill="#000000" font-family="sans-serif" font-size="14" lengthAdjust="spacing" textLength="38.2676" x="2065" y="27.8467">Asset</text><line style="stroke:#181818;stroke-width:0.5;" x1="2037" x2="2105.2676" y1="39" y2="39"/><line style="stroke:#181818;stroke-width:0.5;" x1="2037" x2="2105.2676" y1="47" y2="47"/></g><!--class Platform--><g class="entity" data-qualified-name="Platform" data-source-line="9" id="ent0021"><rect fill="#F1F1F1" height="48" rx="2.5" ry="2.5" style="stroke:#181818;stroke-width:0.5;" width="91.2881" x="1964.5" y="115"/><ellipse cx="1979.5" cy="131" fill="#ADD1B2" rx="11" ry="11" style="stroke:#181818;stroke-width:1;"/><path d="M1982.4688,136.6406 Q1981.8906,136.9375 1981.25,137.0781 Q1980.6094,137.2344 1979.9063,137.2344 Q1977.4063,137.2344 1976.0781,135.5938 Q1974.7656,133.9375 1974.7656,130.8125 Q1974.7656,127.6875 1976.0781,126.0313 Q1977.4063,124.375 1979.9063,124.375 Q1980.6094,124.375 1981.25,124.5313 Q1981.9063,124.6875 1982.4688,124.9844 L1982.4688,127.7031 Q1981.8438,127.125 1981.25,126.8594 Q1980.6563,126.5781 1980.0313,126.5781 Q1978.6875,126.5781 1978,127.6563 Q1977.3125,128.7188 1977.3125,130.8125 Q1977.3125,132.9063 1978,133.9844 Q1978.6875,135.0469 1980.0313,135.0469 Q1980.6563,135.0469 1981.25,134.7813 Q1981.8438,134.5 1982.4688,133.9219 L1982.4688,136.6406 Z " fill="#000000"/><text fill="#000000" font-family="sans-serif" font-size="14" lengthAdjust="spacing" textLength="59.2881" x="1993.5" y="135.8467">Platform</text><line style="stroke:#181818;stroke-width:0.5;" x1="1965.5" x2="2054.7881" y1="147" y2="147"/><line style="stroke:#181818;stroke-width:0.5;" x1="1965.5" x2="2054.7881" y1="155" y2="155"/></g><!--class System--><g class="entity" data-qualified-name="System" data-source-line="10" id="ent0023"><rect fill="#F1F1F1" height="48" rx="2.5" ry="2.5" style="stroke:#181818;stroke-width:0.5;" width="84.2061" x="2091" y="115"/><ellipse cx="2106" cy="131" fill="#ADD1B2" rx="11" ry="11" style="stroke:#181818;stroke-width:1;"/><path d="M2108.9688,136.6406 Q2108.3906,136.9375 2107.75,137.0781 Q2107.1094,137.2344 2106.4063,137.2344 Q2103.9063,137.2344 2102.5781,135.5938 Q2101.2656,133.9375 2101.2656,130.8125 Q2101.2656,127.6875 2102.5781,126.0313 Q2103.9063,124.375 2106.4063,124.375 Q2107.1094,124.375 2107.75,124.5313 Q2108.4063,124.6875 2108.9688,124.9844 L2108.9688,127.7031 Q2108.3438,127.125 2107.75,126.8594 Q2107.1563,126.5781 2106.5313,126.5781 Q2105.1875,126.5781 2104.5,127.6563 Q2103.8125,128.7188 2103.8125,130.8125 Q2103.8125,132.9063 2104.5,133.9844 Q2105.1875,135.0469 2106.5313,135.0469 Q2107.1563,135.0469 2107.75,134.7813 Q2108.3438,134.5 2108.9688,133.9219 L2108.9688,136.6406 Z " fill="#000000"/><text fill="#000000" font-family="sans-serif" font-size="14" lengthAdjust="spacing" textLength="52.2061" x="2120" y="135.8467">System</text><line style="stroke:#181818;stroke-width:0.5;" x1="2092" x2="2174.2061" y1="147" y2="147"/><line style="stroke:#181818;stroke-width:0.5;" x1="2092" x2="2174.2061" y1="155" y2="155"/></g><!--class Sampler--><g class="entity" data-qualified-name="Sampler" data-source-line="10" id="ent0024"><rect fill="#F1F1F1" height="48" rx="2.5" ry="2.5" style="stroke:#181818;stroke-width:0.5;" width="90.249" x="1962" y="223"/><ellipse cx="1977" cy="239" fill="#ADD1B2" rx="11" ry="11" style="stroke:#181818;stroke-width:1;"/><path d="M1979.9688,244.6406 Q1979.3906,244.9375 1978.75,245.0781 Q1978.1094,245.2344 1977.4063,245.2344 Q1974.9063,245.2344 1973.5781,243.5938 Q1972.2656,241.9375 1972.2656,238.8125 Q1972.2656,235.6875 1973.5781,234.0313 Q1974.9063,232.375 1977.4063,232.375 Q1978.1094,232.375 1978.75,232.5313 Q1979.4063,232.6875 1979.9688,232.9844 L1979.9688,235.7031 Q1979.3438,235.125 1978.75,234.8594 Q1978.1563,234.5781 1977.5313,234.5781 Q1976.1875,234.5781 1975.5,235.6563 Q1974.8125,236.7188 1974.8125,238.8125 Q1974.8125,240.9063 1975.5,241.9844 Q1976.1875,243.0469 1977.5313,243.0469 Q1978.1563,243.0469 1978.75,242.7813 Q1979.3438,242.5 1979.9688,241.9219 L1979.9688,244.6406 Z " fill="#000000"/><text fill="#000000" font-family="sans-serif" font-size="14" lengthAdjust="spacing" textLength="58.249" x="1991" y="243.8467">Sampler</text><line style="stroke:#181818;stroke-width:0.5;" x1="1963" x2="2051.249" y1="255" y2="255"/><line style="stroke:#181818;stroke-width:0.5;" x1="1963" x2="2051.249" y1="263" y2="263"/></g><!--class Actuator--><g class="entity" data-qualified-name="Actuator" data-source-line="11" id="ent0026"><rect fill="#F1F1F1" height="48" rx="2.5" ry="2.5" style="stroke:#181818;stroke-width:0.5;" width="92.0264" x="2087" y="223"/><ellipse cx="2102" cy="239" fill="#ADD1B2" rx="11" ry="11" style="stroke:#181818;stroke-width:1;"/><path d="M2104.9688,244.6406 Q2104.3906,244.9375 2103.75,245.0781 Q2103.1094,245.2344 2102.4063,245.2344 Q2099.9063,245.2344 2098.5781,243.5938 Q2097.2656,241.9375 2097.2656,238.8125 Q2097.2656,235.6875 2098.5781,234.0313 Q2099.9063,232.375 2102.4063,232.375 Q2103.1094,232.375 2103.75,232.5313 Q2104.4063,232.6875 2104.9688,232.9844 L2104.9688,235.7031 Q2104.3438,235.125 2103.75,234.8594 Q2103.1563,234.5781 2102.5313,234.5781 Q2101.1875,234.5781 2100.5,235.6563 Q2099.8125,236.7188 2099.8125,238.8125 Q2099.8125,240.9063 2100.5,241.9844 Q2101.1875,243.0469 2102.5313,243.0469 Q2103.1563,243.0469 2103.75,242.7813 Q2104.3438,242.5 2104.9688,241.9219 L2104.9688,244.6406 Z " fill="#000000"/><text fill="#000000" font-family="sans-serif" font-size="14" lengthAdjust="spacing" textLength="60.0264" x="2116" y="243.8467">Actuator</text><line style="stroke:#181818;stroke-width:0.5;" x1="2088" x2="2178.0264" y1="255" y2="255"/><line style="stroke:#181818;stroke-width:0.5;" x1="2088" x2="2178.0264" y1="263" y2="263"/></g><!--class Execution--><g class="entity" data-qualified-name="Execution" data-source-line="13" id="ent0029"><rect fill="#F1F1F1" height="48" rx="2.5" ry="2.5" style="stroke:#181818;stroke-width:0.5;" width="101.1318" x="2342.5" y="7"/><ellipse cx="2357.5" cy="23" fill="#ADD1B2" rx="11" ry="11" style="stroke:#181818;stroke-width:1;"/><path d="M2360.4688,28.6406 Q2359.8906,28.9375 2359.25,29.0781 Q2358.6094,29.2344 2357.9063,29.2344 Q2355.4063,29.2344 2354.0781,27.5938 Q2352.7656,25.9375 2352.7656,22.8125 Q2352.7656,19.6875 2354.0781,18.0313 Q2355.4063,16.375 2357.9063,16.375 Q2358.6094,16.375 2359.25,16.5313 Q2359.9063,16.6875 2360.4688,16.9844 L2360.4688,19.7031 Q2359.8438,19.125 2359.25,18.8594 Q2358.6563,18.5781 2358.0313,18.5781 Q2356.6875,18.5781 2356,19.6563 Q2355.3125,20.7188 2355.3125,22.8125 Q2355.3125,24.9063 2356,25.9844 Q2356.6875,27.0469 2358.0313,27.0469 Q2358.6563,27.0469 2359.25,26.7813 Q2359.8438,26.5 2360.4688,25.9219 L2360.4688,28.6406 Z " fill="#000000"/><text fill="#000000" font-family="sans-serif" font-size="14" lengthAdjust="spacing" textLength="69.1318" x="2371.5" y="27.8467">Execution</text><line style="stroke:#181818;stroke-width:0.5;" x1="2343.5" x2="2442.6318" y1="39" y2="39"/><line style="stroke:#181818;stroke-width:0.5;" x1="2343.5" x2="2442.6318" y1="47" y2="47"/></g><!--class Sampling--><g class="entity" data-qualified-name="Sampling" data-source-line="13" id="ent0030"><rect fill="#F1F1F1" height="48" rx="2.5" ry="2.5" style="stroke:#181818;stroke-width:0.5;" width="97.5293" x="2210" y="115"/><ellipse cx="2225" cy="131" fill="#ADD1B2" rx="11" ry="11" style="stroke:#181818;stroke-width:1;"/><path d="M2227.9688,136.6406 Q2227.3906,136.9375 2226.75,137.0781 Q2226.1094,137.2344 2225.4063,137.2344 Q2222.9063,137.2344 2221.5781,135.5938 Q2220.2656,133.9375 2220.2656,130.8125 Q2220.2656,127.6875 2221.5781,126.0313 Q2222.9063,124.375 2225.4063,124.375 Q2226.1094,124.375 2226.75,124.5313 Q2227.4063,124.6875 2227.9688,124.9844 L2227.9688,127.7031 Q2227.3438,127.125 2226.75,126.8594 Q2226.1563,126.5781 2225.5313,126.5781 Q2224.1875,126.5781 2223.5,127.6563 Q2222.8125,128.7188 2222.8125,130.8125 Q2222.8125,132.9063 2223.5,133.9844 Q2224.1875,135.0469 2225.5313,135.0469 Q2226.1563,135.0469 2226.75,134.7813 Q2227.3438,134.5 2227.9688,133.9219 L2227.9688,136.6406 Z " fill="#000000"/><text fill="#000000" font-family="sans-serif" font-size="14" lengthAdjust="spacing" textLength="65.5293" x="2239" y="135.8467">Sampling</text><line style="stroke:#181818;stroke-width:0.5;" x1="2211" x2="2306.5293" y1="147" y2="147"/><line style="stroke:#181818;stroke-width:0.5;" x1="2211" x2="2306.5293" y1="155" y2="155"/></g><!--class ExecutionCollection--><g class="entity" data-qualified-name="ExecutionCollection" data-source-line="14" id="ent0032"><rect fill="#F1F1F1" height="48" rx="2.5" ry="2.5" style="stroke:#181818;stroke-width:0.5;" width="170.3799" x="2830" y="7"/><ellipse cx="2845" cy="23" fill="#ADD1B2" rx="11" ry="11" style="stroke:#181818;stroke-width:1;"/><path d="M2847.9688,28.6406 Q2847.3906,28.9375 2846.75,29.0781 Q2846.1094,29.2344 2845.4063,29.2344 Q2842.9063,29.2344 2841.5781,27.5938 Q2840.2656,25.9375 2840.2656,22.8125 Q2840.2656,19.6875 2841.5781,18.0313 Q2842.9063,16.375 2845.4063,16.375 Q2846.1094,16.375 2846.75,16.5313 Q2847.4063,16.6875 2847.9688,16.9844 L2847.9688,19.7031 Q2847.3438,19.125 2846.75,18.8594 Q2846.1563,18.5781 2845.5313,18.5781 Q2844.1875,18.5781 2843.5,19.6563 Q2842.8125,20.7188 2842.8125,22.8125 Q2842.8125,24.9063 2843.5,25.9844 Q2844.1875,27.0469 2845.5313,27.0469 Q2846.1563,27.0469 2846.75,26.7813 Q2847.3438,26.5 2847.9688,25.9219 L2847.9688,28.6406 Z " fill="#000000"/><text fill="#000000" font-family="sans-serif" font-size="14" lengthAdjust="spacing" textLength="138.3799" x="2859" y="27.8467">ExecutionCollection</text><line style="stroke:#181818;stroke-width:0.5;" x1="2831" x2="2999.3799" y1="39" y2="39"/><line style="stroke:#181818;stroke-width:0.5;" x1="2831" x2="2999.3799" y1="47" y2="47"/></g><!--class SamplingCollection--><g class="entity" data-qualified-name="SamplingCollection" data-source-line="14" id="ent0033"><rect fill="#F1F1F1" height="48" rx="2.5" ry="2.5" style="stroke:#181818;stroke-width:0.5;" width="166.7773" x="2629.5" y="115"/><ellipse cx="2644.5" cy="131" fill="#ADD1B2" rx="11" ry="11" style="stroke:#181818;stroke-width:1;"/><path d="M2647.4688,136.6406 Q2646.8906,136.9375 2646.25,137.0781 Q2645.6094,137.2344 2644.9063,137.2344 Q2642.4063,137.2344 2641.0781,135.5938 Q2639.7656,133.9375 2639.7656,130.8125 Q2639.7656,127.6875 2641.0781,126.0313 Q2642.4063,124.375 2644.9063,124.375 Q2645.6094,124.375 2646.25,124.5313 Q2646.9063,124.6875 2647.4688,124.9844 L2647.4688,127.7031 Q2646.8438,127.125 2646.25,126.8594 Q2645.6563,126.5781 2645.0313,126.5781 Q2643.6875,126.5781 2643,127.6563 Q2642.3125,128.7188 2642.3125,130.8125 Q2642.3125,132.9063 2643,133.9844 Q2643.6875,135.0469 2645.0313,135.0469 Q2645.6563,135.0469 2646.25,134.7813 Q2646.8438,134.5 2647.4688,133.9219 L2647.4688,136.6406 Z " fill="#000000"/><text fill="#000000" font-family="sans-serif" font-size="14" lengthAdjust="spacing" textLength="134.7773" x="2658.5" y="135.8467">SamplingCollection</text><line style="stroke:#181818;stroke-width:0.5;" x1="2630.5" x2="2795.2773" y1="147" y2="147"/><line style="stroke:#181818;stroke-width:0.5;" x1="2630.5" x2="2795.2773" y1="155" y2="155"/></g><!--class Actuation--><g class="entity" data-qualified-name="Actuation" data-source-line="15" id="ent0035"><rect fill="#F1F1F1" height="48" rx="2.5" ry="2.5" style="stroke:#181818;stroke-width:0.5;" width="99.0332" x="2343.5" y="115"/><ellipse cx="2358.5" cy="131" fill="#ADD1B2" rx="11" ry="11" style="stroke:#181818;stroke-width:1;"/><path d="M2361.4688,136.6406 Q2360.8906,136.9375 2360.25,137.0781 Q2359.6094,137.2344 2358.9063,137.2344 Q2356.4063,137.2344 2355.0781,135.5938 Q2353.7656,133.9375 2353.7656,130.8125 Q2353.7656,127.6875 2355.0781,126.0313 Q2356.4063,124.375 2358.9063,124.375 Q2359.6094,124.375 2360.25,124.5313 Q2360.9063,124.6875 2361.4688,124.9844 L2361.4688,127.7031 Q2360.8438,127.125 2360.25,126.8594 Q2359.6563,126.5781 2359.0313,126.5781 Q2357.6875,126.5781 2357,127.6563 Q2356.3125,128.7188 2356.3125,130.8125 Q2356.3125,132.9063 2357,133.9844 Q2357.6875,135.0469 2359.0313,135.0469 Q2359.6563,135.0469 2360.25,134.7813 Q2360.8438,134.5 2361.4688,133.9219 L2361.4688,136.6406 Z " fill="#000000"/><text fill="#000000" font-family="sans-serif" font-size="14" lengthAdjust="spacing" textLength="67.0332" x="2372.5" y="135.8467">Actuation</text><line style="stroke:#181818;stroke-width:0.5;" x1="2344.5" x2="2441.5332" y1="147" y2="147"/><line style="stroke:#181818;stroke-width:0.5;" x1="2344.5" x2="2441.5332" y1="155" y2="155"/></g><!--class Sensor--><g class="entity" data-qualified-name="Sensor" data-source-line="16" id="ent0037"><rect fill="#F1F1F1" height="48" rx="2.5" ry="2.5" style="stroke:#181818;stroke-width:0.5;" width="79.9883" x="2214" y="223"/><ellipse cx="2229" cy="239" fill="#ADD1B2" rx="11" ry="11" style="stroke:#181818;stroke-width:1;"/><path d="M2231.9688,244.6406 Q2231.3906,244.9375 2230.75,245.0781 Q2230.1094,245.2344 2229.4063,245.2344 Q2226.9063,245.2344 2225.5781,243.5938 Q2224.2656,241.9375 2224.2656,238.8125 Q2224.2656,235.6875 2225.5781,234.0313 Q2226.9063,232.375 2229.4063,232.375 Q2230.1094,232.375 2230.75,232.5313 Q2231.4063,232.6875 2231.9688,232.9844 L2231.9688,235.7031 Q2231.3438,235.125 2230.75,234.8594 Q2230.1563,234.5781 2229.5313,234.5781 Q2228.1875,234.5781 2227.5,235.6563 Q2226.8125,236.7188 2226.8125,238.8125 Q2226.8125,240.9063 2227.5,241.9844 Q2228.1875,243.0469 2229.5313,243.0469 Q2230.1563,243.0469 2230.75,242.7813 Q2231.3438,242.5 2231.9688,241.9219 L2231.9688,244.6406 Z " fill="#000000"/><text fill="#000000" font-family="sans-serif" font-size="14" lengthAdjust="spacing" textLength="47.9883" x="2243" y="243.8467">Sensor</text><line style="stroke:#181818;stroke-width:0.5;" x1="2215" x2="2292.9883" y1="255" y2="255"/><line style="stroke:#181818;stroke-width:0.5;" x1="2215" x2="2292.9883" y1="263" y2="263"/></g><!--class ActuationCollection--><g class="entity" data-qualified-name="ActuationCollection" data-source-line="17" id="ent0039"><rect fill="#F1F1F1" height="48" rx="2.5" ry="2.5" style="stroke:#181818;stroke-width:0.5;" width="168.2813" x="2831" y="115"/><ellipse cx="2846" cy="131" fill="#ADD1B2" rx="11" ry="11" style="stroke:#181818;stroke-width:1;"/><path d="M2848.9688,136.6406 Q2848.3906,136.9375 2847.75,137.0781 Q2847.1094,137.2344 2846.4063,137.2344 Q2843.9063,137.2344 2842.5781,135.5938 Q2841.2656,133.9375 2841.2656,130.8125 Q2841.2656,127.6875 2842.5781,126.0313 Q2843.9063,124.375 2846.4063,124.375 Q2847.1094,124.375 2847.75,124.5313 Q2848.4063,124.6875 2848.9688,124.9844 L2848.9688,127.7031 Q2848.3438,127.125 2847.75,126.8594 Q2847.1563,126.5781 2846.5313,126.5781 Q2845.1875,126.5781 2844.5,127.6563 Q2843.8125,128.7188 2843.8125,130.8125 Q2843.8125,132.9063 2844.5,133.9844 Q2845.1875,135.0469 2846.5313,135.0469 Q2847.1563,135.0469 2847.75,134.7813 Q2848.3438,134.5 2848.9688,133.9219 L2848.9688,136.6406 Z " fill="#000000"/><text fill="#000000" font-family="sans-serif" font-size="14" lengthAdjust="spacing" textLength="136.2813" x="2860" y="135.8467">ActuationCollection</text><line style="stroke:#181818;stroke-width:0.5;" x1="2832" x2="2998.2813" y1="147" y2="147"/><line style="stroke:#181818;stroke-width:0.5;" x1="2832" x2="2998.2813" y1="155" y2="155"/></g><!--class ObservationCollection--><g class="entity" data-qualified-name="ObservationCollection" data-source-line="18" id="ent0041"><rect fill="#F1F1F1" height="48" rx="2.5" ry="2.5" style="stroke:#181818;stroke-width:0.5;" width="186.499" x="3034" y="115"/><ellipse cx="3049" cy="131" fill="#ADD1B2" rx="11" ry="11" style="stroke:#181818;stroke-width:1;"/><path d="M3051.9688,136.6406 Q3051.3906,136.9375 3050.75,137.0781 Q3050.1094,137.2344 3049.4063,137.2344 Q3046.9063,137.2344 3045.5781,135.5938 Q3044.2656,133.9375 3044.2656,130.8125 Q3044.2656,127.6875 3045.5781,126.0313 Q3046.9063,124.375 3049.4063,124.375 Q3050.1094,124.375 3050.75,124.5313 Q3051.4063,124.6875 3051.9688,124.9844 L3051.9688,127.7031 Q3051.3438,127.125 3050.75,126.8594 Q3050.1563,126.5781 3049.5313,126.5781 Q3048.1875,126.5781 3047.5,127.6563 Q3046.8125,128.7188 3046.8125,130.8125 Q3046.8125,132.9063 3047.5,133.9844 Q3048.1875,135.0469 3049.5313,135.0469 Q3050.1563,135.0469 3050.75,134.7813 Q3051.3438,134.5 3051.9688,133.9219 L3051.9688,136.6406 Z " fill="#000000"/><text fill="#000000" font-family="sans-serif" font-size="14" lengthAdjust="spacing" textLength="154.499" x="3063" y="135.8467">ObservationCollection</text><line style="stroke:#181818;stroke-width:0.5;" x1="3035" x2="3219.499" y1="147" y2="147"/><line style="stroke:#181818;stroke-width:0.5;" x1="3035" x2="3219.499" y1="155" y2="155"/></g><!--class Observation--><g class="entity" data-qualified-name="Observation" data-source-line="19" id="ent0043"><rect fill="#F1F1F1" height="48" rx="2.5" ry="2.5" style="stroke:#181818;stroke-width:0.5;" width="117.251" x="2477.5" y="115"/><ellipse cx="2492.5" cy="131" fill="#ADD1B2" rx="11" ry="11" style="stroke:#181818;stroke-width:1;"/><path d="M2495.4688,136.6406 Q2494.8906,136.9375 2494.25,137.0781 Q2493.6094,137.2344 2492.9063,137.2344 Q2490.4063,137.2344 2489.0781,135.5938 Q2487.7656,133.9375 2487.7656,130.8125 Q2487.7656,127.6875 2489.0781,126.0313 Q2490.4063,124.375 2492.9063,124.375 Q2493.6094,124.375 2494.25,124.5313 Q2494.9063,124.6875 2495.4688,124.9844 L2495.4688,127.7031 Q2494.8438,127.125 2494.25,126.8594 Q2493.6563,126.5781 2493.0313,126.5781 Q2491.6875,126.5781 2491,127.6563 Q2490.3125,128.7188 2490.3125,130.8125 Q2490.3125,132.9063 2491,133.9844 Q2491.6875,135.0469 2493.0313,135.0469 Q2493.6563,135.0469 2494.25,134.7813 Q2494.8438,134.5 2495.4688,133.9219 L2495.4688,136.6406 Z " fill="#000000"/><text fill="#000000" font-family="sans-serif" font-size="14" lengthAdjust="spacing" textLength="85.251" x="2506.5" y="135.8467">Observation</text><line style="stroke:#181818;stroke-width:0.5;" x1="2478.5" x2="2593.751" y1="147" y2="147"/><line style="stroke:#181818;stroke-width:0.5;" x1="2478.5" x2="2593.751" y1="155" y2="155"/></g><!--class Deployment--><g class="entity" data-qualified-name="Deployment" data-source-line="20" id="ent0045"><rect fill="#F1F1F1" height="48" rx="2.5" ry="2.5" style="stroke:#181818;stroke-width:0.5;" width="117.6338" x="26" y="7"/><ellipse cx="41" cy="23" fill="#ADD1B2" rx="11" ry="11" style="stroke:#181818;stroke-width:1;"/><path d="M43.9688,28.6406 Q43.3906,28.9375 42.75,29.0781 Q42.1094,29.2344 41.4063,29.2344 Q38.9063,29.2344 37.5781,27.5938 Q36.2656,25.9375 36.2656,22.8125 Q36.2656,19.6875 37.5781,18.0313 Q38.9063,16.375 41.4063,16.375 Q42.1094,16.375 42.75,16.5313 Q43.4063,16.6875 43.9688,16.9844 L43.9688,19.7031 Q43.3438,19.125 42.75,18.8594 Q42.1563,18.5781 41.5313,18.5781 Q40.1875,18.5781 39.5,19.6563 Q38.8125,20.7188 38.8125,22.8125 Q38.8125,24.9063 39.5,25.9844 Q40.1875,27.0469 41.5313,27.0469 Q42.1563,27.0469 42.75,26.7813 Q43.3438,26.5 43.9688,25.9219 L43.9688,28.6406 Z " fill="#000000"/><text fill="#000000" font-family="sans-serif" font-size="14" lengthAdjust="spacing" textLength="85.6338" x="55" y="27.8467">Deployment</text><line style="stroke:#181818;stroke-width:0.5;" x1="27" x2="142.6338" y1="39" y2="39"/><line style="stroke:#181818;stroke-width:0.5;" x1="27" x2="142.6338" y1="47" y2="47"/></g><!--class SampleCollection--><g class="entity" data-qualified-name="SampleCollection" data-source-line="21" id="ent0046"><rect fill="#F1F1F1" height="48" rx="2.5" ry="2.5" style="stroke:#181818;stroke-width:0.5;" width="153.7412" x="179" y="7"/><ellipse cx="194" cy="23" fill="#ADD1B2" rx="11" ry="11" style="stroke:#181818;stroke-width:1;"/><path d="M196.9688,28.6406 Q196.3906,28.9375 195.75,29.0781 Q195.1094,29.2344 194.4063,29.2344 Q191.9063,29.2344 190.5781,27.5938 Q189.2656,25.9375 189.2656,22.8125 Q189.2656,19.6875 190.5781,18.0313 Q191.9063,16.375 194.4063,16.375 Q195.1094,16.375 195.75,16.5313 Q196.4063,16.6875 196.9688,16.9844 L196.9688,19.7031 Q196.3438,19.125 195.75,18.8594 Q195.1563,18.5781 194.5313,18.5781 Q193.1875,18.5781 192.5,19.6563 Q191.8125,20.7188 191.8125,22.8125 Q191.8125,24.9063 192.5,25.9844 Q193.1875,27.0469 194.5313,27.0469 Q195.1563,27.0469 195.75,26.7813 Q196.3438,26.5 196.9688,25.9219 L196.9688,28.6406 Z " fill="#000000"/><text fill="#000000" font-family="sans-serif" font-size="14" lengthAdjust="spacing" textLength="121.7412" x="208" y="27.8467">SampleCollection</text><line style="stroke:#181818;stroke-width:0.5;" x1="180" x2="331.7412" y1="39" y2="39"/><line style="stroke:#181818;stroke-width:0.5;" x1="180" x2="331.7412" y1="47" y2="47"/></g><!--class Input--><g class="entity" data-qualified-name="Input" data-source-line="23" id="ent0047"><rect fill="#F1F1F1" height="48" rx="2.5" ry="2.5" style="stroke:#181818;stroke-width:0.5;" width="68.251" x="368" y="7"/><ellipse cx="383" cy="23" fill="#ADD1B2" rx="11" ry="11" style="stroke:#181818;stroke-width:1;"/><path d="M385.9688,28.6406 Q385.3906,28.9375 384.75,29.0781 Q384.1094,29.2344 383.4063,29.2344 Q380.9063,29.2344 379.5781,27.5938 Q378.2656,25.9375 378.2656,22.8125 Q378.2656,19.6875 379.5781,18.0313 Q380.9063,16.375 383.4063,16.375 Q384.1094,16.375 384.75,16.5313 Q385.4063,16.6875 385.9688,16.9844 L385.9688,19.7031 Q385.3438,19.125 384.75,18.8594 Q384.1563,18.5781 383.5313,18.5781 Q382.1875,18.5781 381.5,19.6563 Q380.8125,20.7188 380.8125,22.8125 Q380.8125,24.9063 381.5,25.9844 Q382.1875,27.0469 383.5313,27.0469 Q384.1563,27.0469 384.75,26.7813 Q385.3438,26.5 385.9688,25.9219 L385.9688,28.6406 Z " fill="#000000"/><text fill="#000000" font-family="sans-serif" font-size="14" lengthAdjust="spacing" textLength="36.251" x="397" y="27.8467">Input</text><line style="stroke:#181818;stroke-width:0.5;" x1="369" x2="435.251" y1="39" y2="39"/><line style="stroke:#181818;stroke-width:0.5;" x1="369" x2="435.251" y1="47" y2="47"/></g><!--class Output--><g class="entity" data-qualified-name="Output" data-source-line="24" id="ent0048"><rect fill="#F1F1F1" height="48" rx="2.5" ry="2.5" style="stroke:#181818;stroke-width:0.5;" width="80.6309" x="44.5" y="115"/><ellipse cx="59.5" cy="131" fill="#ADD1B2" rx="11" ry="11" style="stroke:#181818;stroke-width:1;"/><path d="M62.4688,136.6406 Q61.8906,136.9375 61.25,137.0781 Q60.6094,137.2344 59.9063,137.2344 Q57.4063,137.2344 56.0781,135.5938 Q54.7656,133.9375 54.7656,130.8125 Q54.7656,127.6875 56.0781,126.0313 Q57.4063,124.375 59.9063,124.375 Q60.6094,124.375 61.25,124.5313 Q61.9063,124.6875 62.4688,124.9844 L62.4688,127.7031 Q61.8438,127.125 61.25,126.8594 Q60.6563,126.5781 60.0313,126.5781 Q58.6875,126.5781 58,127.6563 Q57.3125,128.7188 57.3125,130.8125 Q57.3125,132.9063 58,133.9844 Q58.6875,135.0469 60.0313,135.0469 Q60.6563,135.0469 61.25,134.7813 Q61.8438,134.5 62.4688,133.9219 L62.4688,136.6406 Z " fill="#000000"/><text fill="#000000" font-family="sans-serif" font-size="14" lengthAdjust="spacing" textLength="48.6309" x="73.5" y="135.8467">Output</text><line style="stroke:#181818;stroke-width:0.5;" x1="45.5" x2="124.1309" y1="147" y2="147"/><line style="stroke:#181818;stroke-width:0.5;" x1="45.5" x2="124.1309" y1="155" y2="155"/></g><!--class Result--><g class="entity" data-qualified-name="Result" data-source-line="25" id="ent0049"><rect fill="#F1F1F1" height="48" rx="2.5" ry="2.5" style="stroke:#181818;stroke-width:0.5;" width="75.8867" x="161" y="115"/><ellipse cx="176" cy="131" fill="#ADD1B2" rx="11" ry="11" style="stroke:#181818;stroke-width:1;"/><path d="M178.9688,136.6406 Q178.3906,136.9375 177.75,137.0781 Q177.1094,137.2344 176.4063,137.2344 Q173.9063,137.2344 172.5781,135.5938 Q171.2656,133.9375 171.2656,130.8125 Q171.2656,127.6875 172.5781,126.0313 Q173.9063,124.375 176.4063,124.375 Q177.1094,124.375 177.75,124.5313 Q178.4063,124.6875 178.9688,124.9844 L178.9688,127.7031 Q178.3438,127.125 177.75,126.8594 Q177.1563,126.5781 176.5313,126.5781 Q175.1875,126.5781 174.5,127.6563 Q173.8125,128.7188 173.8125,130.8125 Q173.8125,132.9063 174.5,133.9844 Q175.1875,135.0469 176.5313,135.0469 Q177.1563,135.0469 177.75,134.7813 Q178.3438,134.5 178.9688,133.9219 L178.9688,136.6406 Z " fill="#000000"/><text fill="#000000" font-family="sans-serif" font-size="14" lengthAdjust="spacing" textLength="43.8867" x="190" y="135.8467">Result</text><line style="stroke:#181818;stroke-width:0.5;" x1="162" x2="235.8867" y1="147" y2="147"/><line style="stroke:#181818;stroke-width:0.5;" x1="162" x2="235.8867" y1="155" y2="155"/></g><!--class Stimulus--><g class="entity" data-qualified-name="Stimulus" data-source-line="26" id="ent0050"><rect fill="#F1F1F1" height="48" rx="2.5" ry="2.5" style="stroke:#181818;stroke-width:0.5;" width="92.833" x="272.5" y="115"/><ellipse cx="287.5" cy="131" fill="#ADD1B2" rx="11" ry="11" style="stroke:#181818;stroke-width:1;"/><path d="M290.4688,136.6406 Q289.8906,136.9375 289.25,137.0781 Q288.6094,137.2344 287.9063,137.2344 Q285.4063,137.2344 284.0781,135.5938 Q282.7656,133.9375 282.7656,130.8125 Q282.7656,127.6875 284.0781,126.0313 Q285.4063,124.375 287.9063,124.375 Q288.6094,124.375 289.25,124.5313 Q289.9063,124.6875 290.4688,124.9844 L290.4688,127.7031 Q289.8438,127.125 289.25,126.8594 Q288.6563,126.5781 288.0313,126.5781 Q286.6875,126.5781 286,127.6563 Q285.3125,128.7188 285.3125,130.8125 Q285.3125,132.9063 286,133.9844 Q286.6875,135.0469 288.0313,135.0469 Q288.6563,135.0469 289.25,134.7813 Q289.8438,134.5 290.4688,133.9219 L290.4688,136.6406 Z " fill="#000000"/><text fill="#000000" font-family="sans-serif" font-size="14" lengthAdjust="spacing" textLength="60.833" x="301.5" y="135.8467">Stimulus</text><line style="stroke:#181818;stroke-width:0.5;" x1="273.5" x2="364.333" y1="147" y2="147"/><line style="stroke:#181818;stroke-width:0.5;" x1="273.5" x2="364.333" y1="155" y2="155"/></g><!--class FeatureOfInterest--><g class="entity" data-qualified-name="FeatureOfInterest" data-source-line="28" id="ent0051"><rect fill="#F1F1F1" height="48" rx="2.5" ry="2.5" style="stroke:#181818;stroke-width:0.5;" width="156.1816" x="7" y="223"/><ellipse cx="22" cy="239" fill="#ADD1B2" rx="11" ry="11" style="stroke:#181818;stroke-width:1;"/><path d="M24.9688,244.6406 Q24.3906,244.9375 23.75,245.0781 Q23.1094,245.2344 22.4063,245.2344 Q19.9063,245.2344 18.5781,243.5938 Q17.2656,241.9375 17.2656,238.8125 Q17.2656,235.6875 18.5781,234.0313 Q19.9063,232.375 22.4063,232.375 Q23.1094,232.375 23.75,232.5313 Q24.4063,232.6875 24.9688,232.9844 L24.9688,235.7031 Q24.3438,235.125 23.75,234.8594 Q23.1563,234.5781 22.5313,234.5781 Q21.1875,234.5781 20.5,235.6563 Q19.8125,236.7188 19.8125,238.8125 Q19.8125,240.9063 20.5,241.9844 Q21.1875,243.0469 22.5313,243.0469 Q23.1563,243.0469 23.75,242.7813 Q24.3438,242.5 24.9688,241.9219 L24.9688,244.6406 Z " fill="#000000"/><text fill="#000000" font-family="sans-serif" font-size="14" lengthAdjust="spacing" textLength="124.1816" x="36" y="243.8467">FeatureOfInterest</text><line style="stroke:#181818;stroke-width:0.5;" x1="8" x2="162.1816" y1="255" y2="255"/><line style="stroke:#181818;stroke-width:0.5;" x1="8" x2="162.1816" y1="263" y2="263"/></g><!--reverse link Property to ActuatableProperty--><g class="link" data-entity-1="ent0001" data-entity-2="ent0002" data-link-type="extension" data-source-line="1" id="lnk3"><path codeLine="1" d="M563.7409,66.9745 C543.9209,84.6345 530.09,96.94 510.18,114.68" fill="none" id="Property-backto-ActuatableProperty" style="stroke:#181818;stroke-width:1;"/><polygon fill="none" points="577.18,55,559.7493,62.4948,567.7324,71.4542,577.18,55" style="stroke:#181818;stroke-width:1;stroke-linejoin:miter;stroke-miterlimit:10;"/></g><!--reverse link Sample to MaterialSample--><g class="link" data-entity-1="ent0004" data-entity-2="ent0005" data-link-type="extension" data-source-line="2" id="lnk6"><path codeLine="2" d="M1000.3567,64.4445 C971.6067,82.1645 947.35,97.11 918.55,114.86" fill="none" id="Sample-backto-MaterialSample" style="stroke:#181818;stroke-width:1;"/><polygon fill="none" points="1015.68,55,997.2086,59.3367,1003.5049,69.5522,1015.68,55" style="stroke:#181818;stroke-width:1;stroke-linejoin:miter;stroke-miterlimit:10;"/></g><!--reverse link Sample to SpatialSample--><g class="link" data-entity-1="ent0004" data-entity-2="ent0007" data-link-type="extension" data-source-line="3" id="lnk8"><path codeLine="3" d="M1053,73 C1053,90.66 1053,96.94 1053,114.68" fill="none" id="Sample-backto-SpatialSample" style="stroke:#181818;stroke-width:1;"/><polygon fill="none" points="1053,55,1047,73,1059,73,1053,55" style="stroke:#181818;stroke-width:1;stroke-linejoin:miter;stroke-miterlimit:10;"/></g><!--reverse link Sample to StatisticalSample--><g class="link" data-entity-1="ent0004" data-entity-2="ent0009" data-link-type="extension" data-source-line="4" id="lnk10"><path codeLine="4" d="M1107.3276,64.1725 C1137.2476,81.8925 1162.95,97.11 1192.93,114.86" fill="none" id="Sample-backto-StatisticalSample" style="stroke:#181818;stroke-width:1;"/><polygon fill="none" points="1091.84,55,1104.2701,69.335,1110.3851,59.0099,1091.84,55" style="stroke:#181818;stroke-width:1;stroke-linejoin:miter;stroke-miterlimit:10;"/></g><!--reverse link Property to ObservableProperty--><g class="link" data-entity-1="ent0001" data-entity-2="ent0011" data-link-type="extension" data-source-line="5" id="lnk12"><path codeLine="5" d="M633.0017,68.9773 C647.3317,86.6373 655.69,96.94 670.08,114.68" fill="none" id="Property-backto-ObservableProperty" style="stroke:#181818;stroke-width:1;"/><polygon fill="none" points="621.66,55,628.3426,72.7579,637.6608,65.1967,621.66,55" style="stroke:#181818;stroke-width:1;stroke-linejoin:miter;stroke-miterlimit:10;"/></g><!--reverse link Procedure to ActuatingProcedure--><g class="link" data-entity-1="ent0013" data-entity-2="ent0014" data-link-type="extension" data-source-line="6" id="lnk15"><path codeLine="6" d="M1576.8326,63.1732 C1542.0626,80.8932 1510.24,97.11 1475.4,114.86" fill="none" id="Procedure-backto-ActuatingProcedure" style="stroke:#181818;stroke-width:1;"/><polygon fill="none" points="1592.87,55,1574.1082,57.8274,1579.557,68.519,1592.87,55" style="stroke:#181818;stroke-width:1;stroke-linejoin:miter;stroke-miterlimit:10;"/></g><!--reverse link Procedure to ObservingProcedure--><g class="link" data-entity-1="ent0013" data-entity-2="ent0016" data-link-type="extension" data-source-line="7" id="lnk17"><path codeLine="7" d="M1638,73 C1638,90.66 1638,96.94 1638,114.68" fill="none" id="Procedure-backto-ObservingProcedure" style="stroke:#181818;stroke-width:1;"/><polygon fill="none" points="1638,55,1632,73,1644,73,1638,55" style="stroke:#181818;stroke-width:1;stroke-linejoin:miter;stroke-miterlimit:10;"/></g><!--reverse link Procedure to SamplingProcedure--><g class="link" data-entity-1="ent0013" data-entity-2="ent0018" data-link-type="extension" data-source-line="8" id="lnk19"><path codeLine="8" d="M1698.9411,63.205 C1733.5411,80.925 1765.15,97.11 1799.81,114.86" fill="none" id="Procedure-backto-SamplingProcedure" style="stroke:#181818;stroke-width:1;"/><polygon fill="none" points="1682.92,55,1696.2061,68.5454,1701.6762,57.8647,1682.92,55" style="stroke:#181818;stroke-width:1;stroke-linejoin:miter;stroke-miterlimit:10;"/></g><!--reverse link Asset to Platform--><g class="link" data-entity-1="ent0020" data-entity-2="ent0021" data-link-type="extension" data-source-line="9" id="lnk22"><path codeLine="9" d="M2048.7839,70.6022 C2038.6239,88.2622 2033.63,96.94 2023.42,114.68" fill="none" id="Asset-backto-Platform" style="stroke:#181818;stroke-width:1;"/><polygon fill="none" points="2057.76,55,2043.5831,67.6102,2053.9846,73.5943,2057.76,55" style="stroke:#181818;stroke-width:1;stroke-linejoin:miter;stroke-miterlimit:10;"/></g><!--reverse link System to Sampler--><g class="link" data-entity-1="ent0023" data-entity-2="ent0024" data-link-type="extension" data-source-line="10" id="lnk25"><path codeLine="10" d="M2091.8865,174.5884 C2070.8965,192.2484 2055.81,204.94 2034.72,222.68" fill="none" id="System-backto-Sampler" style="stroke:#181818;stroke-width:1;"/><polygon fill="none" points="2105.66,163,2088.0237,169.9972,2095.7493,179.1795,2105.66,163" style="stroke:#181818;stroke-width:1;stroke-linejoin:miter;stroke-miterlimit:10;"/></g><!--reverse link System to Actuator--><g class="link" data-entity-1="ent0023" data-entity-2="ent0026" data-link-type="extension" data-source-line="11" id="lnk27"><path codeLine="11" d="M2133,181 C2133,198.66 2133,204.94 2133,222.68" fill="none" id="System-backto-Actuator" style="stroke:#181818;stroke-width:1;"/><polygon fill="none" points="2133,163,2127,181,2139,181,2133,163" style="stroke:#181818;stroke-width:1;stroke-linejoin:miter;stroke-miterlimit:10;"/></g><!--reverse link Asset to System--><g class="link" data-entity-1="ent0020" data-entity-2="ent0023" data-link-type="extension" data-source-line="12" id="lnk28"><path codeLine="12" d="M2093.5383,70.5372 C2103.8683,88.1972 2108.98,96.94 2119.36,114.68" fill="none" id="Asset-backto-System" style="stroke:#181818;stroke-width:1;"/><polygon fill="none" points="2084.45,55,2088.3592,73.5666,2098.7173,67.5077,2084.45,55" style="stroke:#181818;stroke-width:1;stroke-linejoin:miter;stroke-miterlimit:10;"/></g><!--reverse link Execution to Sampling--><g class="link" data-entity-1="ent0029" data-entity-2="ent0030" data-link-type="extension" data-source-line="13" id="lnk31"><path codeLine="13" d="M2349.8041,66.1688 C2327.4841,83.8288 2310.91,96.94 2288.48,114.68" fill="none" id="Execution-backto-Sampling" style="stroke:#181818;stroke-width:1;"/><polygon fill="none" points="2363.92,55,2346.0812,61.4635,2353.527,70.8741,2363.92,55" style="stroke:#181818;stroke-width:1;stroke-linejoin:miter;stroke-miterlimit:10;"/></g><!--reverse link ExecutionCollection to SamplingCollection--><g class="link" data-entity-1="ent0032" data-entity-2="ent0033" data-link-type="extension" data-source-line="14" id="lnk34"><path codeLine="14" d="M2855.231,63.3636 C2821.461,81.0836 2790.93,97.11 2757.09,114.86" fill="none" id="ExecutionCollection-backto-SamplingCollection" style="stroke:#181818;stroke-width:1;"/><polygon fill="none" points="2871.17,55,2852.4432,58.0506,2858.0189,68.6766,2871.17,55" style="stroke:#181818;stroke-width:1;stroke-linejoin:miter;stroke-miterlimit:10;"/></g><!--reverse link Execution to Actuation--><g class="link" data-entity-1="ent0029" data-entity-2="ent0035" data-link-type="extension" data-source-line="15" id="lnk36"><path codeLine="15" d="M2393,73 C2393,90.66 2393,96.94 2393,114.68" fill="none" id="Execution-backto-Actuation" style="stroke:#181818;stroke-width:1;"/><polygon fill="none" points="2393,55,2387,73,2399,73,2393,55" style="stroke:#181818;stroke-width:1;stroke-linejoin:miter;stroke-miterlimit:10;"/></g><!--reverse link System to Sensor--><g class="link" data-entity-1="ent0023" data-entity-2="ent0037" data-link-type="extension" data-source-line="16" id="lnk38"><path codeLine="16" d="M2172.7968,174.864 C2192.9468,192.524 2207.13,204.94 2227.38,222.68" fill="none" id="System-backto-Sensor" style="stroke:#181818;stroke-width:1;"/><polygon fill="none" points="2159.26,163,2168.8421,179.3763,2176.7515,170.3518,2159.26,163" style="stroke:#181818;stroke-width:1;stroke-linejoin:miter;stroke-miterlimit:10;"/></g><!--reverse link ExecutionCollection to ActuationCollection--><g class="link" data-entity-1="ent0032" data-entity-2="ent0039" data-link-type="extension" data-source-line="17" id="lnk40"><path codeLine="17" d="M2915,73 C2915,90.66 2915,96.94 2915,114.68" fill="none" id="ExecutionCollection-backto-ActuationCollection" style="stroke:#181818;stroke-width:1;"/><polygon fill="none" points="2915,55,2909,73,2921,73,2915,55" style="stroke:#181818;stroke-width:1;stroke-linejoin:miter;stroke-miterlimit:10;"/></g><!--reverse link ExecutionCollection to ObservationCollection--><g class="link" data-entity-1="ent0032" data-entity-2="ent0041" data-link-type="extension" data-source-line="18" id="lnk42"><path codeLine="18" d="M2977.0997,63.0498 C3012.5397,80.7698 3045.22,97.11 3080.72,114.86" fill="none" id="ExecutionCollection-backto-ObservationCollection" style="stroke:#181818;stroke-width:1;"/><polygon fill="none" points="2961,55,2974.4164,68.4164,2979.783,57.6833,2961,55" style="stroke:#181818;stroke-width:1;stroke-linejoin:miter;stroke-miterlimit:10;"/></g><!--reverse link Execution to Observation--><g class="link" data-entity-1="ent0029" data-entity-2="ent0043" data-link-type="extension" data-source-line="19" id="lnk44"><path codeLine="19" d="M2438.4895,65.7202 C2462.3095,83.3802 2480.61,96.94 2504.54,114.68" fill="none" id="Execution-backto-Observation" style="stroke:#181818;stroke-width:1;"/><polygon fill="none" points="2424.03,55,2434.9161,70.54,2442.0629,60.9004,2424.03,55" style="stroke:#181818;stroke-width:1;stroke-linejoin:miter;stroke-miterlimit:10;"/></g><?plantuml-src VL99RiCm3Bpx5Vv0Vf1Bq0N88R1Hlu1HcK00jK2aWXheuoj4ZcmvSM_Yp70uejG7vp78sEv_Txlse2I2m9cmd_1c0EC9Ctq2mQ21CbPHWmVPO2GnB5eLjgzcTcV6SAjcfeF2xnXmcKhRQy7NYkpnd-8-kX8Sc54osHF8nGNJ32CBcaK7XWhBILnODcU--VX15KKxMy-RyJT7XEfPCUDhZ-dUYQXoeUMKODEtTBqoNekdvM_9dqID8c1ktz6J6mrQcO2yh8L5XikBvl9eVNnqT57cuWivKl4IRI95Vbr-8aXwlkvojEap8ijcfFlE_W00?></g></svg>