<svg xmlns="http://www.w3.org/2000/svg" xmlns:xlink="http://www.w3.org/1999/xlink" contentStyleType="text/css" data-diagram-type="CLASS" height="286px" preserveAspectRatio="none" style="width:3204px;height:286px;background:#FFFFFF;" version="1.1" viewBox="0 0 3204 286" width="3204px" zoomAndPan="magnify"><?plantuml 1.2026.5?><defs/><g><!--class Property--><g class="entity" data-qualified-name="Property" data-source-line="1" id="ent0001"><rect fill="#F1F1F1" height="48" rx="2.5" ry="2.5" style="stroke:#181818;stroke-width:0.5;" width="91.7939" x="524" y="7"/><ellipse cx="539" cy="23" fill="#ADD1B2" rx="11" ry="11" style="stroke:#181818;stroke-width:1;"/><path d="M541.9688,28.6406 Q541.3906,28.9375 540.75,29.0781 Q540.1094,29.2344 539.4063,29.2344 Q536.9063,29.2344 535.5781,27.5938 Q534.2656,25.9375 534.2656,22.8125 Q534.2656,19.6875 535.5781,18.0313 Q536.9063,16.375 539.4063,16.375 Q540.1094,16.375 540.75,16.5313 Q541.4063,16.6875 541.9688,16.9844 L541.9688,19.7031 Q541.3438,19.125 540.75,18.8594 Q540.1563,18.5781 539.5313,18.5781 Q538.1875,18.5781 537.5,19.6563 Q536.8125,20.7188 536.8125,22.8125 Q536.8125,24.9063 537.5,25.9844 Q538.1875,27.0469 539.5313,27.0469 Q540.1563,27.0469 540.75,26.7813 Q541.3438,26.5 541.9688,25.9219 L541.9688,28.6406 Z " fill="#000000"/><text fill="#000000" font-family="sans-serif" font-size="14" lengthAdjust="spacing" textLength="59.7939" x="553" y="27.8467">Property</text><line style="stroke:#181818;stroke-width:0.5;" x1="525" x2="614.7939" y1="39" y2="39"/><line style="stroke:#181818;stroke-width:0.5;" x1="525" x2="614.7939" y1="47" y2="47"/></g><!--class ActuatableProperty--><g class="entity" data-qualified-name="ActuatableProperty" data-source-line="1" id="ent0002"><rect fill="#F1F1F1" height="48" rx="2.5" ry="2.5" style="stroke:#181818;stroke-width:0.5;" width="167.4678" x="369.5" y="115"/><ellipse cx="384.5" cy="131" fill="#ADD1B2" rx="11" ry="11" style="stroke:#181818;stroke-width:1;"/><path d="M387.4688,136.6406 Q386.8906,136.9375 386.25,137.0781 Q385.6094,137.2344 384.9063,137.2344 Q382.4063,137.2344 381.0781,135.5938 Q379.7656,133.9375 379.7656,130.8125 Q379.7656,127.6875 381.0781,126.0313 Q382.4063,124.375 384.9063,124.375 Q385.6094,124.375 386.25,124.5313 Q386.9063,124.6875 387.4688,124.9844 L387.4688,127.7031 Q386.8438,127.125 386.25,126.8594 Q385.6563,126.5781 385.0313,126.5781 Q383.6875,126.5781 383,127.6563 Q382.3125,128.7188 382.3125,130.8125 Q382.3125,132.9063 383,133.9844 Q383.6875,135.0469 385.0313,135.0469 Q385.6563,135.0469 386.25,134.7813 Q386.8438,134.5 387.4688,133.9219 L387.4688,136.6406 Z " fill="#000000"/><text fill="#000000" font-family="sans-serif" font-size="14" lengthAdjust="spacing" textLength="135.4678" x="398.5" y="135.8467">ActuatableProperty</text><line style="stroke:#181818;stroke-width:0.5;" x1="370.5" x2="535.9678" y1="147" y2="147"/><line style="stroke:#181818;stroke-width:0.5;" x1="370.5" x2="535.9678" y1="155" y2="155"/></g><!--class Sample--><g class="entity" data-qualified-name="Sample" data-source-line="2" id="ent0004"><rect fill="#F1F1F1" height="48" rx="2.5" ry="2.5" style="stroke:#181818;stroke-width:0.5;" width="84.4932" x="980" y="7"/><ellipse cx="995" cy="23" fill="#ADD1B2" rx="11" ry="11" style="stroke:#181818;stroke-width:1;"/><path d="M997.9688,28.6406 Q997.3906,28.9375 996.75,29.0781 Q996.1094,29.2344 995.4063,29.2344 Q992.9063,29.2344 991.5781,27.5938 Q990.2656,25.9375 990.2656,22.8125 Q990.2656,19.6875 991.5781,18.0313 Q992.9063,16.375 995.4063,16.375 Q996.1094,16.375 996.75,16.5313 Q997.4063,16.6875 997.9688,16.9844 L997.9688,19.7031 Q997.3438,19.125 996.75,18.8594 Q996.1563,18.5781 995.5313,18.5781 Q994.1875,18.5781 993.5,19.6563 Q992.8125,20.7188 992.8125,22.8125 Q992.8125,24.9063 993.5,25.9844 Q994.1875,27.0469 995.5313,27.0469 Q996.1563,27.0469 996.75,26.7813 Q997.3438,26.5 997.9688,25.9219 L997.9688,28.6406 Z " fill="#000000"/><text fill="#000000" font-family="sans-serif" font-size="14" lengthAdjust="spacing" textLength="52.4932" x="1009" y="27.8467">Sample</text><line style="stroke:#181818;stroke-width:0.5;" x1="981" x2="1063.4932" y1="39" y2="39"/><line style="stroke:#181818;stroke-width:0.5;" x1="981" x2="1063.4932" y1="47" y2="47"/></g><!--class MaterialSample--><g class="entity" data-qualified-name="MaterialSample" data-source-line="2" id="ent0005"><rect fill="#F1F1F1" height="48" rx="2.5" ry="2.5" style="stroke:#181818;stroke-width:0.5;" width="141.3682" x="779.5" y="115"/><ellipse cx="794.5" cy="131" fill="#ADD1B2" rx="11" ry="11" style="stroke:#181818;stroke-width:1;"/><path d="M797.4688,136.6406 Q796.8906,136.9375 796.25,137.0781 Q795.6094,137.2344 794.9063,137.2344 Q792.4063,137.2344 791.0781,135.5938 Q789.7656,133.9375 789.7656,130.8125 Q789.7656,127.6875 791.0781,126.0313 Q792.4063,124.375 794.9063,124.375 Q795.6094,124.375 796.25,124.5313 Q796.9063,124.6875 797.4688,124.9844 L797.4688,127.7031 Q796.8438,127.125 796.25,126.8594 Q795.6563,126.5781 795.0313,126.5781 Q793.6875,126.5781 793,127.6563 Q792.3125,128.7188 792.3125,130.8125 Q792.3125,132.9063 793,133.9844 Q793.6875,135.0469 795.0313,135.0469 Q795.6563,135.0469 796.25,134.7813 Q796.8438,134.5 797.4688,133.9219 L797.4688,136.6406 Z " fill="#000000"/><text fill="#000000" font-family="sans-serif" font-size="14" lengthAdjust="spacing" textLength="109.3682" x="808.5" y="135.8467">MaterialSample</text><line style="stroke:#181818;stroke-width:0.5;" x1="780.5" x2="919.8682" y1="147" y2="147"/><line style="stroke:#181818;stroke-width:0.5;" x1="780.5" x2="919.8682" y1="155" y2="155"/></g><!--class ObservableProperty--><g class="entity" data-qualified-name="ObservableProperty" data-source-line="3" id="ent0007"><rect fill="#F1F1F1" height="48" rx="2.5" ry="2.5" style="stroke:#181818;stroke-width:0.5;" width="171.6172" x="572" y="115"/><ellipse cx="587" cy="131" fill="#ADD1B2" rx="11" ry="11" style="stroke:#181818;stroke-width:1;"/><path d="M589.9688,136.6406 Q589.3906,136.9375 588.75,137.0781 Q588.1094,137.2344 587.4063,137.2344 Q584.9063,137.2344 583.5781,135.5938 Q582.2656,133.9375 582.2656,130.8125 Q582.2656,127.6875 583.5781,126.0313 Q584.9063,124.375 587.4063,124.375 Q588.1094,124.375 588.75,124.5313 Q589.4063,124.6875 589.9688,124.9844 L589.9688,127.7031 Q589.3438,127.125 588.75,126.8594 Q588.1563,126.5781 587.5313,126.5781 Q586.1875,126.5781 585.5,127.6563 Q584.8125,128.7188 584.8125,130.8125 Q584.8125,132.9063 585.5,133.9844 Q586.1875,135.0469 587.5313,135.0469 Q588.1563,135.0469 588.75,134.7813 Q589.3438,134.5 589.9688,133.9219 L589.9688,136.6406 Z " fill="#000000"/><text fill="#000000" font-family="sans-serif" font-size="14" lengthAdjust="spacing" textLength="139.6172" x="601" y="135.8467">ObservableProperty</text><line style="stroke:#181818;stroke-width:0.5;" x1="573" x2="742.6172" y1="147" y2="147"/><line style="stroke:#181818;stroke-width:0.5;" x1="573" x2="742.6172" y1="155" y2="155"/></g><!--class SpatialSample--><g class="entity" data-qualified-name="SpatialSample" data-source-line="4" id="ent0009"><rect fill="#F1F1F1" height="48" rx="2.5" ry="2.5" style="stroke:#181818;stroke-width:0.5;" width="132.6934" x="955.5" y="115"/><ellipse cx="970.5" cy="131" fill="#ADD1B2" rx="11" ry="11" style="stroke:#181818;stroke-width:1;"/><path d="M973.4688,136.6406 Q972.8906,136.9375 972.25,137.0781 Q971.6094,137.2344 970.9063,137.2344 Q968.4063,137.2344 967.0781,135.5938 Q965.7656,133.9375 965.7656,130.8125 Q965.7656,127.6875 967.0781,126.0313 Q968.4063,124.375 970.9063,124.375 Q971.6094,124.375 972.25,124.5313 Q972.9063,124.6875 973.4688,124.9844 L973.4688,127.7031 Q972.8438,127.125 972.25,126.8594 Q971.6563,126.5781 971.0313,126.5781 Q969.6875,126.5781 969,127.6563 Q968.3125,128.7188 968.3125,130.8125 Q968.3125,132.9063 969,133.9844 Q969.6875,135.0469 971.0313,135.0469 Q971.6563,135.0469 972.25,134.7813 Q972.8438,134.5 973.4688,133.9219 L973.4688,136.6406 Z " fill="#000000"/><text fill="#000000" font-family="sans-serif" font-size="14" lengthAdjust="spacing" textLength="100.6934" x="984.5" y="135.8467">SpatialSample</text><line style="stroke:#181818;stroke-width:0.5;" x1="956.5" x2="1087.1934" y1="147" y2="147"/><line style="stroke:#181818;stroke-width:0.5;" x1="956.5" x2="1087.1934" y1="155" y2="155"/></g><!--class StatisticalSample--><g class="entity" data-qualified-name="StatisticalSample" data-source-line="5" id="ent0011"><rect fill="#F1F1F1" height="48" rx="2.5" ry="2.5" style="stroke:#181818;stroke-width:0.5;" width="153.666" x="1124" y="115"/><ellipse cx="1139" cy="131" fill="#ADD1B2" rx="11" ry="11" style="stroke:#181818;stroke-width:1;"/><path d="M1141.9688,136.6406 Q1141.3906,136.9375 1140.75,137.0781 Q1140.1094,137.2344 1139.4063,137.2344 Q1136.9063,137.2344 1135.5781,135.5938 Q1134.2656,133.9375 1134.2656,130.8125 Q1134.2656,127.6875 1135.5781,126.0313 Q1136.9063,124.375 1139.4063,124.375 Q1140.1094,124.375 1140.75,124.5313 Q1141.4063,124.6875 1141.9688,124.9844 L1141.9688,127.7031 Q1141.3438,127.125 1140.75,126.8594 Q1140.1563,126.5781 1139.5313,126.5781 Q1138.1875,126.5781 1137.5,127.6563 Q1136.8125,128.7188 1136.8125,130.8125 Q1136.8125,132.9063 1137.5,133.9844 Q1138.1875,135.0469 1139.5313,135.0469 Q1140.1563,135.0469 1140.75,134.7813 Q1141.3438,134.5 1141.9688,133.9219 L1141.9688,136.6406 Z " fill="#000000"/><text fill="#000000" font-family="sans-serif" font-size="14" lengthAdjust="spacing" textLength="121.666" x="1153" y="135.8467">StatisticalSample</text><line style="stroke:#181818;stroke-width:0.5;" x1="1125" x2="1276.666" y1="147" y2="147"/><line style="stroke:#181818;stroke-width:0.5;" x1="1125" x2="1276.666" y1="155" y2="155"/></g><!--class Procedure--><g class="entity" data-qualified-name="Procedure" data-source-line="6" id="ent0013"><rect fill="#F1F1F1" height="48" rx="2.5" ry="2.5" style="stroke:#181818;stroke-width:0.5;" width="103.2031" x="1555.5" y="7"/><ellipse cx="1570.5" cy="23" fill="#ADD1B2" rx="11" ry="11" style="stroke:#181818;stroke-width:1;"/><path d="M1573.4688,28.6406 Q1572.8906,28.9375 1572.25,29.0781 Q1571.6094,29.2344 1570.9063,29.2344 Q1568.4063,29.2344 1567.0781,27.5938 Q1565.7656,25.9375 1565.7656,22.8125 Q1565.7656,19.6875 1567.0781,18.0313 Q1568.4063,16.375 1570.9063,16.375 Q1571.6094,16.375 1572.25,16.5313 Q1572.9063,16.6875 1573.4688,16.9844 L1573.4688,19.7031 Q1572.8438,19.125 1572.25,18.8594 Q1571.6563,18.5781 1571.0313,18.5781 Q1569.6875,18.5781 1569,19.6563 Q1568.3125,20.7188 1568.3125,22.8125 Q1568.3125,24.9063 1569,25.9844 Q1569.6875,27.0469 1571.0313,27.0469 Q1571.6563,27.0469 1572.25,26.7813 Q1572.8438,26.5 1573.4688,25.9219 L1573.4688,28.6406 Z " fill="#000000"/><text fill="#000000" font-family="sans-serif" font-size="14" lengthAdjust="spacing" textLength="71.2031" x="1584.5" y="27.8467">Procedure</text><line style="stroke:#181818;stroke-width:0.5;" x1="1556.5" x2="1657.7031" y1="39" y2="39"/><line style="stroke:#181818;stroke-width:0.5;" x1="1556.5" x2="1657.7031" y1="47" y2="47"/></g><!--class ActuatingProcedure--><g class="entity" data-qualified-name="ActuatingProcedure" data-source-line="6" id="ent0014"><rect fill="#F1F1F1" height="48" rx="2.5" ry="2.5" style="stroke:#181818;stroke-width:0.5;" width="170.5576" x="1313.5" y="115"/><ellipse cx="1328.5" cy="131" fill="#ADD1B2" rx="11" ry="11" style="stroke:#181818;stroke-width:1;"/><path d="M1331.4688,136.6406 Q1330.8906,136.9375 1330.25,137.0781 Q1329.6094,137.2344 1328.9063,137.2344 Q1326.4063,137.2344 1325.0781,135.5938 Q1323.7656,133.9375 1323.7656,130.8125 Q1323.7656,127.6875 1325.0781,126.0313 Q1326.4063,124.375 1328.9063,124.375 Q1329.6094,124.375 1330.25,124.5313 Q1330.9063,124.6875 1331.4688,124.9844 L1331.4688,127.7031 Q1330.8438,127.125 1330.25,126.8594 Q1329.6563,126.5781 1329.0313,126.5781 Q1327.6875,126.5781 1327,127.6563 Q1326.3125,128.7188 1326.3125,130.8125 Q1326.3125,132.9063 1327,133.9844 Q1327.6875,135.0469 1329.0313,135.0469 Q1329.6563,135.0469 1330.25,134.7813 Q1330.8438,134.5 1331.4688,133.9219 L1331.4688,136.6406 Z " fill="#000000"/><text fill="#000000" font-family="sans-serif" font-size="14" lengthAdjust="spacing" textLength="138.5576" x="1342.5" y="135.8467">ActuatingProcedure</text><line style="stroke:#181818;stroke-width:0.5;" x1="1314.5" x2="1483.0576" y1="147" y2="147"/><line style="stroke:#181818;stroke-width:0.5;" x1="1314.5" x2="1483.0576" y1="155" y2="155"/></g><!--class ObservingProcedure--><g class="entity" data-qualified-name="ObservingProcedure" data-source-line="7" id="ent0016"><rect fill="#F1F1F1" height="48" rx="2.5" ry="2.5" style="stroke:#181818;stroke-width:0.5;" width="174.707" x="1519.5" y="115"/><ellipse cx="1534.5" cy="131" fill="#ADD1B2" rx="11" ry="11" style="stroke:#181818;stroke-width:1;"/><path d="M1537.4688,136.6406 Q1536.8906,136.9375 1536.25,137.0781 Q1535.6094,137.2344 1534.9063,137.2344 Q1532.4063,137.2344 1531.0781,135.5938 Q1529.7656,133.9375 1529.7656,130.8125 Q1529.7656,127.6875 1531.0781,126.0313 Q1532.4063,124.375 1534.9063,124.375 Q1535.6094,124.375 1536.25,124.5313 Q1536.9063,124.6875 1537.4688,124.9844 L1537.4688,127.7031 Q1536.8438,127.125 1536.25,126.8594 Q1535.6563,126.5781 1535.0313,126.5781 Q1533.6875,126.5781 1533,127.6563 Q1532.3125,128.7188 1532.3125,130.8125 Q1532.3125,132.9063 1533,133.9844 Q1533.6875,135.0469 1535.0313,135.0469 Q1535.6563,135.0469 1536.25,134.7813 Q1536.8438,134.5 1537.4688,133.9219 L1537.4688,136.6406 Z " fill="#000000"/><text fill="#000000" font-family="sans-serif" font-size="14" lengthAdjust="spacing" textLength="142.707" x="1548.5" y="135.8467">ObservingProcedure</text><line style="stroke:#181818;stroke-width:0.5;" x1="1520.5" x2="1693.207" y1="147" y2="147"/><line style="stroke:#181818;stroke-width:0.5;" x1="1520.5" x2="1693.207" y1="155" y2="155"/></g><!--class SamplingProcedure--><g class="entity" data-qualified-name="SamplingProcedure" data-source-line="8" id="ent0018"><rect fill="#F1F1F1" height="48" rx="2.5" ry="2.5" style="stroke:#181818;stroke-width:0.5;" width="168.7324" x="1729.5" y="115"/><ellipse cx="1744.5" cy="131" fill="#ADD1B2" rx="11" ry="11" style="stroke:#181818;stroke-width:1;"/><path d="M1747.4688,136.6406 Q1746.8906,136.9375 1746.25,137.0781 Q1745.6094,137.2344 1744.9063,137.2344 Q1742.4063,137.2344 1741.0781,135.5938 Q1739.7656,133.9375 1739.7656,130.8125 Q1739.7656,127.6875 1741.0781,126.0313 Q1742.4063,124.375 1744.9063,124.375 Q1745.6094,124.375 1746.25,124.5313 Q1746.9063,124.6875 1747.4688,124.9844 L1747.4688,127.7031 Q1746.8438,127.125 1746.25,126.8594 Q1745.6563,126.5781 1745.0313,126.5781 Q1743.6875,126.5781 1743,127.6563 Q1742.3125,128.7188 1742.3125,130.8125 Q1742.3125,132.9063 1743,133.9844 Q1743.6875,135.0469 1745.0313,135.0469 Q1745.6563,135.0469 1746.25,134.7813 Q1746.8438,134.5 1747.4688,133.9219 L1747.4688,136.6406 Z " fill="#000000"/><text fill="#000000" font-family="sans-serif" font-size="14" lengthAdjust="spacing" textLength="136.7324" x="1758.5" y="135.8467">SamplingProcedure</text><line style="stroke:#181818;stroke-width:0.5;" x1="1730.5" x2="1897.2324" y1="147" y2="147"/><line style="stroke:#181818;stroke-width:0.5;" x1="1730.5" x2="1897.2324" y1="155" y2="155"/></g><!--class Asset--><g class="entity" data-qualified-name="Asset" data-source-line="9" id="ent0020"><rect fill="#F1F1F1" height="48" rx="2.5" ry="2.5" style="stroke:#181818;stroke-width:0.5;" width="70.2676" x="2005" y="7"/><ellipse cx="2020" cy="23" fill="#ADD1B2" rx="11" ry="11" style="stroke:#181818;stroke-width:1;"/><path d="M2022.9688,28.6406 Q2022.3906,28.9375 2021.75,29.0781 Q2021.1094,29.2344 2020.4063,29.2344 Q2017.9063,29.2344 2016.5781,27.5938 Q2015.2656,25.9375 2015.2656,22.8125 Q2015.2656,19.6875 2016.5781,18.0313 Q2017.9063,16.375 2020.4063,16.375 Q2021.1094,16.375 2021.75,16.5313 Q2022.4063,16.6875 2022.9688,16.9844 L2022.9688,19.7031 Q2022.3438,19.125 2021.75,18.8594 Q2021.1563,18.5781 2020.5313,18.5781 Q2019.1875,18.5781 2018.5,19.6563 Q2017.8125,20.7188 2017.8125,22.8125 Q2017.8125,24.9063 2018.5,25.9844 Q2019.1875,27.0469 2020.5313,27.0469 Q2021.1563,27.0469 2021.75,26.7813 Q2022.3438,26.5 2022.9688,25.9219 L2022.9688,28.6406 Z " fill="#000000"/><text fill="#000000" font-family="sans-serif" font-size="14" lengthAdjust="spacing" textLength="38.2676" x="2034" y="27.8467">Asset</text><line style="stroke:#181818;stroke-width:0.5;" x1="2006" x2="2074.2676" y1="39" y2="39"/><line style="stroke:#181818;stroke-width:0.5;" x1="2006" x2="2074.2676" y1="47" y2="47"/></g><!--class Platform--><g class="entity" data-qualified-name="Platform" data-source-line="9" id="ent0021"><rect fill="#F1F1F1" height="48" rx="2.5" ry="2.5" style="stroke:#181818;stroke-width:0.5;" width="91.2881" x="1933.5" y="115"/><ellipse cx="1948.5" cy="131" fill="#ADD1B2" rx="11" ry="11" style="stroke:#181818;stroke-width:1;"/><path d="M1951.4688,136.6406 Q1950.8906,136.9375 1950.25,137.0781 Q1949.6094,137.2344 1948.9063,137.2344 Q1946.4063,137.2344 1945.0781,135.5938 Q1943.7656,133.9375 1943.7656,130.8125 Q1943.7656,127.6875 1945.0781,126.0313 Q1946.4063,124.375 1948.9063,124.375 Q1949.6094,124.375 1950.25,124.5313 Q1950.9063,124.6875 1951.4688,124.9844 L1951.4688,127.7031 Q1950.8438,127.125 1950.25,126.8594 Q1949.6563,126.5781 1949.0313,126.5781 Q1947.6875,126.5781 1947,127.6563 Q1946.3125,128.7188 1946.3125,130.8125 Q1946.3125,132.9063 1947,133.9844 Q1947.6875,135.0469 1949.0313,135.0469 Q1949.6563,135.0469 1950.25,134.7813 Q1950.8438,134.5 1951.4688,133.9219 L1951.4688,136.6406 Z " fill="#000000"/><text fill="#000000" font-family="sans-serif" font-size="14" lengthAdjust="spacing" textLength="59.2881" x="1962.5" y="135.8467">Platform</text><line style="stroke:#181818;stroke-width:0.5;" x1="1934.5" x2="2023.7881" y1="147" y2="147"/><line style="stroke:#181818;stroke-width:0.5;" x1="1934.5" x2="2023.7881" y1="155" y2="155"/></g><!--class System--><g class="entity" data-qualified-name="System" data-source-line="10" id="ent0023"><rect fill="#F1F1F1" height="48" rx="2.5" ry="2.5" style="stroke:#181818;stroke-width:0.5;" width="84.2061" x="2060" y="115"/><ellipse cx="2075" cy="131" fill="#ADD1B2" rx="11" ry="11" style="stroke:#181818;stroke-width:1;"/><path d="M2077.9688,136.6406 Q2077.3906,136.9375 2076.75,137.0781 Q2076.1094,137.2344 2075.4063,137.2344 Q2072.9063,137.2344 2071.5781,135.5938 Q2070.2656,133.9375 2070.2656,130.8125 Q2070.2656,127.6875 2071.5781,126.0313 Q2072.9063,124.375 2075.4063,124.375 Q2076.1094,124.375 2076.75,124.5313 Q2077.4063,124.6875 2077.9688,124.9844 L2077.9688,127.7031 Q2077.3438,127.125 2076.75,126.8594 Q2076.1563,126.5781 2075.5313,126.5781 Q2074.1875,126.5781 2073.5,127.6563 Q2072.8125,128.7188 2072.8125,130.8125 Q2072.8125,132.9063 2073.5,133.9844 Q2074.1875,135.0469 2075.5313,135.0469 Q2076.1563,135.0469 2076.75,134.7813 Q2077.3438,134.5 2077.9688,133.9219 L2077.9688,136.6406 Z " fill="#000000"/><text fill="#000000" font-family="sans-serif" font-size="14" lengthAdjust="spacing" textLength="52.2061" x="2089" y="135.8467">System</text><line style="stroke:#181818;stroke-width:0.5;" x1="2061" x2="2143.2061" y1="147" y2="147"/><line style="stroke:#181818;stroke-width:0.5;" x1="2061" x2="2143.2061" y1="155" y2="155"/></g><!--class Sampler--><g class="entity" data-qualified-name="Sampler" data-source-line="10" id="ent0024"><rect fill="#F1F1F1" height="48" rx="2.5" ry="2.5" style="stroke:#181818;stroke-width:0.5;" width="90.249" x="1931" y="223"/><ellipse cx="1946" cy="239" fill="#ADD1B2" rx="11" ry="11" style="stroke:#181818;stroke-width:1;"/><path d="M1948.9688,244.6406 Q1948.3906,244.9375 1947.75,245.0781 Q1947.1094,245.2344 1946.4063,245.2344 Q1943.9063,245.2344 1942.5781,243.5938 Q1941.2656,241.9375 1941.2656,238.8125 Q1941.2656,235.6875 1942.5781,234.0313 Q1943.9063,232.375 1946.4063,232.375 Q1947.1094,232.375 1947.75,232.5313 Q1948.4063,232.6875 1948.9688,232.9844 L1948.9688,235.7031 Q1948.3438,235.125 1947.75,234.8594 Q1947.1563,234.5781 1946.5313,234.5781 Q1945.1875,234.5781 1944.5,235.6563 Q1943.8125,236.7188 1943.8125,238.8125 Q1943.8125,240.9063 1944.5,241.9844 Q1945.1875,243.0469 1946.5313,243.0469 Q1947.1563,243.0469 1947.75,242.7813 Q1948.3438,242.5 1948.9688,241.9219 L1948.9688,244.6406 Z " fill="#000000"/><text fill="#000000" font-family="sans-serif" font-size="14" lengthAdjust="spacing" textLength="58.249" x="1960" y="243.8467">Sampler</text><line style="stroke:#181818;stroke-width:0.5;" x1="1932" x2="2020.249" y1="255" y2="255"/><line style="stroke:#181818;stroke-width:0.5;" x1="1932" x2="2020.249" y1="263" y2="263"/></g><!--class Actuator--><g class="entity" data-qualified-name="Actuator" data-source-line="11" id="ent0026"><rect fill="#F1F1F1" height="48" rx="2.5" ry="2.5" style="stroke:#181818;stroke-width:0.5;" width="92.0264" x="2056" y="223"/><ellipse cx="2071" cy="239" fill="#ADD1B2" rx="11" ry="11" style="stroke:#181818;stroke-width:1;"/><path d="M2073.9688,244.6406 Q2073.3906,244.9375 2072.75,245.0781 Q2072.1094,245.2344 2071.4063,245.2344 Q2068.9063,245.2344 2067.5781,243.5938 Q2066.2656,241.9375 2066.2656,238.8125 Q2066.2656,235.6875 2067.5781,234.0313 Q2068.9063,232.375 2071.4063,232.375 Q2072.1094,232.375 2072.75,232.5313 Q2073.4063,232.6875 2073.9688,232.9844 L2073.9688,235.7031 Q2073.3438,235.125 2072.75,234.8594 Q2072.1563,234.5781 2071.5313,234.5781 Q2070.1875,234.5781 2069.5,235.6563 Q2068.8125,236.7188 2068.8125,238.8125 Q2068.8125,240.9063 2069.5,241.9844 Q2070.1875,243.0469 2071.5313,243.0469 Q2072.1563,243.0469 2072.75,242.7813 Q2073.3438,242.5 2073.9688,241.9219 L2073.9688,244.6406 Z " fill="#000000"/><text fill="#000000" font-family="sans-serif" font-size="14" lengthAdjust="spacing" textLength="60.0264" x="2085" y="243.8467">Actuator</text><line style="stroke:#181818;stroke-width:0.5;" x1="2057" x2="2147.0264" y1="255" y2="255"/><line style="stroke:#181818;stroke-width:0.5;" x1="2057" x2="2147.0264" y1="263" y2="263"/></g><!--class ExecutionCollection--><g class="entity" data-qualified-name="ExecutionCollection" data-source-line="12" id="ent0028"><rect fill="#F1F1F1" height="48" rx="2.5" ry="2.5" style="stroke:#181818;stroke-width:0.5;" width="170.3799" x="2380" y="7"/><ellipse cx="2395" cy="23" fill="#ADD1B2" rx="11" ry="11" style="stroke:#181818;stroke-width:1;"/><path d="M2397.9688,28.6406 Q2397.3906,28.9375 2396.75,29.0781 Q2396.1094,29.2344 2395.4063,29.2344 Q2392.9063,29.2344 2391.5781,27.5938 Q2390.2656,25.9375 2390.2656,22.8125 Q2390.2656,19.6875 2391.5781,18.0313 Q2392.9063,16.375 2395.4063,16.375 Q2396.1094,16.375 2396.75,16.5313 Q2397.4063,16.6875 2397.9688,16.9844 L2397.9688,19.7031 Q2397.3438,19.125 2396.75,18.8594 Q2396.1563,18.5781 2395.5313,18.5781 Q2394.1875,18.5781 2393.5,19.6563 Q2392.8125,20.7188 2392.8125,22.8125 Q2392.8125,24.9063 2393.5,25.9844 Q2394.1875,27.0469 2395.5313,27.0469 Q2396.1563,27.0469 2396.75,26.7813 Q2397.3438,26.5 2397.9688,25.9219 L2397.9688,28.6406 Z " fill="#000000"/><text fill="#000000" font-family="sans-serif" font-size="14" lengthAdjust="spacing" textLength="138.3799" x="2409" y="27.8467">ExecutionCollection</text><line style="stroke:#181818;stroke-width:0.5;" x1="2381" x2="2549.3799" y1="39" y2="39"/><line style="stroke:#181818;stroke-width:0.5;" x1="2381" x2="2549.3799" y1="47" y2="47"/></g><!--class SamplingCollection--><g class="entity" data-qualified-name="SamplingCollection" data-source-line="12" id="ent0029"><rect fill="#F1F1F1" height="48" rx="2.5" ry="2.5" style="stroke:#181818;stroke-width:0.5;" width="166.7773" x="2179.5" y="115"/><ellipse cx="2194.5" cy="131" fill="#ADD1B2" rx="11" ry="11" style="stroke:#181818;stroke-width:1;"/><path d="M2197.4688,136.6406 Q2196.8906,136.9375 2196.25,137.0781 Q2195.6094,137.2344 2194.9063,137.2344 Q2192.4063,137.2344 2191.0781,135.5938 Q2189.7656,133.9375 2189.7656,130.8125 Q2189.7656,127.6875 2191.0781,126.0313 Q2192.4063,124.375 2194.9063,124.375 Q2195.6094,124.375 2196.25,124.5313 Q2196.9063,124.6875 2197.4688,124.9844 L2197.4688,127.7031 Q2196.8438,127.125 2196.25,126.8594 Q2195.6563,126.5781 2195.0313,126.5781 Q2193.6875,126.5781 2193,127.6563 Q2192.3125,128.7188 2192.3125,130.8125 Q2192.3125,132.9063 2193,133.9844 Q2193.6875,135.0469 2195.0313,135.0469 Q2195.6563,135.0469 2196.25,134.7813 Q2196.8438,134.5 2197.4688,133.9219 L2197.4688,136.6406 Z " fill="#000000"/><text fill="#000000" font-family="sans-serif" font-size="14" lengthAdjust="spacing" textLength="134.7773" x="2208.5" y="135.8467">SamplingCollection</text><line style="stroke:#181818;stroke-width:0.5;" x1="2180.5" x2="2345.2773" y1="147" y2="147"/><line style="stroke:#181818;stroke-width:0.5;" x1="2180.5" x2="2345.2773" y1="155" y2="155"/></g><!--class Sensor--><g class="entity" data-qualified-name="Sensor" data-source-line="14" id="ent0032"><rect fill="#F1F1F1" height="48" rx="2.5" ry="2.5" style="stroke:#181818;stroke-width:0.5;" width="79.9883" x="2183" y="223"/><ellipse cx="2198" cy="239" fill="#ADD1B2" rx="11" ry="11" style="stroke:#181818;stroke-width:1;"/><path d="M2200.9688,244.6406 Q2200.3906,244.9375 2199.75,245.0781 Q2199.1094,245.2344 2198.4063,245.2344 Q2195.9063,245.2344 2194.5781,243.5938 Q2193.2656,241.9375 2193.2656,238.8125 Q2193.2656,235.6875 2194.5781,234.0313 Q2195.9063,232.375 2198.4063,232.375 Q2199.1094,232.375 2199.75,232.5313 Q2200.4063,232.6875 2200.9688,232.9844 L2200.9688,235.7031 Q2200.3438,235.125 2199.75,234.8594 Q2199.1563,234.5781 2198.5313,234.5781 Q2197.1875,234.5781 2196.5,235.6563 Q2195.8125,236.7188 2195.8125,238.8125 Q2195.8125,240.9063 2196.5,241.9844 Q2197.1875,243.0469 2198.5313,243.0469 Q2199.1563,243.0469 2199.75,242.7813 Q2200.3438,242.5 2200.9688,241.9219 L2200.9688,244.6406 Z " fill="#000000"/><text fill="#000000" font-family="sans-serif" font-size="14" lengthAdjust="spacing" textLength="47.9883" x="2212" y="243.8467">Sensor</text><line style="stroke:#181818;stroke-width:0.5;" x1="2184" x2="2261.9883" y1="255" y2="255"/><line style="stroke:#181818;stroke-width:0.5;" x1="2184" x2="2261.9883" y1="263" y2="263"/></g><!--class Execution--><g class="entity" data-qualified-name="Execution" data-source-line="15" id="ent0034"><rect fill="#F1F1F1" height="48" rx="2.5" ry="2.5" style="stroke:#181818;stroke-width:0.5;" width="101.1318" x="2937.5" y="7"/><ellipse cx="2952.5" cy="23" fill="#ADD1B2" rx="11" ry="11" style="stroke:#181818;stroke-width:1;"/><path d="M2955.4688,28.6406 Q2954.8906,28.9375 2954.25,29.0781 Q2953.6094,29.2344 2952.9063,29.2344 Q2950.4063,29.2344 2949.0781,27.5938 Q2947.7656,25.9375 2947.7656,22.8125 Q2947.7656,19.6875 2949.0781,18.0313 Q2950.4063,16.375 2952.9063,16.375 Q2953.6094,16.375 2954.25,16.5313 Q2954.9063,16.6875 2955.4688,16.9844 L2955.4688,19.7031 Q2954.8438,19.125 2954.25,18.8594 Q2953.6563,18.5781 2953.0313,18.5781 Q2951.6875,18.5781 2951,19.6563 Q2950.3125,20.7188 2950.3125,22.8125 Q2950.3125,24.9063 2951,25.9844 Q2951.6875,27.0469 2953.0313,27.0469 Q2953.6563,27.0469 2954.25,26.7813 Q2954.8438,26.5 2955.4688,25.9219 L2955.4688,28.6406 Z " fill="#000000"/><text fill="#000000" font-family="sans-serif" font-size="14" lengthAdjust="spacing" textLength="69.1318" x="2966.5" y="27.8467">Execution</text><line style="stroke:#181818;stroke-width:0.5;" x1="2938.5" x2="3037.6318" y1="39" y2="39"/><line style="stroke:#181818;stroke-width:0.5;" x1="2938.5" x2="3037.6318" y1="47" y2="47"/></g><!--class Sampling--><g class="entity" data-qualified-name="Sampling" data-source-line="15" id="ent0035"><rect fill="#F1F1F1" height="48" rx="2.5" ry="2.5" style="stroke:#181818;stroke-width:0.5;" width="97.5293" x="2805" y="115"/><ellipse cx="2820" cy="131" fill="#ADD1B2" rx="11" ry="11" style="stroke:#181818;stroke-width:1;"/><path d="M2822.9688,136.6406 Q2822.3906,136.9375 2821.75,137.0781 Q2821.1094,137.2344 2820.4063,137.2344 Q2817.9063,137.2344 2816.5781,135.5938 Q2815.2656,133.9375 2815.2656,130.8125 Q2815.2656,127.6875 2816.5781,126.0313 Q2817.9063,124.375 2820.4063,124.375 Q2821.1094,124.375 2821.75,124.5313 Q2822.4063,124.6875 2822.9688,124.9844 L2822.9688,127.7031 Q2822.3438,127.125 2821.75,126.8594 Q2821.1563,126.5781 2820.5313,126.5781 Q2819.1875,126.5781 2818.5,127.6563 Q2817.8125,128.7188 2817.8125,130.8125 Q2817.8125,132.9063 2818.5,133.9844 Q2819.1875,135.0469 2820.5313,135.0469 Q2821.1563,135.0469 2821.75,134.7813 Q2822.3438,134.5 2822.9688,133.9219 L2822.9688,136.6406 Z " fill="#000000"/><text fill="#000000" font-family="sans-serif" font-size="14" lengthAdjust="spacing" textLength="65.5293" x="2834" y="135.8467">Sampling</text><line style="stroke:#181818;stroke-width:0.5;" x1="2806" x2="2901.5293" y1="147" y2="147"/><line style="stroke:#181818;stroke-width:0.5;" x1="2806" x2="2901.5293" y1="155" y2="155"/></g><!--class Actuation--><g class="entity" data-qualified-name="Actuation" data-source-line="16" id="ent0037"><rect fill="#F1F1F1" height="48" rx="2.5" ry="2.5" style="stroke:#181818;stroke-width:0.5;" width="99.0332" x="2938.5" y="115"/><ellipse cx="2953.5" cy="131" fill="#ADD1B2" rx="11" ry="11" style="stroke:#181818;stroke-width:1;"/><path d="M2956.4688,136.6406 Q2955.8906,136.9375 2955.25,137.0781 Q2954.6094,137.2344 2953.9063,137.2344 Q2951.4063,137.2344 2950.0781,135.5938 Q2948.7656,133.9375 2948.7656,130.8125 Q2948.7656,127.6875 2950.0781,126.0313 Q2951.4063,124.375 2953.9063,124.375 Q2954.6094,124.375 2955.25,124.5313 Q2955.9063,124.6875 2956.4688,124.9844 L2956.4688,127.7031 Q2955.8438,127.125 2955.25,126.8594 Q2954.6563,126.5781 2954.0313,126.5781 Q2952.6875,126.5781 2952,127.6563 Q2951.3125,128.7188 2951.3125,130.8125 Q2951.3125,132.9063 2952,133.9844 Q2952.6875,135.0469 2954.0313,135.0469 Q2954.6563,135.0469 2955.25,134.7813 Q2955.8438,134.5 2956.4688,133.9219 L2956.4688,136.6406 Z " fill="#000000"/><text fill="#000000" font-family="sans-serif" font-size="14" lengthAdjust="spacing" textLength="67.0332" x="2967.5" y="135.8467">Actuation</text><line style="stroke:#181818;stroke-width:0.5;" x1="2939.5" x2="3036.5332" y1="147" y2="147"/><line style="stroke:#181818;stroke-width:0.5;" x1="2939.5" x2="3036.5332" y1="155" y2="155"/></g><!--class ActuationCollection--><g class="entity" data-qualified-name="ActuationCollection" data-source-line="17" id="ent0039"><rect fill="#F1F1F1" height="48" rx="2.5" ry="2.5" style="stroke:#181818;stroke-width:0.5;" width="168.2813" x="2381" y="115"/><ellipse cx="2396" cy="131" fill="#ADD1B2" rx="11" ry="11" style="stroke:#181818;stroke-width:1;"/><path d="M2398.9688,136.6406 Q2398.3906,136.9375 2397.75,137.0781 Q2397.1094,137.2344 2396.4063,137.2344 Q2393.9063,137.2344 2392.5781,135.5938 Q2391.2656,133.9375 2391.2656,130.8125 Q2391.2656,127.6875 2392.5781,126.0313 Q2393.9063,124.375 2396.4063,124.375 Q2397.1094,124.375 2397.75,124.5313 Q2398.4063,124.6875 2398.9688,124.9844 L2398.9688,127.7031 Q2398.3438,127.125 2397.75,126.8594 Q2397.1563,126.5781 2396.5313,126.5781 Q2395.1875,126.5781 2394.5,127.6563 Q2393.8125,128.7188 2393.8125,130.8125 Q2393.8125,132.9063 2394.5,133.9844 Q2395.1875,135.0469 2396.5313,135.0469 Q2397.1563,135.0469 2397.75,134.7813 Q2398.3438,134.5 2398.9688,133.9219 L2398.9688,136.6406 Z " fill="#000000"/><text fill="#000000" font-family="sans-serif" font-size="14" lengthAdjust="spacing" textLength="136.2813" x="2410" y="135.8467">ActuationCollection</text><line style="stroke:#181818;stroke-width:0.5;" x1="2382" x2="2548.2813" y1="147" y2="147"/><line style="stroke:#181818;stroke-width:0.5;" x1="2382" x2="2548.2813" y1="155" y2="155"/></g><!--class ObservationCollection--><g class="entity" data-qualified-name="ObservationCollection" data-source-line="18" id="ent0041"><rect fill="#F1F1F1" height="48" rx="2.5" ry="2.5" style="stroke:#181818;stroke-width:0.5;" width="186.499" x="2584" y="115"/><ellipse cx="2599" cy="131" fill="#ADD1B2" rx="11" ry="11" style="stroke:#181818;stroke-width:1;"/><path d="M2601.9688,136.6406 Q2601.3906,136.9375 2600.75,137.0781 Q2600.1094,137.2344 2599.4063,137.2344 Q2596.9063,137.2344 2595.5781,135.5938 Q2594.2656,133.9375 2594.2656,130.8125 Q2594.2656,127.6875 2595.5781,126.0313 Q2596.9063,124.375 2599.4063,124.375 Q2600.1094,124.375 2600.75,124.5313 Q2601.4063,124.6875 2601.9688,124.9844 L2601.9688,127.7031 Q2601.3438,127.125 2600.75,126.8594 Q2600.1563,126.5781 2599.5313,126.5781 Q2598.1875,126.5781 2597.5,127.6563 Q2596.8125,128.7188 2596.8125,130.8125 Q2596.8125,132.9063 2597.5,133.9844 Q2598.1875,135.0469 2599.5313,135.0469 Q2600.1563,135.0469 2600.75,134.7813 Q2601.3438,134.5 2601.9688,133.9219 L2601.9688,136.6406 Z " fill="#000000"/><text fill="#000000" font-family="sans-serif" font-size="14" lengthAdjust="spacing" textLength="154.499" x="2613" y="135.8467">ObservationCollection</text><line style="stroke:#181818;stroke-width:0.5;" x1="2585" x2="2769.499" y1="147" y2="147"/><line style="stroke:#181818;stroke-width:0.5;" x1="2585" x2="2769.499" y1="155" y2="155"/></g><!--class Observation--><g class="entity" data-qualified-name="Observation" data-source-line="19" id="ent0043"><rect fill="#F1F1F1" height="48" rx="2.5" ry="2.5" style="stroke:#181818;stroke-width:0.5;" width="117.251" x="3072.5" y="115"/><ellipse cx="3087.5" cy="131" fill="#ADD1B2" rx="11" ry="11" style="stroke:#181818;stroke-width:1;"/><path d="M3090.4688,136.6406 Q3089.8906,136.9375 3089.25,137.0781 Q3088.6094,137.2344 3087.9063,137.2344 Q3085.4063,137.2344 3084.0781,135.5938 Q3082.7656,133.9375 3082.7656,130.8125 Q3082.7656,127.6875 3084.0781,126.0313 Q3085.4063,124.375 3087.9063,124.375 Q3088.6094,124.375 3089.25,124.5313 Q3089.9063,124.6875 3090.4688,124.9844 L3090.4688,127.7031 Q3089.8438,127.125 3089.25,126.8594 Q3088.6563,126.5781 3088.0313,126.5781 Q3086.6875,126.5781 3086,127.6563 Q3085.3125,128.7188 3085.3125,130.8125 Q3085.3125,132.9063 3086,133.9844 Q3086.6875,135.0469 3088.0313,135.0469 Q3088.6563,135.0469 3089.25,134.7813 Q3089.8438,134.5 3090.4688,133.9219 L3090.4688,136.6406 Z " fill="#000000"/><text fill="#000000" font-family="sans-serif" font-size="14" lengthAdjust="spacing" textLength="85.251" x="3101.5" y="135.8467">Observation</text><line style="stroke:#181818;stroke-width:0.5;" x1="3073.5" x2="3188.751" y1="147" y2="147"/><line style="stroke:#181818;stroke-width:0.5;" x1="3073.5" x2="3188.751" y1="155" y2="155"/></g><!--class SampleCollection--><g class="entity" data-qualified-name="SampleCollection" data-source-line="20" id="ent0045"><rect fill="#F1F1F1" height="48" rx="2.5" ry="2.5" style="stroke:#181818;stroke-width:0.5;" width="153.7412" x="7" y="7"/><ellipse cx="22" cy="23" fill="#ADD1B2" rx="11" ry="11" style="stroke:#181818;stroke-width:1;"/><path d="M24.9688,28.6406 Q24.3906,28.9375 23.75,29.0781 Q23.1094,29.2344 22.4063,29.2344 Q19.9063,29.2344 18.5781,27.5938 Q17.2656,25.9375 17.2656,22.8125 Q17.2656,19.6875 18.5781,18.0313 Q19.9063,16.375 22.4063,16.375 Q23.1094,16.375 23.75,16.5313 Q24.4063,16.6875 24.9688,16.9844 L24.9688,19.7031 Q24.3438,19.125 23.75,18.8594 Q23.1563,18.5781 22.5313,18.5781 Q21.1875,18.5781 20.5,19.6563 Q19.8125,20.7188 19.8125,22.8125 Q19.8125,24.9063 20.5,25.9844 Q21.1875,27.0469 22.5313,27.0469 Q23.1563,27.0469 23.75,26.7813 Q24.3438,26.5 24.9688,25.9219 L24.9688,28.6406 Z " fill="#000000"/><text fill="#000000" font-family="sans-serif" font-size="14" lengthAdjust="spacing" textLength="121.7412" x="36" y="27.8467">SampleCollection</text><line style="stroke:#181818;stroke-width:0.5;" x1="8" x2="159.7412" y1="39" y2="39"/><line style="stroke:#181818;stroke-width:0.5;" x1="8" x2="159.7412" y1="47" y2="47"/></g><!--class Stimulus--><g class="entity" data-qualified-name="Stimulus" data-source-line="21" id="ent0046"><rect fill="#F1F1F1" height="48" rx="2.5" ry="2.5" style="stroke:#181818;stroke-width:0.5;" width="92.833" x="196.5" y="7"/><ellipse cx="211.5" cy="23" fill="#ADD1B2" rx="11" ry="11" style="stroke:#181818;stroke-width:1;"/><path d="M214.4688,28.6406 Q213.8906,28.9375 213.25,29.0781 Q212.6094,29.2344 211.9063,29.2344 Q209.4063,29.2344 208.0781,27.5938 Q206.7656,25.9375 206.7656,22.8125 Q206.7656,19.6875 208.0781,18.0313 Q209.4063,16.375 211.9063,16.375 Q212.6094,16.375 213.25,16.5313 Q213.9063,16.6875 214.4688,16.9844 L214.4688,19.7031 Q213.8438,19.125 213.25,18.8594 Q212.6563,18.5781 212.0313,18.5781 Q210.6875,18.5781 210,19.6563 Q209.3125,20.7188 209.3125,22.8125 Q209.3125,24.9063 210,25.9844 Q210.6875,27.0469 212.0313,27.0469 Q212.6563,27.0469 213.25,26.7813 Q213.8438,26.5 214.4688,25.9219 L214.4688,28.6406 Z " fill="#000000"/><text fill="#000000" font-family="sans-serif" font-size="14" lengthAdjust="spacing" textLength="60.833" x="225.5" y="27.8467">Stimulus</text><line style="stroke:#181818;stroke-width:0.5;" x1="197.5" x2="288.333" y1="39" y2="39"/><line style="stroke:#181818;stroke-width:0.5;" x1="197.5" x2="288.333" y1="47" y2="47"/></g><!--class Result--><g class="entity" data-qualified-name="Result" data-source-line="22" id="ent0047"><rect fill="#F1F1F1" height="48" rx="2.5" ry="2.5" style="stroke:#181818;stroke-width:0.5;" width="75.8867" x="325" y="7"/><ellipse cx="340" cy="23" fill="#ADD1B2" rx="11" ry="11" style="stroke:#181818;stroke-width:1;"/><path d="M342.9688,28.6406 Q342.3906,28.9375 341.75,29.0781 Q341.1094,29.2344 340.4063,29.2344 Q337.9063,29.2344 336.5781,27.5938 Q335.2656,25.9375 335.2656,22.8125 Q335.2656,19.6875 336.5781,18.0313 Q337.9063,16.375 340.4063,16.375 Q341.1094,16.375 341.75,16.5313 Q342.4063,16.6875 342.9688,16.9844 L342.9688,19.7031 Q342.3438,19.125 341.75,18.8594 Q341.1563,18.5781 340.5313,18.5781 Q339.1875,18.5781 338.5,19.6563 Q337.8125,20.7188 337.8125,22.8125 Q337.8125,24.9063 338.5,25.9844 Q339.1875,27.0469 340.5313,27.0469 Q341.1563,27.0469 341.75,26.7813 Q342.3438,26.5 342.9688,25.9219 L342.9688,28.6406 Z " fill="#000000"/><text fill="#000000" font-family="sans-serif" font-size="14" lengthAdjust="spacing" textLength="43.8867" x="354" y="27.8467">Result</text><line style="stroke:#181818;stroke-width:0.5;" x1="326" x2="399.8867" y1="39" y2="39"/><line style="stroke:#181818;stroke-width:0.5;" x1="326" x2="399.8867" y1="47" y2="47"/></g><!--class Deployment--><g class="entity" data-qualified-name="Deployment" data-source-line="23" id="ent0048"><rect fill="#F1F1F1" height="48" rx="2.5" ry="2.5" style="stroke:#181818;stroke-width:0.5;" width="117.6338" x="25" y="115"/><ellipse cx="40" cy="131" fill="#ADD1B2" rx="11" ry="11" style="stroke:#181818;stroke-width:1;"/><path d="M42.9688,136.6406 Q42.3906,136.9375 41.75,137.0781 Q41.1094,137.2344 40.4063,137.2344 Q37.9063,137.2344 36.5781,135.5938 Q35.2656,133.9375 35.2656,130.8125 Q35.2656,127.6875 36.5781,126.0313 Q37.9063,124.375 40.4063,124.375 Q41.1094,124.375 41.75,124.5313 Q42.4063,124.6875 42.9688,124.9844 L42.9688,127.7031 Q42.3438,127.125 41.75,126.8594 Q41.1563,126.5781 40.5313,126.5781 Q39.1875,126.5781 38.5,127.6563 Q37.8125,128.7188 37.8125,130.8125 Q37.8125,132.9063 38.5,133.9844 Q39.1875,135.0469 40.5313,135.0469 Q41.1563,135.0469 41.75,134.7813 Q42.3438,134.5 42.9688,133.9219 L42.9688,136.6406 Z " fill="#000000"/><text fill="#000000" font-family="sans-serif" font-size="14" lengthAdjust="spacing" textLength="85.6338" x="54" y="135.8467">Deployment</text><line style="stroke:#181818;stroke-width:0.5;" x1="26" x2="141.6338" y1="147" y2="147"/><line style="stroke:#181818;stroke-width:0.5;" x1="26" x2="141.6338" y1="155" y2="155"/></g><!--class FeatureOfInterest--><g class="entity" data-qualified-name="FeatureOfInterest" data-source-line="24" id="ent0049"><rect fill="#F1F1F1" height="48" rx="2.5" ry="2.5" style="stroke:#181818;stroke-width:0.5;" width="156.1816" x="178" y="115"/><ellipse cx="193" cy="131" fill="#ADD1B2" rx="11" ry="11" style="stroke:#181818;stroke-width:1;"/><path d="M195.9688,136.6406 Q195.3906,136.9375 194.75,137.0781 Q194.1094,137.2344 193.4063,137.2344 Q190.9063,137.2344 189.5781,135.5938 Q188.2656,133.9375 188.2656,130.8125 Q188.2656,127.6875 189.5781,126.0313 Q190.9063,124.375 193.4063,124.375 Q194.1094,124.375 194.75,124.5313 Q195.4063,124.6875 195.9688,124.9844 L195.9688,127.7031 Q195.3438,127.125 194.75,126.8594 Q194.1563,126.5781 193.5313,126.5781 Q192.1875,126.5781 191.5,127.6563 Q190.8125,128.7188 190.8125,130.8125 Q190.8125,132.9063 191.5,133.9844 Q192.1875,135.0469 193.5313,135.0469 Q194.1563,135.0469 194.75,134.7813 Q195.3438,134.5 195.9688,133.9219 L195.9688,136.6406 Z " fill="#000000"/><text fill="#000000" font-family="sans-serif" font-size="14" lengthAdjust="spacing" textLength="124.1816" x="207" y="135.8467">FeatureOfInterest</text><line style="stroke:#181818;stroke-width:0.5;" x1="179" x2="333.1816" y1="147" y2="147"/><line style="stroke:#181818;stroke-width:0.5;" x1="179" x2="333.1816" y1="155" y2="155"/></g><!--reverse link Property to ActuatableProperty--><g class="link" data-entity-1="ent0001" data-entity-2="ent0002" data-link-type="extension" data-source-line="1" id="lnk3"><path codeLine="1" d="M531.2713,67.0863 C511.7813,84.7463 498.32,96.94 478.74,114.68" fill="none" id="Property-backto-ActuatableProperty" style="stroke:#181818;stroke-width:1;"/><polygon fill="none" points="544.61,55,527.2425,62.6401,535.3,71.5325,544.61,55" style="stroke:#181818;stroke-width:1;stroke-linejoin:miter;stroke-miterlimit:10;"/></g><!--reverse link Sample to MaterialSample--><g class="link" data-entity-1="ent0004" data-entity-2="ent0005" data-link-type="extension" data-source-line="2" id="lnk6"><path codeLine="2" d="M969.3567,64.4445 C940.6067,82.1645 916.35,97.11 887.55,114.86" fill="none" id="Sample-backto-MaterialSample" style="stroke:#181818;stroke-width:1;"/><polygon fill="none" points="984.68,55,966.2086,59.3367,972.5049,69.5522,984.68,55" style="stroke:#181818;stroke-width:1;stroke-linejoin:miter;stroke-miterlimit:10;"/></g><!--reverse link Property to ObservableProperty--><g class="link" data-entity-1="ent0001" data-entity-2="ent0007" data-link-type="extension" data-source-line="3" id="lnk8"><path codeLine="3" d="M600.5871,68.8498 C615.2471,86.5098 623.91,96.94 638.64,114.68" fill="none" id="Property-backto-ObservableProperty" style="stroke:#181818;stroke-width:1;"/><polygon fill="none" points="589.09,55,595.9705,72.6822,605.2037,65.0175,589.09,55" style="stroke:#181818;stroke-width:1;stroke-linejoin:miter;stroke-miterlimit:10;"/></g><!--reverse link Sample to SpatialSample--><g class="link" data-entity-1="ent0004" data-entity-2="ent0009" data-link-type="extension" data-source-line="4" id="lnk10"><path codeLine="4" d="M1022,73 C1022,90.66 1022,96.94 1022,114.68" fill="none" id="Sample-backto-SpatialSample" style="stroke:#181818;stroke-width:1;"/><polygon fill="none" points="1022,55,1016,73,1028,73,1022,55" style="stroke:#181818;stroke-width:1;stroke-linejoin:miter;stroke-miterlimit:10;"/></g><!--reverse link Sample to StatisticalSample--><g class="link" data-entity-1="ent0004" data-entity-2="ent0011" data-link-type="extension" data-source-line="5" id="lnk12"><path codeLine="5" d="M1076.3276,64.1725 C1106.2476,81.8925 1131.95,97.11 1161.93,114.86" fill="none" id="Sample-backto-StatisticalSample" style="stroke:#181818;stroke-width:1;"/><polygon fill="none" points="1060.84,55,1073.2701,69.335,1079.3851,59.0099,1060.84,55" style="stroke:#181818;stroke-width:1;stroke-linejoin:miter;stroke-miterlimit:10;"/></g><!--reverse link Procedure to ActuatingProcedure--><g class="link" data-entity-1="ent0013" data-entity-2="ent0014" data-link-type="extension" data-source-line="6" id="lnk15"><path codeLine="6" d="M1545.8326,63.1732 C1511.0626,80.8932 1479.24,97.11 1444.4,114.86" fill="none" id="Procedure-backto-ActuatingProcedure" style="stroke:#181818;stroke-width:1;"/><polygon fill="none" points="1561.87,55,1543.1082,57.8274,1548.557,68.519,1561.87,55" style="stroke:#181818;stroke-width:1;stroke-linejoin:miter;stroke-miterlimit:10;"/></g><!--reverse link Procedure to ObservingProcedure--><g class="link" data-entity-1="ent0013" data-entity-2="ent0016" data-link-type="extension" data-source-line="7" id="lnk17"><path codeLine="7" d="M1607,73 C1607,90.66 1607,96.94 1607,114.68" fill="none" id="Procedure-backto-ObservingProcedure" style="stroke:#181818;stroke-width:1;"/><polygon fill="none" points="1607,55,1601,73,1613,73,1607,55" style="stroke:#181818;stroke-width:1;stroke-linejoin:miter;stroke-miterlimit:10;"/></g><!--reverse link Procedure to SamplingProcedure--><g class="link" data-entity-1="ent0013" data-entity-2="ent0018" data-link-type="extension" data-source-line="8" id="lnk19"><path codeLine="8" d="M1667.9411,63.205 C1702.5411,80.925 1734.15,97.11 1768.81,114.86" fill="none" id="Procedure-backto-SamplingProcedure" style="stroke:#181818;stroke-width:1;"/><polygon fill="none" points="1651.92,55,1665.2061,68.5454,1670.6762,57.8647,1651.92,55" style="stroke:#181818;stroke-width:1;stroke-linejoin:miter;stroke-miterlimit:10;"/></g><!--reverse link Asset to Platform--><g class="link" data-entity-1="ent0020" data-entity-2="ent0021" data-link-type="extension" data-source-line="9" id="lnk22"><path codeLine="9" d="M2017.7839,70.6022 C2007.6239,88.2622 2002.63,96.94 1992.42,114.68" fill="none" id="Asset-backto-Platform" style="stroke:#181818;stroke-width:1;"/><polygon fill="none" points="2026.76,55,2012.5831,67.6102,2022.9846,73.5943,2026.76,55" style="stroke:#181818;stroke-width:1;stroke-linejoin:miter;stroke-miterlimit:10;"/></g><!--reverse link System to Sampler--><g class="link" data-entity-1="ent0023" data-entity-2="ent0024" data-link-type="extension" data-source-line="10" id="lnk25"><path codeLine="10" d="M2060.8865,174.5884 C2039.8965,192.2484 2024.81,204.94 2003.72,222.68" fill="none" id="System-backto-Sampler" style="stroke:#181818;stroke-width:1;"/><polygon fill="none" points="2074.66,163,2057.0237,169.9972,2064.7493,179.1795,2074.66,163" style="stroke:#181818;stroke-width:1;stroke-linejoin:miter;stroke-miterlimit:10;"/></g><!--reverse link System to Actuator--><g class="link" data-entity-1="ent0023" data-entity-2="ent0026" data-link-type="extension" data-source-line="11" id="lnk27"><path codeLine="11" d="M2102,181 C2102,198.66 2102,204.94 2102,222.68" fill="none" id="System-backto-Actuator" style="stroke:#181818;stroke-width:1;"/><polygon fill="none" points="2102,163,2096,181,2108,181,2102,163" style="stroke:#181818;stroke-width:1;stroke-linejoin:miter;stroke-miterlimit:10;"/></g><!--reverse link ExecutionCollection to SamplingCollection--><g class="link" data-entity-1="ent0028" data-entity-2="ent0029" data-link-type="extension" data-source-line="12" id="lnk30"><path codeLine="12" d="M2405.231,63.3636 C2371.461,81.0836 2340.93,97.11 2307.09,114.86" fill="none" id="ExecutionCollection-backto-SamplingCollection" style="stroke:#181818;stroke-width:1;"/><polygon fill="none" points="2421.17,55,2402.4432,58.0506,2408.0189,68.6766,2421.17,55" style="stroke:#181818;stroke-width:1;stroke-linejoin:miter;stroke-miterlimit:10;"/></g><!--reverse link Asset to System--><g class="link" data-entity-1="ent0020" data-entity-2="ent0023" data-link-type="extension" data-source-line="13" id="lnk31"><path codeLine="13" d="M2062.5383,70.5372 C2072.8683,88.1972 2077.98,96.94 2088.36,114.68" fill="none" id="Asset-backto-System" style="stroke:#181818;stroke-width:1;"/><polygon fill="none" points="2053.45,55,2057.3592,73.5666,2067.7173,67.5077,2053.45,55" style="stroke:#181818;stroke-width:1;stroke-linejoin:miter;stroke-miterlimit:10;"/></g><!--reverse link System to Sensor--><g class="link" data-entity-1="ent0023" data-entity-2="ent0032" data-link-type="extension" data-source-line="14" id="lnk33"><path codeLine="14" d="M2141.7968,174.864 C2161.9468,192.524 2176.13,204.94 2196.38,222.68" fill="none" id="System-backto-Sensor" style="stroke:#181818;stroke-width:1;"/><polygon fill="none" points="2128.26,163,2137.8421,179.3763,2145.7515,170.3518,2128.26,163" style="stroke:#181818;stroke-width:1;stroke-linejoin:miter;stroke-miterlimit:10;"/></g><!--reverse link Execution to Sampling--><g class="link" data-entity-1="ent0034" data-entity-2="ent0035" data-link-type="extension" data-source-line="15" id="lnk36"><path codeLine="15" d="M2944.8041,66.1688 C2922.4841,83.8288 2905.91,96.94 2883.48,114.68" fill="none" id="Execution-backto-Sampling" style="stroke:#181818;stroke-width:1;"/><polygon fill="none" points="2958.92,55,2941.0812,61.4635,2948.527,70.8741,2958.92,55" style="stroke:#181818;stroke-width:1;stroke-linejoin:miter;stroke-miterlimit:10;"/></g><!--reverse link Execution to Actuation--><g class="link" data-entity-1="ent0034" data-entity-2="ent0037" data-link-type="extension" data-source-line="16" id="lnk38"><path codeLine="16" d="M2988,73 C2988,90.66 2988,96.94 2988,114.68" fill="none" id="Execution-backto-Actuation" style="stroke:#181818;stroke-width:1;"/><polygon fill="none" points="2988,55,2982,73,2994,73,2988,55" style="stroke:#181818;stroke-width:1;stroke-linejoin:miter;stroke-miterlimit:10;"/></g><!--reverse link ExecutionCollection to ActuationCollection--><g class="link" data-entity-1="ent0028" data-entity-2="ent0039" data-link-type="extension" data-source-line="17" id="lnk40"><path codeLine="17" d="M2465,73 C2465,90.66 2465,96.94 2465,114.68" fill="none" id="ExecutionCollection-backto-ActuationCollection" style="stroke:#181818;stroke-width:1;"/><polygon fill="none" points="2465,55,2459,73,2471,73,2465,55" style="stroke:#181818;stroke-width:1;stroke-linejoin:miter;stroke-miterlimit:10;"/></g><!--reverse link ExecutionCollection to ObservationCollection--><g class="link" data-entity-1="ent0028" data-entity-2="ent0041" data-link-type="extension" data-source-line="18" id="lnk42"><path codeLine="18" d="M2527.0997,63.0498 C2562.5397,80.7698 2595.22,97.11 2630.72,114.86" fill="none" id="ExecutionCollection-backto-ObservationCollection" style="stroke:#181818;stroke-width:1;"/><polygon fill="none" points="2511,55,2524.4164,68.4164,2529.783,57.6833,2511,55" style="stroke:#181818;stroke-width:1;stroke-linejoin:miter;stroke-miterlimit:10;"/></g><!--reverse link Execution to Observation--><g class="link" data-entity-1="ent0034" data-entity-2="ent0043" data-link-type="extension" data-source-line="19" id="lnk44"><path codeLine="19" d="M3033.4895,65.7202 C3057.3095,83.3802 3075.61,96.94 3099.54,114.68" fill="none" id="Execution-backto-Observation" style="stroke:#181818;stroke-width:1;"/><polygon fill="none" points="3019.03,55,3029.9161,70.54,3037.0629,60.9004,3019.03,55" style="stroke:#181818;stroke-width:1;stroke-linejoin:miter;stroke-miterlimit:10;"/></g><?plantuml-src VL9BRWCX3DrpYbmWD-WcwaVgeigeSmA7l5H81aROH1sfX--aq0HIJNVu-Nqico752KddpSFNThlPMSsaT60C5JSZ-ObHsc-aI8wuO6RejFk389rNjUD4UfDs7LqweiwsnXR7dD1EvSB75RzdbEp_63_E7M4d0YtDWKbFCNappgBmZGAfmyeaCPddJzYiBeR7o0nxUVKvDxmDAbvz38AqXhtDFLvNiRYkJd2bD2EiaklHrkX_ICOoYTJTD8eAg_EPizJo7P9PQ_64YUFi4Nw15v0kTzYVNiFogo3w3G00?></g></svg>