<svg xmlns="http://www.w3.org/2000/svg" xmlns:xlink="http://www.w3.org/1999/xlink" contentStyleType="text/css" data-diagram-type="CLASS" height="286px" preserveAspectRatio="none" style="width:3344px;height:286px;background:#FFFFFF;" version="1.1" viewBox="0 0 3344 286" width="3344px" zoomAndPan="magnify"><?plantuml 1.2026.6?><defs/><g><!--class Property--><g class="entity" data-qualified-name="Property" data-source-line="1" id="ent0001"><rect fill="#F1F1F1" height="48" rx="2.5" ry="2.5" style="stroke:#181818;stroke-width:0.5;" width="91.7939" x="649" y="7"/><ellipse cx="664" cy="23" fill="#ADD1B2" rx="11" ry="11" style="stroke:#181818;stroke-width:1;"/><path d="M666.9688,28.6406 Q666.3906,28.9375 665.75,29.0781 Q665.1094,29.2344 664.4063,29.2344 Q661.9063,29.2344 660.5781,27.5938 Q659.2656,25.9375 659.2656,22.8125 Q659.2656,19.6875 660.5781,18.0313 Q661.9063,16.375 664.4063,16.375 Q665.1094,16.375 665.75,16.5313 Q666.4063,16.6875 666.9688,16.9844 L666.9688,19.7031 Q666.3438,19.125 665.75,18.8594 Q665.1563,18.5781 664.5313,18.5781 Q663.1875,18.5781 662.5,19.6563 Q661.8125,20.7188 661.8125,22.8125 Q661.8125,24.9063 662.5,25.9844 Q663.1875,27.0469 664.5313,27.0469 Q665.1563,27.0469 665.75,26.7813 Q666.3438,26.5 666.9688,25.9219 L666.9688,28.6406 Z " fill="#000000"/><text fill="#000000" font-family="sans-serif" font-size="14" lengthAdjust="spacing" textLength="59.7939" x="678" y="27.8467">Property</text><line style="stroke:#181818;stroke-width:0.5;" x1="650" x2="739.7939" y1="39" y2="39"/><line style="stroke:#181818;stroke-width:0.5;" x1="650" x2="739.7939" y1="47" y2="47"/></g><!--class ActuatableProperty--><g class="entity" data-qualified-name="ActuatableProperty" data-source-line="1" id="ent0002"><rect fill="#F1F1F1" height="48" rx="2.5" ry="2.5" style="stroke:#181818;stroke-width:0.5;" width="167.4678" x="509.5" y="115"/><ellipse cx="524.5" cy="131" fill="#ADD1B2" rx="11" ry="11" style="stroke:#181818;stroke-width:1;"/><path d="M527.4688,136.6406 Q526.8906,136.9375 526.25,137.0781 Q525.6094,137.2344 524.9063,137.2344 Q522.4063,137.2344 521.0781,135.5938 Q519.7656,133.9375 519.7656,130.8125 Q519.7656,127.6875 521.0781,126.0313 Q522.4063,124.375 524.9063,124.375 Q525.6094,124.375 526.25,124.5313 Q526.9063,124.6875 527.4688,124.9844 L527.4688,127.7031 Q526.8438,127.125 526.25,126.8594 Q525.6563,126.5781 525.0313,126.5781 Q523.6875,126.5781 523,127.6563 Q522.3125,128.7188 522.3125,130.8125 Q522.3125,132.9063 523,133.9844 Q523.6875,135.0469 525.0313,135.0469 Q525.6563,135.0469 526.25,134.7813 Q526.8438,134.5 527.4688,133.9219 L527.4688,136.6406 Z " fill="#000000"/><text fill="#000000" font-family="sans-serif" font-size="14" lengthAdjust="spacing" textLength="135.4678" x="538.5" y="135.8467">ActuatableProperty</text><line style="stroke:#181818;stroke-width:0.5;" x1="510.5" x2="675.9678" y1="147" y2="147"/><line style="stroke:#181818;stroke-width:0.5;" x1="510.5" x2="675.9678" y1="155" y2="155"/></g><!--class Sample--><g class="entity" data-qualified-name="Sample" data-source-line="2" id="ent0004"><rect fill="#F1F1F1" height="48" rx="2.5" ry="2.5" style="stroke:#181818;stroke-width:0.5;" width="84.4932" x="1120" y="7"/><ellipse cx="1135" cy="23" fill="#ADD1B2" rx="11" ry="11" style="stroke:#181818;stroke-width:1;"/><path d="M1137.9688,28.6406 Q1137.3906,28.9375 1136.75,29.0781 Q1136.1094,29.2344 1135.4063,29.2344 Q1132.9063,29.2344 1131.5781,27.5938 Q1130.2656,25.9375 1130.2656,22.8125 Q1130.2656,19.6875 1131.5781,18.0313 Q1132.9063,16.375 1135.4063,16.375 Q1136.1094,16.375 1136.75,16.5313 Q1137.4063,16.6875 1137.9688,16.9844 L1137.9688,19.7031 Q1137.3438,19.125 1136.75,18.8594 Q1136.1563,18.5781 1135.5313,18.5781 Q1134.1875,18.5781 1133.5,19.6563 Q1132.8125,20.7188 1132.8125,22.8125 Q1132.8125,24.9063 1133.5,25.9844 Q1134.1875,27.0469 1135.5313,27.0469 Q1136.1563,27.0469 1136.75,26.7813 Q1137.3438,26.5 1137.9688,25.9219 L1137.9688,28.6406 Z " fill="#000000"/><text fill="#000000" font-family="sans-serif" font-size="14" lengthAdjust="spacing" textLength="52.4932" x="1149" y="27.8467">Sample</text><line style="stroke:#181818;stroke-width:0.5;" x1="1121" x2="1203.4932" y1="39" y2="39"/><line style="stroke:#181818;stroke-width:0.5;" x1="1121" x2="1203.4932" y1="47" y2="47"/></g><!--class MaterialSample--><g class="entity" data-qualified-name="MaterialSample" data-source-line="2" id="ent0005"><rect fill="#F1F1F1" height="48" rx="2.5" ry="2.5" style="stroke:#181818;stroke-width:0.5;" width="141.3682" x="919.5" y="115"/><ellipse cx="934.5" cy="131" fill="#ADD1B2" rx="11" ry="11" style="stroke:#181818;stroke-width:1;"/><path d="M937.4688,136.6406 Q936.8906,136.9375 936.25,137.0781 Q935.6094,137.2344 934.9063,137.2344 Q932.4063,137.2344 931.0781,135.5938 Q929.7656,133.9375 929.7656,130.8125 Q929.7656,127.6875 931.0781,126.0313 Q932.4063,124.375 934.9063,124.375 Q935.6094,124.375 936.25,124.5313 Q936.9063,124.6875 937.4688,124.9844 L937.4688,127.7031 Q936.8438,127.125 936.25,126.8594 Q935.6563,126.5781 935.0313,126.5781 Q933.6875,126.5781 933,127.6563 Q932.3125,128.7188 932.3125,130.8125 Q932.3125,132.9063 933,133.9844 Q933.6875,135.0469 935.0313,135.0469 Q935.6563,135.0469 936.25,134.7813 Q936.8438,134.5 937.4688,133.9219 L937.4688,136.6406 Z " fill="#000000"/><text fill="#000000" font-family="sans-serif" font-size="14" lengthAdjust="spacing" textLength="109.3682" x="948.5" y="135.8467">MaterialSample</text><line style="stroke:#181818;stroke-width:0.5;" x1="920.5" x2="1059.8682" y1="147" y2="147"/><line style="stroke:#181818;stroke-width:0.5;" x1="920.5" x2="1059.8682" y1="155" y2="155"/></g><!--class SpatialSample--><g class="entity" data-qualified-name="SpatialSample" data-source-line="3" id="ent0007"><rect fill="#F1F1F1" height="48" rx="2.5" ry="2.5" style="stroke:#181818;stroke-width:0.5;" width="132.6934" x="1095.5" y="115"/><ellipse cx="1110.5" cy="131" fill="#ADD1B2" rx="11" ry="11" style="stroke:#181818;stroke-width:1;"/><path d="M1113.4688,136.6406 Q1112.8906,136.9375 1112.25,137.0781 Q1111.6094,137.2344 1110.9063,137.2344 Q1108.4063,137.2344 1107.0781,135.5938 Q1105.7656,133.9375 1105.7656,130.8125 Q1105.7656,127.6875 1107.0781,126.0313 Q1108.4063,124.375 1110.9063,124.375 Q1111.6094,124.375 1112.25,124.5313 Q1112.9063,124.6875 1113.4688,124.9844 L1113.4688,127.7031 Q1112.8438,127.125 1112.25,126.8594 Q1111.6563,126.5781 1111.0313,126.5781 Q1109.6875,126.5781 1109,127.6563 Q1108.3125,128.7188 1108.3125,130.8125 Q1108.3125,132.9063 1109,133.9844 Q1109.6875,135.0469 1111.0313,135.0469 Q1111.6563,135.0469 1112.25,134.7813 Q1112.8438,134.5 1113.4688,133.9219 L1113.4688,136.6406 Z " fill="#000000"/><text fill="#000000" font-family="sans-serif" font-size="14" lengthAdjust="spacing" textLength="100.6934" x="1124.5" y="135.8467">SpatialSample</text><line style="stroke:#181818;stroke-width:0.5;" x1="1096.5" x2="1227.1934" y1="147" y2="147"/><line style="stroke:#181818;stroke-width:0.5;" x1="1096.5" x2="1227.1934" y1="155" y2="155"/></g><!--class StatisticalSample--><g class="entity" data-qualified-name="StatisticalSample" data-source-line="4" id="ent0009"><rect fill="#F1F1F1" height="48" rx="2.5" ry="2.5" style="stroke:#181818;stroke-width:0.5;" width="153.666" x="1264" y="115"/><ellipse cx="1279" cy="131" fill="#ADD1B2" rx="11" ry="11" style="stroke:#181818;stroke-width:1;"/><path d="M1281.9688,136.6406 Q1281.3906,136.9375 1280.75,137.0781 Q1280.1094,137.2344 1279.4063,137.2344 Q1276.9063,137.2344 1275.5781,135.5938 Q1274.2656,133.9375 1274.2656,130.8125 Q1274.2656,127.6875 1275.5781,126.0313 Q1276.9063,124.375 1279.4063,124.375 Q1280.1094,124.375 1280.75,124.5313 Q1281.4063,124.6875 1281.9688,124.9844 L1281.9688,127.7031 Q1281.3438,127.125 1280.75,126.8594 Q1280.1563,126.5781 1279.5313,126.5781 Q1278.1875,126.5781 1277.5,127.6563 Q1276.8125,128.7188 1276.8125,130.8125 Q1276.8125,132.9063 1277.5,133.9844 Q1278.1875,135.0469 1279.5313,135.0469 Q1280.1563,135.0469 1280.75,134.7813 Q1281.3438,134.5 1281.9688,133.9219 L1281.9688,136.6406 Z " fill="#000000"/><text fill="#000000" font-family="sans-serif" font-size="14" lengthAdjust="spacing" textLength="121.666" x="1293" y="135.8467">StatisticalSample</text><line style="stroke:#181818;stroke-width:0.5;" x1="1265" x2="1416.666" y1="147" y2="147"/><line style="stroke:#181818;stroke-width:0.5;" x1="1265" x2="1416.666" y1="155" y2="155"/></g><!--class ObservableProperty--><g class="entity" data-qualified-name="ObservableProperty" data-source-line="5" id="ent0011"><rect fill="#F1F1F1" height="48" rx="2.5" ry="2.5" style="stroke:#181818;stroke-width:0.5;" width="171.6172" x="712" y="115"/><ellipse cx="727" cy="131" fill="#ADD1B2" rx="11" ry="11" style="stroke:#181818;stroke-width:1;"/><path d="M729.9688,136.6406 Q729.3906,136.9375 728.75,137.0781 Q728.1094,137.2344 727.4063,137.2344 Q724.9063,137.2344 723.5781,135.5938 Q722.2656,133.9375 722.2656,130.8125 Q722.2656,127.6875 723.5781,126.0313 Q724.9063,124.375 727.4063,124.375 Q728.1094,124.375 728.75,124.5313 Q729.4063,124.6875 729.9688,124.9844 L729.9688,127.7031 Q729.3438,127.125 728.75,126.8594 Q728.1563,126.5781 727.5313,126.5781 Q726.1875,126.5781 725.5,127.6563 Q724.8125,128.7188 724.8125,130.8125 Q724.8125,132.9063 725.5,133.9844 Q726.1875,135.0469 727.5313,135.0469 Q728.1563,135.0469 728.75,134.7813 Q729.3438,134.5 729.9688,133.9219 L729.9688,136.6406 Z " fill="#000000"/><text fill="#000000" font-family="sans-serif" font-size="14" lengthAdjust="spacing" textLength="139.6172" x="741" y="135.8467">ObservableProperty</text><line style="stroke:#181818;stroke-width:0.5;" x1="713" x2="882.6172" y1="147" y2="147"/><line style="stroke:#181818;stroke-width:0.5;" x1="713" x2="882.6172" y1="155" y2="155"/></g><!--class Procedure--><g class="entity" data-qualified-name="Procedure" data-source-line="6" id="ent0013"><rect fill="#F1F1F1" height="48" rx="2.5" ry="2.5" style="stroke:#181818;stroke-width:0.5;" width="103.2031" x="1695.5" y="7"/><ellipse cx="1710.5" cy="23" fill="#ADD1B2" rx="11" ry="11" style="stroke:#181818;stroke-width:1;"/><path d="M1713.4688,28.6406 Q1712.8906,28.9375 1712.25,29.0781 Q1711.6094,29.2344 1710.9063,29.2344 Q1708.4063,29.2344 1707.0781,27.5938 Q1705.7656,25.9375 1705.7656,22.8125 Q1705.7656,19.6875 1707.0781,18.0313 Q1708.4063,16.375 1710.9063,16.375 Q1711.6094,16.375 1712.25,16.5313 Q1712.9063,16.6875 1713.4688,16.9844 L1713.4688,19.7031 Q1712.8438,19.125 1712.25,18.8594 Q1711.6563,18.5781 1711.0313,18.5781 Q1709.6875,18.5781 1709,19.6563 Q1708.3125,20.7188 1708.3125,22.8125 Q1708.3125,24.9063 1709,25.9844 Q1709.6875,27.0469 1711.0313,27.0469 Q1711.6563,27.0469 1712.25,26.7813 Q1712.8438,26.5 1713.4688,25.9219 L1713.4688,28.6406 Z " fill="#000000"/><text fill="#000000" font-family="sans-serif" font-size="14" lengthAdjust="spacing" textLength="71.2031" x="1724.5" y="27.8467">Procedure</text><line style="stroke:#181818;stroke-width:0.5;" x1="1696.5" x2="1797.7031" y1="39" y2="39"/><line style="stroke:#181818;stroke-width:0.5;" x1="1696.5" x2="1797.7031" y1="47" y2="47"/></g><!--class ActuatingProcedure--><g class="entity" data-qualified-name="ActuatingProcedure" data-source-line="6" id="ent0014"><rect fill="#F1F1F1" height="48" rx="2.5" ry="2.5" style="stroke:#181818;stroke-width:0.5;" width="170.5576" x="1453.5" y="115"/><ellipse cx="1468.5" cy="131" fill="#ADD1B2" rx="11" ry="11" style="stroke:#181818;stroke-width:1;"/><path d="M1471.4688,136.6406 Q1470.8906,136.9375 1470.25,137.0781 Q1469.6094,137.2344 1468.9063,137.2344 Q1466.4063,137.2344 1465.0781,135.5938 Q1463.7656,133.9375 1463.7656,130.8125 Q1463.7656,127.6875 1465.0781,126.0313 Q1466.4063,124.375 1468.9063,124.375 Q1469.6094,124.375 1470.25,124.5313 Q1470.9063,124.6875 1471.4688,124.9844 L1471.4688,127.7031 Q1470.8438,127.125 1470.25,126.8594 Q1469.6563,126.5781 1469.0313,126.5781 Q1467.6875,126.5781 1467,127.6563 Q1466.3125,128.7188 1466.3125,130.8125 Q1466.3125,132.9063 1467,133.9844 Q1467.6875,135.0469 1469.0313,135.0469 Q1469.6563,135.0469 1470.25,134.7813 Q1470.8438,134.5 1471.4688,133.9219 L1471.4688,136.6406 Z " fill="#000000"/><text fill="#000000" font-family="sans-serif" font-size="14" lengthAdjust="spacing" textLength="138.5576" x="1482.5" y="135.8467">ActuatingProcedure</text><line style="stroke:#181818;stroke-width:0.5;" x1="1454.5" x2="1623.0576" y1="147" y2="147"/><line style="stroke:#181818;stroke-width:0.5;" x1="1454.5" x2="1623.0576" y1="155" y2="155"/></g><!--class ObservingProcedure--><g class="entity" data-qualified-name="ObservingProcedure" data-source-line="7" id="ent0016"><rect fill="#F1F1F1" height="48" rx="2.5" ry="2.5" style="stroke:#181818;stroke-width:0.5;" width="174.707" x="1659.5" y="115"/><ellipse cx="1674.5" cy="131" fill="#ADD1B2" rx="11" ry="11" style="stroke:#181818;stroke-width:1;"/><path d="M1677.4688,136.6406 Q1676.8906,136.9375 1676.25,137.0781 Q1675.6094,137.2344 1674.9063,137.2344 Q1672.4063,137.2344 1671.0781,135.5938 Q1669.7656,133.9375 1669.7656,130.8125 Q1669.7656,127.6875 1671.0781,126.0313 Q1672.4063,124.375 1674.9063,124.375 Q1675.6094,124.375 1676.25,124.5313 Q1676.9063,124.6875 1677.4688,124.9844 L1677.4688,127.7031 Q1676.8438,127.125 1676.25,126.8594 Q1675.6563,126.5781 1675.0313,126.5781 Q1673.6875,126.5781 1673,127.6563 Q1672.3125,128.7188 1672.3125,130.8125 Q1672.3125,132.9063 1673,133.9844 Q1673.6875,135.0469 1675.0313,135.0469 Q1675.6563,135.0469 1676.25,134.7813 Q1676.8438,134.5 1677.4688,133.9219 L1677.4688,136.6406 Z " fill="#000000"/><text fill="#000000" font-family="sans-serif" font-size="14" lengthAdjust="spacing" textLength="142.707" x="1688.5" y="135.8467">ObservingProcedure</text><line style="stroke:#181818;stroke-width:0.5;" x1="1660.5" x2="1833.207" y1="147" y2="147"/><line style="stroke:#181818;stroke-width:0.5;" x1="1660.5" x2="1833.207" y1="155" y2="155"/></g><!--class SamplingProcedure--><g class="entity" data-qualified-name="SamplingProcedure" data-source-line="8" id="ent0018"><rect fill="#F1F1F1" height="48" rx="2.5" ry="2.5" style="stroke:#181818;stroke-width:0.5;" width="168.7324" x="1869.5" y="115"/><ellipse cx="1884.5" cy="131" fill="#ADD1B2" rx="11" ry="11" style="stroke:#181818;stroke-width:1;"/><path d="M1887.4688,136.6406 Q1886.8906,136.9375 1886.25,137.0781 Q1885.6094,137.2344 1884.9063,137.2344 Q1882.4063,137.2344 1881.0781,135.5938 Q1879.7656,133.9375 1879.7656,130.8125 Q1879.7656,127.6875 1881.0781,126.0313 Q1882.4063,124.375 1884.9063,124.375 Q1885.6094,124.375 1886.25,124.5313 Q1886.9063,124.6875 1887.4688,124.9844 L1887.4688,127.7031 Q1886.8438,127.125 1886.25,126.8594 Q1885.6563,126.5781 1885.0313,126.5781 Q1883.6875,126.5781 1883,127.6563 Q1882.3125,128.7188 1882.3125,130.8125 Q1882.3125,132.9063 1883,133.9844 Q1883.6875,135.0469 1885.0313,135.0469 Q1885.6563,135.0469 1886.25,134.7813 Q1886.8438,134.5 1887.4688,133.9219 L1887.4688,136.6406 Z " fill="#000000"/><text fill="#000000" font-family="sans-serif" font-size="14" lengthAdjust="spacing" textLength="136.7324" x="1898.5" y="135.8467">SamplingProcedure</text><line style="stroke:#181818;stroke-width:0.5;" x1="1870.5" x2="2037.2324" y1="147" y2="147"/><line style="stroke:#181818;stroke-width:0.5;" x1="1870.5" x2="2037.2324" y1="155" y2="155"/></g><!--class Asset--><g class="entity" data-qualified-name="Asset" data-source-line="9" id="ent0020"><rect fill="#F1F1F1" height="48" rx="2.5" ry="2.5" style="stroke:#181818;stroke-width:0.5;" width="70.2676" x="2145" y="7"/><ellipse cx="2160" cy="23" fill="#ADD1B2" rx="11" ry="11" style="stroke:#181818;stroke-width:1;"/><path d="M2162.9688,28.6406 Q2162.3906,28.9375 2161.75,29.0781 Q2161.1094,29.2344 2160.4063,29.2344 Q2157.9063,29.2344 2156.5781,27.5938 Q2155.2656,25.9375 2155.2656,22.8125 Q2155.2656,19.6875 2156.5781,18.0313 Q2157.9063,16.375 2160.4063,16.375 Q2161.1094,16.375 2161.75,16.5313 Q2162.4063,16.6875 2162.9688,16.9844 L2162.9688,19.7031 Q2162.3438,19.125 2161.75,18.8594 Q2161.1563,18.5781 2160.5313,18.5781 Q2159.1875,18.5781 2158.5,19.6563 Q2157.8125,20.7188 2157.8125,22.8125 Q2157.8125,24.9063 2158.5,25.9844 Q2159.1875,27.0469 2160.5313,27.0469 Q2161.1563,27.0469 2161.75,26.7813 Q2162.3438,26.5 2162.9688,25.9219 L2162.9688,28.6406 Z " fill="#000000"/><text fill="#000000" font-family="sans-serif" font-size="14" lengthAdjust="spacing" textLength="38.2676" x="2174" y="27.8467">Asset</text><line style="stroke:#181818;stroke-width:0.5;" x1="2146" x2="2214.2676" y1="39" y2="39"/><line style="stroke:#181818;stroke-width:0.5;" x1="2146" x2="2214.2676" y1="47" y2="47"/></g><!--class Platform--><g class="entity" data-qualified-name="Platform" data-source-line="9" id="ent0021"><rect fill="#F1F1F1" height="48" rx="2.5" ry="2.5" style="stroke:#181818;stroke-width:0.5;" width="91.2881" x="2073.5" y="115"/><ellipse cx="2088.5" cy="131" fill="#ADD1B2" rx="11" ry="11" style="stroke:#181818;stroke-width:1;"/><path d="M2091.4688,136.6406 Q2090.8906,136.9375 2090.25,137.0781 Q2089.6094,137.2344 2088.9063,137.2344 Q2086.4063,137.2344 2085.0781,135.5938 Q2083.7656,133.9375 2083.7656,130.8125 Q2083.7656,127.6875 2085.0781,126.0313 Q2086.4063,124.375 2088.9063,124.375 Q2089.6094,124.375 2090.25,124.5313 Q2090.9063,124.6875 2091.4688,124.9844 L2091.4688,127.7031 Q2090.8438,127.125 2090.25,126.8594 Q2089.6563,126.5781 2089.0313,126.5781 Q2087.6875,126.5781 2087,127.6563 Q2086.3125,128.7188 2086.3125,130.8125 Q2086.3125,132.9063 2087,133.9844 Q2087.6875,135.0469 2089.0313,135.0469 Q2089.6563,135.0469 2090.25,134.7813 Q2090.8438,134.5 2091.4688,133.9219 L2091.4688,136.6406 Z " fill="#000000"/><text fill="#000000" font-family="sans-serif" font-size="14" lengthAdjust="spacing" textLength="59.2881" x="2102.5" y="135.8467">Platform</text><line style="stroke:#181818;stroke-width:0.5;" x1="2074.5" x2="2163.7881" y1="147" y2="147"/><line style="stroke:#181818;stroke-width:0.5;" x1="2074.5" x2="2163.7881" y1="155" y2="155"/></g><!--class System--><g class="entity" data-qualified-name="System" data-source-line="10" id="ent0023"><rect fill="#F1F1F1" height="48" rx="2.5" ry="2.5" style="stroke:#181818;stroke-width:0.5;" width="84.2061" x="2200" y="115"/><ellipse cx="2215" cy="131" fill="#ADD1B2" rx="11" ry="11" style="stroke:#181818;stroke-width:1;"/><path d="M2217.9688,136.6406 Q2217.3906,136.9375 2216.75,137.0781 Q2216.1094,137.2344 2215.4063,137.2344 Q2212.9063,137.2344 2211.5781,135.5938 Q2210.2656,133.9375 2210.2656,130.8125 Q2210.2656,127.6875 2211.5781,126.0313 Q2212.9063,124.375 2215.4063,124.375 Q2216.1094,124.375 2216.75,124.5313 Q2217.4063,124.6875 2217.9688,124.9844 L2217.9688,127.7031 Q2217.3438,127.125 2216.75,126.8594 Q2216.1563,126.5781 2215.5313,126.5781 Q2214.1875,126.5781 2213.5,127.6563 Q2212.8125,128.7188 2212.8125,130.8125 Q2212.8125,132.9063 2213.5,133.9844 Q2214.1875,135.0469 2215.5313,135.0469 Q2216.1563,135.0469 2216.75,134.7813 Q2217.3438,134.5 2217.9688,133.9219 L2217.9688,136.6406 Z " fill="#000000"/><text fill="#000000" font-family="sans-serif" font-size="14" lengthAdjust="spacing" textLength="52.2061" x="2229" y="135.8467">System</text><line style="stroke:#181818;stroke-width:0.5;" x1="2201" x2="2283.2061" y1="147" y2="147"/><line style="stroke:#181818;stroke-width:0.5;" x1="2201" x2="2283.2061" y1="155" y2="155"/></g><!--class Sampler--><g class="entity" data-qualified-name="Sampler" data-source-line="10" id="ent0024"><rect fill="#F1F1F1" height="48" rx="2.5" ry="2.5" style="stroke:#181818;stroke-width:0.5;" width="90.249" x="2071" y="223"/><ellipse cx="2086" cy="239" fill="#ADD1B2" rx="11" ry="11" style="stroke:#181818;stroke-width:1;"/><path d="M2088.9688,244.6406 Q2088.3906,244.9375 2087.75,245.0781 Q2087.1094,245.2344 2086.4063,245.2344 Q2083.9063,245.2344 2082.5781,243.5938 Q2081.2656,241.9375 2081.2656,238.8125 Q2081.2656,235.6875 2082.5781,234.0313 Q2083.9063,232.375 2086.4063,232.375 Q2087.1094,232.375 2087.75,232.5313 Q2088.4063,232.6875 2088.9688,232.9844 L2088.9688,235.7031 Q2088.3438,235.125 2087.75,234.8594 Q2087.1563,234.5781 2086.5313,234.5781 Q2085.1875,234.5781 2084.5,235.6563 Q2083.8125,236.7188 2083.8125,238.8125 Q2083.8125,240.9063 2084.5,241.9844 Q2085.1875,243.0469 2086.5313,243.0469 Q2087.1563,243.0469 2087.75,242.7813 Q2088.3438,242.5 2088.9688,241.9219 L2088.9688,244.6406 Z " fill="#000000"/><text fill="#000000" font-family="sans-serif" font-size="14" lengthAdjust="spacing" textLength="58.249" x="2100" y="243.8467">Sampler</text><line style="stroke:#181818;stroke-width:0.5;" x1="2072" x2="2160.249" y1="255" y2="255"/><line style="stroke:#181818;stroke-width:0.5;" x1="2072" x2="2160.249" y1="263" y2="263"/></g><!--class Actuator--><g class="entity" data-qualified-name="Actuator" data-source-line="11" id="ent0026"><rect fill="#F1F1F1" height="48" rx="2.5" ry="2.5" style="stroke:#181818;stroke-width:0.5;" width="92.0264" x="2196" y="223"/><ellipse cx="2211" cy="239" fill="#ADD1B2" rx="11" ry="11" style="stroke:#181818;stroke-width:1;"/><path d="M2213.9688,244.6406 Q2213.3906,244.9375 2212.75,245.0781 Q2212.1094,245.2344 2211.4063,245.2344 Q2208.9063,245.2344 2207.5781,243.5938 Q2206.2656,241.9375 2206.2656,238.8125 Q2206.2656,235.6875 2207.5781,234.0313 Q2208.9063,232.375 2211.4063,232.375 Q2212.1094,232.375 2212.75,232.5313 Q2213.4063,232.6875 2213.9688,232.9844 L2213.9688,235.7031 Q2213.3438,235.125 2212.75,234.8594 Q2212.1563,234.5781 2211.5313,234.5781 Q2210.1875,234.5781 2209.5,235.6563 Q2208.8125,236.7188 2208.8125,238.8125 Q2208.8125,240.9063 2209.5,241.9844 Q2210.1875,243.0469 2211.5313,243.0469 Q2212.1563,243.0469 2212.75,242.7813 Q2213.3438,242.5 2213.9688,241.9219 L2213.9688,244.6406 Z " fill="#000000"/><text fill="#000000" font-family="sans-serif" font-size="14" lengthAdjust="spacing" textLength="60.0264" x="2225" y="243.8467">Actuator</text><line style="stroke:#181818;stroke-width:0.5;" x1="2197" x2="2287.0264" y1="255" y2="255"/><line style="stroke:#181818;stroke-width:0.5;" x1="2197" x2="2287.0264" y1="263" y2="263"/></g><!--class Execution--><g class="entity" data-qualified-name="Execution" data-source-line="13" id="ent0029"><rect fill="#F1F1F1" height="48" rx="2.5" ry="2.5" style="stroke:#181818;stroke-width:0.5;" width="101.1318" x="2451.5" y="7"/><ellipse cx="2466.5" cy="23" fill="#ADD1B2" rx="11" ry="11" style="stroke:#181818;stroke-width:1;"/><path d="M2469.4688,28.6406 Q2468.8906,28.9375 2468.25,29.0781 Q2467.6094,29.2344 2466.9063,29.2344 Q2464.4063,29.2344 2463.0781,27.5938 Q2461.7656,25.9375 2461.7656,22.8125 Q2461.7656,19.6875 2463.0781,18.0313 Q2464.4063,16.375 2466.9063,16.375 Q2467.6094,16.375 2468.25,16.5313 Q2468.9063,16.6875 2469.4688,16.9844 L2469.4688,19.7031 Q2468.8438,19.125 2468.25,18.8594 Q2467.6563,18.5781 2467.0313,18.5781 Q2465.6875,18.5781 2465,19.6563 Q2464.3125,20.7188 2464.3125,22.8125 Q2464.3125,24.9063 2465,25.9844 Q2465.6875,27.0469 2467.0313,27.0469 Q2467.6563,27.0469 2468.25,26.7813 Q2468.8438,26.5 2469.4688,25.9219 L2469.4688,28.6406 Z " fill="#000000"/><text fill="#000000" font-family="sans-serif" font-size="14" lengthAdjust="spacing" textLength="69.1318" x="2480.5" y="27.8467">Execution</text><line style="stroke:#181818;stroke-width:0.5;" x1="2452.5" x2="2551.6318" y1="39" y2="39"/><line style="stroke:#181818;stroke-width:0.5;" x1="2452.5" x2="2551.6318" y1="47" y2="47"/></g><!--class Sampling--><g class="entity" data-qualified-name="Sampling" data-source-line="13" id="ent0030"><rect fill="#F1F1F1" height="48" rx="2.5" ry="2.5" style="stroke:#181818;stroke-width:0.5;" width="97.5293" x="2319" y="115"/><ellipse cx="2334" cy="131" fill="#ADD1B2" rx="11" ry="11" style="stroke:#181818;stroke-width:1;"/><path d="M2336.9688,136.6406 Q2336.3906,136.9375 2335.75,137.0781 Q2335.1094,137.2344 2334.4063,137.2344 Q2331.9063,137.2344 2330.5781,135.5938 Q2329.2656,133.9375 2329.2656,130.8125 Q2329.2656,127.6875 2330.5781,126.0313 Q2331.9063,124.375 2334.4063,124.375 Q2335.1094,124.375 2335.75,124.5313 Q2336.4063,124.6875 2336.9688,124.9844 L2336.9688,127.7031 Q2336.3438,127.125 2335.75,126.8594 Q2335.1563,126.5781 2334.5313,126.5781 Q2333.1875,126.5781 2332.5,127.6563 Q2331.8125,128.7188 2331.8125,130.8125 Q2331.8125,132.9063 2332.5,133.9844 Q2333.1875,135.0469 2334.5313,135.0469 Q2335.1563,135.0469 2335.75,134.7813 Q2336.3438,134.5 2336.9688,133.9219 L2336.9688,136.6406 Z " fill="#000000"/><text fill="#000000" font-family="sans-serif" font-size="14" lengthAdjust="spacing" textLength="65.5293" x="2348" y="135.8467">Sampling</text><line style="stroke:#181818;stroke-width:0.5;" x1="2320" x2="2415.5293" y1="147" y2="147"/><line style="stroke:#181818;stroke-width:0.5;" x1="2320" x2="2415.5293" y1="155" y2="155"/></g><!--class ExecutionCollection--><g class="entity" data-qualified-name="ExecutionCollection" data-source-line="14" id="ent0032"><rect fill="#F1F1F1" height="48" rx="2.5" ry="2.5" style="stroke:#181818;stroke-width:0.5;" width="170.3799" x="2939" y="7"/><ellipse cx="2954" cy="23" fill="#ADD1B2" rx="11" ry="11" style="stroke:#181818;stroke-width:1;"/><path d="M2956.9688,28.6406 Q2956.3906,28.9375 2955.75,29.0781 Q2955.1094,29.2344 2954.4063,29.2344 Q2951.9063,29.2344 2950.5781,27.5938 Q2949.2656,25.9375 2949.2656,22.8125 Q2949.2656,19.6875 2950.5781,18.0313 Q2951.9063,16.375 2954.4063,16.375 Q2955.1094,16.375 2955.75,16.5313 Q2956.4063,16.6875 2956.9688,16.9844 L2956.9688,19.7031 Q2956.3438,19.125 2955.75,18.8594 Q2955.1563,18.5781 2954.5313,18.5781 Q2953.1875,18.5781 2952.5,19.6563 Q2951.8125,20.7188 2951.8125,22.8125 Q2951.8125,24.9063 2952.5,25.9844 Q2953.1875,27.0469 2954.5313,27.0469 Q2955.1563,27.0469 2955.75,26.7813 Q2956.3438,26.5 2956.9688,25.9219 L2956.9688,28.6406 Z " fill="#000000"/><text fill="#000000" font-family="sans-serif" font-size="14" lengthAdjust="spacing" textLength="138.3799" x="2968" y="27.8467">ExecutionCollection</text><line style="stroke:#181818;stroke-width:0.5;" x1="2940" x2="3108.3799" y1="39" y2="39"/><line style="stroke:#181818;stroke-width:0.5;" x1="2940" x2="3108.3799" y1="47" y2="47"/></g><!--class SamplingCollection--><g class="entity" data-qualified-name="SamplingCollection" data-source-line="14" id="ent0033"><rect fill="#F1F1F1" height="48" rx="2.5" ry="2.5" style="stroke:#181818;stroke-width:0.5;" width="166.7773" x="2738.5" y="115"/><ellipse cx="2753.5" cy="131" fill="#ADD1B2" rx="11" ry="11" style="stroke:#181818;stroke-width:1;"/><path d="M2756.4688,136.6406 Q2755.8906,136.9375 2755.25,137.0781 Q2754.6094,137.2344 2753.9063,137.2344 Q2751.4063,137.2344 2750.0781,135.5938 Q2748.7656,133.9375 2748.7656,130.8125 Q2748.7656,127.6875 2750.0781,126.0313 Q2751.4063,124.375 2753.9063,124.375 Q2754.6094,124.375 2755.25,124.5313 Q2755.9063,124.6875 2756.4688,124.9844 L2756.4688,127.7031 Q2755.8438,127.125 2755.25,126.8594 Q2754.6563,126.5781 2754.0313,126.5781 Q2752.6875,126.5781 2752,127.6563 Q2751.3125,128.7188 2751.3125,130.8125 Q2751.3125,132.9063 2752,133.9844 Q2752.6875,135.0469 2754.0313,135.0469 Q2754.6563,135.0469 2755.25,134.7813 Q2755.8438,134.5 2756.4688,133.9219 L2756.4688,136.6406 Z " fill="#000000"/><text fill="#000000" font-family="sans-serif" font-size="14" lengthAdjust="spacing" textLength="134.7773" x="2767.5" y="135.8467">SamplingCollection</text><line style="stroke:#181818;stroke-width:0.5;" x1="2739.5" x2="2904.2773" y1="147" y2="147"/><line style="stroke:#181818;stroke-width:0.5;" x1="2739.5" x2="2904.2773" y1="155" y2="155"/></g><!--class Actuation--><g class="entity" data-qualified-name="Actuation" data-source-line="15" id="ent0035"><rect fill="#F1F1F1" height="48" rx="2.5" ry="2.5" style="stroke:#181818;stroke-width:0.5;" width="99.0332" x="2452.5" y="115"/><ellipse cx="2467.5" cy="131" fill="#ADD1B2" rx="11" ry="11" style="stroke:#181818;stroke-width:1;"/><path d="M2470.4688,136.6406 Q2469.8906,136.9375 2469.25,137.0781 Q2468.6094,137.2344 2467.9063,137.2344 Q2465.4063,137.2344 2464.0781,135.5938 Q2462.7656,133.9375 2462.7656,130.8125 Q2462.7656,127.6875 2464.0781,126.0313 Q2465.4063,124.375 2467.9063,124.375 Q2468.6094,124.375 2469.25,124.5313 Q2469.9063,124.6875 2470.4688,124.9844 L2470.4688,127.7031 Q2469.8438,127.125 2469.25,126.8594 Q2468.6563,126.5781 2468.0313,126.5781 Q2466.6875,126.5781 2466,127.6563 Q2465.3125,128.7188 2465.3125,130.8125 Q2465.3125,132.9063 2466,133.9844 Q2466.6875,135.0469 2468.0313,135.0469 Q2468.6563,135.0469 2469.25,134.7813 Q2469.8438,134.5 2470.4688,133.9219 L2470.4688,136.6406 Z " fill="#000000"/><text fill="#000000" font-family="sans-serif" font-size="14" lengthAdjust="spacing" textLength="67.0332" x="2481.5" y="135.8467">Actuation</text><line style="stroke:#181818;stroke-width:0.5;" x1="2453.5" x2="2550.5332" y1="147" y2="147"/><line style="stroke:#181818;stroke-width:0.5;" x1="2453.5" x2="2550.5332" y1="155" y2="155"/></g><!--class Sensor--><g class="entity" data-qualified-name="Sensor" data-source-line="16" id="ent0037"><rect fill="#F1F1F1" height="48" rx="2.5" ry="2.5" style="stroke:#181818;stroke-width:0.5;" width="79.9883" x="2323" y="223"/><ellipse cx="2338" cy="239" fill="#ADD1B2" rx="11" ry="11" style="stroke:#181818;stroke-width:1;"/><path d="M2340.9688,244.6406 Q2340.3906,244.9375 2339.75,245.0781 Q2339.1094,245.2344 2338.4063,245.2344 Q2335.9063,245.2344 2334.5781,243.5938 Q2333.2656,241.9375 2333.2656,238.8125 Q2333.2656,235.6875 2334.5781,234.0313 Q2335.9063,232.375 2338.4063,232.375 Q2339.1094,232.375 2339.75,232.5313 Q2340.4063,232.6875 2340.9688,232.9844 L2340.9688,235.7031 Q2340.3438,235.125 2339.75,234.8594 Q2339.1563,234.5781 2338.5313,234.5781 Q2337.1875,234.5781 2336.5,235.6563 Q2335.8125,236.7188 2335.8125,238.8125 Q2335.8125,240.9063 2336.5,241.9844 Q2337.1875,243.0469 2338.5313,243.0469 Q2339.1563,243.0469 2339.75,242.7813 Q2340.3438,242.5 2340.9688,241.9219 L2340.9688,244.6406 Z " fill="#000000"/><text fill="#000000" font-family="sans-serif" font-size="14" lengthAdjust="spacing" textLength="47.9883" x="2352" y="243.8467">Sensor</text><line style="stroke:#181818;stroke-width:0.5;" x1="2324" x2="2401.9883" y1="255" y2="255"/><line style="stroke:#181818;stroke-width:0.5;" x1="2324" x2="2401.9883" y1="263" y2="263"/></g><!--class ActuationCollection--><g class="entity" data-qualified-name="ActuationCollection" data-source-line="17" id="ent0039"><rect fill="#F1F1F1" height="48" rx="2.5" ry="2.5" style="stroke:#181818;stroke-width:0.5;" width="168.2813" x="2940" y="115"/><ellipse cx="2955" cy="131" fill="#ADD1B2" rx="11" ry="11" style="stroke:#181818;stroke-width:1;"/><path d="M2957.9688,136.6406 Q2957.3906,136.9375 2956.75,137.0781 Q2956.1094,137.2344 2955.4063,137.2344 Q2952.9063,137.2344 2951.5781,135.5938 Q2950.2656,133.9375 2950.2656,130.8125 Q2950.2656,127.6875 2951.5781,126.0313 Q2952.9063,124.375 2955.4063,124.375 Q2956.1094,124.375 2956.75,124.5313 Q2957.4063,124.6875 2957.9688,124.9844 L2957.9688,127.7031 Q2957.3438,127.125 2956.75,126.8594 Q2956.1563,126.5781 2955.5313,126.5781 Q2954.1875,126.5781 2953.5,127.6563 Q2952.8125,128.7188 2952.8125,130.8125 Q2952.8125,132.9063 2953.5,133.9844 Q2954.1875,135.0469 2955.5313,135.0469 Q2956.1563,135.0469 2956.75,134.7813 Q2957.3438,134.5 2957.9688,133.9219 L2957.9688,136.6406 Z " fill="#000000"/><text fill="#000000" font-family="sans-serif" font-size="14" lengthAdjust="spacing" textLength="136.2813" x="2969" y="135.8467">ActuationCollection</text><line style="stroke:#181818;stroke-width:0.5;" x1="2941" x2="3107.2813" y1="147" y2="147"/><line style="stroke:#181818;stroke-width:0.5;" x1="2941" x2="3107.2813" y1="155" y2="155"/></g><!--class ObservationCollection--><g class="entity" data-qualified-name="ObservationCollection" data-source-line="18" id="ent0041"><rect fill="#F1F1F1" height="48" rx="2.5" ry="2.5" style="stroke:#181818;stroke-width:0.5;" width="186.499" x="3143" y="115"/><ellipse cx="3158" cy="131" fill="#ADD1B2" rx="11" ry="11" style="stroke:#181818;stroke-width:1;"/><path d="M3160.9688,136.6406 Q3160.3906,136.9375 3159.75,137.0781 Q3159.1094,137.2344 3158.4063,137.2344 Q3155.9063,137.2344 3154.5781,135.5938 Q3153.2656,133.9375 3153.2656,130.8125 Q3153.2656,127.6875 3154.5781,126.0313 Q3155.9063,124.375 3158.4063,124.375 Q3159.1094,124.375 3159.75,124.5313 Q3160.4063,124.6875 3160.9688,124.9844 L3160.9688,127.7031 Q3160.3438,127.125 3159.75,126.8594 Q3159.1563,126.5781 3158.5313,126.5781 Q3157.1875,126.5781 3156.5,127.6563 Q3155.8125,128.7188 3155.8125,130.8125 Q3155.8125,132.9063 3156.5,133.9844 Q3157.1875,135.0469 3158.5313,135.0469 Q3159.1563,135.0469 3159.75,134.7813 Q3160.3438,134.5 3160.9688,133.9219 L3160.9688,136.6406 Z " fill="#000000"/><text fill="#000000" font-family="sans-serif" font-size="14" lengthAdjust="spacing" textLength="154.499" x="3172" y="135.8467">ObservationCollection</text><line style="stroke:#181818;stroke-width:0.5;" x1="3144" x2="3328.499" y1="147" y2="147"/><line style="stroke:#181818;stroke-width:0.5;" x1="3144" x2="3328.499" y1="155" y2="155"/></g><!--class Observation--><g class="entity" data-qualified-name="Observation" data-source-line="19" id="ent0043"><rect fill="#F1F1F1" height="48" rx="2.5" ry="2.5" style="stroke:#181818;stroke-width:0.5;" width="117.251" x="2586.5" y="115"/><ellipse cx="2601.5" cy="131" fill="#ADD1B2" rx="11" ry="11" style="stroke:#181818;stroke-width:1;"/><path d="M2604.4688,136.6406 Q2603.8906,136.9375 2603.25,137.0781 Q2602.6094,137.2344 2601.9063,137.2344 Q2599.4063,137.2344 2598.0781,135.5938 Q2596.7656,133.9375 2596.7656,130.8125 Q2596.7656,127.6875 2598.0781,126.0313 Q2599.4063,124.375 2601.9063,124.375 Q2602.6094,124.375 2603.25,124.5313 Q2603.9063,124.6875 2604.4688,124.9844 L2604.4688,127.7031 Q2603.8438,127.125 2603.25,126.8594 Q2602.6563,126.5781 2602.0313,126.5781 Q2600.6875,126.5781 2600,127.6563 Q2599.3125,128.7188 2599.3125,130.8125 Q2599.3125,132.9063 2600,133.9844 Q2600.6875,135.0469 2602.0313,135.0469 Q2602.6563,135.0469 2603.25,134.7813 Q2603.8438,134.5 2604.4688,133.9219 L2604.4688,136.6406 Z " fill="#000000"/><text fill="#000000" font-family="sans-serif" font-size="14" lengthAdjust="spacing" textLength="85.251" x="2615.5" y="135.8467">Observation</text><line style="stroke:#181818;stroke-width:0.5;" x1="2587.5" x2="2702.751" y1="147" y2="147"/><line style="stroke:#181818;stroke-width:0.5;" x1="2587.5" x2="2702.751" y1="155" y2="155"/></g><!--class FeatureOfInterest--><g class="entity" data-qualified-name="FeatureOfInterest" data-source-line="20" id="ent0045"><rect fill="#F1F1F1" height="48" rx="2.5" ry="2.5" style="stroke:#181818;stroke-width:0.5;" width="156.1816" x="7" y="7"/><ellipse cx="22" cy="23" fill="#ADD1B2" rx="11" ry="11" style="stroke:#181818;stroke-width:1;"/><path d="M24.9688,28.6406 Q24.3906,28.9375 23.75,29.0781 Q23.1094,29.2344 22.4063,29.2344 Q19.9063,29.2344 18.5781,27.5938 Q17.2656,25.9375 17.2656,22.8125 Q17.2656,19.6875 18.5781,18.0313 Q19.9063,16.375 22.4063,16.375 Q23.1094,16.375 23.75,16.5313 Q24.4063,16.6875 24.9688,16.9844 L24.9688,19.7031 Q24.3438,19.125 23.75,18.8594 Q23.1563,18.5781 22.5313,18.5781 Q21.1875,18.5781 20.5,19.6563 Q19.8125,20.7188 19.8125,22.8125 Q19.8125,24.9063 20.5,25.9844 Q21.1875,27.0469 22.5313,27.0469 Q23.1563,27.0469 23.75,26.7813 Q24.3438,26.5 24.9688,25.9219 L24.9688,28.6406 Z " fill="#000000"/><text fill="#000000" font-family="sans-serif" font-size="14" lengthAdjust="spacing" textLength="124.1816" x="36" y="27.8467">FeatureOfInterest</text><line style="stroke:#181818;stroke-width:0.5;" x1="8" x2="162.1816" y1="39" y2="39"/><line style="stroke:#181818;stroke-width:0.5;" x1="8" x2="162.1816" y1="47" y2="47"/></g><!--class Output--><g class="entity" data-qualified-name="Output" data-source-line="21" id="ent0046"><rect fill="#F1F1F1" height="48" rx="2.5" ry="2.5" style="stroke:#181818;stroke-width:0.5;" width="80.6309" x="198.5" y="7"/><ellipse cx="213.5" cy="23" fill="#ADD1B2" rx="11" ry="11" style="stroke:#181818;stroke-width:1;"/><path d="M216.4688,28.6406 Q215.8906,28.9375 215.25,29.0781 Q214.6094,29.2344 213.9063,29.2344 Q211.4063,29.2344 210.0781,27.5938 Q208.7656,25.9375 208.7656,22.8125 Q208.7656,19.6875 210.0781,18.0313 Q211.4063,16.375 213.9063,16.375 Q214.6094,16.375 215.25,16.5313 Q215.9063,16.6875 216.4688,16.9844 L216.4688,19.7031 Q215.8438,19.125 215.25,18.8594 Q214.6563,18.5781 214.0313,18.5781 Q212.6875,18.5781 212,19.6563 Q211.3125,20.7188 211.3125,22.8125 Q211.3125,24.9063 212,25.9844 Q212.6875,27.0469 214.0313,27.0469 Q214.6563,27.0469 215.25,26.7813 Q215.8438,26.5 216.4688,25.9219 L216.4688,28.6406 Z " fill="#000000"/><text fill="#000000" font-family="sans-serif" font-size="14" lengthAdjust="spacing" textLength="48.6309" x="227.5" y="27.8467">Output</text><line style="stroke:#181818;stroke-width:0.5;" x1="199.5" x2="278.1309" y1="39" y2="39"/><line style="stroke:#181818;stroke-width:0.5;" x1="199.5" x2="278.1309" y1="47" y2="47"/></g><!--class Result--><g class="entity" data-qualified-name="Result" data-source-line="22" id="ent0047"><rect fill="#F1F1F1" height="48" rx="2.5" ry="2.5" style="stroke:#181818;stroke-width:0.5;" width="75.8867" x="315" y="7"/><ellipse cx="330" cy="23" fill="#ADD1B2" rx="11" ry="11" style="stroke:#181818;stroke-width:1;"/><path d="M332.9688,28.6406 Q332.3906,28.9375 331.75,29.0781 Q331.1094,29.2344 330.4063,29.2344 Q327.9063,29.2344 326.5781,27.5938 Q325.2656,25.9375 325.2656,22.8125 Q325.2656,19.6875 326.5781,18.0313 Q327.9063,16.375 330.4063,16.375 Q331.1094,16.375 331.75,16.5313 Q332.4063,16.6875 332.9688,16.9844 L332.9688,19.7031 Q332.3438,19.125 331.75,18.8594 Q331.1563,18.5781 330.5313,18.5781 Q329.1875,18.5781 328.5,19.6563 Q327.8125,20.7188 327.8125,22.8125 Q327.8125,24.9063 328.5,25.9844 Q329.1875,27.0469 330.5313,27.0469 Q331.1563,27.0469 331.75,26.7813 Q332.3438,26.5 332.9688,25.9219 L332.9688,28.6406 Z " fill="#000000"/><text fill="#000000" font-family="sans-serif" font-size="14" lengthAdjust="spacing" textLength="43.8867" x="344" y="27.8467">Result</text><line style="stroke:#181818;stroke-width:0.5;" x1="316" x2="389.8867" y1="39" y2="39"/><line style="stroke:#181818;stroke-width:0.5;" x1="316" x2="389.8867" y1="47" y2="47"/></g><!--class Stimulus--><g class="entity" data-qualified-name="Stimulus" data-source-line="23" id="ent0048"><rect fill="#F1F1F1" height="48" rx="2.5" ry="2.5" style="stroke:#181818;stroke-width:0.5;" width="92.833" x="38.5" y="115"/><ellipse cx="53.5" cy="131" fill="#ADD1B2" rx="11" ry="11" style="stroke:#181818;stroke-width:1;"/><path d="M56.4688,136.6406 Q55.8906,136.9375 55.25,137.0781 Q54.6094,137.2344 53.9063,137.2344 Q51.4063,137.2344 50.0781,135.5938 Q48.7656,133.9375 48.7656,130.8125 Q48.7656,127.6875 50.0781,126.0313 Q51.4063,124.375 53.9063,124.375 Q54.6094,124.375 55.25,124.5313 Q55.9063,124.6875 56.4688,124.9844 L56.4688,127.7031 Q55.8438,127.125 55.25,126.8594 Q54.6563,126.5781 54.0313,126.5781 Q52.6875,126.5781 52,127.6563 Q51.3125,128.7188 51.3125,130.8125 Q51.3125,132.9063 52,133.9844 Q52.6875,135.0469 54.0313,135.0469 Q54.6563,135.0469 55.25,134.7813 Q55.8438,134.5 56.4688,133.9219 L56.4688,136.6406 Z " fill="#000000"/><text fill="#000000" font-family="sans-serif" font-size="14" lengthAdjust="spacing" textLength="60.833" x="67.5" y="135.8467">Stimulus</text><line style="stroke:#181818;stroke-width:0.5;" x1="39.5" x2="130.333" y1="147" y2="147"/><line style="stroke:#181818;stroke-width:0.5;" x1="39.5" x2="130.333" y1="155" y2="155"/></g><!--class Deployment--><g class="entity" data-qualified-name="Deployment" data-source-line="24" id="ent0049"><rect fill="#F1F1F1" height="48" rx="2.5" ry="2.5" style="stroke:#181818;stroke-width:0.5;" width="117.6338" x="167" y="115"/><ellipse cx="182" cy="131" fill="#ADD1B2" rx="11" ry="11" style="stroke:#181818;stroke-width:1;"/><path d="M184.9688,136.6406 Q184.3906,136.9375 183.75,137.0781 Q183.1094,137.2344 182.4063,137.2344 Q179.9063,137.2344 178.5781,135.5938 Q177.2656,133.9375 177.2656,130.8125 Q177.2656,127.6875 178.5781,126.0313 Q179.9063,124.375 182.4063,124.375 Q183.1094,124.375 183.75,124.5313 Q184.4063,124.6875 184.9688,124.9844 L184.9688,127.7031 Q184.3438,127.125 183.75,126.8594 Q183.1563,126.5781 182.5313,126.5781 Q181.1875,126.5781 180.5,127.6563 Q179.8125,128.7188 179.8125,130.8125 Q179.8125,132.9063 180.5,133.9844 Q181.1875,135.0469 182.5313,135.0469 Q183.1563,135.0469 183.75,134.7813 Q184.3438,134.5 184.9688,133.9219 L184.9688,136.6406 Z " fill="#000000"/><text fill="#000000" font-family="sans-serif" font-size="14" lengthAdjust="spacing" textLength="85.6338" x="196" y="135.8467">Deployment</text><line style="stroke:#181818;stroke-width:0.5;" x1="168" x2="283.6338" y1="147" y2="147"/><line style="stroke:#181818;stroke-width:0.5;" x1="168" x2="283.6338" y1="155" y2="155"/></g><!--class SampleCollection--><g class="entity" data-qualified-name="SampleCollection" data-source-line="25" id="ent0050"><rect fill="#F1F1F1" height="48" rx="2.5" ry="2.5" style="stroke:#181818;stroke-width:0.5;" width="153.7412" x="320" y="115"/><ellipse cx="335" cy="131" fill="#ADD1B2" rx="11" ry="11" style="stroke:#181818;stroke-width:1;"/><path d="M337.9688,136.6406 Q337.3906,136.9375 336.75,137.0781 Q336.1094,137.2344 335.4063,137.2344 Q332.9063,137.2344 331.5781,135.5938 Q330.2656,133.9375 330.2656,130.8125 Q330.2656,127.6875 331.5781,126.0313 Q332.9063,124.375 335.4063,124.375 Q336.1094,124.375 336.75,124.5313 Q337.4063,124.6875 337.9688,124.9844 L337.9688,127.7031 Q337.3438,127.125 336.75,126.8594 Q336.1563,126.5781 335.5313,126.5781 Q334.1875,126.5781 333.5,127.6563 Q332.8125,128.7188 332.8125,130.8125 Q332.8125,132.9063 333.5,133.9844 Q334.1875,135.0469 335.5313,135.0469 Q336.1563,135.0469 336.75,134.7813 Q337.3438,134.5 337.9688,133.9219 L337.9688,136.6406 Z " fill="#000000"/><text fill="#000000" font-family="sans-serif" font-size="14" lengthAdjust="spacing" textLength="121.7412" x="349" y="135.8467">SampleCollection</text><line style="stroke:#181818;stroke-width:0.5;" x1="321" x2="472.7412" y1="147" y2="147"/><line style="stroke:#181818;stroke-width:0.5;" x1="321" x2="472.7412" y1="155" y2="155"/></g><!--class Input--><g class="entity" data-qualified-name="Input" data-source-line="27" id="ent0051"><rect fill="#F1F1F1" height="48" rx="2.5" ry="2.5" style="stroke:#181818;stroke-width:0.5;" width="68.251" x="51" y="223"/><ellipse cx="66" cy="239" fill="#ADD1B2" rx="11" ry="11" style="stroke:#181818;stroke-width:1;"/><path d="M68.9688,244.6406 Q68.3906,244.9375 67.75,245.0781 Q67.1094,245.2344 66.4063,245.2344 Q63.9063,245.2344 62.5781,243.5938 Q61.2656,241.9375 61.2656,238.8125 Q61.2656,235.6875 62.5781,234.0313 Q63.9063,232.375 66.4063,232.375 Q67.1094,232.375 67.75,232.5313 Q68.4063,232.6875 68.9688,232.9844 L68.9688,235.7031 Q68.3438,235.125 67.75,234.8594 Q67.1563,234.5781 66.5313,234.5781 Q65.1875,234.5781 64.5,235.6563 Q63.8125,236.7188 63.8125,238.8125 Q63.8125,240.9063 64.5,241.9844 Q65.1875,243.0469 66.5313,243.0469 Q67.1563,243.0469 67.75,242.7813 Q68.3438,242.5 68.9688,241.9219 L68.9688,244.6406 Z " fill="#000000"/><text fill="#000000" font-family="sans-serif" font-size="14" lengthAdjust="spacing" textLength="36.251" x="80" y="243.8467">Input</text><line style="stroke:#181818;stroke-width:0.5;" x1="52" x2="118.251" y1="255" y2="255"/><line style="stroke:#181818;stroke-width:0.5;" x1="52" x2="118.251" y1="263" y2="263"/></g><!--reverse link Property to ActuatableProperty--><g class="link" data-entity-1="ent0001" data-entity-2="ent0002" data-link-type="extension" data-source-line="1" id="lnk3"><path codeLine="1" d="M660.3905,67.9716 C643.4005,85.6316 632.51,96.94 615.44,114.68" fill="none" id="Property-backto-ActuatableProperty" style="stroke:#181818;stroke-width:1;"/><polygon fill="none" points="672.87,55,656.0667,63.8118,664.7144,72.1314,672.87,55" style="stroke:#181818;stroke-width:1;stroke-linejoin:miter;stroke-miterlimit:10;"/></g><!--reverse link Sample to MaterialSample--><g class="link" data-entity-1="ent0004" data-entity-2="ent0005" data-link-type="extension" data-source-line="2" id="lnk6"><path codeLine="2" d="M1109.3567,64.4445 C1080.6067,82.1645 1056.35,97.11 1027.55,114.86" fill="none" id="Sample-backto-MaterialSample" style="stroke:#181818;stroke-width:1;"/><polygon fill="none" points="1124.68,55,1106.2086,59.3367,1112.5049,69.5522,1124.68,55" style="stroke:#181818;stroke-width:1;stroke-linejoin:miter;stroke-miterlimit:10;"/></g><!--reverse link Sample to SpatialSample--><g class="link" data-entity-1="ent0004" data-entity-2="ent0007" data-link-type="extension" data-source-line="3" id="lnk8"><path codeLine="3" d="M1162,73 C1162,90.66 1162,96.94 1162,114.68" fill="none" id="Sample-backto-SpatialSample" style="stroke:#181818;stroke-width:1;"/><polygon fill="none" points="1162,55,1156,73,1168,73,1162,55" style="stroke:#181818;stroke-width:1;stroke-linejoin:miter;stroke-miterlimit:10;"/></g><!--reverse link Sample to StatisticalSample--><g class="link" data-entity-1="ent0004" data-entity-2="ent0009" data-link-type="extension" data-source-line="4" id="lnk10"><path codeLine="4" d="M1216.3276,64.1725 C1246.2476,81.8925 1271.95,97.11 1301.93,114.86" fill="none" id="Sample-backto-StatisticalSample" style="stroke:#181818;stroke-width:1;"/><polygon fill="none" points="1200.84,55,1213.2701,69.335,1219.3851,59.0099,1200.84,55" style="stroke:#181818;stroke-width:1;stroke-linejoin:miter;stroke-miterlimit:10;"/></g><!--reverse link Property to ObservableProperty--><g class="link" data-entity-1="ent0001" data-entity-2="ent0011" data-link-type="extension" data-source-line="5" id="lnk12"><path codeLine="5" d="M729.8939,67.9094 C747.0539,85.5694 758.1,96.94 775.34,114.68" fill="none" id="Property-backto-ObservableProperty" style="stroke:#181818;stroke-width:1;"/><polygon fill="none" points="717.35,55,725.5907,72.0906,734.197,63.7281,717.35,55" style="stroke:#181818;stroke-width:1;stroke-linejoin:miter;stroke-miterlimit:10;"/></g><!--reverse link Procedure to ActuatingProcedure--><g class="link" data-entity-1="ent0013" data-entity-2="ent0014" data-link-type="extension" data-source-line="6" id="lnk15"><path codeLine="6" d="M1685.8326,63.1732 C1651.0626,80.8932 1619.24,97.11 1584.4,114.86" fill="none" id="Procedure-backto-ActuatingProcedure" style="stroke:#181818;stroke-width:1;"/><polygon fill="none" points="1701.87,55,1683.1082,57.8274,1688.557,68.519,1701.87,55" style="stroke:#181818;stroke-width:1;stroke-linejoin:miter;stroke-miterlimit:10;"/></g><!--reverse link Procedure to ObservingProcedure--><g class="link" data-entity-1="ent0013" data-entity-2="ent0016" data-link-type="extension" data-source-line="7" id="lnk17"><path codeLine="7" d="M1747,73 C1747,90.66 1747,96.94 1747,114.68" fill="none" id="Procedure-backto-ObservingProcedure" style="stroke:#181818;stroke-width:1;"/><polygon fill="none" points="1747,55,1741,73,1753,73,1747,55" style="stroke:#181818;stroke-width:1;stroke-linejoin:miter;stroke-miterlimit:10;"/></g><!--reverse link Procedure to SamplingProcedure--><g class="link" data-entity-1="ent0013" data-entity-2="ent0018" data-link-type="extension" data-source-line="8" id="lnk19"><path codeLine="8" d="M1807.9411,63.205 C1842.5411,80.925 1874.15,97.11 1908.81,114.86" fill="none" id="Procedure-backto-SamplingProcedure" style="stroke:#181818;stroke-width:1;"/><polygon fill="none" points="1791.92,55,1805.2061,68.5454,1810.6762,57.8647,1791.92,55" style="stroke:#181818;stroke-width:1;stroke-linejoin:miter;stroke-miterlimit:10;"/></g><!--reverse link Asset to Platform--><g class="link" data-entity-1="ent0020" data-entity-2="ent0021" data-link-type="extension" data-source-line="9" id="lnk22"><path codeLine="9" d="M2157.7839,70.6022 C2147.6239,88.2622 2142.63,96.94 2132.42,114.68" fill="none" id="Asset-backto-Platform" style="stroke:#181818;stroke-width:1;"/><polygon fill="none" points="2166.76,55,2152.5831,67.6102,2162.9846,73.5943,2166.76,55" style="stroke:#181818;stroke-width:1;stroke-linejoin:miter;stroke-miterlimit:10;"/></g><!--reverse link System to Sampler--><g class="link" data-entity-1="ent0023" data-entity-2="ent0024" data-link-type="extension" data-source-line="10" id="lnk25"><path codeLine="10" d="M2200.8865,174.5884 C2179.8965,192.2484 2164.81,204.94 2143.72,222.68" fill="none" id="System-backto-Sampler" style="stroke:#181818;stroke-width:1;"/><polygon fill="none" points="2214.66,163,2197.0237,169.9972,2204.7493,179.1795,2214.66,163" style="stroke:#181818;stroke-width:1;stroke-linejoin:miter;stroke-miterlimit:10;"/></g><!--reverse link System to Actuator--><g class="link" data-entity-1="ent0023" data-entity-2="ent0026" data-link-type="extension" data-source-line="11" id="lnk27"><path codeLine="11" d="M2242,181 C2242,198.66 2242,204.94 2242,222.68" fill="none" id="System-backto-Actuator" style="stroke:#181818;stroke-width:1;"/><polygon fill="none" points="2242,163,2236,181,2248,181,2242,163" style="stroke:#181818;stroke-width:1;stroke-linejoin:miter;stroke-miterlimit:10;"/></g><!--reverse link Asset to System--><g class="link" data-entity-1="ent0020" data-entity-2="ent0023" data-link-type="extension" data-source-line="12" id="lnk28"><path codeLine="12" d="M2202.5383,70.5372 C2212.8683,88.1972 2217.98,96.94 2228.36,114.68" fill="none" id="Asset-backto-System" style="stroke:#181818;stroke-width:1;"/><polygon fill="none" points="2193.45,55,2197.3592,73.5666,2207.7173,67.5077,2193.45,55" style="stroke:#181818;stroke-width:1;stroke-linejoin:miter;stroke-miterlimit:10;"/></g><!--reverse link Execution to Sampling--><g class="link" data-entity-1="ent0029" data-entity-2="ent0030" data-link-type="extension" data-source-line="13" id="lnk31"><path codeLine="13" d="M2458.8041,66.1688 C2436.4841,83.8288 2419.91,96.94 2397.48,114.68" fill="none" id="Execution-backto-Sampling" style="stroke:#181818;stroke-width:1;"/><polygon fill="none" points="2472.92,55,2455.0812,61.4635,2462.527,70.8741,2472.92,55" style="stroke:#181818;stroke-width:1;stroke-linejoin:miter;stroke-miterlimit:10;"/></g><!--reverse link ExecutionCollection to SamplingCollection--><g class="link" data-entity-1="ent0032" data-entity-2="ent0033" data-link-type="extension" data-source-line="14" id="lnk34"><path codeLine="14" d="M2964.231,63.3636 C2930.461,81.0836 2899.93,97.11 2866.09,114.86" fill="none" id="ExecutionCollection-backto-SamplingCollection" style="stroke:#181818;stroke-width:1;"/><polygon fill="none" points="2980.17,55,2961.4432,58.0506,2967.0189,68.6766,2980.17,55" style="stroke:#181818;stroke-width:1;stroke-linejoin:miter;stroke-miterlimit:10;"/></g><!--reverse link Execution to Actuation--><g class="link" data-entity-1="ent0029" data-entity-2="ent0035" data-link-type="extension" data-source-line="15" id="lnk36"><path codeLine="15" d="M2502,73 C2502,90.66 2502,96.94 2502,114.68" fill="none" id="Execution-backto-Actuation" style="stroke:#181818;stroke-width:1;"/><polygon fill="none" points="2502,55,2496,73,2508,73,2502,55" style="stroke:#181818;stroke-width:1;stroke-linejoin:miter;stroke-miterlimit:10;"/></g><!--reverse link System to Sensor--><g class="link" data-entity-1="ent0023" data-entity-2="ent0037" data-link-type="extension" data-source-line="16" id="lnk38"><path codeLine="16" d="M2281.7968,174.864 C2301.9468,192.524 2316.13,204.94 2336.38,222.68" fill="none" id="System-backto-Sensor" style="stroke:#181818;stroke-width:1;"/><polygon fill="none" points="2268.26,163,2277.8421,179.3763,2285.7515,170.3518,2268.26,163" style="stroke:#181818;stroke-width:1;stroke-linejoin:miter;stroke-miterlimit:10;"/></g><!--reverse link ExecutionCollection to ActuationCollection--><g class="link" data-entity-1="ent0032" data-entity-2="ent0039" data-link-type="extension" data-source-line="17" id="lnk40"><path codeLine="17" d="M3024,73 C3024,90.66 3024,96.94 3024,114.68" fill="none" id="ExecutionCollection-backto-ActuationCollection" style="stroke:#181818;stroke-width:1;"/><polygon fill="none" points="3024,55,3018,73,3030,73,3024,55" style="stroke:#181818;stroke-width:1;stroke-linejoin:miter;stroke-miterlimit:10;"/></g><!--reverse link ExecutionCollection to ObservationCollection--><g class="link" data-entity-1="ent0032" data-entity-2="ent0041" data-link-type="extension" data-source-line="18" id="lnk42"><path codeLine="18" d="M3086.0997,63.0498 C3121.5397,80.7698 3154.22,97.11 3189.72,114.86" fill="none" id="ExecutionCollection-backto-ObservationCollection" style="stroke:#181818;stroke-width:1;"/><polygon fill="none" points="3070,55,3083.4164,68.4164,3088.783,57.6833,3070,55" style="stroke:#181818;stroke-width:1;stroke-linejoin:miter;stroke-miterlimit:10;"/></g><!--reverse link Execution to Observation--><g class="link" data-entity-1="ent0029" data-entity-2="ent0043" data-link-type="extension" data-source-line="19" id="lnk44"><path codeLine="19" d="M2547.4895,65.7202 C2571.3095,83.3802 2589.61,96.94 2613.54,114.68" fill="none" id="Execution-backto-Observation" style="stroke:#181818;stroke-width:1;"/><polygon fill="none" points="2533.03,55,2543.9161,70.54,2551.0629,60.9004,2533.03,55" style="stroke:#181818;stroke-width:1;stroke-linejoin:miter;stroke-miterlimit:10;"/></g><?plantuml-src XL99RiCm3Bpx5Vv0Vj1Bq0N8eR1Hlu1HcK80jK2aYXheuoj4YcmvTNiJPuR34S4nE8z1vlxX-t3eZqeY29m9nu9t4nXFcEbN40mQA6CDDNcG7KOImw9LPSTcvd1c39_DpFHG-1u3hbDf-r7nhI9x_AMuZcu4HsQKJ8u4Sd71TDFCWcRLWQ71SX8NrisPxvw_K4NHphRp5lpH4Q6wLopurgFyEn5DBhIS4kpwrgxVZBVYilmz-PseKmJC_Gk2f1qEbvDD5u4i1H-Y-7Whtf0ZtOf9j8aKkPHFwCdD1ctbhzjUPIXmNcukJdOnhxVoZ_qF?></g></svg>