<svg xmlns="http://www.w3.org/2000/svg" xmlns:xlink="http://www.w3.org/1999/xlink" contentStyleType="text/css" data-diagram-type="CLASS" height="286px" preserveAspectRatio="none" style="width:3255px;height:286px;background:#FFFFFF;" version="1.1" viewBox="0 0 3255 286" width="3255px" zoomAndPan="magnify"><?plantuml 1.2026.5?><defs/><g><!--class Property--><g class="entity" data-qualified-name="Property" data-source-line="1" id="ent0001"><rect fill="#F1F1F1" height="48" rx="2.5" ry="2.5" style="stroke:#181818;stroke-width:0.5;" width="91.7939" x="570.5" y="7"/><ellipse cx="585.5" cy="23" fill="#ADD1B2" rx="11" ry="11" style="stroke:#181818;stroke-width:1;"/><path d="M588.4688,28.6406 Q587.8906,28.9375 587.25,29.0781 Q586.6094,29.2344 585.9063,29.2344 Q583.4063,29.2344 582.0781,27.5938 Q580.7656,25.9375 580.7656,22.8125 Q580.7656,19.6875 582.0781,18.0313 Q583.4063,16.375 585.9063,16.375 Q586.6094,16.375 587.25,16.5313 Q587.9063,16.6875 588.4688,16.9844 L588.4688,19.7031 Q587.8438,19.125 587.25,18.8594 Q586.6563,18.5781 586.0313,18.5781 Q584.6875,18.5781 584,19.6563 Q583.3125,20.7188 583.3125,22.8125 Q583.3125,24.9063 584,25.9844 Q584.6875,27.0469 586.0313,27.0469 Q586.6563,27.0469 587.25,26.7813 Q587.8438,26.5 588.4688,25.9219 L588.4688,28.6406 Z " fill="#000000"/><text fill="#000000" font-family="sans-serif" font-size="14" lengthAdjust="spacing" textLength="59.7939" x="599.5" y="27.8467">Property</text><line style="stroke:#181818;stroke-width:0.5;" x1="571.5" x2="661.2939" y1="39" y2="39"/><line style="stroke:#181818;stroke-width:0.5;" x1="571.5" x2="661.2939" y1="47" y2="47"/></g><!--class ActuatableProperty--><g class="entity" data-qualified-name="ActuatableProperty" data-source-line="1" id="ent0002"><rect fill="#F1F1F1" height="48" rx="2.5" ry="2.5" style="stroke:#181818;stroke-width:0.5;" width="167.4678" x="421" y="115"/><ellipse cx="436" cy="131" fill="#ADD1B2" rx="11" ry="11" style="stroke:#181818;stroke-width:1;"/><path d="M438.9688,136.6406 Q438.3906,136.9375 437.75,137.0781 Q437.1094,137.2344 436.4063,137.2344 Q433.9063,137.2344 432.5781,135.5938 Q431.2656,133.9375 431.2656,130.8125 Q431.2656,127.6875 432.5781,126.0313 Q433.9063,124.375 436.4063,124.375 Q437.1094,124.375 437.75,124.5313 Q438.4063,124.6875 438.9688,124.9844 L438.9688,127.7031 Q438.3438,127.125 437.75,126.8594 Q437.1563,126.5781 436.5313,126.5781 Q435.1875,126.5781 434.5,127.6563 Q433.8125,128.7188 433.8125,130.8125 Q433.8125,132.9063 434.5,133.9844 Q435.1875,135.0469 436.5313,135.0469 Q437.1563,135.0469 437.75,134.7813 Q438.3438,134.5 438.9688,133.9219 L438.9688,136.6406 Z " fill="#000000"/><text fill="#000000" font-family="sans-serif" font-size="14" lengthAdjust="spacing" textLength="135.4678" x="450" y="135.8467">ActuatableProperty</text><line style="stroke:#181818;stroke-width:0.5;" x1="422" x2="587.4678" y1="147" y2="147"/><line style="stroke:#181818;stroke-width:0.5;" x1="422" x2="587.4678" y1="155" y2="155"/></g><!--class Sample--><g class="entity" data-qualified-name="Sample" data-source-line="2" id="ent0004"><rect fill="#F1F1F1" height="48" rx="2.5" ry="2.5" style="stroke:#181818;stroke-width:0.5;" width="84.4932" x="1031.5" y="7"/><ellipse cx="1046.5" cy="23" fill="#ADD1B2" rx="11" ry="11" style="stroke:#181818;stroke-width:1;"/><path d="M1049.4688,28.6406 Q1048.8906,28.9375 1048.25,29.0781 Q1047.6094,29.2344 1046.9063,29.2344 Q1044.4063,29.2344 1043.0781,27.5938 Q1041.7656,25.9375 1041.7656,22.8125 Q1041.7656,19.6875 1043.0781,18.0313 Q1044.4063,16.375 1046.9063,16.375 Q1047.6094,16.375 1048.25,16.5313 Q1048.9063,16.6875 1049.4688,16.9844 L1049.4688,19.7031 Q1048.8438,19.125 1048.25,18.8594 Q1047.6563,18.5781 1047.0313,18.5781 Q1045.6875,18.5781 1045,19.6563 Q1044.3125,20.7188 1044.3125,22.8125 Q1044.3125,24.9063 1045,25.9844 Q1045.6875,27.0469 1047.0313,27.0469 Q1047.6563,27.0469 1048.25,26.7813 Q1048.8438,26.5 1049.4688,25.9219 L1049.4688,28.6406 Z " fill="#000000"/><text fill="#000000" font-family="sans-serif" font-size="14" lengthAdjust="spacing" textLength="52.4932" x="1060.5" y="27.8467">Sample</text><line style="stroke:#181818;stroke-width:0.5;" x1="1032.5" x2="1114.9932" y1="39" y2="39"/><line style="stroke:#181818;stroke-width:0.5;" x1="1032.5" x2="1114.9932" y1="47" y2="47"/></g><!--class MaterialSample--><g class="entity" data-qualified-name="MaterialSample" data-source-line="2" id="ent0005"><rect fill="#F1F1F1" height="48" rx="2.5" ry="2.5" style="stroke:#181818;stroke-width:0.5;" width="141.3682" x="831" y="115"/><ellipse cx="846" cy="131" fill="#ADD1B2" rx="11" ry="11" style="stroke:#181818;stroke-width:1;"/><path d="M848.9688,136.6406 Q848.3906,136.9375 847.75,137.0781 Q847.1094,137.2344 846.4063,137.2344 Q843.9063,137.2344 842.5781,135.5938 Q841.2656,133.9375 841.2656,130.8125 Q841.2656,127.6875 842.5781,126.0313 Q843.9063,124.375 846.4063,124.375 Q847.1094,124.375 847.75,124.5313 Q848.4063,124.6875 848.9688,124.9844 L848.9688,127.7031 Q848.3438,127.125 847.75,126.8594 Q847.1563,126.5781 846.5313,126.5781 Q845.1875,126.5781 844.5,127.6563 Q843.8125,128.7188 843.8125,130.8125 Q843.8125,132.9063 844.5,133.9844 Q845.1875,135.0469 846.5313,135.0469 Q847.1563,135.0469 847.75,134.7813 Q848.3438,134.5 848.9688,133.9219 L848.9688,136.6406 Z " fill="#000000"/><text fill="#000000" font-family="sans-serif" font-size="14" lengthAdjust="spacing" textLength="109.3682" x="860" y="135.8467">MaterialSample</text><line style="stroke:#181818;stroke-width:0.5;" x1="832" x2="971.3682" y1="147" y2="147"/><line style="stroke:#181818;stroke-width:0.5;" x1="832" x2="971.3682" y1="155" y2="155"/></g><!--class SpatialSample--><g class="entity" data-qualified-name="SpatialSample" data-source-line="3" id="ent0007"><rect fill="#F1F1F1" height="48" rx="2.5" ry="2.5" style="stroke:#181818;stroke-width:0.5;" width="132.6934" x="1007" y="115"/><ellipse cx="1022" cy="131" fill="#ADD1B2" rx="11" ry="11" style="stroke:#181818;stroke-width:1;"/><path d="M1024.9688,136.6406 Q1024.3906,136.9375 1023.75,137.0781 Q1023.1094,137.2344 1022.4063,137.2344 Q1019.9063,137.2344 1018.5781,135.5938 Q1017.2656,133.9375 1017.2656,130.8125 Q1017.2656,127.6875 1018.5781,126.0313 Q1019.9063,124.375 1022.4063,124.375 Q1023.1094,124.375 1023.75,124.5313 Q1024.4063,124.6875 1024.9688,124.9844 L1024.9688,127.7031 Q1024.3438,127.125 1023.75,126.8594 Q1023.1563,126.5781 1022.5313,126.5781 Q1021.1875,126.5781 1020.5,127.6563 Q1019.8125,128.7188 1019.8125,130.8125 Q1019.8125,132.9063 1020.5,133.9844 Q1021.1875,135.0469 1022.5313,135.0469 Q1023.1563,135.0469 1023.75,134.7813 Q1024.3438,134.5 1024.9688,133.9219 L1024.9688,136.6406 Z " fill="#000000"/><text fill="#000000" font-family="sans-serif" font-size="14" lengthAdjust="spacing" textLength="100.6934" x="1036" y="135.8467">SpatialSample</text><line style="stroke:#181818;stroke-width:0.5;" x1="1008" x2="1138.6934" y1="147" y2="147"/><line style="stroke:#181818;stroke-width:0.5;" x1="1008" x2="1138.6934" y1="155" y2="155"/></g><!--class StatisticalSample--><g class="entity" data-qualified-name="StatisticalSample" data-source-line="4" id="ent0009"><rect fill="#F1F1F1" height="48" rx="2.5" ry="2.5" style="stroke:#181818;stroke-width:0.5;" width="153.666" x="1175.5" y="115"/><ellipse cx="1190.5" cy="131" fill="#ADD1B2" rx="11" ry="11" style="stroke:#181818;stroke-width:1;"/><path d="M1193.4688,136.6406 Q1192.8906,136.9375 1192.25,137.0781 Q1191.6094,137.2344 1190.9063,137.2344 Q1188.4063,137.2344 1187.0781,135.5938 Q1185.7656,133.9375 1185.7656,130.8125 Q1185.7656,127.6875 1187.0781,126.0313 Q1188.4063,124.375 1190.9063,124.375 Q1191.6094,124.375 1192.25,124.5313 Q1192.9063,124.6875 1193.4688,124.9844 L1193.4688,127.7031 Q1192.8438,127.125 1192.25,126.8594 Q1191.6563,126.5781 1191.0313,126.5781 Q1189.6875,126.5781 1189,127.6563 Q1188.3125,128.7188 1188.3125,130.8125 Q1188.3125,132.9063 1189,133.9844 Q1189.6875,135.0469 1191.0313,135.0469 Q1191.6563,135.0469 1192.25,134.7813 Q1192.8438,134.5 1193.4688,133.9219 L1193.4688,136.6406 Z " fill="#000000"/><text fill="#000000" font-family="sans-serif" font-size="14" lengthAdjust="spacing" textLength="121.666" x="1204.5" y="135.8467">StatisticalSample</text><line style="stroke:#181818;stroke-width:0.5;" x1="1176.5" x2="1328.166" y1="147" y2="147"/><line style="stroke:#181818;stroke-width:0.5;" x1="1176.5" x2="1328.166" y1="155" y2="155"/></g><!--class ObservableProperty--><g class="entity" data-qualified-name="ObservableProperty" data-source-line="5" id="ent0011"><rect fill="#F1F1F1" height="48" rx="2.5" ry="2.5" style="stroke:#181818;stroke-width:0.5;" width="171.6172" x="623.5" y="115"/><ellipse cx="638.5" cy="131" fill="#ADD1B2" rx="11" ry="11" style="stroke:#181818;stroke-width:1;"/><path d="M641.4688,136.6406 Q640.8906,136.9375 640.25,137.0781 Q639.6094,137.2344 638.9063,137.2344 Q636.4063,137.2344 635.0781,135.5938 Q633.7656,133.9375 633.7656,130.8125 Q633.7656,127.6875 635.0781,126.0313 Q636.4063,124.375 638.9063,124.375 Q639.6094,124.375 640.25,124.5313 Q640.9063,124.6875 641.4688,124.9844 L641.4688,127.7031 Q640.8438,127.125 640.25,126.8594 Q639.6563,126.5781 639.0313,126.5781 Q637.6875,126.5781 637,127.6563 Q636.3125,128.7188 636.3125,130.8125 Q636.3125,132.9063 637,133.9844 Q637.6875,135.0469 639.0313,135.0469 Q639.6563,135.0469 640.25,134.7813 Q640.8438,134.5 641.4688,133.9219 L641.4688,136.6406 Z " fill="#000000"/><text fill="#000000" font-family="sans-serif" font-size="14" lengthAdjust="spacing" textLength="139.6172" x="652.5" y="135.8467">ObservableProperty</text><line style="stroke:#181818;stroke-width:0.5;" x1="624.5" x2="794.1172" y1="147" y2="147"/><line style="stroke:#181818;stroke-width:0.5;" x1="624.5" x2="794.1172" y1="155" y2="155"/></g><!--class Procedure--><g class="entity" data-qualified-name="Procedure" data-source-line="6" id="ent0013"><rect fill="#F1F1F1" height="48" rx="2.5" ry="2.5" style="stroke:#181818;stroke-width:0.5;" width="103.2031" x="1607" y="7"/><ellipse cx="1622" cy="23" fill="#ADD1B2" rx="11" ry="11" style="stroke:#181818;stroke-width:1;"/><path d="M1624.9688,28.6406 Q1624.3906,28.9375 1623.75,29.0781 Q1623.1094,29.2344 1622.4063,29.2344 Q1619.9063,29.2344 1618.5781,27.5938 Q1617.2656,25.9375 1617.2656,22.8125 Q1617.2656,19.6875 1618.5781,18.0313 Q1619.9063,16.375 1622.4063,16.375 Q1623.1094,16.375 1623.75,16.5313 Q1624.4063,16.6875 1624.9688,16.9844 L1624.9688,19.7031 Q1624.3438,19.125 1623.75,18.8594 Q1623.1563,18.5781 1622.5313,18.5781 Q1621.1875,18.5781 1620.5,19.6563 Q1619.8125,20.7188 1619.8125,22.8125 Q1619.8125,24.9063 1620.5,25.9844 Q1621.1875,27.0469 1622.5313,27.0469 Q1623.1563,27.0469 1623.75,26.7813 Q1624.3438,26.5 1624.9688,25.9219 L1624.9688,28.6406 Z " fill="#000000"/><text fill="#000000" font-family="sans-serif" font-size="14" lengthAdjust="spacing" textLength="71.2031" x="1636" y="27.8467">Procedure</text><line style="stroke:#181818;stroke-width:0.5;" x1="1608" x2="1709.2031" y1="39" y2="39"/><line style="stroke:#181818;stroke-width:0.5;" x1="1608" x2="1709.2031" y1="47" y2="47"/></g><!--class ActuatingProcedure--><g class="entity" data-qualified-name="ActuatingProcedure" data-source-line="6" id="ent0014"><rect fill="#F1F1F1" height="48" rx="2.5" ry="2.5" style="stroke:#181818;stroke-width:0.5;" width="170.5576" x="1365" y="115"/><ellipse cx="1380" cy="131" fill="#ADD1B2" rx="11" ry="11" style="stroke:#181818;stroke-width:1;"/><path d="M1382.9688,136.6406 Q1382.3906,136.9375 1381.75,137.0781 Q1381.1094,137.2344 1380.4063,137.2344 Q1377.9063,137.2344 1376.5781,135.5938 Q1375.2656,133.9375 1375.2656,130.8125 Q1375.2656,127.6875 1376.5781,126.0313 Q1377.9063,124.375 1380.4063,124.375 Q1381.1094,124.375 1381.75,124.5313 Q1382.4063,124.6875 1382.9688,124.9844 L1382.9688,127.7031 Q1382.3438,127.125 1381.75,126.8594 Q1381.1563,126.5781 1380.5313,126.5781 Q1379.1875,126.5781 1378.5,127.6563 Q1377.8125,128.7188 1377.8125,130.8125 Q1377.8125,132.9063 1378.5,133.9844 Q1379.1875,135.0469 1380.5313,135.0469 Q1381.1563,135.0469 1381.75,134.7813 Q1382.3438,134.5 1382.9688,133.9219 L1382.9688,136.6406 Z " fill="#000000"/><text fill="#000000" font-family="sans-serif" font-size="14" lengthAdjust="spacing" textLength="138.5576" x="1394" y="135.8467">ActuatingProcedure</text><line style="stroke:#181818;stroke-width:0.5;" x1="1366" x2="1534.5576" y1="147" y2="147"/><line style="stroke:#181818;stroke-width:0.5;" x1="1366" x2="1534.5576" y1="155" y2="155"/></g><!--class ObservingProcedure--><g class="entity" data-qualified-name="ObservingProcedure" data-source-line="7" id="ent0016"><rect fill="#F1F1F1" height="48" rx="2.5" ry="2.5" style="stroke:#181818;stroke-width:0.5;" width="174.707" x="1571" y="115"/><ellipse cx="1586" cy="131" fill="#ADD1B2" rx="11" ry="11" style="stroke:#181818;stroke-width:1;"/><path d="M1588.9688,136.6406 Q1588.3906,136.9375 1587.75,137.0781 Q1587.1094,137.2344 1586.4063,137.2344 Q1583.9063,137.2344 1582.5781,135.5938 Q1581.2656,133.9375 1581.2656,130.8125 Q1581.2656,127.6875 1582.5781,126.0313 Q1583.9063,124.375 1586.4063,124.375 Q1587.1094,124.375 1587.75,124.5313 Q1588.4063,124.6875 1588.9688,124.9844 L1588.9688,127.7031 Q1588.3438,127.125 1587.75,126.8594 Q1587.1563,126.5781 1586.5313,126.5781 Q1585.1875,126.5781 1584.5,127.6563 Q1583.8125,128.7188 1583.8125,130.8125 Q1583.8125,132.9063 1584.5,133.9844 Q1585.1875,135.0469 1586.5313,135.0469 Q1587.1563,135.0469 1587.75,134.7813 Q1588.3438,134.5 1588.9688,133.9219 L1588.9688,136.6406 Z " fill="#000000"/><text fill="#000000" font-family="sans-serif" font-size="14" lengthAdjust="spacing" textLength="142.707" x="1600" y="135.8467">ObservingProcedure</text><line style="stroke:#181818;stroke-width:0.5;" x1="1572" x2="1744.707" y1="147" y2="147"/><line style="stroke:#181818;stroke-width:0.5;" x1="1572" x2="1744.707" y1="155" y2="155"/></g><!--class SamplingProcedure--><g class="entity" data-qualified-name="SamplingProcedure" data-source-line="8" id="ent0018"><rect fill="#F1F1F1" height="48" rx="2.5" ry="2.5" style="stroke:#181818;stroke-width:0.5;" width="168.7324" x="1781" y="115"/><ellipse cx="1796" cy="131" fill="#ADD1B2" rx="11" ry="11" style="stroke:#181818;stroke-width:1;"/><path d="M1798.9688,136.6406 Q1798.3906,136.9375 1797.75,137.0781 Q1797.1094,137.2344 1796.4063,137.2344 Q1793.9063,137.2344 1792.5781,135.5938 Q1791.2656,133.9375 1791.2656,130.8125 Q1791.2656,127.6875 1792.5781,126.0313 Q1793.9063,124.375 1796.4063,124.375 Q1797.1094,124.375 1797.75,124.5313 Q1798.4063,124.6875 1798.9688,124.9844 L1798.9688,127.7031 Q1798.3438,127.125 1797.75,126.8594 Q1797.1563,126.5781 1796.5313,126.5781 Q1795.1875,126.5781 1794.5,127.6563 Q1793.8125,128.7188 1793.8125,130.8125 Q1793.8125,132.9063 1794.5,133.9844 Q1795.1875,135.0469 1796.5313,135.0469 Q1797.1563,135.0469 1797.75,134.7813 Q1798.3438,134.5 1798.9688,133.9219 L1798.9688,136.6406 Z " fill="#000000"/><text fill="#000000" font-family="sans-serif" font-size="14" lengthAdjust="spacing" textLength="136.7324" x="1810" y="135.8467">SamplingProcedure</text><line style="stroke:#181818;stroke-width:0.5;" x1="1782" x2="1948.7324" y1="147" y2="147"/><line style="stroke:#181818;stroke-width:0.5;" x1="1782" x2="1948.7324" y1="155" y2="155"/></g><!--class Asset--><g class="entity" data-qualified-name="Asset" data-source-line="9" id="ent0020"><rect fill="#F1F1F1" height="48" rx="2.5" ry="2.5" style="stroke:#181818;stroke-width:0.5;" width="70.2676" x="2056.5" y="7"/><ellipse cx="2071.5" cy="23" fill="#ADD1B2" rx="11" ry="11" style="stroke:#181818;stroke-width:1;"/><path d="M2074.4688,28.6406 Q2073.8906,28.9375 2073.25,29.0781 Q2072.6094,29.2344 2071.9063,29.2344 Q2069.4063,29.2344 2068.0781,27.5938 Q2066.7656,25.9375 2066.7656,22.8125 Q2066.7656,19.6875 2068.0781,18.0313 Q2069.4063,16.375 2071.9063,16.375 Q2072.6094,16.375 2073.25,16.5313 Q2073.9063,16.6875 2074.4688,16.9844 L2074.4688,19.7031 Q2073.8438,19.125 2073.25,18.8594 Q2072.6563,18.5781 2072.0313,18.5781 Q2070.6875,18.5781 2070,19.6563 Q2069.3125,20.7188 2069.3125,22.8125 Q2069.3125,24.9063 2070,25.9844 Q2070.6875,27.0469 2072.0313,27.0469 Q2072.6563,27.0469 2073.25,26.7813 Q2073.8438,26.5 2074.4688,25.9219 L2074.4688,28.6406 Z " fill="#000000"/><text fill="#000000" font-family="sans-serif" font-size="14" lengthAdjust="spacing" textLength="38.2676" x="2085.5" y="27.8467">Asset</text><line style="stroke:#181818;stroke-width:0.5;" x1="2057.5" x2="2125.7676" y1="39" y2="39"/><line style="stroke:#181818;stroke-width:0.5;" x1="2057.5" x2="2125.7676" y1="47" y2="47"/></g><!--class Platform--><g class="entity" data-qualified-name="Platform" data-source-line="9" id="ent0021"><rect fill="#F1F1F1" height="48" rx="2.5" ry="2.5" style="stroke:#181818;stroke-width:0.5;" width="91.2881" x="1985" y="115"/><ellipse cx="2000" cy="131" fill="#ADD1B2" rx="11" ry="11" style="stroke:#181818;stroke-width:1;"/><path d="M2002.9688,136.6406 Q2002.3906,136.9375 2001.75,137.0781 Q2001.1094,137.2344 2000.4063,137.2344 Q1997.9063,137.2344 1996.5781,135.5938 Q1995.2656,133.9375 1995.2656,130.8125 Q1995.2656,127.6875 1996.5781,126.0313 Q1997.9063,124.375 2000.4063,124.375 Q2001.1094,124.375 2001.75,124.5313 Q2002.4063,124.6875 2002.9688,124.9844 L2002.9688,127.7031 Q2002.3438,127.125 2001.75,126.8594 Q2001.1563,126.5781 2000.5313,126.5781 Q1999.1875,126.5781 1998.5,127.6563 Q1997.8125,128.7188 1997.8125,130.8125 Q1997.8125,132.9063 1998.5,133.9844 Q1999.1875,135.0469 2000.5313,135.0469 Q2001.1563,135.0469 2001.75,134.7813 Q2002.3438,134.5 2002.9688,133.9219 L2002.9688,136.6406 Z " fill="#000000"/><text fill="#000000" font-family="sans-serif" font-size="14" lengthAdjust="spacing" textLength="59.2881" x="2014" y="135.8467">Platform</text><line style="stroke:#181818;stroke-width:0.5;" x1="1986" x2="2075.2881" y1="147" y2="147"/><line style="stroke:#181818;stroke-width:0.5;" x1="1986" x2="2075.2881" y1="155" y2="155"/></g><!--class System--><g class="entity" data-qualified-name="System" data-source-line="10" id="ent0023"><rect fill="#F1F1F1" height="48" rx="2.5" ry="2.5" style="stroke:#181818;stroke-width:0.5;" width="84.2061" x="2111.5" y="115"/><ellipse cx="2126.5" cy="131" fill="#ADD1B2" rx="11" ry="11" style="stroke:#181818;stroke-width:1;"/><path d="M2129.4688,136.6406 Q2128.8906,136.9375 2128.25,137.0781 Q2127.6094,137.2344 2126.9063,137.2344 Q2124.4063,137.2344 2123.0781,135.5938 Q2121.7656,133.9375 2121.7656,130.8125 Q2121.7656,127.6875 2123.0781,126.0313 Q2124.4063,124.375 2126.9063,124.375 Q2127.6094,124.375 2128.25,124.5313 Q2128.9063,124.6875 2129.4688,124.9844 L2129.4688,127.7031 Q2128.8438,127.125 2128.25,126.8594 Q2127.6563,126.5781 2127.0313,126.5781 Q2125.6875,126.5781 2125,127.6563 Q2124.3125,128.7188 2124.3125,130.8125 Q2124.3125,132.9063 2125,133.9844 Q2125.6875,135.0469 2127.0313,135.0469 Q2127.6563,135.0469 2128.25,134.7813 Q2128.8438,134.5 2129.4688,133.9219 L2129.4688,136.6406 Z " fill="#000000"/><text fill="#000000" font-family="sans-serif" font-size="14" lengthAdjust="spacing" textLength="52.2061" x="2140.5" y="135.8467">System</text><line style="stroke:#181818;stroke-width:0.5;" x1="2112.5" x2="2194.7061" y1="147" y2="147"/><line style="stroke:#181818;stroke-width:0.5;" x1="2112.5" x2="2194.7061" y1="155" y2="155"/></g><!--class Sampler--><g class="entity" data-qualified-name="Sampler" data-source-line="10" id="ent0024"><rect fill="#F1F1F1" height="48" rx="2.5" ry="2.5" style="stroke:#181818;stroke-width:0.5;" width="90.249" x="1982.5" y="223"/><ellipse cx="1997.5" cy="239" fill="#ADD1B2" rx="11" ry="11" style="stroke:#181818;stroke-width:1;"/><path d="M2000.4688,244.6406 Q1999.8906,244.9375 1999.25,245.0781 Q1998.6094,245.2344 1997.9063,245.2344 Q1995.4063,245.2344 1994.0781,243.5938 Q1992.7656,241.9375 1992.7656,238.8125 Q1992.7656,235.6875 1994.0781,234.0313 Q1995.4063,232.375 1997.9063,232.375 Q1998.6094,232.375 1999.25,232.5313 Q1999.9063,232.6875 2000.4688,232.9844 L2000.4688,235.7031 Q1999.8438,235.125 1999.25,234.8594 Q1998.6563,234.5781 1998.0313,234.5781 Q1996.6875,234.5781 1996,235.6563 Q1995.3125,236.7188 1995.3125,238.8125 Q1995.3125,240.9063 1996,241.9844 Q1996.6875,243.0469 1998.0313,243.0469 Q1998.6563,243.0469 1999.25,242.7813 Q1999.8438,242.5 2000.4688,241.9219 L2000.4688,244.6406 Z " fill="#000000"/><text fill="#000000" font-family="sans-serif" font-size="14" lengthAdjust="spacing" textLength="58.249" x="2011.5" y="243.8467">Sampler</text><line style="stroke:#181818;stroke-width:0.5;" x1="1983.5" x2="2071.749" y1="255" y2="255"/><line style="stroke:#181818;stroke-width:0.5;" x1="1983.5" x2="2071.749" y1="263" y2="263"/></g><!--class Actuator--><g class="entity" data-qualified-name="Actuator" data-source-line="11" id="ent0026"><rect fill="#F1F1F1" height="48" rx="2.5" ry="2.5" style="stroke:#181818;stroke-width:0.5;" width="92.0264" x="2107.5" y="223"/><ellipse cx="2122.5" cy="239" fill="#ADD1B2" rx="11" ry="11" style="stroke:#181818;stroke-width:1;"/><path d="M2125.4688,244.6406 Q2124.8906,244.9375 2124.25,245.0781 Q2123.6094,245.2344 2122.9063,245.2344 Q2120.4063,245.2344 2119.0781,243.5938 Q2117.7656,241.9375 2117.7656,238.8125 Q2117.7656,235.6875 2119.0781,234.0313 Q2120.4063,232.375 2122.9063,232.375 Q2123.6094,232.375 2124.25,232.5313 Q2124.9063,232.6875 2125.4688,232.9844 L2125.4688,235.7031 Q2124.8438,235.125 2124.25,234.8594 Q2123.6563,234.5781 2123.0313,234.5781 Q2121.6875,234.5781 2121,235.6563 Q2120.3125,236.7188 2120.3125,238.8125 Q2120.3125,240.9063 2121,241.9844 Q2121.6875,243.0469 2123.0313,243.0469 Q2123.6563,243.0469 2124.25,242.7813 Q2124.8438,242.5 2125.4688,241.9219 L2125.4688,244.6406 Z " fill="#000000"/><text fill="#000000" font-family="sans-serif" font-size="14" lengthAdjust="spacing" textLength="60.0264" x="2136.5" y="243.8467">Actuator</text><line style="stroke:#181818;stroke-width:0.5;" x1="2108.5" x2="2198.5264" y1="255" y2="255"/><line style="stroke:#181818;stroke-width:0.5;" x1="2108.5" x2="2198.5264" y1="263" y2="263"/></g><!--class Execution--><g class="entity" data-qualified-name="Execution" data-source-line="13" id="ent0029"><rect fill="#F1F1F1" height="48" rx="2.5" ry="2.5" style="stroke:#181818;stroke-width:0.5;" width="101.1318" x="2363" y="7"/><ellipse cx="2378" cy="23" fill="#ADD1B2" rx="11" ry="11" style="stroke:#181818;stroke-width:1;"/><path d="M2380.9688,28.6406 Q2380.3906,28.9375 2379.75,29.0781 Q2379.1094,29.2344 2378.4063,29.2344 Q2375.9063,29.2344 2374.5781,27.5938 Q2373.2656,25.9375 2373.2656,22.8125 Q2373.2656,19.6875 2374.5781,18.0313 Q2375.9063,16.375 2378.4063,16.375 Q2379.1094,16.375 2379.75,16.5313 Q2380.4063,16.6875 2380.9688,16.9844 L2380.9688,19.7031 Q2380.3438,19.125 2379.75,18.8594 Q2379.1563,18.5781 2378.5313,18.5781 Q2377.1875,18.5781 2376.5,19.6563 Q2375.8125,20.7188 2375.8125,22.8125 Q2375.8125,24.9063 2376.5,25.9844 Q2377.1875,27.0469 2378.5313,27.0469 Q2379.1563,27.0469 2379.75,26.7813 Q2380.3438,26.5 2380.9688,25.9219 L2380.9688,28.6406 Z " fill="#000000"/><text fill="#000000" font-family="sans-serif" font-size="14" lengthAdjust="spacing" textLength="69.1318" x="2392" y="27.8467">Execution</text><line style="stroke:#181818;stroke-width:0.5;" x1="2364" x2="2463.1318" y1="39" y2="39"/><line style="stroke:#181818;stroke-width:0.5;" x1="2364" x2="2463.1318" y1="47" y2="47"/></g><!--class Sampling--><g class="entity" data-qualified-name="Sampling" data-source-line="13" id="ent0030"><rect fill="#F1F1F1" height="48" rx="2.5" ry="2.5" style="stroke:#181818;stroke-width:0.5;" width="97.5293" x="2230.5" y="115"/><ellipse cx="2245.5" cy="131" fill="#ADD1B2" rx="11" ry="11" style="stroke:#181818;stroke-width:1;"/><path d="M2248.4688,136.6406 Q2247.8906,136.9375 2247.25,137.0781 Q2246.6094,137.2344 2245.9063,137.2344 Q2243.4063,137.2344 2242.0781,135.5938 Q2240.7656,133.9375 2240.7656,130.8125 Q2240.7656,127.6875 2242.0781,126.0313 Q2243.4063,124.375 2245.9063,124.375 Q2246.6094,124.375 2247.25,124.5313 Q2247.9063,124.6875 2248.4688,124.9844 L2248.4688,127.7031 Q2247.8438,127.125 2247.25,126.8594 Q2246.6563,126.5781 2246.0313,126.5781 Q2244.6875,126.5781 2244,127.6563 Q2243.3125,128.7188 2243.3125,130.8125 Q2243.3125,132.9063 2244,133.9844 Q2244.6875,135.0469 2246.0313,135.0469 Q2246.6563,135.0469 2247.25,134.7813 Q2247.8438,134.5 2248.4688,133.9219 L2248.4688,136.6406 Z " fill="#000000"/><text fill="#000000" font-family="sans-serif" font-size="14" lengthAdjust="spacing" textLength="65.5293" x="2259.5" y="135.8467">Sampling</text><line style="stroke:#181818;stroke-width:0.5;" x1="2231.5" x2="2327.0293" y1="147" y2="147"/><line style="stroke:#181818;stroke-width:0.5;" x1="2231.5" x2="2327.0293" y1="155" y2="155"/></g><!--class ExecutionCollection--><g class="entity" data-qualified-name="ExecutionCollection" data-source-line="14" id="ent0032"><rect fill="#F1F1F1" height="48" rx="2.5" ry="2.5" style="stroke:#181818;stroke-width:0.5;" width="170.3799" x="2850.5" y="7"/><ellipse cx="2865.5" cy="23" fill="#ADD1B2" rx="11" ry="11" style="stroke:#181818;stroke-width:1;"/><path d="M2868.4688,28.6406 Q2867.8906,28.9375 2867.25,29.0781 Q2866.6094,29.2344 2865.9063,29.2344 Q2863.4063,29.2344 2862.0781,27.5938 Q2860.7656,25.9375 2860.7656,22.8125 Q2860.7656,19.6875 2862.0781,18.0313 Q2863.4063,16.375 2865.9063,16.375 Q2866.6094,16.375 2867.25,16.5313 Q2867.9063,16.6875 2868.4688,16.9844 L2868.4688,19.7031 Q2867.8438,19.125 2867.25,18.8594 Q2866.6563,18.5781 2866.0313,18.5781 Q2864.6875,18.5781 2864,19.6563 Q2863.3125,20.7188 2863.3125,22.8125 Q2863.3125,24.9063 2864,25.9844 Q2864.6875,27.0469 2866.0313,27.0469 Q2866.6563,27.0469 2867.25,26.7813 Q2867.8438,26.5 2868.4688,25.9219 L2868.4688,28.6406 Z " fill="#000000"/><text fill="#000000" font-family="sans-serif" font-size="14" lengthAdjust="spacing" textLength="138.3799" x="2879.5" y="27.8467">ExecutionCollection</text><line style="stroke:#181818;stroke-width:0.5;" x1="2851.5" x2="3019.8799" y1="39" y2="39"/><line style="stroke:#181818;stroke-width:0.5;" x1="2851.5" x2="3019.8799" y1="47" y2="47"/></g><!--class SamplingCollection--><g class="entity" data-qualified-name="SamplingCollection" data-source-line="14" id="ent0033"><rect fill="#F1F1F1" height="48" rx="2.5" ry="2.5" style="stroke:#181818;stroke-width:0.5;" width="166.7773" x="2650" y="115"/><ellipse cx="2665" cy="131" fill="#ADD1B2" rx="11" ry="11" style="stroke:#181818;stroke-width:1;"/><path d="M2667.9688,136.6406 Q2667.3906,136.9375 2666.75,137.0781 Q2666.1094,137.2344 2665.4063,137.2344 Q2662.9063,137.2344 2661.5781,135.5938 Q2660.2656,133.9375 2660.2656,130.8125 Q2660.2656,127.6875 2661.5781,126.0313 Q2662.9063,124.375 2665.4063,124.375 Q2666.1094,124.375 2666.75,124.5313 Q2667.4063,124.6875 2667.9688,124.9844 L2667.9688,127.7031 Q2667.3438,127.125 2666.75,126.8594 Q2666.1563,126.5781 2665.5313,126.5781 Q2664.1875,126.5781 2663.5,127.6563 Q2662.8125,128.7188 2662.8125,130.8125 Q2662.8125,132.9063 2663.5,133.9844 Q2664.1875,135.0469 2665.5313,135.0469 Q2666.1563,135.0469 2666.75,134.7813 Q2667.3438,134.5 2667.9688,133.9219 L2667.9688,136.6406 Z " fill="#000000"/><text fill="#000000" font-family="sans-serif" font-size="14" lengthAdjust="spacing" textLength="134.7773" x="2679" y="135.8467">SamplingCollection</text><line style="stroke:#181818;stroke-width:0.5;" x1="2651" x2="2815.7773" y1="147" y2="147"/><line style="stroke:#181818;stroke-width:0.5;" x1="2651" x2="2815.7773" y1="155" y2="155"/></g><!--class Actuation--><g class="entity" data-qualified-name="Actuation" data-source-line="15" id="ent0035"><rect fill="#F1F1F1" height="48" rx="2.5" ry="2.5" style="stroke:#181818;stroke-width:0.5;" width="99.0332" x="2364" y="115"/><ellipse cx="2379" cy="131" fill="#ADD1B2" rx="11" ry="11" style="stroke:#181818;stroke-width:1;"/><path d="M2381.9688,136.6406 Q2381.3906,136.9375 2380.75,137.0781 Q2380.1094,137.2344 2379.4063,137.2344 Q2376.9063,137.2344 2375.5781,135.5938 Q2374.2656,133.9375 2374.2656,130.8125 Q2374.2656,127.6875 2375.5781,126.0313 Q2376.9063,124.375 2379.4063,124.375 Q2380.1094,124.375 2380.75,124.5313 Q2381.4063,124.6875 2381.9688,124.9844 L2381.9688,127.7031 Q2381.3438,127.125 2380.75,126.8594 Q2380.1563,126.5781 2379.5313,126.5781 Q2378.1875,126.5781 2377.5,127.6563 Q2376.8125,128.7188 2376.8125,130.8125 Q2376.8125,132.9063 2377.5,133.9844 Q2378.1875,135.0469 2379.5313,135.0469 Q2380.1563,135.0469 2380.75,134.7813 Q2381.3438,134.5 2381.9688,133.9219 L2381.9688,136.6406 Z " fill="#000000"/><text fill="#000000" font-family="sans-serif" font-size="14" lengthAdjust="spacing" textLength="67.0332" x="2393" y="135.8467">Actuation</text><line style="stroke:#181818;stroke-width:0.5;" x1="2365" x2="2462.0332" y1="147" y2="147"/><line style="stroke:#181818;stroke-width:0.5;" x1="2365" x2="2462.0332" y1="155" y2="155"/></g><!--class Sensor--><g class="entity" data-qualified-name="Sensor" data-source-line="16" id="ent0037"><rect fill="#F1F1F1" height="48" rx="2.5" ry="2.5" style="stroke:#181818;stroke-width:0.5;" width="79.9883" x="2234.5" y="223"/><ellipse cx="2249.5" cy="239" fill="#ADD1B2" rx="11" ry="11" style="stroke:#181818;stroke-width:1;"/><path d="M2252.4688,244.6406 Q2251.8906,244.9375 2251.25,245.0781 Q2250.6094,245.2344 2249.9063,245.2344 Q2247.4063,245.2344 2246.0781,243.5938 Q2244.7656,241.9375 2244.7656,238.8125 Q2244.7656,235.6875 2246.0781,234.0313 Q2247.4063,232.375 2249.9063,232.375 Q2250.6094,232.375 2251.25,232.5313 Q2251.9063,232.6875 2252.4688,232.9844 L2252.4688,235.7031 Q2251.8438,235.125 2251.25,234.8594 Q2250.6563,234.5781 2250.0313,234.5781 Q2248.6875,234.5781 2248,235.6563 Q2247.3125,236.7188 2247.3125,238.8125 Q2247.3125,240.9063 2248,241.9844 Q2248.6875,243.0469 2250.0313,243.0469 Q2250.6563,243.0469 2251.25,242.7813 Q2251.8438,242.5 2252.4688,241.9219 L2252.4688,244.6406 Z " fill="#000000"/><text fill="#000000" font-family="sans-serif" font-size="14" lengthAdjust="spacing" textLength="47.9883" x="2263.5" y="243.8467">Sensor</text><line style="stroke:#181818;stroke-width:0.5;" x1="2235.5" x2="2313.4883" y1="255" y2="255"/><line style="stroke:#181818;stroke-width:0.5;" x1="2235.5" x2="2313.4883" y1="263" y2="263"/></g><!--class ActuationCollection--><g class="entity" data-qualified-name="ActuationCollection" data-source-line="17" id="ent0039"><rect fill="#F1F1F1" height="48" rx="2.5" ry="2.5" style="stroke:#181818;stroke-width:0.5;" width="168.2813" x="2851.5" y="115"/><ellipse cx="2866.5" cy="131" fill="#ADD1B2" rx="11" ry="11" style="stroke:#181818;stroke-width:1;"/><path d="M2869.4688,136.6406 Q2868.8906,136.9375 2868.25,137.0781 Q2867.6094,137.2344 2866.9063,137.2344 Q2864.4063,137.2344 2863.0781,135.5938 Q2861.7656,133.9375 2861.7656,130.8125 Q2861.7656,127.6875 2863.0781,126.0313 Q2864.4063,124.375 2866.9063,124.375 Q2867.6094,124.375 2868.25,124.5313 Q2868.9063,124.6875 2869.4688,124.9844 L2869.4688,127.7031 Q2868.8438,127.125 2868.25,126.8594 Q2867.6563,126.5781 2867.0313,126.5781 Q2865.6875,126.5781 2865,127.6563 Q2864.3125,128.7188 2864.3125,130.8125 Q2864.3125,132.9063 2865,133.9844 Q2865.6875,135.0469 2867.0313,135.0469 Q2867.6563,135.0469 2868.25,134.7813 Q2868.8438,134.5 2869.4688,133.9219 L2869.4688,136.6406 Z " fill="#000000"/><text fill="#000000" font-family="sans-serif" font-size="14" lengthAdjust="spacing" textLength="136.2813" x="2880.5" y="135.8467">ActuationCollection</text><line style="stroke:#181818;stroke-width:0.5;" x1="2852.5" x2="3018.7813" y1="147" y2="147"/><line style="stroke:#181818;stroke-width:0.5;" x1="2852.5" x2="3018.7813" y1="155" y2="155"/></g><!--class ObservationCollection--><g class="entity" data-qualified-name="ObservationCollection" data-source-line="18" id="ent0041"><rect fill="#F1F1F1" height="48" rx="2.5" ry="2.5" style="stroke:#181818;stroke-width:0.5;" width="186.499" x="3054.5" y="115"/><ellipse cx="3069.5" cy="131" fill="#ADD1B2" rx="11" ry="11" style="stroke:#181818;stroke-width:1;"/><path d="M3072.4688,136.6406 Q3071.8906,136.9375 3071.25,137.0781 Q3070.6094,137.2344 3069.9063,137.2344 Q3067.4063,137.2344 3066.0781,135.5938 Q3064.7656,133.9375 3064.7656,130.8125 Q3064.7656,127.6875 3066.0781,126.0313 Q3067.4063,124.375 3069.9063,124.375 Q3070.6094,124.375 3071.25,124.5313 Q3071.9063,124.6875 3072.4688,124.9844 L3072.4688,127.7031 Q3071.8438,127.125 3071.25,126.8594 Q3070.6563,126.5781 3070.0313,126.5781 Q3068.6875,126.5781 3068,127.6563 Q3067.3125,128.7188 3067.3125,130.8125 Q3067.3125,132.9063 3068,133.9844 Q3068.6875,135.0469 3070.0313,135.0469 Q3070.6563,135.0469 3071.25,134.7813 Q3071.8438,134.5 3072.4688,133.9219 L3072.4688,136.6406 Z " fill="#000000"/><text fill="#000000" font-family="sans-serif" font-size="14" lengthAdjust="spacing" textLength="154.499" x="3083.5" y="135.8467">ObservationCollection</text><line style="stroke:#181818;stroke-width:0.5;" x1="3055.5" x2="3239.999" y1="147" y2="147"/><line style="stroke:#181818;stroke-width:0.5;" x1="3055.5" x2="3239.999" y1="155" y2="155"/></g><!--class Observation--><g class="entity" data-qualified-name="Observation" data-source-line="19" id="ent0043"><rect fill="#F1F1F1" height="48" rx="2.5" ry="2.5" style="stroke:#181818;stroke-width:0.5;" width="117.251" x="2498" y="115"/><ellipse cx="2513" cy="131" fill="#ADD1B2" rx="11" ry="11" style="stroke:#181818;stroke-width:1;"/><path d="M2515.9688,136.6406 Q2515.3906,136.9375 2514.75,137.0781 Q2514.1094,137.2344 2513.4063,137.2344 Q2510.9063,137.2344 2509.5781,135.5938 Q2508.2656,133.9375 2508.2656,130.8125 Q2508.2656,127.6875 2509.5781,126.0313 Q2510.9063,124.375 2513.4063,124.375 Q2514.1094,124.375 2514.75,124.5313 Q2515.4063,124.6875 2515.9688,124.9844 L2515.9688,127.7031 Q2515.3438,127.125 2514.75,126.8594 Q2514.1563,126.5781 2513.5313,126.5781 Q2512.1875,126.5781 2511.5,127.6563 Q2510.8125,128.7188 2510.8125,130.8125 Q2510.8125,132.9063 2511.5,133.9844 Q2512.1875,135.0469 2513.5313,135.0469 Q2514.1563,135.0469 2514.75,134.7813 Q2515.3438,134.5 2515.9688,133.9219 L2515.9688,136.6406 Z " fill="#000000"/><text fill="#000000" font-family="sans-serif" font-size="14" lengthAdjust="spacing" textLength="85.251" x="2527" y="135.8467">Observation</text><line style="stroke:#181818;stroke-width:0.5;" x1="2499" x2="2614.251" y1="147" y2="147"/><line style="stroke:#181818;stroke-width:0.5;" x1="2499" x2="2614.251" y1="155" y2="155"/></g><!--class Stimulus--><g class="entity" data-qualified-name="Stimulus" data-source-line="20" id="ent0045"><rect fill="#F1F1F1" height="48" rx="2.5" ry="2.5" style="stroke:#181818;stroke-width:0.5;" width="92.833" x="7" y="7"/><ellipse cx="22" cy="23" fill="#ADD1B2" rx="11" ry="11" style="stroke:#181818;stroke-width:1;"/><path d="M24.9688,28.6406 Q24.3906,28.9375 23.75,29.0781 Q23.1094,29.2344 22.4063,29.2344 Q19.9063,29.2344 18.5781,27.5938 Q17.2656,25.9375 17.2656,22.8125 Q17.2656,19.6875 18.5781,18.0313 Q19.9063,16.375 22.4063,16.375 Q23.1094,16.375 23.75,16.5313 Q24.4063,16.6875 24.9688,16.9844 L24.9688,19.7031 Q24.3438,19.125 23.75,18.8594 Q23.1563,18.5781 22.5313,18.5781 Q21.1875,18.5781 20.5,19.6563 Q19.8125,20.7188 19.8125,22.8125 Q19.8125,24.9063 20.5,25.9844 Q21.1875,27.0469 22.5313,27.0469 Q23.1563,27.0469 23.75,26.7813 Q24.3438,26.5 24.9688,25.9219 L24.9688,28.6406 Z " fill="#000000"/><text fill="#000000" font-family="sans-serif" font-size="14" lengthAdjust="spacing" textLength="60.833" x="36" y="27.8467">Stimulus</text><line style="stroke:#181818;stroke-width:0.5;" x1="8" x2="98.833" y1="39" y2="39"/><line style="stroke:#181818;stroke-width:0.5;" x1="8" x2="98.833" y1="47" y2="47"/></g><!--class SampleCollection--><g class="entity" data-qualified-name="SampleCollection" data-source-line="22" id="ent0046"><rect fill="#F1F1F1" height="48" rx="2.5" ry="2.5" style="stroke:#181818;stroke-width:0.5;" width="153.7412" x="135.5" y="7"/><ellipse cx="150.5" cy="23" fill="#ADD1B2" rx="11" ry="11" style="stroke:#181818;stroke-width:1;"/><path d="M153.4688,28.6406 Q152.8906,28.9375 152.25,29.0781 Q151.6094,29.2344 150.9063,29.2344 Q148.4063,29.2344 147.0781,27.5938 Q145.7656,25.9375 145.7656,22.8125 Q145.7656,19.6875 147.0781,18.0313 Q148.4063,16.375 150.9063,16.375 Q151.6094,16.375 152.25,16.5313 Q152.9063,16.6875 153.4688,16.9844 L153.4688,19.7031 Q152.8438,19.125 152.25,18.8594 Q151.6563,18.5781 151.0313,18.5781 Q149.6875,18.5781 149,19.6563 Q148.3125,20.7188 148.3125,22.8125 Q148.3125,24.9063 149,25.9844 Q149.6875,27.0469 151.0313,27.0469 Q151.6563,27.0469 152.25,26.7813 Q152.8438,26.5 153.4688,25.9219 L153.4688,28.6406 Z " fill="#000000"/><text fill="#000000" font-family="sans-serif" font-size="14" lengthAdjust="spacing" textLength="121.7412" x="164.5" y="27.8467">SampleCollection</text><line style="stroke:#181818;stroke-width:0.5;" x1="136.5" x2="288.2412" y1="39" y2="39"/><line style="stroke:#181818;stroke-width:0.5;" x1="136.5" x2="288.2412" y1="47" y2="47"/></g><!--class Deployment--><g class="entity" data-qualified-name="Deployment" data-source-line="23" id="ent0047"><rect fill="#F1F1F1" height="48" rx="2.5" ry="2.5" style="stroke:#181818;stroke-width:0.5;" width="117.6338" x="324.5" y="7"/><ellipse cx="339.5" cy="23" fill="#ADD1B2" rx="11" ry="11" style="stroke:#181818;stroke-width:1;"/><path d="M342.4688,28.6406 Q341.8906,28.9375 341.25,29.0781 Q340.6094,29.2344 339.9063,29.2344 Q337.4063,29.2344 336.0781,27.5938 Q334.7656,25.9375 334.7656,22.8125 Q334.7656,19.6875 336.0781,18.0313 Q337.4063,16.375 339.9063,16.375 Q340.6094,16.375 341.25,16.5313 Q341.9063,16.6875 342.4688,16.9844 L342.4688,19.7031 Q341.8438,19.125 341.25,18.8594 Q340.6563,18.5781 340.0313,18.5781 Q338.6875,18.5781 338,19.6563 Q337.3125,20.7188 337.3125,22.8125 Q337.3125,24.9063 338,25.9844 Q338.6875,27.0469 340.0313,27.0469 Q340.6563,27.0469 341.25,26.7813 Q341.8438,26.5 342.4688,25.9219 L342.4688,28.6406 Z " fill="#000000"/><text fill="#000000" font-family="sans-serif" font-size="14" lengthAdjust="spacing" textLength="85.6338" x="353.5" y="27.8467">Deployment</text><line style="stroke:#181818;stroke-width:0.5;" x1="325.5" x2="441.1338" y1="39" y2="39"/><line style="stroke:#181818;stroke-width:0.5;" x1="325.5" x2="441.1338" y1="47" y2="47"/></g><!--class Result--><g class="entity" data-qualified-name="Result" data-source-line="24" id="ent0048"><rect fill="#F1F1F1" height="48" rx="2.5" ry="2.5" style="stroke:#181818;stroke-width:0.5;" width="75.8867" x="15.5" y="115"/><ellipse cx="30.5" cy="131" fill="#ADD1B2" rx="11" ry="11" style="stroke:#181818;stroke-width:1;"/><path d="M33.4688,136.6406 Q32.8906,136.9375 32.25,137.0781 Q31.6094,137.2344 30.9063,137.2344 Q28.4063,137.2344 27.0781,135.5938 Q25.7656,133.9375 25.7656,130.8125 Q25.7656,127.6875 27.0781,126.0313 Q28.4063,124.375 30.9063,124.375 Q31.6094,124.375 32.25,124.5313 Q32.9063,124.6875 33.4688,124.9844 L33.4688,127.7031 Q32.8438,127.125 32.25,126.8594 Q31.6563,126.5781 31.0313,126.5781 Q29.6875,126.5781 29,127.6563 Q28.3125,128.7188 28.3125,130.8125 Q28.3125,132.9063 29,133.9844 Q29.6875,135.0469 31.0313,135.0469 Q31.6563,135.0469 32.25,134.7813 Q32.8438,134.5 33.4688,133.9219 L33.4688,136.6406 Z " fill="#000000"/><text fill="#000000" font-family="sans-serif" font-size="14" lengthAdjust="spacing" textLength="43.8867" x="44.5" y="135.8467">Result</text><line style="stroke:#181818;stroke-width:0.5;" x1="16.5" x2="90.3867" y1="147" y2="147"/><line style="stroke:#181818;stroke-width:0.5;" x1="16.5" x2="90.3867" y1="155" y2="155"/></g><!--class Input--><g class="entity" data-qualified-name="Input" data-source-line="28" id="ent0049"><rect fill="#F1F1F1" height="48" rx="2.5" ry="2.5" style="stroke:#181818;stroke-width:0.5;" width="68.251" x="126.5" y="115"/><ellipse cx="141.5" cy="131" fill="#ADD1B2" rx="11" ry="11" style="stroke:#181818;stroke-width:1;"/><path d="M144.4688,136.6406 Q143.8906,136.9375 143.25,137.0781 Q142.6094,137.2344 141.9063,137.2344 Q139.4063,137.2344 138.0781,135.5938 Q136.7656,133.9375 136.7656,130.8125 Q136.7656,127.6875 138.0781,126.0313 Q139.4063,124.375 141.9063,124.375 Q142.6094,124.375 143.25,124.5313 Q143.9063,124.6875 144.4688,124.9844 L144.4688,127.7031 Q143.8438,127.125 143.25,126.8594 Q142.6563,126.5781 142.0313,126.5781 Q140.6875,126.5781 140,127.6563 Q139.3125,128.7188 139.3125,130.8125 Q139.3125,132.9063 140,133.9844 Q140.6875,135.0469 142.0313,135.0469 Q142.6563,135.0469 143.25,134.7813 Q143.8438,134.5 144.4688,133.9219 L144.4688,136.6406 Z " fill="#000000"/><text fill="#000000" font-family="sans-serif" font-size="14" lengthAdjust="spacing" textLength="36.251" x="155.5" y="135.8467">Input</text><line style="stroke:#181818;stroke-width:0.5;" x1="127.5" x2="193.751" y1="147" y2="147"/><line style="stroke:#181818;stroke-width:0.5;" x1="127.5" x2="193.751" y1="155" y2="155"/></g><!--class FeatureOfInterest--><g class="entity" data-qualified-name="FeatureOfInterest" data-source-line="29" id="ent0050"><rect fill="#F1F1F1" height="48" rx="2.5" ry="2.5" style="stroke:#181818;stroke-width:0.5;" width="156.1816" x="229.5" y="115"/><ellipse cx="244.5" cy="131" fill="#ADD1B2" rx="11" ry="11" style="stroke:#181818;stroke-width:1;"/><path d="M247.4688,136.6406 Q246.8906,136.9375 246.25,137.0781 Q245.6094,137.2344 244.9063,137.2344 Q242.4063,137.2344 241.0781,135.5938 Q239.7656,133.9375 239.7656,130.8125 Q239.7656,127.6875 241.0781,126.0313 Q242.4063,124.375 244.9063,124.375 Q245.6094,124.375 246.25,124.5313 Q246.9063,124.6875 247.4688,124.9844 L247.4688,127.7031 Q246.8438,127.125 246.25,126.8594 Q245.6563,126.5781 245.0313,126.5781 Q243.6875,126.5781 243,127.6563 Q242.3125,128.7188 242.3125,130.8125 Q242.3125,132.9063 243,133.9844 Q243.6875,135.0469 245.0313,135.0469 Q245.6563,135.0469 246.25,134.7813 Q246.8438,134.5 247.4688,133.9219 L247.4688,136.6406 Z " fill="#000000"/><text fill="#000000" font-family="sans-serif" font-size="14" lengthAdjust="spacing" textLength="124.1816" x="258.5" y="135.8467">FeatureOfInterest</text><line style="stroke:#181818;stroke-width:0.5;" x1="230.5" x2="384.6816" y1="147" y2="147"/><line style="stroke:#181818;stroke-width:0.5;" x1="230.5" x2="384.6816" y1="155" y2="155"/></g><!--class Output--><g class="entity" data-qualified-name="Output" data-source-line="30" id="ent0051"><rect fill="#F1F1F1" height="48" rx="2.5" ry="2.5" style="stroke:#181818;stroke-width:0.5;" width="80.6309" x="13" y="223"/><ellipse cx="28" cy="239" fill="#ADD1B2" rx="11" ry="11" style="stroke:#181818;stroke-width:1;"/><path d="M30.9688,244.6406 Q30.3906,244.9375 29.75,245.0781 Q29.1094,245.2344 28.4063,245.2344 Q25.9063,245.2344 24.5781,243.5938 Q23.2656,241.9375 23.2656,238.8125 Q23.2656,235.6875 24.5781,234.0313 Q25.9063,232.375 28.4063,232.375 Q29.1094,232.375 29.75,232.5313 Q30.4063,232.6875 30.9688,232.9844 L30.9688,235.7031 Q30.3438,235.125 29.75,234.8594 Q29.1563,234.5781 28.5313,234.5781 Q27.1875,234.5781 26.5,235.6563 Q25.8125,236.7188 25.8125,238.8125 Q25.8125,240.9063 26.5,241.9844 Q27.1875,243.0469 28.5313,243.0469 Q29.1563,243.0469 29.75,242.7813 Q30.3438,242.5 30.9688,241.9219 L30.9688,244.6406 Z " fill="#000000"/><text fill="#000000" font-family="sans-serif" font-size="14" lengthAdjust="spacing" textLength="48.6309" x="42" y="243.8467">Output</text><line style="stroke:#181818;stroke-width:0.5;" x1="14" x2="92.6309" y1="255" y2="255"/><line style="stroke:#181818;stroke-width:0.5;" x1="14" x2="92.6309" y1="263" y2="263"/></g><!--reverse link Property to ActuatableProperty--><g class="link" data-entity-1="ent0001" data-entity-2="ent0002" data-link-type="extension" data-source-line="1" id="lnk3"><path codeLine="1" d="M579.1266,67.3728 C560.4666,85.0328 547.88,96.94 529.14,114.68" fill="none" id="Property-backto-ActuatableProperty" style="stroke:#181818;stroke-width:1;"/><polygon fill="none" points="592.2,55,575.0023,63.015,583.2509,71.7306,592.2,55" style="stroke:#181818;stroke-width:1;stroke-linejoin:miter;stroke-miterlimit:10;"/></g><!--reverse link Sample to MaterialSample--><g class="link" data-entity-1="ent0004" data-entity-2="ent0005" data-link-type="extension" data-source-line="2" id="lnk6"><path codeLine="2" d="M1020.8567,64.4445 C992.1067,82.1645 967.85,97.11 939.05,114.86" fill="none" id="Sample-backto-MaterialSample" style="stroke:#181818;stroke-width:1;"/><polygon fill="none" points="1036.18,55,1017.7086,59.3367,1024.0049,69.5522,1036.18,55" style="stroke:#181818;stroke-width:1;stroke-linejoin:miter;stroke-miterlimit:10;"/></g><!--reverse link Sample to SpatialSample--><g class="link" data-entity-1="ent0004" data-entity-2="ent0007" data-link-type="extension" data-source-line="3" id="lnk8"><path codeLine="3" d="M1073.5,73 C1073.5,90.66 1073.5,96.94 1073.5,114.68" fill="none" id="Sample-backto-SpatialSample" style="stroke:#181818;stroke-width:1;"/><polygon fill="none" points="1073.5,55,1067.5,73,1079.5,73,1073.5,55" style="stroke:#181818;stroke-width:1;stroke-linejoin:miter;stroke-miterlimit:10;"/></g><!--reverse link Sample to StatisticalSample--><g class="link" data-entity-1="ent0004" data-entity-2="ent0009" data-link-type="extension" data-source-line="4" id="lnk10"><path codeLine="4" d="M1127.8276,64.1725 C1157.7476,81.8925 1183.45,97.11 1213.43,114.86" fill="none" id="Sample-backto-StatisticalSample" style="stroke:#181818;stroke-width:1;"/><polygon fill="none" points="1112.34,55,1124.7701,69.335,1130.8851,59.0099,1112.34,55" style="stroke:#181818;stroke-width:1;stroke-linejoin:miter;stroke-miterlimit:10;"/></g><!--reverse link Property to ObservableProperty--><g class="link" data-entity-1="ent0001" data-entity-2="ent0011" data-link-type="extension" data-source-line="5" id="lnk12"><path codeLine="5" d="M648.5493,68.5321 C664.0393,86.1921 673.48,96.94 689.04,114.68" fill="none" id="Property-backto-ObservableProperty" style="stroke:#181818;stroke-width:1;"/><polygon fill="none" points="636.68,55,644.0386,72.4886,653.0601,64.5757,636.68,55" style="stroke:#181818;stroke-width:1;stroke-linejoin:miter;stroke-miterlimit:10;"/></g><!--reverse link Procedure to ActuatingProcedure--><g class="link" data-entity-1="ent0013" data-entity-2="ent0014" data-link-type="extension" data-source-line="6" id="lnk15"><path codeLine="6" d="M1597.3326,63.1732 C1562.5626,80.8932 1530.74,97.11 1495.9,114.86" fill="none" id="Procedure-backto-ActuatingProcedure" style="stroke:#181818;stroke-width:1;"/><polygon fill="none" points="1613.37,55,1594.6082,57.8274,1600.057,68.519,1613.37,55" style="stroke:#181818;stroke-width:1;stroke-linejoin:miter;stroke-miterlimit:10;"/></g><!--reverse link Procedure to ObservingProcedure--><g class="link" data-entity-1="ent0013" data-entity-2="ent0016" data-link-type="extension" data-source-line="7" id="lnk17"><path codeLine="7" d="M1658.5,73 C1658.5,90.66 1658.5,96.94 1658.5,114.68" fill="none" id="Procedure-backto-ObservingProcedure" style="stroke:#181818;stroke-width:1;"/><polygon fill="none" points="1658.5,55,1652.5,73,1664.5,73,1658.5,55" style="stroke:#181818;stroke-width:1;stroke-linejoin:miter;stroke-miterlimit:10;"/></g><!--reverse link Procedure to SamplingProcedure--><g class="link" data-entity-1="ent0013" data-entity-2="ent0018" data-link-type="extension" data-source-line="8" id="lnk19"><path codeLine="8" d="M1719.4411,63.205 C1754.0411,80.925 1785.65,97.11 1820.31,114.86" fill="none" id="Procedure-backto-SamplingProcedure" style="stroke:#181818;stroke-width:1;"/><polygon fill="none" points="1703.42,55,1716.7061,68.5454,1722.1762,57.8647,1703.42,55" style="stroke:#181818;stroke-width:1;stroke-linejoin:miter;stroke-miterlimit:10;"/></g><!--reverse link Asset to Platform--><g class="link" data-entity-1="ent0020" data-entity-2="ent0021" data-link-type="extension" data-source-line="9" id="lnk22"><path codeLine="9" d="M2069.2839,70.6022 C2059.1239,88.2622 2054.13,96.94 2043.92,114.68" fill="none" id="Asset-backto-Platform" style="stroke:#181818;stroke-width:1;"/><polygon fill="none" points="2078.26,55,2064.0831,67.6102,2074.4846,73.5943,2078.26,55" style="stroke:#181818;stroke-width:1;stroke-linejoin:miter;stroke-miterlimit:10;"/></g><!--reverse link System to Sampler--><g class="link" data-entity-1="ent0023" data-entity-2="ent0024" data-link-type="extension" data-source-line="10" id="lnk25"><path codeLine="10" d="M2112.3865,174.5884 C2091.3965,192.2484 2076.31,204.94 2055.22,222.68" fill="none" id="System-backto-Sampler" style="stroke:#181818;stroke-width:1;"/><polygon fill="none" points="2126.16,163,2108.5237,169.9972,2116.2493,179.1795,2126.16,163" style="stroke:#181818;stroke-width:1;stroke-linejoin:miter;stroke-miterlimit:10;"/></g><!--reverse link System to Actuator--><g class="link" data-entity-1="ent0023" data-entity-2="ent0026" data-link-type="extension" data-source-line="11" id="lnk27"><path codeLine="11" d="M2153.5,181 C2153.5,198.66 2153.5,204.94 2153.5,222.68" fill="none" id="System-backto-Actuator" style="stroke:#181818;stroke-width:1;"/><polygon fill="none" points="2153.5,163,2147.5,181,2159.5,181,2153.5,163" style="stroke:#181818;stroke-width:1;stroke-linejoin:miter;stroke-miterlimit:10;"/></g><!--reverse link Asset to System--><g class="link" data-entity-1="ent0020" data-entity-2="ent0023" data-link-type="extension" data-source-line="12" id="lnk28"><path codeLine="12" d="M2114.0383,70.5372 C2124.3683,88.1972 2129.48,96.94 2139.86,114.68" fill="none" id="Asset-backto-System" style="stroke:#181818;stroke-width:1;"/><polygon fill="none" points="2104.95,55,2108.8592,73.5666,2119.2173,67.5077,2104.95,55" style="stroke:#181818;stroke-width:1;stroke-linejoin:miter;stroke-miterlimit:10;"/></g><!--reverse link Execution to Sampling--><g class="link" data-entity-1="ent0029" data-entity-2="ent0030" data-link-type="extension" data-source-line="13" id="lnk31"><path codeLine="13" d="M2370.3041,66.1688 C2347.9841,83.8288 2331.41,96.94 2308.98,114.68" fill="none" id="Execution-backto-Sampling" style="stroke:#181818;stroke-width:1;"/><polygon fill="none" points="2384.42,55,2366.5812,61.4635,2374.027,70.8741,2384.42,55" style="stroke:#181818;stroke-width:1;stroke-linejoin:miter;stroke-miterlimit:10;"/></g><!--reverse link ExecutionCollection to SamplingCollection--><g class="link" data-entity-1="ent0032" data-entity-2="ent0033" data-link-type="extension" data-source-line="14" id="lnk34"><path codeLine="14" d="M2875.731,63.3636 C2841.961,81.0836 2811.43,97.11 2777.59,114.86" fill="none" id="ExecutionCollection-backto-SamplingCollection" style="stroke:#181818;stroke-width:1;"/><polygon fill="none" points="2891.67,55,2872.9432,58.0506,2878.5189,68.6766,2891.67,55" style="stroke:#181818;stroke-width:1;stroke-linejoin:miter;stroke-miterlimit:10;"/></g><!--reverse link Execution to Actuation--><g class="link" data-entity-1="ent0029" data-entity-2="ent0035" data-link-type="extension" data-source-line="15" id="lnk36"><path codeLine="15" d="M2413.5,73 C2413.5,90.66 2413.5,96.94 2413.5,114.68" fill="none" id="Execution-backto-Actuation" style="stroke:#181818;stroke-width:1;"/><polygon fill="none" points="2413.5,55,2407.5,73,2419.5,73,2413.5,55" style="stroke:#181818;stroke-width:1;stroke-linejoin:miter;stroke-miterlimit:10;"/></g><!--reverse link System to Sensor--><g class="link" data-entity-1="ent0023" data-entity-2="ent0037" data-link-type="extension" data-source-line="16" id="lnk38"><path codeLine="16" d="M2193.2968,174.864 C2213.4468,192.524 2227.63,204.94 2247.88,222.68" fill="none" id="System-backto-Sensor" style="stroke:#181818;stroke-width:1;"/><polygon fill="none" points="2179.76,163,2189.3421,179.3763,2197.2515,170.3518,2179.76,163" style="stroke:#181818;stroke-width:1;stroke-linejoin:miter;stroke-miterlimit:10;"/></g><!--reverse link ExecutionCollection to ActuationCollection--><g class="link" data-entity-1="ent0032" data-entity-2="ent0039" data-link-type="extension" data-source-line="17" id="lnk40"><path codeLine="17" d="M2935.5,73 C2935.5,90.66 2935.5,96.94 2935.5,114.68" fill="none" id="ExecutionCollection-backto-ActuationCollection" style="stroke:#181818;stroke-width:1;"/><polygon fill="none" points="2935.5,55,2929.5,73,2941.5,73,2935.5,55" style="stroke:#181818;stroke-width:1;stroke-linejoin:miter;stroke-miterlimit:10;"/></g><!--reverse link ExecutionCollection to ObservationCollection--><g class="link" data-entity-1="ent0032" data-entity-2="ent0041" data-link-type="extension" data-source-line="18" id="lnk42"><path codeLine="18" d="M2997.5997,63.0498 C3033.0397,80.7698 3065.72,97.11 3101.22,114.86" fill="none" id="ExecutionCollection-backto-ObservationCollection" style="stroke:#181818;stroke-width:1;"/><polygon fill="none" points="2981.5,55,2994.9164,68.4164,3000.283,57.6833,2981.5,55" style="stroke:#181818;stroke-width:1;stroke-linejoin:miter;stroke-miterlimit:10;"/></g><!--reverse link Execution to Observation--><g class="link" data-entity-1="ent0029" data-entity-2="ent0043" data-link-type="extension" data-source-line="19" id="lnk44"><path codeLine="19" d="M2458.9895,65.7202 C2482.8095,83.3802 2501.11,96.94 2525.04,114.68" fill="none" id="Execution-backto-Observation" style="stroke:#181818;stroke-width:1;"/><polygon fill="none" points="2444.53,55,2455.4161,70.54,2462.5629,60.9004,2444.53,55" style="stroke:#181818;stroke-width:1;stroke-linejoin:miter;stroke-miterlimit:10;"/></g><?plantuml-src VL99RiCm3Bpx5Vb0Vf1Bq2P03eMD-WMCoXG2g0KYLTH07byXaXtBZdiZPuP3YbGNdCSWm-vmt-ztHoKH1Aw4NS6R7emdpFG720ODbB6AwZt81YE9OT5gOhkgPtjb33zLpnGe_8e1vrDf-ptXIqNs-4_nQ5q9ZimecUm8vEQ2QVg11Ssi0aE5vKbSc1TdlZdzeegYdQtxFV4tHuHghNZYIu_oxaHKSw7bDC6cxrJrodWfBilVagz4ZI9WJZVL9bBaaaw7A-nZSpE_3B-Z9pSOj5A0J-H8OrBM-D9_LNcnFexn6K7IFTlRnQRVYJpYRPGa-WC0?></g></svg>