<svg xmlns="http://www.w3.org/2000/svg" xmlns:xlink="http://www.w3.org/1999/xlink" contentStyleType="text/css" data-diagram-type="CLASS" height="286px" preserveAspectRatio="none" style="width:3155px;height:286px;background:#FFFFFF;" version="1.1" viewBox="0 0 3155 286" width="3155px" zoomAndPan="magnify"><?plantuml 1.2026.5?><defs/><g><!--class Property--><g class="entity" data-qualified-name="Property" data-source-line="1" id="ent0001"><rect fill="#F1F1F1" height="48" rx="2.5" ry="2.5" style="stroke:#181818;stroke-width:0.5;" width="91.7939" x="531" y="7"/><ellipse cx="546" cy="23" fill="#ADD1B2" rx="11" ry="11" style="stroke:#181818;stroke-width:1;"/><path d="M548.9688,28.6406 Q548.3906,28.9375 547.75,29.0781 Q547.1094,29.2344 546.4063,29.2344 Q543.9063,29.2344 542.5781,27.5938 Q541.2656,25.9375 541.2656,22.8125 Q541.2656,19.6875 542.5781,18.0313 Q543.9063,16.375 546.4063,16.375 Q547.1094,16.375 547.75,16.5313 Q548.4063,16.6875 548.9688,16.9844 L548.9688,19.7031 Q548.3438,19.125 547.75,18.8594 Q547.1563,18.5781 546.5313,18.5781 Q545.1875,18.5781 544.5,19.6563 Q543.8125,20.7188 543.8125,22.8125 Q543.8125,24.9063 544.5,25.9844 Q545.1875,27.0469 546.5313,27.0469 Q547.1563,27.0469 547.75,26.7813 Q548.3438,26.5 548.9688,25.9219 L548.9688,28.6406 Z " fill="#000000"/><text fill="#000000" font-family="sans-serif" font-size="14" lengthAdjust="spacing" textLength="59.7939" x="560" y="27.8467">Property</text><line style="stroke:#181818;stroke-width:0.5;" x1="532" x2="621.7939" y1="39" y2="39"/><line style="stroke:#181818;stroke-width:0.5;" x1="532" x2="621.7939" y1="47" y2="47"/></g><!--class ActuatableProperty--><g class="entity" data-qualified-name="ActuatableProperty" data-source-line="1" id="ent0002"><rect fill="#F1F1F1" height="48" rx="2.5" ry="2.5" style="stroke:#181818;stroke-width:0.5;" width="167.4678" x="320.5" y="115"/><ellipse cx="335.5" cy="131" fill="#ADD1B2" rx="11" ry="11" style="stroke:#181818;stroke-width:1;"/><path d="M338.4688,136.6406 Q337.8906,136.9375 337.25,137.0781 Q336.6094,137.2344 335.9063,137.2344 Q333.4063,137.2344 332.0781,135.5938 Q330.7656,133.9375 330.7656,130.8125 Q330.7656,127.6875 332.0781,126.0313 Q333.4063,124.375 335.9063,124.375 Q336.6094,124.375 337.25,124.5313 Q337.9063,124.6875 338.4688,124.9844 L338.4688,127.7031 Q337.8438,127.125 337.25,126.8594 Q336.6563,126.5781 336.0313,126.5781 Q334.6875,126.5781 334,127.6563 Q333.3125,128.7188 333.3125,130.8125 Q333.3125,132.9063 334,133.9844 Q334.6875,135.0469 336.0313,135.0469 Q336.6563,135.0469 337.25,134.7813 Q337.8438,134.5 338.4688,133.9219 L338.4688,136.6406 Z " fill="#000000"/><text fill="#000000" font-family="sans-serif" font-size="14" lengthAdjust="spacing" textLength="135.4678" x="349.5" y="135.8467">ActuatableProperty</text><line style="stroke:#181818;stroke-width:0.5;" x1="321.5" x2="486.9678" y1="147" y2="147"/><line style="stroke:#181818;stroke-width:0.5;" x1="321.5" x2="486.9678" y1="155" y2="155"/></g><!--class Sample--><g class="entity" data-qualified-name="Sample" data-source-line="2" id="ent0004"><rect fill="#F1F1F1" height="48" rx="2.5" ry="2.5" style="stroke:#181818;stroke-width:0.5;" width="84.4932" x="931" y="7"/><ellipse cx="946" cy="23" fill="#ADD1B2" rx="11" ry="11" style="stroke:#181818;stroke-width:1;"/><path d="M948.9688,28.6406 Q948.3906,28.9375 947.75,29.0781 Q947.1094,29.2344 946.4063,29.2344 Q943.9063,29.2344 942.5781,27.5938 Q941.2656,25.9375 941.2656,22.8125 Q941.2656,19.6875 942.5781,18.0313 Q943.9063,16.375 946.4063,16.375 Q947.1094,16.375 947.75,16.5313 Q948.4063,16.6875 948.9688,16.9844 L948.9688,19.7031 Q948.3438,19.125 947.75,18.8594 Q947.1563,18.5781 946.5313,18.5781 Q945.1875,18.5781 944.5,19.6563 Q943.8125,20.7188 943.8125,22.8125 Q943.8125,24.9063 944.5,25.9844 Q945.1875,27.0469 946.5313,27.0469 Q947.1563,27.0469 947.75,26.7813 Q948.3438,26.5 948.9688,25.9219 L948.9688,28.6406 Z " fill="#000000"/><text fill="#000000" font-family="sans-serif" font-size="14" lengthAdjust="spacing" textLength="52.4932" x="960" y="27.8467">Sample</text><line style="stroke:#181818;stroke-width:0.5;" x1="932" x2="1014.4932" y1="39" y2="39"/><line style="stroke:#181818;stroke-width:0.5;" x1="932" x2="1014.4932" y1="47" y2="47"/></g><!--class MaterialSample--><g class="entity" data-qualified-name="MaterialSample" data-source-line="2" id="ent0005"><rect fill="#F1F1F1" height="48" rx="2.5" ry="2.5" style="stroke:#181818;stroke-width:0.5;" width="141.3682" x="730.5" y="115"/><ellipse cx="745.5" cy="131" fill="#ADD1B2" rx="11" ry="11" style="stroke:#181818;stroke-width:1;"/><path d="M748.4688,136.6406 Q747.8906,136.9375 747.25,137.0781 Q746.6094,137.2344 745.9063,137.2344 Q743.4063,137.2344 742.0781,135.5938 Q740.7656,133.9375 740.7656,130.8125 Q740.7656,127.6875 742.0781,126.0313 Q743.4063,124.375 745.9063,124.375 Q746.6094,124.375 747.25,124.5313 Q747.9063,124.6875 748.4688,124.9844 L748.4688,127.7031 Q747.8438,127.125 747.25,126.8594 Q746.6563,126.5781 746.0313,126.5781 Q744.6875,126.5781 744,127.6563 Q743.3125,128.7188 743.3125,130.8125 Q743.3125,132.9063 744,133.9844 Q744.6875,135.0469 746.0313,135.0469 Q746.6563,135.0469 747.25,134.7813 Q747.8438,134.5 748.4688,133.9219 L748.4688,136.6406 Z " fill="#000000"/><text fill="#000000" font-family="sans-serif" font-size="14" lengthAdjust="spacing" textLength="109.3682" x="759.5" y="135.8467">MaterialSample</text><line style="stroke:#181818;stroke-width:0.5;" x1="731.5" x2="870.8682" y1="147" y2="147"/><line style="stroke:#181818;stroke-width:0.5;" x1="731.5" x2="870.8682" y1="155" y2="155"/></g><!--class ObservableProperty--><g class="entity" data-qualified-name="ObservableProperty" data-source-line="3" id="ent0007"><rect fill="#F1F1F1" height="48" rx="2.5" ry="2.5" style="stroke:#181818;stroke-width:0.5;" width="171.6172" x="523" y="115"/><ellipse cx="538" cy="131" fill="#ADD1B2" rx="11" ry="11" style="stroke:#181818;stroke-width:1;"/><path d="M540.9688,136.6406 Q540.3906,136.9375 539.75,137.0781 Q539.1094,137.2344 538.4063,137.2344 Q535.9063,137.2344 534.5781,135.5938 Q533.2656,133.9375 533.2656,130.8125 Q533.2656,127.6875 534.5781,126.0313 Q535.9063,124.375 538.4063,124.375 Q539.1094,124.375 539.75,124.5313 Q540.4063,124.6875 540.9688,124.9844 L540.9688,127.7031 Q540.3438,127.125 539.75,126.8594 Q539.1563,126.5781 538.5313,126.5781 Q537.1875,126.5781 536.5,127.6563 Q535.8125,128.7188 535.8125,130.8125 Q535.8125,132.9063 536.5,133.9844 Q537.1875,135.0469 538.5313,135.0469 Q539.1563,135.0469 539.75,134.7813 Q540.3438,134.5 540.9688,133.9219 L540.9688,136.6406 Z " fill="#000000"/><text fill="#000000" font-family="sans-serif" font-size="14" lengthAdjust="spacing" textLength="139.6172" x="552" y="135.8467">ObservableProperty</text><line style="stroke:#181818;stroke-width:0.5;" x1="524" x2="693.6172" y1="147" y2="147"/><line style="stroke:#181818;stroke-width:0.5;" x1="524" x2="693.6172" y1="155" y2="155"/></g><!--class SpatialSample--><g class="entity" data-qualified-name="SpatialSample" data-source-line="4" id="ent0009"><rect fill="#F1F1F1" height="48" rx="2.5" ry="2.5" style="stroke:#181818;stroke-width:0.5;" width="132.6934" x="906.5" y="115"/><ellipse cx="921.5" cy="131" fill="#ADD1B2" rx="11" ry="11" style="stroke:#181818;stroke-width:1;"/><path d="M924.4688,136.6406 Q923.8906,136.9375 923.25,137.0781 Q922.6094,137.2344 921.9063,137.2344 Q919.4063,137.2344 918.0781,135.5938 Q916.7656,133.9375 916.7656,130.8125 Q916.7656,127.6875 918.0781,126.0313 Q919.4063,124.375 921.9063,124.375 Q922.6094,124.375 923.25,124.5313 Q923.9063,124.6875 924.4688,124.9844 L924.4688,127.7031 Q923.8438,127.125 923.25,126.8594 Q922.6563,126.5781 922.0313,126.5781 Q920.6875,126.5781 920,127.6563 Q919.3125,128.7188 919.3125,130.8125 Q919.3125,132.9063 920,133.9844 Q920.6875,135.0469 922.0313,135.0469 Q922.6563,135.0469 923.25,134.7813 Q923.8438,134.5 924.4688,133.9219 L924.4688,136.6406 Z " fill="#000000"/><text fill="#000000" font-family="sans-serif" font-size="14" lengthAdjust="spacing" textLength="100.6934" x="935.5" y="135.8467">SpatialSample</text><line style="stroke:#181818;stroke-width:0.5;" x1="907.5" x2="1038.1934" y1="147" y2="147"/><line style="stroke:#181818;stroke-width:0.5;" x1="907.5" x2="1038.1934" y1="155" y2="155"/></g><!--class StatisticalSample--><g class="entity" data-qualified-name="StatisticalSample" data-source-line="5" id="ent0011"><rect fill="#F1F1F1" height="48" rx="2.5" ry="2.5" style="stroke:#181818;stroke-width:0.5;" width="153.666" x="1075" y="115"/><ellipse cx="1090" cy="131" fill="#ADD1B2" rx="11" ry="11" style="stroke:#181818;stroke-width:1;"/><path d="M1092.9688,136.6406 Q1092.3906,136.9375 1091.75,137.0781 Q1091.1094,137.2344 1090.4063,137.2344 Q1087.9063,137.2344 1086.5781,135.5938 Q1085.2656,133.9375 1085.2656,130.8125 Q1085.2656,127.6875 1086.5781,126.0313 Q1087.9063,124.375 1090.4063,124.375 Q1091.1094,124.375 1091.75,124.5313 Q1092.4063,124.6875 1092.9688,124.9844 L1092.9688,127.7031 Q1092.3438,127.125 1091.75,126.8594 Q1091.1563,126.5781 1090.5313,126.5781 Q1089.1875,126.5781 1088.5,127.6563 Q1087.8125,128.7188 1087.8125,130.8125 Q1087.8125,132.9063 1088.5,133.9844 Q1089.1875,135.0469 1090.5313,135.0469 Q1091.1563,135.0469 1091.75,134.7813 Q1092.3438,134.5 1092.9688,133.9219 L1092.9688,136.6406 Z " fill="#000000"/><text fill="#000000" font-family="sans-serif" font-size="14" lengthAdjust="spacing" textLength="121.666" x="1104" y="135.8467">StatisticalSample</text><line style="stroke:#181818;stroke-width:0.5;" x1="1076" x2="1227.666" y1="147" y2="147"/><line style="stroke:#181818;stroke-width:0.5;" x1="1076" x2="1227.666" y1="155" y2="155"/></g><!--class Procedure--><g class="entity" data-qualified-name="Procedure" data-source-line="6" id="ent0013"><rect fill="#F1F1F1" height="48" rx="2.5" ry="2.5" style="stroke:#181818;stroke-width:0.5;" width="103.2031" x="1506.5" y="7"/><ellipse cx="1521.5" cy="23" fill="#ADD1B2" rx="11" ry="11" style="stroke:#181818;stroke-width:1;"/><path d="M1524.4688,28.6406 Q1523.8906,28.9375 1523.25,29.0781 Q1522.6094,29.2344 1521.9063,29.2344 Q1519.4063,29.2344 1518.0781,27.5938 Q1516.7656,25.9375 1516.7656,22.8125 Q1516.7656,19.6875 1518.0781,18.0313 Q1519.4063,16.375 1521.9063,16.375 Q1522.6094,16.375 1523.25,16.5313 Q1523.9063,16.6875 1524.4688,16.9844 L1524.4688,19.7031 Q1523.8438,19.125 1523.25,18.8594 Q1522.6563,18.5781 1522.0313,18.5781 Q1520.6875,18.5781 1520,19.6563 Q1519.3125,20.7188 1519.3125,22.8125 Q1519.3125,24.9063 1520,25.9844 Q1520.6875,27.0469 1522.0313,27.0469 Q1522.6563,27.0469 1523.25,26.7813 Q1523.8438,26.5 1524.4688,25.9219 L1524.4688,28.6406 Z " fill="#000000"/><text fill="#000000" font-family="sans-serif" font-size="14" lengthAdjust="spacing" textLength="71.2031" x="1535.5" y="27.8467">Procedure</text><line style="stroke:#181818;stroke-width:0.5;" x1="1507.5" x2="1608.7031" y1="39" y2="39"/><line style="stroke:#181818;stroke-width:0.5;" x1="1507.5" x2="1608.7031" y1="47" y2="47"/></g><!--class ActuatingProcedure--><g class="entity" data-qualified-name="ActuatingProcedure" data-source-line="6" id="ent0014"><rect fill="#F1F1F1" height="48" rx="2.5" ry="2.5" style="stroke:#181818;stroke-width:0.5;" width="170.5576" x="1264.5" y="115"/><ellipse cx="1279.5" cy="131" fill="#ADD1B2" rx="11" ry="11" style="stroke:#181818;stroke-width:1;"/><path d="M1282.4688,136.6406 Q1281.8906,136.9375 1281.25,137.0781 Q1280.6094,137.2344 1279.9063,137.2344 Q1277.4063,137.2344 1276.0781,135.5938 Q1274.7656,133.9375 1274.7656,130.8125 Q1274.7656,127.6875 1276.0781,126.0313 Q1277.4063,124.375 1279.9063,124.375 Q1280.6094,124.375 1281.25,124.5313 Q1281.9063,124.6875 1282.4688,124.9844 L1282.4688,127.7031 Q1281.8438,127.125 1281.25,126.8594 Q1280.6563,126.5781 1280.0313,126.5781 Q1278.6875,126.5781 1278,127.6563 Q1277.3125,128.7188 1277.3125,130.8125 Q1277.3125,132.9063 1278,133.9844 Q1278.6875,135.0469 1280.0313,135.0469 Q1280.6563,135.0469 1281.25,134.7813 Q1281.8438,134.5 1282.4688,133.9219 L1282.4688,136.6406 Z " fill="#000000"/><text fill="#000000" font-family="sans-serif" font-size="14" lengthAdjust="spacing" textLength="138.5576" x="1293.5" y="135.8467">ActuatingProcedure</text><line style="stroke:#181818;stroke-width:0.5;" x1="1265.5" x2="1434.0576" y1="147" y2="147"/><line style="stroke:#181818;stroke-width:0.5;" x1="1265.5" x2="1434.0576" y1="155" y2="155"/></g><!--class ObservingProcedure--><g class="entity" data-qualified-name="ObservingProcedure" data-source-line="7" id="ent0016"><rect fill="#F1F1F1" height="48" rx="2.5" ry="2.5" style="stroke:#181818;stroke-width:0.5;" width="174.707" x="1470.5" y="115"/><ellipse cx="1485.5" cy="131" fill="#ADD1B2" rx="11" ry="11" style="stroke:#181818;stroke-width:1;"/><path d="M1488.4688,136.6406 Q1487.8906,136.9375 1487.25,137.0781 Q1486.6094,137.2344 1485.9063,137.2344 Q1483.4063,137.2344 1482.0781,135.5938 Q1480.7656,133.9375 1480.7656,130.8125 Q1480.7656,127.6875 1482.0781,126.0313 Q1483.4063,124.375 1485.9063,124.375 Q1486.6094,124.375 1487.25,124.5313 Q1487.9063,124.6875 1488.4688,124.9844 L1488.4688,127.7031 Q1487.8438,127.125 1487.25,126.8594 Q1486.6563,126.5781 1486.0313,126.5781 Q1484.6875,126.5781 1484,127.6563 Q1483.3125,128.7188 1483.3125,130.8125 Q1483.3125,132.9063 1484,133.9844 Q1484.6875,135.0469 1486.0313,135.0469 Q1486.6563,135.0469 1487.25,134.7813 Q1487.8438,134.5 1488.4688,133.9219 L1488.4688,136.6406 Z " fill="#000000"/><text fill="#000000" font-family="sans-serif" font-size="14" lengthAdjust="spacing" textLength="142.707" x="1499.5" y="135.8467">ObservingProcedure</text><line style="stroke:#181818;stroke-width:0.5;" x1="1471.5" x2="1644.207" y1="147" y2="147"/><line style="stroke:#181818;stroke-width:0.5;" x1="1471.5" x2="1644.207" y1="155" y2="155"/></g><!--class SamplingProcedure--><g class="entity" data-qualified-name="SamplingProcedure" data-source-line="8" id="ent0018"><rect fill="#F1F1F1" height="48" rx="2.5" ry="2.5" style="stroke:#181818;stroke-width:0.5;" width="168.7324" x="1680.5" y="115"/><ellipse cx="1695.5" cy="131" fill="#ADD1B2" rx="11" ry="11" style="stroke:#181818;stroke-width:1;"/><path d="M1698.4688,136.6406 Q1697.8906,136.9375 1697.25,137.0781 Q1696.6094,137.2344 1695.9063,137.2344 Q1693.4063,137.2344 1692.0781,135.5938 Q1690.7656,133.9375 1690.7656,130.8125 Q1690.7656,127.6875 1692.0781,126.0313 Q1693.4063,124.375 1695.9063,124.375 Q1696.6094,124.375 1697.25,124.5313 Q1697.9063,124.6875 1698.4688,124.9844 L1698.4688,127.7031 Q1697.8438,127.125 1697.25,126.8594 Q1696.6563,126.5781 1696.0313,126.5781 Q1694.6875,126.5781 1694,127.6563 Q1693.3125,128.7188 1693.3125,130.8125 Q1693.3125,132.9063 1694,133.9844 Q1694.6875,135.0469 1696.0313,135.0469 Q1696.6563,135.0469 1697.25,134.7813 Q1697.8438,134.5 1698.4688,133.9219 L1698.4688,136.6406 Z " fill="#000000"/><text fill="#000000" font-family="sans-serif" font-size="14" lengthAdjust="spacing" textLength="136.7324" x="1709.5" y="135.8467">SamplingProcedure</text><line style="stroke:#181818;stroke-width:0.5;" x1="1681.5" x2="1848.2324" y1="147" y2="147"/><line style="stroke:#181818;stroke-width:0.5;" x1="1681.5" x2="1848.2324" y1="155" y2="155"/></g><!--class Asset--><g class="entity" data-qualified-name="Asset" data-source-line="9" id="ent0020"><rect fill="#F1F1F1" height="48" rx="2.5" ry="2.5" style="stroke:#181818;stroke-width:0.5;" width="70.2676" x="1956" y="7"/><ellipse cx="1971" cy="23" fill="#ADD1B2" rx="11" ry="11" style="stroke:#181818;stroke-width:1;"/><path d="M1973.9688,28.6406 Q1973.3906,28.9375 1972.75,29.0781 Q1972.1094,29.2344 1971.4063,29.2344 Q1968.9063,29.2344 1967.5781,27.5938 Q1966.2656,25.9375 1966.2656,22.8125 Q1966.2656,19.6875 1967.5781,18.0313 Q1968.9063,16.375 1971.4063,16.375 Q1972.1094,16.375 1972.75,16.5313 Q1973.4063,16.6875 1973.9688,16.9844 L1973.9688,19.7031 Q1973.3438,19.125 1972.75,18.8594 Q1972.1563,18.5781 1971.5313,18.5781 Q1970.1875,18.5781 1969.5,19.6563 Q1968.8125,20.7188 1968.8125,22.8125 Q1968.8125,24.9063 1969.5,25.9844 Q1970.1875,27.0469 1971.5313,27.0469 Q1972.1563,27.0469 1972.75,26.7813 Q1973.3438,26.5 1973.9688,25.9219 L1973.9688,28.6406 Z " fill="#000000"/><text fill="#000000" font-family="sans-serif" font-size="14" lengthAdjust="spacing" textLength="38.2676" x="1985" y="27.8467">Asset</text><line style="stroke:#181818;stroke-width:0.5;" x1="1957" x2="2025.2676" y1="39" y2="39"/><line style="stroke:#181818;stroke-width:0.5;" x1="1957" x2="2025.2676" y1="47" y2="47"/></g><!--class Platform--><g class="entity" data-qualified-name="Platform" data-source-line="9" id="ent0021"><rect fill="#F1F1F1" height="48" rx="2.5" ry="2.5" style="stroke:#181818;stroke-width:0.5;" width="91.2881" x="1884.5" y="115"/><ellipse cx="1899.5" cy="131" fill="#ADD1B2" rx="11" ry="11" style="stroke:#181818;stroke-width:1;"/><path d="M1902.4688,136.6406 Q1901.8906,136.9375 1901.25,137.0781 Q1900.6094,137.2344 1899.9063,137.2344 Q1897.4063,137.2344 1896.0781,135.5938 Q1894.7656,133.9375 1894.7656,130.8125 Q1894.7656,127.6875 1896.0781,126.0313 Q1897.4063,124.375 1899.9063,124.375 Q1900.6094,124.375 1901.25,124.5313 Q1901.9063,124.6875 1902.4688,124.9844 L1902.4688,127.7031 Q1901.8438,127.125 1901.25,126.8594 Q1900.6563,126.5781 1900.0313,126.5781 Q1898.6875,126.5781 1898,127.6563 Q1897.3125,128.7188 1897.3125,130.8125 Q1897.3125,132.9063 1898,133.9844 Q1898.6875,135.0469 1900.0313,135.0469 Q1900.6563,135.0469 1901.25,134.7813 Q1901.8438,134.5 1902.4688,133.9219 L1902.4688,136.6406 Z " fill="#000000"/><text fill="#000000" font-family="sans-serif" font-size="14" lengthAdjust="spacing" textLength="59.2881" x="1913.5" y="135.8467">Platform</text><line style="stroke:#181818;stroke-width:0.5;" x1="1885.5" x2="1974.7881" y1="147" y2="147"/><line style="stroke:#181818;stroke-width:0.5;" x1="1885.5" x2="1974.7881" y1="155" y2="155"/></g><!--class System--><g class="entity" data-qualified-name="System" data-source-line="10" id="ent0023"><rect fill="#F1F1F1" height="48" rx="2.5" ry="2.5" style="stroke:#181818;stroke-width:0.5;" width="84.2061" x="2011" y="115"/><ellipse cx="2026" cy="131" fill="#ADD1B2" rx="11" ry="11" style="stroke:#181818;stroke-width:1;"/><path d="M2028.9688,136.6406 Q2028.3906,136.9375 2027.75,137.0781 Q2027.1094,137.2344 2026.4063,137.2344 Q2023.9063,137.2344 2022.5781,135.5938 Q2021.2656,133.9375 2021.2656,130.8125 Q2021.2656,127.6875 2022.5781,126.0313 Q2023.9063,124.375 2026.4063,124.375 Q2027.1094,124.375 2027.75,124.5313 Q2028.4063,124.6875 2028.9688,124.9844 L2028.9688,127.7031 Q2028.3438,127.125 2027.75,126.8594 Q2027.1563,126.5781 2026.5313,126.5781 Q2025.1875,126.5781 2024.5,127.6563 Q2023.8125,128.7188 2023.8125,130.8125 Q2023.8125,132.9063 2024.5,133.9844 Q2025.1875,135.0469 2026.5313,135.0469 Q2027.1563,135.0469 2027.75,134.7813 Q2028.3438,134.5 2028.9688,133.9219 L2028.9688,136.6406 Z " fill="#000000"/><text fill="#000000" font-family="sans-serif" font-size="14" lengthAdjust="spacing" textLength="52.2061" x="2040" y="135.8467">System</text><line style="stroke:#181818;stroke-width:0.5;" x1="2012" x2="2094.2061" y1="147" y2="147"/><line style="stroke:#181818;stroke-width:0.5;" x1="2012" x2="2094.2061" y1="155" y2="155"/></g><!--class Sampler--><g class="entity" data-qualified-name="Sampler" data-source-line="10" id="ent0024"><rect fill="#F1F1F1" height="48" rx="2.5" ry="2.5" style="stroke:#181818;stroke-width:0.5;" width="90.249" x="1882" y="223"/><ellipse cx="1897" cy="239" fill="#ADD1B2" rx="11" ry="11" style="stroke:#181818;stroke-width:1;"/><path d="M1899.9688,244.6406 Q1899.3906,244.9375 1898.75,245.0781 Q1898.1094,245.2344 1897.4063,245.2344 Q1894.9063,245.2344 1893.5781,243.5938 Q1892.2656,241.9375 1892.2656,238.8125 Q1892.2656,235.6875 1893.5781,234.0313 Q1894.9063,232.375 1897.4063,232.375 Q1898.1094,232.375 1898.75,232.5313 Q1899.4063,232.6875 1899.9688,232.9844 L1899.9688,235.7031 Q1899.3438,235.125 1898.75,234.8594 Q1898.1563,234.5781 1897.5313,234.5781 Q1896.1875,234.5781 1895.5,235.6563 Q1894.8125,236.7188 1894.8125,238.8125 Q1894.8125,240.9063 1895.5,241.9844 Q1896.1875,243.0469 1897.5313,243.0469 Q1898.1563,243.0469 1898.75,242.7813 Q1899.3438,242.5 1899.9688,241.9219 L1899.9688,244.6406 Z " fill="#000000"/><text fill="#000000" font-family="sans-serif" font-size="14" lengthAdjust="spacing" textLength="58.249" x="1911" y="243.8467">Sampler</text><line style="stroke:#181818;stroke-width:0.5;" x1="1883" x2="1971.249" y1="255" y2="255"/><line style="stroke:#181818;stroke-width:0.5;" x1="1883" x2="1971.249" y1="263" y2="263"/></g><!--class Actuator--><g class="entity" data-qualified-name="Actuator" data-source-line="11" id="ent0026"><rect fill="#F1F1F1" height="48" rx="2.5" ry="2.5" style="stroke:#181818;stroke-width:0.5;" width="92.0264" x="2007" y="223"/><ellipse cx="2022" cy="239" fill="#ADD1B2" rx="11" ry="11" style="stroke:#181818;stroke-width:1;"/><path d="M2024.9688,244.6406 Q2024.3906,244.9375 2023.75,245.0781 Q2023.1094,245.2344 2022.4063,245.2344 Q2019.9063,245.2344 2018.5781,243.5938 Q2017.2656,241.9375 2017.2656,238.8125 Q2017.2656,235.6875 2018.5781,234.0313 Q2019.9063,232.375 2022.4063,232.375 Q2023.1094,232.375 2023.75,232.5313 Q2024.4063,232.6875 2024.9688,232.9844 L2024.9688,235.7031 Q2024.3438,235.125 2023.75,234.8594 Q2023.1563,234.5781 2022.5313,234.5781 Q2021.1875,234.5781 2020.5,235.6563 Q2019.8125,236.7188 2019.8125,238.8125 Q2019.8125,240.9063 2020.5,241.9844 Q2021.1875,243.0469 2022.5313,243.0469 Q2023.1563,243.0469 2023.75,242.7813 Q2024.3438,242.5 2024.9688,241.9219 L2024.9688,244.6406 Z " fill="#000000"/><text fill="#000000" font-family="sans-serif" font-size="14" lengthAdjust="spacing" textLength="60.0264" x="2036" y="243.8467">Actuator</text><line style="stroke:#181818;stroke-width:0.5;" x1="2008" x2="2098.0264" y1="255" y2="255"/><line style="stroke:#181818;stroke-width:0.5;" x1="2008" x2="2098.0264" y1="263" y2="263"/></g><!--class ExecutionCollection--><g class="entity" data-qualified-name="ExecutionCollection" data-source-line="12" id="ent0028"><rect fill="#F1F1F1" height="48" rx="2.5" ry="2.5" style="stroke:#181818;stroke-width:0.5;" width="170.3799" x="2331" y="7"/><ellipse cx="2346" cy="23" fill="#ADD1B2" rx="11" ry="11" style="stroke:#181818;stroke-width:1;"/><path d="M2348.9688,28.6406 Q2348.3906,28.9375 2347.75,29.0781 Q2347.1094,29.2344 2346.4063,29.2344 Q2343.9063,29.2344 2342.5781,27.5938 Q2341.2656,25.9375 2341.2656,22.8125 Q2341.2656,19.6875 2342.5781,18.0313 Q2343.9063,16.375 2346.4063,16.375 Q2347.1094,16.375 2347.75,16.5313 Q2348.4063,16.6875 2348.9688,16.9844 L2348.9688,19.7031 Q2348.3438,19.125 2347.75,18.8594 Q2347.1563,18.5781 2346.5313,18.5781 Q2345.1875,18.5781 2344.5,19.6563 Q2343.8125,20.7188 2343.8125,22.8125 Q2343.8125,24.9063 2344.5,25.9844 Q2345.1875,27.0469 2346.5313,27.0469 Q2347.1563,27.0469 2347.75,26.7813 Q2348.3438,26.5 2348.9688,25.9219 L2348.9688,28.6406 Z " fill="#000000"/><text fill="#000000" font-family="sans-serif" font-size="14" lengthAdjust="spacing" textLength="138.3799" x="2360" y="27.8467">ExecutionCollection</text><line style="stroke:#181818;stroke-width:0.5;" x1="2332" x2="2500.3799" y1="39" y2="39"/><line style="stroke:#181818;stroke-width:0.5;" x1="2332" x2="2500.3799" y1="47" y2="47"/></g><!--class SamplingCollection--><g class="entity" data-qualified-name="SamplingCollection" data-source-line="12" id="ent0029"><rect fill="#F1F1F1" height="48" rx="2.5" ry="2.5" style="stroke:#181818;stroke-width:0.5;" width="166.7773" x="2130.5" y="115"/><ellipse cx="2145.5" cy="131" fill="#ADD1B2" rx="11" ry="11" style="stroke:#181818;stroke-width:1;"/><path d="M2148.4688,136.6406 Q2147.8906,136.9375 2147.25,137.0781 Q2146.6094,137.2344 2145.9063,137.2344 Q2143.4063,137.2344 2142.0781,135.5938 Q2140.7656,133.9375 2140.7656,130.8125 Q2140.7656,127.6875 2142.0781,126.0313 Q2143.4063,124.375 2145.9063,124.375 Q2146.6094,124.375 2147.25,124.5313 Q2147.9063,124.6875 2148.4688,124.9844 L2148.4688,127.7031 Q2147.8438,127.125 2147.25,126.8594 Q2146.6563,126.5781 2146.0313,126.5781 Q2144.6875,126.5781 2144,127.6563 Q2143.3125,128.7188 2143.3125,130.8125 Q2143.3125,132.9063 2144,133.9844 Q2144.6875,135.0469 2146.0313,135.0469 Q2146.6563,135.0469 2147.25,134.7813 Q2147.8438,134.5 2148.4688,133.9219 L2148.4688,136.6406 Z " fill="#000000"/><text fill="#000000" font-family="sans-serif" font-size="14" lengthAdjust="spacing" textLength="134.7773" x="2159.5" y="135.8467">SamplingCollection</text><line style="stroke:#181818;stroke-width:0.5;" x1="2131.5" x2="2296.2773" y1="147" y2="147"/><line style="stroke:#181818;stroke-width:0.5;" x1="2131.5" x2="2296.2773" y1="155" y2="155"/></g><!--class Sensor--><g class="entity" data-qualified-name="Sensor" data-source-line="14" id="ent0032"><rect fill="#F1F1F1" height="48" rx="2.5" ry="2.5" style="stroke:#181818;stroke-width:0.5;" width="79.9883" x="2134" y="223"/><ellipse cx="2149" cy="239" fill="#ADD1B2" rx="11" ry="11" style="stroke:#181818;stroke-width:1;"/><path d="M2151.9688,244.6406 Q2151.3906,244.9375 2150.75,245.0781 Q2150.1094,245.2344 2149.4063,245.2344 Q2146.9063,245.2344 2145.5781,243.5938 Q2144.2656,241.9375 2144.2656,238.8125 Q2144.2656,235.6875 2145.5781,234.0313 Q2146.9063,232.375 2149.4063,232.375 Q2150.1094,232.375 2150.75,232.5313 Q2151.4063,232.6875 2151.9688,232.9844 L2151.9688,235.7031 Q2151.3438,235.125 2150.75,234.8594 Q2150.1563,234.5781 2149.5313,234.5781 Q2148.1875,234.5781 2147.5,235.6563 Q2146.8125,236.7188 2146.8125,238.8125 Q2146.8125,240.9063 2147.5,241.9844 Q2148.1875,243.0469 2149.5313,243.0469 Q2150.1563,243.0469 2150.75,242.7813 Q2151.3438,242.5 2151.9688,241.9219 L2151.9688,244.6406 Z " fill="#000000"/><text fill="#000000" font-family="sans-serif" font-size="14" lengthAdjust="spacing" textLength="47.9883" x="2163" y="243.8467">Sensor</text><line style="stroke:#181818;stroke-width:0.5;" x1="2135" x2="2212.9883" y1="255" y2="255"/><line style="stroke:#181818;stroke-width:0.5;" x1="2135" x2="2212.9883" y1="263" y2="263"/></g><!--class Execution--><g class="entity" data-qualified-name="Execution" data-source-line="15" id="ent0034"><rect fill="#F1F1F1" height="48" rx="2.5" ry="2.5" style="stroke:#181818;stroke-width:0.5;" width="101.1318" x="2888.5" y="7"/><ellipse cx="2903.5" cy="23" fill="#ADD1B2" rx="11" ry="11" style="stroke:#181818;stroke-width:1;"/><path d="M2906.4688,28.6406 Q2905.8906,28.9375 2905.25,29.0781 Q2904.6094,29.2344 2903.9063,29.2344 Q2901.4063,29.2344 2900.0781,27.5938 Q2898.7656,25.9375 2898.7656,22.8125 Q2898.7656,19.6875 2900.0781,18.0313 Q2901.4063,16.375 2903.9063,16.375 Q2904.6094,16.375 2905.25,16.5313 Q2905.9063,16.6875 2906.4688,16.9844 L2906.4688,19.7031 Q2905.8438,19.125 2905.25,18.8594 Q2904.6563,18.5781 2904.0313,18.5781 Q2902.6875,18.5781 2902,19.6563 Q2901.3125,20.7188 2901.3125,22.8125 Q2901.3125,24.9063 2902,25.9844 Q2902.6875,27.0469 2904.0313,27.0469 Q2904.6563,27.0469 2905.25,26.7813 Q2905.8438,26.5 2906.4688,25.9219 L2906.4688,28.6406 Z " fill="#000000"/><text fill="#000000" font-family="sans-serif" font-size="14" lengthAdjust="spacing" textLength="69.1318" x="2917.5" y="27.8467">Execution</text><line style="stroke:#181818;stroke-width:0.5;" x1="2889.5" x2="2988.6318" y1="39" y2="39"/><line style="stroke:#181818;stroke-width:0.5;" x1="2889.5" x2="2988.6318" y1="47" y2="47"/></g><!--class Sampling--><g class="entity" data-qualified-name="Sampling" data-source-line="15" id="ent0035"><rect fill="#F1F1F1" height="48" rx="2.5" ry="2.5" style="stroke:#181818;stroke-width:0.5;" width="97.5293" x="2756" y="115"/><ellipse cx="2771" cy="131" fill="#ADD1B2" rx="11" ry="11" style="stroke:#181818;stroke-width:1;"/><path d="M2773.9688,136.6406 Q2773.3906,136.9375 2772.75,137.0781 Q2772.1094,137.2344 2771.4063,137.2344 Q2768.9063,137.2344 2767.5781,135.5938 Q2766.2656,133.9375 2766.2656,130.8125 Q2766.2656,127.6875 2767.5781,126.0313 Q2768.9063,124.375 2771.4063,124.375 Q2772.1094,124.375 2772.75,124.5313 Q2773.4063,124.6875 2773.9688,124.9844 L2773.9688,127.7031 Q2773.3438,127.125 2772.75,126.8594 Q2772.1563,126.5781 2771.5313,126.5781 Q2770.1875,126.5781 2769.5,127.6563 Q2768.8125,128.7188 2768.8125,130.8125 Q2768.8125,132.9063 2769.5,133.9844 Q2770.1875,135.0469 2771.5313,135.0469 Q2772.1563,135.0469 2772.75,134.7813 Q2773.3438,134.5 2773.9688,133.9219 L2773.9688,136.6406 Z " fill="#000000"/><text fill="#000000" font-family="sans-serif" font-size="14" lengthAdjust="spacing" textLength="65.5293" x="2785" y="135.8467">Sampling</text><line style="stroke:#181818;stroke-width:0.5;" x1="2757" x2="2852.5293" y1="147" y2="147"/><line style="stroke:#181818;stroke-width:0.5;" x1="2757" x2="2852.5293" y1="155" y2="155"/></g><!--class Actuation--><g class="entity" data-qualified-name="Actuation" data-source-line="16" id="ent0037"><rect fill="#F1F1F1" height="48" rx="2.5" ry="2.5" style="stroke:#181818;stroke-width:0.5;" width="99.0332" x="2889.5" y="115"/><ellipse cx="2904.5" cy="131" fill="#ADD1B2" rx="11" ry="11" style="stroke:#181818;stroke-width:1;"/><path d="M2907.4688,136.6406 Q2906.8906,136.9375 2906.25,137.0781 Q2905.6094,137.2344 2904.9063,137.2344 Q2902.4063,137.2344 2901.0781,135.5938 Q2899.7656,133.9375 2899.7656,130.8125 Q2899.7656,127.6875 2901.0781,126.0313 Q2902.4063,124.375 2904.9063,124.375 Q2905.6094,124.375 2906.25,124.5313 Q2906.9063,124.6875 2907.4688,124.9844 L2907.4688,127.7031 Q2906.8438,127.125 2906.25,126.8594 Q2905.6563,126.5781 2905.0313,126.5781 Q2903.6875,126.5781 2903,127.6563 Q2902.3125,128.7188 2902.3125,130.8125 Q2902.3125,132.9063 2903,133.9844 Q2903.6875,135.0469 2905.0313,135.0469 Q2905.6563,135.0469 2906.25,134.7813 Q2906.8438,134.5 2907.4688,133.9219 L2907.4688,136.6406 Z " fill="#000000"/><text fill="#000000" font-family="sans-serif" font-size="14" lengthAdjust="spacing" textLength="67.0332" x="2918.5" y="135.8467">Actuation</text><line style="stroke:#181818;stroke-width:0.5;" x1="2890.5" x2="2987.5332" y1="147" y2="147"/><line style="stroke:#181818;stroke-width:0.5;" x1="2890.5" x2="2987.5332" y1="155" y2="155"/></g><!--class ActuationCollection--><g class="entity" data-qualified-name="ActuationCollection" data-source-line="17" id="ent0039"><rect fill="#F1F1F1" height="48" rx="2.5" ry="2.5" style="stroke:#181818;stroke-width:0.5;" width="168.2813" x="2332" y="115"/><ellipse cx="2347" cy="131" fill="#ADD1B2" rx="11" ry="11" style="stroke:#181818;stroke-width:1;"/><path d="M2349.9688,136.6406 Q2349.3906,136.9375 2348.75,137.0781 Q2348.1094,137.2344 2347.4063,137.2344 Q2344.9063,137.2344 2343.5781,135.5938 Q2342.2656,133.9375 2342.2656,130.8125 Q2342.2656,127.6875 2343.5781,126.0313 Q2344.9063,124.375 2347.4063,124.375 Q2348.1094,124.375 2348.75,124.5313 Q2349.4063,124.6875 2349.9688,124.9844 L2349.9688,127.7031 Q2349.3438,127.125 2348.75,126.8594 Q2348.1563,126.5781 2347.5313,126.5781 Q2346.1875,126.5781 2345.5,127.6563 Q2344.8125,128.7188 2344.8125,130.8125 Q2344.8125,132.9063 2345.5,133.9844 Q2346.1875,135.0469 2347.5313,135.0469 Q2348.1563,135.0469 2348.75,134.7813 Q2349.3438,134.5 2349.9688,133.9219 L2349.9688,136.6406 Z " fill="#000000"/><text fill="#000000" font-family="sans-serif" font-size="14" lengthAdjust="spacing" textLength="136.2813" x="2361" y="135.8467">ActuationCollection</text><line style="stroke:#181818;stroke-width:0.5;" x1="2333" x2="2499.2813" y1="147" y2="147"/><line style="stroke:#181818;stroke-width:0.5;" x1="2333" x2="2499.2813" y1="155" y2="155"/></g><!--class ObservationCollection--><g class="entity" data-qualified-name="ObservationCollection" data-source-line="18" id="ent0041"><rect fill="#F1F1F1" height="48" rx="2.5" ry="2.5" style="stroke:#181818;stroke-width:0.5;" width="186.499" x="2535" y="115"/><ellipse cx="2550" cy="131" fill="#ADD1B2" rx="11" ry="11" style="stroke:#181818;stroke-width:1;"/><path d="M2552.9688,136.6406 Q2552.3906,136.9375 2551.75,137.0781 Q2551.1094,137.2344 2550.4063,137.2344 Q2547.9063,137.2344 2546.5781,135.5938 Q2545.2656,133.9375 2545.2656,130.8125 Q2545.2656,127.6875 2546.5781,126.0313 Q2547.9063,124.375 2550.4063,124.375 Q2551.1094,124.375 2551.75,124.5313 Q2552.4063,124.6875 2552.9688,124.9844 L2552.9688,127.7031 Q2552.3438,127.125 2551.75,126.8594 Q2551.1563,126.5781 2550.5313,126.5781 Q2549.1875,126.5781 2548.5,127.6563 Q2547.8125,128.7188 2547.8125,130.8125 Q2547.8125,132.9063 2548.5,133.9844 Q2549.1875,135.0469 2550.5313,135.0469 Q2551.1563,135.0469 2551.75,134.7813 Q2552.3438,134.5 2552.9688,133.9219 L2552.9688,136.6406 Z " fill="#000000"/><text fill="#000000" font-family="sans-serif" font-size="14" lengthAdjust="spacing" textLength="154.499" x="2564" y="135.8467">ObservationCollection</text><line style="stroke:#181818;stroke-width:0.5;" x1="2536" x2="2720.499" y1="147" y2="147"/><line style="stroke:#181818;stroke-width:0.5;" x1="2536" x2="2720.499" y1="155" y2="155"/></g><!--class Observation--><g class="entity" data-qualified-name="Observation" data-source-line="19" id="ent0043"><rect fill="#F1F1F1" height="48" rx="2.5" ry="2.5" style="stroke:#181818;stroke-width:0.5;" width="117.251" x="3023.5" y="115"/><ellipse cx="3038.5" cy="131" fill="#ADD1B2" rx="11" ry="11" style="stroke:#181818;stroke-width:1;"/><path d="M3041.4688,136.6406 Q3040.8906,136.9375 3040.25,137.0781 Q3039.6094,137.2344 3038.9063,137.2344 Q3036.4063,137.2344 3035.0781,135.5938 Q3033.7656,133.9375 3033.7656,130.8125 Q3033.7656,127.6875 3035.0781,126.0313 Q3036.4063,124.375 3038.9063,124.375 Q3039.6094,124.375 3040.25,124.5313 Q3040.9063,124.6875 3041.4688,124.9844 L3041.4688,127.7031 Q3040.8438,127.125 3040.25,126.8594 Q3039.6563,126.5781 3039.0313,126.5781 Q3037.6875,126.5781 3037,127.6563 Q3036.3125,128.7188 3036.3125,130.8125 Q3036.3125,132.9063 3037,133.9844 Q3037.6875,135.0469 3039.0313,135.0469 Q3039.6563,135.0469 3040.25,134.7813 Q3040.8438,134.5 3041.4688,133.9219 L3041.4688,136.6406 Z " fill="#000000"/><text fill="#000000" font-family="sans-serif" font-size="14" lengthAdjust="spacing" textLength="85.251" x="3052.5" y="135.8467">Observation</text><line style="stroke:#181818;stroke-width:0.5;" x1="3024.5" x2="3139.751" y1="147" y2="147"/><line style="stroke:#181818;stroke-width:0.5;" x1="3024.5" x2="3139.751" y1="155" y2="155"/></g><!--class FeatureOfInterest--><g class="entity" data-qualified-name="FeatureOfInterest" data-source-line="20" id="ent0045"><rect fill="#F1F1F1" height="48" rx="2.5" ry="2.5" style="stroke:#181818;stroke-width:0.5;" width="156.1816" x="7" y="7"/><ellipse cx="22" cy="23" fill="#ADD1B2" rx="11" ry="11" style="stroke:#181818;stroke-width:1;"/><path d="M24.9688,28.6406 Q24.3906,28.9375 23.75,29.0781 Q23.1094,29.2344 22.4063,29.2344 Q19.9063,29.2344 18.5781,27.5938 Q17.2656,25.9375 17.2656,22.8125 Q17.2656,19.6875 18.5781,18.0313 Q19.9063,16.375 22.4063,16.375 Q23.1094,16.375 23.75,16.5313 Q24.4063,16.6875 24.9688,16.9844 L24.9688,19.7031 Q24.3438,19.125 23.75,18.8594 Q23.1563,18.5781 22.5313,18.5781 Q21.1875,18.5781 20.5,19.6563 Q19.8125,20.7188 19.8125,22.8125 Q19.8125,24.9063 20.5,25.9844 Q21.1875,27.0469 22.5313,27.0469 Q23.1563,27.0469 23.75,26.7813 Q24.3438,26.5 24.9688,25.9219 L24.9688,28.6406 Z " fill="#000000"/><text fill="#000000" font-family="sans-serif" font-size="14" lengthAdjust="spacing" textLength="124.1816" x="36" y="27.8467">FeatureOfInterest</text><line style="stroke:#181818;stroke-width:0.5;" x1="8" x2="162.1816" y1="39" y2="39"/><line style="stroke:#181818;stroke-width:0.5;" x1="8" x2="162.1816" y1="47" y2="47"/></g><!--class SampleCollection--><g class="entity" data-qualified-name="SampleCollection" data-source-line="21" id="ent0046"><rect fill="#F1F1F1" height="48" rx="2.5" ry="2.5" style="stroke:#181818;stroke-width:0.5;" width="153.7412" x="198" y="7"/><ellipse cx="213" cy="23" fill="#ADD1B2" rx="11" ry="11" style="stroke:#181818;stroke-width:1;"/><path d="M215.9688,28.6406 Q215.3906,28.9375 214.75,29.0781 Q214.1094,29.2344 213.4063,29.2344 Q210.9063,29.2344 209.5781,27.5938 Q208.2656,25.9375 208.2656,22.8125 Q208.2656,19.6875 209.5781,18.0313 Q210.9063,16.375 213.4063,16.375 Q214.1094,16.375 214.75,16.5313 Q215.4063,16.6875 215.9688,16.9844 L215.9688,19.7031 Q215.3438,19.125 214.75,18.8594 Q214.1563,18.5781 213.5313,18.5781 Q212.1875,18.5781 211.5,19.6563 Q210.8125,20.7188 210.8125,22.8125 Q210.8125,24.9063 211.5,25.9844 Q212.1875,27.0469 213.5313,27.0469 Q214.1563,27.0469 214.75,26.7813 Q215.3438,26.5 215.9688,25.9219 L215.9688,28.6406 Z " fill="#000000"/><text fill="#000000" font-family="sans-serif" font-size="14" lengthAdjust="spacing" textLength="121.7412" x="227" y="27.8467">SampleCollection</text><line style="stroke:#181818;stroke-width:0.5;" x1="199" x2="350.7412" y1="39" y2="39"/><line style="stroke:#181818;stroke-width:0.5;" x1="199" x2="350.7412" y1="47" y2="47"/></g><!--class Result--><g class="entity" data-qualified-name="Result" data-source-line="22" id="ent0047"><rect fill="#F1F1F1" height="48" rx="2.5" ry="2.5" style="stroke:#181818;stroke-width:0.5;" width="75.8867" x="387" y="7"/><ellipse cx="402" cy="23" fill="#ADD1B2" rx="11" ry="11" style="stroke:#181818;stroke-width:1;"/><path d="M404.9688,28.6406 Q404.3906,28.9375 403.75,29.0781 Q403.1094,29.2344 402.4063,29.2344 Q399.9063,29.2344 398.5781,27.5938 Q397.2656,25.9375 397.2656,22.8125 Q397.2656,19.6875 398.5781,18.0313 Q399.9063,16.375 402.4063,16.375 Q403.1094,16.375 403.75,16.5313 Q404.4063,16.6875 404.9688,16.9844 L404.9688,19.7031 Q404.3438,19.125 403.75,18.8594 Q403.1563,18.5781 402.5313,18.5781 Q401.1875,18.5781 400.5,19.6563 Q399.8125,20.7188 399.8125,22.8125 Q399.8125,24.9063 400.5,25.9844 Q401.1875,27.0469 402.5313,27.0469 Q403.1563,27.0469 403.75,26.7813 Q404.3438,26.5 404.9688,25.9219 L404.9688,28.6406 Z " fill="#000000"/><text fill="#000000" font-family="sans-serif" font-size="14" lengthAdjust="spacing" textLength="43.8867" x="416" y="27.8467">Result</text><line style="stroke:#181818;stroke-width:0.5;" x1="388" x2="461.8867" y1="39" y2="39"/><line style="stroke:#181818;stroke-width:0.5;" x1="388" x2="461.8867" y1="47" y2="47"/></g><!--class Stimulus--><g class="entity" data-qualified-name="Stimulus" data-source-line="23" id="ent0048"><rect fill="#F1F1F1" height="48" rx="2.5" ry="2.5" style="stroke:#181818;stroke-width:0.5;" width="92.833" x="38.5" y="115"/><ellipse cx="53.5" cy="131" fill="#ADD1B2" rx="11" ry="11" style="stroke:#181818;stroke-width:1;"/><path d="M56.4688,136.6406 Q55.8906,136.9375 55.25,137.0781 Q54.6094,137.2344 53.9063,137.2344 Q51.4063,137.2344 50.0781,135.5938 Q48.7656,133.9375 48.7656,130.8125 Q48.7656,127.6875 50.0781,126.0313 Q51.4063,124.375 53.9063,124.375 Q54.6094,124.375 55.25,124.5313 Q55.9063,124.6875 56.4688,124.9844 L56.4688,127.7031 Q55.8438,127.125 55.25,126.8594 Q54.6563,126.5781 54.0313,126.5781 Q52.6875,126.5781 52,127.6563 Q51.3125,128.7188 51.3125,130.8125 Q51.3125,132.9063 52,133.9844 Q52.6875,135.0469 54.0313,135.0469 Q54.6563,135.0469 55.25,134.7813 Q55.8438,134.5 56.4688,133.9219 L56.4688,136.6406 Z " fill="#000000"/><text fill="#000000" font-family="sans-serif" font-size="14" lengthAdjust="spacing" textLength="60.833" x="67.5" y="135.8467">Stimulus</text><line style="stroke:#181818;stroke-width:0.5;" x1="39.5" x2="130.333" y1="147" y2="147"/><line style="stroke:#181818;stroke-width:0.5;" x1="39.5" x2="130.333" y1="155" y2="155"/></g><!--class Deployment--><g class="entity" data-qualified-name="Deployment" data-source-line="24" id="ent0049"><rect fill="#F1F1F1" height="48" rx="2.5" ry="2.5" style="stroke:#181818;stroke-width:0.5;" width="117.6338" x="167" y="115"/><ellipse cx="182" cy="131" fill="#ADD1B2" rx="11" ry="11" style="stroke:#181818;stroke-width:1;"/><path d="M184.9688,136.6406 Q184.3906,136.9375 183.75,137.0781 Q183.1094,137.2344 182.4063,137.2344 Q179.9063,137.2344 178.5781,135.5938 Q177.2656,133.9375 177.2656,130.8125 Q177.2656,127.6875 178.5781,126.0313 Q179.9063,124.375 182.4063,124.375 Q183.1094,124.375 183.75,124.5313 Q184.4063,124.6875 184.9688,124.9844 L184.9688,127.7031 Q184.3438,127.125 183.75,126.8594 Q183.1563,126.5781 182.5313,126.5781 Q181.1875,126.5781 180.5,127.6563 Q179.8125,128.7188 179.8125,130.8125 Q179.8125,132.9063 180.5,133.9844 Q181.1875,135.0469 182.5313,135.0469 Q183.1563,135.0469 183.75,134.7813 Q184.3438,134.5 184.9688,133.9219 L184.9688,136.6406 Z " fill="#000000"/><text fill="#000000" font-family="sans-serif" font-size="14" lengthAdjust="spacing" textLength="85.6338" x="196" y="135.8467">Deployment</text><line style="stroke:#181818;stroke-width:0.5;" x1="168" x2="283.6338" y1="147" y2="147"/><line style="stroke:#181818;stroke-width:0.5;" x1="168" x2="283.6338" y1="155" y2="155"/></g><!--reverse link Property to ActuatableProperty--><g class="link" data-entity-1="ent0001" data-entity-2="ent0002" data-link-type="extension" data-source-line="1" id="lnk3"><path codeLine="1" d="M524.112,64.4041 C495.192,82.1241 470.74,97.11 441.76,114.86" fill="none" id="Property-backto-ActuatableProperty" style="stroke:#181818;stroke-width:1;"/><polygon fill="none" points="539.46,55,520.9772,59.2881,527.2467,69.5201,539.46,55" style="stroke:#181818;stroke-width:1;stroke-linejoin:miter;stroke-miterlimit:10;"/></g><!--reverse link Sample to MaterialSample--><g class="link" data-entity-1="ent0004" data-entity-2="ent0005" data-link-type="extension" data-source-line="2" id="lnk6"><path codeLine="2" d="M920.3567,64.4445 C891.6067,82.1645 867.35,97.11 838.55,114.86" fill="none" id="Sample-backto-MaterialSample" style="stroke:#181818;stroke-width:1;"/><polygon fill="none" points="935.68,55,917.2086,59.3367,923.5049,69.5522,935.68,55" style="stroke:#181818;stroke-width:1;stroke-linejoin:miter;stroke-miterlimit:10;"/></g><!--reverse link Property to ObservableProperty--><g class="link" data-entity-1="ent0001" data-entity-2="ent0007" data-link-type="extension" data-source-line="3" id="lnk8"><path codeLine="3" d="M589.1409,72.2323 C594.4709,89.8923 596.6,96.94 601.96,114.68" fill="none" id="Property-backto-ObservableProperty" style="stroke:#181818;stroke-width:1;"/><polygon fill="none" points="583.94,55,583.3968,73.9659,594.885,70.4986,583.94,55" style="stroke:#181818;stroke-width:1;stroke-linejoin:miter;stroke-miterlimit:10;"/></g><!--reverse link Sample to SpatialSample--><g class="link" data-entity-1="ent0004" data-entity-2="ent0009" data-link-type="extension" data-source-line="4" id="lnk10"><path codeLine="4" d="M973,73 C973,90.66 973,96.94 973,114.68" fill="none" id="Sample-backto-SpatialSample" style="stroke:#181818;stroke-width:1;"/><polygon fill="none" points="973,55,967,73,979,73,973,55" style="stroke:#181818;stroke-width:1;stroke-linejoin:miter;stroke-miterlimit:10;"/></g><!--reverse link Sample to StatisticalSample--><g class="link" data-entity-1="ent0004" data-entity-2="ent0011" data-link-type="extension" data-source-line="5" id="lnk12"><path codeLine="5" d="M1027.3276,64.1725 C1057.2476,81.8925 1082.95,97.11 1112.93,114.86" fill="none" id="Sample-backto-StatisticalSample" style="stroke:#181818;stroke-width:1;"/><polygon fill="none" points="1011.84,55,1024.2701,69.335,1030.3851,59.0099,1011.84,55" style="stroke:#181818;stroke-width:1;stroke-linejoin:miter;stroke-miterlimit:10;"/></g><!--reverse link Procedure to ActuatingProcedure--><g class="link" data-entity-1="ent0013" data-entity-2="ent0014" data-link-type="extension" data-source-line="6" id="lnk15"><path codeLine="6" d="M1496.8326,63.1732 C1462.0626,80.8932 1430.24,97.11 1395.4,114.86" fill="none" id="Procedure-backto-ActuatingProcedure" style="stroke:#181818;stroke-width:1;"/><polygon fill="none" points="1512.87,55,1494.1082,57.8274,1499.557,68.519,1512.87,55" style="stroke:#181818;stroke-width:1;stroke-linejoin:miter;stroke-miterlimit:10;"/></g><!--reverse link Procedure to ObservingProcedure--><g class="link" data-entity-1="ent0013" data-entity-2="ent0016" data-link-type="extension" data-source-line="7" id="lnk17"><path codeLine="7" d="M1558,73 C1558,90.66 1558,96.94 1558,114.68" fill="none" id="Procedure-backto-ObservingProcedure" style="stroke:#181818;stroke-width:1;"/><polygon fill="none" points="1558,55,1552,73,1564,73,1558,55" style="stroke:#181818;stroke-width:1;stroke-linejoin:miter;stroke-miterlimit:10;"/></g><!--reverse link Procedure to SamplingProcedure--><g class="link" data-entity-1="ent0013" data-entity-2="ent0018" data-link-type="extension" data-source-line="8" id="lnk19"><path codeLine="8" d="M1618.9411,63.205 C1653.5411,80.925 1685.15,97.11 1719.81,114.86" fill="none" id="Procedure-backto-SamplingProcedure" style="stroke:#181818;stroke-width:1;"/><polygon fill="none" points="1602.92,55,1616.2061,68.5454,1621.6762,57.8647,1602.92,55" style="stroke:#181818;stroke-width:1;stroke-linejoin:miter;stroke-miterlimit:10;"/></g><!--reverse link Asset to Platform--><g class="link" data-entity-1="ent0020" data-entity-2="ent0021" data-link-type="extension" data-source-line="9" id="lnk22"><path codeLine="9" d="M1968.7839,70.6022 C1958.6239,88.2622 1953.63,96.94 1943.42,114.68" fill="none" id="Asset-backto-Platform" style="stroke:#181818;stroke-width:1;"/><polygon fill="none" points="1977.76,55,1963.5831,67.6102,1973.9846,73.5943,1977.76,55" style="stroke:#181818;stroke-width:1;stroke-linejoin:miter;stroke-miterlimit:10;"/></g><!--reverse link System to Sampler--><g class="link" data-entity-1="ent0023" data-entity-2="ent0024" data-link-type="extension" data-source-line="10" id="lnk25"><path codeLine="10" d="M2011.8865,174.5884 C1990.8965,192.2484 1975.81,204.94 1954.72,222.68" fill="none" id="System-backto-Sampler" style="stroke:#181818;stroke-width:1;"/><polygon fill="none" points="2025.66,163,2008.0237,169.9972,2015.7493,179.1795,2025.66,163" style="stroke:#181818;stroke-width:1;stroke-linejoin:miter;stroke-miterlimit:10;"/></g><!--reverse link System to Actuator--><g class="link" data-entity-1="ent0023" data-entity-2="ent0026" data-link-type="extension" data-source-line="11" id="lnk27"><path codeLine="11" d="M2053,181 C2053,198.66 2053,204.94 2053,222.68" fill="none" id="System-backto-Actuator" style="stroke:#181818;stroke-width:1;"/><polygon fill="none" points="2053,163,2047,181,2059,181,2053,163" style="stroke:#181818;stroke-width:1;stroke-linejoin:miter;stroke-miterlimit:10;"/></g><!--reverse link ExecutionCollection to SamplingCollection--><g class="link" data-entity-1="ent0028" data-entity-2="ent0029" data-link-type="extension" data-source-line="12" id="lnk30"><path codeLine="12" d="M2356.231,63.3636 C2322.461,81.0836 2291.93,97.11 2258.09,114.86" fill="none" id="ExecutionCollection-backto-SamplingCollection" style="stroke:#181818;stroke-width:1;"/><polygon fill="none" points="2372.17,55,2353.4432,58.0506,2359.0189,68.6766,2372.17,55" style="stroke:#181818;stroke-width:1;stroke-linejoin:miter;stroke-miterlimit:10;"/></g><!--reverse link Asset to System--><g class="link" data-entity-1="ent0020" data-entity-2="ent0023" data-link-type="extension" data-source-line="13" id="lnk31"><path codeLine="13" d="M2013.5383,70.5372 C2023.8683,88.1972 2028.98,96.94 2039.36,114.68" fill="none" id="Asset-backto-System" style="stroke:#181818;stroke-width:1;"/><polygon fill="none" points="2004.45,55,2008.3592,73.5666,2018.7173,67.5077,2004.45,55" style="stroke:#181818;stroke-width:1;stroke-linejoin:miter;stroke-miterlimit:10;"/></g><!--reverse link System to Sensor--><g class="link" data-entity-1="ent0023" data-entity-2="ent0032" data-link-type="extension" data-source-line="14" id="lnk33"><path codeLine="14" d="M2092.7968,174.864 C2112.9468,192.524 2127.13,204.94 2147.38,222.68" fill="none" id="System-backto-Sensor" style="stroke:#181818;stroke-width:1;"/><polygon fill="none" points="2079.26,163,2088.8421,179.3763,2096.7515,170.3518,2079.26,163" style="stroke:#181818;stroke-width:1;stroke-linejoin:miter;stroke-miterlimit:10;"/></g><!--reverse link Execution to Sampling--><g class="link" data-entity-1="ent0034" data-entity-2="ent0035" data-link-type="extension" data-source-line="15" id="lnk36"><path codeLine="15" d="M2895.8041,66.1688 C2873.4841,83.8288 2856.91,96.94 2834.48,114.68" fill="none" id="Execution-backto-Sampling" style="stroke:#181818;stroke-width:1;"/><polygon fill="none" points="2909.92,55,2892.0812,61.4635,2899.527,70.8741,2909.92,55" style="stroke:#181818;stroke-width:1;stroke-linejoin:miter;stroke-miterlimit:10;"/></g><!--reverse link Execution to Actuation--><g class="link" data-entity-1="ent0034" data-entity-2="ent0037" data-link-type="extension" data-source-line="16" id="lnk38"><path codeLine="16" d="M2939,73 C2939,90.66 2939,96.94 2939,114.68" fill="none" id="Execution-backto-Actuation" style="stroke:#181818;stroke-width:1;"/><polygon fill="none" points="2939,55,2933,73,2945,73,2939,55" style="stroke:#181818;stroke-width:1;stroke-linejoin:miter;stroke-miterlimit:10;"/></g><!--reverse link ExecutionCollection to ActuationCollection--><g class="link" data-entity-1="ent0028" data-entity-2="ent0039" data-link-type="extension" data-source-line="17" id="lnk40"><path codeLine="17" d="M2416,73 C2416,90.66 2416,96.94 2416,114.68" fill="none" id="ExecutionCollection-backto-ActuationCollection" style="stroke:#181818;stroke-width:1;"/><polygon fill="none" points="2416,55,2410,73,2422,73,2416,55" style="stroke:#181818;stroke-width:1;stroke-linejoin:miter;stroke-miterlimit:10;"/></g><!--reverse link ExecutionCollection to ObservationCollection--><g class="link" data-entity-1="ent0028" data-entity-2="ent0041" data-link-type="extension" data-source-line="18" id="lnk42"><path codeLine="18" d="M2478.0997,63.0498 C2513.5397,80.7698 2546.22,97.11 2581.72,114.86" fill="none" id="ExecutionCollection-backto-ObservationCollection" style="stroke:#181818;stroke-width:1;"/><polygon fill="none" points="2462,55,2475.4164,68.4164,2480.783,57.6833,2462,55" style="stroke:#181818;stroke-width:1;stroke-linejoin:miter;stroke-miterlimit:10;"/></g><!--reverse link Execution to Observation--><g class="link" data-entity-1="ent0034" data-entity-2="ent0043" data-link-type="extension" data-source-line="19" id="lnk44"><path codeLine="19" d="M2984.4895,65.7202 C3008.3095,83.3802 3026.61,96.94 3050.54,114.68" fill="none" id="Execution-backto-Observation" style="stroke:#181818;stroke-width:1;"/><polygon fill="none" points="2970.03,55,2980.9161,70.54,2988.0629,60.9004,2970.03,55" style="stroke:#181818;stroke-width:1;stroke-linejoin:miter;stroke-miterlimit:10;"/></g><?plantuml-src VL9RRiGW4Fld5Bd0tg0_gpwaVbGRDIUOfTuAQO286Qf6wk6R5fI5hT8_i3ssDJ2cE2FfCjnz7Gx3qMecfJDZhBYPoC-CGh-G8ZdYWfcncpsT1UbZTtQQIQ-Z7QCh8-fiQspnbXFQLYwyR_YjecJ_f_XrxWH74MWXHoQznEJDj8Z2DnD87LQQn6GUFs6pkXZk8pFipwdFkU9jKF7gOn2aDUnjRl6wYjLrjy4cQIhiYkkZxSd_Y8nb4XcUGBhky7Hv3kkFW6Z5oyuQfmA_GZ9l6dK-SvPwVS3CSV48-Wq0?></g></svg>