<svg xmlns="http://www.w3.org/2000/svg" xmlns:xlink="http://www.w3.org/1999/xlink" contentStyleType="text/css" data-diagram-type="CLASS" height="286px" preserveAspectRatio="none" style="width:3319px;height:286px;background:#FFFFFF;" version="1.1" viewBox="0 0 3319 286" width="3319px" zoomAndPan="magnify"><?plantuml 1.2026.6?><defs/><g><!--class Property--><g class="entity" data-qualified-name="Property" data-source-line="1" id="ent0001"><rect fill="#F1F1F1" height="48" rx="2.5" ry="2.5" style="stroke:#181818;stroke-width:0.5;" width="91.7939" x="624" y="7"/><ellipse cx="639" cy="23" fill="#ADD1B2" rx="11" ry="11" style="stroke:#181818;stroke-width:1;"/><path d="M641.9688,28.6406 Q641.3906,28.9375 640.75,29.0781 Q640.1094,29.2344 639.4063,29.2344 Q636.9063,29.2344 635.5781,27.5938 Q634.2656,25.9375 634.2656,22.8125 Q634.2656,19.6875 635.5781,18.0313 Q636.9063,16.375 639.4063,16.375 Q640.1094,16.375 640.75,16.5313 Q641.4063,16.6875 641.9688,16.9844 L641.9688,19.7031 Q641.3438,19.125 640.75,18.8594 Q640.1563,18.5781 639.5313,18.5781 Q638.1875,18.5781 637.5,19.6563 Q636.8125,20.7188 636.8125,22.8125 Q636.8125,24.9063 637.5,25.9844 Q638.1875,27.0469 639.5313,27.0469 Q640.1563,27.0469 640.75,26.7813 Q641.3438,26.5 641.9688,25.9219 L641.9688,28.6406 Z " fill="#000000"/><text fill="#000000" font-family="sans-serif" font-size="14" lengthAdjust="spacing" textLength="59.7939" x="653" y="27.8467">Property</text><line style="stroke:#181818;stroke-width:0.5;" x1="625" x2="714.7939" y1="39" y2="39"/><line style="stroke:#181818;stroke-width:0.5;" x1="625" x2="714.7939" y1="47" y2="47"/></g><!--class ActuatableProperty--><g class="entity" data-qualified-name="ActuatableProperty" data-source-line="1" id="ent0002"><rect fill="#F1F1F1" height="48" rx="2.5" ry="2.5" style="stroke:#181818;stroke-width:0.5;" width="167.4678" x="484.5" y="115"/><ellipse cx="499.5" cy="131" fill="#ADD1B2" rx="11" ry="11" style="stroke:#181818;stroke-width:1;"/><path d="M502.4688,136.6406 Q501.8906,136.9375 501.25,137.0781 Q500.6094,137.2344 499.9063,137.2344 Q497.4063,137.2344 496.0781,135.5938 Q494.7656,133.9375 494.7656,130.8125 Q494.7656,127.6875 496.0781,126.0313 Q497.4063,124.375 499.9063,124.375 Q500.6094,124.375 501.25,124.5313 Q501.9063,124.6875 502.4688,124.9844 L502.4688,127.7031 Q501.8438,127.125 501.25,126.8594 Q500.6563,126.5781 500.0313,126.5781 Q498.6875,126.5781 498,127.6563 Q497.3125,128.7188 497.3125,130.8125 Q497.3125,132.9063 498,133.9844 Q498.6875,135.0469 500.0313,135.0469 Q500.6563,135.0469 501.25,134.7813 Q501.8438,134.5 502.4688,133.9219 L502.4688,136.6406 Z " fill="#000000"/><text fill="#000000" font-family="sans-serif" font-size="14" lengthAdjust="spacing" textLength="135.4678" x="513.5" y="135.8467">ActuatableProperty</text><line style="stroke:#181818;stroke-width:0.5;" x1="485.5" x2="650.9678" y1="147" y2="147"/><line style="stroke:#181818;stroke-width:0.5;" x1="485.5" x2="650.9678" y1="155" y2="155"/></g><!--class Sample--><g class="entity" data-qualified-name="Sample" data-source-line="2" id="ent0004"><rect fill="#F1F1F1" height="48" rx="2.5" ry="2.5" style="stroke:#181818;stroke-width:0.5;" width="84.4932" x="1095" y="7"/><ellipse cx="1110" cy="23" fill="#ADD1B2" rx="11" ry="11" style="stroke:#181818;stroke-width:1;"/><path d="M1112.9688,28.6406 Q1112.3906,28.9375 1111.75,29.0781 Q1111.1094,29.2344 1110.4063,29.2344 Q1107.9063,29.2344 1106.5781,27.5938 Q1105.2656,25.9375 1105.2656,22.8125 Q1105.2656,19.6875 1106.5781,18.0313 Q1107.9063,16.375 1110.4063,16.375 Q1111.1094,16.375 1111.75,16.5313 Q1112.4063,16.6875 1112.9688,16.9844 L1112.9688,19.7031 Q1112.3438,19.125 1111.75,18.8594 Q1111.1563,18.5781 1110.5313,18.5781 Q1109.1875,18.5781 1108.5,19.6563 Q1107.8125,20.7188 1107.8125,22.8125 Q1107.8125,24.9063 1108.5,25.9844 Q1109.1875,27.0469 1110.5313,27.0469 Q1111.1563,27.0469 1111.75,26.7813 Q1112.3438,26.5 1112.9688,25.9219 L1112.9688,28.6406 Z " fill="#000000"/><text fill="#000000" font-family="sans-serif" font-size="14" lengthAdjust="spacing" textLength="52.4932" x="1124" y="27.8467">Sample</text><line style="stroke:#181818;stroke-width:0.5;" x1="1096" x2="1178.4932" y1="39" y2="39"/><line style="stroke:#181818;stroke-width:0.5;" x1="1096" x2="1178.4932" y1="47" y2="47"/></g><!--class MaterialSample--><g class="entity" data-qualified-name="MaterialSample" data-source-line="2" id="ent0005"><rect fill="#F1F1F1" height="48" rx="2.5" ry="2.5" style="stroke:#181818;stroke-width:0.5;" width="141.3682" x="894.5" y="115"/><ellipse cx="909.5" cy="131" fill="#ADD1B2" rx="11" ry="11" style="stroke:#181818;stroke-width:1;"/><path d="M912.4688,136.6406 Q911.8906,136.9375 911.25,137.0781 Q910.6094,137.2344 909.9063,137.2344 Q907.4063,137.2344 906.0781,135.5938 Q904.7656,133.9375 904.7656,130.8125 Q904.7656,127.6875 906.0781,126.0313 Q907.4063,124.375 909.9063,124.375 Q910.6094,124.375 911.25,124.5313 Q911.9063,124.6875 912.4688,124.9844 L912.4688,127.7031 Q911.8438,127.125 911.25,126.8594 Q910.6563,126.5781 910.0313,126.5781 Q908.6875,126.5781 908,127.6563 Q907.3125,128.7188 907.3125,130.8125 Q907.3125,132.9063 908,133.9844 Q908.6875,135.0469 910.0313,135.0469 Q910.6563,135.0469 911.25,134.7813 Q911.8438,134.5 912.4688,133.9219 L912.4688,136.6406 Z " fill="#000000"/><text fill="#000000" font-family="sans-serif" font-size="14" lengthAdjust="spacing" textLength="109.3682" x="923.5" y="135.8467">MaterialSample</text><line style="stroke:#181818;stroke-width:0.5;" x1="895.5" x2="1034.8682" y1="147" y2="147"/><line style="stroke:#181818;stroke-width:0.5;" x1="895.5" x2="1034.8682" y1="155" y2="155"/></g><!--class SpatialSample--><g class="entity" data-qualified-name="SpatialSample" data-source-line="3" id="ent0007"><rect fill="#F1F1F1" height="48" rx="2.5" ry="2.5" style="stroke:#181818;stroke-width:0.5;" width="132.6934" x="1070.5" y="115"/><ellipse cx="1085.5" cy="131" fill="#ADD1B2" rx="11" ry="11" style="stroke:#181818;stroke-width:1;"/><path d="M1088.4688,136.6406 Q1087.8906,136.9375 1087.25,137.0781 Q1086.6094,137.2344 1085.9063,137.2344 Q1083.4063,137.2344 1082.0781,135.5938 Q1080.7656,133.9375 1080.7656,130.8125 Q1080.7656,127.6875 1082.0781,126.0313 Q1083.4063,124.375 1085.9063,124.375 Q1086.6094,124.375 1087.25,124.5313 Q1087.9063,124.6875 1088.4688,124.9844 L1088.4688,127.7031 Q1087.8438,127.125 1087.25,126.8594 Q1086.6563,126.5781 1086.0313,126.5781 Q1084.6875,126.5781 1084,127.6563 Q1083.3125,128.7188 1083.3125,130.8125 Q1083.3125,132.9063 1084,133.9844 Q1084.6875,135.0469 1086.0313,135.0469 Q1086.6563,135.0469 1087.25,134.7813 Q1087.8438,134.5 1088.4688,133.9219 L1088.4688,136.6406 Z " fill="#000000"/><text fill="#000000" font-family="sans-serif" font-size="14" lengthAdjust="spacing" textLength="100.6934" x="1099.5" y="135.8467">SpatialSample</text><line style="stroke:#181818;stroke-width:0.5;" x1="1071.5" x2="1202.1934" y1="147" y2="147"/><line style="stroke:#181818;stroke-width:0.5;" x1="1071.5" x2="1202.1934" y1="155" y2="155"/></g><!--class StatisticalSample--><g class="entity" data-qualified-name="StatisticalSample" data-source-line="4" id="ent0009"><rect fill="#F1F1F1" height="48" rx="2.5" ry="2.5" style="stroke:#181818;stroke-width:0.5;" width="153.666" x="1239" y="115"/><ellipse cx="1254" cy="131" fill="#ADD1B2" rx="11" ry="11" style="stroke:#181818;stroke-width:1;"/><path d="M1256.9688,136.6406 Q1256.3906,136.9375 1255.75,137.0781 Q1255.1094,137.2344 1254.4063,137.2344 Q1251.9063,137.2344 1250.5781,135.5938 Q1249.2656,133.9375 1249.2656,130.8125 Q1249.2656,127.6875 1250.5781,126.0313 Q1251.9063,124.375 1254.4063,124.375 Q1255.1094,124.375 1255.75,124.5313 Q1256.4063,124.6875 1256.9688,124.9844 L1256.9688,127.7031 Q1256.3438,127.125 1255.75,126.8594 Q1255.1563,126.5781 1254.5313,126.5781 Q1253.1875,126.5781 1252.5,127.6563 Q1251.8125,128.7188 1251.8125,130.8125 Q1251.8125,132.9063 1252.5,133.9844 Q1253.1875,135.0469 1254.5313,135.0469 Q1255.1563,135.0469 1255.75,134.7813 Q1256.3438,134.5 1256.9688,133.9219 L1256.9688,136.6406 Z " fill="#000000"/><text fill="#000000" font-family="sans-serif" font-size="14" lengthAdjust="spacing" textLength="121.666" x="1268" y="135.8467">StatisticalSample</text><line style="stroke:#181818;stroke-width:0.5;" x1="1240" x2="1391.666" y1="147" y2="147"/><line style="stroke:#181818;stroke-width:0.5;" x1="1240" x2="1391.666" y1="155" y2="155"/></g><!--class ObservableProperty--><g class="entity" data-qualified-name="ObservableProperty" data-source-line="5" id="ent0011"><rect fill="#F1F1F1" height="48" rx="2.5" ry="2.5" style="stroke:#181818;stroke-width:0.5;" width="171.6172" x="687" y="115"/><ellipse cx="702" cy="131" fill="#ADD1B2" rx="11" ry="11" style="stroke:#181818;stroke-width:1;"/><path d="M704.9688,136.6406 Q704.3906,136.9375 703.75,137.0781 Q703.1094,137.2344 702.4063,137.2344 Q699.9063,137.2344 698.5781,135.5938 Q697.2656,133.9375 697.2656,130.8125 Q697.2656,127.6875 698.5781,126.0313 Q699.9063,124.375 702.4063,124.375 Q703.1094,124.375 703.75,124.5313 Q704.4063,124.6875 704.9688,124.9844 L704.9688,127.7031 Q704.3438,127.125 703.75,126.8594 Q703.1563,126.5781 702.5313,126.5781 Q701.1875,126.5781 700.5,127.6563 Q699.8125,128.7188 699.8125,130.8125 Q699.8125,132.9063 700.5,133.9844 Q701.1875,135.0469 702.5313,135.0469 Q703.1563,135.0469 703.75,134.7813 Q704.3438,134.5 704.9688,133.9219 L704.9688,136.6406 Z " fill="#000000"/><text fill="#000000" font-family="sans-serif" font-size="14" lengthAdjust="spacing" textLength="139.6172" x="716" y="135.8467">ObservableProperty</text><line style="stroke:#181818;stroke-width:0.5;" x1="688" x2="857.6172" y1="147" y2="147"/><line style="stroke:#181818;stroke-width:0.5;" x1="688" x2="857.6172" y1="155" y2="155"/></g><!--class Procedure--><g class="entity" data-qualified-name="Procedure" data-source-line="6" id="ent0013"><rect fill="#F1F1F1" height="48" rx="2.5" ry="2.5" style="stroke:#181818;stroke-width:0.5;" width="103.2031" x="1670.5" y="7"/><ellipse cx="1685.5" cy="23" fill="#ADD1B2" rx="11" ry="11" style="stroke:#181818;stroke-width:1;"/><path d="M1688.4688,28.6406 Q1687.8906,28.9375 1687.25,29.0781 Q1686.6094,29.2344 1685.9063,29.2344 Q1683.4063,29.2344 1682.0781,27.5938 Q1680.7656,25.9375 1680.7656,22.8125 Q1680.7656,19.6875 1682.0781,18.0313 Q1683.4063,16.375 1685.9063,16.375 Q1686.6094,16.375 1687.25,16.5313 Q1687.9063,16.6875 1688.4688,16.9844 L1688.4688,19.7031 Q1687.8438,19.125 1687.25,18.8594 Q1686.6563,18.5781 1686.0313,18.5781 Q1684.6875,18.5781 1684,19.6563 Q1683.3125,20.7188 1683.3125,22.8125 Q1683.3125,24.9063 1684,25.9844 Q1684.6875,27.0469 1686.0313,27.0469 Q1686.6563,27.0469 1687.25,26.7813 Q1687.8438,26.5 1688.4688,25.9219 L1688.4688,28.6406 Z " fill="#000000"/><text fill="#000000" font-family="sans-serif" font-size="14" lengthAdjust="spacing" textLength="71.2031" x="1699.5" y="27.8467">Procedure</text><line style="stroke:#181818;stroke-width:0.5;" x1="1671.5" x2="1772.7031" y1="39" y2="39"/><line style="stroke:#181818;stroke-width:0.5;" x1="1671.5" x2="1772.7031" y1="47" y2="47"/></g><!--class ActuatingProcedure--><g class="entity" data-qualified-name="ActuatingProcedure" data-source-line="6" id="ent0014"><rect fill="#F1F1F1" height="48" rx="2.5" ry="2.5" style="stroke:#181818;stroke-width:0.5;" width="170.5576" x="1428.5" y="115"/><ellipse cx="1443.5" cy="131" fill="#ADD1B2" rx="11" ry="11" style="stroke:#181818;stroke-width:1;"/><path d="M1446.4688,136.6406 Q1445.8906,136.9375 1445.25,137.0781 Q1444.6094,137.2344 1443.9063,137.2344 Q1441.4063,137.2344 1440.0781,135.5938 Q1438.7656,133.9375 1438.7656,130.8125 Q1438.7656,127.6875 1440.0781,126.0313 Q1441.4063,124.375 1443.9063,124.375 Q1444.6094,124.375 1445.25,124.5313 Q1445.9063,124.6875 1446.4688,124.9844 L1446.4688,127.7031 Q1445.8438,127.125 1445.25,126.8594 Q1444.6563,126.5781 1444.0313,126.5781 Q1442.6875,126.5781 1442,127.6563 Q1441.3125,128.7188 1441.3125,130.8125 Q1441.3125,132.9063 1442,133.9844 Q1442.6875,135.0469 1444.0313,135.0469 Q1444.6563,135.0469 1445.25,134.7813 Q1445.8438,134.5 1446.4688,133.9219 L1446.4688,136.6406 Z " fill="#000000"/><text fill="#000000" font-family="sans-serif" font-size="14" lengthAdjust="spacing" textLength="138.5576" x="1457.5" y="135.8467">ActuatingProcedure</text><line style="stroke:#181818;stroke-width:0.5;" x1="1429.5" x2="1598.0576" y1="147" y2="147"/><line style="stroke:#181818;stroke-width:0.5;" x1="1429.5" x2="1598.0576" y1="155" y2="155"/></g><!--class ObservingProcedure--><g class="entity" data-qualified-name="ObservingProcedure" data-source-line="7" id="ent0016"><rect fill="#F1F1F1" height="48" rx="2.5" ry="2.5" style="stroke:#181818;stroke-width:0.5;" width="174.707" x="1634.5" y="115"/><ellipse cx="1649.5" cy="131" fill="#ADD1B2" rx="11" ry="11" style="stroke:#181818;stroke-width:1;"/><path d="M1652.4688,136.6406 Q1651.8906,136.9375 1651.25,137.0781 Q1650.6094,137.2344 1649.9063,137.2344 Q1647.4063,137.2344 1646.0781,135.5938 Q1644.7656,133.9375 1644.7656,130.8125 Q1644.7656,127.6875 1646.0781,126.0313 Q1647.4063,124.375 1649.9063,124.375 Q1650.6094,124.375 1651.25,124.5313 Q1651.9063,124.6875 1652.4688,124.9844 L1652.4688,127.7031 Q1651.8438,127.125 1651.25,126.8594 Q1650.6563,126.5781 1650.0313,126.5781 Q1648.6875,126.5781 1648,127.6563 Q1647.3125,128.7188 1647.3125,130.8125 Q1647.3125,132.9063 1648,133.9844 Q1648.6875,135.0469 1650.0313,135.0469 Q1650.6563,135.0469 1651.25,134.7813 Q1651.8438,134.5 1652.4688,133.9219 L1652.4688,136.6406 Z " fill="#000000"/><text fill="#000000" font-family="sans-serif" font-size="14" lengthAdjust="spacing" textLength="142.707" x="1663.5" y="135.8467">ObservingProcedure</text><line style="stroke:#181818;stroke-width:0.5;" x1="1635.5" x2="1808.207" y1="147" y2="147"/><line style="stroke:#181818;stroke-width:0.5;" x1="1635.5" x2="1808.207" y1="155" y2="155"/></g><!--class SamplingProcedure--><g class="entity" data-qualified-name="SamplingProcedure" data-source-line="8" id="ent0018"><rect fill="#F1F1F1" height="48" rx="2.5" ry="2.5" style="stroke:#181818;stroke-width:0.5;" width="168.7324" x="1844.5" y="115"/><ellipse cx="1859.5" cy="131" fill="#ADD1B2" rx="11" ry="11" style="stroke:#181818;stroke-width:1;"/><path d="M1862.4688,136.6406 Q1861.8906,136.9375 1861.25,137.0781 Q1860.6094,137.2344 1859.9063,137.2344 Q1857.4063,137.2344 1856.0781,135.5938 Q1854.7656,133.9375 1854.7656,130.8125 Q1854.7656,127.6875 1856.0781,126.0313 Q1857.4063,124.375 1859.9063,124.375 Q1860.6094,124.375 1861.25,124.5313 Q1861.9063,124.6875 1862.4688,124.9844 L1862.4688,127.7031 Q1861.8438,127.125 1861.25,126.8594 Q1860.6563,126.5781 1860.0313,126.5781 Q1858.6875,126.5781 1858,127.6563 Q1857.3125,128.7188 1857.3125,130.8125 Q1857.3125,132.9063 1858,133.9844 Q1858.6875,135.0469 1860.0313,135.0469 Q1860.6563,135.0469 1861.25,134.7813 Q1861.8438,134.5 1862.4688,133.9219 L1862.4688,136.6406 Z " fill="#000000"/><text fill="#000000" font-family="sans-serif" font-size="14" lengthAdjust="spacing" textLength="136.7324" x="1873.5" y="135.8467">SamplingProcedure</text><line style="stroke:#181818;stroke-width:0.5;" x1="1845.5" x2="2012.2324" y1="147" y2="147"/><line style="stroke:#181818;stroke-width:0.5;" x1="1845.5" x2="2012.2324" y1="155" y2="155"/></g><!--class Asset--><g class="entity" data-qualified-name="Asset" data-source-line="9" id="ent0020"><rect fill="#F1F1F1" height="48" rx="2.5" ry="2.5" style="stroke:#181818;stroke-width:0.5;" width="70.2676" x="2120" y="7"/><ellipse cx="2135" cy="23" fill="#ADD1B2" rx="11" ry="11" style="stroke:#181818;stroke-width:1;"/><path d="M2137.9688,28.6406 Q2137.3906,28.9375 2136.75,29.0781 Q2136.1094,29.2344 2135.4063,29.2344 Q2132.9063,29.2344 2131.5781,27.5938 Q2130.2656,25.9375 2130.2656,22.8125 Q2130.2656,19.6875 2131.5781,18.0313 Q2132.9063,16.375 2135.4063,16.375 Q2136.1094,16.375 2136.75,16.5313 Q2137.4063,16.6875 2137.9688,16.9844 L2137.9688,19.7031 Q2137.3438,19.125 2136.75,18.8594 Q2136.1563,18.5781 2135.5313,18.5781 Q2134.1875,18.5781 2133.5,19.6563 Q2132.8125,20.7188 2132.8125,22.8125 Q2132.8125,24.9063 2133.5,25.9844 Q2134.1875,27.0469 2135.5313,27.0469 Q2136.1563,27.0469 2136.75,26.7813 Q2137.3438,26.5 2137.9688,25.9219 L2137.9688,28.6406 Z " fill="#000000"/><text fill="#000000" font-family="sans-serif" font-size="14" lengthAdjust="spacing" textLength="38.2676" x="2149" y="27.8467">Asset</text><line style="stroke:#181818;stroke-width:0.5;" x1="2121" x2="2189.2676" y1="39" y2="39"/><line style="stroke:#181818;stroke-width:0.5;" x1="2121" x2="2189.2676" y1="47" y2="47"/></g><!--class Platform--><g class="entity" data-qualified-name="Platform" data-source-line="9" id="ent0021"><rect fill="#F1F1F1" height="48" rx="2.5" ry="2.5" style="stroke:#181818;stroke-width:0.5;" width="91.2881" x="2048.5" y="115"/><ellipse cx="2063.5" cy="131" fill="#ADD1B2" rx="11" ry="11" style="stroke:#181818;stroke-width:1;"/><path d="M2066.4688,136.6406 Q2065.8906,136.9375 2065.25,137.0781 Q2064.6094,137.2344 2063.9063,137.2344 Q2061.4063,137.2344 2060.0781,135.5938 Q2058.7656,133.9375 2058.7656,130.8125 Q2058.7656,127.6875 2060.0781,126.0313 Q2061.4063,124.375 2063.9063,124.375 Q2064.6094,124.375 2065.25,124.5313 Q2065.9063,124.6875 2066.4688,124.9844 L2066.4688,127.7031 Q2065.8438,127.125 2065.25,126.8594 Q2064.6563,126.5781 2064.0313,126.5781 Q2062.6875,126.5781 2062,127.6563 Q2061.3125,128.7188 2061.3125,130.8125 Q2061.3125,132.9063 2062,133.9844 Q2062.6875,135.0469 2064.0313,135.0469 Q2064.6563,135.0469 2065.25,134.7813 Q2065.8438,134.5 2066.4688,133.9219 L2066.4688,136.6406 Z " fill="#000000"/><text fill="#000000" font-family="sans-serif" font-size="14" lengthAdjust="spacing" textLength="59.2881" x="2077.5" y="135.8467">Platform</text><line style="stroke:#181818;stroke-width:0.5;" x1="2049.5" x2="2138.7881" y1="147" y2="147"/><line style="stroke:#181818;stroke-width:0.5;" x1="2049.5" x2="2138.7881" y1="155" y2="155"/></g><!--class System--><g class="entity" data-qualified-name="System" data-source-line="10" id="ent0023"><rect fill="#F1F1F1" height="48" rx="2.5" ry="2.5" style="stroke:#181818;stroke-width:0.5;" width="84.2061" x="2175" y="115"/><ellipse cx="2190" cy="131" fill="#ADD1B2" rx="11" ry="11" style="stroke:#181818;stroke-width:1;"/><path d="M2192.9688,136.6406 Q2192.3906,136.9375 2191.75,137.0781 Q2191.1094,137.2344 2190.4063,137.2344 Q2187.9063,137.2344 2186.5781,135.5938 Q2185.2656,133.9375 2185.2656,130.8125 Q2185.2656,127.6875 2186.5781,126.0313 Q2187.9063,124.375 2190.4063,124.375 Q2191.1094,124.375 2191.75,124.5313 Q2192.4063,124.6875 2192.9688,124.9844 L2192.9688,127.7031 Q2192.3438,127.125 2191.75,126.8594 Q2191.1563,126.5781 2190.5313,126.5781 Q2189.1875,126.5781 2188.5,127.6563 Q2187.8125,128.7188 2187.8125,130.8125 Q2187.8125,132.9063 2188.5,133.9844 Q2189.1875,135.0469 2190.5313,135.0469 Q2191.1563,135.0469 2191.75,134.7813 Q2192.3438,134.5 2192.9688,133.9219 L2192.9688,136.6406 Z " fill="#000000"/><text fill="#000000" font-family="sans-serif" font-size="14" lengthAdjust="spacing" textLength="52.2061" x="2204" y="135.8467">System</text><line style="stroke:#181818;stroke-width:0.5;" x1="2176" x2="2258.2061" y1="147" y2="147"/><line style="stroke:#181818;stroke-width:0.5;" x1="2176" x2="2258.2061" y1="155" y2="155"/></g><!--class Sampler--><g class="entity" data-qualified-name="Sampler" data-source-line="10" id="ent0024"><rect fill="#F1F1F1" height="48" rx="2.5" ry="2.5" style="stroke:#181818;stroke-width:0.5;" width="90.249" x="2046" y="223"/><ellipse cx="2061" cy="239" fill="#ADD1B2" rx="11" ry="11" style="stroke:#181818;stroke-width:1;"/><path d="M2063.9688,244.6406 Q2063.3906,244.9375 2062.75,245.0781 Q2062.1094,245.2344 2061.4063,245.2344 Q2058.9063,245.2344 2057.5781,243.5938 Q2056.2656,241.9375 2056.2656,238.8125 Q2056.2656,235.6875 2057.5781,234.0313 Q2058.9063,232.375 2061.4063,232.375 Q2062.1094,232.375 2062.75,232.5313 Q2063.4063,232.6875 2063.9688,232.9844 L2063.9688,235.7031 Q2063.3438,235.125 2062.75,234.8594 Q2062.1563,234.5781 2061.5313,234.5781 Q2060.1875,234.5781 2059.5,235.6563 Q2058.8125,236.7188 2058.8125,238.8125 Q2058.8125,240.9063 2059.5,241.9844 Q2060.1875,243.0469 2061.5313,243.0469 Q2062.1563,243.0469 2062.75,242.7813 Q2063.3438,242.5 2063.9688,241.9219 L2063.9688,244.6406 Z " fill="#000000"/><text fill="#000000" font-family="sans-serif" font-size="14" lengthAdjust="spacing" textLength="58.249" x="2075" y="243.8467">Sampler</text><line style="stroke:#181818;stroke-width:0.5;" x1="2047" x2="2135.249" y1="255" y2="255"/><line style="stroke:#181818;stroke-width:0.5;" x1="2047" x2="2135.249" y1="263" y2="263"/></g><!--class Actuator--><g class="entity" data-qualified-name="Actuator" data-source-line="11" id="ent0026"><rect fill="#F1F1F1" height="48" rx="2.5" ry="2.5" style="stroke:#181818;stroke-width:0.5;" width="92.0264" x="2171" y="223"/><ellipse cx="2186" cy="239" fill="#ADD1B2" rx="11" ry="11" style="stroke:#181818;stroke-width:1;"/><path d="M2188.9688,244.6406 Q2188.3906,244.9375 2187.75,245.0781 Q2187.1094,245.2344 2186.4063,245.2344 Q2183.9063,245.2344 2182.5781,243.5938 Q2181.2656,241.9375 2181.2656,238.8125 Q2181.2656,235.6875 2182.5781,234.0313 Q2183.9063,232.375 2186.4063,232.375 Q2187.1094,232.375 2187.75,232.5313 Q2188.4063,232.6875 2188.9688,232.9844 L2188.9688,235.7031 Q2188.3438,235.125 2187.75,234.8594 Q2187.1563,234.5781 2186.5313,234.5781 Q2185.1875,234.5781 2184.5,235.6563 Q2183.8125,236.7188 2183.8125,238.8125 Q2183.8125,240.9063 2184.5,241.9844 Q2185.1875,243.0469 2186.5313,243.0469 Q2187.1563,243.0469 2187.75,242.7813 Q2188.3438,242.5 2188.9688,241.9219 L2188.9688,244.6406 Z " fill="#000000"/><text fill="#000000" font-family="sans-serif" font-size="14" lengthAdjust="spacing" textLength="60.0264" x="2200" y="243.8467">Actuator</text><line style="stroke:#181818;stroke-width:0.5;" x1="2172" x2="2262.0264" y1="255" y2="255"/><line style="stroke:#181818;stroke-width:0.5;" x1="2172" x2="2262.0264" y1="263" y2="263"/></g><!--class Execution--><g class="entity" data-qualified-name="Execution" data-source-line="13" id="ent0029"><rect fill="#F1F1F1" height="48" rx="2.5" ry="2.5" style="stroke:#181818;stroke-width:0.5;" width="101.1318" x="2426.5" y="7"/><ellipse cx="2441.5" cy="23" fill="#ADD1B2" rx="11" ry="11" style="stroke:#181818;stroke-width:1;"/><path d="M2444.4688,28.6406 Q2443.8906,28.9375 2443.25,29.0781 Q2442.6094,29.2344 2441.9063,29.2344 Q2439.4063,29.2344 2438.0781,27.5938 Q2436.7656,25.9375 2436.7656,22.8125 Q2436.7656,19.6875 2438.0781,18.0313 Q2439.4063,16.375 2441.9063,16.375 Q2442.6094,16.375 2443.25,16.5313 Q2443.9063,16.6875 2444.4688,16.9844 L2444.4688,19.7031 Q2443.8438,19.125 2443.25,18.8594 Q2442.6563,18.5781 2442.0313,18.5781 Q2440.6875,18.5781 2440,19.6563 Q2439.3125,20.7188 2439.3125,22.8125 Q2439.3125,24.9063 2440,25.9844 Q2440.6875,27.0469 2442.0313,27.0469 Q2442.6563,27.0469 2443.25,26.7813 Q2443.8438,26.5 2444.4688,25.9219 L2444.4688,28.6406 Z " fill="#000000"/><text fill="#000000" font-family="sans-serif" font-size="14" lengthAdjust="spacing" textLength="69.1318" x="2455.5" y="27.8467">Execution</text><line style="stroke:#181818;stroke-width:0.5;" x1="2427.5" x2="2526.6318" y1="39" y2="39"/><line style="stroke:#181818;stroke-width:0.5;" x1="2427.5" x2="2526.6318" y1="47" y2="47"/></g><!--class Sampling--><g class="entity" data-qualified-name="Sampling" data-source-line="13" id="ent0030"><rect fill="#F1F1F1" height="48" rx="2.5" ry="2.5" style="stroke:#181818;stroke-width:0.5;" width="97.5293" x="2294" y="115"/><ellipse cx="2309" cy="131" fill="#ADD1B2" rx="11" ry="11" style="stroke:#181818;stroke-width:1;"/><path d="M2311.9688,136.6406 Q2311.3906,136.9375 2310.75,137.0781 Q2310.1094,137.2344 2309.4063,137.2344 Q2306.9063,137.2344 2305.5781,135.5938 Q2304.2656,133.9375 2304.2656,130.8125 Q2304.2656,127.6875 2305.5781,126.0313 Q2306.9063,124.375 2309.4063,124.375 Q2310.1094,124.375 2310.75,124.5313 Q2311.4063,124.6875 2311.9688,124.9844 L2311.9688,127.7031 Q2311.3438,127.125 2310.75,126.8594 Q2310.1563,126.5781 2309.5313,126.5781 Q2308.1875,126.5781 2307.5,127.6563 Q2306.8125,128.7188 2306.8125,130.8125 Q2306.8125,132.9063 2307.5,133.9844 Q2308.1875,135.0469 2309.5313,135.0469 Q2310.1563,135.0469 2310.75,134.7813 Q2311.3438,134.5 2311.9688,133.9219 L2311.9688,136.6406 Z " fill="#000000"/><text fill="#000000" font-family="sans-serif" font-size="14" lengthAdjust="spacing" textLength="65.5293" x="2323" y="135.8467">Sampling</text><line style="stroke:#181818;stroke-width:0.5;" x1="2295" x2="2390.5293" y1="147" y2="147"/><line style="stroke:#181818;stroke-width:0.5;" x1="2295" x2="2390.5293" y1="155" y2="155"/></g><!--class ExecutionCollection--><g class="entity" data-qualified-name="ExecutionCollection" data-source-line="14" id="ent0032"><rect fill="#F1F1F1" height="48" rx="2.5" ry="2.5" style="stroke:#181818;stroke-width:0.5;" width="170.3799" x="2914" y="7"/><ellipse cx="2929" cy="23" fill="#ADD1B2" rx="11" ry="11" style="stroke:#181818;stroke-width:1;"/><path d="M2931.9688,28.6406 Q2931.3906,28.9375 2930.75,29.0781 Q2930.1094,29.2344 2929.4063,29.2344 Q2926.9063,29.2344 2925.5781,27.5938 Q2924.2656,25.9375 2924.2656,22.8125 Q2924.2656,19.6875 2925.5781,18.0313 Q2926.9063,16.375 2929.4063,16.375 Q2930.1094,16.375 2930.75,16.5313 Q2931.4063,16.6875 2931.9688,16.9844 L2931.9688,19.7031 Q2931.3438,19.125 2930.75,18.8594 Q2930.1563,18.5781 2929.5313,18.5781 Q2928.1875,18.5781 2927.5,19.6563 Q2926.8125,20.7188 2926.8125,22.8125 Q2926.8125,24.9063 2927.5,25.9844 Q2928.1875,27.0469 2929.5313,27.0469 Q2930.1563,27.0469 2930.75,26.7813 Q2931.3438,26.5 2931.9688,25.9219 L2931.9688,28.6406 Z " fill="#000000"/><text fill="#000000" font-family="sans-serif" font-size="14" lengthAdjust="spacing" textLength="138.3799" x="2943" y="27.8467">ExecutionCollection</text><line style="stroke:#181818;stroke-width:0.5;" x1="2915" x2="3083.3799" y1="39" y2="39"/><line style="stroke:#181818;stroke-width:0.5;" x1="2915" x2="3083.3799" y1="47" y2="47"/></g><!--class SamplingCollection--><g class="entity" data-qualified-name="SamplingCollection" data-source-line="14" id="ent0033"><rect fill="#F1F1F1" height="48" rx="2.5" ry="2.5" style="stroke:#181818;stroke-width:0.5;" width="166.7773" x="2713.5" y="115"/><ellipse cx="2728.5" cy="131" fill="#ADD1B2" rx="11" ry="11" style="stroke:#181818;stroke-width:1;"/><path d="M2731.4688,136.6406 Q2730.8906,136.9375 2730.25,137.0781 Q2729.6094,137.2344 2728.9063,137.2344 Q2726.4063,137.2344 2725.0781,135.5938 Q2723.7656,133.9375 2723.7656,130.8125 Q2723.7656,127.6875 2725.0781,126.0313 Q2726.4063,124.375 2728.9063,124.375 Q2729.6094,124.375 2730.25,124.5313 Q2730.9063,124.6875 2731.4688,124.9844 L2731.4688,127.7031 Q2730.8438,127.125 2730.25,126.8594 Q2729.6563,126.5781 2729.0313,126.5781 Q2727.6875,126.5781 2727,127.6563 Q2726.3125,128.7188 2726.3125,130.8125 Q2726.3125,132.9063 2727,133.9844 Q2727.6875,135.0469 2729.0313,135.0469 Q2729.6563,135.0469 2730.25,134.7813 Q2730.8438,134.5 2731.4688,133.9219 L2731.4688,136.6406 Z " fill="#000000"/><text fill="#000000" font-family="sans-serif" font-size="14" lengthAdjust="spacing" textLength="134.7773" x="2742.5" y="135.8467">SamplingCollection</text><line style="stroke:#181818;stroke-width:0.5;" x1="2714.5" x2="2879.2773" y1="147" y2="147"/><line style="stroke:#181818;stroke-width:0.5;" x1="2714.5" x2="2879.2773" y1="155" y2="155"/></g><!--class Actuation--><g class="entity" data-qualified-name="Actuation" data-source-line="15" id="ent0035"><rect fill="#F1F1F1" height="48" rx="2.5" ry="2.5" style="stroke:#181818;stroke-width:0.5;" width="99.0332" x="2427.5" y="115"/><ellipse cx="2442.5" cy="131" fill="#ADD1B2" rx="11" ry="11" style="stroke:#181818;stroke-width:1;"/><path d="M2445.4688,136.6406 Q2444.8906,136.9375 2444.25,137.0781 Q2443.6094,137.2344 2442.9063,137.2344 Q2440.4063,137.2344 2439.0781,135.5938 Q2437.7656,133.9375 2437.7656,130.8125 Q2437.7656,127.6875 2439.0781,126.0313 Q2440.4063,124.375 2442.9063,124.375 Q2443.6094,124.375 2444.25,124.5313 Q2444.9063,124.6875 2445.4688,124.9844 L2445.4688,127.7031 Q2444.8438,127.125 2444.25,126.8594 Q2443.6563,126.5781 2443.0313,126.5781 Q2441.6875,126.5781 2441,127.6563 Q2440.3125,128.7188 2440.3125,130.8125 Q2440.3125,132.9063 2441,133.9844 Q2441.6875,135.0469 2443.0313,135.0469 Q2443.6563,135.0469 2444.25,134.7813 Q2444.8438,134.5 2445.4688,133.9219 L2445.4688,136.6406 Z " fill="#000000"/><text fill="#000000" font-family="sans-serif" font-size="14" lengthAdjust="spacing" textLength="67.0332" x="2456.5" y="135.8467">Actuation</text><line style="stroke:#181818;stroke-width:0.5;" x1="2428.5" x2="2525.5332" y1="147" y2="147"/><line style="stroke:#181818;stroke-width:0.5;" x1="2428.5" x2="2525.5332" y1="155" y2="155"/></g><!--class Sensor--><g class="entity" data-qualified-name="Sensor" data-source-line="16" id="ent0037"><rect fill="#F1F1F1" height="48" rx="2.5" ry="2.5" style="stroke:#181818;stroke-width:0.5;" width="79.9883" x="2298" y="223"/><ellipse cx="2313" cy="239" fill="#ADD1B2" rx="11" ry="11" style="stroke:#181818;stroke-width:1;"/><path d="M2315.9688,244.6406 Q2315.3906,244.9375 2314.75,245.0781 Q2314.1094,245.2344 2313.4063,245.2344 Q2310.9063,245.2344 2309.5781,243.5938 Q2308.2656,241.9375 2308.2656,238.8125 Q2308.2656,235.6875 2309.5781,234.0313 Q2310.9063,232.375 2313.4063,232.375 Q2314.1094,232.375 2314.75,232.5313 Q2315.4063,232.6875 2315.9688,232.9844 L2315.9688,235.7031 Q2315.3438,235.125 2314.75,234.8594 Q2314.1563,234.5781 2313.5313,234.5781 Q2312.1875,234.5781 2311.5,235.6563 Q2310.8125,236.7188 2310.8125,238.8125 Q2310.8125,240.9063 2311.5,241.9844 Q2312.1875,243.0469 2313.5313,243.0469 Q2314.1563,243.0469 2314.75,242.7813 Q2315.3438,242.5 2315.9688,241.9219 L2315.9688,244.6406 Z " fill="#000000"/><text fill="#000000" font-family="sans-serif" font-size="14" lengthAdjust="spacing" textLength="47.9883" x="2327" y="243.8467">Sensor</text><line style="stroke:#181818;stroke-width:0.5;" x1="2299" x2="2376.9883" y1="255" y2="255"/><line style="stroke:#181818;stroke-width:0.5;" x1="2299" x2="2376.9883" y1="263" y2="263"/></g><!--class ActuationCollection--><g class="entity" data-qualified-name="ActuationCollection" data-source-line="17" id="ent0039"><rect fill="#F1F1F1" height="48" rx="2.5" ry="2.5" style="stroke:#181818;stroke-width:0.5;" width="168.2813" x="2915" y="115"/><ellipse cx="2930" cy="131" fill="#ADD1B2" rx="11" ry="11" style="stroke:#181818;stroke-width:1;"/><path d="M2932.9688,136.6406 Q2932.3906,136.9375 2931.75,137.0781 Q2931.1094,137.2344 2930.4063,137.2344 Q2927.9063,137.2344 2926.5781,135.5938 Q2925.2656,133.9375 2925.2656,130.8125 Q2925.2656,127.6875 2926.5781,126.0313 Q2927.9063,124.375 2930.4063,124.375 Q2931.1094,124.375 2931.75,124.5313 Q2932.4063,124.6875 2932.9688,124.9844 L2932.9688,127.7031 Q2932.3438,127.125 2931.75,126.8594 Q2931.1563,126.5781 2930.5313,126.5781 Q2929.1875,126.5781 2928.5,127.6563 Q2927.8125,128.7188 2927.8125,130.8125 Q2927.8125,132.9063 2928.5,133.9844 Q2929.1875,135.0469 2930.5313,135.0469 Q2931.1563,135.0469 2931.75,134.7813 Q2932.3438,134.5 2932.9688,133.9219 L2932.9688,136.6406 Z " fill="#000000"/><text fill="#000000" font-family="sans-serif" font-size="14" lengthAdjust="spacing" textLength="136.2813" x="2944" y="135.8467">ActuationCollection</text><line style="stroke:#181818;stroke-width:0.5;" x1="2916" x2="3082.2813" y1="147" y2="147"/><line style="stroke:#181818;stroke-width:0.5;" x1="2916" x2="3082.2813" y1="155" y2="155"/></g><!--class ObservationCollection--><g class="entity" data-qualified-name="ObservationCollection" data-source-line="18" id="ent0041"><rect fill="#F1F1F1" height="48" rx="2.5" ry="2.5" style="stroke:#181818;stroke-width:0.5;" width="186.499" x="3118" y="115"/><ellipse cx="3133" cy="131" fill="#ADD1B2" rx="11" ry="11" style="stroke:#181818;stroke-width:1;"/><path d="M3135.9688,136.6406 Q3135.3906,136.9375 3134.75,137.0781 Q3134.1094,137.2344 3133.4063,137.2344 Q3130.9063,137.2344 3129.5781,135.5938 Q3128.2656,133.9375 3128.2656,130.8125 Q3128.2656,127.6875 3129.5781,126.0313 Q3130.9063,124.375 3133.4063,124.375 Q3134.1094,124.375 3134.75,124.5313 Q3135.4063,124.6875 3135.9688,124.9844 L3135.9688,127.7031 Q3135.3438,127.125 3134.75,126.8594 Q3134.1563,126.5781 3133.5313,126.5781 Q3132.1875,126.5781 3131.5,127.6563 Q3130.8125,128.7188 3130.8125,130.8125 Q3130.8125,132.9063 3131.5,133.9844 Q3132.1875,135.0469 3133.5313,135.0469 Q3134.1563,135.0469 3134.75,134.7813 Q3135.3438,134.5 3135.9688,133.9219 L3135.9688,136.6406 Z " fill="#000000"/><text fill="#000000" font-family="sans-serif" font-size="14" lengthAdjust="spacing" textLength="154.499" x="3147" y="135.8467">ObservationCollection</text><line style="stroke:#181818;stroke-width:0.5;" x1="3119" x2="3303.499" y1="147" y2="147"/><line style="stroke:#181818;stroke-width:0.5;" x1="3119" x2="3303.499" y1="155" y2="155"/></g><!--class Observation--><g class="entity" data-qualified-name="Observation" data-source-line="19" id="ent0043"><rect fill="#F1F1F1" height="48" rx="2.5" ry="2.5" style="stroke:#181818;stroke-width:0.5;" width="117.251" x="2561.5" y="115"/><ellipse cx="2576.5" cy="131" fill="#ADD1B2" rx="11" ry="11" style="stroke:#181818;stroke-width:1;"/><path d="M2579.4688,136.6406 Q2578.8906,136.9375 2578.25,137.0781 Q2577.6094,137.2344 2576.9063,137.2344 Q2574.4063,137.2344 2573.0781,135.5938 Q2571.7656,133.9375 2571.7656,130.8125 Q2571.7656,127.6875 2573.0781,126.0313 Q2574.4063,124.375 2576.9063,124.375 Q2577.6094,124.375 2578.25,124.5313 Q2578.9063,124.6875 2579.4688,124.9844 L2579.4688,127.7031 Q2578.8438,127.125 2578.25,126.8594 Q2577.6563,126.5781 2577.0313,126.5781 Q2575.6875,126.5781 2575,127.6563 Q2574.3125,128.7188 2574.3125,130.8125 Q2574.3125,132.9063 2575,133.9844 Q2575.6875,135.0469 2577.0313,135.0469 Q2577.6563,135.0469 2578.25,134.7813 Q2578.8438,134.5 2579.4688,133.9219 L2579.4688,136.6406 Z " fill="#000000"/><text fill="#000000" font-family="sans-serif" font-size="14" lengthAdjust="spacing" textLength="85.251" x="2590.5" y="135.8467">Observation</text><line style="stroke:#181818;stroke-width:0.5;" x1="2562.5" x2="2677.751" y1="147" y2="147"/><line style="stroke:#181818;stroke-width:0.5;" x1="2562.5" x2="2677.751" y1="155" y2="155"/></g><!--class FeatureOfInterest--><g class="entity" data-qualified-name="FeatureOfInterest" data-source-line="21" id="ent0045"><rect fill="#F1F1F1" height="48" rx="2.5" ry="2.5" style="stroke:#181818;stroke-width:0.5;" width="156.1816" x="7" y="7"/><ellipse cx="22" cy="23" fill="#ADD1B2" rx="11" ry="11" style="stroke:#181818;stroke-width:1;"/><path d="M24.9688,28.6406 Q24.3906,28.9375 23.75,29.0781 Q23.1094,29.2344 22.4063,29.2344 Q19.9063,29.2344 18.5781,27.5938 Q17.2656,25.9375 17.2656,22.8125 Q17.2656,19.6875 18.5781,18.0313 Q19.9063,16.375 22.4063,16.375 Q23.1094,16.375 23.75,16.5313 Q24.4063,16.6875 24.9688,16.9844 L24.9688,19.7031 Q24.3438,19.125 23.75,18.8594 Q23.1563,18.5781 22.5313,18.5781 Q21.1875,18.5781 20.5,19.6563 Q19.8125,20.7188 19.8125,22.8125 Q19.8125,24.9063 20.5,25.9844 Q21.1875,27.0469 22.5313,27.0469 Q23.1563,27.0469 23.75,26.7813 Q24.3438,26.5 24.9688,25.9219 L24.9688,28.6406 Z " fill="#000000"/><text fill="#000000" font-family="sans-serif" font-size="14" lengthAdjust="spacing" textLength="124.1816" x="36" y="27.8467">FeatureOfInterest</text><line style="stroke:#181818;stroke-width:0.5;" x1="8" x2="162.1816" y1="39" y2="39"/><line style="stroke:#181818;stroke-width:0.5;" x1="8" x2="162.1816" y1="47" y2="47"/></g><!--class Result--><g class="entity" data-qualified-name="Result" data-source-line="22" id="ent0046"><rect fill="#F1F1F1" height="48" rx="2.5" ry="2.5" style="stroke:#181818;stroke-width:0.5;" width="75.8867" x="198" y="7"/><ellipse cx="213" cy="23" fill="#ADD1B2" rx="11" ry="11" style="stroke:#181818;stroke-width:1;"/><path d="M215.9688,28.6406 Q215.3906,28.9375 214.75,29.0781 Q214.1094,29.2344 213.4063,29.2344 Q210.9063,29.2344 209.5781,27.5938 Q208.2656,25.9375 208.2656,22.8125 Q208.2656,19.6875 209.5781,18.0313 Q210.9063,16.375 213.4063,16.375 Q214.1094,16.375 214.75,16.5313 Q215.4063,16.6875 215.9688,16.9844 L215.9688,19.7031 Q215.3438,19.125 214.75,18.8594 Q214.1563,18.5781 213.5313,18.5781 Q212.1875,18.5781 211.5,19.6563 Q210.8125,20.7188 210.8125,22.8125 Q210.8125,24.9063 211.5,25.9844 Q212.1875,27.0469 213.5313,27.0469 Q214.1563,27.0469 214.75,26.7813 Q215.3438,26.5 215.9688,25.9219 L215.9688,28.6406 Z " fill="#000000"/><text fill="#000000" font-family="sans-serif" font-size="14" lengthAdjust="spacing" textLength="43.8867" x="227" y="27.8467">Result</text><line style="stroke:#181818;stroke-width:0.5;" x1="199" x2="272.8867" y1="39" y2="39"/><line style="stroke:#181818;stroke-width:0.5;" x1="199" x2="272.8867" y1="47" y2="47"/></g><!--class Input--><g class="entity" data-qualified-name="Input" data-source-line="23" id="ent0047"><rect fill="#F1F1F1" height="48" rx="2.5" ry="2.5" style="stroke:#181818;stroke-width:0.5;" width="68.251" x="309" y="7"/><ellipse cx="324" cy="23" fill="#ADD1B2" rx="11" ry="11" style="stroke:#181818;stroke-width:1;"/><path d="M326.9688,28.6406 Q326.3906,28.9375 325.75,29.0781 Q325.1094,29.2344 324.4063,29.2344 Q321.9063,29.2344 320.5781,27.5938 Q319.2656,25.9375 319.2656,22.8125 Q319.2656,19.6875 320.5781,18.0313 Q321.9063,16.375 324.4063,16.375 Q325.1094,16.375 325.75,16.5313 Q326.4063,16.6875 326.9688,16.9844 L326.9688,19.7031 Q326.3438,19.125 325.75,18.8594 Q325.1563,18.5781 324.5313,18.5781 Q323.1875,18.5781 322.5,19.6563 Q321.8125,20.7188 321.8125,22.8125 Q321.8125,24.9063 322.5,25.9844 Q323.1875,27.0469 324.5313,27.0469 Q325.1563,27.0469 325.75,26.7813 Q326.3438,26.5 326.9688,25.9219 L326.9688,28.6406 Z " fill="#000000"/><text fill="#000000" font-family="sans-serif" font-size="14" lengthAdjust="spacing" textLength="36.251" x="338" y="27.8467">Input</text><line style="stroke:#181818;stroke-width:0.5;" x1="310" x2="376.251" y1="39" y2="39"/><line style="stroke:#181818;stroke-width:0.5;" x1="310" x2="376.251" y1="47" y2="47"/></g><!--class Deployment--><g class="entity" data-qualified-name="Deployment" data-source-line="24" id="ent0048"><rect fill="#F1F1F1" height="48" rx="2.5" ry="2.5" style="stroke:#181818;stroke-width:0.5;" width="117.6338" x="26" y="115"/><ellipse cx="41" cy="131" fill="#ADD1B2" rx="11" ry="11" style="stroke:#181818;stroke-width:1;"/><path d="M43.9688,136.6406 Q43.3906,136.9375 42.75,137.0781 Q42.1094,137.2344 41.4063,137.2344 Q38.9063,137.2344 37.5781,135.5938 Q36.2656,133.9375 36.2656,130.8125 Q36.2656,127.6875 37.5781,126.0313 Q38.9063,124.375 41.4063,124.375 Q42.1094,124.375 42.75,124.5313 Q43.4063,124.6875 43.9688,124.9844 L43.9688,127.7031 Q43.3438,127.125 42.75,126.8594 Q42.1563,126.5781 41.5313,126.5781 Q40.1875,126.5781 39.5,127.6563 Q38.8125,128.7188 38.8125,130.8125 Q38.8125,132.9063 39.5,133.9844 Q40.1875,135.0469 41.5313,135.0469 Q42.1563,135.0469 42.75,134.7813 Q43.3438,134.5 43.9688,133.9219 L43.9688,136.6406 Z " fill="#000000"/><text fill="#000000" font-family="sans-serif" font-size="14" lengthAdjust="spacing" textLength="85.6338" x="55" y="135.8467">Deployment</text><line style="stroke:#181818;stroke-width:0.5;" x1="27" x2="142.6338" y1="147" y2="147"/><line style="stroke:#181818;stroke-width:0.5;" x1="27" x2="142.6338" y1="155" y2="155"/></g><!--class SampleCollection--><g class="entity" data-qualified-name="SampleCollection" data-source-line="25" id="ent0049"><rect fill="#F1F1F1" height="48" rx="2.5" ry="2.5" style="stroke:#181818;stroke-width:0.5;" width="153.7412" x="179" y="115"/><ellipse cx="194" cy="131" fill="#ADD1B2" rx="11" ry="11" style="stroke:#181818;stroke-width:1;"/><path d="M196.9688,136.6406 Q196.3906,136.9375 195.75,137.0781 Q195.1094,137.2344 194.4063,137.2344 Q191.9063,137.2344 190.5781,135.5938 Q189.2656,133.9375 189.2656,130.8125 Q189.2656,127.6875 190.5781,126.0313 Q191.9063,124.375 194.4063,124.375 Q195.1094,124.375 195.75,124.5313 Q196.4063,124.6875 196.9688,124.9844 L196.9688,127.7031 Q196.3438,127.125 195.75,126.8594 Q195.1563,126.5781 194.5313,126.5781 Q193.1875,126.5781 192.5,127.6563 Q191.8125,128.7188 191.8125,130.8125 Q191.8125,132.9063 192.5,133.9844 Q193.1875,135.0469 194.5313,135.0469 Q195.1563,135.0469 195.75,134.7813 Q196.3438,134.5 196.9688,133.9219 L196.9688,136.6406 Z " fill="#000000"/><text fill="#000000" font-family="sans-serif" font-size="14" lengthAdjust="spacing" textLength="121.7412" x="208" y="135.8467">SampleCollection</text><line style="stroke:#181818;stroke-width:0.5;" x1="180" x2="331.7412" y1="147" y2="147"/><line style="stroke:#181818;stroke-width:0.5;" x1="180" x2="331.7412" y1="155" y2="155"/></g><!--class Output--><g class="entity" data-qualified-name="Output" data-source-line="26" id="ent0050"><rect fill="#F1F1F1" height="48" rx="2.5" ry="2.5" style="stroke:#181818;stroke-width:0.5;" width="80.6309" x="368.5" y="115"/><ellipse cx="383.5" cy="131" fill="#ADD1B2" rx="11" ry="11" style="stroke:#181818;stroke-width:1;"/><path d="M386.4688,136.6406 Q385.8906,136.9375 385.25,137.0781 Q384.6094,137.2344 383.9063,137.2344 Q381.4063,137.2344 380.0781,135.5938 Q378.7656,133.9375 378.7656,130.8125 Q378.7656,127.6875 380.0781,126.0313 Q381.4063,124.375 383.9063,124.375 Q384.6094,124.375 385.25,124.5313 Q385.9063,124.6875 386.4688,124.9844 L386.4688,127.7031 Q385.8438,127.125 385.25,126.8594 Q384.6563,126.5781 384.0313,126.5781 Q382.6875,126.5781 382,127.6563 Q381.3125,128.7188 381.3125,130.8125 Q381.3125,132.9063 382,133.9844 Q382.6875,135.0469 384.0313,135.0469 Q384.6563,135.0469 385.25,134.7813 Q385.8438,134.5 386.4688,133.9219 L386.4688,136.6406 Z " fill="#000000"/><text fill="#000000" font-family="sans-serif" font-size="14" lengthAdjust="spacing" textLength="48.6309" x="397.5" y="135.8467">Output</text><line style="stroke:#181818;stroke-width:0.5;" x1="369.5" x2="448.1309" y1="147" y2="147"/><line style="stroke:#181818;stroke-width:0.5;" x1="369.5" x2="448.1309" y1="155" y2="155"/></g><!--class Stimulus--><g class="entity" data-qualified-name="Stimulus" data-source-line="28" id="ent0051"><rect fill="#F1F1F1" height="48" rx="2.5" ry="2.5" style="stroke:#181818;stroke-width:0.5;" width="92.833" x="38.5" y="223"/><ellipse cx="53.5" cy="239" fill="#ADD1B2" rx="11" ry="11" style="stroke:#181818;stroke-width:1;"/><path d="M56.4688,244.6406 Q55.8906,244.9375 55.25,245.0781 Q54.6094,245.2344 53.9063,245.2344 Q51.4063,245.2344 50.0781,243.5938 Q48.7656,241.9375 48.7656,238.8125 Q48.7656,235.6875 50.0781,234.0313 Q51.4063,232.375 53.9063,232.375 Q54.6094,232.375 55.25,232.5313 Q55.9063,232.6875 56.4688,232.9844 L56.4688,235.7031 Q55.8438,235.125 55.25,234.8594 Q54.6563,234.5781 54.0313,234.5781 Q52.6875,234.5781 52,235.6563 Q51.3125,236.7188 51.3125,238.8125 Q51.3125,240.9063 52,241.9844 Q52.6875,243.0469 54.0313,243.0469 Q54.6563,243.0469 55.25,242.7813 Q55.8438,242.5 56.4688,241.9219 L56.4688,244.6406 Z " fill="#000000"/><text fill="#000000" font-family="sans-serif" font-size="14" lengthAdjust="spacing" textLength="60.833" x="67.5" y="243.8467">Stimulus</text><line style="stroke:#181818;stroke-width:0.5;" x1="39.5" x2="130.333" y1="255" y2="255"/><line style="stroke:#181818;stroke-width:0.5;" x1="39.5" x2="130.333" y1="263" y2="263"/></g><!--reverse link Property to ActuatableProperty--><g class="link" data-entity-1="ent0001" data-entity-2="ent0002" data-link-type="extension" data-source-line="1" id="lnk3"><path codeLine="1" d="M635.3905,67.9716 C618.4005,85.6316 607.51,96.94 590.44,114.68" fill="none" id="Property-backto-ActuatableProperty" style="stroke:#181818;stroke-width:1;"/><polygon fill="none" points="647.87,55,631.0667,63.8118,639.7144,72.1314,647.87,55" style="stroke:#181818;stroke-width:1;stroke-linejoin:miter;stroke-miterlimit:10;"/></g><!--reverse link Sample to MaterialSample--><g class="link" data-entity-1="ent0004" data-entity-2="ent0005" data-link-type="extension" data-source-line="2" id="lnk6"><path codeLine="2" d="M1084.3567,64.4445 C1055.6067,82.1645 1031.35,97.11 1002.55,114.86" fill="none" id="Sample-backto-MaterialSample" style="stroke:#181818;stroke-width:1;"/><polygon fill="none" points="1099.68,55,1081.2086,59.3367,1087.5049,69.5522,1099.68,55" style="stroke:#181818;stroke-width:1;stroke-linejoin:miter;stroke-miterlimit:10;"/></g><!--reverse link Sample to SpatialSample--><g class="link" data-entity-1="ent0004" data-entity-2="ent0007" data-link-type="extension" data-source-line="3" id="lnk8"><path codeLine="3" d="M1137,73 C1137,90.66 1137,96.94 1137,114.68" fill="none" id="Sample-backto-SpatialSample" style="stroke:#181818;stroke-width:1;"/><polygon fill="none" points="1137,55,1131,73,1143,73,1137,55" style="stroke:#181818;stroke-width:1;stroke-linejoin:miter;stroke-miterlimit:10;"/></g><!--reverse link Sample to StatisticalSample--><g class="link" data-entity-1="ent0004" data-entity-2="ent0009" data-link-type="extension" data-source-line="4" id="lnk10"><path codeLine="4" d="M1191.3276,64.1725 C1221.2476,81.8925 1246.95,97.11 1276.93,114.86" fill="none" id="Sample-backto-StatisticalSample" style="stroke:#181818;stroke-width:1;"/><polygon fill="none" points="1175.84,55,1188.2701,69.335,1194.3851,59.0099,1175.84,55" style="stroke:#181818;stroke-width:1;stroke-linejoin:miter;stroke-miterlimit:10;"/></g><!--reverse link Property to ObservableProperty--><g class="link" data-entity-1="ent0001" data-entity-2="ent0011" data-link-type="extension" data-source-line="5" id="lnk12"><path codeLine="5" d="M704.8939,67.9094 C722.0539,85.5694 733.1,96.94 750.34,114.68" fill="none" id="Property-backto-ObservableProperty" style="stroke:#181818;stroke-width:1;"/><polygon fill="none" points="692.35,55,700.5907,72.0906,709.197,63.7281,692.35,55" style="stroke:#181818;stroke-width:1;stroke-linejoin:miter;stroke-miterlimit:10;"/></g><!--reverse link Procedure to ActuatingProcedure--><g class="link" data-entity-1="ent0013" data-entity-2="ent0014" data-link-type="extension" data-source-line="6" id="lnk15"><path codeLine="6" d="M1660.8326,63.1732 C1626.0626,80.8932 1594.24,97.11 1559.4,114.86" fill="none" id="Procedure-backto-ActuatingProcedure" style="stroke:#181818;stroke-width:1;"/><polygon fill="none" points="1676.87,55,1658.1082,57.8274,1663.557,68.519,1676.87,55" style="stroke:#181818;stroke-width:1;stroke-linejoin:miter;stroke-miterlimit:10;"/></g><!--reverse link Procedure to ObservingProcedure--><g class="link" data-entity-1="ent0013" data-entity-2="ent0016" data-link-type="extension" data-source-line="7" id="lnk17"><path codeLine="7" d="M1722,73 C1722,90.66 1722,96.94 1722,114.68" fill="none" id="Procedure-backto-ObservingProcedure" style="stroke:#181818;stroke-width:1;"/><polygon fill="none" points="1722,55,1716,73,1728,73,1722,55" style="stroke:#181818;stroke-width:1;stroke-linejoin:miter;stroke-miterlimit:10;"/></g><!--reverse link Procedure to SamplingProcedure--><g class="link" data-entity-1="ent0013" data-entity-2="ent0018" data-link-type="extension" data-source-line="8" id="lnk19"><path codeLine="8" d="M1782.9411,63.205 C1817.5411,80.925 1849.15,97.11 1883.81,114.86" fill="none" id="Procedure-backto-SamplingProcedure" style="stroke:#181818;stroke-width:1;"/><polygon fill="none" points="1766.92,55,1780.2061,68.5454,1785.6762,57.8647,1766.92,55" style="stroke:#181818;stroke-width:1;stroke-linejoin:miter;stroke-miterlimit:10;"/></g><!--reverse link Asset to Platform--><g class="link" data-entity-1="ent0020" data-entity-2="ent0021" data-link-type="extension" data-source-line="9" id="lnk22"><path codeLine="9" d="M2132.7839,70.6022 C2122.6239,88.2622 2117.63,96.94 2107.42,114.68" fill="none" id="Asset-backto-Platform" style="stroke:#181818;stroke-width:1;"/><polygon fill="none" points="2141.76,55,2127.5831,67.6102,2137.9846,73.5943,2141.76,55" style="stroke:#181818;stroke-width:1;stroke-linejoin:miter;stroke-miterlimit:10;"/></g><!--reverse link System to Sampler--><g class="link" data-entity-1="ent0023" data-entity-2="ent0024" data-link-type="extension" data-source-line="10" id="lnk25"><path codeLine="10" d="M2175.8865,174.5884 C2154.8965,192.2484 2139.81,204.94 2118.72,222.68" fill="none" id="System-backto-Sampler" style="stroke:#181818;stroke-width:1;"/><polygon fill="none" points="2189.66,163,2172.0237,169.9972,2179.7493,179.1795,2189.66,163" style="stroke:#181818;stroke-width:1;stroke-linejoin:miter;stroke-miterlimit:10;"/></g><!--reverse link System to Actuator--><g class="link" data-entity-1="ent0023" data-entity-2="ent0026" data-link-type="extension" data-source-line="11" id="lnk27"><path codeLine="11" d="M2217,181 C2217,198.66 2217,204.94 2217,222.68" fill="none" id="System-backto-Actuator" style="stroke:#181818;stroke-width:1;"/><polygon fill="none" points="2217,163,2211,181,2223,181,2217,163" style="stroke:#181818;stroke-width:1;stroke-linejoin:miter;stroke-miterlimit:10;"/></g><!--reverse link Asset to System--><g class="link" data-entity-1="ent0020" data-entity-2="ent0023" data-link-type="extension" data-source-line="12" id="lnk28"><path codeLine="12" d="M2177.5383,70.5372 C2187.8683,88.1972 2192.98,96.94 2203.36,114.68" fill="none" id="Asset-backto-System" style="stroke:#181818;stroke-width:1;"/><polygon fill="none" points="2168.45,55,2172.3592,73.5666,2182.7173,67.5077,2168.45,55" style="stroke:#181818;stroke-width:1;stroke-linejoin:miter;stroke-miterlimit:10;"/></g><!--reverse link Execution to Sampling--><g class="link" data-entity-1="ent0029" data-entity-2="ent0030" data-link-type="extension" data-source-line="13" id="lnk31"><path codeLine="13" d="M2433.8041,66.1688 C2411.4841,83.8288 2394.91,96.94 2372.48,114.68" fill="none" id="Execution-backto-Sampling" style="stroke:#181818;stroke-width:1;"/><polygon fill="none" points="2447.92,55,2430.0812,61.4635,2437.527,70.8741,2447.92,55" style="stroke:#181818;stroke-width:1;stroke-linejoin:miter;stroke-miterlimit:10;"/></g><!--reverse link ExecutionCollection to SamplingCollection--><g class="link" data-entity-1="ent0032" data-entity-2="ent0033" data-link-type="extension" data-source-line="14" id="lnk34"><path codeLine="14" d="M2939.231,63.3636 C2905.461,81.0836 2874.93,97.11 2841.09,114.86" fill="none" id="ExecutionCollection-backto-SamplingCollection" style="stroke:#181818;stroke-width:1;"/><polygon fill="none" points="2955.17,55,2936.4432,58.0506,2942.0189,68.6766,2955.17,55" style="stroke:#181818;stroke-width:1;stroke-linejoin:miter;stroke-miterlimit:10;"/></g><!--reverse link Execution to Actuation--><g class="link" data-entity-1="ent0029" data-entity-2="ent0035" data-link-type="extension" data-source-line="15" id="lnk36"><path codeLine="15" d="M2477,73 C2477,90.66 2477,96.94 2477,114.68" fill="none" id="Execution-backto-Actuation" style="stroke:#181818;stroke-width:1;"/><polygon fill="none" points="2477,55,2471,73,2483,73,2477,55" style="stroke:#181818;stroke-width:1;stroke-linejoin:miter;stroke-miterlimit:10;"/></g><!--reverse link System to Sensor--><g class="link" data-entity-1="ent0023" data-entity-2="ent0037" data-link-type="extension" data-source-line="16" id="lnk38"><path codeLine="16" d="M2256.7968,174.864 C2276.9468,192.524 2291.13,204.94 2311.38,222.68" fill="none" id="System-backto-Sensor" style="stroke:#181818;stroke-width:1;"/><polygon fill="none" points="2243.26,163,2252.8421,179.3763,2260.7515,170.3518,2243.26,163" style="stroke:#181818;stroke-width:1;stroke-linejoin:miter;stroke-miterlimit:10;"/></g><!--reverse link ExecutionCollection to ActuationCollection--><g class="link" data-entity-1="ent0032" data-entity-2="ent0039" data-link-type="extension" data-source-line="17" id="lnk40"><path codeLine="17" d="M2999,73 C2999,90.66 2999,96.94 2999,114.68" fill="none" id="ExecutionCollection-backto-ActuationCollection" style="stroke:#181818;stroke-width:1;"/><polygon fill="none" points="2999,55,2993,73,3005,73,2999,55" style="stroke:#181818;stroke-width:1;stroke-linejoin:miter;stroke-miterlimit:10;"/></g><!--reverse link ExecutionCollection to ObservationCollection--><g class="link" data-entity-1="ent0032" data-entity-2="ent0041" data-link-type="extension" data-source-line="18" id="lnk42"><path codeLine="18" d="M3061.0997,63.0498 C3096.5397,80.7698 3129.22,97.11 3164.72,114.86" fill="none" id="ExecutionCollection-backto-ObservationCollection" style="stroke:#181818;stroke-width:1;"/><polygon fill="none" points="3045,55,3058.4164,68.4164,3063.783,57.6833,3045,55" style="stroke:#181818;stroke-width:1;stroke-linejoin:miter;stroke-miterlimit:10;"/></g><!--reverse link Execution to Observation--><g class="link" data-entity-1="ent0029" data-entity-2="ent0043" data-link-type="extension" data-source-line="19" id="lnk44"><path codeLine="19" d="M2522.4895,65.7202 C2546.3095,83.3802 2564.61,96.94 2588.54,114.68" fill="none" id="Execution-backto-Observation" style="stroke:#181818;stroke-width:1;"/><polygon fill="none" points="2508.03,55,2518.9161,70.54,2526.0629,60.9004,2508.03,55" style="stroke:#181818;stroke-width:1;stroke-linejoin:miter;stroke-miterlimit:10;"/></g><?plantuml-src VL9BZi8m3Dtt55o06ym6COF40hMQdY04CuhaV1GxewaqXoV2JMaAPMU_zsm_M-wY3n1vs7pyRxURdUQaM9qHkX5lUcK3Wj0dnH2DGi4ggW-ALnZE3B7H4zjLCzipGVojPkP0moL5cBioxcV2bmhfyKvn7rq9TaJ0GdQe-EgZRVg16Eoi0cA5YHCVvyN2Drz_e1CRx-fv3tpl4K4_AnxuiiUuToOgN-0eErZjErMzQhmKZyTVap-96esAgEmioG4KvuEsrwFBxm748_uDbB0aHnTIYJyXe1yik0B8gMS616uJlojYOnCcUfsMNxe1?></g></svg>