<svg xmlns="http://www.w3.org/2000/svg" xmlns:xlink="http://www.w3.org/1999/xlink" contentStyleType="text/css" data-diagram-type="CLASS" height="286px" preserveAspectRatio="none" style="width:3160px;height:286px;background:#FFFFFF;" version="1.1" viewBox="0 0 3160 286" width="3160px" zoomAndPan="magnify"><?plantuml 1.2026.4?><defs/><g><!--class Property--><g class="entity" data-qualified-name="Property" data-source-line="1" id="ent0001"><rect fill="#F1F1F1" height="48" rx="2.5" ry="2.5" style="stroke:#181818;stroke-width:0.5;" width="91.7939" x="515" y="7"/><ellipse cx="530" cy="23" fill="#ADD1B2" rx="11" ry="11" style="stroke:#181818;stroke-width:1;"/><path d="M532.9688,28.6406 Q532.3906,28.9375 531.75,29.0781 Q531.1094,29.2344 530.4063,29.2344 Q527.9063,29.2344 526.5781,27.5938 Q525.2656,25.9375 525.2656,22.8125 Q525.2656,19.6875 526.5781,18.0313 Q527.9063,16.375 530.4063,16.375 Q531.1094,16.375 531.75,16.5313 Q532.4063,16.6875 532.9688,16.9844 L532.9688,19.7031 Q532.3438,19.125 531.75,18.8594 Q531.1563,18.5781 530.5313,18.5781 Q529.1875,18.5781 528.5,19.6563 Q527.8125,20.7188 527.8125,22.8125 Q527.8125,24.9063 528.5,25.9844 Q529.1875,27.0469 530.5313,27.0469 Q531.1563,27.0469 531.75,26.7813 Q532.3438,26.5 532.9688,25.9219 L532.9688,28.6406 Z " fill="#000000"/><text fill="#000000" font-family="sans-serif" font-size="14" lengthAdjust="spacing" textLength="59.7939" x="544" y="27.8467">Property</text><line style="stroke:#181818;stroke-width:0.5;" x1="516" x2="605.7939" y1="39" y2="39"/><line style="stroke:#181818;stroke-width:0.5;" x1="516" x2="605.7939" y1="47" y2="47"/></g><!--class ActuatableProperty--><g class="entity" data-qualified-name="ActuatableProperty" data-source-line="1" id="ent0002"><rect fill="#F1F1F1" height="48" rx="2.5" ry="2.5" style="stroke:#181818;stroke-width:0.5;" width="167.4678" x="325.5" y="115"/><ellipse cx="340.5" cy="131" fill="#ADD1B2" rx="11" ry="11" style="stroke:#181818;stroke-width:1;"/><path d="M343.4688,136.6406 Q342.8906,136.9375 342.25,137.0781 Q341.6094,137.2344 340.9063,137.2344 Q338.4063,137.2344 337.0781,135.5938 Q335.7656,133.9375 335.7656,130.8125 Q335.7656,127.6875 337.0781,126.0313 Q338.4063,124.375 340.9063,124.375 Q341.6094,124.375 342.25,124.5313 Q342.9063,124.6875 343.4688,124.9844 L343.4688,127.7031 Q342.8438,127.125 342.25,126.8594 Q341.6563,126.5781 341.0313,126.5781 Q339.6875,126.5781 339,127.6563 Q338.3125,128.7188 338.3125,130.8125 Q338.3125,132.9063 339,133.9844 Q339.6875,135.0469 341.0313,135.0469 Q341.6563,135.0469 342.25,134.7813 Q342.8438,134.5 343.4688,133.9219 L343.4688,136.6406 Z " fill="#000000"/><text fill="#000000" font-family="sans-serif" font-size="14" lengthAdjust="spacing" textLength="135.4678" x="354.5" y="135.8467">ActuatableProperty</text><line style="stroke:#181818;stroke-width:0.5;" x1="326.5" x2="491.9678" y1="147" y2="147"/><line style="stroke:#181818;stroke-width:0.5;" x1="326.5" x2="491.9678" y1="155" y2="155"/></g><!--class Sample--><g class="entity" data-qualified-name="Sample" data-source-line="2" id="ent0004"><rect fill="#F1F1F1" height="48" rx="2.5" ry="2.5" style="stroke:#181818;stroke-width:0.5;" width="84.4932" x="936" y="7"/><ellipse cx="951" cy="23" fill="#ADD1B2" rx="11" ry="11" style="stroke:#181818;stroke-width:1;"/><path d="M953.9688,28.6406 Q953.3906,28.9375 952.75,29.0781 Q952.1094,29.2344 951.4063,29.2344 Q948.9063,29.2344 947.5781,27.5938 Q946.2656,25.9375 946.2656,22.8125 Q946.2656,19.6875 947.5781,18.0313 Q948.9063,16.375 951.4063,16.375 Q952.1094,16.375 952.75,16.5313 Q953.4063,16.6875 953.9688,16.9844 L953.9688,19.7031 Q953.3438,19.125 952.75,18.8594 Q952.1563,18.5781 951.5313,18.5781 Q950.1875,18.5781 949.5,19.6563 Q948.8125,20.7188 948.8125,22.8125 Q948.8125,24.9063 949.5,25.9844 Q950.1875,27.0469 951.5313,27.0469 Q952.1563,27.0469 952.75,26.7813 Q953.3438,26.5 953.9688,25.9219 L953.9688,28.6406 Z " fill="#000000"/><text fill="#000000" font-family="sans-serif" font-size="14" lengthAdjust="spacing" textLength="52.4932" x="965" y="27.8467">Sample</text><line style="stroke:#181818;stroke-width:0.5;" x1="937" x2="1019.4932" y1="39" y2="39"/><line style="stroke:#181818;stroke-width:0.5;" x1="937" x2="1019.4932" y1="47" y2="47"/></g><!--class MaterialSample--><g class="entity" data-qualified-name="MaterialSample" data-source-line="2" id="ent0005"><rect fill="#F1F1F1" height="48" rx="2.5" ry="2.5" style="stroke:#181818;stroke-width:0.5;" width="141.3682" x="735.5" y="115"/><ellipse cx="750.5" cy="131" fill="#ADD1B2" rx="11" ry="11" style="stroke:#181818;stroke-width:1;"/><path d="M753.4688,136.6406 Q752.8906,136.9375 752.25,137.0781 Q751.6094,137.2344 750.9063,137.2344 Q748.4063,137.2344 747.0781,135.5938 Q745.7656,133.9375 745.7656,130.8125 Q745.7656,127.6875 747.0781,126.0313 Q748.4063,124.375 750.9063,124.375 Q751.6094,124.375 752.25,124.5313 Q752.9063,124.6875 753.4688,124.9844 L753.4688,127.7031 Q752.8438,127.125 752.25,126.8594 Q751.6563,126.5781 751.0313,126.5781 Q749.6875,126.5781 749,127.6563 Q748.3125,128.7188 748.3125,130.8125 Q748.3125,132.9063 749,133.9844 Q749.6875,135.0469 751.0313,135.0469 Q751.6563,135.0469 752.25,134.7813 Q752.8438,134.5 753.4688,133.9219 L753.4688,136.6406 Z " fill="#000000"/><text fill="#000000" font-family="sans-serif" font-size="14" lengthAdjust="spacing" textLength="109.3682" x="764.5" y="135.8467">MaterialSample</text><line style="stroke:#181818;stroke-width:0.5;" x1="736.5" x2="875.8682" y1="147" y2="147"/><line style="stroke:#181818;stroke-width:0.5;" x1="736.5" x2="875.8682" y1="155" y2="155"/></g><!--class ObservableProperty--><g class="entity" data-qualified-name="ObservableProperty" data-source-line="3" id="ent0007"><rect fill="#F1F1F1" height="48" rx="2.5" ry="2.5" style="stroke:#181818;stroke-width:0.5;" width="171.6172" x="528" y="115"/><ellipse cx="543" cy="131" fill="#ADD1B2" rx="11" ry="11" style="stroke:#181818;stroke-width:1;"/><path d="M545.9688,136.6406 Q545.3906,136.9375 544.75,137.0781 Q544.1094,137.2344 543.4063,137.2344 Q540.9063,137.2344 539.5781,135.5938 Q538.2656,133.9375 538.2656,130.8125 Q538.2656,127.6875 539.5781,126.0313 Q540.9063,124.375 543.4063,124.375 Q544.1094,124.375 544.75,124.5313 Q545.4063,124.6875 545.9688,124.9844 L545.9688,127.7031 Q545.3438,127.125 544.75,126.8594 Q544.1563,126.5781 543.5313,126.5781 Q542.1875,126.5781 541.5,127.6563 Q540.8125,128.7188 540.8125,130.8125 Q540.8125,132.9063 541.5,133.9844 Q542.1875,135.0469 543.5313,135.0469 Q544.1563,135.0469 544.75,134.7813 Q545.3438,134.5 545.9688,133.9219 L545.9688,136.6406 Z " fill="#000000"/><text fill="#000000" font-family="sans-serif" font-size="14" lengthAdjust="spacing" textLength="139.6172" x="557" y="135.8467">ObservableProperty</text><line style="stroke:#181818;stroke-width:0.5;" x1="529" x2="698.6172" y1="147" y2="147"/><line style="stroke:#181818;stroke-width:0.5;" x1="529" x2="698.6172" y1="155" y2="155"/></g><!--class SpatialSample--><g class="entity" data-qualified-name="SpatialSample" data-source-line="4" id="ent0009"><rect fill="#F1F1F1" height="48" rx="2.5" ry="2.5" style="stroke:#181818;stroke-width:0.5;" width="132.6934" x="911.5" y="115"/><ellipse cx="926.5" cy="131" fill="#ADD1B2" rx="11" ry="11" style="stroke:#181818;stroke-width:1;"/><path d="M929.4688,136.6406 Q928.8906,136.9375 928.25,137.0781 Q927.6094,137.2344 926.9063,137.2344 Q924.4063,137.2344 923.0781,135.5938 Q921.7656,133.9375 921.7656,130.8125 Q921.7656,127.6875 923.0781,126.0313 Q924.4063,124.375 926.9063,124.375 Q927.6094,124.375 928.25,124.5313 Q928.9063,124.6875 929.4688,124.9844 L929.4688,127.7031 Q928.8438,127.125 928.25,126.8594 Q927.6563,126.5781 927.0313,126.5781 Q925.6875,126.5781 925,127.6563 Q924.3125,128.7188 924.3125,130.8125 Q924.3125,132.9063 925,133.9844 Q925.6875,135.0469 927.0313,135.0469 Q927.6563,135.0469 928.25,134.7813 Q928.8438,134.5 929.4688,133.9219 L929.4688,136.6406 Z " fill="#000000"/><text fill="#000000" font-family="sans-serif" font-size="14" lengthAdjust="spacing" textLength="100.6934" x="940.5" y="135.8467">SpatialSample</text><line style="stroke:#181818;stroke-width:0.5;" x1="912.5" x2="1043.1934" y1="147" y2="147"/><line style="stroke:#181818;stroke-width:0.5;" x1="912.5" x2="1043.1934" y1="155" y2="155"/></g><!--class StatisticalSample--><g class="entity" data-qualified-name="StatisticalSample" data-source-line="5" id="ent0011"><rect fill="#F1F1F1" height="48" rx="2.5" ry="2.5" style="stroke:#181818;stroke-width:0.5;" width="153.666" x="1080" y="115"/><ellipse cx="1095" cy="131" fill="#ADD1B2" rx="11" ry="11" style="stroke:#181818;stroke-width:1;"/><path d="M1097.9688,136.6406 Q1097.3906,136.9375 1096.75,137.0781 Q1096.1094,137.2344 1095.4063,137.2344 Q1092.9063,137.2344 1091.5781,135.5938 Q1090.2656,133.9375 1090.2656,130.8125 Q1090.2656,127.6875 1091.5781,126.0313 Q1092.9063,124.375 1095.4063,124.375 Q1096.1094,124.375 1096.75,124.5313 Q1097.4063,124.6875 1097.9688,124.9844 L1097.9688,127.7031 Q1097.3438,127.125 1096.75,126.8594 Q1096.1563,126.5781 1095.5313,126.5781 Q1094.1875,126.5781 1093.5,127.6563 Q1092.8125,128.7188 1092.8125,130.8125 Q1092.8125,132.9063 1093.5,133.9844 Q1094.1875,135.0469 1095.5313,135.0469 Q1096.1563,135.0469 1096.75,134.7813 Q1097.3438,134.5 1097.9688,133.9219 L1097.9688,136.6406 Z " fill="#000000"/><text fill="#000000" font-family="sans-serif" font-size="14" lengthAdjust="spacing" textLength="121.666" x="1109" y="135.8467">StatisticalSample</text><line style="stroke:#181818;stroke-width:0.5;" x1="1081" x2="1232.666" y1="147" y2="147"/><line style="stroke:#181818;stroke-width:0.5;" x1="1081" x2="1232.666" y1="155" y2="155"/></g><!--class Procedure--><g class="entity" data-qualified-name="Procedure" data-source-line="6" id="ent0013"><rect fill="#F1F1F1" height="48" rx="2.5" ry="2.5" style="stroke:#181818;stroke-width:0.5;" width="103.2031" x="1511.5" y="7"/><ellipse cx="1526.5" cy="23" fill="#ADD1B2" rx="11" ry="11" style="stroke:#181818;stroke-width:1;"/><path d="M1529.4688,28.6406 Q1528.8906,28.9375 1528.25,29.0781 Q1527.6094,29.2344 1526.9063,29.2344 Q1524.4063,29.2344 1523.0781,27.5938 Q1521.7656,25.9375 1521.7656,22.8125 Q1521.7656,19.6875 1523.0781,18.0313 Q1524.4063,16.375 1526.9063,16.375 Q1527.6094,16.375 1528.25,16.5313 Q1528.9063,16.6875 1529.4688,16.9844 L1529.4688,19.7031 Q1528.8438,19.125 1528.25,18.8594 Q1527.6563,18.5781 1527.0313,18.5781 Q1525.6875,18.5781 1525,19.6563 Q1524.3125,20.7188 1524.3125,22.8125 Q1524.3125,24.9063 1525,25.9844 Q1525.6875,27.0469 1527.0313,27.0469 Q1527.6563,27.0469 1528.25,26.7813 Q1528.8438,26.5 1529.4688,25.9219 L1529.4688,28.6406 Z " fill="#000000"/><text fill="#000000" font-family="sans-serif" font-size="14" lengthAdjust="spacing" textLength="71.2031" x="1540.5" y="27.8467">Procedure</text><line style="stroke:#181818;stroke-width:0.5;" x1="1512.5" x2="1613.7031" y1="39" y2="39"/><line style="stroke:#181818;stroke-width:0.5;" x1="1512.5" x2="1613.7031" y1="47" y2="47"/></g><!--class ActuatingProcedure--><g class="entity" data-qualified-name="ActuatingProcedure" data-source-line="6" id="ent0014"><rect fill="#F1F1F1" height="48" rx="2.5" ry="2.5" style="stroke:#181818;stroke-width:0.5;" width="170.5576" x="1269.5" y="115"/><ellipse cx="1284.5" cy="131" fill="#ADD1B2" rx="11" ry="11" style="stroke:#181818;stroke-width:1;"/><path d="M1287.4688,136.6406 Q1286.8906,136.9375 1286.25,137.0781 Q1285.6094,137.2344 1284.9063,137.2344 Q1282.4063,137.2344 1281.0781,135.5938 Q1279.7656,133.9375 1279.7656,130.8125 Q1279.7656,127.6875 1281.0781,126.0313 Q1282.4063,124.375 1284.9063,124.375 Q1285.6094,124.375 1286.25,124.5313 Q1286.9063,124.6875 1287.4688,124.9844 L1287.4688,127.7031 Q1286.8438,127.125 1286.25,126.8594 Q1285.6563,126.5781 1285.0313,126.5781 Q1283.6875,126.5781 1283,127.6563 Q1282.3125,128.7188 1282.3125,130.8125 Q1282.3125,132.9063 1283,133.9844 Q1283.6875,135.0469 1285.0313,135.0469 Q1285.6563,135.0469 1286.25,134.7813 Q1286.8438,134.5 1287.4688,133.9219 L1287.4688,136.6406 Z " fill="#000000"/><text fill="#000000" font-family="sans-serif" font-size="14" lengthAdjust="spacing" textLength="138.5576" x="1298.5" y="135.8467">ActuatingProcedure</text><line style="stroke:#181818;stroke-width:0.5;" x1="1270.5" x2="1439.0576" y1="147" y2="147"/><line style="stroke:#181818;stroke-width:0.5;" x1="1270.5" x2="1439.0576" y1="155" y2="155"/></g><!--class ObservingProcedure--><g class="entity" data-qualified-name="ObservingProcedure" data-source-line="7" id="ent0016"><rect fill="#F1F1F1" height="48" rx="2.5" ry="2.5" style="stroke:#181818;stroke-width:0.5;" width="174.707" x="1475.5" y="115"/><ellipse cx="1490.5" cy="131" fill="#ADD1B2" rx="11" ry="11" style="stroke:#181818;stroke-width:1;"/><path d="M1493.4688,136.6406 Q1492.8906,136.9375 1492.25,137.0781 Q1491.6094,137.2344 1490.9063,137.2344 Q1488.4063,137.2344 1487.0781,135.5938 Q1485.7656,133.9375 1485.7656,130.8125 Q1485.7656,127.6875 1487.0781,126.0313 Q1488.4063,124.375 1490.9063,124.375 Q1491.6094,124.375 1492.25,124.5313 Q1492.9063,124.6875 1493.4688,124.9844 L1493.4688,127.7031 Q1492.8438,127.125 1492.25,126.8594 Q1491.6563,126.5781 1491.0313,126.5781 Q1489.6875,126.5781 1489,127.6563 Q1488.3125,128.7188 1488.3125,130.8125 Q1488.3125,132.9063 1489,133.9844 Q1489.6875,135.0469 1491.0313,135.0469 Q1491.6563,135.0469 1492.25,134.7813 Q1492.8438,134.5 1493.4688,133.9219 L1493.4688,136.6406 Z " fill="#000000"/><text fill="#000000" font-family="sans-serif" font-size="14" lengthAdjust="spacing" textLength="142.707" x="1504.5" y="135.8467">ObservingProcedure</text><line style="stroke:#181818;stroke-width:0.5;" x1="1476.5" x2="1649.207" y1="147" y2="147"/><line style="stroke:#181818;stroke-width:0.5;" x1="1476.5" x2="1649.207" y1="155" y2="155"/></g><!--class SamplingProcedure--><g class="entity" data-qualified-name="SamplingProcedure" data-source-line="8" id="ent0018"><rect fill="#F1F1F1" height="48" rx="2.5" ry="2.5" style="stroke:#181818;stroke-width:0.5;" width="168.7324" x="1685.5" y="115"/><ellipse cx="1700.5" cy="131" fill="#ADD1B2" rx="11" ry="11" style="stroke:#181818;stroke-width:1;"/><path d="M1703.4688,136.6406 Q1702.8906,136.9375 1702.25,137.0781 Q1701.6094,137.2344 1700.9063,137.2344 Q1698.4063,137.2344 1697.0781,135.5938 Q1695.7656,133.9375 1695.7656,130.8125 Q1695.7656,127.6875 1697.0781,126.0313 Q1698.4063,124.375 1700.9063,124.375 Q1701.6094,124.375 1702.25,124.5313 Q1702.9063,124.6875 1703.4688,124.9844 L1703.4688,127.7031 Q1702.8438,127.125 1702.25,126.8594 Q1701.6563,126.5781 1701.0313,126.5781 Q1699.6875,126.5781 1699,127.6563 Q1698.3125,128.7188 1698.3125,130.8125 Q1698.3125,132.9063 1699,133.9844 Q1699.6875,135.0469 1701.0313,135.0469 Q1701.6563,135.0469 1702.25,134.7813 Q1702.8438,134.5 1703.4688,133.9219 L1703.4688,136.6406 Z " fill="#000000"/><text fill="#000000" font-family="sans-serif" font-size="14" lengthAdjust="spacing" textLength="136.7324" x="1714.5" y="135.8467">SamplingProcedure</text><line style="stroke:#181818;stroke-width:0.5;" x1="1686.5" x2="1853.2324" y1="147" y2="147"/><line style="stroke:#181818;stroke-width:0.5;" x1="1686.5" x2="1853.2324" y1="155" y2="155"/></g><!--class Asset--><g class="entity" data-qualified-name="Asset" data-source-line="9" id="ent0020"><rect fill="#F1F1F1" height="48" rx="2.5" ry="2.5" style="stroke:#181818;stroke-width:0.5;" width="70.2676" x="1961" y="7"/><ellipse cx="1976" cy="23" fill="#ADD1B2" rx="11" ry="11" style="stroke:#181818;stroke-width:1;"/><path d="M1978.9688,28.6406 Q1978.3906,28.9375 1977.75,29.0781 Q1977.1094,29.2344 1976.4063,29.2344 Q1973.9063,29.2344 1972.5781,27.5938 Q1971.2656,25.9375 1971.2656,22.8125 Q1971.2656,19.6875 1972.5781,18.0313 Q1973.9063,16.375 1976.4063,16.375 Q1977.1094,16.375 1977.75,16.5313 Q1978.4063,16.6875 1978.9688,16.9844 L1978.9688,19.7031 Q1978.3438,19.125 1977.75,18.8594 Q1977.1563,18.5781 1976.5313,18.5781 Q1975.1875,18.5781 1974.5,19.6563 Q1973.8125,20.7188 1973.8125,22.8125 Q1973.8125,24.9063 1974.5,25.9844 Q1975.1875,27.0469 1976.5313,27.0469 Q1977.1563,27.0469 1977.75,26.7813 Q1978.3438,26.5 1978.9688,25.9219 L1978.9688,28.6406 Z " fill="#000000"/><text fill="#000000" font-family="sans-serif" font-size="14" lengthAdjust="spacing" textLength="38.2676" x="1990" y="27.8467">Asset</text><line style="stroke:#181818;stroke-width:0.5;" x1="1962" x2="2030.2676" y1="39" y2="39"/><line style="stroke:#181818;stroke-width:0.5;" x1="1962" x2="2030.2676" y1="47" y2="47"/></g><!--class Platform--><g class="entity" data-qualified-name="Platform" data-source-line="9" id="ent0021"><rect fill="#F1F1F1" height="48" rx="2.5" ry="2.5" style="stroke:#181818;stroke-width:0.5;" width="91.2881" x="1889.5" y="115"/><ellipse cx="1904.5" cy="131" fill="#ADD1B2" rx="11" ry="11" style="stroke:#181818;stroke-width:1;"/><path d="M1907.4688,136.6406 Q1906.8906,136.9375 1906.25,137.0781 Q1905.6094,137.2344 1904.9063,137.2344 Q1902.4063,137.2344 1901.0781,135.5938 Q1899.7656,133.9375 1899.7656,130.8125 Q1899.7656,127.6875 1901.0781,126.0313 Q1902.4063,124.375 1904.9063,124.375 Q1905.6094,124.375 1906.25,124.5313 Q1906.9063,124.6875 1907.4688,124.9844 L1907.4688,127.7031 Q1906.8438,127.125 1906.25,126.8594 Q1905.6563,126.5781 1905.0313,126.5781 Q1903.6875,126.5781 1903,127.6563 Q1902.3125,128.7188 1902.3125,130.8125 Q1902.3125,132.9063 1903,133.9844 Q1903.6875,135.0469 1905.0313,135.0469 Q1905.6563,135.0469 1906.25,134.7813 Q1906.8438,134.5 1907.4688,133.9219 L1907.4688,136.6406 Z " fill="#000000"/><text fill="#000000" font-family="sans-serif" font-size="14" lengthAdjust="spacing" textLength="59.2881" x="1918.5" y="135.8467">Platform</text><line style="stroke:#181818;stroke-width:0.5;" x1="1890.5" x2="1979.7881" y1="147" y2="147"/><line style="stroke:#181818;stroke-width:0.5;" x1="1890.5" x2="1979.7881" y1="155" y2="155"/></g><!--class System--><g class="entity" data-qualified-name="System" data-source-line="10" id="ent0023"><rect fill="#F1F1F1" height="48" rx="2.5" ry="2.5" style="stroke:#181818;stroke-width:0.5;" width="84.2061" x="2016" y="115"/><ellipse cx="2031" cy="131" fill="#ADD1B2" rx="11" ry="11" style="stroke:#181818;stroke-width:1;"/><path d="M2033.9688,136.6406 Q2033.3906,136.9375 2032.75,137.0781 Q2032.1094,137.2344 2031.4063,137.2344 Q2028.9063,137.2344 2027.5781,135.5938 Q2026.2656,133.9375 2026.2656,130.8125 Q2026.2656,127.6875 2027.5781,126.0313 Q2028.9063,124.375 2031.4063,124.375 Q2032.1094,124.375 2032.75,124.5313 Q2033.4063,124.6875 2033.9688,124.9844 L2033.9688,127.7031 Q2033.3438,127.125 2032.75,126.8594 Q2032.1563,126.5781 2031.5313,126.5781 Q2030.1875,126.5781 2029.5,127.6563 Q2028.8125,128.7188 2028.8125,130.8125 Q2028.8125,132.9063 2029.5,133.9844 Q2030.1875,135.0469 2031.5313,135.0469 Q2032.1563,135.0469 2032.75,134.7813 Q2033.3438,134.5 2033.9688,133.9219 L2033.9688,136.6406 Z " fill="#000000"/><text fill="#000000" font-family="sans-serif" font-size="14" lengthAdjust="spacing" textLength="52.2061" x="2045" y="135.8467">System</text><line style="stroke:#181818;stroke-width:0.5;" x1="2017" x2="2099.2061" y1="147" y2="147"/><line style="stroke:#181818;stroke-width:0.5;" x1="2017" x2="2099.2061" y1="155" y2="155"/></g><!--class Sampler--><g class="entity" data-qualified-name="Sampler" data-source-line="10" id="ent0024"><rect fill="#F1F1F1" height="48" rx="2.5" ry="2.5" style="stroke:#181818;stroke-width:0.5;" width="90.249" x="1887" y="223"/><ellipse cx="1902" cy="239" fill="#ADD1B2" rx="11" ry="11" style="stroke:#181818;stroke-width:1;"/><path d="M1904.9688,244.6406 Q1904.3906,244.9375 1903.75,245.0781 Q1903.1094,245.2344 1902.4063,245.2344 Q1899.9063,245.2344 1898.5781,243.5938 Q1897.2656,241.9375 1897.2656,238.8125 Q1897.2656,235.6875 1898.5781,234.0313 Q1899.9063,232.375 1902.4063,232.375 Q1903.1094,232.375 1903.75,232.5313 Q1904.4063,232.6875 1904.9688,232.9844 L1904.9688,235.7031 Q1904.3438,235.125 1903.75,234.8594 Q1903.1563,234.5781 1902.5313,234.5781 Q1901.1875,234.5781 1900.5,235.6563 Q1899.8125,236.7188 1899.8125,238.8125 Q1899.8125,240.9063 1900.5,241.9844 Q1901.1875,243.0469 1902.5313,243.0469 Q1903.1563,243.0469 1903.75,242.7813 Q1904.3438,242.5 1904.9688,241.9219 L1904.9688,244.6406 Z " fill="#000000"/><text fill="#000000" font-family="sans-serif" font-size="14" lengthAdjust="spacing" textLength="58.249" x="1916" y="243.8467">Sampler</text><line style="stroke:#181818;stroke-width:0.5;" x1="1888" x2="1976.249" y1="255" y2="255"/><line style="stroke:#181818;stroke-width:0.5;" x1="1888" x2="1976.249" y1="263" y2="263"/></g><!--class Actuator--><g class="entity" data-qualified-name="Actuator" data-source-line="11" id="ent0026"><rect fill="#F1F1F1" height="48" rx="2.5" ry="2.5" style="stroke:#181818;stroke-width:0.5;" width="92.0264" x="2012" y="223"/><ellipse cx="2027" cy="239" fill="#ADD1B2" rx="11" ry="11" style="stroke:#181818;stroke-width:1;"/><path d="M2029.9688,244.6406 Q2029.3906,244.9375 2028.75,245.0781 Q2028.1094,245.2344 2027.4063,245.2344 Q2024.9063,245.2344 2023.5781,243.5938 Q2022.2656,241.9375 2022.2656,238.8125 Q2022.2656,235.6875 2023.5781,234.0313 Q2024.9063,232.375 2027.4063,232.375 Q2028.1094,232.375 2028.75,232.5313 Q2029.4063,232.6875 2029.9688,232.9844 L2029.9688,235.7031 Q2029.3438,235.125 2028.75,234.8594 Q2028.1563,234.5781 2027.5313,234.5781 Q2026.1875,234.5781 2025.5,235.6563 Q2024.8125,236.7188 2024.8125,238.8125 Q2024.8125,240.9063 2025.5,241.9844 Q2026.1875,243.0469 2027.5313,243.0469 Q2028.1563,243.0469 2028.75,242.7813 Q2029.3438,242.5 2029.9688,241.9219 L2029.9688,244.6406 Z " fill="#000000"/><text fill="#000000" font-family="sans-serif" font-size="14" lengthAdjust="spacing" textLength="60.0264" x="2041" y="243.8467">Actuator</text><line style="stroke:#181818;stroke-width:0.5;" x1="2013" x2="2103.0264" y1="255" y2="255"/><line style="stroke:#181818;stroke-width:0.5;" x1="2013" x2="2103.0264" y1="263" y2="263"/></g><!--class ExecutionCollection--><g class="entity" data-qualified-name="ExecutionCollection" data-source-line="12" id="ent0028"><rect fill="#F1F1F1" height="48" rx="2.5" ry="2.5" style="stroke:#181818;stroke-width:0.5;" width="170.3799" x="2336" y="7"/><ellipse cx="2351" cy="23" fill="#ADD1B2" rx="11" ry="11" style="stroke:#181818;stroke-width:1;"/><path d="M2353.9688,28.6406 Q2353.3906,28.9375 2352.75,29.0781 Q2352.1094,29.2344 2351.4063,29.2344 Q2348.9063,29.2344 2347.5781,27.5938 Q2346.2656,25.9375 2346.2656,22.8125 Q2346.2656,19.6875 2347.5781,18.0313 Q2348.9063,16.375 2351.4063,16.375 Q2352.1094,16.375 2352.75,16.5313 Q2353.4063,16.6875 2353.9688,16.9844 L2353.9688,19.7031 Q2353.3438,19.125 2352.75,18.8594 Q2352.1563,18.5781 2351.5313,18.5781 Q2350.1875,18.5781 2349.5,19.6563 Q2348.8125,20.7188 2348.8125,22.8125 Q2348.8125,24.9063 2349.5,25.9844 Q2350.1875,27.0469 2351.5313,27.0469 Q2352.1563,27.0469 2352.75,26.7813 Q2353.3438,26.5 2353.9688,25.9219 L2353.9688,28.6406 Z " fill="#000000"/><text fill="#000000" font-family="sans-serif" font-size="14" lengthAdjust="spacing" textLength="138.3799" x="2365" y="27.8467">ExecutionCollection</text><line style="stroke:#181818;stroke-width:0.5;" x1="2337" x2="2505.3799" y1="39" y2="39"/><line style="stroke:#181818;stroke-width:0.5;" x1="2337" x2="2505.3799" y1="47" y2="47"/></g><!--class SamplingCollection--><g class="entity" data-qualified-name="SamplingCollection" data-source-line="12" id="ent0029"><rect fill="#F1F1F1" height="48" rx="2.5" ry="2.5" style="stroke:#181818;stroke-width:0.5;" width="166.7773" x="2135.5" y="115"/><ellipse cx="2150.5" cy="131" fill="#ADD1B2" rx="11" ry="11" style="stroke:#181818;stroke-width:1;"/><path d="M2153.4688,136.6406 Q2152.8906,136.9375 2152.25,137.0781 Q2151.6094,137.2344 2150.9063,137.2344 Q2148.4063,137.2344 2147.0781,135.5938 Q2145.7656,133.9375 2145.7656,130.8125 Q2145.7656,127.6875 2147.0781,126.0313 Q2148.4063,124.375 2150.9063,124.375 Q2151.6094,124.375 2152.25,124.5313 Q2152.9063,124.6875 2153.4688,124.9844 L2153.4688,127.7031 Q2152.8438,127.125 2152.25,126.8594 Q2151.6563,126.5781 2151.0313,126.5781 Q2149.6875,126.5781 2149,127.6563 Q2148.3125,128.7188 2148.3125,130.8125 Q2148.3125,132.9063 2149,133.9844 Q2149.6875,135.0469 2151.0313,135.0469 Q2151.6563,135.0469 2152.25,134.7813 Q2152.8438,134.5 2153.4688,133.9219 L2153.4688,136.6406 Z " fill="#000000"/><text fill="#000000" font-family="sans-serif" font-size="14" lengthAdjust="spacing" textLength="134.7773" x="2164.5" y="135.8467">SamplingCollection</text><line style="stroke:#181818;stroke-width:0.5;" x1="2136.5" x2="2301.2773" y1="147" y2="147"/><line style="stroke:#181818;stroke-width:0.5;" x1="2136.5" x2="2301.2773" y1="155" y2="155"/></g><!--class Sensor--><g class="entity" data-qualified-name="Sensor" data-source-line="14" id="ent0032"><rect fill="#F1F1F1" height="48" rx="2.5" ry="2.5" style="stroke:#181818;stroke-width:0.5;" width="79.9883" x="2139" y="223"/><ellipse cx="2154" cy="239" fill="#ADD1B2" rx="11" ry="11" style="stroke:#181818;stroke-width:1;"/><path d="M2156.9688,244.6406 Q2156.3906,244.9375 2155.75,245.0781 Q2155.1094,245.2344 2154.4063,245.2344 Q2151.9063,245.2344 2150.5781,243.5938 Q2149.2656,241.9375 2149.2656,238.8125 Q2149.2656,235.6875 2150.5781,234.0313 Q2151.9063,232.375 2154.4063,232.375 Q2155.1094,232.375 2155.75,232.5313 Q2156.4063,232.6875 2156.9688,232.9844 L2156.9688,235.7031 Q2156.3438,235.125 2155.75,234.8594 Q2155.1563,234.5781 2154.5313,234.5781 Q2153.1875,234.5781 2152.5,235.6563 Q2151.8125,236.7188 2151.8125,238.8125 Q2151.8125,240.9063 2152.5,241.9844 Q2153.1875,243.0469 2154.5313,243.0469 Q2155.1563,243.0469 2155.75,242.7813 Q2156.3438,242.5 2156.9688,241.9219 L2156.9688,244.6406 Z " fill="#000000"/><text fill="#000000" font-family="sans-serif" font-size="14" lengthAdjust="spacing" textLength="47.9883" x="2168" y="243.8467">Sensor</text><line style="stroke:#181818;stroke-width:0.5;" x1="2140" x2="2217.9883" y1="255" y2="255"/><line style="stroke:#181818;stroke-width:0.5;" x1="2140" x2="2217.9883" y1="263" y2="263"/></g><!--class Execution--><g class="entity" data-qualified-name="Execution" data-source-line="15" id="ent0034"><rect fill="#F1F1F1" height="48" rx="2.5" ry="2.5" style="stroke:#181818;stroke-width:0.5;" width="101.1318" x="2893.5" y="7"/><ellipse cx="2908.5" cy="23" fill="#ADD1B2" rx="11" ry="11" style="stroke:#181818;stroke-width:1;"/><path d="M2911.4688,28.6406 Q2910.8906,28.9375 2910.25,29.0781 Q2909.6094,29.2344 2908.9063,29.2344 Q2906.4063,29.2344 2905.0781,27.5938 Q2903.7656,25.9375 2903.7656,22.8125 Q2903.7656,19.6875 2905.0781,18.0313 Q2906.4063,16.375 2908.9063,16.375 Q2909.6094,16.375 2910.25,16.5313 Q2910.9063,16.6875 2911.4688,16.9844 L2911.4688,19.7031 Q2910.8438,19.125 2910.25,18.8594 Q2909.6563,18.5781 2909.0313,18.5781 Q2907.6875,18.5781 2907,19.6563 Q2906.3125,20.7188 2906.3125,22.8125 Q2906.3125,24.9063 2907,25.9844 Q2907.6875,27.0469 2909.0313,27.0469 Q2909.6563,27.0469 2910.25,26.7813 Q2910.8438,26.5 2911.4688,25.9219 L2911.4688,28.6406 Z " fill="#000000"/><text fill="#000000" font-family="sans-serif" font-size="14" lengthAdjust="spacing" textLength="69.1318" x="2922.5" y="27.8467">Execution</text><line style="stroke:#181818;stroke-width:0.5;" x1="2894.5" x2="2993.6318" y1="39" y2="39"/><line style="stroke:#181818;stroke-width:0.5;" x1="2894.5" x2="2993.6318" y1="47" y2="47"/></g><!--class Sampling--><g class="entity" data-qualified-name="Sampling" data-source-line="15" id="ent0035"><rect fill="#F1F1F1" height="48" rx="2.5" ry="2.5" style="stroke:#181818;stroke-width:0.5;" width="97.5293" x="2761" y="115"/><ellipse cx="2776" cy="131" fill="#ADD1B2" rx="11" ry="11" style="stroke:#181818;stroke-width:1;"/><path d="M2778.9688,136.6406 Q2778.3906,136.9375 2777.75,137.0781 Q2777.1094,137.2344 2776.4063,137.2344 Q2773.9063,137.2344 2772.5781,135.5938 Q2771.2656,133.9375 2771.2656,130.8125 Q2771.2656,127.6875 2772.5781,126.0313 Q2773.9063,124.375 2776.4063,124.375 Q2777.1094,124.375 2777.75,124.5313 Q2778.4063,124.6875 2778.9688,124.9844 L2778.9688,127.7031 Q2778.3438,127.125 2777.75,126.8594 Q2777.1563,126.5781 2776.5313,126.5781 Q2775.1875,126.5781 2774.5,127.6563 Q2773.8125,128.7188 2773.8125,130.8125 Q2773.8125,132.9063 2774.5,133.9844 Q2775.1875,135.0469 2776.5313,135.0469 Q2777.1563,135.0469 2777.75,134.7813 Q2778.3438,134.5 2778.9688,133.9219 L2778.9688,136.6406 Z " fill="#000000"/><text fill="#000000" font-family="sans-serif" font-size="14" lengthAdjust="spacing" textLength="65.5293" x="2790" y="135.8467">Sampling</text><line style="stroke:#181818;stroke-width:0.5;" x1="2762" x2="2857.5293" y1="147" y2="147"/><line style="stroke:#181818;stroke-width:0.5;" x1="2762" x2="2857.5293" y1="155" y2="155"/></g><!--class Actuation--><g class="entity" data-qualified-name="Actuation" data-source-line="16" id="ent0037"><rect fill="#F1F1F1" height="48" rx="2.5" ry="2.5" style="stroke:#181818;stroke-width:0.5;" width="99.0332" x="2894.5" y="115"/><ellipse cx="2909.5" cy="131" fill="#ADD1B2" rx="11" ry="11" style="stroke:#181818;stroke-width:1;"/><path d="M2912.4688,136.6406 Q2911.8906,136.9375 2911.25,137.0781 Q2910.6094,137.2344 2909.9063,137.2344 Q2907.4063,137.2344 2906.0781,135.5938 Q2904.7656,133.9375 2904.7656,130.8125 Q2904.7656,127.6875 2906.0781,126.0313 Q2907.4063,124.375 2909.9063,124.375 Q2910.6094,124.375 2911.25,124.5313 Q2911.9063,124.6875 2912.4688,124.9844 L2912.4688,127.7031 Q2911.8438,127.125 2911.25,126.8594 Q2910.6563,126.5781 2910.0313,126.5781 Q2908.6875,126.5781 2908,127.6563 Q2907.3125,128.7188 2907.3125,130.8125 Q2907.3125,132.9063 2908,133.9844 Q2908.6875,135.0469 2910.0313,135.0469 Q2910.6563,135.0469 2911.25,134.7813 Q2911.8438,134.5 2912.4688,133.9219 L2912.4688,136.6406 Z " fill="#000000"/><text fill="#000000" font-family="sans-serif" font-size="14" lengthAdjust="spacing" textLength="67.0332" x="2923.5" y="135.8467">Actuation</text><line style="stroke:#181818;stroke-width:0.5;" x1="2895.5" x2="2992.5332" y1="147" y2="147"/><line style="stroke:#181818;stroke-width:0.5;" x1="2895.5" x2="2992.5332" y1="155" y2="155"/></g><!--class ActuationCollection--><g class="entity" data-qualified-name="ActuationCollection" data-source-line="17" id="ent0039"><rect fill="#F1F1F1" height="48" rx="2.5" ry="2.5" style="stroke:#181818;stroke-width:0.5;" width="168.2813" x="2337" y="115"/><ellipse cx="2352" cy="131" fill="#ADD1B2" rx="11" ry="11" style="stroke:#181818;stroke-width:1;"/><path d="M2354.9688,136.6406 Q2354.3906,136.9375 2353.75,137.0781 Q2353.1094,137.2344 2352.4063,137.2344 Q2349.9063,137.2344 2348.5781,135.5938 Q2347.2656,133.9375 2347.2656,130.8125 Q2347.2656,127.6875 2348.5781,126.0313 Q2349.9063,124.375 2352.4063,124.375 Q2353.1094,124.375 2353.75,124.5313 Q2354.4063,124.6875 2354.9688,124.9844 L2354.9688,127.7031 Q2354.3438,127.125 2353.75,126.8594 Q2353.1563,126.5781 2352.5313,126.5781 Q2351.1875,126.5781 2350.5,127.6563 Q2349.8125,128.7188 2349.8125,130.8125 Q2349.8125,132.9063 2350.5,133.9844 Q2351.1875,135.0469 2352.5313,135.0469 Q2353.1563,135.0469 2353.75,134.7813 Q2354.3438,134.5 2354.9688,133.9219 L2354.9688,136.6406 Z " fill="#000000"/><text fill="#000000" font-family="sans-serif" font-size="14" lengthAdjust="spacing" textLength="136.2813" x="2366" y="135.8467">ActuationCollection</text><line style="stroke:#181818;stroke-width:0.5;" x1="2338" x2="2504.2813" y1="147" y2="147"/><line style="stroke:#181818;stroke-width:0.5;" x1="2338" x2="2504.2813" y1="155" y2="155"/></g><!--class ObservationCollection--><g class="entity" data-qualified-name="ObservationCollection" data-source-line="18" id="ent0041"><rect fill="#F1F1F1" height="48" rx="2.5" ry="2.5" style="stroke:#181818;stroke-width:0.5;" width="186.499" x="2540" y="115"/><ellipse cx="2555" cy="131" fill="#ADD1B2" rx="11" ry="11" style="stroke:#181818;stroke-width:1;"/><path d="M2557.9688,136.6406 Q2557.3906,136.9375 2556.75,137.0781 Q2556.1094,137.2344 2555.4063,137.2344 Q2552.9063,137.2344 2551.5781,135.5938 Q2550.2656,133.9375 2550.2656,130.8125 Q2550.2656,127.6875 2551.5781,126.0313 Q2552.9063,124.375 2555.4063,124.375 Q2556.1094,124.375 2556.75,124.5313 Q2557.4063,124.6875 2557.9688,124.9844 L2557.9688,127.7031 Q2557.3438,127.125 2556.75,126.8594 Q2556.1563,126.5781 2555.5313,126.5781 Q2554.1875,126.5781 2553.5,127.6563 Q2552.8125,128.7188 2552.8125,130.8125 Q2552.8125,132.9063 2553.5,133.9844 Q2554.1875,135.0469 2555.5313,135.0469 Q2556.1563,135.0469 2556.75,134.7813 Q2557.3438,134.5 2557.9688,133.9219 L2557.9688,136.6406 Z " fill="#000000"/><text fill="#000000" font-family="sans-serif" font-size="14" lengthAdjust="spacing" textLength="154.499" x="2569" y="135.8467">ObservationCollection</text><line style="stroke:#181818;stroke-width:0.5;" x1="2541" x2="2725.499" y1="147" y2="147"/><line style="stroke:#181818;stroke-width:0.5;" x1="2541" x2="2725.499" y1="155" y2="155"/></g><!--class Observation--><g class="entity" data-qualified-name="Observation" data-source-line="19" id="ent0043"><rect fill="#F1F1F1" height="48" rx="2.5" ry="2.5" style="stroke:#181818;stroke-width:0.5;" width="117.251" x="3028.5" y="115"/><ellipse cx="3043.5" cy="131" fill="#ADD1B2" rx="11" ry="11" style="stroke:#181818;stroke-width:1;"/><path d="M3046.4688,136.6406 Q3045.8906,136.9375 3045.25,137.0781 Q3044.6094,137.2344 3043.9063,137.2344 Q3041.4063,137.2344 3040.0781,135.5938 Q3038.7656,133.9375 3038.7656,130.8125 Q3038.7656,127.6875 3040.0781,126.0313 Q3041.4063,124.375 3043.9063,124.375 Q3044.6094,124.375 3045.25,124.5313 Q3045.9063,124.6875 3046.4688,124.9844 L3046.4688,127.7031 Q3045.8438,127.125 3045.25,126.8594 Q3044.6563,126.5781 3044.0313,126.5781 Q3042.6875,126.5781 3042,127.6563 Q3041.3125,128.7188 3041.3125,130.8125 Q3041.3125,132.9063 3042,133.9844 Q3042.6875,135.0469 3044.0313,135.0469 Q3044.6563,135.0469 3045.25,134.7813 Q3045.8438,134.5 3046.4688,133.9219 L3046.4688,136.6406 Z " fill="#000000"/><text fill="#000000" font-family="sans-serif" font-size="14" lengthAdjust="spacing" textLength="85.251" x="3057.5" y="135.8467">Observation</text><line style="stroke:#181818;stroke-width:0.5;" x1="3029.5" x2="3144.751" y1="147" y2="147"/><line style="stroke:#181818;stroke-width:0.5;" x1="3029.5" x2="3144.751" y1="155" y2="155"/></g><!--class FeatureOfInterest--><g class="entity" data-qualified-name="FeatureOfInterest" data-source-line="20" id="ent0045"><rect fill="#F1F1F1" height="48" rx="2.5" ry="2.5" style="stroke:#181818;stroke-width:0.5;" width="156.1816" x="7" y="7"/><ellipse cx="22" cy="23" fill="#ADD1B2" rx="11" ry="11" style="stroke:#181818;stroke-width:1;"/><path d="M24.9688,28.6406 Q24.3906,28.9375 23.75,29.0781 Q23.1094,29.2344 22.4063,29.2344 Q19.9063,29.2344 18.5781,27.5938 Q17.2656,25.9375 17.2656,22.8125 Q17.2656,19.6875 18.5781,18.0313 Q19.9063,16.375 22.4063,16.375 Q23.1094,16.375 23.75,16.5313 Q24.4063,16.6875 24.9688,16.9844 L24.9688,19.7031 Q24.3438,19.125 23.75,18.8594 Q23.1563,18.5781 22.5313,18.5781 Q21.1875,18.5781 20.5,19.6563 Q19.8125,20.7188 19.8125,22.8125 Q19.8125,24.9063 20.5,25.9844 Q21.1875,27.0469 22.5313,27.0469 Q23.1563,27.0469 23.75,26.7813 Q24.3438,26.5 24.9688,25.9219 L24.9688,28.6406 Z " fill="#000000"/><text fill="#000000" font-family="sans-serif" font-size="14" lengthAdjust="spacing" textLength="124.1816" x="36" y="27.8467">FeatureOfInterest</text><line style="stroke:#181818;stroke-width:0.5;" x1="8" x2="162.1816" y1="39" y2="39"/><line style="stroke:#181818;stroke-width:0.5;" x1="8" x2="162.1816" y1="47" y2="47"/></g><!--class Deployment--><g class="entity" data-qualified-name="Deployment" data-source-line="21" id="ent0046"><rect fill="#F1F1F1" height="48" rx="2.5" ry="2.5" style="stroke:#181818;stroke-width:0.5;" width="117.6338" x="198" y="7"/><ellipse cx="213" cy="23" fill="#ADD1B2" rx="11" ry="11" style="stroke:#181818;stroke-width:1;"/><path d="M215.9688,28.6406 Q215.3906,28.9375 214.75,29.0781 Q214.1094,29.2344 213.4063,29.2344 Q210.9063,29.2344 209.5781,27.5938 Q208.2656,25.9375 208.2656,22.8125 Q208.2656,19.6875 209.5781,18.0313 Q210.9063,16.375 213.4063,16.375 Q214.1094,16.375 214.75,16.5313 Q215.4063,16.6875 215.9688,16.9844 L215.9688,19.7031 Q215.3438,19.125 214.75,18.8594 Q214.1563,18.5781 213.5313,18.5781 Q212.1875,18.5781 211.5,19.6563 Q210.8125,20.7188 210.8125,22.8125 Q210.8125,24.9063 211.5,25.9844 Q212.1875,27.0469 213.5313,27.0469 Q214.1563,27.0469 214.75,26.7813 Q215.3438,26.5 215.9688,25.9219 L215.9688,28.6406 Z " fill="#000000"/><text fill="#000000" font-family="sans-serif" font-size="14" lengthAdjust="spacing" textLength="85.6338" x="227" y="27.8467">Deployment</text><line style="stroke:#181818;stroke-width:0.5;" x1="199" x2="314.6338" y1="39" y2="39"/><line style="stroke:#181818;stroke-width:0.5;" x1="199" x2="314.6338" y1="47" y2="47"/></g><!--class Result--><g class="entity" data-qualified-name="Result" data-source-line="22" id="ent0047"><rect fill="#F1F1F1" height="48" rx="2.5" ry="2.5" style="stroke:#181818;stroke-width:0.5;" width="75.8867" x="351" y="7"/><ellipse cx="366" cy="23" fill="#ADD1B2" rx="11" ry="11" style="stroke:#181818;stroke-width:1;"/><path d="M368.9688,28.6406 Q368.3906,28.9375 367.75,29.0781 Q367.1094,29.2344 366.4063,29.2344 Q363.9063,29.2344 362.5781,27.5938 Q361.2656,25.9375 361.2656,22.8125 Q361.2656,19.6875 362.5781,18.0313 Q363.9063,16.375 366.4063,16.375 Q367.1094,16.375 367.75,16.5313 Q368.4063,16.6875 368.9688,16.9844 L368.9688,19.7031 Q368.3438,19.125 367.75,18.8594 Q367.1563,18.5781 366.5313,18.5781 Q365.1875,18.5781 364.5,19.6563 Q363.8125,20.7188 363.8125,22.8125 Q363.8125,24.9063 364.5,25.9844 Q365.1875,27.0469 366.5313,27.0469 Q367.1563,27.0469 367.75,26.7813 Q368.3438,26.5 368.9688,25.9219 L368.9688,28.6406 Z " fill="#000000"/><text fill="#000000" font-family="sans-serif" font-size="14" lengthAdjust="spacing" textLength="43.8867" x="380" y="27.8467">Result</text><line style="stroke:#181818;stroke-width:0.5;" x1="352" x2="425.8867" y1="39" y2="39"/><line style="stroke:#181818;stroke-width:0.5;" x1="352" x2="425.8867" y1="47" y2="47"/></g><!--class SampleCollection--><g class="entity" data-qualified-name="SampleCollection" data-source-line="23" id="ent0048"><rect fill="#F1F1F1" height="48" rx="2.5" ry="2.5" style="stroke:#181818;stroke-width:0.5;" width="153.7412" x="8" y="115"/><ellipse cx="23" cy="131" fill="#ADD1B2" rx="11" ry="11" style="stroke:#181818;stroke-width:1;"/><path d="M25.9688,136.6406 Q25.3906,136.9375 24.75,137.0781 Q24.1094,137.2344 23.4063,137.2344 Q20.9063,137.2344 19.5781,135.5938 Q18.2656,133.9375 18.2656,130.8125 Q18.2656,127.6875 19.5781,126.0313 Q20.9063,124.375 23.4063,124.375 Q24.1094,124.375 24.75,124.5313 Q25.4063,124.6875 25.9688,124.9844 L25.9688,127.7031 Q25.3438,127.125 24.75,126.8594 Q24.1563,126.5781 23.5313,126.5781 Q22.1875,126.5781 21.5,127.6563 Q20.8125,128.7188 20.8125,130.8125 Q20.8125,132.9063 21.5,133.9844 Q22.1875,135.0469 23.5313,135.0469 Q24.1563,135.0469 24.75,134.7813 Q25.3438,134.5 25.9688,133.9219 L25.9688,136.6406 Z " fill="#000000"/><text fill="#000000" font-family="sans-serif" font-size="14" lengthAdjust="spacing" textLength="121.7412" x="37" y="135.8467">SampleCollection</text><line style="stroke:#181818;stroke-width:0.5;" x1="9" x2="160.7412" y1="147" y2="147"/><line style="stroke:#181818;stroke-width:0.5;" x1="9" x2="160.7412" y1="155" y2="155"/></g><!--class Stimulus--><g class="entity" data-qualified-name="Stimulus" data-source-line="24" id="ent0049"><rect fill="#F1F1F1" height="48" rx="2.5" ry="2.5" style="stroke:#181818;stroke-width:0.5;" width="92.833" x="197.5" y="115"/><ellipse cx="212.5" cy="131" fill="#ADD1B2" rx="11" ry="11" style="stroke:#181818;stroke-width:1;"/><path d="M215.4688,136.6406 Q214.8906,136.9375 214.25,137.0781 Q213.6094,137.2344 212.9063,137.2344 Q210.4063,137.2344 209.0781,135.5938 Q207.7656,133.9375 207.7656,130.8125 Q207.7656,127.6875 209.0781,126.0313 Q210.4063,124.375 212.9063,124.375 Q213.6094,124.375 214.25,124.5313 Q214.9063,124.6875 215.4688,124.9844 L215.4688,127.7031 Q214.8438,127.125 214.25,126.8594 Q213.6563,126.5781 213.0313,126.5781 Q211.6875,126.5781 211,127.6563 Q210.3125,128.7188 210.3125,130.8125 Q210.3125,132.9063 211,133.9844 Q211.6875,135.0469 213.0313,135.0469 Q213.6563,135.0469 214.25,134.7813 Q214.8438,134.5 215.4688,133.9219 L215.4688,136.6406 Z " fill="#000000"/><text fill="#000000" font-family="sans-serif" font-size="14" lengthAdjust="spacing" textLength="60.833" x="226.5" y="135.8467">Stimulus</text><line style="stroke:#181818;stroke-width:0.5;" x1="198.5" x2="289.333" y1="147" y2="147"/><line style="stroke:#181818;stroke-width:0.5;" x1="198.5" x2="289.333" y1="155" y2="155"/></g><!--reverse link Property to ActuatableProperty--><g class="link" data-entity-1="ent0001" data-entity-2="ent0002" data-link-type="extension" data-source-line="1" id="lnk3"><path codeLine="1" d="M513.2556,65.2962 C487.8456,83.0162 467.64,97.11 442.18,114.86" fill="none" id="Property-backto-ActuatableProperty" style="stroke:#181818;stroke-width:1;"/><polygon fill="none" points="528.02,55,509.8235,60.3747,516.6876,70.2177,528.02,55" style="stroke:#181818;stroke-width:1;stroke-linejoin:miter;stroke-miterlimit:10;"/></g><!--reverse link Sample to MaterialSample--><g class="link" data-entity-1="ent0004" data-entity-2="ent0005" data-link-type="extension" data-source-line="2" id="lnk6"><path codeLine="2" d="M925.3567,64.4445 C896.6067,82.1645 872.35,97.11 843.55,114.86" fill="none" id="Sample-backto-MaterialSample" style="stroke:#181818;stroke-width:1;"/><polygon fill="none" points="940.68,55,922.2086,59.3367,928.5049,69.5522,940.68,55" style="stroke:#181818;stroke-width:1;stroke-linejoin:miter;stroke-miterlimit:10;"/></g><!--reverse link Property to ObservableProperty--><g class="link" data-entity-1="ent0001" data-entity-2="ent0007" data-link-type="extension" data-source-line="3" id="lnk8"><path codeLine="3" d="M580.5498,71.0997 C589.3798,88.7597 593.47,96.94 602.34,114.68" fill="none" id="Property-backto-ObservableProperty" style="stroke:#181818;stroke-width:1;"/><polygon fill="none" points="572.5,55,575.1833,73.783,585.9164,68.4164,572.5,55" style="stroke:#181818;stroke-width:1;stroke-linejoin:miter;stroke-miterlimit:10;"/></g><!--reverse link Sample to SpatialSample--><g class="link" data-entity-1="ent0004" data-entity-2="ent0009" data-link-type="extension" data-source-line="4" id="lnk10"><path codeLine="4" d="M978,73 C978,90.66 978,96.94 978,114.68" fill="none" id="Sample-backto-SpatialSample" style="stroke:#181818;stroke-width:1;"/><polygon fill="none" points="978,55,972,73,984,73,978,55" style="stroke:#181818;stroke-width:1;stroke-linejoin:miter;stroke-miterlimit:10;"/></g><!--reverse link Sample to StatisticalSample--><g class="link" data-entity-1="ent0004" data-entity-2="ent0011" data-link-type="extension" data-source-line="5" id="lnk12"><path codeLine="5" d="M1032.3276,64.1725 C1062.2476,81.8925 1087.95,97.11 1117.93,114.86" fill="none" id="Sample-backto-StatisticalSample" style="stroke:#181818;stroke-width:1;"/><polygon fill="none" points="1016.84,55,1029.2701,69.335,1035.3851,59.0099,1016.84,55" style="stroke:#181818;stroke-width:1;stroke-linejoin:miter;stroke-miterlimit:10;"/></g><!--reverse link Procedure to ActuatingProcedure--><g class="link" data-entity-1="ent0013" data-entity-2="ent0014" data-link-type="extension" data-source-line="6" id="lnk15"><path codeLine="6" d="M1501.8326,63.1732 C1467.0626,80.8932 1435.24,97.11 1400.4,114.86" fill="none" id="Procedure-backto-ActuatingProcedure" style="stroke:#181818;stroke-width:1;"/><polygon fill="none" points="1517.87,55,1499.1082,57.8274,1504.557,68.519,1517.87,55" style="stroke:#181818;stroke-width:1;stroke-linejoin:miter;stroke-miterlimit:10;"/></g><!--reverse link Procedure to ObservingProcedure--><g class="link" data-entity-1="ent0013" data-entity-2="ent0016" data-link-type="extension" data-source-line="7" id="lnk17"><path codeLine="7" d="M1563,73 C1563,90.66 1563,96.94 1563,114.68" fill="none" id="Procedure-backto-ObservingProcedure" style="stroke:#181818;stroke-width:1;"/><polygon fill="none" points="1563,55,1557,73,1569,73,1563,55" style="stroke:#181818;stroke-width:1;stroke-linejoin:miter;stroke-miterlimit:10;"/></g><!--reverse link Procedure to SamplingProcedure--><g class="link" data-entity-1="ent0013" data-entity-2="ent0018" data-link-type="extension" data-source-line="8" id="lnk19"><path codeLine="8" d="M1623.9411,63.205 C1658.5411,80.925 1690.15,97.11 1724.81,114.86" fill="none" id="Procedure-backto-SamplingProcedure" style="stroke:#181818;stroke-width:1;"/><polygon fill="none" points="1607.92,55,1621.2061,68.5454,1626.6762,57.8647,1607.92,55" style="stroke:#181818;stroke-width:1;stroke-linejoin:miter;stroke-miterlimit:10;"/></g><!--reverse link Asset to Platform--><g class="link" data-entity-1="ent0020" data-entity-2="ent0021" data-link-type="extension" data-source-line="9" id="lnk22"><path codeLine="9" d="M1973.7839,70.6022 C1963.6239,88.2622 1958.63,96.94 1948.42,114.68" fill="none" id="Asset-backto-Platform" style="stroke:#181818;stroke-width:1;"/><polygon fill="none" points="1982.76,55,1968.5831,67.6102,1978.9846,73.5943,1982.76,55" style="stroke:#181818;stroke-width:1;stroke-linejoin:miter;stroke-miterlimit:10;"/></g><!--reverse link System to Sampler--><g class="link" data-entity-1="ent0023" data-entity-2="ent0024" data-link-type="extension" data-source-line="10" id="lnk25"><path codeLine="10" d="M2016.8865,174.5884 C1995.8965,192.2484 1980.81,204.94 1959.72,222.68" fill="none" id="System-backto-Sampler" style="stroke:#181818;stroke-width:1;"/><polygon fill="none" points="2030.66,163,2013.0237,169.9972,2020.7493,179.1795,2030.66,163" style="stroke:#181818;stroke-width:1;stroke-linejoin:miter;stroke-miterlimit:10;"/></g><!--reverse link System to Actuator--><g class="link" data-entity-1="ent0023" data-entity-2="ent0026" data-link-type="extension" data-source-line="11" id="lnk27"><path codeLine="11" d="M2058,181 C2058,198.66 2058,204.94 2058,222.68" fill="none" id="System-backto-Actuator" style="stroke:#181818;stroke-width:1;"/><polygon fill="none" points="2058,163,2052,181,2064,181,2058,163" style="stroke:#181818;stroke-width:1;stroke-linejoin:miter;stroke-miterlimit:10;"/></g><!--reverse link ExecutionCollection to SamplingCollection--><g class="link" data-entity-1="ent0028" data-entity-2="ent0029" data-link-type="extension" data-source-line="12" id="lnk30"><path codeLine="12" d="M2361.231,63.3636 C2327.461,81.0836 2296.93,97.11 2263.09,114.86" fill="none" id="ExecutionCollection-backto-SamplingCollection" style="stroke:#181818;stroke-width:1;"/><polygon fill="none" points="2377.17,55,2358.4432,58.0506,2364.0189,68.6766,2377.17,55" style="stroke:#181818;stroke-width:1;stroke-linejoin:miter;stroke-miterlimit:10;"/></g><!--reverse link Asset to System--><g class="link" data-entity-1="ent0020" data-entity-2="ent0023" data-link-type="extension" data-source-line="13" id="lnk31"><path codeLine="13" d="M2018.5383,70.5372 C2028.8683,88.1972 2033.98,96.94 2044.36,114.68" fill="none" id="Asset-backto-System" style="stroke:#181818;stroke-width:1;"/><polygon fill="none" points="2009.45,55,2013.3592,73.5666,2023.7173,67.5077,2009.45,55" style="stroke:#181818;stroke-width:1;stroke-linejoin:miter;stroke-miterlimit:10;"/></g><!--reverse link System to Sensor--><g class="link" data-entity-1="ent0023" data-entity-2="ent0032" data-link-type="extension" data-source-line="14" id="lnk33"><path codeLine="14" d="M2097.7968,174.864 C2117.9468,192.524 2132.13,204.94 2152.38,222.68" fill="none" id="System-backto-Sensor" style="stroke:#181818;stroke-width:1;"/><polygon fill="none" points="2084.26,163,2093.8421,179.3763,2101.7515,170.3518,2084.26,163" style="stroke:#181818;stroke-width:1;stroke-linejoin:miter;stroke-miterlimit:10;"/></g><!--reverse link Execution to Sampling--><g class="link" data-entity-1="ent0034" data-entity-2="ent0035" data-link-type="extension" data-source-line="15" id="lnk36"><path codeLine="15" d="M2900.8041,66.1688 C2878.4841,83.8288 2861.91,96.94 2839.48,114.68" fill="none" id="Execution-backto-Sampling" style="stroke:#181818;stroke-width:1;"/><polygon fill="none" points="2914.92,55,2897.0812,61.4635,2904.527,70.8741,2914.92,55" style="stroke:#181818;stroke-width:1;stroke-linejoin:miter;stroke-miterlimit:10;"/></g><!--reverse link Execution to Actuation--><g class="link" data-entity-1="ent0034" data-entity-2="ent0037" data-link-type="extension" data-source-line="16" id="lnk38"><path codeLine="16" d="M2944,73 C2944,90.66 2944,96.94 2944,114.68" fill="none" id="Execution-backto-Actuation" style="stroke:#181818;stroke-width:1;"/><polygon fill="none" points="2944,55,2938,73,2950,73,2944,55" style="stroke:#181818;stroke-width:1;stroke-linejoin:miter;stroke-miterlimit:10;"/></g><!--reverse link ExecutionCollection to ActuationCollection--><g class="link" data-entity-1="ent0028" data-entity-2="ent0039" data-link-type="extension" data-source-line="17" id="lnk40"><path codeLine="17" d="M2421,73 C2421,90.66 2421,96.94 2421,114.68" fill="none" id="ExecutionCollection-backto-ActuationCollection" style="stroke:#181818;stroke-width:1;"/><polygon fill="none" points="2421,55,2415,73,2427,73,2421,55" style="stroke:#181818;stroke-width:1;stroke-linejoin:miter;stroke-miterlimit:10;"/></g><!--reverse link ExecutionCollection to ObservationCollection--><g class="link" data-entity-1="ent0028" data-entity-2="ent0041" data-link-type="extension" data-source-line="18" id="lnk42"><path codeLine="18" d="M2483.0997,63.0498 C2518.5397,80.7698 2551.22,97.11 2586.72,114.86" fill="none" id="ExecutionCollection-backto-ObservationCollection" style="stroke:#181818;stroke-width:1;"/><polygon fill="none" points="2467,55,2480.4164,68.4164,2485.783,57.6833,2467,55" style="stroke:#181818;stroke-width:1;stroke-linejoin:miter;stroke-miterlimit:10;"/></g><!--reverse link Execution to Observation--><g class="link" data-entity-1="ent0034" data-entity-2="ent0043" data-link-type="extension" data-source-line="19" id="lnk44"><path codeLine="19" d="M2989.4895,65.7202 C3013.3095,83.3802 3031.61,96.94 3055.54,114.68" fill="none" id="Execution-backto-Observation" style="stroke:#181818;stroke-width:1;"/><polygon fill="none" points="2975.03,55,2985.9161,70.54,2993.0629,60.9004,2975.03,55" style="stroke:#181818;stroke-width:1;stroke-linejoin:miter;stroke-miterlimit:10;"/></g><?plantuml-src VP9DRWCX38Ntd68ka1jq4_L7wgBAg7C2XxvKI0P6s5GTgOVlj904KartyFdvFSimfZWZwJBSVUrsmzvg9gKZOwpSJEHdHYc_a28vuiBCsFKUZeBqiTaxpQJNrgwYQqNKsTROuYqdj5Evy7xXjugI_P_YrxaJx4MWfJWowIacRwP55BxfGEfOcIGcy_W9czN5S1-PONzEVSwLjq75guz1aDQmjxdbTHMhw-O45qapmgQuFjgM_8_8M2QHuGcawmuFf-Um_WY8Llw0cUFY4SxW5PBvV2aRRN8gLkSpP_a6?></g></svg>