<svg xmlns="http://www.w3.org/2000/svg" xmlns:xlink="http://www.w3.org/1999/xlink" contentStyleType="text/css" data-diagram-type="CLASS" height="286px" preserveAspectRatio="none" style="width:3186px;height:286px;background:#FFFFFF;" version="1.1" viewBox="0 0 3186 286" width="3186px" zoomAndPan="magnify"><?plantuml 1.2026.3?><defs/><g><!--class Property--><g class="entity" data-qualified-name="Property" data-source-line="1" id="ent0002"><rect fill="#F1F1F1" height="48" rx="2.5" ry="2.5" style="stroke:#181818;stroke-width:0.5;" width="91.7939" x="526" y="7"/><ellipse cx="541" cy="23" fill="#ADD1B2" rx="11" ry="11" style="stroke:#181818;stroke-width:1;"/><path d="M543.9688,28.6406 Q543.3906,28.9375 542.75,29.0781 Q542.1094,29.2344 541.4063,29.2344 Q538.9063,29.2344 537.5781,27.5938 Q536.2656,25.9375 536.2656,22.8125 Q536.2656,19.6875 537.5781,18.0313 Q538.9063,16.375 541.4063,16.375 Q542.1094,16.375 542.75,16.5313 Q543.4063,16.6875 543.9688,16.9844 L543.9688,19.7031 Q543.3438,19.125 542.75,18.8594 Q542.1563,18.5781 541.5313,18.5781 Q540.1875,18.5781 539.5,19.6563 Q538.8125,20.7188 538.8125,22.8125 Q538.8125,24.9063 539.5,25.9844 Q540.1875,27.0469 541.5313,27.0469 Q542.1563,27.0469 542.75,26.7813 Q543.3438,26.5 543.9688,25.9219 L543.9688,28.6406 Z " fill="#000000"/><text fill="#000000" font-family="sans-serif" font-size="14" lengthAdjust="spacing" textLength="59.7939" x="555" y="27.8467">Property</text><line style="stroke:#181818;stroke-width:0.5;" x1="527" x2="616.7939" y1="39" y2="39"/><line style="stroke:#181818;stroke-width:0.5;" x1="527" x2="616.7939" y1="47" y2="47"/></g><!--class ActuatableProperty--><g class="entity" data-qualified-name="ActuatableProperty" data-source-line="1" id="ent0003"><rect fill="#F1F1F1" height="48" rx="2.5" ry="2.5" style="stroke:#181818;stroke-width:0.5;" width="167.4678" x="351.5" y="115"/><ellipse cx="366.5" cy="131" fill="#ADD1B2" rx="11" ry="11" style="stroke:#181818;stroke-width:1;"/><path d="M369.4688,136.6406 Q368.8906,136.9375 368.25,137.0781 Q367.6094,137.2344 366.9063,137.2344 Q364.4063,137.2344 363.0781,135.5938 Q361.7656,133.9375 361.7656,130.8125 Q361.7656,127.6875 363.0781,126.0313 Q364.4063,124.375 366.9063,124.375 Q367.6094,124.375 368.25,124.5313 Q368.9063,124.6875 369.4688,124.9844 L369.4688,127.7031 Q368.8438,127.125 368.25,126.8594 Q367.6563,126.5781 367.0313,126.5781 Q365.6875,126.5781 365,127.6563 Q364.3125,128.7188 364.3125,130.8125 Q364.3125,132.9063 365,133.9844 Q365.6875,135.0469 367.0313,135.0469 Q367.6563,135.0469 368.25,134.7813 Q368.8438,134.5 369.4688,133.9219 L369.4688,136.6406 Z " fill="#000000"/><text fill="#000000" font-family="sans-serif" font-size="14" lengthAdjust="spacing" textLength="135.4678" x="380.5" y="135.8467">ActuatableProperty</text><line style="stroke:#181818;stroke-width:0.5;" x1="352.5" x2="517.9678" y1="147" y2="147"/><line style="stroke:#181818;stroke-width:0.5;" x1="352.5" x2="517.9678" y1="155" y2="155"/></g><!--class Sample--><g class="entity" data-qualified-name="Sample" data-source-line="2" id="ent0005"><rect fill="#F1F1F1" height="48" rx="2.5" ry="2.5" style="stroke:#181818;stroke-width:0.5;" width="84.4932" x="962" y="7"/><ellipse cx="977" cy="23" fill="#ADD1B2" rx="11" ry="11" style="stroke:#181818;stroke-width:1;"/><path d="M979.9688,28.6406 Q979.3906,28.9375 978.75,29.0781 Q978.1094,29.2344 977.4063,29.2344 Q974.9063,29.2344 973.5781,27.5938 Q972.2656,25.9375 972.2656,22.8125 Q972.2656,19.6875 973.5781,18.0313 Q974.9063,16.375 977.4063,16.375 Q978.1094,16.375 978.75,16.5313 Q979.4063,16.6875 979.9688,16.9844 L979.9688,19.7031 Q979.3438,19.125 978.75,18.8594 Q978.1563,18.5781 977.5313,18.5781 Q976.1875,18.5781 975.5,19.6563 Q974.8125,20.7188 974.8125,22.8125 Q974.8125,24.9063 975.5,25.9844 Q976.1875,27.0469 977.5313,27.0469 Q978.1563,27.0469 978.75,26.7813 Q979.3438,26.5 979.9688,25.9219 L979.9688,28.6406 Z " fill="#000000"/><text fill="#000000" font-family="sans-serif" font-size="14" lengthAdjust="spacing" textLength="52.4932" x="991" y="27.8467">Sample</text><line style="stroke:#181818;stroke-width:0.5;" x1="963" x2="1045.4932" y1="39" y2="39"/><line style="stroke:#181818;stroke-width:0.5;" x1="963" x2="1045.4932" y1="47" y2="47"/></g><!--class MaterialSample--><g class="entity" data-qualified-name="MaterialSample" data-source-line="2" id="ent0006"><rect fill="#F1F1F1" height="48" rx="2.5" ry="2.5" style="stroke:#181818;stroke-width:0.5;" width="141.3682" x="761.5" y="115"/><ellipse cx="776.5" cy="131" fill="#ADD1B2" rx="11" ry="11" style="stroke:#181818;stroke-width:1;"/><path d="M779.4688,136.6406 Q778.8906,136.9375 778.25,137.0781 Q777.6094,137.2344 776.9063,137.2344 Q774.4063,137.2344 773.0781,135.5938 Q771.7656,133.9375 771.7656,130.8125 Q771.7656,127.6875 773.0781,126.0313 Q774.4063,124.375 776.9063,124.375 Q777.6094,124.375 778.25,124.5313 Q778.9063,124.6875 779.4688,124.9844 L779.4688,127.7031 Q778.8438,127.125 778.25,126.8594 Q777.6563,126.5781 777.0313,126.5781 Q775.6875,126.5781 775,127.6563 Q774.3125,128.7188 774.3125,130.8125 Q774.3125,132.9063 775,133.9844 Q775.6875,135.0469 777.0313,135.0469 Q777.6563,135.0469 778.25,134.7813 Q778.8438,134.5 779.4688,133.9219 L779.4688,136.6406 Z " fill="#000000"/><text fill="#000000" font-family="sans-serif" font-size="14" lengthAdjust="spacing" textLength="109.3682" x="790.5" y="135.8467">MaterialSample</text><line style="stroke:#181818;stroke-width:0.5;" x1="762.5" x2="901.8682" y1="147" y2="147"/><line style="stroke:#181818;stroke-width:0.5;" x1="762.5" x2="901.8682" y1="155" y2="155"/></g><!--class ObservableProperty--><g class="entity" data-qualified-name="ObservableProperty" data-source-line="3" id="ent0008"><rect fill="#F1F1F1" height="48" rx="2.5" ry="2.5" style="stroke:#181818;stroke-width:0.5;" width="171.6172" x="554" y="115"/><ellipse cx="569" cy="131" fill="#ADD1B2" rx="11" ry="11" style="stroke:#181818;stroke-width:1;"/><path d="M571.9688,136.6406 Q571.3906,136.9375 570.75,137.0781 Q570.1094,137.2344 569.4063,137.2344 Q566.9063,137.2344 565.5781,135.5938 Q564.2656,133.9375 564.2656,130.8125 Q564.2656,127.6875 565.5781,126.0313 Q566.9063,124.375 569.4063,124.375 Q570.1094,124.375 570.75,124.5313 Q571.4063,124.6875 571.9688,124.9844 L571.9688,127.7031 Q571.3438,127.125 570.75,126.8594 Q570.1563,126.5781 569.5313,126.5781 Q568.1875,126.5781 567.5,127.6563 Q566.8125,128.7188 566.8125,130.8125 Q566.8125,132.9063 567.5,133.9844 Q568.1875,135.0469 569.5313,135.0469 Q570.1563,135.0469 570.75,134.7813 Q571.3438,134.5 571.9688,133.9219 L571.9688,136.6406 Z " fill="#000000"/><text fill="#000000" font-family="sans-serif" font-size="14" lengthAdjust="spacing" textLength="139.6172" x="583" y="135.8467">ObservableProperty</text><line style="stroke:#181818;stroke-width:0.5;" x1="555" x2="724.6172" y1="147" y2="147"/><line style="stroke:#181818;stroke-width:0.5;" x1="555" x2="724.6172" y1="155" y2="155"/></g><!--class SpatialSample--><g class="entity" data-qualified-name="SpatialSample" data-source-line="4" id="ent0010"><rect fill="#F1F1F1" height="48" rx="2.5" ry="2.5" style="stroke:#181818;stroke-width:0.5;" width="132.6934" x="937.5" y="115"/><ellipse cx="952.5" cy="131" fill="#ADD1B2" rx="11" ry="11" style="stroke:#181818;stroke-width:1;"/><path d="M955.4688,136.6406 Q954.8906,136.9375 954.25,137.0781 Q953.6094,137.2344 952.9063,137.2344 Q950.4063,137.2344 949.0781,135.5938 Q947.7656,133.9375 947.7656,130.8125 Q947.7656,127.6875 949.0781,126.0313 Q950.4063,124.375 952.9063,124.375 Q953.6094,124.375 954.25,124.5313 Q954.9063,124.6875 955.4688,124.9844 L955.4688,127.7031 Q954.8438,127.125 954.25,126.8594 Q953.6563,126.5781 953.0313,126.5781 Q951.6875,126.5781 951,127.6563 Q950.3125,128.7188 950.3125,130.8125 Q950.3125,132.9063 951,133.9844 Q951.6875,135.0469 953.0313,135.0469 Q953.6563,135.0469 954.25,134.7813 Q954.8438,134.5 955.4688,133.9219 L955.4688,136.6406 Z " fill="#000000"/><text fill="#000000" font-family="sans-serif" font-size="14" lengthAdjust="spacing" textLength="100.6934" x="966.5" y="135.8467">SpatialSample</text><line style="stroke:#181818;stroke-width:0.5;" x1="938.5" x2="1069.1934" y1="147" y2="147"/><line style="stroke:#181818;stroke-width:0.5;" x1="938.5" x2="1069.1934" y1="155" y2="155"/></g><!--class StatisticalSample--><g class="entity" data-qualified-name="StatisticalSample" data-source-line="5" id="ent0012"><rect fill="#F1F1F1" height="48" rx="2.5" ry="2.5" style="stroke:#181818;stroke-width:0.5;" width="153.666" x="1106" y="115"/><ellipse cx="1121" cy="131" fill="#ADD1B2" rx="11" ry="11" style="stroke:#181818;stroke-width:1;"/><path d="M1123.9688,136.6406 Q1123.3906,136.9375 1122.75,137.0781 Q1122.1094,137.2344 1121.4063,137.2344 Q1118.9063,137.2344 1117.5781,135.5938 Q1116.2656,133.9375 1116.2656,130.8125 Q1116.2656,127.6875 1117.5781,126.0313 Q1118.9063,124.375 1121.4063,124.375 Q1122.1094,124.375 1122.75,124.5313 Q1123.4063,124.6875 1123.9688,124.9844 L1123.9688,127.7031 Q1123.3438,127.125 1122.75,126.8594 Q1122.1563,126.5781 1121.5313,126.5781 Q1120.1875,126.5781 1119.5,127.6563 Q1118.8125,128.7188 1118.8125,130.8125 Q1118.8125,132.9063 1119.5,133.9844 Q1120.1875,135.0469 1121.5313,135.0469 Q1122.1563,135.0469 1122.75,134.7813 Q1123.3438,134.5 1123.9688,133.9219 L1123.9688,136.6406 Z " fill="#000000"/><text fill="#000000" font-family="sans-serif" font-size="14" lengthAdjust="spacing" textLength="121.666" x="1135" y="135.8467">StatisticalSample</text><line style="stroke:#181818;stroke-width:0.5;" x1="1107" x2="1258.666" y1="147" y2="147"/><line style="stroke:#181818;stroke-width:0.5;" x1="1107" x2="1258.666" y1="155" y2="155"/></g><!--class Procedure--><g class="entity" data-qualified-name="Procedure" data-source-line="6" id="ent0014"><rect fill="#F1F1F1" height="48" rx="2.5" ry="2.5" style="stroke:#181818;stroke-width:0.5;" width="103.2031" x="1537.5" y="7"/><ellipse cx="1552.5" cy="23" fill="#ADD1B2" rx="11" ry="11" style="stroke:#181818;stroke-width:1;"/><path d="M1555.4688,28.6406 Q1554.8906,28.9375 1554.25,29.0781 Q1553.6094,29.2344 1552.9063,29.2344 Q1550.4063,29.2344 1549.0781,27.5938 Q1547.7656,25.9375 1547.7656,22.8125 Q1547.7656,19.6875 1549.0781,18.0313 Q1550.4063,16.375 1552.9063,16.375 Q1553.6094,16.375 1554.25,16.5313 Q1554.9063,16.6875 1555.4688,16.9844 L1555.4688,19.7031 Q1554.8438,19.125 1554.25,18.8594 Q1553.6563,18.5781 1553.0313,18.5781 Q1551.6875,18.5781 1551,19.6563 Q1550.3125,20.7188 1550.3125,22.8125 Q1550.3125,24.9063 1551,25.9844 Q1551.6875,27.0469 1553.0313,27.0469 Q1553.6563,27.0469 1554.25,26.7813 Q1554.8438,26.5 1555.4688,25.9219 L1555.4688,28.6406 Z " fill="#000000"/><text fill="#000000" font-family="sans-serif" font-size="14" lengthAdjust="spacing" textLength="71.2031" x="1566.5" y="27.8467">Procedure</text><line style="stroke:#181818;stroke-width:0.5;" x1="1538.5" x2="1639.7031" y1="39" y2="39"/><line style="stroke:#181818;stroke-width:0.5;" x1="1538.5" x2="1639.7031" y1="47" y2="47"/></g><!--class ActuatingProcedure--><g class="entity" data-qualified-name="ActuatingProcedure" data-source-line="6" id="ent0015"><rect fill="#F1F1F1" height="48" rx="2.5" ry="2.5" style="stroke:#181818;stroke-width:0.5;" width="170.5576" x="1295.5" y="115"/><ellipse cx="1310.5" cy="131" fill="#ADD1B2" rx="11" ry="11" style="stroke:#181818;stroke-width:1;"/><path d="M1313.4688,136.6406 Q1312.8906,136.9375 1312.25,137.0781 Q1311.6094,137.2344 1310.9063,137.2344 Q1308.4063,137.2344 1307.0781,135.5938 Q1305.7656,133.9375 1305.7656,130.8125 Q1305.7656,127.6875 1307.0781,126.0313 Q1308.4063,124.375 1310.9063,124.375 Q1311.6094,124.375 1312.25,124.5313 Q1312.9063,124.6875 1313.4688,124.9844 L1313.4688,127.7031 Q1312.8438,127.125 1312.25,126.8594 Q1311.6563,126.5781 1311.0313,126.5781 Q1309.6875,126.5781 1309,127.6563 Q1308.3125,128.7188 1308.3125,130.8125 Q1308.3125,132.9063 1309,133.9844 Q1309.6875,135.0469 1311.0313,135.0469 Q1311.6563,135.0469 1312.25,134.7813 Q1312.8438,134.5 1313.4688,133.9219 L1313.4688,136.6406 Z " fill="#000000"/><text fill="#000000" font-family="sans-serif" font-size="14" lengthAdjust="spacing" textLength="138.5576" x="1324.5" y="135.8467">ActuatingProcedure</text><line style="stroke:#181818;stroke-width:0.5;" x1="1296.5" x2="1465.0576" y1="147" y2="147"/><line style="stroke:#181818;stroke-width:0.5;" x1="1296.5" x2="1465.0576" y1="155" y2="155"/></g><!--class ObservingProcedure--><g class="entity" data-qualified-name="ObservingProcedure" data-source-line="7" id="ent0017"><rect fill="#F1F1F1" height="48" rx="2.5" ry="2.5" style="stroke:#181818;stroke-width:0.5;" width="174.707" x="1501.5" y="115"/><ellipse cx="1516.5" cy="131" fill="#ADD1B2" rx="11" ry="11" style="stroke:#181818;stroke-width:1;"/><path d="M1519.4688,136.6406 Q1518.8906,136.9375 1518.25,137.0781 Q1517.6094,137.2344 1516.9063,137.2344 Q1514.4063,137.2344 1513.0781,135.5938 Q1511.7656,133.9375 1511.7656,130.8125 Q1511.7656,127.6875 1513.0781,126.0313 Q1514.4063,124.375 1516.9063,124.375 Q1517.6094,124.375 1518.25,124.5313 Q1518.9063,124.6875 1519.4688,124.9844 L1519.4688,127.7031 Q1518.8438,127.125 1518.25,126.8594 Q1517.6563,126.5781 1517.0313,126.5781 Q1515.6875,126.5781 1515,127.6563 Q1514.3125,128.7188 1514.3125,130.8125 Q1514.3125,132.9063 1515,133.9844 Q1515.6875,135.0469 1517.0313,135.0469 Q1517.6563,135.0469 1518.25,134.7813 Q1518.8438,134.5 1519.4688,133.9219 L1519.4688,136.6406 Z " fill="#000000"/><text fill="#000000" font-family="sans-serif" font-size="14" lengthAdjust="spacing" textLength="142.707" x="1530.5" y="135.8467">ObservingProcedure</text><line style="stroke:#181818;stroke-width:0.5;" x1="1502.5" x2="1675.207" y1="147" y2="147"/><line style="stroke:#181818;stroke-width:0.5;" x1="1502.5" x2="1675.207" y1="155" y2="155"/></g><!--class SamplingProcedure--><g class="entity" data-qualified-name="SamplingProcedure" data-source-line="8" id="ent0019"><rect fill="#F1F1F1" height="48" rx="2.5" ry="2.5" style="stroke:#181818;stroke-width:0.5;" width="168.7324" x="1711.5" y="115"/><ellipse cx="1726.5" cy="131" fill="#ADD1B2" rx="11" ry="11" style="stroke:#181818;stroke-width:1;"/><path d="M1729.4688,136.6406 Q1728.8906,136.9375 1728.25,137.0781 Q1727.6094,137.2344 1726.9063,137.2344 Q1724.4063,137.2344 1723.0781,135.5938 Q1721.7656,133.9375 1721.7656,130.8125 Q1721.7656,127.6875 1723.0781,126.0313 Q1724.4063,124.375 1726.9063,124.375 Q1727.6094,124.375 1728.25,124.5313 Q1728.9063,124.6875 1729.4688,124.9844 L1729.4688,127.7031 Q1728.8438,127.125 1728.25,126.8594 Q1727.6563,126.5781 1727.0313,126.5781 Q1725.6875,126.5781 1725,127.6563 Q1724.3125,128.7188 1724.3125,130.8125 Q1724.3125,132.9063 1725,133.9844 Q1725.6875,135.0469 1727.0313,135.0469 Q1727.6563,135.0469 1728.25,134.7813 Q1728.8438,134.5 1729.4688,133.9219 L1729.4688,136.6406 Z " fill="#000000"/><text fill="#000000" font-family="sans-serif" font-size="14" lengthAdjust="spacing" textLength="136.7324" x="1740.5" y="135.8467">SamplingProcedure</text><line style="stroke:#181818;stroke-width:0.5;" x1="1712.5" x2="1879.2324" y1="147" y2="147"/><line style="stroke:#181818;stroke-width:0.5;" x1="1712.5" x2="1879.2324" y1="155" y2="155"/></g><!--class Asset--><g class="entity" data-qualified-name="Asset" data-source-line="9" id="ent0021"><rect fill="#F1F1F1" height="48" rx="2.5" ry="2.5" style="stroke:#181818;stroke-width:0.5;" width="70.2676" x="1987" y="7"/><ellipse cx="2002" cy="23" fill="#ADD1B2" rx="11" ry="11" style="stroke:#181818;stroke-width:1;"/><path d="M2004.9688,28.6406 Q2004.3906,28.9375 2003.75,29.0781 Q2003.1094,29.2344 2002.4063,29.2344 Q1999.9063,29.2344 1998.5781,27.5938 Q1997.2656,25.9375 1997.2656,22.8125 Q1997.2656,19.6875 1998.5781,18.0313 Q1999.9063,16.375 2002.4063,16.375 Q2003.1094,16.375 2003.75,16.5313 Q2004.4063,16.6875 2004.9688,16.9844 L2004.9688,19.7031 Q2004.3438,19.125 2003.75,18.8594 Q2003.1563,18.5781 2002.5313,18.5781 Q2001.1875,18.5781 2000.5,19.6563 Q1999.8125,20.7188 1999.8125,22.8125 Q1999.8125,24.9063 2000.5,25.9844 Q2001.1875,27.0469 2002.5313,27.0469 Q2003.1563,27.0469 2003.75,26.7813 Q2004.3438,26.5 2004.9688,25.9219 L2004.9688,28.6406 Z " fill="#000000"/><text fill="#000000" font-family="sans-serif" font-size="14" lengthAdjust="spacing" textLength="38.2676" x="2016" y="27.8467">Asset</text><line style="stroke:#181818;stroke-width:0.5;" x1="1988" x2="2056.2676" y1="39" y2="39"/><line style="stroke:#181818;stroke-width:0.5;" x1="1988" x2="2056.2676" y1="47" y2="47"/></g><!--class Platform--><g class="entity" data-qualified-name="Platform" data-source-line="9" id="ent0022"><rect fill="#F1F1F1" height="48" rx="2.5" ry="2.5" style="stroke:#181818;stroke-width:0.5;" width="91.2881" x="1915.5" y="115"/><ellipse cx="1930.5" cy="131" fill="#ADD1B2" rx="11" ry="11" style="stroke:#181818;stroke-width:1;"/><path d="M1933.4688,136.6406 Q1932.8906,136.9375 1932.25,137.0781 Q1931.6094,137.2344 1930.9063,137.2344 Q1928.4063,137.2344 1927.0781,135.5938 Q1925.7656,133.9375 1925.7656,130.8125 Q1925.7656,127.6875 1927.0781,126.0313 Q1928.4063,124.375 1930.9063,124.375 Q1931.6094,124.375 1932.25,124.5313 Q1932.9063,124.6875 1933.4688,124.9844 L1933.4688,127.7031 Q1932.8438,127.125 1932.25,126.8594 Q1931.6563,126.5781 1931.0313,126.5781 Q1929.6875,126.5781 1929,127.6563 Q1928.3125,128.7188 1928.3125,130.8125 Q1928.3125,132.9063 1929,133.9844 Q1929.6875,135.0469 1931.0313,135.0469 Q1931.6563,135.0469 1932.25,134.7813 Q1932.8438,134.5 1933.4688,133.9219 L1933.4688,136.6406 Z " fill="#000000"/><text fill="#000000" font-family="sans-serif" font-size="14" lengthAdjust="spacing" textLength="59.2881" x="1944.5" y="135.8467">Platform</text><line style="stroke:#181818;stroke-width:0.5;" x1="1916.5" x2="2005.7881" y1="147" y2="147"/><line style="stroke:#181818;stroke-width:0.5;" x1="1916.5" x2="2005.7881" y1="155" y2="155"/></g><!--class System--><g class="entity" data-qualified-name="System" data-source-line="10" id="ent0024"><rect fill="#F1F1F1" height="48" rx="2.5" ry="2.5" style="stroke:#181818;stroke-width:0.5;" width="84.2061" x="2042" y="115"/><ellipse cx="2057" cy="131" fill="#ADD1B2" rx="11" ry="11" style="stroke:#181818;stroke-width:1;"/><path d="M2059.9688,136.6406 Q2059.3906,136.9375 2058.75,137.0781 Q2058.1094,137.2344 2057.4063,137.2344 Q2054.9063,137.2344 2053.5781,135.5938 Q2052.2656,133.9375 2052.2656,130.8125 Q2052.2656,127.6875 2053.5781,126.0313 Q2054.9063,124.375 2057.4063,124.375 Q2058.1094,124.375 2058.75,124.5313 Q2059.4063,124.6875 2059.9688,124.9844 L2059.9688,127.7031 Q2059.3438,127.125 2058.75,126.8594 Q2058.1563,126.5781 2057.5313,126.5781 Q2056.1875,126.5781 2055.5,127.6563 Q2054.8125,128.7188 2054.8125,130.8125 Q2054.8125,132.9063 2055.5,133.9844 Q2056.1875,135.0469 2057.5313,135.0469 Q2058.1563,135.0469 2058.75,134.7813 Q2059.3438,134.5 2059.9688,133.9219 L2059.9688,136.6406 Z " fill="#000000"/><text fill="#000000" font-family="sans-serif" font-size="14" lengthAdjust="spacing" textLength="52.2061" x="2071" y="135.8467">System</text><line style="stroke:#181818;stroke-width:0.5;" x1="2043" x2="2125.2061" y1="147" y2="147"/><line style="stroke:#181818;stroke-width:0.5;" x1="2043" x2="2125.2061" y1="155" y2="155"/></g><!--class Sampler--><g class="entity" data-qualified-name="Sampler" data-source-line="10" id="ent0025"><rect fill="#F1F1F1" height="48" rx="2.5" ry="2.5" style="stroke:#181818;stroke-width:0.5;" width="90.249" x="1913" y="223"/><ellipse cx="1928" cy="239" fill="#ADD1B2" rx="11" ry="11" style="stroke:#181818;stroke-width:1;"/><path d="M1930.9688,244.6406 Q1930.3906,244.9375 1929.75,245.0781 Q1929.1094,245.2344 1928.4063,245.2344 Q1925.9063,245.2344 1924.5781,243.5938 Q1923.2656,241.9375 1923.2656,238.8125 Q1923.2656,235.6875 1924.5781,234.0313 Q1925.9063,232.375 1928.4063,232.375 Q1929.1094,232.375 1929.75,232.5313 Q1930.4063,232.6875 1930.9688,232.9844 L1930.9688,235.7031 Q1930.3438,235.125 1929.75,234.8594 Q1929.1563,234.5781 1928.5313,234.5781 Q1927.1875,234.5781 1926.5,235.6563 Q1925.8125,236.7188 1925.8125,238.8125 Q1925.8125,240.9063 1926.5,241.9844 Q1927.1875,243.0469 1928.5313,243.0469 Q1929.1563,243.0469 1929.75,242.7813 Q1930.3438,242.5 1930.9688,241.9219 L1930.9688,244.6406 Z " fill="#000000"/><text fill="#000000" font-family="sans-serif" font-size="14" lengthAdjust="spacing" textLength="58.249" x="1942" y="243.8467">Sampler</text><line style="stroke:#181818;stroke-width:0.5;" x1="1914" x2="2002.249" y1="255" y2="255"/><line style="stroke:#181818;stroke-width:0.5;" x1="1914" x2="2002.249" y1="263" y2="263"/></g><!--class Actuator--><g class="entity" data-qualified-name="Actuator" data-source-line="11" id="ent0027"><rect fill="#F1F1F1" height="48" rx="2.5" ry="2.5" style="stroke:#181818;stroke-width:0.5;" width="92.0264" x="2038" y="223"/><ellipse cx="2053" cy="239" fill="#ADD1B2" rx="11" ry="11" style="stroke:#181818;stroke-width:1;"/><path d="M2055.9688,244.6406 Q2055.3906,244.9375 2054.75,245.0781 Q2054.1094,245.2344 2053.4063,245.2344 Q2050.9063,245.2344 2049.5781,243.5938 Q2048.2656,241.9375 2048.2656,238.8125 Q2048.2656,235.6875 2049.5781,234.0313 Q2050.9063,232.375 2053.4063,232.375 Q2054.1094,232.375 2054.75,232.5313 Q2055.4063,232.6875 2055.9688,232.9844 L2055.9688,235.7031 Q2055.3438,235.125 2054.75,234.8594 Q2054.1563,234.5781 2053.5313,234.5781 Q2052.1875,234.5781 2051.5,235.6563 Q2050.8125,236.7188 2050.8125,238.8125 Q2050.8125,240.9063 2051.5,241.9844 Q2052.1875,243.0469 2053.5313,243.0469 Q2054.1563,243.0469 2054.75,242.7813 Q2055.3438,242.5 2055.9688,241.9219 L2055.9688,244.6406 Z " fill="#000000"/><text fill="#000000" font-family="sans-serif" font-size="14" lengthAdjust="spacing" textLength="60.0264" x="2067" y="243.8467">Actuator</text><line style="stroke:#181818;stroke-width:0.5;" x1="2039" x2="2129.0264" y1="255" y2="255"/><line style="stroke:#181818;stroke-width:0.5;" x1="2039" x2="2129.0264" y1="263" y2="263"/></g><!--class ExecutionCollection--><g class="entity" data-qualified-name="ExecutionCollection" data-source-line="12" id="ent0029"><rect fill="#F1F1F1" height="48" rx="2.5" ry="2.5" style="stroke:#181818;stroke-width:0.5;" width="170.3799" x="2362" y="7"/><ellipse cx="2377" cy="23" fill="#ADD1B2" rx="11" ry="11" style="stroke:#181818;stroke-width:1;"/><path d="M2379.9688,28.6406 Q2379.3906,28.9375 2378.75,29.0781 Q2378.1094,29.2344 2377.4063,29.2344 Q2374.9063,29.2344 2373.5781,27.5938 Q2372.2656,25.9375 2372.2656,22.8125 Q2372.2656,19.6875 2373.5781,18.0313 Q2374.9063,16.375 2377.4063,16.375 Q2378.1094,16.375 2378.75,16.5313 Q2379.4063,16.6875 2379.9688,16.9844 L2379.9688,19.7031 Q2379.3438,19.125 2378.75,18.8594 Q2378.1563,18.5781 2377.5313,18.5781 Q2376.1875,18.5781 2375.5,19.6563 Q2374.8125,20.7188 2374.8125,22.8125 Q2374.8125,24.9063 2375.5,25.9844 Q2376.1875,27.0469 2377.5313,27.0469 Q2378.1563,27.0469 2378.75,26.7813 Q2379.3438,26.5 2379.9688,25.9219 L2379.9688,28.6406 Z " fill="#000000"/><text fill="#000000" font-family="sans-serif" font-size="14" lengthAdjust="spacing" textLength="138.3799" x="2391" y="27.8467">ExecutionCollection</text><line style="stroke:#181818;stroke-width:0.5;" x1="2363" x2="2531.3799" y1="39" y2="39"/><line style="stroke:#181818;stroke-width:0.5;" x1="2363" x2="2531.3799" y1="47" y2="47"/></g><!--class SamplingCollection--><g class="entity" data-qualified-name="SamplingCollection" data-source-line="12" id="ent0030"><rect fill="#F1F1F1" height="48" rx="2.5" ry="2.5" style="stroke:#181818;stroke-width:0.5;" width="166.7773" x="2161.5" y="115"/><ellipse cx="2176.5" cy="131" fill="#ADD1B2" rx="11" ry="11" style="stroke:#181818;stroke-width:1;"/><path d="M2179.4688,136.6406 Q2178.8906,136.9375 2178.25,137.0781 Q2177.6094,137.2344 2176.9063,137.2344 Q2174.4063,137.2344 2173.0781,135.5938 Q2171.7656,133.9375 2171.7656,130.8125 Q2171.7656,127.6875 2173.0781,126.0313 Q2174.4063,124.375 2176.9063,124.375 Q2177.6094,124.375 2178.25,124.5313 Q2178.9063,124.6875 2179.4688,124.9844 L2179.4688,127.7031 Q2178.8438,127.125 2178.25,126.8594 Q2177.6563,126.5781 2177.0313,126.5781 Q2175.6875,126.5781 2175,127.6563 Q2174.3125,128.7188 2174.3125,130.8125 Q2174.3125,132.9063 2175,133.9844 Q2175.6875,135.0469 2177.0313,135.0469 Q2177.6563,135.0469 2178.25,134.7813 Q2178.8438,134.5 2179.4688,133.9219 L2179.4688,136.6406 Z " fill="#000000"/><text fill="#000000" font-family="sans-serif" font-size="14" lengthAdjust="spacing" textLength="134.7773" x="2190.5" y="135.8467">SamplingCollection</text><line style="stroke:#181818;stroke-width:0.5;" x1="2162.5" x2="2327.2773" y1="147" y2="147"/><line style="stroke:#181818;stroke-width:0.5;" x1="2162.5" x2="2327.2773" y1="155" y2="155"/></g><!--class Sensor--><g class="entity" data-qualified-name="Sensor" data-source-line="14" id="ent0033"><rect fill="#F1F1F1" height="48" rx="2.5" ry="2.5" style="stroke:#181818;stroke-width:0.5;" width="79.9883" x="2165" y="223"/><ellipse cx="2180" cy="239" fill="#ADD1B2" rx="11" ry="11" style="stroke:#181818;stroke-width:1;"/><path d="M2182.9688,244.6406 Q2182.3906,244.9375 2181.75,245.0781 Q2181.1094,245.2344 2180.4063,245.2344 Q2177.9063,245.2344 2176.5781,243.5938 Q2175.2656,241.9375 2175.2656,238.8125 Q2175.2656,235.6875 2176.5781,234.0313 Q2177.9063,232.375 2180.4063,232.375 Q2181.1094,232.375 2181.75,232.5313 Q2182.4063,232.6875 2182.9688,232.9844 L2182.9688,235.7031 Q2182.3438,235.125 2181.75,234.8594 Q2181.1563,234.5781 2180.5313,234.5781 Q2179.1875,234.5781 2178.5,235.6563 Q2177.8125,236.7188 2177.8125,238.8125 Q2177.8125,240.9063 2178.5,241.9844 Q2179.1875,243.0469 2180.5313,243.0469 Q2181.1563,243.0469 2181.75,242.7813 Q2182.3438,242.5 2182.9688,241.9219 L2182.9688,244.6406 Z " fill="#000000"/><text fill="#000000" font-family="sans-serif" font-size="14" lengthAdjust="spacing" textLength="47.9883" x="2194" y="243.8467">Sensor</text><line style="stroke:#181818;stroke-width:0.5;" x1="2166" x2="2243.9883" y1="255" y2="255"/><line style="stroke:#181818;stroke-width:0.5;" x1="2166" x2="2243.9883" y1="263" y2="263"/></g><!--class Execution--><g class="entity" data-qualified-name="Execution" data-source-line="15" id="ent0035"><rect fill="#F1F1F1" height="48" rx="2.5" ry="2.5" style="stroke:#181818;stroke-width:0.5;" width="101.1318" x="2919.5" y="7"/><ellipse cx="2934.5" cy="23" fill="#ADD1B2" rx="11" ry="11" style="stroke:#181818;stroke-width:1;"/><path d="M2937.4688,28.6406 Q2936.8906,28.9375 2936.25,29.0781 Q2935.6094,29.2344 2934.9063,29.2344 Q2932.4063,29.2344 2931.0781,27.5938 Q2929.7656,25.9375 2929.7656,22.8125 Q2929.7656,19.6875 2931.0781,18.0313 Q2932.4063,16.375 2934.9063,16.375 Q2935.6094,16.375 2936.25,16.5313 Q2936.9063,16.6875 2937.4688,16.9844 L2937.4688,19.7031 Q2936.8438,19.125 2936.25,18.8594 Q2935.6563,18.5781 2935.0313,18.5781 Q2933.6875,18.5781 2933,19.6563 Q2932.3125,20.7188 2932.3125,22.8125 Q2932.3125,24.9063 2933,25.9844 Q2933.6875,27.0469 2935.0313,27.0469 Q2935.6563,27.0469 2936.25,26.7813 Q2936.8438,26.5 2937.4688,25.9219 L2937.4688,28.6406 Z " fill="#000000"/><text fill="#000000" font-family="sans-serif" font-size="14" lengthAdjust="spacing" textLength="69.1318" x="2948.5" y="27.8467">Execution</text><line style="stroke:#181818;stroke-width:0.5;" x1="2920.5" x2="3019.6318" y1="39" y2="39"/><line style="stroke:#181818;stroke-width:0.5;" x1="2920.5" x2="3019.6318" y1="47" y2="47"/></g><!--class Sampling--><g class="entity" data-qualified-name="Sampling" data-source-line="15" id="ent0036"><rect fill="#F1F1F1" height="48" rx="2.5" ry="2.5" style="stroke:#181818;stroke-width:0.5;" width="97.5293" x="2787" y="115"/><ellipse cx="2802" cy="131" fill="#ADD1B2" rx="11" ry="11" style="stroke:#181818;stroke-width:1;"/><path d="M2804.9688,136.6406 Q2804.3906,136.9375 2803.75,137.0781 Q2803.1094,137.2344 2802.4063,137.2344 Q2799.9063,137.2344 2798.5781,135.5938 Q2797.2656,133.9375 2797.2656,130.8125 Q2797.2656,127.6875 2798.5781,126.0313 Q2799.9063,124.375 2802.4063,124.375 Q2803.1094,124.375 2803.75,124.5313 Q2804.4063,124.6875 2804.9688,124.9844 L2804.9688,127.7031 Q2804.3438,127.125 2803.75,126.8594 Q2803.1563,126.5781 2802.5313,126.5781 Q2801.1875,126.5781 2800.5,127.6563 Q2799.8125,128.7188 2799.8125,130.8125 Q2799.8125,132.9063 2800.5,133.9844 Q2801.1875,135.0469 2802.5313,135.0469 Q2803.1563,135.0469 2803.75,134.7813 Q2804.3438,134.5 2804.9688,133.9219 L2804.9688,136.6406 Z " fill="#000000"/><text fill="#000000" font-family="sans-serif" font-size="14" lengthAdjust="spacing" textLength="65.5293" x="2816" y="135.8467">Sampling</text><line style="stroke:#181818;stroke-width:0.5;" x1="2788" x2="2883.5293" y1="147" y2="147"/><line style="stroke:#181818;stroke-width:0.5;" x1="2788" x2="2883.5293" y1="155" y2="155"/></g><!--class Actuation--><g class="entity" data-qualified-name="Actuation" data-source-line="16" id="ent0038"><rect fill="#F1F1F1" height="48" rx="2.5" ry="2.5" style="stroke:#181818;stroke-width:0.5;" width="99.0332" x="2920.5" y="115"/><ellipse cx="2935.5" cy="131" fill="#ADD1B2" rx="11" ry="11" style="stroke:#181818;stroke-width:1;"/><path d="M2938.4688,136.6406 Q2937.8906,136.9375 2937.25,137.0781 Q2936.6094,137.2344 2935.9063,137.2344 Q2933.4063,137.2344 2932.0781,135.5938 Q2930.7656,133.9375 2930.7656,130.8125 Q2930.7656,127.6875 2932.0781,126.0313 Q2933.4063,124.375 2935.9063,124.375 Q2936.6094,124.375 2937.25,124.5313 Q2937.9063,124.6875 2938.4688,124.9844 L2938.4688,127.7031 Q2937.8438,127.125 2937.25,126.8594 Q2936.6563,126.5781 2936.0313,126.5781 Q2934.6875,126.5781 2934,127.6563 Q2933.3125,128.7188 2933.3125,130.8125 Q2933.3125,132.9063 2934,133.9844 Q2934.6875,135.0469 2936.0313,135.0469 Q2936.6563,135.0469 2937.25,134.7813 Q2937.8438,134.5 2938.4688,133.9219 L2938.4688,136.6406 Z " fill="#000000"/><text fill="#000000" font-family="sans-serif" font-size="14" lengthAdjust="spacing" textLength="67.0332" x="2949.5" y="135.8467">Actuation</text><line style="stroke:#181818;stroke-width:0.5;" x1="2921.5" x2="3018.5332" y1="147" y2="147"/><line style="stroke:#181818;stroke-width:0.5;" x1="2921.5" x2="3018.5332" y1="155" y2="155"/></g><!--class ActuationCollection--><g class="entity" data-qualified-name="ActuationCollection" data-source-line="17" id="ent0040"><rect fill="#F1F1F1" height="48" rx="2.5" ry="2.5" style="stroke:#181818;stroke-width:0.5;" width="168.2813" x="2363" y="115"/><ellipse cx="2378" cy="131" fill="#ADD1B2" rx="11" ry="11" style="stroke:#181818;stroke-width:1;"/><path d="M2380.9688,136.6406 Q2380.3906,136.9375 2379.75,137.0781 Q2379.1094,137.2344 2378.4063,137.2344 Q2375.9063,137.2344 2374.5781,135.5938 Q2373.2656,133.9375 2373.2656,130.8125 Q2373.2656,127.6875 2374.5781,126.0313 Q2375.9063,124.375 2378.4063,124.375 Q2379.1094,124.375 2379.75,124.5313 Q2380.4063,124.6875 2380.9688,124.9844 L2380.9688,127.7031 Q2380.3438,127.125 2379.75,126.8594 Q2379.1563,126.5781 2378.5313,126.5781 Q2377.1875,126.5781 2376.5,127.6563 Q2375.8125,128.7188 2375.8125,130.8125 Q2375.8125,132.9063 2376.5,133.9844 Q2377.1875,135.0469 2378.5313,135.0469 Q2379.1563,135.0469 2379.75,134.7813 Q2380.3438,134.5 2380.9688,133.9219 L2380.9688,136.6406 Z " fill="#000000"/><text fill="#000000" font-family="sans-serif" font-size="14" lengthAdjust="spacing" textLength="136.2813" x="2392" y="135.8467">ActuationCollection</text><line style="stroke:#181818;stroke-width:0.5;" x1="2364" x2="2530.2813" y1="147" y2="147"/><line style="stroke:#181818;stroke-width:0.5;" x1="2364" x2="2530.2813" y1="155" y2="155"/></g><!--class ObservationCollection--><g class="entity" data-qualified-name="ObservationCollection" data-source-line="18" id="ent0042"><rect fill="#F1F1F1" height="48" rx="2.5" ry="2.5" style="stroke:#181818;stroke-width:0.5;" width="186.499" x="2566" y="115"/><ellipse cx="2581" cy="131" fill="#ADD1B2" rx="11" ry="11" style="stroke:#181818;stroke-width:1;"/><path d="M2583.9688,136.6406 Q2583.3906,136.9375 2582.75,137.0781 Q2582.1094,137.2344 2581.4063,137.2344 Q2578.9063,137.2344 2577.5781,135.5938 Q2576.2656,133.9375 2576.2656,130.8125 Q2576.2656,127.6875 2577.5781,126.0313 Q2578.9063,124.375 2581.4063,124.375 Q2582.1094,124.375 2582.75,124.5313 Q2583.4063,124.6875 2583.9688,124.9844 L2583.9688,127.7031 Q2583.3438,127.125 2582.75,126.8594 Q2582.1563,126.5781 2581.5313,126.5781 Q2580.1875,126.5781 2579.5,127.6563 Q2578.8125,128.7188 2578.8125,130.8125 Q2578.8125,132.9063 2579.5,133.9844 Q2580.1875,135.0469 2581.5313,135.0469 Q2582.1563,135.0469 2582.75,134.7813 Q2583.3438,134.5 2583.9688,133.9219 L2583.9688,136.6406 Z " fill="#000000"/><text fill="#000000" font-family="sans-serif" font-size="14" lengthAdjust="spacing" textLength="154.499" x="2595" y="135.8467">ObservationCollection</text><line style="stroke:#181818;stroke-width:0.5;" x1="2567" x2="2751.499" y1="147" y2="147"/><line style="stroke:#181818;stroke-width:0.5;" x1="2567" x2="2751.499" y1="155" y2="155"/></g><!--class Observation--><g class="entity" data-qualified-name="Observation" data-source-line="19" id="ent0044"><rect fill="#F1F1F1" height="48" rx="2.5" ry="2.5" style="stroke:#181818;stroke-width:0.5;" width="117.251" x="3054.5" y="115"/><ellipse cx="3069.5" cy="131" fill="#ADD1B2" rx="11" ry="11" style="stroke:#181818;stroke-width:1;"/><path d="M3072.4688,136.6406 Q3071.8906,136.9375 3071.25,137.0781 Q3070.6094,137.2344 3069.9063,137.2344 Q3067.4063,137.2344 3066.0781,135.5938 Q3064.7656,133.9375 3064.7656,130.8125 Q3064.7656,127.6875 3066.0781,126.0313 Q3067.4063,124.375 3069.9063,124.375 Q3070.6094,124.375 3071.25,124.5313 Q3071.9063,124.6875 3072.4688,124.9844 L3072.4688,127.7031 Q3071.8438,127.125 3071.25,126.8594 Q3070.6563,126.5781 3070.0313,126.5781 Q3068.6875,126.5781 3068,127.6563 Q3067.3125,128.7188 3067.3125,130.8125 Q3067.3125,132.9063 3068,133.9844 Q3068.6875,135.0469 3070.0313,135.0469 Q3070.6563,135.0469 3071.25,134.7813 Q3071.8438,134.5 3072.4688,133.9219 L3072.4688,136.6406 Z " fill="#000000"/><text fill="#000000" font-family="sans-serif" font-size="14" lengthAdjust="spacing" textLength="85.251" x="3083.5" y="135.8467">Observation</text><line style="stroke:#181818;stroke-width:0.5;" x1="3055.5" x2="3170.751" y1="147" y2="147"/><line style="stroke:#181818;stroke-width:0.5;" x1="3055.5" x2="3170.751" y1="155" y2="155"/></g><!--class Result--><g class="entity" data-qualified-name="Result" data-source-line="20" id="ent0046"><rect fill="#F1F1F1" height="48" rx="2.5" ry="2.5" style="stroke:#181818;stroke-width:0.5;" width="75.8867" x="28" y="7"/><ellipse cx="43" cy="23" fill="#ADD1B2" rx="11" ry="11" style="stroke:#181818;stroke-width:1;"/><path d="M45.9688,28.6406 Q45.3906,28.9375 44.75,29.0781 Q44.1094,29.2344 43.4063,29.2344 Q40.9063,29.2344 39.5781,27.5938 Q38.2656,25.9375 38.2656,22.8125 Q38.2656,19.6875 39.5781,18.0313 Q40.9063,16.375 43.4063,16.375 Q44.1094,16.375 44.75,16.5313 Q45.4063,16.6875 45.9688,16.9844 L45.9688,19.7031 Q45.3438,19.125 44.75,18.8594 Q44.1563,18.5781 43.5313,18.5781 Q42.1875,18.5781 41.5,19.6563 Q40.8125,20.7188 40.8125,22.8125 Q40.8125,24.9063 41.5,25.9844 Q42.1875,27.0469 43.5313,27.0469 Q44.1563,27.0469 44.75,26.7813 Q45.3438,26.5 45.9688,25.9219 L45.9688,28.6406 Z " fill="#000000"/><text fill="#000000" font-family="sans-serif" font-size="14" lengthAdjust="spacing" textLength="43.8867" x="57" y="27.8467">Result</text><line style="stroke:#181818;stroke-width:0.5;" x1="29" x2="102.8867" y1="39" y2="39"/><line style="stroke:#181818;stroke-width:0.5;" x1="29" x2="102.8867" y1="47" y2="47"/></g><!--class SampleCollection--><g class="entity" data-qualified-name="SampleCollection" data-source-line="21" id="ent0047"><rect fill="#F1F1F1" height="48" rx="2.5" ry="2.5" style="stroke:#181818;stroke-width:0.5;" width="153.7412" x="139" y="7"/><ellipse cx="154" cy="23" fill="#ADD1B2" rx="11" ry="11" style="stroke:#181818;stroke-width:1;"/><path d="M156.9688,28.6406 Q156.3906,28.9375 155.75,29.0781 Q155.1094,29.2344 154.4063,29.2344 Q151.9063,29.2344 150.5781,27.5938 Q149.2656,25.9375 149.2656,22.8125 Q149.2656,19.6875 150.5781,18.0313 Q151.9063,16.375 154.4063,16.375 Q155.1094,16.375 155.75,16.5313 Q156.4063,16.6875 156.9688,16.9844 L156.9688,19.7031 Q156.3438,19.125 155.75,18.8594 Q155.1563,18.5781 154.5313,18.5781 Q153.1875,18.5781 152.5,19.6563 Q151.8125,20.7188 151.8125,22.8125 Q151.8125,24.9063 152.5,25.9844 Q153.1875,27.0469 154.5313,27.0469 Q155.1563,27.0469 155.75,26.7813 Q156.3438,26.5 156.9688,25.9219 L156.9688,28.6406 Z " fill="#000000"/><text fill="#000000" font-family="sans-serif" font-size="14" lengthAdjust="spacing" textLength="121.7412" x="168" y="27.8467">SampleCollection</text><line style="stroke:#181818;stroke-width:0.5;" x1="140" x2="291.7412" y1="39" y2="39"/><line style="stroke:#181818;stroke-width:0.5;" x1="140" x2="291.7412" y1="47" y2="47"/></g><!--class Stimulus--><g class="entity" data-qualified-name="Stimulus" data-source-line="22" id="ent0048"><rect fill="#F1F1F1" height="48" rx="2.5" ry="2.5" style="stroke:#181818;stroke-width:0.5;" width="92.833" x="328.5" y="7"/><ellipse cx="343.5" cy="23" fill="#ADD1B2" rx="11" ry="11" style="stroke:#181818;stroke-width:1;"/><path d="M346.4688,28.6406 Q345.8906,28.9375 345.25,29.0781 Q344.6094,29.2344 343.9063,29.2344 Q341.4063,29.2344 340.0781,27.5938 Q338.7656,25.9375 338.7656,22.8125 Q338.7656,19.6875 340.0781,18.0313 Q341.4063,16.375 343.9063,16.375 Q344.6094,16.375 345.25,16.5313 Q345.9063,16.6875 346.4688,16.9844 L346.4688,19.7031 Q345.8438,19.125 345.25,18.8594 Q344.6563,18.5781 344.0313,18.5781 Q342.6875,18.5781 342,19.6563 Q341.3125,20.7188 341.3125,22.8125 Q341.3125,24.9063 342,25.9844 Q342.6875,27.0469 344.0313,27.0469 Q344.6563,27.0469 345.25,26.7813 Q345.8438,26.5 346.4688,25.9219 L346.4688,28.6406 Z " fill="#000000"/><text fill="#000000" font-family="sans-serif" font-size="14" lengthAdjust="spacing" textLength="60.833" x="357.5" y="27.8467">Stimulus</text><line style="stroke:#181818;stroke-width:0.5;" x1="329.5" x2="420.333" y1="39" y2="39"/><line style="stroke:#181818;stroke-width:0.5;" x1="329.5" x2="420.333" y1="47" y2="47"/></g><!--class Deployment--><g class="entity" data-qualified-name="Deployment" data-source-line="23" id="ent0049"><rect fill="#F1F1F1" height="48" rx="2.5" ry="2.5" style="stroke:#181818;stroke-width:0.5;" width="117.6338" x="7" y="115"/><ellipse cx="22" cy="131" fill="#ADD1B2" rx="11" ry="11" style="stroke:#181818;stroke-width:1;"/><path d="M24.9688,136.6406 Q24.3906,136.9375 23.75,137.0781 Q23.1094,137.2344 22.4063,137.2344 Q19.9063,137.2344 18.5781,135.5938 Q17.2656,133.9375 17.2656,130.8125 Q17.2656,127.6875 18.5781,126.0313 Q19.9063,124.375 22.4063,124.375 Q23.1094,124.375 23.75,124.5313 Q24.4063,124.6875 24.9688,124.9844 L24.9688,127.7031 Q24.3438,127.125 23.75,126.8594 Q23.1563,126.5781 22.5313,126.5781 Q21.1875,126.5781 20.5,127.6563 Q19.8125,128.7188 19.8125,130.8125 Q19.8125,132.9063 20.5,133.9844 Q21.1875,135.0469 22.5313,135.0469 Q23.1563,135.0469 23.75,134.7813 Q24.3438,134.5 24.9688,133.9219 L24.9688,136.6406 Z " fill="#000000"/><text fill="#000000" font-family="sans-serif" font-size="14" lengthAdjust="spacing" textLength="85.6338" x="36" y="135.8467">Deployment</text><line style="stroke:#181818;stroke-width:0.5;" x1="8" x2="123.6338" y1="147" y2="147"/><line style="stroke:#181818;stroke-width:0.5;" x1="8" x2="123.6338" y1="155" y2="155"/></g><!--class FeatureOfInterest--><g class="entity" data-qualified-name="FeatureOfInterest" data-source-line="24" id="ent0050"><rect fill="#F1F1F1" height="48" rx="2.5" ry="2.5" style="stroke:#181818;stroke-width:0.5;" width="156.1816" x="160" y="115"/><ellipse cx="175" cy="131" fill="#ADD1B2" rx="11" ry="11" style="stroke:#181818;stroke-width:1;"/><path d="M177.9688,136.6406 Q177.3906,136.9375 176.75,137.0781 Q176.1094,137.2344 175.4063,137.2344 Q172.9063,137.2344 171.5781,135.5938 Q170.2656,133.9375 170.2656,130.8125 Q170.2656,127.6875 171.5781,126.0313 Q172.9063,124.375 175.4063,124.375 Q176.1094,124.375 176.75,124.5313 Q177.4063,124.6875 177.9688,124.9844 L177.9688,127.7031 Q177.3438,127.125 176.75,126.8594 Q176.1563,126.5781 175.5313,126.5781 Q174.1875,126.5781 173.5,127.6563 Q172.8125,128.7188 172.8125,130.8125 Q172.8125,132.9063 173.5,133.9844 Q174.1875,135.0469 175.5313,135.0469 Q176.1563,135.0469 176.75,134.7813 Q177.3438,134.5 177.9688,133.9219 L177.9688,136.6406 Z " fill="#000000"/><text fill="#000000" font-family="sans-serif" font-size="14" lengthAdjust="spacing" textLength="124.1816" x="189" y="135.8467">FeatureOfInterest</text><line style="stroke:#181818;stroke-width:0.5;" x1="161" x2="315.1816" y1="147" y2="147"/><line style="stroke:#181818;stroke-width:0.5;" x1="161" x2="315.1816" y1="155" y2="155"/></g><!--reverse link Property to ActuatableProperty--><g class="link" data-entity-1="ent0002" data-entity-2="ent0003" data-link-type="extension" data-source-line="1" id="lnk4"><path codeLine="1" d="M528.0348,66.0163 C505.2148,83.6763 488.07,96.94 465.14,114.68" fill="none" id="Property-backto-ActuatableProperty" style="stroke:#181818;stroke-width:1;"/><polygon fill="none" points="542.27,55,524.3627,61.2713,531.7069,70.7614,542.27,55" style="stroke:#181818;stroke-width:1;"/></g><!--reverse link Sample to MaterialSample--><g class="link" data-entity-1="ent0005" data-entity-2="ent0006" data-link-type="extension" data-source-line="2" id="lnk7"><path codeLine="2" d="M951.3567,64.4445 C922.6067,82.1645 898.35,97.11 869.55,114.86" fill="none" id="Sample-backto-MaterialSample" style="stroke:#181818;stroke-width:1;"/><polygon fill="none" points="966.68,55,948.2086,59.3367,954.5049,69.5522,966.68,55" style="stroke:#181818;stroke-width:1;"/></g><!--reverse link Property to ObservableProperty--><g class="link" data-entity-1="ent0002" data-entity-2="ent0008" data-link-type="extension" data-source-line="3" id="lnk9"><path codeLine="3" d="M596.4698,70.1501 C607.7998,87.8101 613.66,96.94 625.04,114.68" fill="none" id="Property-backto-ObservableProperty" style="stroke:#181818;stroke-width:1;"/><polygon fill="none" points="586.75,55,591.4197,73.39,601.5198,66.9102,586.75,55" style="stroke:#181818;stroke-width:1;"/></g><!--reverse link Sample to SpatialSample--><g class="link" data-entity-1="ent0005" data-entity-2="ent0010" data-link-type="extension" data-source-line="4" id="lnk11"><path codeLine="4" d="M1004,73 C1004,90.66 1004,96.94 1004,114.68" fill="none" id="Sample-backto-SpatialSample" style="stroke:#181818;stroke-width:1;"/><polygon fill="none" points="1004,55,998,73,1010,73,1004,55" style="stroke:#181818;stroke-width:1;"/></g><!--reverse link Sample to StatisticalSample--><g class="link" data-entity-1="ent0005" data-entity-2="ent0012" data-link-type="extension" data-source-line="5" id="lnk13"><path codeLine="5" d="M1058.3276,64.1725 C1088.2476,81.8925 1113.95,97.11 1143.93,114.86" fill="none" id="Sample-backto-StatisticalSample" style="stroke:#181818;stroke-width:1;"/><polygon fill="none" points="1042.84,55,1055.2701,69.335,1061.3851,59.0099,1042.84,55" style="stroke:#181818;stroke-width:1;"/></g><!--reverse link Procedure to ActuatingProcedure--><g class="link" data-entity-1="ent0014" data-entity-2="ent0015" data-link-type="extension" data-source-line="6" id="lnk16"><path codeLine="6" d="M1527.8326,63.1732 C1493.0626,80.8932 1461.24,97.11 1426.4,114.86" fill="none" id="Procedure-backto-ActuatingProcedure" style="stroke:#181818;stroke-width:1;"/><polygon fill="none" points="1543.87,55,1525.1082,57.8274,1530.557,68.519,1543.87,55" style="stroke:#181818;stroke-width:1;"/></g><!--reverse link Procedure to ObservingProcedure--><g class="link" data-entity-1="ent0014" data-entity-2="ent0017" data-link-type="extension" data-source-line="7" id="lnk18"><path codeLine="7" d="M1589,73 C1589,90.66 1589,96.94 1589,114.68" fill="none" id="Procedure-backto-ObservingProcedure" style="stroke:#181818;stroke-width:1;"/><polygon fill="none" points="1589,55,1583,73,1595,73,1589,55" style="stroke:#181818;stroke-width:1;"/></g><!--reverse link Procedure to SamplingProcedure--><g class="link" data-entity-1="ent0014" data-entity-2="ent0019" data-link-type="extension" data-source-line="8" id="lnk20"><path codeLine="8" d="M1649.9411,63.205 C1684.5411,80.925 1716.15,97.11 1750.81,114.86" fill="none" id="Procedure-backto-SamplingProcedure" style="stroke:#181818;stroke-width:1;"/><polygon fill="none" points="1633.92,55,1647.2061,68.5454,1652.6762,57.8647,1633.92,55" style="stroke:#181818;stroke-width:1;"/></g><!--reverse link Asset to Platform--><g class="link" data-entity-1="ent0021" data-entity-2="ent0022" data-link-type="extension" data-source-line="9" id="lnk23"><path codeLine="9" d="M1999.7839,70.6022 C1989.6239,88.2622 1984.63,96.94 1974.42,114.68" fill="none" id="Asset-backto-Platform" style="stroke:#181818;stroke-width:1;"/><polygon fill="none" points="2008.76,55,1994.5831,67.6102,2004.9846,73.5943,2008.76,55" style="stroke:#181818;stroke-width:1;"/></g><!--reverse link System to Sampler--><g class="link" data-entity-1="ent0024" data-entity-2="ent0025" data-link-type="extension" data-source-line="10" id="lnk26"><path codeLine="10" d="M2042.8865,174.5884 C2021.8965,192.2484 2006.81,204.94 1985.72,222.68" fill="none" id="System-backto-Sampler" style="stroke:#181818;stroke-width:1;"/><polygon fill="none" points="2056.66,163,2039.0237,169.9972,2046.7493,179.1795,2056.66,163" style="stroke:#181818;stroke-width:1;"/></g><!--reverse link System to Actuator--><g class="link" data-entity-1="ent0024" data-entity-2="ent0027" data-link-type="extension" data-source-line="11" id="lnk28"><path codeLine="11" d="M2084,181 C2084,198.66 2084,204.94 2084,222.68" fill="none" id="System-backto-Actuator" style="stroke:#181818;stroke-width:1;"/><polygon fill="none" points="2084,163,2078,181,2090,181,2084,163" style="stroke:#181818;stroke-width:1;"/></g><!--reverse link ExecutionCollection to SamplingCollection--><g class="link" data-entity-1="ent0029" data-entity-2="ent0030" data-link-type="extension" data-source-line="12" id="lnk31"><path codeLine="12" d="M2387.231,63.3636 C2353.461,81.0836 2322.93,97.11 2289.09,114.86" fill="none" id="ExecutionCollection-backto-SamplingCollection" style="stroke:#181818;stroke-width:1;"/><polygon fill="none" points="2403.17,55,2384.4432,58.0506,2390.0189,68.6766,2403.17,55" style="stroke:#181818;stroke-width:1;"/></g><!--reverse link Asset to System--><g class="link" data-entity-1="ent0021" data-entity-2="ent0024" data-link-type="extension" data-source-line="13" id="lnk32"><path codeLine="13" d="M2044.5383,70.5372 C2054.8683,88.1972 2059.98,96.94 2070.36,114.68" fill="none" id="Asset-backto-System" style="stroke:#181818;stroke-width:1;"/><polygon fill="none" points="2035.45,55,2039.3592,73.5666,2049.7173,67.5077,2035.45,55" style="stroke:#181818;stroke-width:1;"/></g><!--reverse link System to Sensor--><g class="link" data-entity-1="ent0024" data-entity-2="ent0033" data-link-type="extension" data-source-line="14" id="lnk34"><path codeLine="14" d="M2123.7968,174.864 C2143.9468,192.524 2158.13,204.94 2178.38,222.68" fill="none" id="System-backto-Sensor" style="stroke:#181818;stroke-width:1;"/><polygon fill="none" points="2110.26,163,2119.8421,179.3763,2127.7515,170.3518,2110.26,163" style="stroke:#181818;stroke-width:1;"/></g><!--reverse link Execution to Sampling--><g class="link" data-entity-1="ent0035" data-entity-2="ent0036" data-link-type="extension" data-source-line="15" id="lnk37"><path codeLine="15" d="M2926.8041,66.1688 C2904.4841,83.8288 2887.91,96.94 2865.48,114.68" fill="none" id="Execution-backto-Sampling" style="stroke:#181818;stroke-width:1;"/><polygon fill="none" points="2940.92,55,2923.0812,61.4635,2930.527,70.8741,2940.92,55" style="stroke:#181818;stroke-width:1;"/></g><!--reverse link Execution to Actuation--><g class="link" data-entity-1="ent0035" data-entity-2="ent0038" data-link-type="extension" data-source-line="16" id="lnk39"><path codeLine="16" d="M2970,73 C2970,90.66 2970,96.94 2970,114.68" fill="none" id="Execution-backto-Actuation" style="stroke:#181818;stroke-width:1;"/><polygon fill="none" points="2970,55,2964,73,2976,73,2970,55" style="stroke:#181818;stroke-width:1;"/></g><!--reverse link ExecutionCollection to ActuationCollection--><g class="link" data-entity-1="ent0029" data-entity-2="ent0040" data-link-type="extension" data-source-line="17" id="lnk41"><path codeLine="17" d="M2447,73 C2447,90.66 2447,96.94 2447,114.68" fill="none" id="ExecutionCollection-backto-ActuationCollection" style="stroke:#181818;stroke-width:1;"/><polygon fill="none" points="2447,55,2441,73,2453,73,2447,55" style="stroke:#181818;stroke-width:1;"/></g><!--reverse link ExecutionCollection to ObservationCollection--><g class="link" data-entity-1="ent0029" data-entity-2="ent0042" data-link-type="extension" data-source-line="18" id="lnk43"><path codeLine="18" d="M2509.0997,63.0498 C2544.5397,80.7698 2577.22,97.11 2612.72,114.86" fill="none" id="ExecutionCollection-backto-ObservationCollection" style="stroke:#181818;stroke-width:1;"/><polygon fill="none" points="2493,55,2506.4164,68.4164,2511.783,57.6833,2493,55" style="stroke:#181818;stroke-width:1;"/></g><!--reverse link Execution to Observation--><g class="link" data-entity-1="ent0035" data-entity-2="ent0044" data-link-type="extension" data-source-line="19" id="lnk45"><path codeLine="19" d="M3015.4895,65.7202 C3039.3095,83.3802 3057.61,96.94 3081.54,114.68" fill="none" id="Execution-backto-Observation" style="stroke:#181818;stroke-width:1;"/><polygon fill="none" points="3001.03,55,3011.9161,70.54,3019.0629,60.9004,3001.03,55" style="stroke:#181818;stroke-width:1;"/></g><?plantuml-src VL9BJWCn3Dtd57E1te1DnKTYWJfYJk26LnJ9IKQnKp4IXsSWeKsAXbty_3wMdJ756KcNuUvpjnlsLZCf7HbZnSr4VcQKzWifaYCkc1axxU4eIETDxJIJNgLTHzUEgBEjiSLRJcYdSk7zWjyoIlP_Z1_dZh0NWPRcoAIdcBoP5b7uHe7KOMMIcCpZ1snM5yDzP8RzVlKvLxmDAbvz38AqXhtDBLvNiRfkJd2XD2DiaklHjkX_ICOoYGolaCnQYxAeHbvXTJvpbbe-OEQuU8HVsHD8rpiSJizX_LKG_G80?></g></svg>