<svg xmlns="http://www.w3.org/2000/svg" xmlns:xlink="http://www.w3.org/1999/xlink" contentStyleType="text/css" data-diagram-type="CLASS" height="286px" preserveAspectRatio="none" style="width:3226px;height:286px;background:#FFFFFF;" version="1.1" viewBox="0 0 3226 286" width="3226px" zoomAndPan="magnify"><?plantuml 1.2026.4?><defs/><g><!--class Property--><g class="entity" data-qualified-name="Property" data-source-line="1" id="ent0001"><rect fill="#F1F1F1" height="48" rx="2.5" ry="2.5" style="stroke:#181818;stroke-width:0.5;" width="91.7939" x="575.5" y="7"/><ellipse cx="590.5" cy="23" fill="#ADD1B2" rx="11" ry="11" style="stroke:#181818;stroke-width:1;"/><path d="M593.4688,28.6406 Q592.8906,28.9375 592.25,29.0781 Q591.6094,29.2344 590.9063,29.2344 Q588.4063,29.2344 587.0781,27.5938 Q585.7656,25.9375 585.7656,22.8125 Q585.7656,19.6875 587.0781,18.0313 Q588.4063,16.375 590.9063,16.375 Q591.6094,16.375 592.25,16.5313 Q592.9063,16.6875 593.4688,16.9844 L593.4688,19.7031 Q592.8438,19.125 592.25,18.8594 Q591.6563,18.5781 591.0313,18.5781 Q589.6875,18.5781 589,19.6563 Q588.3125,20.7188 588.3125,22.8125 Q588.3125,24.9063 589,25.9844 Q589.6875,27.0469 591.0313,27.0469 Q591.6563,27.0469 592.25,26.7813 Q592.8438,26.5 593.4688,25.9219 L593.4688,28.6406 Z " fill="#000000"/><text fill="#000000" font-family="sans-serif" font-size="14" lengthAdjust="spacing" textLength="59.7939" x="604.5" y="27.8467">Property</text><line style="stroke:#181818;stroke-width:0.5;" x1="576.5" x2="666.2939" y1="39" y2="39"/><line style="stroke:#181818;stroke-width:0.5;" x1="576.5" x2="666.2939" y1="47" y2="47"/></g><!--class ActuatableProperty--><g class="entity" data-qualified-name="ActuatableProperty" data-source-line="1" id="ent0002"><rect fill="#F1F1F1" height="48" rx="2.5" ry="2.5" style="stroke:#181818;stroke-width:0.5;" width="167.4678" x="392" y="115"/><ellipse cx="407" cy="131" fill="#ADD1B2" rx="11" ry="11" style="stroke:#181818;stroke-width:1;"/><path d="M409.9688,136.6406 Q409.3906,136.9375 408.75,137.0781 Q408.1094,137.2344 407.4063,137.2344 Q404.9063,137.2344 403.5781,135.5938 Q402.2656,133.9375 402.2656,130.8125 Q402.2656,127.6875 403.5781,126.0313 Q404.9063,124.375 407.4063,124.375 Q408.1094,124.375 408.75,124.5313 Q409.4063,124.6875 409.9688,124.9844 L409.9688,127.7031 Q409.3438,127.125 408.75,126.8594 Q408.1563,126.5781 407.5313,126.5781 Q406.1875,126.5781 405.5,127.6563 Q404.8125,128.7188 404.8125,130.8125 Q404.8125,132.9063 405.5,133.9844 Q406.1875,135.0469 407.5313,135.0469 Q408.1563,135.0469 408.75,134.7813 Q409.3438,134.5 409.9688,133.9219 L409.9688,136.6406 Z " fill="#000000"/><text fill="#000000" font-family="sans-serif" font-size="14" lengthAdjust="spacing" textLength="135.4678" x="421" y="135.8467">ActuatableProperty</text><line style="stroke:#181818;stroke-width:0.5;" x1="393" x2="558.4678" y1="147" y2="147"/><line style="stroke:#181818;stroke-width:0.5;" x1="393" x2="558.4678" y1="155" y2="155"/></g><!--class Sample--><g class="entity" data-qualified-name="Sample" data-source-line="2" id="ent0004"><rect fill="#F1F1F1" height="48" rx="2.5" ry="2.5" style="stroke:#181818;stroke-width:0.5;" width="84.4932" x="1002.5" y="7"/><ellipse cx="1017.5" cy="23" fill="#ADD1B2" rx="11" ry="11" style="stroke:#181818;stroke-width:1;"/><path d="M1020.4688,28.6406 Q1019.8906,28.9375 1019.25,29.0781 Q1018.6094,29.2344 1017.9063,29.2344 Q1015.4063,29.2344 1014.0781,27.5938 Q1012.7656,25.9375 1012.7656,22.8125 Q1012.7656,19.6875 1014.0781,18.0313 Q1015.4063,16.375 1017.9063,16.375 Q1018.6094,16.375 1019.25,16.5313 Q1019.9063,16.6875 1020.4688,16.9844 L1020.4688,19.7031 Q1019.8438,19.125 1019.25,18.8594 Q1018.6563,18.5781 1018.0313,18.5781 Q1016.6875,18.5781 1016,19.6563 Q1015.3125,20.7188 1015.3125,22.8125 Q1015.3125,24.9063 1016,25.9844 Q1016.6875,27.0469 1018.0313,27.0469 Q1018.6563,27.0469 1019.25,26.7813 Q1019.8438,26.5 1020.4688,25.9219 L1020.4688,28.6406 Z " fill="#000000"/><text fill="#000000" font-family="sans-serif" font-size="14" lengthAdjust="spacing" textLength="52.4932" x="1031.5" y="27.8467">Sample</text><line style="stroke:#181818;stroke-width:0.5;" x1="1003.5" x2="1085.9932" y1="39" y2="39"/><line style="stroke:#181818;stroke-width:0.5;" x1="1003.5" x2="1085.9932" y1="47" y2="47"/></g><!--class MaterialSample--><g class="entity" data-qualified-name="MaterialSample" data-source-line="2" id="ent0005"><rect fill="#F1F1F1" height="48" rx="2.5" ry="2.5" style="stroke:#181818;stroke-width:0.5;" width="141.3682" x="802" y="115"/><ellipse cx="817" cy="131" fill="#ADD1B2" rx="11" ry="11" style="stroke:#181818;stroke-width:1;"/><path d="M819.9688,136.6406 Q819.3906,136.9375 818.75,137.0781 Q818.1094,137.2344 817.4063,137.2344 Q814.9063,137.2344 813.5781,135.5938 Q812.2656,133.9375 812.2656,130.8125 Q812.2656,127.6875 813.5781,126.0313 Q814.9063,124.375 817.4063,124.375 Q818.1094,124.375 818.75,124.5313 Q819.4063,124.6875 819.9688,124.9844 L819.9688,127.7031 Q819.3438,127.125 818.75,126.8594 Q818.1563,126.5781 817.5313,126.5781 Q816.1875,126.5781 815.5,127.6563 Q814.8125,128.7188 814.8125,130.8125 Q814.8125,132.9063 815.5,133.9844 Q816.1875,135.0469 817.5313,135.0469 Q818.1563,135.0469 818.75,134.7813 Q819.3438,134.5 819.9688,133.9219 L819.9688,136.6406 Z " fill="#000000"/><text fill="#000000" font-family="sans-serif" font-size="14" lengthAdjust="spacing" textLength="109.3682" x="831" y="135.8467">MaterialSample</text><line style="stroke:#181818;stroke-width:0.5;" x1="803" x2="942.3682" y1="147" y2="147"/><line style="stroke:#181818;stroke-width:0.5;" x1="803" x2="942.3682" y1="155" y2="155"/></g><!--class SpatialSample--><g class="entity" data-qualified-name="SpatialSample" data-source-line="3" id="ent0007"><rect fill="#F1F1F1" height="48" rx="2.5" ry="2.5" style="stroke:#181818;stroke-width:0.5;" width="132.6934" x="978" y="115"/><ellipse cx="993" cy="131" fill="#ADD1B2" rx="11" ry="11" style="stroke:#181818;stroke-width:1;"/><path d="M995.9688,136.6406 Q995.3906,136.9375 994.75,137.0781 Q994.1094,137.2344 993.4063,137.2344 Q990.9063,137.2344 989.5781,135.5938 Q988.2656,133.9375 988.2656,130.8125 Q988.2656,127.6875 989.5781,126.0313 Q990.9063,124.375 993.4063,124.375 Q994.1094,124.375 994.75,124.5313 Q995.4063,124.6875 995.9688,124.9844 L995.9688,127.7031 Q995.3438,127.125 994.75,126.8594 Q994.1563,126.5781 993.5313,126.5781 Q992.1875,126.5781 991.5,127.6563 Q990.8125,128.7188 990.8125,130.8125 Q990.8125,132.9063 991.5,133.9844 Q992.1875,135.0469 993.5313,135.0469 Q994.1563,135.0469 994.75,134.7813 Q995.3438,134.5 995.9688,133.9219 L995.9688,136.6406 Z " fill="#000000"/><text fill="#000000" font-family="sans-serif" font-size="14" lengthAdjust="spacing" textLength="100.6934" x="1007" y="135.8467">SpatialSample</text><line style="stroke:#181818;stroke-width:0.5;" x1="979" x2="1109.6934" y1="147" y2="147"/><line style="stroke:#181818;stroke-width:0.5;" x1="979" x2="1109.6934" y1="155" y2="155"/></g><!--class StatisticalSample--><g class="entity" data-qualified-name="StatisticalSample" data-source-line="4" id="ent0009"><rect fill="#F1F1F1" height="48" rx="2.5" ry="2.5" style="stroke:#181818;stroke-width:0.5;" width="153.666" x="1146.5" y="115"/><ellipse cx="1161.5" cy="131" fill="#ADD1B2" rx="11" ry="11" style="stroke:#181818;stroke-width:1;"/><path d="M1164.4688,136.6406 Q1163.8906,136.9375 1163.25,137.0781 Q1162.6094,137.2344 1161.9063,137.2344 Q1159.4063,137.2344 1158.0781,135.5938 Q1156.7656,133.9375 1156.7656,130.8125 Q1156.7656,127.6875 1158.0781,126.0313 Q1159.4063,124.375 1161.9063,124.375 Q1162.6094,124.375 1163.25,124.5313 Q1163.9063,124.6875 1164.4688,124.9844 L1164.4688,127.7031 Q1163.8438,127.125 1163.25,126.8594 Q1162.6563,126.5781 1162.0313,126.5781 Q1160.6875,126.5781 1160,127.6563 Q1159.3125,128.7188 1159.3125,130.8125 Q1159.3125,132.9063 1160,133.9844 Q1160.6875,135.0469 1162.0313,135.0469 Q1162.6563,135.0469 1163.25,134.7813 Q1163.8438,134.5 1164.4688,133.9219 L1164.4688,136.6406 Z " fill="#000000"/><text fill="#000000" font-family="sans-serif" font-size="14" lengthAdjust="spacing" textLength="121.666" x="1175.5" y="135.8467">StatisticalSample</text><line style="stroke:#181818;stroke-width:0.5;" x1="1147.5" x2="1299.166" y1="147" y2="147"/><line style="stroke:#181818;stroke-width:0.5;" x1="1147.5" x2="1299.166" y1="155" y2="155"/></g><!--class ObservableProperty--><g class="entity" data-qualified-name="ObservableProperty" data-source-line="5" id="ent0011"><rect fill="#F1F1F1" height="48" rx="2.5" ry="2.5" style="stroke:#181818;stroke-width:0.5;" width="171.6172" x="594.5" y="115"/><ellipse cx="609.5" cy="131" fill="#ADD1B2" rx="11" ry="11" style="stroke:#181818;stroke-width:1;"/><path d="M612.4688,136.6406 Q611.8906,136.9375 611.25,137.0781 Q610.6094,137.2344 609.9063,137.2344 Q607.4063,137.2344 606.0781,135.5938 Q604.7656,133.9375 604.7656,130.8125 Q604.7656,127.6875 606.0781,126.0313 Q607.4063,124.375 609.9063,124.375 Q610.6094,124.375 611.25,124.5313 Q611.9063,124.6875 612.4688,124.9844 L612.4688,127.7031 Q611.8438,127.125 611.25,126.8594 Q610.6563,126.5781 610.0313,126.5781 Q608.6875,126.5781 608,127.6563 Q607.3125,128.7188 607.3125,130.8125 Q607.3125,132.9063 608,133.9844 Q608.6875,135.0469 610.0313,135.0469 Q610.6563,135.0469 611.25,134.7813 Q611.8438,134.5 612.4688,133.9219 L612.4688,136.6406 Z " fill="#000000"/><text fill="#000000" font-family="sans-serif" font-size="14" lengthAdjust="spacing" textLength="139.6172" x="623.5" y="135.8467">ObservableProperty</text><line style="stroke:#181818;stroke-width:0.5;" x1="595.5" x2="765.1172" y1="147" y2="147"/><line style="stroke:#181818;stroke-width:0.5;" x1="595.5" x2="765.1172" y1="155" y2="155"/></g><!--class Procedure--><g class="entity" data-qualified-name="Procedure" data-source-line="6" id="ent0013"><rect fill="#F1F1F1" height="48" rx="2.5" ry="2.5" style="stroke:#181818;stroke-width:0.5;" width="103.2031" x="1578" y="7"/><ellipse cx="1593" cy="23" fill="#ADD1B2" rx="11" ry="11" style="stroke:#181818;stroke-width:1;"/><path d="M1595.9688,28.6406 Q1595.3906,28.9375 1594.75,29.0781 Q1594.1094,29.2344 1593.4063,29.2344 Q1590.9063,29.2344 1589.5781,27.5938 Q1588.2656,25.9375 1588.2656,22.8125 Q1588.2656,19.6875 1589.5781,18.0313 Q1590.9063,16.375 1593.4063,16.375 Q1594.1094,16.375 1594.75,16.5313 Q1595.4063,16.6875 1595.9688,16.9844 L1595.9688,19.7031 Q1595.3438,19.125 1594.75,18.8594 Q1594.1563,18.5781 1593.5313,18.5781 Q1592.1875,18.5781 1591.5,19.6563 Q1590.8125,20.7188 1590.8125,22.8125 Q1590.8125,24.9063 1591.5,25.9844 Q1592.1875,27.0469 1593.5313,27.0469 Q1594.1563,27.0469 1594.75,26.7813 Q1595.3438,26.5 1595.9688,25.9219 L1595.9688,28.6406 Z " fill="#000000"/><text fill="#000000" font-family="sans-serif" font-size="14" lengthAdjust="spacing" textLength="71.2031" x="1607" y="27.8467">Procedure</text><line style="stroke:#181818;stroke-width:0.5;" x1="1579" x2="1680.2031" y1="39" y2="39"/><line style="stroke:#181818;stroke-width:0.5;" x1="1579" x2="1680.2031" y1="47" y2="47"/></g><!--class ActuatingProcedure--><g class="entity" data-qualified-name="ActuatingProcedure" data-source-line="6" id="ent0014"><rect fill="#F1F1F1" height="48" rx="2.5" ry="2.5" style="stroke:#181818;stroke-width:0.5;" width="170.5576" x="1336" y="115"/><ellipse cx="1351" cy="131" fill="#ADD1B2" rx="11" ry="11" style="stroke:#181818;stroke-width:1;"/><path d="M1353.9688,136.6406 Q1353.3906,136.9375 1352.75,137.0781 Q1352.1094,137.2344 1351.4063,137.2344 Q1348.9063,137.2344 1347.5781,135.5938 Q1346.2656,133.9375 1346.2656,130.8125 Q1346.2656,127.6875 1347.5781,126.0313 Q1348.9063,124.375 1351.4063,124.375 Q1352.1094,124.375 1352.75,124.5313 Q1353.4063,124.6875 1353.9688,124.9844 L1353.9688,127.7031 Q1353.3438,127.125 1352.75,126.8594 Q1352.1563,126.5781 1351.5313,126.5781 Q1350.1875,126.5781 1349.5,127.6563 Q1348.8125,128.7188 1348.8125,130.8125 Q1348.8125,132.9063 1349.5,133.9844 Q1350.1875,135.0469 1351.5313,135.0469 Q1352.1563,135.0469 1352.75,134.7813 Q1353.3438,134.5 1353.9688,133.9219 L1353.9688,136.6406 Z " fill="#000000"/><text fill="#000000" font-family="sans-serif" font-size="14" lengthAdjust="spacing" textLength="138.5576" x="1365" y="135.8467">ActuatingProcedure</text><line style="stroke:#181818;stroke-width:0.5;" x1="1337" x2="1505.5576" y1="147" y2="147"/><line style="stroke:#181818;stroke-width:0.5;" x1="1337" x2="1505.5576" y1="155" y2="155"/></g><!--class ObservingProcedure--><g class="entity" data-qualified-name="ObservingProcedure" data-source-line="7" id="ent0016"><rect fill="#F1F1F1" height="48" rx="2.5" ry="2.5" style="stroke:#181818;stroke-width:0.5;" width="174.707" x="1542" y="115"/><ellipse cx="1557" cy="131" fill="#ADD1B2" rx="11" ry="11" style="stroke:#181818;stroke-width:1;"/><path d="M1559.9688,136.6406 Q1559.3906,136.9375 1558.75,137.0781 Q1558.1094,137.2344 1557.4063,137.2344 Q1554.9063,137.2344 1553.5781,135.5938 Q1552.2656,133.9375 1552.2656,130.8125 Q1552.2656,127.6875 1553.5781,126.0313 Q1554.9063,124.375 1557.4063,124.375 Q1558.1094,124.375 1558.75,124.5313 Q1559.4063,124.6875 1559.9688,124.9844 L1559.9688,127.7031 Q1559.3438,127.125 1558.75,126.8594 Q1558.1563,126.5781 1557.5313,126.5781 Q1556.1875,126.5781 1555.5,127.6563 Q1554.8125,128.7188 1554.8125,130.8125 Q1554.8125,132.9063 1555.5,133.9844 Q1556.1875,135.0469 1557.5313,135.0469 Q1558.1563,135.0469 1558.75,134.7813 Q1559.3438,134.5 1559.9688,133.9219 L1559.9688,136.6406 Z " fill="#000000"/><text fill="#000000" font-family="sans-serif" font-size="14" lengthAdjust="spacing" textLength="142.707" x="1571" y="135.8467">ObservingProcedure</text><line style="stroke:#181818;stroke-width:0.5;" x1="1543" x2="1715.707" y1="147" y2="147"/><line style="stroke:#181818;stroke-width:0.5;" x1="1543" x2="1715.707" y1="155" y2="155"/></g><!--class SamplingProcedure--><g class="entity" data-qualified-name="SamplingProcedure" data-source-line="8" id="ent0018"><rect fill="#F1F1F1" height="48" rx="2.5" ry="2.5" style="stroke:#181818;stroke-width:0.5;" width="168.7324" x="1752" y="115"/><ellipse cx="1767" cy="131" fill="#ADD1B2" rx="11" ry="11" style="stroke:#181818;stroke-width:1;"/><path d="M1769.9688,136.6406 Q1769.3906,136.9375 1768.75,137.0781 Q1768.1094,137.2344 1767.4063,137.2344 Q1764.9063,137.2344 1763.5781,135.5938 Q1762.2656,133.9375 1762.2656,130.8125 Q1762.2656,127.6875 1763.5781,126.0313 Q1764.9063,124.375 1767.4063,124.375 Q1768.1094,124.375 1768.75,124.5313 Q1769.4063,124.6875 1769.9688,124.9844 L1769.9688,127.7031 Q1769.3438,127.125 1768.75,126.8594 Q1768.1563,126.5781 1767.5313,126.5781 Q1766.1875,126.5781 1765.5,127.6563 Q1764.8125,128.7188 1764.8125,130.8125 Q1764.8125,132.9063 1765.5,133.9844 Q1766.1875,135.0469 1767.5313,135.0469 Q1768.1563,135.0469 1768.75,134.7813 Q1769.3438,134.5 1769.9688,133.9219 L1769.9688,136.6406 Z " fill="#000000"/><text fill="#000000" font-family="sans-serif" font-size="14" lengthAdjust="spacing" textLength="136.7324" x="1781" y="135.8467">SamplingProcedure</text><line style="stroke:#181818;stroke-width:0.5;" x1="1753" x2="1919.7324" y1="147" y2="147"/><line style="stroke:#181818;stroke-width:0.5;" x1="1753" x2="1919.7324" y1="155" y2="155"/></g><!--class Asset--><g class="entity" data-qualified-name="Asset" data-source-line="9" id="ent0020"><rect fill="#F1F1F1" height="48" rx="2.5" ry="2.5" style="stroke:#181818;stroke-width:0.5;" width="70.2676" x="2027.5" y="7"/><ellipse cx="2042.5" cy="23" fill="#ADD1B2" rx="11" ry="11" style="stroke:#181818;stroke-width:1;"/><path d="M2045.4688,28.6406 Q2044.8906,28.9375 2044.25,29.0781 Q2043.6094,29.2344 2042.9063,29.2344 Q2040.4063,29.2344 2039.0781,27.5938 Q2037.7656,25.9375 2037.7656,22.8125 Q2037.7656,19.6875 2039.0781,18.0313 Q2040.4063,16.375 2042.9063,16.375 Q2043.6094,16.375 2044.25,16.5313 Q2044.9063,16.6875 2045.4688,16.9844 L2045.4688,19.7031 Q2044.8438,19.125 2044.25,18.8594 Q2043.6563,18.5781 2043.0313,18.5781 Q2041.6875,18.5781 2041,19.6563 Q2040.3125,20.7188 2040.3125,22.8125 Q2040.3125,24.9063 2041,25.9844 Q2041.6875,27.0469 2043.0313,27.0469 Q2043.6563,27.0469 2044.25,26.7813 Q2044.8438,26.5 2045.4688,25.9219 L2045.4688,28.6406 Z " fill="#000000"/><text fill="#000000" font-family="sans-serif" font-size="14" lengthAdjust="spacing" textLength="38.2676" x="2056.5" y="27.8467">Asset</text><line style="stroke:#181818;stroke-width:0.5;" x1="2028.5" x2="2096.7676" y1="39" y2="39"/><line style="stroke:#181818;stroke-width:0.5;" x1="2028.5" x2="2096.7676" y1="47" y2="47"/></g><!--class Platform--><g class="entity" data-qualified-name="Platform" data-source-line="9" id="ent0021"><rect fill="#F1F1F1" height="48" rx="2.5" ry="2.5" style="stroke:#181818;stroke-width:0.5;" width="91.2881" x="1956" y="115"/><ellipse cx="1971" cy="131" fill="#ADD1B2" rx="11" ry="11" style="stroke:#181818;stroke-width:1;"/><path d="M1973.9688,136.6406 Q1973.3906,136.9375 1972.75,137.0781 Q1972.1094,137.2344 1971.4063,137.2344 Q1968.9063,137.2344 1967.5781,135.5938 Q1966.2656,133.9375 1966.2656,130.8125 Q1966.2656,127.6875 1967.5781,126.0313 Q1968.9063,124.375 1971.4063,124.375 Q1972.1094,124.375 1972.75,124.5313 Q1973.4063,124.6875 1973.9688,124.9844 L1973.9688,127.7031 Q1973.3438,127.125 1972.75,126.8594 Q1972.1563,126.5781 1971.5313,126.5781 Q1970.1875,126.5781 1969.5,127.6563 Q1968.8125,128.7188 1968.8125,130.8125 Q1968.8125,132.9063 1969.5,133.9844 Q1970.1875,135.0469 1971.5313,135.0469 Q1972.1563,135.0469 1972.75,134.7813 Q1973.3438,134.5 1973.9688,133.9219 L1973.9688,136.6406 Z " fill="#000000"/><text fill="#000000" font-family="sans-serif" font-size="14" lengthAdjust="spacing" textLength="59.2881" x="1985" y="135.8467">Platform</text><line style="stroke:#181818;stroke-width:0.5;" x1="1957" x2="2046.2881" y1="147" y2="147"/><line style="stroke:#181818;stroke-width:0.5;" x1="1957" x2="2046.2881" y1="155" y2="155"/></g><!--class System--><g class="entity" data-qualified-name="System" data-source-line="10" id="ent0023"><rect fill="#F1F1F1" height="48" rx="2.5" ry="2.5" style="stroke:#181818;stroke-width:0.5;" width="84.2061" x="2082.5" y="115"/><ellipse cx="2097.5" cy="131" fill="#ADD1B2" rx="11" ry="11" style="stroke:#181818;stroke-width:1;"/><path d="M2100.4688,136.6406 Q2099.8906,136.9375 2099.25,137.0781 Q2098.6094,137.2344 2097.9063,137.2344 Q2095.4063,137.2344 2094.0781,135.5938 Q2092.7656,133.9375 2092.7656,130.8125 Q2092.7656,127.6875 2094.0781,126.0313 Q2095.4063,124.375 2097.9063,124.375 Q2098.6094,124.375 2099.25,124.5313 Q2099.9063,124.6875 2100.4688,124.9844 L2100.4688,127.7031 Q2099.8438,127.125 2099.25,126.8594 Q2098.6563,126.5781 2098.0313,126.5781 Q2096.6875,126.5781 2096,127.6563 Q2095.3125,128.7188 2095.3125,130.8125 Q2095.3125,132.9063 2096,133.9844 Q2096.6875,135.0469 2098.0313,135.0469 Q2098.6563,135.0469 2099.25,134.7813 Q2099.8438,134.5 2100.4688,133.9219 L2100.4688,136.6406 Z " fill="#000000"/><text fill="#000000" font-family="sans-serif" font-size="14" lengthAdjust="spacing" textLength="52.2061" x="2111.5" y="135.8467">System</text><line style="stroke:#181818;stroke-width:0.5;" x1="2083.5" x2="2165.7061" y1="147" y2="147"/><line style="stroke:#181818;stroke-width:0.5;" x1="2083.5" x2="2165.7061" y1="155" y2="155"/></g><!--class Sampler--><g class="entity" data-qualified-name="Sampler" data-source-line="10" id="ent0024"><rect fill="#F1F1F1" height="48" rx="2.5" ry="2.5" style="stroke:#181818;stroke-width:0.5;" width="90.249" x="1953.5" y="223"/><ellipse cx="1968.5" cy="239" fill="#ADD1B2" rx="11" ry="11" style="stroke:#181818;stroke-width:1;"/><path d="M1971.4688,244.6406 Q1970.8906,244.9375 1970.25,245.0781 Q1969.6094,245.2344 1968.9063,245.2344 Q1966.4063,245.2344 1965.0781,243.5938 Q1963.7656,241.9375 1963.7656,238.8125 Q1963.7656,235.6875 1965.0781,234.0313 Q1966.4063,232.375 1968.9063,232.375 Q1969.6094,232.375 1970.25,232.5313 Q1970.9063,232.6875 1971.4688,232.9844 L1971.4688,235.7031 Q1970.8438,235.125 1970.25,234.8594 Q1969.6563,234.5781 1969.0313,234.5781 Q1967.6875,234.5781 1967,235.6563 Q1966.3125,236.7188 1966.3125,238.8125 Q1966.3125,240.9063 1967,241.9844 Q1967.6875,243.0469 1969.0313,243.0469 Q1969.6563,243.0469 1970.25,242.7813 Q1970.8438,242.5 1971.4688,241.9219 L1971.4688,244.6406 Z " fill="#000000"/><text fill="#000000" font-family="sans-serif" font-size="14" lengthAdjust="spacing" textLength="58.249" x="1982.5" y="243.8467">Sampler</text><line style="stroke:#181818;stroke-width:0.5;" x1="1954.5" x2="2042.749" y1="255" y2="255"/><line style="stroke:#181818;stroke-width:0.5;" x1="1954.5" x2="2042.749" y1="263" y2="263"/></g><!--class Actuator--><g class="entity" data-qualified-name="Actuator" data-source-line="11" id="ent0026"><rect fill="#F1F1F1" height="48" rx="2.5" ry="2.5" style="stroke:#181818;stroke-width:0.5;" width="92.0264" x="2078.5" y="223"/><ellipse cx="2093.5" cy="239" fill="#ADD1B2" rx="11" ry="11" style="stroke:#181818;stroke-width:1;"/><path d="M2096.4688,244.6406 Q2095.8906,244.9375 2095.25,245.0781 Q2094.6094,245.2344 2093.9063,245.2344 Q2091.4063,245.2344 2090.0781,243.5938 Q2088.7656,241.9375 2088.7656,238.8125 Q2088.7656,235.6875 2090.0781,234.0313 Q2091.4063,232.375 2093.9063,232.375 Q2094.6094,232.375 2095.25,232.5313 Q2095.9063,232.6875 2096.4688,232.9844 L2096.4688,235.7031 Q2095.8438,235.125 2095.25,234.8594 Q2094.6563,234.5781 2094.0313,234.5781 Q2092.6875,234.5781 2092,235.6563 Q2091.3125,236.7188 2091.3125,238.8125 Q2091.3125,240.9063 2092,241.9844 Q2092.6875,243.0469 2094.0313,243.0469 Q2094.6563,243.0469 2095.25,242.7813 Q2095.8438,242.5 2096.4688,241.9219 L2096.4688,244.6406 Z " fill="#000000"/><text fill="#000000" font-family="sans-serif" font-size="14" lengthAdjust="spacing" textLength="60.0264" x="2107.5" y="243.8467">Actuator</text><line style="stroke:#181818;stroke-width:0.5;" x1="2079.5" x2="2169.5264" y1="255" y2="255"/><line style="stroke:#181818;stroke-width:0.5;" x1="2079.5" x2="2169.5264" y1="263" y2="263"/></g><!--class Execution--><g class="entity" data-qualified-name="Execution" data-source-line="13" id="ent0029"><rect fill="#F1F1F1" height="48" rx="2.5" ry="2.5" style="stroke:#181818;stroke-width:0.5;" width="101.1318" x="2334" y="7"/><ellipse cx="2349" cy="23" fill="#ADD1B2" rx="11" ry="11" style="stroke:#181818;stroke-width:1;"/><path d="M2351.9688,28.6406 Q2351.3906,28.9375 2350.75,29.0781 Q2350.1094,29.2344 2349.4063,29.2344 Q2346.9063,29.2344 2345.5781,27.5938 Q2344.2656,25.9375 2344.2656,22.8125 Q2344.2656,19.6875 2345.5781,18.0313 Q2346.9063,16.375 2349.4063,16.375 Q2350.1094,16.375 2350.75,16.5313 Q2351.4063,16.6875 2351.9688,16.9844 L2351.9688,19.7031 Q2351.3438,19.125 2350.75,18.8594 Q2350.1563,18.5781 2349.5313,18.5781 Q2348.1875,18.5781 2347.5,19.6563 Q2346.8125,20.7188 2346.8125,22.8125 Q2346.8125,24.9063 2347.5,25.9844 Q2348.1875,27.0469 2349.5313,27.0469 Q2350.1563,27.0469 2350.75,26.7813 Q2351.3438,26.5 2351.9688,25.9219 L2351.9688,28.6406 Z " fill="#000000"/><text fill="#000000" font-family="sans-serif" font-size="14" lengthAdjust="spacing" textLength="69.1318" x="2363" y="27.8467">Execution</text><line style="stroke:#181818;stroke-width:0.5;" x1="2335" x2="2434.1318" y1="39" y2="39"/><line style="stroke:#181818;stroke-width:0.5;" x1="2335" x2="2434.1318" y1="47" y2="47"/></g><!--class Sampling--><g class="entity" data-qualified-name="Sampling" data-source-line="13" id="ent0030"><rect fill="#F1F1F1" height="48" rx="2.5" ry="2.5" style="stroke:#181818;stroke-width:0.5;" width="97.5293" x="2201.5" y="115"/><ellipse cx="2216.5" cy="131" fill="#ADD1B2" rx="11" ry="11" style="stroke:#181818;stroke-width:1;"/><path d="M2219.4688,136.6406 Q2218.8906,136.9375 2218.25,137.0781 Q2217.6094,137.2344 2216.9063,137.2344 Q2214.4063,137.2344 2213.0781,135.5938 Q2211.7656,133.9375 2211.7656,130.8125 Q2211.7656,127.6875 2213.0781,126.0313 Q2214.4063,124.375 2216.9063,124.375 Q2217.6094,124.375 2218.25,124.5313 Q2218.9063,124.6875 2219.4688,124.9844 L2219.4688,127.7031 Q2218.8438,127.125 2218.25,126.8594 Q2217.6563,126.5781 2217.0313,126.5781 Q2215.6875,126.5781 2215,127.6563 Q2214.3125,128.7188 2214.3125,130.8125 Q2214.3125,132.9063 2215,133.9844 Q2215.6875,135.0469 2217.0313,135.0469 Q2217.6563,135.0469 2218.25,134.7813 Q2218.8438,134.5 2219.4688,133.9219 L2219.4688,136.6406 Z " fill="#000000"/><text fill="#000000" font-family="sans-serif" font-size="14" lengthAdjust="spacing" textLength="65.5293" x="2230.5" y="135.8467">Sampling</text><line style="stroke:#181818;stroke-width:0.5;" x1="2202.5" x2="2298.0293" y1="147" y2="147"/><line style="stroke:#181818;stroke-width:0.5;" x1="2202.5" x2="2298.0293" y1="155" y2="155"/></g><!--class ExecutionCollection--><g class="entity" data-qualified-name="ExecutionCollection" data-source-line="14" id="ent0032"><rect fill="#F1F1F1" height="48" rx="2.5" ry="2.5" style="stroke:#181818;stroke-width:0.5;" width="170.3799" x="2821.5" y="7"/><ellipse cx="2836.5" cy="23" fill="#ADD1B2" rx="11" ry="11" style="stroke:#181818;stroke-width:1;"/><path d="M2839.4688,28.6406 Q2838.8906,28.9375 2838.25,29.0781 Q2837.6094,29.2344 2836.9063,29.2344 Q2834.4063,29.2344 2833.0781,27.5938 Q2831.7656,25.9375 2831.7656,22.8125 Q2831.7656,19.6875 2833.0781,18.0313 Q2834.4063,16.375 2836.9063,16.375 Q2837.6094,16.375 2838.25,16.5313 Q2838.9063,16.6875 2839.4688,16.9844 L2839.4688,19.7031 Q2838.8438,19.125 2838.25,18.8594 Q2837.6563,18.5781 2837.0313,18.5781 Q2835.6875,18.5781 2835,19.6563 Q2834.3125,20.7188 2834.3125,22.8125 Q2834.3125,24.9063 2835,25.9844 Q2835.6875,27.0469 2837.0313,27.0469 Q2837.6563,27.0469 2838.25,26.7813 Q2838.8438,26.5 2839.4688,25.9219 L2839.4688,28.6406 Z " fill="#000000"/><text fill="#000000" font-family="sans-serif" font-size="14" lengthAdjust="spacing" textLength="138.3799" x="2850.5" y="27.8467">ExecutionCollection</text><line style="stroke:#181818;stroke-width:0.5;" x1="2822.5" x2="2990.8799" y1="39" y2="39"/><line style="stroke:#181818;stroke-width:0.5;" x1="2822.5" x2="2990.8799" y1="47" y2="47"/></g><!--class SamplingCollection--><g class="entity" data-qualified-name="SamplingCollection" data-source-line="14" id="ent0033"><rect fill="#F1F1F1" height="48" rx="2.5" ry="2.5" style="stroke:#181818;stroke-width:0.5;" width="166.7773" x="2621" y="115"/><ellipse cx="2636" cy="131" fill="#ADD1B2" rx="11" ry="11" style="stroke:#181818;stroke-width:1;"/><path d="M2638.9688,136.6406 Q2638.3906,136.9375 2637.75,137.0781 Q2637.1094,137.2344 2636.4063,137.2344 Q2633.9063,137.2344 2632.5781,135.5938 Q2631.2656,133.9375 2631.2656,130.8125 Q2631.2656,127.6875 2632.5781,126.0313 Q2633.9063,124.375 2636.4063,124.375 Q2637.1094,124.375 2637.75,124.5313 Q2638.4063,124.6875 2638.9688,124.9844 L2638.9688,127.7031 Q2638.3438,127.125 2637.75,126.8594 Q2637.1563,126.5781 2636.5313,126.5781 Q2635.1875,126.5781 2634.5,127.6563 Q2633.8125,128.7188 2633.8125,130.8125 Q2633.8125,132.9063 2634.5,133.9844 Q2635.1875,135.0469 2636.5313,135.0469 Q2637.1563,135.0469 2637.75,134.7813 Q2638.3438,134.5 2638.9688,133.9219 L2638.9688,136.6406 Z " fill="#000000"/><text fill="#000000" font-family="sans-serif" font-size="14" lengthAdjust="spacing" textLength="134.7773" x="2650" y="135.8467">SamplingCollection</text><line style="stroke:#181818;stroke-width:0.5;" x1="2622" x2="2786.7773" y1="147" y2="147"/><line style="stroke:#181818;stroke-width:0.5;" x1="2622" x2="2786.7773" y1="155" y2="155"/></g><!--class Actuation--><g class="entity" data-qualified-name="Actuation" data-source-line="15" id="ent0035"><rect fill="#F1F1F1" height="48" rx="2.5" ry="2.5" style="stroke:#181818;stroke-width:0.5;" width="99.0332" x="2335" y="115"/><ellipse cx="2350" cy="131" fill="#ADD1B2" rx="11" ry="11" style="stroke:#181818;stroke-width:1;"/><path d="M2352.9688,136.6406 Q2352.3906,136.9375 2351.75,137.0781 Q2351.1094,137.2344 2350.4063,137.2344 Q2347.9063,137.2344 2346.5781,135.5938 Q2345.2656,133.9375 2345.2656,130.8125 Q2345.2656,127.6875 2346.5781,126.0313 Q2347.9063,124.375 2350.4063,124.375 Q2351.1094,124.375 2351.75,124.5313 Q2352.4063,124.6875 2352.9688,124.9844 L2352.9688,127.7031 Q2352.3438,127.125 2351.75,126.8594 Q2351.1563,126.5781 2350.5313,126.5781 Q2349.1875,126.5781 2348.5,127.6563 Q2347.8125,128.7188 2347.8125,130.8125 Q2347.8125,132.9063 2348.5,133.9844 Q2349.1875,135.0469 2350.5313,135.0469 Q2351.1563,135.0469 2351.75,134.7813 Q2352.3438,134.5 2352.9688,133.9219 L2352.9688,136.6406 Z " fill="#000000"/><text fill="#000000" font-family="sans-serif" font-size="14" lengthAdjust="spacing" textLength="67.0332" x="2364" y="135.8467">Actuation</text><line style="stroke:#181818;stroke-width:0.5;" x1="2336" x2="2433.0332" y1="147" y2="147"/><line style="stroke:#181818;stroke-width:0.5;" x1="2336" x2="2433.0332" y1="155" y2="155"/></g><!--class Sensor--><g class="entity" data-qualified-name="Sensor" data-source-line="16" id="ent0037"><rect fill="#F1F1F1" height="48" rx="2.5" ry="2.5" style="stroke:#181818;stroke-width:0.5;" width="79.9883" x="2205.5" y="223"/><ellipse cx="2220.5" cy="239" fill="#ADD1B2" rx="11" ry="11" style="stroke:#181818;stroke-width:1;"/><path d="M2223.4688,244.6406 Q2222.8906,244.9375 2222.25,245.0781 Q2221.6094,245.2344 2220.9063,245.2344 Q2218.4063,245.2344 2217.0781,243.5938 Q2215.7656,241.9375 2215.7656,238.8125 Q2215.7656,235.6875 2217.0781,234.0313 Q2218.4063,232.375 2220.9063,232.375 Q2221.6094,232.375 2222.25,232.5313 Q2222.9063,232.6875 2223.4688,232.9844 L2223.4688,235.7031 Q2222.8438,235.125 2222.25,234.8594 Q2221.6563,234.5781 2221.0313,234.5781 Q2219.6875,234.5781 2219,235.6563 Q2218.3125,236.7188 2218.3125,238.8125 Q2218.3125,240.9063 2219,241.9844 Q2219.6875,243.0469 2221.0313,243.0469 Q2221.6563,243.0469 2222.25,242.7813 Q2222.8438,242.5 2223.4688,241.9219 L2223.4688,244.6406 Z " fill="#000000"/><text fill="#000000" font-family="sans-serif" font-size="14" lengthAdjust="spacing" textLength="47.9883" x="2234.5" y="243.8467">Sensor</text><line style="stroke:#181818;stroke-width:0.5;" x1="2206.5" x2="2284.4883" y1="255" y2="255"/><line style="stroke:#181818;stroke-width:0.5;" x1="2206.5" x2="2284.4883" y1="263" y2="263"/></g><!--class ActuationCollection--><g class="entity" data-qualified-name="ActuationCollection" data-source-line="17" id="ent0039"><rect fill="#F1F1F1" height="48" rx="2.5" ry="2.5" style="stroke:#181818;stroke-width:0.5;" width="168.2813" x="2822.5" y="115"/><ellipse cx="2837.5" cy="131" fill="#ADD1B2" rx="11" ry="11" style="stroke:#181818;stroke-width:1;"/><path d="M2840.4688,136.6406 Q2839.8906,136.9375 2839.25,137.0781 Q2838.6094,137.2344 2837.9063,137.2344 Q2835.4063,137.2344 2834.0781,135.5938 Q2832.7656,133.9375 2832.7656,130.8125 Q2832.7656,127.6875 2834.0781,126.0313 Q2835.4063,124.375 2837.9063,124.375 Q2838.6094,124.375 2839.25,124.5313 Q2839.9063,124.6875 2840.4688,124.9844 L2840.4688,127.7031 Q2839.8438,127.125 2839.25,126.8594 Q2838.6563,126.5781 2838.0313,126.5781 Q2836.6875,126.5781 2836,127.6563 Q2835.3125,128.7188 2835.3125,130.8125 Q2835.3125,132.9063 2836,133.9844 Q2836.6875,135.0469 2838.0313,135.0469 Q2838.6563,135.0469 2839.25,134.7813 Q2839.8438,134.5 2840.4688,133.9219 L2840.4688,136.6406 Z " fill="#000000"/><text fill="#000000" font-family="sans-serif" font-size="14" lengthAdjust="spacing" textLength="136.2813" x="2851.5" y="135.8467">ActuationCollection</text><line style="stroke:#181818;stroke-width:0.5;" x1="2823.5" x2="2989.7813" y1="147" y2="147"/><line style="stroke:#181818;stroke-width:0.5;" x1="2823.5" x2="2989.7813" y1="155" y2="155"/></g><!--class ObservationCollection--><g class="entity" data-qualified-name="ObservationCollection" data-source-line="18" id="ent0041"><rect fill="#F1F1F1" height="48" rx="2.5" ry="2.5" style="stroke:#181818;stroke-width:0.5;" width="186.499" x="3025.5" y="115"/><ellipse cx="3040.5" cy="131" fill="#ADD1B2" rx="11" ry="11" style="stroke:#181818;stroke-width:1;"/><path d="M3043.4688,136.6406 Q3042.8906,136.9375 3042.25,137.0781 Q3041.6094,137.2344 3040.9063,137.2344 Q3038.4063,137.2344 3037.0781,135.5938 Q3035.7656,133.9375 3035.7656,130.8125 Q3035.7656,127.6875 3037.0781,126.0313 Q3038.4063,124.375 3040.9063,124.375 Q3041.6094,124.375 3042.25,124.5313 Q3042.9063,124.6875 3043.4688,124.9844 L3043.4688,127.7031 Q3042.8438,127.125 3042.25,126.8594 Q3041.6563,126.5781 3041.0313,126.5781 Q3039.6875,126.5781 3039,127.6563 Q3038.3125,128.7188 3038.3125,130.8125 Q3038.3125,132.9063 3039,133.9844 Q3039.6875,135.0469 3041.0313,135.0469 Q3041.6563,135.0469 3042.25,134.7813 Q3042.8438,134.5 3043.4688,133.9219 L3043.4688,136.6406 Z " fill="#000000"/><text fill="#000000" font-family="sans-serif" font-size="14" lengthAdjust="spacing" textLength="154.499" x="3054.5" y="135.8467">ObservationCollection</text><line style="stroke:#181818;stroke-width:0.5;" x1="3026.5" x2="3210.999" y1="147" y2="147"/><line style="stroke:#181818;stroke-width:0.5;" x1="3026.5" x2="3210.999" y1="155" y2="155"/></g><!--class Observation--><g class="entity" data-qualified-name="Observation" data-source-line="19" id="ent0043"><rect fill="#F1F1F1" height="48" rx="2.5" ry="2.5" style="stroke:#181818;stroke-width:0.5;" width="117.251" x="2469" y="115"/><ellipse cx="2484" cy="131" fill="#ADD1B2" rx="11" ry="11" style="stroke:#181818;stroke-width:1;"/><path d="M2486.9688,136.6406 Q2486.3906,136.9375 2485.75,137.0781 Q2485.1094,137.2344 2484.4063,137.2344 Q2481.9063,137.2344 2480.5781,135.5938 Q2479.2656,133.9375 2479.2656,130.8125 Q2479.2656,127.6875 2480.5781,126.0313 Q2481.9063,124.375 2484.4063,124.375 Q2485.1094,124.375 2485.75,124.5313 Q2486.4063,124.6875 2486.9688,124.9844 L2486.9688,127.7031 Q2486.3438,127.125 2485.75,126.8594 Q2485.1563,126.5781 2484.5313,126.5781 Q2483.1875,126.5781 2482.5,127.6563 Q2481.8125,128.7188 2481.8125,130.8125 Q2481.8125,132.9063 2482.5,133.9844 Q2483.1875,135.0469 2484.5313,135.0469 Q2485.1563,135.0469 2485.75,134.7813 Q2486.3438,134.5 2486.9688,133.9219 L2486.9688,136.6406 Z " fill="#000000"/><text fill="#000000" font-family="sans-serif" font-size="14" lengthAdjust="spacing" textLength="85.251" x="2498" y="135.8467">Observation</text><line style="stroke:#181818;stroke-width:0.5;" x1="2470" x2="2585.251" y1="147" y2="147"/><line style="stroke:#181818;stroke-width:0.5;" x1="2470" x2="2585.251" y1="155" y2="155"/></g><!--class Stimulus--><g class="entity" data-qualified-name="Stimulus" data-source-line="20" id="ent0045"><rect fill="#F1F1F1" height="48" rx="2.5" ry="2.5" style="stroke:#181818;stroke-width:0.5;" width="92.833" x="7" y="7"/><ellipse cx="22" cy="23" fill="#ADD1B2" rx="11" ry="11" style="stroke:#181818;stroke-width:1;"/><path d="M24.9688,28.6406 Q24.3906,28.9375 23.75,29.0781 Q23.1094,29.2344 22.4063,29.2344 Q19.9063,29.2344 18.5781,27.5938 Q17.2656,25.9375 17.2656,22.8125 Q17.2656,19.6875 18.5781,18.0313 Q19.9063,16.375 22.4063,16.375 Q23.1094,16.375 23.75,16.5313 Q24.4063,16.6875 24.9688,16.9844 L24.9688,19.7031 Q24.3438,19.125 23.75,18.8594 Q23.1563,18.5781 22.5313,18.5781 Q21.1875,18.5781 20.5,19.6563 Q19.8125,20.7188 19.8125,22.8125 Q19.8125,24.9063 20.5,25.9844 Q21.1875,27.0469 22.5313,27.0469 Q23.1563,27.0469 23.75,26.7813 Q24.3438,26.5 24.9688,25.9219 L24.9688,28.6406 Z " fill="#000000"/><text fill="#000000" font-family="sans-serif" font-size="14" lengthAdjust="spacing" textLength="60.833" x="36" y="27.8467">Stimulus</text><line style="stroke:#181818;stroke-width:0.5;" x1="8" x2="98.833" y1="39" y2="39"/><line style="stroke:#181818;stroke-width:0.5;" x1="8" x2="98.833" y1="47" y2="47"/></g><!--class SampleCollection--><g class="entity" data-qualified-name="SampleCollection" data-source-line="22" id="ent0046"><rect fill="#F1F1F1" height="48" rx="2.5" ry="2.5" style="stroke:#181818;stroke-width:0.5;" width="153.7412" x="135.5" y="7"/><ellipse cx="150.5" cy="23" fill="#ADD1B2" rx="11" ry="11" style="stroke:#181818;stroke-width:1;"/><path d="M153.4688,28.6406 Q152.8906,28.9375 152.25,29.0781 Q151.6094,29.2344 150.9063,29.2344 Q148.4063,29.2344 147.0781,27.5938 Q145.7656,25.9375 145.7656,22.8125 Q145.7656,19.6875 147.0781,18.0313 Q148.4063,16.375 150.9063,16.375 Q151.6094,16.375 152.25,16.5313 Q152.9063,16.6875 153.4688,16.9844 L153.4688,19.7031 Q152.8438,19.125 152.25,18.8594 Q151.6563,18.5781 151.0313,18.5781 Q149.6875,18.5781 149,19.6563 Q148.3125,20.7188 148.3125,22.8125 Q148.3125,24.9063 149,25.9844 Q149.6875,27.0469 151.0313,27.0469 Q151.6563,27.0469 152.25,26.7813 Q152.8438,26.5 153.4688,25.9219 L153.4688,28.6406 Z " fill="#000000"/><text fill="#000000" font-family="sans-serif" font-size="14" lengthAdjust="spacing" textLength="121.7412" x="164.5" y="27.8467">SampleCollection</text><line style="stroke:#181818;stroke-width:0.5;" x1="136.5" x2="288.2412" y1="39" y2="39"/><line style="stroke:#181818;stroke-width:0.5;" x1="136.5" x2="288.2412" y1="47" y2="47"/></g><!--class FeatureOfInterest--><g class="entity" data-qualified-name="FeatureOfInterest" data-source-line="23" id="ent0047"><rect fill="#F1F1F1" height="48" rx="2.5" ry="2.5" style="stroke:#181818;stroke-width:0.5;" width="156.1816" x="324.5" y="7"/><ellipse cx="339.5" cy="23" fill="#ADD1B2" rx="11" ry="11" style="stroke:#181818;stroke-width:1;"/><path d="M342.4688,28.6406 Q341.8906,28.9375 341.25,29.0781 Q340.6094,29.2344 339.9063,29.2344 Q337.4063,29.2344 336.0781,27.5938 Q334.7656,25.9375 334.7656,22.8125 Q334.7656,19.6875 336.0781,18.0313 Q337.4063,16.375 339.9063,16.375 Q340.6094,16.375 341.25,16.5313 Q341.9063,16.6875 342.4688,16.9844 L342.4688,19.7031 Q341.8438,19.125 341.25,18.8594 Q340.6563,18.5781 340.0313,18.5781 Q338.6875,18.5781 338,19.6563 Q337.3125,20.7188 337.3125,22.8125 Q337.3125,24.9063 338,25.9844 Q338.6875,27.0469 340.0313,27.0469 Q340.6563,27.0469 341.25,26.7813 Q341.8438,26.5 342.4688,25.9219 L342.4688,28.6406 Z " fill="#000000"/><text fill="#000000" font-family="sans-serif" font-size="14" lengthAdjust="spacing" textLength="124.1816" x="353.5" y="27.8467">FeatureOfInterest</text><line style="stroke:#181818;stroke-width:0.5;" x1="325.5" x2="479.6816" y1="39" y2="39"/><line style="stroke:#181818;stroke-width:0.5;" x1="325.5" x2="479.6816" y1="47" y2="47"/></g><!--class Input--><g class="entity" data-qualified-name="Input" data-source-line="24" id="ent0048"><rect fill="#F1F1F1" height="48" rx="2.5" ry="2.5" style="stroke:#181818;stroke-width:0.5;" width="68.251" x="19.5" y="115"/><ellipse cx="34.5" cy="131" fill="#ADD1B2" rx="11" ry="11" style="stroke:#181818;stroke-width:1;"/><path d="M37.4688,136.6406 Q36.8906,136.9375 36.25,137.0781 Q35.6094,137.2344 34.9063,137.2344 Q32.4063,137.2344 31.0781,135.5938 Q29.7656,133.9375 29.7656,130.8125 Q29.7656,127.6875 31.0781,126.0313 Q32.4063,124.375 34.9063,124.375 Q35.6094,124.375 36.25,124.5313 Q36.9063,124.6875 37.4688,124.9844 L37.4688,127.7031 Q36.8438,127.125 36.25,126.8594 Q35.6563,126.5781 35.0313,126.5781 Q33.6875,126.5781 33,127.6563 Q32.3125,128.7188 32.3125,130.8125 Q32.3125,132.9063 33,133.9844 Q33.6875,135.0469 35.0313,135.0469 Q35.6563,135.0469 36.25,134.7813 Q36.8438,134.5 37.4688,133.9219 L37.4688,136.6406 Z " fill="#000000"/><text fill="#000000" font-family="sans-serif" font-size="14" lengthAdjust="spacing" textLength="36.251" x="48.5" y="135.8467">Input</text><line style="stroke:#181818;stroke-width:0.5;" x1="20.5" x2="86.751" y1="147" y2="147"/><line style="stroke:#181818;stroke-width:0.5;" x1="20.5" x2="86.751" y1="155" y2="155"/></g><!--class Deployment--><g class="entity" data-qualified-name="Deployment" data-source-line="25" id="ent0049"><rect fill="#F1F1F1" height="48" rx="2.5" ry="2.5" style="stroke:#181818;stroke-width:0.5;" width="117.6338" x="122.5" y="115"/><ellipse cx="137.5" cy="131" fill="#ADD1B2" rx="11" ry="11" style="stroke:#181818;stroke-width:1;"/><path d="M140.4688,136.6406 Q139.8906,136.9375 139.25,137.0781 Q138.6094,137.2344 137.9063,137.2344 Q135.4063,137.2344 134.0781,135.5938 Q132.7656,133.9375 132.7656,130.8125 Q132.7656,127.6875 134.0781,126.0313 Q135.4063,124.375 137.9063,124.375 Q138.6094,124.375 139.25,124.5313 Q139.9063,124.6875 140.4688,124.9844 L140.4688,127.7031 Q139.8438,127.125 139.25,126.8594 Q138.6563,126.5781 138.0313,126.5781 Q136.6875,126.5781 136,127.6563 Q135.3125,128.7188 135.3125,130.8125 Q135.3125,132.9063 136,133.9844 Q136.6875,135.0469 138.0313,135.0469 Q138.6563,135.0469 139.25,134.7813 Q139.8438,134.5 140.4688,133.9219 L140.4688,136.6406 Z " fill="#000000"/><text fill="#000000" font-family="sans-serif" font-size="14" lengthAdjust="spacing" textLength="85.6338" x="151.5" y="135.8467">Deployment</text><line style="stroke:#181818;stroke-width:0.5;" x1="123.5" x2="239.1338" y1="147" y2="147"/><line style="stroke:#181818;stroke-width:0.5;" x1="123.5" x2="239.1338" y1="155" y2="155"/></g><!--class Output--><g class="entity" data-qualified-name="Output" data-source-line="28" id="ent0050"><rect fill="#F1F1F1" height="48" rx="2.5" ry="2.5" style="stroke:#181818;stroke-width:0.5;" width="80.6309" x="276" y="115"/><ellipse cx="291" cy="131" fill="#ADD1B2" rx="11" ry="11" style="stroke:#181818;stroke-width:1;"/><path d="M293.9688,136.6406 Q293.3906,136.9375 292.75,137.0781 Q292.1094,137.2344 291.4063,137.2344 Q288.9063,137.2344 287.5781,135.5938 Q286.2656,133.9375 286.2656,130.8125 Q286.2656,127.6875 287.5781,126.0313 Q288.9063,124.375 291.4063,124.375 Q292.1094,124.375 292.75,124.5313 Q293.4063,124.6875 293.9688,124.9844 L293.9688,127.7031 Q293.3438,127.125 292.75,126.8594 Q292.1563,126.5781 291.5313,126.5781 Q290.1875,126.5781 289.5,127.6563 Q288.8125,128.7188 288.8125,130.8125 Q288.8125,132.9063 289.5,133.9844 Q290.1875,135.0469 291.5313,135.0469 Q292.1563,135.0469 292.75,134.7813 Q293.3438,134.5 293.9688,133.9219 L293.9688,136.6406 Z " fill="#000000"/><text fill="#000000" font-family="sans-serif" font-size="14" lengthAdjust="spacing" textLength="48.6309" x="305" y="135.8467">Output</text><line style="stroke:#181818;stroke-width:0.5;" x1="277" x2="355.6309" y1="147" y2="147"/><line style="stroke:#181818;stroke-width:0.5;" x1="277" x2="355.6309" y1="155" y2="155"/></g><!--class Result--><g class="entity" data-qualified-name="Result" data-source-line="30" id="ent0051"><rect fill="#F1F1F1" height="48" rx="2.5" ry="2.5" style="stroke:#181818;stroke-width:0.5;" width="75.8867" x="15.5" y="223"/><ellipse cx="30.5" cy="239" fill="#ADD1B2" rx="11" ry="11" style="stroke:#181818;stroke-width:1;"/><path d="M33.4688,244.6406 Q32.8906,244.9375 32.25,245.0781 Q31.6094,245.2344 30.9063,245.2344 Q28.4063,245.2344 27.0781,243.5938 Q25.7656,241.9375 25.7656,238.8125 Q25.7656,235.6875 27.0781,234.0313 Q28.4063,232.375 30.9063,232.375 Q31.6094,232.375 32.25,232.5313 Q32.9063,232.6875 33.4688,232.9844 L33.4688,235.7031 Q32.8438,235.125 32.25,234.8594 Q31.6563,234.5781 31.0313,234.5781 Q29.6875,234.5781 29,235.6563 Q28.3125,236.7188 28.3125,238.8125 Q28.3125,240.9063 29,241.9844 Q29.6875,243.0469 31.0313,243.0469 Q31.6563,243.0469 32.25,242.7813 Q32.8438,242.5 33.4688,241.9219 L33.4688,244.6406 Z " fill="#000000"/><text fill="#000000" font-family="sans-serif" font-size="14" lengthAdjust="spacing" textLength="43.8867" x="44.5" y="243.8467">Result</text><line style="stroke:#181818;stroke-width:0.5;" x1="16.5" x2="90.3867" y1="255" y2="255"/><line style="stroke:#181818;stroke-width:0.5;" x1="16.5" x2="90.3867" y1="263" y2="263"/></g><!--reverse link Property to ActuatableProperty--><g class="link" data-entity-1="ent0001" data-entity-2="ent0002" data-link-type="extension" data-source-line="1" id="lnk3"><path codeLine="1" d="M575.2535,65.5743 C550.8435,83.2943 531.82,97.11 507.37,114.86" fill="none" id="Property-backto-ActuatableProperty" style="stroke:#181818;stroke-width:1;"/><polygon fill="none" points="589.82,55,571.7287,60.7188,578.7782,70.4298,589.82,55" style="stroke:#181818;stroke-width:1;stroke-linejoin:miter;stroke-miterlimit:10;"/></g><!--reverse link Sample to MaterialSample--><g class="link" data-entity-1="ent0004" data-entity-2="ent0005" data-link-type="extension" data-source-line="2" id="lnk6"><path codeLine="2" d="M991.8567,64.4445 C963.1067,82.1645 938.85,97.11 910.05,114.86" fill="none" id="Sample-backto-MaterialSample" style="stroke:#181818;stroke-width:1;"/><polygon fill="none" points="1007.18,55,988.7086,59.3367,995.0049,69.5522,1007.18,55" style="stroke:#181818;stroke-width:1;stroke-linejoin:miter;stroke-miterlimit:10;"/></g><!--reverse link Sample to SpatialSample--><g class="link" data-entity-1="ent0004" data-entity-2="ent0007" data-link-type="extension" data-source-line="3" id="lnk8"><path codeLine="3" d="M1044.5,73 C1044.5,90.66 1044.5,96.94 1044.5,114.68" fill="none" id="Sample-backto-SpatialSample" style="stroke:#181818;stroke-width:1;"/><polygon fill="none" points="1044.5,55,1038.5,73,1050.5,73,1044.5,55" style="stroke:#181818;stroke-width:1;stroke-linejoin:miter;stroke-miterlimit:10;"/></g><!--reverse link Sample to StatisticalSample--><g class="link" data-entity-1="ent0004" data-entity-2="ent0009" data-link-type="extension" data-source-line="4" id="lnk10"><path codeLine="4" d="M1098.8276,64.1725 C1128.7476,81.8925 1154.45,97.11 1184.43,114.86" fill="none" id="Sample-backto-StatisticalSample" style="stroke:#181818;stroke-width:1;"/><polygon fill="none" points="1083.34,55,1095.7701,69.335,1101.8851,59.0099,1083.34,55" style="stroke:#181818;stroke-width:1;stroke-linejoin:miter;stroke-miterlimit:10;"/></g><!--reverse link Property to ObservableProperty--><g class="link" data-entity-1="ent0001" data-entity-2="ent0011" data-link-type="extension" data-source-line="5" id="lnk12"><path codeLine="5" d="M643.0544,70.7277 C652.8844,88.3877 657.65,96.94 667.52,114.68" fill="none" id="Property-backto-ObservableProperty" style="stroke:#181818;stroke-width:1;"/><polygon fill="none" points="634.3,55,637.8119,73.6458,648.297,67.8095,634.3,55" style="stroke:#181818;stroke-width:1;stroke-linejoin:miter;stroke-miterlimit:10;"/></g><!--reverse link Procedure to ActuatingProcedure--><g class="link" data-entity-1="ent0013" data-entity-2="ent0014" data-link-type="extension" data-source-line="6" id="lnk15"><path codeLine="6" d="M1568.3326,63.1732 C1533.5626,80.8932 1501.74,97.11 1466.9,114.86" fill="none" id="Procedure-backto-ActuatingProcedure" style="stroke:#181818;stroke-width:1;"/><polygon fill="none" points="1584.37,55,1565.6082,57.8274,1571.057,68.519,1584.37,55" style="stroke:#181818;stroke-width:1;stroke-linejoin:miter;stroke-miterlimit:10;"/></g><!--reverse link Procedure to ObservingProcedure--><g class="link" data-entity-1="ent0013" data-entity-2="ent0016" data-link-type="extension" data-source-line="7" id="lnk17"><path codeLine="7" d="M1629.5,73 C1629.5,90.66 1629.5,96.94 1629.5,114.68" fill="none" id="Procedure-backto-ObservingProcedure" style="stroke:#181818;stroke-width:1;"/><polygon fill="none" points="1629.5,55,1623.5,73,1635.5,73,1629.5,55" style="stroke:#181818;stroke-width:1;stroke-linejoin:miter;stroke-miterlimit:10;"/></g><!--reverse link Procedure to SamplingProcedure--><g class="link" data-entity-1="ent0013" data-entity-2="ent0018" data-link-type="extension" data-source-line="8" id="lnk19"><path codeLine="8" d="M1690.4411,63.205 C1725.0411,80.925 1756.65,97.11 1791.31,114.86" fill="none" id="Procedure-backto-SamplingProcedure" style="stroke:#181818;stroke-width:1;"/><polygon fill="none" points="1674.42,55,1687.7061,68.5454,1693.1762,57.8647,1674.42,55" style="stroke:#181818;stroke-width:1;stroke-linejoin:miter;stroke-miterlimit:10;"/></g><!--reverse link Asset to Platform--><g class="link" data-entity-1="ent0020" data-entity-2="ent0021" data-link-type="extension" data-source-line="9" id="lnk22"><path codeLine="9" d="M2040.2839,70.6022 C2030.1239,88.2622 2025.13,96.94 2014.92,114.68" fill="none" id="Asset-backto-Platform" style="stroke:#181818;stroke-width:1;"/><polygon fill="none" points="2049.26,55,2035.0831,67.6102,2045.4846,73.5943,2049.26,55" style="stroke:#181818;stroke-width:1;stroke-linejoin:miter;stroke-miterlimit:10;"/></g><!--reverse link System to Sampler--><g class="link" data-entity-1="ent0023" data-entity-2="ent0024" data-link-type="extension" data-source-line="10" id="lnk25"><path codeLine="10" d="M2083.3865,174.5884 C2062.3965,192.2484 2047.31,204.94 2026.22,222.68" fill="none" id="System-backto-Sampler" style="stroke:#181818;stroke-width:1;"/><polygon fill="none" points="2097.16,163,2079.5237,169.9972,2087.2493,179.1795,2097.16,163" style="stroke:#181818;stroke-width:1;stroke-linejoin:miter;stroke-miterlimit:10;"/></g><!--reverse link System to Actuator--><g class="link" data-entity-1="ent0023" data-entity-2="ent0026" data-link-type="extension" data-source-line="11" id="lnk27"><path codeLine="11" d="M2124.5,181 C2124.5,198.66 2124.5,204.94 2124.5,222.68" fill="none" id="System-backto-Actuator" style="stroke:#181818;stroke-width:1;"/><polygon fill="none" points="2124.5,163,2118.5,181,2130.5,181,2124.5,163" style="stroke:#181818;stroke-width:1;stroke-linejoin:miter;stroke-miterlimit:10;"/></g><!--reverse link Asset to System--><g class="link" data-entity-1="ent0020" data-entity-2="ent0023" data-link-type="extension" data-source-line="12" id="lnk28"><path codeLine="12" d="M2085.0383,70.5372 C2095.3683,88.1972 2100.48,96.94 2110.86,114.68" fill="none" id="Asset-backto-System" style="stroke:#181818;stroke-width:1;"/><polygon fill="none" points="2075.95,55,2079.8592,73.5666,2090.2173,67.5077,2075.95,55" style="stroke:#181818;stroke-width:1;stroke-linejoin:miter;stroke-miterlimit:10;"/></g><!--reverse link Execution to Sampling--><g class="link" data-entity-1="ent0029" data-entity-2="ent0030" data-link-type="extension" data-source-line="13" id="lnk31"><path codeLine="13" d="M2341.3041,66.1688 C2318.9841,83.8288 2302.41,96.94 2279.98,114.68" fill="none" id="Execution-backto-Sampling" style="stroke:#181818;stroke-width:1;"/><polygon fill="none" points="2355.42,55,2337.5812,61.4635,2345.027,70.8741,2355.42,55" style="stroke:#181818;stroke-width:1;stroke-linejoin:miter;stroke-miterlimit:10;"/></g><!--reverse link ExecutionCollection to SamplingCollection--><g class="link" data-entity-1="ent0032" data-entity-2="ent0033" data-link-type="extension" data-source-line="14" id="lnk34"><path codeLine="14" d="M2846.731,63.3636 C2812.961,81.0836 2782.43,97.11 2748.59,114.86" fill="none" id="ExecutionCollection-backto-SamplingCollection" style="stroke:#181818;stroke-width:1;"/><polygon fill="none" points="2862.67,55,2843.9432,58.0506,2849.5189,68.6766,2862.67,55" style="stroke:#181818;stroke-width:1;stroke-linejoin:miter;stroke-miterlimit:10;"/></g><!--reverse link Execution to Actuation--><g class="link" data-entity-1="ent0029" data-entity-2="ent0035" data-link-type="extension" data-source-line="15" id="lnk36"><path codeLine="15" d="M2384.5,73 C2384.5,90.66 2384.5,96.94 2384.5,114.68" fill="none" id="Execution-backto-Actuation" style="stroke:#181818;stroke-width:1;"/><polygon fill="none" points="2384.5,55,2378.5,73,2390.5,73,2384.5,55" style="stroke:#181818;stroke-width:1;stroke-linejoin:miter;stroke-miterlimit:10;"/></g><!--reverse link System to Sensor--><g class="link" data-entity-1="ent0023" data-entity-2="ent0037" data-link-type="extension" data-source-line="16" id="lnk38"><path codeLine="16" d="M2164.2968,174.864 C2184.4468,192.524 2198.63,204.94 2218.88,222.68" fill="none" id="System-backto-Sensor" style="stroke:#181818;stroke-width:1;"/><polygon fill="none" points="2150.76,163,2160.3421,179.3763,2168.2515,170.3518,2150.76,163" style="stroke:#181818;stroke-width:1;stroke-linejoin:miter;stroke-miterlimit:10;"/></g><!--reverse link ExecutionCollection to ActuationCollection--><g class="link" data-entity-1="ent0032" data-entity-2="ent0039" data-link-type="extension" data-source-line="17" id="lnk40"><path codeLine="17" d="M2906.5,73 C2906.5,90.66 2906.5,96.94 2906.5,114.68" fill="none" id="ExecutionCollection-backto-ActuationCollection" style="stroke:#181818;stroke-width:1;"/><polygon fill="none" points="2906.5,55,2900.5,73,2912.5,73,2906.5,55" style="stroke:#181818;stroke-width:1;stroke-linejoin:miter;stroke-miterlimit:10;"/></g><!--reverse link ExecutionCollection to ObservationCollection--><g class="link" data-entity-1="ent0032" data-entity-2="ent0041" data-link-type="extension" data-source-line="18" id="lnk42"><path codeLine="18" d="M2968.5997,63.0498 C3004.0397,80.7698 3036.72,97.11 3072.22,114.86" fill="none" id="ExecutionCollection-backto-ObservationCollection" style="stroke:#181818;stroke-width:1;"/><polygon fill="none" points="2952.5,55,2965.9164,68.4164,2971.283,57.6833,2952.5,55" style="stroke:#181818;stroke-width:1;stroke-linejoin:miter;stroke-miterlimit:10;"/></g><!--reverse link Execution to Observation--><g class="link" data-entity-1="ent0029" data-entity-2="ent0043" data-link-type="extension" data-source-line="19" id="lnk44"><path codeLine="19" d="M2429.9895,65.7202 C2453.8095,83.3802 2472.11,96.94 2496.04,114.68" fill="none" id="Execution-backto-Observation" style="stroke:#181818;stroke-width:1;"/><polygon fill="none" points="2415.53,55,2426.4161,70.54,2433.5629,60.9004,2415.53,55" style="stroke:#181818;stroke-width:1;stroke-linejoin:miter;stroke-miterlimit:10;"/></g><?plantuml-src VL99RiCm3Bpx5Vb0Vf1Bq2P03eMD-WMAoXG2g0KYLTH07byXL6tBgNeZPuP3YjGGVO38q-vmt-ztHyr9iReY30NlHcK3Wj1lYY4QXO9Lr1WKDnZE3B7HCpjKFVihGVogUkP0mqUAi9xAkCyPtoh4up_5etKbE1812pcWufkFjXidOh2h2eWL9fFuk2uMlZjzWqvilAlxBVYBHmJzh5ZmhKTvToQgkS1Hdg3fErVzPRmLb-Mtv4-YJgCYoZSrDc6YHlhOtCfFu3CepellRnUNln4G5_pYGlgDNo6Wdoou9Z1_4adxn4jrEOKaxq09-GS0?></g></svg>