<svg xmlns="http://www.w3.org/2000/svg" xmlns:xlink="http://www.w3.org/1999/xlink" contentStyleType="text/css" data-diagram-type="CLASS" height="286px" preserveAspectRatio="none" style="width:3325px;height:286px;background:#FFFFFF;" version="1.1" viewBox="0 0 3325 286" width="3325px" zoomAndPan="magnify"><?plantuml 1.2026.6?><defs/><g><!--class Property--><g class="entity" data-qualified-name="Property" data-source-line="1" id="ent0001"><rect fill="#F1F1F1" height="48" rx="2.5" ry="2.5" style="stroke:#181818;stroke-width:0.5;" width="91.7939" x="630" y="7"/><ellipse cx="645" cy="23" fill="#ADD1B2" rx="11" ry="11" style="stroke:#181818;stroke-width:1;"/><path d="M647.9688,28.6406 Q647.3906,28.9375 646.75,29.0781 Q646.1094,29.2344 645.4063,29.2344 Q642.9063,29.2344 641.5781,27.5938 Q640.2656,25.9375 640.2656,22.8125 Q640.2656,19.6875 641.5781,18.0313 Q642.9063,16.375 645.4063,16.375 Q646.1094,16.375 646.75,16.5313 Q647.4063,16.6875 647.9688,16.9844 L647.9688,19.7031 Q647.3438,19.125 646.75,18.8594 Q646.1563,18.5781 645.5313,18.5781 Q644.1875,18.5781 643.5,19.6563 Q642.8125,20.7188 642.8125,22.8125 Q642.8125,24.9063 643.5,25.9844 Q644.1875,27.0469 645.5313,27.0469 Q646.1563,27.0469 646.75,26.7813 Q647.3438,26.5 647.9688,25.9219 L647.9688,28.6406 Z " fill="#000000"/><text fill="#000000" font-family="sans-serif" font-size="14" lengthAdjust="spacing" textLength="59.7939" x="659" y="27.8467">Property</text><line style="stroke:#181818;stroke-width:0.5;" x1="631" x2="720.7939" y1="39" y2="39"/><line style="stroke:#181818;stroke-width:0.5;" x1="631" x2="720.7939" y1="47" y2="47"/></g><!--class ActuatableProperty--><g class="entity" data-qualified-name="ActuatableProperty" data-source-line="1" id="ent0002"><rect fill="#F1F1F1" height="48" rx="2.5" ry="2.5" style="stroke:#181818;stroke-width:0.5;" width="167.4678" x="490.5" y="115"/><ellipse cx="505.5" cy="131" fill="#ADD1B2" rx="11" ry="11" style="stroke:#181818;stroke-width:1;"/><path d="M508.4688,136.6406 Q507.8906,136.9375 507.25,137.0781 Q506.6094,137.2344 505.9063,137.2344 Q503.4063,137.2344 502.0781,135.5938 Q500.7656,133.9375 500.7656,130.8125 Q500.7656,127.6875 502.0781,126.0313 Q503.4063,124.375 505.9063,124.375 Q506.6094,124.375 507.25,124.5313 Q507.9063,124.6875 508.4688,124.9844 L508.4688,127.7031 Q507.8438,127.125 507.25,126.8594 Q506.6563,126.5781 506.0313,126.5781 Q504.6875,126.5781 504,127.6563 Q503.3125,128.7188 503.3125,130.8125 Q503.3125,132.9063 504,133.9844 Q504.6875,135.0469 506.0313,135.0469 Q506.6563,135.0469 507.25,134.7813 Q507.8438,134.5 508.4688,133.9219 L508.4688,136.6406 Z " fill="#000000"/><text fill="#000000" font-family="sans-serif" font-size="14" lengthAdjust="spacing" textLength="135.4678" x="519.5" y="135.8467">ActuatableProperty</text><line style="stroke:#181818;stroke-width:0.5;" x1="491.5" x2="656.9678" y1="147" y2="147"/><line style="stroke:#181818;stroke-width:0.5;" x1="491.5" x2="656.9678" y1="155" y2="155"/></g><!--class Sample--><g class="entity" data-qualified-name="Sample" data-source-line="2" id="ent0004"><rect fill="#F1F1F1" height="48" rx="2.5" ry="2.5" style="stroke:#181818;stroke-width:0.5;" width="84.4932" x="1101" y="7"/><ellipse cx="1116" cy="23" fill="#ADD1B2" rx="11" ry="11" style="stroke:#181818;stroke-width:1;"/><path d="M1118.9688,28.6406 Q1118.3906,28.9375 1117.75,29.0781 Q1117.1094,29.2344 1116.4063,29.2344 Q1113.9063,29.2344 1112.5781,27.5938 Q1111.2656,25.9375 1111.2656,22.8125 Q1111.2656,19.6875 1112.5781,18.0313 Q1113.9063,16.375 1116.4063,16.375 Q1117.1094,16.375 1117.75,16.5313 Q1118.4063,16.6875 1118.9688,16.9844 L1118.9688,19.7031 Q1118.3438,19.125 1117.75,18.8594 Q1117.1563,18.5781 1116.5313,18.5781 Q1115.1875,18.5781 1114.5,19.6563 Q1113.8125,20.7188 1113.8125,22.8125 Q1113.8125,24.9063 1114.5,25.9844 Q1115.1875,27.0469 1116.5313,27.0469 Q1117.1563,27.0469 1117.75,26.7813 Q1118.3438,26.5 1118.9688,25.9219 L1118.9688,28.6406 Z " fill="#000000"/><text fill="#000000" font-family="sans-serif" font-size="14" lengthAdjust="spacing" textLength="52.4932" x="1130" y="27.8467">Sample</text><line style="stroke:#181818;stroke-width:0.5;" x1="1102" x2="1184.4932" y1="39" y2="39"/><line style="stroke:#181818;stroke-width:0.5;" x1="1102" x2="1184.4932" y1="47" y2="47"/></g><!--class MaterialSample--><g class="entity" data-qualified-name="MaterialSample" data-source-line="2" id="ent0005"><rect fill="#F1F1F1" height="48" rx="2.5" ry="2.5" style="stroke:#181818;stroke-width:0.5;" width="141.3682" x="900.5" y="115"/><ellipse cx="915.5" cy="131" fill="#ADD1B2" rx="11" ry="11" style="stroke:#181818;stroke-width:1;"/><path d="M918.4688,136.6406 Q917.8906,136.9375 917.25,137.0781 Q916.6094,137.2344 915.9063,137.2344 Q913.4063,137.2344 912.0781,135.5938 Q910.7656,133.9375 910.7656,130.8125 Q910.7656,127.6875 912.0781,126.0313 Q913.4063,124.375 915.9063,124.375 Q916.6094,124.375 917.25,124.5313 Q917.9063,124.6875 918.4688,124.9844 L918.4688,127.7031 Q917.8438,127.125 917.25,126.8594 Q916.6563,126.5781 916.0313,126.5781 Q914.6875,126.5781 914,127.6563 Q913.3125,128.7188 913.3125,130.8125 Q913.3125,132.9063 914,133.9844 Q914.6875,135.0469 916.0313,135.0469 Q916.6563,135.0469 917.25,134.7813 Q917.8438,134.5 918.4688,133.9219 L918.4688,136.6406 Z " fill="#000000"/><text fill="#000000" font-family="sans-serif" font-size="14" lengthAdjust="spacing" textLength="109.3682" x="929.5" y="135.8467">MaterialSample</text><line style="stroke:#181818;stroke-width:0.5;" x1="901.5" x2="1040.8682" y1="147" y2="147"/><line style="stroke:#181818;stroke-width:0.5;" x1="901.5" x2="1040.8682" y1="155" y2="155"/></g><!--class SpatialSample--><g class="entity" data-qualified-name="SpatialSample" data-source-line="3" id="ent0007"><rect fill="#F1F1F1" height="48" rx="2.5" ry="2.5" style="stroke:#181818;stroke-width:0.5;" width="132.6934" x="1076.5" y="115"/><ellipse cx="1091.5" cy="131" fill="#ADD1B2" rx="11" ry="11" style="stroke:#181818;stroke-width:1;"/><path d="M1094.4688,136.6406 Q1093.8906,136.9375 1093.25,137.0781 Q1092.6094,137.2344 1091.9063,137.2344 Q1089.4063,137.2344 1088.0781,135.5938 Q1086.7656,133.9375 1086.7656,130.8125 Q1086.7656,127.6875 1088.0781,126.0313 Q1089.4063,124.375 1091.9063,124.375 Q1092.6094,124.375 1093.25,124.5313 Q1093.9063,124.6875 1094.4688,124.9844 L1094.4688,127.7031 Q1093.8438,127.125 1093.25,126.8594 Q1092.6563,126.5781 1092.0313,126.5781 Q1090.6875,126.5781 1090,127.6563 Q1089.3125,128.7188 1089.3125,130.8125 Q1089.3125,132.9063 1090,133.9844 Q1090.6875,135.0469 1092.0313,135.0469 Q1092.6563,135.0469 1093.25,134.7813 Q1093.8438,134.5 1094.4688,133.9219 L1094.4688,136.6406 Z " fill="#000000"/><text fill="#000000" font-family="sans-serif" font-size="14" lengthAdjust="spacing" textLength="100.6934" x="1105.5" y="135.8467">SpatialSample</text><line style="stroke:#181818;stroke-width:0.5;" x1="1077.5" x2="1208.1934" y1="147" y2="147"/><line style="stroke:#181818;stroke-width:0.5;" x1="1077.5" x2="1208.1934" y1="155" y2="155"/></g><!--class StatisticalSample--><g class="entity" data-qualified-name="StatisticalSample" data-source-line="4" id="ent0009"><rect fill="#F1F1F1" height="48" rx="2.5" ry="2.5" style="stroke:#181818;stroke-width:0.5;" width="153.666" x="1245" y="115"/><ellipse cx="1260" cy="131" fill="#ADD1B2" rx="11" ry="11" style="stroke:#181818;stroke-width:1;"/><path d="M1262.9688,136.6406 Q1262.3906,136.9375 1261.75,137.0781 Q1261.1094,137.2344 1260.4063,137.2344 Q1257.9063,137.2344 1256.5781,135.5938 Q1255.2656,133.9375 1255.2656,130.8125 Q1255.2656,127.6875 1256.5781,126.0313 Q1257.9063,124.375 1260.4063,124.375 Q1261.1094,124.375 1261.75,124.5313 Q1262.4063,124.6875 1262.9688,124.9844 L1262.9688,127.7031 Q1262.3438,127.125 1261.75,126.8594 Q1261.1563,126.5781 1260.5313,126.5781 Q1259.1875,126.5781 1258.5,127.6563 Q1257.8125,128.7188 1257.8125,130.8125 Q1257.8125,132.9063 1258.5,133.9844 Q1259.1875,135.0469 1260.5313,135.0469 Q1261.1563,135.0469 1261.75,134.7813 Q1262.3438,134.5 1262.9688,133.9219 L1262.9688,136.6406 Z " fill="#000000"/><text fill="#000000" font-family="sans-serif" font-size="14" lengthAdjust="spacing" textLength="121.666" x="1274" y="135.8467">StatisticalSample</text><line style="stroke:#181818;stroke-width:0.5;" x1="1246" x2="1397.666" y1="147" y2="147"/><line style="stroke:#181818;stroke-width:0.5;" x1="1246" x2="1397.666" y1="155" y2="155"/></g><!--class ObservableProperty--><g class="entity" data-qualified-name="ObservableProperty" data-source-line="5" id="ent0011"><rect fill="#F1F1F1" height="48" rx="2.5" ry="2.5" style="stroke:#181818;stroke-width:0.5;" width="171.6172" x="693" y="115"/><ellipse cx="708" cy="131" fill="#ADD1B2" rx="11" ry="11" style="stroke:#181818;stroke-width:1;"/><path d="M710.9688,136.6406 Q710.3906,136.9375 709.75,137.0781 Q709.1094,137.2344 708.4063,137.2344 Q705.9063,137.2344 704.5781,135.5938 Q703.2656,133.9375 703.2656,130.8125 Q703.2656,127.6875 704.5781,126.0313 Q705.9063,124.375 708.4063,124.375 Q709.1094,124.375 709.75,124.5313 Q710.4063,124.6875 710.9688,124.9844 L710.9688,127.7031 Q710.3438,127.125 709.75,126.8594 Q709.1563,126.5781 708.5313,126.5781 Q707.1875,126.5781 706.5,127.6563 Q705.8125,128.7188 705.8125,130.8125 Q705.8125,132.9063 706.5,133.9844 Q707.1875,135.0469 708.5313,135.0469 Q709.1563,135.0469 709.75,134.7813 Q710.3438,134.5 710.9688,133.9219 L710.9688,136.6406 Z " fill="#000000"/><text fill="#000000" font-family="sans-serif" font-size="14" lengthAdjust="spacing" textLength="139.6172" x="722" y="135.8467">ObservableProperty</text><line style="stroke:#181818;stroke-width:0.5;" x1="694" x2="863.6172" y1="147" y2="147"/><line style="stroke:#181818;stroke-width:0.5;" x1="694" x2="863.6172" y1="155" y2="155"/></g><!--class Procedure--><g class="entity" data-qualified-name="Procedure" data-source-line="6" id="ent0013"><rect fill="#F1F1F1" height="48" rx="2.5" ry="2.5" style="stroke:#181818;stroke-width:0.5;" width="103.2031" x="1676.5" y="7"/><ellipse cx="1691.5" cy="23" fill="#ADD1B2" rx="11" ry="11" style="stroke:#181818;stroke-width:1;"/><path d="M1694.4688,28.6406 Q1693.8906,28.9375 1693.25,29.0781 Q1692.6094,29.2344 1691.9063,29.2344 Q1689.4063,29.2344 1688.0781,27.5938 Q1686.7656,25.9375 1686.7656,22.8125 Q1686.7656,19.6875 1688.0781,18.0313 Q1689.4063,16.375 1691.9063,16.375 Q1692.6094,16.375 1693.25,16.5313 Q1693.9063,16.6875 1694.4688,16.9844 L1694.4688,19.7031 Q1693.8438,19.125 1693.25,18.8594 Q1692.6563,18.5781 1692.0313,18.5781 Q1690.6875,18.5781 1690,19.6563 Q1689.3125,20.7188 1689.3125,22.8125 Q1689.3125,24.9063 1690,25.9844 Q1690.6875,27.0469 1692.0313,27.0469 Q1692.6563,27.0469 1693.25,26.7813 Q1693.8438,26.5 1694.4688,25.9219 L1694.4688,28.6406 Z " fill="#000000"/><text fill="#000000" font-family="sans-serif" font-size="14" lengthAdjust="spacing" textLength="71.2031" x="1705.5" y="27.8467">Procedure</text><line style="stroke:#181818;stroke-width:0.5;" x1="1677.5" x2="1778.7031" y1="39" y2="39"/><line style="stroke:#181818;stroke-width:0.5;" x1="1677.5" x2="1778.7031" y1="47" y2="47"/></g><!--class ActuatingProcedure--><g class="entity" data-qualified-name="ActuatingProcedure" data-source-line="6" id="ent0014"><rect fill="#F1F1F1" height="48" rx="2.5" ry="2.5" style="stroke:#181818;stroke-width:0.5;" width="170.5576" x="1434.5" y="115"/><ellipse cx="1449.5" cy="131" fill="#ADD1B2" rx="11" ry="11" style="stroke:#181818;stroke-width:1;"/><path d="M1452.4688,136.6406 Q1451.8906,136.9375 1451.25,137.0781 Q1450.6094,137.2344 1449.9063,137.2344 Q1447.4063,137.2344 1446.0781,135.5938 Q1444.7656,133.9375 1444.7656,130.8125 Q1444.7656,127.6875 1446.0781,126.0313 Q1447.4063,124.375 1449.9063,124.375 Q1450.6094,124.375 1451.25,124.5313 Q1451.9063,124.6875 1452.4688,124.9844 L1452.4688,127.7031 Q1451.8438,127.125 1451.25,126.8594 Q1450.6563,126.5781 1450.0313,126.5781 Q1448.6875,126.5781 1448,127.6563 Q1447.3125,128.7188 1447.3125,130.8125 Q1447.3125,132.9063 1448,133.9844 Q1448.6875,135.0469 1450.0313,135.0469 Q1450.6563,135.0469 1451.25,134.7813 Q1451.8438,134.5 1452.4688,133.9219 L1452.4688,136.6406 Z " fill="#000000"/><text fill="#000000" font-family="sans-serif" font-size="14" lengthAdjust="spacing" textLength="138.5576" x="1463.5" y="135.8467">ActuatingProcedure</text><line style="stroke:#181818;stroke-width:0.5;" x1="1435.5" x2="1604.0576" y1="147" y2="147"/><line style="stroke:#181818;stroke-width:0.5;" x1="1435.5" x2="1604.0576" y1="155" y2="155"/></g><!--class ObservingProcedure--><g class="entity" data-qualified-name="ObservingProcedure" data-source-line="7" id="ent0016"><rect fill="#F1F1F1" height="48" rx="2.5" ry="2.5" style="stroke:#181818;stroke-width:0.5;" width="174.707" x="1640.5" y="115"/><ellipse cx="1655.5" cy="131" fill="#ADD1B2" rx="11" ry="11" style="stroke:#181818;stroke-width:1;"/><path d="M1658.4688,136.6406 Q1657.8906,136.9375 1657.25,137.0781 Q1656.6094,137.2344 1655.9063,137.2344 Q1653.4063,137.2344 1652.0781,135.5938 Q1650.7656,133.9375 1650.7656,130.8125 Q1650.7656,127.6875 1652.0781,126.0313 Q1653.4063,124.375 1655.9063,124.375 Q1656.6094,124.375 1657.25,124.5313 Q1657.9063,124.6875 1658.4688,124.9844 L1658.4688,127.7031 Q1657.8438,127.125 1657.25,126.8594 Q1656.6563,126.5781 1656.0313,126.5781 Q1654.6875,126.5781 1654,127.6563 Q1653.3125,128.7188 1653.3125,130.8125 Q1653.3125,132.9063 1654,133.9844 Q1654.6875,135.0469 1656.0313,135.0469 Q1656.6563,135.0469 1657.25,134.7813 Q1657.8438,134.5 1658.4688,133.9219 L1658.4688,136.6406 Z " fill="#000000"/><text fill="#000000" font-family="sans-serif" font-size="14" lengthAdjust="spacing" textLength="142.707" x="1669.5" y="135.8467">ObservingProcedure</text><line style="stroke:#181818;stroke-width:0.5;" x1="1641.5" x2="1814.207" y1="147" y2="147"/><line style="stroke:#181818;stroke-width:0.5;" x1="1641.5" x2="1814.207" y1="155" y2="155"/></g><!--class SamplingProcedure--><g class="entity" data-qualified-name="SamplingProcedure" data-source-line="8" id="ent0018"><rect fill="#F1F1F1" height="48" rx="2.5" ry="2.5" style="stroke:#181818;stroke-width:0.5;" width="168.7324" x="1850.5" y="115"/><ellipse cx="1865.5" cy="131" fill="#ADD1B2" rx="11" ry="11" style="stroke:#181818;stroke-width:1;"/><path d="M1868.4688,136.6406 Q1867.8906,136.9375 1867.25,137.0781 Q1866.6094,137.2344 1865.9063,137.2344 Q1863.4063,137.2344 1862.0781,135.5938 Q1860.7656,133.9375 1860.7656,130.8125 Q1860.7656,127.6875 1862.0781,126.0313 Q1863.4063,124.375 1865.9063,124.375 Q1866.6094,124.375 1867.25,124.5313 Q1867.9063,124.6875 1868.4688,124.9844 L1868.4688,127.7031 Q1867.8438,127.125 1867.25,126.8594 Q1866.6563,126.5781 1866.0313,126.5781 Q1864.6875,126.5781 1864,127.6563 Q1863.3125,128.7188 1863.3125,130.8125 Q1863.3125,132.9063 1864,133.9844 Q1864.6875,135.0469 1866.0313,135.0469 Q1866.6563,135.0469 1867.25,134.7813 Q1867.8438,134.5 1868.4688,133.9219 L1868.4688,136.6406 Z " fill="#000000"/><text fill="#000000" font-family="sans-serif" font-size="14" lengthAdjust="spacing" textLength="136.7324" x="1879.5" y="135.8467">SamplingProcedure</text><line style="stroke:#181818;stroke-width:0.5;" x1="1851.5" x2="2018.2324" y1="147" y2="147"/><line style="stroke:#181818;stroke-width:0.5;" x1="1851.5" x2="2018.2324" y1="155" y2="155"/></g><!--class Asset--><g class="entity" data-qualified-name="Asset" data-source-line="9" id="ent0020"><rect fill="#F1F1F1" height="48" rx="2.5" ry="2.5" style="stroke:#181818;stroke-width:0.5;" width="70.2676" x="2126" y="7"/><ellipse cx="2141" cy="23" fill="#ADD1B2" rx="11" ry="11" style="stroke:#181818;stroke-width:1;"/><path d="M2143.9688,28.6406 Q2143.3906,28.9375 2142.75,29.0781 Q2142.1094,29.2344 2141.4063,29.2344 Q2138.9063,29.2344 2137.5781,27.5938 Q2136.2656,25.9375 2136.2656,22.8125 Q2136.2656,19.6875 2137.5781,18.0313 Q2138.9063,16.375 2141.4063,16.375 Q2142.1094,16.375 2142.75,16.5313 Q2143.4063,16.6875 2143.9688,16.9844 L2143.9688,19.7031 Q2143.3438,19.125 2142.75,18.8594 Q2142.1563,18.5781 2141.5313,18.5781 Q2140.1875,18.5781 2139.5,19.6563 Q2138.8125,20.7188 2138.8125,22.8125 Q2138.8125,24.9063 2139.5,25.9844 Q2140.1875,27.0469 2141.5313,27.0469 Q2142.1563,27.0469 2142.75,26.7813 Q2143.3438,26.5 2143.9688,25.9219 L2143.9688,28.6406 Z " fill="#000000"/><text fill="#000000" font-family="sans-serif" font-size="14" lengthAdjust="spacing" textLength="38.2676" x="2155" y="27.8467">Asset</text><line style="stroke:#181818;stroke-width:0.5;" x1="2127" x2="2195.2676" y1="39" y2="39"/><line style="stroke:#181818;stroke-width:0.5;" x1="2127" x2="2195.2676" y1="47" y2="47"/></g><!--class Platform--><g class="entity" data-qualified-name="Platform" data-source-line="9" id="ent0021"><rect fill="#F1F1F1" height="48" rx="2.5" ry="2.5" style="stroke:#181818;stroke-width:0.5;" width="91.2881" x="2054.5" y="115"/><ellipse cx="2069.5" cy="131" fill="#ADD1B2" rx="11" ry="11" style="stroke:#181818;stroke-width:1;"/><path d="M2072.4688,136.6406 Q2071.8906,136.9375 2071.25,137.0781 Q2070.6094,137.2344 2069.9063,137.2344 Q2067.4063,137.2344 2066.0781,135.5938 Q2064.7656,133.9375 2064.7656,130.8125 Q2064.7656,127.6875 2066.0781,126.0313 Q2067.4063,124.375 2069.9063,124.375 Q2070.6094,124.375 2071.25,124.5313 Q2071.9063,124.6875 2072.4688,124.9844 L2072.4688,127.7031 Q2071.8438,127.125 2071.25,126.8594 Q2070.6563,126.5781 2070.0313,126.5781 Q2068.6875,126.5781 2068,127.6563 Q2067.3125,128.7188 2067.3125,130.8125 Q2067.3125,132.9063 2068,133.9844 Q2068.6875,135.0469 2070.0313,135.0469 Q2070.6563,135.0469 2071.25,134.7813 Q2071.8438,134.5 2072.4688,133.9219 L2072.4688,136.6406 Z " fill="#000000"/><text fill="#000000" font-family="sans-serif" font-size="14" lengthAdjust="spacing" textLength="59.2881" x="2083.5" y="135.8467">Platform</text><line style="stroke:#181818;stroke-width:0.5;" x1="2055.5" x2="2144.7881" y1="147" y2="147"/><line style="stroke:#181818;stroke-width:0.5;" x1="2055.5" x2="2144.7881" y1="155" y2="155"/></g><!--class System--><g class="entity" data-qualified-name="System" data-source-line="10" id="ent0023"><rect fill="#F1F1F1" height="48" rx="2.5" ry="2.5" style="stroke:#181818;stroke-width:0.5;" width="84.2061" x="2181" y="115"/><ellipse cx="2196" cy="131" fill="#ADD1B2" rx="11" ry="11" style="stroke:#181818;stroke-width:1;"/><path d="M2198.9688,136.6406 Q2198.3906,136.9375 2197.75,137.0781 Q2197.1094,137.2344 2196.4063,137.2344 Q2193.9063,137.2344 2192.5781,135.5938 Q2191.2656,133.9375 2191.2656,130.8125 Q2191.2656,127.6875 2192.5781,126.0313 Q2193.9063,124.375 2196.4063,124.375 Q2197.1094,124.375 2197.75,124.5313 Q2198.4063,124.6875 2198.9688,124.9844 L2198.9688,127.7031 Q2198.3438,127.125 2197.75,126.8594 Q2197.1563,126.5781 2196.5313,126.5781 Q2195.1875,126.5781 2194.5,127.6563 Q2193.8125,128.7188 2193.8125,130.8125 Q2193.8125,132.9063 2194.5,133.9844 Q2195.1875,135.0469 2196.5313,135.0469 Q2197.1563,135.0469 2197.75,134.7813 Q2198.3438,134.5 2198.9688,133.9219 L2198.9688,136.6406 Z " fill="#000000"/><text fill="#000000" font-family="sans-serif" font-size="14" lengthAdjust="spacing" textLength="52.2061" x="2210" y="135.8467">System</text><line style="stroke:#181818;stroke-width:0.5;" x1="2182" x2="2264.2061" y1="147" y2="147"/><line style="stroke:#181818;stroke-width:0.5;" x1="2182" x2="2264.2061" y1="155" y2="155"/></g><!--class Sampler--><g class="entity" data-qualified-name="Sampler" data-source-line="10" id="ent0024"><rect fill="#F1F1F1" height="48" rx="2.5" ry="2.5" style="stroke:#181818;stroke-width:0.5;" width="90.249" x="2052" y="223"/><ellipse cx="2067" cy="239" fill="#ADD1B2" rx="11" ry="11" style="stroke:#181818;stroke-width:1;"/><path d="M2069.9688,244.6406 Q2069.3906,244.9375 2068.75,245.0781 Q2068.1094,245.2344 2067.4063,245.2344 Q2064.9063,245.2344 2063.5781,243.5938 Q2062.2656,241.9375 2062.2656,238.8125 Q2062.2656,235.6875 2063.5781,234.0313 Q2064.9063,232.375 2067.4063,232.375 Q2068.1094,232.375 2068.75,232.5313 Q2069.4063,232.6875 2069.9688,232.9844 L2069.9688,235.7031 Q2069.3438,235.125 2068.75,234.8594 Q2068.1563,234.5781 2067.5313,234.5781 Q2066.1875,234.5781 2065.5,235.6563 Q2064.8125,236.7188 2064.8125,238.8125 Q2064.8125,240.9063 2065.5,241.9844 Q2066.1875,243.0469 2067.5313,243.0469 Q2068.1563,243.0469 2068.75,242.7813 Q2069.3438,242.5 2069.9688,241.9219 L2069.9688,244.6406 Z " fill="#000000"/><text fill="#000000" font-family="sans-serif" font-size="14" lengthAdjust="spacing" textLength="58.249" x="2081" y="243.8467">Sampler</text><line style="stroke:#181818;stroke-width:0.5;" x1="2053" x2="2141.249" y1="255" y2="255"/><line style="stroke:#181818;stroke-width:0.5;" x1="2053" x2="2141.249" y1="263" y2="263"/></g><!--class Actuator--><g class="entity" data-qualified-name="Actuator" data-source-line="11" id="ent0026"><rect fill="#F1F1F1" height="48" rx="2.5" ry="2.5" style="stroke:#181818;stroke-width:0.5;" width="92.0264" x="2177" y="223"/><ellipse cx="2192" cy="239" fill="#ADD1B2" rx="11" ry="11" style="stroke:#181818;stroke-width:1;"/><path d="M2194.9688,244.6406 Q2194.3906,244.9375 2193.75,245.0781 Q2193.1094,245.2344 2192.4063,245.2344 Q2189.9063,245.2344 2188.5781,243.5938 Q2187.2656,241.9375 2187.2656,238.8125 Q2187.2656,235.6875 2188.5781,234.0313 Q2189.9063,232.375 2192.4063,232.375 Q2193.1094,232.375 2193.75,232.5313 Q2194.4063,232.6875 2194.9688,232.9844 L2194.9688,235.7031 Q2194.3438,235.125 2193.75,234.8594 Q2193.1563,234.5781 2192.5313,234.5781 Q2191.1875,234.5781 2190.5,235.6563 Q2189.8125,236.7188 2189.8125,238.8125 Q2189.8125,240.9063 2190.5,241.9844 Q2191.1875,243.0469 2192.5313,243.0469 Q2193.1563,243.0469 2193.75,242.7813 Q2194.3438,242.5 2194.9688,241.9219 L2194.9688,244.6406 Z " fill="#000000"/><text fill="#000000" font-family="sans-serif" font-size="14" lengthAdjust="spacing" textLength="60.0264" x="2206" y="243.8467">Actuator</text><line style="stroke:#181818;stroke-width:0.5;" x1="2178" x2="2268.0264" y1="255" y2="255"/><line style="stroke:#181818;stroke-width:0.5;" x1="2178" x2="2268.0264" y1="263" y2="263"/></g><!--class Execution--><g class="entity" data-qualified-name="Execution" data-source-line="13" id="ent0029"><rect fill="#F1F1F1" height="48" rx="2.5" ry="2.5" style="stroke:#181818;stroke-width:0.5;" width="101.1318" x="2432.5" y="7"/><ellipse cx="2447.5" cy="23" fill="#ADD1B2" rx="11" ry="11" style="stroke:#181818;stroke-width:1;"/><path d="M2450.4688,28.6406 Q2449.8906,28.9375 2449.25,29.0781 Q2448.6094,29.2344 2447.9063,29.2344 Q2445.4063,29.2344 2444.0781,27.5938 Q2442.7656,25.9375 2442.7656,22.8125 Q2442.7656,19.6875 2444.0781,18.0313 Q2445.4063,16.375 2447.9063,16.375 Q2448.6094,16.375 2449.25,16.5313 Q2449.9063,16.6875 2450.4688,16.9844 L2450.4688,19.7031 Q2449.8438,19.125 2449.25,18.8594 Q2448.6563,18.5781 2448.0313,18.5781 Q2446.6875,18.5781 2446,19.6563 Q2445.3125,20.7188 2445.3125,22.8125 Q2445.3125,24.9063 2446,25.9844 Q2446.6875,27.0469 2448.0313,27.0469 Q2448.6563,27.0469 2449.25,26.7813 Q2449.8438,26.5 2450.4688,25.9219 L2450.4688,28.6406 Z " fill="#000000"/><text fill="#000000" font-family="sans-serif" font-size="14" lengthAdjust="spacing" textLength="69.1318" x="2461.5" y="27.8467">Execution</text><line style="stroke:#181818;stroke-width:0.5;" x1="2433.5" x2="2532.6318" y1="39" y2="39"/><line style="stroke:#181818;stroke-width:0.5;" x1="2433.5" x2="2532.6318" y1="47" y2="47"/></g><!--class Sampling--><g class="entity" data-qualified-name="Sampling" data-source-line="13" id="ent0030"><rect fill="#F1F1F1" height="48" rx="2.5" ry="2.5" style="stroke:#181818;stroke-width:0.5;" width="97.5293" x="2300" y="115"/><ellipse cx="2315" cy="131" fill="#ADD1B2" rx="11" ry="11" style="stroke:#181818;stroke-width:1;"/><path d="M2317.9688,136.6406 Q2317.3906,136.9375 2316.75,137.0781 Q2316.1094,137.2344 2315.4063,137.2344 Q2312.9063,137.2344 2311.5781,135.5938 Q2310.2656,133.9375 2310.2656,130.8125 Q2310.2656,127.6875 2311.5781,126.0313 Q2312.9063,124.375 2315.4063,124.375 Q2316.1094,124.375 2316.75,124.5313 Q2317.4063,124.6875 2317.9688,124.9844 L2317.9688,127.7031 Q2317.3438,127.125 2316.75,126.8594 Q2316.1563,126.5781 2315.5313,126.5781 Q2314.1875,126.5781 2313.5,127.6563 Q2312.8125,128.7188 2312.8125,130.8125 Q2312.8125,132.9063 2313.5,133.9844 Q2314.1875,135.0469 2315.5313,135.0469 Q2316.1563,135.0469 2316.75,134.7813 Q2317.3438,134.5 2317.9688,133.9219 L2317.9688,136.6406 Z " fill="#000000"/><text fill="#000000" font-family="sans-serif" font-size="14" lengthAdjust="spacing" textLength="65.5293" x="2329" y="135.8467">Sampling</text><line style="stroke:#181818;stroke-width:0.5;" x1="2301" x2="2396.5293" y1="147" y2="147"/><line style="stroke:#181818;stroke-width:0.5;" x1="2301" x2="2396.5293" y1="155" y2="155"/></g><!--class ExecutionCollection--><g class="entity" data-qualified-name="ExecutionCollection" data-source-line="14" id="ent0032"><rect fill="#F1F1F1" height="48" rx="2.5" ry="2.5" style="stroke:#181818;stroke-width:0.5;" width="170.3799" x="2920" y="7"/><ellipse cx="2935" cy="23" fill="#ADD1B2" rx="11" ry="11" style="stroke:#181818;stroke-width:1;"/><path d="M2937.9688,28.6406 Q2937.3906,28.9375 2936.75,29.0781 Q2936.1094,29.2344 2935.4063,29.2344 Q2932.9063,29.2344 2931.5781,27.5938 Q2930.2656,25.9375 2930.2656,22.8125 Q2930.2656,19.6875 2931.5781,18.0313 Q2932.9063,16.375 2935.4063,16.375 Q2936.1094,16.375 2936.75,16.5313 Q2937.4063,16.6875 2937.9688,16.9844 L2937.9688,19.7031 Q2937.3438,19.125 2936.75,18.8594 Q2936.1563,18.5781 2935.5313,18.5781 Q2934.1875,18.5781 2933.5,19.6563 Q2932.8125,20.7188 2932.8125,22.8125 Q2932.8125,24.9063 2933.5,25.9844 Q2934.1875,27.0469 2935.5313,27.0469 Q2936.1563,27.0469 2936.75,26.7813 Q2937.3438,26.5 2937.9688,25.9219 L2937.9688,28.6406 Z " fill="#000000"/><text fill="#000000" font-family="sans-serif" font-size="14" lengthAdjust="spacing" textLength="138.3799" x="2949" y="27.8467">ExecutionCollection</text><line style="stroke:#181818;stroke-width:0.5;" x1="2921" x2="3089.3799" y1="39" y2="39"/><line style="stroke:#181818;stroke-width:0.5;" x1="2921" x2="3089.3799" y1="47" y2="47"/></g><!--class SamplingCollection--><g class="entity" data-qualified-name="SamplingCollection" data-source-line="14" id="ent0033"><rect fill="#F1F1F1" height="48" rx="2.5" ry="2.5" style="stroke:#181818;stroke-width:0.5;" width="166.7773" x="2719.5" y="115"/><ellipse cx="2734.5" cy="131" fill="#ADD1B2" rx="11" ry="11" style="stroke:#181818;stroke-width:1;"/><path d="M2737.4688,136.6406 Q2736.8906,136.9375 2736.25,137.0781 Q2735.6094,137.2344 2734.9063,137.2344 Q2732.4063,137.2344 2731.0781,135.5938 Q2729.7656,133.9375 2729.7656,130.8125 Q2729.7656,127.6875 2731.0781,126.0313 Q2732.4063,124.375 2734.9063,124.375 Q2735.6094,124.375 2736.25,124.5313 Q2736.9063,124.6875 2737.4688,124.9844 L2737.4688,127.7031 Q2736.8438,127.125 2736.25,126.8594 Q2735.6563,126.5781 2735.0313,126.5781 Q2733.6875,126.5781 2733,127.6563 Q2732.3125,128.7188 2732.3125,130.8125 Q2732.3125,132.9063 2733,133.9844 Q2733.6875,135.0469 2735.0313,135.0469 Q2735.6563,135.0469 2736.25,134.7813 Q2736.8438,134.5 2737.4688,133.9219 L2737.4688,136.6406 Z " fill="#000000"/><text fill="#000000" font-family="sans-serif" font-size="14" lengthAdjust="spacing" textLength="134.7773" x="2748.5" y="135.8467">SamplingCollection</text><line style="stroke:#181818;stroke-width:0.5;" x1="2720.5" x2="2885.2773" y1="147" y2="147"/><line style="stroke:#181818;stroke-width:0.5;" x1="2720.5" x2="2885.2773" y1="155" y2="155"/></g><!--class Actuation--><g class="entity" data-qualified-name="Actuation" data-source-line="15" id="ent0035"><rect fill="#F1F1F1" height="48" rx="2.5" ry="2.5" style="stroke:#181818;stroke-width:0.5;" width="99.0332" x="2433.5" y="115"/><ellipse cx="2448.5" cy="131" fill="#ADD1B2" rx="11" ry="11" style="stroke:#181818;stroke-width:1;"/><path d="M2451.4688,136.6406 Q2450.8906,136.9375 2450.25,137.0781 Q2449.6094,137.2344 2448.9063,137.2344 Q2446.4063,137.2344 2445.0781,135.5938 Q2443.7656,133.9375 2443.7656,130.8125 Q2443.7656,127.6875 2445.0781,126.0313 Q2446.4063,124.375 2448.9063,124.375 Q2449.6094,124.375 2450.25,124.5313 Q2450.9063,124.6875 2451.4688,124.9844 L2451.4688,127.7031 Q2450.8438,127.125 2450.25,126.8594 Q2449.6563,126.5781 2449.0313,126.5781 Q2447.6875,126.5781 2447,127.6563 Q2446.3125,128.7188 2446.3125,130.8125 Q2446.3125,132.9063 2447,133.9844 Q2447.6875,135.0469 2449.0313,135.0469 Q2449.6563,135.0469 2450.25,134.7813 Q2450.8438,134.5 2451.4688,133.9219 L2451.4688,136.6406 Z " fill="#000000"/><text fill="#000000" font-family="sans-serif" font-size="14" lengthAdjust="spacing" textLength="67.0332" x="2462.5" y="135.8467">Actuation</text><line style="stroke:#181818;stroke-width:0.5;" x1="2434.5" x2="2531.5332" y1="147" y2="147"/><line style="stroke:#181818;stroke-width:0.5;" x1="2434.5" x2="2531.5332" y1="155" y2="155"/></g><!--class Sensor--><g class="entity" data-qualified-name="Sensor" data-source-line="16" id="ent0037"><rect fill="#F1F1F1" height="48" rx="2.5" ry="2.5" style="stroke:#181818;stroke-width:0.5;" width="79.9883" x="2304" y="223"/><ellipse cx="2319" cy="239" fill="#ADD1B2" rx="11" ry="11" style="stroke:#181818;stroke-width:1;"/><path d="M2321.9688,244.6406 Q2321.3906,244.9375 2320.75,245.0781 Q2320.1094,245.2344 2319.4063,245.2344 Q2316.9063,245.2344 2315.5781,243.5938 Q2314.2656,241.9375 2314.2656,238.8125 Q2314.2656,235.6875 2315.5781,234.0313 Q2316.9063,232.375 2319.4063,232.375 Q2320.1094,232.375 2320.75,232.5313 Q2321.4063,232.6875 2321.9688,232.9844 L2321.9688,235.7031 Q2321.3438,235.125 2320.75,234.8594 Q2320.1563,234.5781 2319.5313,234.5781 Q2318.1875,234.5781 2317.5,235.6563 Q2316.8125,236.7188 2316.8125,238.8125 Q2316.8125,240.9063 2317.5,241.9844 Q2318.1875,243.0469 2319.5313,243.0469 Q2320.1563,243.0469 2320.75,242.7813 Q2321.3438,242.5 2321.9688,241.9219 L2321.9688,244.6406 Z " fill="#000000"/><text fill="#000000" font-family="sans-serif" font-size="14" lengthAdjust="spacing" textLength="47.9883" x="2333" y="243.8467">Sensor</text><line style="stroke:#181818;stroke-width:0.5;" x1="2305" x2="2382.9883" y1="255" y2="255"/><line style="stroke:#181818;stroke-width:0.5;" x1="2305" x2="2382.9883" y1="263" y2="263"/></g><!--class ActuationCollection--><g class="entity" data-qualified-name="ActuationCollection" data-source-line="17" id="ent0039"><rect fill="#F1F1F1" height="48" rx="2.5" ry="2.5" style="stroke:#181818;stroke-width:0.5;" width="168.2813" x="2921" y="115"/><ellipse cx="2936" cy="131" fill="#ADD1B2" rx="11" ry="11" style="stroke:#181818;stroke-width:1;"/><path d="M2938.9688,136.6406 Q2938.3906,136.9375 2937.75,137.0781 Q2937.1094,137.2344 2936.4063,137.2344 Q2933.9063,137.2344 2932.5781,135.5938 Q2931.2656,133.9375 2931.2656,130.8125 Q2931.2656,127.6875 2932.5781,126.0313 Q2933.9063,124.375 2936.4063,124.375 Q2937.1094,124.375 2937.75,124.5313 Q2938.4063,124.6875 2938.9688,124.9844 L2938.9688,127.7031 Q2938.3438,127.125 2937.75,126.8594 Q2937.1563,126.5781 2936.5313,126.5781 Q2935.1875,126.5781 2934.5,127.6563 Q2933.8125,128.7188 2933.8125,130.8125 Q2933.8125,132.9063 2934.5,133.9844 Q2935.1875,135.0469 2936.5313,135.0469 Q2937.1563,135.0469 2937.75,134.7813 Q2938.3438,134.5 2938.9688,133.9219 L2938.9688,136.6406 Z " fill="#000000"/><text fill="#000000" font-family="sans-serif" font-size="14" lengthAdjust="spacing" textLength="136.2813" x="2950" y="135.8467">ActuationCollection</text><line style="stroke:#181818;stroke-width:0.5;" x1="2922" x2="3088.2813" y1="147" y2="147"/><line style="stroke:#181818;stroke-width:0.5;" x1="2922" x2="3088.2813" y1="155" y2="155"/></g><!--class ObservationCollection--><g class="entity" data-qualified-name="ObservationCollection" data-source-line="18" id="ent0041"><rect fill="#F1F1F1" height="48" rx="2.5" ry="2.5" style="stroke:#181818;stroke-width:0.5;" width="186.499" x="3124" y="115"/><ellipse cx="3139" cy="131" fill="#ADD1B2" rx="11" ry="11" style="stroke:#181818;stroke-width:1;"/><path d="M3141.9688,136.6406 Q3141.3906,136.9375 3140.75,137.0781 Q3140.1094,137.2344 3139.4063,137.2344 Q3136.9063,137.2344 3135.5781,135.5938 Q3134.2656,133.9375 3134.2656,130.8125 Q3134.2656,127.6875 3135.5781,126.0313 Q3136.9063,124.375 3139.4063,124.375 Q3140.1094,124.375 3140.75,124.5313 Q3141.4063,124.6875 3141.9688,124.9844 L3141.9688,127.7031 Q3141.3438,127.125 3140.75,126.8594 Q3140.1563,126.5781 3139.5313,126.5781 Q3138.1875,126.5781 3137.5,127.6563 Q3136.8125,128.7188 3136.8125,130.8125 Q3136.8125,132.9063 3137.5,133.9844 Q3138.1875,135.0469 3139.5313,135.0469 Q3140.1563,135.0469 3140.75,134.7813 Q3141.3438,134.5 3141.9688,133.9219 L3141.9688,136.6406 Z " fill="#000000"/><text fill="#000000" font-family="sans-serif" font-size="14" lengthAdjust="spacing" textLength="154.499" x="3153" y="135.8467">ObservationCollection</text><line style="stroke:#181818;stroke-width:0.5;" x1="3125" x2="3309.499" y1="147" y2="147"/><line style="stroke:#181818;stroke-width:0.5;" x1="3125" x2="3309.499" y1="155" y2="155"/></g><!--class Observation--><g class="entity" data-qualified-name="Observation" data-source-line="19" id="ent0043"><rect fill="#F1F1F1" height="48" rx="2.5" ry="2.5" style="stroke:#181818;stroke-width:0.5;" width="117.251" x="2567.5" y="115"/><ellipse cx="2582.5" cy="131" fill="#ADD1B2" rx="11" ry="11" style="stroke:#181818;stroke-width:1;"/><path d="M2585.4688,136.6406 Q2584.8906,136.9375 2584.25,137.0781 Q2583.6094,137.2344 2582.9063,137.2344 Q2580.4063,137.2344 2579.0781,135.5938 Q2577.7656,133.9375 2577.7656,130.8125 Q2577.7656,127.6875 2579.0781,126.0313 Q2580.4063,124.375 2582.9063,124.375 Q2583.6094,124.375 2584.25,124.5313 Q2584.9063,124.6875 2585.4688,124.9844 L2585.4688,127.7031 Q2584.8438,127.125 2584.25,126.8594 Q2583.6563,126.5781 2583.0313,126.5781 Q2581.6875,126.5781 2581,127.6563 Q2580.3125,128.7188 2580.3125,130.8125 Q2580.3125,132.9063 2581,133.9844 Q2581.6875,135.0469 2583.0313,135.0469 Q2583.6563,135.0469 2584.25,134.7813 Q2584.8438,134.5 2585.4688,133.9219 L2585.4688,136.6406 Z " fill="#000000"/><text fill="#000000" font-family="sans-serif" font-size="14" lengthAdjust="spacing" textLength="85.251" x="2596.5" y="135.8467">Observation</text><line style="stroke:#181818;stroke-width:0.5;" x1="2568.5" x2="2683.751" y1="147" y2="147"/><line style="stroke:#181818;stroke-width:0.5;" x1="2568.5" x2="2683.751" y1="155" y2="155"/></g><!--class Deployment--><g class="entity" data-qualified-name="Deployment" data-source-line="20" id="ent0045"><rect fill="#F1F1F1" height="48" rx="2.5" ry="2.5" style="stroke:#181818;stroke-width:0.5;" width="117.6338" x="25" y="7"/><ellipse cx="40" cy="23" fill="#ADD1B2" rx="11" ry="11" style="stroke:#181818;stroke-width:1;"/><path d="M42.9688,28.6406 Q42.3906,28.9375 41.75,29.0781 Q41.1094,29.2344 40.4063,29.2344 Q37.9063,29.2344 36.5781,27.5938 Q35.2656,25.9375 35.2656,22.8125 Q35.2656,19.6875 36.5781,18.0313 Q37.9063,16.375 40.4063,16.375 Q41.1094,16.375 41.75,16.5313 Q42.4063,16.6875 42.9688,16.9844 L42.9688,19.7031 Q42.3438,19.125 41.75,18.8594 Q41.1563,18.5781 40.5313,18.5781 Q39.1875,18.5781 38.5,19.6563 Q37.8125,20.7188 37.8125,22.8125 Q37.8125,24.9063 38.5,25.9844 Q39.1875,27.0469 40.5313,27.0469 Q41.1563,27.0469 41.75,26.7813 Q42.3438,26.5 42.9688,25.9219 L42.9688,28.6406 Z " fill="#000000"/><text fill="#000000" font-family="sans-serif" font-size="14" lengthAdjust="spacing" textLength="85.6338" x="54" y="27.8467">Deployment</text><line style="stroke:#181818;stroke-width:0.5;" x1="26" x2="141.6338" y1="39" y2="39"/><line style="stroke:#181818;stroke-width:0.5;" x1="26" x2="141.6338" y1="47" y2="47"/></g><!--class Stimulus--><g class="entity" data-qualified-name="Stimulus" data-source-line="21" id="ent0046"><rect fill="#F1F1F1" height="48" rx="2.5" ry="2.5" style="stroke:#181818;stroke-width:0.5;" width="92.833" x="178.5" y="7"/><ellipse cx="193.5" cy="23" fill="#ADD1B2" rx="11" ry="11" style="stroke:#181818;stroke-width:1;"/><path d="M196.4688,28.6406 Q195.8906,28.9375 195.25,29.0781 Q194.6094,29.2344 193.9063,29.2344 Q191.4063,29.2344 190.0781,27.5938 Q188.7656,25.9375 188.7656,22.8125 Q188.7656,19.6875 190.0781,18.0313 Q191.4063,16.375 193.9063,16.375 Q194.6094,16.375 195.25,16.5313 Q195.9063,16.6875 196.4688,16.9844 L196.4688,19.7031 Q195.8438,19.125 195.25,18.8594 Q194.6563,18.5781 194.0313,18.5781 Q192.6875,18.5781 192,19.6563 Q191.3125,20.7188 191.3125,22.8125 Q191.3125,24.9063 192,25.9844 Q192.6875,27.0469 194.0313,27.0469 Q194.6563,27.0469 195.25,26.7813 Q195.8438,26.5 196.4688,25.9219 L196.4688,28.6406 Z " fill="#000000"/><text fill="#000000" font-family="sans-serif" font-size="14" lengthAdjust="spacing" textLength="60.833" x="207.5" y="27.8467">Stimulus</text><line style="stroke:#181818;stroke-width:0.5;" x1="179.5" x2="270.333" y1="39" y2="39"/><line style="stroke:#181818;stroke-width:0.5;" x1="179.5" x2="270.333" y1="47" y2="47"/></g><!--class Result--><g class="entity" data-qualified-name="Result" data-source-line="23" id="ent0047"><rect fill="#F1F1F1" height="48" rx="2.5" ry="2.5" style="stroke:#181818;stroke-width:0.5;" width="75.8867" x="307" y="7"/><ellipse cx="322" cy="23" fill="#ADD1B2" rx="11" ry="11" style="stroke:#181818;stroke-width:1;"/><path d="M324.9688,28.6406 Q324.3906,28.9375 323.75,29.0781 Q323.1094,29.2344 322.4063,29.2344 Q319.9063,29.2344 318.5781,27.5938 Q317.2656,25.9375 317.2656,22.8125 Q317.2656,19.6875 318.5781,18.0313 Q319.9063,16.375 322.4063,16.375 Q323.1094,16.375 323.75,16.5313 Q324.4063,16.6875 324.9688,16.9844 L324.9688,19.7031 Q324.3438,19.125 323.75,18.8594 Q323.1563,18.5781 322.5313,18.5781 Q321.1875,18.5781 320.5,19.6563 Q319.8125,20.7188 319.8125,22.8125 Q319.8125,24.9063 320.5,25.9844 Q321.1875,27.0469 322.5313,27.0469 Q323.1563,27.0469 323.75,26.7813 Q324.3438,26.5 324.9688,25.9219 L324.9688,28.6406 Z " fill="#000000"/><text fill="#000000" font-family="sans-serif" font-size="14" lengthAdjust="spacing" textLength="43.8867" x="336" y="27.8467">Result</text><line style="stroke:#181818;stroke-width:0.5;" x1="308" x2="381.8867" y1="39" y2="39"/><line style="stroke:#181818;stroke-width:0.5;" x1="308" x2="381.8867" y1="47" y2="47"/></g><!--class SampleCollection--><g class="entity" data-qualified-name="SampleCollection" data-source-line="24" id="ent0048"><rect fill="#F1F1F1" height="48" rx="2.5" ry="2.5" style="stroke:#181818;stroke-width:0.5;" width="153.7412" x="7" y="115"/><ellipse cx="22" cy="131" fill="#ADD1B2" rx="11" ry="11" style="stroke:#181818;stroke-width:1;"/><path d="M24.9688,136.6406 Q24.3906,136.9375 23.75,137.0781 Q23.1094,137.2344 22.4063,137.2344 Q19.9063,137.2344 18.5781,135.5938 Q17.2656,133.9375 17.2656,130.8125 Q17.2656,127.6875 18.5781,126.0313 Q19.9063,124.375 22.4063,124.375 Q23.1094,124.375 23.75,124.5313 Q24.4063,124.6875 24.9688,124.9844 L24.9688,127.7031 Q24.3438,127.125 23.75,126.8594 Q23.1563,126.5781 22.5313,126.5781 Q21.1875,126.5781 20.5,127.6563 Q19.8125,128.7188 19.8125,130.8125 Q19.8125,132.9063 20.5,133.9844 Q21.1875,135.0469 22.5313,135.0469 Q23.1563,135.0469 23.75,134.7813 Q24.3438,134.5 24.9688,133.9219 L24.9688,136.6406 Z " fill="#000000"/><text fill="#000000" font-family="sans-serif" font-size="14" lengthAdjust="spacing" textLength="121.7412" x="36" y="135.8467">SampleCollection</text><line style="stroke:#181818;stroke-width:0.5;" x1="8" x2="159.7412" y1="147" y2="147"/><line style="stroke:#181818;stroke-width:0.5;" x1="8" x2="159.7412" y1="155" y2="155"/></g><!--class FeatureOfInterest--><g class="entity" data-qualified-name="FeatureOfInterest" data-source-line="25" id="ent0049"><rect fill="#F1F1F1" height="48" rx="2.5" ry="2.5" style="stroke:#181818;stroke-width:0.5;" width="156.1816" x="196" y="115"/><ellipse cx="211" cy="131" fill="#ADD1B2" rx="11" ry="11" style="stroke:#181818;stroke-width:1;"/><path d="M213.9688,136.6406 Q213.3906,136.9375 212.75,137.0781 Q212.1094,137.2344 211.4063,137.2344 Q208.9063,137.2344 207.5781,135.5938 Q206.2656,133.9375 206.2656,130.8125 Q206.2656,127.6875 207.5781,126.0313 Q208.9063,124.375 211.4063,124.375 Q212.1094,124.375 212.75,124.5313 Q213.4063,124.6875 213.9688,124.9844 L213.9688,127.7031 Q213.3438,127.125 212.75,126.8594 Q212.1563,126.5781 211.5313,126.5781 Q210.1875,126.5781 209.5,127.6563 Q208.8125,128.7188 208.8125,130.8125 Q208.8125,132.9063 209.5,133.9844 Q210.1875,135.0469 211.5313,135.0469 Q212.1563,135.0469 212.75,134.7813 Q213.3438,134.5 213.9688,133.9219 L213.9688,136.6406 Z " fill="#000000"/><text fill="#000000" font-family="sans-serif" font-size="14" lengthAdjust="spacing" textLength="124.1816" x="225" y="135.8467">FeatureOfInterest</text><line style="stroke:#181818;stroke-width:0.5;" x1="197" x2="351.1816" y1="147" y2="147"/><line style="stroke:#181818;stroke-width:0.5;" x1="197" x2="351.1816" y1="155" y2="155"/></g><!--class Input--><g class="entity" data-qualified-name="Input" data-source-line="26" id="ent0050"><rect fill="#F1F1F1" height="48" rx="2.5" ry="2.5" style="stroke:#181818;stroke-width:0.5;" width="68.251" x="387" y="115"/><ellipse cx="402" cy="131" fill="#ADD1B2" rx="11" ry="11" style="stroke:#181818;stroke-width:1;"/><path d="M404.9688,136.6406 Q404.3906,136.9375 403.75,137.0781 Q403.1094,137.2344 402.4063,137.2344 Q399.9063,137.2344 398.5781,135.5938 Q397.2656,133.9375 397.2656,130.8125 Q397.2656,127.6875 398.5781,126.0313 Q399.9063,124.375 402.4063,124.375 Q403.1094,124.375 403.75,124.5313 Q404.4063,124.6875 404.9688,124.9844 L404.9688,127.7031 Q404.3438,127.125 403.75,126.8594 Q403.1563,126.5781 402.5313,126.5781 Q401.1875,126.5781 400.5,127.6563 Q399.8125,128.7188 399.8125,130.8125 Q399.8125,132.9063 400.5,133.9844 Q401.1875,135.0469 402.5313,135.0469 Q403.1563,135.0469 403.75,134.7813 Q404.3438,134.5 404.9688,133.9219 L404.9688,136.6406 Z " fill="#000000"/><text fill="#000000" font-family="sans-serif" font-size="14" lengthAdjust="spacing" textLength="36.251" x="416" y="135.8467">Input</text><line style="stroke:#181818;stroke-width:0.5;" x1="388" x2="454.251" y1="147" y2="147"/><line style="stroke:#181818;stroke-width:0.5;" x1="388" x2="454.251" y1="155" y2="155"/></g><!--class Output--><g class="entity" data-qualified-name="Output" data-source-line="29" id="ent0051"><rect fill="#F1F1F1" height="48" rx="2.5" ry="2.5" style="stroke:#181818;stroke-width:0.5;" width="80.6309" x="43.5" y="223"/><ellipse cx="58.5" cy="239" fill="#ADD1B2" rx="11" ry="11" style="stroke:#181818;stroke-width:1;"/><path d="M61.4688,244.6406 Q60.8906,244.9375 60.25,245.0781 Q59.6094,245.2344 58.9063,245.2344 Q56.4063,245.2344 55.0781,243.5938 Q53.7656,241.9375 53.7656,238.8125 Q53.7656,235.6875 55.0781,234.0313 Q56.4063,232.375 58.9063,232.375 Q59.6094,232.375 60.25,232.5313 Q60.9063,232.6875 61.4688,232.9844 L61.4688,235.7031 Q60.8438,235.125 60.25,234.8594 Q59.6563,234.5781 59.0313,234.5781 Q57.6875,234.5781 57,235.6563 Q56.3125,236.7188 56.3125,238.8125 Q56.3125,240.9063 57,241.9844 Q57.6875,243.0469 59.0313,243.0469 Q59.6563,243.0469 60.25,242.7813 Q60.8438,242.5 61.4688,241.9219 L61.4688,244.6406 Z " fill="#000000"/><text fill="#000000" font-family="sans-serif" font-size="14" lengthAdjust="spacing" textLength="48.6309" x="72.5" y="243.8467">Output</text><line style="stroke:#181818;stroke-width:0.5;" x1="44.5" x2="123.1309" y1="255" y2="255"/><line style="stroke:#181818;stroke-width:0.5;" x1="44.5" x2="123.1309" y1="263" y2="263"/></g><!--reverse link Property to ActuatableProperty--><g class="link" data-entity-1="ent0001" data-entity-2="ent0002" data-link-type="extension" data-source-line="1" id="lnk3"><path codeLine="1" d="M641.3905,67.9716 C624.4005,85.6316 613.51,96.94 596.44,114.68" fill="none" id="Property-backto-ActuatableProperty" style="stroke:#181818;stroke-width:1;"/><polygon fill="none" points="653.87,55,637.0667,63.8118,645.7144,72.1314,653.87,55" style="stroke:#181818;stroke-width:1;stroke-linejoin:miter;stroke-miterlimit:10;"/></g><!--reverse link Sample to MaterialSample--><g class="link" data-entity-1="ent0004" data-entity-2="ent0005" data-link-type="extension" data-source-line="2" id="lnk6"><path codeLine="2" d="M1090.3567,64.4445 C1061.6067,82.1645 1037.35,97.11 1008.55,114.86" fill="none" id="Sample-backto-MaterialSample" style="stroke:#181818;stroke-width:1;"/><polygon fill="none" points="1105.68,55,1087.2086,59.3367,1093.5049,69.5522,1105.68,55" style="stroke:#181818;stroke-width:1;stroke-linejoin:miter;stroke-miterlimit:10;"/></g><!--reverse link Sample to SpatialSample--><g class="link" data-entity-1="ent0004" data-entity-2="ent0007" data-link-type="extension" data-source-line="3" id="lnk8"><path codeLine="3" d="M1143,73 C1143,90.66 1143,96.94 1143,114.68" fill="none" id="Sample-backto-SpatialSample" style="stroke:#181818;stroke-width:1;"/><polygon fill="none" points="1143,55,1137,73,1149,73,1143,55" style="stroke:#181818;stroke-width:1;stroke-linejoin:miter;stroke-miterlimit:10;"/></g><!--reverse link Sample to StatisticalSample--><g class="link" data-entity-1="ent0004" data-entity-2="ent0009" data-link-type="extension" data-source-line="4" id="lnk10"><path codeLine="4" d="M1197.3276,64.1725 C1227.2476,81.8925 1252.95,97.11 1282.93,114.86" fill="none" id="Sample-backto-StatisticalSample" style="stroke:#181818;stroke-width:1;"/><polygon fill="none" points="1181.84,55,1194.2701,69.335,1200.3851,59.0099,1181.84,55" style="stroke:#181818;stroke-width:1;stroke-linejoin:miter;stroke-miterlimit:10;"/></g><!--reverse link Property to ObservableProperty--><g class="link" data-entity-1="ent0001" data-entity-2="ent0011" data-link-type="extension" data-source-line="5" id="lnk12"><path codeLine="5" d="M710.8939,67.9094 C728.0539,85.5694 739.1,96.94 756.34,114.68" fill="none" id="Property-backto-ObservableProperty" style="stroke:#181818;stroke-width:1;"/><polygon fill="none" points="698.35,55,706.5907,72.0906,715.197,63.7281,698.35,55" style="stroke:#181818;stroke-width:1;stroke-linejoin:miter;stroke-miterlimit:10;"/></g><!--reverse link Procedure to ActuatingProcedure--><g class="link" data-entity-1="ent0013" data-entity-2="ent0014" data-link-type="extension" data-source-line="6" id="lnk15"><path codeLine="6" d="M1666.8326,63.1732 C1632.0626,80.8932 1600.24,97.11 1565.4,114.86" fill="none" id="Procedure-backto-ActuatingProcedure" style="stroke:#181818;stroke-width:1;"/><polygon fill="none" points="1682.87,55,1664.1082,57.8274,1669.557,68.519,1682.87,55" style="stroke:#181818;stroke-width:1;stroke-linejoin:miter;stroke-miterlimit:10;"/></g><!--reverse link Procedure to ObservingProcedure--><g class="link" data-entity-1="ent0013" data-entity-2="ent0016" data-link-type="extension" data-source-line="7" id="lnk17"><path codeLine="7" d="M1728,73 C1728,90.66 1728,96.94 1728,114.68" fill="none" id="Procedure-backto-ObservingProcedure" style="stroke:#181818;stroke-width:1;"/><polygon fill="none" points="1728,55,1722,73,1734,73,1728,55" style="stroke:#181818;stroke-width:1;stroke-linejoin:miter;stroke-miterlimit:10;"/></g><!--reverse link Procedure to SamplingProcedure--><g class="link" data-entity-1="ent0013" data-entity-2="ent0018" data-link-type="extension" data-source-line="8" id="lnk19"><path codeLine="8" d="M1788.9411,63.205 C1823.5411,80.925 1855.15,97.11 1889.81,114.86" fill="none" id="Procedure-backto-SamplingProcedure" style="stroke:#181818;stroke-width:1;"/><polygon fill="none" points="1772.92,55,1786.2061,68.5454,1791.6762,57.8647,1772.92,55" style="stroke:#181818;stroke-width:1;stroke-linejoin:miter;stroke-miterlimit:10;"/></g><!--reverse link Asset to Platform--><g class="link" data-entity-1="ent0020" data-entity-2="ent0021" data-link-type="extension" data-source-line="9" id="lnk22"><path codeLine="9" d="M2138.7839,70.6022 C2128.6239,88.2622 2123.63,96.94 2113.42,114.68" fill="none" id="Asset-backto-Platform" style="stroke:#181818;stroke-width:1;"/><polygon fill="none" points="2147.76,55,2133.5831,67.6102,2143.9846,73.5943,2147.76,55" style="stroke:#181818;stroke-width:1;stroke-linejoin:miter;stroke-miterlimit:10;"/></g><!--reverse link System to Sampler--><g class="link" data-entity-1="ent0023" data-entity-2="ent0024" data-link-type="extension" data-source-line="10" id="lnk25"><path codeLine="10" d="M2181.8865,174.5884 C2160.8965,192.2484 2145.81,204.94 2124.72,222.68" fill="none" id="System-backto-Sampler" style="stroke:#181818;stroke-width:1;"/><polygon fill="none" points="2195.66,163,2178.0237,169.9972,2185.7493,179.1795,2195.66,163" style="stroke:#181818;stroke-width:1;stroke-linejoin:miter;stroke-miterlimit:10;"/></g><!--reverse link System to Actuator--><g class="link" data-entity-1="ent0023" data-entity-2="ent0026" data-link-type="extension" data-source-line="11" id="lnk27"><path codeLine="11" d="M2223,181 C2223,198.66 2223,204.94 2223,222.68" fill="none" id="System-backto-Actuator" style="stroke:#181818;stroke-width:1;"/><polygon fill="none" points="2223,163,2217,181,2229,181,2223,163" style="stroke:#181818;stroke-width:1;stroke-linejoin:miter;stroke-miterlimit:10;"/></g><!--reverse link Asset to System--><g class="link" data-entity-1="ent0020" data-entity-2="ent0023" data-link-type="extension" data-source-line="12" id="lnk28"><path codeLine="12" d="M2183.5383,70.5372 C2193.8683,88.1972 2198.98,96.94 2209.36,114.68" fill="none" id="Asset-backto-System" style="stroke:#181818;stroke-width:1;"/><polygon fill="none" points="2174.45,55,2178.3592,73.5666,2188.7173,67.5077,2174.45,55" style="stroke:#181818;stroke-width:1;stroke-linejoin:miter;stroke-miterlimit:10;"/></g><!--reverse link Execution to Sampling--><g class="link" data-entity-1="ent0029" data-entity-2="ent0030" data-link-type="extension" data-source-line="13" id="lnk31"><path codeLine="13" d="M2439.8041,66.1688 C2417.4841,83.8288 2400.91,96.94 2378.48,114.68" fill="none" id="Execution-backto-Sampling" style="stroke:#181818;stroke-width:1;"/><polygon fill="none" points="2453.92,55,2436.0812,61.4635,2443.527,70.8741,2453.92,55" style="stroke:#181818;stroke-width:1;stroke-linejoin:miter;stroke-miterlimit:10;"/></g><!--reverse link ExecutionCollection to SamplingCollection--><g class="link" data-entity-1="ent0032" data-entity-2="ent0033" data-link-type="extension" data-source-line="14" id="lnk34"><path codeLine="14" d="M2945.231,63.3636 C2911.461,81.0836 2880.93,97.11 2847.09,114.86" fill="none" id="ExecutionCollection-backto-SamplingCollection" style="stroke:#181818;stroke-width:1;"/><polygon fill="none" points="2961.17,55,2942.4432,58.0506,2948.0189,68.6766,2961.17,55" style="stroke:#181818;stroke-width:1;stroke-linejoin:miter;stroke-miterlimit:10;"/></g><!--reverse link Execution to Actuation--><g class="link" data-entity-1="ent0029" data-entity-2="ent0035" data-link-type="extension" data-source-line="15" id="lnk36"><path codeLine="15" d="M2483,73 C2483,90.66 2483,96.94 2483,114.68" fill="none" id="Execution-backto-Actuation" style="stroke:#181818;stroke-width:1;"/><polygon fill="none" points="2483,55,2477,73,2489,73,2483,55" style="stroke:#181818;stroke-width:1;stroke-linejoin:miter;stroke-miterlimit:10;"/></g><!--reverse link System to Sensor--><g class="link" data-entity-1="ent0023" data-entity-2="ent0037" data-link-type="extension" data-source-line="16" id="lnk38"><path codeLine="16" d="M2262.7968,174.864 C2282.9468,192.524 2297.13,204.94 2317.38,222.68" fill="none" id="System-backto-Sensor" style="stroke:#181818;stroke-width:1;"/><polygon fill="none" points="2249.26,163,2258.8421,179.3763,2266.7515,170.3518,2249.26,163" style="stroke:#181818;stroke-width:1;stroke-linejoin:miter;stroke-miterlimit:10;"/></g><!--reverse link ExecutionCollection to ActuationCollection--><g class="link" data-entity-1="ent0032" data-entity-2="ent0039" data-link-type="extension" data-source-line="17" id="lnk40"><path codeLine="17" d="M3005,73 C3005,90.66 3005,96.94 3005,114.68" fill="none" id="ExecutionCollection-backto-ActuationCollection" style="stroke:#181818;stroke-width:1;"/><polygon fill="none" points="3005,55,2999,73,3011,73,3005,55" style="stroke:#181818;stroke-width:1;stroke-linejoin:miter;stroke-miterlimit:10;"/></g><!--reverse link ExecutionCollection to ObservationCollection--><g class="link" data-entity-1="ent0032" data-entity-2="ent0041" data-link-type="extension" data-source-line="18" id="lnk42"><path codeLine="18" d="M3067.0997,63.0498 C3102.5397,80.7698 3135.22,97.11 3170.72,114.86" fill="none" id="ExecutionCollection-backto-ObservationCollection" style="stroke:#181818;stroke-width:1;"/><polygon fill="none" points="3051,55,3064.4164,68.4164,3069.783,57.6833,3051,55" style="stroke:#181818;stroke-width:1;stroke-linejoin:miter;stroke-miterlimit:10;"/></g><!--reverse link Execution to Observation--><g class="link" data-entity-1="ent0029" data-entity-2="ent0043" data-link-type="extension" data-source-line="19" id="lnk44"><path codeLine="19" d="M2528.4895,65.7202 C2552.3095,83.3802 2570.61,96.94 2594.54,114.68" fill="none" id="Execution-backto-Observation" style="stroke:#181818;stroke-width:1;"/><polygon fill="none" points="2514.03,55,2524.9161,70.54,2532.0629,60.9004,2514.03,55" style="stroke:#181818;stroke-width:1;stroke-linejoin:miter;stroke-miterlimit:10;"/></g><?plantuml-src VP9BRiCm34JtFeKla1jq4xGDa4LXepw1eZ250Ee3aGfge8Ul4DgovTJTIJEFv9XM7ts0o6FxydCuj4VDIR6w8FIJtWpA1WInFnH3D0f5gwmXADvnE3l4HXUthsPs5u9uhsRcWuPhYh1EPTnNqRU4zFYFU8okW2CHi9WzAhxvQ9jX90Qxge1OQPB4ntMn-CtxD-Z4nhjwtgA_UaJGpyIYRtjCtvsDAXSuoWbs-vQglnfluMdvU_WJr6XKHEqR1FIZ1SUJCB2n2HFDLzc9N3w14XRmiTNLB95Fe3Z_bEvsTlc90StusOKqdylpsCdG9LxWET0l?></g></svg>