<svg xmlns="http://www.w3.org/2000/svg" xmlns:xlink="http://www.w3.org/1999/xlink" version="1.1" data-diagram-type="CLASS" style="width:3143px;height:286px;background:#FFFFFF;" width="3143px" height="286px" viewBox="0 0 3143 286" zoomAndPan="magnify" preserveAspectRatio="none" contentStyleType="text/css"><?plantuml 1.2026.8?><defs/><g font-family="sans-serif" lengthAdjust="spacing"><!--class Property--><g class="entity" data-qualified-name="Property" id="ent0001" data-source-line="1"><rect x="516" y="7" width="91.794" height="48" fill="#F1F1F1" style="stroke:#181818;stroke-width:0.5;" rx="2.5" ry="2.5"/><ellipse cx="531" cy="23" rx="11" ry="11" fill="#ADD1B2" style="stroke:#181818;stroke-width:1;"/><path d="M533.969,28.641 Q533.391,28.938 532.75,29.078 Q532.109,29.234 531.406,29.234 Q528.906,29.234 527.578,27.594 Q526.266,25.938 526.266,22.813 Q526.266,19.688 527.578,18.031 Q528.906,16.375 531.406,16.375 Q532.109,16.375 532.75,16.531 Q533.406,16.688 533.969,16.984 L533.969,19.703 Q533.344,19.125 532.75,18.859 Q532.156,18.578 531.531,18.578 Q530.188,18.578 529.5,19.656 Q528.813,20.719 528.813,22.813 Q528.813,24.906 529.5,25.984 Q530.188,27.047 531.531,27.047 Q532.156,27.047 532.75,26.781 Q533.344,26.5 533.969,25.922 L533.969,28.641 Z " fill="#000"/><text x="545" y="27.847" fill="#000" font-size="14" textLength="59.794">Property</text><line x1="517" y1="39" x2="606.794" y2="39" style="stroke:#181818;stroke-width:0.5;"/><line x1="517" y1="47" x2="606.794" y2="47" style="stroke:#181818;stroke-width:0.5;"/></g><!--class ActuatableProperty--><g class="entity" data-qualified-name="ActuatableProperty" id="ent0002" data-source-line="1"><rect x="308.5" y="115" width="167.468" height="48" fill="#F1F1F1" style="stroke:#181818;stroke-width:0.5;" rx="2.5" ry="2.5"/><ellipse cx="323.5" cy="131" rx="11" ry="11" fill="#ADD1B2" style="stroke:#181818;stroke-width:1;"/><path d="M326.469,136.641 Q325.891,136.938 325.25,137.078 Q324.609,137.234 323.906,137.234 Q321.406,137.234 320.078,135.594 Q318.766,133.938 318.766,130.813 Q318.766,127.688 320.078,126.031 Q321.406,124.375 323.906,124.375 Q324.609,124.375 325.25,124.531 Q325.906,124.688 326.469,124.984 L326.469,127.703 Q325.844,127.125 325.25,126.859 Q324.656,126.578 324.031,126.578 Q322.688,126.578 322,127.656 Q321.313,128.719 321.313,130.813 Q321.313,132.906 322,133.984 Q322.688,135.047 324.031,135.047 Q324.656,135.047 325.25,134.781 Q325.844,134.5 326.469,133.922 L326.469,136.641 Z " fill="#000"/><text x="337.5" y="135.847" fill="#000" font-size="14" textLength="135.468">ActuatableProperty</text><line x1="309.5" y1="147" x2="474.968" y2="147" style="stroke:#181818;stroke-width:0.5;"/><line x1="309.5" y1="155" x2="474.968" y2="155" style="stroke:#181818;stroke-width:0.5;"/></g><!--class Sample--><g class="entity" data-qualified-name="Sample" id="ent0004" data-source-line="2"><rect x="919" y="7" width="84.493" height="48" fill="#F1F1F1" style="stroke:#181818;stroke-width:0.5;" rx="2.5" ry="2.5"/><ellipse cx="934" cy="23" rx="11" ry="11" fill="#ADD1B2" style="stroke:#181818;stroke-width:1;"/><path d="M936.969,28.641 Q936.391,28.938 935.75,29.078 Q935.109,29.234 934.406,29.234 Q931.906,29.234 930.578,27.594 Q929.266,25.938 929.266,22.813 Q929.266,19.688 930.578,18.031 Q931.906,16.375 934.406,16.375 Q935.109,16.375 935.75,16.531 Q936.406,16.688 936.969,16.984 L936.969,19.703 Q936.344,19.125 935.75,18.859 Q935.156,18.578 934.531,18.578 Q933.188,18.578 932.5,19.656 Q931.813,20.719 931.813,22.813 Q931.813,24.906 932.5,25.984 Q933.188,27.047 934.531,27.047 Q935.156,27.047 935.75,26.781 Q936.344,26.5 936.969,25.922 L936.969,28.641 Z " fill="#000"/><text x="948" y="27.847" fill="#000" font-size="14" textLength="52.493">Sample</text><line x1="920" y1="39" x2="1002.493" y2="39" style="stroke:#181818;stroke-width:0.5;"/><line x1="920" y1="47" x2="1002.493" y2="47" style="stroke:#181818;stroke-width:0.5;"/></g><!--class MaterialSample--><g class="entity" data-qualified-name="MaterialSample" id="ent0005" data-source-line="2"><rect x="718.5" y="115" width="141.368" height="48" fill="#F1F1F1" style="stroke:#181818;stroke-width:0.5;" rx="2.5" ry="2.5"/><ellipse cx="733.5" cy="131" rx="11" ry="11" fill="#ADD1B2" style="stroke:#181818;stroke-width:1;"/><path d="M736.469,136.641 Q735.891,136.938 735.25,137.078 Q734.609,137.234 733.906,137.234 Q731.406,137.234 730.078,135.594 Q728.766,133.938 728.766,130.813 Q728.766,127.688 730.078,126.031 Q731.406,124.375 733.906,124.375 Q734.609,124.375 735.25,124.531 Q735.906,124.688 736.469,124.984 L736.469,127.703 Q735.844,127.125 735.25,126.859 Q734.656,126.578 734.031,126.578 Q732.688,126.578 732,127.656 Q731.313,128.719 731.313,130.813 Q731.313,132.906 732,133.984 Q732.688,135.047 734.031,135.047 Q734.656,135.047 735.25,134.781 Q735.844,134.5 736.469,133.922 L736.469,136.641 Z " fill="#000"/><text x="747.5" y="135.847" fill="#000" font-size="14" textLength="109.368">MaterialSample</text><line x1="719.5" y1="147" x2="858.868" y2="147" style="stroke:#181818;stroke-width:0.5;"/><line x1="719.5" y1="155" x2="858.868" y2="155" style="stroke:#181818;stroke-width:0.5;"/></g><!--class ObservableProperty--><g class="entity" data-qualified-name="ObservableProperty" id="ent0007" data-source-line="3"><rect x="511" y="115" width="171.617" height="48" fill="#F1F1F1" style="stroke:#181818;stroke-width:0.5;" rx="2.5" ry="2.5"/><ellipse cx="526" cy="131" rx="11" ry="11" fill="#ADD1B2" style="stroke:#181818;stroke-width:1;"/><path d="M528.969,136.641 Q528.391,136.938 527.75,137.078 Q527.109,137.234 526.406,137.234 Q523.906,137.234 522.578,135.594 Q521.266,133.938 521.266,130.813 Q521.266,127.688 522.578,126.031 Q523.906,124.375 526.406,124.375 Q527.109,124.375 527.75,124.531 Q528.406,124.688 528.969,124.984 L528.969,127.703 Q528.344,127.125 527.75,126.859 Q527.156,126.578 526.531,126.578 Q525.188,126.578 524.5,127.656 Q523.813,128.719 523.813,130.813 Q523.813,132.906 524.5,133.984 Q525.188,135.047 526.531,135.047 Q527.156,135.047 527.75,134.781 Q528.344,134.5 528.969,133.922 L528.969,136.641 Z " fill="#000"/><text x="540" y="135.847" fill="#000" font-size="14" textLength="139.617">ObservableProperty</text><line x1="512" y1="147" x2="681.617" y2="147" style="stroke:#181818;stroke-width:0.5;"/><line x1="512" y1="155" x2="681.617" y2="155" style="stroke:#181818;stroke-width:0.5;"/></g><!--class SpatialSample--><g class="entity" data-qualified-name="SpatialSample" id="ent0009" data-source-line="4"><rect x="894.5" y="115" width="132.693" height="48" fill="#F1F1F1" style="stroke:#181818;stroke-width:0.5;" rx="2.5" ry="2.5"/><ellipse cx="909.5" cy="131" rx="11" ry="11" fill="#ADD1B2" style="stroke:#181818;stroke-width:1;"/><path d="M912.469,136.641 Q911.891,136.938 911.25,137.078 Q910.609,137.234 909.906,137.234 Q907.406,137.234 906.078,135.594 Q904.766,133.938 904.766,130.813 Q904.766,127.688 906.078,126.031 Q907.406,124.375 909.906,124.375 Q910.609,124.375 911.25,124.531 Q911.906,124.688 912.469,124.984 L912.469,127.703 Q911.844,127.125 911.25,126.859 Q910.656,126.578 910.031,126.578 Q908.688,126.578 908,127.656 Q907.313,128.719 907.313,130.813 Q907.313,132.906 908,133.984 Q908.688,135.047 910.031,135.047 Q910.656,135.047 911.25,134.781 Q911.844,134.5 912.469,133.922 L912.469,136.641 Z " fill="#000"/><text x="923.5" y="135.847" fill="#000" font-size="14" textLength="100.693">SpatialSample</text><line x1="895.5" y1="147" x2="1026.193" y2="147" style="stroke:#181818;stroke-width:0.5;"/><line x1="895.5" y1="155" x2="1026.193" y2="155" style="stroke:#181818;stroke-width:0.5;"/></g><!--class StatisticalSample--><g class="entity" data-qualified-name="StatisticalSample" id="ent0011" data-source-line="5"><rect x="1063" y="115" width="153.666" height="48" fill="#F1F1F1" style="stroke:#181818;stroke-width:0.5;" rx="2.5" ry="2.5"/><ellipse cx="1078" cy="131" rx="11" ry="11" fill="#ADD1B2" style="stroke:#181818;stroke-width:1;"/><path d="M1080.969,136.641 Q1080.391,136.938 1079.75,137.078 Q1079.109,137.234 1078.406,137.234 Q1075.906,137.234 1074.578,135.594 Q1073.266,133.938 1073.266,130.813 Q1073.266,127.688 1074.578,126.031 Q1075.906,124.375 1078.406,124.375 Q1079.109,124.375 1079.75,124.531 Q1080.406,124.688 1080.969,124.984 L1080.969,127.703 Q1080.344,127.125 1079.75,126.859 Q1079.156,126.578 1078.531,126.578 Q1077.188,126.578 1076.5,127.656 Q1075.813,128.719 1075.813,130.813 Q1075.813,132.906 1076.5,133.984 Q1077.188,135.047 1078.531,135.047 Q1079.156,135.047 1079.75,134.781 Q1080.344,134.5 1080.969,133.922 L1080.969,136.641 Z " fill="#000"/><text x="1092" y="135.847" fill="#000" font-size="14" textLength="121.666">StatisticalSample</text><line x1="1064" y1="147" x2="1215.666" y2="147" style="stroke:#181818;stroke-width:0.5;"/><line x1="1064" y1="155" x2="1215.666" y2="155" style="stroke:#181818;stroke-width:0.5;"/></g><!--class Procedure--><g class="entity" data-qualified-name="Procedure" id="ent0013" data-source-line="6"><rect x="1494.5" y="7" width="103.203" height="48" fill="#F1F1F1" style="stroke:#181818;stroke-width:0.5;" rx="2.5" ry="2.5"/><ellipse cx="1509.5" cy="23" rx="11" ry="11" fill="#ADD1B2" style="stroke:#181818;stroke-width:1;"/><path d="M1512.469,28.641 Q1511.891,28.938 1511.25,29.078 Q1510.609,29.234 1509.906,29.234 Q1507.406,29.234 1506.078,27.594 Q1504.766,25.938 1504.766,22.813 Q1504.766,19.688 1506.078,18.031 Q1507.406,16.375 1509.906,16.375 Q1510.609,16.375 1511.25,16.531 Q1511.906,16.688 1512.469,16.984 L1512.469,19.703 Q1511.844,19.125 1511.25,18.859 Q1510.656,18.578 1510.031,18.578 Q1508.688,18.578 1508,19.656 Q1507.313,20.719 1507.313,22.813 Q1507.313,24.906 1508,25.984 Q1508.688,27.047 1510.031,27.047 Q1510.656,27.047 1511.25,26.781 Q1511.844,26.5 1512.469,25.922 L1512.469,28.641 Z " fill="#000"/><text x="1523.5" y="27.847" fill="#000" font-size="14" textLength="71.203">Procedure</text><line x1="1495.5" y1="39" x2="1596.703" y2="39" style="stroke:#181818;stroke-width:0.5;"/><line x1="1495.5" y1="47" x2="1596.703" y2="47" style="stroke:#181818;stroke-width:0.5;"/></g><!--class ActuatingProcedure--><g class="entity" data-qualified-name="ActuatingProcedure" id="ent0014" data-source-line="6"><rect x="1252.5" y="115" width="170.558" height="48" fill="#F1F1F1" style="stroke:#181818;stroke-width:0.5;" rx="2.5" ry="2.5"/><ellipse cx="1267.5" cy="131" rx="11" ry="11" fill="#ADD1B2" style="stroke:#181818;stroke-width:1;"/><path d="M1270.469,136.641 Q1269.891,136.938 1269.25,137.078 Q1268.609,137.234 1267.906,137.234 Q1265.406,137.234 1264.078,135.594 Q1262.766,133.938 1262.766,130.813 Q1262.766,127.688 1264.078,126.031 Q1265.406,124.375 1267.906,124.375 Q1268.609,124.375 1269.25,124.531 Q1269.906,124.688 1270.469,124.984 L1270.469,127.703 Q1269.844,127.125 1269.25,126.859 Q1268.656,126.578 1268.031,126.578 Q1266.688,126.578 1266,127.656 Q1265.313,128.719 1265.313,130.813 Q1265.313,132.906 1266,133.984 Q1266.688,135.047 1268.031,135.047 Q1268.656,135.047 1269.25,134.781 Q1269.844,134.5 1270.469,133.922 L1270.469,136.641 Z " fill="#000"/><text x="1281.5" y="135.847" fill="#000" font-size="14" textLength="138.558">ActuatingProcedure</text><line x1="1253.5" y1="147" x2="1422.058" y2="147" style="stroke:#181818;stroke-width:0.5;"/><line x1="1253.5" y1="155" x2="1422.058" y2="155" style="stroke:#181818;stroke-width:0.5;"/></g><!--class ObservingProcedure--><g class="entity" data-qualified-name="ObservingProcedure" id="ent0016" data-source-line="7"><rect x="1458.5" y="115" width="174.707" height="48" fill="#F1F1F1" style="stroke:#181818;stroke-width:0.5;" rx="2.5" ry="2.5"/><ellipse cx="1473.5" cy="131" rx="11" ry="11" fill="#ADD1B2" style="stroke:#181818;stroke-width:1;"/><path d="M1476.469,136.641 Q1475.891,136.938 1475.25,137.078 Q1474.609,137.234 1473.906,137.234 Q1471.406,137.234 1470.078,135.594 Q1468.766,133.938 1468.766,130.813 Q1468.766,127.688 1470.078,126.031 Q1471.406,124.375 1473.906,124.375 Q1474.609,124.375 1475.25,124.531 Q1475.906,124.688 1476.469,124.984 L1476.469,127.703 Q1475.844,127.125 1475.25,126.859 Q1474.656,126.578 1474.031,126.578 Q1472.688,126.578 1472,127.656 Q1471.313,128.719 1471.313,130.813 Q1471.313,132.906 1472,133.984 Q1472.688,135.047 1474.031,135.047 Q1474.656,135.047 1475.25,134.781 Q1475.844,134.5 1476.469,133.922 L1476.469,136.641 Z " fill="#000"/><text x="1487.5" y="135.847" fill="#000" font-size="14" textLength="142.707">ObservingProcedure</text><line x1="1459.5" y1="147" x2="1632.207" y2="147" style="stroke:#181818;stroke-width:0.5;"/><line x1="1459.5" y1="155" x2="1632.207" y2="155" style="stroke:#181818;stroke-width:0.5;"/></g><!--class SamplingProcedure--><g class="entity" data-qualified-name="SamplingProcedure" id="ent0018" data-source-line="8"><rect x="1668.5" y="115" width="168.732" height="48" fill="#F1F1F1" style="stroke:#181818;stroke-width:0.5;" rx="2.5" ry="2.5"/><ellipse cx="1683.5" cy="131" rx="11" ry="11" fill="#ADD1B2" style="stroke:#181818;stroke-width:1;"/><path d="M1686.469,136.641 Q1685.891,136.938 1685.25,137.078 Q1684.609,137.234 1683.906,137.234 Q1681.406,137.234 1680.078,135.594 Q1678.766,133.938 1678.766,130.813 Q1678.766,127.688 1680.078,126.031 Q1681.406,124.375 1683.906,124.375 Q1684.609,124.375 1685.25,124.531 Q1685.906,124.688 1686.469,124.984 L1686.469,127.703 Q1685.844,127.125 1685.25,126.859 Q1684.656,126.578 1684.031,126.578 Q1682.688,126.578 1682,127.656 Q1681.313,128.719 1681.313,130.813 Q1681.313,132.906 1682,133.984 Q1682.688,135.047 1684.031,135.047 Q1684.656,135.047 1685.25,134.781 Q1685.844,134.5 1686.469,133.922 L1686.469,136.641 Z " fill="#000"/><text x="1697.5" y="135.847" fill="#000" font-size="14" textLength="136.732">SamplingProcedure</text><line x1="1669.5" y1="147" x2="1836.232" y2="147" style="stroke:#181818;stroke-width:0.5;"/><line x1="1669.5" y1="155" x2="1836.232" y2="155" style="stroke:#181818;stroke-width:0.5;"/></g><!--class Asset--><g class="entity" data-qualified-name="Asset" id="ent0020" data-source-line="9"><rect x="1944" y="7" width="70.268" height="48" fill="#F1F1F1" style="stroke:#181818;stroke-width:0.5;" rx="2.5" ry="2.5"/><ellipse cx="1959" cy="23" rx="11" ry="11" fill="#ADD1B2" style="stroke:#181818;stroke-width:1;"/><path d="M1961.969,28.641 Q1961.391,28.938 1960.75,29.078 Q1960.109,29.234 1959.406,29.234 Q1956.906,29.234 1955.578,27.594 Q1954.266,25.938 1954.266,22.813 Q1954.266,19.688 1955.578,18.031 Q1956.906,16.375 1959.406,16.375 Q1960.109,16.375 1960.75,16.531 Q1961.406,16.688 1961.969,16.984 L1961.969,19.703 Q1961.344,19.125 1960.75,18.859 Q1960.156,18.578 1959.531,18.578 Q1958.188,18.578 1957.5,19.656 Q1956.813,20.719 1956.813,22.813 Q1956.813,24.906 1957.5,25.984 Q1958.188,27.047 1959.531,27.047 Q1960.156,27.047 1960.75,26.781 Q1961.344,26.5 1961.969,25.922 L1961.969,28.641 Z " fill="#000"/><text x="1973" y="27.847" fill="#000" font-size="14" textLength="38.268">Asset</text><line x1="1945" y1="39" x2="2013.268" y2="39" style="stroke:#181818;stroke-width:0.5;"/><line x1="1945" y1="47" x2="2013.268" y2="47" style="stroke:#181818;stroke-width:0.5;"/></g><!--class Platform--><g class="entity" data-qualified-name="Platform" id="ent0021" data-source-line="9"><rect x="1872.5" y="115" width="91.288" height="48" fill="#F1F1F1" style="stroke:#181818;stroke-width:0.5;" rx="2.5" ry="2.5"/><ellipse cx="1887.5" cy="131" rx="11" ry="11" fill="#ADD1B2" style="stroke:#181818;stroke-width:1;"/><path d="M1890.469,136.641 Q1889.891,136.938 1889.25,137.078 Q1888.609,137.234 1887.906,137.234 Q1885.406,137.234 1884.078,135.594 Q1882.766,133.938 1882.766,130.813 Q1882.766,127.688 1884.078,126.031 Q1885.406,124.375 1887.906,124.375 Q1888.609,124.375 1889.25,124.531 Q1889.906,124.688 1890.469,124.984 L1890.469,127.703 Q1889.844,127.125 1889.25,126.859 Q1888.656,126.578 1888.031,126.578 Q1886.688,126.578 1886,127.656 Q1885.313,128.719 1885.313,130.813 Q1885.313,132.906 1886,133.984 Q1886.688,135.047 1888.031,135.047 Q1888.656,135.047 1889.25,134.781 Q1889.844,134.5 1890.469,133.922 L1890.469,136.641 Z " fill="#000"/><text x="1901.5" y="135.847" fill="#000" font-size="14" textLength="59.288">Platform</text><line x1="1873.5" y1="147" x2="1962.788" y2="147" style="stroke:#181818;stroke-width:0.5;"/><line x1="1873.5" y1="155" x2="1962.788" y2="155" style="stroke:#181818;stroke-width:0.5;"/></g><!--class System--><g class="entity" data-qualified-name="System" id="ent0023" data-source-line="10"><rect x="1999" y="115" width="84.206" height="48" fill="#F1F1F1" style="stroke:#181818;stroke-width:0.5;" rx="2.5" ry="2.5"/><ellipse cx="2014" cy="131" rx="11" ry="11" fill="#ADD1B2" style="stroke:#181818;stroke-width:1;"/><path d="M2016.969,136.641 Q2016.391,136.938 2015.75,137.078 Q2015.109,137.234 2014.406,137.234 Q2011.906,137.234 2010.578,135.594 Q2009.266,133.938 2009.266,130.813 Q2009.266,127.688 2010.578,126.031 Q2011.906,124.375 2014.406,124.375 Q2015.109,124.375 2015.75,124.531 Q2016.406,124.688 2016.969,124.984 L2016.969,127.703 Q2016.344,127.125 2015.75,126.859 Q2015.156,126.578 2014.531,126.578 Q2013.188,126.578 2012.5,127.656 Q2011.813,128.719 2011.813,130.813 Q2011.813,132.906 2012.5,133.984 Q2013.188,135.047 2014.531,135.047 Q2015.156,135.047 2015.75,134.781 Q2016.344,134.5 2016.969,133.922 L2016.969,136.641 Z " fill="#000"/><text x="2028" y="135.847" fill="#000" font-size="14" textLength="52.206">System</text><line x1="2000" y1="147" x2="2082.206" y2="147" style="stroke:#181818;stroke-width:0.5;"/><line x1="2000" y1="155" x2="2082.206" y2="155" style="stroke:#181818;stroke-width:0.5;"/></g><!--class Sampler--><g class="entity" data-qualified-name="Sampler" id="ent0024" data-source-line="10"><rect x="1870" y="223" width="90.249" height="48" fill="#F1F1F1" style="stroke:#181818;stroke-width:0.5;" rx="2.5" ry="2.5"/><ellipse cx="1885" cy="239" rx="11" ry="11" fill="#ADD1B2" style="stroke:#181818;stroke-width:1;"/><path d="M1887.969,244.641 Q1887.391,244.938 1886.75,245.078 Q1886.109,245.234 1885.406,245.234 Q1882.906,245.234 1881.578,243.594 Q1880.266,241.938 1880.266,238.813 Q1880.266,235.688 1881.578,234.031 Q1882.906,232.375 1885.406,232.375 Q1886.109,232.375 1886.75,232.531 Q1887.406,232.688 1887.969,232.984 L1887.969,235.703 Q1887.344,235.125 1886.75,234.859 Q1886.156,234.578 1885.531,234.578 Q1884.188,234.578 1883.5,235.656 Q1882.813,236.719 1882.813,238.813 Q1882.813,240.906 1883.5,241.984 Q1884.188,243.047 1885.531,243.047 Q1886.156,243.047 1886.75,242.781 Q1887.344,242.5 1887.969,241.922 L1887.969,244.641 Z " fill="#000"/><text x="1899" y="243.847" fill="#000" font-size="14" textLength="58.249">Sampler</text><line x1="1871" y1="255" x2="1959.249" y2="255" style="stroke:#181818;stroke-width:0.5;"/><line x1="1871" y1="263" x2="1959.249" y2="263" style="stroke:#181818;stroke-width:0.5;"/></g><!--class Actuator--><g class="entity" data-qualified-name="Actuator" id="ent0026" data-source-line="11"><rect x="1995" y="223" width="92.026" height="48" fill="#F1F1F1" style="stroke:#181818;stroke-width:0.5;" rx="2.5" ry="2.5"/><ellipse cx="2010" cy="239" rx="11" ry="11" fill="#ADD1B2" style="stroke:#181818;stroke-width:1;"/><path d="M2012.969,244.641 Q2012.391,244.938 2011.75,245.078 Q2011.109,245.234 2010.406,245.234 Q2007.906,245.234 2006.578,243.594 Q2005.266,241.938 2005.266,238.813 Q2005.266,235.688 2006.578,234.031 Q2007.906,232.375 2010.406,232.375 Q2011.109,232.375 2011.75,232.531 Q2012.406,232.688 2012.969,232.984 L2012.969,235.703 Q2012.344,235.125 2011.75,234.859 Q2011.156,234.578 2010.531,234.578 Q2009.188,234.578 2008.5,235.656 Q2007.813,236.719 2007.813,238.813 Q2007.813,240.906 2008.5,241.984 Q2009.188,243.047 2010.531,243.047 Q2011.156,243.047 2011.75,242.781 Q2012.344,242.5 2012.969,241.922 L2012.969,244.641 Z " fill="#000"/><text x="2024" y="243.847" fill="#000" font-size="14" textLength="60.026">Actuator</text><line x1="1996" y1="255" x2="2086.026" y2="255" style="stroke:#181818;stroke-width:0.5;"/><line x1="1996" y1="263" x2="2086.026" y2="263" style="stroke:#181818;stroke-width:0.5;"/></g><!--class ExecutionCollection--><g class="entity" data-qualified-name="ExecutionCollection" id="ent0028" data-source-line="12"><rect x="2319" y="7" width="170.38" height="48" fill="#F1F1F1" style="stroke:#181818;stroke-width:0.5;" rx="2.5" ry="2.5"/><ellipse cx="2334" cy="23" rx="11" ry="11" fill="#ADD1B2" style="stroke:#181818;stroke-width:1;"/><path d="M2336.969,28.641 Q2336.391,28.938 2335.75,29.078 Q2335.109,29.234 2334.406,29.234 Q2331.906,29.234 2330.578,27.594 Q2329.266,25.938 2329.266,22.813 Q2329.266,19.688 2330.578,18.031 Q2331.906,16.375 2334.406,16.375 Q2335.109,16.375 2335.75,16.531 Q2336.406,16.688 2336.969,16.984 L2336.969,19.703 Q2336.344,19.125 2335.75,18.859 Q2335.156,18.578 2334.531,18.578 Q2333.188,18.578 2332.5,19.656 Q2331.813,20.719 2331.813,22.813 Q2331.813,24.906 2332.5,25.984 Q2333.188,27.047 2334.531,27.047 Q2335.156,27.047 2335.75,26.781 Q2336.344,26.5 2336.969,25.922 L2336.969,28.641 Z " fill="#000"/><text x="2348" y="27.847" fill="#000" font-size="14" textLength="138.38">ExecutionCollection</text><line x1="2320" y1="39" x2="2488.38" y2="39" style="stroke:#181818;stroke-width:0.5;"/><line x1="2320" y1="47" x2="2488.38" y2="47" style="stroke:#181818;stroke-width:0.5;"/></g><!--class SamplingCollection--><g class="entity" data-qualified-name="SamplingCollection" id="ent0029" data-source-line="12"><rect x="2118.5" y="115" width="166.777" height="48" fill="#F1F1F1" style="stroke:#181818;stroke-width:0.5;" rx="2.5" ry="2.5"/><ellipse cx="2133.5" cy="131" rx="11" ry="11" fill="#ADD1B2" style="stroke:#181818;stroke-width:1;"/><path d="M2136.469,136.641 Q2135.891,136.938 2135.25,137.078 Q2134.609,137.234 2133.906,137.234 Q2131.406,137.234 2130.078,135.594 Q2128.766,133.938 2128.766,130.813 Q2128.766,127.688 2130.078,126.031 Q2131.406,124.375 2133.906,124.375 Q2134.609,124.375 2135.25,124.531 Q2135.906,124.688 2136.469,124.984 L2136.469,127.703 Q2135.844,127.125 2135.25,126.859 Q2134.656,126.578 2134.031,126.578 Q2132.688,126.578 2132,127.656 Q2131.313,128.719 2131.313,130.813 Q2131.313,132.906 2132,133.984 Q2132.688,135.047 2134.031,135.047 Q2134.656,135.047 2135.25,134.781 Q2135.844,134.5 2136.469,133.922 L2136.469,136.641 Z " fill="#000"/><text x="2147.5" y="135.847" fill="#000" font-size="14" textLength="134.777">SamplingCollection</text><line x1="2119.5" y1="147" x2="2284.277" y2="147" style="stroke:#181818;stroke-width:0.5;"/><line x1="2119.5" y1="155" x2="2284.277" y2="155" style="stroke:#181818;stroke-width:0.5;"/></g><!--class Sensor--><g class="entity" data-qualified-name="Sensor" id="ent0032" data-source-line="14"><rect x="2122" y="223" width="79.988" height="48" fill="#F1F1F1" style="stroke:#181818;stroke-width:0.5;" rx="2.5" ry="2.5"/><ellipse cx="2137" cy="239" rx="11" ry="11" fill="#ADD1B2" style="stroke:#181818;stroke-width:1;"/><path d="M2139.969,244.641 Q2139.391,244.938 2138.75,245.078 Q2138.109,245.234 2137.406,245.234 Q2134.906,245.234 2133.578,243.594 Q2132.266,241.938 2132.266,238.813 Q2132.266,235.688 2133.578,234.031 Q2134.906,232.375 2137.406,232.375 Q2138.109,232.375 2138.75,232.531 Q2139.406,232.688 2139.969,232.984 L2139.969,235.703 Q2139.344,235.125 2138.75,234.859 Q2138.156,234.578 2137.531,234.578 Q2136.188,234.578 2135.5,235.656 Q2134.813,236.719 2134.813,238.813 Q2134.813,240.906 2135.5,241.984 Q2136.188,243.047 2137.531,243.047 Q2138.156,243.047 2138.75,242.781 Q2139.344,242.5 2139.969,241.922 L2139.969,244.641 Z " fill="#000"/><text x="2151" y="243.847" fill="#000" font-size="14" textLength="47.988">Sensor</text><line x1="2123" y1="255" x2="2200.988" y2="255" style="stroke:#181818;stroke-width:0.5;"/><line x1="2123" y1="263" x2="2200.988" y2="263" style="stroke:#181818;stroke-width:0.5;"/></g><!--class Execution--><g class="entity" data-qualified-name="Execution" id="ent0034" data-source-line="15"><rect x="2876.5" y="7" width="101.132" height="48" fill="#F1F1F1" style="stroke:#181818;stroke-width:0.5;" rx="2.5" ry="2.5"/><ellipse cx="2891.5" cy="23" rx="11" ry="11" fill="#ADD1B2" style="stroke:#181818;stroke-width:1;"/><path d="M2894.469,28.641 Q2893.891,28.938 2893.25,29.078 Q2892.609,29.234 2891.906,29.234 Q2889.406,29.234 2888.078,27.594 Q2886.766,25.938 2886.766,22.813 Q2886.766,19.688 2888.078,18.031 Q2889.406,16.375 2891.906,16.375 Q2892.609,16.375 2893.25,16.531 Q2893.906,16.688 2894.469,16.984 L2894.469,19.703 Q2893.844,19.125 2893.25,18.859 Q2892.656,18.578 2892.031,18.578 Q2890.688,18.578 2890,19.656 Q2889.313,20.719 2889.313,22.813 Q2889.313,24.906 2890,25.984 Q2890.688,27.047 2892.031,27.047 Q2892.656,27.047 2893.25,26.781 Q2893.844,26.5 2894.469,25.922 L2894.469,28.641 Z " fill="#000"/><text x="2905.5" y="27.847" fill="#000" font-size="14" textLength="69.132">Execution</text><line x1="2877.5" y1="39" x2="2976.632" y2="39" style="stroke:#181818;stroke-width:0.5;"/><line x1="2877.5" y1="47" x2="2976.632" y2="47" style="stroke:#181818;stroke-width:0.5;"/></g><!--class Sampling--><g class="entity" data-qualified-name="Sampling" id="ent0035" data-source-line="15"><rect x="2744" y="115" width="97.529" height="48" fill="#F1F1F1" style="stroke:#181818;stroke-width:0.5;" rx="2.5" ry="2.5"/><ellipse cx="2759" cy="131" rx="11" ry="11" fill="#ADD1B2" style="stroke:#181818;stroke-width:1;"/><path d="M2761.969,136.641 Q2761.391,136.938 2760.75,137.078 Q2760.109,137.234 2759.406,137.234 Q2756.906,137.234 2755.578,135.594 Q2754.266,133.938 2754.266,130.813 Q2754.266,127.688 2755.578,126.031 Q2756.906,124.375 2759.406,124.375 Q2760.109,124.375 2760.75,124.531 Q2761.406,124.688 2761.969,124.984 L2761.969,127.703 Q2761.344,127.125 2760.75,126.859 Q2760.156,126.578 2759.531,126.578 Q2758.188,126.578 2757.5,127.656 Q2756.813,128.719 2756.813,130.813 Q2756.813,132.906 2757.5,133.984 Q2758.188,135.047 2759.531,135.047 Q2760.156,135.047 2760.75,134.781 Q2761.344,134.5 2761.969,133.922 L2761.969,136.641 Z " fill="#000"/><text x="2773" y="135.847" fill="#000" font-size="14" textLength="65.529">Sampling</text><line x1="2745" y1="147" x2="2840.529" y2="147" style="stroke:#181818;stroke-width:0.5;"/><line x1="2745" y1="155" x2="2840.529" y2="155" style="stroke:#181818;stroke-width:0.5;"/></g><!--class Actuation--><g class="entity" data-qualified-name="Actuation" id="ent0037" data-source-line="16"><rect x="2877.5" y="115" width="99.033" height="48" fill="#F1F1F1" style="stroke:#181818;stroke-width:0.5;" rx="2.5" ry="2.5"/><ellipse cx="2892.5" cy="131" rx="11" ry="11" fill="#ADD1B2" style="stroke:#181818;stroke-width:1;"/><path d="M2895.469,136.641 Q2894.891,136.938 2894.25,137.078 Q2893.609,137.234 2892.906,137.234 Q2890.406,137.234 2889.078,135.594 Q2887.766,133.938 2887.766,130.813 Q2887.766,127.688 2889.078,126.031 Q2890.406,124.375 2892.906,124.375 Q2893.609,124.375 2894.25,124.531 Q2894.906,124.688 2895.469,124.984 L2895.469,127.703 Q2894.844,127.125 2894.25,126.859 Q2893.656,126.578 2893.031,126.578 Q2891.688,126.578 2891,127.656 Q2890.313,128.719 2890.313,130.813 Q2890.313,132.906 2891,133.984 Q2891.688,135.047 2893.031,135.047 Q2893.656,135.047 2894.25,134.781 Q2894.844,134.5 2895.469,133.922 L2895.469,136.641 Z " fill="#000"/><text x="2906.5" y="135.847" fill="#000" font-size="14" textLength="67.033">Actuation</text><line x1="2878.5" y1="147" x2="2975.533" y2="147" style="stroke:#181818;stroke-width:0.5;"/><line x1="2878.5" y1="155" x2="2975.533" y2="155" style="stroke:#181818;stroke-width:0.5;"/></g><!--class ActuationCollection--><g class="entity" data-qualified-name="ActuationCollection" id="ent0039" data-source-line="17"><rect x="2320" y="115" width="168.281" height="48" fill="#F1F1F1" style="stroke:#181818;stroke-width:0.5;" rx="2.5" ry="2.5"/><ellipse cx="2335" cy="131" rx="11" ry="11" fill="#ADD1B2" style="stroke:#181818;stroke-width:1;"/><path d="M2337.969,136.641 Q2337.391,136.938 2336.75,137.078 Q2336.109,137.234 2335.406,137.234 Q2332.906,137.234 2331.578,135.594 Q2330.266,133.938 2330.266,130.813 Q2330.266,127.688 2331.578,126.031 Q2332.906,124.375 2335.406,124.375 Q2336.109,124.375 2336.75,124.531 Q2337.406,124.688 2337.969,124.984 L2337.969,127.703 Q2337.344,127.125 2336.75,126.859 Q2336.156,126.578 2335.531,126.578 Q2334.188,126.578 2333.5,127.656 Q2332.813,128.719 2332.813,130.813 Q2332.813,132.906 2333.5,133.984 Q2334.188,135.047 2335.531,135.047 Q2336.156,135.047 2336.75,134.781 Q2337.344,134.5 2337.969,133.922 L2337.969,136.641 Z " fill="#000"/><text x="2349" y="135.847" fill="#000" font-size="14" textLength="136.281">ActuationCollection</text><line x1="2321" y1="147" x2="2487.281" y2="147" style="stroke:#181818;stroke-width:0.5;"/><line x1="2321" y1="155" x2="2487.281" y2="155" style="stroke:#181818;stroke-width:0.5;"/></g><!--class ObservationCollection--><g class="entity" data-qualified-name="ObservationCollection" id="ent0041" data-source-line="18"><rect x="2523" y="115" width="186.499" height="48" fill="#F1F1F1" style="stroke:#181818;stroke-width:0.5;" rx="2.5" ry="2.5"/><ellipse cx="2538" cy="131" rx="11" ry="11" fill="#ADD1B2" style="stroke:#181818;stroke-width:1;"/><path d="M2540.969,136.641 Q2540.391,136.938 2539.75,137.078 Q2539.109,137.234 2538.406,137.234 Q2535.906,137.234 2534.578,135.594 Q2533.266,133.938 2533.266,130.813 Q2533.266,127.688 2534.578,126.031 Q2535.906,124.375 2538.406,124.375 Q2539.109,124.375 2539.75,124.531 Q2540.406,124.688 2540.969,124.984 L2540.969,127.703 Q2540.344,127.125 2539.75,126.859 Q2539.156,126.578 2538.531,126.578 Q2537.188,126.578 2536.5,127.656 Q2535.813,128.719 2535.813,130.813 Q2535.813,132.906 2536.5,133.984 Q2537.188,135.047 2538.531,135.047 Q2539.156,135.047 2539.75,134.781 Q2540.344,134.5 2540.969,133.922 L2540.969,136.641 Z " fill="#000"/><text x="2552" y="135.847" fill="#000" font-size="14" textLength="154.499">ObservationCollection</text><line x1="2524" y1="147" x2="2708.499" y2="147" style="stroke:#181818;stroke-width:0.5;"/><line x1="2524" y1="155" x2="2708.499" y2="155" style="stroke:#181818;stroke-width:0.5;"/></g><!--class Observation--><g class="entity" data-qualified-name="Observation" id="ent0043" data-source-line="19"><rect x="3011.5" y="115" width="117.251" height="48" fill="#F1F1F1" style="stroke:#181818;stroke-width:0.5;" rx="2.5" ry="2.5"/><ellipse cx="3026.5" cy="131" rx="11" ry="11" fill="#ADD1B2" style="stroke:#181818;stroke-width:1;"/><path d="M3029.469,136.641 Q3028.891,136.938 3028.25,137.078 Q3027.609,137.234 3026.906,137.234 Q3024.406,137.234 3023.078,135.594 Q3021.766,133.938 3021.766,130.813 Q3021.766,127.688 3023.078,126.031 Q3024.406,124.375 3026.906,124.375 Q3027.609,124.375 3028.25,124.531 Q3028.906,124.688 3029.469,124.984 L3029.469,127.703 Q3028.844,127.125 3028.25,126.859 Q3027.656,126.578 3027.031,126.578 Q3025.688,126.578 3025,127.656 Q3024.313,128.719 3024.313,130.813 Q3024.313,132.906 3025,133.984 Q3025.688,135.047 3027.031,135.047 Q3027.656,135.047 3028.25,134.781 Q3028.844,134.5 3029.469,133.922 L3029.469,136.641 Z " fill="#000"/><text x="3040.5" y="135.847" fill="#000" font-size="14" textLength="85.251">Observation</text><line x1="3012.5" y1="147" x2="3127.751" y2="147" style="stroke:#181818;stroke-width:0.5;"/><line x1="3012.5" y1="155" x2="3127.751" y2="155" style="stroke:#181818;stroke-width:0.5;"/></g><!--class FeatureOfInterest--><g class="entity" data-qualified-name="FeatureOfInterest" id="ent0045" data-source-line="20"><rect x="7" y="7" width="156.182" height="48" fill="#F1F1F1" style="stroke:#181818;stroke-width:0.5;" rx="2.5" ry="2.5"/><ellipse cx="22" cy="23" rx="11" ry="11" fill="#ADD1B2" style="stroke:#181818;stroke-width:1;"/><path d="M24.969,28.641 Q24.391,28.938 23.75,29.078 Q23.109,29.234 22.406,29.234 Q19.906,29.234 18.578,27.594 Q17.266,25.938 17.266,22.813 Q17.266,19.688 18.578,18.031 Q19.906,16.375 22.406,16.375 Q23.109,16.375 23.75,16.531 Q24.406,16.688 24.969,16.984 L24.969,19.703 Q24.344,19.125 23.75,18.859 Q23.156,18.578 22.531,18.578 Q21.188,18.578 20.5,19.656 Q19.813,20.719 19.813,22.813 Q19.813,24.906 20.5,25.984 Q21.188,27.047 22.531,27.047 Q23.156,27.047 23.75,26.781 Q24.344,26.5 24.969,25.922 L24.969,28.641 Z " fill="#000"/><text x="36" y="27.847" fill="#000" font-size="14" textLength="124.182">FeatureOfInterest</text><line x1="8" y1="39" x2="162.182" y2="39" style="stroke:#181818;stroke-width:0.5;"/><line x1="8" y1="47" x2="162.182" y2="47" style="stroke:#181818;stroke-width:0.5;"/></g><!--class Stimulus--><g class="entity" data-qualified-name="Stimulus" id="ent0046" data-source-line="21"><rect x="198.5" y="7" width="92.833" height="48" fill="#F1F1F1" style="stroke:#181818;stroke-width:0.5;" rx="2.5" ry="2.5"/><ellipse cx="213.5" cy="23" rx="11" ry="11" fill="#ADD1B2" style="stroke:#181818;stroke-width:1;"/><path d="M216.469,28.641 Q215.891,28.938 215.25,29.078 Q214.609,29.234 213.906,29.234 Q211.406,29.234 210.078,27.594 Q208.766,25.938 208.766,22.813 Q208.766,19.688 210.078,18.031 Q211.406,16.375 213.906,16.375 Q214.609,16.375 215.25,16.531 Q215.906,16.688 216.469,16.984 L216.469,19.703 Q215.844,19.125 215.25,18.859 Q214.656,18.578 214.031,18.578 Q212.688,18.578 212,19.656 Q211.313,20.719 211.313,22.813 Q211.313,24.906 212,25.984 Q212.688,27.047 214.031,27.047 Q214.656,27.047 215.25,26.781 Q215.844,26.5 216.469,25.922 L216.469,28.641 Z " fill="#000"/><text x="227.5" y="27.847" fill="#000" font-size="14" textLength="60.833">Stimulus</text><line x1="199.5" y1="39" x2="290.333" y2="39" style="stroke:#181818;stroke-width:0.5;"/><line x1="199.5" y1="47" x2="290.333" y2="47" style="stroke:#181818;stroke-width:0.5;"/></g><!--class Deployment--><g class="entity" data-qualified-name="Deployment" id="ent0047" data-source-line="22"><rect x="327" y="7" width="117.634" height="48" fill="#F1F1F1" style="stroke:#181818;stroke-width:0.5;" rx="2.5" ry="2.5"/><ellipse cx="342" cy="23" rx="11" ry="11" fill="#ADD1B2" style="stroke:#181818;stroke-width:1;"/><path d="M344.969,28.641 Q344.391,28.938 343.75,29.078 Q343.109,29.234 342.406,29.234 Q339.906,29.234 338.578,27.594 Q337.266,25.938 337.266,22.813 Q337.266,19.688 338.578,18.031 Q339.906,16.375 342.406,16.375 Q343.109,16.375 343.75,16.531 Q344.406,16.688 344.969,16.984 L344.969,19.703 Q344.344,19.125 343.75,18.859 Q343.156,18.578 342.531,18.578 Q341.188,18.578 340.5,19.656 Q339.813,20.719 339.813,22.813 Q339.813,24.906 340.5,25.984 Q341.188,27.047 342.531,27.047 Q343.156,27.047 343.75,26.781 Q344.344,26.5 344.969,25.922 L344.969,28.641 Z " fill="#000"/><text x="356" y="27.847" fill="#000" font-size="14" textLength="85.634">Deployment</text><line x1="328" y1="39" x2="443.634" y2="39" style="stroke:#181818;stroke-width:0.5;"/><line x1="328" y1="47" x2="443.634" y2="47" style="stroke:#181818;stroke-width:0.5;"/></g><!--class SampleCollection--><g class="entity" data-qualified-name="SampleCollection" id="ent0048" data-source-line="23"><rect x="8" y="115" width="153.741" height="48" fill="#F1F1F1" style="stroke:#181818;stroke-width:0.5;" rx="2.5" ry="2.5"/><ellipse cx="23" cy="131" rx="11" ry="11" fill="#ADD1B2" style="stroke:#181818;stroke-width:1;"/><path d="M25.969,136.641 Q25.391,136.938 24.75,137.078 Q24.109,137.234 23.406,137.234 Q20.906,137.234 19.578,135.594 Q18.266,133.938 18.266,130.813 Q18.266,127.688 19.578,126.031 Q20.906,124.375 23.406,124.375 Q24.109,124.375 24.75,124.531 Q25.406,124.688 25.969,124.984 L25.969,127.703 Q25.344,127.125 24.75,126.859 Q24.156,126.578 23.531,126.578 Q22.188,126.578 21.5,127.656 Q20.813,128.719 20.813,130.813 Q20.813,132.906 21.5,133.984 Q22.188,135.047 23.531,135.047 Q24.156,135.047 24.75,134.781 Q25.344,134.5 25.969,133.922 L25.969,136.641 Z " fill="#000"/><text x="37" y="135.847" fill="#000" font-size="14" textLength="121.741">SampleCollection</text><line x1="9" y1="147" x2="160.741" y2="147" style="stroke:#181818;stroke-width:0.5;"/><line x1="9" y1="155" x2="160.741" y2="155" style="stroke:#181818;stroke-width:0.5;"/></g><!--class Result--><g class="entity" data-qualified-name="Result" id="ent0049" data-source-line="24"><rect x="197" y="115" width="75.887" height="48" fill="#F1F1F1" style="stroke:#181818;stroke-width:0.5;" rx="2.5" ry="2.5"/><ellipse cx="212" cy="131" rx="11" ry="11" fill="#ADD1B2" style="stroke:#181818;stroke-width:1;"/><path d="M214.969,136.641 Q214.391,136.938 213.75,137.078 Q213.109,137.234 212.406,137.234 Q209.906,137.234 208.578,135.594 Q207.266,133.938 207.266,130.813 Q207.266,127.688 208.578,126.031 Q209.906,124.375 212.406,124.375 Q213.109,124.375 213.75,124.531 Q214.406,124.688 214.969,124.984 L214.969,127.703 Q214.344,127.125 213.75,126.859 Q213.156,126.578 212.531,126.578 Q211.188,126.578 210.5,127.656 Q209.813,128.719 209.813,130.813 Q209.813,132.906 210.5,133.984 Q211.188,135.047 212.531,135.047 Q213.156,135.047 213.75,134.781 Q214.344,134.5 214.969,133.922 L214.969,136.641 Z " fill="#000"/><text x="226" y="135.847" fill="#000" font-size="14" textLength="43.887">Result</text><line x1="198" y1="147" x2="271.887" y2="147" style="stroke:#181818;stroke-width:0.5;"/><line x1="198" y1="155" x2="271.887" y2="155" style="stroke:#181818;stroke-width:0.5;"/></g><!--reverse link Property to ActuatableProperty--><g class="link" data-entity-1="ent0001" data-entity-2="ent0002" id="lnk3" data-source-line="1" data-link-type="extension"><path d="M509.837,64.526 C481.427,82.246 457.58,97.11 429.11,114.86" style="stroke:#181818;stroke-width:1;" fill="none" id="Property-backto-ActuatableProperty" codeLine="1"/><polygon points="525.11,55,506.662,59.435,513.013,69.617,525.11,55" fill="none" style="stroke:#181818;stroke-width:1;stroke-linejoin:miter;stroke-miterlimit:10;"/></g><!--reverse link Sample to MaterialSample--><g class="link" data-entity-1="ent0004" data-entity-2="ent0005" id="lnk6" data-source-line="2" data-link-type="extension"><path d="M908.357,64.444 C879.607,82.164 855.35,97.11 826.55,114.86" style="stroke:#181818;stroke-width:1;" fill="none" id="Sample-backto-MaterialSample" codeLine="2"/><polygon points="923.68,55,905.209,59.337,911.505,69.552,923.68,55" fill="none" style="stroke:#181818;stroke-width:1;stroke-linejoin:miter;stroke-miterlimit:10;"/></g><!--reverse link Property to ObservableProperty--><g class="link" data-entity-1="ent0001" data-entity-2="ent0007" id="lnk8" data-source-line="3" data-link-type="extension"><path d="M575.233,72.093 C581.063,89.753 583.44,96.94 589.3,114.68" style="stroke:#181818;stroke-width:1;" fill="none" id="Property-backto-ObservableProperty" codeLine="3"/><polygon points="569.59,55,569.535,73.974,580.93,70.212,569.59,55" fill="none" style="stroke:#181818;stroke-width:1;stroke-linejoin:miter;stroke-miterlimit:10;"/></g><!--reverse link Sample to SpatialSample--><g class="link" data-entity-1="ent0004" data-entity-2="ent0009" id="lnk10" data-source-line="4" data-link-type="extension"><path d="M961,73 C961,90.66 961,96.94 961,114.68" style="stroke:#181818;stroke-width:1;" fill="none" id="Sample-backto-SpatialSample" codeLine="4"/><polygon points="961,55,955,73,967,73,961,55" fill="none" style="stroke:#181818;stroke-width:1;stroke-linejoin:miter;stroke-miterlimit:10;"/></g><!--reverse link Sample to StatisticalSample--><g class="link" data-entity-1="ent0004" data-entity-2="ent0011" id="lnk12" data-source-line="5" data-link-type="extension"><path d="M1015.328,64.172 C1045.248,81.892 1070.95,97.11 1100.93,114.86" style="stroke:#181818;stroke-width:1;" fill="none" id="Sample-backto-StatisticalSample" codeLine="5"/><polygon points="999.84,55,1012.27,69.335,1018.385,59.01,999.84,55" fill="none" style="stroke:#181818;stroke-width:1;stroke-linejoin:miter;stroke-miterlimit:10;"/></g><!--reverse link Procedure to ActuatingProcedure--><g class="link" data-entity-1="ent0013" data-entity-2="ent0014" id="lnk15" data-source-line="6" data-link-type="extension"><path d="M1484.833,63.173 C1450.063,80.893 1418.24,97.11 1383.4,114.86" style="stroke:#181818;stroke-width:1;" fill="none" id="Procedure-backto-ActuatingProcedure" codeLine="6"/><polygon points="1500.87,55,1482.108,57.827,1487.557,68.519,1500.87,55" fill="none" style="stroke:#181818;stroke-width:1;stroke-linejoin:miter;stroke-miterlimit:10;"/></g><!--reverse link Procedure to ObservingProcedure--><g class="link" data-entity-1="ent0013" data-entity-2="ent0016" id="lnk17" data-source-line="7" data-link-type="extension"><path d="M1546,73 C1546,90.66 1546,96.94 1546,114.68" style="stroke:#181818;stroke-width:1;" fill="none" id="Procedure-backto-ObservingProcedure" codeLine="7"/><polygon points="1546,55,1540,73,1552,73,1546,55" fill="none" style="stroke:#181818;stroke-width:1;stroke-linejoin:miter;stroke-miterlimit:10;"/></g><!--reverse link Procedure to SamplingProcedure--><g class="link" data-entity-1="ent0013" data-entity-2="ent0018" id="lnk19" data-source-line="8" data-link-type="extension"><path d="M1606.941,63.205 C1641.541,80.925 1673.15,97.11 1707.81,114.86" style="stroke:#181818;stroke-width:1;" fill="none" id="Procedure-backto-SamplingProcedure" codeLine="8"/><polygon points="1590.92,55,1604.206,68.545,1609.676,57.865,1590.92,55" fill="none" style="stroke:#181818;stroke-width:1;stroke-linejoin:miter;stroke-miterlimit:10;"/></g><!--reverse link Asset to Platform--><g class="link" data-entity-1="ent0020" data-entity-2="ent0021" id="lnk22" data-source-line="9" data-link-type="extension"><path d="M1956.784,70.602 C1946.624,88.262 1941.63,96.94 1931.42,114.68" style="stroke:#181818;stroke-width:1;" fill="none" id="Asset-backto-Platform" codeLine="9"/><polygon points="1965.76,55,1951.583,67.61,1961.985,73.594,1965.76,55" fill="none" style="stroke:#181818;stroke-width:1;stroke-linejoin:miter;stroke-miterlimit:10;"/></g><!--reverse link System to Sampler--><g class="link" data-entity-1="ent0023" data-entity-2="ent0024" id="lnk25" data-source-line="10" data-link-type="extension"><path d="M1999.886,174.588 C1978.896,192.248 1963.81,204.94 1942.72,222.68" style="stroke:#181818;stroke-width:1;" fill="none" id="System-backto-Sampler" codeLine="10"/><polygon points="2013.66,163,1996.024,169.997,2003.749,179.18,2013.66,163" fill="none" style="stroke:#181818;stroke-width:1;stroke-linejoin:miter;stroke-miterlimit:10;"/></g><!--reverse link System to Actuator--><g class="link" data-entity-1="ent0023" data-entity-2="ent0026" id="lnk27" data-source-line="11" data-link-type="extension"><path d="M2041,181 C2041,198.66 2041,204.94 2041,222.68" style="stroke:#181818;stroke-width:1;" fill="none" id="System-backto-Actuator" codeLine="11"/><polygon points="2041,163,2035,181,2047,181,2041,163" fill="none" style="stroke:#181818;stroke-width:1;stroke-linejoin:miter;stroke-miterlimit:10;"/></g><!--reverse link ExecutionCollection to SamplingCollection--><g class="link" data-entity-1="ent0028" data-entity-2="ent0029" id="lnk30" data-source-line="12" data-link-type="extension"><path d="M2344.231,63.364 C2310.461,81.084 2279.93,97.11 2246.09,114.86" style="stroke:#181818;stroke-width:1;" fill="none" id="ExecutionCollection-backto-SamplingCollection" codeLine="12"/><polygon points="2360.17,55,2341.443,58.051,2347.019,68.677,2360.17,55" fill="none" style="stroke:#181818;stroke-width:1;stroke-linejoin:miter;stroke-miterlimit:10;"/></g><!--reverse link Asset to System--><g class="link" data-entity-1="ent0020" data-entity-2="ent0023" id="lnk31" data-source-line="13" data-link-type="extension"><path d="M2001.538,70.537 C2011.868,88.197 2016.98,96.94 2027.36,114.68" style="stroke:#181818;stroke-width:1;" fill="none" id="Asset-backto-System" codeLine="13"/><polygon points="1992.45,55,1996.359,73.567,2006.717,67.508,1992.45,55" fill="none" style="stroke:#181818;stroke-width:1;stroke-linejoin:miter;stroke-miterlimit:10;"/></g><!--reverse link System to Sensor--><g class="link" data-entity-1="ent0023" data-entity-2="ent0032" id="lnk33" data-source-line="14" data-link-type="extension"><path d="M2080.797,174.864 C2100.947,192.524 2115.13,204.94 2135.38,222.68" style="stroke:#181818;stroke-width:1;" fill="none" id="System-backto-Sensor" codeLine="14"/><polygon points="2067.26,163,2076.842,179.376,2084.751,170.352,2067.26,163" fill="none" style="stroke:#181818;stroke-width:1;stroke-linejoin:miter;stroke-miterlimit:10;"/></g><!--reverse link Execution to Sampling--><g class="link" data-entity-1="ent0034" data-entity-2="ent0035" id="lnk36" data-source-line="15" data-link-type="extension"><path d="M2883.804,66.169 C2861.484,83.829 2844.91,96.94 2822.48,114.68" style="stroke:#181818;stroke-width:1;" fill="none" id="Execution-backto-Sampling" codeLine="15"/><polygon points="2897.92,55,2880.081,61.463,2887.527,70.874,2897.92,55" fill="none" style="stroke:#181818;stroke-width:1;stroke-linejoin:miter;stroke-miterlimit:10;"/></g><!--reverse link Execution to Actuation--><g class="link" data-entity-1="ent0034" data-entity-2="ent0037" id="lnk38" data-source-line="16" data-link-type="extension"><path d="M2927,73 C2927,90.66 2927,96.94 2927,114.68" style="stroke:#181818;stroke-width:1;" fill="none" id="Execution-backto-Actuation" codeLine="16"/><polygon points="2927,55,2921,73,2933,73,2927,55" fill="none" style="stroke:#181818;stroke-width:1;stroke-linejoin:miter;stroke-miterlimit:10;"/></g><!--reverse link ExecutionCollection to ActuationCollection--><g class="link" data-entity-1="ent0028" data-entity-2="ent0039" id="lnk40" data-source-line="17" data-link-type="extension"><path d="M2404,73 C2404,90.66 2404,96.94 2404,114.68" style="stroke:#181818;stroke-width:1;" fill="none" id="ExecutionCollection-backto-ActuationCollection" codeLine="17"/><polygon points="2404,55,2398,73,2410,73,2404,55" fill="none" style="stroke:#181818;stroke-width:1;stroke-linejoin:miter;stroke-miterlimit:10;"/></g><!--reverse link ExecutionCollection to ObservationCollection--><g class="link" data-entity-1="ent0028" data-entity-2="ent0041" id="lnk42" data-source-line="18" data-link-type="extension"><path d="M2466.1,63.05 C2501.54,80.77 2534.22,97.11 2569.72,114.86" style="stroke:#181818;stroke-width:1;" fill="none" id="ExecutionCollection-backto-ObservationCollection" codeLine="18"/><polygon points="2450,55,2463.416,68.416,2468.783,57.683,2450,55" fill="none" style="stroke:#181818;stroke-width:1;stroke-linejoin:miter;stroke-miterlimit:10;"/></g><!--reverse link Execution to Observation--><g class="link" data-entity-1="ent0034" data-entity-2="ent0043" id="lnk44" data-source-line="19" data-link-type="extension"><path d="M2972.49,65.72 C2996.31,83.38 3014.61,96.94 3038.54,114.68" style="stroke:#181818;stroke-width:1;" fill="none" id="Execution-backto-Observation" codeLine="19"/><polygon points="2958.03,55,2968.916,70.54,2976.063,60.9,2958.03,55" fill="none" style="stroke:#181818;stroke-width:1;stroke-linejoin:miter;stroke-miterlimit:10;"/></g><?plantuml-src VL91RiCW4Bpp2dyWFyWbQXifXoXM_G929n7I0XQxHBNKnzSDo854xWrcPcT62tqC8w9CtVPdi-bsHf8MVIRq1LU3TYCXqqSjY5PJnbJVp9xEZ7XRdHr6BO_HXf6POR6cDZRuIX5rA-kl2_wioDd_AUxEZM373CbaJrek8JerJ2nmrGHYW-Kc8QgFRvWaDlYtG0JpTsfp7dWTbBtQ67Yk3LkRPxoiOdPTRR18gWghul9eQ_8NaJAacRizjCmxF5qEVluHO2du8DObIbokxnWfJ0v-uUyxhP8o_0bE9By0?></g></svg>