<?plantuml 1.2026.2?><svg xmlns="http://www.w3.org/2000/svg" xmlns:xlink="http://www.w3.org/1999/xlink" contentStyleType="text/css" data-diagram-type="CLASS" height="278px" preserveAspectRatio="none" style="width:2834px;height:278px;background:#FFFFFF;" version="1.1" viewBox="0 0 2834 278" width="2834px" zoomAndPan="magnify"><defs/><g><!--class Property--><g class="entity" data-qualified-name="Property" data-source-line="1" id="ent0002"><rect fill="#F1F1F1" height="48" rx="2.5" ry="2.5" style="stroke:#181818;stroke-width:0.5;" width="91.7939" x="147.5" y="7"/><ellipse cx="162.5" cy="23" fill="#ADD1B2" rx="11" ry="11" style="stroke:#181818;stroke-width:1;"/><path d="M165.4688,28.6406 Q164.8906,28.9375 164.25,29.0781 Q163.6094,29.2344 162.9063,29.2344 Q160.4063,29.2344 159.0781,27.5938 Q157.7656,25.9375 157.7656,22.8125 Q157.7656,19.6875 159.0781,18.0313 Q160.4063,16.375 162.9063,16.375 Q163.6094,16.375 164.25,16.5313 Q164.9063,16.6875 165.4688,16.9844 L165.4688,19.7031 Q164.8438,19.125 164.25,18.8594 Q163.6563,18.5781 163.0313,18.5781 Q161.6875,18.5781 161,19.6563 Q160.3125,20.7188 160.3125,22.8125 Q160.3125,24.9063 161,25.9844 Q161.6875,27.0469 163.0313,27.0469 Q163.6563,27.0469 164.25,26.7813 Q164.8438,26.5 165.4688,25.9219 L165.4688,28.6406 Z " fill="#000000"/><text fill="#000000" font-family="sans-serif" font-size="14" lengthAdjust="spacing" textLength="59.7939" x="176.5" y="27.8467">Property</text><line style="stroke:#181818;stroke-width:0.5;" x1="148.5" x2="238.2939" y1="39" y2="39"/><line style="stroke:#181818;stroke-width:0.5;" x1="148.5" x2="238.2939" y1="47" y2="47"/></g><!--class ActuatableProperty--><g class="entity" data-qualified-name="ActuatableProperty" data-source-line="1" id="ent0003"><rect fill="#F1F1F1" height="48" rx="2.5" ry="2.5" style="stroke:#181818;stroke-width:0.5;" width="167.4678" x="7" y="115"/><ellipse cx="22" cy="131" fill="#ADD1B2" rx="11" ry="11" style="stroke:#181818;stroke-width:1;"/><path d="M24.9688,136.6406 Q24.3906,136.9375 23.75,137.0781 Q23.1094,137.2344 22.4063,137.2344 Q19.9063,137.2344 18.5781,135.5938 Q17.2656,133.9375 17.2656,130.8125 Q17.2656,127.6875 18.5781,126.0313 Q19.9063,124.375 22.4063,124.375 Q23.1094,124.375 23.75,124.5313 Q24.4063,124.6875 24.9688,124.9844 L24.9688,127.7031 Q24.3438,127.125 23.75,126.8594 Q23.1563,126.5781 22.5313,126.5781 Q21.1875,126.5781 20.5,127.6563 Q19.8125,128.7188 19.8125,130.8125 Q19.8125,132.9063 20.5,133.9844 Q21.1875,135.0469 22.5313,135.0469 Q23.1563,135.0469 23.75,134.7813 Q24.3438,134.5 24.9688,133.9219 L24.9688,136.6406 Z " fill="#000000"/><text fill="#000000" font-family="sans-serif" font-size="14" lengthAdjust="spacing" textLength="135.4678" x="36" y="135.8467">ActuatableProperty</text><line style="stroke:#181818;stroke-width:0.5;" x1="8" x2="173.4678" y1="147" y2="147"/><line style="stroke:#181818;stroke-width:0.5;" x1="8" x2="173.4678" y1="155" y2="155"/></g><!--class ObservableProperty--><g class="entity" data-qualified-name="ObservableProperty" data-source-line="2" id="ent0005"><rect fill="#F1F1F1" height="48" rx="2.5" ry="2.5" style="stroke:#181818;stroke-width:0.5;" width="171.6172" x="209.5" y="115"/><ellipse cx="224.5" cy="131" fill="#ADD1B2" rx="11" ry="11" style="stroke:#181818;stroke-width:1;"/><path d="M227.4688,136.6406 Q226.8906,136.9375 226.25,137.0781 Q225.6094,137.2344 224.9063,137.2344 Q222.4063,137.2344 221.0781,135.5938 Q219.7656,133.9375 219.7656,130.8125 Q219.7656,127.6875 221.0781,126.0313 Q222.4063,124.375 224.9063,124.375 Q225.6094,124.375 226.25,124.5313 Q226.9063,124.6875 227.4688,124.9844 L227.4688,127.7031 Q226.8438,127.125 226.25,126.8594 Q225.6563,126.5781 225.0313,126.5781 Q223.6875,126.5781 223,127.6563 Q222.3125,128.7188 222.3125,130.8125 Q222.3125,132.9063 223,133.9844 Q223.6875,135.0469 225.0313,135.0469 Q225.6563,135.0469 226.25,134.7813 Q226.8438,134.5 227.4688,133.9219 L227.4688,136.6406 Z " fill="#000000"/><text fill="#000000" font-family="sans-serif" font-size="14" lengthAdjust="spacing" textLength="139.6172" x="238.5" y="135.8467">ObservableProperty</text><line style="stroke:#181818;stroke-width:0.5;" x1="210.5" x2="380.1172" y1="147" y2="147"/><line style="stroke:#181818;stroke-width:0.5;" x1="210.5" x2="380.1172" y1="155" y2="155"/></g><!--class Sample--><g class="entity" data-qualified-name="Sample" data-source-line="3" id="ent0007"><rect fill="#F1F1F1" height="48" rx="2.5" ry="2.5" style="stroke:#181818;stroke-width:0.5;" width="84.4932" x="617.5" y="7"/><ellipse cx="632.5" cy="23" fill="#ADD1B2" rx="11" ry="11" style="stroke:#181818;stroke-width:1;"/><path d="M635.4688,28.6406 Q634.8906,28.9375 634.25,29.0781 Q633.6094,29.2344 632.9063,29.2344 Q630.4063,29.2344 629.0781,27.5938 Q627.7656,25.9375 627.7656,22.8125 Q627.7656,19.6875 629.0781,18.0313 Q630.4063,16.375 632.9063,16.375 Q633.6094,16.375 634.25,16.5313 Q634.9063,16.6875 635.4688,16.9844 L635.4688,19.7031 Q634.8438,19.125 634.25,18.8594 Q633.6563,18.5781 633.0313,18.5781 Q631.6875,18.5781 631,19.6563 Q630.3125,20.7188 630.3125,22.8125 Q630.3125,24.9063 631,25.9844 Q631.6875,27.0469 633.0313,27.0469 Q633.6563,27.0469 634.25,26.7813 Q634.8438,26.5 635.4688,25.9219 L635.4688,28.6406 Z " fill="#000000"/><text fill="#000000" font-family="sans-serif" font-size="14" lengthAdjust="spacing" textLength="52.4932" x="646.5" y="27.8467">Sample</text><line style="stroke:#181818;stroke-width:0.5;" x1="618.5" x2="700.9932" y1="39" y2="39"/><line style="stroke:#181818;stroke-width:0.5;" x1="618.5" x2="700.9932" y1="47" y2="47"/></g><!--class MaterialSample--><g class="entity" data-qualified-name="MaterialSample" data-source-line="3" id="ent0008"><rect fill="#F1F1F1" height="48" rx="2.5" ry="2.5" style="stroke:#181818;stroke-width:0.5;" width="141.3682" x="417" y="115"/><ellipse cx="432" cy="131" fill="#ADD1B2" rx="11" ry="11" style="stroke:#181818;stroke-width:1;"/><path d="M434.9688,136.6406 Q434.3906,136.9375 433.75,137.0781 Q433.1094,137.2344 432.4063,137.2344 Q429.9063,137.2344 428.5781,135.5938 Q427.2656,133.9375 427.2656,130.8125 Q427.2656,127.6875 428.5781,126.0313 Q429.9063,124.375 432.4063,124.375 Q433.1094,124.375 433.75,124.5313 Q434.4063,124.6875 434.9688,124.9844 L434.9688,127.7031 Q434.3438,127.125 433.75,126.8594 Q433.1563,126.5781 432.5313,126.5781 Q431.1875,126.5781 430.5,127.6563 Q429.8125,128.7188 429.8125,130.8125 Q429.8125,132.9063 430.5,133.9844 Q431.1875,135.0469 432.5313,135.0469 Q433.1563,135.0469 433.75,134.7813 Q434.3438,134.5 434.9688,133.9219 L434.9688,136.6406 Z " fill="#000000"/><text fill="#000000" font-family="sans-serif" font-size="14" lengthAdjust="spacing" textLength="109.3682" x="446" y="135.8467">MaterialSample</text><line style="stroke:#181818;stroke-width:0.5;" x1="418" x2="557.3682" y1="147" y2="147"/><line style="stroke:#181818;stroke-width:0.5;" x1="418" x2="557.3682" y1="155" y2="155"/></g><!--class SpatialSample--><g class="entity" data-qualified-name="SpatialSample" data-source-line="4" id="ent0010"><rect fill="#F1F1F1" height="48" rx="2.5" ry="2.5" style="stroke:#181818;stroke-width:0.5;" width="132.6934" x="593" y="115"/><ellipse cx="608" cy="131" fill="#ADD1B2" rx="11" ry="11" style="stroke:#181818;stroke-width:1;"/><path d="M610.9688,136.6406 Q610.3906,136.9375 609.75,137.0781 Q609.1094,137.2344 608.4063,137.2344 Q605.9063,137.2344 604.5781,135.5938 Q603.2656,133.9375 603.2656,130.8125 Q603.2656,127.6875 604.5781,126.0313 Q605.9063,124.375 608.4063,124.375 Q609.1094,124.375 609.75,124.5313 Q610.4063,124.6875 610.9688,124.9844 L610.9688,127.7031 Q610.3438,127.125 609.75,126.8594 Q609.1563,126.5781 608.5313,126.5781 Q607.1875,126.5781 606.5,127.6563 Q605.8125,128.7188 605.8125,130.8125 Q605.8125,132.9063 606.5,133.9844 Q607.1875,135.0469 608.5313,135.0469 Q609.1563,135.0469 609.75,134.7813 Q610.3438,134.5 610.9688,133.9219 L610.9688,136.6406 Z " fill="#000000"/><text fill="#000000" font-family="sans-serif" font-size="14" lengthAdjust="spacing" textLength="100.6934" x="622" y="135.8467">SpatialSample</text><line style="stroke:#181818;stroke-width:0.5;" x1="594" x2="724.6934" y1="147" y2="147"/><line style="stroke:#181818;stroke-width:0.5;" x1="594" x2="724.6934" y1="155" y2="155"/></g><!--class StatisticalSample--><g class="entity" data-qualified-name="StatisticalSample" data-source-line="5" id="ent0012"><rect fill="#F1F1F1" height="48" rx="2.5" ry="2.5" style="stroke:#181818;stroke-width:0.5;" width="153.666" x="761.5" y="115"/><ellipse cx="776.5" cy="131" fill="#ADD1B2" rx="11" ry="11" style="stroke:#181818;stroke-width:1;"/><path d="M779.4688,136.6406 Q778.8906,136.9375 778.25,137.0781 Q777.6094,137.2344 776.9063,137.2344 Q774.4063,137.2344 773.0781,135.5938 Q771.7656,133.9375 771.7656,130.8125 Q771.7656,127.6875 773.0781,126.0313 Q774.4063,124.375 776.9063,124.375 Q777.6094,124.375 778.25,124.5313 Q778.9063,124.6875 779.4688,124.9844 L779.4688,127.7031 Q778.8438,127.125 778.25,126.8594 Q777.6563,126.5781 777.0313,126.5781 Q775.6875,126.5781 775,127.6563 Q774.3125,128.7188 774.3125,130.8125 Q774.3125,132.9063 775,133.9844 Q775.6875,135.0469 777.0313,135.0469 Q777.6563,135.0469 778.25,134.7813 Q778.8438,134.5 779.4688,133.9219 L779.4688,136.6406 Z " fill="#000000"/><text fill="#000000" font-family="sans-serif" font-size="14" lengthAdjust="spacing" textLength="121.666" x="790.5" y="135.8467">StatisticalSample</text><line style="stroke:#181818;stroke-width:0.5;" x1="762.5" x2="914.166" y1="147" y2="147"/><line style="stroke:#181818;stroke-width:0.5;" x1="762.5" x2="914.166" y1="155" y2="155"/></g><!--class Procedure--><g class="entity" data-qualified-name="Procedure" data-source-line="6" id="ent0014"><rect fill="#F1F1F1" height="48" rx="2.5" ry="2.5" style="stroke:#181818;stroke-width:0.5;" width="103.2031" x="1193" y="7"/><ellipse cx="1208" cy="23" fill="#ADD1B2" rx="11" ry="11" style="stroke:#181818;stroke-width:1;"/><path d="M1210.9688,28.6406 Q1210.3906,28.9375 1209.75,29.0781 Q1209.1094,29.2344 1208.4063,29.2344 Q1205.9063,29.2344 1204.5781,27.5938 Q1203.2656,25.9375 1203.2656,22.8125 Q1203.2656,19.6875 1204.5781,18.0313 Q1205.9063,16.375 1208.4063,16.375 Q1209.1094,16.375 1209.75,16.5313 Q1210.4063,16.6875 1210.9688,16.9844 L1210.9688,19.7031 Q1210.3438,19.125 1209.75,18.8594 Q1209.1563,18.5781 1208.5313,18.5781 Q1207.1875,18.5781 1206.5,19.6563 Q1205.8125,20.7188 1205.8125,22.8125 Q1205.8125,24.9063 1206.5,25.9844 Q1207.1875,27.0469 1208.5313,27.0469 Q1209.1563,27.0469 1209.75,26.7813 Q1210.3438,26.5 1210.9688,25.9219 L1210.9688,28.6406 Z " fill="#000000"/><text fill="#000000" font-family="sans-serif" font-size="14" lengthAdjust="spacing" textLength="71.2031" x="1222" y="27.8467">Procedure</text><line style="stroke:#181818;stroke-width:0.5;" x1="1194" x2="1295.2031" y1="39" y2="39"/><line style="stroke:#181818;stroke-width:0.5;" x1="1194" x2="1295.2031" y1="47" y2="47"/></g><!--class ActuatingProcedure--><g class="entity" data-qualified-name="ActuatingProcedure" data-source-line="6" id="ent0015"><rect fill="#F1F1F1" height="48" rx="2.5" ry="2.5" style="stroke:#181818;stroke-width:0.5;" width="170.5576" x="951" y="115"/><ellipse cx="966" cy="131" fill="#ADD1B2" rx="11" ry="11" style="stroke:#181818;stroke-width:1;"/><path d="M968.9688,136.6406 Q968.3906,136.9375 967.75,137.0781 Q967.1094,137.2344 966.4063,137.2344 Q963.9063,137.2344 962.5781,135.5938 Q961.2656,133.9375 961.2656,130.8125 Q961.2656,127.6875 962.5781,126.0313 Q963.9063,124.375 966.4063,124.375 Q967.1094,124.375 967.75,124.5313 Q968.4063,124.6875 968.9688,124.9844 L968.9688,127.7031 Q968.3438,127.125 967.75,126.8594 Q967.1563,126.5781 966.5313,126.5781 Q965.1875,126.5781 964.5,127.6563 Q963.8125,128.7188 963.8125,130.8125 Q963.8125,132.9063 964.5,133.9844 Q965.1875,135.0469 966.5313,135.0469 Q967.1563,135.0469 967.75,134.7813 Q968.3438,134.5 968.9688,133.9219 L968.9688,136.6406 Z " fill="#000000"/><text fill="#000000" font-family="sans-serif" font-size="14" lengthAdjust="spacing" textLength="138.5576" x="980" y="135.8467">ActuatingProcedure</text><line style="stroke:#181818;stroke-width:0.5;" x1="952" x2="1120.5576" y1="147" y2="147"/><line style="stroke:#181818;stroke-width:0.5;" x1="952" x2="1120.5576" y1="155" y2="155"/></g><!--class ObservingProcedure--><g class="entity" data-qualified-name="ObservingProcedure" data-source-line="7" id="ent0017"><rect fill="#F1F1F1" height="48" rx="2.5" ry="2.5" style="stroke:#181818;stroke-width:0.5;" width="174.707" x="1157" y="115"/><ellipse cx="1172" cy="131" fill="#ADD1B2" rx="11" ry="11" style="stroke:#181818;stroke-width:1;"/><path d="M1174.9688,136.6406 Q1174.3906,136.9375 1173.75,137.0781 Q1173.1094,137.2344 1172.4063,137.2344 Q1169.9063,137.2344 1168.5781,135.5938 Q1167.2656,133.9375 1167.2656,130.8125 Q1167.2656,127.6875 1168.5781,126.0313 Q1169.9063,124.375 1172.4063,124.375 Q1173.1094,124.375 1173.75,124.5313 Q1174.4063,124.6875 1174.9688,124.9844 L1174.9688,127.7031 Q1174.3438,127.125 1173.75,126.8594 Q1173.1563,126.5781 1172.5313,126.5781 Q1171.1875,126.5781 1170.5,127.6563 Q1169.8125,128.7188 1169.8125,130.8125 Q1169.8125,132.9063 1170.5,133.9844 Q1171.1875,135.0469 1172.5313,135.0469 Q1173.1563,135.0469 1173.75,134.7813 Q1174.3438,134.5 1174.9688,133.9219 L1174.9688,136.6406 Z " fill="#000000"/><text fill="#000000" font-family="sans-serif" font-size="14" lengthAdjust="spacing" textLength="142.707" x="1186" y="135.8467">ObservingProcedure</text><line style="stroke:#181818;stroke-width:0.5;" x1="1158" x2="1330.707" y1="147" y2="147"/><line style="stroke:#181818;stroke-width:0.5;" x1="1158" x2="1330.707" y1="155" y2="155"/></g><!--class SamplingProcedure--><g class="entity" data-qualified-name="SamplingProcedure" data-source-line="8" id="ent0019"><rect fill="#F1F1F1" height="48" rx="2.5" ry="2.5" style="stroke:#181818;stroke-width:0.5;" width="168.7324" x="1367" y="115"/><ellipse cx="1382" cy="131" fill="#ADD1B2" rx="11" ry="11" style="stroke:#181818;stroke-width:1;"/><path d="M1384.9688,136.6406 Q1384.3906,136.9375 1383.75,137.0781 Q1383.1094,137.2344 1382.4063,137.2344 Q1379.9063,137.2344 1378.5781,135.5938 Q1377.2656,133.9375 1377.2656,130.8125 Q1377.2656,127.6875 1378.5781,126.0313 Q1379.9063,124.375 1382.4063,124.375 Q1383.1094,124.375 1383.75,124.5313 Q1384.4063,124.6875 1384.9688,124.9844 L1384.9688,127.7031 Q1384.3438,127.125 1383.75,126.8594 Q1383.1563,126.5781 1382.5313,126.5781 Q1381.1875,126.5781 1380.5,127.6563 Q1379.8125,128.7188 1379.8125,130.8125 Q1379.8125,132.9063 1380.5,133.9844 Q1381.1875,135.0469 1382.5313,135.0469 Q1383.1563,135.0469 1383.75,134.7813 Q1384.3438,134.5 1384.9688,133.9219 L1384.9688,136.6406 Z " fill="#000000"/><text fill="#000000" font-family="sans-serif" font-size="14" lengthAdjust="spacing" textLength="136.7324" x="1396" y="135.8467">SamplingProcedure</text><line style="stroke:#181818;stroke-width:0.5;" x1="1368" x2="1534.7324" y1="147" y2="147"/><line style="stroke:#181818;stroke-width:0.5;" x1="1368" x2="1534.7324" y1="155" y2="155"/></g><!--class Asset--><g class="entity" data-qualified-name="Asset" data-source-line="9" id="ent0021"><rect fill="#F1F1F1" height="48" rx="2.5" ry="2.5" style="stroke:#181818;stroke-width:0.5;" width="70.2676" x="1642.5" y="7"/><ellipse cx="1657.5" cy="23" fill="#ADD1B2" rx="11" ry="11" style="stroke:#181818;stroke-width:1;"/><path d="M1660.4688,28.6406 Q1659.8906,28.9375 1659.25,29.0781 Q1658.6094,29.2344 1657.9063,29.2344 Q1655.4063,29.2344 1654.0781,27.5938 Q1652.7656,25.9375 1652.7656,22.8125 Q1652.7656,19.6875 1654.0781,18.0313 Q1655.4063,16.375 1657.9063,16.375 Q1658.6094,16.375 1659.25,16.5313 Q1659.9063,16.6875 1660.4688,16.9844 L1660.4688,19.7031 Q1659.8438,19.125 1659.25,18.8594 Q1658.6563,18.5781 1658.0313,18.5781 Q1656.6875,18.5781 1656,19.6563 Q1655.3125,20.7188 1655.3125,22.8125 Q1655.3125,24.9063 1656,25.9844 Q1656.6875,27.0469 1658.0313,27.0469 Q1658.6563,27.0469 1659.25,26.7813 Q1659.8438,26.5 1660.4688,25.9219 L1660.4688,28.6406 Z " fill="#000000"/><text fill="#000000" font-family="sans-serif" font-size="14" lengthAdjust="spacing" textLength="38.2676" x="1671.5" y="27.8467">Asset</text><line style="stroke:#181818;stroke-width:0.5;" x1="1643.5" x2="1711.7676" y1="39" y2="39"/><line style="stroke:#181818;stroke-width:0.5;" x1="1643.5" x2="1711.7676" y1="47" y2="47"/></g><!--class Platform--><g class="entity" data-qualified-name="Platform" data-source-line="9" id="ent0022"><rect fill="#F1F1F1" height="48" rx="2.5" ry="2.5" style="stroke:#181818;stroke-width:0.5;" width="91.2881" x="1571" y="115"/><ellipse cx="1586" cy="131" fill="#ADD1B2" rx="11" ry="11" style="stroke:#181818;stroke-width:1;"/><path d="M1588.9688,136.6406 Q1588.3906,136.9375 1587.75,137.0781 Q1587.1094,137.2344 1586.4063,137.2344 Q1583.9063,137.2344 1582.5781,135.5938 Q1581.2656,133.9375 1581.2656,130.8125 Q1581.2656,127.6875 1582.5781,126.0313 Q1583.9063,124.375 1586.4063,124.375 Q1587.1094,124.375 1587.75,124.5313 Q1588.4063,124.6875 1588.9688,124.9844 L1588.9688,127.7031 Q1588.3438,127.125 1587.75,126.8594 Q1587.1563,126.5781 1586.5313,126.5781 Q1585.1875,126.5781 1584.5,127.6563 Q1583.8125,128.7188 1583.8125,130.8125 Q1583.8125,132.9063 1584.5,133.9844 Q1585.1875,135.0469 1586.5313,135.0469 Q1587.1563,135.0469 1587.75,134.7813 Q1588.3438,134.5 1588.9688,133.9219 L1588.9688,136.6406 Z " fill="#000000"/><text fill="#000000" font-family="sans-serif" font-size="14" lengthAdjust="spacing" textLength="59.2881" x="1600" y="135.8467">Platform</text><line style="stroke:#181818;stroke-width:0.5;" x1="1572" x2="1661.2881" y1="147" y2="147"/><line style="stroke:#181818;stroke-width:0.5;" x1="1572" x2="1661.2881" y1="155" y2="155"/></g><!--class System--><g class="entity" data-qualified-name="System" data-source-line="10" id="ent0024"><rect fill="#F1F1F1" height="48" rx="2.5" ry="2.5" style="stroke:#181818;stroke-width:0.5;" width="84.2061" x="1697.5" y="115"/><ellipse cx="1712.5" cy="131" fill="#ADD1B2" rx="11" ry="11" style="stroke:#181818;stroke-width:1;"/><path d="M1715.4688,136.6406 Q1714.8906,136.9375 1714.25,137.0781 Q1713.6094,137.2344 1712.9063,137.2344 Q1710.4063,137.2344 1709.0781,135.5938 Q1707.7656,133.9375 1707.7656,130.8125 Q1707.7656,127.6875 1709.0781,126.0313 Q1710.4063,124.375 1712.9063,124.375 Q1713.6094,124.375 1714.25,124.5313 Q1714.9063,124.6875 1715.4688,124.9844 L1715.4688,127.7031 Q1714.8438,127.125 1714.25,126.8594 Q1713.6563,126.5781 1713.0313,126.5781 Q1711.6875,126.5781 1711,127.6563 Q1710.3125,128.7188 1710.3125,130.8125 Q1710.3125,132.9063 1711,133.9844 Q1711.6875,135.0469 1713.0313,135.0469 Q1713.6563,135.0469 1714.25,134.7813 Q1714.8438,134.5 1715.4688,133.9219 L1715.4688,136.6406 Z " fill="#000000"/><text fill="#000000" font-family="sans-serif" font-size="14" lengthAdjust="spacing" textLength="52.2061" x="1726.5" y="135.8467">System</text><line style="stroke:#181818;stroke-width:0.5;" x1="1698.5" x2="1780.7061" y1="147" y2="147"/><line style="stroke:#181818;stroke-width:0.5;" x1="1698.5" x2="1780.7061" y1="155" y2="155"/></g><!--class Sampler--><g class="entity" data-qualified-name="Sampler" data-source-line="11" id="ent0026"><rect fill="#F1F1F1" height="48" rx="2.5" ry="2.5" style="stroke:#181818;stroke-width:0.5;" width="90.249" x="1568.5" y="223"/><ellipse cx="1583.5" cy="239" fill="#ADD1B2" rx="11" ry="11" style="stroke:#181818;stroke-width:1;"/><path d="M1586.4688,244.6406 Q1585.8906,244.9375 1585.25,245.0781 Q1584.6094,245.2344 1583.9063,245.2344 Q1581.4063,245.2344 1580.0781,243.5938 Q1578.7656,241.9375 1578.7656,238.8125 Q1578.7656,235.6875 1580.0781,234.0313 Q1581.4063,232.375 1583.9063,232.375 Q1584.6094,232.375 1585.25,232.5313 Q1585.9063,232.6875 1586.4688,232.9844 L1586.4688,235.7031 Q1585.8438,235.125 1585.25,234.8594 Q1584.6563,234.5781 1584.0313,234.5781 Q1582.6875,234.5781 1582,235.6563 Q1581.3125,236.7188 1581.3125,238.8125 Q1581.3125,240.9063 1582,241.9844 Q1582.6875,243.0469 1584.0313,243.0469 Q1584.6563,243.0469 1585.25,242.7813 Q1585.8438,242.5 1586.4688,241.9219 L1586.4688,244.6406 Z " fill="#000000"/><text fill="#000000" font-family="sans-serif" font-size="14" lengthAdjust="spacing" textLength="58.249" x="1597.5" y="243.8467">Sampler</text><line style="stroke:#181818;stroke-width:0.5;" x1="1569.5" x2="1657.749" y1="255" y2="255"/><line style="stroke:#181818;stroke-width:0.5;" x1="1569.5" x2="1657.749" y1="263" y2="263"/></g><!--class Actuator--><g class="entity" data-qualified-name="Actuator" data-source-line="12" id="ent0028"><rect fill="#F1F1F1" height="48" rx="2.5" ry="2.5" style="stroke:#181818;stroke-width:0.5;" width="92.0264" x="1693.5" y="223"/><ellipse cx="1708.5" cy="239" fill="#ADD1B2" rx="11" ry="11" style="stroke:#181818;stroke-width:1;"/><path d="M1711.4688,244.6406 Q1710.8906,244.9375 1710.25,245.0781 Q1709.6094,245.2344 1708.9063,245.2344 Q1706.4063,245.2344 1705.0781,243.5938 Q1703.7656,241.9375 1703.7656,238.8125 Q1703.7656,235.6875 1705.0781,234.0313 Q1706.4063,232.375 1708.9063,232.375 Q1709.6094,232.375 1710.25,232.5313 Q1710.9063,232.6875 1711.4688,232.9844 L1711.4688,235.7031 Q1710.8438,235.125 1710.25,234.8594 Q1709.6563,234.5781 1709.0313,234.5781 Q1707.6875,234.5781 1707,235.6563 Q1706.3125,236.7188 1706.3125,238.8125 Q1706.3125,240.9063 1707,241.9844 Q1707.6875,243.0469 1709.0313,243.0469 Q1709.6563,243.0469 1710.25,242.7813 Q1710.8438,242.5 1711.4688,241.9219 L1711.4688,244.6406 Z " fill="#000000"/><text fill="#000000" font-family="sans-serif" font-size="14" lengthAdjust="spacing" textLength="60.0264" x="1722.5" y="243.8467">Actuator</text><line style="stroke:#181818;stroke-width:0.5;" x1="1694.5" x2="1784.5264" y1="255" y2="255"/><line style="stroke:#181818;stroke-width:0.5;" x1="1694.5" x2="1784.5264" y1="263" y2="263"/></g><!--class Sensor--><g class="entity" data-qualified-name="Sensor" data-source-line="13" id="ent0030"><rect fill="#F1F1F1" height="48" rx="2.5" ry="2.5" style="stroke:#181818;stroke-width:0.5;" width="79.9883" x="1820.5" y="223"/><ellipse cx="1835.5" cy="239" fill="#ADD1B2" rx="11" ry="11" style="stroke:#181818;stroke-width:1;"/><path d="M1838.4688,244.6406 Q1837.8906,244.9375 1837.25,245.0781 Q1836.6094,245.2344 1835.9063,245.2344 Q1833.4063,245.2344 1832.0781,243.5938 Q1830.7656,241.9375 1830.7656,238.8125 Q1830.7656,235.6875 1832.0781,234.0313 Q1833.4063,232.375 1835.9063,232.375 Q1836.6094,232.375 1837.25,232.5313 Q1837.9063,232.6875 1838.4688,232.9844 L1838.4688,235.7031 Q1837.8438,235.125 1837.25,234.8594 Q1836.6563,234.5781 1836.0313,234.5781 Q1834.6875,234.5781 1834,235.6563 Q1833.3125,236.7188 1833.3125,238.8125 Q1833.3125,240.9063 1834,241.9844 Q1834.6875,243.0469 1836.0313,243.0469 Q1836.6563,243.0469 1837.25,242.7813 Q1837.8438,242.5 1838.4688,241.9219 L1838.4688,244.6406 Z " fill="#000000"/><text fill="#000000" font-family="sans-serif" font-size="14" lengthAdjust="spacing" textLength="47.9883" x="1849.5" y="243.8467">Sensor</text><line style="stroke:#181818;stroke-width:0.5;" x1="1821.5" x2="1899.4883" y1="255" y2="255"/><line style="stroke:#181818;stroke-width:0.5;" x1="1821.5" x2="1899.4883" y1="263" y2="263"/></g><!--class ExecutionCollection--><g class="entity" data-qualified-name="ExecutionCollection" data-source-line="14" id="ent0032"><rect fill="#F1F1F1" height="48" rx="2.5" ry="2.5" style="stroke:#181818;stroke-width:0.5;" width="170.3799" x="2017.5" y="7"/><ellipse cx="2032.5" cy="23" fill="#ADD1B2" rx="11" ry="11" style="stroke:#181818;stroke-width:1;"/><path d="M2035.4688,28.6406 Q2034.8906,28.9375 2034.25,29.0781 Q2033.6094,29.2344 2032.9063,29.2344 Q2030.4063,29.2344 2029.0781,27.5938 Q2027.7656,25.9375 2027.7656,22.8125 Q2027.7656,19.6875 2029.0781,18.0313 Q2030.4063,16.375 2032.9063,16.375 Q2033.6094,16.375 2034.25,16.5313 Q2034.9063,16.6875 2035.4688,16.9844 L2035.4688,19.7031 Q2034.8438,19.125 2034.25,18.8594 Q2033.6563,18.5781 2033.0313,18.5781 Q2031.6875,18.5781 2031,19.6563 Q2030.3125,20.7188 2030.3125,22.8125 Q2030.3125,24.9063 2031,25.9844 Q2031.6875,27.0469 2033.0313,27.0469 Q2033.6563,27.0469 2034.25,26.7813 Q2034.8438,26.5 2035.4688,25.9219 L2035.4688,28.6406 Z " fill="#000000"/><text fill="#000000" font-family="sans-serif" font-size="14" lengthAdjust="spacing" textLength="138.3799" x="2046.5" y="27.8467">ExecutionCollection</text><line style="stroke:#181818;stroke-width:0.5;" x1="2018.5" x2="2186.8799" y1="39" y2="39"/><line style="stroke:#181818;stroke-width:0.5;" x1="2018.5" x2="2186.8799" y1="47" y2="47"/></g><!--class SamplingCollection--><g class="entity" data-qualified-name="SamplingCollection" data-source-line="14" id="ent0033"><rect fill="#F1F1F1" height="48" rx="2.5" ry="2.5" style="stroke:#181818;stroke-width:0.5;" width="166.7773" x="1817" y="115"/><ellipse cx="1832" cy="131" fill="#ADD1B2" rx="11" ry="11" style="stroke:#181818;stroke-width:1;"/><path d="M1834.9688,136.6406 Q1834.3906,136.9375 1833.75,137.0781 Q1833.1094,137.2344 1832.4063,137.2344 Q1829.9063,137.2344 1828.5781,135.5938 Q1827.2656,133.9375 1827.2656,130.8125 Q1827.2656,127.6875 1828.5781,126.0313 Q1829.9063,124.375 1832.4063,124.375 Q1833.1094,124.375 1833.75,124.5313 Q1834.4063,124.6875 1834.9688,124.9844 L1834.9688,127.7031 Q1834.3438,127.125 1833.75,126.8594 Q1833.1563,126.5781 1832.5313,126.5781 Q1831.1875,126.5781 1830.5,127.6563 Q1829.8125,128.7188 1829.8125,130.8125 Q1829.8125,132.9063 1830.5,133.9844 Q1831.1875,135.0469 1832.5313,135.0469 Q1833.1563,135.0469 1833.75,134.7813 Q1834.3438,134.5 1834.9688,133.9219 L1834.9688,136.6406 Z " fill="#000000"/><text fill="#000000" font-family="sans-serif" font-size="14" lengthAdjust="spacing" textLength="134.7773" x="1846" y="135.8467">SamplingCollection</text><line style="stroke:#181818;stroke-width:0.5;" x1="1818" x2="1982.7773" y1="147" y2="147"/><line style="stroke:#181818;stroke-width:0.5;" x1="1818" x2="1982.7773" y1="155" y2="155"/></g><!--class ActuationCollection--><g class="entity" data-qualified-name="ActuationCollection" data-source-line="15" id="ent0035"><rect fill="#F1F1F1" height="48" rx="2.5" ry="2.5" style="stroke:#181818;stroke-width:0.5;" width="168.2813" x="2018.5" y="115"/><ellipse cx="2033.5" cy="131" fill="#ADD1B2" rx="11" ry="11" style="stroke:#181818;stroke-width:1;"/><path d="M2036.4688,136.6406 Q2035.8906,136.9375 2035.25,137.0781 Q2034.6094,137.2344 2033.9063,137.2344 Q2031.4063,137.2344 2030.0781,135.5938 Q2028.7656,133.9375 2028.7656,130.8125 Q2028.7656,127.6875 2030.0781,126.0313 Q2031.4063,124.375 2033.9063,124.375 Q2034.6094,124.375 2035.25,124.5313 Q2035.9063,124.6875 2036.4688,124.9844 L2036.4688,127.7031 Q2035.8438,127.125 2035.25,126.8594 Q2034.6563,126.5781 2034.0313,126.5781 Q2032.6875,126.5781 2032,127.6563 Q2031.3125,128.7188 2031.3125,130.8125 Q2031.3125,132.9063 2032,133.9844 Q2032.6875,135.0469 2034.0313,135.0469 Q2034.6563,135.0469 2035.25,134.7813 Q2035.8438,134.5 2036.4688,133.9219 L2036.4688,136.6406 Z " fill="#000000"/><text fill="#000000" font-family="sans-serif" font-size="14" lengthAdjust="spacing" textLength="136.2813" x="2047.5" y="135.8467">ActuationCollection</text><line style="stroke:#181818;stroke-width:0.5;" x1="2019.5" x2="2185.7813" y1="147" y2="147"/><line style="stroke:#181818;stroke-width:0.5;" x1="2019.5" x2="2185.7813" y1="155" y2="155"/></g><!--class ObservationCollection--><g class="entity" data-qualified-name="ObservationCollection" data-source-line="16" id="ent0037"><rect fill="#F1F1F1" height="48" rx="2.5" ry="2.5" style="stroke:#181818;stroke-width:0.5;" width="186.499" x="2221.5" y="115"/><ellipse cx="2236.5" cy="131" fill="#ADD1B2" rx="11" ry="11" style="stroke:#181818;stroke-width:1;"/><path d="M2239.4688,136.6406 Q2238.8906,136.9375 2238.25,137.0781 Q2237.6094,137.2344 2236.9063,137.2344 Q2234.4063,137.2344 2233.0781,135.5938 Q2231.7656,133.9375 2231.7656,130.8125 Q2231.7656,127.6875 2233.0781,126.0313 Q2234.4063,124.375 2236.9063,124.375 Q2237.6094,124.375 2238.25,124.5313 Q2238.9063,124.6875 2239.4688,124.9844 L2239.4688,127.7031 Q2238.8438,127.125 2238.25,126.8594 Q2237.6563,126.5781 2237.0313,126.5781 Q2235.6875,126.5781 2235,127.6563 Q2234.3125,128.7188 2234.3125,130.8125 Q2234.3125,132.9063 2235,133.9844 Q2235.6875,135.0469 2237.0313,135.0469 Q2237.6563,135.0469 2238.25,134.7813 Q2238.8438,134.5 2239.4688,133.9219 L2239.4688,136.6406 Z " fill="#000000"/><text fill="#000000" font-family="sans-serif" font-size="14" lengthAdjust="spacing" textLength="154.499" x="2250.5" y="135.8467">ObservationCollection</text><line style="stroke:#181818;stroke-width:0.5;" x1="2222.5" x2="2406.999" y1="147" y2="147"/><line style="stroke:#181818;stroke-width:0.5;" x1="2222.5" x2="2406.999" y1="155" y2="155"/></g><!--class Execution--><g class="entity" data-qualified-name="Execution" data-source-line="17" id="ent0039"><rect fill="#F1F1F1" height="48" rx="2.5" ry="2.5" style="stroke:#181818;stroke-width:0.5;" width="101.1318" x="2575" y="7"/><ellipse cx="2590" cy="23" fill="#ADD1B2" rx="11" ry="11" style="stroke:#181818;stroke-width:1;"/><path d="M2592.9688,28.6406 Q2592.3906,28.9375 2591.75,29.0781 Q2591.1094,29.2344 2590.4063,29.2344 Q2587.9063,29.2344 2586.5781,27.5938 Q2585.2656,25.9375 2585.2656,22.8125 Q2585.2656,19.6875 2586.5781,18.0313 Q2587.9063,16.375 2590.4063,16.375 Q2591.1094,16.375 2591.75,16.5313 Q2592.4063,16.6875 2592.9688,16.9844 L2592.9688,19.7031 Q2592.3438,19.125 2591.75,18.8594 Q2591.1563,18.5781 2590.5313,18.5781 Q2589.1875,18.5781 2588.5,19.6563 Q2587.8125,20.7188 2587.8125,22.8125 Q2587.8125,24.9063 2588.5,25.9844 Q2589.1875,27.0469 2590.5313,27.0469 Q2591.1563,27.0469 2591.75,26.7813 Q2592.3438,26.5 2592.9688,25.9219 L2592.9688,28.6406 Z " fill="#000000"/><text fill="#000000" font-family="sans-serif" font-size="14" lengthAdjust="spacing" textLength="69.1318" x="2604" y="27.8467">Execution</text><line style="stroke:#181818;stroke-width:0.5;" x1="2576" x2="2675.1318" y1="39" y2="39"/><line style="stroke:#181818;stroke-width:0.5;" x1="2576" x2="2675.1318" y1="47" y2="47"/></g><!--class Sampling--><g class="entity" data-qualified-name="Sampling" data-source-line="17" id="ent0040"><rect fill="#F1F1F1" height="48" rx="2.5" ry="2.5" style="stroke:#181818;stroke-width:0.5;" width="97.5293" x="2442.5" y="115"/><ellipse cx="2457.5" cy="131" fill="#ADD1B2" rx="11" ry="11" style="stroke:#181818;stroke-width:1;"/><path d="M2460.4688,136.6406 Q2459.8906,136.9375 2459.25,137.0781 Q2458.6094,137.2344 2457.9063,137.2344 Q2455.4063,137.2344 2454.0781,135.5938 Q2452.7656,133.9375 2452.7656,130.8125 Q2452.7656,127.6875 2454.0781,126.0313 Q2455.4063,124.375 2457.9063,124.375 Q2458.6094,124.375 2459.25,124.5313 Q2459.9063,124.6875 2460.4688,124.9844 L2460.4688,127.7031 Q2459.8438,127.125 2459.25,126.8594 Q2458.6563,126.5781 2458.0313,126.5781 Q2456.6875,126.5781 2456,127.6563 Q2455.3125,128.7188 2455.3125,130.8125 Q2455.3125,132.9063 2456,133.9844 Q2456.6875,135.0469 2458.0313,135.0469 Q2458.6563,135.0469 2459.25,134.7813 Q2459.8438,134.5 2460.4688,133.9219 L2460.4688,136.6406 Z " fill="#000000"/><text fill="#000000" font-family="sans-serif" font-size="14" lengthAdjust="spacing" textLength="65.5293" x="2471.5" y="135.8467">Sampling</text><line style="stroke:#181818;stroke-width:0.5;" x1="2443.5" x2="2539.0293" y1="147" y2="147"/><line style="stroke:#181818;stroke-width:0.5;" x1="2443.5" x2="2539.0293" y1="155" y2="155"/></g><!--class Actuation--><g class="entity" data-qualified-name="Actuation" data-source-line="18" id="ent0042"><rect fill="#F1F1F1" height="48" rx="2.5" ry="2.5" style="stroke:#181818;stroke-width:0.5;" width="99.0332" x="2576" y="115"/><ellipse cx="2591" cy="131" fill="#ADD1B2" rx="11" ry="11" style="stroke:#181818;stroke-width:1;"/><path d="M2593.9688,136.6406 Q2593.3906,136.9375 2592.75,137.0781 Q2592.1094,137.2344 2591.4063,137.2344 Q2588.9063,137.2344 2587.5781,135.5938 Q2586.2656,133.9375 2586.2656,130.8125 Q2586.2656,127.6875 2587.5781,126.0313 Q2588.9063,124.375 2591.4063,124.375 Q2592.1094,124.375 2592.75,124.5313 Q2593.4063,124.6875 2593.9688,124.9844 L2593.9688,127.7031 Q2593.3438,127.125 2592.75,126.8594 Q2592.1563,126.5781 2591.5313,126.5781 Q2590.1875,126.5781 2589.5,127.6563 Q2588.8125,128.7188 2588.8125,130.8125 Q2588.8125,132.9063 2589.5,133.9844 Q2590.1875,135.0469 2591.5313,135.0469 Q2592.1563,135.0469 2592.75,134.7813 Q2593.3438,134.5 2593.9688,133.9219 L2593.9688,136.6406 Z " fill="#000000"/><text fill="#000000" font-family="sans-serif" font-size="14" lengthAdjust="spacing" textLength="67.0332" x="2605" y="135.8467">Actuation</text><line style="stroke:#181818;stroke-width:0.5;" x1="2577" x2="2674.0332" y1="147" y2="147"/><line style="stroke:#181818;stroke-width:0.5;" x1="2577" x2="2674.0332" y1="155" y2="155"/></g><!--class Observation--><g class="entity" data-qualified-name="Observation" data-source-line="19" id="ent0044"><rect fill="#F1F1F1" height="48" rx="2.5" ry="2.5" style="stroke:#181818;stroke-width:0.5;" width="117.251" x="2710" y="115"/><ellipse cx="2725" cy="131" fill="#ADD1B2" rx="11" ry="11" style="stroke:#181818;stroke-width:1;"/><path d="M2727.9688,136.6406 Q2727.3906,136.9375 2726.75,137.0781 Q2726.1094,137.2344 2725.4063,137.2344 Q2722.9063,137.2344 2721.5781,135.5938 Q2720.2656,133.9375 2720.2656,130.8125 Q2720.2656,127.6875 2721.5781,126.0313 Q2722.9063,124.375 2725.4063,124.375 Q2726.1094,124.375 2726.75,124.5313 Q2727.4063,124.6875 2727.9688,124.9844 L2727.9688,127.7031 Q2727.3438,127.125 2726.75,126.8594 Q2726.1563,126.5781 2725.5313,126.5781 Q2724.1875,126.5781 2723.5,127.6563 Q2722.8125,128.7188 2722.8125,130.8125 Q2722.8125,132.9063 2723.5,133.9844 Q2724.1875,135.0469 2725.5313,135.0469 Q2726.1563,135.0469 2726.75,134.7813 Q2727.3438,134.5 2727.9688,133.9219 L2727.9688,136.6406 Z " fill="#000000"/><text fill="#000000" font-family="sans-serif" font-size="14" lengthAdjust="spacing" textLength="85.251" x="2739" y="135.8467">Observation</text><line style="stroke:#181818;stroke-width:0.5;" x1="2711" x2="2826.251" y1="147" y2="147"/><line style="stroke:#181818;stroke-width:0.5;" x1="2711" x2="2826.251" y1="155" y2="155"/></g><!--reverse link Property to ActuatableProperty--><g class="link" data-entity-1="ent0002" data-entity-2="ent0003" data-link-type="extension" data-source-line="1" id="lnk4"><path codeLine="1" d="M158.6061,67.9094 C141.4461,85.5694 130.4,96.94 113.16,114.68" fill="none" id="Property-backto-ActuatableProperty" style="stroke:#181818;stroke-width:1;"/><polygon fill="none" points="171.15,55,154.303,63.7281,162.9093,72.0906,171.15,55" style="stroke:#181818;stroke-width:1;"/></g><!--reverse link Property to ObservableProperty--><g class="link" data-entity-1="ent0002" data-entity-2="ent0005" data-link-type="extension" data-source-line="2" id="lnk6"><path codeLine="2" d="M228.1095,67.9716 C245.0995,85.6316 255.99,96.94 273.06,114.68" fill="none" id="Property-backto-ObservableProperty" style="stroke:#181818;stroke-width:1;"/><polygon fill="none" points="215.63,55,223.7856,72.1314,232.4333,63.8118,215.63,55" style="stroke:#181818;stroke-width:1;"/></g><!--reverse link Sample to MaterialSample--><g class="link" data-entity-1="ent0007" data-entity-2="ent0008" data-link-type="extension" data-source-line="3" id="lnk9"><path codeLine="3" d="M606.8567,64.4445 C578.1067,82.1645 553.85,97.11 525.05,114.86" fill="none" id="Sample-backto-MaterialSample" style="stroke:#181818;stroke-width:1;"/><polygon fill="none" points="622.18,55,603.7086,59.3367,610.0049,69.5522,622.18,55" style="stroke:#181818;stroke-width:1;"/></g><!--reverse link Sample to SpatialSample--><g class="link" data-entity-1="ent0007" data-entity-2="ent0010" data-link-type="extension" data-source-line="4" id="lnk11"><path codeLine="4" d="M659.5,73 C659.5,90.66 659.5,96.94 659.5,114.68" fill="none" id="Sample-backto-SpatialSample" style="stroke:#181818;stroke-width:1;"/><polygon fill="none" points="659.5,55,653.5,73,665.5,73,659.5,55" style="stroke:#181818;stroke-width:1;"/></g><!--reverse link Sample to StatisticalSample--><g class="link" data-entity-1="ent0007" data-entity-2="ent0012" data-link-type="extension" data-source-line="5" id="lnk13"><path codeLine="5" d="M713.8276,64.1725 C743.7476,81.8925 769.45,97.11 799.43,114.86" fill="none" id="Sample-backto-StatisticalSample" style="stroke:#181818;stroke-width:1;"/><polygon fill="none" points="698.34,55,710.7701,69.335,716.8851,59.0099,698.34,55" style="stroke:#181818;stroke-width:1;"/></g><!--reverse link Procedure to ActuatingProcedure--><g class="link" data-entity-1="ent0014" data-entity-2="ent0015" data-link-type="extension" data-source-line="6" id="lnk16"><path codeLine="6" d="M1183.3326,63.1732 C1148.5626,80.8932 1116.74,97.11 1081.9,114.86" fill="none" id="Procedure-backto-ActuatingProcedure" style="stroke:#181818;stroke-width:1;"/><polygon fill="none" points="1199.37,55,1180.6082,57.8274,1186.057,68.519,1199.37,55" style="stroke:#181818;stroke-width:1;"/></g><!--reverse link Procedure to ObservingProcedure--><g class="link" data-entity-1="ent0014" data-entity-2="ent0017" data-link-type="extension" data-source-line="7" id="lnk18"><path codeLine="7" d="M1244.5,73 C1244.5,90.66 1244.5,96.94 1244.5,114.68" fill="none" id="Procedure-backto-ObservingProcedure" style="stroke:#181818;stroke-width:1;"/><polygon fill="none" points="1244.5,55,1238.5,73,1250.5,73,1244.5,55" style="stroke:#181818;stroke-width:1;"/></g><!--reverse link Procedure to SamplingProcedure--><g class="link" data-entity-1="ent0014" data-entity-2="ent0019" data-link-type="extension" data-source-line="8" id="lnk20"><path codeLine="8" d="M1305.4411,63.205 C1340.0411,80.925 1371.65,97.11 1406.31,114.86" fill="none" id="Procedure-backto-SamplingProcedure" style="stroke:#181818;stroke-width:1;"/><polygon fill="none" points="1289.42,55,1302.7061,68.5454,1308.1762,57.8647,1289.42,55" style="stroke:#181818;stroke-width:1;"/></g><!--reverse link Asset to Platform--><g class="link" data-entity-1="ent0021" data-entity-2="ent0022" data-link-type="extension" data-source-line="9" id="lnk23"><path codeLine="9" d="M1655.2839,70.6022 C1645.1239,88.2622 1640.13,96.94 1629.92,114.68" fill="none" id="Asset-backto-Platform" style="stroke:#181818;stroke-width:1;"/><polygon fill="none" points="1664.26,55,1650.0831,67.6102,1660.4846,73.5943,1664.26,55" style="stroke:#181818;stroke-width:1;"/></g><!--reverse link Asset to System--><g class="link" data-entity-1="ent0021" data-entity-2="ent0024" data-link-type="extension" data-source-line="10" id="lnk25"><path codeLine="10" d="M1700.0383,70.5372 C1710.3683,88.1972 1715.48,96.94 1725.86,114.68" fill="none" id="Asset-backto-System" style="stroke:#181818;stroke-width:1;"/><polygon fill="none" points="1690.95,55,1694.8592,73.5666,1705.2173,67.5077,1690.95,55" style="stroke:#181818;stroke-width:1;"/></g><!--reverse link System to Sampler--><g class="link" data-entity-1="ent0024" data-entity-2="ent0026" data-link-type="extension" data-source-line="11" id="lnk27"><path codeLine="11" d="M1698.3865,174.5884 C1677.3965,192.2484 1662.31,204.94 1641.22,222.68" fill="none" id="System-backto-Sampler" style="stroke:#181818;stroke-width:1;"/><polygon fill="none" points="1712.16,163,1694.5237,169.9972,1702.2493,179.1795,1712.16,163" style="stroke:#181818;stroke-width:1;"/></g><!--reverse link System to Actuator--><g class="link" data-entity-1="ent0024" data-entity-2="ent0028" data-link-type="extension" data-source-line="12" id="lnk29"><path codeLine="12" d="M1739.5,181 C1739.5,198.66 1739.5,204.94 1739.5,222.68" fill="none" id="System-backto-Actuator" style="stroke:#181818;stroke-width:1;"/><polygon fill="none" points="1739.5,163,1733.5,181,1745.5,181,1739.5,163" style="stroke:#181818;stroke-width:1;"/></g><!--reverse link System to Sensor--><g class="link" data-entity-1="ent0024" data-entity-2="ent0030" data-link-type="extension" data-source-line="13" id="lnk31"><path codeLine="13" d="M1779.2968,174.864 C1799.4468,192.524 1813.63,204.94 1833.88,222.68" fill="none" id="System-backto-Sensor" style="stroke:#181818;stroke-width:1;"/><polygon fill="none" points="1765.76,163,1775.3421,179.3763,1783.2515,170.3518,1765.76,163" style="stroke:#181818;stroke-width:1;"/></g><!--reverse link ExecutionCollection to SamplingCollection--><g class="link" data-entity-1="ent0032" data-entity-2="ent0033" data-link-type="extension" data-source-line="14" id="lnk34"><path codeLine="14" d="M2042.731,63.3636 C2008.961,81.0836 1978.43,97.11 1944.59,114.86" fill="none" id="ExecutionCollection-backto-SamplingCollection" style="stroke:#181818;stroke-width:1;"/><polygon fill="none" points="2058.67,55,2039.9432,58.0506,2045.5189,68.6766,2058.67,55" style="stroke:#181818;stroke-width:1;"/></g><!--reverse link ExecutionCollection to ActuationCollection--><g class="link" data-entity-1="ent0032" data-entity-2="ent0035" data-link-type="extension" data-source-line="15" id="lnk36"><path codeLine="15" d="M2102.5,73 C2102.5,90.66 2102.5,96.94 2102.5,114.68" fill="none" id="ExecutionCollection-backto-ActuationCollection" style="stroke:#181818;stroke-width:1;"/><polygon fill="none" points="2102.5,55,2096.5,73,2108.5,73,2102.5,55" style="stroke:#181818;stroke-width:1;"/></g><!--reverse link ExecutionCollection to ObservationCollection--><g class="link" data-entity-1="ent0032" data-entity-2="ent0037" data-link-type="extension" data-source-line="16" id="lnk38"><path codeLine="16" d="M2164.5997,63.0498 C2200.0397,80.7698 2232.72,97.11 2268.22,114.86" fill="none" id="ExecutionCollection-backto-ObservationCollection" style="stroke:#181818;stroke-width:1;"/><polygon fill="none" points="2148.5,55,2161.9164,68.4164,2167.283,57.6833,2148.5,55" style="stroke:#181818;stroke-width:1;"/></g><!--reverse link Execution to Sampling--><g class="link" data-entity-1="ent0039" data-entity-2="ent0040" data-link-type="extension" data-source-line="17" id="lnk41"><path codeLine="17" d="M2582.3041,66.1688 C2559.9841,83.8288 2543.41,96.94 2520.98,114.68" fill="none" id="Execution-backto-Sampling" style="stroke:#181818;stroke-width:1;"/><polygon fill="none" points="2596.42,55,2578.5812,61.4635,2586.027,70.8741,2596.42,55" style="stroke:#181818;stroke-width:1;"/></g><!--reverse link Execution to Actuation--><g class="link" data-entity-1="ent0039" data-entity-2="ent0042" data-link-type="extension" data-source-line="18" id="lnk43"><path codeLine="18" d="M2625.5,73 C2625.5,90.66 2625.5,96.94 2625.5,114.68" fill="none" id="Execution-backto-Actuation" style="stroke:#181818;stroke-width:1;"/><polygon fill="none" points="2625.5,55,2619.5,73,2631.5,73,2625.5,55" style="stroke:#181818;stroke-width:1;"/></g><!--reverse link Execution to Observation--><g class="link" data-entity-1="ent0039" data-entity-2="ent0044" data-link-type="extension" data-source-line="19" id="lnk45"><path codeLine="19" d="M2670.9895,65.7202 C2694.8095,83.3802 2713.11,96.94 2737.04,114.68" fill="none" id="Execution-backto-Observation" style="stroke:#181818;stroke-width:1;"/><polygon fill="none" points="2656.53,55,2667.4161,70.54,2674.5629,60.9004,2656.53,55" style="stroke:#181818;stroke-width:1;"/></g><?plantuml-src XP5D3e8m44Rtde9qpmtS4EFIID8Jb3gQ9eMIwM0ayV3oKx0CYBlcUsywNrgHewi1gHN9yPscYSWqDOfKOM4c1y6bQ-41dqoIggmjJCf54Q1HDgGSorhH3gMEUZ8wChfD6cuDmhAfgHvVic6DLVzPmnOcPTu3JK9k5TqTbZoNhIVeqt28xmDSvMDdjmOIAZ_4vnVeXeohJivQqFs9bup8hXyUQ85s1yAt_XxXJRROl7KBHXl41m00?></g></svg>