<svg xmlns="http://www.w3.org/2000/svg" xmlns:xlink="http://www.w3.org/1999/xlink" version="1.1" data-diagram-type="CLASS" style="width:3174px;height:286px;background:#FFFFFF;" width="3174px" height="286px" viewBox="0 0 3174 286" zoomAndPan="magnify" preserveAspectRatio="none" contentStyleType="text/css"><?plantuml 1.2026.8?><defs/><g font-family="sans-serif" lengthAdjust="spacing"><!--class Property--><g class="entity" data-qualified-name="Property" id="ent0001" data-source-line="1"><rect x="521" y="7" width="91.794" height="48" fill="#F1F1F1" style="stroke:#181818;stroke-width:0.5;" rx="2.5" ry="2.5"/><ellipse cx="536" cy="23" rx="11" ry="11" fill="#ADD1B2" style="stroke:#181818;stroke-width:1;"/><path d="M538.969,28.641 Q538.391,28.938 537.75,29.078 Q537.109,29.234 536.406,29.234 Q533.906,29.234 532.578,27.594 Q531.266,25.938 531.266,22.813 Q531.266,19.688 532.578,18.031 Q533.906,16.375 536.406,16.375 Q537.109,16.375 537.75,16.531 Q538.406,16.688 538.969,16.984 L538.969,19.703 Q538.344,19.125 537.75,18.859 Q537.156,18.578 536.531,18.578 Q535.188,18.578 534.5,19.656 Q533.813,20.719 533.813,22.813 Q533.813,24.906 534.5,25.984 Q535.188,27.047 536.531,27.047 Q537.156,27.047 537.75,26.781 Q538.344,26.5 538.969,25.922 L538.969,28.641 Z " fill="#000"/><text x="550" y="27.847" fill="#000" font-size="14" textLength="59.794">Property</text><line x1="522" y1="39" x2="611.794" y2="39" style="stroke:#181818;stroke-width:0.5;"/><line x1="522" y1="47" x2="611.794" y2="47" style="stroke:#181818;stroke-width:0.5;"/></g><!--class ActuatableProperty--><g class="entity" data-qualified-name="ActuatableProperty" id="ent0002" data-source-line="1"><rect x="339.5" y="115" width="167.468" height="48" fill="#F1F1F1" style="stroke:#181818;stroke-width:0.5;" rx="2.5" ry="2.5"/><ellipse cx="354.5" cy="131" rx="11" ry="11" fill="#ADD1B2" style="stroke:#181818;stroke-width:1;"/><path d="M357.469,136.641 Q356.891,136.938 356.25,137.078 Q355.609,137.234 354.906,137.234 Q352.406,137.234 351.078,135.594 Q349.766,133.938 349.766,130.813 Q349.766,127.688 351.078,126.031 Q352.406,124.375 354.906,124.375 Q355.609,124.375 356.25,124.531 Q356.906,124.688 357.469,124.984 L357.469,127.703 Q356.844,127.125 356.25,126.859 Q355.656,126.578 355.031,126.578 Q353.688,126.578 353,127.656 Q352.313,128.719 352.313,130.813 Q352.313,132.906 353,133.984 Q353.688,135.047 355.031,135.047 Q355.656,135.047 356.25,134.781 Q356.844,134.5 357.469,133.922 L357.469,136.641 Z " fill="#000"/><text x="368.5" y="135.847" fill="#000" font-size="14" textLength="135.468">ActuatableProperty</text><line x1="340.5" y1="147" x2="505.968" y2="147" style="stroke:#181818;stroke-width:0.5;"/><line x1="340.5" y1="155" x2="505.968" y2="155" style="stroke:#181818;stroke-width:0.5;"/></g><!--class Sample--><g class="entity" data-qualified-name="Sample" id="ent0004" data-source-line="2"><rect x="950" y="7" width="84.493" height="48" fill="#F1F1F1" style="stroke:#181818;stroke-width:0.5;" rx="2.5" ry="2.5"/><ellipse cx="965" cy="23" rx="11" ry="11" fill="#ADD1B2" style="stroke:#181818;stroke-width:1;"/><path d="M967.969,28.641 Q967.391,28.938 966.75,29.078 Q966.109,29.234 965.406,29.234 Q962.906,29.234 961.578,27.594 Q960.266,25.938 960.266,22.813 Q960.266,19.688 961.578,18.031 Q962.906,16.375 965.406,16.375 Q966.109,16.375 966.75,16.531 Q967.406,16.688 967.969,16.984 L967.969,19.703 Q967.344,19.125 966.75,18.859 Q966.156,18.578 965.531,18.578 Q964.188,18.578 963.5,19.656 Q962.813,20.719 962.813,22.813 Q962.813,24.906 963.5,25.984 Q964.188,27.047 965.531,27.047 Q966.156,27.047 966.75,26.781 Q967.344,26.5 967.969,25.922 L967.969,28.641 Z " fill="#000"/><text x="979" y="27.847" fill="#000" font-size="14" textLength="52.493">Sample</text><line x1="951" y1="39" x2="1033.493" y2="39" style="stroke:#181818;stroke-width:0.5;"/><line x1="951" y1="47" x2="1033.493" y2="47" style="stroke:#181818;stroke-width:0.5;"/></g><!--class MaterialSample--><g class="entity" data-qualified-name="MaterialSample" id="ent0005" data-source-line="2"><rect x="749.5" y="115" width="141.368" height="48" fill="#F1F1F1" style="stroke:#181818;stroke-width:0.5;" rx="2.5" ry="2.5"/><ellipse cx="764.5" cy="131" rx="11" ry="11" fill="#ADD1B2" style="stroke:#181818;stroke-width:1;"/><path d="M767.469,136.641 Q766.891,136.938 766.25,137.078 Q765.609,137.234 764.906,137.234 Q762.406,137.234 761.078,135.594 Q759.766,133.938 759.766,130.813 Q759.766,127.688 761.078,126.031 Q762.406,124.375 764.906,124.375 Q765.609,124.375 766.25,124.531 Q766.906,124.688 767.469,124.984 L767.469,127.703 Q766.844,127.125 766.25,126.859 Q765.656,126.578 765.031,126.578 Q763.688,126.578 763,127.656 Q762.313,128.719 762.313,130.813 Q762.313,132.906 763,133.984 Q763.688,135.047 765.031,135.047 Q765.656,135.047 766.25,134.781 Q766.844,134.5 767.469,133.922 L767.469,136.641 Z " fill="#000"/><text x="778.5" y="135.847" fill="#000" font-size="14" textLength="109.368">MaterialSample</text><line x1="750.5" y1="147" x2="889.868" y2="147" style="stroke:#181818;stroke-width:0.5;"/><line x1="750.5" y1="155" x2="889.868" y2="155" style="stroke:#181818;stroke-width:0.5;"/></g><!--class ObservableProperty--><g class="entity" data-qualified-name="ObservableProperty" id="ent0007" data-source-line="3"><rect x="542" y="115" width="171.617" height="48" fill="#F1F1F1" style="stroke:#181818;stroke-width:0.5;" rx="2.5" ry="2.5"/><ellipse cx="557" cy="131" rx="11" ry="11" fill="#ADD1B2" style="stroke:#181818;stroke-width:1;"/><path d="M559.969,136.641 Q559.391,136.938 558.75,137.078 Q558.109,137.234 557.406,137.234 Q554.906,137.234 553.578,135.594 Q552.266,133.938 552.266,130.813 Q552.266,127.688 553.578,126.031 Q554.906,124.375 557.406,124.375 Q558.109,124.375 558.75,124.531 Q559.406,124.688 559.969,124.984 L559.969,127.703 Q559.344,127.125 558.75,126.859 Q558.156,126.578 557.531,126.578 Q556.188,126.578 555.5,127.656 Q554.813,128.719 554.813,130.813 Q554.813,132.906 555.5,133.984 Q556.188,135.047 557.531,135.047 Q558.156,135.047 558.75,134.781 Q559.344,134.5 559.969,133.922 L559.969,136.641 Z " fill="#000"/><text x="571" y="135.847" fill="#000" font-size="14" textLength="139.617">ObservableProperty</text><line x1="543" y1="147" x2="712.617" y2="147" style="stroke:#181818;stroke-width:0.5;"/><line x1="543" y1="155" x2="712.617" y2="155" style="stroke:#181818;stroke-width:0.5;"/></g><!--class SpatialSample--><g class="entity" data-qualified-name="SpatialSample" id="ent0009" data-source-line="4"><rect x="925.5" y="115" width="132.693" height="48" fill="#F1F1F1" style="stroke:#181818;stroke-width:0.5;" rx="2.5" ry="2.5"/><ellipse cx="940.5" cy="131" rx="11" ry="11" fill="#ADD1B2" style="stroke:#181818;stroke-width:1;"/><path d="M943.469,136.641 Q942.891,136.938 942.25,137.078 Q941.609,137.234 940.906,137.234 Q938.406,137.234 937.078,135.594 Q935.766,133.938 935.766,130.813 Q935.766,127.688 937.078,126.031 Q938.406,124.375 940.906,124.375 Q941.609,124.375 942.25,124.531 Q942.906,124.688 943.469,124.984 L943.469,127.703 Q942.844,127.125 942.25,126.859 Q941.656,126.578 941.031,126.578 Q939.688,126.578 939,127.656 Q938.313,128.719 938.313,130.813 Q938.313,132.906 939,133.984 Q939.688,135.047 941.031,135.047 Q941.656,135.047 942.25,134.781 Q942.844,134.5 943.469,133.922 L943.469,136.641 Z " fill="#000"/><text x="954.5" y="135.847" fill="#000" font-size="14" textLength="100.693">SpatialSample</text><line x1="926.5" y1="147" x2="1057.193" y2="147" style="stroke:#181818;stroke-width:0.5;"/><line x1="926.5" y1="155" x2="1057.193" y2="155" style="stroke:#181818;stroke-width:0.5;"/></g><!--class StatisticalSample--><g class="entity" data-qualified-name="StatisticalSample" id="ent0011" data-source-line="5"><rect x="1094" y="115" width="153.666" height="48" fill="#F1F1F1" style="stroke:#181818;stroke-width:0.5;" rx="2.5" ry="2.5"/><ellipse cx="1109" cy="131" rx="11" ry="11" fill="#ADD1B2" style="stroke:#181818;stroke-width:1;"/><path d="M1111.969,136.641 Q1111.391,136.938 1110.75,137.078 Q1110.109,137.234 1109.406,137.234 Q1106.906,137.234 1105.578,135.594 Q1104.266,133.938 1104.266,130.813 Q1104.266,127.688 1105.578,126.031 Q1106.906,124.375 1109.406,124.375 Q1110.109,124.375 1110.75,124.531 Q1111.406,124.688 1111.969,124.984 L1111.969,127.703 Q1111.344,127.125 1110.75,126.859 Q1110.156,126.578 1109.531,126.578 Q1108.188,126.578 1107.5,127.656 Q1106.813,128.719 1106.813,130.813 Q1106.813,132.906 1107.5,133.984 Q1108.188,135.047 1109.531,135.047 Q1110.156,135.047 1110.75,134.781 Q1111.344,134.5 1111.969,133.922 L1111.969,136.641 Z " fill="#000"/><text x="1123" y="135.847" fill="#000" font-size="14" textLength="121.666">StatisticalSample</text><line x1="1095" y1="147" x2="1246.666" y2="147" style="stroke:#181818;stroke-width:0.5;"/><line x1="1095" y1="155" x2="1246.666" y2="155" style="stroke:#181818;stroke-width:0.5;"/></g><!--class Procedure--><g class="entity" data-qualified-name="Procedure" id="ent0013" data-source-line="6"><rect x="1525.5" y="7" width="103.203" height="48" fill="#F1F1F1" style="stroke:#181818;stroke-width:0.5;" rx="2.5" ry="2.5"/><ellipse cx="1540.5" cy="23" rx="11" ry="11" fill="#ADD1B2" style="stroke:#181818;stroke-width:1;"/><path d="M1543.469,28.641 Q1542.891,28.938 1542.25,29.078 Q1541.609,29.234 1540.906,29.234 Q1538.406,29.234 1537.078,27.594 Q1535.766,25.938 1535.766,22.813 Q1535.766,19.688 1537.078,18.031 Q1538.406,16.375 1540.906,16.375 Q1541.609,16.375 1542.25,16.531 Q1542.906,16.688 1543.469,16.984 L1543.469,19.703 Q1542.844,19.125 1542.25,18.859 Q1541.656,18.578 1541.031,18.578 Q1539.688,18.578 1539,19.656 Q1538.313,20.719 1538.313,22.813 Q1538.313,24.906 1539,25.984 Q1539.688,27.047 1541.031,27.047 Q1541.656,27.047 1542.25,26.781 Q1542.844,26.5 1543.469,25.922 L1543.469,28.641 Z " fill="#000"/><text x="1554.5" y="27.847" fill="#000" font-size="14" textLength="71.203">Procedure</text><line x1="1526.5" y1="39" x2="1627.703" y2="39" style="stroke:#181818;stroke-width:0.5;"/><line x1="1526.5" y1="47" x2="1627.703" y2="47" style="stroke:#181818;stroke-width:0.5;"/></g><!--class ActuatingProcedure--><g class="entity" data-qualified-name="ActuatingProcedure" id="ent0014" data-source-line="6"><rect x="1283.5" y="115" width="170.558" height="48" fill="#F1F1F1" style="stroke:#181818;stroke-width:0.5;" rx="2.5" ry="2.5"/><ellipse cx="1298.5" cy="131" rx="11" ry="11" fill="#ADD1B2" style="stroke:#181818;stroke-width:1;"/><path d="M1301.469,136.641 Q1300.891,136.938 1300.25,137.078 Q1299.609,137.234 1298.906,137.234 Q1296.406,137.234 1295.078,135.594 Q1293.766,133.938 1293.766,130.813 Q1293.766,127.688 1295.078,126.031 Q1296.406,124.375 1298.906,124.375 Q1299.609,124.375 1300.25,124.531 Q1300.906,124.688 1301.469,124.984 L1301.469,127.703 Q1300.844,127.125 1300.25,126.859 Q1299.656,126.578 1299.031,126.578 Q1297.688,126.578 1297,127.656 Q1296.313,128.719 1296.313,130.813 Q1296.313,132.906 1297,133.984 Q1297.688,135.047 1299.031,135.047 Q1299.656,135.047 1300.25,134.781 Q1300.844,134.5 1301.469,133.922 L1301.469,136.641 Z " fill="#000"/><text x="1312.5" y="135.847" fill="#000" font-size="14" textLength="138.558">ActuatingProcedure</text><line x1="1284.5" y1="147" x2="1453.058" y2="147" style="stroke:#181818;stroke-width:0.5;"/><line x1="1284.5" y1="155" x2="1453.058" y2="155" style="stroke:#181818;stroke-width:0.5;"/></g><!--class ObservingProcedure--><g class="entity" data-qualified-name="ObservingProcedure" id="ent0016" data-source-line="7"><rect x="1489.5" y="115" width="174.707" height="48" fill="#F1F1F1" style="stroke:#181818;stroke-width:0.5;" rx="2.5" ry="2.5"/><ellipse cx="1504.5" cy="131" rx="11" ry="11" fill="#ADD1B2" style="stroke:#181818;stroke-width:1;"/><path d="M1507.469,136.641 Q1506.891,136.938 1506.25,137.078 Q1505.609,137.234 1504.906,137.234 Q1502.406,137.234 1501.078,135.594 Q1499.766,133.938 1499.766,130.813 Q1499.766,127.688 1501.078,126.031 Q1502.406,124.375 1504.906,124.375 Q1505.609,124.375 1506.25,124.531 Q1506.906,124.688 1507.469,124.984 L1507.469,127.703 Q1506.844,127.125 1506.25,126.859 Q1505.656,126.578 1505.031,126.578 Q1503.688,126.578 1503,127.656 Q1502.313,128.719 1502.313,130.813 Q1502.313,132.906 1503,133.984 Q1503.688,135.047 1505.031,135.047 Q1505.656,135.047 1506.25,134.781 Q1506.844,134.5 1507.469,133.922 L1507.469,136.641 Z " fill="#000"/><text x="1518.5" y="135.847" fill="#000" font-size="14" textLength="142.707">ObservingProcedure</text><line x1="1490.5" y1="147" x2="1663.207" y2="147" style="stroke:#181818;stroke-width:0.5;"/><line x1="1490.5" y1="155" x2="1663.207" y2="155" style="stroke:#181818;stroke-width:0.5;"/></g><!--class SamplingProcedure--><g class="entity" data-qualified-name="SamplingProcedure" id="ent0018" data-source-line="8"><rect x="1699.5" y="115" width="168.732" height="48" fill="#F1F1F1" style="stroke:#181818;stroke-width:0.5;" rx="2.5" ry="2.5"/><ellipse cx="1714.5" cy="131" rx="11" ry="11" fill="#ADD1B2" style="stroke:#181818;stroke-width:1;"/><path d="M1717.469,136.641 Q1716.891,136.938 1716.25,137.078 Q1715.609,137.234 1714.906,137.234 Q1712.406,137.234 1711.078,135.594 Q1709.766,133.938 1709.766,130.813 Q1709.766,127.688 1711.078,126.031 Q1712.406,124.375 1714.906,124.375 Q1715.609,124.375 1716.25,124.531 Q1716.906,124.688 1717.469,124.984 L1717.469,127.703 Q1716.844,127.125 1716.25,126.859 Q1715.656,126.578 1715.031,126.578 Q1713.688,126.578 1713,127.656 Q1712.313,128.719 1712.313,130.813 Q1712.313,132.906 1713,133.984 Q1713.688,135.047 1715.031,135.047 Q1715.656,135.047 1716.25,134.781 Q1716.844,134.5 1717.469,133.922 L1717.469,136.641 Z " fill="#000"/><text x="1728.5" y="135.847" fill="#000" font-size="14" textLength="136.732">SamplingProcedure</text><line x1="1700.5" y1="147" x2="1867.232" y2="147" style="stroke:#181818;stroke-width:0.5;"/><line x1="1700.5" y1="155" x2="1867.232" y2="155" style="stroke:#181818;stroke-width:0.5;"/></g><!--class Asset--><g class="entity" data-qualified-name="Asset" id="ent0020" data-source-line="9"><rect x="1975" y="7" width="70.268" height="48" fill="#F1F1F1" style="stroke:#181818;stroke-width:0.5;" rx="2.5" ry="2.5"/><ellipse cx="1990" cy="23" rx="11" ry="11" fill="#ADD1B2" style="stroke:#181818;stroke-width:1;"/><path d="M1992.969,28.641 Q1992.391,28.938 1991.75,29.078 Q1991.109,29.234 1990.406,29.234 Q1987.906,29.234 1986.578,27.594 Q1985.266,25.938 1985.266,22.813 Q1985.266,19.688 1986.578,18.031 Q1987.906,16.375 1990.406,16.375 Q1991.109,16.375 1991.75,16.531 Q1992.406,16.688 1992.969,16.984 L1992.969,19.703 Q1992.344,19.125 1991.75,18.859 Q1991.156,18.578 1990.531,18.578 Q1989.188,18.578 1988.5,19.656 Q1987.813,20.719 1987.813,22.813 Q1987.813,24.906 1988.5,25.984 Q1989.188,27.047 1990.531,27.047 Q1991.156,27.047 1991.75,26.781 Q1992.344,26.5 1992.969,25.922 L1992.969,28.641 Z " fill="#000"/><text x="2004" y="27.847" fill="#000" font-size="14" textLength="38.268">Asset</text><line x1="1976" y1="39" x2="2044.268" y2="39" style="stroke:#181818;stroke-width:0.5;"/><line x1="1976" y1="47" x2="2044.268" y2="47" style="stroke:#181818;stroke-width:0.5;"/></g><!--class Platform--><g class="entity" data-qualified-name="Platform" id="ent0021" data-source-line="9"><rect x="1903.5" y="115" width="91.288" height="48" fill="#F1F1F1" style="stroke:#181818;stroke-width:0.5;" rx="2.5" ry="2.5"/><ellipse cx="1918.5" cy="131" rx="11" ry="11" fill="#ADD1B2" style="stroke:#181818;stroke-width:1;"/><path d="M1921.469,136.641 Q1920.891,136.938 1920.25,137.078 Q1919.609,137.234 1918.906,137.234 Q1916.406,137.234 1915.078,135.594 Q1913.766,133.938 1913.766,130.813 Q1913.766,127.688 1915.078,126.031 Q1916.406,124.375 1918.906,124.375 Q1919.609,124.375 1920.25,124.531 Q1920.906,124.688 1921.469,124.984 L1921.469,127.703 Q1920.844,127.125 1920.25,126.859 Q1919.656,126.578 1919.031,126.578 Q1917.688,126.578 1917,127.656 Q1916.313,128.719 1916.313,130.813 Q1916.313,132.906 1917,133.984 Q1917.688,135.047 1919.031,135.047 Q1919.656,135.047 1920.25,134.781 Q1920.844,134.5 1921.469,133.922 L1921.469,136.641 Z " fill="#000"/><text x="1932.5" y="135.847" fill="#000" font-size="14" textLength="59.288">Platform</text><line x1="1904.5" y1="147" x2="1993.788" y2="147" style="stroke:#181818;stroke-width:0.5;"/><line x1="1904.5" y1="155" x2="1993.788" y2="155" style="stroke:#181818;stroke-width:0.5;"/></g><!--class System--><g class="entity" data-qualified-name="System" id="ent0023" data-source-line="10"><rect x="2030" y="115" width="84.206" height="48" fill="#F1F1F1" style="stroke:#181818;stroke-width:0.5;" rx="2.5" ry="2.5"/><ellipse cx="2045" cy="131" rx="11" ry="11" fill="#ADD1B2" style="stroke:#181818;stroke-width:1;"/><path d="M2047.969,136.641 Q2047.391,136.938 2046.75,137.078 Q2046.109,137.234 2045.406,137.234 Q2042.906,137.234 2041.578,135.594 Q2040.266,133.938 2040.266,130.813 Q2040.266,127.688 2041.578,126.031 Q2042.906,124.375 2045.406,124.375 Q2046.109,124.375 2046.75,124.531 Q2047.406,124.688 2047.969,124.984 L2047.969,127.703 Q2047.344,127.125 2046.75,126.859 Q2046.156,126.578 2045.531,126.578 Q2044.188,126.578 2043.5,127.656 Q2042.813,128.719 2042.813,130.813 Q2042.813,132.906 2043.5,133.984 Q2044.188,135.047 2045.531,135.047 Q2046.156,135.047 2046.75,134.781 Q2047.344,134.5 2047.969,133.922 L2047.969,136.641 Z " fill="#000"/><text x="2059" y="135.847" fill="#000" font-size="14" textLength="52.206">System</text><line x1="2031" y1="147" x2="2113.206" y2="147" style="stroke:#181818;stroke-width:0.5;"/><line x1="2031" y1="155" x2="2113.206" y2="155" style="stroke:#181818;stroke-width:0.5;"/></g><!--class Sampler--><g class="entity" data-qualified-name="Sampler" id="ent0024" data-source-line="10"><rect x="1901" y="223" width="90.249" height="48" fill="#F1F1F1" style="stroke:#181818;stroke-width:0.5;" rx="2.5" ry="2.5"/><ellipse cx="1916" cy="239" rx="11" ry="11" fill="#ADD1B2" style="stroke:#181818;stroke-width:1;"/><path d="M1918.969,244.641 Q1918.391,244.938 1917.75,245.078 Q1917.109,245.234 1916.406,245.234 Q1913.906,245.234 1912.578,243.594 Q1911.266,241.938 1911.266,238.813 Q1911.266,235.688 1912.578,234.031 Q1913.906,232.375 1916.406,232.375 Q1917.109,232.375 1917.75,232.531 Q1918.406,232.688 1918.969,232.984 L1918.969,235.703 Q1918.344,235.125 1917.75,234.859 Q1917.156,234.578 1916.531,234.578 Q1915.188,234.578 1914.5,235.656 Q1913.813,236.719 1913.813,238.813 Q1913.813,240.906 1914.5,241.984 Q1915.188,243.047 1916.531,243.047 Q1917.156,243.047 1917.75,242.781 Q1918.344,242.5 1918.969,241.922 L1918.969,244.641 Z " fill="#000"/><text x="1930" y="243.847" fill="#000" font-size="14" textLength="58.249">Sampler</text><line x1="1902" y1="255" x2="1990.249" y2="255" style="stroke:#181818;stroke-width:0.5;"/><line x1="1902" y1="263" x2="1990.249" y2="263" style="stroke:#181818;stroke-width:0.5;"/></g><!--class Actuator--><g class="entity" data-qualified-name="Actuator" id="ent0026" data-source-line="11"><rect x="2026" y="223" width="92.026" height="48" fill="#F1F1F1" style="stroke:#181818;stroke-width:0.5;" rx="2.5" ry="2.5"/><ellipse cx="2041" cy="239" rx="11" ry="11" fill="#ADD1B2" style="stroke:#181818;stroke-width:1;"/><path d="M2043.969,244.641 Q2043.391,244.938 2042.75,245.078 Q2042.109,245.234 2041.406,245.234 Q2038.906,245.234 2037.578,243.594 Q2036.266,241.938 2036.266,238.813 Q2036.266,235.688 2037.578,234.031 Q2038.906,232.375 2041.406,232.375 Q2042.109,232.375 2042.75,232.531 Q2043.406,232.688 2043.969,232.984 L2043.969,235.703 Q2043.344,235.125 2042.75,234.859 Q2042.156,234.578 2041.531,234.578 Q2040.188,234.578 2039.5,235.656 Q2038.813,236.719 2038.813,238.813 Q2038.813,240.906 2039.5,241.984 Q2040.188,243.047 2041.531,243.047 Q2042.156,243.047 2042.75,242.781 Q2043.344,242.5 2043.969,241.922 L2043.969,244.641 Z " fill="#000"/><text x="2055" y="243.847" fill="#000" font-size="14" textLength="60.026">Actuator</text><line x1="2027" y1="255" x2="2117.026" y2="255" style="stroke:#181818;stroke-width:0.5;"/><line x1="2027" y1="263" x2="2117.026" y2="263" style="stroke:#181818;stroke-width:0.5;"/></g><!--class ExecutionCollection--><g class="entity" data-qualified-name="ExecutionCollection" id="ent0028" data-source-line="12"><rect x="2350" y="7" width="170.38" height="48" fill="#F1F1F1" style="stroke:#181818;stroke-width:0.5;" rx="2.5" ry="2.5"/><ellipse cx="2365" cy="23" rx="11" ry="11" fill="#ADD1B2" style="stroke:#181818;stroke-width:1;"/><path d="M2367.969,28.641 Q2367.391,28.938 2366.75,29.078 Q2366.109,29.234 2365.406,29.234 Q2362.906,29.234 2361.578,27.594 Q2360.266,25.938 2360.266,22.813 Q2360.266,19.688 2361.578,18.031 Q2362.906,16.375 2365.406,16.375 Q2366.109,16.375 2366.75,16.531 Q2367.406,16.688 2367.969,16.984 L2367.969,19.703 Q2367.344,19.125 2366.75,18.859 Q2366.156,18.578 2365.531,18.578 Q2364.188,18.578 2363.5,19.656 Q2362.813,20.719 2362.813,22.813 Q2362.813,24.906 2363.5,25.984 Q2364.188,27.047 2365.531,27.047 Q2366.156,27.047 2366.75,26.781 Q2367.344,26.5 2367.969,25.922 L2367.969,28.641 Z " fill="#000"/><text x="2379" y="27.847" fill="#000" font-size="14" textLength="138.38">ExecutionCollection</text><line x1="2351" y1="39" x2="2519.38" y2="39" style="stroke:#181818;stroke-width:0.5;"/><line x1="2351" y1="47" x2="2519.38" y2="47" style="stroke:#181818;stroke-width:0.5;"/></g><!--class SamplingCollection--><g class="entity" data-qualified-name="SamplingCollection" id="ent0029" data-source-line="12"><rect x="2149.5" y="115" width="166.777" height="48" fill="#F1F1F1" style="stroke:#181818;stroke-width:0.5;" rx="2.5" ry="2.5"/><ellipse cx="2164.5" cy="131" rx="11" ry="11" fill="#ADD1B2" style="stroke:#181818;stroke-width:1;"/><path d="M2167.469,136.641 Q2166.891,136.938 2166.25,137.078 Q2165.609,137.234 2164.906,137.234 Q2162.406,137.234 2161.078,135.594 Q2159.766,133.938 2159.766,130.813 Q2159.766,127.688 2161.078,126.031 Q2162.406,124.375 2164.906,124.375 Q2165.609,124.375 2166.25,124.531 Q2166.906,124.688 2167.469,124.984 L2167.469,127.703 Q2166.844,127.125 2166.25,126.859 Q2165.656,126.578 2165.031,126.578 Q2163.688,126.578 2163,127.656 Q2162.313,128.719 2162.313,130.813 Q2162.313,132.906 2163,133.984 Q2163.688,135.047 2165.031,135.047 Q2165.656,135.047 2166.25,134.781 Q2166.844,134.5 2167.469,133.922 L2167.469,136.641 Z " fill="#000"/><text x="2178.5" y="135.847" fill="#000" font-size="14" textLength="134.777">SamplingCollection</text><line x1="2150.5" y1="147" x2="2315.277" y2="147" style="stroke:#181818;stroke-width:0.5;"/><line x1="2150.5" y1="155" x2="2315.277" y2="155" style="stroke:#181818;stroke-width:0.5;"/></g><!--class Sensor--><g class="entity" data-qualified-name="Sensor" id="ent0032" data-source-line="14"><rect x="2153" y="223" width="79.988" height="48" fill="#F1F1F1" style="stroke:#181818;stroke-width:0.5;" rx="2.5" ry="2.5"/><ellipse cx="2168" cy="239" rx="11" ry="11" fill="#ADD1B2" style="stroke:#181818;stroke-width:1;"/><path d="M2170.969,244.641 Q2170.391,244.938 2169.75,245.078 Q2169.109,245.234 2168.406,245.234 Q2165.906,245.234 2164.578,243.594 Q2163.266,241.938 2163.266,238.813 Q2163.266,235.688 2164.578,234.031 Q2165.906,232.375 2168.406,232.375 Q2169.109,232.375 2169.75,232.531 Q2170.406,232.688 2170.969,232.984 L2170.969,235.703 Q2170.344,235.125 2169.75,234.859 Q2169.156,234.578 2168.531,234.578 Q2167.188,234.578 2166.5,235.656 Q2165.813,236.719 2165.813,238.813 Q2165.813,240.906 2166.5,241.984 Q2167.188,243.047 2168.531,243.047 Q2169.156,243.047 2169.75,242.781 Q2170.344,242.5 2170.969,241.922 L2170.969,244.641 Z " fill="#000"/><text x="2182" y="243.847" fill="#000" font-size="14" textLength="47.988">Sensor</text><line x1="2154" y1="255" x2="2231.988" y2="255" style="stroke:#181818;stroke-width:0.5;"/><line x1="2154" y1="263" x2="2231.988" y2="263" style="stroke:#181818;stroke-width:0.5;"/></g><!--class Execution--><g class="entity" data-qualified-name="Execution" id="ent0034" data-source-line="15"><rect x="2907.5" y="7" width="101.132" height="48" fill="#F1F1F1" style="stroke:#181818;stroke-width:0.5;" rx="2.5" ry="2.5"/><ellipse cx="2922.5" cy="23" rx="11" ry="11" fill="#ADD1B2" style="stroke:#181818;stroke-width:1;"/><path d="M2925.469,28.641 Q2924.891,28.938 2924.25,29.078 Q2923.609,29.234 2922.906,29.234 Q2920.406,29.234 2919.078,27.594 Q2917.766,25.938 2917.766,22.813 Q2917.766,19.688 2919.078,18.031 Q2920.406,16.375 2922.906,16.375 Q2923.609,16.375 2924.25,16.531 Q2924.906,16.688 2925.469,16.984 L2925.469,19.703 Q2924.844,19.125 2924.25,18.859 Q2923.656,18.578 2923.031,18.578 Q2921.688,18.578 2921,19.656 Q2920.313,20.719 2920.313,22.813 Q2920.313,24.906 2921,25.984 Q2921.688,27.047 2923.031,27.047 Q2923.656,27.047 2924.25,26.781 Q2924.844,26.5 2925.469,25.922 L2925.469,28.641 Z " fill="#000"/><text x="2936.5" y="27.847" fill="#000" font-size="14" textLength="69.132">Execution</text><line x1="2908.5" y1="39" x2="3007.632" y2="39" style="stroke:#181818;stroke-width:0.5;"/><line x1="2908.5" y1="47" x2="3007.632" y2="47" style="stroke:#181818;stroke-width:0.5;"/></g><!--class Sampling--><g class="entity" data-qualified-name="Sampling" id="ent0035" data-source-line="15"><rect x="2775" y="115" width="97.529" height="48" fill="#F1F1F1" style="stroke:#181818;stroke-width:0.5;" rx="2.5" ry="2.5"/><ellipse cx="2790" cy="131" rx="11" ry="11" fill="#ADD1B2" style="stroke:#181818;stroke-width:1;"/><path d="M2792.969,136.641 Q2792.391,136.938 2791.75,137.078 Q2791.109,137.234 2790.406,137.234 Q2787.906,137.234 2786.578,135.594 Q2785.266,133.938 2785.266,130.813 Q2785.266,127.688 2786.578,126.031 Q2787.906,124.375 2790.406,124.375 Q2791.109,124.375 2791.75,124.531 Q2792.406,124.688 2792.969,124.984 L2792.969,127.703 Q2792.344,127.125 2791.75,126.859 Q2791.156,126.578 2790.531,126.578 Q2789.188,126.578 2788.5,127.656 Q2787.813,128.719 2787.813,130.813 Q2787.813,132.906 2788.5,133.984 Q2789.188,135.047 2790.531,135.047 Q2791.156,135.047 2791.75,134.781 Q2792.344,134.5 2792.969,133.922 L2792.969,136.641 Z " fill="#000"/><text x="2804" y="135.847" fill="#000" font-size="14" textLength="65.529">Sampling</text><line x1="2776" y1="147" x2="2871.529" y2="147" style="stroke:#181818;stroke-width:0.5;"/><line x1="2776" y1="155" x2="2871.529" y2="155" style="stroke:#181818;stroke-width:0.5;"/></g><!--class Actuation--><g class="entity" data-qualified-name="Actuation" id="ent0037" data-source-line="16"><rect x="2908.5" y="115" width="99.033" height="48" fill="#F1F1F1" style="stroke:#181818;stroke-width:0.5;" rx="2.5" ry="2.5"/><ellipse cx="2923.5" cy="131" rx="11" ry="11" fill="#ADD1B2" style="stroke:#181818;stroke-width:1;"/><path d="M2926.469,136.641 Q2925.891,136.938 2925.25,137.078 Q2924.609,137.234 2923.906,137.234 Q2921.406,137.234 2920.078,135.594 Q2918.766,133.938 2918.766,130.813 Q2918.766,127.688 2920.078,126.031 Q2921.406,124.375 2923.906,124.375 Q2924.609,124.375 2925.25,124.531 Q2925.906,124.688 2926.469,124.984 L2926.469,127.703 Q2925.844,127.125 2925.25,126.859 Q2924.656,126.578 2924.031,126.578 Q2922.688,126.578 2922,127.656 Q2921.313,128.719 2921.313,130.813 Q2921.313,132.906 2922,133.984 Q2922.688,135.047 2924.031,135.047 Q2924.656,135.047 2925.25,134.781 Q2925.844,134.5 2926.469,133.922 L2926.469,136.641 Z " fill="#000"/><text x="2937.5" y="135.847" fill="#000" font-size="14" textLength="67.033">Actuation</text><line x1="2909.5" y1="147" x2="3006.533" y2="147" style="stroke:#181818;stroke-width:0.5;"/><line x1="2909.5" y1="155" x2="3006.533" y2="155" style="stroke:#181818;stroke-width:0.5;"/></g><!--class ActuationCollection--><g class="entity" data-qualified-name="ActuationCollection" id="ent0039" data-source-line="17"><rect x="2351" y="115" width="168.281" height="48" fill="#F1F1F1" style="stroke:#181818;stroke-width:0.5;" rx="2.5" ry="2.5"/><ellipse cx="2366" cy="131" rx="11" ry="11" fill="#ADD1B2" style="stroke:#181818;stroke-width:1;"/><path d="M2368.969,136.641 Q2368.391,136.938 2367.75,137.078 Q2367.109,137.234 2366.406,137.234 Q2363.906,137.234 2362.578,135.594 Q2361.266,133.938 2361.266,130.813 Q2361.266,127.688 2362.578,126.031 Q2363.906,124.375 2366.406,124.375 Q2367.109,124.375 2367.75,124.531 Q2368.406,124.688 2368.969,124.984 L2368.969,127.703 Q2368.344,127.125 2367.75,126.859 Q2367.156,126.578 2366.531,126.578 Q2365.188,126.578 2364.5,127.656 Q2363.813,128.719 2363.813,130.813 Q2363.813,132.906 2364.5,133.984 Q2365.188,135.047 2366.531,135.047 Q2367.156,135.047 2367.75,134.781 Q2368.344,134.5 2368.969,133.922 L2368.969,136.641 Z " fill="#000"/><text x="2380" y="135.847" fill="#000" font-size="14" textLength="136.281">ActuationCollection</text><line x1="2352" y1="147" x2="2518.281" y2="147" style="stroke:#181818;stroke-width:0.5;"/><line x1="2352" y1="155" x2="2518.281" y2="155" style="stroke:#181818;stroke-width:0.5;"/></g><!--class ObservationCollection--><g class="entity" data-qualified-name="ObservationCollection" id="ent0041" data-source-line="18"><rect x="2554" y="115" width="186.499" height="48" fill="#F1F1F1" style="stroke:#181818;stroke-width:0.5;" rx="2.5" ry="2.5"/><ellipse cx="2569" cy="131" rx="11" ry="11" fill="#ADD1B2" style="stroke:#181818;stroke-width:1;"/><path d="M2571.969,136.641 Q2571.391,136.938 2570.75,137.078 Q2570.109,137.234 2569.406,137.234 Q2566.906,137.234 2565.578,135.594 Q2564.266,133.938 2564.266,130.813 Q2564.266,127.688 2565.578,126.031 Q2566.906,124.375 2569.406,124.375 Q2570.109,124.375 2570.75,124.531 Q2571.406,124.688 2571.969,124.984 L2571.969,127.703 Q2571.344,127.125 2570.75,126.859 Q2570.156,126.578 2569.531,126.578 Q2568.188,126.578 2567.5,127.656 Q2566.813,128.719 2566.813,130.813 Q2566.813,132.906 2567.5,133.984 Q2568.188,135.047 2569.531,135.047 Q2570.156,135.047 2570.75,134.781 Q2571.344,134.5 2571.969,133.922 L2571.969,136.641 Z " fill="#000"/><text x="2583" y="135.847" fill="#000" font-size="14" textLength="154.499">ObservationCollection</text><line x1="2555" y1="147" x2="2739.499" y2="147" style="stroke:#181818;stroke-width:0.5;"/><line x1="2555" y1="155" x2="2739.499" y2="155" style="stroke:#181818;stroke-width:0.5;"/></g><!--class Observation--><g class="entity" data-qualified-name="Observation" id="ent0043" data-source-line="19"><rect x="3042.5" y="115" width="117.251" height="48" fill="#F1F1F1" style="stroke:#181818;stroke-width:0.5;" rx="2.5" ry="2.5"/><ellipse cx="3057.5" cy="131" rx="11" ry="11" fill="#ADD1B2" style="stroke:#181818;stroke-width:1;"/><path d="M3060.469,136.641 Q3059.891,136.938 3059.25,137.078 Q3058.609,137.234 3057.906,137.234 Q3055.406,137.234 3054.078,135.594 Q3052.766,133.938 3052.766,130.813 Q3052.766,127.688 3054.078,126.031 Q3055.406,124.375 3057.906,124.375 Q3058.609,124.375 3059.25,124.531 Q3059.906,124.688 3060.469,124.984 L3060.469,127.703 Q3059.844,127.125 3059.25,126.859 Q3058.656,126.578 3058.031,126.578 Q3056.688,126.578 3056,127.656 Q3055.313,128.719 3055.313,130.813 Q3055.313,132.906 3056,133.984 Q3056.688,135.047 3058.031,135.047 Q3058.656,135.047 3059.25,134.781 Q3059.844,134.5 3060.469,133.922 L3060.469,136.641 Z " fill="#000"/><text x="3071.5" y="135.847" fill="#000" font-size="14" textLength="85.251">Observation</text><line x1="3043.5" y1="147" x2="3158.751" y2="147" style="stroke:#181818;stroke-width:0.5;"/><line x1="3043.5" y1="155" x2="3158.751" y2="155" style="stroke:#181818;stroke-width:0.5;"/></g><!--class Deployment--><g class="entity" data-qualified-name="Deployment" id="ent0045" data-source-line="20"><rect x="7" y="7" width="117.634" height="48" fill="#F1F1F1" style="stroke:#181818;stroke-width:0.5;" rx="2.5" ry="2.5"/><ellipse cx="22" cy="23" rx="11" ry="11" fill="#ADD1B2" style="stroke:#181818;stroke-width:1;"/><path d="M24.969,28.641 Q24.391,28.938 23.75,29.078 Q23.109,29.234 22.406,29.234 Q19.906,29.234 18.578,27.594 Q17.266,25.938 17.266,22.813 Q17.266,19.688 18.578,18.031 Q19.906,16.375 22.406,16.375 Q23.109,16.375 23.75,16.531 Q24.406,16.688 24.969,16.984 L24.969,19.703 Q24.344,19.125 23.75,18.859 Q23.156,18.578 22.531,18.578 Q21.188,18.578 20.5,19.656 Q19.813,20.719 19.813,22.813 Q19.813,24.906 20.5,25.984 Q21.188,27.047 22.531,27.047 Q23.156,27.047 23.75,26.781 Q24.344,26.5 24.969,25.922 L24.969,28.641 Z " fill="#000"/><text x="36" y="27.847" fill="#000" font-size="14" textLength="85.634">Deployment</text><line x1="8" y1="39" x2="123.634" y2="39" style="stroke:#181818;stroke-width:0.5;"/><line x1="8" y1="47" x2="123.634" y2="47" style="stroke:#181818;stroke-width:0.5;"/></g><!--class SampleCollection--><g class="entity" data-qualified-name="SampleCollection" id="ent0046" data-source-line="21"><rect x="160" y="7" width="153.741" height="48" fill="#F1F1F1" style="stroke:#181818;stroke-width:0.5;" rx="2.5" ry="2.5"/><ellipse cx="175" cy="23" rx="11" ry="11" fill="#ADD1B2" style="stroke:#181818;stroke-width:1;"/><path d="M177.969,28.641 Q177.391,28.938 176.75,29.078 Q176.109,29.234 175.406,29.234 Q172.906,29.234 171.578,27.594 Q170.266,25.938 170.266,22.813 Q170.266,19.688 171.578,18.031 Q172.906,16.375 175.406,16.375 Q176.109,16.375 176.75,16.531 Q177.406,16.688 177.969,16.984 L177.969,19.703 Q177.344,19.125 176.75,18.859 Q176.156,18.578 175.531,18.578 Q174.188,18.578 173.5,19.656 Q172.813,20.719 172.813,22.813 Q172.813,24.906 173.5,25.984 Q174.188,27.047 175.531,27.047 Q176.156,27.047 176.75,26.781 Q177.344,26.5 177.969,25.922 L177.969,28.641 Z " fill="#000"/><text x="189" y="27.847" fill="#000" font-size="14" textLength="121.741">SampleCollection</text><line x1="161" y1="39" x2="312.741" y2="39" style="stroke:#181818;stroke-width:0.5;"/><line x1="161" y1="47" x2="312.741" y2="47" style="stroke:#181818;stroke-width:0.5;"/></g><!--class Result--><g class="entity" data-qualified-name="Result" id="ent0047" data-source-line="22"><rect x="349" y="7" width="75.887" height="48" fill="#F1F1F1" style="stroke:#181818;stroke-width:0.5;" rx="2.5" ry="2.5"/><ellipse cx="364" cy="23" rx="11" ry="11" fill="#ADD1B2" style="stroke:#181818;stroke-width:1;"/><path d="M366.969,28.641 Q366.391,28.938 365.75,29.078 Q365.109,29.234 364.406,29.234 Q361.906,29.234 360.578,27.594 Q359.266,25.938 359.266,22.813 Q359.266,19.688 360.578,18.031 Q361.906,16.375 364.406,16.375 Q365.109,16.375 365.75,16.531 Q366.406,16.688 366.969,16.984 L366.969,19.703 Q366.344,19.125 365.75,18.859 Q365.156,18.578 364.531,18.578 Q363.188,18.578 362.5,19.656 Q361.813,20.719 361.813,22.813 Q361.813,24.906 362.5,25.984 Q363.188,27.047 364.531,27.047 Q365.156,27.047 365.75,26.781 Q366.344,26.5 366.969,25.922 L366.969,28.641 Z " fill="#000"/><text x="378" y="27.847" fill="#000" font-size="14" textLength="43.887">Result</text><line x1="350" y1="39" x2="423.887" y2="39" style="stroke:#181818;stroke-width:0.5;"/><line x1="350" y1="47" x2="423.887" y2="47" style="stroke:#181818;stroke-width:0.5;"/></g><!--class Stimulus--><g class="entity" data-qualified-name="Stimulus" id="ent0048" data-source-line="23"><rect x="19.5" y="115" width="92.833" height="48" fill="#F1F1F1" style="stroke:#181818;stroke-width:0.5;" rx="2.5" ry="2.5"/><ellipse cx="34.5" cy="131" rx="11" ry="11" fill="#ADD1B2" style="stroke:#181818;stroke-width:1;"/><path d="M37.469,136.641 Q36.891,136.938 36.25,137.078 Q35.609,137.234 34.906,137.234 Q32.406,137.234 31.078,135.594 Q29.766,133.938 29.766,130.813 Q29.766,127.688 31.078,126.031 Q32.406,124.375 34.906,124.375 Q35.609,124.375 36.25,124.531 Q36.906,124.688 37.469,124.984 L37.469,127.703 Q36.844,127.125 36.25,126.859 Q35.656,126.578 35.031,126.578 Q33.688,126.578 33,127.656 Q32.313,128.719 32.313,130.813 Q32.313,132.906 33,133.984 Q33.688,135.047 35.031,135.047 Q35.656,135.047 36.25,134.781 Q36.844,134.5 37.469,133.922 L37.469,136.641 Z " fill="#000"/><text x="48.5" y="135.847" fill="#000" font-size="14" textLength="60.833">Stimulus</text><line x1="20.5" y1="147" x2="111.333" y2="147" style="stroke:#181818;stroke-width:0.5;"/><line x1="20.5" y1="155" x2="111.333" y2="155" style="stroke:#181818;stroke-width:0.5;"/></g><!--class FeatureOfInterest--><g class="entity" data-qualified-name="FeatureOfInterest" id="ent0049" data-source-line="24"><rect x="148" y="115" width="156.182" height="48" fill="#F1F1F1" style="stroke:#181818;stroke-width:0.5;" rx="2.5" ry="2.5"/><ellipse cx="163" cy="131" rx="11" ry="11" fill="#ADD1B2" style="stroke:#181818;stroke-width:1;"/><path d="M165.969,136.641 Q165.391,136.938 164.75,137.078 Q164.109,137.234 163.406,137.234 Q160.906,137.234 159.578,135.594 Q158.266,133.938 158.266,130.813 Q158.266,127.688 159.578,126.031 Q160.906,124.375 163.406,124.375 Q164.109,124.375 164.75,124.531 Q165.406,124.688 165.969,124.984 L165.969,127.703 Q165.344,127.125 164.75,126.859 Q164.156,126.578 163.531,126.578 Q162.188,126.578 161.5,127.656 Q160.813,128.719 160.813,130.813 Q160.813,132.906 161.5,133.984 Q162.188,135.047 163.531,135.047 Q164.156,135.047 164.75,134.781 Q165.344,134.5 165.969,133.922 L165.969,136.641 Z " fill="#000"/><text x="177" y="135.847" fill="#000" font-size="14" textLength="124.182">FeatureOfInterest</text><line x1="149" y1="147" x2="303.182" y2="147" style="stroke:#181818;stroke-width:0.5;"/><line x1="149" y1="155" x2="303.182" y2="155" style="stroke:#181818;stroke-width:0.5;"/></g><!--reverse link Property to ActuatableProperty--><g class="link" data-entity-1="ent0001" data-entity-2="ent0002" id="lnk3" data-source-line="1" data-link-type="extension"><path d="M521.256,65.674 C497.276,83.334 478.78,96.94 454.68,114.68" style="stroke:#181818;stroke-width:1;" fill="none" id="Property-backto-ActuatableProperty" codeLine="1"/><polygon points="535.75,55,517.698,60.843,524.814,70.505,535.75,55" fill="none" style="stroke:#181818;stroke-width:1;stroke-linejoin:miter;stroke-miterlimit:10;"/></g><!--reverse link Sample to MaterialSample--><g class="link" data-entity-1="ent0004" data-entity-2="ent0005" id="lnk6" data-source-line="2" data-link-type="extension"><path d="M939.357,64.444 C910.607,82.164 886.35,97.11 857.55,114.86" style="stroke:#181818;stroke-width:1;" fill="none" id="Sample-backto-MaterialSample" codeLine="2"/><polygon points="954.68,55,936.209,59.337,942.505,69.552,954.68,55" fill="none" style="stroke:#181818;stroke-width:1;stroke-linejoin:miter;stroke-miterlimit:10;"/></g><!--reverse link Property to ObservableProperty--><g class="link" data-entity-1="ent0001" data-entity-2="ent0007" id="lnk8" data-source-line="3" data-link-type="extension"><path d="M589.216,70.602 C599.376,88.262 604.37,96.94 614.58,114.68" style="stroke:#181818;stroke-width:1;" fill="none" id="Property-backto-ObservableProperty" codeLine="3"/><polygon points="580.24,55,584.015,73.594,594.417,67.61,580.24,55" fill="none" style="stroke:#181818;stroke-width:1;stroke-linejoin:miter;stroke-miterlimit:10;"/></g><!--reverse link Sample to SpatialSample--><g class="link" data-entity-1="ent0004" data-entity-2="ent0009" id="lnk10" data-source-line="4" data-link-type="extension"><path d="M992,73 C992,90.66 992,96.94 992,114.68" style="stroke:#181818;stroke-width:1;" fill="none" id="Sample-backto-SpatialSample" codeLine="4"/><polygon points="992,55,986,73,998,73,992,55" fill="none" style="stroke:#181818;stroke-width:1;stroke-linejoin:miter;stroke-miterlimit:10;"/></g><!--reverse link Sample to StatisticalSample--><g class="link" data-entity-1="ent0004" data-entity-2="ent0011" id="lnk12" data-source-line="5" data-link-type="extension"><path d="M1046.328,64.172 C1076.248,81.892 1101.95,97.11 1131.93,114.86" style="stroke:#181818;stroke-width:1;" fill="none" id="Sample-backto-StatisticalSample" codeLine="5"/><polygon points="1030.84,55,1043.27,69.335,1049.385,59.01,1030.84,55" fill="none" style="stroke:#181818;stroke-width:1;stroke-linejoin:miter;stroke-miterlimit:10;"/></g><!--reverse link Procedure to ActuatingProcedure--><g class="link" data-entity-1="ent0013" data-entity-2="ent0014" id="lnk15" data-source-line="6" data-link-type="extension"><path d="M1515.833,63.173 C1481.063,80.893 1449.24,97.11 1414.4,114.86" style="stroke:#181818;stroke-width:1;" fill="none" id="Procedure-backto-ActuatingProcedure" codeLine="6"/><polygon points="1531.87,55,1513.108,57.827,1518.557,68.519,1531.87,55" fill="none" style="stroke:#181818;stroke-width:1;stroke-linejoin:miter;stroke-miterlimit:10;"/></g><!--reverse link Procedure to ObservingProcedure--><g class="link" data-entity-1="ent0013" data-entity-2="ent0016" id="lnk17" data-source-line="7" data-link-type="extension"><path d="M1577,73 C1577,90.66 1577,96.94 1577,114.68" style="stroke:#181818;stroke-width:1;" fill="none" id="Procedure-backto-ObservingProcedure" codeLine="7"/><polygon points="1577,55,1571,73,1583,73,1577,55" fill="none" style="stroke:#181818;stroke-width:1;stroke-linejoin:miter;stroke-miterlimit:10;"/></g><!--reverse link Procedure to SamplingProcedure--><g class="link" data-entity-1="ent0013" data-entity-2="ent0018" id="lnk19" data-source-line="8" data-link-type="extension"><path d="M1637.941,63.205 C1672.541,80.925 1704.15,97.11 1738.81,114.86" style="stroke:#181818;stroke-width:1;" fill="none" id="Procedure-backto-SamplingProcedure" codeLine="8"/><polygon points="1621.92,55,1635.206,68.545,1640.676,57.865,1621.92,55" fill="none" style="stroke:#181818;stroke-width:1;stroke-linejoin:miter;stroke-miterlimit:10;"/></g><!--reverse link Asset to Platform--><g class="link" data-entity-1="ent0020" data-entity-2="ent0021" id="lnk22" data-source-line="9" data-link-type="extension"><path d="M1987.784,70.602 C1977.624,88.262 1972.63,96.94 1962.42,114.68" style="stroke:#181818;stroke-width:1;" fill="none" id="Asset-backto-Platform" codeLine="9"/><polygon points="1996.76,55,1982.583,67.61,1992.985,73.594,1996.76,55" fill="none" style="stroke:#181818;stroke-width:1;stroke-linejoin:miter;stroke-miterlimit:10;"/></g><!--reverse link System to Sampler--><g class="link" data-entity-1="ent0023" data-entity-2="ent0024" id="lnk25" data-source-line="10" data-link-type="extension"><path d="M2030.886,174.588 C2009.896,192.248 1994.81,204.94 1973.72,222.68" style="stroke:#181818;stroke-width:1;" fill="none" id="System-backto-Sampler" codeLine="10"/><polygon points="2044.66,163,2027.024,169.997,2034.749,179.18,2044.66,163" fill="none" style="stroke:#181818;stroke-width:1;stroke-linejoin:miter;stroke-miterlimit:10;"/></g><!--reverse link System to Actuator--><g class="link" data-entity-1="ent0023" data-entity-2="ent0026" id="lnk27" data-source-line="11" data-link-type="extension"><path d="M2072,181 C2072,198.66 2072,204.94 2072,222.68" style="stroke:#181818;stroke-width:1;" fill="none" id="System-backto-Actuator" codeLine="11"/><polygon points="2072,163,2066,181,2078,181,2072,163" fill="none" style="stroke:#181818;stroke-width:1;stroke-linejoin:miter;stroke-miterlimit:10;"/></g><!--reverse link ExecutionCollection to SamplingCollection--><g class="link" data-entity-1="ent0028" data-entity-2="ent0029" id="lnk30" data-source-line="12" data-link-type="extension"><path d="M2375.231,63.364 C2341.461,81.084 2310.93,97.11 2277.09,114.86" style="stroke:#181818;stroke-width:1;" fill="none" id="ExecutionCollection-backto-SamplingCollection" codeLine="12"/><polygon points="2391.17,55,2372.443,58.051,2378.019,68.677,2391.17,55" fill="none" style="stroke:#181818;stroke-width:1;stroke-linejoin:miter;stroke-miterlimit:10;"/></g><!--reverse link Asset to System--><g class="link" data-entity-1="ent0020" data-entity-2="ent0023" id="lnk31" data-source-line="13" data-link-type="extension"><path d="M2032.538,70.537 C2042.868,88.197 2047.98,96.94 2058.36,114.68" style="stroke:#181818;stroke-width:1;" fill="none" id="Asset-backto-System" codeLine="13"/><polygon points="2023.45,55,2027.359,73.567,2037.717,67.508,2023.45,55" fill="none" style="stroke:#181818;stroke-width:1;stroke-linejoin:miter;stroke-miterlimit:10;"/></g><!--reverse link System to Sensor--><g class="link" data-entity-1="ent0023" data-entity-2="ent0032" id="lnk33" data-source-line="14" data-link-type="extension"><path d="M2111.797,174.864 C2131.947,192.524 2146.13,204.94 2166.38,222.68" style="stroke:#181818;stroke-width:1;" fill="none" id="System-backto-Sensor" codeLine="14"/><polygon points="2098.26,163,2107.842,179.376,2115.751,170.352,2098.26,163" fill="none" style="stroke:#181818;stroke-width:1;stroke-linejoin:miter;stroke-miterlimit:10;"/></g><!--reverse link Execution to Sampling--><g class="link" data-entity-1="ent0034" data-entity-2="ent0035" id="lnk36" data-source-line="15" data-link-type="extension"><path d="M2914.804,66.169 C2892.484,83.829 2875.91,96.94 2853.48,114.68" style="stroke:#181818;stroke-width:1;" fill="none" id="Execution-backto-Sampling" codeLine="15"/><polygon points="2928.92,55,2911.081,61.463,2918.527,70.874,2928.92,55" fill="none" style="stroke:#181818;stroke-width:1;stroke-linejoin:miter;stroke-miterlimit:10;"/></g><!--reverse link Execution to Actuation--><g class="link" data-entity-1="ent0034" data-entity-2="ent0037" id="lnk38" data-source-line="16" data-link-type="extension"><path d="M2958,73 C2958,90.66 2958,96.94 2958,114.68" style="stroke:#181818;stroke-width:1;" fill="none" id="Execution-backto-Actuation" codeLine="16"/><polygon points="2958,55,2952,73,2964,73,2958,55" fill="none" style="stroke:#181818;stroke-width:1;stroke-linejoin:miter;stroke-miterlimit:10;"/></g><!--reverse link ExecutionCollection to ActuationCollection--><g class="link" data-entity-1="ent0028" data-entity-2="ent0039" id="lnk40" data-source-line="17" data-link-type="extension"><path d="M2435,73 C2435,90.66 2435,96.94 2435,114.68" style="stroke:#181818;stroke-width:1;" fill="none" id="ExecutionCollection-backto-ActuationCollection" codeLine="17"/><polygon points="2435,55,2429,73,2441,73,2435,55" fill="none" style="stroke:#181818;stroke-width:1;stroke-linejoin:miter;stroke-miterlimit:10;"/></g><!--reverse link ExecutionCollection to ObservationCollection--><g class="link" data-entity-1="ent0028" data-entity-2="ent0041" id="lnk42" data-source-line="18" data-link-type="extension"><path d="M2497.1,63.05 C2532.54,80.77 2565.22,97.11 2600.72,114.86" style="stroke:#181818;stroke-width:1;" fill="none" id="ExecutionCollection-backto-ObservationCollection" codeLine="18"/><polygon points="2481,55,2494.416,68.416,2499.783,57.683,2481,55" fill="none" style="stroke:#181818;stroke-width:1;stroke-linejoin:miter;stroke-miterlimit:10;"/></g><!--reverse link Execution to Observation--><g class="link" data-entity-1="ent0034" data-entity-2="ent0043" id="lnk44" data-source-line="19" data-link-type="extension"><path d="M3003.49,65.72 C3027.31,83.38 3045.61,96.94 3069.54,114.68" style="stroke:#181818;stroke-width:1;" fill="none" id="Execution-backto-Observation" codeLine="19"/><polygon points="2989.03,55,2999.916,70.54,3007.063,60.9,2989.03,55" fill="none" style="stroke:#181818;stroke-width:1;stroke-linejoin:miter;stroke-miterlimit:10;"/></g><?plantuml-src VL9RRiGW4Fld5Bd0tg0_gpwaVbGRDIUOfTuAQO286Qf6wk6R5fI5hT8_i3ssDJ2cE2FfCjnz7Gx3qMecfJDZhBYPoC-CGh-G8ZdYWfcncpsT1UbZTtQQIQ-Z7QCh8-fiQspnbXFQLYwyR_YjecJ_f_XrxWH74MWXHoQznEJDj8Z2DnD87LQQn6GUFs6pkXZk8pFipwdFkU9jKF7gOn2aDUnjRl6wYjLrjy4cQIhiYkkZxSd_Y8nb4XaUC7DSF89Me2ohiIZmAoJpfb7dCsUfroUGhkzmkZo7zLT1z1i0?></g></svg>