<svg xmlns="http://www.w3.org/2000/svg" xmlns:xlink="http://www.w3.org/1999/xlink" contentStyleType="text/css" data-diagram-type="CLASS" height="286px" preserveAspectRatio="none" style="width:3146px;height:286px;background:#FFFFFF;" version="1.1" viewBox="0 0 3146 286" width="3146px" zoomAndPan="magnify"><?plantuml 1.2026.3?><defs/><g><!--class Property--><g class="entity" data-qualified-name="Property" data-source-line="1" id="ent0002"><rect fill="#F1F1F1" height="48" rx="2.5" ry="2.5" style="stroke:#181818;stroke-width:0.5;" width="91.7939" x="535" y="7"/><ellipse cx="550" cy="23" fill="#ADD1B2" rx="11" ry="11" style="stroke:#181818;stroke-width:1;"/><path d="M552.9688,28.6406 Q552.3906,28.9375 551.75,29.0781 Q551.1094,29.2344 550.4063,29.2344 Q547.9063,29.2344 546.5781,27.5938 Q545.2656,25.9375 545.2656,22.8125 Q545.2656,19.6875 546.5781,18.0313 Q547.9063,16.375 550.4063,16.375 Q551.1094,16.375 551.75,16.5313 Q552.4063,16.6875 552.9688,16.9844 L552.9688,19.7031 Q552.3438,19.125 551.75,18.8594 Q551.1563,18.5781 550.5313,18.5781 Q549.1875,18.5781 548.5,19.6563 Q547.8125,20.7188 547.8125,22.8125 Q547.8125,24.9063 548.5,25.9844 Q549.1875,27.0469 550.5313,27.0469 Q551.1563,27.0469 551.75,26.7813 Q552.3438,26.5 552.9688,25.9219 L552.9688,28.6406 Z " fill="#000000"/><text fill="#000000" font-family="sans-serif" font-size="14" lengthAdjust="spacing" textLength="59.7939" x="564" y="27.8467">Property</text><line style="stroke:#181818;stroke-width:0.5;" x1="536" x2="625.7939" y1="39" y2="39"/><line style="stroke:#181818;stroke-width:0.5;" x1="536" x2="625.7939" y1="47" y2="47"/></g><!--class ActuatableProperty--><g class="entity" data-qualified-name="ActuatableProperty" data-source-line="1" id="ent0003"><rect fill="#F1F1F1" height="48" rx="2.5" ry="2.5" style="stroke:#181818;stroke-width:0.5;" width="167.4678" x="311.5" y="115"/><ellipse cx="326.5" cy="131" fill="#ADD1B2" rx="11" ry="11" style="stroke:#181818;stroke-width:1;"/><path d="M329.4688,136.6406 Q328.8906,136.9375 328.25,137.0781 Q327.6094,137.2344 326.9063,137.2344 Q324.4063,137.2344 323.0781,135.5938 Q321.7656,133.9375 321.7656,130.8125 Q321.7656,127.6875 323.0781,126.0313 Q324.4063,124.375 326.9063,124.375 Q327.6094,124.375 328.25,124.5313 Q328.9063,124.6875 329.4688,124.9844 L329.4688,127.7031 Q328.8438,127.125 328.25,126.8594 Q327.6563,126.5781 327.0313,126.5781 Q325.6875,126.5781 325,127.6563 Q324.3125,128.7188 324.3125,130.8125 Q324.3125,132.9063 325,133.9844 Q325.6875,135.0469 327.0313,135.0469 Q327.6563,135.0469 328.25,134.7813 Q328.8438,134.5 329.4688,133.9219 L329.4688,136.6406 Z " fill="#000000"/><text fill="#000000" font-family="sans-serif" font-size="14" lengthAdjust="spacing" textLength="135.4678" x="340.5" y="135.8467">ActuatableProperty</text><line style="stroke:#181818;stroke-width:0.5;" x1="312.5" x2="477.9678" y1="147" y2="147"/><line style="stroke:#181818;stroke-width:0.5;" x1="312.5" x2="477.9678" y1="155" y2="155"/></g><!--class Sample--><g class="entity" data-qualified-name="Sample" data-source-line="2" id="ent0005"><rect fill="#F1F1F1" height="48" rx="2.5" ry="2.5" style="stroke:#181818;stroke-width:0.5;" width="84.4932" x="922" y="7"/><ellipse cx="937" cy="23" fill="#ADD1B2" rx="11" ry="11" style="stroke:#181818;stroke-width:1;"/><path d="M939.9688,28.6406 Q939.3906,28.9375 938.75,29.0781 Q938.1094,29.2344 937.4063,29.2344 Q934.9063,29.2344 933.5781,27.5938 Q932.2656,25.9375 932.2656,22.8125 Q932.2656,19.6875 933.5781,18.0313 Q934.9063,16.375 937.4063,16.375 Q938.1094,16.375 938.75,16.5313 Q939.4063,16.6875 939.9688,16.9844 L939.9688,19.7031 Q939.3438,19.125 938.75,18.8594 Q938.1563,18.5781 937.5313,18.5781 Q936.1875,18.5781 935.5,19.6563 Q934.8125,20.7188 934.8125,22.8125 Q934.8125,24.9063 935.5,25.9844 Q936.1875,27.0469 937.5313,27.0469 Q938.1563,27.0469 938.75,26.7813 Q939.3438,26.5 939.9688,25.9219 L939.9688,28.6406 Z " fill="#000000"/><text fill="#000000" font-family="sans-serif" font-size="14" lengthAdjust="spacing" textLength="52.4932" x="951" y="27.8467">Sample</text><line style="stroke:#181818;stroke-width:0.5;" x1="923" x2="1005.4932" y1="39" y2="39"/><line style="stroke:#181818;stroke-width:0.5;" x1="923" x2="1005.4932" y1="47" y2="47"/></g><!--class MaterialSample--><g class="entity" data-qualified-name="MaterialSample" data-source-line="2" id="ent0006"><rect fill="#F1F1F1" height="48" rx="2.5" ry="2.5" style="stroke:#181818;stroke-width:0.5;" width="141.3682" x="721.5" y="115"/><ellipse cx="736.5" cy="131" fill="#ADD1B2" rx="11" ry="11" style="stroke:#181818;stroke-width:1;"/><path d="M739.4688,136.6406 Q738.8906,136.9375 738.25,137.0781 Q737.6094,137.2344 736.9063,137.2344 Q734.4063,137.2344 733.0781,135.5938 Q731.7656,133.9375 731.7656,130.8125 Q731.7656,127.6875 733.0781,126.0313 Q734.4063,124.375 736.9063,124.375 Q737.6094,124.375 738.25,124.5313 Q738.9063,124.6875 739.4688,124.9844 L739.4688,127.7031 Q738.8438,127.125 738.25,126.8594 Q737.6563,126.5781 737.0313,126.5781 Q735.6875,126.5781 735,127.6563 Q734.3125,128.7188 734.3125,130.8125 Q734.3125,132.9063 735,133.9844 Q735.6875,135.0469 737.0313,135.0469 Q737.6563,135.0469 738.25,134.7813 Q738.8438,134.5 739.4688,133.9219 L739.4688,136.6406 Z " fill="#000000"/><text fill="#000000" font-family="sans-serif" font-size="14" lengthAdjust="spacing" textLength="109.3682" x="750.5" y="135.8467">MaterialSample</text><line style="stroke:#181818;stroke-width:0.5;" x1="722.5" x2="861.8682" y1="147" y2="147"/><line style="stroke:#181818;stroke-width:0.5;" x1="722.5" x2="861.8682" y1="155" y2="155"/></g><!--class ObservableProperty--><g class="entity" data-qualified-name="ObservableProperty" data-source-line="3" id="ent0008"><rect fill="#F1F1F1" height="48" rx="2.5" ry="2.5" style="stroke:#181818;stroke-width:0.5;" width="171.6172" x="514" y="115"/><ellipse cx="529" cy="131" fill="#ADD1B2" rx="11" ry="11" style="stroke:#181818;stroke-width:1;"/><path d="M531.9688,136.6406 Q531.3906,136.9375 530.75,137.0781 Q530.1094,137.2344 529.4063,137.2344 Q526.9063,137.2344 525.5781,135.5938 Q524.2656,133.9375 524.2656,130.8125 Q524.2656,127.6875 525.5781,126.0313 Q526.9063,124.375 529.4063,124.375 Q530.1094,124.375 530.75,124.5313 Q531.4063,124.6875 531.9688,124.9844 L531.9688,127.7031 Q531.3438,127.125 530.75,126.8594 Q530.1563,126.5781 529.5313,126.5781 Q528.1875,126.5781 527.5,127.6563 Q526.8125,128.7188 526.8125,130.8125 Q526.8125,132.9063 527.5,133.9844 Q528.1875,135.0469 529.5313,135.0469 Q530.1563,135.0469 530.75,134.7813 Q531.3438,134.5 531.9688,133.9219 L531.9688,136.6406 Z " fill="#000000"/><text fill="#000000" font-family="sans-serif" font-size="14" lengthAdjust="spacing" textLength="139.6172" x="543" y="135.8467">ObservableProperty</text><line style="stroke:#181818;stroke-width:0.5;" x1="515" x2="684.6172" y1="147" y2="147"/><line style="stroke:#181818;stroke-width:0.5;" x1="515" x2="684.6172" y1="155" y2="155"/></g><!--class SpatialSample--><g class="entity" data-qualified-name="SpatialSample" data-source-line="4" id="ent0010"><rect fill="#F1F1F1" height="48" rx="2.5" ry="2.5" style="stroke:#181818;stroke-width:0.5;" width="132.6934" x="897.5" y="115"/><ellipse cx="912.5" cy="131" fill="#ADD1B2" rx="11" ry="11" style="stroke:#181818;stroke-width:1;"/><path d="M915.4688,136.6406 Q914.8906,136.9375 914.25,137.0781 Q913.6094,137.2344 912.9063,137.2344 Q910.4063,137.2344 909.0781,135.5938 Q907.7656,133.9375 907.7656,130.8125 Q907.7656,127.6875 909.0781,126.0313 Q910.4063,124.375 912.9063,124.375 Q913.6094,124.375 914.25,124.5313 Q914.9063,124.6875 915.4688,124.9844 L915.4688,127.7031 Q914.8438,127.125 914.25,126.8594 Q913.6563,126.5781 913.0313,126.5781 Q911.6875,126.5781 911,127.6563 Q910.3125,128.7188 910.3125,130.8125 Q910.3125,132.9063 911,133.9844 Q911.6875,135.0469 913.0313,135.0469 Q913.6563,135.0469 914.25,134.7813 Q914.8438,134.5 915.4688,133.9219 L915.4688,136.6406 Z " fill="#000000"/><text fill="#000000" font-family="sans-serif" font-size="14" lengthAdjust="spacing" textLength="100.6934" x="926.5" y="135.8467">SpatialSample</text><line style="stroke:#181818;stroke-width:0.5;" x1="898.5" x2="1029.1934" y1="147" y2="147"/><line style="stroke:#181818;stroke-width:0.5;" x1="898.5" x2="1029.1934" y1="155" y2="155"/></g><!--class StatisticalSample--><g class="entity" data-qualified-name="StatisticalSample" data-source-line="5" id="ent0012"><rect fill="#F1F1F1" height="48" rx="2.5" ry="2.5" style="stroke:#181818;stroke-width:0.5;" width="153.666" x="1066" y="115"/><ellipse cx="1081" cy="131" fill="#ADD1B2" rx="11" ry="11" style="stroke:#181818;stroke-width:1;"/><path d="M1083.9688,136.6406 Q1083.3906,136.9375 1082.75,137.0781 Q1082.1094,137.2344 1081.4063,137.2344 Q1078.9063,137.2344 1077.5781,135.5938 Q1076.2656,133.9375 1076.2656,130.8125 Q1076.2656,127.6875 1077.5781,126.0313 Q1078.9063,124.375 1081.4063,124.375 Q1082.1094,124.375 1082.75,124.5313 Q1083.4063,124.6875 1083.9688,124.9844 L1083.9688,127.7031 Q1083.3438,127.125 1082.75,126.8594 Q1082.1563,126.5781 1081.5313,126.5781 Q1080.1875,126.5781 1079.5,127.6563 Q1078.8125,128.7188 1078.8125,130.8125 Q1078.8125,132.9063 1079.5,133.9844 Q1080.1875,135.0469 1081.5313,135.0469 Q1082.1563,135.0469 1082.75,134.7813 Q1083.3438,134.5 1083.9688,133.9219 L1083.9688,136.6406 Z " fill="#000000"/><text fill="#000000" font-family="sans-serif" font-size="14" lengthAdjust="spacing" textLength="121.666" x="1095" y="135.8467">StatisticalSample</text><line style="stroke:#181818;stroke-width:0.5;" x1="1067" x2="1218.666" y1="147" y2="147"/><line style="stroke:#181818;stroke-width:0.5;" x1="1067" x2="1218.666" y1="155" y2="155"/></g><!--class Procedure--><g class="entity" data-qualified-name="Procedure" data-source-line="6" id="ent0014"><rect fill="#F1F1F1" height="48" rx="2.5" ry="2.5" style="stroke:#181818;stroke-width:0.5;" width="103.2031" x="1497.5" y="7"/><ellipse cx="1512.5" cy="23" fill="#ADD1B2" rx="11" ry="11" style="stroke:#181818;stroke-width:1;"/><path d="M1515.4688,28.6406 Q1514.8906,28.9375 1514.25,29.0781 Q1513.6094,29.2344 1512.9063,29.2344 Q1510.4063,29.2344 1509.0781,27.5938 Q1507.7656,25.9375 1507.7656,22.8125 Q1507.7656,19.6875 1509.0781,18.0313 Q1510.4063,16.375 1512.9063,16.375 Q1513.6094,16.375 1514.25,16.5313 Q1514.9063,16.6875 1515.4688,16.9844 L1515.4688,19.7031 Q1514.8438,19.125 1514.25,18.8594 Q1513.6563,18.5781 1513.0313,18.5781 Q1511.6875,18.5781 1511,19.6563 Q1510.3125,20.7188 1510.3125,22.8125 Q1510.3125,24.9063 1511,25.9844 Q1511.6875,27.0469 1513.0313,27.0469 Q1513.6563,27.0469 1514.25,26.7813 Q1514.8438,26.5 1515.4688,25.9219 L1515.4688,28.6406 Z " fill="#000000"/><text fill="#000000" font-family="sans-serif" font-size="14" lengthAdjust="spacing" textLength="71.2031" x="1526.5" y="27.8467">Procedure</text><line style="stroke:#181818;stroke-width:0.5;" x1="1498.5" x2="1599.7031" y1="39" y2="39"/><line style="stroke:#181818;stroke-width:0.5;" x1="1498.5" x2="1599.7031" y1="47" y2="47"/></g><!--class ActuatingProcedure--><g class="entity" data-qualified-name="ActuatingProcedure" data-source-line="6" id="ent0015"><rect fill="#F1F1F1" height="48" rx="2.5" ry="2.5" style="stroke:#181818;stroke-width:0.5;" width="170.5576" x="1255.5" y="115"/><ellipse cx="1270.5" cy="131" fill="#ADD1B2" rx="11" ry="11" style="stroke:#181818;stroke-width:1;"/><path d="M1273.4688,136.6406 Q1272.8906,136.9375 1272.25,137.0781 Q1271.6094,137.2344 1270.9063,137.2344 Q1268.4063,137.2344 1267.0781,135.5938 Q1265.7656,133.9375 1265.7656,130.8125 Q1265.7656,127.6875 1267.0781,126.0313 Q1268.4063,124.375 1270.9063,124.375 Q1271.6094,124.375 1272.25,124.5313 Q1272.9063,124.6875 1273.4688,124.9844 L1273.4688,127.7031 Q1272.8438,127.125 1272.25,126.8594 Q1271.6563,126.5781 1271.0313,126.5781 Q1269.6875,126.5781 1269,127.6563 Q1268.3125,128.7188 1268.3125,130.8125 Q1268.3125,132.9063 1269,133.9844 Q1269.6875,135.0469 1271.0313,135.0469 Q1271.6563,135.0469 1272.25,134.7813 Q1272.8438,134.5 1273.4688,133.9219 L1273.4688,136.6406 Z " fill="#000000"/><text fill="#000000" font-family="sans-serif" font-size="14" lengthAdjust="spacing" textLength="138.5576" x="1284.5" y="135.8467">ActuatingProcedure</text><line style="stroke:#181818;stroke-width:0.5;" x1="1256.5" x2="1425.0576" y1="147" y2="147"/><line style="stroke:#181818;stroke-width:0.5;" x1="1256.5" x2="1425.0576" y1="155" y2="155"/></g><!--class ObservingProcedure--><g class="entity" data-qualified-name="ObservingProcedure" data-source-line="7" id="ent0017"><rect fill="#F1F1F1" height="48" rx="2.5" ry="2.5" style="stroke:#181818;stroke-width:0.5;" width="174.707" x="1461.5" y="115"/><ellipse cx="1476.5" cy="131" fill="#ADD1B2" rx="11" ry="11" style="stroke:#181818;stroke-width:1;"/><path d="M1479.4688,136.6406 Q1478.8906,136.9375 1478.25,137.0781 Q1477.6094,137.2344 1476.9063,137.2344 Q1474.4063,137.2344 1473.0781,135.5938 Q1471.7656,133.9375 1471.7656,130.8125 Q1471.7656,127.6875 1473.0781,126.0313 Q1474.4063,124.375 1476.9063,124.375 Q1477.6094,124.375 1478.25,124.5313 Q1478.9063,124.6875 1479.4688,124.9844 L1479.4688,127.7031 Q1478.8438,127.125 1478.25,126.8594 Q1477.6563,126.5781 1477.0313,126.5781 Q1475.6875,126.5781 1475,127.6563 Q1474.3125,128.7188 1474.3125,130.8125 Q1474.3125,132.9063 1475,133.9844 Q1475.6875,135.0469 1477.0313,135.0469 Q1477.6563,135.0469 1478.25,134.7813 Q1478.8438,134.5 1479.4688,133.9219 L1479.4688,136.6406 Z " fill="#000000"/><text fill="#000000" font-family="sans-serif" font-size="14" lengthAdjust="spacing" textLength="142.707" x="1490.5" y="135.8467">ObservingProcedure</text><line style="stroke:#181818;stroke-width:0.5;" x1="1462.5" x2="1635.207" y1="147" y2="147"/><line style="stroke:#181818;stroke-width:0.5;" x1="1462.5" x2="1635.207" y1="155" y2="155"/></g><!--class SamplingProcedure--><g class="entity" data-qualified-name="SamplingProcedure" data-source-line="8" id="ent0019"><rect fill="#F1F1F1" height="48" rx="2.5" ry="2.5" style="stroke:#181818;stroke-width:0.5;" width="168.7324" x="1671.5" y="115"/><ellipse cx="1686.5" cy="131" fill="#ADD1B2" rx="11" ry="11" style="stroke:#181818;stroke-width:1;"/><path d="M1689.4688,136.6406 Q1688.8906,136.9375 1688.25,137.0781 Q1687.6094,137.2344 1686.9063,137.2344 Q1684.4063,137.2344 1683.0781,135.5938 Q1681.7656,133.9375 1681.7656,130.8125 Q1681.7656,127.6875 1683.0781,126.0313 Q1684.4063,124.375 1686.9063,124.375 Q1687.6094,124.375 1688.25,124.5313 Q1688.9063,124.6875 1689.4688,124.9844 L1689.4688,127.7031 Q1688.8438,127.125 1688.25,126.8594 Q1687.6563,126.5781 1687.0313,126.5781 Q1685.6875,126.5781 1685,127.6563 Q1684.3125,128.7188 1684.3125,130.8125 Q1684.3125,132.9063 1685,133.9844 Q1685.6875,135.0469 1687.0313,135.0469 Q1687.6563,135.0469 1688.25,134.7813 Q1688.8438,134.5 1689.4688,133.9219 L1689.4688,136.6406 Z " fill="#000000"/><text fill="#000000" font-family="sans-serif" font-size="14" lengthAdjust="spacing" textLength="136.7324" x="1700.5" y="135.8467">SamplingProcedure</text><line style="stroke:#181818;stroke-width:0.5;" x1="1672.5" x2="1839.2324" y1="147" y2="147"/><line style="stroke:#181818;stroke-width:0.5;" x1="1672.5" x2="1839.2324" y1="155" y2="155"/></g><!--class Asset--><g class="entity" data-qualified-name="Asset" data-source-line="9" id="ent0021"><rect fill="#F1F1F1" height="48" rx="2.5" ry="2.5" style="stroke:#181818;stroke-width:0.5;" width="70.2676" x="1947" y="7"/><ellipse cx="1962" cy="23" fill="#ADD1B2" rx="11" ry="11" style="stroke:#181818;stroke-width:1;"/><path d="M1964.9688,28.6406 Q1964.3906,28.9375 1963.75,29.0781 Q1963.1094,29.2344 1962.4063,29.2344 Q1959.9063,29.2344 1958.5781,27.5938 Q1957.2656,25.9375 1957.2656,22.8125 Q1957.2656,19.6875 1958.5781,18.0313 Q1959.9063,16.375 1962.4063,16.375 Q1963.1094,16.375 1963.75,16.5313 Q1964.4063,16.6875 1964.9688,16.9844 L1964.9688,19.7031 Q1964.3438,19.125 1963.75,18.8594 Q1963.1563,18.5781 1962.5313,18.5781 Q1961.1875,18.5781 1960.5,19.6563 Q1959.8125,20.7188 1959.8125,22.8125 Q1959.8125,24.9063 1960.5,25.9844 Q1961.1875,27.0469 1962.5313,27.0469 Q1963.1563,27.0469 1963.75,26.7813 Q1964.3438,26.5 1964.9688,25.9219 L1964.9688,28.6406 Z " fill="#000000"/><text fill="#000000" font-family="sans-serif" font-size="14" lengthAdjust="spacing" textLength="38.2676" x="1976" y="27.8467">Asset</text><line style="stroke:#181818;stroke-width:0.5;" x1="1948" x2="2016.2676" y1="39" y2="39"/><line style="stroke:#181818;stroke-width:0.5;" x1="1948" x2="2016.2676" y1="47" y2="47"/></g><!--class Platform--><g class="entity" data-qualified-name="Platform" data-source-line="9" id="ent0022"><rect fill="#F1F1F1" height="48" rx="2.5" ry="2.5" style="stroke:#181818;stroke-width:0.5;" width="91.2881" x="1875.5" y="115"/><ellipse cx="1890.5" cy="131" fill="#ADD1B2" rx="11" ry="11" style="stroke:#181818;stroke-width:1;"/><path d="M1893.4688,136.6406 Q1892.8906,136.9375 1892.25,137.0781 Q1891.6094,137.2344 1890.9063,137.2344 Q1888.4063,137.2344 1887.0781,135.5938 Q1885.7656,133.9375 1885.7656,130.8125 Q1885.7656,127.6875 1887.0781,126.0313 Q1888.4063,124.375 1890.9063,124.375 Q1891.6094,124.375 1892.25,124.5313 Q1892.9063,124.6875 1893.4688,124.9844 L1893.4688,127.7031 Q1892.8438,127.125 1892.25,126.8594 Q1891.6563,126.5781 1891.0313,126.5781 Q1889.6875,126.5781 1889,127.6563 Q1888.3125,128.7188 1888.3125,130.8125 Q1888.3125,132.9063 1889,133.9844 Q1889.6875,135.0469 1891.0313,135.0469 Q1891.6563,135.0469 1892.25,134.7813 Q1892.8438,134.5 1893.4688,133.9219 L1893.4688,136.6406 Z " fill="#000000"/><text fill="#000000" font-family="sans-serif" font-size="14" lengthAdjust="spacing" textLength="59.2881" x="1904.5" y="135.8467">Platform</text><line style="stroke:#181818;stroke-width:0.5;" x1="1876.5" x2="1965.7881" y1="147" y2="147"/><line style="stroke:#181818;stroke-width:0.5;" x1="1876.5" x2="1965.7881" y1="155" y2="155"/></g><!--class System--><g class="entity" data-qualified-name="System" data-source-line="10" id="ent0024"><rect fill="#F1F1F1" height="48" rx="2.5" ry="2.5" style="stroke:#181818;stroke-width:0.5;" width="84.2061" x="2002" y="115"/><ellipse cx="2017" cy="131" fill="#ADD1B2" rx="11" ry="11" style="stroke:#181818;stroke-width:1;"/><path d="M2019.9688,136.6406 Q2019.3906,136.9375 2018.75,137.0781 Q2018.1094,137.2344 2017.4063,137.2344 Q2014.9063,137.2344 2013.5781,135.5938 Q2012.2656,133.9375 2012.2656,130.8125 Q2012.2656,127.6875 2013.5781,126.0313 Q2014.9063,124.375 2017.4063,124.375 Q2018.1094,124.375 2018.75,124.5313 Q2019.4063,124.6875 2019.9688,124.9844 L2019.9688,127.7031 Q2019.3438,127.125 2018.75,126.8594 Q2018.1563,126.5781 2017.5313,126.5781 Q2016.1875,126.5781 2015.5,127.6563 Q2014.8125,128.7188 2014.8125,130.8125 Q2014.8125,132.9063 2015.5,133.9844 Q2016.1875,135.0469 2017.5313,135.0469 Q2018.1563,135.0469 2018.75,134.7813 Q2019.3438,134.5 2019.9688,133.9219 L2019.9688,136.6406 Z " fill="#000000"/><text fill="#000000" font-family="sans-serif" font-size="14" lengthAdjust="spacing" textLength="52.2061" x="2031" y="135.8467">System</text><line style="stroke:#181818;stroke-width:0.5;" x1="2003" x2="2085.2061" y1="147" y2="147"/><line style="stroke:#181818;stroke-width:0.5;" x1="2003" x2="2085.2061" y1="155" y2="155"/></g><!--class Sampler--><g class="entity" data-qualified-name="Sampler" data-source-line="10" id="ent0025"><rect fill="#F1F1F1" height="48" rx="2.5" ry="2.5" style="stroke:#181818;stroke-width:0.5;" width="90.249" x="1873" y="223"/><ellipse cx="1888" cy="239" fill="#ADD1B2" rx="11" ry="11" style="stroke:#181818;stroke-width:1;"/><path d="M1890.9688,244.6406 Q1890.3906,244.9375 1889.75,245.0781 Q1889.1094,245.2344 1888.4063,245.2344 Q1885.9063,245.2344 1884.5781,243.5938 Q1883.2656,241.9375 1883.2656,238.8125 Q1883.2656,235.6875 1884.5781,234.0313 Q1885.9063,232.375 1888.4063,232.375 Q1889.1094,232.375 1889.75,232.5313 Q1890.4063,232.6875 1890.9688,232.9844 L1890.9688,235.7031 Q1890.3438,235.125 1889.75,234.8594 Q1889.1563,234.5781 1888.5313,234.5781 Q1887.1875,234.5781 1886.5,235.6563 Q1885.8125,236.7188 1885.8125,238.8125 Q1885.8125,240.9063 1886.5,241.9844 Q1887.1875,243.0469 1888.5313,243.0469 Q1889.1563,243.0469 1889.75,242.7813 Q1890.3438,242.5 1890.9688,241.9219 L1890.9688,244.6406 Z " fill="#000000"/><text fill="#000000" font-family="sans-serif" font-size="14" lengthAdjust="spacing" textLength="58.249" x="1902" y="243.8467">Sampler</text><line style="stroke:#181818;stroke-width:0.5;" x1="1874" x2="1962.249" y1="255" y2="255"/><line style="stroke:#181818;stroke-width:0.5;" x1="1874" x2="1962.249" y1="263" y2="263"/></g><!--class Actuator--><g class="entity" data-qualified-name="Actuator" data-source-line="11" id="ent0027"><rect fill="#F1F1F1" height="48" rx="2.5" ry="2.5" style="stroke:#181818;stroke-width:0.5;" width="92.0264" x="1998" y="223"/><ellipse cx="2013" cy="239" fill="#ADD1B2" rx="11" ry="11" style="stroke:#181818;stroke-width:1;"/><path d="M2015.9688,244.6406 Q2015.3906,244.9375 2014.75,245.0781 Q2014.1094,245.2344 2013.4063,245.2344 Q2010.9063,245.2344 2009.5781,243.5938 Q2008.2656,241.9375 2008.2656,238.8125 Q2008.2656,235.6875 2009.5781,234.0313 Q2010.9063,232.375 2013.4063,232.375 Q2014.1094,232.375 2014.75,232.5313 Q2015.4063,232.6875 2015.9688,232.9844 L2015.9688,235.7031 Q2015.3438,235.125 2014.75,234.8594 Q2014.1563,234.5781 2013.5313,234.5781 Q2012.1875,234.5781 2011.5,235.6563 Q2010.8125,236.7188 2010.8125,238.8125 Q2010.8125,240.9063 2011.5,241.9844 Q2012.1875,243.0469 2013.5313,243.0469 Q2014.1563,243.0469 2014.75,242.7813 Q2015.3438,242.5 2015.9688,241.9219 L2015.9688,244.6406 Z " fill="#000000"/><text fill="#000000" font-family="sans-serif" font-size="14" lengthAdjust="spacing" textLength="60.0264" x="2027" y="243.8467">Actuator</text><line style="stroke:#181818;stroke-width:0.5;" x1="1999" x2="2089.0264" y1="255" y2="255"/><line style="stroke:#181818;stroke-width:0.5;" x1="1999" x2="2089.0264" y1="263" y2="263"/></g><!--class ExecutionCollection--><g class="entity" data-qualified-name="ExecutionCollection" data-source-line="12" id="ent0029"><rect fill="#F1F1F1" height="48" rx="2.5" ry="2.5" style="stroke:#181818;stroke-width:0.5;" width="170.3799" x="2322" y="7"/><ellipse cx="2337" cy="23" fill="#ADD1B2" rx="11" ry="11" style="stroke:#181818;stroke-width:1;"/><path d="M2339.9688,28.6406 Q2339.3906,28.9375 2338.75,29.0781 Q2338.1094,29.2344 2337.4063,29.2344 Q2334.9063,29.2344 2333.5781,27.5938 Q2332.2656,25.9375 2332.2656,22.8125 Q2332.2656,19.6875 2333.5781,18.0313 Q2334.9063,16.375 2337.4063,16.375 Q2338.1094,16.375 2338.75,16.5313 Q2339.4063,16.6875 2339.9688,16.9844 L2339.9688,19.7031 Q2339.3438,19.125 2338.75,18.8594 Q2338.1563,18.5781 2337.5313,18.5781 Q2336.1875,18.5781 2335.5,19.6563 Q2334.8125,20.7188 2334.8125,22.8125 Q2334.8125,24.9063 2335.5,25.9844 Q2336.1875,27.0469 2337.5313,27.0469 Q2338.1563,27.0469 2338.75,26.7813 Q2339.3438,26.5 2339.9688,25.9219 L2339.9688,28.6406 Z " fill="#000000"/><text fill="#000000" font-family="sans-serif" font-size="14" lengthAdjust="spacing" textLength="138.3799" x="2351" y="27.8467">ExecutionCollection</text><line style="stroke:#181818;stroke-width:0.5;" x1="2323" x2="2491.3799" y1="39" y2="39"/><line style="stroke:#181818;stroke-width:0.5;" x1="2323" x2="2491.3799" y1="47" y2="47"/></g><!--class SamplingCollection--><g class="entity" data-qualified-name="SamplingCollection" data-source-line="12" id="ent0030"><rect fill="#F1F1F1" height="48" rx="2.5" ry="2.5" style="stroke:#181818;stroke-width:0.5;" width="166.7773" x="2121.5" y="115"/><ellipse cx="2136.5" cy="131" fill="#ADD1B2" rx="11" ry="11" style="stroke:#181818;stroke-width:1;"/><path d="M2139.4688,136.6406 Q2138.8906,136.9375 2138.25,137.0781 Q2137.6094,137.2344 2136.9063,137.2344 Q2134.4063,137.2344 2133.0781,135.5938 Q2131.7656,133.9375 2131.7656,130.8125 Q2131.7656,127.6875 2133.0781,126.0313 Q2134.4063,124.375 2136.9063,124.375 Q2137.6094,124.375 2138.25,124.5313 Q2138.9063,124.6875 2139.4688,124.9844 L2139.4688,127.7031 Q2138.8438,127.125 2138.25,126.8594 Q2137.6563,126.5781 2137.0313,126.5781 Q2135.6875,126.5781 2135,127.6563 Q2134.3125,128.7188 2134.3125,130.8125 Q2134.3125,132.9063 2135,133.9844 Q2135.6875,135.0469 2137.0313,135.0469 Q2137.6563,135.0469 2138.25,134.7813 Q2138.8438,134.5 2139.4688,133.9219 L2139.4688,136.6406 Z " fill="#000000"/><text fill="#000000" font-family="sans-serif" font-size="14" lengthAdjust="spacing" textLength="134.7773" x="2150.5" y="135.8467">SamplingCollection</text><line style="stroke:#181818;stroke-width:0.5;" x1="2122.5" x2="2287.2773" y1="147" y2="147"/><line style="stroke:#181818;stroke-width:0.5;" x1="2122.5" x2="2287.2773" y1="155" y2="155"/></g><!--class Sensor--><g class="entity" data-qualified-name="Sensor" data-source-line="14" id="ent0033"><rect fill="#F1F1F1" height="48" rx="2.5" ry="2.5" style="stroke:#181818;stroke-width:0.5;" width="79.9883" x="2125" y="223"/><ellipse cx="2140" cy="239" fill="#ADD1B2" rx="11" ry="11" style="stroke:#181818;stroke-width:1;"/><path d="M2142.9688,244.6406 Q2142.3906,244.9375 2141.75,245.0781 Q2141.1094,245.2344 2140.4063,245.2344 Q2137.9063,245.2344 2136.5781,243.5938 Q2135.2656,241.9375 2135.2656,238.8125 Q2135.2656,235.6875 2136.5781,234.0313 Q2137.9063,232.375 2140.4063,232.375 Q2141.1094,232.375 2141.75,232.5313 Q2142.4063,232.6875 2142.9688,232.9844 L2142.9688,235.7031 Q2142.3438,235.125 2141.75,234.8594 Q2141.1563,234.5781 2140.5313,234.5781 Q2139.1875,234.5781 2138.5,235.6563 Q2137.8125,236.7188 2137.8125,238.8125 Q2137.8125,240.9063 2138.5,241.9844 Q2139.1875,243.0469 2140.5313,243.0469 Q2141.1563,243.0469 2141.75,242.7813 Q2142.3438,242.5 2142.9688,241.9219 L2142.9688,244.6406 Z " fill="#000000"/><text fill="#000000" font-family="sans-serif" font-size="14" lengthAdjust="spacing" textLength="47.9883" x="2154" y="243.8467">Sensor</text><line style="stroke:#181818;stroke-width:0.5;" x1="2126" x2="2203.9883" y1="255" y2="255"/><line style="stroke:#181818;stroke-width:0.5;" x1="2126" x2="2203.9883" y1="263" y2="263"/></g><!--class Execution--><g class="entity" data-qualified-name="Execution" data-source-line="15" id="ent0035"><rect fill="#F1F1F1" height="48" rx="2.5" ry="2.5" style="stroke:#181818;stroke-width:0.5;" width="101.1318" x="2879.5" y="7"/><ellipse cx="2894.5" cy="23" fill="#ADD1B2" rx="11" ry="11" style="stroke:#181818;stroke-width:1;"/><path d="M2897.4688,28.6406 Q2896.8906,28.9375 2896.25,29.0781 Q2895.6094,29.2344 2894.9063,29.2344 Q2892.4063,29.2344 2891.0781,27.5938 Q2889.7656,25.9375 2889.7656,22.8125 Q2889.7656,19.6875 2891.0781,18.0313 Q2892.4063,16.375 2894.9063,16.375 Q2895.6094,16.375 2896.25,16.5313 Q2896.9063,16.6875 2897.4688,16.9844 L2897.4688,19.7031 Q2896.8438,19.125 2896.25,18.8594 Q2895.6563,18.5781 2895.0313,18.5781 Q2893.6875,18.5781 2893,19.6563 Q2892.3125,20.7188 2892.3125,22.8125 Q2892.3125,24.9063 2893,25.9844 Q2893.6875,27.0469 2895.0313,27.0469 Q2895.6563,27.0469 2896.25,26.7813 Q2896.8438,26.5 2897.4688,25.9219 L2897.4688,28.6406 Z " fill="#000000"/><text fill="#000000" font-family="sans-serif" font-size="14" lengthAdjust="spacing" textLength="69.1318" x="2908.5" y="27.8467">Execution</text><line style="stroke:#181818;stroke-width:0.5;" x1="2880.5" x2="2979.6318" y1="39" y2="39"/><line style="stroke:#181818;stroke-width:0.5;" x1="2880.5" x2="2979.6318" y1="47" y2="47"/></g><!--class Sampling--><g class="entity" data-qualified-name="Sampling" data-source-line="15" id="ent0036"><rect fill="#F1F1F1" height="48" rx="2.5" ry="2.5" style="stroke:#181818;stroke-width:0.5;" width="97.5293" x="2747" y="115"/><ellipse cx="2762" cy="131" fill="#ADD1B2" rx="11" ry="11" style="stroke:#181818;stroke-width:1;"/><path d="M2764.9688,136.6406 Q2764.3906,136.9375 2763.75,137.0781 Q2763.1094,137.2344 2762.4063,137.2344 Q2759.9063,137.2344 2758.5781,135.5938 Q2757.2656,133.9375 2757.2656,130.8125 Q2757.2656,127.6875 2758.5781,126.0313 Q2759.9063,124.375 2762.4063,124.375 Q2763.1094,124.375 2763.75,124.5313 Q2764.4063,124.6875 2764.9688,124.9844 L2764.9688,127.7031 Q2764.3438,127.125 2763.75,126.8594 Q2763.1563,126.5781 2762.5313,126.5781 Q2761.1875,126.5781 2760.5,127.6563 Q2759.8125,128.7188 2759.8125,130.8125 Q2759.8125,132.9063 2760.5,133.9844 Q2761.1875,135.0469 2762.5313,135.0469 Q2763.1563,135.0469 2763.75,134.7813 Q2764.3438,134.5 2764.9688,133.9219 L2764.9688,136.6406 Z " fill="#000000"/><text fill="#000000" font-family="sans-serif" font-size="14" lengthAdjust="spacing" textLength="65.5293" x="2776" y="135.8467">Sampling</text><line style="stroke:#181818;stroke-width:0.5;" x1="2748" x2="2843.5293" y1="147" y2="147"/><line style="stroke:#181818;stroke-width:0.5;" x1="2748" x2="2843.5293" y1="155" y2="155"/></g><!--class Actuation--><g class="entity" data-qualified-name="Actuation" data-source-line="16" id="ent0038"><rect fill="#F1F1F1" height="48" rx="2.5" ry="2.5" style="stroke:#181818;stroke-width:0.5;" width="99.0332" x="2880.5" y="115"/><ellipse cx="2895.5" cy="131" fill="#ADD1B2" rx="11" ry="11" style="stroke:#181818;stroke-width:1;"/><path d="M2898.4688,136.6406 Q2897.8906,136.9375 2897.25,137.0781 Q2896.6094,137.2344 2895.9063,137.2344 Q2893.4063,137.2344 2892.0781,135.5938 Q2890.7656,133.9375 2890.7656,130.8125 Q2890.7656,127.6875 2892.0781,126.0313 Q2893.4063,124.375 2895.9063,124.375 Q2896.6094,124.375 2897.25,124.5313 Q2897.9063,124.6875 2898.4688,124.9844 L2898.4688,127.7031 Q2897.8438,127.125 2897.25,126.8594 Q2896.6563,126.5781 2896.0313,126.5781 Q2894.6875,126.5781 2894,127.6563 Q2893.3125,128.7188 2893.3125,130.8125 Q2893.3125,132.9063 2894,133.9844 Q2894.6875,135.0469 2896.0313,135.0469 Q2896.6563,135.0469 2897.25,134.7813 Q2897.8438,134.5 2898.4688,133.9219 L2898.4688,136.6406 Z " fill="#000000"/><text fill="#000000" font-family="sans-serif" font-size="14" lengthAdjust="spacing" textLength="67.0332" x="2909.5" y="135.8467">Actuation</text><line style="stroke:#181818;stroke-width:0.5;" x1="2881.5" x2="2978.5332" y1="147" y2="147"/><line style="stroke:#181818;stroke-width:0.5;" x1="2881.5" x2="2978.5332" y1="155" y2="155"/></g><!--class ActuationCollection--><g class="entity" data-qualified-name="ActuationCollection" data-source-line="17" id="ent0040"><rect fill="#F1F1F1" height="48" rx="2.5" ry="2.5" style="stroke:#181818;stroke-width:0.5;" width="168.2813" x="2323" y="115"/><ellipse cx="2338" cy="131" fill="#ADD1B2" rx="11" ry="11" style="stroke:#181818;stroke-width:1;"/><path d="M2340.9688,136.6406 Q2340.3906,136.9375 2339.75,137.0781 Q2339.1094,137.2344 2338.4063,137.2344 Q2335.9063,137.2344 2334.5781,135.5938 Q2333.2656,133.9375 2333.2656,130.8125 Q2333.2656,127.6875 2334.5781,126.0313 Q2335.9063,124.375 2338.4063,124.375 Q2339.1094,124.375 2339.75,124.5313 Q2340.4063,124.6875 2340.9688,124.9844 L2340.9688,127.7031 Q2340.3438,127.125 2339.75,126.8594 Q2339.1563,126.5781 2338.5313,126.5781 Q2337.1875,126.5781 2336.5,127.6563 Q2335.8125,128.7188 2335.8125,130.8125 Q2335.8125,132.9063 2336.5,133.9844 Q2337.1875,135.0469 2338.5313,135.0469 Q2339.1563,135.0469 2339.75,134.7813 Q2340.3438,134.5 2340.9688,133.9219 L2340.9688,136.6406 Z " fill="#000000"/><text fill="#000000" font-family="sans-serif" font-size="14" lengthAdjust="spacing" textLength="136.2813" x="2352" y="135.8467">ActuationCollection</text><line style="stroke:#181818;stroke-width:0.5;" x1="2324" x2="2490.2813" y1="147" y2="147"/><line style="stroke:#181818;stroke-width:0.5;" x1="2324" x2="2490.2813" y1="155" y2="155"/></g><!--class ObservationCollection--><g class="entity" data-qualified-name="ObservationCollection" data-source-line="18" id="ent0042"><rect fill="#F1F1F1" height="48" rx="2.5" ry="2.5" style="stroke:#181818;stroke-width:0.5;" width="186.499" x="2526" y="115"/><ellipse cx="2541" cy="131" fill="#ADD1B2" rx="11" ry="11" style="stroke:#181818;stroke-width:1;"/><path d="M2543.9688,136.6406 Q2543.3906,136.9375 2542.75,137.0781 Q2542.1094,137.2344 2541.4063,137.2344 Q2538.9063,137.2344 2537.5781,135.5938 Q2536.2656,133.9375 2536.2656,130.8125 Q2536.2656,127.6875 2537.5781,126.0313 Q2538.9063,124.375 2541.4063,124.375 Q2542.1094,124.375 2542.75,124.5313 Q2543.4063,124.6875 2543.9688,124.9844 L2543.9688,127.7031 Q2543.3438,127.125 2542.75,126.8594 Q2542.1563,126.5781 2541.5313,126.5781 Q2540.1875,126.5781 2539.5,127.6563 Q2538.8125,128.7188 2538.8125,130.8125 Q2538.8125,132.9063 2539.5,133.9844 Q2540.1875,135.0469 2541.5313,135.0469 Q2542.1563,135.0469 2542.75,134.7813 Q2543.3438,134.5 2543.9688,133.9219 L2543.9688,136.6406 Z " fill="#000000"/><text fill="#000000" font-family="sans-serif" font-size="14" lengthAdjust="spacing" textLength="154.499" x="2555" y="135.8467">ObservationCollection</text><line style="stroke:#181818;stroke-width:0.5;" x1="2527" x2="2711.499" y1="147" y2="147"/><line style="stroke:#181818;stroke-width:0.5;" x1="2527" x2="2711.499" y1="155" y2="155"/></g><!--class Observation--><g class="entity" data-qualified-name="Observation" data-source-line="19" id="ent0044"><rect fill="#F1F1F1" height="48" rx="2.5" ry="2.5" style="stroke:#181818;stroke-width:0.5;" width="117.251" x="3014.5" y="115"/><ellipse cx="3029.5" cy="131" fill="#ADD1B2" rx="11" ry="11" style="stroke:#181818;stroke-width:1;"/><path d="M3032.4688,136.6406 Q3031.8906,136.9375 3031.25,137.0781 Q3030.6094,137.2344 3029.9063,137.2344 Q3027.4063,137.2344 3026.0781,135.5938 Q3024.7656,133.9375 3024.7656,130.8125 Q3024.7656,127.6875 3026.0781,126.0313 Q3027.4063,124.375 3029.9063,124.375 Q3030.6094,124.375 3031.25,124.5313 Q3031.9063,124.6875 3032.4688,124.9844 L3032.4688,127.7031 Q3031.8438,127.125 3031.25,126.8594 Q3030.6563,126.5781 3030.0313,126.5781 Q3028.6875,126.5781 3028,127.6563 Q3027.3125,128.7188 3027.3125,130.8125 Q3027.3125,132.9063 3028,133.9844 Q3028.6875,135.0469 3030.0313,135.0469 Q3030.6563,135.0469 3031.25,134.7813 Q3031.8438,134.5 3032.4688,133.9219 L3032.4688,136.6406 Z " fill="#000000"/><text fill="#000000" font-family="sans-serif" font-size="14" lengthAdjust="spacing" textLength="85.251" x="3043.5" y="135.8467">Observation</text><line style="stroke:#181818;stroke-width:0.5;" x1="3015.5" x2="3130.751" y1="147" y2="147"/><line style="stroke:#181818;stroke-width:0.5;" x1="3015.5" x2="3130.751" y1="155" y2="155"/></g><!--class FeatureOfInterest--><g class="entity" data-qualified-name="FeatureOfInterest" data-source-line="20" id="ent0046"><rect fill="#F1F1F1" height="48" rx="2.5" ry="2.5" style="stroke:#181818;stroke-width:0.5;" width="156.1816" x="7" y="7"/><ellipse cx="22" cy="23" fill="#ADD1B2" rx="11" ry="11" style="stroke:#181818;stroke-width:1;"/><path d="M24.9688,28.6406 Q24.3906,28.9375 23.75,29.0781 Q23.1094,29.2344 22.4063,29.2344 Q19.9063,29.2344 18.5781,27.5938 Q17.2656,25.9375 17.2656,22.8125 Q17.2656,19.6875 18.5781,18.0313 Q19.9063,16.375 22.4063,16.375 Q23.1094,16.375 23.75,16.5313 Q24.4063,16.6875 24.9688,16.9844 L24.9688,19.7031 Q24.3438,19.125 23.75,18.8594 Q23.1563,18.5781 22.5313,18.5781 Q21.1875,18.5781 20.5,19.6563 Q19.8125,20.7188 19.8125,22.8125 Q19.8125,24.9063 20.5,25.9844 Q21.1875,27.0469 22.5313,27.0469 Q23.1563,27.0469 23.75,26.7813 Q24.3438,26.5 24.9688,25.9219 L24.9688,28.6406 Z " fill="#000000"/><text fill="#000000" font-family="sans-serif" font-size="14" lengthAdjust="spacing" textLength="124.1816" x="36" y="27.8467">FeatureOfInterest</text><line style="stroke:#181818;stroke-width:0.5;" x1="8" x2="162.1816" y1="39" y2="39"/><line style="stroke:#181818;stroke-width:0.5;" x1="8" x2="162.1816" y1="47" y2="47"/></g><!--class SampleCollection--><g class="entity" data-qualified-name="SampleCollection" data-source-line="21" id="ent0047"><rect fill="#F1F1F1" height="48" rx="2.5" ry="2.5" style="stroke:#181818;stroke-width:0.5;" width="153.7412" x="198" y="7"/><ellipse cx="213" cy="23" fill="#ADD1B2" rx="11" ry="11" style="stroke:#181818;stroke-width:1;"/><path d="M215.9688,28.6406 Q215.3906,28.9375 214.75,29.0781 Q214.1094,29.2344 213.4063,29.2344 Q210.9063,29.2344 209.5781,27.5938 Q208.2656,25.9375 208.2656,22.8125 Q208.2656,19.6875 209.5781,18.0313 Q210.9063,16.375 213.4063,16.375 Q214.1094,16.375 214.75,16.5313 Q215.4063,16.6875 215.9688,16.9844 L215.9688,19.7031 Q215.3438,19.125 214.75,18.8594 Q214.1563,18.5781 213.5313,18.5781 Q212.1875,18.5781 211.5,19.6563 Q210.8125,20.7188 210.8125,22.8125 Q210.8125,24.9063 211.5,25.9844 Q212.1875,27.0469 213.5313,27.0469 Q214.1563,27.0469 214.75,26.7813 Q215.3438,26.5 215.9688,25.9219 L215.9688,28.6406 Z " fill="#000000"/><text fill="#000000" font-family="sans-serif" font-size="14" lengthAdjust="spacing" textLength="121.7412" x="227" y="27.8467">SampleCollection</text><line style="stroke:#181818;stroke-width:0.5;" x1="199" x2="350.7412" y1="39" y2="39"/><line style="stroke:#181818;stroke-width:0.5;" x1="199" x2="350.7412" y1="47" y2="47"/></g><!--class Stimulus--><g class="entity" data-qualified-name="Stimulus" data-source-line="22" id="ent0048"><rect fill="#F1F1F1" height="48" rx="2.5" ry="2.5" style="stroke:#181818;stroke-width:0.5;" width="92.833" x="387.5" y="7"/><ellipse cx="402.5" cy="23" fill="#ADD1B2" rx="11" ry="11" style="stroke:#181818;stroke-width:1;"/><path d="M405.4688,28.6406 Q404.8906,28.9375 404.25,29.0781 Q403.6094,29.2344 402.9063,29.2344 Q400.4063,29.2344 399.0781,27.5938 Q397.7656,25.9375 397.7656,22.8125 Q397.7656,19.6875 399.0781,18.0313 Q400.4063,16.375 402.9063,16.375 Q403.6094,16.375 404.25,16.5313 Q404.9063,16.6875 405.4688,16.9844 L405.4688,19.7031 Q404.8438,19.125 404.25,18.8594 Q403.6563,18.5781 403.0313,18.5781 Q401.6875,18.5781 401,19.6563 Q400.3125,20.7188 400.3125,22.8125 Q400.3125,24.9063 401,25.9844 Q401.6875,27.0469 403.0313,27.0469 Q403.6563,27.0469 404.25,26.7813 Q404.8438,26.5 405.4688,25.9219 L405.4688,28.6406 Z " fill="#000000"/><text fill="#000000" font-family="sans-serif" font-size="14" lengthAdjust="spacing" textLength="60.833" x="416.5" y="27.8467">Stimulus</text><line style="stroke:#181818;stroke-width:0.5;" x1="388.5" x2="479.333" y1="39" y2="39"/><line style="stroke:#181818;stroke-width:0.5;" x1="388.5" x2="479.333" y1="47" y2="47"/></g><!--class Result--><g class="entity" data-qualified-name="Result" data-source-line="23" id="ent0049"><rect fill="#F1F1F1" height="48" rx="2.5" ry="2.5" style="stroke:#181818;stroke-width:0.5;" width="75.8867" x="47" y="115"/><ellipse cx="62" cy="131" fill="#ADD1B2" rx="11" ry="11" style="stroke:#181818;stroke-width:1;"/><path d="M64.9688,136.6406 Q64.3906,136.9375 63.75,137.0781 Q63.1094,137.2344 62.4063,137.2344 Q59.9063,137.2344 58.5781,135.5938 Q57.2656,133.9375 57.2656,130.8125 Q57.2656,127.6875 58.5781,126.0313 Q59.9063,124.375 62.4063,124.375 Q63.1094,124.375 63.75,124.5313 Q64.4063,124.6875 64.9688,124.9844 L64.9688,127.7031 Q64.3438,127.125 63.75,126.8594 Q63.1563,126.5781 62.5313,126.5781 Q61.1875,126.5781 60.5,127.6563 Q59.8125,128.7188 59.8125,130.8125 Q59.8125,132.9063 60.5,133.9844 Q61.1875,135.0469 62.5313,135.0469 Q63.1563,135.0469 63.75,134.7813 Q64.3438,134.5 64.9688,133.9219 L64.9688,136.6406 Z " fill="#000000"/><text fill="#000000" font-family="sans-serif" font-size="14" lengthAdjust="spacing" textLength="43.8867" x="76" y="135.8467">Result</text><line style="stroke:#181818;stroke-width:0.5;" x1="48" x2="121.8867" y1="147" y2="147"/><line style="stroke:#181818;stroke-width:0.5;" x1="48" x2="121.8867" y1="155" y2="155"/></g><!--class Deployment--><g class="entity" data-qualified-name="Deployment" data-source-line="24" id="ent0050"><rect fill="#F1F1F1" height="48" rx="2.5" ry="2.5" style="stroke:#181818;stroke-width:0.5;" width="117.6338" x="158" y="115"/><ellipse cx="173" cy="131" fill="#ADD1B2" rx="11" ry="11" style="stroke:#181818;stroke-width:1;"/><path d="M175.9688,136.6406 Q175.3906,136.9375 174.75,137.0781 Q174.1094,137.2344 173.4063,137.2344 Q170.9063,137.2344 169.5781,135.5938 Q168.2656,133.9375 168.2656,130.8125 Q168.2656,127.6875 169.5781,126.0313 Q170.9063,124.375 173.4063,124.375 Q174.1094,124.375 174.75,124.5313 Q175.4063,124.6875 175.9688,124.9844 L175.9688,127.7031 Q175.3438,127.125 174.75,126.8594 Q174.1563,126.5781 173.5313,126.5781 Q172.1875,126.5781 171.5,127.6563 Q170.8125,128.7188 170.8125,130.8125 Q170.8125,132.9063 171.5,133.9844 Q172.1875,135.0469 173.5313,135.0469 Q174.1563,135.0469 174.75,134.7813 Q175.3438,134.5 175.9688,133.9219 L175.9688,136.6406 Z " fill="#000000"/><text fill="#000000" font-family="sans-serif" font-size="14" lengthAdjust="spacing" textLength="85.6338" x="187" y="135.8467">Deployment</text><line style="stroke:#181818;stroke-width:0.5;" x1="159" x2="274.6338" y1="147" y2="147"/><line style="stroke:#181818;stroke-width:0.5;" x1="159" x2="274.6338" y1="155" y2="155"/></g><!--reverse link Property to ActuatableProperty--><g class="link" data-entity-1="ent0002" data-entity-2="ent0003" data-link-type="extension" data-source-line="1" id="lnk4"><path codeLine="1" d="M525.0017,63.9132 C493.9117,81.6332 466.75,97.11 435.6,114.86" fill="none" id="Property-backto-ActuatableProperty" style="stroke:#181818;stroke-width:1;"/><polygon fill="none" points="540.64,55,522.0307,58.7004,527.9728,69.1259,540.64,55" style="stroke:#181818;stroke-width:1;"/></g><!--reverse link Sample to MaterialSample--><g class="link" data-entity-1="ent0005" data-entity-2="ent0006" data-link-type="extension" data-source-line="2" id="lnk7"><path codeLine="2" d="M911.3567,64.4445 C882.6067,82.1645 858.35,97.11 829.55,114.86" fill="none" id="Sample-backto-MaterialSample" style="stroke:#181818;stroke-width:1;"/><polygon fill="none" points="926.68,55,908.2086,59.3367,914.5049,69.5522,926.68,55" style="stroke:#181818;stroke-width:1;"/></g><!--reverse link Property to ObservableProperty--><g class="link" data-entity-1="ent0002" data-entity-2="ent0008" data-link-type="extension" data-source-line="3" id="lnk9"><path codeLine="3" d="M588.3002,72.7168 C591.4702,90.3768 592.64,96.94 595.82,114.68" fill="none" id="Property-backto-ObservableProperty" style="stroke:#181818;stroke-width:1;"/><polygon fill="none" points="585.12,55,582.3946,73.7769,594.2058,71.6568,585.12,55" style="stroke:#181818;stroke-width:1;"/></g><!--reverse link Sample to SpatialSample--><g class="link" data-entity-1="ent0005" data-entity-2="ent0010" data-link-type="extension" data-source-line="4" id="lnk11"><path codeLine="4" d="M964,73 C964,90.66 964,96.94 964,114.68" fill="none" id="Sample-backto-SpatialSample" style="stroke:#181818;stroke-width:1;"/><polygon fill="none" points="964,55,958,73,970,73,964,55" style="stroke:#181818;stroke-width:1;"/></g><!--reverse link Sample to StatisticalSample--><g class="link" data-entity-1="ent0005" data-entity-2="ent0012" data-link-type="extension" data-source-line="5" id="lnk13"><path codeLine="5" d="M1018.3276,64.1725 C1048.2476,81.8925 1073.95,97.11 1103.93,114.86" fill="none" id="Sample-backto-StatisticalSample" style="stroke:#181818;stroke-width:1;"/><polygon fill="none" points="1002.84,55,1015.2701,69.335,1021.3851,59.0099,1002.84,55" style="stroke:#181818;stroke-width:1;"/></g><!--reverse link Procedure to ActuatingProcedure--><g class="link" data-entity-1="ent0014" data-entity-2="ent0015" data-link-type="extension" data-source-line="6" id="lnk16"><path codeLine="6" d="M1487.8326,63.1732 C1453.0626,80.8932 1421.24,97.11 1386.4,114.86" fill="none" id="Procedure-backto-ActuatingProcedure" style="stroke:#181818;stroke-width:1;"/><polygon fill="none" points="1503.87,55,1485.1082,57.8274,1490.557,68.519,1503.87,55" style="stroke:#181818;stroke-width:1;"/></g><!--reverse link Procedure to ObservingProcedure--><g class="link" data-entity-1="ent0014" data-entity-2="ent0017" data-link-type="extension" data-source-line="7" id="lnk18"><path codeLine="7" d="M1549,73 C1549,90.66 1549,96.94 1549,114.68" fill="none" id="Procedure-backto-ObservingProcedure" style="stroke:#181818;stroke-width:1;"/><polygon fill="none" points="1549,55,1543,73,1555,73,1549,55" style="stroke:#181818;stroke-width:1;"/></g><!--reverse link Procedure to SamplingProcedure--><g class="link" data-entity-1="ent0014" data-entity-2="ent0019" data-link-type="extension" data-source-line="8" id="lnk20"><path codeLine="8" d="M1609.9411,63.205 C1644.5411,80.925 1676.15,97.11 1710.81,114.86" fill="none" id="Procedure-backto-SamplingProcedure" style="stroke:#181818;stroke-width:1;"/><polygon fill="none" points="1593.92,55,1607.2061,68.5454,1612.6762,57.8647,1593.92,55" style="stroke:#181818;stroke-width:1;"/></g><!--reverse link Asset to Platform--><g class="link" data-entity-1="ent0021" data-entity-2="ent0022" data-link-type="extension" data-source-line="9" id="lnk23"><path codeLine="9" d="M1959.7839,70.6022 C1949.6239,88.2622 1944.63,96.94 1934.42,114.68" fill="none" id="Asset-backto-Platform" style="stroke:#181818;stroke-width:1;"/><polygon fill="none" points="1968.76,55,1954.5831,67.6102,1964.9846,73.5943,1968.76,55" style="stroke:#181818;stroke-width:1;"/></g><!--reverse link System to Sampler--><g class="link" data-entity-1="ent0024" data-entity-2="ent0025" data-link-type="extension" data-source-line="10" id="lnk26"><path codeLine="10" d="M2002.8865,174.5884 C1981.8965,192.2484 1966.81,204.94 1945.72,222.68" fill="none" id="System-backto-Sampler" style="stroke:#181818;stroke-width:1;"/><polygon fill="none" points="2016.66,163,1999.0237,169.9972,2006.7493,179.1795,2016.66,163" style="stroke:#181818;stroke-width:1;"/></g><!--reverse link System to Actuator--><g class="link" data-entity-1="ent0024" data-entity-2="ent0027" data-link-type="extension" data-source-line="11" id="lnk28"><path codeLine="11" d="M2044,181 C2044,198.66 2044,204.94 2044,222.68" fill="none" id="System-backto-Actuator" style="stroke:#181818;stroke-width:1;"/><polygon fill="none" points="2044,163,2038,181,2050,181,2044,163" style="stroke:#181818;stroke-width:1;"/></g><!--reverse link ExecutionCollection to SamplingCollection--><g class="link" data-entity-1="ent0029" data-entity-2="ent0030" data-link-type="extension" data-source-line="12" id="lnk31"><path codeLine="12" d="M2347.231,63.3636 C2313.461,81.0836 2282.93,97.11 2249.09,114.86" fill="none" id="ExecutionCollection-backto-SamplingCollection" style="stroke:#181818;stroke-width:1;"/><polygon fill="none" points="2363.17,55,2344.4432,58.0506,2350.0189,68.6766,2363.17,55" style="stroke:#181818;stroke-width:1;"/></g><!--reverse link Asset to System--><g class="link" data-entity-1="ent0021" data-entity-2="ent0024" data-link-type="extension" data-source-line="13" id="lnk32"><path codeLine="13" d="M2004.5383,70.5372 C2014.8683,88.1972 2019.98,96.94 2030.36,114.68" fill="none" id="Asset-backto-System" style="stroke:#181818;stroke-width:1;"/><polygon fill="none" points="1995.45,55,1999.3592,73.5666,2009.7173,67.5077,1995.45,55" style="stroke:#181818;stroke-width:1;"/></g><!--reverse link System to Sensor--><g class="link" data-entity-1="ent0024" data-entity-2="ent0033" data-link-type="extension" data-source-line="14" id="lnk34"><path codeLine="14" d="M2083.7968,174.864 C2103.9468,192.524 2118.13,204.94 2138.38,222.68" fill="none" id="System-backto-Sensor" style="stroke:#181818;stroke-width:1;"/><polygon fill="none" points="2070.26,163,2079.8421,179.3763,2087.7515,170.3518,2070.26,163" style="stroke:#181818;stroke-width:1;"/></g><!--reverse link Execution to Sampling--><g class="link" data-entity-1="ent0035" data-entity-2="ent0036" data-link-type="extension" data-source-line="15" id="lnk37"><path codeLine="15" d="M2886.8041,66.1688 C2864.4841,83.8288 2847.91,96.94 2825.48,114.68" fill="none" id="Execution-backto-Sampling" style="stroke:#181818;stroke-width:1;"/><polygon fill="none" points="2900.92,55,2883.0812,61.4635,2890.527,70.8741,2900.92,55" style="stroke:#181818;stroke-width:1;"/></g><!--reverse link Execution to Actuation--><g class="link" data-entity-1="ent0035" data-entity-2="ent0038" data-link-type="extension" data-source-line="16" id="lnk39"><path codeLine="16" d="M2930,73 C2930,90.66 2930,96.94 2930,114.68" fill="none" id="Execution-backto-Actuation" style="stroke:#181818;stroke-width:1;"/><polygon fill="none" points="2930,55,2924,73,2936,73,2930,55" style="stroke:#181818;stroke-width:1;"/></g><!--reverse link ExecutionCollection to ActuationCollection--><g class="link" data-entity-1="ent0029" data-entity-2="ent0040" data-link-type="extension" data-source-line="17" id="lnk41"><path codeLine="17" d="M2407,73 C2407,90.66 2407,96.94 2407,114.68" fill="none" id="ExecutionCollection-backto-ActuationCollection" style="stroke:#181818;stroke-width:1;"/><polygon fill="none" points="2407,55,2401,73,2413,73,2407,55" style="stroke:#181818;stroke-width:1;"/></g><!--reverse link ExecutionCollection to ObservationCollection--><g class="link" data-entity-1="ent0029" data-entity-2="ent0042" data-link-type="extension" data-source-line="18" id="lnk43"><path codeLine="18" d="M2469.0997,63.0498 C2504.5397,80.7698 2537.22,97.11 2572.72,114.86" fill="none" id="ExecutionCollection-backto-ObservationCollection" style="stroke:#181818;stroke-width:1;"/><polygon fill="none" points="2453,55,2466.4164,68.4164,2471.783,57.6833,2453,55" style="stroke:#181818;stroke-width:1;"/></g><!--reverse link Execution to Observation--><g class="link" data-entity-1="ent0035" data-entity-2="ent0044" data-link-type="extension" data-source-line="19" id="lnk45"><path codeLine="19" d="M2975.4895,65.7202 C2999.3095,83.3802 3017.61,96.94 3041.54,114.68" fill="none" id="Execution-backto-Observation" style="stroke:#181818;stroke-width:1;"/><polygon fill="none" points="2961.03,55,2971.9161,70.54,2979.0629,60.9004,2961.03,55" style="stroke:#181818;stroke-width:1;"/></g><?plantuml-src VL9BRiCW4Drp2byWD-WcwaVgeefLds12Noga0IncY6gfXwzRQ0Aft1syUJyDZ2dEIBeCTv-xtR2tcadfo1WhRYRoCwECNqYH7771pDXf3qT1EczgfvdqAkqckav4dMsDBTvoGjlAXVSBViiesVynVfmxmbu4MeOZavvYycPQHE4R1LA7bIOncSSFsAmkXll83FjzwdEkU1jKlFeO16aDUvjRlAvYTTriSA4q5JR9zT6sw7z8nZA934yWNNTuE3s7zKT0jE9bPurJXTNvp5dgzHMI-LVoW9dZuX7q2m00?></g></svg>