<svg xmlns="http://www.w3.org/2000/svg" xmlns:xlink="http://www.w3.org/1999/xlink" contentStyleType="text/css" data-diagram-type="CLASS" height="286px" preserveAspectRatio="none" style="width:3224px;height:286px;background:#FFFFFF;" version="1.1" viewBox="0 0 3224 286" width="3224px" zoomAndPan="magnify"><?plantuml 1.2026.4?><defs/><g><!--class Property--><g class="entity" data-qualified-name="Property" data-source-line="1" id="ent0001"><rect fill="#F1F1F1" height="48" rx="2.5" ry="2.5" style="stroke:#181818;stroke-width:0.5;" width="91.7939" x="550" y="7"/><ellipse cx="565" cy="23" fill="#ADD1B2" rx="11" ry="11" style="stroke:#181818;stroke-width:1;"/><path d="M567.9688,28.6406 Q567.3906,28.9375 566.75,29.0781 Q566.1094,29.2344 565.4063,29.2344 Q562.9063,29.2344 561.5781,27.5938 Q560.2656,25.9375 560.2656,22.8125 Q560.2656,19.6875 561.5781,18.0313 Q562.9063,16.375 565.4063,16.375 Q566.1094,16.375 566.75,16.5313 Q567.4063,16.6875 567.9688,16.9844 L567.9688,19.7031 Q567.3438,19.125 566.75,18.8594 Q566.1563,18.5781 565.5313,18.5781 Q564.1875,18.5781 563.5,19.6563 Q562.8125,20.7188 562.8125,22.8125 Q562.8125,24.9063 563.5,25.9844 Q564.1875,27.0469 565.5313,27.0469 Q566.1563,27.0469 566.75,26.7813 Q567.3438,26.5 567.9688,25.9219 L567.9688,28.6406 Z " fill="#000000"/><text fill="#000000" font-family="sans-serif" font-size="14" lengthAdjust="spacing" textLength="59.7939" x="579" y="27.8467">Property</text><line style="stroke:#181818;stroke-width:0.5;" x1="551" x2="640.7939" y1="39" y2="39"/><line style="stroke:#181818;stroke-width:0.5;" x1="551" x2="640.7939" y1="47" y2="47"/></g><!--class ActuatableProperty--><g class="entity" data-qualified-name="ActuatableProperty" data-source-line="1" id="ent0002"><rect fill="#F1F1F1" height="48" rx="2.5" ry="2.5" style="stroke:#181818;stroke-width:0.5;" width="167.4678" x="389.5" y="115"/><ellipse cx="404.5" cy="131" fill="#ADD1B2" rx="11" ry="11" style="stroke:#181818;stroke-width:1;"/><path d="M407.4688,136.6406 Q406.8906,136.9375 406.25,137.0781 Q405.6094,137.2344 404.9063,137.2344 Q402.4063,137.2344 401.0781,135.5938 Q399.7656,133.9375 399.7656,130.8125 Q399.7656,127.6875 401.0781,126.0313 Q402.4063,124.375 404.9063,124.375 Q405.6094,124.375 406.25,124.5313 Q406.9063,124.6875 407.4688,124.9844 L407.4688,127.7031 Q406.8438,127.125 406.25,126.8594 Q405.6563,126.5781 405.0313,126.5781 Q403.6875,126.5781 403,127.6563 Q402.3125,128.7188 402.3125,130.8125 Q402.3125,132.9063 403,133.9844 Q403.6875,135.0469 405.0313,135.0469 Q405.6563,135.0469 406.25,134.7813 Q406.8438,134.5 407.4688,133.9219 L407.4688,136.6406 Z " fill="#000000"/><text fill="#000000" font-family="sans-serif" font-size="14" lengthAdjust="spacing" textLength="135.4678" x="418.5" y="135.8467">ActuatableProperty</text><line style="stroke:#181818;stroke-width:0.5;" x1="390.5" x2="555.9678" y1="147" y2="147"/><line style="stroke:#181818;stroke-width:0.5;" x1="390.5" x2="555.9678" y1="155" y2="155"/></g><!--class Sample--><g class="entity" data-qualified-name="Sample" data-source-line="2" id="ent0004"><rect fill="#F1F1F1" height="48" rx="2.5" ry="2.5" style="stroke:#181818;stroke-width:0.5;" width="84.4932" x="1000" y="7"/><ellipse cx="1015" cy="23" fill="#ADD1B2" rx="11" ry="11" style="stroke:#181818;stroke-width:1;"/><path d="M1017.9688,28.6406 Q1017.3906,28.9375 1016.75,29.0781 Q1016.1094,29.2344 1015.4063,29.2344 Q1012.9063,29.2344 1011.5781,27.5938 Q1010.2656,25.9375 1010.2656,22.8125 Q1010.2656,19.6875 1011.5781,18.0313 Q1012.9063,16.375 1015.4063,16.375 Q1016.1094,16.375 1016.75,16.5313 Q1017.4063,16.6875 1017.9688,16.9844 L1017.9688,19.7031 Q1017.3438,19.125 1016.75,18.8594 Q1016.1563,18.5781 1015.5313,18.5781 Q1014.1875,18.5781 1013.5,19.6563 Q1012.8125,20.7188 1012.8125,22.8125 Q1012.8125,24.9063 1013.5,25.9844 Q1014.1875,27.0469 1015.5313,27.0469 Q1016.1563,27.0469 1016.75,26.7813 Q1017.3438,26.5 1017.9688,25.9219 L1017.9688,28.6406 Z " fill="#000000"/><text fill="#000000" font-family="sans-serif" font-size="14" lengthAdjust="spacing" textLength="52.4932" x="1029" y="27.8467">Sample</text><line style="stroke:#181818;stroke-width:0.5;" x1="1001" x2="1083.4932" y1="39" y2="39"/><line style="stroke:#181818;stroke-width:0.5;" x1="1001" x2="1083.4932" y1="47" y2="47"/></g><!--class MaterialSample--><g class="entity" data-qualified-name="MaterialSample" data-source-line="2" id="ent0005"><rect fill="#F1F1F1" height="48" rx="2.5" ry="2.5" style="stroke:#181818;stroke-width:0.5;" width="141.3682" x="799.5" y="115"/><ellipse cx="814.5" cy="131" fill="#ADD1B2" rx="11" ry="11" style="stroke:#181818;stroke-width:1;"/><path d="M817.4688,136.6406 Q816.8906,136.9375 816.25,137.0781 Q815.6094,137.2344 814.9063,137.2344 Q812.4063,137.2344 811.0781,135.5938 Q809.7656,133.9375 809.7656,130.8125 Q809.7656,127.6875 811.0781,126.0313 Q812.4063,124.375 814.9063,124.375 Q815.6094,124.375 816.25,124.5313 Q816.9063,124.6875 817.4688,124.9844 L817.4688,127.7031 Q816.8438,127.125 816.25,126.8594 Q815.6563,126.5781 815.0313,126.5781 Q813.6875,126.5781 813,127.6563 Q812.3125,128.7188 812.3125,130.8125 Q812.3125,132.9063 813,133.9844 Q813.6875,135.0469 815.0313,135.0469 Q815.6563,135.0469 816.25,134.7813 Q816.8438,134.5 817.4688,133.9219 L817.4688,136.6406 Z " fill="#000000"/><text fill="#000000" font-family="sans-serif" font-size="14" lengthAdjust="spacing" textLength="109.3682" x="828.5" y="135.8467">MaterialSample</text><line style="stroke:#181818;stroke-width:0.5;" x1="800.5" x2="939.8682" y1="147" y2="147"/><line style="stroke:#181818;stroke-width:0.5;" x1="800.5" x2="939.8682" y1="155" y2="155"/></g><!--class SpatialSample--><g class="entity" data-qualified-name="SpatialSample" data-source-line="3" id="ent0007"><rect fill="#F1F1F1" height="48" rx="2.5" ry="2.5" style="stroke:#181818;stroke-width:0.5;" width="132.6934" x="975.5" y="115"/><ellipse cx="990.5" cy="131" fill="#ADD1B2" rx="11" ry="11" style="stroke:#181818;stroke-width:1;"/><path d="M993.4688,136.6406 Q992.8906,136.9375 992.25,137.0781 Q991.6094,137.2344 990.9063,137.2344 Q988.4063,137.2344 987.0781,135.5938 Q985.7656,133.9375 985.7656,130.8125 Q985.7656,127.6875 987.0781,126.0313 Q988.4063,124.375 990.9063,124.375 Q991.6094,124.375 992.25,124.5313 Q992.9063,124.6875 993.4688,124.9844 L993.4688,127.7031 Q992.8438,127.125 992.25,126.8594 Q991.6563,126.5781 991.0313,126.5781 Q989.6875,126.5781 989,127.6563 Q988.3125,128.7188 988.3125,130.8125 Q988.3125,132.9063 989,133.9844 Q989.6875,135.0469 991.0313,135.0469 Q991.6563,135.0469 992.25,134.7813 Q992.8438,134.5 993.4688,133.9219 L993.4688,136.6406 Z " fill="#000000"/><text fill="#000000" font-family="sans-serif" font-size="14" lengthAdjust="spacing" textLength="100.6934" x="1004.5" y="135.8467">SpatialSample</text><line style="stroke:#181818;stroke-width:0.5;" x1="976.5" x2="1107.1934" y1="147" y2="147"/><line style="stroke:#181818;stroke-width:0.5;" x1="976.5" x2="1107.1934" y1="155" y2="155"/></g><!--class StatisticalSample--><g class="entity" data-qualified-name="StatisticalSample" data-source-line="4" id="ent0009"><rect fill="#F1F1F1" height="48" rx="2.5" ry="2.5" style="stroke:#181818;stroke-width:0.5;" width="153.666" x="1144" y="115"/><ellipse cx="1159" cy="131" fill="#ADD1B2" rx="11" ry="11" style="stroke:#181818;stroke-width:1;"/><path d="M1161.9688,136.6406 Q1161.3906,136.9375 1160.75,137.0781 Q1160.1094,137.2344 1159.4063,137.2344 Q1156.9063,137.2344 1155.5781,135.5938 Q1154.2656,133.9375 1154.2656,130.8125 Q1154.2656,127.6875 1155.5781,126.0313 Q1156.9063,124.375 1159.4063,124.375 Q1160.1094,124.375 1160.75,124.5313 Q1161.4063,124.6875 1161.9688,124.9844 L1161.9688,127.7031 Q1161.3438,127.125 1160.75,126.8594 Q1160.1563,126.5781 1159.5313,126.5781 Q1158.1875,126.5781 1157.5,127.6563 Q1156.8125,128.7188 1156.8125,130.8125 Q1156.8125,132.9063 1157.5,133.9844 Q1158.1875,135.0469 1159.5313,135.0469 Q1160.1563,135.0469 1160.75,134.7813 Q1161.3438,134.5 1161.9688,133.9219 L1161.9688,136.6406 Z " fill="#000000"/><text fill="#000000" font-family="sans-serif" font-size="14" lengthAdjust="spacing" textLength="121.666" x="1173" y="135.8467">StatisticalSample</text><line style="stroke:#181818;stroke-width:0.5;" x1="1145" x2="1296.666" y1="147" y2="147"/><line style="stroke:#181818;stroke-width:0.5;" x1="1145" x2="1296.666" y1="155" y2="155"/></g><!--class ObservableProperty--><g class="entity" data-qualified-name="ObservableProperty" data-source-line="5" id="ent0011"><rect fill="#F1F1F1" height="48" rx="2.5" ry="2.5" style="stroke:#181818;stroke-width:0.5;" width="171.6172" x="592" y="115"/><ellipse cx="607" cy="131" fill="#ADD1B2" rx="11" ry="11" style="stroke:#181818;stroke-width:1;"/><path d="M609.9688,136.6406 Q609.3906,136.9375 608.75,137.0781 Q608.1094,137.2344 607.4063,137.2344 Q604.9063,137.2344 603.5781,135.5938 Q602.2656,133.9375 602.2656,130.8125 Q602.2656,127.6875 603.5781,126.0313 Q604.9063,124.375 607.4063,124.375 Q608.1094,124.375 608.75,124.5313 Q609.4063,124.6875 609.9688,124.9844 L609.9688,127.7031 Q609.3438,127.125 608.75,126.8594 Q608.1563,126.5781 607.5313,126.5781 Q606.1875,126.5781 605.5,127.6563 Q604.8125,128.7188 604.8125,130.8125 Q604.8125,132.9063 605.5,133.9844 Q606.1875,135.0469 607.5313,135.0469 Q608.1563,135.0469 608.75,134.7813 Q609.3438,134.5 609.9688,133.9219 L609.9688,136.6406 Z " fill="#000000"/><text fill="#000000" font-family="sans-serif" font-size="14" lengthAdjust="spacing" textLength="139.6172" x="621" y="135.8467">ObservableProperty</text><line style="stroke:#181818;stroke-width:0.5;" x1="593" x2="762.6172" y1="147" y2="147"/><line style="stroke:#181818;stroke-width:0.5;" x1="593" x2="762.6172" y1="155" y2="155"/></g><!--class Procedure--><g class="entity" data-qualified-name="Procedure" data-source-line="6" id="ent0013"><rect fill="#F1F1F1" height="48" rx="2.5" ry="2.5" style="stroke:#181818;stroke-width:0.5;" width="103.2031" x="1575.5" y="7"/><ellipse cx="1590.5" cy="23" fill="#ADD1B2" rx="11" ry="11" style="stroke:#181818;stroke-width:1;"/><path d="M1593.4688,28.6406 Q1592.8906,28.9375 1592.25,29.0781 Q1591.6094,29.2344 1590.9063,29.2344 Q1588.4063,29.2344 1587.0781,27.5938 Q1585.7656,25.9375 1585.7656,22.8125 Q1585.7656,19.6875 1587.0781,18.0313 Q1588.4063,16.375 1590.9063,16.375 Q1591.6094,16.375 1592.25,16.5313 Q1592.9063,16.6875 1593.4688,16.9844 L1593.4688,19.7031 Q1592.8438,19.125 1592.25,18.8594 Q1591.6563,18.5781 1591.0313,18.5781 Q1589.6875,18.5781 1589,19.6563 Q1588.3125,20.7188 1588.3125,22.8125 Q1588.3125,24.9063 1589,25.9844 Q1589.6875,27.0469 1591.0313,27.0469 Q1591.6563,27.0469 1592.25,26.7813 Q1592.8438,26.5 1593.4688,25.9219 L1593.4688,28.6406 Z " fill="#000000"/><text fill="#000000" font-family="sans-serif" font-size="14" lengthAdjust="spacing" textLength="71.2031" x="1604.5" y="27.8467">Procedure</text><line style="stroke:#181818;stroke-width:0.5;" x1="1576.5" x2="1677.7031" y1="39" y2="39"/><line style="stroke:#181818;stroke-width:0.5;" x1="1576.5" x2="1677.7031" y1="47" y2="47"/></g><!--class ActuatingProcedure--><g class="entity" data-qualified-name="ActuatingProcedure" data-source-line="6" id="ent0014"><rect fill="#F1F1F1" height="48" rx="2.5" ry="2.5" style="stroke:#181818;stroke-width:0.5;" width="170.5576" x="1333.5" y="115"/><ellipse cx="1348.5" cy="131" fill="#ADD1B2" rx="11" ry="11" style="stroke:#181818;stroke-width:1;"/><path d="M1351.4688,136.6406 Q1350.8906,136.9375 1350.25,137.0781 Q1349.6094,137.2344 1348.9063,137.2344 Q1346.4063,137.2344 1345.0781,135.5938 Q1343.7656,133.9375 1343.7656,130.8125 Q1343.7656,127.6875 1345.0781,126.0313 Q1346.4063,124.375 1348.9063,124.375 Q1349.6094,124.375 1350.25,124.5313 Q1350.9063,124.6875 1351.4688,124.9844 L1351.4688,127.7031 Q1350.8438,127.125 1350.25,126.8594 Q1349.6563,126.5781 1349.0313,126.5781 Q1347.6875,126.5781 1347,127.6563 Q1346.3125,128.7188 1346.3125,130.8125 Q1346.3125,132.9063 1347,133.9844 Q1347.6875,135.0469 1349.0313,135.0469 Q1349.6563,135.0469 1350.25,134.7813 Q1350.8438,134.5 1351.4688,133.9219 L1351.4688,136.6406 Z " fill="#000000"/><text fill="#000000" font-family="sans-serif" font-size="14" lengthAdjust="spacing" textLength="138.5576" x="1362.5" y="135.8467">ActuatingProcedure</text><line style="stroke:#181818;stroke-width:0.5;" x1="1334.5" x2="1503.0576" y1="147" y2="147"/><line style="stroke:#181818;stroke-width:0.5;" x1="1334.5" x2="1503.0576" y1="155" y2="155"/></g><!--class ObservingProcedure--><g class="entity" data-qualified-name="ObservingProcedure" data-source-line="7" id="ent0016"><rect fill="#F1F1F1" height="48" rx="2.5" ry="2.5" style="stroke:#181818;stroke-width:0.5;" width="174.707" x="1539.5" y="115"/><ellipse cx="1554.5" cy="131" fill="#ADD1B2" rx="11" ry="11" style="stroke:#181818;stroke-width:1;"/><path d="M1557.4688,136.6406 Q1556.8906,136.9375 1556.25,137.0781 Q1555.6094,137.2344 1554.9063,137.2344 Q1552.4063,137.2344 1551.0781,135.5938 Q1549.7656,133.9375 1549.7656,130.8125 Q1549.7656,127.6875 1551.0781,126.0313 Q1552.4063,124.375 1554.9063,124.375 Q1555.6094,124.375 1556.25,124.5313 Q1556.9063,124.6875 1557.4688,124.9844 L1557.4688,127.7031 Q1556.8438,127.125 1556.25,126.8594 Q1555.6563,126.5781 1555.0313,126.5781 Q1553.6875,126.5781 1553,127.6563 Q1552.3125,128.7188 1552.3125,130.8125 Q1552.3125,132.9063 1553,133.9844 Q1553.6875,135.0469 1555.0313,135.0469 Q1555.6563,135.0469 1556.25,134.7813 Q1556.8438,134.5 1557.4688,133.9219 L1557.4688,136.6406 Z " fill="#000000"/><text fill="#000000" font-family="sans-serif" font-size="14" lengthAdjust="spacing" textLength="142.707" x="1568.5" y="135.8467">ObservingProcedure</text><line style="stroke:#181818;stroke-width:0.5;" x1="1540.5" x2="1713.207" y1="147" y2="147"/><line style="stroke:#181818;stroke-width:0.5;" x1="1540.5" x2="1713.207" y1="155" y2="155"/></g><!--class SamplingProcedure--><g class="entity" data-qualified-name="SamplingProcedure" data-source-line="8" id="ent0018"><rect fill="#F1F1F1" height="48" rx="2.5" ry="2.5" style="stroke:#181818;stroke-width:0.5;" width="168.7324" x="1749.5" y="115"/><ellipse cx="1764.5" cy="131" fill="#ADD1B2" rx="11" ry="11" style="stroke:#181818;stroke-width:1;"/><path d="M1767.4688,136.6406 Q1766.8906,136.9375 1766.25,137.0781 Q1765.6094,137.2344 1764.9063,137.2344 Q1762.4063,137.2344 1761.0781,135.5938 Q1759.7656,133.9375 1759.7656,130.8125 Q1759.7656,127.6875 1761.0781,126.0313 Q1762.4063,124.375 1764.9063,124.375 Q1765.6094,124.375 1766.25,124.5313 Q1766.9063,124.6875 1767.4688,124.9844 L1767.4688,127.7031 Q1766.8438,127.125 1766.25,126.8594 Q1765.6563,126.5781 1765.0313,126.5781 Q1763.6875,126.5781 1763,127.6563 Q1762.3125,128.7188 1762.3125,130.8125 Q1762.3125,132.9063 1763,133.9844 Q1763.6875,135.0469 1765.0313,135.0469 Q1765.6563,135.0469 1766.25,134.7813 Q1766.8438,134.5 1767.4688,133.9219 L1767.4688,136.6406 Z " fill="#000000"/><text fill="#000000" font-family="sans-serif" font-size="14" lengthAdjust="spacing" textLength="136.7324" x="1778.5" y="135.8467">SamplingProcedure</text><line style="stroke:#181818;stroke-width:0.5;" x1="1750.5" x2="1917.2324" y1="147" y2="147"/><line style="stroke:#181818;stroke-width:0.5;" x1="1750.5" x2="1917.2324" y1="155" y2="155"/></g><!--class Asset--><g class="entity" data-qualified-name="Asset" data-source-line="9" id="ent0020"><rect fill="#F1F1F1" height="48" rx="2.5" ry="2.5" style="stroke:#181818;stroke-width:0.5;" width="70.2676" x="2025" y="7"/><ellipse cx="2040" cy="23" fill="#ADD1B2" rx="11" ry="11" style="stroke:#181818;stroke-width:1;"/><path d="M2042.9688,28.6406 Q2042.3906,28.9375 2041.75,29.0781 Q2041.1094,29.2344 2040.4063,29.2344 Q2037.9063,29.2344 2036.5781,27.5938 Q2035.2656,25.9375 2035.2656,22.8125 Q2035.2656,19.6875 2036.5781,18.0313 Q2037.9063,16.375 2040.4063,16.375 Q2041.1094,16.375 2041.75,16.5313 Q2042.4063,16.6875 2042.9688,16.9844 L2042.9688,19.7031 Q2042.3438,19.125 2041.75,18.8594 Q2041.1563,18.5781 2040.5313,18.5781 Q2039.1875,18.5781 2038.5,19.6563 Q2037.8125,20.7188 2037.8125,22.8125 Q2037.8125,24.9063 2038.5,25.9844 Q2039.1875,27.0469 2040.5313,27.0469 Q2041.1563,27.0469 2041.75,26.7813 Q2042.3438,26.5 2042.9688,25.9219 L2042.9688,28.6406 Z " fill="#000000"/><text fill="#000000" font-family="sans-serif" font-size="14" lengthAdjust="spacing" textLength="38.2676" x="2054" y="27.8467">Asset</text><line style="stroke:#181818;stroke-width:0.5;" x1="2026" x2="2094.2676" y1="39" y2="39"/><line style="stroke:#181818;stroke-width:0.5;" x1="2026" x2="2094.2676" y1="47" y2="47"/></g><!--class Platform--><g class="entity" data-qualified-name="Platform" data-source-line="9" id="ent0021"><rect fill="#F1F1F1" height="48" rx="2.5" ry="2.5" style="stroke:#181818;stroke-width:0.5;" width="91.2881" x="1953.5" y="115"/><ellipse cx="1968.5" cy="131" fill="#ADD1B2" rx="11" ry="11" style="stroke:#181818;stroke-width:1;"/><path d="M1971.4688,136.6406 Q1970.8906,136.9375 1970.25,137.0781 Q1969.6094,137.2344 1968.9063,137.2344 Q1966.4063,137.2344 1965.0781,135.5938 Q1963.7656,133.9375 1963.7656,130.8125 Q1963.7656,127.6875 1965.0781,126.0313 Q1966.4063,124.375 1968.9063,124.375 Q1969.6094,124.375 1970.25,124.5313 Q1970.9063,124.6875 1971.4688,124.9844 L1971.4688,127.7031 Q1970.8438,127.125 1970.25,126.8594 Q1969.6563,126.5781 1969.0313,126.5781 Q1967.6875,126.5781 1967,127.6563 Q1966.3125,128.7188 1966.3125,130.8125 Q1966.3125,132.9063 1967,133.9844 Q1967.6875,135.0469 1969.0313,135.0469 Q1969.6563,135.0469 1970.25,134.7813 Q1970.8438,134.5 1971.4688,133.9219 L1971.4688,136.6406 Z " fill="#000000"/><text fill="#000000" font-family="sans-serif" font-size="14" lengthAdjust="spacing" textLength="59.2881" x="1982.5" y="135.8467">Platform</text><line style="stroke:#181818;stroke-width:0.5;" x1="1954.5" x2="2043.7881" y1="147" y2="147"/><line style="stroke:#181818;stroke-width:0.5;" x1="1954.5" x2="2043.7881" y1="155" y2="155"/></g><!--class System--><g class="entity" data-qualified-name="System" data-source-line="10" id="ent0023"><rect fill="#F1F1F1" height="48" rx="2.5" ry="2.5" style="stroke:#181818;stroke-width:0.5;" width="84.2061" x="2080" y="115"/><ellipse cx="2095" cy="131" fill="#ADD1B2" rx="11" ry="11" style="stroke:#181818;stroke-width:1;"/><path d="M2097.9688,136.6406 Q2097.3906,136.9375 2096.75,137.0781 Q2096.1094,137.2344 2095.4063,137.2344 Q2092.9063,137.2344 2091.5781,135.5938 Q2090.2656,133.9375 2090.2656,130.8125 Q2090.2656,127.6875 2091.5781,126.0313 Q2092.9063,124.375 2095.4063,124.375 Q2096.1094,124.375 2096.75,124.5313 Q2097.4063,124.6875 2097.9688,124.9844 L2097.9688,127.7031 Q2097.3438,127.125 2096.75,126.8594 Q2096.1563,126.5781 2095.5313,126.5781 Q2094.1875,126.5781 2093.5,127.6563 Q2092.8125,128.7188 2092.8125,130.8125 Q2092.8125,132.9063 2093.5,133.9844 Q2094.1875,135.0469 2095.5313,135.0469 Q2096.1563,135.0469 2096.75,134.7813 Q2097.3438,134.5 2097.9688,133.9219 L2097.9688,136.6406 Z " fill="#000000"/><text fill="#000000" font-family="sans-serif" font-size="14" lengthAdjust="spacing" textLength="52.2061" x="2109" y="135.8467">System</text><line style="stroke:#181818;stroke-width:0.5;" x1="2081" x2="2163.2061" y1="147" y2="147"/><line style="stroke:#181818;stroke-width:0.5;" x1="2081" x2="2163.2061" y1="155" y2="155"/></g><!--class Sampler--><g class="entity" data-qualified-name="Sampler" data-source-line="10" id="ent0024"><rect fill="#F1F1F1" height="48" rx="2.5" ry="2.5" style="stroke:#181818;stroke-width:0.5;" width="90.249" x="1951" y="223"/><ellipse cx="1966" cy="239" fill="#ADD1B2" rx="11" ry="11" style="stroke:#181818;stroke-width:1;"/><path d="M1968.9688,244.6406 Q1968.3906,244.9375 1967.75,245.0781 Q1967.1094,245.2344 1966.4063,245.2344 Q1963.9063,245.2344 1962.5781,243.5938 Q1961.2656,241.9375 1961.2656,238.8125 Q1961.2656,235.6875 1962.5781,234.0313 Q1963.9063,232.375 1966.4063,232.375 Q1967.1094,232.375 1967.75,232.5313 Q1968.4063,232.6875 1968.9688,232.9844 L1968.9688,235.7031 Q1968.3438,235.125 1967.75,234.8594 Q1967.1563,234.5781 1966.5313,234.5781 Q1965.1875,234.5781 1964.5,235.6563 Q1963.8125,236.7188 1963.8125,238.8125 Q1963.8125,240.9063 1964.5,241.9844 Q1965.1875,243.0469 1966.5313,243.0469 Q1967.1563,243.0469 1967.75,242.7813 Q1968.3438,242.5 1968.9688,241.9219 L1968.9688,244.6406 Z " fill="#000000"/><text fill="#000000" font-family="sans-serif" font-size="14" lengthAdjust="spacing" textLength="58.249" x="1980" y="243.8467">Sampler</text><line style="stroke:#181818;stroke-width:0.5;" x1="1952" x2="2040.249" y1="255" y2="255"/><line style="stroke:#181818;stroke-width:0.5;" x1="1952" x2="2040.249" y1="263" y2="263"/></g><!--class Actuator--><g class="entity" data-qualified-name="Actuator" data-source-line="11" id="ent0026"><rect fill="#F1F1F1" height="48" rx="2.5" ry="2.5" style="stroke:#181818;stroke-width:0.5;" width="92.0264" x="2076" y="223"/><ellipse cx="2091" cy="239" fill="#ADD1B2" rx="11" ry="11" style="stroke:#181818;stroke-width:1;"/><path d="M2093.9688,244.6406 Q2093.3906,244.9375 2092.75,245.0781 Q2092.1094,245.2344 2091.4063,245.2344 Q2088.9063,245.2344 2087.5781,243.5938 Q2086.2656,241.9375 2086.2656,238.8125 Q2086.2656,235.6875 2087.5781,234.0313 Q2088.9063,232.375 2091.4063,232.375 Q2092.1094,232.375 2092.75,232.5313 Q2093.4063,232.6875 2093.9688,232.9844 L2093.9688,235.7031 Q2093.3438,235.125 2092.75,234.8594 Q2092.1563,234.5781 2091.5313,234.5781 Q2090.1875,234.5781 2089.5,235.6563 Q2088.8125,236.7188 2088.8125,238.8125 Q2088.8125,240.9063 2089.5,241.9844 Q2090.1875,243.0469 2091.5313,243.0469 Q2092.1563,243.0469 2092.75,242.7813 Q2093.3438,242.5 2093.9688,241.9219 L2093.9688,244.6406 Z " fill="#000000"/><text fill="#000000" font-family="sans-serif" font-size="14" lengthAdjust="spacing" textLength="60.0264" x="2105" y="243.8467">Actuator</text><line style="stroke:#181818;stroke-width:0.5;" x1="2077" x2="2167.0264" y1="255" y2="255"/><line style="stroke:#181818;stroke-width:0.5;" x1="2077" x2="2167.0264" y1="263" y2="263"/></g><!--class Execution--><g class="entity" data-qualified-name="Execution" data-source-line="13" id="ent0029"><rect fill="#F1F1F1" height="48" rx="2.5" ry="2.5" style="stroke:#181818;stroke-width:0.5;" width="101.1318" x="2331.5" y="7"/><ellipse cx="2346.5" cy="23" fill="#ADD1B2" rx="11" ry="11" style="stroke:#181818;stroke-width:1;"/><path d="M2349.4688,28.6406 Q2348.8906,28.9375 2348.25,29.0781 Q2347.6094,29.2344 2346.9063,29.2344 Q2344.4063,29.2344 2343.0781,27.5938 Q2341.7656,25.9375 2341.7656,22.8125 Q2341.7656,19.6875 2343.0781,18.0313 Q2344.4063,16.375 2346.9063,16.375 Q2347.6094,16.375 2348.25,16.5313 Q2348.9063,16.6875 2349.4688,16.9844 L2349.4688,19.7031 Q2348.8438,19.125 2348.25,18.8594 Q2347.6563,18.5781 2347.0313,18.5781 Q2345.6875,18.5781 2345,19.6563 Q2344.3125,20.7188 2344.3125,22.8125 Q2344.3125,24.9063 2345,25.9844 Q2345.6875,27.0469 2347.0313,27.0469 Q2347.6563,27.0469 2348.25,26.7813 Q2348.8438,26.5 2349.4688,25.9219 L2349.4688,28.6406 Z " fill="#000000"/><text fill="#000000" font-family="sans-serif" font-size="14" lengthAdjust="spacing" textLength="69.1318" x="2360.5" y="27.8467">Execution</text><line style="stroke:#181818;stroke-width:0.5;" x1="2332.5" x2="2431.6318" y1="39" y2="39"/><line style="stroke:#181818;stroke-width:0.5;" x1="2332.5" x2="2431.6318" y1="47" y2="47"/></g><!--class Sampling--><g class="entity" data-qualified-name="Sampling" data-source-line="13" id="ent0030"><rect fill="#F1F1F1" height="48" rx="2.5" ry="2.5" style="stroke:#181818;stroke-width:0.5;" width="97.5293" x="2199" y="115"/><ellipse cx="2214" cy="131" fill="#ADD1B2" rx="11" ry="11" style="stroke:#181818;stroke-width:1;"/><path d="M2216.9688,136.6406 Q2216.3906,136.9375 2215.75,137.0781 Q2215.1094,137.2344 2214.4063,137.2344 Q2211.9063,137.2344 2210.5781,135.5938 Q2209.2656,133.9375 2209.2656,130.8125 Q2209.2656,127.6875 2210.5781,126.0313 Q2211.9063,124.375 2214.4063,124.375 Q2215.1094,124.375 2215.75,124.5313 Q2216.4063,124.6875 2216.9688,124.9844 L2216.9688,127.7031 Q2216.3438,127.125 2215.75,126.8594 Q2215.1563,126.5781 2214.5313,126.5781 Q2213.1875,126.5781 2212.5,127.6563 Q2211.8125,128.7188 2211.8125,130.8125 Q2211.8125,132.9063 2212.5,133.9844 Q2213.1875,135.0469 2214.5313,135.0469 Q2215.1563,135.0469 2215.75,134.7813 Q2216.3438,134.5 2216.9688,133.9219 L2216.9688,136.6406 Z " fill="#000000"/><text fill="#000000" font-family="sans-serif" font-size="14" lengthAdjust="spacing" textLength="65.5293" x="2228" y="135.8467">Sampling</text><line style="stroke:#181818;stroke-width:0.5;" x1="2200" x2="2295.5293" y1="147" y2="147"/><line style="stroke:#181818;stroke-width:0.5;" x1="2200" x2="2295.5293" y1="155" y2="155"/></g><!--class ExecutionCollection--><g class="entity" data-qualified-name="ExecutionCollection" data-source-line="14" id="ent0032"><rect fill="#F1F1F1" height="48" rx="2.5" ry="2.5" style="stroke:#181818;stroke-width:0.5;" width="170.3799" x="2819" y="7"/><ellipse cx="2834" cy="23" fill="#ADD1B2" rx="11" ry="11" style="stroke:#181818;stroke-width:1;"/><path d="M2836.9688,28.6406 Q2836.3906,28.9375 2835.75,29.0781 Q2835.1094,29.2344 2834.4063,29.2344 Q2831.9063,29.2344 2830.5781,27.5938 Q2829.2656,25.9375 2829.2656,22.8125 Q2829.2656,19.6875 2830.5781,18.0313 Q2831.9063,16.375 2834.4063,16.375 Q2835.1094,16.375 2835.75,16.5313 Q2836.4063,16.6875 2836.9688,16.9844 L2836.9688,19.7031 Q2836.3438,19.125 2835.75,18.8594 Q2835.1563,18.5781 2834.5313,18.5781 Q2833.1875,18.5781 2832.5,19.6563 Q2831.8125,20.7188 2831.8125,22.8125 Q2831.8125,24.9063 2832.5,25.9844 Q2833.1875,27.0469 2834.5313,27.0469 Q2835.1563,27.0469 2835.75,26.7813 Q2836.3438,26.5 2836.9688,25.9219 L2836.9688,28.6406 Z " fill="#000000"/><text fill="#000000" font-family="sans-serif" font-size="14" lengthAdjust="spacing" textLength="138.3799" x="2848" y="27.8467">ExecutionCollection</text><line style="stroke:#181818;stroke-width:0.5;" x1="2820" x2="2988.3799" y1="39" y2="39"/><line style="stroke:#181818;stroke-width:0.5;" x1="2820" x2="2988.3799" y1="47" y2="47"/></g><!--class SamplingCollection--><g class="entity" data-qualified-name="SamplingCollection" data-source-line="14" id="ent0033"><rect fill="#F1F1F1" height="48" rx="2.5" ry="2.5" style="stroke:#181818;stroke-width:0.5;" width="166.7773" x="2618.5" y="115"/><ellipse cx="2633.5" cy="131" fill="#ADD1B2" rx="11" ry="11" style="stroke:#181818;stroke-width:1;"/><path d="M2636.4688,136.6406 Q2635.8906,136.9375 2635.25,137.0781 Q2634.6094,137.2344 2633.9063,137.2344 Q2631.4063,137.2344 2630.0781,135.5938 Q2628.7656,133.9375 2628.7656,130.8125 Q2628.7656,127.6875 2630.0781,126.0313 Q2631.4063,124.375 2633.9063,124.375 Q2634.6094,124.375 2635.25,124.5313 Q2635.9063,124.6875 2636.4688,124.9844 L2636.4688,127.7031 Q2635.8438,127.125 2635.25,126.8594 Q2634.6563,126.5781 2634.0313,126.5781 Q2632.6875,126.5781 2632,127.6563 Q2631.3125,128.7188 2631.3125,130.8125 Q2631.3125,132.9063 2632,133.9844 Q2632.6875,135.0469 2634.0313,135.0469 Q2634.6563,135.0469 2635.25,134.7813 Q2635.8438,134.5 2636.4688,133.9219 L2636.4688,136.6406 Z " fill="#000000"/><text fill="#000000" font-family="sans-serif" font-size="14" lengthAdjust="spacing" textLength="134.7773" x="2647.5" y="135.8467">SamplingCollection</text><line style="stroke:#181818;stroke-width:0.5;" x1="2619.5" x2="2784.2773" y1="147" y2="147"/><line style="stroke:#181818;stroke-width:0.5;" x1="2619.5" x2="2784.2773" y1="155" y2="155"/></g><!--class Actuation--><g class="entity" data-qualified-name="Actuation" data-source-line="15" id="ent0035"><rect fill="#F1F1F1" height="48" rx="2.5" ry="2.5" style="stroke:#181818;stroke-width:0.5;" width="99.0332" x="2332.5" y="115"/><ellipse cx="2347.5" cy="131" fill="#ADD1B2" rx="11" ry="11" style="stroke:#181818;stroke-width:1;"/><path d="M2350.4688,136.6406 Q2349.8906,136.9375 2349.25,137.0781 Q2348.6094,137.2344 2347.9063,137.2344 Q2345.4063,137.2344 2344.0781,135.5938 Q2342.7656,133.9375 2342.7656,130.8125 Q2342.7656,127.6875 2344.0781,126.0313 Q2345.4063,124.375 2347.9063,124.375 Q2348.6094,124.375 2349.25,124.5313 Q2349.9063,124.6875 2350.4688,124.9844 L2350.4688,127.7031 Q2349.8438,127.125 2349.25,126.8594 Q2348.6563,126.5781 2348.0313,126.5781 Q2346.6875,126.5781 2346,127.6563 Q2345.3125,128.7188 2345.3125,130.8125 Q2345.3125,132.9063 2346,133.9844 Q2346.6875,135.0469 2348.0313,135.0469 Q2348.6563,135.0469 2349.25,134.7813 Q2349.8438,134.5 2350.4688,133.9219 L2350.4688,136.6406 Z " fill="#000000"/><text fill="#000000" font-family="sans-serif" font-size="14" lengthAdjust="spacing" textLength="67.0332" x="2361.5" y="135.8467">Actuation</text><line style="stroke:#181818;stroke-width:0.5;" x1="2333.5" x2="2430.5332" y1="147" y2="147"/><line style="stroke:#181818;stroke-width:0.5;" x1="2333.5" x2="2430.5332" y1="155" y2="155"/></g><!--class Sensor--><g class="entity" data-qualified-name="Sensor" data-source-line="16" id="ent0037"><rect fill="#F1F1F1" height="48" rx="2.5" ry="2.5" style="stroke:#181818;stroke-width:0.5;" width="79.9883" x="2203" y="223"/><ellipse cx="2218" cy="239" fill="#ADD1B2" rx="11" ry="11" style="stroke:#181818;stroke-width:1;"/><path d="M2220.9688,244.6406 Q2220.3906,244.9375 2219.75,245.0781 Q2219.1094,245.2344 2218.4063,245.2344 Q2215.9063,245.2344 2214.5781,243.5938 Q2213.2656,241.9375 2213.2656,238.8125 Q2213.2656,235.6875 2214.5781,234.0313 Q2215.9063,232.375 2218.4063,232.375 Q2219.1094,232.375 2219.75,232.5313 Q2220.4063,232.6875 2220.9688,232.9844 L2220.9688,235.7031 Q2220.3438,235.125 2219.75,234.8594 Q2219.1563,234.5781 2218.5313,234.5781 Q2217.1875,234.5781 2216.5,235.6563 Q2215.8125,236.7188 2215.8125,238.8125 Q2215.8125,240.9063 2216.5,241.9844 Q2217.1875,243.0469 2218.5313,243.0469 Q2219.1563,243.0469 2219.75,242.7813 Q2220.3438,242.5 2220.9688,241.9219 L2220.9688,244.6406 Z " fill="#000000"/><text fill="#000000" font-family="sans-serif" font-size="14" lengthAdjust="spacing" textLength="47.9883" x="2232" y="243.8467">Sensor</text><line style="stroke:#181818;stroke-width:0.5;" x1="2204" x2="2281.9883" y1="255" y2="255"/><line style="stroke:#181818;stroke-width:0.5;" x1="2204" x2="2281.9883" y1="263" y2="263"/></g><!--class ActuationCollection--><g class="entity" data-qualified-name="ActuationCollection" data-source-line="17" id="ent0039"><rect fill="#F1F1F1" height="48" rx="2.5" ry="2.5" style="stroke:#181818;stroke-width:0.5;" width="168.2813" x="2820" y="115"/><ellipse cx="2835" cy="131" fill="#ADD1B2" rx="11" ry="11" style="stroke:#181818;stroke-width:1;"/><path d="M2837.9688,136.6406 Q2837.3906,136.9375 2836.75,137.0781 Q2836.1094,137.2344 2835.4063,137.2344 Q2832.9063,137.2344 2831.5781,135.5938 Q2830.2656,133.9375 2830.2656,130.8125 Q2830.2656,127.6875 2831.5781,126.0313 Q2832.9063,124.375 2835.4063,124.375 Q2836.1094,124.375 2836.75,124.5313 Q2837.4063,124.6875 2837.9688,124.9844 L2837.9688,127.7031 Q2837.3438,127.125 2836.75,126.8594 Q2836.1563,126.5781 2835.5313,126.5781 Q2834.1875,126.5781 2833.5,127.6563 Q2832.8125,128.7188 2832.8125,130.8125 Q2832.8125,132.9063 2833.5,133.9844 Q2834.1875,135.0469 2835.5313,135.0469 Q2836.1563,135.0469 2836.75,134.7813 Q2837.3438,134.5 2837.9688,133.9219 L2837.9688,136.6406 Z " fill="#000000"/><text fill="#000000" font-family="sans-serif" font-size="14" lengthAdjust="spacing" textLength="136.2813" x="2849" y="135.8467">ActuationCollection</text><line style="stroke:#181818;stroke-width:0.5;" x1="2821" x2="2987.2813" y1="147" y2="147"/><line style="stroke:#181818;stroke-width:0.5;" x1="2821" x2="2987.2813" y1="155" y2="155"/></g><!--class ObservationCollection--><g class="entity" data-qualified-name="ObservationCollection" data-source-line="18" id="ent0041"><rect fill="#F1F1F1" height="48" rx="2.5" ry="2.5" style="stroke:#181818;stroke-width:0.5;" width="186.499" x="3023" y="115"/><ellipse cx="3038" cy="131" fill="#ADD1B2" rx="11" ry="11" style="stroke:#181818;stroke-width:1;"/><path d="M3040.9688,136.6406 Q3040.3906,136.9375 3039.75,137.0781 Q3039.1094,137.2344 3038.4063,137.2344 Q3035.9063,137.2344 3034.5781,135.5938 Q3033.2656,133.9375 3033.2656,130.8125 Q3033.2656,127.6875 3034.5781,126.0313 Q3035.9063,124.375 3038.4063,124.375 Q3039.1094,124.375 3039.75,124.5313 Q3040.4063,124.6875 3040.9688,124.9844 L3040.9688,127.7031 Q3040.3438,127.125 3039.75,126.8594 Q3039.1563,126.5781 3038.5313,126.5781 Q3037.1875,126.5781 3036.5,127.6563 Q3035.8125,128.7188 3035.8125,130.8125 Q3035.8125,132.9063 3036.5,133.9844 Q3037.1875,135.0469 3038.5313,135.0469 Q3039.1563,135.0469 3039.75,134.7813 Q3040.3438,134.5 3040.9688,133.9219 L3040.9688,136.6406 Z " fill="#000000"/><text fill="#000000" font-family="sans-serif" font-size="14" lengthAdjust="spacing" textLength="154.499" x="3052" y="135.8467">ObservationCollection</text><line style="stroke:#181818;stroke-width:0.5;" x1="3024" x2="3208.499" y1="147" y2="147"/><line style="stroke:#181818;stroke-width:0.5;" x1="3024" x2="3208.499" y1="155" y2="155"/></g><!--class Observation--><g class="entity" data-qualified-name="Observation" data-source-line="19" id="ent0043"><rect fill="#F1F1F1" height="48" rx="2.5" ry="2.5" style="stroke:#181818;stroke-width:0.5;" width="117.251" x="2466.5" y="115"/><ellipse cx="2481.5" cy="131" fill="#ADD1B2" rx="11" ry="11" style="stroke:#181818;stroke-width:1;"/><path d="M2484.4688,136.6406 Q2483.8906,136.9375 2483.25,137.0781 Q2482.6094,137.2344 2481.9063,137.2344 Q2479.4063,137.2344 2478.0781,135.5938 Q2476.7656,133.9375 2476.7656,130.8125 Q2476.7656,127.6875 2478.0781,126.0313 Q2479.4063,124.375 2481.9063,124.375 Q2482.6094,124.375 2483.25,124.5313 Q2483.9063,124.6875 2484.4688,124.9844 L2484.4688,127.7031 Q2483.8438,127.125 2483.25,126.8594 Q2482.6563,126.5781 2482.0313,126.5781 Q2480.6875,126.5781 2480,127.6563 Q2479.3125,128.7188 2479.3125,130.8125 Q2479.3125,132.9063 2480,133.9844 Q2480.6875,135.0469 2482.0313,135.0469 Q2482.6563,135.0469 2483.25,134.7813 Q2483.8438,134.5 2484.4688,133.9219 L2484.4688,136.6406 Z " fill="#000000"/><text fill="#000000" font-family="sans-serif" font-size="14" lengthAdjust="spacing" textLength="85.251" x="2495.5" y="135.8467">Observation</text><line style="stroke:#181818;stroke-width:0.5;" x1="2467.5" x2="2582.751" y1="147" y2="147"/><line style="stroke:#181818;stroke-width:0.5;" x1="2467.5" x2="2582.751" y1="155" y2="155"/></g><!--class FeatureOfInterest--><g class="entity" data-qualified-name="FeatureOfInterest" data-source-line="20" id="ent0045"><rect fill="#F1F1F1" height="48" rx="2.5" ry="2.5" style="stroke:#181818;stroke-width:0.5;" width="156.1816" x="7" y="7"/><ellipse cx="22" cy="23" fill="#ADD1B2" rx="11" ry="11" style="stroke:#181818;stroke-width:1;"/><path d="M24.9688,28.6406 Q24.3906,28.9375 23.75,29.0781 Q23.1094,29.2344 22.4063,29.2344 Q19.9063,29.2344 18.5781,27.5938 Q17.2656,25.9375 17.2656,22.8125 Q17.2656,19.6875 18.5781,18.0313 Q19.9063,16.375 22.4063,16.375 Q23.1094,16.375 23.75,16.5313 Q24.4063,16.6875 24.9688,16.9844 L24.9688,19.7031 Q24.3438,19.125 23.75,18.8594 Q23.1563,18.5781 22.5313,18.5781 Q21.1875,18.5781 20.5,19.6563 Q19.8125,20.7188 19.8125,22.8125 Q19.8125,24.9063 20.5,25.9844 Q21.1875,27.0469 22.5313,27.0469 Q23.1563,27.0469 23.75,26.7813 Q24.3438,26.5 24.9688,25.9219 L24.9688,28.6406 Z " fill="#000000"/><text fill="#000000" font-family="sans-serif" font-size="14" lengthAdjust="spacing" textLength="124.1816" x="36" y="27.8467">FeatureOfInterest</text><line style="stroke:#181818;stroke-width:0.5;" x1="8" x2="162.1816" y1="39" y2="39"/><line style="stroke:#181818;stroke-width:0.5;" x1="8" x2="162.1816" y1="47" y2="47"/></g><!--class Deployment--><g class="entity" data-qualified-name="Deployment" data-source-line="21" id="ent0046"><rect fill="#F1F1F1" height="48" rx="2.5" ry="2.5" style="stroke:#181818;stroke-width:0.5;" width="117.6338" x="198" y="7"/><ellipse cx="213" cy="23" fill="#ADD1B2" rx="11" ry="11" style="stroke:#181818;stroke-width:1;"/><path d="M215.9688,28.6406 Q215.3906,28.9375 214.75,29.0781 Q214.1094,29.2344 213.4063,29.2344 Q210.9063,29.2344 209.5781,27.5938 Q208.2656,25.9375 208.2656,22.8125 Q208.2656,19.6875 209.5781,18.0313 Q210.9063,16.375 213.4063,16.375 Q214.1094,16.375 214.75,16.5313 Q215.4063,16.6875 215.9688,16.9844 L215.9688,19.7031 Q215.3438,19.125 214.75,18.8594 Q214.1563,18.5781 213.5313,18.5781 Q212.1875,18.5781 211.5,19.6563 Q210.8125,20.7188 210.8125,22.8125 Q210.8125,24.9063 211.5,25.9844 Q212.1875,27.0469 213.5313,27.0469 Q214.1563,27.0469 214.75,26.7813 Q215.3438,26.5 215.9688,25.9219 L215.9688,28.6406 Z " fill="#000000"/><text fill="#000000" font-family="sans-serif" font-size="14" lengthAdjust="spacing" textLength="85.6338" x="227" y="27.8467">Deployment</text><line style="stroke:#181818;stroke-width:0.5;" x1="199" x2="314.6338" y1="39" y2="39"/><line style="stroke:#181818;stroke-width:0.5;" x1="199" x2="314.6338" y1="47" y2="47"/></g><!--class Output--><g class="entity" data-qualified-name="Output" data-source-line="22" id="ent0047"><rect fill="#F1F1F1" height="48" rx="2.5" ry="2.5" style="stroke:#181818;stroke-width:0.5;" width="80.6309" x="351.5" y="7"/><ellipse cx="366.5" cy="23" fill="#ADD1B2" rx="11" ry="11" style="stroke:#181818;stroke-width:1;"/><path d="M369.4688,28.6406 Q368.8906,28.9375 368.25,29.0781 Q367.6094,29.2344 366.9063,29.2344 Q364.4063,29.2344 363.0781,27.5938 Q361.7656,25.9375 361.7656,22.8125 Q361.7656,19.6875 363.0781,18.0313 Q364.4063,16.375 366.9063,16.375 Q367.6094,16.375 368.25,16.5313 Q368.9063,16.6875 369.4688,16.9844 L369.4688,19.7031 Q368.8438,19.125 368.25,18.8594 Q367.6563,18.5781 367.0313,18.5781 Q365.6875,18.5781 365,19.6563 Q364.3125,20.7188 364.3125,22.8125 Q364.3125,24.9063 365,25.9844 Q365.6875,27.0469 367.0313,27.0469 Q367.6563,27.0469 368.25,26.7813 Q368.8438,26.5 369.4688,25.9219 L369.4688,28.6406 Z " fill="#000000"/><text fill="#000000" font-family="sans-serif" font-size="14" lengthAdjust="spacing" textLength="48.6309" x="380.5" y="27.8467">Output</text><line style="stroke:#181818;stroke-width:0.5;" x1="352.5" x2="431.1309" y1="39" y2="39"/><line style="stroke:#181818;stroke-width:0.5;" x1="352.5" x2="431.1309" y1="47" y2="47"/></g><!--class Result--><g class="entity" data-qualified-name="Result" data-source-line="24" id="ent0048"><rect fill="#F1F1F1" height="48" rx="2.5" ry="2.5" style="stroke:#181818;stroke-width:0.5;" width="75.8867" x="47" y="115"/><ellipse cx="62" cy="131" fill="#ADD1B2" rx="11" ry="11" style="stroke:#181818;stroke-width:1;"/><path d="M64.9688,136.6406 Q64.3906,136.9375 63.75,137.0781 Q63.1094,137.2344 62.4063,137.2344 Q59.9063,137.2344 58.5781,135.5938 Q57.2656,133.9375 57.2656,130.8125 Q57.2656,127.6875 58.5781,126.0313 Q59.9063,124.375 62.4063,124.375 Q63.1094,124.375 63.75,124.5313 Q64.4063,124.6875 64.9688,124.9844 L64.9688,127.7031 Q64.3438,127.125 63.75,126.8594 Q63.1563,126.5781 62.5313,126.5781 Q61.1875,126.5781 60.5,127.6563 Q59.8125,128.7188 59.8125,130.8125 Q59.8125,132.9063 60.5,133.9844 Q61.1875,135.0469 62.5313,135.0469 Q63.1563,135.0469 63.75,134.7813 Q64.3438,134.5 64.9688,133.9219 L64.9688,136.6406 Z " fill="#000000"/><text fill="#000000" font-family="sans-serif" font-size="14" lengthAdjust="spacing" textLength="43.8867" x="76" y="135.8467">Result</text><line style="stroke:#181818;stroke-width:0.5;" x1="48" x2="121.8867" y1="147" y2="147"/><line style="stroke:#181818;stroke-width:0.5;" x1="48" x2="121.8867" y1="155" y2="155"/></g><!--class Input--><g class="entity" data-qualified-name="Input" data-source-line="25" id="ent0049"><rect fill="#F1F1F1" height="48" rx="2.5" ry="2.5" style="stroke:#181818;stroke-width:0.5;" width="68.251" x="158" y="115"/><ellipse cx="173" cy="131" fill="#ADD1B2" rx="11" ry="11" style="stroke:#181818;stroke-width:1;"/><path d="M175.9688,136.6406 Q175.3906,136.9375 174.75,137.0781 Q174.1094,137.2344 173.4063,137.2344 Q170.9063,137.2344 169.5781,135.5938 Q168.2656,133.9375 168.2656,130.8125 Q168.2656,127.6875 169.5781,126.0313 Q170.9063,124.375 173.4063,124.375 Q174.1094,124.375 174.75,124.5313 Q175.4063,124.6875 175.9688,124.9844 L175.9688,127.7031 Q175.3438,127.125 174.75,126.8594 Q174.1563,126.5781 173.5313,126.5781 Q172.1875,126.5781 171.5,127.6563 Q170.8125,128.7188 170.8125,130.8125 Q170.8125,132.9063 171.5,133.9844 Q172.1875,135.0469 173.5313,135.0469 Q174.1563,135.0469 174.75,134.7813 Q175.3438,134.5 175.9688,133.9219 L175.9688,136.6406 Z " fill="#000000"/><text fill="#000000" font-family="sans-serif" font-size="14" lengthAdjust="spacing" textLength="36.251" x="187" y="135.8467">Input</text><line style="stroke:#181818;stroke-width:0.5;" x1="159" x2="225.251" y1="147" y2="147"/><line style="stroke:#181818;stroke-width:0.5;" x1="159" x2="225.251" y1="155" y2="155"/></g><!--class Stimulus--><g class="entity" data-qualified-name="Stimulus" data-source-line="27" id="ent0050"><rect fill="#F1F1F1" height="48" rx="2.5" ry="2.5" style="stroke:#181818;stroke-width:0.5;" width="92.833" x="261.5" y="115"/><ellipse cx="276.5" cy="131" fill="#ADD1B2" rx="11" ry="11" style="stroke:#181818;stroke-width:1;"/><path d="M279.4688,136.6406 Q278.8906,136.9375 278.25,137.0781 Q277.6094,137.2344 276.9063,137.2344 Q274.4063,137.2344 273.0781,135.5938 Q271.7656,133.9375 271.7656,130.8125 Q271.7656,127.6875 273.0781,126.0313 Q274.4063,124.375 276.9063,124.375 Q277.6094,124.375 278.25,124.5313 Q278.9063,124.6875 279.4688,124.9844 L279.4688,127.7031 Q278.8438,127.125 278.25,126.8594 Q277.6563,126.5781 277.0313,126.5781 Q275.6875,126.5781 275,127.6563 Q274.3125,128.7188 274.3125,130.8125 Q274.3125,132.9063 275,133.9844 Q275.6875,135.0469 277.0313,135.0469 Q277.6563,135.0469 278.25,134.7813 Q278.8438,134.5 279.4688,133.9219 L279.4688,136.6406 Z " fill="#000000"/><text fill="#000000" font-family="sans-serif" font-size="14" lengthAdjust="spacing" textLength="60.833" x="290.5" y="135.8467">Stimulus</text><line style="stroke:#181818;stroke-width:0.5;" x1="262.5" x2="353.333" y1="147" y2="147"/><line style="stroke:#181818;stroke-width:0.5;" x1="262.5" x2="353.333" y1="155" y2="155"/></g><!--class SampleCollection--><g class="entity" data-qualified-name="SampleCollection" data-source-line="29" id="ent0051"><rect fill="#F1F1F1" height="48" rx="2.5" ry="2.5" style="stroke:#181818;stroke-width:0.5;" width="153.7412" x="8" y="223"/><ellipse cx="23" cy="239" fill="#ADD1B2" rx="11" ry="11" style="stroke:#181818;stroke-width:1;"/><path d="M25.9688,244.6406 Q25.3906,244.9375 24.75,245.0781 Q24.1094,245.2344 23.4063,245.2344 Q20.9063,245.2344 19.5781,243.5938 Q18.2656,241.9375 18.2656,238.8125 Q18.2656,235.6875 19.5781,234.0313 Q20.9063,232.375 23.4063,232.375 Q24.1094,232.375 24.75,232.5313 Q25.4063,232.6875 25.9688,232.9844 L25.9688,235.7031 Q25.3438,235.125 24.75,234.8594 Q24.1563,234.5781 23.5313,234.5781 Q22.1875,234.5781 21.5,235.6563 Q20.8125,236.7188 20.8125,238.8125 Q20.8125,240.9063 21.5,241.9844 Q22.1875,243.0469 23.5313,243.0469 Q24.1563,243.0469 24.75,242.7813 Q25.3438,242.5 25.9688,241.9219 L25.9688,244.6406 Z " fill="#000000"/><text fill="#000000" font-family="sans-serif" font-size="14" lengthAdjust="spacing" textLength="121.7412" x="37" y="243.8467">SampleCollection</text><line style="stroke:#181818;stroke-width:0.5;" x1="9" x2="160.7412" y1="255" y2="255"/><line style="stroke:#181818;stroke-width:0.5;" x1="9" x2="160.7412" y1="263" y2="263"/></g><!--reverse link Property to ActuatableProperty--><g class="link" data-entity-1="ent0001" data-entity-2="ent0002" data-link-type="extension" data-source-line="1" id="lnk3"><path codeLine="1" d="M555.6754,66.7515 C535.1854,84.4115 520.64,96.94 500.06,114.68" fill="none" id="Property-backto-ActuatableProperty" style="stroke:#181818;stroke-width:1;"/><polygon fill="none" points="569.31,55,551.7582,62.2066,559.5925,71.2963,569.31,55" style="stroke:#181818;stroke-width:1;stroke-linejoin:miter;stroke-miterlimit:10;"/></g><!--reverse link Sample to MaterialSample--><g class="link" data-entity-1="ent0004" data-entity-2="ent0005" data-link-type="extension" data-source-line="2" id="lnk6"><path codeLine="2" d="M989.3567,64.4445 C960.6067,82.1645 936.35,97.11 907.55,114.86" fill="none" id="Sample-backto-MaterialSample" style="stroke:#181818;stroke-width:1;"/><polygon fill="none" points="1004.68,55,986.2086,59.3367,992.5049,69.5522,1004.68,55" style="stroke:#181818;stroke-width:1;stroke-linejoin:miter;stroke-miterlimit:10;"/></g><!--reverse link Sample to SpatialSample--><g class="link" data-entity-1="ent0004" data-entity-2="ent0007" data-link-type="extension" data-source-line="3" id="lnk8"><path codeLine="3" d="M1042,73 C1042,90.66 1042,96.94 1042,114.68" fill="none" id="Sample-backto-SpatialSample" style="stroke:#181818;stroke-width:1;"/><polygon fill="none" points="1042,55,1036,73,1048,73,1042,55" style="stroke:#181818;stroke-width:1;stroke-linejoin:miter;stroke-miterlimit:10;"/></g><!--reverse link Sample to StatisticalSample--><g class="link" data-entity-1="ent0004" data-entity-2="ent0009" data-link-type="extension" data-source-line="4" id="lnk10"><path codeLine="4" d="M1096.3276,64.1725 C1126.2476,81.8925 1151.95,97.11 1181.93,114.86" fill="none" id="Sample-backto-StatisticalSample" style="stroke:#181818;stroke-width:1;"/><polygon fill="none" points="1080.84,55,1093.2701,69.335,1099.3851,59.0099,1080.84,55" style="stroke:#181818;stroke-width:1;stroke-linejoin:miter;stroke-miterlimit:10;"/></g><!--reverse link Property to ObservableProperty--><g class="link" data-entity-1="ent0001" data-entity-2="ent0011" data-link-type="extension" data-source-line="5" id="lnk12"><path codeLine="5" d="M624.8029,69.2378 C638.4629,86.8978 646.24,96.94 659.96,114.68" fill="none" id="Property-backto-ObservableProperty" style="stroke:#181818;stroke-width:1;"/><polygon fill="none" points="613.79,55,620.057,72.9088,629.5489,65.5668,613.79,55" style="stroke:#181818;stroke-width:1;stroke-linejoin:miter;stroke-miterlimit:10;"/></g><!--reverse link Procedure to ActuatingProcedure--><g class="link" data-entity-1="ent0013" data-entity-2="ent0014" data-link-type="extension" data-source-line="6" id="lnk15"><path codeLine="6" d="M1565.8326,63.1732 C1531.0626,80.8932 1499.24,97.11 1464.4,114.86" fill="none" id="Procedure-backto-ActuatingProcedure" style="stroke:#181818;stroke-width:1;"/><polygon fill="none" points="1581.87,55,1563.1082,57.8274,1568.557,68.519,1581.87,55" style="stroke:#181818;stroke-width:1;stroke-linejoin:miter;stroke-miterlimit:10;"/></g><!--reverse link Procedure to ObservingProcedure--><g class="link" data-entity-1="ent0013" data-entity-2="ent0016" data-link-type="extension" data-source-line="7" id="lnk17"><path codeLine="7" d="M1627,73 C1627,90.66 1627,96.94 1627,114.68" fill="none" id="Procedure-backto-ObservingProcedure" style="stroke:#181818;stroke-width:1;"/><polygon fill="none" points="1627,55,1621,73,1633,73,1627,55" style="stroke:#181818;stroke-width:1;stroke-linejoin:miter;stroke-miterlimit:10;"/></g><!--reverse link Procedure to SamplingProcedure--><g class="link" data-entity-1="ent0013" data-entity-2="ent0018" data-link-type="extension" data-source-line="8" id="lnk19"><path codeLine="8" d="M1687.9411,63.205 C1722.5411,80.925 1754.15,97.11 1788.81,114.86" fill="none" id="Procedure-backto-SamplingProcedure" style="stroke:#181818;stroke-width:1;"/><polygon fill="none" points="1671.92,55,1685.2061,68.5454,1690.6762,57.8647,1671.92,55" style="stroke:#181818;stroke-width:1;stroke-linejoin:miter;stroke-miterlimit:10;"/></g><!--reverse link Asset to Platform--><g class="link" data-entity-1="ent0020" data-entity-2="ent0021" data-link-type="extension" data-source-line="9" id="lnk22"><path codeLine="9" d="M2037.7839,70.6022 C2027.6239,88.2622 2022.63,96.94 2012.42,114.68" fill="none" id="Asset-backto-Platform" style="stroke:#181818;stroke-width:1;"/><polygon fill="none" points="2046.76,55,2032.5831,67.6102,2042.9846,73.5943,2046.76,55" style="stroke:#181818;stroke-width:1;stroke-linejoin:miter;stroke-miterlimit:10;"/></g><!--reverse link System to Sampler--><g class="link" data-entity-1="ent0023" data-entity-2="ent0024" data-link-type="extension" data-source-line="10" id="lnk25"><path codeLine="10" d="M2080.8865,174.5884 C2059.8965,192.2484 2044.81,204.94 2023.72,222.68" fill="none" id="System-backto-Sampler" style="stroke:#181818;stroke-width:1;"/><polygon fill="none" points="2094.66,163,2077.0237,169.9972,2084.7493,179.1795,2094.66,163" style="stroke:#181818;stroke-width:1;stroke-linejoin:miter;stroke-miterlimit:10;"/></g><!--reverse link System to Actuator--><g class="link" data-entity-1="ent0023" data-entity-2="ent0026" data-link-type="extension" data-source-line="11" id="lnk27"><path codeLine="11" d="M2122,181 C2122,198.66 2122,204.94 2122,222.68" fill="none" id="System-backto-Actuator" style="stroke:#181818;stroke-width:1;"/><polygon fill="none" points="2122,163,2116,181,2128,181,2122,163" style="stroke:#181818;stroke-width:1;stroke-linejoin:miter;stroke-miterlimit:10;"/></g><!--reverse link Asset to System--><g class="link" data-entity-1="ent0020" data-entity-2="ent0023" data-link-type="extension" data-source-line="12" id="lnk28"><path codeLine="12" d="M2082.5383,70.5372 C2092.8683,88.1972 2097.98,96.94 2108.36,114.68" fill="none" id="Asset-backto-System" style="stroke:#181818;stroke-width:1;"/><polygon fill="none" points="2073.45,55,2077.3592,73.5666,2087.7173,67.5077,2073.45,55" style="stroke:#181818;stroke-width:1;stroke-linejoin:miter;stroke-miterlimit:10;"/></g><!--reverse link Execution to Sampling--><g class="link" data-entity-1="ent0029" data-entity-2="ent0030" data-link-type="extension" data-source-line="13" id="lnk31"><path codeLine="13" d="M2338.8041,66.1688 C2316.4841,83.8288 2299.91,96.94 2277.48,114.68" fill="none" id="Execution-backto-Sampling" style="stroke:#181818;stroke-width:1;"/><polygon fill="none" points="2352.92,55,2335.0812,61.4635,2342.527,70.8741,2352.92,55" style="stroke:#181818;stroke-width:1;stroke-linejoin:miter;stroke-miterlimit:10;"/></g><!--reverse link ExecutionCollection to SamplingCollection--><g class="link" data-entity-1="ent0032" data-entity-2="ent0033" data-link-type="extension" data-source-line="14" id="lnk34"><path codeLine="14" d="M2844.231,63.3636 C2810.461,81.0836 2779.93,97.11 2746.09,114.86" fill="none" id="ExecutionCollection-backto-SamplingCollection" style="stroke:#181818;stroke-width:1;"/><polygon fill="none" points="2860.17,55,2841.4432,58.0506,2847.0189,68.6766,2860.17,55" style="stroke:#181818;stroke-width:1;stroke-linejoin:miter;stroke-miterlimit:10;"/></g><!--reverse link Execution to Actuation--><g class="link" data-entity-1="ent0029" data-entity-2="ent0035" data-link-type="extension" data-source-line="15" id="lnk36"><path codeLine="15" d="M2382,73 C2382,90.66 2382,96.94 2382,114.68" fill="none" id="Execution-backto-Actuation" style="stroke:#181818;stroke-width:1;"/><polygon fill="none" points="2382,55,2376,73,2388,73,2382,55" style="stroke:#181818;stroke-width:1;stroke-linejoin:miter;stroke-miterlimit:10;"/></g><!--reverse link System to Sensor--><g class="link" data-entity-1="ent0023" data-entity-2="ent0037" data-link-type="extension" data-source-line="16" id="lnk38"><path codeLine="16" d="M2161.7968,174.864 C2181.9468,192.524 2196.13,204.94 2216.38,222.68" fill="none" id="System-backto-Sensor" style="stroke:#181818;stroke-width:1;"/><polygon fill="none" points="2148.26,163,2157.8421,179.3763,2165.7515,170.3518,2148.26,163" style="stroke:#181818;stroke-width:1;stroke-linejoin:miter;stroke-miterlimit:10;"/></g><!--reverse link ExecutionCollection to ActuationCollection--><g class="link" data-entity-1="ent0032" data-entity-2="ent0039" data-link-type="extension" data-source-line="17" id="lnk40"><path codeLine="17" d="M2904,73 C2904,90.66 2904,96.94 2904,114.68" fill="none" id="ExecutionCollection-backto-ActuationCollection" style="stroke:#181818;stroke-width:1;"/><polygon fill="none" points="2904,55,2898,73,2910,73,2904,55" style="stroke:#181818;stroke-width:1;stroke-linejoin:miter;stroke-miterlimit:10;"/></g><!--reverse link ExecutionCollection to ObservationCollection--><g class="link" data-entity-1="ent0032" data-entity-2="ent0041" data-link-type="extension" data-source-line="18" id="lnk42"><path codeLine="18" d="M2966.0997,63.0498 C3001.5397,80.7698 3034.22,97.11 3069.72,114.86" fill="none" id="ExecutionCollection-backto-ObservationCollection" style="stroke:#181818;stroke-width:1;"/><polygon fill="none" points="2950,55,2963.4164,68.4164,2968.783,57.6833,2950,55" style="stroke:#181818;stroke-width:1;stroke-linejoin:miter;stroke-miterlimit:10;"/></g><!--reverse link Execution to Observation--><g class="link" data-entity-1="ent0029" data-entity-2="ent0043" data-link-type="extension" data-source-line="19" id="lnk44"><path codeLine="19" d="M2427.4895,65.7202 C2451.3095,83.3802 2469.61,96.94 2493.54,114.68" fill="none" id="Execution-backto-Observation" style="stroke:#181818;stroke-width:1;"/><polygon fill="none" points="2413.03,55,2423.9161,70.54,2431.0629,60.9004,2413.03,55" style="stroke:#181818;stroke-width:1;stroke-linejoin:miter;stroke-miterlimit:10;"/></g><?plantuml-src VP99RiCm34NtFeKla1ja4tG0iWXir2TWL2OGG0qGgQ06UlWAaM9RJjoT-D_d84fzS1w3ZEt-TxTh3qeY29m9-w8t0nXFcF4918C6obg51W-oGIGH5gqcsbSzkpDZk5Kzqq7XTmoud4hRwwIl7Rd6VuvxwyfmO4R9i2UGYmkc6KOMD8iC39MM9t5XcPnvy_63Aefsjkutws-E2DMpOzRNDSgz4wZcGijfWiswKzQhmcjpMVwM_SdKA0BczXD1qWwxoz6c7u4iHNz7JsuqQ1z25yN7JVg57EaH7EtiB3ijWMWJAN89frzIwFsP5iFNINy0?></g></svg>