<svg xmlns="http://www.w3.org/2000/svg" xmlns:xlink="http://www.w3.org/1999/xlink" contentStyleType="text/css" data-diagram-type="CLASS" height="286px" preserveAspectRatio="none" style="width:3247px;height:286px;background:#FFFFFF;" version="1.1" viewBox="0 0 3247 286" width="3247px" zoomAndPan="magnify"><?plantuml 1.2026.5?><defs/><g><!--class Property--><g class="entity" data-qualified-name="Property" data-source-line="1" id="ent0001"><rect fill="#F1F1F1" height="48" rx="2.5" ry="2.5" style="stroke:#181818;stroke-width:0.5;" width="91.7939" x="576" y="7"/><ellipse cx="591" cy="23" fill="#ADD1B2" rx="11" ry="11" style="stroke:#181818;stroke-width:1;"/><path d="M593.9688,28.6406 Q593.3906,28.9375 592.75,29.0781 Q592.1094,29.2344 591.4063,29.2344 Q588.9063,29.2344 587.5781,27.5938 Q586.2656,25.9375 586.2656,22.8125 Q586.2656,19.6875 587.5781,18.0313 Q588.9063,16.375 591.4063,16.375 Q592.1094,16.375 592.75,16.5313 Q593.4063,16.6875 593.9688,16.9844 L593.9688,19.7031 Q593.3438,19.125 592.75,18.8594 Q592.1563,18.5781 591.5313,18.5781 Q590.1875,18.5781 589.5,19.6563 Q588.8125,20.7188 588.8125,22.8125 Q588.8125,24.9063 589.5,25.9844 Q590.1875,27.0469 591.5313,27.0469 Q592.1563,27.0469 592.75,26.7813 Q593.3438,26.5 593.9688,25.9219 L593.9688,28.6406 Z " fill="#000000"/><text fill="#000000" font-family="sans-serif" font-size="14" lengthAdjust="spacing" textLength="59.7939" x="605" y="27.8467">Property</text><line style="stroke:#181818;stroke-width:0.5;" x1="577" x2="666.7939" y1="39" y2="39"/><line style="stroke:#181818;stroke-width:0.5;" x1="577" x2="666.7939" y1="47" y2="47"/></g><!--class ActuatableProperty--><g class="entity" data-qualified-name="ActuatableProperty" data-source-line="1" id="ent0002"><rect fill="#F1F1F1" height="48" rx="2.5" ry="2.5" style="stroke:#181818;stroke-width:0.5;" width="167.4678" x="412.5" y="115"/><ellipse cx="427.5" cy="131" fill="#ADD1B2" rx="11" ry="11" style="stroke:#181818;stroke-width:1;"/><path d="M430.4688,136.6406 Q429.8906,136.9375 429.25,137.0781 Q428.6094,137.2344 427.9063,137.2344 Q425.4063,137.2344 424.0781,135.5938 Q422.7656,133.9375 422.7656,130.8125 Q422.7656,127.6875 424.0781,126.0313 Q425.4063,124.375 427.9063,124.375 Q428.6094,124.375 429.25,124.5313 Q429.9063,124.6875 430.4688,124.9844 L430.4688,127.7031 Q429.8438,127.125 429.25,126.8594 Q428.6563,126.5781 428.0313,126.5781 Q426.6875,126.5781 426,127.6563 Q425.3125,128.7188 425.3125,130.8125 Q425.3125,132.9063 426,133.9844 Q426.6875,135.0469 428.0313,135.0469 Q428.6563,135.0469 429.25,134.7813 Q429.8438,134.5 430.4688,133.9219 L430.4688,136.6406 Z " fill="#000000"/><text fill="#000000" font-family="sans-serif" font-size="14" lengthAdjust="spacing" textLength="135.4678" x="441.5" y="135.8467">ActuatableProperty</text><line style="stroke:#181818;stroke-width:0.5;" x1="413.5" x2="578.9678" y1="147" y2="147"/><line style="stroke:#181818;stroke-width:0.5;" x1="413.5" x2="578.9678" y1="155" y2="155"/></g><!--class Sample--><g class="entity" data-qualified-name="Sample" data-source-line="2" id="ent0004"><rect fill="#F1F1F1" height="48" rx="2.5" ry="2.5" style="stroke:#181818;stroke-width:0.5;" width="84.4932" x="1023" y="7"/><ellipse cx="1038" cy="23" fill="#ADD1B2" rx="11" ry="11" style="stroke:#181818;stroke-width:1;"/><path d="M1040.9688,28.6406 Q1040.3906,28.9375 1039.75,29.0781 Q1039.1094,29.2344 1038.4063,29.2344 Q1035.9063,29.2344 1034.5781,27.5938 Q1033.2656,25.9375 1033.2656,22.8125 Q1033.2656,19.6875 1034.5781,18.0313 Q1035.9063,16.375 1038.4063,16.375 Q1039.1094,16.375 1039.75,16.5313 Q1040.4063,16.6875 1040.9688,16.9844 L1040.9688,19.7031 Q1040.3438,19.125 1039.75,18.8594 Q1039.1563,18.5781 1038.5313,18.5781 Q1037.1875,18.5781 1036.5,19.6563 Q1035.8125,20.7188 1035.8125,22.8125 Q1035.8125,24.9063 1036.5,25.9844 Q1037.1875,27.0469 1038.5313,27.0469 Q1039.1563,27.0469 1039.75,26.7813 Q1040.3438,26.5 1040.9688,25.9219 L1040.9688,28.6406 Z " fill="#000000"/><text fill="#000000" font-family="sans-serif" font-size="14" lengthAdjust="spacing" textLength="52.4932" x="1052" y="27.8467">Sample</text><line style="stroke:#181818;stroke-width:0.5;" x1="1024" x2="1106.4932" y1="39" y2="39"/><line style="stroke:#181818;stroke-width:0.5;" x1="1024" x2="1106.4932" y1="47" y2="47"/></g><!--class MaterialSample--><g class="entity" data-qualified-name="MaterialSample" data-source-line="2" id="ent0005"><rect fill="#F1F1F1" height="48" rx="2.5" ry="2.5" style="stroke:#181818;stroke-width:0.5;" width="141.3682" x="822.5" y="115"/><ellipse cx="837.5" cy="131" fill="#ADD1B2" rx="11" ry="11" style="stroke:#181818;stroke-width:1;"/><path d="M840.4688,136.6406 Q839.8906,136.9375 839.25,137.0781 Q838.6094,137.2344 837.9063,137.2344 Q835.4063,137.2344 834.0781,135.5938 Q832.7656,133.9375 832.7656,130.8125 Q832.7656,127.6875 834.0781,126.0313 Q835.4063,124.375 837.9063,124.375 Q838.6094,124.375 839.25,124.5313 Q839.9063,124.6875 840.4688,124.9844 L840.4688,127.7031 Q839.8438,127.125 839.25,126.8594 Q838.6563,126.5781 838.0313,126.5781 Q836.6875,126.5781 836,127.6563 Q835.3125,128.7188 835.3125,130.8125 Q835.3125,132.9063 836,133.9844 Q836.6875,135.0469 838.0313,135.0469 Q838.6563,135.0469 839.25,134.7813 Q839.8438,134.5 840.4688,133.9219 L840.4688,136.6406 Z " fill="#000000"/><text fill="#000000" font-family="sans-serif" font-size="14" lengthAdjust="spacing" textLength="109.3682" x="851.5" y="135.8467">MaterialSample</text><line style="stroke:#181818;stroke-width:0.5;" x1="823.5" x2="962.8682" y1="147" y2="147"/><line style="stroke:#181818;stroke-width:0.5;" x1="823.5" x2="962.8682" y1="155" y2="155"/></g><!--class SpatialSample--><g class="entity" data-qualified-name="SpatialSample" data-source-line="3" id="ent0007"><rect fill="#F1F1F1" height="48" rx="2.5" ry="2.5" style="stroke:#181818;stroke-width:0.5;" width="132.6934" x="998.5" y="115"/><ellipse cx="1013.5" cy="131" fill="#ADD1B2" rx="11" ry="11" style="stroke:#181818;stroke-width:1;"/><path d="M1016.4688,136.6406 Q1015.8906,136.9375 1015.25,137.0781 Q1014.6094,137.2344 1013.9063,137.2344 Q1011.4063,137.2344 1010.0781,135.5938 Q1008.7656,133.9375 1008.7656,130.8125 Q1008.7656,127.6875 1010.0781,126.0313 Q1011.4063,124.375 1013.9063,124.375 Q1014.6094,124.375 1015.25,124.5313 Q1015.9063,124.6875 1016.4688,124.9844 L1016.4688,127.7031 Q1015.8438,127.125 1015.25,126.8594 Q1014.6563,126.5781 1014.0313,126.5781 Q1012.6875,126.5781 1012,127.6563 Q1011.3125,128.7188 1011.3125,130.8125 Q1011.3125,132.9063 1012,133.9844 Q1012.6875,135.0469 1014.0313,135.0469 Q1014.6563,135.0469 1015.25,134.7813 Q1015.8438,134.5 1016.4688,133.9219 L1016.4688,136.6406 Z " fill="#000000"/><text fill="#000000" font-family="sans-serif" font-size="14" lengthAdjust="spacing" textLength="100.6934" x="1027.5" y="135.8467">SpatialSample</text><line style="stroke:#181818;stroke-width:0.5;" x1="999.5" x2="1130.1934" y1="147" y2="147"/><line style="stroke:#181818;stroke-width:0.5;" x1="999.5" x2="1130.1934" y1="155" y2="155"/></g><!--class StatisticalSample--><g class="entity" data-qualified-name="StatisticalSample" data-source-line="4" id="ent0009"><rect fill="#F1F1F1" height="48" rx="2.5" ry="2.5" style="stroke:#181818;stroke-width:0.5;" width="153.666" x="1167" y="115"/><ellipse cx="1182" cy="131" fill="#ADD1B2" rx="11" ry="11" style="stroke:#181818;stroke-width:1;"/><path d="M1184.9688,136.6406 Q1184.3906,136.9375 1183.75,137.0781 Q1183.1094,137.2344 1182.4063,137.2344 Q1179.9063,137.2344 1178.5781,135.5938 Q1177.2656,133.9375 1177.2656,130.8125 Q1177.2656,127.6875 1178.5781,126.0313 Q1179.9063,124.375 1182.4063,124.375 Q1183.1094,124.375 1183.75,124.5313 Q1184.4063,124.6875 1184.9688,124.9844 L1184.9688,127.7031 Q1184.3438,127.125 1183.75,126.8594 Q1183.1563,126.5781 1182.5313,126.5781 Q1181.1875,126.5781 1180.5,127.6563 Q1179.8125,128.7188 1179.8125,130.8125 Q1179.8125,132.9063 1180.5,133.9844 Q1181.1875,135.0469 1182.5313,135.0469 Q1183.1563,135.0469 1183.75,134.7813 Q1184.3438,134.5 1184.9688,133.9219 L1184.9688,136.6406 Z " fill="#000000"/><text fill="#000000" font-family="sans-serif" font-size="14" lengthAdjust="spacing" textLength="121.666" x="1196" y="135.8467">StatisticalSample</text><line style="stroke:#181818;stroke-width:0.5;" x1="1168" x2="1319.666" y1="147" y2="147"/><line style="stroke:#181818;stroke-width:0.5;" x1="1168" x2="1319.666" y1="155" y2="155"/></g><!--class ObservableProperty--><g class="entity" data-qualified-name="ObservableProperty" data-source-line="5" id="ent0011"><rect fill="#F1F1F1" height="48" rx="2.5" ry="2.5" style="stroke:#181818;stroke-width:0.5;" width="171.6172" x="615" y="115"/><ellipse cx="630" cy="131" fill="#ADD1B2" rx="11" ry="11" style="stroke:#181818;stroke-width:1;"/><path d="M632.9688,136.6406 Q632.3906,136.9375 631.75,137.0781 Q631.1094,137.2344 630.4063,137.2344 Q627.9063,137.2344 626.5781,135.5938 Q625.2656,133.9375 625.2656,130.8125 Q625.2656,127.6875 626.5781,126.0313 Q627.9063,124.375 630.4063,124.375 Q631.1094,124.375 631.75,124.5313 Q632.4063,124.6875 632.9688,124.9844 L632.9688,127.7031 Q632.3438,127.125 631.75,126.8594 Q631.1563,126.5781 630.5313,126.5781 Q629.1875,126.5781 628.5,127.6563 Q627.8125,128.7188 627.8125,130.8125 Q627.8125,132.9063 628.5,133.9844 Q629.1875,135.0469 630.5313,135.0469 Q631.1563,135.0469 631.75,134.7813 Q632.3438,134.5 632.9688,133.9219 L632.9688,136.6406 Z " fill="#000000"/><text fill="#000000" font-family="sans-serif" font-size="14" lengthAdjust="spacing" textLength="139.6172" x="644" y="135.8467">ObservableProperty</text><line style="stroke:#181818;stroke-width:0.5;" x1="616" x2="785.6172" y1="147" y2="147"/><line style="stroke:#181818;stroke-width:0.5;" x1="616" x2="785.6172" y1="155" y2="155"/></g><!--class Procedure--><g class="entity" data-qualified-name="Procedure" data-source-line="6" id="ent0013"><rect fill="#F1F1F1" height="48" rx="2.5" ry="2.5" style="stroke:#181818;stroke-width:0.5;" width="103.2031" x="1598.5" y="7"/><ellipse cx="1613.5" cy="23" fill="#ADD1B2" rx="11" ry="11" style="stroke:#181818;stroke-width:1;"/><path d="M1616.4688,28.6406 Q1615.8906,28.9375 1615.25,29.0781 Q1614.6094,29.2344 1613.9063,29.2344 Q1611.4063,29.2344 1610.0781,27.5938 Q1608.7656,25.9375 1608.7656,22.8125 Q1608.7656,19.6875 1610.0781,18.0313 Q1611.4063,16.375 1613.9063,16.375 Q1614.6094,16.375 1615.25,16.5313 Q1615.9063,16.6875 1616.4688,16.9844 L1616.4688,19.7031 Q1615.8438,19.125 1615.25,18.8594 Q1614.6563,18.5781 1614.0313,18.5781 Q1612.6875,18.5781 1612,19.6563 Q1611.3125,20.7188 1611.3125,22.8125 Q1611.3125,24.9063 1612,25.9844 Q1612.6875,27.0469 1614.0313,27.0469 Q1614.6563,27.0469 1615.25,26.7813 Q1615.8438,26.5 1616.4688,25.9219 L1616.4688,28.6406 Z " fill="#000000"/><text fill="#000000" font-family="sans-serif" font-size="14" lengthAdjust="spacing" textLength="71.2031" x="1627.5" y="27.8467">Procedure</text><line style="stroke:#181818;stroke-width:0.5;" x1="1599.5" x2="1700.7031" y1="39" y2="39"/><line style="stroke:#181818;stroke-width:0.5;" x1="1599.5" x2="1700.7031" y1="47" y2="47"/></g><!--class ActuatingProcedure--><g class="entity" data-qualified-name="ActuatingProcedure" data-source-line="6" id="ent0014"><rect fill="#F1F1F1" height="48" rx="2.5" ry="2.5" style="stroke:#181818;stroke-width:0.5;" width="170.5576" x="1356.5" y="115"/><ellipse cx="1371.5" cy="131" fill="#ADD1B2" rx="11" ry="11" style="stroke:#181818;stroke-width:1;"/><path d="M1374.4688,136.6406 Q1373.8906,136.9375 1373.25,137.0781 Q1372.6094,137.2344 1371.9063,137.2344 Q1369.4063,137.2344 1368.0781,135.5938 Q1366.7656,133.9375 1366.7656,130.8125 Q1366.7656,127.6875 1368.0781,126.0313 Q1369.4063,124.375 1371.9063,124.375 Q1372.6094,124.375 1373.25,124.5313 Q1373.9063,124.6875 1374.4688,124.9844 L1374.4688,127.7031 Q1373.8438,127.125 1373.25,126.8594 Q1372.6563,126.5781 1372.0313,126.5781 Q1370.6875,126.5781 1370,127.6563 Q1369.3125,128.7188 1369.3125,130.8125 Q1369.3125,132.9063 1370,133.9844 Q1370.6875,135.0469 1372.0313,135.0469 Q1372.6563,135.0469 1373.25,134.7813 Q1373.8438,134.5 1374.4688,133.9219 L1374.4688,136.6406 Z " fill="#000000"/><text fill="#000000" font-family="sans-serif" font-size="14" lengthAdjust="spacing" textLength="138.5576" x="1385.5" y="135.8467">ActuatingProcedure</text><line style="stroke:#181818;stroke-width:0.5;" x1="1357.5" x2="1526.0576" y1="147" y2="147"/><line style="stroke:#181818;stroke-width:0.5;" x1="1357.5" x2="1526.0576" y1="155" y2="155"/></g><!--class ObservingProcedure--><g class="entity" data-qualified-name="ObservingProcedure" data-source-line="7" id="ent0016"><rect fill="#F1F1F1" height="48" rx="2.5" ry="2.5" style="stroke:#181818;stroke-width:0.5;" width="174.707" x="1562.5" y="115"/><ellipse cx="1577.5" cy="131" fill="#ADD1B2" rx="11" ry="11" style="stroke:#181818;stroke-width:1;"/><path d="M1580.4688,136.6406 Q1579.8906,136.9375 1579.25,137.0781 Q1578.6094,137.2344 1577.9063,137.2344 Q1575.4063,137.2344 1574.0781,135.5938 Q1572.7656,133.9375 1572.7656,130.8125 Q1572.7656,127.6875 1574.0781,126.0313 Q1575.4063,124.375 1577.9063,124.375 Q1578.6094,124.375 1579.25,124.5313 Q1579.9063,124.6875 1580.4688,124.9844 L1580.4688,127.7031 Q1579.8438,127.125 1579.25,126.8594 Q1578.6563,126.5781 1578.0313,126.5781 Q1576.6875,126.5781 1576,127.6563 Q1575.3125,128.7188 1575.3125,130.8125 Q1575.3125,132.9063 1576,133.9844 Q1576.6875,135.0469 1578.0313,135.0469 Q1578.6563,135.0469 1579.25,134.7813 Q1579.8438,134.5 1580.4688,133.9219 L1580.4688,136.6406 Z " fill="#000000"/><text fill="#000000" font-family="sans-serif" font-size="14" lengthAdjust="spacing" textLength="142.707" x="1591.5" y="135.8467">ObservingProcedure</text><line style="stroke:#181818;stroke-width:0.5;" x1="1563.5" x2="1736.207" y1="147" y2="147"/><line style="stroke:#181818;stroke-width:0.5;" x1="1563.5" x2="1736.207" y1="155" y2="155"/></g><!--class SamplingProcedure--><g class="entity" data-qualified-name="SamplingProcedure" data-source-line="8" id="ent0018"><rect fill="#F1F1F1" height="48" rx="2.5" ry="2.5" style="stroke:#181818;stroke-width:0.5;" width="168.7324" x="1772.5" y="115"/><ellipse cx="1787.5" cy="131" fill="#ADD1B2" rx="11" ry="11" style="stroke:#181818;stroke-width:1;"/><path d="M1790.4688,136.6406 Q1789.8906,136.9375 1789.25,137.0781 Q1788.6094,137.2344 1787.9063,137.2344 Q1785.4063,137.2344 1784.0781,135.5938 Q1782.7656,133.9375 1782.7656,130.8125 Q1782.7656,127.6875 1784.0781,126.0313 Q1785.4063,124.375 1787.9063,124.375 Q1788.6094,124.375 1789.25,124.5313 Q1789.9063,124.6875 1790.4688,124.9844 L1790.4688,127.7031 Q1789.8438,127.125 1789.25,126.8594 Q1788.6563,126.5781 1788.0313,126.5781 Q1786.6875,126.5781 1786,127.6563 Q1785.3125,128.7188 1785.3125,130.8125 Q1785.3125,132.9063 1786,133.9844 Q1786.6875,135.0469 1788.0313,135.0469 Q1788.6563,135.0469 1789.25,134.7813 Q1789.8438,134.5 1790.4688,133.9219 L1790.4688,136.6406 Z " fill="#000000"/><text fill="#000000" font-family="sans-serif" font-size="14" lengthAdjust="spacing" textLength="136.7324" x="1801.5" y="135.8467">SamplingProcedure</text><line style="stroke:#181818;stroke-width:0.5;" x1="1773.5" x2="1940.2324" y1="147" y2="147"/><line style="stroke:#181818;stroke-width:0.5;" x1="1773.5" x2="1940.2324" y1="155" y2="155"/></g><!--class Asset--><g class="entity" data-qualified-name="Asset" data-source-line="9" id="ent0020"><rect fill="#F1F1F1" height="48" rx="2.5" ry="2.5" style="stroke:#181818;stroke-width:0.5;" width="70.2676" x="2048" y="7"/><ellipse cx="2063" cy="23" fill="#ADD1B2" rx="11" ry="11" style="stroke:#181818;stroke-width:1;"/><path d="M2065.9688,28.6406 Q2065.3906,28.9375 2064.75,29.0781 Q2064.1094,29.2344 2063.4063,29.2344 Q2060.9063,29.2344 2059.5781,27.5938 Q2058.2656,25.9375 2058.2656,22.8125 Q2058.2656,19.6875 2059.5781,18.0313 Q2060.9063,16.375 2063.4063,16.375 Q2064.1094,16.375 2064.75,16.5313 Q2065.4063,16.6875 2065.9688,16.9844 L2065.9688,19.7031 Q2065.3438,19.125 2064.75,18.8594 Q2064.1563,18.5781 2063.5313,18.5781 Q2062.1875,18.5781 2061.5,19.6563 Q2060.8125,20.7188 2060.8125,22.8125 Q2060.8125,24.9063 2061.5,25.9844 Q2062.1875,27.0469 2063.5313,27.0469 Q2064.1563,27.0469 2064.75,26.7813 Q2065.3438,26.5 2065.9688,25.9219 L2065.9688,28.6406 Z " fill="#000000"/><text fill="#000000" font-family="sans-serif" font-size="14" lengthAdjust="spacing" textLength="38.2676" x="2077" y="27.8467">Asset</text><line style="stroke:#181818;stroke-width:0.5;" x1="2049" x2="2117.2676" y1="39" y2="39"/><line style="stroke:#181818;stroke-width:0.5;" x1="2049" x2="2117.2676" y1="47" y2="47"/></g><!--class Platform--><g class="entity" data-qualified-name="Platform" data-source-line="9" id="ent0021"><rect fill="#F1F1F1" height="48" rx="2.5" ry="2.5" style="stroke:#181818;stroke-width:0.5;" width="91.2881" x="1976.5" y="115"/><ellipse cx="1991.5" cy="131" fill="#ADD1B2" rx="11" ry="11" style="stroke:#181818;stroke-width:1;"/><path d="M1994.4688,136.6406 Q1993.8906,136.9375 1993.25,137.0781 Q1992.6094,137.2344 1991.9063,137.2344 Q1989.4063,137.2344 1988.0781,135.5938 Q1986.7656,133.9375 1986.7656,130.8125 Q1986.7656,127.6875 1988.0781,126.0313 Q1989.4063,124.375 1991.9063,124.375 Q1992.6094,124.375 1993.25,124.5313 Q1993.9063,124.6875 1994.4688,124.9844 L1994.4688,127.7031 Q1993.8438,127.125 1993.25,126.8594 Q1992.6563,126.5781 1992.0313,126.5781 Q1990.6875,126.5781 1990,127.6563 Q1989.3125,128.7188 1989.3125,130.8125 Q1989.3125,132.9063 1990,133.9844 Q1990.6875,135.0469 1992.0313,135.0469 Q1992.6563,135.0469 1993.25,134.7813 Q1993.8438,134.5 1994.4688,133.9219 L1994.4688,136.6406 Z " fill="#000000"/><text fill="#000000" font-family="sans-serif" font-size="14" lengthAdjust="spacing" textLength="59.2881" x="2005.5" y="135.8467">Platform</text><line style="stroke:#181818;stroke-width:0.5;" x1="1977.5" x2="2066.7881" y1="147" y2="147"/><line style="stroke:#181818;stroke-width:0.5;" x1="1977.5" x2="2066.7881" y1="155" y2="155"/></g><!--class System--><g class="entity" data-qualified-name="System" data-source-line="10" id="ent0023"><rect fill="#F1F1F1" height="48" rx="2.5" ry="2.5" style="stroke:#181818;stroke-width:0.5;" width="84.2061" x="2103" y="115"/><ellipse cx="2118" cy="131" fill="#ADD1B2" rx="11" ry="11" style="stroke:#181818;stroke-width:1;"/><path d="M2120.9688,136.6406 Q2120.3906,136.9375 2119.75,137.0781 Q2119.1094,137.2344 2118.4063,137.2344 Q2115.9063,137.2344 2114.5781,135.5938 Q2113.2656,133.9375 2113.2656,130.8125 Q2113.2656,127.6875 2114.5781,126.0313 Q2115.9063,124.375 2118.4063,124.375 Q2119.1094,124.375 2119.75,124.5313 Q2120.4063,124.6875 2120.9688,124.9844 L2120.9688,127.7031 Q2120.3438,127.125 2119.75,126.8594 Q2119.1563,126.5781 2118.5313,126.5781 Q2117.1875,126.5781 2116.5,127.6563 Q2115.8125,128.7188 2115.8125,130.8125 Q2115.8125,132.9063 2116.5,133.9844 Q2117.1875,135.0469 2118.5313,135.0469 Q2119.1563,135.0469 2119.75,134.7813 Q2120.3438,134.5 2120.9688,133.9219 L2120.9688,136.6406 Z " fill="#000000"/><text fill="#000000" font-family="sans-serif" font-size="14" lengthAdjust="spacing" textLength="52.2061" x="2132" y="135.8467">System</text><line style="stroke:#181818;stroke-width:0.5;" x1="2104" x2="2186.2061" y1="147" y2="147"/><line style="stroke:#181818;stroke-width:0.5;" x1="2104" x2="2186.2061" y1="155" y2="155"/></g><!--class Sampler--><g class="entity" data-qualified-name="Sampler" data-source-line="10" id="ent0024"><rect fill="#F1F1F1" height="48" rx="2.5" ry="2.5" style="stroke:#181818;stroke-width:0.5;" width="90.249" x="1974" y="223"/><ellipse cx="1989" cy="239" fill="#ADD1B2" rx="11" ry="11" style="stroke:#181818;stroke-width:1;"/><path d="M1991.9688,244.6406 Q1991.3906,244.9375 1990.75,245.0781 Q1990.1094,245.2344 1989.4063,245.2344 Q1986.9063,245.2344 1985.5781,243.5938 Q1984.2656,241.9375 1984.2656,238.8125 Q1984.2656,235.6875 1985.5781,234.0313 Q1986.9063,232.375 1989.4063,232.375 Q1990.1094,232.375 1990.75,232.5313 Q1991.4063,232.6875 1991.9688,232.9844 L1991.9688,235.7031 Q1991.3438,235.125 1990.75,234.8594 Q1990.1563,234.5781 1989.5313,234.5781 Q1988.1875,234.5781 1987.5,235.6563 Q1986.8125,236.7188 1986.8125,238.8125 Q1986.8125,240.9063 1987.5,241.9844 Q1988.1875,243.0469 1989.5313,243.0469 Q1990.1563,243.0469 1990.75,242.7813 Q1991.3438,242.5 1991.9688,241.9219 L1991.9688,244.6406 Z " fill="#000000"/><text fill="#000000" font-family="sans-serif" font-size="14" lengthAdjust="spacing" textLength="58.249" x="2003" y="243.8467">Sampler</text><line style="stroke:#181818;stroke-width:0.5;" x1="1975" x2="2063.249" y1="255" y2="255"/><line style="stroke:#181818;stroke-width:0.5;" x1="1975" x2="2063.249" y1="263" y2="263"/></g><!--class Actuator--><g class="entity" data-qualified-name="Actuator" data-source-line="11" id="ent0026"><rect fill="#F1F1F1" height="48" rx="2.5" ry="2.5" style="stroke:#181818;stroke-width:0.5;" width="92.0264" x="2099" y="223"/><ellipse cx="2114" cy="239" fill="#ADD1B2" rx="11" ry="11" style="stroke:#181818;stroke-width:1;"/><path d="M2116.9688,244.6406 Q2116.3906,244.9375 2115.75,245.0781 Q2115.1094,245.2344 2114.4063,245.2344 Q2111.9063,245.2344 2110.5781,243.5938 Q2109.2656,241.9375 2109.2656,238.8125 Q2109.2656,235.6875 2110.5781,234.0313 Q2111.9063,232.375 2114.4063,232.375 Q2115.1094,232.375 2115.75,232.5313 Q2116.4063,232.6875 2116.9688,232.9844 L2116.9688,235.7031 Q2116.3438,235.125 2115.75,234.8594 Q2115.1563,234.5781 2114.5313,234.5781 Q2113.1875,234.5781 2112.5,235.6563 Q2111.8125,236.7188 2111.8125,238.8125 Q2111.8125,240.9063 2112.5,241.9844 Q2113.1875,243.0469 2114.5313,243.0469 Q2115.1563,243.0469 2115.75,242.7813 Q2116.3438,242.5 2116.9688,241.9219 L2116.9688,244.6406 Z " fill="#000000"/><text fill="#000000" font-family="sans-serif" font-size="14" lengthAdjust="spacing" textLength="60.0264" x="2128" y="243.8467">Actuator</text><line style="stroke:#181818;stroke-width:0.5;" x1="2100" x2="2190.0264" y1="255" y2="255"/><line style="stroke:#181818;stroke-width:0.5;" x1="2100" x2="2190.0264" y1="263" y2="263"/></g><!--class Execution--><g class="entity" data-qualified-name="Execution" data-source-line="13" id="ent0029"><rect fill="#F1F1F1" height="48" rx="2.5" ry="2.5" style="stroke:#181818;stroke-width:0.5;" width="101.1318" x="2354.5" y="7"/><ellipse cx="2369.5" cy="23" fill="#ADD1B2" rx="11" ry="11" style="stroke:#181818;stroke-width:1;"/><path d="M2372.4688,28.6406 Q2371.8906,28.9375 2371.25,29.0781 Q2370.6094,29.2344 2369.9063,29.2344 Q2367.4063,29.2344 2366.0781,27.5938 Q2364.7656,25.9375 2364.7656,22.8125 Q2364.7656,19.6875 2366.0781,18.0313 Q2367.4063,16.375 2369.9063,16.375 Q2370.6094,16.375 2371.25,16.5313 Q2371.9063,16.6875 2372.4688,16.9844 L2372.4688,19.7031 Q2371.8438,19.125 2371.25,18.8594 Q2370.6563,18.5781 2370.0313,18.5781 Q2368.6875,18.5781 2368,19.6563 Q2367.3125,20.7188 2367.3125,22.8125 Q2367.3125,24.9063 2368,25.9844 Q2368.6875,27.0469 2370.0313,27.0469 Q2370.6563,27.0469 2371.25,26.7813 Q2371.8438,26.5 2372.4688,25.9219 L2372.4688,28.6406 Z " fill="#000000"/><text fill="#000000" font-family="sans-serif" font-size="14" lengthAdjust="spacing" textLength="69.1318" x="2383.5" y="27.8467">Execution</text><line style="stroke:#181818;stroke-width:0.5;" x1="2355.5" x2="2454.6318" y1="39" y2="39"/><line style="stroke:#181818;stroke-width:0.5;" x1="2355.5" x2="2454.6318" y1="47" y2="47"/></g><!--class Sampling--><g class="entity" data-qualified-name="Sampling" data-source-line="13" id="ent0030"><rect fill="#F1F1F1" height="48" rx="2.5" ry="2.5" style="stroke:#181818;stroke-width:0.5;" width="97.5293" x="2222" y="115"/><ellipse cx="2237" cy="131" fill="#ADD1B2" rx="11" ry="11" style="stroke:#181818;stroke-width:1;"/><path d="M2239.9688,136.6406 Q2239.3906,136.9375 2238.75,137.0781 Q2238.1094,137.2344 2237.4063,137.2344 Q2234.9063,137.2344 2233.5781,135.5938 Q2232.2656,133.9375 2232.2656,130.8125 Q2232.2656,127.6875 2233.5781,126.0313 Q2234.9063,124.375 2237.4063,124.375 Q2238.1094,124.375 2238.75,124.5313 Q2239.4063,124.6875 2239.9688,124.9844 L2239.9688,127.7031 Q2239.3438,127.125 2238.75,126.8594 Q2238.1563,126.5781 2237.5313,126.5781 Q2236.1875,126.5781 2235.5,127.6563 Q2234.8125,128.7188 2234.8125,130.8125 Q2234.8125,132.9063 2235.5,133.9844 Q2236.1875,135.0469 2237.5313,135.0469 Q2238.1563,135.0469 2238.75,134.7813 Q2239.3438,134.5 2239.9688,133.9219 L2239.9688,136.6406 Z " fill="#000000"/><text fill="#000000" font-family="sans-serif" font-size="14" lengthAdjust="spacing" textLength="65.5293" x="2251" y="135.8467">Sampling</text><line style="stroke:#181818;stroke-width:0.5;" x1="2223" x2="2318.5293" y1="147" y2="147"/><line style="stroke:#181818;stroke-width:0.5;" x1="2223" x2="2318.5293" y1="155" y2="155"/></g><!--class ExecutionCollection--><g class="entity" data-qualified-name="ExecutionCollection" data-source-line="14" id="ent0032"><rect fill="#F1F1F1" height="48" rx="2.5" ry="2.5" style="stroke:#181818;stroke-width:0.5;" width="170.3799" x="2842" y="7"/><ellipse cx="2857" cy="23" fill="#ADD1B2" rx="11" ry="11" style="stroke:#181818;stroke-width:1;"/><path d="M2859.9688,28.6406 Q2859.3906,28.9375 2858.75,29.0781 Q2858.1094,29.2344 2857.4063,29.2344 Q2854.9063,29.2344 2853.5781,27.5938 Q2852.2656,25.9375 2852.2656,22.8125 Q2852.2656,19.6875 2853.5781,18.0313 Q2854.9063,16.375 2857.4063,16.375 Q2858.1094,16.375 2858.75,16.5313 Q2859.4063,16.6875 2859.9688,16.9844 L2859.9688,19.7031 Q2859.3438,19.125 2858.75,18.8594 Q2858.1563,18.5781 2857.5313,18.5781 Q2856.1875,18.5781 2855.5,19.6563 Q2854.8125,20.7188 2854.8125,22.8125 Q2854.8125,24.9063 2855.5,25.9844 Q2856.1875,27.0469 2857.5313,27.0469 Q2858.1563,27.0469 2858.75,26.7813 Q2859.3438,26.5 2859.9688,25.9219 L2859.9688,28.6406 Z " fill="#000000"/><text fill="#000000" font-family="sans-serif" font-size="14" lengthAdjust="spacing" textLength="138.3799" x="2871" y="27.8467">ExecutionCollection</text><line style="stroke:#181818;stroke-width:0.5;" x1="2843" x2="3011.3799" y1="39" y2="39"/><line style="stroke:#181818;stroke-width:0.5;" x1="2843" x2="3011.3799" y1="47" y2="47"/></g><!--class SamplingCollection--><g class="entity" data-qualified-name="SamplingCollection" data-source-line="14" id="ent0033"><rect fill="#F1F1F1" height="48" rx="2.5" ry="2.5" style="stroke:#181818;stroke-width:0.5;" width="166.7773" x="2641.5" y="115"/><ellipse cx="2656.5" cy="131" fill="#ADD1B2" rx="11" ry="11" style="stroke:#181818;stroke-width:1;"/><path d="M2659.4688,136.6406 Q2658.8906,136.9375 2658.25,137.0781 Q2657.6094,137.2344 2656.9063,137.2344 Q2654.4063,137.2344 2653.0781,135.5938 Q2651.7656,133.9375 2651.7656,130.8125 Q2651.7656,127.6875 2653.0781,126.0313 Q2654.4063,124.375 2656.9063,124.375 Q2657.6094,124.375 2658.25,124.5313 Q2658.9063,124.6875 2659.4688,124.9844 L2659.4688,127.7031 Q2658.8438,127.125 2658.25,126.8594 Q2657.6563,126.5781 2657.0313,126.5781 Q2655.6875,126.5781 2655,127.6563 Q2654.3125,128.7188 2654.3125,130.8125 Q2654.3125,132.9063 2655,133.9844 Q2655.6875,135.0469 2657.0313,135.0469 Q2657.6563,135.0469 2658.25,134.7813 Q2658.8438,134.5 2659.4688,133.9219 L2659.4688,136.6406 Z " fill="#000000"/><text fill="#000000" font-family="sans-serif" font-size="14" lengthAdjust="spacing" textLength="134.7773" x="2670.5" y="135.8467">SamplingCollection</text><line style="stroke:#181818;stroke-width:0.5;" x1="2642.5" x2="2807.2773" y1="147" y2="147"/><line style="stroke:#181818;stroke-width:0.5;" x1="2642.5" x2="2807.2773" y1="155" y2="155"/></g><!--class Actuation--><g class="entity" data-qualified-name="Actuation" data-source-line="15" id="ent0035"><rect fill="#F1F1F1" height="48" rx="2.5" ry="2.5" style="stroke:#181818;stroke-width:0.5;" width="99.0332" x="2355.5" y="115"/><ellipse cx="2370.5" cy="131" fill="#ADD1B2" rx="11" ry="11" style="stroke:#181818;stroke-width:1;"/><path d="M2373.4688,136.6406 Q2372.8906,136.9375 2372.25,137.0781 Q2371.6094,137.2344 2370.9063,137.2344 Q2368.4063,137.2344 2367.0781,135.5938 Q2365.7656,133.9375 2365.7656,130.8125 Q2365.7656,127.6875 2367.0781,126.0313 Q2368.4063,124.375 2370.9063,124.375 Q2371.6094,124.375 2372.25,124.5313 Q2372.9063,124.6875 2373.4688,124.9844 L2373.4688,127.7031 Q2372.8438,127.125 2372.25,126.8594 Q2371.6563,126.5781 2371.0313,126.5781 Q2369.6875,126.5781 2369,127.6563 Q2368.3125,128.7188 2368.3125,130.8125 Q2368.3125,132.9063 2369,133.9844 Q2369.6875,135.0469 2371.0313,135.0469 Q2371.6563,135.0469 2372.25,134.7813 Q2372.8438,134.5 2373.4688,133.9219 L2373.4688,136.6406 Z " fill="#000000"/><text fill="#000000" font-family="sans-serif" font-size="14" lengthAdjust="spacing" textLength="67.0332" x="2384.5" y="135.8467">Actuation</text><line style="stroke:#181818;stroke-width:0.5;" x1="2356.5" x2="2453.5332" y1="147" y2="147"/><line style="stroke:#181818;stroke-width:0.5;" x1="2356.5" x2="2453.5332" y1="155" y2="155"/></g><!--class Sensor--><g class="entity" data-qualified-name="Sensor" data-source-line="16" id="ent0037"><rect fill="#F1F1F1" height="48" rx="2.5" ry="2.5" style="stroke:#181818;stroke-width:0.5;" width="79.9883" x="2226" y="223"/><ellipse cx="2241" cy="239" fill="#ADD1B2" rx="11" ry="11" style="stroke:#181818;stroke-width:1;"/><path d="M2243.9688,244.6406 Q2243.3906,244.9375 2242.75,245.0781 Q2242.1094,245.2344 2241.4063,245.2344 Q2238.9063,245.2344 2237.5781,243.5938 Q2236.2656,241.9375 2236.2656,238.8125 Q2236.2656,235.6875 2237.5781,234.0313 Q2238.9063,232.375 2241.4063,232.375 Q2242.1094,232.375 2242.75,232.5313 Q2243.4063,232.6875 2243.9688,232.9844 L2243.9688,235.7031 Q2243.3438,235.125 2242.75,234.8594 Q2242.1563,234.5781 2241.5313,234.5781 Q2240.1875,234.5781 2239.5,235.6563 Q2238.8125,236.7188 2238.8125,238.8125 Q2238.8125,240.9063 2239.5,241.9844 Q2240.1875,243.0469 2241.5313,243.0469 Q2242.1563,243.0469 2242.75,242.7813 Q2243.3438,242.5 2243.9688,241.9219 L2243.9688,244.6406 Z " fill="#000000"/><text fill="#000000" font-family="sans-serif" font-size="14" lengthAdjust="spacing" textLength="47.9883" x="2255" y="243.8467">Sensor</text><line style="stroke:#181818;stroke-width:0.5;" x1="2227" x2="2304.9883" y1="255" y2="255"/><line style="stroke:#181818;stroke-width:0.5;" x1="2227" x2="2304.9883" y1="263" y2="263"/></g><!--class ActuationCollection--><g class="entity" data-qualified-name="ActuationCollection" data-source-line="17" id="ent0039"><rect fill="#F1F1F1" height="48" rx="2.5" ry="2.5" style="stroke:#181818;stroke-width:0.5;" width="168.2813" x="2843" y="115"/><ellipse cx="2858" cy="131" fill="#ADD1B2" rx="11" ry="11" style="stroke:#181818;stroke-width:1;"/><path d="M2860.9688,136.6406 Q2860.3906,136.9375 2859.75,137.0781 Q2859.1094,137.2344 2858.4063,137.2344 Q2855.9063,137.2344 2854.5781,135.5938 Q2853.2656,133.9375 2853.2656,130.8125 Q2853.2656,127.6875 2854.5781,126.0313 Q2855.9063,124.375 2858.4063,124.375 Q2859.1094,124.375 2859.75,124.5313 Q2860.4063,124.6875 2860.9688,124.9844 L2860.9688,127.7031 Q2860.3438,127.125 2859.75,126.8594 Q2859.1563,126.5781 2858.5313,126.5781 Q2857.1875,126.5781 2856.5,127.6563 Q2855.8125,128.7188 2855.8125,130.8125 Q2855.8125,132.9063 2856.5,133.9844 Q2857.1875,135.0469 2858.5313,135.0469 Q2859.1563,135.0469 2859.75,134.7813 Q2860.3438,134.5 2860.9688,133.9219 L2860.9688,136.6406 Z " fill="#000000"/><text fill="#000000" font-family="sans-serif" font-size="14" lengthAdjust="spacing" textLength="136.2813" x="2872" y="135.8467">ActuationCollection</text><line style="stroke:#181818;stroke-width:0.5;" x1="2844" x2="3010.2813" y1="147" y2="147"/><line style="stroke:#181818;stroke-width:0.5;" x1="2844" x2="3010.2813" y1="155" y2="155"/></g><!--class ObservationCollection--><g class="entity" data-qualified-name="ObservationCollection" data-source-line="18" id="ent0041"><rect fill="#F1F1F1" height="48" rx="2.5" ry="2.5" style="stroke:#181818;stroke-width:0.5;" width="186.499" x="3046" y="115"/><ellipse cx="3061" cy="131" fill="#ADD1B2" rx="11" ry="11" style="stroke:#181818;stroke-width:1;"/><path d="M3063.9688,136.6406 Q3063.3906,136.9375 3062.75,137.0781 Q3062.1094,137.2344 3061.4063,137.2344 Q3058.9063,137.2344 3057.5781,135.5938 Q3056.2656,133.9375 3056.2656,130.8125 Q3056.2656,127.6875 3057.5781,126.0313 Q3058.9063,124.375 3061.4063,124.375 Q3062.1094,124.375 3062.75,124.5313 Q3063.4063,124.6875 3063.9688,124.9844 L3063.9688,127.7031 Q3063.3438,127.125 3062.75,126.8594 Q3062.1563,126.5781 3061.5313,126.5781 Q3060.1875,126.5781 3059.5,127.6563 Q3058.8125,128.7188 3058.8125,130.8125 Q3058.8125,132.9063 3059.5,133.9844 Q3060.1875,135.0469 3061.5313,135.0469 Q3062.1563,135.0469 3062.75,134.7813 Q3063.3438,134.5 3063.9688,133.9219 L3063.9688,136.6406 Z " fill="#000000"/><text fill="#000000" font-family="sans-serif" font-size="14" lengthAdjust="spacing" textLength="154.499" x="3075" y="135.8467">ObservationCollection</text><line style="stroke:#181818;stroke-width:0.5;" x1="3047" x2="3231.499" y1="147" y2="147"/><line style="stroke:#181818;stroke-width:0.5;" x1="3047" x2="3231.499" y1="155" y2="155"/></g><!--class Observation--><g class="entity" data-qualified-name="Observation" data-source-line="19" id="ent0043"><rect fill="#F1F1F1" height="48" rx="2.5" ry="2.5" style="stroke:#181818;stroke-width:0.5;" width="117.251" x="2489.5" y="115"/><ellipse cx="2504.5" cy="131" fill="#ADD1B2" rx="11" ry="11" style="stroke:#181818;stroke-width:1;"/><path d="M2507.4688,136.6406 Q2506.8906,136.9375 2506.25,137.0781 Q2505.6094,137.2344 2504.9063,137.2344 Q2502.4063,137.2344 2501.0781,135.5938 Q2499.7656,133.9375 2499.7656,130.8125 Q2499.7656,127.6875 2501.0781,126.0313 Q2502.4063,124.375 2504.9063,124.375 Q2505.6094,124.375 2506.25,124.5313 Q2506.9063,124.6875 2507.4688,124.9844 L2507.4688,127.7031 Q2506.8438,127.125 2506.25,126.8594 Q2505.6563,126.5781 2505.0313,126.5781 Q2503.6875,126.5781 2503,127.6563 Q2502.3125,128.7188 2502.3125,130.8125 Q2502.3125,132.9063 2503,133.9844 Q2503.6875,135.0469 2505.0313,135.0469 Q2505.6563,135.0469 2506.25,134.7813 Q2506.8438,134.5 2507.4688,133.9219 L2507.4688,136.6406 Z " fill="#000000"/><text fill="#000000" font-family="sans-serif" font-size="14" lengthAdjust="spacing" textLength="85.251" x="2518.5" y="135.8467">Observation</text><line style="stroke:#181818;stroke-width:0.5;" x1="2490.5" x2="2605.751" y1="147" y2="147"/><line style="stroke:#181818;stroke-width:0.5;" x1="2490.5" x2="2605.751" y1="155" y2="155"/></g><!--class Deployment--><g class="entity" data-qualified-name="Deployment" data-source-line="20" id="ent0045"><rect fill="#F1F1F1" height="48" rx="2.5" ry="2.5" style="stroke:#181818;stroke-width:0.5;" width="117.6338" x="26" y="7"/><ellipse cx="41" cy="23" fill="#ADD1B2" rx="11" ry="11" style="stroke:#181818;stroke-width:1;"/><path d="M43.9688,28.6406 Q43.3906,28.9375 42.75,29.0781 Q42.1094,29.2344 41.4063,29.2344 Q38.9063,29.2344 37.5781,27.5938 Q36.2656,25.9375 36.2656,22.8125 Q36.2656,19.6875 37.5781,18.0313 Q38.9063,16.375 41.4063,16.375 Q42.1094,16.375 42.75,16.5313 Q43.4063,16.6875 43.9688,16.9844 L43.9688,19.7031 Q43.3438,19.125 42.75,18.8594 Q42.1563,18.5781 41.5313,18.5781 Q40.1875,18.5781 39.5,19.6563 Q38.8125,20.7188 38.8125,22.8125 Q38.8125,24.9063 39.5,25.9844 Q40.1875,27.0469 41.5313,27.0469 Q42.1563,27.0469 42.75,26.7813 Q43.3438,26.5 43.9688,25.9219 L43.9688,28.6406 Z " fill="#000000"/><text fill="#000000" font-family="sans-serif" font-size="14" lengthAdjust="spacing" textLength="85.6338" x="55" y="27.8467">Deployment</text><line style="stroke:#181818;stroke-width:0.5;" x1="27" x2="142.6338" y1="39" y2="39"/><line style="stroke:#181818;stroke-width:0.5;" x1="27" x2="142.6338" y1="47" y2="47"/></g><!--class Stimulus--><g class="entity" data-qualified-name="Stimulus" data-source-line="21" id="ent0046"><rect fill="#F1F1F1" height="48" rx="2.5" ry="2.5" style="stroke:#181818;stroke-width:0.5;" width="92.833" x="179.5" y="7"/><ellipse cx="194.5" cy="23" fill="#ADD1B2" rx="11" ry="11" style="stroke:#181818;stroke-width:1;"/><path d="M197.4688,28.6406 Q196.8906,28.9375 196.25,29.0781 Q195.6094,29.2344 194.9063,29.2344 Q192.4063,29.2344 191.0781,27.5938 Q189.7656,25.9375 189.7656,22.8125 Q189.7656,19.6875 191.0781,18.0313 Q192.4063,16.375 194.9063,16.375 Q195.6094,16.375 196.25,16.5313 Q196.9063,16.6875 197.4688,16.9844 L197.4688,19.7031 Q196.8438,19.125 196.25,18.8594 Q195.6563,18.5781 195.0313,18.5781 Q193.6875,18.5781 193,19.6563 Q192.3125,20.7188 192.3125,22.8125 Q192.3125,24.9063 193,25.9844 Q193.6875,27.0469 195.0313,27.0469 Q195.6563,27.0469 196.25,26.7813 Q196.8438,26.5 197.4688,25.9219 L197.4688,28.6406 Z " fill="#000000"/><text fill="#000000" font-family="sans-serif" font-size="14" lengthAdjust="spacing" textLength="60.833" x="208.5" y="27.8467">Stimulus</text><line style="stroke:#181818;stroke-width:0.5;" x1="180.5" x2="271.333" y1="39" y2="39"/><line style="stroke:#181818;stroke-width:0.5;" x1="180.5" x2="271.333" y1="47" y2="47"/></g><!--class SampleCollection--><g class="entity" data-qualified-name="SampleCollection" data-source-line="23" id="ent0047"><rect fill="#F1F1F1" height="48" rx="2.5" ry="2.5" style="stroke:#181818;stroke-width:0.5;" width="153.7412" x="308" y="7"/><ellipse cx="323" cy="23" fill="#ADD1B2" rx="11" ry="11" style="stroke:#181818;stroke-width:1;"/><path d="M325.9688,28.6406 Q325.3906,28.9375 324.75,29.0781 Q324.1094,29.2344 323.4063,29.2344 Q320.9063,29.2344 319.5781,27.5938 Q318.2656,25.9375 318.2656,22.8125 Q318.2656,19.6875 319.5781,18.0313 Q320.9063,16.375 323.4063,16.375 Q324.1094,16.375 324.75,16.5313 Q325.4063,16.6875 325.9688,16.9844 L325.9688,19.7031 Q325.3438,19.125 324.75,18.8594 Q324.1563,18.5781 323.5313,18.5781 Q322.1875,18.5781 321.5,19.6563 Q320.8125,20.7188 320.8125,22.8125 Q320.8125,24.9063 321.5,25.9844 Q322.1875,27.0469 323.5313,27.0469 Q324.1563,27.0469 324.75,26.7813 Q325.3438,26.5 325.9688,25.9219 L325.9688,28.6406 Z " fill="#000000"/><text fill="#000000" font-family="sans-serif" font-size="14" lengthAdjust="spacing" textLength="121.7412" x="337" y="27.8467">SampleCollection</text><line style="stroke:#181818;stroke-width:0.5;" x1="309" x2="460.7412" y1="39" y2="39"/><line style="stroke:#181818;stroke-width:0.5;" x1="309" x2="460.7412" y1="47" y2="47"/></g><!--class FeatureOfInterest--><g class="entity" data-qualified-name="FeatureOfInterest" data-source-line="24" id="ent0048"><rect fill="#F1F1F1" height="48" rx="2.5" ry="2.5" style="stroke:#181818;stroke-width:0.5;" width="156.1816" x="7" y="115"/><ellipse cx="22" cy="131" fill="#ADD1B2" rx="11" ry="11" style="stroke:#181818;stroke-width:1;"/><path d="M24.9688,136.6406 Q24.3906,136.9375 23.75,137.0781 Q23.1094,137.2344 22.4063,137.2344 Q19.9063,137.2344 18.5781,135.5938 Q17.2656,133.9375 17.2656,130.8125 Q17.2656,127.6875 18.5781,126.0313 Q19.9063,124.375 22.4063,124.375 Q23.1094,124.375 23.75,124.5313 Q24.4063,124.6875 24.9688,124.9844 L24.9688,127.7031 Q24.3438,127.125 23.75,126.8594 Q23.1563,126.5781 22.5313,126.5781 Q21.1875,126.5781 20.5,127.6563 Q19.8125,128.7188 19.8125,130.8125 Q19.8125,132.9063 20.5,133.9844 Q21.1875,135.0469 22.5313,135.0469 Q23.1563,135.0469 23.75,134.7813 Q24.3438,134.5 24.9688,133.9219 L24.9688,136.6406 Z " fill="#000000"/><text fill="#000000" font-family="sans-serif" font-size="14" lengthAdjust="spacing" textLength="124.1816" x="36" y="135.8467">FeatureOfInterest</text><line style="stroke:#181818;stroke-width:0.5;" x1="8" x2="162.1816" y1="147" y2="147"/><line style="stroke:#181818;stroke-width:0.5;" x1="8" x2="162.1816" y1="155" y2="155"/></g><!--class Input--><g class="entity" data-qualified-name="Input" data-source-line="25" id="ent0049"><rect fill="#F1F1F1" height="48" rx="2.5" ry="2.5" style="stroke:#181818;stroke-width:0.5;" width="68.251" x="198" y="115"/><ellipse cx="213" cy="131" fill="#ADD1B2" rx="11" ry="11" style="stroke:#181818;stroke-width:1;"/><path d="M215.9688,136.6406 Q215.3906,136.9375 214.75,137.0781 Q214.1094,137.2344 213.4063,137.2344 Q210.9063,137.2344 209.5781,135.5938 Q208.2656,133.9375 208.2656,130.8125 Q208.2656,127.6875 209.5781,126.0313 Q210.9063,124.375 213.4063,124.375 Q214.1094,124.375 214.75,124.5313 Q215.4063,124.6875 215.9688,124.9844 L215.9688,127.7031 Q215.3438,127.125 214.75,126.8594 Q214.1563,126.5781 213.5313,126.5781 Q212.1875,126.5781 211.5,127.6563 Q210.8125,128.7188 210.8125,130.8125 Q210.8125,132.9063 211.5,133.9844 Q212.1875,135.0469 213.5313,135.0469 Q214.1563,135.0469 214.75,134.7813 Q215.3438,134.5 215.9688,133.9219 L215.9688,136.6406 Z " fill="#000000"/><text fill="#000000" font-family="sans-serif" font-size="14" lengthAdjust="spacing" textLength="36.251" x="227" y="135.8467">Input</text><line style="stroke:#181818;stroke-width:0.5;" x1="199" x2="265.251" y1="147" y2="147"/><line style="stroke:#181818;stroke-width:0.5;" x1="199" x2="265.251" y1="155" y2="155"/></g><!--class Result--><g class="entity" data-qualified-name="Result" data-source-line="26" id="ent0050"><rect fill="#F1F1F1" height="48" rx="2.5" ry="2.5" style="stroke:#181818;stroke-width:0.5;" width="75.8867" x="301" y="115"/><ellipse cx="316" cy="131" fill="#ADD1B2" rx="11" ry="11" style="stroke:#181818;stroke-width:1;"/><path d="M318.9688,136.6406 Q318.3906,136.9375 317.75,137.0781 Q317.1094,137.2344 316.4063,137.2344 Q313.9063,137.2344 312.5781,135.5938 Q311.2656,133.9375 311.2656,130.8125 Q311.2656,127.6875 312.5781,126.0313 Q313.9063,124.375 316.4063,124.375 Q317.1094,124.375 317.75,124.5313 Q318.4063,124.6875 318.9688,124.9844 L318.9688,127.7031 Q318.3438,127.125 317.75,126.8594 Q317.1563,126.5781 316.5313,126.5781 Q315.1875,126.5781 314.5,127.6563 Q313.8125,128.7188 313.8125,130.8125 Q313.8125,132.9063 314.5,133.9844 Q315.1875,135.0469 316.5313,135.0469 Q317.1563,135.0469 317.75,134.7813 Q318.3438,134.5 318.9688,133.9219 L318.9688,136.6406 Z " fill="#000000"/><text fill="#000000" font-family="sans-serif" font-size="14" lengthAdjust="spacing" textLength="43.8867" x="330" y="135.8467">Result</text><line style="stroke:#181818;stroke-width:0.5;" x1="302" x2="375.8867" y1="147" y2="147"/><line style="stroke:#181818;stroke-width:0.5;" x1="302" x2="375.8867" y1="155" y2="155"/></g><!--class Output--><g class="entity" data-qualified-name="Output" data-source-line="29" id="ent0051"><rect fill="#F1F1F1" height="48" rx="2.5" ry="2.5" style="stroke:#181818;stroke-width:0.5;" width="80.6309" x="44.5" y="223"/><ellipse cx="59.5" cy="239" fill="#ADD1B2" rx="11" ry="11" style="stroke:#181818;stroke-width:1;"/><path d="M62.4688,244.6406 Q61.8906,244.9375 61.25,245.0781 Q60.6094,245.2344 59.9063,245.2344 Q57.4063,245.2344 56.0781,243.5938 Q54.7656,241.9375 54.7656,238.8125 Q54.7656,235.6875 56.0781,234.0313 Q57.4063,232.375 59.9063,232.375 Q60.6094,232.375 61.25,232.5313 Q61.9063,232.6875 62.4688,232.9844 L62.4688,235.7031 Q61.8438,235.125 61.25,234.8594 Q60.6563,234.5781 60.0313,234.5781 Q58.6875,234.5781 58,235.6563 Q57.3125,236.7188 57.3125,238.8125 Q57.3125,240.9063 58,241.9844 Q58.6875,243.0469 60.0313,243.0469 Q60.6563,243.0469 61.25,242.7813 Q61.8438,242.5 62.4688,241.9219 L62.4688,244.6406 Z " fill="#000000"/><text fill="#000000" font-family="sans-serif" font-size="14" lengthAdjust="spacing" textLength="48.6309" x="73.5" y="243.8467">Output</text><line style="stroke:#181818;stroke-width:0.5;" x1="45.5" x2="124.1309" y1="255" y2="255"/><line style="stroke:#181818;stroke-width:0.5;" x1="45.5" x2="124.1309" y1="263" y2="263"/></g><!--reverse link Property to ActuatableProperty--><g class="link" data-entity-1="ent0001" data-entity-2="ent0002" data-link-type="extension" data-source-line="1" id="lnk3"><path codeLine="1" d="M580.8865,66.5884 C559.8965,84.2484 544.81,96.94 523.72,114.68" fill="none" id="Property-backto-ActuatableProperty" style="stroke:#181818;stroke-width:1;"/><polygon fill="none" points="594.66,55,577.0237,61.9972,584.7493,71.1795,594.66,55" style="stroke:#181818;stroke-width:1;stroke-linejoin:miter;stroke-miterlimit:10;"/></g><!--reverse link Sample to MaterialSample--><g class="link" data-entity-1="ent0004" data-entity-2="ent0005" data-link-type="extension" data-source-line="2" id="lnk6"><path codeLine="2" d="M1012.3567,64.4445 C983.6067,82.1645 959.35,97.11 930.55,114.86" fill="none" id="Sample-backto-MaterialSample" style="stroke:#181818;stroke-width:1;"/><polygon fill="none" points="1027.68,55,1009.2086,59.3367,1015.5049,69.5522,1027.68,55" style="stroke:#181818;stroke-width:1;stroke-linejoin:miter;stroke-miterlimit:10;"/></g><!--reverse link Sample to SpatialSample--><g class="link" data-entity-1="ent0004" data-entity-2="ent0007" data-link-type="extension" data-source-line="3" id="lnk8"><path codeLine="3" d="M1065,73 C1065,90.66 1065,96.94 1065,114.68" fill="none" id="Sample-backto-SpatialSample" style="stroke:#181818;stroke-width:1;"/><polygon fill="none" points="1065,55,1059,73,1071,73,1065,55" style="stroke:#181818;stroke-width:1;stroke-linejoin:miter;stroke-miterlimit:10;"/></g><!--reverse link Sample to StatisticalSample--><g class="link" data-entity-1="ent0004" data-entity-2="ent0009" data-link-type="extension" data-source-line="4" id="lnk10"><path codeLine="4" d="M1119.3276,64.1725 C1149.2476,81.8925 1174.95,97.11 1204.93,114.86" fill="none" id="Sample-backto-StatisticalSample" style="stroke:#181818;stroke-width:1;"/><polygon fill="none" points="1103.84,55,1116.2701,69.335,1122.3851,59.0099,1103.84,55" style="stroke:#181818;stroke-width:1;stroke-linejoin:miter;stroke-miterlimit:10;"/></g><!--reverse link Property to ObservableProperty--><g class="link" data-entity-1="ent0001" data-entity-2="ent0011" data-link-type="extension" data-source-line="5" id="lnk12"><path codeLine="5" d="M649.8955,69.4333 C663.0555,87.0933 670.4,96.94 683.62,114.68" fill="none" id="Property-backto-ObservableProperty" style="stroke:#181818;stroke-width:1;"/><polygon fill="none" points="639.14,55,645.0844,73.0184,654.7066,65.8481,639.14,55" style="stroke:#181818;stroke-width:1;stroke-linejoin:miter;stroke-miterlimit:10;"/></g><!--reverse link Procedure to ActuatingProcedure--><g class="link" data-entity-1="ent0013" data-entity-2="ent0014" data-link-type="extension" data-source-line="6" id="lnk15"><path codeLine="6" d="M1588.8326,63.1732 C1554.0626,80.8932 1522.24,97.11 1487.4,114.86" fill="none" id="Procedure-backto-ActuatingProcedure" style="stroke:#181818;stroke-width:1;"/><polygon fill="none" points="1604.87,55,1586.1082,57.8274,1591.557,68.519,1604.87,55" style="stroke:#181818;stroke-width:1;stroke-linejoin:miter;stroke-miterlimit:10;"/></g><!--reverse link Procedure to ObservingProcedure--><g class="link" data-entity-1="ent0013" data-entity-2="ent0016" data-link-type="extension" data-source-line="7" id="lnk17"><path codeLine="7" d="M1650,73 C1650,90.66 1650,96.94 1650,114.68" fill="none" id="Procedure-backto-ObservingProcedure" style="stroke:#181818;stroke-width:1;"/><polygon fill="none" points="1650,55,1644,73,1656,73,1650,55" style="stroke:#181818;stroke-width:1;stroke-linejoin:miter;stroke-miterlimit:10;"/></g><!--reverse link Procedure to SamplingProcedure--><g class="link" data-entity-1="ent0013" data-entity-2="ent0018" data-link-type="extension" data-source-line="8" id="lnk19"><path codeLine="8" d="M1710.9411,63.205 C1745.5411,80.925 1777.15,97.11 1811.81,114.86" fill="none" id="Procedure-backto-SamplingProcedure" style="stroke:#181818;stroke-width:1;"/><polygon fill="none" points="1694.92,55,1708.2061,68.5454,1713.6762,57.8647,1694.92,55" style="stroke:#181818;stroke-width:1;stroke-linejoin:miter;stroke-miterlimit:10;"/></g><!--reverse link Asset to Platform--><g class="link" data-entity-1="ent0020" data-entity-2="ent0021" data-link-type="extension" data-source-line="9" id="lnk22"><path codeLine="9" d="M2060.7839,70.6022 C2050.6239,88.2622 2045.63,96.94 2035.42,114.68" fill="none" id="Asset-backto-Platform" style="stroke:#181818;stroke-width:1;"/><polygon fill="none" points="2069.76,55,2055.5831,67.6102,2065.9846,73.5943,2069.76,55" style="stroke:#181818;stroke-width:1;stroke-linejoin:miter;stroke-miterlimit:10;"/></g><!--reverse link System to Sampler--><g class="link" data-entity-1="ent0023" data-entity-2="ent0024" data-link-type="extension" data-source-line="10" id="lnk25"><path codeLine="10" d="M2103.8865,174.5884 C2082.8965,192.2484 2067.81,204.94 2046.72,222.68" fill="none" id="System-backto-Sampler" style="stroke:#181818;stroke-width:1;"/><polygon fill="none" points="2117.66,163,2100.0237,169.9972,2107.7493,179.1795,2117.66,163" style="stroke:#181818;stroke-width:1;stroke-linejoin:miter;stroke-miterlimit:10;"/></g><!--reverse link System to Actuator--><g class="link" data-entity-1="ent0023" data-entity-2="ent0026" data-link-type="extension" data-source-line="11" id="lnk27"><path codeLine="11" d="M2145,181 C2145,198.66 2145,204.94 2145,222.68" fill="none" id="System-backto-Actuator" style="stroke:#181818;stroke-width:1;"/><polygon fill="none" points="2145,163,2139,181,2151,181,2145,163" style="stroke:#181818;stroke-width:1;stroke-linejoin:miter;stroke-miterlimit:10;"/></g><!--reverse link Asset to System--><g class="link" data-entity-1="ent0020" data-entity-2="ent0023" data-link-type="extension" data-source-line="12" id="lnk28"><path codeLine="12" d="M2105.5383,70.5372 C2115.8683,88.1972 2120.98,96.94 2131.36,114.68" fill="none" id="Asset-backto-System" style="stroke:#181818;stroke-width:1;"/><polygon fill="none" points="2096.45,55,2100.3592,73.5666,2110.7173,67.5077,2096.45,55" style="stroke:#181818;stroke-width:1;stroke-linejoin:miter;stroke-miterlimit:10;"/></g><!--reverse link Execution to Sampling--><g class="link" data-entity-1="ent0029" data-entity-2="ent0030" data-link-type="extension" data-source-line="13" id="lnk31"><path codeLine="13" d="M2361.8041,66.1688 C2339.4841,83.8288 2322.91,96.94 2300.48,114.68" fill="none" id="Execution-backto-Sampling" style="stroke:#181818;stroke-width:1;"/><polygon fill="none" points="2375.92,55,2358.0812,61.4635,2365.527,70.8741,2375.92,55" style="stroke:#181818;stroke-width:1;stroke-linejoin:miter;stroke-miterlimit:10;"/></g><!--reverse link ExecutionCollection to SamplingCollection--><g class="link" data-entity-1="ent0032" data-entity-2="ent0033" data-link-type="extension" data-source-line="14" id="lnk34"><path codeLine="14" d="M2867.231,63.3636 C2833.461,81.0836 2802.93,97.11 2769.09,114.86" fill="none" id="ExecutionCollection-backto-SamplingCollection" style="stroke:#181818;stroke-width:1;"/><polygon fill="none" points="2883.17,55,2864.4432,58.0506,2870.0189,68.6766,2883.17,55" style="stroke:#181818;stroke-width:1;stroke-linejoin:miter;stroke-miterlimit:10;"/></g><!--reverse link Execution to Actuation--><g class="link" data-entity-1="ent0029" data-entity-2="ent0035" data-link-type="extension" data-source-line="15" id="lnk36"><path codeLine="15" d="M2405,73 C2405,90.66 2405,96.94 2405,114.68" fill="none" id="Execution-backto-Actuation" style="stroke:#181818;stroke-width:1;"/><polygon fill="none" points="2405,55,2399,73,2411,73,2405,55" style="stroke:#181818;stroke-width:1;stroke-linejoin:miter;stroke-miterlimit:10;"/></g><!--reverse link System to Sensor--><g class="link" data-entity-1="ent0023" data-entity-2="ent0037" data-link-type="extension" data-source-line="16" id="lnk38"><path codeLine="16" d="M2184.7968,174.864 C2204.9468,192.524 2219.13,204.94 2239.38,222.68" fill="none" id="System-backto-Sensor" style="stroke:#181818;stroke-width:1;"/><polygon fill="none" points="2171.26,163,2180.8421,179.3763,2188.7515,170.3518,2171.26,163" style="stroke:#181818;stroke-width:1;stroke-linejoin:miter;stroke-miterlimit:10;"/></g><!--reverse link ExecutionCollection to ActuationCollection--><g class="link" data-entity-1="ent0032" data-entity-2="ent0039" data-link-type="extension" data-source-line="17" id="lnk40"><path codeLine="17" d="M2927,73 C2927,90.66 2927,96.94 2927,114.68" fill="none" id="ExecutionCollection-backto-ActuationCollection" style="stroke:#181818;stroke-width:1;"/><polygon fill="none" points="2927,55,2921,73,2933,73,2927,55" style="stroke:#181818;stroke-width:1;stroke-linejoin:miter;stroke-miterlimit:10;"/></g><!--reverse link ExecutionCollection to ObservationCollection--><g class="link" data-entity-1="ent0032" data-entity-2="ent0041" data-link-type="extension" data-source-line="18" id="lnk42"><path codeLine="18" d="M2989.0997,63.0498 C3024.5397,80.7698 3057.22,97.11 3092.72,114.86" fill="none" id="ExecutionCollection-backto-ObservationCollection" style="stroke:#181818;stroke-width:1;"/><polygon fill="none" points="2973,55,2986.4164,68.4164,2991.783,57.6833,2973,55" style="stroke:#181818;stroke-width:1;stroke-linejoin:miter;stroke-miterlimit:10;"/></g><!--reverse link Execution to Observation--><g class="link" data-entity-1="ent0029" data-entity-2="ent0043" data-link-type="extension" data-source-line="19" id="lnk44"><path codeLine="19" d="M2450.4895,65.7202 C2474.3095,83.3802 2492.61,96.94 2516.54,114.68" fill="none" id="Execution-backto-Observation" style="stroke:#181818;stroke-width:1;"/><polygon fill="none" points="2436.03,55,2446.9161,70.54,2454.0629,60.9004,2436.03,55" style="stroke:#181818;stroke-width:1;stroke-linejoin:miter;stroke-miterlimit:10;"/></g><?plantuml-src VP9BRiCm34JtFeKla1jq4xG9a4LWepw1eZ250Ee3aGfYe8Ul4CaVEL5tyhmXXwBLU-l0yzX-_EvsxLvo42mk27tMcq5eXv3mMJ1u9J1f1HgSu0hXI8YLd6bVP7ON0dylCkD1mZLuM4-bpC-iRnsfnt-EPtHXs1C19zYZu9lrkXb6Oj2h2l25bYQnVbsSU7DuW0oih2dp5ltJ8e9yTIpwjaU-TmJ5N60eJb3jErUzQxmrv-NNx2-cHg8WQh_0eHqr6Cx2m4e735JbpsMk8f9y1C7nNtItaual2sYodumBq_aRA60b9-y-VNI1bwhfBVq1?></g></svg>